# Blender 5.2.2 LTS
# www.blender.org
o NatureScene.002
v -5.452745 -2.954703 -12.848553
v -5.452743 -2.954703 12.848553
v -0.000000 6.245824 -12.848553
v 0.000001 6.245824 12.848553
v -0.295322 -2.856556 -12.848553
v -0.000001 -2.491818 -12.848553
v -0.147662 -2.784699 -12.848553
v -0.039567 -2.651196 -12.848553
v 0.000001 -2.491818 12.848553
v -0.295320 -2.856556 12.848553
v -0.039565 -2.651196 12.848553
v -0.147660 -2.784699 12.848553
v -0.000001 4.172051 -12.848553
v 0.000001 4.172051 12.848553
v -1.684006 5.803795 12.848553
v -1.684008 5.803795 -12.848553
v -1.684007 3.730022 12.848553
v -1.684008 3.730022 -12.848553
v -12.025740 -3.077945 -12.848552
v -12.025737 -3.077945 12.848554
v -4.509856 -3.053428 -12.848553
v -4.509853 -3.053428 12.848553
v -25.169388 -2.954703 -6.875464
v 0.527718 -2.954703 -6.875464
v -25.169388 6.245824 -12.328208
v 0.527718 6.245824 -12.328208
v -25.169390 -2.856556 -12.032887
v -25.169390 -2.491818 -12.328207
v -25.169390 -2.784699 -12.180547
v -25.169390 -2.651196 -12.288642
v 0.527718 -2.491818 -12.328207
v 0.527718 -2.856556 -12.032887
v 0.527718 -2.651196 -12.288642
v 0.527718 -2.784699 -12.180548
v -25.169388 4.172051 -12.328208
v 0.527718 4.172051 -12.328208
v 0.527719 5.803795 -10.644200
v -25.169388 5.803795 -10.644200
v 0.527718 3.730023 -10.644200
v -25.169388 3.730022 -10.644199
v -25.169388 -3.077945 -0.302468
v 0.527717 -3.077945 -0.302469
v -25.169388 -3.053428 -7.818353
v 0.527718 -3.053428 -7.818354
vn -0.0000 -0.0000 -1.0000
vn -0.9926 0.1214 -0.0000
vn -0.8952 0.4457 -0.0000
vn -0.6222 0.7829 -0.0000
vn -0.2338 0.9723 -0.0000
vn -0.0190 0.9998 -0.0000
vn -1.0000 -0.0000 -0.0000
vn -0.2539 0.9672 -0.0000
vn -0.0000 -0.0000 1.0000
vn 0.2539 -0.9672 -0.0000
vn -0.0033 1.0000 -0.0000
vn -0.0000 0.1214 0.9926
vn -0.0000 0.4457 0.8952
vn -0.0000 0.7829 0.6222
vn -0.0000 0.9723 0.2338
vn -0.0000 0.9998 0.0190
vn -0.0000 0.9672 0.2539
vn 1.0000 -0.0000 -0.0000
vn -0.0000 -0.9672 -0.2539
vn -0.0000 1.0000 0.0033
vt 0.000000 0.000000
vt 0.000000 0.300521
vt 1.000000 0.287763
vt 1.000000 0.300521
vt 0.000000 0.287763
vt 1.000000 0.267081
vt 0.000000 0.267081
vt 1.000000 0.256717
vt 1.000000 0.000000
vt 0.000000 0.256717
vt 0.000000 0.833987
vt 1.000000 0.833987
vt 0.000000 1.000000
vt 1.000000 1.000000
s 1
f 13/1/1 16/1/1 3/1/1
f 6/2/2 11/3/3 9/4/2
f 8/5/3 12/6/4 11/3/3
f 7/7/4 10/8/5 12/6/4
f 2/9/6 5/10/5 1/1/6
f 9/4/2 13/11/7 6/2/2
f 17/12/7 16/13/7 18/11/7
f 3/1/8 15/1/8 4/1/8
f 14/1/9 15/1/9 17/1/9
f 14/12/10 18/11/10 13/11/10
f 20/9/11 21/10/11 19/1/11
f 35/1/7 38/1/7 25/1/7
f 28/2/12 33/3/13 31/4/12
f 30/5/13 34/6/14 33/3/13
f 29/7/14 32/8/15 34/6/14
f 24/9/16 27/10/15 23/1/16
f 31/4/12 35/11/9 28/2/12
f 39/12/9 38/13/9 40/11/9
f 25/1/17 37/1/17 26/1/17
f 36/1/18 37/1/18 39/1/18
f 36/12/19 40/11/19 35/11/19
f 41/1/20 44/8/20 43/10/20
f 13/1/1 18/1/1 16/1/1
f 6/2/2 8/5/3 11/3/3
f 8/5/3 7/7/4 12/6/4
f 7/7/4 5/10/5 10/8/5
f 2/9/6 10/8/5 5/10/5
f 9/4/2 14/12/7 13/11/7
f 17/12/7 15/14/7 16/13/7
f 3/1/8 16/1/8 15/1/8
f 14/1/9 4/1/9 15/1/9
f 14/12/10 17/12/10 18/11/10
f 20/9/11 22/8/11 21/10/11
f 35/1/7 40/1/7 38/1/7
f 28/2/12 30/5/13 33/3/13
f 30/5/13 29/7/14 34/6/14
f 29/7/14 27/10/15 32/8/15
f 24/9/16 32/8/15 27/10/15
f 31/4/12 36/12/9 35/11/9
f 39/12/9 37/14/9 38/13/9
f 25/1/17 38/1/17 37/1/17
f 36/1/18 26/1/18 37/1/18
f 36/12/19 39/12/19 40/11/19
f 41/1/20 42/9/20 44/8/20
