# Blender 5.2.2 LTS
# www.blender.org
o ScifiCafe.001
v 3.891554 -7.439665 4.468309
v 3.756699 -7.439665 4.650140
v 3.604670 -7.439665 4.817878
v 3.891554 -7.319813 4.468309
v 3.756699 -7.319813 4.650140
v 3.604670 -7.319813 4.817878
v 4.230624 -7.439665 4.694868
v 3.893025 -7.439665 5.106233
v 0.934654 -7.439665 5.694687
v 0.693831 -7.439665 5.580787
v 0.465332 -7.439665 5.443829
v 0.251357 -7.439665 5.285134
v 0.053967 -7.439665 5.106230
v -0.124936 -7.439665 4.908840
v -0.283630 -7.439665 4.694866
v -0.420587 -7.439665 4.466366
v -0.534487 -7.439665 4.225544
v -0.624235 -7.439665 3.974716
v -0.688965 -7.439665 3.716300
v -0.728054 -7.439665 3.452784
v -0.741126 -7.439665 3.186704
v -0.728054 -7.439665 2.920625
v -0.688965 -7.439665 2.657109
v -0.624236 -7.439665 2.398693
v -0.534488 -7.439665 2.147865
v -0.420588 -7.439665 1.907042
v -0.283632 -7.439665 1.678543
v -0.124938 -7.439665 1.464569
v 0.053965 -7.439665 1.267179
v 0.251354 -7.439665 1.088275
v 0.465328 -7.439665 0.929580
v 0.693827 -7.439665 0.792623
v 0.934649 -7.439665 0.678721
v 1.185476 -7.439665 0.588973
v 4.230624 -7.319813 4.694868
v 3.893025 -7.319813 5.106233
v 0.934654 -7.319813 5.694687
v 0.693831 -7.319813 5.580787
v 0.465332 -7.319813 5.443829
v 0.251357 -7.319813 5.285134
v 0.053967 -7.319813 5.106230
v -0.124936 -7.319813 4.908840
v -0.283630 -7.319813 4.694866
v -0.420587 -7.319813 4.466366
v -0.534487 -7.319813 4.225544
v -0.624235 -7.319813 3.974716
v -0.688965 -7.319813 3.716300
v -0.728054 -7.319813 3.452784
v -0.741126 -7.319813 3.186704
v -0.728054 -7.319813 2.920625
v -0.688965 -7.319813 2.657109
v -0.624236 -7.319813 2.398693
v -0.534488 -7.319813 2.147865
v -0.420588 -7.319813 1.907042
v -0.283632 -7.319813 1.678543
v -0.124938 -7.319813 1.464569
v 0.053965 -7.319813 1.267179
v 0.251354 -7.319813 1.088275
v 0.465328 -7.319813 0.929580
v 0.693827 -7.319813 0.792623
v 0.934649 -7.319813 0.678722
v 1.185476 -7.319813 0.588973
v 2.273145 -7.439665 0.144340
v 1.973497 -7.439665 0.129619
v 2.569905 -7.439665 0.188360
v 2.860923 -7.439665 0.261256
v 3.143394 -7.439665 0.362326
v 3.414597 -7.439665 0.490596
v 3.671923 -7.439665 0.644831
v 3.912891 -7.439665 0.823545
v 4.135182 -7.439665 1.025018
v 4.336656 -7.439665 1.247310
v 4.515370 -7.439665 1.488278
v 4.669605 -7.439665 1.745604
v 4.797875 -7.439665 2.016807
v 4.898945 -7.439665 2.299278
v 4.971841 -7.439665 2.590297
v 5.015861 -7.439665 2.887057
v 5.030581 -7.439665 3.186704
v 5.015862 -7.439665 3.486351
v 4.971841 -7.439665 3.783112
v 4.898945 -7.439665 4.074129
v 4.797875 -7.439665 4.356600
v 4.669605 -7.439665 4.627804
v 4.515369 -7.439665 4.885129
v 3.912891 -7.439665 5.549863
v 3.671922 -7.439665 5.728577
v 3.414596 -7.439665 5.882812
v 3.143392 -7.439665 6.011082
v 2.860921 -7.439665 6.112152
v 2.569903 -7.439665 6.185048
v 2.273142 -7.439665 6.229067
v 1.973496 -7.439665 6.243788
v 1.673849 -7.439665 6.229067
v 1.487762 -7.439665 6.201880
v 1.377088 -7.439665 6.185046
v 1.377081 -7.439665 0.188362
v 1.102263 -7.439665 0.256776
v 1.673841 -7.439665 0.144341
v 2.273145 -7.319813 0.144340
v 1.973497 -7.319813 0.129619
v 2.569905 -7.319813 0.188360
v 2.860923 -7.319813 0.261256
v 3.143394 -7.319813 0.362326
v 3.414597 -7.319813 0.490596
v 3.671923 -7.319813 0.644831
v 3.912891 -7.319813 0.823545
v 4.135182 -7.319813 1.025018
v 4.336656 -7.319813 1.247310
v 4.515370 -7.319813 1.488278
v 4.669605 -7.319813 1.745604
v 4.797875 -7.319813 2.016807
v 4.898945 -7.319813 2.299278
v 4.971841 -7.319813 2.590297
v 5.015861 -7.319813 2.887057
v 5.030581 -7.319813 3.186704
v 5.015862 -7.319813 3.486351
v 4.971841 -7.319813 3.783112
v 4.898945 -7.319813 4.074129
v 4.797875 -7.319813 4.356600
v 4.669605 -7.319813 4.627804
v 4.515369 -7.319813 4.885129
v 3.912890 -7.319813 5.549863
v 3.671922 -7.319813 5.728577
v 3.414596 -7.319813 5.882812
v 3.143392 -7.319813 6.011082
v 2.860921 -7.319813 6.112152
v 2.569903 -7.319813 6.185048
v 2.273142 -7.319813 6.229067
v 1.973496 -7.319813 6.243788
v 1.673849 -7.319813 6.229067
v 1.487762 -7.319813 6.201880
v 1.377088 -7.319813 6.185046
v 1.377081 -7.319813 0.188362
v 1.102263 -7.319813 0.256776
v 1.673841 -7.319813 0.144341
v 1.157958 -7.439665 5.894316
v 1.078828 -7.439665 5.746274
v 1.160372 -7.439665 5.849361
v 1.146182 -7.439665 5.805441
v 1.117548 -7.439665 5.769242
v 1.078828 -7.319813 5.746274
v 1.157958 -7.319813 5.894316
v 1.117548 -7.319813 5.769242
v 1.146182 -7.319813 5.805441
v 1.160372 -7.319813 5.849361
v 1.212191 -7.439665 6.143997
v 1.129794 -7.439665 6.006753
v 1.172221 -7.439665 6.125161
v 1.142527 -7.439665 6.092464
v 1.127628 -7.439665 6.050885
v 1.129794 -7.319813 6.006753
v 1.212191 -7.319813 6.143997
v 1.127628 -7.319813 6.050885
v 1.142527 -7.319813 6.092464
v 1.172221 -7.319813 6.125161
v 4.073420 -7.439665 5.286628
v 4.070463 -7.439665 5.407047
v 4.087199 -7.439665 5.304611
v 4.095630 -7.439665 5.325367
v 4.098137 -7.439665 5.347481
v 4.094548 -7.439665 5.369444
v 4.085109 -7.439665 5.389761
v 4.070463 -7.319813 5.407047
v 4.073420 -7.319813 5.286628
v 4.085109 -7.319813 5.389761
v 4.094548 -7.319813 5.369444
v 4.098137 -7.319813 5.347481
v 4.095630 -7.319813 5.325367
v 4.087199 -7.319813 5.304611
vn -0.1519 -0.0000 0.9884
vn 0.7735 -0.0000 0.6338
vn 0.8760 -0.0000 -0.4823
vn -0.5556 -0.0000 0.8315
vn 0.7071 -0.0000 -0.7071
vn -0.3855 -0.0000 0.9227
vn -0.4747 -0.0000 0.8802
vn -0.5593 -0.0000 0.8290
vn -0.6386 -0.0000 0.7695
vn -0.7118 -0.0000 0.7024
vn -0.7773 -0.0000 0.6291
vn -0.8331 -0.0000 0.5531
vn -0.8799 -0.0000 0.4751
vn -0.9212 -0.0000 0.3891
vn -0.9551 -0.0000 0.2964
vn -0.9797 -0.0000 0.2003
vn -0.9948 -0.0000 0.1023
vn -1.0000 -0.0000 0.0036
vn -0.9955 -0.0000 -0.0951
vn -0.9813 -0.0000 -0.1927
vn -0.9575 -0.0000 -0.2883
vn -0.9245 -0.0000 -0.3811
vn -0.8826 -0.0000 -0.4702
vn -0.8321 -0.0000 -0.5547
vn -0.7735 -0.0000 -0.6338
vn -0.7075 -0.0000 -0.7067
vn -0.6346 -0.0000 -0.7728
vn -0.5556 -0.0000 -0.8314
vn -0.4713 -0.0000 -0.8820
vn -0.3823 -0.0000 -0.9240
vn -0.9971 -0.0000 -0.0755
vn 0.0998 -0.0000 -0.9950
vn 0.0014 -0.0000 -1.0000
vn 0.1972 -0.0000 -0.9804
vn 0.2927 -0.0000 -0.9562
vn 0.3855 -0.0000 -0.9227
vn 0.4747 -0.0000 -0.8802
vn 0.5593 -0.0000 -0.8290
vn 0.6386 -0.0000 -0.7695
vn 0.7117 -0.0000 -0.7024
vn 0.7773 -0.0000 -0.6291
vn 0.8331 -0.0000 -0.5531
vn 0.8799 -0.0000 -0.4751
vn 0.9212 -0.0000 -0.3891
vn 0.9551 -0.0000 -0.2964
vn 0.9797 -0.0000 -0.2003
vn 0.9948 -0.0000 -0.1023
vn 1.0000 -0.0000 -0.0036
vn 0.9955 -0.0000 0.0951
vn 0.9813 -0.0000 0.1927
vn 0.9575 -0.0000 0.2883
vn 0.9245 -0.0000 0.3811
vn 0.8826 -0.0000 0.4702
vn -0.1160 -0.0000 0.9932
vn 0.6346 -0.0000 0.7728
vn 0.5556 -0.0000 0.8314
vn 0.4713 -0.0000 0.8820
vn 0.3823 -0.0000 0.9240
vn 0.2897 -0.0000 0.9571
vn 0.1942 -0.0000 0.9810
vn 0.0969 -0.0000 0.9953
vn -0.0014 -0.0000 1.0000
vn -0.0986 -0.0000 0.9951
vn -0.1475 -0.0000 0.9891
vn -0.1981 -0.0000 0.9802
vn -0.1936 -0.0000 -0.9811
vn -0.0969 -0.0000 -0.9953
vn 0.7118 -0.0000 -0.7024
vn -0.9903 -0.0000 -0.1388
vn -0.4371 -0.0000 0.8994
vn -0.9814 -0.0000 0.1920
vn -0.8672 -0.0000 0.4980
vn -0.7140 -0.0000 0.7002
vn -0.3461 -0.0000 0.9382
vn -0.9907 -0.0000 -0.1360
vn -0.6556 -0.0000 0.7551
vn -0.8546 -0.0000 0.5193
vn -0.9752 -0.0000 0.2213
vn 0.7601 -0.0000 -0.6498
vn 0.7196 -0.0000 0.6944
vn 0.8621 -0.0000 -0.5067
vn 0.9572 -0.0000 -0.2893
vn 1.0000 -0.0000 -0.0023
vn 0.9603 -0.0000 0.2789
vn 0.8470 -0.0000 0.5315
vn 0.8621 -0.0000 -0.5068
vt -1.087666 0.126351
vt -1.274325 0.795027
vt -1.274325 0.126351
vt -0.562208 0.126351
vt -0.749226 0.795028
vt -0.749226 0.126351
vt -0.920015 0.126351
vt -0.894769 0.795028
vt -0.920015 0.795027
vt -1.594727 0.795028
vt -1.594727 0.126351
vt -1.908203 0.795028
vt -1.908203 0.126351
vt -2.214795 0.795028
vt -2.214795 0.126351
vt -2.514656 0.795028
vt -2.514656 0.126351
vt -2.808024 0.795028
vt -2.808024 0.126351
vt -3.095198 0.795028
vt -3.095198 0.126351
vt -3.376526 0.795028
vt -3.376526 0.126351
vt -3.652377 0.795027
vt -3.652377 0.126351
vt -3.923140 0.795027
vt -3.923140 0.126350
vt -4.189200 0.795027
vt -4.189200 0.126350
vt -4.450950 0.795027
vt -4.450950 0.126350
vt -4.708767 0.795027
vt -4.708767 0.126350
vt -4.963025 0.795027
vt -4.963025 0.126350
vt -5.214076 0.795027
vt -5.214076 0.126350
vt -5.462264 0.795027
vt -5.462264 0.126349
vt -5.707920 0.795027
vt -5.707920 0.126349
vt -5.951357 0.795027
vt -5.951357 0.126349
vt -6.192882 0.795025
vt -6.192882 0.126349
vt -6.432783 0.795025
vt -6.432783 0.126349
vt -6.671346 0.795025
vt -6.671346 0.126349
vt -6.908840 0.795025
vt -6.908840 0.126349
vt -7.145534 0.795025
vt -7.145534 0.126348
vt -7.381689 0.795025
vt -7.381689 0.126348
vt -7.617561 0.795025
vt -7.617561 0.126348
vt -7.853408 0.795024
vt -7.853408 0.126348
vt -7.870989 0.126347
vt -8.098181 0.795024
vt -8.098181 0.126347
vt 7.355305 0.126347
vt 7.091094 0.795024
vt 7.091094 0.126347
vt -8.339307 0.795024
vt -8.339307 0.126347
vt 6.822962 0.795024
vt 6.822962 0.126347
vt -8.581161 0.795024
vt -8.581161 0.126347
vt 6.550585 0.795024
vt 6.550585 0.126347
vt 6.273632 0.795024
vt 6.273632 0.126347
vt 5.991795 0.795024
vt 5.991795 0.126347
vt 5.704779 0.795024
vt 5.704779 0.126347
vt 5.412322 0.795024
vt 5.412322 0.126347
vt 5.114206 0.795024
vt 5.114206 0.126347
vt 4.810261 0.795024
vt 4.810261 0.126347
vt 4.500408 0.795024
vt 4.500408 0.126348
vt 4.184647 0.795025
vt 4.184647 0.126348
vt 3.863098 0.795025
vt 3.863098 0.126348
vt 3.536005 0.795025
vt 3.536005 0.126348
vt 2.905180 0.126349
vt 2.875640 0.795025
vt 2.875640 0.126349
vt 2.182110 0.126349
vt 2.526057 0.795025
vt 2.182110 0.795027
vt 1.835969 0.795027
vt 1.835969 0.126349
vt 9.608593 0.126347
vt 9.365767 0.795024
vt 9.365767 0.126347
vt 1.488653 0.126349
vt 1.488653 0.795027
vt 9.121707 0.795024
vt 9.121707 0.126347
vt 1.141230 0.126350
vt 1.141230 0.795027
vt 8.876143 0.795024
vt 8.876143 0.126347
vt 0.794763 0.795027
vt 0.794763 0.126350
vt 8.628801 0.795024
vt 8.628801 0.126347
vt 0.450292 0.795027
vt 0.450292 0.126350
vt 8.379407 0.795024
vt 8.379407 0.126347
vt 0.108768 0.795027
vt 0.108768 0.126350
vt 8.127662 0.795024
vt 8.127662 0.126347
vt -0.228969 0.795027
vt -0.228969 0.126351
vt 7.873271 0.795024
vt 7.873271 0.126347
vt -0.438828 0.795027
vt -0.438828 0.126351
vt 7.615924 0.795024
vt 7.615924 0.126347
vt 7.355305 0.795024
vt -0.562208 0.795028
vt 2.526057 0.126349
vt 2.768347 0.795025
vt -0.940532 0.126351
vt -0.940532 0.795027
vt -0.979684 0.126351
vt -0.979684 0.795027
vt -1.031619 0.126351
vt -1.031619 0.795027
vt -0.797890 0.126351
vt -0.797890 0.795028
vt -0.842330 0.126351
vt -0.842330 0.795028
vt -0.876361 0.126351
vt -0.876361 0.795028
vt -0.894769 0.126351
vt 3.588311 0.795025
vt 3.588311 0.126349
vt 3.675298 0.795025
vt 3.675298 0.126349
vt 3.326235 0.795025
vt 3.326235 0.126349
vt 2.969629 0.795025
vt 2.969629 0.126349
vt 2.905180 0.795025
vt 2.768347 0.126349
vt 2.794127 0.795025
vt 2.794127 0.126349
vt 2.818628 0.795025
vt 2.818628 0.126349
vt 2.840318 0.795025
vt 2.840318 0.126349
vt 2.857805 0.795025
vt 2.857805 0.126349
vt 2.869883 0.795025
vt 2.869883 0.126349
vt -1.087666 0.795027
vt -7.870989 0.795024
vt 9.608593 0.795024
s 1
f 138/1/70 37/2/6 9/3/6
f 96/4/65 153/5/74 147/6/74
f 137/7/69 152/8/75 143/9/69
f 9/3/6 38/10/7 10/11/7
f 10/11/7 39/12/8 11/13/8
f 11/13/8 40/14/9 12/15/9
f 12/15/9 41/16/10 13/17/10
f 13/17/10 42/18/11 14/19/11
f 14/19/11 43/20/12 15/21/12
f 15/21/12 44/22/13 16/23/13
f 16/23/13 45/24/14 17/25/14
f 17/25/14 46/26/15 18/27/15
f 18/27/15 47/28/16 19/29/16
f 19/29/16 48/30/17 20/31/17
f 20/31/17 49/32/18 21/33/18
f 21/33/18 50/34/19 22/35/19
f 22/35/19 51/36/20 23/37/20
f 23/37/20 52/38/21 24/39/21
f 24/39/21 53/40/22 25/41/22
f 25/41/22 54/42/23 26/43/23
f 26/43/23 55/44/24 27/45/24
f 27/45/24 56/46/25 28/47/25
f 28/47/25 57/48/26 29/49/26
f 29/49/26 58/50/27 30/51/27
f 30/51/27 59/52/28 31/53/28
f 31/53/28 60/54/29 32/55/29
f 32/55/29 61/56/30 33/57/30
f 33/57/30 62/58/31 34/59/31
f 98/60/19 134/61/66 97/62/66
f 72/63/41 110/64/42 73/65/42
f 97/62/66 136/66/67 99/67/67
f 73/65/42 111/68/43 74/69/43
f 99/67/67 101/70/33 64/71/33
f 74/69/43 112/72/44 75/73/44
f 75/73/44 113/74/45 76/75/45
f 76/75/45 114/76/46 77/77/46
f 77/77/46 115/78/47 78/79/47
f 78/79/47 116/80/48 79/81/48
f 79/81/48 117/82/49 80/83/49
f 80/83/49 118/84/50 81/85/50
f 81/85/50 119/86/51 82/87/51
f 82/87/51 120/88/52 83/89/52
f 83/89/52 121/90/53 84/91/53
f 84/91/53 122/92/54 85/93/54
f 8/94/5 165/95/79 157/96/79
f 87/97/56 123/98/55 124/99/56
f 87/97/56 125/100/57 88/101/57
f 64/102/33 100/103/32 63/104/32
f 89/105/58 125/100/57 126/106/58
f 63/104/32 102/107/34 65/108/34
f 90/109/59 126/106/58 127/110/59
f 65/108/34 103/111/35 66/112/35
f 90/109/59 128/113/60 91/114/60
f 66/112/35 104/115/36 67/116/36
f 91/114/60 129/117/61 92/118/61
f 67/116/36 105/119/37 68/120/37
f 92/118/61 130/121/62 93/122/62
f 68/120/37 106/123/38 69/124/38
f 93/122/62 131/125/63 94/126/63
f 69/124/38 107/127/39 70/128/39
f 94/126/63 132/129/64 95/130/64
f 70/128/39 108/131/68 71/132/40
f 71/132/40 109/133/41 72/63/41
f 95/130/64 133/134/65 96/4/65
f 62/58/31 98/60/19 34/59/31
f 86/135/55 164/136/80 123/98/55
f 143/9/69 139/137/71 137/7/69
f 146/138/71 140/139/72 139/137/71
f 145/140/72 141/141/73 140/139/72
f 144/142/73 138/1/70 141/141/73
f 153/5/74 149/143/76 147/6/74
f 156/144/76 150/145/77 149/143/76
f 155/146/77 151/147/78 150/145/77
f 154/148/78 148/149/75 151/147/78
f 85/93/54 35/150/4 7/151/4
f 7/151/4 4/152/1 1/153/1
f 1/153/1 5/154/2 2/155/2
f 2/155/2 6/156/3 3/157/3
f 3/157/3 36/158/5 8/94/5
f 158/159/80 166/160/85 164/136/80
f 163/161/85 167/162/84 166/160/85
f 162/163/84 168/164/83 167/162/84
f 161/165/83 169/166/82 168/164/83
f 160/167/82 170/168/86 169/166/82
f 159/169/81 165/95/79 170/168/86
f 138/1/70 142/170/70 37/2/6
f 96/4/65 133/134/65 153/5/74
f 137/7/69 148/149/75 152/8/75
f 9/3/6 37/2/6 38/10/7
f 10/11/7 38/10/7 39/12/8
f 11/13/8 39/12/8 40/14/9
f 12/15/9 40/14/9 41/16/10
f 13/17/10 41/16/10 42/18/11
f 14/19/11 42/18/11 43/20/12
f 15/21/12 43/20/12 44/22/13
f 16/23/13 44/22/13 45/24/14
f 17/25/14 45/24/14 46/26/15
f 18/27/15 46/26/15 47/28/16
f 19/29/16 47/28/16 48/30/17
f 20/31/17 48/30/17 49/32/18
f 21/33/18 49/32/18 50/34/19
f 22/35/19 50/34/19 51/36/20
f 23/37/20 51/36/20 52/38/21
f 24/39/21 52/38/21 53/40/22
f 25/41/22 53/40/22 54/42/23
f 26/43/23 54/42/23 55/44/24
f 27/45/24 55/44/24 56/46/25
f 28/47/25 56/46/25 57/48/26
f 29/49/26 57/48/26 58/50/27
f 30/51/27 58/50/27 59/52/28
f 31/53/28 59/52/28 60/54/29
f 32/55/29 60/54/29 61/56/30
f 33/57/30 61/56/30 62/58/31
f 98/60/19 135/171/19 134/61/66
f 72/63/41 109/133/41 110/64/42
f 97/62/66 134/61/66 136/66/67
f 73/65/42 110/64/42 111/68/43
f 99/67/67 136/66/67 101/70/33
f 74/69/43 111/68/43 112/72/44
f 75/73/44 112/72/44 113/74/45
f 76/75/45 113/74/45 114/76/46
f 77/77/46 114/76/46 115/78/47
f 78/79/47 115/78/47 116/80/48
f 79/81/48 116/80/48 117/82/49
f 80/83/49 117/82/49 118/84/50
f 81/85/50 118/84/50 119/86/51
f 82/87/51 119/86/51 120/88/52
f 83/89/52 120/88/52 121/90/53
f 84/91/53 121/90/53 122/92/54
f 8/94/5 36/158/5 165/95/79
f 87/97/56 86/135/55 123/98/55
f 87/97/56 124/99/56 125/100/57
f 64/102/33 101/172/33 100/103/32
f 89/105/58 88/101/57 125/100/57
f 63/104/32 100/103/32 102/107/34
f 90/109/59 89/105/58 126/106/58
f 65/108/34 102/107/34 103/111/35
f 90/109/59 127/110/59 128/113/60
f 66/112/35 103/111/35 104/115/36
f 91/114/60 128/113/60 129/117/61
f 67/116/36 104/115/36 105/119/37
f 92/118/61 129/117/61 130/121/62
f 68/120/37 105/119/37 106/123/38
f 93/122/62 130/121/62 131/125/63
f 69/124/38 106/123/38 107/127/39
f 94/126/63 131/125/63 132/129/64
f 70/128/39 107/127/39 108/131/68
f 71/132/40 108/131/68 109/133/41
f 95/130/64 132/129/64 133/134/65
f 62/58/31 135/171/19 98/60/19
f 86/135/55 158/159/80 164/136/80
f 143/9/69 146/138/71 139/137/71
f 146/138/71 145/140/72 140/139/72
f 145/140/72 144/142/73 141/141/73
f 144/142/73 142/170/70 138/1/70
f 153/5/74 156/144/76 149/143/76
f 156/144/76 155/146/77 150/145/77
f 155/146/77 154/148/78 151/147/78
f 154/148/78 152/8/75 148/149/75
f 85/93/54 122/92/54 35/150/4
f 7/151/4 35/150/4 4/152/1
f 1/153/1 4/152/1 5/154/2
f 2/155/2 5/154/2 6/156/3
f 3/157/3 6/156/3 36/158/5
f 158/159/80 163/161/85 166/160/85
f 163/161/85 162/163/84 167/162/84
f 162/163/84 161/165/83 168/164/83
f 161/165/83 160/167/82 169/166/82
f 160/167/82 159/169/81 170/168/86
f 159/169/81 157/96/79 165/95/79
