# Blender 5.2.2 LTS
# www.blender.org
o ScifiCafe.013
v -2.077918 -7.355636 1.193585
v -2.077918 -6.980473 1.167478
v -2.037935 -7.355636 1.202711
v -2.026607 -6.980473 1.179189
v -2.005871 -7.355636 1.228281
v -1.985459 -6.980473 1.212003
v -1.988076 -7.355636 1.265231
v -1.962624 -6.980473 1.259422
v -1.988077 -7.355636 1.306242
v -1.962624 -6.980473 1.312052
v -2.005871 -7.355636 1.343193
v -1.985459 -6.980473 1.359470
v -2.037935 -7.355636 1.368763
v -2.026607 -6.980473 1.392285
v -2.077918 -7.355636 1.377889
v -2.077918 -6.980473 1.403996
v -2.117901 -7.355636 1.368763
v -2.129229 -6.980473 1.392285
v -2.149966 -7.355636 1.343193
v -2.170377 -6.980473 1.359470
v -2.167760 -7.355636 1.306242
v -2.193213 -6.980473 1.312052
v -2.167760 -7.355636 1.265231
v -2.193213 -6.980473 1.259422
v -2.149966 -7.355636 1.228281
v -2.170377 -6.980473 1.212003
v -2.117901 -7.355636 1.202711
v -2.129229 -6.980473 1.179189
v -2.024068 -6.996934 1.173916
v -2.077918 -6.996934 1.161625
v -1.980883 -6.996934 1.208354
v -1.956918 -6.996934 1.258119
v -1.956918 -6.996934 1.313354
v -1.980883 -6.996934 1.363119
v -2.024068 -6.996934 1.397558
v -2.077918 -6.996934 1.409849
v -2.131768 -6.996934 1.397558
v -2.174953 -6.996934 1.363119
v -2.198919 -6.996934 1.313354
v -2.198918 -6.996934 1.258119
v -2.174953 -6.996934 1.208354
v -2.131768 -6.996934 1.173916
v -2.026970 -6.977730 1.179942
v -2.077918 -6.977730 1.168313
v -1.986112 -6.977730 1.212524
v -1.963438 -6.977730 1.259607
v -1.963438 -6.977730 1.311866
v -1.986112 -6.977730 1.358950
v -2.026970 -6.977730 1.391533
v -2.077918 -6.977730 1.403161
v -2.128866 -6.977730 1.391533
v -2.169724 -6.977730 1.358950
v -2.192398 -6.977730 1.311866
v -2.192398 -6.977730 1.259608
v -2.169724 -6.977730 1.212524
v -2.128867 -6.977730 1.179941
v -2.032567 -6.729520 1.278479
v -2.036025 -6.729003 1.277681
v -2.029795 -6.729934 1.280714
v -2.028256 -6.730164 1.283944
v -2.028256 -6.730164 1.287530
v -2.029795 -6.729934 1.290760
v -2.032568 -6.729520 1.292995
v -2.036025 -6.729003 1.293793
v -2.039482 -6.728487 1.292996
v -2.042254 -6.728073 1.290760
v -2.043793 -6.727843 1.287530
v -2.043793 -6.727843 1.283944
v -2.042254 -6.728073 1.280714
v -2.039482 -6.728487 1.278479
v -2.117835 -7.300344 1.278478
v -2.121292 -7.299827 1.277681
v -2.115062 -7.300758 1.280714
v -2.113524 -7.300988 1.283944
v -2.113523 -7.300988 1.287530
v -2.115062 -7.300758 1.290760
v -2.117835 -7.300344 1.292996
v -2.121292 -7.299827 1.293794
v -2.124749 -7.299311 1.292996
v -2.127522 -7.298897 1.290760
v -2.129060 -7.298667 1.287530
v -2.129060 -7.298667 1.283944
v -2.127521 -7.298897 1.280714
v -2.124749 -7.299311 1.278478
v -2.068390 -6.977730 1.265952
v -2.077918 -6.977730 1.263777
v -2.087446 -6.977730 1.265952
v -2.095086 -6.977730 1.272046
v -2.099327 -6.977730 1.280851
v -2.099327 -6.977730 1.290623
v -2.095087 -6.977730 1.299428
v -2.087446 -6.977730 1.305522
v -2.077918 -6.977730 1.307696
v -2.068390 -6.977730 1.305522
v -2.060750 -6.977730 1.299428
v -2.056509 -6.977730 1.290623
v -2.056509 -6.977730 1.280851
v -2.060750 -6.977730 1.272046
v -2.068390 -6.983369 1.265952
v -2.077918 -6.983369 1.263777
v -2.060750 -6.983369 1.272046
v -2.087446 -6.983369 1.265952
v -2.095086 -6.983369 1.272046
v -2.099327 -6.983369 1.280851
v -2.099327 -6.983369 1.290623
v -2.095087 -6.983369 1.299428
v -2.087446 -6.983369 1.305522
v -2.077918 -6.983369 1.307696
v -2.068390 -6.983369 1.305522
v -2.060750 -6.983369 1.299428
v -2.056509 -6.983369 1.290623
v -2.056509 -6.983369 1.280851
v -0.747096 -7.355636 -0.428938
v -0.728675 -6.980473 -0.447439
v -0.725202 -7.355636 -0.394260
v -0.700578 -6.980473 -0.402935
v -0.720523 -7.355636 -0.353516
v -0.694573 -6.980473 -0.350649
v -0.733985 -7.355636 -0.314777
v -0.711849 -6.980473 -0.300935
v -0.762922 -7.355636 -0.285715
v -0.748984 -6.980473 -0.263640
v -0.801603 -7.355636 -0.272087
v -0.798624 -6.980473 -0.246150
v -0.842366 -7.355636 -0.276591
v -0.850935 -6.980473 -0.251930
v -0.877138 -7.355636 -0.298336
v -0.895559 -6.980473 -0.279836
v -0.899032 -7.355636 -0.333015
v -0.923656 -6.980473 -0.324339
v -0.903712 -7.355636 -0.373758
v -0.929661 -6.980473 -0.376626
v -0.890249 -7.355636 -0.412497
v -0.912385 -6.980473 -0.426339
v -0.861313 -7.355636 -0.441559
v -0.875250 -6.980473 -0.463635
v -0.822631 -7.355636 -0.455187
v -0.825610 -6.980473 -0.481124
v -0.781868 -7.355636 -0.450683
v -0.773298 -6.980473 -0.475344
v -0.695059 -6.996934 -0.404880
v -0.724545 -6.996934 -0.451586
v -0.688756 -6.996934 -0.350006
v -0.706887 -6.996934 -0.297832
v -0.745860 -6.996934 -0.258691
v -0.797956 -6.996934 -0.240336
v -0.852857 -6.996934 -0.246403
v -0.899689 -6.996934 -0.275689
v -0.929176 -6.996934 -0.322394
v -0.935478 -6.996934 -0.377268
v -0.917347 -6.996934 -0.429443
v -0.878374 -6.996934 -0.468584
v -0.826278 -6.996934 -0.486939
v -0.771377 -6.996934 -0.480872
v -0.701366 -6.977730 -0.402658
v -0.729264 -6.977730 -0.446847
v -0.695403 -6.977730 -0.350741
v -0.712557 -6.977730 -0.301378
v -0.749430 -6.977730 -0.264345
v -0.798719 -6.977730 -0.246980
v -0.850662 -6.977730 -0.252719
v -0.894970 -6.977730 -0.280428
v -0.922868 -6.977730 -0.324617
v -0.928831 -6.977730 -0.376534
v -0.911677 -6.977730 -0.425897
v -0.874804 -6.977730 -0.462929
v -0.825515 -6.977730 -0.480294
v -0.773572 -6.977730 -0.474555
v -0.774859 -6.729520 -0.336782
v -0.776746 -6.729003 -0.339787
v -0.774472 -6.729934 -0.333242
v -0.775661 -6.730164 -0.329867
v -0.778191 -6.730164 -0.327326
v -0.781560 -6.729934 -0.326123
v -0.785102 -6.729520 -0.326495
v -0.788115 -6.729003 -0.328369
v -0.790002 -6.728487 -0.331374
v -0.790389 -6.728073 -0.334914
v -0.789200 -6.727843 -0.338289
v -0.786670 -6.727843 -0.340829
v -0.783301 -6.728073 -0.342033
v -0.779759 -6.728487 -0.341661
v -0.835281 -7.300344 -0.396945
v -0.837168 -7.299827 -0.399950
v -0.834894 -7.300758 -0.393405
v -0.836083 -7.300988 -0.390030
v -0.838613 -7.300988 -0.387489
v -0.841982 -7.300758 -0.386286
v -0.845524 -7.300344 -0.386658
v -0.848537 -7.299827 -0.388532
v -0.850424 -7.299311 -0.391537
v -0.850811 -7.298897 -0.395077
v -0.849622 -7.298667 -0.398452
v -0.847093 -7.298667 -0.400993
v -0.843723 -7.298897 -0.402196
v -0.840181 -7.299311 -0.401824
v -0.791406 -6.977730 -0.370935
v -0.796623 -6.977730 -0.379198
v -0.804909 -6.977730 -0.384380
v -0.814622 -6.977730 -0.385453
v -0.823840 -6.977730 -0.382206
v -0.830736 -6.977730 -0.375280
v -0.833944 -6.977730 -0.366049
v -0.832828 -6.977730 -0.356340
v -0.827611 -6.977730 -0.348076
v -0.819325 -6.977730 -0.342895
v -0.809612 -6.977730 -0.341821
v -0.800394 -6.977730 -0.345069
v -0.793499 -6.977730 -0.351994
v -0.790291 -6.977730 -0.361225
v -0.791406 -6.983369 -0.370935
v -0.796623 -6.983369 -0.379198
v -0.790291 -6.983369 -0.361225
v -0.804909 -6.983369 -0.384380
v -0.814622 -6.983369 -0.385453
v -0.823840 -6.983369 -0.382206
v -0.830736 -6.983369 -0.375280
v -0.833944 -6.983369 -0.366049
v -0.832828 -6.983369 -0.356340
v -0.827611 -6.983369 -0.348076
v -0.819325 -6.983369 -0.342895
v -0.809612 -6.983369 -0.341821
v -0.800394 -6.983369 -0.345069
v -0.793499 -6.983369 -0.351994
v -2.678896 -7.273665 2.471433
v -2.658100 -6.898311 2.461152
v -2.638941 -7.276752 2.462713
v -2.606825 -6.902274 2.449962
v -2.599223 -7.280470 2.472233
v -2.555856 -6.907045 2.462179
v -2.567609 -7.284083 2.498107
v -2.515286 -6.911682 2.495383
v -2.550360 -7.286876 2.535210
v -2.493150 -6.915264 2.542997
v -2.550893 -7.288293 2.576193
v -2.493834 -6.917084 2.595592
v -2.569102 -7.288056 2.612940
v -2.517201 -6.916780 2.642749
v -2.601380 -7.286212 2.638172
v -2.558624 -6.914412 2.675129
v -2.641335 -7.283124 2.646892
v -2.609898 -6.910451 2.686319
v -2.681053 -7.279407 2.637372
v -2.660868 -6.905679 2.674103
v -2.712667 -7.275794 2.611498
v -2.701438 -6.901043 2.640899
v -2.729916 -7.273002 2.574395
v -2.723574 -6.897460 2.593284
v -2.729383 -7.271583 2.533412
v -2.722890 -6.895640 2.540690
v -2.711174 -7.271820 2.496665
v -2.699523 -6.895944 2.493532
v -2.608144 -6.918463 2.443528
v -2.661956 -6.914305 2.455272
v -2.554651 -6.923471 2.456350
v -2.512074 -6.928336 2.491197
v -2.488842 -6.932096 2.541168
v -2.489560 -6.934006 2.596365
v -2.514084 -6.933687 2.645856
v -2.557557 -6.931203 2.679839
v -2.611368 -6.927045 2.691583
v -2.664861 -6.922038 2.678761
v -2.707439 -6.917171 2.643914
v -2.730670 -6.913411 2.593943
v -2.729952 -6.911501 2.538746
v -2.705429 -6.911820 2.489255
v -2.606604 -6.899570 2.450894
v -2.657516 -6.895637 2.462005
v -2.555994 -6.904308 2.463025
v -2.515710 -6.908912 2.495994
v -2.493731 -6.912469 2.543272
v -2.494410 -6.914277 2.595495
v -2.517612 -6.913974 2.642320
v -2.558743 -6.911624 2.674471
v -2.609655 -6.907690 2.685582
v -2.660265 -6.902952 2.673452
v -2.700549 -6.898349 2.640483
v -2.722528 -6.894791 2.593204
v -2.721849 -6.892984 2.540981
v -2.698647 -6.893285 2.494157
v -2.549194 -6.658772 2.551242
v -2.552609 -6.657991 2.552006
v -2.545785 -6.659508 2.552072
v -2.543056 -6.660051 2.554333
v -2.541548 -6.660296 2.557577
v -2.541560 -6.660192 2.561161
v -2.543088 -6.659761 2.564375
v -2.545832 -6.659088 2.566583
v -2.549247 -6.658306 2.567348
v -2.552656 -6.657570 2.566517
v -2.555385 -6.657027 2.564256
v -2.556893 -6.656783 2.561012
v -2.556881 -6.656887 2.557428
v -2.555352 -6.657318 2.554214
v -2.674563 -7.221924 2.567149
v -2.677979 -7.221143 2.567913
v -2.671154 -7.222660 2.567980
v -2.668425 -7.223204 2.570240
v -2.666918 -7.223447 2.573484
v -2.666929 -7.223344 2.577068
v -2.668458 -7.222913 2.580282
v -2.671202 -7.222240 2.582490
v -2.674616 -7.221457 2.583255
v -2.678026 -7.220722 2.582424
v -2.680755 -7.220179 2.580163
v -2.682263 -7.219934 2.576920
v -2.682251 -7.220038 2.573336
v -2.680722 -7.220469 2.570121
v -2.607844 -6.902871 2.546294
v -2.617365 -6.902135 2.548372
v -2.625057 -6.901696 2.554384
v -2.629396 -6.901639 2.563141
v -2.629523 -6.901977 2.572907
v -2.625413 -6.902642 2.581749
v -2.617879 -6.903504 2.587914
v -2.608415 -6.904389 2.590183
v -2.598894 -6.905125 2.588105
v -2.591202 -6.905564 2.582092
v -2.586863 -6.905622 2.573336
v -2.586736 -6.905283 2.563569
v -2.590846 -6.904618 2.554728
v -2.598380 -6.903757 2.548563
v -2.608322 -6.908486 2.546093
v -2.617843 -6.907750 2.548172
v -2.598858 -6.909373 2.548362
v -2.625535 -6.907310 2.554184
v -2.629874 -6.907254 2.562940
v -2.630001 -6.907593 2.572707
v -2.625890 -6.908257 2.581548
v -2.618357 -6.909119 2.587714
v -2.608893 -6.910005 2.589982
v -2.599371 -6.910740 2.587904
v -2.591680 -6.911180 2.581892
v -2.587341 -6.911236 2.573135
v -2.587214 -6.910899 2.563369
v -2.591324 -6.910233 2.554528
v 5.975630 -7.355637 3.693950
v 5.986335 -6.980474 3.670138
v 6.008354 -7.355637 3.718668
v 6.028331 -6.980474 3.701860
v 6.027114 -7.355637 3.755138
v 6.052404 -6.980474 3.748662
v 6.028192 -7.355636 3.796135
v 6.053788 -6.980474 3.801274
v 6.011374 -7.355636 3.833541
v 6.032206 -6.980473 3.849276
v 5.979993 -7.355636 3.859944
v 5.991935 -6.980473 3.883161
v 5.940264 -7.355636 3.870118
v 5.940949 -6.980473 3.896216
v 5.900054 -7.355636 3.862046
v 5.889349 -6.980473 3.885857
v 5.867330 -7.355636 3.837327
v 5.847353 -6.980473 3.854136
v 5.848570 -7.355636 3.800857
v 5.823279 -6.980473 3.807334
v 5.847492 -7.355636 3.759860
v 5.821896 -6.980473 3.754721
v 5.864309 -7.355636 3.722455
v 5.843477 -6.980473 3.706719
v 5.895691 -7.355636 3.696051
v 5.883749 -6.980473 3.672835
v 5.935420 -7.355636 3.685878
v 5.934734 -6.980473 3.659779
v 6.032809 -6.996935 3.698092
v 5.988735 -6.996935 3.664800
v 6.058074 -6.996935 3.747210
v 6.059526 -6.996935 3.802426
v 6.036877 -6.996934 3.852804
v 5.994612 -6.996934 3.888365
v 5.941103 -6.996934 3.902067
v 5.886949 -6.996934 3.891195
v 5.842875 -6.996934 3.857903
v 5.817609 -6.996934 3.808785
v 5.816158 -6.996934 3.753569
v 5.838808 -6.996934 3.703192
v 5.881072 -6.996934 3.667631
v 5.934580 -6.996934 3.653929
v 6.027692 -6.977730 3.702398
v 5.985992 -6.977730 3.670900
v 6.051596 -6.977730 3.748869
v 6.052969 -6.977730 3.801110
v 6.031540 -6.977730 3.848773
v 5.991553 -6.977730 3.882418
v 5.940928 -6.977730 3.895381
v 5.889691 -6.977730 3.885095
v 5.847992 -6.977730 3.853598
v 5.824088 -6.977730 3.807127
v 5.822715 -6.977730 3.754886
v 5.844143 -6.977730 3.707223
v 5.884131 -6.977730 3.673577
v 5.934756 -6.977730 3.660614
v 5.982181 -6.729520 3.789974
v 5.979355 -6.729003 3.787828
v 5.983792 -6.729934 3.793150
v 5.983871 -6.730164 3.796727
v 5.982401 -6.730164 3.799997
v 5.979673 -6.729934 3.802313
v 5.976228 -6.729520 3.803214
v 5.972748 -6.729003 3.802524
v 5.969922 -6.728487 3.800379
v 5.968309 -6.728073 3.797204
v 5.968231 -6.727843 3.793626
v 5.969701 -6.727843 3.790356
v 5.972429 -6.728073 3.788041
v 5.975874 -6.728487 3.787139
v 5.904412 -7.300344 3.755010
v 5.901586 -7.299827 3.752864
v 5.906024 -7.300758 3.758185
v 5.906103 -7.300988 3.761763
v 5.904633 -7.300988 3.765033
v 5.901905 -7.300758 3.767348
v 5.898459 -7.300344 3.768250
v 5.894979 -7.299827 3.767560
v 5.892153 -7.299311 3.765415
v 5.890541 -7.298897 3.762239
v 5.890462 -7.298667 3.758662
v 5.891933 -7.298667 3.755392
v 5.894660 -7.298897 3.753076
v 5.898106 -7.299311 3.752174
v 5.954644 -6.977730 3.763860
v 5.946846 -6.977730 3.757969
v 5.937265 -6.977730 3.756046
v 5.927797 -6.977730 3.758470
v 5.920320 -6.977730 3.764762
v 5.916312 -6.977730 3.773676
v 5.916569 -6.977730 3.783445
v 5.921040 -6.977730 3.792136
v 5.928837 -6.977730 3.798026
v 5.938419 -6.977730 3.799949
v 5.947886 -6.977730 3.797525
v 5.955364 -6.977730 3.791233
v 5.959372 -6.977730 3.782320
v 5.959115 -6.977730 3.772550
v 5.954644 -6.983369 3.763860
v 5.946846 -6.983369 3.757969
v 5.959115 -6.983369 3.772550
v 5.937265 -6.983369 3.756046
v 5.927797 -6.983369 3.758470
v 5.920320 -6.983369 3.764762
v 5.916312 -6.983369 3.773676
v 5.916569 -6.983369 3.783445
v 5.921040 -6.983369 3.792136
v 5.928837 -6.983369 3.798026
v 5.938419 -6.983369 3.799949
v 5.947886 -6.983369 3.797525
v 5.955364 -6.983369 3.791233
v 5.959372 -6.983369 3.782320
v 2.956698 -7.362904 5.539799
v 2.967403 -6.987741 5.515987
v 2.989423 -7.362904 5.564518
v 3.009399 -6.987741 5.547710
v 3.008182 -7.362904 5.600987
v 3.033473 -6.987741 5.594511
v 3.009259 -7.362904 5.641985
v 3.034856 -6.987741 5.647124
v 2.992442 -7.362904 5.679389
v 3.013274 -6.987741 5.695125
v 2.961061 -7.362904 5.705793
v 2.973003 -6.987741 5.729010
v 2.921332 -7.362904 5.715967
v 2.922018 -6.987741 5.742066
v 2.881122 -7.362904 5.707895
v 2.870417 -6.987741 5.731707
v 2.848397 -7.362904 5.683177
v 2.828421 -6.987741 5.699985
v 2.829638 -7.362904 5.646707
v 2.804347 -6.987741 5.653183
v 2.828561 -7.362904 5.605709
v 2.802964 -6.987741 5.600571
v 2.845378 -7.362904 5.568304
v 2.824546 -6.987741 5.552569
v 2.876759 -7.362904 5.541901
v 2.864817 -6.987741 5.518684
v 2.916488 -7.362904 5.531727
v 2.915802 -6.987741 5.505629
v 3.013878 -7.004202 5.543942
v 2.969803 -7.004202 5.510650
v 3.039143 -7.004202 5.593060
v 3.040594 -7.004202 5.648275
v 3.017945 -7.004202 5.698653
v 2.975680 -7.004202 5.734214
v 2.922171 -7.004202 5.747916
v 2.868017 -7.004202 5.737045
v 2.823943 -7.004202 5.703753
v 2.798677 -7.004202 5.654634
v 2.797226 -7.004202 5.599419
v 2.819875 -7.004202 5.549041
v 2.862140 -7.004202 5.513480
v 2.915649 -7.004202 5.499778
v 3.008760 -6.984998 5.548247
v 2.967061 -6.984998 5.516749
v 3.032664 -6.984998 5.594718
v 3.034037 -6.984998 5.646959
v 3.012608 -6.984998 5.694622
v 2.972621 -6.984998 5.728268
v 2.921996 -6.984998 5.741230
v 2.870760 -6.984998 5.730945
v 2.829060 -6.984998 5.699447
v 2.805156 -6.984998 5.652976
v 2.803783 -6.984998 5.600735
v 2.825212 -6.984998 5.553072
v 2.865199 -6.984998 5.519427
v 2.915824 -6.984998 5.506463
v 2.963249 -6.736788 5.635823
v 2.960423 -6.736271 5.633678
v 2.964861 -6.737201 5.638999
v 2.964940 -6.737432 5.642577
v 2.963469 -6.737432 5.645846
v 2.960741 -6.737201 5.648162
v 2.957296 -6.736788 5.649064
v 2.953816 -6.736271 5.648374
v 2.950990 -6.735754 5.646229
v 2.949378 -6.735340 5.643053
v 2.949299 -6.735110 5.639475
v 2.950769 -6.735110 5.636205
v 2.953498 -6.735340 5.633890
v 2.956943 -6.735754 5.632988
v 2.885480 -7.307611 5.600859
v 2.882654 -7.307095 5.598714
v 2.887093 -7.308025 5.604035
v 2.887171 -7.308255 5.607612
v 2.885701 -7.308255 5.610882
v 2.882973 -7.308025 5.613197
v 2.879528 -7.307611 5.614100
v 2.876047 -7.307095 5.613409
v 2.873221 -7.306579 5.611264
v 2.871609 -7.306165 5.608088
v 2.871531 -7.305934 5.604511
v 2.873001 -7.305934 5.601241
v 2.875729 -7.306165 5.598926
v 2.879174 -7.306579 5.598023
v 2.935713 -6.984998 5.609709
v 2.927915 -6.984998 5.603819
v 2.918333 -6.984998 5.601895
v 2.908866 -6.984998 5.604320
v 2.901387 -6.984998 5.610611
v 2.897380 -6.984998 5.619525
v 2.897637 -6.984998 5.629295
v 2.902107 -6.984998 5.637985
v 2.909905 -6.984998 5.643875
v 2.919487 -6.984998 5.645799
v 2.928955 -6.984998 5.643375
v 2.936432 -6.984998 5.637083
v 2.940440 -6.984998 5.628170
v 2.940183 -6.984998 5.618400
v 2.935713 -6.990636 5.609709
v 2.927915 -6.990636 5.603819
v 2.940183 -6.990636 5.618400
v 2.918333 -6.990636 5.601895
v 2.908866 -6.990636 5.604320
v 2.901387 -6.990636 5.610611
v 2.897380 -6.990636 5.619525
v 2.897637 -6.990636 5.629295
v 2.902107 -6.990636 5.637985
v 2.909905 -6.990636 5.643875
v 2.919487 -6.990636 5.645799
v 2.928955 -6.990636 5.643375
v 2.936432 -6.990636 5.637083
v 2.940440 -6.990636 5.628170
v -0.185459 -7.344624 3.138892
v -0.196820 -6.969461 3.115386
v -0.145489 -7.344624 3.129710
v -0.145526 -6.969461 3.103603
v -0.105493 -7.344624 3.138779
v -0.094199 -6.969461 3.115242
v -0.073393 -7.344624 3.164304
v -0.053004 -6.969461 3.147998
v -0.055546 -7.344624 3.201229
v -0.030102 -6.969461 3.195384
v -0.055488 -7.344624 3.242240
v -0.030027 -6.969461 3.248014
v -0.073230 -7.344624 3.279216
v -0.052796 -6.969461 3.295465
v -0.105258 -7.344624 3.304832
v -0.093897 -6.969461 3.328337
v -0.145229 -7.344624 3.314014
v -0.145191 -6.969461 3.340121
v -0.185225 -7.344624 3.304945
v -0.196519 -6.969461 3.328482
v -0.217325 -7.344624 3.279420
v -0.237713 -6.969461 3.295726
v -0.235171 -7.344624 3.242495
v -0.260616 -6.969461 3.248340
v -0.235229 -7.344624 3.201483
v -0.260690 -6.969461 3.195710
v -0.217488 -7.344624 3.164508
v -0.237922 -6.969461 3.148259
v -0.145535 -6.985922 3.097750
v -0.199367 -6.985922 3.110117
v -0.091667 -6.985922 3.109965
v -0.048434 -6.985922 3.144342
v -0.024398 -6.985922 3.194073
v -0.024320 -6.985922 3.249308
v -0.048215 -6.985922 3.299107
v -0.091351 -6.985922 3.333607
v -0.145183 -6.985922 3.345974
v -0.199051 -6.985922 3.333759
v -0.242284 -6.985922 3.299381
v -0.266320 -6.985922 3.249650
v -0.266398 -6.985922 3.194415
v -0.242503 -6.985922 3.144617
v -0.145525 -6.966718 3.104438
v -0.196457 -6.966718 3.116138
v -0.094560 -6.966718 3.115994
v -0.053656 -6.966718 3.148519
v -0.030916 -6.966718 3.195570
v -0.030842 -6.966718 3.247829
v -0.053449 -6.966718 3.294945
v -0.094261 -6.966718 3.327585
v -0.145193 -6.966718 3.339286
v -0.196157 -6.966718 3.327729
v -0.237061 -6.966718 3.295205
v -0.259802 -6.966718 3.248153
v -0.259876 -6.966718 3.195895
v -0.237268 -6.966718 3.148779
v -0.107686 -6.718508 3.195592
v -0.111146 -6.717992 3.196378
v -0.104217 -6.718922 3.196398
v -0.101426 -6.719152 3.198637
v -0.099865 -6.719152 3.201865
v -0.099845 -6.718922 3.205443
v -0.101369 -6.718508 3.208663
v -0.104134 -6.717992 3.210885
v -0.107594 -6.717474 3.211671
v -0.111063 -6.717061 3.210865
v -0.113854 -6.716831 3.208626
v -0.115414 -6.716831 3.205398
v -0.115434 -6.717061 3.201820
v -0.113911 -6.717474 3.198601
v -0.184456 -7.289332 3.232697
v -0.187916 -7.288815 3.233482
v -0.180987 -7.289745 3.233503
v -0.178196 -7.289976 3.235742
v -0.176636 -7.289976 3.238970
v -0.176616 -7.289745 3.242548
v -0.178139 -7.289332 3.245767
v -0.180905 -7.288815 3.247990
v -0.184364 -7.288300 3.248776
v -0.187833 -7.287885 3.247970
v -0.190624 -7.287655 3.245731
v -0.192185 -7.287655 3.242502
v -0.192205 -7.287885 3.238925
v -0.190682 -7.288300 3.235705
v -0.145390 -6.966718 3.199903
v -0.154915 -6.966718 3.202091
v -0.162547 -6.966718 3.208194
v -0.166775 -6.966718 3.217006
v -0.166761 -6.966718 3.226779
v -0.162508 -6.966718 3.235578
v -0.154859 -6.966718 3.241660
v -0.145328 -6.966718 3.243821
v -0.135803 -6.966718 3.241633
v -0.128171 -6.966718 3.235529
v -0.123943 -6.966718 3.226718
v -0.123957 -6.966718 3.216945
v -0.128210 -6.966718 3.208146
v -0.135859 -6.966718 3.202064
v -0.145390 -6.972357 3.199903
v -0.154915 -6.972357 3.202091
v -0.135859 -6.972357 3.202064
v -0.162547 -6.972357 3.208194
v -0.166775 -6.972357 3.217006
v -0.166761 -6.972357 3.226779
v -0.162508 -6.972357 3.235578
v -0.154859 -6.972357 3.241660
v -0.145328 -6.972357 3.243821
v -0.135803 -6.972357 3.241633
v -0.128171 -6.972357 3.235529
v -0.123943 -6.972357 3.226718
v -0.123957 -6.972357 3.216945
v -0.128210 -6.972357 3.208146
v -0.491124 -7.344624 3.224884
v -0.517217 -6.969461 3.225740
v -0.483315 -7.344624 3.184623
v -0.507195 -6.969461 3.174073
v -0.458810 -7.344624 3.151738
v -0.475748 -6.969461 3.131871
v -0.422463 -7.344624 3.132741
v -0.429104 -6.969461 3.107492
v -0.381474 -7.344624 3.131396
v -0.376503 -6.969461 3.105766
v -0.343960 -7.344624 3.147969
v -0.328361 -6.969461 3.127035
v -0.317352 -7.344624 3.179177
v -0.294214 -6.969461 3.167084
v -0.306919 -7.344624 3.218840
v -0.280826 -6.969461 3.217983
v -0.314729 -7.344624 3.259100
v -0.290848 -6.969461 3.269650
v -0.339234 -7.344624 3.291986
v -0.322296 -6.969461 3.311852
v -0.375581 -7.344624 3.310982
v -0.368939 -6.969461 3.336231
v -0.416570 -7.344624 3.312328
v -0.421541 -6.969461 3.337957
v -0.454084 -7.344624 3.295755
v -0.469683 -6.969461 3.316689
v -0.480692 -7.344624 3.264547
v -0.503829 -6.969461 3.276639
v -0.512549 -6.985922 3.171708
v -0.523067 -6.985922 3.225933
v -0.479545 -6.985922 3.127418
v -0.430593 -6.985922 3.101832
v -0.375388 -6.985922 3.100021
v -0.324864 -6.985922 3.122342
v -0.289027 -6.985922 3.164373
v -0.274977 -6.985922 3.217791
v -0.285495 -6.985922 3.272016
v -0.318498 -6.985922 3.316306
v -0.367451 -6.985922 3.341891
v -0.422656 -6.985922 3.343703
v -0.473180 -6.985922 3.321383
v -0.509016 -6.985922 3.279351
v -0.506431 -6.966718 3.174411
v -0.516383 -6.966718 3.225713
v -0.475206 -6.966718 3.132506
v -0.428892 -6.966718 3.108300
v -0.376661 -6.966718 3.106586
v -0.328859 -6.966718 3.127704
v -0.294954 -6.966718 3.167471
v -0.281661 -6.966718 3.218011
v -0.291612 -6.966718 3.269313
v -0.322837 -6.966718 3.311217
v -0.369152 -6.966718 3.335423
v -0.421383 -6.966718 3.337137
v -0.469184 -6.966718 3.316020
v -0.503089 -6.966718 3.276253
v -0.407764 -6.718508 3.176774
v -0.408448 -6.717992 3.180255
v -0.405620 -6.718922 3.173929
v -0.402442 -6.719152 3.172286
v -0.398859 -6.719152 3.172168
v -0.395580 -6.718922 3.173600
v -0.393255 -6.718508 3.176298
v -0.392344 -6.717992 3.179727
v -0.393028 -6.717474 3.183208
v -0.395171 -6.717061 3.186052
v -0.398349 -6.716831 3.187696
v -0.401933 -6.716831 3.187814
v -0.405212 -6.717061 3.186382
v -0.407537 -6.717474 3.183684
v -0.404967 -7.289332 3.261995
v -0.405651 -7.288815 3.265476
v -0.402824 -7.289745 3.259151
v -0.399646 -7.289976 3.257507
v -0.396062 -7.289976 3.257389
v -0.392783 -7.289745 3.258821
v -0.390458 -7.289332 3.261519
v -0.389547 -7.288815 3.264948
v -0.390231 -7.288300 3.268429
v -0.392375 -7.287885 3.271274
v -0.395553 -7.287655 3.272917
v -0.399136 -7.287655 3.273035
v -0.402415 -7.287885 3.271603
v -0.404741 -7.288300 3.268905
v -0.419108 -6.966718 3.212988
v -0.420969 -6.966718 3.222582
v -0.418483 -6.966718 3.232033
v -0.412143 -6.966718 3.239470
v -0.403204 -6.966718 3.243419
v -0.393436 -6.966718 3.243099
v -0.384775 -6.966718 3.238572
v -0.378935 -6.966718 3.230735
v -0.377074 -6.966718 3.221142
v -0.379560 -6.966718 3.211690
v -0.385901 -6.966718 3.204253
v -0.394840 -6.966718 3.200304
v -0.404608 -6.966718 3.200625
v -0.413269 -6.966718 3.205152
v -0.419108 -6.972357 3.212988
v -0.420969 -6.972357 3.222582
v -0.413269 -6.972357 3.205152
v -0.418483 -6.972357 3.232033
v -0.412143 -6.972357 3.239470
v -0.403204 -6.972357 3.243419
v -0.393436 -6.972357 3.243099
v -0.384775 -6.972357 3.238572
v -0.378935 -6.972357 3.230735
v -0.377074 -6.972357 3.221142
v -0.379560 -6.972357 3.211690
v -0.385901 -6.972357 3.204253
v -0.394840 -6.972357 3.200304
v -0.404608 -6.972357 3.200625
vn 0.0001 -0.6688 -0.7434
vn 0.3291 -0.8911 -0.3125
vn 0.4001 -0.4908 -0.7740
vn 0.6092 -0.6740 -0.4180
vn 0.8057 -0.1738 -0.5662
vn 0.0396 -0.9830 0.1793
vn 0.9148 -0.2914 -0.2796
vn 0.6428 -0.5987 -0.4779
vn 0.7858 -0.5943 0.1713
vn 0.5584 -0.7890 -0.2563
vn 0.5553 -0.7028 0.4446
vn 0.3103 -0.9482 -0.0675
vn 0.3010 -0.7215 0.6235
vn -0.0216 -0.9893 0.1443
vn -0.0001 -0.6688 0.7434
vn -0.3291 -0.8911 0.3125
vn -0.4001 -0.4908 0.7740
vn -0.6092 -0.6740 0.4180
vn -0.8057 -0.1738 0.5662
vn -0.0396 -0.9830 -0.1794
vn -0.9148 -0.2914 0.2796
vn -0.6428 -0.5987 0.4778
vn -0.7858 -0.5942 -0.1713
vn -0.5583 -0.7890 0.2563
vn -0.5553 -0.7028 -0.4446
vn -0.3103 -0.9483 0.0675
vn -0.3010 -0.7215 -0.6235
vn 0.0215 -0.9893 -0.1443
vn 0.4713 -0.4510 -0.7579
vn -0.0941 -0.8903 -0.4455
vn 0.8303 -0.0561 -0.5544
vn 0.9235 -0.1237 -0.3631
vn 0.6505 -0.7435 0.1550
vn 0.2105 -0.9230 0.3222
vn 0.2074 -0.9345 0.2892
vn 0.0912 -0.8899 0.4470
vn -0.4709 -0.4513 0.7580
vn -0.8302 -0.0559 0.5547
vn -0.9235 -0.1237 0.3630
vn -0.6509 -0.7433 -0.1546
vn -0.2099 -0.9229 -0.3226
vn -0.2066 -0.9346 -0.2896
vn 0.2521 0.7000 -0.6682
vn -0.0557 0.7853 -0.6165
vn 0.7059 0.4412 -0.5542
vn 0.8051 0.5734 -0.1519
vn 0.6264 0.7509 0.2092
vn 0.4419 0.8003 0.4053
vn 0.2680 0.8080 0.5248
vn 0.0557 0.7853 0.6166
vn -0.2521 0.7000 0.6682
vn -0.7059 0.4412 0.5542
vn -0.8051 0.5734 0.1519
vn -0.6264 0.7509 -0.2092
vn -0.4419 0.8003 -0.4053
vn -0.2680 0.8080 -0.5247
vn -0.5630 -0.3161 0.7636
vn -0.1807 -0.5933 0.7844
vn -0.8335 -0.0599 0.5493
vn -0.9298 -0.1033 0.3533
vn -0.9179 -0.3881 -0.0826
vn -0.7213 -0.5646 -0.4013
vn -0.4639 -0.6397 -0.6128
vn -0.1448 -0.6394 -0.7551
vn 0.2960 -0.5168 -0.8033
vn 0.7798 -0.2249 -0.5842
vn 0.8856 -0.3923 -0.2487
vn 0.6899 -0.6906 0.2171
vn 0.4238 -0.7586 0.4948
vn 0.1429 -0.7235 0.6754
vn -0.2959 0.5171 0.8032
vn 0.1448 0.6392 0.7553
vn -0.7798 0.2249 0.5843
vn -0.8856 0.3923 0.2487
vn -0.6900 0.6905 -0.2169
vn -0.4239 0.7585 -0.4950
vn -0.1430 0.7236 -0.6752
vn 0.1808 0.5931 -0.7846
vn 0.5631 0.3161 -0.7636
vn 0.8334 0.0599 -0.5494
vn 0.9298 0.1033 -0.3532
vn 0.9178 0.3882 0.0829
vn 0.7215 0.5643 0.4012
vn 0.4640 0.6396 0.6128
vn -0.4368 0.4803 0.7606
vn -0.0231 0.6564 0.7541
vn 0.3007 0.7138 0.6325
vn 0.5716 0.6932 0.4390
vn 0.8032 0.5787 0.1414
vn 0.8897 0.3378 -0.3073
vn 0.7663 0.3715 -0.5242
vn 0.4368 0.4803 -0.7606
vn 0.0231 0.6564 -0.7541
vn -0.3007 0.7138 -0.6325
vn -0.5716 0.6932 -0.4390
vn -0.8032 0.5787 -0.1414
vn -0.8897 0.3378 0.3073
vn -0.7663 0.3715 0.5242
vn -0.4521 0.4194 0.7872
vn -0.0238 0.6314 0.7751
vn -0.8195 0.1186 0.5606
vn 0.3080 0.6967 0.6479
vn 0.5863 0.6735 0.4503
vn 0.8286 0.5404 0.1460
vn 0.9232 0.2145 -0.3188
vn 0.8195 0.1186 -0.5606
vn 0.4521 0.4194 -0.7872
vn 0.0238 0.6314 -0.7751
vn -0.3080 0.6967 -0.6479
vn -0.5862 0.6735 -0.4503
vn -0.8287 0.5404 -0.1459
vn -0.9232 0.2145 0.3189
vn 0.7428 -0.2211 -0.6320
vn 0.6347 -0.7446 -0.2067
vn 0.8935 -0.2052 -0.3994
vn 0.3609 -0.8254 -0.4341
vn 0.8370 -0.5417 0.0768
vn 0.6131 -0.7268 -0.3096
vn 0.6164 -0.6860 0.3865
vn 0.3786 -0.9183 -0.1155
vn 0.3686 -0.7232 0.5841
vn 0.0694 -0.9936 0.0895
vn 0.0836 -0.6904 0.7185
vn -0.2579 -0.9259 0.2761
vn -0.2857 -0.5552 0.7811
vn -0.5373 -0.7421 0.4007
vn -0.7428 -0.2211 0.6320
vn -0.6347 -0.7446 0.2067
vn -0.8935 -0.2052 0.3994
vn -0.3609 -0.8254 0.4341
vn -0.8371 -0.5417 -0.0768
vn -0.6131 -0.7268 0.3096
vn -0.6164 -0.6860 -0.3865
vn -0.3785 -0.9184 0.1155
vn -0.3686 -0.7232 -0.5841
vn -0.0695 -0.9936 -0.0895
vn -0.0836 -0.6904 -0.7185
vn 0.2579 -0.9259 -0.2761
vn 0.2857 -0.5552 -0.7811
vn 0.5373 -0.7421 -0.4008
vn 0.8909 -0.0689 -0.4490
vn 0.7933 -0.0762 -0.6041
vn 0.8060 -0.5912 0.0299
vn 0.2811 -0.9094 0.3067
vn 0.1828 -0.9357 0.3017
vn 0.1618 -0.9136 0.3729
vn -0.2931 -0.6328 0.7167
vn -0.7933 -0.0762 0.6041
vn -0.8909 -0.0689 0.4490
vn -0.8056 -0.5917 -0.0307
vn -0.2800 -0.9095 -0.3074
vn -0.1818 -0.9357 -0.3023
vn -0.1620 -0.9136 -0.3729
vn 0.2942 -0.6322 -0.7168
vn 0.8250 0.4864 -0.2877
vn 0.6026 0.5055 -0.6175
vn 0.6737 0.7256 0.1399
vn 0.4881 0.7930 0.3646
vn 0.3125 0.8086 0.4985
vn 0.1172 0.7949 0.5953
vn -0.1610 0.7322 0.6618
vn -0.6026 0.5055 0.6175
vn -0.8250 0.4864 0.2877
vn -0.6737 0.7256 -0.1399
vn -0.4881 0.7930 -0.3646
vn -0.3125 0.8086 -0.4985
vn -0.1172 0.7949 -0.5953
vn 0.1610 0.7322 -0.6618
vn -0.9021 -0.1012 0.4195
vn -0.7904 -0.1404 0.5963
vn -0.9273 -0.3688 -0.0643
vn -0.7286 -0.5326 -0.4306
vn -0.4675 -0.5873 -0.6607
vn -0.1542 -0.5688 -0.8079
vn 0.2587 -0.4476 -0.8560
vn 0.7448 -0.1641 -0.6468
vn 0.8816 -0.1893 -0.4324
vn 0.8114 -0.5844 0.0092
vn 0.5614 -0.7599 0.3275
vn 0.2857 -0.7935 0.5373
vn -0.0257 -0.7294 0.6836
vn -0.4098 -0.5222 0.7479
vn -0.8815 0.1893 0.4325
vn -0.7446 0.1642 0.6470
vn -0.8113 0.5846 -0.0096
vn -0.5613 0.7601 -0.3275
vn -0.2856 0.7935 -0.5374
vn 0.0253 0.7293 -0.6838
vn 0.4096 0.5224 -0.7479
vn 0.7904 0.1403 -0.5962
vn 0.9021 0.1012 -0.4195
vn 0.9272 0.3690 0.0644
vn 0.7285 0.5327 0.4306
vn 0.4676 0.5872 0.6607
vn 0.1546 0.5687 0.8079
vn -0.2589 0.4476 0.8559
vn -0.8529 0.3292 0.4053
vn -0.7367 0.3234 0.5939
vn -0.3226 0.5402 0.7773
vn 0.0667 0.6797 0.7304
vn 0.3733 0.7156 0.5904
vn 0.6353 0.6749 0.3755
vn 0.8488 0.5272 0.0409
vn 0.8529 0.3292 -0.4053
vn 0.7367 0.3234 -0.5938
vn 0.3226 0.5402 -0.7773
vn -0.0667 0.6797 -0.7304
vn -0.3733 0.7156 -0.5904
vn -0.6352 0.6749 -0.3755
vn -0.8488 0.5272 -0.0409
vn -0.8941 0.1418 0.4249
vn -0.7692 0.1543 0.6201
vn -0.8774 0.4780 -0.0423
vn -0.3333 0.4938 0.8031
vn 0.0684 0.6582 0.7498
vn 0.3823 0.6987 0.6047
vn 0.6523 0.6526 0.3855
vn 0.8774 0.4779 0.0423
vn 0.8941 0.1418 -0.4249
vn 0.7693 0.1543 -0.6200
vn 0.3333 0.4938 -0.8032
vn -0.0683 0.6581 -0.7498
vn -0.3824 0.6987 -0.6046
vn -0.6522 0.6527 -0.3855
vn -0.3797 -0.6708 -0.6370
vn -0.0449 -0.9823 -0.1821
vn -0.0778 -0.6441 -0.7609
vn 0.2894 -0.8968 -0.3347
vn 0.3349 -0.5050 -0.7955
vn 0.5665 -0.7255 -0.3908
vn 0.7867 -0.2179 -0.5776
vn -0.4855 -0.7795 0.3959
vn 0.8866 -0.3909 -0.2474
vn 0.4493 -0.7327 -0.5112
vn 0.7062 -0.6833 0.1853
vn 0.4679 -0.8253 -0.3162
vn 0.4626 -0.7677 0.4434
vn 0.2216 -0.9683 -0.1156
vn 0.2034 -0.7617 0.6151
vn -0.0974 -0.9895 0.1066
vn -0.0994 -0.6765 0.7297
vn -0.3569 -0.8911 0.2802
vn -0.4879 -0.4487 0.7487
vn -0.6358 -0.6415 0.4292
vn -0.8266 -0.1295 0.5477
vn -0.5123 -0.8525 0.1038
vn -0.9322 -0.2215 0.2862
vn -0.7616 -0.4906 0.4234
vn -0.8443 -0.5091 -0.1674
vn -0.6034 -0.7790 0.1702
vn -0.6293 -0.6326 -0.4515
vn -0.3523 -0.9359 -0.0050
vn -0.2515 -0.8822 -0.3982
vn -0.3132 -0.9024 -0.2961
vn 0.4036 -0.4883 -0.7738
vn 0.8294 -0.0630 -0.5551
vn 0.9201 -0.1773 -0.3494
vn 0.4579 -0.8696 0.1846
vn 0.0383 -0.9486 0.3140
vn 0.0981 -0.9536 0.2845
vn -0.0564 -0.8718 0.4865
vn -0.5450 -0.3908 0.7417
vn -0.8360 -0.0490 0.5466
vn -0.9312 -0.1006 0.3505
vn -0.7575 -0.6369 -0.1432
vn -0.3534 -0.8748 -0.3314
vn 0.0341 0.8017 -0.5968
vn -0.1710 0.8429 -0.5101
vn 0.3354 0.6837 -0.6481
vn 0.7553 0.3857 -0.5299
vn 0.8527 0.5053 -0.1327
vn 0.6927 0.6835 0.2302
vn 0.5200 0.7425 0.4223
vn 0.3500 0.7628 0.5438
vn 0.1268 0.7573 0.6407
vn -0.1909 0.6986 0.6895
vn -0.6682 0.4838 0.5652
vn -0.7401 0.6558 0.1493
vn -0.5450 0.8155 -0.1949
vn -0.3534 0.8505 -0.3895
vn -0.2450 -0.5487 0.7993
vn 0.0678 -0.7084 0.7025
vn -0.6002 -0.2574 0.7573
vn -0.8368 -0.0416 0.5459
vn -0.9313 -0.0736 0.3566
vn -0.9412 -0.3331 -0.0566
vn -0.7679 -0.5236 -0.3692
vn -0.5237 -0.6227 -0.5813
vn -0.2142 -0.6522 -0.7272
vn 0.2239 -0.5717 -0.7893
vn 0.7512 -0.3004 -0.5878
vn 0.8445 -0.5000 -0.1917
vn 0.6098 -0.7466 0.2657
vn 0.3433 -0.7746 0.5311
vn 0.2141 0.6520 0.7274
vn 0.5238 0.6228 0.5811
vn -0.2236 0.5718 0.7893
vn -0.7513 0.3003 0.5877
vn -0.8446 0.4999 0.1917
vn -0.6098 0.7467 -0.2657
vn -0.3431 0.7747 -0.5311
vn -0.0674 0.7086 -0.7024
vn 0.2450 0.5488 -0.7993
vn 0.6000 0.2576 -0.7574
vn 0.8368 0.0417 -0.5459
vn 0.9314 0.0738 -0.3564
vn 0.9413 0.3329 0.0564
vn 0.7680 0.5234 0.3691
vn -0.0115 0.6194 0.7850
vn 0.3236 0.6631 0.6750
vn 0.5968 0.6355 0.4900
vn 0.8260 0.5260 0.2029
vn 0.9213 0.2942 -0.2542
vn 0.7993 0.2996 -0.5210
vn 0.4537 0.4861 -0.7470
vn 0.0561 0.6877 -0.7238
vn -0.2577 0.7615 -0.5948
vn -0.5265 0.7517 -0.3972
vn -0.7612 0.6408 -0.0991
vn -0.8533 0.4044 0.3292
vn -0.7087 0.4803 0.5168
vn -0.4405 0.4683 0.7659
vn 0.0542 0.6083 0.7918
vn 0.3852 0.6447 0.6603
vn -0.3911 0.4374 0.8097
vn 0.6564 0.6009 0.4561
vn 0.8790 0.4553 0.1419
vn 0.9340 0.1576 -0.3207
vn 0.8325 0.0875 -0.5470
vn 0.5282 0.3782 -0.7602
vn 0.1202 0.6377 -0.7609
vn -0.2109 0.7383 -0.6407
vn -0.4937 0.7424 -0.4529
vn -0.7533 0.6360 -0.1676
vn -0.9076 0.3066 0.2868
vn -0.8074 0.1548 0.5693
vn 0.3730 -0.5071 -0.7770
vn 0.5929 -0.6900 -0.4152
vn 0.7949 -0.1803 -0.5793
vn 0.2058 -0.9731 0.1035
vn 0.9121 -0.2683 -0.3098
vn 0.6137 -0.6224 -0.4858
vn 0.7981 -0.5834 0.1508
vn 0.5714 -0.7756 -0.2682
vn 0.5695 -0.6995 0.4318
vn 0.3265 -0.9419 -0.0787
vn 0.3167 -0.7223 0.6148
vn -0.0008 -0.9912 0.1320
vn 0.0197 -0.6744 0.7381
vn -0.3130 -0.8997 0.3044
vn -0.3730 -0.5071 0.7770
vn -0.5928 -0.6901 0.4152
vn -0.7949 -0.1803 0.5793
vn -0.2058 -0.9731 -0.1035
vn -0.9121 -0.2683 0.3098
vn -0.6137 -0.6224 0.4858
vn -0.7981 -0.5834 -0.1507
vn -0.5714 -0.7756 0.2682
vn -0.5695 -0.6994 -0.4318
vn -0.3265 -0.9419 0.0787
vn -0.3167 -0.7223 -0.6148
vn 0.0008 -0.9912 -0.1320
vn -0.0197 -0.6744 -0.7381
vn 0.3130 -0.8997 -0.3044
vn 0.8240 -0.0583 -0.5636
vn 0.4299 -0.4960 -0.7544
vn 0.9166 -0.1057 -0.3857
vn 0.6927 -0.7105 0.1240
vn 0.2279 -0.9205 0.3174
vn 0.1997 -0.9351 0.2928
vn 0.1130 -0.8973 0.4267
vn -0.4307 -0.4955 0.7543
vn -0.8241 -0.0583 0.5635
vn -0.9165 -0.1056 0.3859
vn -0.6907 -0.7120 -0.1264
vn -0.2252 -0.9207 -0.3188
vn -0.2016 -0.9351 -0.2916
vn -0.1117 -0.8972 -0.4273
vn 0.6863 0.4516 -0.5701
vn 0.2301 0.7083 -0.6673
vn 0.8126 0.5534 -0.1828
vn 0.6373 0.7458 0.1942
vn 0.4524 0.7988 0.3964
vn 0.2784 0.8083 0.5188
vn 0.0704 0.7878 0.6119
vn -0.2301 0.7083 0.6673
vn -0.6863 0.4516 0.5701
vn -0.8126 0.5534 0.1828
vn -0.6373 0.7457 -0.1942
vn -0.4524 0.7988 -0.3965
vn -0.2784 0.8083 -0.5188
vn -0.0704 0.7878 -0.6119
vn -0.8276 -0.0805 0.5555
vn -0.5256 -0.3934 0.7543
vn -0.9263 -0.1070 0.3612
vn -0.9174 -0.3843 -0.1038
vn -0.7154 -0.5449 -0.4374
vn -0.4541 -0.6060 -0.6532
vn -0.1330 -0.5926 -0.7944
vn 0.3044 -0.4639 -0.8320
vn 0.7794 -0.1832 -0.5991
vn 0.8917 -0.3197 -0.3203
vn 0.7285 -0.6711 0.1374
vn 0.4646 -0.7769 0.4250
vn 0.1840 -0.7666 0.6152
vn -0.1377 -0.6579 0.7404
vn -0.7793 0.1833 0.5992
vn -0.3046 0.4636 0.8320
vn -0.8917 0.3197 0.3205
vn -0.7283 0.6713 -0.1375
vn -0.4646 0.7770 -0.4249
vn -0.1842 0.7664 -0.6154
vn 0.1376 0.6580 -0.7403
vn 0.5255 0.3934 -0.7544
vn 0.8276 0.0805 -0.5555
vn 0.9263 0.1070 -0.3612
vn 0.9174 0.3843 0.1038
vn 0.7154 0.5448 0.4375
vn 0.4542 0.6057 0.6534
vn 0.1331 0.5926 0.7944
vn -0.7634 0.3570 0.5383
vn -0.4102 0.4950 0.7659
vn -0.0019 0.6624 0.7492
vn 0.3176 0.7146 0.6232
vn 0.5864 0.6896 0.4250
vn 0.8145 0.5678 0.1193
vn 0.8836 0.3287 -0.3335
vn 0.7634 0.3570 -0.5383
vn 0.4102 0.4950 -0.7660
vn 0.0019 0.6624 -0.7492
vn -0.3176 0.7146 -0.6232
vn -0.5864 0.6895 -0.4250
vn -0.8144 0.5678 -0.1194
vn -0.8836 0.3287 0.3336
vn -0.8111 0.1232 0.5719
vn -0.4244 0.4380 0.7925
vn -0.9178 0.1939 0.3465
vn -0.0021 0.6383 0.7698
vn 0.3253 0.6976 0.6384
vn 0.6016 0.6693 0.4360
vn 0.8407 0.5273 0.1232
vn 0.9178 0.1939 -0.3464
vn 0.8111 0.1232 -0.5719
vn 0.4244 0.4380 -0.7925
vn 0.0020 0.6383 -0.7698
vn -0.3253 0.6976 -0.6383
vn -0.6016 0.6693 -0.4360
vn -0.8407 0.5273 -0.1232
vn 0.2059 -0.9731 0.1034
vn 0.3264 -0.9419 -0.0787
vn -0.5929 -0.6900 0.4152
vn -0.2059 -0.9731 -0.1034
vn -0.9122 -0.2683 0.3098
vn -0.7981 -0.5834 -0.1508
vn -0.5714 -0.7756 0.2683
vn -0.3168 -0.7223 -0.6148
vn 0.8239 -0.0585 -0.5638
vn 0.4334 -0.4938 -0.7539
vn 0.9163 -0.1054 -0.3864
vn 0.6881 -0.7140 0.1298
vn 0.2241 -0.9207 0.3194
vn 0.2002 -0.9351 0.2924
vn 0.1151 -0.8975 0.4257
vn -0.4346 -0.4932 0.7536
vn -0.8239 -0.0583 0.5637
vn -0.9163 -0.1053 0.3864
vn -0.6887 -0.7134 -0.1295
vn -0.2243 -0.9207 -0.3194
vn -0.2020 -0.9349 -0.2918
vn -0.1102 -0.8970 -0.4280
vn 0.6373 0.7457 0.1942
vn 0.4524 0.7988 0.3965
vn 0.2784 0.8083 0.5189
vn 0.0704 0.7879 0.6118
vn -0.6373 0.7458 -0.1942
vn -0.9263 -0.1070 0.3611
vn -0.9173 -0.3844 -0.1041
vn -0.4542 -0.6059 -0.6531
vn -0.1333 -0.5926 -0.7944
vn 0.3044 -0.4637 -0.8320
vn 0.8917 -0.3197 -0.3204
vn 0.4645 -0.7770 0.4248
vn 0.1839 -0.7666 0.6152
vn -0.1376 -0.6582 0.7402
vn -0.3044 0.4637 0.8320
vn -0.8917 0.3198 0.3204
vn -0.7287 0.6709 -0.1372
vn -0.4646 0.7769 -0.4249
vn -0.1840 0.7667 -0.6151
vn 0.1376 0.6579 -0.7404
vn 0.5254 0.3935 -0.7544
vn 0.9173 0.3844 0.1039
vn 0.7155 0.5448 0.4373
vn 0.4541 0.6057 0.6534
vn 0.1335 0.5927 0.7943
vn -0.0020 0.6624 0.7492
vn 0.8145 0.5678 0.1194
vn 0.8836 0.3287 -0.3336
vn 0.4102 0.4950 -0.7659
vn 0.0020 0.6624 -0.7492
vn -0.5864 0.6896 -0.4250
vn -0.8110 0.1232 0.5719
vn -0.0020 0.6383 0.7698
vn 0.3253 0.6976 0.6383
vn 0.6017 0.6693 0.4359
vn 0.9178 0.1939 -0.3465
vn 0.8110 0.1232 -0.5719
vn 0.0021 0.6383 -0.7698
vn -0.8407 0.5274 -0.1232
vn -0.3018 -0.7216 -0.6231
vn 0.0205 -0.9894 -0.1437
vn -0.0010 -0.6691 -0.7431
vn 0.3283 -0.8915 -0.3121
vn 0.3986 -0.4917 -0.7742
vn 0.6083 -0.6748 -0.4178
vn 0.8052 -0.1741 -0.5669
vn 0.0481 -0.9832 0.1759
vn 0.9147 -0.2901 -0.2812
vn 0.6416 -0.5996 -0.4784
vn 0.7865 -0.5937 0.1703
vn 0.5591 -0.7883 -0.2570
vn 0.5561 -0.7026 0.4439
vn 0.3111 -0.9479 -0.0681
vn 0.3018 -0.7216 0.6231
vn -0.0205 -0.9894 0.1437
vn 0.0010 -0.6691 0.7431
vn -0.3283 -0.8915 0.3121
vn -0.3986 -0.4917 0.7742
vn -0.6083 -0.6748 0.4178
vn -0.8052 -0.1741 0.5669
vn -0.0482 -0.9832 -0.1759
vn -0.9147 -0.2901 0.2812
vn -0.6416 -0.5996 0.4784
vn -0.7865 -0.5937 -0.1703
vn -0.5590 -0.7883 0.2570
vn -0.5561 -0.7026 -0.4439
vn -0.3111 -0.9479 0.0681
vn -0.0914 -0.8902 -0.4463
vn -0.2060 -0.9346 -0.2900
vn 0.4723 -0.4514 -0.7571
vn 0.8301 -0.0562 -0.5548
vn 0.9232 -0.1226 -0.3643
vn 0.6583 -0.7383 0.1468
vn 0.2102 -0.9229 0.3227
vn 0.2063 -0.9346 0.2899
vn 0.0921 -0.8903 0.4460
vn -0.4717 -0.4517 0.7573
vn -0.8299 -0.0562 0.5551
vn -0.9231 -0.1226 0.3646
vn -0.6558 -0.7400 -0.1498
vn -0.2097 -0.9228 -0.3231
vn -0.0565 0.7855 -0.6163
vn -0.2685 0.8080 -0.5244
vn 0.2509 0.7004 -0.6682
vn 0.7049 0.4417 -0.5550
vn 0.8055 0.5724 -0.1535
vn 0.6270 0.7506 0.2084
vn 0.4425 0.8002 0.4049
vn 0.2685 0.8080 0.5244
vn 0.0565 0.7855 0.6163
vn -0.2509 0.7004 0.6682
vn -0.7049 0.4417 0.5550
vn -0.8055 0.5724 0.1535
vn -0.6270 0.7506 -0.2084
vn -0.4425 0.8002 -0.4049
vn -0.1745 -0.5445 0.8204
vn 0.1503 -0.6763 0.7211
vn -0.5580 -0.2799 0.7812
vn -0.8310 -0.0521 0.5539
vn -0.9245 -0.1014 0.3675
vn -0.9145 -0.4022 -0.0447
vn -0.7200 -0.5970 -0.3539
vn -0.4642 -0.6841 -0.5626
vn -0.1489 -0.6913 -0.7070
vn 0.2844 -0.5725 -0.7690
vn 0.7767 -0.2539 -0.5764
vn 0.8911 -0.3973 -0.2193
vn 0.6959 -0.6674 0.2650
vn 0.4309 -0.7197 0.5443
vn 0.1491 0.6916 0.7067
vn 0.4641 0.6842 0.5625
vn -0.2841 0.5727 0.7690
vn -0.7767 0.2540 0.5764
vn -0.8911 0.3973 0.2193
vn -0.6963 0.6671 -0.2647
vn -0.4313 0.7195 -0.5443
vn -0.1507 0.6760 -0.7213
vn 0.1743 0.5445 -0.8205
vn 0.5580 0.2799 -0.7812
vn 0.8310 0.0521 -0.5539
vn 0.9245 0.1014 -0.3675
vn 0.9144 0.4024 0.0450
vn 0.7201 0.5971 0.3535
vn -0.0220 0.6567 0.7538
vn 0.3016 0.7139 0.6320
vn 0.5724 0.6930 0.4382
vn 0.8038 0.5781 0.1402
vn 0.8894 0.3372 -0.3087
vn 0.7662 0.3707 -0.5249
vn 0.4354 0.4811 -0.7609
vn 0.0219 0.6567 -0.7538
vn -0.3016 0.7139 -0.6320
vn -0.5724 0.6930 -0.4382
vn -0.8038 0.5781 -0.1403
vn -0.8894 0.3372 0.3087
vn -0.7662 0.3707 0.5249
vn -0.4354 0.4811 0.7609
vn -0.0226 0.6318 0.7748
vn 0.3089 0.6968 0.6474
vn -0.4506 0.4204 0.7875
vn 0.5871 0.6732 0.4494
vn 0.8293 0.5397 0.1447
vn 0.9229 0.2134 -0.3204
vn 0.8191 0.1188 -0.5612
vn 0.4506 0.4205 -0.7875
vn 0.0225 0.6318 -0.7748
vn -0.3089 0.6968 -0.6474
vn -0.5871 0.6733 -0.4495
vn -0.8293 0.5398 -0.1448
vn -0.9229 0.2134 0.3204
vn -0.8191 0.1188 0.5612
vn -0.8893 -0.4533 0.0613
vn -0.6663 -0.6407 0.3815
vn -0.6909 -0.6558 -0.3041
vn -0.4579 -0.8718 0.1741
vn -0.4501 -0.7192 -0.5293
vn -0.1801 -0.9835 -0.0196
vn -0.1807 -0.7089 -0.6817
vn 0.1635 -0.9604 -0.2254
vn 0.1552 -0.6150 -0.7731
vn 0.4473 -0.8155 -0.3672
vn 0.6066 -0.3413 -0.7180
vn 0.7090 -0.5848 -0.3941
vn 0.8569 -0.1659 -0.4880
vn -0.3200 -0.9441 0.0795
vn 0.8893 -0.4533 -0.0613
vn 0.6663 -0.6407 -0.3815
vn 0.6909 -0.6559 0.3041
vn 0.4579 -0.8718 -0.1742
vn 0.4501 -0.7192 0.5293
vn 0.1800 -0.9835 0.0196
vn 0.1807 -0.7089 0.6817
vn -0.1635 -0.9604 0.2254
vn -0.1553 -0.6149 0.7731
vn -0.4473 -0.8155 0.3672
vn -0.6066 -0.3413 0.7180
vn -0.7090 -0.5848 0.3941
vn -0.8569 -0.1659 0.4880
vn 0.3200 -0.9441 -0.0795
vn -0.4130 -0.8714 -0.2649
vn -0.9214 -0.3598 0.1467
vn -0.1610 -0.9329 -0.3221
vn -0.2107 -0.9267 -0.3111
vn 0.0916 -0.7917 -0.6041
vn 0.6994 -0.1719 -0.6938
vn 0.8615 -0.0531 -0.5049
vn 0.9214 -0.3600 -0.1464
vn 0.4131 -0.8713 0.2649
vn 0.1614 -0.9330 0.3217
vn 0.2118 -0.9266 0.3106
vn -0.0910 -0.7920 0.6038
vn -0.6990 -0.1721 0.6941
vn -0.8616 -0.0531 0.5047
vn -0.5469 0.7795 -0.3056
vn -0.7324 0.6800 -0.0357
vn -0.3670 0.8071 -0.4626
vn -0.1864 0.8028 -0.5663
vn 0.0607 0.7606 -0.6463
vn 0.4377 0.6113 -0.6593
vn 0.7987 0.4272 -0.4237
vn 0.7323 0.6800 0.0357
vn 0.5469 0.7795 0.3056
vn 0.3670 0.8071 0.4626
vn 0.1864 0.8028 0.5663
vn -0.0607 0.7606 0.6463
vn -0.4377 0.6114 0.6593
vn -0.7987 0.4272 0.4237
vn 0.7053 -0.5709 0.4203
vn 0.9149 -0.4035 0.0049
vn 0.4396 -0.6036 0.6652
vn 0.1383 -0.5609 0.8162
vn -0.2356 -0.4277 0.8727
vn -0.6743 -0.1591 0.7211
vn -0.8555 -0.0752 0.5124
vn -0.9209 -0.3364 0.1970
vn -0.7544 -0.6354 -0.1648
vn -0.5015 -0.7617 -0.4103
vn -0.2122 -0.7842 -0.5831
vn 0.1458 -0.6987 -0.7004
vn 0.6140 -0.3930 -0.6845
vn 0.8669 -0.1653 -0.4702
vn 0.7544 0.6355 0.1644
vn 0.9209 0.3364 -0.1970
vn 0.5013 0.7618 0.4102
vn 0.2123 0.7842 0.5830
vn -0.1457 0.6986 0.7005
vn -0.6140 0.3930 0.6845
vn -0.8669 0.1653 0.4702
vn -0.9151 0.4033 -0.0047
vn -0.7052 0.5709 -0.4204
vn -0.4400 0.6035 -0.6650
vn -0.1384 0.5609 -0.8162
vn 0.2355 0.4278 -0.8726
vn 0.6743 0.1591 -0.7211
vn 0.8555 0.0752 -0.5124
vn 0.7112 0.6425 0.2852
vn 0.8884 0.4479 -0.1009
vn 0.7942 0.3977 -0.4593
vn 0.6288 0.3650 -0.6866
vn 0.1876 0.5998 -0.7778
vn -0.1711 0.6999 -0.6934
vn -0.4603 0.7113 -0.5313
vn -0.7112 0.6425 -0.2853
vn -0.8884 0.4479 0.1009
vn -0.7942 0.3977 0.4593
vn -0.6288 0.3650 0.6866
vn -0.1876 0.5998 0.7778
vn 0.1711 0.6999 0.6934
vn 0.4603 0.7113 0.5312
vn 0.7316 0.6154 0.2934
vn 0.9200 0.3776 -0.1045
vn 0.4716 0.6938 0.5442
vn 0.8601 0.1131 -0.4974
vn 0.6518 0.2615 -0.7118
vn 0.1934 0.5654 -0.8018
vn -0.1755 0.6811 -0.7109
vn -0.4716 0.6938 -0.5442
vn -0.7315 0.6154 -0.2935
vn -0.9200 0.3777 0.1044
vn -0.8601 0.1131 0.4974
vn -0.6519 0.2615 0.7118
vn -0.1934 0.5654 0.8018
vn 0.1755 0.6811 0.7109
vt 0.849780 1.011310
vt 0.760562 0.125947
vt 0.849716 0.125947
vt 0.760620 1.011310
vt 0.671460 0.125947
vt 0.582407 1.011311
vt 0.582393 0.125947
vt 0.493325 1.011311
vt 0.493339 0.125947
vt 0.404232 1.011311
vt 0.404272 0.125947
vt 0.315112 1.011311
vt 0.315170 0.125947
vt 0.226016 0.125947
vt 0.225952 1.011311
vt 0.136804 0.125947
vt 0.136746 1.011311
vt 0.047541 0.125947
vt -0.041773 1.011311
vt -0.041759 0.125947
vt -0.131057 1.011311
vt -0.131071 0.125947
vt -0.220331 1.011311
vt -0.220371 0.125947
vt 0.666974 1.011310
vt 0.579014 0.972462
vt 0.579011 1.011311
vt -0.309577 1.011310
vt -0.309634 0.125947
vt 0.938985 1.011310
vt 0.938928 0.125947
vt 0.578997 0.125947
vt 0.227140 0.125947
vt 1.107308 0.125947
vt -0.125401 0.972462
vt -0.037252 1.017786
vt -0.125404 1.017786
vt 0.139003 1.011311
vt 0.227066 0.972462
vt 0.138994 0.972462
vt 0.754964 1.011310
vt 0.843004 0.972462
vt 0.754973 0.972462
vt -0.213545 1.011311
vt -0.301649 0.972462
vt -0.301659 1.011310
vt 0.403096 1.011311
vt 0.315097 0.972462
vt 0.315107 1.011311
vt -0.037252 1.011311
vt -0.125403 1.011311
vt 0.491057 0.972462
vt 0.491059 1.011311
vt 0.050889 1.011311
vt 0.050883 0.972462
vt 0.842993 1.011310
vt 0.931077 0.972462
vt 0.666980 0.972462
vt 0.227077 1.011311
vt -0.213538 0.972462
vt 0.403090 0.972462
vt -0.037254 0.972462
vt 0.754085 1.017786
vt 0.666367 1.004478
vt 0.666367 1.017786
vt 0.579011 1.017786
vt 0.491059 1.017786
vt -0.213546 1.017786
vt 0.403097 1.017786
vt -0.301660 1.017786
vt 0.315108 1.017786
vt 0.842992 1.017786
vt 0.227079 1.017786
vt 0.139005 1.017786
vt 0.754962 1.017786
vt 0.050890 1.017786
vt 0.666973 1.017786
vt 0.931874 0.604664
vt 0.930664 0.604827
vt 0.933288 0.604867
vt 0.906014 0.549498
vt 0.908074 0.549458
vt 0.907237 0.549295
vt 0.930637 0.604777
vt 0.908285 0.549358
vt 0.908316 0.549408
vt 0.933691 0.604777
vt 0.956042 0.549358
vt 0.933440 0.604727
vt 0.931040 0.604867
vt 0.907646 0.549498
vt 0.956410 0.549318
vt 0.933000 0.604687
vt 0.907113 0.549520
vt 0.931742 0.604890
vt 0.932454 0.604664
vt 0.957090 0.549295
vt 0.957214 0.549520
vt 0.932585 0.604890
vt 0.956682 0.549498
vt 0.931328 0.604687
vt 0.907918 0.549318
vt 0.956254 0.549458
vt 0.933664 0.604827
vt 0.930888 0.604727
vt 0.956012 0.549408
vt 0.931066 1.017786
vt 0.842014 1.017786
vt -0.214159 1.017786
vt -0.302543 1.017786
vt -0.125623 1.017786
vt -0.037033 1.017786
vt 0.051503 1.017786
vt 0.139888 1.017786
vt 0.228056 1.017786
vt 0.403703 1.017786
vt 0.315986 1.017786
vt 0.491275 1.017786
vt 0.578795 1.017786
vt 1.018567 1.004478
vt 1.372613 1.004478
vt 0.491275 1.004478
vt 0.228056 1.004478
vt 0.930182 1.017786
vt 0.842014 1.004478
vt 0.315986 1.004478
vt -0.302543 1.004478
vt 0.403703 1.004478
vt -0.214159 1.004478
vt -0.125623 1.004478
vt 0.578795 1.004478
vt -0.037033 1.004478
vt 0.051503 1.004478
vt 0.754085 1.004478
vt 0.139888 1.004478
vt 0.671500 1.011310
vt 0.047501 1.011311
vt 0.931067 1.011310
vt 0.957781 0.549520
vt 0.931010 0.125947
vt 0.842930 0.125947
vt 0.754907 0.125947
vt 0.666934 0.125947
vt 0.491073 0.125947
vt 0.403136 0.125947
vt 0.315164 0.125947
vt 1.371786 0.125947
vt 1.283655 0.125947
vt 1.195488 0.125947
vt 1.019141 0.125947
vt 0.905742 0.549318
vt 0.905375 0.549358
vt 0.905345 0.549408
vt 0.905587 0.549458
vt 0.906547 0.549520
vt 0.906423 0.549295
vt 0.930182 1.004478
vt 1.107103 1.004478
vt 1.195693 1.004478
vt 1.284229 1.004478
s 1
f 2/1/2 3/2/3 1/3/1
f 4/4/4 5/5/5 3/2/3
f 5/5/5 8/6/8 7/7/7
f 7/7/7 10/8/10 9/9/9
f 9/9/9 12/10/12 11/11/11
f 11/11/11 14/12/14 13/13/13
f 14/12/14 15/14/15 13/13/13
f 16/15/16 17/16/17 15/14/15
f 18/17/18 19/18/19 17/16/17
f 19/18/19 22/19/22 21/20/21
f 21/20/21 24/21/24 23/22/23
f 23/22/23 26/23/26 25/24/25
f 6/25/6 32/26/32 8/27/8
f 25/24/25 28/28/28 27/29/27
f 28/30/28 1/3/1 27/31/27
f 7/32/7 15/33/15 23/34/23
f 40/35/40 53/36/53 54/37/54
f 18/38/18 36/39/36 37/40/37
f 4/41/4 30/42/30 29/43/29
f 26/44/26 42/45/42 28/46/28
f 12/47/12 35/48/35 14/49/14
f 22/50/22 40/35/40 24/51/24
f 8/27/8 33/52/33 10/53/10
f 20/54/20 37/40/37 38/55/38
f 2/56/2 42/57/42 30/42/30
f 6/25/6 29/43/29 31/58/31
f 16/59/16 35/48/35 36/39/36
f 24/51/24 41/60/41 26/44/26
f 10/53/10 34/61/34 12/47/12
f 20/54/20 39/62/39 22/50/22
f 85/63/85 101/64/101 98/65/98
f 33/52/33 46/66/46 47/67/47
f 41/60/41 54/37/54 55/68/55
f 34/61/34 47/67/47 48/69/48
f 42/45/42 55/68/55 56/70/56
f 35/48/35 48/69/48 49/71/49
f 42/57/42 44/72/44 30/42/30
f 35/48/35 50/73/50 36/39/36
f 36/39/36 51/74/51 37/40/37
f 30/42/30 43/75/43 29/43/29
f 37/40/37 52/76/52 38/55/38
f 29/43/29 45/77/45 31/58/31
f 39/62/39 52/76/52 53/36/53
f 32/26/32 45/77/45 46/66/46
f 61/78/61 65/79/65 69/80/69
f 83/81/83 79/82/79 75/83/75
f 64/84/64 77/85/77 78/86/78
f 65/79/65 78/86/78 79/82/79
f 58/87/58 71/88/71 57/89/57
f 66/90/66 79/82/79 80/91/80
f 57/89/57 73/92/73 59/93/59
f 66/90/66 81/94/81 67/95/67
f 60/96/60 73/92/73 74/97/74
f 67/95/67 82/98/82 68/99/68
f 61/78/61 74/97/74 75/83/75
f 68/99/68 83/100/83 69/80/69
f 62/101/62 75/83/75 76/102/76
f 69/80/69 84/103/84 70/104/70
f 63/105/63 76/102/76 77/85/77
f 70/104/70 72/106/72 58/87/58
f 44/72/44 85/63/85 43/75/43
f 56/107/56 86/108/86 44/72/44
f 56/70/56 88/109/88 87/110/87
f 55/68/55 89/111/89 88/109/88
f 54/37/54 90/112/90 89/111/89
f 53/36/53 91/113/91 90/112/90
f 51/74/51 91/113/91 52/76/52
f 50/73/50 92/114/92 51/74/51
f 49/71/49 93/115/93 50/73/50
f 49/71/49 95/116/95 94/117/94
f 48/69/48 96/118/96 95/116/95
f 47/67/47 97/119/97 96/118/96
f 46/66/46 98/65/98 97/119/97
f 43/75/43 98/65/98 45/77/45
f 103/120/103 107/121/107 111/122/111
f 94/117/94 108/123/108 93/115/93
f 87/124/87 100/125/100 86/108/86
f 95/116/95 109/126/109 94/117/94
f 88/109/88 102/127/102 87/110/87
f 96/118/96 110/128/110 95/116/95
f 89/111/89 103/129/103 88/109/88
f 97/119/97 111/122/111 96/118/96
f 90/112/90 104/130/104 89/111/89
f 98/65/98 112/131/112 97/119/97
f 91/113/91 105/132/105 90/112/90
f 92/114/92 106/133/106 91/113/91
f 86/108/86 99/134/99 85/63/85
f 93/115/93 107/135/107 92/114/92
f 114/1/114 115/2/115 113/3/113
f 115/2/115 118/136/118 117/5/117
f 117/5/117 120/6/120 119/7/119
f 119/7/119 122/8/122 121/9/121
f 122/8/122 123/11/123 121/9/121
f 124/10/124 125/13/125 123/11/123
f 126/12/126 127/14/127 125/13/125
f 128/15/128 129/16/129 127/14/127
f 129/16/129 132/137/132 131/18/131
f 131/18/131 134/19/134 133/20/133
f 133/20/133 136/21/136 135/22/135
f 136/21/136 137/24/137 135/22/135
f 118/25/118 144/26/144 120/27/120
f 138/23/138 139/29/139 137/24/137
f 140/30/140 113/3/113 139/31/139
f 119/32/119 127/33/127 135/34/135
f 152/35/152 165/36/165 166/37/166
f 130/38/130 148/39/148 149/40/149
f 116/41/116 142/42/142 141/43/141
f 140/46/140 153/60/153 154/45/154
f 126/49/126 146/61/146 147/48/147
f 134/50/134 152/35/152 136/51/136
f 120/27/120 145/52/145 122/53/122
f 130/38/130 150/55/150 132/54/132
f 114/56/114 154/57/154 142/42/142
f 116/41/116 143/58/143 118/25/118
f 128/59/128 147/48/147 148/39/148
f 138/44/138 152/35/152 153/60/153
f 124/47/124 145/52/145 146/61/146
f 132/54/132 151/62/151 134/50/134
f 197/63/197 213/64/213 210/65/210
f 145/52/145 158/66/158 159/67/159
f 152/35/152 167/68/167 153/60/153
f 145/52/145 160/69/160 146/61/146
f 153/60/153 168/70/168 154/45/154
f 146/61/146 161/71/161 147/48/147
f 154/57/154 156/72/156 142/42/142
f 147/48/147 162/73/162 148/39/148
f 148/39/148 163/74/163 149/40/149
f 142/42/142 155/75/155 141/43/141
f 150/55/150 163/74/163 164/76/164
f 143/58/143 155/75/155 157/77/157
f 151/62/151 164/76/164 165/36/165
f 144/26/144 157/77/157 158/66/158
f 173/78/173 177/79/177 181/80/181
f 195/81/195 191/82/191 187/83/187
f 176/84/176 189/85/189 190/86/190
f 177/79/177 190/86/190 191/82/191
f 170/87/170 183/88/183 169/89/169
f 177/79/177 192/91/192 178/90/178
f 171/93/171 183/88/183 185/92/185
f 178/90/178 193/94/193 179/95/179
f 172/96/172 185/92/185 186/97/186
f 179/95/179 194/98/194 180/99/180
f 173/78/173 186/97/186 187/83/187
f 180/99/180 195/100/195 181/80/181
f 174/101/174 187/83/187 188/102/188
f 181/80/181 196/103/196 182/104/182
f 175/105/175 188/102/188 189/85/189
f 182/104/182 184/106/184 170/87/170
f 156/72/156 197/63/197 155/75/155
f 168/107/168 198/108/198 156/72/156
f 167/68/167 199/110/199 168/70/168
f 166/37/166 200/109/200 167/68/167
f 166/37/166 202/112/202 201/111/201
f 165/36/165 203/113/203 202/112/202
f 164/76/164 204/114/204 203/113/203
f 162/73/162 204/114/204 163/74/163
f 161/71/161 205/115/205 162/73/162
f 160/69/160 206/117/206 161/71/161
f 159/67/159 207/116/207 160/69/160
f 159/67/159 209/119/209 208/118/208
f 158/66/158 210/65/210 209/119/209
f 157/77/157 197/63/197 210/65/210
f 215/120/215 219/121/219 223/122/223
f 206/117/206 220/123/220 205/115/205
f 199/124/199 212/125/212 198/108/198
f 207/116/207 221/126/221 206/117/206
f 200/109/200 214/127/214 199/110/199
f 208/118/208 222/128/222 207/116/207
f 201/111/201 215/129/215 200/109/200
f 209/119/209 223/122/223 208/118/208
f 202/112/202 216/130/216 201/111/201
f 210/65/210 224/131/224 209/119/209
f 203/113/203 217/132/217 202/112/202
f 204/114/204 218/133/218 203/113/203
f 198/108/198 211/134/211 197/63/197
f 205/115/205 219/135/219 204/114/204
f 226/1/226 227/2/227 225/3/225
f 228/4/228 229/5/229 227/2/227
f 230/136/230 231/7/231 229/5/229
f 231/7/231 234/8/234 233/9/233
f 233/9/233 236/10/236 235/11/235
f 235/11/235 238/12/238 237/13/237
f 237/13/237 240/15/240 239/14/239
f 239/14/239 242/17/242 241/16/241
f 241/16/241 244/137/244 243/18/243
f 244/137/244 245/20/245 243/18/243
f 245/20/245 248/21/248 247/22/247
f 247/22/247 250/23/250 249/24/249
f 232/27/232 255/58/255 256/26/256
f 250/23/250 251/29/251 249/24/249
f 252/30/252 225/3/225 251/31/251
f 231/32/231 239/33/239 247/34/247
f 264/35/264 277/36/277 278/37/278
f 242/38/242 260/39/260 261/40/261
f 228/41/228 254/42/254 253/43/253
f 250/44/250 266/45/266 252/46/252
f 236/47/236 259/48/259 238/49/238
f 246/50/246 264/35/264 248/51/248
f 232/27/232 257/52/257 234/53/234
f 244/54/244 261/40/261 262/55/262
f 252/138/252 254/42/254 226/56/226
f 230/25/230 253/43/253 255/58/255
f 240/59/240 259/48/259 260/39/260
f 248/51/248 265/60/265 250/44/250
f 234/53/234 258/61/258 236/47/236
f 246/50/246 262/55/262 263/62/263
f 309/63/309 325/64/325 322/65/322
f 257/52/257 270/66/270 271/67/271
f 265/60/265 278/37/278 279/68/279
f 258/61/258 271/67/271 272/69/272
f 266/45/266 279/68/279 280/70/280
f 259/48/259 272/69/272 273/71/273
f 254/42/254 280/107/280 268/72/268
f 259/48/259 274/73/274 260/39/260
f 260/39/260 275/74/275 261/40/261
f 254/42/254 267/75/267 253/43/253
f 261/40/261 276/76/276 262/55/262
f 253/43/253 269/77/269 255/58/255
f 262/55/262 277/36/277 263/62/263
f 255/58/255 270/66/270 256/26/256
f 285/78/285 289/79/289 293/80/293
f 307/81/307 303/82/303 299/83/299
f 288/84/288 301/85/301 302/86/302
f 289/79/289 302/86/302 303/82/303
f 282/87/282 295/88/295 281/89/281
f 290/90/290 303/82/303 304/91/304
f 281/89/281 297/92/297 283/93/283
f 291/95/291 304/91/304 305/94/305
f 283/93/283 298/97/298 284/96/284
f 291/95/291 306/98/306 292/99/292
f 285/78/285 298/97/298 299/83/299
f 292/99/292 307/100/307 293/80/293
f 286/101/286 299/83/299 300/102/300
f 293/80/293 308/103/308 294/104/294
f 287/105/287 300/102/300 301/85/301
f 294/104/294 296/106/296 282/87/282
f 268/72/268 309/63/309 267/75/267
f 268/72/268 311/124/311 310/108/310
f 280/70/280 312/109/312 311/110/311
f 279/68/279 313/111/313 312/109/312
f 278/37/278 314/112/314 313/111/313
f 276/76/276 314/112/314 277/36/277
f 275/74/275 315/113/315 276/76/276
f 274/73/274 316/114/316 275/74/275
f 274/73/274 318/117/318 317/115/317
f 273/71/273 319/116/319 318/117/318
f 272/69/272 320/118/320 319/116/319
f 271/67/271 321/119/321 320/118/320
f 269/77/269 321/119/321 270/66/270
f 267/75/267 322/65/322 269/77/269
f 327/120/327 331/121/331 335/122/335
f 317/115/317 333/126/333 332/123/332
f 311/124/311 324/125/324 310/108/310
f 318/117/318 334/128/334 333/126/333
f 312/109/312 326/127/326 311/110/311
f 319/116/319 335/122/335 334/128/334
f 313/111/313 327/129/327 312/109/312
f 320/118/320 336/131/336 335/122/335
f 314/112/314 328/130/328 313/111/313
f 322/65/322 336/131/336 321/119/321
f 314/112/314 330/133/330 329/132/329
f 315/113/315 331/135/331 330/133/330
f 310/108/310 323/134/323 309/63/309
f 316/114/316 332/123/332 331/135/331
f 338/1/338 339/2/339 337/3/337
f 339/2/339 342/136/342 341/5/341
f 341/5/341 344/6/344 343/7/343
f 343/7/343 346/8/346 345/9/345
f 345/9/345 348/10/348 347/11/347
f 348/10/348 349/13/349 347/11/347
f 350/12/350 351/14/351 349/13/349
f 352/15/352 353/16/353 351/14/351
f 353/16/353 356/137/356 355/18/355
f 355/18/355 358/19/358 357/20/357
f 357/20/357 360/21/360 359/22/359
f 359/22/359 362/23/362 361/24/361
f 342/25/342 368/26/368 344/27/344
f 362/23/362 363/29/363 361/24/361
f 364/30/364 337/3/337 363/31/363
f 343/32/343 351/33/351 359/34/359
f 376/35/376 389/36/389 390/37/390
f 354/38/354 372/39/372 373/40/373
f 340/41/340 366/42/366 365/43/365
f 364/46/364 377/60/377 378/45/378
f 350/49/350 370/61/370 371/48/371
f 358/50/358 376/35/376 360/51/360
f 344/27/344 369/52/369 346/53/346
f 354/38/354 374/55/374 356/54/356
f 338/56/338 378/57/378 366/42/366
f 340/41/340 367/58/367 342/25/342
f 352/59/352 371/48/371 372/39/372
f 360/51/360 377/60/377 362/44/362
f 346/53/346 370/61/370 348/47/348
f 356/54/356 375/62/375 358/50/358
f 421/63/421 437/64/437 434/65/434
f 369/52/369 382/66/382 383/67/383
f 377/60/377 390/37/390 391/68/391
f 370/61/370 383/67/383 384/69/384
f 377/60/377 392/70/392 378/45/378
f 370/61/370 385/71/385 371/48/371
f 378/57/378 380/72/380 366/42/366
f 371/48/371 386/73/386 372/39/372
f 372/39/372 387/74/387 373/40/373
f 366/42/366 379/75/379 365/43/365
f 374/55/374 387/74/387 388/76/388
f 367/58/367 379/75/379 381/77/381
f 375/62/375 388/76/388 389/36/389
f 368/26/368 381/77/381 382/66/382
f 397/78/397 401/79/401 405/80/405
f 419/81/419 415/82/415 411/83/411
f 400/84/400 413/85/413 414/86/414
f 401/79/401 414/86/414 415/82/415
f 394/87/394 407/88/407 393/89/393
f 401/79/401 416/91/416 402/90/402
f 395/93/395 407/88/407 409/92/409
f 402/90/402 417/94/417 403/95/403
f 396/96/396 409/92/409 410/97/410
f 403/95/403 418/98/418 404/99/404
f 397/78/397 410/97/410 411/83/411
f 404/99/404 419/100/419 405/80/405
f 398/101/398 411/83/411 412/102/412
f 405/80/405 420/103/420 406/104/406
f 399/105/399 412/102/412 413/85/413
f 406/104/406 408/106/408 394/87/394
f 380/72/380 421/63/421 379/75/379
f 392/107/392 422/108/422 380/72/380
f 391/68/391 423/110/423 392/70/392
f 391/68/391 425/111/425 424/109/424
f 390/37/390 426/112/426 425/111/425
f 389/36/389 427/113/427 426/112/426
f 388/76/388 428/114/428 427/113/427
f 386/73/386 428/114/428 387/74/387
f 385/71/385 429/115/429 386/73/386
f 384/69/384 430/117/430 385/71/385
f 384/69/384 432/118/432 431/116/431
f 383/67/383 433/119/433 432/118/432
f 382/66/382 434/65/434 433/119/433
f 381/77/381 421/63/421 434/65/434
f 439/120/439 443/121/443 447/122/447
f 430/117/430 444/123/444 429/115/429
f 423/124/423 436/125/436 422/108/422
f 431/116/431 445/126/445 430/117/430
f 424/109/424 438/127/438 423/110/423
f 432/118/432 446/128/446 431/116/431
f 425/111/425 439/129/439 424/109/424
f 433/119/433 447/122/447 432/118/432
f 426/112/426 440/130/440 425/111/425
f 434/65/434 448/131/448 433/119/433
f 427/113/427 441/132/441 426/112/426
f 428/114/428 442/133/442 427/113/427
f 422/108/422 435/134/435 421/63/421
f 429/115/429 443/135/443 428/114/428
f 450/1/338 451/2/339 449/3/337
f 451/2/339 454/136/342 453/5/341
f 453/5/341 456/6/344 455/7/343
f 455/7/343 458/8/450 457/9/345
f 457/9/345 460/10/348 459/11/347
f 460/10/348 461/13/349 459/11/347
f 462/12/350 463/14/351 461/13/349
f 464/15/451 465/16/353 463/14/351
f 465/16/353 468/137/356 467/18/453
f 467/18/453 470/19/455 469/20/454
f 469/20/454 472/21/360 471/22/359
f 471/22/359 474/23/362 473/24/456
f 454/25/342 480/26/460 456/27/344
f 474/23/362 475/29/363 473/24/456
f 476/30/364 449/3/337 475/31/363
f 455/32/343 463/33/351 471/34/359
f 488/35/468 501/36/475 502/37/390
f 466/38/452 484/39/464 485/40/465
f 452/41/449 478/42/458 477/43/457
f 476/46/364 489/60/469 490/45/470
f 462/49/350 482/61/462 483/48/463
f 470/50/455 488/35/468 472/51/360
f 456/27/344 481/52/461 458/53/450
f 466/38/452 486/55/466 468/54/356
f 450/56/338 490/57/470 478/42/458
f 452/41/449 479/58/459 454/25/342
f 464/59/451 483/48/463 484/39/464
f 472/51/360 489/60/469 474/44/362
f 458/53/450 482/61/462 460/47/348
f 468/54/356 487/62/467 470/50/455
f 533/63/421 549/64/437 546/65/434
f 481/52/461 494/66/471 495/67/472
f 489/60/469 502/37/390 503/68/391
f 482/61/462 495/67/472 496/69/473
f 489/60/469 504/70/392 490/45/470
f 482/61/462 497/71/474 483/48/463
f 490/57/470 492/72/380 478/42/458
f 483/48/463 498/73/386 484/39/464
f 484/39/464 499/74/387 485/40/465
f 478/42/458 491/75/379 477/43/457
f 486/55/466 499/74/387 500/76/388
f 479/58/459 491/75/379 493/77/381
f 487/62/467 500/76/388 501/36/475
f 480/26/460 493/77/381 494/66/471
f 509/78/397 513/79/401 517/80/483
f 531/81/494 527/82/415 523/83/488
f 512/84/480 525/85/490 526/86/491
f 513/79/401 526/86/491 527/82/415
f 506/87/394 519/88/407 505/89/393
f 513/79/401 528/91/416 514/90/481
f 507/93/476 519/88/407 521/92/486
f 514/90/481 529/94/492 515/95/403
f 508/96/477 521/92/486 522/97/487
f 515/95/403 530/98/493 516/99/482
f 509/78/397 522/97/487 523/83/488
f 516/99/482 531/100/494 517/80/483
f 510/101/478 523/83/488 524/102/489
f 517/80/483 532/103/495 518/104/484
f 511/105/479 524/102/489 525/85/490
f 518/104/484 520/106/485 506/87/394
f 492/72/380 533/63/421 491/75/379
f 504/107/392 534/108/422 492/72/380
f 503/68/391 535/110/496 504/70/392
f 503/68/391 537/111/425 536/109/424
f 502/37/390 538/112/497 537/111/425
f 501/36/475 539/113/498 538/112/497
f 500/76/388 540/114/428 539/113/498
f 498/73/386 540/114/428 499/74/387
f 497/71/474 541/115/499 498/73/386
f 496/69/473 542/117/500 497/71/474
f 496/69/473 544/118/501 543/116/431
f 495/67/472 545/119/433 544/118/501
f 494/66/471 546/65/434 545/119/433
f 493/77/381 533/63/421 546/65/434
f 551/120/504 555/121/507 559/122/447
f 542/117/500 556/123/444 541/115/499
f 535/124/496 548/125/436 534/108/422
f 543/116/431 557/126/508 542/117/500
f 536/109/424 550/127/503 535/110/496
f 544/118/501 558/128/446 543/116/431
f 537/111/425 551/129/504 536/109/424
f 545/119/433 559/122/447 544/118/501
f 538/112/497 552/130/505 537/111/425
f 546/65/434 560/131/509 545/119/433
f 539/113/498 553/132/441 538/112/497
f 540/114/428 554/133/506 539/113/498
f 534/108/422 547/134/502 533/63/421
f 541/115/499 555/135/507 540/114/428
f 562/1/511 563/2/512 561/3/510
f 564/4/513 565/5/514 563/2/512
f 566/136/515 567/7/516 565/5/514
f 567/7/516 570/8/519 569/9/518
f 569/9/518 572/10/521 571/11/520
f 571/11/520 574/12/523 573/13/522
f 573/13/522 576/15/525 575/14/524
f 576/15/525 577/16/526 575/14/524
f 578/17/527 579/18/528 577/16/526
f 580/137/529 581/20/530 579/18/528
f 581/20/530 584/21/533 583/22/532
f 583/22/532 586/23/535 585/24/534
f 568/27/517 591/58/540 592/26/541
f 585/24/534 588/28/537 587/29/536
f 587/31/536 562/1/511 561/3/510
f 567/32/516 575/33/524 583/34/532
f 600/35/549 613/36/562 614/37/563
f 578/38/527 596/39/545 597/40/546
f 564/41/513 590/42/539 589/43/538
f 586/44/535 602/45/551 588/46/537
f 572/47/521 595/48/544 574/49/523
f 582/50/531 600/35/549 584/51/533
f 568/27/517 593/52/542 570/53/519
f 580/54/529 597/40/546 598/55/547
f 588/138/537 590/42/539 562/56/511
f 566/25/515 589/43/538 591/58/540
f 574/49/523 596/39/545 576/59/525
f 584/51/533 601/60/550 586/44/535
f 570/53/519 594/61/543 572/47/521
f 582/50/531 598/55/547 599/62/548
f 645/63/594 661/64/610 658/65/607
f 593/52/542 606/66/555 607/67/556
f 601/60/550 614/37/563 615/68/564
f 594/61/543 607/67/556 608/69/557
f 602/45/551 615/68/564 616/70/565
f 595/48/544 608/69/557 609/71/558
f 590/42/539 616/107/565 604/72/553
f 596/39/545 609/71/558 610/73/559
f 596/39/545 611/74/560 597/40/546
f 590/42/539 603/75/552 589/43/538
f 597/40/546 612/76/561 598/55/547
f 589/43/538 605/77/554 591/58/540
f 598/55/547 613/36/562 599/62/548
f 591/58/540 606/66/555 592/26/541
f 621/78/570 625/79/574 629/80/578
f 643/81/592 639/82/588 635/83/584
f 624/84/573 637/85/586 638/86/587
f 625/79/574 638/86/587 639/82/588
f 618/87/567 631/88/580 617/89/566
f 626/90/575 639/82/588 640/91/589
f 617/89/566 633/92/582 619/93/568
f 627/95/576 640/91/589 641/94/590
f 619/93/568 634/97/583 620/96/569
f 627/95/576 642/98/591 628/99/577
f 621/78/570 634/97/583 635/83/584
f 628/99/577 643/100/592 629/80/578
f 622/101/571 635/83/584 636/102/585
f 629/80/578 644/103/593 630/104/579
f 623/105/572 636/102/585 637/85/586
f 630/104/579 632/106/581 618/87/567
f 604/72/553 645/63/594 603/75/552
f 604/72/553 647/124/596 646/108/595
f 616/70/565 648/109/597 647/110/596
f 615/68/564 649/111/598 648/109/597
f 614/37/563 650/112/599 649/111/598
f 612/76/561 650/112/599 613/36/562
f 611/74/560 651/113/600 612/76/561
f 610/73/559 652/114/601 611/74/560
f 610/73/559 654/117/603 653/115/602
f 609/71/558 655/116/604 654/117/603
f 608/69/557 656/118/605 655/116/604
f 607/67/556 657/119/606 656/118/605
f 605/77/554 657/119/606 606/66/555
f 603/75/552 658/65/607 605/77/554
f 663/120/612 667/121/616 671/122/620
f 654/117/603 668/123/617 653/115/602
f 647/124/596 660/125/609 646/108/595
f 655/116/604 669/126/618 654/117/603
f 648/109/597 662/127/611 647/110/596
f 656/118/605 670/128/619 655/116/604
f 649/111/598 663/129/612 648/109/597
f 657/119/606 671/122/620 656/118/605
f 650/112/599 664/130/613 649/111/598
f 658/65/607 672/131/621 657/119/606
f 651/113/600 665/132/614 650/112/599
f 652/114/601 666/133/615 651/113/600
f 646/108/595 659/134/608 645/63/594
f 653/115/602 667/135/616 652/114/601
f 673/3/622 676/4/625 675/2/624
f 675/2/624 678/136/627 677/5/626
f 678/136/627 679/7/628 677/5/626
f 680/6/629 681/9/630 679/7/628
f 682/8/631 683/11/632 681/9/630
f 684/10/633 685/13/634 683/11/632
f 685/13/634 688/15/637 687/14/636
f 687/14/636 690/17/639 689/16/638
f 689/16/638 692/137/641 691/18/640
f 692/137/641 693/20/642 691/18/640
f 694/19/643 695/22/644 693/20/642
f 696/21/645 697/24/646 695/22/644
f 680/27/629 703/58/652 704/26/653
f 698/23/647 699/29/648 697/24/646
f 699/31/648 674/1/623 673/3/622
f 679/32/628 687/33/636 695/34/644
f 711/62/660 726/37/675 712/35/661
f 688/59/637 709/40/658 690/38/639
f 674/56/623 701/43/650 676/41/625
f 700/46/649 713/60/662 714/45/663
f 686/49/635 706/61/655 707/48/656
f 696/51/645 711/62/660 712/35/661
f 682/53/631 704/26/653 705/52/654
f 690/38/639 710/55/659 692/54/641
f 700/138/649 702/42/651 674/56/623
f 676/41/625 703/58/652 678/25/627
f 686/49/635 708/39/657 688/59/637
f 698/44/647 712/35/661 713/60/662
f 684/47/633 705/52/654 706/61/655
f 694/50/643 710/55/659 711/62/660
f 757/63/706 773/64/722 770/65/719
f 704/26/653 719/67/668 705/52/654
f 712/35/661 727/68/676 713/60/662
f 705/52/654 720/69/669 706/61/655
f 713/60/662 728/70/677 714/45/663
f 706/61/655 721/71/670 707/48/656
f 702/42/651 728/107/677 716/72/665
f 708/39/657 721/71/670 722/73/671
f 709/40/658 722/73/671 723/74/672
f 701/43/650 716/72/665 715/75/664
f 710/55/659 723/74/672 724/76/673
f 703/58/652 715/75/664 717/77/666
f 710/55/659 725/36/674 711/62/660
f 703/58/652 718/66/667 704/26/653
f 733/78/682 737/79/686 741/80/690
f 755/81/704 751/82/700 747/83/696
f 736/84/685 749/85/698 750/86/699
f 737/79/686 750/86/699 751/82/700
f 730/87/679 743/88/692 729/89/678
f 738/90/687 751/82/700 752/91/701
f 729/89/678 745/92/694 731/93/680
f 739/95/688 752/91/701 753/94/702
f 731/93/680 746/97/695 732/96/681
f 740/99/689 753/139/702 754/98/703
f 732/96/681 747/83/696 733/78/682
f 741/80/690 754/98/703 755/100/704
f 733/78/682 748/102/697 734/101/683
f 742/104/691 755/100/704 756/103/705
f 734/101/683 749/85/698 735/105/684
f 742/104/691 744/106/693 730/87/679
f 715/75/664 758/108/707 757/63/706
f 716/72/665 759/124/708 758/108/707
f 727/68/676 759/110/708 728/70/677
f 726/37/675 760/109/709 727/68/676
f 725/36/674 761/111/710 726/37/675
f 724/76/673 762/112/711 725/36/674
f 724/76/673 764/114/713 763/113/712
f 723/74/672 765/115/714 764/114/713
f 722/73/671 766/117/715 765/115/714
f 720/69/669 766/117/715 721/71/670
f 719/67/668 767/116/716 720/69/669
f 718/66/667 768/118/717 719/67/668
f 717/77/666 769/119/718 718/66/667
f 717/77/666 757/63/706 770/65/719
f 775/120/724 779/121/728 783/122/732
f 766/117/715 780/123/729 765/115/714
f 759/124/708 772/125/721 758/108/707
f 767/116/716 781/126/730 766/117/715
f 760/109/709 774/127/723 759/110/708
f 768/118/717 782/128/731 767/116/716
f 761/111/710 775/129/724 760/109/709
f 769/119/718 783/122/732 768/118/717
f 762/112/711 776/130/725 761/111/710
f 770/65/719 784/131/733 769/119/718
f 763/113/712 777/132/726 762/112/711
f 764/114/713 778/133/727 763/113/712
f 758/108/707 771/134/720 757/63/706
f 765/115/714 779/135/728 764/114/713
f 2/1/2 4/4/4 3/2/3
f 4/4/4 6/136/6 5/5/5
f 5/5/5 6/136/6 8/6/8
f 7/7/7 8/6/8 10/8/10
f 9/9/9 10/8/10 12/10/12
f 11/11/11 12/10/12 14/12/14
f 14/12/14 16/15/16 15/14/15
f 16/15/16 18/17/18 17/16/17
f 18/17/18 20/137/20 19/18/19
f 19/18/19 20/137/20 22/19/22
f 21/20/21 22/19/22 24/21/24
f 23/22/23 24/21/24 26/23/26
f 6/25/6 31/58/31 32/26/32
f 25/24/25 26/23/26 28/28/28
f 28/30/28 2/1/2 1/3/1
f 27/140/27 1/141/1 3/142/3
f 3/142/3 5/143/5 7/32/7
f 7/32/7 9/144/9 11/145/11
f 11/145/11 13/146/13 15/33/15
f 15/33/15 17/147/17 19/148/19
f 19/148/19 21/149/21 23/34/23
f 23/34/23 25/150/25 27/140/27
f 27/140/27 3/142/3 7/32/7
f 7/32/7 11/145/11 15/33/15
f 15/33/15 19/148/19 23/34/23
f 23/34/23 27/140/27 7/32/7
f 40/35/40 39/62/39 53/36/53
f 18/38/18 16/59/16 36/39/36
f 4/41/4 2/56/2 30/42/30
f 26/44/26 41/60/41 42/45/42
f 12/47/12 34/61/34 35/48/35
f 22/50/22 39/62/39 40/35/40
f 8/27/8 32/26/32 33/52/33
f 20/54/20 18/38/18 37/40/37
f 2/56/2 28/138/28 42/57/42
f 6/25/6 4/41/4 29/43/29
f 16/59/16 14/49/14 35/48/35
f 24/51/24 40/35/40 41/60/41
f 10/53/10 33/52/33 34/61/34
f 20/54/20 38/55/38 39/62/39
f 85/63/85 99/134/99 101/64/101
f 33/52/33 32/26/32 46/66/46
f 41/60/41 40/35/40 54/37/54
f 34/61/34 33/52/33 47/67/47
f 42/45/42 41/60/41 55/68/55
f 35/48/35 34/61/34 48/69/48
f 42/57/42 56/107/56 44/72/44
f 35/48/35 49/71/49 50/73/50
f 36/39/36 50/73/50 51/74/51
f 30/42/30 44/72/44 43/75/43
f 37/40/37 51/74/51 52/76/52
f 29/43/29 43/75/43 45/77/45
f 39/62/39 38/55/38 52/76/52
f 32/26/32 31/58/31 45/77/45
f 58/87/58 57/89/57 59/93/59
f 59/93/59 60/96/60 61/78/61
f 61/78/61 62/101/62 63/105/63
f 63/105/63 64/84/64 65/79/65
f 65/79/65 66/90/66 67/95/67
f 67/95/67 68/99/68 69/80/69
f 69/80/69 70/104/70 58/87/58
f 58/87/58 59/93/59 61/78/61
f 61/78/61 63/105/63 65/79/65
f 65/79/65 67/95/67 69/80/69
f 69/80/69 58/87/58 61/78/61
f 73/151/73 71/152/71 72/153/72
f 72/153/72 84/154/84 83/81/83
f 83/81/83 82/155/82 81/94/81
f 81/94/81 80/91/80 79/82/79
f 79/82/79 78/86/78 77/85/77
f 77/85/77 76/102/76 75/83/75
f 75/83/75 74/156/74 73/151/73
f 73/151/73 72/153/72 83/81/83
f 83/81/83 81/94/81 79/82/79
f 79/82/79 77/85/77 75/83/75
f 75/83/75 73/151/73 83/81/83
f 64/84/64 63/105/63 77/85/77
f 65/79/65 64/84/64 78/86/78
f 58/87/58 72/106/72 71/88/71
f 66/90/66 65/79/65 79/82/79
f 57/89/57 71/88/71 73/92/73
f 66/90/66 80/91/80 81/94/81
f 60/96/60 59/93/59 73/92/73
f 67/95/67 81/139/81 82/98/82
f 61/78/61 60/96/60 74/97/74
f 68/99/68 82/98/82 83/100/83
f 62/101/62 61/78/61 75/83/75
f 69/80/69 83/100/83 84/103/84
f 63/105/63 62/101/62 76/102/76
f 70/104/70 84/103/84 72/106/72
f 44/72/44 86/108/86 85/63/85
f 56/107/56 87/124/87 86/108/86
f 56/70/56 55/68/55 88/109/88
f 55/68/55 54/37/54 89/111/89
f 54/37/54 53/36/53 90/112/90
f 53/36/53 52/76/52 91/113/91
f 51/74/51 92/114/92 91/113/91
f 50/73/50 93/115/93 92/114/92
f 49/71/49 94/117/94 93/115/93
f 49/71/49 48/69/48 95/116/95
f 48/69/48 47/67/47 96/118/96
f 47/67/47 46/66/46 97/119/97
f 46/66/46 45/77/45 98/65/98
f 43/75/43 85/63/85 98/65/98
f 101/64/101 99/134/99 100/125/100
f 100/125/100 102/157/102 103/120/103
f 103/120/103 104/158/104 105/159/105
f 105/159/105 106/160/106 107/121/107
f 107/121/107 108/123/108 109/126/109
f 109/126/109 110/128/110 111/122/111
f 111/122/111 112/131/112 101/64/101
f 101/64/101 100/125/100 103/120/103
f 103/120/103 105/159/105 107/121/107
f 107/121/107 109/126/109 111/122/111
f 111/122/111 101/64/101 103/120/103
f 94/117/94 109/126/109 108/123/108
f 87/124/87 102/157/102 100/125/100
f 95/116/95 110/128/110 109/126/109
f 88/109/88 103/129/103 102/127/102
f 96/118/96 111/122/111 110/128/110
f 89/111/89 104/130/104 103/129/103
f 97/119/97 112/131/112 111/122/111
f 90/112/90 105/132/105 104/130/104
f 98/65/98 101/64/101 112/131/112
f 91/113/91 106/133/106 105/132/105
f 92/114/92 107/135/107 106/133/106
f 86/108/86 100/125/100 99/134/99
f 93/115/93 108/123/108 107/135/107
f 114/1/114 116/4/116 115/2/115
f 115/2/115 116/4/116 118/136/118
f 117/5/117 118/136/118 120/6/120
f 119/7/119 120/6/120 122/8/122
f 122/8/122 124/10/124 123/11/123
f 124/10/124 126/12/126 125/13/125
f 126/12/126 128/15/128 127/14/127
f 128/15/128 130/17/130 129/16/129
f 129/16/129 130/17/130 132/137/132
f 131/18/131 132/137/132 134/19/134
f 133/20/133 134/19/134 136/21/136
f 136/21/136 138/23/138 137/24/137
f 118/25/118 143/58/143 144/26/144
f 138/23/138 140/28/140 139/29/139
f 140/30/140 114/1/114 113/3/113
f 139/140/139 113/141/113 115/142/115
f 115/142/115 117/143/117 119/32/119
f 119/32/119 121/144/121 123/145/123
f 123/145/123 125/146/125 127/33/127
f 127/33/127 129/147/129 131/148/131
f 131/148/131 133/149/133 135/34/135
f 135/34/135 137/150/137 139/140/139
f 139/140/139 115/142/115 119/32/119
f 119/32/119 123/145/123 127/33/127
f 127/33/127 131/148/131 135/34/135
f 135/34/135 139/140/139 119/32/119
f 152/35/152 151/62/151 165/36/165
f 130/38/130 128/59/128 148/39/148
f 116/41/116 114/56/114 142/42/142
f 140/46/140 138/44/138 153/60/153
f 126/49/126 124/47/124 146/61/146
f 134/50/134 151/62/151 152/35/152
f 120/27/120 144/26/144 145/52/145
f 130/38/130 149/40/149 150/55/150
f 114/56/114 140/138/140 154/57/154
f 116/41/116 141/43/141 143/58/143
f 128/59/128 126/49/126 147/48/147
f 138/44/138 136/51/136 152/35/152
f 124/47/124 122/53/122 145/52/145
f 132/54/132 150/55/150 151/62/151
f 197/63/197 211/134/211 213/64/213
f 145/52/145 144/26/144 158/66/158
f 152/35/152 166/37/166 167/68/167
f 145/52/145 159/67/159 160/69/160
f 153/60/153 167/68/167 168/70/168
f 146/61/146 160/69/160 161/71/161
f 154/57/154 168/107/168 156/72/156
f 147/48/147 161/71/161 162/73/162
f 148/39/148 162/73/162 163/74/163
f 142/42/142 156/72/156 155/75/155
f 150/55/150 149/40/149 163/74/163
f 143/58/143 141/43/141 155/75/155
f 151/62/151 150/55/150 164/76/164
f 144/26/144 143/58/143 157/77/157
f 170/87/170 169/89/169 171/93/171
f 171/93/171 172/96/172 173/78/173
f 173/78/173 174/101/174 175/105/175
f 175/105/175 176/84/176 177/79/177
f 177/79/177 178/90/178 179/95/179
f 179/95/179 180/99/180 181/80/181
f 181/80/181 182/104/182 170/87/170
f 170/87/170 171/93/171 173/78/173
f 173/78/173 175/105/175 177/79/177
f 177/79/177 179/95/179 181/80/181
f 181/80/181 170/87/170 173/78/173
f 185/151/185 183/152/183 184/153/184
f 184/153/184 196/154/196 195/81/195
f 195/81/195 194/155/194 193/94/193
f 193/94/193 192/91/192 191/82/191
f 191/82/191 190/86/190 189/85/189
f 189/85/189 188/102/188 187/83/187
f 187/83/187 186/156/186 185/151/185
f 185/151/185 184/153/184 195/81/195
f 195/81/195 193/94/193 191/82/191
f 191/82/191 189/85/189 187/83/187
f 187/83/187 185/151/185 195/81/195
f 176/84/176 175/105/175 189/85/189
f 177/79/177 176/84/176 190/86/190
f 170/87/170 184/106/184 183/88/183
f 177/79/177 191/82/191 192/91/192
f 171/93/171 169/89/169 183/88/183
f 178/90/178 192/91/192 193/94/193
f 172/96/172 171/93/171 185/92/185
f 179/95/179 193/139/193 194/98/194
f 173/78/173 172/96/172 186/97/186
f 180/99/180 194/98/194 195/100/195
f 174/101/174 173/78/173 187/83/187
f 181/80/181 195/100/195 196/103/196
f 175/105/175 174/101/174 188/102/188
f 182/104/182 196/103/196 184/106/184
f 156/72/156 198/108/198 197/63/197
f 168/107/168 199/124/199 198/108/198
f 167/68/167 200/109/200 199/110/199
f 166/37/166 201/111/201 200/109/200
f 166/37/166 165/36/165 202/112/202
f 165/36/165 164/76/164 203/113/203
f 164/76/164 163/74/163 204/114/204
f 162/73/162 205/115/205 204/114/204
f 161/71/161 206/117/206 205/115/205
f 160/69/160 207/116/207 206/117/206
f 159/67/159 208/118/208 207/116/207
f 159/67/159 158/66/158 209/119/209
f 158/66/158 157/77/157 210/65/210
f 157/77/157 155/75/155 197/63/197
f 213/64/213 211/134/211 212/125/212
f 212/125/212 214/157/214 215/120/215
f 215/120/215 216/158/216 217/159/217
f 217/159/217 218/160/218 219/121/219
f 219/121/219 220/123/220 221/126/221
f 221/126/221 222/128/222 223/122/223
f 223/122/223 224/131/224 213/64/213
f 213/64/213 212/125/212 215/120/215
f 215/120/215 217/159/217 219/121/219
f 219/121/219 221/126/221 223/122/223
f 223/122/223 213/64/213 215/120/215
f 206/117/206 221/126/221 220/123/220
f 199/124/199 214/157/214 212/125/212
f 207/116/207 222/128/222 221/126/221
f 200/109/200 215/129/215 214/127/214
f 208/118/208 223/122/223 222/128/222
f 201/111/201 216/130/216 215/129/215
f 209/119/209 224/131/224 223/122/223
f 202/112/202 217/132/217 216/130/216
f 210/65/210 213/64/213 224/131/224
f 203/113/203 218/133/218 217/132/217
f 204/114/204 219/135/219 218/133/218
f 198/108/198 212/125/212 211/134/211
f 205/115/205 220/123/220 219/135/219
f 226/1/226 228/4/228 227/2/227
f 228/4/228 230/136/230 229/5/229
f 230/136/230 232/6/232 231/7/231
f 231/7/231 232/6/232 234/8/234
f 233/9/233 234/8/234 236/10/236
f 235/11/235 236/10/236 238/12/238
f 237/13/237 238/12/238 240/15/240
f 239/14/239 240/15/240 242/17/242
f 241/16/241 242/17/242 244/137/244
f 244/137/244 246/19/246 245/20/245
f 245/20/245 246/19/246 248/21/248
f 247/22/247 248/21/248 250/23/250
f 232/27/232 230/25/230 255/58/255
f 250/23/250 252/28/252 251/29/251
f 252/30/252 226/1/226 225/3/225
f 251/140/251 225/141/225 227/142/227
f 227/142/227 229/143/229 231/32/231
f 231/32/231 233/144/233 235/145/235
f 235/145/235 237/146/237 239/33/239
f 239/33/239 241/147/241 243/148/243
f 243/148/243 245/149/245 247/34/247
f 247/34/247 249/150/249 251/140/251
f 251/140/251 227/142/227 231/32/231
f 231/32/231 235/145/235 239/33/239
f 239/33/239 243/148/243 247/34/247
f 247/34/247 251/140/251 231/32/231
f 264/35/264 263/62/263 277/36/277
f 242/38/242 240/59/240 260/39/260
f 228/41/228 226/56/226 254/42/254
f 250/44/250 265/60/265 266/45/266
f 236/47/236 258/61/258 259/48/259
f 246/50/246 263/62/263 264/35/264
f 232/27/232 256/26/256 257/52/257
f 244/54/244 242/38/242 261/40/261
f 252/138/252 266/57/266 254/42/254
f 230/25/230 228/41/228 253/43/253
f 240/59/240 238/49/238 259/48/259
f 248/51/248 264/35/264 265/60/265
f 234/53/234 257/52/257 258/61/258
f 246/50/246 244/54/244 262/55/262
f 309/63/309 323/134/323 325/64/325
f 257/52/257 256/26/256 270/66/270
f 265/60/265 264/35/264 278/37/278
f 258/61/258 257/52/257 271/67/271
f 266/45/266 265/60/265 279/68/279
f 259/48/259 258/61/258 272/69/272
f 254/42/254 266/57/266 280/107/280
f 259/48/259 273/71/273 274/73/274
f 260/39/260 274/73/274 275/74/275
f 254/42/254 268/72/268 267/75/267
f 261/40/261 275/74/275 276/76/276
f 253/43/253 267/75/267 269/77/269
f 262/55/262 276/76/276 277/36/277
f 255/58/255 269/77/269 270/66/270
f 282/87/282 281/89/281 283/93/283
f 283/93/283 284/96/284 285/78/285
f 285/78/285 286/101/286 287/105/287
f 287/105/287 288/84/288 289/79/289
f 289/79/289 290/90/290 291/95/291
f 291/95/291 292/99/292 293/80/293
f 293/80/293 294/104/294 282/87/282
f 282/87/282 283/93/283 285/78/285
f 285/78/285 287/105/287 289/79/289
f 289/79/289 291/95/291 293/80/293
f 293/80/293 282/87/282 285/78/285
f 297/151/297 295/152/295 296/153/296
f 296/153/296 308/154/308 307/81/307
f 307/81/307 306/155/306 305/94/305
f 305/94/305 304/91/304 303/82/303
f 303/82/303 302/86/302 301/85/301
f 301/85/301 300/102/300 299/83/299
f 299/83/299 298/156/298 297/151/297
f 297/151/297 296/153/296 307/81/307
f 307/81/307 305/94/305 303/82/303
f 303/82/303 301/85/301 299/83/299
f 299/83/299 297/151/297 307/81/307
f 288/84/288 287/105/287 301/85/301
f 289/79/289 288/84/288 302/86/302
f 282/87/282 296/106/296 295/88/295
f 290/90/290 289/79/289 303/82/303
f 281/89/281 295/88/295 297/92/297
f 291/95/291 290/90/290 304/91/304
f 283/93/283 297/92/297 298/97/298
f 291/95/291 305/139/305 306/98/306
f 285/78/285 284/96/284 298/97/298
f 292/99/292 306/98/306 307/100/307
f 286/101/286 285/78/285 299/83/299
f 293/80/293 307/100/307 308/103/308
f 287/105/287 286/101/286 300/102/300
f 294/104/294 308/103/308 296/106/296
f 268/72/268 310/108/310 309/63/309
f 268/72/268 280/107/280 311/124/311
f 280/70/280 279/68/279 312/109/312
f 279/68/279 278/37/278 313/111/313
f 278/37/278 277/36/277 314/112/314
f 276/76/276 315/113/315 314/112/314
f 275/74/275 316/114/316 315/113/315
f 274/73/274 317/115/317 316/114/316
f 274/73/274 273/71/273 318/117/318
f 273/71/273 272/69/272 319/116/319
f 272/69/272 271/67/271 320/118/320
f 271/67/271 270/66/270 321/119/321
f 269/77/269 322/65/322 321/119/321
f 267/75/267 309/63/309 322/65/322
f 325/64/325 323/134/323 324/125/324
f 324/125/324 326/157/326 327/120/327
f 327/120/327 328/158/328 329/159/329
f 329/159/329 330/160/330 331/121/331
f 331/121/331 332/123/332 333/126/333
f 333/126/333 334/128/334 335/122/335
f 335/122/335 336/131/336 325/64/325
f 325/64/325 324/125/324 327/120/327
f 327/120/327 329/159/329 331/121/331
f 331/121/331 333/126/333 335/122/335
f 335/122/335 325/64/325 327/120/327
f 317/115/317 318/117/318 333/126/333
f 311/124/311 326/157/326 324/125/324
f 318/117/318 319/116/319 334/128/334
f 312/109/312 327/129/327 326/127/326
f 319/116/319 320/118/320 335/122/335
f 313/111/313 328/130/328 327/129/327
f 320/118/320 321/119/321 336/131/336
f 314/112/314 329/132/329 328/130/328
f 322/65/322 325/64/325 336/131/336
f 314/112/314 315/113/315 330/133/330
f 315/113/315 316/114/316 331/135/331
f 310/108/310 324/125/324 323/134/323
f 316/114/316 317/115/317 332/123/332
f 338/1/338 340/4/340 339/2/339
f 339/2/339 340/4/340 342/136/342
f 341/5/341 342/136/342 344/6/344
f 343/7/343 344/6/344 346/8/346
f 345/9/345 346/8/346 348/10/348
f 348/10/348 350/12/350 349/13/349
f 350/12/350 352/15/352 351/14/351
f 352/15/352 354/17/354 353/16/353
f 353/16/353 354/17/354 356/137/356
f 355/18/355 356/137/356 358/19/358
f 357/20/357 358/19/358 360/21/360
f 359/22/359 360/21/360 362/23/362
f 342/25/342 367/58/367 368/26/368
f 362/23/362 364/28/364 363/29/363
f 364/30/364 338/1/338 337/3/337
f 363/140/363 337/141/337 339/142/339
f 339/142/339 341/143/341 343/32/343
f 343/32/343 345/144/345 347/145/347
f 347/145/347 349/146/349 351/33/351
f 351/33/351 353/147/353 355/148/355
f 355/148/355 357/149/357 359/34/359
f 359/34/359 361/150/361 363/140/363
f 363/140/363 339/142/339 343/32/343
f 343/32/343 347/145/347 351/33/351
f 351/33/351 355/148/355 359/34/359
f 359/34/359 363/140/363 343/32/343
f 376/35/376 375/62/375 389/36/389
f 354/38/354 352/59/352 372/39/372
f 340/41/340 338/56/338 366/42/366
f 364/46/364 362/44/362 377/60/377
f 350/49/350 348/47/348 370/61/370
f 358/50/358 375/62/375 376/35/376
f 344/27/344 368/26/368 369/52/369
f 354/38/354 373/40/373 374/55/374
f 338/56/338 364/138/364 378/57/378
f 340/41/340 365/43/365 367/58/367
f 352/59/352 350/49/350 371/48/371
f 360/51/360 376/35/376 377/60/377
f 346/53/346 369/52/369 370/61/370
f 356/54/356 374/55/374 375/62/375
f 421/63/421 435/134/435 437/64/437
f 369/52/369 368/26/368 382/66/382
f 377/60/377 376/35/376 390/37/390
f 370/61/370 369/52/369 383/67/383
f 377/60/377 391/68/391 392/70/392
f 370/61/370 384/69/384 385/71/385
f 378/57/378 392/107/392 380/72/380
f 371/48/371 385/71/385 386/73/386
f 372/39/372 386/73/386 387/74/387
f 366/42/366 380/72/380 379/75/379
f 374/55/374 373/40/373 387/74/387
f 367/58/367 365/43/365 379/75/379
f 375/62/375 374/55/374 388/76/388
f 368/26/368 367/58/367 381/77/381
f 394/87/394 393/89/393 395/93/395
f 395/93/395 396/96/396 397/78/397
f 397/78/397 398/101/398 399/105/399
f 399/105/399 400/84/400 401/79/401
f 401/79/401 402/90/402 403/95/403
f 403/95/403 404/99/404 405/80/405
f 405/80/405 406/104/406 394/87/394
f 394/87/394 395/93/395 397/78/397
f 397/78/397 399/105/399 401/79/401
f 401/79/401 403/95/403 405/80/405
f 405/80/405 394/87/394 397/78/397
f 409/151/409 407/152/407 408/153/408
f 408/153/408 420/154/420 419/81/419
f 419/81/419 418/155/418 417/94/417
f 417/94/417 416/91/416 415/82/415
f 415/82/415 414/86/414 413/85/413
f 413/85/413 412/102/412 411/83/411
f 411/83/411 410/156/410 409/151/409
f 409/151/409 408/153/408 419/81/419
f 419/81/419 417/94/417 415/82/415
f 415/82/415 413/85/413 411/83/411
f 411/83/411 409/151/409 419/81/419
f 400/84/400 399/105/399 413/85/413
f 401/79/401 400/84/400 414/86/414
f 394/87/394 408/106/408 407/88/407
f 401/79/401 415/82/415 416/91/416
f 395/93/395 393/89/393 407/88/407
f 402/90/402 416/91/416 417/94/417
f 396/96/396 395/93/395 409/92/409
f 403/95/403 417/139/417 418/98/418
f 397/78/397 396/96/396 410/97/410
f 404/99/404 418/98/418 419/100/419
f 398/101/398 397/78/397 411/83/411
f 405/80/405 419/100/419 420/103/420
f 399/105/399 398/101/398 412/102/412
f 406/104/406 420/103/420 408/106/408
f 380/72/380 422/108/422 421/63/421
f 392/107/392 423/124/423 422/108/422
f 391/68/391 424/109/424 423/110/423
f 391/68/391 390/37/390 425/111/425
f 390/37/390 389/36/389 426/112/426
f 389/36/389 388/76/388 427/113/427
f 388/76/388 387/74/387 428/114/428
f 386/73/386 429/115/429 428/114/428
f 385/71/385 430/117/430 429/115/429
f 384/69/384 431/116/431 430/117/430
f 384/69/384 383/67/383 432/118/432
f 383/67/383 382/66/382 433/119/433
f 382/66/382 381/77/381 434/65/434
f 381/77/381 379/75/379 421/63/421
f 437/64/437 435/134/435 436/125/436
f 436/125/436 438/157/438 439/120/439
f 439/120/439 440/158/440 441/159/441
f 441/159/441 442/160/442 443/121/443
f 443/121/443 444/123/444 445/126/445
f 445/126/445 446/128/446 447/122/447
f 447/122/447 448/131/448 437/64/437
f 437/64/437 436/125/436 439/120/439
f 439/120/439 441/159/441 443/121/443
f 443/121/443 445/126/445 447/122/447
f 447/122/447 437/64/437 439/120/439
f 430/117/430 445/126/445 444/123/444
f 423/124/423 438/157/438 436/125/436
f 431/116/431 446/128/446 445/126/445
f 424/109/424 439/129/439 438/127/438
f 432/118/432 447/122/447 446/128/446
f 425/111/425 440/130/440 439/129/439
f 433/119/433 448/131/448 447/122/447
f 426/112/426 441/132/441 440/130/440
f 434/65/434 437/64/437 448/131/448
f 427/113/427 442/133/442 441/132/441
f 428/114/428 443/135/443 442/133/442
f 422/108/422 436/125/436 435/134/435
f 429/115/429 444/123/444 443/135/443
f 450/1/338 452/4/449 451/2/339
f 451/2/339 452/4/449 454/136/342
f 453/5/341 454/136/342 456/6/344
f 455/7/343 456/6/344 458/8/450
f 457/9/345 458/8/450 460/10/348
f 460/10/348 462/12/350 461/13/349
f 462/12/350 464/15/451 463/14/351
f 464/15/451 466/17/452 465/16/353
f 465/16/353 466/17/452 468/137/356
f 467/18/453 468/137/356 470/19/455
f 469/20/454 470/19/455 472/21/360
f 471/22/359 472/21/360 474/23/362
f 454/25/342 479/58/459 480/26/460
f 474/23/362 476/28/364 475/29/363
f 476/30/364 450/1/338 449/3/337
f 475/140/363 449/141/337 451/142/339
f 451/142/339 453/143/341 455/32/343
f 455/32/343 457/144/345 459/145/347
f 459/145/347 461/146/349 463/33/351
f 463/33/351 465/147/353 467/148/453
f 467/148/453 469/149/454 471/34/359
f 471/34/359 473/150/456 475/140/363
f 475/140/363 451/142/339 455/32/343
f 455/32/343 459/145/347 463/33/351
f 463/33/351 467/148/453 471/34/359
f 471/34/359 475/140/363 455/32/343
f 488/35/468 487/62/467 501/36/475
f 466/38/452 464/59/451 484/39/464
f 452/41/449 450/56/338 478/42/458
f 476/46/364 474/44/362 489/60/469
f 462/49/350 460/47/348 482/61/462
f 470/50/455 487/62/467 488/35/468
f 456/27/344 480/26/460 481/52/461
f 466/38/452 485/40/465 486/55/466
f 450/56/338 476/138/364 490/57/470
f 452/41/449 477/43/457 479/58/459
f 464/59/451 462/49/350 483/48/463
f 472/51/360 488/35/468 489/60/469
f 458/53/450 481/52/461 482/61/462
f 468/54/356 486/55/466 487/62/467
f 533/63/421 547/134/502 549/64/437
f 481/52/461 480/26/460 494/66/471
f 489/60/469 488/35/468 502/37/390
f 482/61/462 481/52/461 495/67/472
f 489/60/469 503/68/391 504/70/392
f 482/61/462 496/69/473 497/71/474
f 490/57/470 504/107/392 492/72/380
f 483/48/463 497/71/474 498/73/386
f 484/39/464 498/73/386 499/74/387
f 478/42/458 492/72/380 491/75/379
f 486/55/466 485/40/465 499/74/387
f 479/58/459 477/43/457 491/75/379
f 487/62/467 486/55/466 500/76/388
f 480/26/460 479/58/459 493/77/381
f 506/87/394 505/89/393 507/93/476
f 507/93/476 508/96/477 509/78/397
f 509/78/397 510/101/478 511/105/479
f 511/105/479 512/84/480 513/79/401
f 513/79/401 514/90/481 515/95/403
f 515/95/403 516/99/482 517/80/483
f 517/80/483 518/104/484 506/87/394
f 506/87/394 507/93/476 509/78/397
f 509/78/397 511/105/479 513/79/401
f 513/79/401 515/95/403 517/80/483
f 517/80/483 506/87/394 509/78/397
f 521/151/486 519/152/407 520/153/485
f 520/153/485 532/154/495 531/81/494
f 531/81/494 530/155/493 529/94/492
f 529/94/492 528/91/416 527/82/415
f 527/82/415 526/86/491 525/85/490
f 525/85/490 524/102/489 523/83/488
f 523/83/488 522/156/487 521/151/486
f 521/151/486 520/153/485 531/81/494
f 531/81/494 529/94/492 527/82/415
f 527/82/415 525/85/490 523/83/488
f 523/83/488 521/151/486 531/81/494
f 512/84/480 511/105/479 525/85/490
f 513/79/401 512/84/480 526/86/491
f 506/87/394 520/106/485 519/88/407
f 513/79/401 527/82/415 528/91/416
f 507/93/476 505/89/393 519/88/407
f 514/90/481 528/91/416 529/94/492
f 508/96/477 507/93/476 521/92/486
f 515/95/403 529/139/492 530/98/493
f 509/78/397 508/96/477 522/97/487
f 516/99/482 530/98/493 531/100/494
f 510/101/478 509/78/397 523/83/488
f 517/80/483 531/100/494 532/103/495
f 511/105/479 510/101/478 524/102/489
f 518/104/484 532/103/495 520/106/485
f 492/72/380 534/108/422 533/63/421
f 504/107/392 535/124/496 534/108/422
f 503/68/391 536/109/424 535/110/496
f 503/68/391 502/37/390 537/111/425
f 502/37/390 501/36/475 538/112/497
f 501/36/475 500/76/388 539/113/498
f 500/76/388 499/74/387 540/114/428
f 498/73/386 541/115/499 540/114/428
f 497/71/474 542/117/500 541/115/499
f 496/69/473 543/116/431 542/117/500
f 496/69/473 495/67/472 544/118/501
f 495/67/472 494/66/471 545/119/433
f 494/66/471 493/77/381 546/65/434
f 493/77/381 491/75/379 533/63/421
f 549/64/437 547/134/502 548/125/436
f 548/125/436 550/157/503 551/120/504
f 551/120/504 552/158/505 553/159/441
f 553/159/441 554/160/506 555/121/507
f 555/121/507 556/123/444 557/126/508
f 557/126/508 558/128/446 559/122/447
f 559/122/447 560/131/509 549/64/437
f 549/64/437 548/125/436 551/120/504
f 551/120/504 553/159/441 555/121/507
f 555/121/507 557/126/508 559/122/447
f 559/122/447 549/64/437 551/120/504
f 542/117/500 557/126/508 556/123/444
f 535/124/496 550/157/503 548/125/436
f 543/116/431 558/128/446 557/126/508
f 536/109/424 551/129/504 550/127/503
f 544/118/501 559/122/447 558/128/446
f 537/111/425 552/130/505 551/129/504
f 545/119/433 560/131/509 559/122/447
f 538/112/497 553/132/441 552/130/505
f 546/65/434 549/64/437 560/131/509
f 539/113/498 554/133/506 553/132/441
f 540/114/428 555/135/507 554/133/506
f 534/108/422 548/125/436 547/134/502
f 541/115/499 556/123/444 555/135/507
f 562/1/511 564/4/513 563/2/512
f 564/4/513 566/136/515 565/5/514
f 566/136/515 568/6/517 567/7/516
f 567/7/516 568/6/517 570/8/519
f 569/9/518 570/8/519 572/10/521
f 571/11/520 572/10/521 574/12/523
f 573/13/522 574/12/523 576/15/525
f 576/15/525 578/17/527 577/16/526
f 578/17/527 580/137/529 579/18/528
f 580/137/529 582/19/531 581/20/530
f 581/20/530 582/19/531 584/21/533
f 583/22/532 584/21/533 586/23/535
f 568/27/517 566/25/515 591/58/540
f 585/24/534 586/23/535 588/28/537
f 587/31/536 588/30/537 562/1/511
f 587/140/536 561/141/510 563/142/512
f 563/142/512 565/143/514 567/32/516
f 567/32/516 569/144/518 571/145/520
f 571/145/520 573/146/522 575/33/524
f 575/33/524 577/147/526 579/148/528
f 579/148/528 581/149/530 583/34/532
f 583/34/532 585/150/534 587/140/536
f 587/140/536 563/142/512 567/32/516
f 567/32/516 571/145/520 575/33/524
f 575/33/524 579/148/528 583/34/532
f 583/34/532 587/140/536 567/32/516
f 600/35/549 599/62/548 613/36/562
f 578/38/527 576/59/525 596/39/545
f 564/41/513 562/56/511 590/42/539
f 586/44/535 601/60/550 602/45/551
f 572/47/521 594/61/543 595/48/544
f 582/50/531 599/62/548 600/35/549
f 568/27/517 592/26/541 593/52/542
f 580/54/529 578/38/527 597/40/546
f 588/138/537 602/57/551 590/42/539
f 566/25/515 564/41/513 589/43/538
f 574/49/523 595/48/544 596/39/545
f 584/51/533 600/35/549 601/60/550
f 570/53/519 593/52/542 594/61/543
f 582/50/531 580/54/529 598/55/547
f 645/63/594 659/134/608 661/64/610
f 593/52/542 592/26/541 606/66/555
f 601/60/550 600/35/549 614/37/563
f 594/61/543 593/52/542 607/67/556
f 602/45/551 601/60/550 615/68/564
f 595/48/544 594/61/543 608/69/557
f 590/42/539 602/57/551 616/107/565
f 596/39/545 595/48/544 609/71/558
f 596/39/545 610/73/559 611/74/560
f 590/42/539 604/72/553 603/75/552
f 597/40/546 611/74/560 612/76/561
f 589/43/538 603/75/552 605/77/554
f 598/55/547 612/76/561 613/36/562
f 591/58/540 605/77/554 606/66/555
f 618/87/567 617/89/566 619/93/568
f 619/93/568 620/96/569 621/78/570
f 621/78/570 622/101/571 623/105/572
f 623/105/572 624/84/573 625/79/574
f 625/79/574 626/90/575 627/95/576
f 627/95/576 628/99/577 629/80/578
f 629/80/578 630/104/579 618/87/567
f 618/87/567 619/93/568 621/78/570
f 621/78/570 623/105/572 625/79/574
f 625/79/574 627/95/576 629/80/578
f 629/80/578 618/87/567 621/78/570
f 633/151/582 631/152/580 632/153/581
f 632/153/581 644/154/593 643/81/592
f 643/81/592 642/155/591 641/94/590
f 641/94/590 640/91/589 639/82/588
f 639/82/588 638/86/587 637/85/586
f 637/85/586 636/102/585 635/83/584
f 635/83/584 634/156/583 633/151/582
f 633/151/582 632/153/581 643/81/592
f 643/81/592 641/94/590 639/82/588
f 639/82/588 637/85/586 635/83/584
f 635/83/584 633/151/582 643/81/592
f 624/84/573 623/105/572 637/85/586
f 625/79/574 624/84/573 638/86/587
f 618/87/567 632/106/581 631/88/580
f 626/90/575 625/79/574 639/82/588
f 617/89/566 631/88/580 633/92/582
f 627/95/576 626/90/575 640/91/589
f 619/93/568 633/92/582 634/97/583
f 627/95/576 641/139/590 642/98/591
f 621/78/570 620/96/569 634/97/583
f 628/99/577 642/98/591 643/100/592
f 622/101/571 621/78/570 635/83/584
f 629/80/578 643/100/592 644/103/593
f 623/105/572 622/101/571 636/102/585
f 630/104/579 644/103/593 632/106/581
f 604/72/553 646/108/595 645/63/594
f 604/72/553 616/107/565 647/124/596
f 616/70/565 615/68/564 648/109/597
f 615/68/564 614/37/563 649/111/598
f 614/37/563 613/36/562 650/112/599
f 612/76/561 651/113/600 650/112/599
f 611/74/560 652/114/601 651/113/600
f 610/73/559 653/115/602 652/114/601
f 610/73/559 609/71/558 654/117/603
f 609/71/558 608/69/557 655/116/604
f 608/69/557 607/67/556 656/118/605
f 607/67/556 606/66/555 657/119/606
f 605/77/554 658/65/607 657/119/606
f 603/75/552 645/63/594 658/65/607
f 661/64/610 659/134/608 660/125/609
f 660/125/609 662/157/611 663/120/612
f 663/120/612 664/158/613 665/159/614
f 665/159/614 666/160/615 667/121/616
f 667/121/616 668/123/617 669/126/618
f 669/126/618 670/128/619 671/122/620
f 671/122/620 672/131/621 661/64/610
f 661/64/610 660/125/609 663/120/612
f 663/120/612 665/159/614 667/121/616
f 667/121/616 669/126/618 671/122/620
f 671/122/620 661/64/610 663/120/612
f 654/117/603 669/126/618 668/123/617
f 647/124/596 662/157/611 660/125/609
f 655/116/604 670/128/619 669/126/618
f 648/109/597 663/129/612 662/127/611
f 656/118/605 671/122/620 670/128/619
f 649/111/598 664/130/613 663/129/612
f 657/119/606 672/131/621 671/122/620
f 650/112/599 665/132/614 664/130/613
f 658/65/607 661/64/610 672/131/621
f 651/113/600 666/133/615 665/132/614
f 652/114/601 667/135/616 666/133/615
f 646/108/595 660/125/609 659/134/608
f 653/115/602 668/123/617 667/135/616
f 673/3/622 674/1/623 676/4/625
f 675/2/624 676/4/625 678/136/627
f 678/136/627 680/6/629 679/7/628
f 680/6/629 682/8/631 681/9/630
f 682/8/631 684/10/633 683/11/632
f 684/10/633 686/12/635 685/13/634
f 685/13/634 686/12/635 688/15/637
f 687/14/636 688/15/637 690/17/639
f 689/16/638 690/17/639 692/137/641
f 692/137/641 694/19/643 693/20/642
f 694/19/643 696/21/645 695/22/644
f 696/21/645 698/23/647 697/24/646
f 680/27/629 678/25/627 703/58/652
f 698/23/647 700/28/649 699/29/648
f 699/31/648 700/30/649 674/1/623
f 699/140/648 673/141/622 675/142/624
f 675/142/624 677/143/626 679/32/628
f 679/32/628 681/144/630 683/145/632
f 683/145/632 685/146/634 687/33/636
f 687/33/636 689/147/638 691/148/640
f 691/148/640 693/149/642 695/34/644
f 695/34/644 697/150/646 699/140/648
f 699/140/648 675/142/624 679/32/628
f 679/32/628 683/145/632 687/33/636
f 687/33/636 691/148/640 695/34/644
f 695/34/644 699/140/648 679/32/628
f 711/62/660 725/36/674 726/37/675
f 688/59/637 708/39/657 709/40/658
f 674/56/623 702/42/651 701/43/650
f 700/46/649 698/44/647 713/60/662
f 686/49/635 684/47/633 706/61/655
f 696/51/645 694/50/643 711/62/660
f 682/53/631 680/27/629 704/26/653
f 690/38/639 709/40/658 710/55/659
f 700/138/649 714/57/663 702/42/651
f 676/41/625 701/43/650 703/58/652
f 686/49/635 707/48/656 708/39/657
f 698/44/647 696/51/645 712/35/661
f 684/47/633 682/53/631 705/52/654
f 694/50/643 692/54/641 710/55/659
f 757/63/706 771/134/720 773/64/722
f 704/26/653 718/66/667 719/67/668
f 712/35/661 726/37/675 727/68/676
f 705/52/654 719/67/668 720/69/669
f 713/60/662 727/68/676 728/70/677
f 706/61/655 720/69/669 721/71/670
f 702/42/651 714/57/663 728/107/677
f 708/39/657 707/48/656 721/71/670
f 709/40/658 708/39/657 722/73/671
f 701/43/650 702/42/651 716/72/665
f 710/55/659 709/40/658 723/74/672
f 703/58/652 701/43/650 715/75/664
f 710/55/659 724/76/673 725/36/674
f 703/58/652 717/77/666 718/66/667
f 730/87/679 729/89/678 731/93/680
f 731/93/680 732/96/681 733/78/682
f 733/78/682 734/101/683 735/105/684
f 735/105/684 736/84/685 737/79/686
f 737/79/686 738/90/687 739/95/688
f 739/95/688 740/99/689 741/80/690
f 741/80/690 742/104/691 730/87/679
f 730/87/679 731/93/680 733/78/682
f 733/78/682 735/105/684 737/79/686
f 737/79/686 739/95/688 741/80/690
f 741/80/690 730/87/679 733/78/682
f 745/151/694 743/152/692 744/153/693
f 744/153/693 756/154/705 755/81/704
f 755/81/704 754/155/703 753/94/702
f 753/94/702 752/91/701 751/82/700
f 751/82/700 750/86/699 749/85/698
f 749/85/698 748/102/697 747/83/696
f 747/83/696 746/156/695 745/151/694
f 745/151/694 744/153/693 755/81/704
f 755/81/704 753/94/702 751/82/700
f 751/82/700 749/85/698 747/83/696
f 747/83/696 745/151/694 755/81/704
f 736/84/685 735/105/684 749/85/698
f 737/79/686 736/84/685 750/86/699
f 730/87/679 744/106/693 743/88/692
f 738/90/687 737/79/686 751/82/700
f 729/89/678 743/88/692 745/92/694
f 739/95/688 738/90/687 752/91/701
f 731/93/680 745/92/694 746/97/695
f 740/99/689 739/95/688 753/139/702
f 732/96/681 746/97/695 747/83/696
f 741/80/690 740/99/689 754/98/703
f 733/78/682 747/83/696 748/102/697
f 742/104/691 741/80/690 755/100/704
f 734/101/683 748/102/697 749/85/698
f 742/104/691 756/103/705 744/106/693
f 715/75/664 716/72/665 758/108/707
f 716/72/665 728/107/677 759/124/708
f 727/68/676 760/109/709 759/110/708
f 726/37/675 761/111/710 760/109/709
f 725/36/674 762/112/711 761/111/710
f 724/76/673 763/113/712 762/112/711
f 724/76/673 723/74/672 764/114/713
f 723/74/672 722/73/671 765/115/714
f 722/73/671 721/71/670 766/117/715
f 720/69/669 767/116/716 766/117/715
f 719/67/668 768/118/717 767/116/716
f 718/66/667 769/119/718 768/118/717
f 717/77/666 770/65/719 769/119/718
f 717/77/666 715/75/664 757/63/706
f 773/64/722 771/134/720 772/125/721
f 772/125/721 774/157/723 775/120/724
f 775/120/724 776/158/725 777/159/726
f 777/159/726 778/160/727 779/121/728
f 779/121/728 780/123/729 781/126/730
f 781/126/730 782/128/731 783/122/732
f 783/122/732 784/131/733 773/64/722
f 773/64/722 772/125/721 775/120/724
f 775/120/724 777/159/726 779/121/728
f 779/121/728 781/126/730 783/122/732
f 783/122/732 773/64/722 775/120/724
f 766/117/715 781/126/730 780/123/729
f 759/124/708 774/157/723 772/125/721
f 767/116/716 782/128/731 781/126/730
f 760/109/709 775/129/724 774/127/723
f 768/118/717 783/122/732 782/128/731
f 761/111/710 776/130/725 775/129/724
f 769/119/718 784/131/733 783/122/732
f 762/112/711 777/132/726 776/130/725
f 770/65/719 773/64/722 784/131/733
f 763/113/712 778/133/727 777/132/726
f 764/114/713 779/135/728 778/133/727
f 758/108/707 772/125/721 771/134/720
f 765/115/714 780/123/729 779/135/728
