# Blender 5.2.2 LTS
# www.blender.org
o Crab.003
v -0.466044 -0.276725 -1.540131
v -0.558596 0.042472 -1.584573
v -0.619040 -0.279547 -1.241782
v -0.711592 0.039649 -1.286224
v -0.749688 -0.379355 -1.686557
v -0.842240 -0.060158 -1.730999
v -0.902684 -0.382178 -1.388209
v -0.995236 -0.062981 -1.432650
v -1.944097 -0.434930 0.085157
v -2.009660 -0.186305 0.223711
v -1.576750 -0.547900 0.543269
v -1.623129 -0.223731 0.610422
v -2.154773 -0.520292 0.257372
v -2.205077 -0.249195 0.330209
v -1.770987 -0.552377 0.702047
v -1.817367 -0.302433 0.769200
v -2.188968 -0.487291 0.595838
v -2.131954 -0.220844 0.750346
v -1.729933 -0.595520 0.614418
v -1.704741 -0.246951 0.696962
v -2.192343 -0.586558 0.912251
v -2.166949 -0.295430 1.003857
v -1.731266 -0.606885 0.904229
v -1.707853 -0.338473 0.988687
v 1.659294 -0.469664 0.543876
v 1.608854 -0.287485 0.667475
v 1.353733 -0.538359 0.567661
v 1.331446 -0.307830 0.623846
v 1.662280 -0.513146 0.827784
v 1.639814 -0.319128 0.894706
v 1.354912 -0.526799 0.823901
v 1.334199 -0.347919 0.885601
v 1.416741 -0.434549 0.167562
v 1.455471 -0.287680 0.249410
v 1.272327 -0.443456 0.399198
v 1.275240 -0.302901 0.385204
v 1.565480 -0.471648 0.274452
v 1.621230 -0.315370 0.301278
v 1.331376 -0.487379 0.534383
v 1.372024 -0.345884 0.587530
v -1.640854 -0.366302 -0.509028
v -1.736415 -0.068404 -0.504454
v -1.633396 -0.371558 -0.340418
v -1.728957 -0.073660 -0.335844
v -2.012261 -0.500279 -0.510127
v -2.119737 -0.165238 -0.504982
v -1.995683 -0.503241 -0.280954
v -2.103160 -0.168200 -0.275810
v -2.167743 -0.720841 -0.495562
v -2.398551 -0.623996 -0.490995
v -2.149898 -0.715315 -0.340526
v -2.380706 -0.618469 -0.335959
v -2.297066 -0.989182 -0.445115
v -2.503716 -0.902472 -0.441988
v -2.288768 -0.982385 -0.305803
v -2.495419 -0.895676 -0.302676
v -2.204085 -0.859685 -0.310842
v -2.449282 -0.756802 -0.305990
v -2.212834 -0.867635 -0.517570
v -2.458031 -0.764752 -0.512719
v -2.154996 -0.720841 -1.100651
v -2.383715 -0.623995 -1.131971
v -2.161436 -0.715315 -0.944725
v -2.390154 -0.618469 -0.976044
v -2.290583 -0.989182 -1.070893
v -2.495214 -0.902472 -1.099884
v -2.304013 -0.982385 -0.931982
v -2.508643 -0.895676 -0.960973
v -2.219575 -0.859685 -0.923813
v -2.462552 -0.756802 -0.957085
v -2.196125 -0.867635 -1.129393
v -2.439102 -0.764751 -1.162665
v -1.632405 -0.366302 -1.032159
v -1.727517 -0.068404 -1.042475
v -1.651212 -0.371558 -0.864436
v -1.746325 -0.073660 -0.874752
v -1.999138 -0.500279 -1.090902
v -2.106110 -0.165238 -1.102505
v -2.018338 -0.503241 -0.861935
v -2.125310 -0.168200 -0.873538
v -1.343595 -0.366302 -1.437414
v -1.419095 -0.068404 -1.463154
v -1.389485 -0.371558 -1.304389
v -1.464985 -0.073660 -1.330129
v -1.631246 -0.500279 -1.552090
v -1.716159 -0.165238 -1.581039
v -1.688625 -0.503241 -1.369310
v -1.773539 -0.168200 -1.398259
v -1.756269 -0.720841 -1.588447
v -1.936637 -0.623996 -1.655640
v -1.789946 -0.715315 -1.462764
v -1.970313 -0.618470 -1.529957
v -1.872007 -0.989182 -1.588964
v -2.033201 -0.902473 -1.649870
v -1.908267 -0.982385 -1.478399
v -2.069461 -0.895676 -1.539306
v -1.841060 -0.859685 -1.456353
v -2.059339 -0.735021 -1.534627
v -1.784489 -0.867635 -1.619331
v -2.002768 -0.742971 -1.697605
v -1.096595 -0.720841 -2.137738
v -1.194749 -0.623996 -2.272506
v -1.181009 -0.715315 -2.063057
v -1.279163 -0.618470 -2.197826
v -1.179945 -0.989182 -2.193446
v -1.267256 -0.902472 -2.314506
v -1.258997 -0.982385 -2.130921
v -1.346309 -0.895676 -2.251981
v -1.220994 -0.859685 -2.082865
v -1.341468 -0.749299 -2.244035
v -1.102211 -0.867635 -2.173537
v -1.222685 -0.757248 -2.334707
v -0.870727 -0.366302 -1.831345
v -0.912955 -0.068404 -1.886034
v -0.967474 -0.371558 -1.757201
v -1.009701 -0.073660 -1.811889
v -1.023672 -0.500279 -2.051703
v -1.071164 -0.165238 -2.113210
v -1.152505 -0.503241 -1.947114
v -1.199997 -0.168200 -2.008621
v 0.553820 -0.366302 -1.831345
v 0.596048 -0.068404 -1.886034
v 0.650567 -0.371558 -1.757201
v 0.692795 -0.073660 -1.811889
v 0.706765 -0.500279 -2.051703
v 0.754258 -0.165238 -2.113210
v 0.835598 -0.503241 -1.947114
v 0.883091 -0.168200 -2.008621
v 0.797040 -0.731325 -2.134711
v 0.895195 -0.634480 -2.269479
v 0.881454 -0.725799 -2.060030
v 0.979609 -0.628954 -2.194799
v 0.863038 -0.989182 -2.193445
v 0.950350 -0.902473 -2.314506
v 0.942091 -0.982385 -2.130920
v 1.029402 -0.895676 -2.251981
v 0.915469 -0.846121 -2.069714
v 1.019742 -0.743238 -2.212884
v 0.785305 -0.867635 -2.173537
v 0.889578 -0.764752 -2.316708
v 1.446745 -0.717634 -1.567912
v 1.627112 -0.620789 -1.635106
v 1.480421 -0.712109 -1.442229
v 1.660789 -0.615263 -1.509423
v 1.555100 -0.989182 -1.588964
v 1.716294 -0.902473 -1.649870
v 1.591360 -0.982385 -1.478399
v 1.752555 -0.895676 -1.539306
v 1.530006 -0.855837 -1.438869
v 1.747147 -0.738507 -1.528844
v 1.467582 -0.867635 -1.619331
v 1.684723 -0.750304 -1.709306
v 1.026689 -0.366302 -1.437414
v 1.102188 -0.068404 -1.463154
v 1.072579 -0.371558 -1.304389
v 1.148079 -0.073660 -1.330129
v 1.314339 -0.500279 -1.552090
v 1.399253 -0.165238 -1.581039
v 1.371719 -0.503241 -1.369310
v 1.456632 -0.168200 -1.398259
v 1.315498 -0.366302 -1.032159
v 1.410611 -0.068404 -1.042475
v 1.334305 -0.371558 -0.864436
v 1.429418 -0.073660 -0.874752
v 1.682231 -0.500279 -1.090902
v 1.789203 -0.165238 -1.102505
v 1.701432 -0.503241 -0.861935
v 1.808404 -0.168200 -0.873538
v 1.793260 -0.739492 -1.074174
v 2.066808 -0.623995 -1.131971
v 1.799700 -0.733966 -0.918247
v 2.073248 -0.618470 -0.976044
v 1.992932 -0.949748 -1.079582
v 2.178307 -0.902472 -1.099884
v 2.006362 -0.942952 -0.940671
v 2.191737 -0.895676 -0.960973
v 1.856931 -0.867885 -0.878728
v 2.169640 -0.742456 -0.943970
v 1.834389 -0.886286 -1.102915
v 2.147097 -0.760857 -1.168157
v 1.816274 -0.723783 -0.499715
v 2.081644 -0.623996 -0.490995
v 1.798429 -0.718257 -0.344679
v 2.063799 -0.618470 -0.335959
v 1.980160 -0.989182 -0.445115
v 2.186810 -0.902473 -0.441988
v 1.971862 -0.982385 -0.305803
v 2.178512 -0.895676 -0.302676
v 1.852616 -0.862627 -0.314995
v 2.132376 -0.756802 -0.305990
v 1.861365 -0.870576 -0.521724
v 2.141125 -0.764752 -0.512719
v 1.323947 -0.366302 -0.509028
v 1.419509 -0.068404 -0.504453
v 1.316489 -0.371558 -0.340418
v 1.412051 -0.073660 -0.335844
v 1.695354 -0.500279 -0.510126
v 1.802830 -0.165238 -0.504982
v 1.678777 -0.503241 -0.280954
v 1.786253 -0.168200 -0.275810
vn 0.9112 -0.3681 -0.1851
vn 0.5925 0.7312 -0.3381
vn 0.3843 -0.3777 0.8424
vn 0.0656 0.7215 0.6893
vn -0.0656 -0.7215 -0.6893
vn -0.3843 0.3778 -0.8424
vn -0.5925 -0.7312 0.3381
vn -0.9112 0.3680 0.1850
vn 0.1662 -0.1831 -0.9689
vn -0.0279 0.8292 -0.5582
vn 0.8475 -0.5299 -0.0309
vn 0.7211 0.6679 0.1842
vn -0.7329 -0.6304 -0.2558
vn -0.8984 0.4390 -0.0076
vn -0.0049 -0.6918 0.7221
vn -0.1472 0.3265 0.9337
vn -0.6552 -0.2037 -0.7275
vn -0.4988 0.8248 -0.2665
vn 0.5311 -0.5505 -0.6440
vn 0.6245 0.6712 -0.3993
vn -0.6563 -0.6352 0.4071
vn -0.5626 0.4356 0.7027
vn 0.5542 -0.6949 0.4584
vn 0.6243 0.3258 0.7100
vn -0.6091 0.1982 0.7679
vn -0.4630 -0.8115 0.3565
vn 0.5018 0.5543 0.6641
vn 0.6044 -0.6199 0.5004
vn -0.6781 0.5919 -0.4358
vn -0.5452 -0.4835 -0.6848
vn 0.5490 0.6863 -0.4770
vn 0.6219 -0.3669 -0.6919
vn -0.2356 -0.2830 -0.9297
vn -0.0483 0.8111 -0.5830
vn -0.8674 -0.4692 -0.1660
vn -0.7620 0.6243 -0.1719
vn 0.6779 -0.6778 -0.2847
vn 0.8980 0.4183 -0.1363
vn -0.2911 -0.7167 0.6337
vn -0.0108 0.3363 0.9417
vn 0.7186 -0.3469 -0.6027
vn 0.3790 0.7267 -0.5729
vn 0.7828 -0.3661 0.5032
vn 0.4461 0.7173 0.5352
vn -0.3874 -0.7224 -0.5728
vn -0.7366 0.4024 -0.5436
vn -0.2967 -0.7240 0.6227
vn -0.6500 0.3971 0.6479
vn 0.7320 0.3597 -0.5787
vn -0.3311 0.7813 -0.5290
vn 0.8087 0.3646 0.4617
vn -0.2274 0.8220 0.5221
vn 0.1794 -0.8948 -0.4087
vn -0.8162 -0.4303 -0.3856
vn 0.2539 -0.7548 0.6048
vn -0.7176 -0.3166 0.6203
vn 0.6872 -0.2627 0.6773
vn -0.6054 0.3239 0.7270
vn 0.5576 -0.3832 -0.7364
vn -0.6674 0.1344 -0.7324
vn 0.8129 0.3597 -0.4580
vn -0.2450 0.7813 -0.5740
vn 0.7272 0.3646 0.5816
vn -0.3057 0.8220 0.4804
vn 0.2407 -0.8948 -0.3759
vn -0.7464 -0.4303 -0.5076
vn 0.1569 -0.7548 0.6369
vn -0.8052 -0.3166 0.5014
vn 0.5738 -0.2627 0.7757
vn -0.7109 0.3239 0.6242
vn 0.6651 -0.3832 -0.6409
vn -0.5456 0.1344 -0.8272
vn 0.8035 -0.3469 -0.4838
vn 0.4633 0.7267 -0.5071
vn 0.6952 -0.3661 0.6186
vn 0.3576 0.7173 0.5980
vn -0.2938 -0.7224 -0.6260
vn -0.6432 0.4024 -0.6514
vn -0.3898 -0.7240 0.5691
vn -0.7427 0.3971 0.5391
vn 0.8908 -0.3384 -0.3032
vn 0.5621 0.7309 -0.3871
vn 0.5413 -0.3602 0.7597
vn 0.2199 0.7176 0.6609
vn -0.1502 -0.7275 -0.6695
vn -0.4797 0.4028 -0.7795
vn -0.5010 -0.7315 0.4626
vn -0.8400 0.3958 0.3711
vn 0.8944 0.3436 -0.2864
vn -0.0138 0.8002 -0.5996
vn 0.5777 0.3582 0.7334
vn -0.3113 0.8469 0.4311
vn 0.3313 -0.8856 -0.3254
vn -0.5568 -0.4927 -0.6688
vn 0.0234 -0.7569 0.6531
vn -0.8572 -0.3792 0.3485
vn 0.4067 -0.2343 0.8830
vn -0.8634 0.2979 0.4071
vn 0.8054 -0.3492 -0.4789
vn -0.4139 0.1778 -0.8928
vn 0.9128 0.3269 0.2450
vn 0.3037 0.7916 -0.5303
vn 0.0657 0.3489 0.9349
vn -0.5151 0.8402 0.1697
vn 0.4657 -0.8801 -0.0923
vn -0.0916 -0.4727 -0.8764
vn -0.3360 -0.7594 0.5571
vn -0.9159 -0.3564 -0.1847
vn -0.1434 -0.2075 0.9677
vn -0.9582 0.2501 -0.1393
vn 0.9452 -0.3220 0.0544
vn 0.1487 0.1383 -0.9792
vn 0.9150 -0.3276 0.2356
vn 0.6765 0.7363 -0.0118
vn 0.0299 -0.3515 0.9357
vn -0.1825 0.7196 0.6700
vn 0.2443 -0.7331 -0.6347
vn 0.0342 0.3994 -0.9161
vn -0.6648 -0.7390 0.1094
vn -0.9082 0.3910 -0.1495
vn 0.9150 0.3276 -0.2356
vn 0.6765 -0.7363 0.0118
vn 0.0299 0.3514 -0.9357
vn -0.1825 -0.7196 -0.6700
vn 0.2443 0.7331 0.6347
vn 0.0342 -0.3994 0.9161
vn -0.6648 0.7390 -0.1094
vn -0.9082 -0.3910 0.1495
vn 0.8826 -0.3732 -0.2858
vn 0.2135 -0.7962 0.5661
vn 0.0736 -0.3715 -0.9255
vn -0.5516 -0.8279 -0.1016
vn 0.4670 0.8799 0.0878
vn -0.1196 0.4072 0.9055
vn -0.3077 0.7863 -0.5358
vn -0.9107 0.3202 0.2610
vn -0.1698 0.2081 -0.9633
vn -0.9719 -0.2221 0.0784
vn 0.9569 0.2836 -0.0619
vn 0.2383 -0.1604 0.9579
vn 0.9000 -0.3753 0.2214
vn -0.0326 -0.8463 0.5318
vn 0.5593 -0.3541 -0.7495
vn -0.3375 -0.8207 -0.4610
vn 0.3331 0.8856 0.3237
vn -0.5608 0.5125 0.6502
vn 0.0325 0.7898 -0.6125
vn -0.8597 0.4012 -0.3162
vn 0.3632 0.2574 -0.8955
vn -0.8878 -0.2602 -0.3797
vn 0.8208 0.3162 0.4756
vn -0.3567 -0.1857 0.9156
vn 0.8908 0.3384 0.3032
vn 0.5621 -0.7309 0.3871
vn 0.5413 0.3602 -0.7597
vn 0.2199 -0.7176 -0.6609
vn -0.1502 0.7275 0.6695
vn -0.4797 -0.4028 0.7795
vn -0.5010 0.7315 -0.4626
vn -0.8400 -0.3958 -0.3711
vn 0.8035 0.3469 0.4838
vn 0.4633 -0.7267 0.5071
vn 0.6952 0.3661 -0.6186
vn 0.3576 -0.7173 -0.5980
vn -0.2938 0.7224 0.6260
vn -0.6432 -0.4024 0.6514
vn -0.3898 0.7240 -0.5691
vn -0.7427 -0.3971 -0.5391
vn 0.8145 -0.3708 0.4461
vn -0.1565 -0.7919 0.5903
vn 0.7204 -0.4061 -0.5621
vn -0.2375 -0.8717 -0.4287
vn 0.0701 0.8942 0.4422
vn -0.6804 0.5538 0.4800
vn -0.0535 0.8216 -0.5676
vn -0.7440 0.4569 -0.4875
vn 0.4418 0.4163 -0.7947
vn -0.7371 -0.3140 -0.5984
vn 0.6352 0.5308 0.5611
vn -0.5569 -0.1377 0.8191
vn 0.7228 -0.3750 0.5805
vn -0.3472 -0.7768 0.5254
vn 0.8052 -0.3781 -0.4568
vn -0.2399 -0.8146 -0.5281
vn 0.0999 0.9059 0.4116
vn -0.8162 0.4303 0.3856
vn 0.1846 0.7598 -0.6235
vn -0.7176 0.3166 -0.6203
vn 0.6764 0.3262 -0.6604
vn -0.6036 -0.3242 -0.7284
vn 0.5533 0.4191 0.7199
vn -0.6715 -0.1318 0.7292
vn 0.7186 0.3469 0.6027
vn 0.3790 -0.7267 0.5729
vn 0.7828 0.3661 -0.5032
vn 0.4461 -0.7173 -0.5352
vn -0.3874 0.7224 0.5728
vn -0.7366 -0.4024 0.5436
vn -0.2967 0.7240 -0.6227
vn -0.6500 -0.3971 -0.6479
vt 0.000000 0.000000
s 1
f 2/1/2 3/1/3 1/1/1
f 4/1/4 7/1/7 3/1/3
f 8/1/8 5/1/5 7/1/7
f 5/1/5 2/1/2 1/1/1
f 7/1/7 1/1/1 3/1/3
f 8/1/8 2/1/2 6/1/6
f 10/1/10 11/1/11 9/1/9
f 12/1/12 15/1/15 11/1/11
f 15/1/15 14/1/14 13/1/13
f 13/1/13 10/1/10 9/1/9
f 11/1/11 13/1/13 9/1/9
f 16/1/16 10/1/10 14/1/14
f 17/1/17 20/1/20 19/1/19
f 20/1/20 23/1/23 19/1/19
f 23/1/23 22/1/22 21/1/21
f 21/1/21 18/1/18 17/1/17
f 19/1/19 21/1/21 17/1/17
f 24/1/24 18/1/18 22/1/22
f 26/1/26 27/1/27 25/1/25
f 28/1/28 31/1/31 27/1/27
f 31/1/31 30/1/30 29/1/29
f 29/1/29 26/1/26 25/1/25
f 27/1/27 29/1/29 25/1/25
f 32/1/32 26/1/26 30/1/30
f 35/1/35 34/1/34 33/1/33
f 35/1/35 40/1/40 36/1/36
f 37/1/37 40/1/40 39/1/39
f 37/1/37 34/1/34 38/1/38
f 35/1/35 37/1/37 39/1/39
f 40/1/40 34/1/34 36/1/36
f 41/1/41 44/1/44 43/1/43
f 44/1/44 47/1/47 43/1/43
f 48/1/48 45/1/45 47/1/47
f 45/1/45 42/1/42 41/1/41
f 43/1/43 45/1/45 41/1/41
f 44/1/44 46/1/46 48/1/48
f 49/1/49 52/1/52 51/1/51
f 58/1/58 55/1/55 57/1/57
f 56/1/56 53/1/53 55/1/55
f 60/1/60 49/1/49 59/1/59
f 57/1/57 53/1/53 59/1/59
f 58/1/58 50/1/50 60/1/60
f 58/1/58 54/1/54 56/1/56
f 57/1/57 49/1/49 51/1/51
f 53/1/53 60/1/60 59/1/59
f 52/1/52 57/1/57 51/1/51
f 61/1/61 64/1/64 63/1/63
f 70/1/70 67/1/67 69/1/69
f 68/1/68 65/1/65 67/1/67
f 72/1/72 61/1/61 71/1/71
f 69/1/69 65/1/65 71/1/71
f 70/1/70 62/1/62 72/1/72
f 70/1/70 66/1/66 68/1/68
f 69/1/69 61/1/61 63/1/63
f 65/1/65 72/1/72 71/1/71
f 64/1/64 69/1/69 63/1/63
f 73/1/73 76/1/76 75/1/75
f 76/1/76 79/1/79 75/1/75
f 80/1/80 77/1/77 79/1/79
f 77/1/77 74/1/74 73/1/73
f 75/1/75 77/1/77 73/1/73
f 76/1/76 78/1/78 80/1/80
f 81/1/81 84/1/84 83/1/83
f 83/1/83 88/1/88 87/1/87
f 88/1/88 85/1/85 87/1/87
f 86/1/86 81/1/81 85/1/85
f 83/1/83 85/1/85 81/1/81
f 84/1/84 86/1/86 88/1/88
f 89/1/89 92/1/92 91/1/91
f 97/1/97 96/1/96 95/1/95
f 96/1/96 93/1/93 95/1/95
f 100/1/100 89/1/89 99/1/99
f 97/1/97 93/1/93 99/1/99
f 98/1/98 90/1/90 100/1/100
f 98/1/98 94/1/94 96/1/96
f 97/1/97 89/1/89 91/1/91
f 94/1/94 99/1/99 93/1/93
f 91/1/91 98/1/98 97/1/97
f 101/1/101 104/1/104 103/1/103
f 109/1/109 108/1/108 107/1/107
f 108/1/108 105/1/105 107/1/107
f 112/1/112 101/1/101 111/1/111
f 109/1/109 105/1/105 111/1/111
f 110/1/110 102/1/102 112/1/112
f 110/1/110 106/1/106 108/1/108
f 109/1/109 101/1/101 103/1/103
f 106/1/106 111/1/111 105/1/105
f 103/1/103 110/1/110 109/1/109
f 113/1/113 116/1/116 115/1/115
f 115/1/115 120/1/120 119/1/119
f 120/1/120 117/1/117 119/1/119
f 118/1/118 113/1/113 117/1/117
f 115/1/115 117/1/117 113/1/113
f 116/1/116 118/1/118 120/1/120
f 121/1/121 124/1/124 123/1/123
f 123/1/123 128/1/128 127/1/127
f 128/1/128 125/1/125 127/1/127
f 126/1/126 121/1/121 125/1/125
f 123/1/123 125/1/125 121/1/121
f 124/1/124 126/1/126 128/1/128
f 129/1/129 132/1/132 131/1/131
f 137/1/137 136/1/136 135/1/135
f 136/1/136 133/1/133 135/1/135
f 140/1/140 129/1/129 139/1/139
f 137/1/137 133/1/133 139/1/139
f 138/1/138 130/1/130 140/1/140
f 138/1/138 134/1/134 136/1/136
f 137/1/137 129/1/129 131/1/131
f 134/1/134 139/1/139 133/1/133
f 131/1/131 138/1/138 137/1/137
f 141/1/141 144/1/144 143/1/143
f 149/1/149 148/1/148 147/1/147
f 148/1/148 145/1/145 147/1/147
f 152/1/152 141/1/141 151/1/151
f 149/1/149 145/1/145 151/1/151
f 150/1/150 142/1/142 152/1/152
f 150/1/150 146/1/146 148/1/148
f 149/1/149 141/1/141 143/1/143
f 146/1/146 151/1/151 145/1/145
f 143/1/143 150/1/150 149/1/149
f 153/1/153 156/1/156 155/1/155
f 155/1/155 160/1/160 159/1/159
f 160/1/160 157/1/157 159/1/159
f 158/1/158 153/1/153 157/1/157
f 155/1/155 157/1/157 153/1/153
f 156/1/156 158/1/158 160/1/160
f 161/1/161 164/1/164 163/1/163
f 164/1/164 167/1/167 163/1/163
f 168/1/168 165/1/165 167/1/167
f 165/1/165 162/1/162 161/1/161
f 163/1/163 165/1/165 161/1/161
f 164/1/164 166/1/166 168/1/168
f 169/1/169 172/1/172 171/1/171
f 178/1/178 175/1/175 177/1/177
f 176/1/176 173/1/173 175/1/175
f 179/1/179 170/1/170 169/1/169
f 175/1/175 179/1/179 177/1/177
f 178/1/178 170/1/170 180/1/180
f 178/1/178 174/1/174 176/1/176
f 171/1/171 179/1/179 169/1/169
f 173/1/173 180/1/180 179/1/179
f 172/1/172 177/1/177 171/1/171
f 181/1/181 184/1/184 183/1/183
f 190/1/190 187/1/187 189/1/189
f 188/1/188 185/1/185 187/1/187
f 192/1/192 181/1/181 191/1/191
f 189/1/189 185/1/185 191/1/191
f 190/1/190 182/1/182 192/1/192
f 190/1/190 186/1/186 188/1/188
f 189/1/189 181/1/181 183/1/183
f 185/1/185 192/1/192 191/1/191
f 184/1/184 189/1/189 183/1/183
f 193/1/193 196/1/196 195/1/195
f 196/1/196 199/1/199 195/1/195
f 200/1/200 197/1/197 199/1/199
f 197/1/197 194/1/194 193/1/193
f 195/1/195 197/1/197 193/1/193
f 196/1/196 198/1/198 200/1/200
f 2/1/2 4/1/4 3/1/3
f 4/1/4 8/1/8 7/1/7
f 8/1/8 6/1/6 5/1/5
f 5/1/5 6/1/6 2/1/2
f 7/1/7 5/1/5 1/1/1
f 8/1/8 4/1/4 2/1/2
f 10/1/10 12/1/12 11/1/11
f 12/1/12 16/1/16 15/1/15
f 15/1/15 16/1/16 14/1/14
f 13/1/13 14/1/14 10/1/10
f 11/1/11 15/1/15 13/1/13
f 16/1/16 12/1/12 10/1/10
f 17/1/17 18/1/18 20/1/20
f 20/1/20 24/1/24 23/1/23
f 23/1/23 24/1/24 22/1/22
f 21/1/21 22/1/22 18/1/18
f 19/1/19 23/1/23 21/1/21
f 24/1/24 20/1/20 18/1/18
f 26/1/26 28/1/28 27/1/27
f 28/1/28 32/1/32 31/1/31
f 31/1/31 32/1/32 30/1/30
f 29/1/29 30/1/30 26/1/26
f 27/1/27 31/1/31 29/1/29
f 32/1/32 28/1/28 26/1/26
f 35/1/35 36/1/36 34/1/34
f 35/1/35 39/1/39 40/1/40
f 37/1/37 38/1/38 40/1/40
f 37/1/37 33/1/33 34/1/34
f 35/1/35 33/1/33 37/1/37
f 40/1/40 38/1/38 34/1/34
f 41/1/41 42/1/42 44/1/44
f 44/1/44 48/1/48 47/1/47
f 48/1/48 46/1/46 45/1/45
f 45/1/45 46/1/46 42/1/42
f 43/1/43 47/1/47 45/1/45
f 44/1/44 42/1/42 46/1/46
f 49/1/49 50/1/50 52/1/52
f 58/1/58 56/1/56 55/1/55
f 56/1/56 54/1/54 53/1/53
f 60/1/60 50/1/50 49/1/49
f 57/1/57 55/1/55 53/1/53
f 58/1/58 52/1/52 50/1/50
f 58/1/58 60/1/60 54/1/54
f 57/1/57 59/1/59 49/1/49
f 53/1/53 54/1/54 60/1/60
f 52/1/52 58/1/58 57/1/57
f 61/1/61 62/1/62 64/1/64
f 70/1/70 68/1/68 67/1/67
f 68/1/68 66/1/66 65/1/65
f 72/1/72 62/1/62 61/1/61
f 69/1/69 67/1/67 65/1/65
f 70/1/70 64/1/64 62/1/62
f 70/1/70 72/1/72 66/1/66
f 69/1/69 71/1/71 61/1/61
f 65/1/65 66/1/66 72/1/72
f 64/1/64 70/1/70 69/1/69
f 73/1/73 74/1/74 76/1/76
f 76/1/76 80/1/80 79/1/79
f 80/1/80 78/1/78 77/1/77
f 77/1/77 78/1/78 74/1/74
f 75/1/75 79/1/79 77/1/77
f 76/1/76 74/1/74 78/1/78
f 81/1/81 82/1/82 84/1/84
f 83/1/83 84/1/84 88/1/88
f 88/1/88 86/1/86 85/1/85
f 86/1/86 82/1/82 81/1/81
f 83/1/83 87/1/87 85/1/85
f 84/1/84 82/1/82 86/1/86
f 89/1/89 90/1/90 92/1/92
f 97/1/97 98/1/98 96/1/96
f 96/1/96 94/1/94 93/1/93
f 100/1/100 90/1/90 89/1/89
f 97/1/97 95/1/95 93/1/93
f 98/1/98 92/1/92 90/1/90
f 98/1/98 100/1/100 94/1/94
f 97/1/97 99/1/99 89/1/89
f 94/1/94 100/1/100 99/1/99
f 91/1/91 92/1/92 98/1/98
f 101/1/101 102/1/102 104/1/104
f 109/1/109 110/1/110 108/1/108
f 108/1/108 106/1/106 105/1/105
f 112/1/112 102/1/102 101/1/101
f 109/1/109 107/1/107 105/1/105
f 110/1/110 104/1/104 102/1/102
f 110/1/110 112/1/112 106/1/106
f 109/1/109 111/1/111 101/1/101
f 106/1/106 112/1/112 111/1/111
f 103/1/103 104/1/104 110/1/110
f 113/1/113 114/1/114 116/1/116
f 115/1/115 116/1/116 120/1/120
f 120/1/120 118/1/118 117/1/117
f 118/1/118 114/1/114 113/1/113
f 115/1/115 119/1/119 117/1/117
f 116/1/116 114/1/114 118/1/118
f 121/1/121 122/1/122 124/1/124
f 123/1/123 124/1/124 128/1/128
f 128/1/128 126/1/126 125/1/125
f 126/1/126 122/1/122 121/1/121
f 123/1/123 127/1/127 125/1/125
f 124/1/124 122/1/122 126/1/126
f 129/1/129 130/1/130 132/1/132
f 137/1/137 138/1/138 136/1/136
f 136/1/136 134/1/134 133/1/133
f 140/1/140 130/1/130 129/1/129
f 137/1/137 135/1/135 133/1/133
f 138/1/138 132/1/132 130/1/130
f 138/1/138 140/1/140 134/1/134
f 137/1/137 139/1/139 129/1/129
f 134/1/134 140/1/140 139/1/139
f 131/1/131 132/1/132 138/1/138
f 141/1/141 142/1/142 144/1/144
f 149/1/149 150/1/150 148/1/148
f 148/1/148 146/1/146 145/1/145
f 152/1/152 142/1/142 141/1/141
f 149/1/149 147/1/147 145/1/145
f 150/1/150 144/1/144 142/1/142
f 150/1/150 152/1/152 146/1/146
f 149/1/149 151/1/151 141/1/141
f 146/1/146 152/1/152 151/1/151
f 143/1/143 144/1/144 150/1/150
f 153/1/153 154/1/154 156/1/156
f 155/1/155 156/1/156 160/1/160
f 160/1/160 158/1/158 157/1/157
f 158/1/158 154/1/154 153/1/153
f 155/1/155 159/1/159 157/1/157
f 156/1/156 154/1/154 158/1/158
f 161/1/161 162/1/162 164/1/164
f 164/1/164 168/1/168 167/1/167
f 168/1/168 166/1/166 165/1/165
f 165/1/165 166/1/166 162/1/162
f 163/1/163 167/1/167 165/1/165
f 164/1/164 162/1/162 166/1/166
f 169/1/169 170/1/170 172/1/172
f 178/1/178 176/1/176 175/1/175
f 176/1/176 174/1/174 173/1/173
f 179/1/179 180/1/180 170/1/170
f 175/1/175 173/1/173 179/1/179
f 178/1/178 172/1/172 170/1/170
f 178/1/178 180/1/180 174/1/174
f 171/1/171 177/1/177 179/1/179
f 173/1/173 174/1/174 180/1/180
f 172/1/172 178/1/178 177/1/177
f 181/1/181 182/1/182 184/1/184
f 190/1/190 188/1/188 187/1/187
f 188/1/188 186/1/186 185/1/185
f 192/1/192 182/1/182 181/1/181
f 189/1/189 187/1/187 185/1/185
f 190/1/190 184/1/184 182/1/182
f 190/1/190 192/1/192 186/1/186
f 189/1/189 191/1/191 181/1/181
f 185/1/185 186/1/186 192/1/192
f 184/1/184 190/1/190 189/1/189
f 193/1/193 194/1/194 196/1/196
f 196/1/196 200/1/200 199/1/199
f 200/1/200 198/1/198 197/1/197
f 197/1/197 198/1/198 194/1/194
f 195/1/195 199/1/199 197/1/197
f 196/1/196 194/1/194 198/1/198
