# Blender 5.2.2 LTS
# www.blender.org
o Crate.001
v 0.001964 0.015173 0.658592
v 0.001964 0.015173 0.550985
v -0.020828 0.006102 -0.003624
v -0.043620 0.006102 -0.003624
v -0.020828 0.004657 -0.003624
v 0.001964 -0.005410 0.658592
v 0.001964 0.011366 -0.003624
v -0.043620 0.013676 -0.003624
v -0.020828 -0.005410 -0.003624
v -0.043620 -0.005410 -0.003624
v 0.001964 0.004657 -0.003624
v 0.024756 0.006102 -0.003624
v 0.047548 0.006102 -0.003624
v 0.024756 0.004657 -0.003624
v 0.047548 0.013676 -0.003624
v 0.024756 -0.005410 -0.003624
v 0.047548 -0.005410 -0.003624
v 0.001964 0.015173 -0.665839
v 0.001964 0.015173 -0.558232
v 0.001964 -0.005410 -0.665839
v -0.117339 0.029150 0.658049
v 0.001964 0.029150 0.658049
v 0.121266 0.029150 0.658049
v -0.117339 0.029150 -0.003624
v 0.001964 0.029150 -0.003624
v 0.121266 0.029150 -0.003624
v -0.117339 0.029150 -0.665296
v 0.001964 0.029150 -0.665296
v 0.121266 0.029150 -0.665296
v -1.412516 -0.053158 1.152901
v -1.125326 0.588849 1.152901
v -0.955266 -0.052824 1.152901
v -0.809126 0.298233 1.152901
v -1.412516 -0.053158 1.150866
v -1.125326 0.588849 1.150866
v -0.955266 -0.052824 1.150866
v -0.809126 0.298233 1.150866
v 1.411898 -0.053158 1.152901
v 1.124707 0.588849 1.152901
v 0.954646 -0.052824 1.152901
v 0.808507 0.298233 1.152901
v 1.411898 -0.053158 1.150866
v 1.124707 0.588849 1.150866
v 0.954646 -0.052824 1.150866
v 0.808507 0.298233 1.150866
v -1.412516 -0.053158 -1.159391
v -1.125326 0.588849 -1.159391
v -0.955266 -0.052824 -1.159391
v -0.809126 0.298233 -1.159391
v -1.412516 -0.053158 -1.157356
v -1.125326 0.588849 -1.157356
v -0.955266 -0.052824 -1.157356
v -0.809126 0.298233 -1.157356
v 1.411898 -0.053158 -1.159391
v 1.124707 0.588849 -1.159391
v 0.954646 -0.052824 -1.159391
v 0.808507 0.298233 -1.159391
v 1.411898 -0.053158 -1.157356
v 1.124707 0.588849 -1.157356
v 0.954646 -0.052824 -1.157356
v 0.808507 0.298233 -1.157356
vn -0.0000 1.0000 -0.0000
vn -0.0000 -0.0000 1.0000
vn -0.0000 -0.0000 -1.0000
vn 0.6767 0.7363 -0.0000
vn 0.0007 -1.0000 -0.0000
vn 0.9232 -0.3843 -0.0000
vn 0.9232 -0.3844 -0.0000
vn -0.9128 0.4083 -0.0000
vn -0.6767 0.7363 -0.0000
vn -0.6767 0.7362 -0.0000
vn -0.0007 -1.0000 -0.0000
vn -0.9232 -0.3844 -0.0000
vn -0.9232 -0.3843 -0.0000
vn 0.9128 0.4083 -0.0000
vt 0.001445 0.129329
vt 0.356080 0.065387
vt 0.356080 0.129329
vt 0.001445 0.001445
vt 0.356080 0.001445
vt 0.710715 0.129329
vt 0.710715 0.001445
vt 0.774919 0.693647
vt 0.998548 0.416923
vt 0.998558 0.793877
vt 0.775343 0.479544
vt 0.551708 0.202826
vt 0.775343 0.102591
vt 0.900845 0.121406
vt 0.902938 0.001497
vt 0.902938 0.121433
vt 0.882843 0.001498
vt 0.880684 0.125225
vt 0.880684 0.001470
vt 0.915811 0.114311
vt 0.917780 0.001481
vt 0.917780 0.114335
vt 0.870057 0.154956
vt 0.872735 0.001509
vt 0.872735 0.154995
vt 0.550303 0.745858
vt 0.326667 0.469139
vt 0.550303 0.368904
vt 0.688434 0.744459
vt 0.965152 0.968095
vt 0.588198 0.968095
vt 0.912910 0.121390
vt 0.910817 0.001482
vt 0.912910 0.001465
vt 0.890794 0.001480
vt 0.892954 0.125205
vt 0.890794 0.125222
vt 0.932373 0.114297
vt 0.930403 0.001466
vt 0.932373 0.001450
vt 0.713638 0.015708
vt 0.867084 0.013029
vt 0.867107 0.015708
vt 0.227987 0.133238
vt 0.451623 0.409957
vt 0.227987 0.510192
vt 0.776833 0.509663
vt 0.553197 0.786381
vt 0.553197 0.409428
vt 0.905826 0.001481
vt 0.907919 0.121398
vt 0.905826 0.121415
vt 0.887898 0.125211
vt 0.885738 0.001477
vt 0.887898 0.001460
vt 0.927511 0.114319
vt 0.925541 0.001481
vt 0.927511 0.001465
vt 0.867108 0.007241
vt 0.713650 0.009920
vt 0.713628 0.007241
vt 0.225086 0.233704
vt 0.001450 0.510422
vt 0.001450 0.133469
vt 0.002006 0.786697
vt 0.278724 0.563061
vt 0.378959 0.786697
vt 0.895849 0.121415
vt 0.897942 0.001499
vt 0.897942 0.121441
vt 0.875628 0.125232
vt 0.877788 0.001497
vt 0.877788 0.125260
vt 0.920674 0.114335
vt 0.922644 0.001497
vt 0.922644 0.114358
vt 0.867103 0.004125
vt 0.713646 0.001447
vt 0.867142 0.001447
vt 0.001445 0.065387
vt 0.710715 0.065387
vt 0.780246 0.489910
vt 0.557040 0.406563
vt 0.900845 0.001470
vt 0.882843 0.125253
vt 0.915811 0.001457
vt 0.870057 0.001470
vt 0.332000 0.672877
vt 0.892171 0.749792
vt 0.910817 0.121407
vt 0.892954 0.001462
vt 0.930403 0.114312
vt 0.713615 0.013029
vt 0.446291 0.206219
vt 0.771501 0.713400
vt 0.907919 0.001464
vt 0.885738 0.125228
vt 0.925541 0.114335
vt 0.867131 0.009920
vt 0.219754 0.437441
vt 0.074987 0.568394
vt 0.895849 0.001472
vt 0.875628 0.001469
vt 0.920674 0.001473
vt 0.713607 0.004125
s 1
f 21/1/1 25/2/1 24/3/1
f 25/2/1 23/4/1 26/5/1
f 25/2/1 27/6/1 24/3/1
f 29/7/1 25/2/1 26/5/1
f 32/8/2 31/9/2 30/10/2
f 35/11/3 36/12/3 34/13/3
f 37/14/4 31/15/4 33/16/4
f 34/17/5 32/18/5 30/19/5
f 36/20/6 33/21/7 32/22/6
f 35/23/8 30/24/8 31/25/8
f 39/26/2 40/27/2 38/28/2
f 44/29/3 43/30/3 42/31/3
f 39/32/9 45/33/10 41/34/10
f 40/35/11 42/36/11 38/37/11
f 41/38/12 44/39/13 40/40/13
f 38/41/14 43/42/14 39/43/14
f 47/44/3 48/45/3 46/46/3
f 52/47/2 51/48/2 50/49/2
f 47/50/4 53/51/4 49/52/4
f 48/53/5 50/54/5 46/55/5
f 49/56/6 52/57/6 48/58/6
f 46/59/8 51/60/8 47/61/8
f 56/62/3 55/63/3 54/64/3
f 59/65/2 60/66/2 58/67/2
f 61/68/9 55/69/9 57/70/9
f 58/71/11 56/72/11 54/73/11
f 60/74/13 57/75/13 56/76/13
f 59/77/14 54/78/14 55/79/14
f 21/1/1 22/80/1 25/2/1
f 25/2/1 22/80/1 23/4/1
f 25/2/1 28/81/1 27/6/1
f 29/7/1 28/81/1 25/2/1
f 32/8/2 33/82/2 31/9/2
f 35/11/3 37/83/3 36/12/3
f 37/14/4 35/84/4 31/15/4
f 34/17/5 36/85/5 32/18/5
f 36/20/6 37/86/7 33/21/7
f 35/23/8 34/87/8 30/24/8
f 39/26/2 41/88/2 40/27/2
f 44/29/3 45/89/3 43/30/3
f 39/32/9 43/90/9 45/33/10
f 40/35/11 44/91/11 42/36/11
f 41/38/12 45/92/12 44/39/13
f 38/41/14 42/93/14 43/42/14
f 47/44/3 49/94/3 48/45/3
f 52/47/2 53/95/2 51/48/2
f 47/50/4 51/96/4 53/51/4
f 48/53/5 52/97/5 50/54/5
f 49/56/6 53/98/6 52/57/6
f 46/59/8 50/99/8 51/60/8
f 56/62/3 57/100/3 55/63/3
f 59/65/2 61/101/2 60/66/2
f 61/68/9 59/102/9 55/69/9
f 58/71/11 60/103/11 56/72/11
f 60/74/13 61/104/13 57/75/13
f 59/77/14 58/105/14 54/78/14
