# Blender 5.2.2 LTS
# www.blender.org
o *BevelledCube
v -0.893478 -1.000000 0.893478
v -0.893478 -0.893478 1.000000
v -1.000000 -0.893478 0.893478
v -0.893478 -0.985769 0.946669
v -0.946669 -0.985769 0.893478
v -0.944418 -0.971946 0.944418
v -0.946669 -0.893478 0.985769
v -0.893478 -0.946669 0.985769
v -0.944418 -0.944418 0.971946
v -0.985769 -0.946669 0.893478
v -0.985769 -0.893478 0.946669
v -0.971946 -0.944418 0.944418
v -0.893478 0.893478 1.000000
v -0.893478 1.000000 0.893478
v -1.000000 0.893478 0.893478
v -0.893478 0.946669 0.985769
v -0.946669 0.893478 0.985769
v -0.944418 0.944418 0.971946
v -0.946669 0.985769 0.893478
v -0.893478 0.985769 0.946669
v -0.944418 0.971946 0.944418
v -0.985769 0.893478 0.946669
v -0.985769 0.946669 0.893478
v -0.971946 0.944418 0.944418
v -0.893478 -1.000000 -0.893478
v -1.000000 -0.893478 -0.893478
v -0.893478 -0.893478 -1.000000
v -0.946669 -0.985769 -0.893478
v -0.893478 -0.985769 -0.946669
v -0.944418 -0.971946 -0.944418
v -0.985769 -0.893478 -0.946669
v -0.985769 -0.946669 -0.893478
v -0.971946 -0.944418 -0.944418
v -0.893478 -0.946669 -0.985769
v -0.946669 -0.893478 -0.985769
v -0.944418 -0.944418 -0.971946
v -0.893478 1.000000 -0.893478
v -0.893478 0.893478 -1.000000
v -1.000000 0.893478 -0.893478
v -0.893478 0.985769 -0.946669
v -0.946669 0.985769 -0.893478
v -0.944418 0.971946 -0.944418
v -0.946669 0.893478 -0.985769
v -0.893478 0.946669 -0.985769
v -0.944418 0.944418 -0.971946
v -0.985769 0.946669 -0.893478
v -0.985769 0.893478 -0.946669
v -0.971946 0.944418 -0.944418
v 0.893478 -1.000000 0.893478
v 1.000000 -0.893478 0.893478
v 0.893478 -0.893478 1.000000
v 0.946669 -0.985769 0.893478
v 0.893478 -0.985769 0.946669
v 0.944418 -0.971946 0.944418
v 0.985769 -0.893478 0.946669
v 0.985769 -0.946669 0.893478
v 0.971946 -0.944418 0.944418
v 0.893478 -0.946669 0.985769
v 0.946669 -0.893478 0.985769
v 0.944418 -0.944418 0.971946
v 0.893478 1.000000 0.893478
v 0.893478 0.893478 1.000000
v 1.000000 0.893478 0.893478
v 0.893478 0.985769 0.946669
v 0.946669 0.985769 0.893478
v 0.944418 0.971946 0.944418
v 0.946669 0.893478 0.985769
v 0.893478 0.946669 0.985769
v 0.944418 0.944418 0.971946
v 0.985769 0.946669 0.893478
v 0.985769 0.893478 0.946669
v 0.971946 0.944418 0.944418
v 0.893478 -1.000000 -0.893478
v 0.893478 -0.893478 -1.000000
v 1.000000 -0.893478 -0.893478
v 0.893478 -0.985769 -0.946669
v 0.946669 -0.985769 -0.893478
v 0.944418 -0.971946 -0.944418
v 0.946669 -0.893478 -0.985769
v 0.893478 -0.946669 -0.985769
v 0.944418 -0.944418 -0.971946
v 0.985769 -0.946669 -0.893478
v 0.985769 -0.893478 -0.946669
v 0.971946 -0.944418 -0.944418
v 0.893478 1.000000 -0.893478
v 1.000000 0.893478 -0.893478
v 0.893478 0.893478 -1.000000
v 0.946669 0.985769 -0.893478
v 0.893478 0.985769 -0.946669
v 0.944418 0.971946 -0.944418
v 0.985769 0.893478 -0.946669
v 0.985769 0.946669 -0.893478
v 0.971946 0.944418 -0.944418
v 0.893478 0.946669 -0.985769
v 0.946669 0.893478 -0.985769
v 0.944418 0.944418 -0.971946
vn -0.2502 -0.9353 0.2502
vn -0.2178 -0.6901 0.6901
vn -0.2502 -0.2502 0.9353
vn -0.6901 -0.2178 0.6901
vn -0.9353 -0.2502 0.2502
vn -0.6901 -0.6901 0.2178
vn -0.5773 -0.5773 0.5774
vn -0.2502 0.2502 0.9353
vn -0.2178 0.6901 0.6901
vn -0.2502 0.9353 0.2502
vn -0.6901 0.6901 0.2178
vn -0.9353 0.2502 0.2502
vn -0.6901 0.2178 0.6901
vn -0.5773 0.5773 0.5774
vn -0.2502 -0.9353 -0.2502
vn -0.6901 -0.6901 -0.2178
vn -0.9353 -0.2502 -0.2502
vn -0.6901 -0.2178 -0.6901
vn -0.2502 -0.2502 -0.9353
vn -0.2178 -0.6901 -0.6901
vn -0.5773 -0.5773 -0.5774
vn -0.2502 0.9353 -0.2502
vn -0.2178 0.6901 -0.6901
vn -0.2502 0.2502 -0.9353
vn -0.6901 0.2178 -0.6901
vn -0.9353 0.2502 -0.2502
vn -0.6901 0.6901 -0.2178
vn -0.5773 0.5773 -0.5774
vn 0.2502 -0.9353 0.2502
vn 0.6901 -0.6901 0.2178
vn 0.9353 -0.2502 0.2502
vn 0.6901 -0.2178 0.6901
vn 0.2502 -0.2502 0.9353
vn 0.2178 -0.6901 0.6901
vn 0.5773 -0.5773 0.5774
vn 0.2502 0.9353 0.2502
vn 0.2178 0.6901 0.6901
vn 0.2502 0.2502 0.9353
vn 0.6901 0.2178 0.6901
vn 0.9353 0.2502 0.2502
vn 0.6901 0.6901 0.2178
vn 0.5773 0.5773 0.5774
vn 0.2502 -0.9353 -0.2502
vn 0.2178 -0.6901 -0.6901
vn 0.2502 -0.2502 -0.9353
vn 0.6901 -0.2178 -0.6901
vn 0.9353 -0.2502 -0.2502
vn 0.6901 -0.6901 -0.2178
vn 0.5773 -0.5773 -0.5774
vn 0.2502 0.9353 -0.2502
vn 0.6901 0.6901 -0.2178
vn 0.9353 0.2502 -0.2502
vn 0.6901 0.2178 -0.6901
vn 0.2502 0.2502 -0.9353
vn 0.2178 0.6901 -0.6901
vn 0.5773 0.5773 -0.5774
vn -0.2585 -0.9660 -0.0000
vn -0.7071 -0.7071 -0.0000
vn -0.9660 -0.2585 -0.0000
vn -0.2585 -0.0000 0.9660
vn -0.7071 -0.0000 0.7071
vn -0.9660 -0.0000 0.2585
vn -0.2585 0.9660 -0.0000
vn -0.7071 0.7071 -0.0000
vn -0.9660 0.2585 -0.0000
vn -0.2585 -0.0000 -0.9660
vn -0.7071 -0.0000 -0.7071
vn -0.9660 -0.0000 -0.2585
vn -0.0000 -0.9660 -0.2585
vn -0.0000 -0.7071 -0.7071
vn -0.0000 -0.2585 -0.9660
vn -0.0000 0.9660 -0.2585
vn -0.0000 0.7071 -0.7071
vn -0.0000 0.2585 -0.9660
vn 0.9660 -0.0000 -0.2585
vn 0.7071 -0.0000 -0.7071
vn 0.2585 -0.0000 -0.9660
vn 0.2585 -0.9660 -0.0000
vn 0.7071 -0.7071 -0.0000
vn 0.9660 -0.2585 -0.0000
vn 0.2585 0.9660 -0.0000
vn 0.7071 0.7071 -0.0000
vn 0.9660 0.2585 -0.0000
vn 0.2585 -0.0000 0.9660
vn 0.7071 -0.0000 0.7071
vn 0.9660 -0.0000 0.2585
vn -0.0000 -0.9660 0.2585
vn -0.0000 -0.7071 0.7071
vn -0.0000 -0.2585 0.9660
vn -0.0000 0.9660 0.2585
vn -0.0000 0.7071 0.7071
vn -0.0000 0.2585 0.9660
vn -0.0000 -1.0000 -0.0000
vn -1.0000 -0.0000 -0.0000
vn -0.0000 -0.0000 1.0000
vn -0.0000 1.0000 -0.0000
vn -0.0000 -0.0000 -1.0000
vn 1.0000 -0.0000 -0.0000
vn -0.2635 -0.9280 0.2635
vn -0.2635 -0.2635 0.9280
vn -0.9280 -0.2635 0.2635
vn -0.2635 0.2635 0.9280
vn -0.2635 0.9280 0.2635
vn -0.9280 0.2635 0.2635
vn -0.2635 -0.9280 -0.2635
vn -0.9280 -0.2635 -0.2635
vn -0.2635 -0.2635 -0.9280
vn -0.2635 0.9280 -0.2635
vn -0.2635 0.2635 -0.9280
vn -0.9280 0.2635 -0.2635
vn 0.2635 -0.9280 0.2635
vn 0.9280 -0.2635 0.2635
vn 0.2635 -0.2635 0.9280
vn 0.2635 0.9280 0.2635
vn 0.2635 0.2635 0.9280
vn 0.9280 0.2635 0.2635
vn 0.2635 -0.9280 -0.2635
vn 0.2635 -0.2635 -0.9280
vn 0.9280 -0.2635 -0.2635
vn 0.2635 0.9280 -0.2635
vn 0.9280 0.2635 -0.2635
vn 0.2635 0.2635 -0.9280
vt 0.053261 0.026665
vt 0.026665 0.053261
vt 0.053261 0.053261
vt 0.053261 0.007115
vt 0.027791 0.027791
vt 0.007115 0.053261
vt 0.014027 0.027791
vt 0.027791 0.014027
vt 0.053261 0.973335
vt 0.026665 0.946739
vt 0.053261 0.946739
vt 0.007115 0.946739
vt 0.027791 0.972209
vt 0.014027 0.972209
vt 0.973335 0.053261
vt 0.946739 0.026665
vt 0.946739 0.053261
vt 0.053261 0.992885
vt 0.027791 0.985973
vt 0.946739 0.973335
vt 0.973335 0.946739
vt 0.946739 0.946739
vt 0.992885 0.053261
vt 0.972209 0.027791
vt 0.985973 0.027791
vt 0.972209 0.014027
vt 0.946739 0.007115
vt 0.992885 0.946739
vt 0.972209 0.972209
vt 0.946739 0.992885
vt 0.985973 0.972209
vt 0.972209 0.985973
s 0
f 4/1/1 5/2/1 1/3/1
f 8/4/2 6/5/2 4/1/2
f 7/2/3 8/1/3 2/3/3
f 11/6/4 9/5/4 7/2/4
f 10/1/5 11/2/5 3/3/5
f 10/6/6 6/5/6 12/7/6
f 6/5/7 9/8/7 12/7/7
f 16/9/8 17/10/8 13/11/8
f 16/4/9 21/5/9 18/8/9
f 19/2/10 20/1/10 14/3/10
f 23/6/11 21/5/11 19/2/11
f 22/10/12 23/9/12 15/11/12
f 22/12/13 18/13/13 24/14/13
f 18/8/14 21/5/14 24/7/14
f 28/10/15 29/9/15 25/11/15
f 32/12/16 30/13/16 28/10/16
f 31/15/17 32/16/17 26/17/17
f 31/6/18 36/5/18 33/7/18
f 34/1/19 35/2/19 27/3/19
f 34/18/20 30/13/20 36/19/20
f 30/13/21 33/14/21 36/19/21
f 40/9/22 41/10/22 37/11/22
f 44/18/23 42/13/23 40/9/23
f 43/10/24 44/9/24 38/11/24
f 47/12/25 45/13/25 43/10/25
f 46/20/26 47/21/26 39/22/26
f 46/12/27 42/13/27 48/14/27
f 42/13/28 45/19/28 48/14/28
f 52/15/29 53/16/29 49/17/29
f 56/23/30 54/24/30 52/15/30
f 55/2/31 56/1/31 50/3/31
f 59/15/32 57/25/32 55/23/32
f 58/16/33 59/15/33 51/17/33
f 53/16/34 60/26/34 58/27/34
f 54/24/35 57/25/35 60/26/35
f 64/16/36 65/15/36 61/17/36
f 68/27/37 66/24/37 64/16/37
f 67/21/38 68/20/38 62/22/38
f 71/28/39 69/29/39 67/21/39
f 70/9/40 71/10/40 63/11/40
f 65/15/41 72/25/41 70/23/41
f 66/24/42 69/26/42 72/25/42
f 76/20/43 77/21/43 73/22/43
f 80/30/44 78/29/44 76/20/44
f 79/15/45 80/16/45 74/17/45
f 83/23/46 81/24/46 79/15/46
f 82/16/47 83/15/47 75/17/47
f 77/21/48 84/31/48 82/28/48
f 78/29/49 81/32/49 84/31/49
f 88/21/50 89/20/50 85/22/50
f 92/28/51 90/29/51 88/21/51
f 91/21/52 92/20/52 86/22/52
f 95/21/53 93/31/53 91/28/53
f 94/20/54 95/21/54 87/22/54
f 89/20/55 96/32/55 94/30/55
f 90/29/56 93/31/56 96/32/56
f 1/3/57 28/10/57 25/11/57
f 5/2/58 32/12/58 28/10/58
f 10/1/59 26/17/59 32/16/59
f 13/11/60 7/2/60 2/3/60
f 17/10/61 11/6/61 7/2/61
f 22/10/62 3/3/62 11/2/62
f 37/11/63 19/2/63 14/3/63
f 41/10/64 23/6/64 19/2/64
f 46/20/65 15/11/65 23/9/65
f 27/3/66 43/10/66 38/11/66
f 35/2/67 47/12/67 43/10/67
f 31/15/68 39/22/68 47/21/68
f 25/11/69 76/20/69 73/22/69
f 29/9/70 80/30/70 76/20/70
f 34/1/71 74/17/71 80/16/71
f 85/22/72 40/9/72 37/11/72
f 89/20/73 44/18/73 40/9/73
f 94/20/74 38/11/74 44/9/74
f 75/17/75 91/21/75 86/22/75
f 83/23/76 95/21/76 91/28/76
f 79/15/77 87/22/77 95/21/77
f 73/22/78 52/15/78 49/17/78
f 77/21/79 56/23/79 52/15/79
f 82/16/80 50/3/80 56/1/80
f 61/17/81 88/21/81 85/22/81
f 65/15/82 92/28/82 88/21/82
f 70/9/83 86/22/83 92/20/83
f 51/17/84 67/21/84 62/22/84
f 59/15/85 71/28/85 67/21/85
f 55/2/86 63/11/86 71/10/86
f 49/17/87 4/1/87 1/3/87
f 53/16/88 8/4/88 4/1/88
f 58/16/89 2/3/89 8/1/89
f 14/3/90 64/16/90 61/17/90
f 20/1/91 68/27/91 64/16/91
f 16/9/92 62/22/92 68/20/92
f 73/22/93 1/3/93 25/11/93
f 15/11/94 26/17/94 3/3/94
f 62/22/95 2/3/95 51/17/95
f 37/11/96 61/17/96 85/22/96
f 38/11/97 74/17/97 27/3/97
f 86/22/98 50/3/98 75/17/98
f 4/1/99 6/5/99 5/2/99
f 8/4/2 9/8/2 6/5/2
f 7/2/100 9/5/100 8/1/100
f 11/6/4 12/7/4 9/5/4
f 10/1/101 12/5/101 11/2/101
f 10/6/6 5/2/6 6/5/6
f 16/9/102 18/13/102 17/10/102
f 16/4/9 20/1/9 21/5/9
f 19/2/103 21/5/103 20/1/103
f 23/6/11 24/7/11 21/5/11
f 22/10/104 24/13/104 23/9/104
f 22/12/13 17/10/13 18/13/13
f 28/10/105 30/13/105 29/9/105
f 32/12/16 33/14/16 30/13/16
f 31/15/106 33/24/106 32/16/106
f 31/6/18 35/2/18 36/5/18
f 34/1/107 36/5/107 35/2/107
f 34/18/20 29/9/20 30/13/20
f 40/9/108 42/13/108 41/10/108
f 44/18/23 45/19/23 42/13/23
f 43/10/109 45/13/109 44/9/109
f 47/12/25 48/14/25 45/13/25
f 46/20/110 48/29/110 47/21/110
f 46/12/27 41/10/27 42/13/27
f 52/15/111 54/24/111 53/16/111
f 56/23/30 57/25/30 54/24/30
f 55/2/112 57/5/112 56/1/112
f 59/15/32 60/24/32 57/25/32
f 58/16/113 60/24/113 59/15/113
f 53/16/34 54/24/34 60/26/34
f 64/16/114 66/24/114 65/15/114
f 68/27/37 69/26/37 66/24/37
f 67/21/115 69/29/115 68/20/115
f 71/28/39 72/31/39 69/29/39
f 70/9/116 72/13/116 71/10/116
f 65/15/41 66/24/41 72/25/41
f 76/20/117 78/29/117 77/21/117
f 80/30/44 81/32/44 78/29/44
f 79/15/118 81/24/118 80/16/118
f 83/23/46 84/25/46 81/24/46
f 82/16/119 84/24/119 83/15/119
f 77/21/48 78/29/48 84/31/48
f 88/21/120 90/29/120 89/20/120
f 92/28/51 93/31/51 90/29/51
f 91/21/121 93/29/121 92/20/121
f 95/21/53 96/29/53 93/31/53
f 94/20/122 96/29/122 95/21/122
f 89/20/55 90/29/55 96/32/55
f 1/3/57 5/2/57 28/10/57
f 5/2/58 10/6/58 32/12/58
f 10/1/59 3/3/59 26/17/59
f 13/11/60 17/10/60 7/2/60
f 17/10/61 22/12/61 11/6/61
f 22/10/62 15/11/62 3/3/62
f 37/11/63 41/10/63 19/2/63
f 41/10/64 46/12/64 23/6/64
f 46/20/65 39/22/65 15/11/65
f 27/3/66 35/2/66 43/10/66
f 35/2/67 31/6/67 47/12/67
f 31/15/68 26/17/68 39/22/68
f 25/11/69 29/9/69 76/20/69
f 29/9/70 34/18/70 80/30/70
f 34/1/71 27/3/71 74/17/71
f 85/22/72 89/20/72 40/9/72
f 89/20/73 94/30/73 44/18/73
f 94/20/74 87/22/74 38/11/74
f 75/17/75 83/15/75 91/21/75
f 83/23/76 79/15/76 95/21/76
f 79/15/77 74/17/77 87/22/77
f 73/22/78 77/21/78 52/15/78
f 77/21/79 82/28/79 56/23/79
f 82/16/80 75/17/80 50/3/80
f 61/17/81 65/15/81 88/21/81
f 65/15/82 70/23/82 92/28/82
f 70/9/83 63/11/83 86/22/83
f 51/17/84 59/15/84 67/21/84
f 59/15/85 55/23/85 71/28/85
f 55/2/86 50/3/86 63/11/86
f 49/17/87 53/16/87 4/1/87
f 53/16/88 58/27/88 8/4/88
f 58/16/89 51/17/89 2/3/89
f 14/3/90 20/1/90 64/16/90
f 20/1/91 16/4/91 68/27/91
f 16/9/92 13/11/92 62/22/92
f 73/22/93 49/17/93 1/3/93
f 15/11/94 39/22/94 26/17/94
f 62/22/95 13/11/95 2/3/95
f 37/11/96 14/3/96 61/17/96
f 38/11/97 87/22/97 74/17/97
f 86/22/98 63/11/98 50/3/98
