# Blender 5.2.2 LTS
# www.blender.org
o *Sphere
v -12.411602 1.200000 0.000000
v -12.411602 0.997764 -0.666684
v -12.411602 0.666684 -0.997764
v -12.411602 0.234108 -1.176942
v -12.411602 0.000000 -1.200000
v -12.411602 -0.234108 -1.176942
v -12.411602 -0.666684 -0.997764
v -12.411602 -1.200000 0.000000
v -12.365930 1.176942 -0.229610
v -12.322013 1.108655 -0.450396
v -12.281538 0.997764 -0.653874
v -12.246062 0.848528 -0.832224
v -12.216948 0.666684 -0.978592
v -12.195314 0.459220 -1.087353
v -12.181992 0.234108 -1.154328
v -12.177494 0.000000 -1.176942
v -12.181992 -0.234108 -1.154328
v -12.195314 -0.459220 -1.087353
v -12.216948 -0.666684 -0.978592
v -12.246062 -0.848528 -0.832224
v -12.281538 -0.997764 -0.653874
v -12.322013 -1.108655 -0.450396
v -12.365930 -1.176942 -0.229610
v -12.322013 1.176942 -0.216288
v -12.235867 1.108655 -0.424264
v -12.156473 0.997764 -0.615936
v -12.086884 0.848528 -0.783938
v -12.029775 0.666684 -0.921813
v -11.987338 0.459220 -1.024264
v -11.961205 0.234108 -1.087353
v -11.952382 0.000000 -1.108655
v -11.961205 -0.234108 -1.087353
v -11.987338 -0.459220 -1.024264
v -12.029775 -0.666684 -0.921813
v -12.086884 -0.848528 -0.783938
v -12.156473 -0.997764 -0.615936
v -12.235867 -1.108655 -0.424264
v -12.322013 -1.176942 -0.216288
v -12.281538 1.176942 -0.194654
v -12.156473 1.108655 -0.381828
v -12.041212 0.997764 -0.554328
v -11.940185 0.848528 -0.705525
v -11.857274 0.666684 -0.829610
v -11.795666 0.459220 -0.921813
v -11.757728 0.234108 -0.978592
v -11.744918 0.000000 -0.997763
v -11.757728 -0.234108 -0.978592
v -11.795666 -0.459220 -0.921813
v -11.857274 -0.666684 -0.829610
v -11.940185 -0.848528 -0.705525
v -12.041212 -0.997764 -0.554328
v -12.156473 -1.108655 -0.381828
v -12.281538 -1.176942 -0.194654
v -12.246062 1.176942 -0.165540
v -12.086884 1.108655 -0.324718
v -11.940186 0.997764 -0.471417
v -11.811602 0.848528 -0.600000
v -11.706077 0.666684 -0.705525
v -11.627665 0.459220 -0.783938
v -11.579378 0.234108 -0.832224
v -11.563074 0.000000 -0.848528
v -11.579378 -0.234108 -0.832224
v -11.627665 -0.459220 -0.783938
v -11.706077 -0.666684 -0.705525
v -11.811602 -0.848528 -0.600000
v -11.940186 -0.997764 -0.471417
v -12.086884 -1.108655 -0.324718
v -12.246062 -1.176942 -0.165540
v -12.216948 1.176942 -0.130064
v -12.029775 1.108655 -0.255129
v -11.857274 0.997764 -0.370390
v -11.706077 0.848528 -0.471417
v -11.581992 0.666684 -0.554328
v -11.489789 0.459220 -0.615936
v -11.433010 0.234108 -0.653874
v -11.413838 0.000000 -0.666684
v -11.433010 -0.234108 -0.653874
v -11.489789 -0.459220 -0.615936
v -11.581992 -0.666684 -0.554328
v -11.706077 -0.848528 -0.471417
v -11.857274 -0.997764 -0.370390
v -12.029775 -1.108655 -0.255129
v -12.216948 -1.176942 -0.130064
v -12.195314 1.176942 -0.089589
v -11.987338 1.108655 -0.175736
v -11.795666 0.997764 -0.255129
v -11.627665 0.848528 -0.324718
v -11.489789 0.666684 -0.381827
v -11.387338 0.459220 -0.424264
v -11.324249 0.234108 -0.450396
v -11.302947 0.000000 -0.459220
v -11.324249 -0.234108 -0.450396
v -11.387338 -0.459220 -0.424264
v -11.489789 -0.666684 -0.381827
v -11.627665 -0.848528 -0.324718
v -11.795666 -0.997764 -0.255129
v -11.987338 -1.108655 -0.175736
v -12.195314 -1.176942 -0.089589
v -12.181992 1.176942 -0.045672
v -11.961205 1.108655 -0.089589
v -11.757728 0.997764 -0.130064
v -11.579378 0.848528 -0.165540
v -11.433010 0.666684 -0.194654
v -11.324249 0.459220 -0.216288
v -11.257275 0.234108 -0.229610
v -11.234660 0.000000 -0.234108
v -11.257275 -0.234108 -0.229610
v -11.324249 -0.459220 -0.216288
v -11.433010 -0.666684 -0.194654
v -11.579378 -0.848528 -0.165540
v -11.757728 -0.997764 -0.130064
v -11.961205 -1.108655 -0.089589
v -12.181992 -1.176942 -0.045672
v -12.177494 1.176942 0.000000
v -11.952382 1.108655 0.000000
v -11.744918 0.997764 0.000000
v -11.563074 0.848528 -0.000000
v -11.413838 0.666684 0.000000
v -11.302947 0.459220 -0.000000
v -11.234660 0.234108 0.000000
v -11.211602 0.000000 0.000000
v -11.234660 -0.234108 0.000000
v -11.302947 -0.459220 -0.000000
v -11.413838 -0.666684 0.000000
v -11.563074 -0.848528 -0.000000
v -11.744918 -0.997764 0.000000
v -11.952382 -1.108655 0.000000
v -12.177494 -1.176942 0.000000
v -12.181992 1.176942 0.045672
v -11.961205 1.108655 0.089589
v -11.757728 0.997764 0.130064
v -11.579378 0.848528 0.165540
v -11.433010 0.666684 0.194654
v -11.324249 0.459220 0.216288
v -11.257275 0.234108 0.229610
v -11.234660 0.000000 0.234109
v -11.257275 -0.234108 0.229610
v -11.324249 -0.459220 0.216288
v -11.433010 -0.666684 0.194654
v -11.579378 -0.848528 0.165540
v -11.757728 -0.997764 0.130064
v -11.961205 -1.108655 0.089589
v -12.181992 -1.176942 0.045672
v -12.195314 1.176942 0.089589
v -11.987338 1.108655 0.175736
v -11.795666 0.997764 0.255129
v -11.627665 0.848528 0.324718
v -11.489789 0.666684 0.381828
v -11.387338 0.459220 0.424264
v -11.324249 0.234108 0.450396
v -11.302947 0.000000 0.459220
v -11.324249 -0.234108 0.450396
v -11.387338 -0.459220 0.424264
v -11.489789 -0.666684 0.381828
v -11.627665 -0.848528 0.324718
v -11.795666 -0.997764 0.255129
v -11.987338 -1.108655 0.175736
v -12.195314 -1.176942 0.089589
v -12.216949 1.176942 0.130064
v -12.029775 1.108655 0.255129
v -11.857275 0.997764 0.370390
v -11.706077 0.848528 0.471417
v -11.581992 0.666684 0.554328
v -11.489789 0.459220 0.615936
v -11.433010 0.234108 0.653874
v -11.413839 0.000000 0.666684
v -11.433010 -0.234108 0.653874
v -11.489789 -0.459220 0.615936
v -11.581992 -0.666684 0.554328
v -11.706077 -0.848528 0.471417
v -11.857275 -0.997764 0.370390
v -12.029775 -1.108655 0.255129
v -12.216949 -1.176942 0.130064
v -12.246062 1.176942 0.165540
v -12.086884 1.108655 0.324718
v -11.940186 0.997764 0.471417
v -11.811602 0.848528 0.600000
v -11.706077 0.666684 0.705525
v -11.627665 0.459220 0.783938
v -11.579378 0.234108 0.832224
v -11.563074 0.000000 0.848528
v -11.579378 -0.234108 0.832224
v -11.627665 -0.459220 0.783938
v -11.706077 -0.666684 0.705525
v -11.811602 -0.848528 0.600000
v -11.940186 -0.997764 0.471417
v -12.086884 -1.108655 0.324718
v -12.246062 -1.176942 0.165540
v -12.281538 1.176942 0.194654
v -12.156473 1.108655 0.381828
v -12.041212 0.997764 0.554328
v -11.940186 0.848528 0.705525
v -11.857275 0.666684 0.829610
v -11.795666 0.459220 0.921813
v -11.757729 0.234108 0.978592
v -11.744919 0.000000 0.997763
v -11.757729 -0.234108 0.978592
v -11.795666 -0.459220 0.921813
v -11.857275 -0.666684 0.829610
v -11.940186 -0.848528 0.705525
v -12.041212 -0.997764 0.554328
v -12.156473 -1.108655 0.381828
v -12.281538 -1.176942 0.194654
v -12.322013 1.176942 0.216288
v -12.235867 1.108655 0.424264
v -12.156473 0.997764 0.615936
v -12.086884 0.848528 0.783938
v -12.029775 0.666684 0.921813
v -11.987338 0.459220 1.024264
v -11.961206 0.234108 1.087353
v -11.952382 0.000000 1.108655
v -11.961206 -0.234108 1.087353
v -11.987338 -0.459220 1.024264
v -12.029775 -0.666684 0.921813
v -12.086884 -0.848528 0.783938
v -12.156473 -0.997764 0.615936
v -12.235867 -1.108655 0.424264
v -12.322013 -1.176942 0.216288
v -12.365930 1.176942 0.229610
v -12.322013 1.108655 0.450396
v -12.281539 0.997764 0.653874
v -12.246062 0.848528 0.832224
v -12.216949 0.666684 0.978592
v -12.195314 0.459220 1.087353
v -12.181993 0.234108 1.154327
v -12.177494 0.000000 1.176942
v -12.181993 -0.234108 1.154327
v -12.195314 -0.459220 1.087353
v -12.216949 -0.666684 0.978592
v -12.246062 -0.848528 0.832224
v -12.281539 -0.997764 0.653874
v -12.322013 -1.108655 0.450396
v -12.365930 -1.176942 0.229610
v -12.411602 1.176942 0.234108
v -12.411602 1.108655 0.459220
v -12.411602 0.997764 0.666684
v -12.411602 0.848528 0.848528
v -12.411602 0.666684 0.997763
v -12.411602 0.459220 1.108655
v -12.411602 0.234108 1.176942
v -12.411602 0.000000 1.199999
v -12.411602 -0.234108 1.176942
v -12.411602 -0.459220 1.108655
v -12.411602 -0.666684 0.997763
v -12.411602 -0.848528 0.848528
v -12.411602 -0.997764 0.666684
v -12.411602 -1.108655 0.459220
v -12.411602 -1.176942 0.234108
v -12.457274 1.176942 0.229610
v -12.501191 1.108655 0.450396
v -12.541666 0.997764 0.653874
v -12.577142 0.848528 0.832224
v -12.606256 0.666684 0.978591
v -12.627890 0.459220 1.087353
v -12.641212 0.234108 1.154327
v -12.645711 0.000000 1.176942
v -12.641212 -0.234108 1.154327
v -12.627890 -0.459220 1.087353
v -12.606256 -0.666684 0.978591
v -12.577142 -0.848528 0.832224
v -12.541666 -0.997764 0.653874
v -12.501191 -1.108655 0.450396
v -12.457274 -1.176942 0.229610
v -12.501191 1.176942 0.216288
v -12.587337 1.108655 0.424264
v -12.666731 0.997764 0.615936
v -12.736320 0.848528 0.783938
v -12.793429 0.666684 0.921813
v -12.835866 0.459220 1.024264
v -12.861999 0.234108 1.087353
v -12.870822 0.000000 1.108654
v -12.861999 -0.234108 1.087353
v -12.835866 -0.459220 1.024264
v -12.793429 -0.666684 0.921813
v -12.736320 -0.848528 0.783938
v -12.666731 -0.997764 0.615936
v -12.587337 -1.108655 0.424264
v -12.501191 -1.176942 0.216288
v -12.541666 1.176942 0.194654
v -12.666731 1.108655 0.381827
v -12.781992 0.997764 0.554327
v -12.883018 0.848528 0.705525
v -12.965930 0.666684 0.829610
v -13.027537 0.459220 0.921813
v -13.065476 0.234108 0.978591
v -13.078286 0.000000 0.997763
v -13.065476 -0.234108 0.978591
v -13.027537 -0.459220 0.921813
v -12.965930 -0.666684 0.829610
v -12.883018 -0.848528 0.705525
v -12.781992 -0.997764 0.554327
v -12.666731 -1.108655 0.381827
v -12.541666 -1.176942 0.194654
v -12.577142 1.176942 0.165539
v -12.736320 1.108655 0.324718
v -12.883018 0.997764 0.471417
v -13.011602 0.848528 0.600000
v -13.117127 0.666684 0.705525
v -13.195539 0.459220 0.783938
v -13.243826 0.234108 0.832223
v -13.260130 0.000000 0.848527
v -13.243826 -0.234108 0.832223
v -13.195539 -0.459220 0.783938
v -13.117127 -0.666684 0.705525
v -13.011602 -0.848528 0.600000
v -12.883018 -0.997764 0.471417
v -12.736320 -1.108655 0.324718
v -12.577142 -1.176942 0.165539
v -12.606256 1.176942 0.130064
v -12.793429 1.108655 0.255129
v -12.965929 0.997764 0.370390
v -13.117127 0.848528 0.471417
v -13.241212 0.666684 0.554327
v -13.333415 0.459220 0.615936
v -13.390194 0.234108 0.653874
v -13.409365 0.000000 0.666683
v -13.390194 -0.234108 0.653874
v -13.333415 -0.459220 0.615936
v -13.241212 -0.666684 0.554327
v -13.117127 -0.848528 0.471417
v -12.965929 -0.997764 0.370390
v -12.793429 -1.108655 0.255129
v -12.606256 -1.176942 0.130064
v -12.627890 1.176942 0.089589
v -12.835866 1.108655 0.175736
v -13.027537 0.997764 0.255129
v -13.195539 0.848528 0.324718
v -13.333415 0.666684 0.381827
v -13.435865 0.459220 0.424264
v -13.498955 0.234108 0.450396
v -13.520257 0.000000 0.459219
v -13.498955 -0.234108 0.450396
v -13.435865 -0.459220 0.424264
v -13.333415 -0.666684 0.381827
v -13.195539 -0.848528 0.324718
v -13.027537 -0.997764 0.255129
v -12.835866 -1.108655 0.175736
v -12.627890 -1.176942 0.089589
v -12.641212 1.176942 0.045672
v -12.861999 1.108655 0.089589
v -13.065475 0.997764 0.130063
v -13.243826 0.848528 0.165540
v -13.390193 0.666684 0.194654
v -13.498955 0.459220 0.216288
v -13.565929 0.234108 0.229610
v -13.588543 0.000000 0.234108
v -13.565929 -0.234108 0.229610
v -13.498955 -0.459220 0.216288
v -13.390193 -0.666684 0.194654
v -13.243826 -0.848528 0.165540
v -13.065475 -0.997764 0.130063
v -12.861999 -1.108655 0.089589
v -12.641212 -1.176942 0.045672
v -12.645710 1.176942 -0.000000
v -12.870822 1.108655 -0.000000
v -13.078286 0.997764 -0.000000
v -13.260130 0.848528 -0.000000
v -13.409365 0.666684 -0.000000
v -13.520257 0.459220 -0.000000
v -13.588544 0.234108 -0.000000
v -13.611601 0.000000 -0.000001
v -13.588544 -0.234108 -0.000000
v -13.520257 -0.459220 -0.000000
v -13.409365 -0.666684 -0.000000
v -13.260130 -0.848528 -0.000000
v -13.078286 -0.997764 -0.000000
v -12.870822 -1.108655 -0.000000
v -12.645710 -1.176942 -0.000000
v -12.641212 1.176942 -0.045672
v -12.861999 1.108655 -0.089589
v -13.065475 0.997764 -0.130064
v -13.243826 0.848528 -0.165540
v -13.390193 0.666684 -0.194654
v -13.498955 0.459220 -0.216288
v -13.565929 0.234108 -0.229610
v -13.588543 0.000000 -0.234109
v -13.565929 -0.234108 -0.229610
v -13.498955 -0.459220 -0.216288
v -13.390193 -0.666684 -0.194654
v -13.243826 -0.848528 -0.165540
v -13.065475 -0.997764 -0.130064
v -12.861999 -1.108655 -0.089589
v -12.641212 -1.176942 -0.045672
v -12.627890 1.176942 -0.089589
v -12.835866 1.108655 -0.175736
v -13.027537 0.997764 -0.255129
v -13.195539 0.848528 -0.324718
v -13.333415 0.666684 -0.381828
v -13.435865 0.459220 -0.424264
v -13.498955 0.234108 -0.450396
v -13.520256 0.000000 -0.459220
v -13.498955 -0.234108 -0.450396
v -13.435865 -0.459220 -0.424264
v -13.333415 -0.666684 -0.381828
v -13.195539 -0.848528 -0.324718
v -13.027537 -0.997764 -0.255129
v -12.835866 -1.108655 -0.175736
v -12.627890 -1.176942 -0.089589
v -12.606256 1.176942 -0.130064
v -12.793429 1.108655 -0.255129
v -12.965929 0.997764 -0.370390
v -13.117127 0.848528 -0.471417
v -13.241212 0.666684 -0.554328
v -13.333415 0.459220 -0.615936
v -13.390193 0.234108 -0.653874
v -13.409365 0.000000 -0.666684
v -13.390193 -0.234108 -0.653874
v -13.333415 -0.459220 -0.615936
v -13.241212 -0.666684 -0.554328
v -13.117127 -0.848528 -0.471417
v -12.965929 -0.997764 -0.370390
v -12.793429 -1.108655 -0.255129
v -12.606256 -1.176942 -0.130064
v -12.577142 1.176942 -0.165539
v -12.736320 1.108655 -0.324718
v -12.883018 0.997764 -0.471417
v -13.011601 0.848528 -0.600000
v -13.117126 0.666684 -0.705525
v -13.195539 0.459220 -0.783937
v -13.243825 0.234108 -0.832224
v -13.260129 0.000000 -0.848528
v -13.243825 -0.234108 -0.832224
v -13.195539 -0.459220 -0.783937
v -13.117126 -0.666684 -0.705525
v -13.011601 -0.848528 -0.600000
v -12.883018 -0.997764 -0.471417
v -12.736320 -1.108655 -0.324718
v -12.577142 -1.176942 -0.165539
v -12.541665 1.176942 -0.194654
v -12.666731 1.108655 -0.381827
v -12.781991 0.997764 -0.554327
v -12.883018 0.848528 -0.705525
v -12.965929 0.666684 -0.829610
v -13.027537 0.459220 -0.921813
v -13.065475 0.234108 -0.978591
v -13.078285 0.000000 -0.997763
v -13.065475 -0.234108 -0.978591
v -13.027537 -0.459220 -0.921813
v -12.965929 -0.666684 -0.829610
v -12.883018 -0.848528 -0.705525
v -12.781991 -0.997764 -0.554327
v -12.666731 -1.108655 -0.381827
v -12.541665 -1.176942 -0.194654
v -12.501191 1.176942 -0.216288
v -12.587337 1.108655 -0.424264
v -12.666731 0.997764 -0.615935
v -12.736320 0.848528 -0.783938
v -12.793429 0.666684 -0.921813
v -12.835866 0.459220 -1.024264
v -12.861998 0.234108 -1.087352
v -12.870821 0.000000 -1.108654
v -12.861998 -0.234108 -1.087352
v -12.835866 -0.459220 -1.024264
v -12.793429 -0.666684 -0.921813
v -12.736320 -0.848528 -0.783938
v -12.666731 -0.997764 -0.615935
v -12.587337 -1.108655 -0.424264
v -12.501191 -1.176942 -0.216288
v -12.457274 1.176942 -0.229610
v -12.501191 1.108655 -0.450396
v -12.541665 0.997764 -0.653873
v -12.577142 0.848528 -0.832224
v -12.606256 0.666684 -0.978591
v -12.627890 0.459220 -1.087352
v -12.641212 0.234108 -1.154327
v -12.645710 0.000000 -1.176941
v -12.641212 -0.234108 -1.154327
v -12.627890 -0.459220 -1.087352
v -12.606256 -0.666684 -0.978591
v -12.577142 -0.848528 -0.832224
v -12.541665 -0.997764 -0.653873
v -12.501191 -1.108655 -0.450396
v -12.457274 -1.176942 -0.229610
v -12.411602 1.176942 -0.234108
v -12.411602 1.108655 -0.459220
v -12.411602 0.848528 -0.848528
v -12.411602 0.459220 -1.108655
v -12.411602 -0.459220 -1.108655
v -12.411602 -0.848528 -0.848528
v -12.411602 -0.997764 -0.666683
v -12.411602 -1.108655 -0.459220
v -12.411602 -1.176942 -0.234108
vn 0.0975 -0.0976 -0.9904
vn 0.0286 0.9565 -0.2902
vn 0.0938 -0.2890 -0.9527
vn 0.0464 0.8810 -0.4709
vn 0.0865 -0.4696 -0.8786
vn 0.0624 0.7715 -0.6332
vn 0.0759 -0.6326 -0.7708
vn 0.0759 0.6326 -0.7708
vn 0.0624 -0.7715 -0.6332
vn 0.0865 0.4696 -0.8786
vn 0.0464 -0.8810 -0.4709
vn 0.0938 0.2890 -0.9527
vn 0.0286 -0.9565 -0.2902
vn 0.0975 0.0975 -0.9904
vn 0.0097 0.9951 -0.0980
vn 0.0097 -0.9951 -0.0980
vn 0.0846 -0.9565 -0.2790
vn 0.2889 0.0976 -0.9524
vn 0.0286 0.9951 -0.0942
vn 0.0286 -0.9951 -0.0942
vn 0.2889 -0.0976 -0.9524
vn 0.0846 0.9565 -0.2790
vn 0.2779 -0.2890 -0.9161
vn 0.1374 0.8810 -0.4528
vn 0.2563 -0.4696 -0.8448
vn 0.1847 0.7715 -0.6088
vn 0.2248 -0.6326 -0.7412
vn 0.2248 0.6326 -0.7412
vn 0.1847 -0.7715 -0.6088
vn 0.2563 0.4696 -0.8448
vn 0.1374 -0.8810 -0.4528
vn 0.2779 0.2890 -0.9161
vn 0.3651 -0.6326 -0.6831
vn 0.3651 0.6326 -0.6831
vn 0.2999 -0.7715 -0.5611
vn 0.4162 0.4696 -0.7786
vn 0.2230 -0.8810 -0.4173
vn 0.4513 0.2890 -0.8443
vn 0.1374 -0.9565 -0.2571
vn 0.4691 0.0975 -0.8777
vn 0.0464 0.9951 -0.0869
vn 0.0464 -0.9951 -0.0869
vn 0.4691 -0.0975 -0.8777
vn 0.1374 0.9565 -0.2571
vn 0.4513 -0.2890 -0.8443
vn 0.2231 0.8810 -0.4173
vn 0.4162 -0.4696 -0.7786
vn 0.2999 0.7715 -0.5611
vn 0.0625 0.9951 -0.0761
vn 0.0625 -0.9951 -0.0761
vn 0.6314 -0.0975 -0.7693
vn 0.1850 0.9565 -0.2254
vn 0.6073 -0.2890 -0.7400
vn 0.3002 0.8810 -0.3658
vn 0.5601 -0.4696 -0.6825
vn 0.4036 0.7715 -0.4918
vn 0.4913 -0.6326 -0.5987
vn 0.4913 0.6326 -0.5987
vn 0.4036 -0.7715 -0.4918
vn 0.5601 0.4696 -0.6825
vn 0.3002 -0.8810 -0.3658
vn 0.6073 0.2890 -0.7400
vn 0.1850 -0.9565 -0.2254
vn 0.6314 0.0975 -0.7693
vn 0.5987 0.6326 -0.4913
vn 0.4918 -0.7715 -0.4036
vn 0.6825 0.4696 -0.5601
vn 0.3658 -0.8810 -0.3002
vn 0.7400 0.2890 -0.6073
vn 0.2254 -0.9566 -0.1850
vn 0.7693 0.0975 -0.6314
vn 0.0761 0.9951 -0.0625
vn 0.0761 -0.9951 -0.0625
vn 0.7693 -0.0975 -0.6314
vn 0.2254 0.9565 -0.1850
vn 0.7400 -0.2890 -0.6073
vn 0.3658 0.8810 -0.3002
vn 0.6825 -0.4696 -0.5601
vn 0.4918 0.7715 -0.4036
vn 0.5987 -0.6326 -0.4913
vn 0.8777 -0.0975 -0.4691
vn 0.2571 0.9565 -0.1374
vn 0.8443 -0.2890 -0.4513
vn 0.4173 0.8810 -0.2230
vn 0.7786 -0.4696 -0.4162
vn 0.5611 0.7715 -0.2999
vn 0.6831 -0.6326 -0.3651
vn 0.6831 0.6326 -0.3651
vn 0.5611 -0.7715 -0.2999
vn 0.7786 0.4696 -0.4162
vn 0.4173 -0.8810 -0.2230
vn 0.8443 0.2890 -0.4513
vn 0.2571 -0.9565 -0.1374
vn 0.8777 0.0975 -0.4691
vn 0.0869 0.9951 -0.0464
vn 0.0869 -0.9951 -0.0464
vn 0.6088 -0.7715 -0.1847
vn 0.8448 0.4696 -0.2563
vn 0.4528 -0.8810 -0.1374
vn 0.9161 0.2890 -0.2779
vn 0.2790 -0.9565 -0.0846
vn 0.9524 0.0975 -0.2889
vn 0.0942 0.9951 -0.0286
vn 0.0942 -0.9951 -0.0286
vn 0.9524 -0.0975 -0.2889
vn 0.2790 0.9565 -0.0846
vn 0.9161 -0.2890 -0.2779
vn 0.4528 0.8810 -0.1374
vn 0.8448 -0.4696 -0.2563
vn 0.6088 0.7715 -0.1847
vn 0.7412 -0.6326 -0.2248
vn 0.7412 0.6326 -0.2248
vn 0.2902 0.9565 -0.0286
vn 0.9527 -0.2890 -0.0938
vn 0.4709 0.8810 -0.0464
vn 0.8786 -0.4696 -0.0865
vn 0.6332 0.7715 -0.0624
vn 0.7708 -0.6326 -0.0759
vn 0.7708 0.6326 -0.0759
vn 0.6332 -0.7715 -0.0624
vn 0.8786 0.4696 -0.0865
vn 0.4709 -0.8810 -0.0464
vn 0.9527 0.2890 -0.0938
vn 0.2902 -0.9565 -0.0286
vn 0.9904 0.0975 -0.0975
vn 0.0980 0.9951 -0.0097
vn 0.0980 -0.9951 -0.0097
vn 0.9904 -0.0975 -0.0975
vn 0.8786 0.4696 0.0865
vn 0.4709 -0.8810 0.0464
vn 0.9527 0.2890 0.0938
vn 0.2902 -0.9565 0.0286
vn 0.9904 0.0975 0.0976
vn 0.0980 0.9951 0.0097
vn 0.0980 -0.9951 0.0097
vn 0.9904 -0.0975 0.0976
vn 0.2902 0.9565 0.0286
vn 0.9527 -0.2890 0.0938
vn 0.4709 0.8810 0.0464
vn 0.8786 -0.4696 0.0865
vn 0.6332 0.7715 0.0624
vn 0.7708 -0.6326 0.0759
vn 0.7708 0.6326 0.0759
vn 0.6332 -0.7715 0.0624
vn 0.9161 -0.2890 0.2779
vn 0.4528 0.8810 0.1374
vn 0.8448 -0.4696 0.2563
vn 0.6088 0.7715 0.1847
vn 0.7412 -0.6326 0.2248
vn 0.7412 0.6326 0.2248
vn 0.6088 -0.7715 0.1847
vn 0.8448 0.4696 0.2563
vn 0.4528 -0.8810 0.1374
vn 0.9161 0.2890 0.2779
vn 0.2790 -0.9565 0.0846
vn 0.9524 0.0975 0.2889
vn 0.0942 0.9951 0.0286
vn 0.0942 -0.9951 0.0286
vn 0.9524 -0.0975 0.2889
vn 0.2790 0.9565 0.0846
vn 0.4173 -0.8810 0.2230
vn 0.8443 0.2890 0.4513
vn 0.2571 -0.9565 0.1374
vn 0.8777 0.0975 0.4691
vn 0.0869 0.9951 0.0464
vn 0.0869 -0.9951 0.0464
vn 0.8777 -0.0975 0.4691
vn 0.2571 0.9565 0.1374
vn 0.8443 -0.2890 0.4513
vn 0.4173 0.8810 0.2231
vn 0.7786 -0.4696 0.4162
vn 0.5611 0.7715 0.2999
vn 0.6831 -0.6326 0.3651
vn 0.6831 0.6326 0.3651
vn 0.5611 -0.7715 0.2999
vn 0.7786 0.4696 0.4162
vn 0.6825 -0.4696 0.5601
vn 0.4918 0.7715 0.4036
vn 0.5987 -0.6326 0.4913
vn 0.5987 0.6326 0.4913
vn 0.4918 -0.7715 0.4036
vn 0.6825 0.4696 0.5601
vn 0.3658 -0.8810 0.3002
vn 0.7400 0.2890 0.6073
vn 0.2254 -0.9565 0.1850
vn 0.7693 0.0975 0.6314
vn 0.0761 0.9951 0.0625
vn 0.0761 -0.9951 0.0625
vn 0.7693 -0.0975 0.6314
vn 0.2254 0.9565 0.1850
vn 0.7400 -0.2890 0.6073
vn 0.3658 0.8810 0.3002
vn 0.1850 -0.9565 0.2254
vn 0.6314 0.0975 0.7693
vn 0.0625 0.9951 0.0761
vn 0.0625 -0.9951 0.0761
vn 0.6314 -0.0975 0.7693
vn 0.1850 0.9565 0.2254
vn 0.6073 -0.2890 0.7400
vn 0.3002 0.8810 0.3658
vn 0.5601 -0.4696 0.6825
vn 0.4036 0.7715 0.4918
vn 0.4913 -0.6326 0.5987
vn 0.4913 0.6326 0.5987
vn 0.4036 -0.7715 0.4918
vn 0.5601 0.4696 0.6825
vn 0.3002 -0.8810 0.3658
vn 0.6073 0.2890 0.7400
vn 0.2999 0.7715 0.5611
vn 0.3651 -0.6326 0.6831
vn 0.3651 0.6326 0.6831
vn 0.2999 -0.7715 0.5611
vn 0.4162 0.4696 0.7786
vn 0.2230 -0.8810 0.4173
vn 0.4513 0.2890 0.8443
vn 0.1374 -0.9565 0.2571
vn 0.4691 0.0975 0.8777
vn 0.0464 0.9951 0.0869
vn 0.0464 -0.9951 0.0869
vn 0.4691 -0.0975 0.8777
vn 0.1374 0.9565 0.2571
vn 0.4513 -0.2890 0.8443
vn 0.2230 0.8810 0.4173
vn 0.4162 -0.4696 0.7786
vn 0.2889 0.0975 0.9524
vn 0.0286 0.9951 0.0942
vn 0.0286 -0.9951 0.0942
vn 0.2889 -0.0975 0.9524
vn 0.0846 0.9565 0.2790
vn 0.2779 -0.2890 0.9161
vn 0.1374 0.8810 0.4528
vn 0.2563 -0.4696 0.8448
vn 0.1847 0.7715 0.6088
vn 0.2248 -0.6326 0.7412
vn 0.2248 0.6326 0.7412
vn 0.1847 -0.7715 0.6088
vn 0.2563 0.4696 0.8448
vn 0.1374 -0.8810 0.4528
vn 0.2779 0.2890 0.9161
vn 0.0846 -0.9565 0.2790
vn 0.0759 -0.6326 0.7708
vn 0.0759 0.6326 0.7708
vn 0.0624 -0.7715 0.6332
vn 0.0865 0.4696 0.8786
vn 0.0464 -0.8810 0.4709
vn 0.0938 0.2890 0.9527
vn 0.0286 -0.9565 0.2902
vn 0.0975 0.0975 0.9904
vn 0.0097 0.9951 0.0980
vn 0.0097 -0.9951 0.0980
vn 0.0975 -0.0975 0.9904
vn 0.0286 0.9565 0.2902
vn 0.0938 -0.2890 0.9527
vn 0.0464 0.8810 0.4709
vn 0.0865 -0.4696 0.8786
vn 0.0624 0.7715 0.6332
vn -0.0097 0.9951 0.0980
vn -0.0097 -0.9951 0.0980
vn -0.0975 -0.0975 0.9904
vn -0.0286 0.9565 0.2902
vn -0.0938 -0.2890 0.9527
vn -0.0464 0.8810 0.4709
vn -0.0865 -0.4696 0.8786
vn -0.0624 0.7715 0.6332
vn -0.0759 -0.6326 0.7708
vn -0.0759 0.6326 0.7708
vn -0.0624 -0.7715 0.6332
vn -0.0865 0.4696 0.8786
vn -0.0464 -0.8810 0.4709
vn -0.0938 0.2890 0.9527
vn -0.0286 -0.9565 0.2902
vn -0.0976 0.0975 0.9904
vn -0.2248 0.6326 0.7412
vn -0.1847 -0.7715 0.6088
vn -0.2563 0.4696 0.8448
vn -0.1374 -0.8810 0.4528
vn -0.2779 0.2890 0.9161
vn -0.0846 -0.9565 0.2790
vn -0.2889 0.0975 0.9524
vn -0.0286 0.9951 0.0942
vn -0.0286 -0.9951 0.0942
vn -0.2889 -0.0975 0.9524
vn -0.0846 0.9565 0.2790
vn -0.2779 -0.2890 0.9161
vn -0.1374 0.8810 0.4528
vn -0.2563 -0.4696 0.8448
vn -0.1847 0.7715 0.6088
vn -0.2248 -0.6326 0.7412
vn -0.4691 -0.0975 0.8777
vn -0.1374 0.9565 0.2571
vn -0.4513 -0.2890 0.8443
vn -0.2230 0.8810 0.4173
vn -0.4162 -0.4696 0.7786
vn -0.2999 0.7715 0.5611
vn -0.3651 -0.6326 0.6831
vn -0.3651 0.6326 0.6831
vn -0.2999 -0.7715 0.5611
vn -0.4162 0.4696 0.7786
vn -0.2230 -0.8810 0.4173
vn -0.4513 0.2890 0.8443
vn -0.1374 -0.9565 0.2571
vn -0.4691 0.0975 0.8777
vn -0.0464 0.9951 0.0869
vn -0.0464 -0.9951 0.0869
vn -0.4036 -0.7715 0.4918
vn -0.5601 0.4696 0.6825
vn -0.3002 -0.8810 0.3658
vn -0.6073 0.2890 0.7400
vn -0.1850 -0.9565 0.2254
vn -0.6314 0.0975 0.7693
vn -0.0625 0.9951 0.0761
vn -0.0625 -0.9951 0.0761
vn -0.6314 -0.0975 0.7693
vn -0.1850 0.9565 0.2254
vn -0.6073 -0.2890 0.7400
vn -0.3002 0.8810 0.3658
vn -0.5601 -0.4696 0.6825
vn -0.4036 0.7715 0.4918
vn -0.4913 -0.6326 0.5987
vn -0.4913 0.6326 0.5987
vn -0.7400 -0.2890 0.6073
vn -0.3658 0.8810 0.3002
vn -0.6825 -0.4696 0.5601
vn -0.4918 0.7715 0.4036
vn -0.5987 -0.6326 0.4913
vn -0.5987 0.6326 0.4913
vn -0.4918 -0.7715 0.4036
vn -0.6825 0.4696 0.5601
vn -0.3658 -0.8810 0.3002
vn -0.7400 0.2890 0.6073
vn -0.2254 -0.9566 0.1850
vn -0.7693 0.0975 0.6314
vn -0.0761 0.9951 0.0625
vn -0.0761 -0.9951 0.0625
vn -0.7693 -0.0975 0.6314
vn -0.2254 0.9565 0.1850
vn -0.4173 -0.8810 0.2231
vn -0.8443 0.2890 0.4513
vn -0.2571 -0.9565 0.1374
vn -0.8777 0.0975 0.4691
vn -0.0869 0.9951 0.0464
vn -0.0869 -0.9951 0.0464
vn -0.8777 -0.0975 0.4691
vn -0.2571 0.9565 0.1374
vn -0.8443 -0.2890 0.4513
vn -0.4173 0.8810 0.2230
vn -0.7786 -0.4696 0.4162
vn -0.5611 0.7715 0.2999
vn -0.6831 -0.6326 0.3651
vn -0.6831 0.6326 0.3651
vn -0.5611 -0.7715 0.2999
vn -0.7786 0.4696 0.4162
vn -0.4528 0.8810 0.1374
vn -0.8448 -0.4696 0.2563
vn -0.6088 0.7715 0.1847
vn -0.7412 -0.6326 0.2248
vn -0.7412 0.6326 0.2248
vn -0.6088 -0.7715 0.1847
vn -0.8448 0.4696 0.2563
vn -0.4528 -0.8810 0.1374
vn -0.9161 0.2890 0.2779
vn -0.2790 -0.9565 0.0846
vn -0.9524 0.0975 0.2889
vn -0.0942 0.9951 0.0286
vn -0.0942 -0.9951 0.0286
vn -0.9524 -0.0975 0.2889
vn -0.2790 0.9565 0.0846
vn -0.9161 -0.2890 0.2779
vn -0.9527 0.2890 0.0938
vn -0.2902 -0.9565 0.0286
vn -0.9904 0.0975 0.0975
vn -0.0980 0.9951 0.0097
vn -0.0980 -0.9951 0.0097
vn -0.9904 -0.0975 0.0976
vn -0.2902 0.9565 0.0286
vn -0.9527 -0.2890 0.0938
vn -0.4709 0.8810 0.0464
vn -0.8786 -0.4696 0.0865
vn -0.6332 0.7715 0.0624
vn -0.7708 -0.6326 0.0759
vn -0.7708 0.6326 0.0759
vn -0.6332 -0.7715 0.0624
vn -0.8786 0.4696 0.0865
vn -0.4709 -0.8810 0.0464
vn -0.8786 -0.4696 -0.0865
vn -0.6332 0.7715 -0.0624
vn -0.7708 -0.6326 -0.0759
vn -0.7708 0.6326 -0.0759
vn -0.6332 -0.7715 -0.0624
vn -0.8786 0.4696 -0.0865
vn -0.4709 -0.8810 -0.0464
vn -0.9527 0.2890 -0.0938
vn -0.2902 -0.9565 -0.0286
vn -0.9904 0.0975 -0.0975
vn -0.0980 0.9951 -0.0097
vn -0.0980 -0.9951 -0.0097
vn -0.9904 -0.0975 -0.0976
vn -0.2902 0.9565 -0.0286
vn -0.9527 -0.2890 -0.0938
vn -0.4709 0.8810 -0.0464
vn -0.2790 -0.9565 -0.0846
vn -0.9524 0.0975 -0.2889
vn -0.0942 0.9951 -0.0286
vn -0.0942 -0.9951 -0.0286
vn -0.9524 -0.0975 -0.2889
vn -0.2790 0.9565 -0.0846
vn -0.9161 -0.2890 -0.2779
vn -0.4528 0.8810 -0.1374
vn -0.8448 -0.4696 -0.2563
vn -0.6088 0.7715 -0.1847
vn -0.7412 -0.6326 -0.2248
vn -0.7412 0.6326 -0.2248
vn -0.6088 -0.7715 -0.1847
vn -0.8448 0.4696 -0.2563
vn -0.4528 -0.8810 -0.1374
vn -0.9161 0.2890 -0.2779
vn -0.5611 0.7715 -0.2999
vn -0.6831 -0.6326 -0.3651
vn -0.6831 0.6326 -0.3651
vn -0.5611 -0.7715 -0.2999
vn -0.7786 0.4696 -0.4162
vn -0.4173 -0.8810 -0.2231
vn -0.8443 0.2890 -0.4513
vn -0.2571 -0.9565 -0.1374
vn -0.8777 0.0975 -0.4691
vn -0.0869 0.9951 -0.0464
vn -0.0869 -0.9951 -0.0464
vn -0.8777 -0.0975 -0.4691
vn -0.2571 0.9565 -0.1374
vn -0.8443 -0.2890 -0.4513
vn -0.4173 0.8810 -0.2231
vn -0.7786 -0.4696 -0.4162
vn -0.7693 0.0975 -0.6314
vn -0.0761 0.9951 -0.0625
vn -0.0761 -0.9951 -0.0625
vn -0.7693 -0.0975 -0.6314
vn -0.2254 0.9565 -0.1850
vn -0.7400 -0.2890 -0.6073
vn -0.3658 0.8810 -0.3002
vn -0.6825 -0.4696 -0.5601
vn -0.4918 0.7715 -0.4036
vn -0.5987 -0.6326 -0.4913
vn -0.5987 0.6326 -0.4913
vn -0.4918 -0.7715 -0.4036
vn -0.6825 0.4696 -0.5601
vn -0.3658 -0.8810 -0.3002
vn -0.7400 0.2890 -0.6073
vn -0.2254 -0.9565 -0.1850
vn -0.4913 -0.6326 -0.5987
vn -0.4913 0.6326 -0.5987
vn -0.4036 -0.7715 -0.4918
vn -0.5601 0.4696 -0.6825
vn -0.3002 -0.8810 -0.3658
vn -0.6073 0.2890 -0.7400
vn -0.1850 -0.9565 -0.2254
vn -0.6314 0.0975 -0.7693
vn -0.0625 0.9951 -0.0761
vn -0.0625 -0.9951 -0.0761
vn -0.6314 -0.0975 -0.7693
vn -0.1850 0.9565 -0.2254
vn -0.6073 -0.2890 -0.7400
vn -0.3002 0.8810 -0.3658
vn -0.5601 -0.4696 -0.6825
vn -0.4036 0.7715 -0.4918
vn -0.0464 -0.9951 -0.0869
vn -0.4691 -0.0975 -0.8777
vn -0.1374 0.9565 -0.2571
vn -0.4513 -0.2890 -0.8443
vn -0.2230 0.8810 -0.4173
vn -0.4162 -0.4696 -0.7786
vn -0.2999 0.7715 -0.5611
vn -0.3651 -0.6326 -0.6831
vn -0.3651 0.6326 -0.6831
vn -0.2999 -0.7715 -0.5611
vn -0.4162 0.4696 -0.7786
vn -0.2230 -0.8810 -0.4173
vn -0.4513 0.2890 -0.8443
vn -0.1374 -0.9565 -0.2571
vn -0.4691 0.0975 -0.8777
vn -0.0464 0.9951 -0.0869
vn -0.1847 -0.7715 -0.6088
vn -0.2563 0.4696 -0.8448
vn -0.1374 -0.8810 -0.4528
vn -0.2779 0.2890 -0.9161
vn -0.0846 -0.9565 -0.2790
vn -0.2889 0.0975 -0.9524
vn -0.0286 0.9951 -0.0942
vn -0.0286 -0.9951 -0.0942
vn -0.2889 -0.0975 -0.9524
vn -0.0846 0.9565 -0.2790
vn -0.2779 -0.2890 -0.9161
vn -0.1374 0.8810 -0.4528
vn -0.2563 -0.4696 -0.8448
vn -0.1847 0.7715 -0.6088
vn -0.2248 -0.6326 -0.7412
vn -0.2248 0.6326 -0.7412
vn -0.0286 0.9565 -0.2902
vn -0.0938 -0.2890 -0.9527
vn -0.0464 0.8810 -0.4709
vn -0.0865 -0.4696 -0.8786
vn -0.0624 0.7715 -0.6332
vn -0.0759 -0.6326 -0.7708
vn -0.0759 0.6326 -0.7708
vn -0.0624 -0.7715 -0.6332
vn -0.0865 0.4696 -0.8786
vn -0.0464 -0.8810 -0.4709
vn -0.0938 0.2890 -0.9527
vn -0.0286 -0.9565 -0.2902
vn -0.0976 0.0975 -0.9904
vn -0.0097 0.9951 -0.0980
vn -0.0097 -0.9951 -0.0980
vn -0.0976 -0.0975 -0.9904
vn 0.0975 -0.0975 -0.9904
vn 0.0975 0.0976 -0.9904
vn 0.2231 -0.8810 -0.4173
vn 0.2230 0.8810 -0.4173
vn 0.2254 -0.9565 -0.1850
vn 0.4173 -0.8810 0.2231
vn 0.4173 0.8810 0.2230
vn 0.2231 -0.8810 0.4173
vn -0.0976 -0.0975 0.9904
vn -0.0975 0.0975 0.9904
vn -0.2231 0.8810 0.4173
vn -0.2231 -0.8810 0.4173
vn -0.2254 -0.9565 0.1850
vn -0.4173 -0.8810 0.2230
vn -0.9904 0.0975 0.0976
vn -0.9904 -0.0975 0.0975
vn -0.9904 0.0975 -0.0976
vn -0.9904 -0.0975 -0.0975
vt 0.750000 0.500000
vt 0.718750 0.437500
vt 0.750000 0.437500
vt 0.750000 0.875000
vt 0.718750 0.937500
vt 0.718750 0.875000
vt 0.718750 0.375000
vt 0.750000 0.375000
vt 0.750000 0.812500
vt 0.718750 0.812500
vt 0.718750 0.312500
vt 0.750000 0.312500
vt 0.750000 0.750000
vt 0.718750 0.750000
vt 0.718750 0.250000
vt 0.750000 0.250000
vt 0.750000 0.687500
vt 0.718750 0.687500
vt 0.718750 0.187500
vt 0.750000 0.187500
vt 0.750000 0.625000
vt 0.718750 0.625000
vt 0.718750 0.125000
vt 0.750000 0.125000
vt 0.750000 0.562500
vt 0.718750 0.562500
vt 0.718750 0.062500
vt 0.750000 0.062500
vt 0.718750 0.500000
vt 0.750000 0.937500
vt 0.734375 1.000000
vt 0.734375 0.000000
vt 0.687500 0.062500
vt 0.687500 0.500000
vt 0.703125 1.000000
vt 0.687500 0.937500
vt 0.703125 0.000000
vt 0.687500 0.437500
vt 0.687500 0.875000
vt 0.687500 0.375000
vt 0.687500 0.812500
vt 0.687500 0.312500
vt 0.687500 0.750000
vt 0.687500 0.250000
vt 0.687500 0.687500
vt 0.687500 0.187500
vt 0.687500 0.625000
vt 0.687500 0.125000
vt 0.687500 0.562500
vt 0.656250 0.312500
vt 0.656250 0.250000
vt 0.656250 0.687500
vt 0.656250 0.187500
vt 0.656250 0.625000
vt 0.656250 0.125000
vt 0.656250 0.562500
vt 0.656250 0.062500
vt 0.656250 0.500000
vt 0.671875 1.000000
vt 0.656250 0.937500
vt 0.671875 0.000000
vt 0.656250 0.437500
vt 0.656250 0.875000
vt 0.656250 0.375000
vt 0.656250 0.812500
vt 0.656250 0.750000
vt 0.640625 1.000000
vt 0.625000 0.937500
vt 0.640625 0.000000
vt 0.625000 0.062500
vt 0.625000 0.437500
vt 0.625000 0.875000
vt 0.625000 0.375000
vt 0.625000 0.812500
vt 0.625000 0.312500
vt 0.625000 0.750000
vt 0.625000 0.250000
vt 0.625000 0.687500
vt 0.625000 0.187500
vt 0.625000 0.625000
vt 0.625000 0.125000
vt 0.625000 0.562500
vt 0.625000 0.500000
vt 0.593750 0.750000
vt 0.593750 0.687500
vt 0.593750 0.187500
vt 0.593750 0.625000
vt 0.593750 0.125000
vt 0.593750 0.562500
vt 0.593750 0.062500
vt 0.593750 0.500000
vt 0.609375 1.000000
vt 0.593750 0.937500
vt 0.609375 0.000000
vt 0.593750 0.437500
vt 0.593750 0.875000
vt 0.593750 0.375000
vt 0.593750 0.812500
vt 0.593750 0.312500
vt 0.593750 0.250000
vt 0.562500 0.437500
vt 0.562500 0.875000
vt 0.562500 0.375000
vt 0.562500 0.812500
vt 0.562500 0.312500
vt 0.562500 0.750000
vt 0.562500 0.250000
vt 0.562500 0.687500
vt 0.562500 0.187500
vt 0.562500 0.625000
vt 0.562500 0.125000
vt 0.562500 0.562500
vt 0.562500 0.062500
vt 0.562500 0.500000
vt 0.578125 1.000000
vt 0.562500 0.937500
vt 0.578125 0.000000
vt 0.531250 0.250000
vt 0.531250 0.187500
vt 0.531250 0.625000
vt 0.531250 0.125000
vt 0.531250 0.562500
vt 0.531250 0.062500
vt 0.531250 0.500000
vt 0.546875 1.000000
vt 0.531250 0.937500
vt 0.546875 0.000000
vt 0.531250 0.437500
vt 0.531250 0.875000
vt 0.531250 0.375000
vt 0.531250 0.812500
vt 0.531250 0.312500
vt 0.531250 0.750000
vt 0.531250 0.687500
vt 0.500000 0.937500
vt 0.500000 0.875000
vt 0.500000 0.375000
vt 0.500000 0.812500
vt 0.500000 0.312500
vt 0.500000 0.750000
vt 0.500000 0.250000
vt 0.500000 0.687500
vt 0.500000 0.187500
vt 0.500000 0.625000
vt 0.500000 0.125000
vt 0.500000 0.562500
vt 0.500000 0.062500
vt 0.500000 0.500000
vt 0.515625 1.000000
vt 0.515625 0.000000
vt 0.500000 0.437500
vt 0.468750 0.625000
vt 0.468750 0.125000
vt 0.468750 0.562500
vt 0.468750 0.062500
vt 0.468750 0.500000
vt 0.484375 1.000000
vt 0.468750 0.937500
vt 0.484375 0.000000
vt 0.468750 0.437500
vt 0.468750 0.875000
vt 0.468750 0.375000
vt 0.468750 0.812500
vt 0.468750 0.312500
vt 0.468750 0.750000
vt 0.468750 0.250000
vt 0.468750 0.687500
vt 0.468750 0.187500
vt 0.437500 0.375000
vt 0.437500 0.875000
vt 0.437500 0.812500
vt 0.437500 0.312500
vt 0.437500 0.750000
vt 0.437500 0.250000
vt 0.437500 0.687500
vt 0.437500 0.187500
vt 0.437500 0.625000
vt 0.437500 0.125000
vt 0.437500 0.562500
vt 0.437500 0.062500
vt 0.437500 0.500000
vt 0.453125 1.000000
vt 0.437500 0.937500
vt 0.453125 0.000000
vt 0.437500 0.437500
vt 0.406250 0.125000
vt 0.406250 0.625000
vt 0.406250 0.562500
vt 0.406250 0.062500
vt 0.406250 0.500000
vt 0.421875 1.000000
vt 0.406250 0.937500
vt 0.421875 0.000000
vt 0.406250 0.437500
vt 0.406250 0.875000
vt 0.406250 0.375000
vt 0.406250 0.812500
vt 0.406250 0.312500
vt 0.406250 0.750000
vt 0.406250 0.250000
vt 0.406250 0.687500
vt 0.406250 0.187500
vt 0.375000 0.375000
vt 0.375000 0.312500
vt 0.375000 0.750000
vt 0.375000 0.250000
vt 0.375000 0.687500
vt 0.375000 0.187500
vt 0.375000 0.625000
vt 0.375000 0.125000
vt 0.375000 0.562500
vt 0.375000 0.062500
vt 0.375000 0.500000
vt 0.390625 1.000000
vt 0.375000 0.937500
vt 0.390625 0.000000
vt 0.375000 0.437500
vt 0.375000 0.875000
vt 0.375000 0.812500
vt 0.343750 0.062500
vt 0.343750 0.562500
vt 0.343750 0.500000
vt 0.359375 1.000000
vt 0.343750 0.937500
vt 0.359375 0.000000
vt 0.343750 0.437500
vt 0.343750 0.875000
vt 0.343750 0.375000
vt 0.343750 0.812500
vt 0.343750 0.312500
vt 0.343750 0.750000
vt 0.343750 0.250000
vt 0.343750 0.687500
vt 0.343750 0.187500
vt 0.343750 0.625000
vt 0.343750 0.125000
vt 0.312500 0.750000
vt 0.312500 0.250000
vt 0.312500 0.687500
vt 0.312500 0.187500
vt 0.312500 0.625000
vt 0.312500 0.125000
vt 0.312500 0.562500
vt 0.312500 0.062500
vt 0.312500 0.500000
vt 0.328125 1.000000
vt 0.312500 0.937500
vt 0.328125 0.000000
vt 0.312500 0.437500
vt 0.312500 0.875000
vt 0.312500 0.375000
vt 0.312500 0.812500
vt 0.312500 0.312500
vt 0.281250 0.562500
vt 0.281250 0.500000
vt 0.296875 1.000000
vt 0.281250 0.937500
vt 0.296875 0.000000
vt 0.281250 0.062500
vt 0.281250 0.437500
vt 0.281250 0.875000
vt 0.281250 0.375000
vt 0.281250 0.812500
vt 0.281250 0.312500
vt 0.281250 0.750000
vt 0.281250 0.250000
vt 0.281250 0.687500
vt 0.281250 0.187500
vt 0.281250 0.625000
vt 0.281250 0.125000
vt 0.250000 0.250000
vt 0.250000 0.750000
vt 0.250000 0.687500
vt 0.250000 0.187500
vt 0.250000 0.625000
vt 0.250000 0.125000
vt 0.250000 0.562500
vt 0.250000 0.062500
vt 0.250000 0.500000
vt 0.265625 1.000000
vt 0.250000 0.937500
vt 0.265625 0.000000
vt 0.250000 0.437500
vt 0.250000 0.875000
vt 0.250000 0.375000
vt 0.250000 0.812500
vt 0.250000 0.312500
vt 0.234375 1.000000
vt 0.218750 0.937500
vt 0.234375 0.000000
vt 0.218750 0.062500
vt 0.218750 0.437500
vt 0.218750 0.875000
vt 0.218750 0.375000
vt 0.218750 0.812500
vt 0.218750 0.312500
vt 0.218750 0.750000
vt 0.218750 0.250000
vt 0.218750 0.687500
vt 0.218750 0.187500
vt 0.218750 0.625000
vt 0.218750 0.125000
vt 0.218750 0.562500
vt 0.218750 0.500000
vt 0.187500 0.750000
vt 0.187500 0.687500
vt 0.187500 0.250000
vt 0.187500 0.187500
vt 0.187500 0.625000
vt 0.187500 0.125000
vt 0.187500 0.562500
vt 0.187500 0.062500
vt 0.187500 0.500000
vt 0.203125 1.000000
vt 0.187500 0.937500
vt 0.203125 0.000000
vt 0.187500 0.437500
vt 0.187500 0.875000
vt 0.187500 0.375000
vt 0.187500 0.812500
vt 0.187500 0.312500
vt 0.156250 0.437500
vt 0.156250 0.937500
vt 0.156250 0.875000
vt 0.156250 0.375000
vt 0.156250 0.812500
vt 0.156250 0.312500
vt 0.156250 0.750000
vt 0.156250 0.250000
vt 0.156250 0.687500
vt 0.156250 0.187500
vt 0.156250 0.625000
vt 0.156250 0.125000
vt 0.156250 0.562500
vt 0.156250 0.062500
vt 0.156250 0.500000
vt 0.171875 1.000000
vt 0.171875 0.000000
vt 0.125000 0.250000
vt 0.125000 0.187500
vt 0.125000 0.625000
vt 0.125000 0.125000
vt 0.125000 0.562500
vt 0.125000 0.062500
vt 0.125000 0.500000
vt 0.140625 1.000000
vt 0.125000 0.937500
vt 0.140625 0.000000
vt 0.125000 0.437500
vt 0.125000 0.875000
vt 0.125000 0.375000
vt 0.125000 0.812500
vt 0.125000 0.312500
vt 0.125000 0.750000
vt 0.125000 0.687500
vt 0.093750 0.375000
vt 0.093750 0.812500
vt 0.093750 0.312500
vt 0.093750 0.750000
vt 0.093750 0.250000
vt 0.093750 0.687500
vt 0.093750 0.187500
vt 0.093750 0.625000
vt 0.093750 0.125000
vt 0.093750 0.562500
vt 0.093750 0.062500
vt 0.093750 0.500000
vt 0.109375 1.000000
vt 0.093750 0.937500
vt 0.109375 0.000000
vt 0.093750 0.437500
vt 0.093750 0.875000
vt 0.062500 0.125000
vt 0.062500 0.625000
vt 0.062500 0.562500
vt 0.062500 0.062500
vt 0.062500 0.500000
vt 0.078125 1.000000
vt 0.062500 0.937500
vt 0.078125 0.000000
vt 0.062500 0.437500
vt 0.062500 0.875000
vt 0.062500 0.375000
vt 0.062500 0.812500
vt 0.062500 0.312500
vt 0.062500 0.750000
vt 0.062500 0.250000
vt 0.062500 0.687500
vt 0.062500 0.187500
vt 0.031250 0.812500
vt 0.031250 0.375000
vt 0.031250 0.312500
vt 0.031250 0.750000
vt 0.031250 0.250000
vt 0.031250 0.687500
vt 0.031250 0.187500
vt 0.031250 0.625000
vt 0.031250 0.125000
vt 0.031250 0.562500
vt 0.031250 0.062500
vt 0.031250 0.500000
vt 0.046875 1.000000
vt 0.031250 0.937500
vt 0.046875 0.000000
vt 0.031250 0.437500
vt 0.031250 0.875000
vt 0.000000 0.625000
vt 0.000000 0.562500
vt 0.000000 0.062500
vt 0.000000 0.500000
vt 0.015625 1.000000
vt 0.000000 0.937500
vt 0.015625 0.000000
vt 0.000000 0.437500
vt 0.000000 0.875000
vt 0.000000 0.375000
vt 0.000000 0.812500
vt 0.000000 0.312500
vt 0.000000 0.750000
vt 0.000000 0.250000
vt 0.000000 0.687500
vt 0.000000 0.187500
vt 0.000000 0.125000
vt 1.000000 0.312500
vt 0.968750 0.375000
vt 0.968750 0.312500
vt 1.000000 0.812500
vt 0.968750 0.750000
vt 1.000000 0.750000
vt 0.968750 0.250000
vt 1.000000 0.250000
vt 1.000000 0.687500
vt 0.968750 0.687500
vt 1.000000 0.187500
vt 0.968750 0.187500
vt 0.968750 0.625000
vt 1.000000 0.625000
vt 0.968750 0.125000
vt 1.000000 0.125000
vt 1.000000 0.562500
vt 0.968750 0.562500
vt 0.968750 0.062500
vt 1.000000 0.062500
vt 1.000000 0.500000
vt 0.968750 0.500000
vt 1.000000 0.937500
vt 0.984375 1.000000
vt 0.968750 0.937500
vt 0.984375 0.000000
vt 0.968750 0.437500
vt 1.000000 0.437500
vt 0.968750 0.875000
vt 1.000000 0.875000
vt 1.000000 0.375000
vt 0.968750 0.812500
vt 0.937500 0.062500
vt 0.937500 0.562500
vt 0.937500 0.500000
vt 0.953125 1.000000
vt 0.937500 0.937500
vt 0.953125 0.000000
vt 0.937500 0.437500
vt 0.937500 0.875000
vt 0.937500 0.375000
vt 0.937500 0.812500
vt 0.937500 0.312500
vt 0.937500 0.750000
vt 0.937500 0.250000
vt 0.937500 0.687500
vt 0.937500 0.187500
vt 0.937500 0.625000
vt 0.937500 0.125000
vt 0.906250 0.750000
vt 0.906250 0.250000
vt 0.906250 0.687500
vt 0.906250 0.187500
vt 0.906250 0.625000
vt 0.906250 0.125000
vt 0.906250 0.562500
vt 0.906250 0.062500
vt 0.906250 0.500000
vt 0.921875 1.000000
vt 0.906250 0.937500
vt 0.921875 0.000000
vt 0.906250 0.437500
vt 0.906250 0.875000
vt 0.906250 0.375000
vt 0.906250 0.812500
vt 0.906250 0.312500
vt 0.875000 0.562500
vt 0.875000 0.500000
vt 0.890625 1.000000
vt 0.875000 0.937500
vt 0.890625 0.000000
vt 0.875000 0.062500
vt 0.875000 0.437500
vt 0.875000 0.875000
vt 0.875000 0.375000
vt 0.875000 0.812500
vt 0.875000 0.312500
vt 0.875000 0.750000
vt 0.875000 0.250000
vt 0.875000 0.687500
vt 0.875000 0.187500
vt 0.875000 0.625000
vt 0.875000 0.125000
vt 0.843750 0.250000
vt 0.843750 0.750000
vt 0.843750 0.687500
vt 0.843750 0.187500
vt 0.843750 0.625000
vt 0.843750 0.125000
vt 0.843750 0.562500
vt 0.843750 0.062500
vt 0.843750 0.500000
vt 0.859375 1.000000
vt 0.843750 0.937500
vt 0.859375 0.000000
vt 0.843750 0.437500
vt 0.843750 0.875000
vt 0.843750 0.375000
vt 0.843750 0.812500
vt 0.843750 0.312500
vt 0.828125 0.000000
vt 0.812500 0.062500
vt 0.812500 0.437500
vt 0.812500 0.937500
vt 0.812500 0.875000
vt 0.812500 0.375000
vt 0.812500 0.812500
vt 0.812500 0.312500
vt 0.812500 0.750000
vt 0.812500 0.250000
vt 0.812500 0.687500
vt 0.812500 0.187500
vt 0.812500 0.625000
vt 0.812500 0.125000
vt 0.812500 0.562500
vt 0.812500 0.500000
vt 0.828125 1.000000
vt 0.781250 0.250000
vt 0.781250 0.187500
vt 0.781250 0.625000
vt 0.781250 0.125000
vt 0.781250 0.562500
vt 0.781250 0.062500
vt 0.781250 0.500000
vt 0.796875 1.000000
vt 0.781250 0.937500
vt 0.796875 0.000000
vt 0.781250 0.437500
vt 0.781250 0.875000
vt 0.781250 0.375000
vt 0.781250 0.812500
vt 0.781250 0.312500
vt 0.781250 0.750000
vt 0.781250 0.687500
vt 0.765625 1.000000
vt 0.765625 0.000000
s 0
f 5/1/1 17/2/1 6/3/1
f 475/4/2 9/5/2 10/6/2
f 6/3/3 18/7/3 478/8/3
f 2/9/4 10/6/4 11/10/4
f 478/8/5 19/11/5 7/12/5
f 476/13/6 11/10/6 12/14/6
f 7/12/7 20/15/7 479/16/7
f 3/17/8 12/14/8 13/18/8
f 479/16/9 21/19/9 480/20/9
f 477/21/10 13/18/10 14/22/10
f 480/20/11 22/23/11 481/24/11
f 4/25/12 14/22/12 15/26/12
f 481/24/13 23/27/13 482/28/13
f 4/25/14 16/29/14 5/1/14
f 474/30/15 1/31/15 9/5/15
f 8/32/16 482/28/16 23/27/16
f 22/23/17 38/33/17 23/27/17
f 15/26/18 31/34/18 16/29/18
f 9/5/19 1/35/19 24/36/19
f 8/37/20 23/27/20 38/33/20
f 16/29/21 32/38/21 17/2/21
f 9/5/22 25/39/22 10/6/22
f 17/2/23 33/40/23 18/7/23
f 10/6/24 26/41/24 11/10/24
f 18/7/25 34/42/25 19/11/25
f 11/10/26 27/43/26 12/14/26
f 19/11/27 35/44/27 20/15/27
f 12/14/28 28/45/28 13/18/28
f 21/19/29 35/44/29 36/46/29
f 13/18/30 29/47/30 14/22/30
f 22/23/31 36/46/31 37/48/31
f 15/26/32 29/47/32 30/49/32
f 35/44/33 49/50/33 50/51/33
f 27/43/34 43/52/34 28/45/34
f 36/46/35 50/51/35 51/53/35
f 28/45/36 44/54/36 29/47/36
f 36/46/37 52/55/37 37/48/37
f 29/47/38 45/56/38 30/49/38
f 37/48/39 53/57/39 38/33/39
f 30/49/40 46/58/40 31/34/40
f 24/36/41 1/59/41 39/60/41
f 8/61/42 38/33/42 53/57/42
f 32/38/43 46/58/43 47/62/43
f 24/36/44 40/63/44 25/39/44
f 32/38/45 48/64/45 33/40/45
f 25/39/46 41/65/46 26/41/46
f 34/42/47 48/64/47 49/50/47
f 26/41/48 42/66/48 27/43/48
f 39/60/49 1/67/49 54/68/49
f 8/69/50 53/57/50 68/70/50
f 46/58/51 62/71/51 47/62/51
f 39/60/52 55/72/52 40/63/52
f 47/62/53 63/73/53 48/64/53
f 40/63/54 56/74/54 41/65/54
f 49/50/55 63/73/55 64/75/55
f 41/65/56 57/76/56 42/66/56
f 49/50/57 65/77/57 50/51/57
f 42/66/58 58/78/58 43/52/58
f 50/51/59 66/79/59 51/53/59
f 43/52/60 59/80/60 44/54/60
f 51/53/61 67/81/61 52/55/61
f 45/56/62 59/80/62 60/82/62
f 52/55/63 68/70/63 53/57/63
f 46/58/64 60/82/64 61/83/64
f 58/78/65 72/84/65 73/85/65
f 65/77/66 81/86/66 66/79/66
f 58/78/67 74/87/67 59/80/67
f 67/81/68 81/86/68 82/88/68
f 60/82/69 74/87/69 75/89/69
f 67/81/70 83/90/70 68/70/70
f 61/83/71 75/89/71 76/91/71
f 54/68/72 1/92/72 69/93/72
f 8/94/73 68/70/73 83/90/73
f 61/83/74 77/95/74 62/71/74
f 54/68/75 70/96/75 55/72/75
f 62/71/76 78/97/76 63/73/76
f 55/72/77 71/98/77 56/74/77
f 64/75/78 78/97/78 79/99/78
f 56/74/79 72/84/79 57/76/79
f 64/75/80 80/100/80 65/77/80
f 76/91/81 92/101/81 77/95/81
f 69/93/82 85/102/82 70/96/82
f 77/95/83 93/103/83 78/97/83
f 70/96/84 86/104/84 71/98/84
f 79/99/85 93/103/85 94/105/85
f 71/98/86 87/106/86 72/84/86
f 79/99/87 95/107/87 80/100/87
f 73/85/88 87/106/88 88/108/88
f 80/100/89 96/109/89 81/86/89
f 73/85/90 89/110/90 74/87/90
f 81/86/91 97/111/91 82/88/91
f 75/89/92 89/110/92 90/112/92
f 83/90/93 97/111/93 98/113/93
f 76/91/94 90/112/94 91/114/94
f 69/93/95 1/115/95 84/116/95
f 8/117/96 83/90/96 98/113/96
f 96/109/97 110/118/97 111/119/97
f 88/108/98 104/120/98 89/110/98
f 97/111/99 111/119/99 112/121/99
f 90/112/100 104/120/100 105/122/100
f 97/111/101 113/123/101 98/113/101
f 91/114/102 105/122/102 106/124/102
f 84/116/103 1/125/103 99/126/103
f 8/127/104 98/113/104 113/123/104
f 91/114/105 107/128/105 92/101/105
f 85/102/106 99/126/106 100/129/106
f 92/101/107 108/130/107 93/103/107
f 85/102/108 101/131/108 86/104/108
f 94/105/109 108/130/109 109/132/109
f 86/104/110 102/133/110 87/106/110
f 94/105/111 110/118/111 95/107/111
f 88/108/112 102/133/112 103/134/112
f 100/129/113 114/135/113 115/136/113
f 107/128/114 123/137/114 108/130/114
f 100/129/115 116/138/115 101/131/115
f 109/132/116 123/137/116 124/139/116
f 101/131/117 117/140/117 102/133/117
f 109/132/118 125/141/118 110/118/118
f 103/134/119 117/140/119 118/142/119
f 111/119/120 125/141/120 126/143/120
f 103/134/121 119/144/121 104/120/121
f 111/119/122 127/145/122 112/121/122
f 105/122/123 119/144/123 120/146/123
f 112/121/124 128/147/124 113/123/124
f 106/124/125 120/146/125 121/148/125
f 99/126/126 1/149/126 114/135/126
f 8/150/127 113/123/127 128/147/127
f 106/124/128 122/151/128 107/128/128
f 118/142/129 134/152/129 119/144/129
f 126/143/130 142/153/130 127/145/130
f 120/146/131 134/152/131 135/154/131
f 127/145/132 143/155/132 128/147/132
f 121/148/133 135/154/133 136/156/133
f 114/135/134 1/157/134 129/158/134
f 8/159/135 128/147/135 143/155/135
f 121/148/136 137/160/136 122/151/136
f 114/135/137 130/161/137 115/136/137
f 122/151/138 138/162/138 123/137/138
f 115/136/139 131/163/139 116/138/139
f 124/139/140 138/162/140 139/164/140
f 116/138/141 132/165/141 117/140/141
f 124/139/142 140/166/142 125/141/142
f 118/142/143 132/165/143 133/167/143
f 126/143/144 140/166/144 141/168/144
f 137/160/145 153/169/145 138/162/145
f 131/163/146 145/170/146 146/171/146
f 139/164/147 153/169/147 154/172/147
f 131/163/148 147/173/148 132/165/148
f 139/164/149 155/174/149 140/166/149
f 133/167/150 147/173/150 148/175/150
f 141/168/151 155/174/151 156/176/151
f 133/167/152 149/177/152 134/152/152
f 141/168/153 157/178/153 142/153/153
f 135/154/154 149/177/154 150/179/154
f 143/155/155 157/178/155 158/180/155
f 136/156/156 150/179/156 151/181/156
f 129/158/157 1/182/157 144/183/157
f 8/184/158 143/155/158 158/180/158
f 136/156/159 152/185/159 137/160/159
f 129/158/160 145/170/160 130/161/160
f 156/176/161 172/186/161 157/178/161
f 150/179/162 164/187/162 165/188/162
f 157/178/163 173/189/163 158/180/163
f 151/181/164 165/188/164 166/190/164
f 144/183/165 1/191/165 159/192/165
f 8/193/166 158/180/166 173/189/166
f 151/181/167 167/194/167 152/185/167
f 144/183/168 160/195/168 145/170/168
f 152/185/169 168/196/169 153/169/169
f 146/171/170 160/195/170 161/197/170
f 154/172/171 168/196/171 169/198/171
f 146/171/172 162/199/172 147/173/172
f 154/172/173 170/200/173 155/174/173
f 148/175/174 162/199/174 163/201/174
f 156/176/175 170/200/175 171/202/175
f 148/175/176 164/187/176 149/177/176
f 169/198/177 183/203/177 184/204/177
f 161/197/178 177/205/178 162/199/178
f 169/198/179 185/206/179 170/200/179
f 163/201/180 177/205/180 178/207/180
f 170/200/181 186/208/181 171/202/181
f 163/201/182 179/209/182 164/187/182
f 172/186/183 186/208/183 187/210/183
f 165/188/184 179/209/184 180/211/184
f 173/189/185 187/210/185 188/212/185
f 166/190/186 180/211/186 181/213/186
f 159/192/187 1/214/187 174/215/187
f 8/216/188 173/189/188 188/212/188
f 166/190/189 182/217/189 167/194/189
f 159/192/190 175/218/190 160/195/190
f 167/194/191 183/203/191 168/196/191
f 160/195/192 176/219/192 161/197/192
f 187/210/193 203/220/193 188/212/193
f 181/213/194 195/221/194 196/222/194
f 174/215/195 1/223/195 189/224/195
f 8/225/196 188/212/196 203/220/196
f 181/213/197 197/226/197 182/217/197
f 175/218/198 189/224/198 190/227/198
f 182/217/199 198/228/199 183/203/199
f 176/219/200 190/227/200 191/229/200
f 184/204/201 198/228/201 199/230/201
f 176/219/202 192/231/202 177/205/202
f 184/204/203 200/232/203 185/206/203
f 178/207/204 192/231/204 193/233/204
f 186/208/205 200/232/205 201/234/205
f 178/207/206 194/235/206 179/209/206
f 186/208/207 202/236/207 187/210/207
f 180/211/208 194/235/208 195/221/208
f 191/229/209 207/237/209 192/231/209
f 199/230/210 215/238/210 200/232/210
f 193/233/211 207/237/211 208/239/211
f 201/234/212 215/238/212 216/240/212
f 193/233/213 209/241/213 194/235/213
f 201/234/214 217/242/214 202/236/214
f 195/221/215 209/241/215 210/243/215
f 202/236/216 218/244/216 203/220/216
f 196/222/217 210/243/217 211/245/217
f 189/224/218 1/246/218 204/247/218
f 8/248/219 203/220/219 218/244/219
f 196/222/220 212/249/220 197/226/220
f 189/224/221 205/250/221 190/227/221
f 197/226/222 213/251/222 198/228/222
f 190/227/223 206/252/223 191/229/223
f 199/230/224 213/251/224 214/253/224
f 211/245/225 225/254/225 226/255/225
f 204/247/226 1/256/226 219/257/226
f 8/258/227 218/244/227 233/259/227
f 211/245/228 227/260/228 212/249/228
f 204/247/229 220/261/229 205/250/229
f 212/249/230 228/262/230 213/251/230
f 205/250/231 221/263/231 206/252/231
f 214/253/232 228/262/232 229/264/232
f 206/252/233 222/265/233 207/237/233
f 214/253/234 230/266/234 215/238/234
f 208/239/235 222/265/235 223/267/235
f 216/240/236 230/266/236 231/268/236
f 208/239/237 224/269/237 209/241/237
f 216/240/238 232/270/238 217/242/238
f 210/243/239 224/269/239 225/254/239
f 217/242/240 233/259/240 218/244/240
f 229/264/241 245/271/241 230/266/241
f 223/267/242 237/272/242 238/273/242
f 231/268/243 245/271/243 246/274/243
f 223/267/244 239/275/244 224/269/244
f 231/268/245 247/276/245 232/270/245
f 225/254/246 239/275/246 240/277/246
f 233/259/247 247/276/247 248/278/247
f 226/255/248 240/277/248 241/279/248
f 219/257/249 1/280/249 234/281/249
f 8/282/250 233/259/250 248/278/250
f 226/255/251 242/283/251 227/260/251
f 219/257/252 235/284/252 220/261/252
f 227/260/253 243/285/253 228/262/253
f 221/263/254 235/284/254 236/286/254
f 229/264/255 243/285/255 244/287/255
f 221/263/256 237/272/256 222/265/256
f 234/281/257 1/288/257 249/289/257
f 8/290/258 248/278/258 263/291/258
f 241/279/259 257/292/259 242/283/259
f 234/281/260 250/293/260 235/284/260
f 242/283/261 258/294/261 243/285/261
f 235/284/262 251/295/262 236/286/262
f 244/287/263 258/294/263 259/296/263
f 236/286/264 252/297/264 237/272/264
f 244/287/265 260/298/265 245/271/265
f 238/273/266 252/297/266 253/299/266
f 246/274/267 260/298/267 261/300/267
f 238/273/268 254/301/268 239/275/268
f 246/274/269 262/302/269 247/276/269
f 240/277/270 254/301/270 255/303/270
f 247/276/271 263/291/271 248/278/271
f 241/279/272 255/303/272 256/304/272
f 253/299/273 267/305/273 268/306/273
f 261/300/274 275/307/274 276/308/274
f 253/299/275 269/309/275 254/301/275
f 261/300/276 277/310/276 262/302/276
f 255/303/277 269/309/277 270/311/277
f 262/302/278 278/312/278 263/291/278
f 256/304/279 270/311/279 271/313/279
f 249/289/280 1/314/280 264/315/280
f 8/316/281 263/291/281 278/312/281
f 256/304/282 272/317/282 257/292/282
f 250/293/283 264/315/283 265/318/283
f 257/292/284 273/319/284 258/294/284
f 250/293/285 266/320/285 251/295/285
f 259/296/286 273/319/286 274/321/286
f 251/295/287 267/305/287 252/297/287
f 259/296/288 275/307/288 260/298/288
f 271/313/289 287/322/289 272/317/289
f 265/318/290 279/323/290 280/324/290
f 272/317/291 288/325/291 273/319/291
f 265/318/292 281/326/292 266/320/292
f 274/321/293 288/325/293 289/327/293
f 266/320/294 282/328/294 267/305/294
f 274/321/295 290/329/295 275/307/295
f 268/306/296 282/328/296 283/330/296
f 276/308/297 290/329/297 291/331/297
f 268/306/298 284/332/298 269/309/298
f 276/308/299 292/333/299 277/310/299
f 270/311/300 284/332/300 285/334/300
f 278/312/301 292/333/301 293/335/301
f 271/313/302 285/334/302 286/336/302
f 264/315/303 1/337/303 279/323/303
f 8/338/304 278/312/304 293/335/304
f 291/331/305 305/339/305 306/340/305
f 283/330/306 299/341/306 284/332/306
f 291/331/307 307/342/307 292/333/307
f 285/334/308 299/341/308 300/343/308
f 293/335/309 307/342/309 308/344/309
f 286/336/310 300/343/310 301/345/310
f 279/323/311 1/346/311 294/347/311
f 8/348/312 293/335/312 308/344/312
f 286/336/313 302/349/313 287/322/313
f 279/323/314 295/350/314 280/324/314
f 287/322/315 303/351/315 288/325/315
f 280/324/316 296/352/316 281/326/316
f 289/327/317 303/351/317 304/353/317
f 281/326/318 297/354/318 282/328/318
f 289/327/319 305/339/319 290/329/319
f 283/330/320 297/354/320 298/355/320
f 302/349/321 318/356/321 303/351/321
f 295/350/322 311/357/322 296/352/322
f 304/353/323 318/356/323 319/358/323
f 296/352/324 312/359/324 297/354/324
f 304/353/325 320/360/325 305/339/325
f 298/355/326 312/359/326 313/361/326
f 306/340/327 320/360/327 321/362/327
f 298/355/328 314/363/328 299/341/328
f 306/340/329 322/364/329 307/342/329
f 300/343/330 314/363/330 315/365/330
f 307/342/331 323/366/331 308/344/331
f 301/345/332 315/365/332 316/367/332
f 294/347/333 1/368/333 309/369/333
f 8/370/334 308/344/334 323/366/334
f 301/345/335 317/371/335 302/349/335
f 294/347/336 310/372/336 295/350/336
f 321/362/337 337/373/337 322/364/337
f 315/365/338 329/374/338 330/375/338
f 322/364/339 338/376/339 323/366/339
f 316/367/340 330/375/340 331/377/340
f 309/369/341 1/378/341 324/379/341
f 8/380/342 323/366/342 338/376/342
f 316/367/343 332/381/343 317/371/343
f 309/369/344 325/382/344 310/372/344
f 317/371/345 333/383/345 318/356/345
f 310/372/346 326/384/346 311/357/346
f 319/358/347 333/383/347 334/385/347
f 311/357/348 327/386/348 312/359/348
f 319/358/349 335/387/349 320/360/349
f 312/359/350 328/388/350 313/361/350
f 321/362/351 335/387/351 336/389/351
f 313/361/352 329/374/352 314/363/352
f 325/382/353 341/390/353 326/384/353
f 334/385/354 348/391/354 349/392/354
f 326/384/355 342/393/355 327/386/355
f 334/385/356 350/394/356 335/387/356
f 328/388/357 342/393/357 343/395/357
f 336/389/358 350/394/358 351/396/358
f 328/388/359 344/397/359 329/374/359
f 336/389/360 352/398/360 337/373/360
f 330/375/361 344/397/361 345/399/361
f 337/373/362 353/400/362 338/376/362
f 331/377/363 345/399/363 346/401/363
f 324/379/364 1/402/364 339/403/364
f 8/404/365 338/376/365 353/400/365
f 331/377/366 347/405/366 332/381/366
f 324/379/367 340/406/367 325/382/367
f 332/381/368 348/391/368 333/383/368
f 345/399/369 359/407/369 360/408/369
f 352/398/370 368/409/370 353/400/370
f 346/401/371 360/408/371 361/410/371
f 339/403/372 1/411/372 354/412/372
f 8/413/373 353/400/373 368/409/373
f 346/401/374 362/414/374 347/405/374
f 339/403/375 355/415/375 340/406/375
f 347/405/376 363/416/376 348/391/376
f 341/390/377 355/415/377 356/417/377
f 349/392/378 363/416/378 364/418/378
f 341/390/379 357/419/379 342/393/379
f 349/392/380 365/420/380 350/394/380
f 343/395/381 357/419/381 358/421/381
f 351/396/382 365/420/382 366/422/382
f 343/395/383 359/407/383 344/397/383
f 351/396/384 367/423/384 352/398/384
f 364/424/385 378/425/385 379/426/385
f 356/427/386 372/428/386 357/429/386
f 364/424/387 380/430/387 365/431/387
f 358/432/388 372/428/388 373/433/388
f 366/434/389 380/430/389 381/435/389
f 358/432/390 374/436/390 359/437/390
f 366/434/391 382/438/391 367/439/391
f 360/440/392 374/436/392 375/441/392
f 367/439/393 383/442/393 368/443/393
f 361/444/394 375/441/394 376/445/394
f 354/446/395 1/447/395 369/448/395
f 8/449/396 368/443/396 383/442/396
f 361/444/397 377/450/397 362/451/397
f 354/446/398 370/452/398 355/453/398
f 362/451/399 378/425/399 363/454/399
f 356/427/400 370/452/400 371/455/400
f 382/438/401 398/456/401 383/442/401
f 376/445/402 390/457/402 391/458/402
f 369/448/403 1/459/403 384/460/403
f 8/461/404 383/442/404 398/456/404
f 376/445/405 392/462/405 377/450/405
f 369/448/406 385/463/406 370/452/406
f 377/450/407 393/464/407 378/425/407
f 371/455/408 385/463/408 386/465/408
f 379/426/409 393/464/409 394/466/409
f 371/455/410 387/467/410 372/428/410
f 379/426/411 395/468/411 380/430/411
f 373/433/412 387/467/412 388/469/412
f 381/435/413 395/468/413 396/470/413
f 373/433/414 389/471/414 374/436/414
f 381/435/415 397/472/415 382/438/415
f 375/441/416 389/471/416 390/457/416
f 386/465/417 402/473/417 387/467/417
f 394/466/418 410/474/418 395/468/418
f 388/469/419 402/473/419 403/475/419
f 396/470/420 410/474/420 411/476/420
f 388/469/421 404/477/421 389/471/421
f 397/472/422 411/476/422 412/478/422
f 390/457/423 404/477/423 405/479/423
f 397/472/424 413/480/424 398/456/424
f 391/458/425 405/479/425 406/481/425
f 384/460/426 1/482/426 399/483/426
f 8/484/427 398/456/427 413/480/427
f 391/458/428 407/485/428 392/462/428
f 385/463/429 399/483/429 400/486/429
f 392/462/430 408/487/430 393/464/430
f 385/463/431 401/488/431 386/465/431
f 394/466/432 408/487/432 409/489/432
f 406/481/433 420/490/433 421/491/433
f 399/483/434 1/492/434 414/493/434
f 8/494/435 413/480/435 428/495/435
f 406/481/436 422/496/436 407/485/436
f 399/483/437 415/497/437 400/486/437
f 407/485/438 423/498/438 408/487/438
f 401/488/439 415/497/439 416/499/439
f 409/489/440 423/498/440 424/500/440
f 401/488/441 417/501/441 402/473/441
f 409/489/442 425/502/442 410/474/442
f 403/475/443 417/501/443 418/503/443
f 411/476/444 425/502/444 426/504/444
f 403/475/445 419/505/445 404/477/445
f 411/476/446 427/506/446 412/478/446
f 405/479/447 419/505/447 420/490/447
f 412/478/448 428/495/448 413/480/448
f 424/500/449 440/507/449 425/502/449
f 418/503/450 432/508/450 433/509/450
f 426/504/451 440/507/451 441/510/451
f 418/503/452 434/511/452 419/505/452
f 426/504/453 442/512/453 427/506/453
f 420/490/454 434/511/454 435/513/454
f 427/506/455 443/514/455 428/495/455
f 421/491/456 435/513/456 436/515/456
f 414/493/457 1/516/457 429/517/457
f 8/518/458 428/495/458 443/514/458
f 421/491/459 437/519/459 422/496/459
f 414/493/460 430/520/460 415/497/460
f 422/496/461 438/521/461 423/498/461
f 416/499/462 430/520/462 431/522/462
f 424/500/463 438/521/463 439/523/463
f 416/499/464 432/508/464 417/501/464
f 8/524/465 443/514/465 458/525/465
f 436/515/466 452/526/466 437/519/466
f 430/520/467 444/527/467 445/528/467
f 437/519/468 453/529/468 438/521/468
f 430/520/469 446/530/469 431/522/469
f 439/523/470 453/529/470 454/531/470
f 431/522/471 447/532/471 432/508/471
f 439/523/472 455/533/472 440/507/472
f 433/509/473 447/532/473 448/534/473
f 441/510/474 455/533/474 456/535/474
f 433/509/475 449/536/475 434/511/475
f 441/510/476 457/537/476 442/512/476
f 435/513/477 449/536/477 450/538/477
f 442/512/478 458/525/478 443/514/478
f 436/515/479 450/538/479 451/539/479
f 429/517/480 1/540/480 444/527/480
f 456/535/481 470/541/481 471/542/481
f 448/534/482 464/543/482 449/536/482
f 456/535/483 472/544/483 457/537/483
f 450/538/484 464/543/484 465/545/484
f 458/525/485 472/544/485 473/546/485
f 451/539/486 465/545/486 466/547/486
f 444/527/487 1/548/487 459/549/487
f 8/550/488 458/525/488 473/546/488
f 451/539/489 467/551/489 452/526/489
f 444/527/490 460/552/490 445/528/490
f 452/526/491 468/553/491 453/529/491
f 446/530/492 460/552/492 461/554/492
f 454/531/493 468/553/493 469/555/493
f 446/530/494 462/556/494 447/532/494
f 454/531/495 470/541/495 455/533/495
f 448/534/496 462/556/496 463/557/496
f 460/552/497 474/30/497 475/4/497
f 467/551/498 478/8/498 468/553/498
f 461/554/499 475/4/499 2/9/499
f 468/553/500 7/12/500 469/555/500
f 462/556/501 2/9/501 476/13/501
f 469/555/502 479/16/502 470/541/502
f 463/557/503 476/13/503 3/17/503
f 471/542/504 479/16/504 480/20/504
f 464/543/505 3/17/505 477/21/505
f 471/542/506 481/24/506 472/544/506
f 465/545/507 477/21/507 4/25/507
f 472/544/508 482/28/508 473/546/508
f 466/547/509 4/25/509 5/1/509
f 459/549/510 1/558/510 474/30/510
f 8/559/511 473/546/511 482/28/511
f 466/547/512 6/3/512 467/551/512
f 5/1/513 16/29/513 17/2/513
f 475/4/2 474/30/2 9/5/2
f 6/3/3 17/2/3 18/7/3
f 2/9/4 475/4/4 10/6/4
f 478/8/5 18/7/5 19/11/5
f 476/13/6 2/9/6 11/10/6
f 7/12/7 19/11/7 20/15/7
f 3/17/8 476/13/8 12/14/8
f 479/16/9 20/15/9 21/19/9
f 477/21/10 3/17/10 13/18/10
f 480/20/11 21/19/11 22/23/11
f 4/25/12 477/21/12 14/22/12
f 481/24/13 22/23/13 23/27/13
f 4/25/514 15/26/514 16/29/514
f 22/23/17 37/48/17 38/33/17
f 15/26/18 30/49/18 31/34/18
f 16/29/21 31/34/21 32/38/21
f 9/5/22 24/36/22 25/39/22
f 17/2/23 32/38/23 33/40/23
f 10/6/24 25/39/24 26/41/24
f 18/7/25 33/40/25 34/42/25
f 11/10/26 26/41/26 27/43/26
f 19/11/27 34/42/27 35/44/27
f 12/14/28 27/43/28 28/45/28
f 21/19/29 20/15/29 35/44/29
f 13/18/30 28/45/30 29/47/30
f 22/23/31 21/19/31 36/46/31
f 15/26/32 14/22/32 29/47/32
f 35/44/33 34/42/33 49/50/33
f 27/43/34 42/66/34 43/52/34
f 36/46/35 35/44/35 50/51/35
f 28/45/36 43/52/36 44/54/36
f 36/46/515 51/53/515 52/55/515
f 29/47/38 44/54/38 45/56/38
f 37/48/39 52/55/39 53/57/39
f 30/49/40 45/56/40 46/58/40
f 32/38/43 31/34/43 46/58/43
f 24/36/44 39/60/44 40/63/44
f 32/38/45 47/62/45 48/64/45
f 25/39/516 40/63/516 41/65/516
f 34/42/47 33/40/47 48/64/47
f 26/41/48 41/65/48 42/66/48
f 46/58/51 61/83/51 62/71/51
f 39/60/52 54/68/52 55/72/52
f 47/62/53 62/71/53 63/73/53
f 40/63/54 55/72/54 56/74/54
f 49/50/55 48/64/55 63/73/55
f 41/65/56 56/74/56 57/76/56
f 49/50/57 64/75/57 65/77/57
f 42/66/58 57/76/58 58/78/58
f 50/51/59 65/77/59 66/79/59
f 43/52/60 58/78/60 59/80/60
f 51/53/61 66/79/61 67/81/61
f 45/56/62 44/54/62 59/80/62
f 52/55/63 67/81/63 68/70/63
f 46/58/64 45/56/64 60/82/64
f 58/78/65 57/76/65 72/84/65
f 65/77/66 80/100/66 81/86/66
f 58/78/67 73/85/67 74/87/67
f 67/81/68 66/79/68 81/86/68
f 60/82/69 59/80/69 74/87/69
f 67/81/517 82/88/517 83/90/517
f 61/83/71 60/82/71 75/89/71
f 61/83/74 76/91/74 77/95/74
f 54/68/75 69/93/75 70/96/75
f 62/71/76 77/95/76 78/97/76
f 55/72/77 70/96/77 71/98/77
f 64/75/78 63/73/78 78/97/78
f 56/74/79 71/98/79 72/84/79
f 64/75/80 79/99/80 80/100/80
f 76/91/81 91/114/81 92/101/81
f 69/93/82 84/116/82 85/102/82
f 77/95/83 92/101/83 93/103/83
f 70/96/84 85/102/84 86/104/84
f 79/99/85 78/97/85 93/103/85
f 71/98/86 86/104/86 87/106/86
f 79/99/87 94/105/87 95/107/87
f 73/85/88 72/84/88 87/106/88
f 80/100/89 95/107/89 96/109/89
f 73/85/90 88/108/90 89/110/90
f 81/86/91 96/109/91 97/111/91
f 75/89/92 74/87/92 89/110/92
f 83/90/93 82/88/93 97/111/93
f 76/91/94 75/89/94 90/112/94
f 96/109/97 95/107/97 110/118/97
f 88/108/98 103/134/98 104/120/98
f 97/111/99 96/109/99 111/119/99
f 90/112/100 89/110/100 104/120/100
f 97/111/101 112/121/101 113/123/101
f 91/114/102 90/112/102 105/122/102
f 91/114/105 106/124/105 107/128/105
f 85/102/106 84/116/106 99/126/106
f 92/101/107 107/128/107 108/130/107
f 85/102/108 100/129/108 101/131/108
f 94/105/109 93/103/109 108/130/109
f 86/104/110 101/131/110 102/133/110
f 94/105/111 109/132/111 110/118/111
f 88/108/112 87/106/112 102/133/112
f 100/129/113 99/126/113 114/135/113
f 107/128/114 122/151/114 123/137/114
f 100/129/115 115/136/115 116/138/115
f 109/132/116 108/130/116 123/137/116
f 101/131/117 116/138/117 117/140/117
f 109/132/118 124/139/118 125/141/118
f 103/134/119 102/133/119 117/140/119
f 111/119/120 110/118/120 125/141/120
f 103/134/121 118/142/121 119/144/121
f 111/119/122 126/143/122 127/145/122
f 105/122/123 104/120/123 119/144/123
f 112/121/124 127/145/124 128/147/124
f 106/124/125 105/122/125 120/146/125
f 106/124/128 121/148/128 122/151/128
f 118/142/129 133/167/129 134/152/129
f 126/143/130 141/168/130 142/153/130
f 120/146/131 119/144/131 134/152/131
f 127/145/132 142/153/132 143/155/132
f 121/148/133 120/146/133 135/154/133
f 121/148/136 136/156/136 137/160/136
f 114/135/137 129/158/137 130/161/137
f 122/151/138 137/160/138 138/162/138
f 115/136/139 130/161/139 131/163/139
f 124/139/140 123/137/140 138/162/140
f 116/138/141 131/163/141 132/165/141
f 124/139/142 139/164/142 140/166/142
f 118/142/143 117/140/143 132/165/143
f 126/143/144 125/141/144 140/166/144
f 137/160/145 152/185/145 153/169/145
f 131/163/146 130/161/146 145/170/146
f 139/164/147 138/162/147 153/169/147
f 131/163/148 146/171/148 147/173/148
f 139/164/149 154/172/149 155/174/149
f 133/167/150 132/165/150 147/173/150
f 141/168/151 140/166/151 155/174/151
f 133/167/152 148/175/152 149/177/152
f 141/168/153 156/176/153 157/178/153
f 135/154/154 134/152/154 149/177/154
f 143/155/155 142/153/155 157/178/155
f 136/156/156 135/154/156 150/179/156
f 136/156/159 151/181/159 152/185/159
f 129/158/160 144/183/160 145/170/160
f 156/176/518 171/202/518 172/186/518
f 150/179/162 149/177/162 164/187/162
f 157/178/163 172/186/163 173/189/163
f 151/181/164 150/179/164 165/188/164
f 151/181/167 166/190/167 167/194/167
f 144/183/168 159/192/168 160/195/168
f 152/185/169 167/194/169 168/196/169
f 146/171/519 145/170/519 160/195/519
f 154/172/171 153/169/171 168/196/171
f 146/171/172 161/197/172 162/199/172
f 154/172/173 169/198/173 170/200/173
f 148/175/174 147/173/174 162/199/174
f 156/176/175 155/174/175 170/200/175
f 148/175/176 163/201/176 164/187/176
f 169/198/177 168/196/177 183/203/177
f 161/197/178 176/219/178 177/205/178
f 169/198/179 184/204/179 185/206/179
f 163/201/180 162/199/180 177/205/180
f 170/200/181 185/206/181 186/208/181
f 163/201/182 178/207/182 179/209/182
f 172/186/183 171/202/183 186/208/183
f 165/188/184 164/187/184 179/209/184
f 173/189/185 172/186/185 187/210/185
f 166/190/186 165/188/186 180/211/186
f 166/190/189 181/213/189 182/217/189
f 159/192/190 174/215/190 175/218/190
f 167/194/191 182/217/191 183/203/191
f 160/195/192 175/218/192 176/219/192
f 187/210/193 202/236/193 203/220/193
f 181/213/194 180/211/194 195/221/194
f 181/213/197 196/222/197 197/226/197
f 175/218/198 174/215/198 189/224/198
f 182/217/199 197/226/199 198/228/199
f 176/219/200 175/218/200 190/227/200
f 184/204/201 183/203/201 198/228/201
f 176/219/202 191/229/202 192/231/202
f 184/204/203 199/230/203 200/232/203
f 178/207/204 177/205/204 192/231/204
f 186/208/205 185/206/205 200/232/205
f 178/207/206 193/233/206 194/235/206
f 186/208/207 201/234/207 202/236/207
f 180/211/208 179/209/208 194/235/208
f 191/229/209 206/252/209 207/237/209
f 199/230/210 214/253/210 215/238/210
f 193/233/211 192/231/211 207/237/211
f 201/234/212 200/232/212 215/238/212
f 193/233/213 208/239/213 209/241/213
f 201/234/520 216/240/520 217/242/520
f 195/221/215 194/235/215 209/241/215
f 202/236/216 217/242/216 218/244/216
f 196/222/217 195/221/217 210/243/217
f 196/222/220 211/245/220 212/249/220
f 189/224/221 204/247/221 205/250/221
f 197/226/222 212/249/222 213/251/222
f 190/227/223 205/250/223 206/252/223
f 199/230/224 198/228/224 213/251/224
f 211/245/225 210/243/225 225/254/225
f 211/245/228 226/255/228 227/260/228
f 204/247/229 219/257/229 220/261/229
f 212/249/230 227/260/230 228/262/230
f 205/250/231 220/261/231 221/263/231
f 214/253/232 213/251/232 228/262/232
f 206/252/233 221/263/233 222/265/233
f 214/253/234 229/264/234 230/266/234
f 208/239/235 207/237/235 222/265/235
f 216/240/236 215/238/236 230/266/236
f 208/239/237 223/267/237 224/269/237
f 216/240/238 231/268/238 232/270/238
f 210/243/239 209/241/239 224/269/239
f 217/242/240 232/270/240 233/259/240
f 229/264/241 244/287/241 245/271/241
f 223/267/242 222/265/242 237/272/242
f 231/268/243 230/266/243 245/271/243
f 223/267/244 238/273/244 239/275/244
f 231/268/245 246/274/245 247/276/245
f 225/254/246 224/269/246 239/275/246
f 233/259/247 232/270/247 247/276/247
f 226/255/248 225/254/248 240/277/248
f 226/255/251 241/279/251 242/283/251
f 219/257/252 234/281/252 235/284/252
f 227/260/253 242/283/253 243/285/253
f 221/263/254 220/261/254 235/284/254
f 229/264/255 228/262/255 243/285/255
f 221/263/256 236/286/256 237/272/256
f 241/279/521 256/304/521 257/292/521
f 234/281/260 249/289/260 250/293/260
f 242/283/261 257/292/261 258/294/261
f 235/284/262 250/293/262 251/295/262
f 244/287/263 243/285/263 258/294/263
f 236/286/264 251/295/264 252/297/264
f 244/287/265 259/296/265 260/298/265
f 238/273/266 237/272/266 252/297/266
f 246/274/267 245/271/267 260/298/267
f 238/273/268 253/299/268 254/301/268
f 246/274/269 261/300/269 262/302/269
f 240/277/270 239/275/270 254/301/270
f 247/276/271 262/302/271 263/291/271
f 241/279/522 240/277/522 255/303/522
f 253/299/273 252/297/273 267/305/273
f 261/300/274 260/298/274 275/307/274
f 253/299/275 268/306/275 269/309/275
f 261/300/276 276/308/276 277/310/276
f 255/303/277 254/301/277 269/309/277
f 262/302/278 277/310/278 278/312/278
f 256/304/279 255/303/279 270/311/279
f 256/304/282 271/313/282 272/317/282
f 250/293/283 249/289/283 264/315/283
f 257/292/284 272/317/284 273/319/284
f 250/293/285 265/318/285 266/320/285
f 259/296/286 258/294/286 273/319/286
f 251/295/287 266/320/287 267/305/287
f 259/296/288 274/321/288 275/307/288
f 271/313/289 286/336/289 287/322/289
f 265/318/290 264/315/290 279/323/290
f 272/317/291 287/322/291 288/325/291
f 265/318/523 280/324/523 281/326/523
f 274/321/293 273/319/293 288/325/293
f 266/320/294 281/326/294 282/328/294
f 274/321/295 289/327/295 290/329/295
f 268/306/296 267/305/296 282/328/296
f 276/308/297 275/307/297 290/329/297
f 268/306/298 283/330/298 284/332/298
f 276/308/524 291/331/524 292/333/524
f 270/311/300 269/309/300 284/332/300
f 278/312/301 277/310/301 292/333/301
f 271/313/302 270/311/302 285/334/302
f 291/331/305 290/329/305 305/339/305
f 283/330/306 298/355/306 299/341/306
f 291/331/307 306/340/307 307/342/307
f 285/334/308 284/332/308 299/341/308
f 293/335/309 292/333/309 307/342/309
f 286/336/310 285/334/310 300/343/310
f 286/336/313 301/345/313 302/349/313
f 279/323/314 294/347/314 295/350/314
f 287/322/315 302/349/315 303/351/315
f 280/324/316 295/350/316 296/352/316
f 289/327/317 288/325/317 303/351/317
f 281/326/318 296/352/318 297/354/318
f 289/327/319 304/353/319 305/339/319
f 283/330/320 282/328/320 297/354/320
f 302/349/321 317/371/321 318/356/321
f 295/350/322 310/372/322 311/357/322
f 304/353/323 303/351/323 318/356/323
f 296/352/324 311/357/324 312/359/324
f 304/353/325 319/358/325 320/360/325
f 298/355/326 297/354/326 312/359/326
f 306/340/327 305/339/327 320/360/327
f 298/355/328 313/361/328 314/363/328
f 306/340/329 321/362/329 322/364/329
f 300/343/330 299/341/330 314/363/330
f 307/342/525 322/364/525 323/366/525
f 301/345/332 300/343/332 315/365/332
f 301/345/335 316/367/335 317/371/335
f 294/347/336 309/369/336 310/372/336
f 321/362/526 336/389/526 337/373/526
f 315/365/338 314/363/338 329/374/338
f 322/364/339 337/373/339 338/376/339
f 316/367/340 315/365/340 330/375/340
f 316/367/343 331/377/343 332/381/343
f 309/369/344 324/379/344 325/382/344
f 317/371/345 332/381/345 333/383/345
f 310/372/346 325/382/346 326/384/346
f 319/358/347 318/356/347 333/383/347
f 311/357/348 326/384/348 327/386/348
f 319/358/349 334/385/349 335/387/349
f 312/359/350 327/386/350 328/388/350
f 321/362/351 320/360/351 335/387/351
f 313/361/352 328/388/352 329/374/352
f 325/382/353 340/406/353 341/390/353
f 334/385/354 333/383/354 348/391/354
f 326/384/355 341/390/355 342/393/355
f 334/385/356 349/392/356 350/394/356
f 328/388/357 327/386/357 342/393/357
f 336/389/358 335/387/358 350/394/358
f 328/388/359 343/395/359 344/397/359
f 336/389/360 351/396/360 352/398/360
f 330/375/361 329/374/361 344/397/361
f 337/373/362 352/398/362 353/400/362
f 331/377/363 330/375/363 345/399/363
f 331/377/366 346/401/366 347/405/366
f 324/379/367 339/403/367 340/406/367
f 332/381/368 347/405/368 348/391/368
f 345/399/369 344/397/369 359/407/369
f 352/398/370 367/423/370 368/409/370
f 346/401/527 345/399/527 360/408/527
f 346/401/528 361/410/528 362/414/528
f 339/403/375 354/412/375 355/415/375
f 347/405/376 362/414/376 363/416/376
f 341/390/377 340/406/377 355/415/377
f 349/392/378 348/391/378 363/416/378
f 341/390/379 356/417/379 357/419/379
f 349/392/380 364/418/380 365/420/380
f 343/395/381 342/393/381 357/419/381
f 351/396/382 350/394/382 365/420/382
f 343/395/383 358/421/383 359/407/383
f 351/396/384 366/422/384 367/423/384
f 364/424/385 363/454/385 378/425/385
f 356/427/386 371/455/386 372/428/386
f 364/424/387 379/426/387 380/430/387
f 358/432/388 357/429/388 372/428/388
f 366/434/389 365/431/389 380/430/389
f 358/432/390 373/433/390 374/436/390
f 366/434/391 381/435/391 382/438/391
f 360/440/392 359/437/392 374/436/392
f 367/439/393 382/438/393 383/442/393
f 361/444/529 360/440/529 375/441/529
f 361/444/530 376/445/530 377/450/530
f 354/446/398 369/448/398 370/452/398
f 362/451/399 377/450/399 378/425/399
f 356/427/400 355/453/400 370/452/400
f 382/438/401 397/472/401 398/456/401
f 376/445/402 375/441/402 390/457/402
f 376/445/405 391/458/405 392/462/405
f 369/448/406 384/460/406 385/463/406
f 377/450/407 392/462/407 393/464/407
f 371/455/408 370/452/408 385/463/408
f 379/426/409 378/425/409 393/464/409
f 371/455/410 386/465/410 387/467/410
f 379/426/411 394/466/411 395/468/411
f 373/433/412 372/428/412 387/467/412
f 381/435/413 380/430/413 395/468/413
f 373/433/414 388/469/414 389/471/414
f 381/435/415 396/470/415 397/472/415
f 375/441/416 374/436/416 389/471/416
f 386/465/417 401/488/417 402/473/417
f 394/466/418 409/489/418 410/474/418
f 388/469/419 387/467/419 402/473/419
f 396/470/420 395/468/420 410/474/420
f 388/469/421 403/475/421 404/477/421
f 397/472/422 396/470/422 411/476/422
f 390/457/423 389/471/423 404/477/423
f 397/472/424 412/478/424 413/480/424
f 391/458/425 390/457/425 405/479/425
f 391/458/428 406/481/428 407/485/428
f 385/463/429 384/460/429 399/483/429
f 392/462/430 407/485/430 408/487/430
f 385/463/431 400/486/431 401/488/431
f 394/466/432 393/464/432 408/487/432
f 406/481/433 405/479/433 420/490/433
f 406/481/436 421/491/436 422/496/436
f 399/483/437 414/493/437 415/497/437
f 407/485/438 422/496/438 423/498/438
f 401/488/439 400/486/439 415/497/439
f 409/489/440 408/487/440 423/498/440
f 401/488/441 416/499/441 417/501/441
f 409/489/442 424/500/442 425/502/442
f 403/475/443 402/473/443 417/501/443
f 411/476/444 410/474/444 425/502/444
f 403/475/445 418/503/445 419/505/445
f 411/476/446 426/504/446 427/506/446
f 405/479/447 404/477/447 419/505/447
f 412/478/448 427/506/448 428/495/448
f 424/500/449 439/523/449 440/507/449
f 418/503/450 417/501/450 432/508/450
f 426/504/451 425/502/451 440/507/451
f 418/503/452 433/509/452 434/511/452
f 426/504/453 441/510/453 442/512/453
f 420/490/454 419/505/454 434/511/454
f 427/506/455 442/512/455 443/514/455
f 421/491/456 420/490/456 435/513/456
f 421/491/459 436/515/459 437/519/459
f 414/493/460 429/517/460 430/520/460
f 422/496/461 437/519/461 438/521/461
f 416/499/462 415/497/462 430/520/462
f 424/500/463 423/498/463 438/521/463
f 416/499/464 431/522/464 432/508/464
f 436/515/466 451/539/466 452/526/466
f 430/520/467 429/517/467 444/527/467
f 437/519/468 452/526/468 453/529/468
f 430/520/469 445/528/469 446/530/469
f 439/523/470 438/521/470 453/529/470
f 431/522/471 446/530/471 447/532/471
f 439/523/472 454/531/472 455/533/472
f 433/509/473 432/508/473 447/532/473
f 441/510/474 440/507/474 455/533/474
f 433/509/475 448/534/475 449/536/475
f 441/510/476 456/535/476 457/537/476
f 435/513/477 434/511/477 449/536/477
f 442/512/478 457/537/478 458/525/478
f 436/515/479 435/513/479 450/538/479
f 456/535/481 455/533/481 470/541/481
f 448/534/482 463/557/482 464/543/482
f 456/535/483 471/542/483 472/544/483
f 450/538/484 449/536/484 464/543/484
f 458/525/485 457/537/485 472/544/485
f 451/539/486 450/538/486 465/545/486
f 451/539/489 466/547/489 467/551/489
f 444/527/490 459/549/490 460/552/490
f 452/526/491 467/551/491 468/553/491
f 446/530/492 445/528/492 460/552/492
f 454/531/493 453/529/493 468/553/493
f 446/530/494 461/554/494 462/556/494
f 454/531/495 469/555/495 470/541/495
f 448/534/496 447/532/496 462/556/496
f 460/552/497 459/549/497 474/30/497
f 467/551/498 6/3/498 478/8/498
f 461/554/499 460/552/499 475/4/499
f 468/553/500 478/8/500 7/12/500
f 462/556/501 461/554/501 2/9/501
f 469/555/502 7/12/502 479/16/502
f 463/557/503 462/556/503 476/13/503
f 471/542/504 470/541/504 479/16/504
f 464/543/505 463/557/505 3/17/505
f 471/542/506 480/20/506 481/24/506
f 465/545/507 464/543/507 477/21/507
f 472/544/508 481/24/508 482/28/508
f 466/547/509 465/545/509 4/25/509
f 466/547/512 5/1/512 6/3/512
