# Blender 4.5.3 LTS
# www.blender.org
o Temple_Arch
v -0.284210 0.712743 1.016731
v 0.226931 0.804652 -2.891927
v 0.316307 1.313259 1.016731
v 0.222069 1.221400 -2.892306
v -0.184685 0.812268 -3.148722
v 0.216781 0.812268 -3.148722
v 0.216781 1.213735 -3.148722
v -0.184685 1.213735 -3.148722
v -0.248658 0.748295 -3.675673
v 0.281143 0.749102 -3.655039
v -0.249055 1.276931 -3.655072
v 0.261369 1.259596 -3.148648
v -0.208162 0.790184 -3.050805
v 0.235726 0.791417 -3.049042
v 0.206360 0.822683 -3.001697
v 0.238350 1.233479 -3.049313
v 0.202993 1.199733 -3.004185
v -0.213223 1.241961 -3.059283
v -0.189349 1.218469 -3.034720
v -0.173349 0.825918 -3.005493
v -0.168200 1.204375 -3.000483
v -0.187888 0.808861 -3.365258
v -0.218607 0.778347 -3.455261
v 0.250605 0.779629 -3.455262
v 0.219483 0.810684 -3.365137
v 0.251902 1.249159 -3.458431
v 0.220789 1.218002 -3.365969
v -0.194544 1.225865 -3.377537
v 0.280755 1.277708 -3.675673
v 0.275742 1.274080 -3.628754
v -0.243674 0.751928 -3.628740
v -0.229267 0.766392 -3.148673
v 0.262638 0.767684 -3.148684
v -0.230563 1.258293 -3.148672
v -0.192208 0.808596 -2.853069
v -0.192220 0.804783 -2.892150
v -0.192230 1.221259 -2.892174
v 0.220456 0.804737 -2.853060
v 0.224298 1.217414 -2.853067
v 0.216781 1.074009 -3.192273
v 0.216781 0.951994 -3.192273
v 0.196114 0.951994 -3.321020
v -0.044959 1.213735 -3.192273
v 0.077055 1.193067 -3.192273
v 0.077055 1.213735 -3.321020
v -0.044959 1.213735 -3.321020
v 0.077055 0.812268 -3.192273
v -0.044959 0.812268 -3.192273
v -0.044959 0.812268 -3.321020
v 0.077055 0.829491 -3.321020
v -0.184685 0.951994 -3.192273
v -0.184685 1.074009 -3.192273
v -0.184685 1.074009 -3.321020
v -0.170768 0.951959 -3.320808
v 0.182336 0.951994 -3.192273
v 0.182336 1.074009 -3.192273
v 0.203003 1.074009 -3.321020
v -0.044959 1.179289 -3.192273
v -0.044959 1.179289 -3.321020
v 0.077055 1.179289 -3.321020
v -0.044959 0.846714 -3.192273
v 0.077055 0.846714 -3.192273
v -0.044959 0.846714 -3.321020
v -0.150239 1.074009 -3.192273
v -0.150239 0.951994 -3.192273
v -0.150239 1.074009 -3.321020
v 0.190881 0.986024 -3.232519
v 0.196008 0.986024 -3.280773
v 0.043026 1.187834 -3.232519
v 0.043026 1.192961 -3.280773
v -0.010929 0.838169 -3.232519
v 0.043026 0.839878 -3.280773
v -0.158784 1.039979 -3.232519
v -0.157075 0.986024 -3.280773
v 0.199426 1.039979 -3.232519
v 0.189172 1.039979 -3.280773
v -0.010929 1.196379 -3.232519
v -0.010929 1.186125 -3.280773
v 0.043026 0.829624 -3.232519
v -0.010929 0.833042 -3.280773
v -0.167329 0.986024 -3.232519
v -0.163911 1.039979 -3.280773
v -0.218417 0.781314 -0.376428
v 0.247231 0.781819 -0.278446
v 0.265490 1.258502 -0.283294
v -0.215134 1.244184 -0.278446
v -0.215134 0.781819 -0.278446
v -0.215134 0.781819 -0.314717
v 0.247231 0.781819 -0.314717
v 0.247231 1.244184 -0.314717
v -0.215134 1.244184 -0.314717
v 0.316307 0.712743 1.016731
v -0.284210 1.313259 1.016731
v 0.247736 0.778536 -0.376428
v 0.253696 1.251508 -0.529314
v -0.222477 1.250716 -0.529258
v 0.237722 0.789790 -0.824114
v -0.179657 0.818526 -0.869465
v 0.239180 1.234745 -0.824005
v 0.293064 0.734313 -0.262752
v 0.311383 1.306978 -0.236492
v -0.246617 1.277985 -0.275829
v -0.281806 1.312196 -0.231732
v -0.283471 0.714648 -0.230706
v -0.248729 0.750163 -0.275705
v -0.250119 0.748493 -0.321429
v -0.247404 0.748010 -0.370800
v -0.248949 1.276467 -0.370794
v 0.279534 1.278007 -0.370785
v 0.281047 0.749543 -0.370794
v 0.280471 0.746891 -0.321314
v 0.282339 1.277563 -0.321528
v -0.248508 1.279171 -0.321466
v -0.221883 0.773502 -0.528214
v 0.254470 0.775269 -0.529348
v 0.250514 1.244689 -0.376428
v -0.215639 1.247467 -0.376428
v -0.206972 0.791357 -0.824266
v 0.210017 1.208683 -0.869630
v -0.205621 1.236072 -0.824152
v -0.177810 1.205971 -0.867810
v -0.188364 1.221265 -2.853073
v 0.213682 0.815753 -0.871940
v -0.184585 0.960701 -1.915793
v -0.184929 0.961342 -1.788170
v 0.216677 1.065301 -1.915793
v 0.217039 1.064661 -1.788171
v -0.036252 1.213631 -1.915793
v -0.035612 1.213991 -1.788171
v 0.068348 0.812370 -1.915793
v 0.067708 0.811945 -1.788172
v -0.184916 1.064819 -1.916563
v -0.184440 1.064798 -1.788938
v 0.217015 0.961185 -1.916562
v 0.216493 0.961204 -1.788938
v 0.067865 1.213968 -1.916562
v 0.067845 1.213451 -1.788938
v -0.035769 0.812032 -1.916562
v -0.035748 0.812482 -1.788938
v -0.165681 0.831272 -0.826108
v 0.197778 1.194731 -0.826108
v 0.197778 0.831272 -0.826108
v -0.165681 1.194731 -0.826108
v 0.153739 -1.429042 -3.589022
v 0.153739 -1.429042 -4.016348
v 0.153739 1.438097 -3.589022
v 0.153739 1.438097 -4.016348
v -0.266813 -1.429042 -3.696682
v -0.211968 -1.429043 -3.612707
v -0.178378 1.438097 -3.589022
v -0.259087 1.438099 -3.656380
v -0.259246 -1.429044 -4.000138
v -0.259961 1.438098 -4.001549
v -0.178876 -1.429029 -3.630157
v -0.248066 -1.429008 -3.967103
v 0.095376 -1.429042 -3.980839
v 0.095376 -1.429042 -3.628650
v 0.095376 1.438097 -3.628650
v 0.095376 1.438097 -3.980839
v -0.242787 1.438100 -3.970688
v -0.253313 1.438097 -3.691970
v -0.176462 1.438123 -3.630087
v -0.179086 -1.573189 -3.628650
v 0.095376 -1.573189 -3.628650
v -0.251772 -1.573197 -3.692093
v -0.241113 -1.573180 -3.974167
v 0.095376 -1.573189 -3.980839
v 0.095376 1.582244 -3.980839
v 0.095376 1.582244 -3.628650
v -0.179279 1.582262 -3.631180
v -0.244228 1.582242 -3.971899
v -0.251655 1.582244 -3.689136
v -0.284210 -1.313972 1.016731
v 0.224491 -1.219477 -2.892301
v 0.316307 -0.713456 1.016731
v 0.224332 -0.802899 -2.892080
v -0.184685 -1.214447 -3.148722
v 0.216781 -1.214447 -3.148722
v 0.216781 -0.812981 -3.148722
v -0.184685 -0.812981 -3.148722
v -0.187106 -0.808813 -3.366193
v -0.248658 -1.278421 -3.675673
v 0.281141 -1.277616 -3.655039
v -0.249044 -0.749813 -3.655039
v 0.261364 -0.767104 -3.148673
v -0.206658 -1.234670 -3.050468
v 0.240999 -1.240020 -3.052383
v 0.200018 -1.199974 -3.007000
v 0.240714 -0.790596 -3.051499
v 0.203845 -0.826970 -3.004341
v -0.208843 -0.787367 -3.052384
v -0.171272 -0.827926 -3.007139
v -0.171045 -1.203186 -3.002568
v -0.187960 -1.216747 -3.365470
v -0.217495 -1.247091 -3.453487
v 0.249368 -1.247233 -3.453365
v 0.218999 -1.217147 -3.365152
v 0.249534 -0.780416 -3.453280
v 0.220116 -0.810711 -3.365805
v -0.217300 -0.780202 -3.453395
v 0.280755 -0.749007 -3.675673
v 0.275737 -0.752644 -3.628713
v -0.243641 -1.274784 -3.628713
v -0.229264 -1.260321 -3.148649
v 0.262658 -1.259030 -3.148673
v -0.230563 -0.768396 -3.148686
v -0.192211 -1.218127 -2.853069
v -0.189704 -1.224497 -2.892294
v -0.194748 -0.807648 -2.892221
v 0.220452 -1.221970 -2.853069
v 0.224306 -0.809305 -2.853069
v 0.216781 -0.952707 -3.192273
v 0.216781 -1.074721 -3.192273
v 0.216781 -1.074721 -3.321020
v -0.044959 -0.812981 -3.192273
v 0.077055 -0.833649 -3.192273
v 0.077055 -0.812981 -3.321020
v -0.044959 -0.812981 -3.321020
v 0.077055 -1.214447 -3.192273
v -0.044959 -1.214447 -3.192273
v -0.044959 -1.214447 -3.321020
v 0.077055 -1.197224 -3.321020
v -0.184685 -1.074721 -3.192273
v -0.184685 -0.952707 -3.192273
v -0.184685 -0.952707 -3.321020
v -0.170907 -1.074721 -3.321020
v 0.182336 -1.074721 -3.192273
v 0.182336 -0.952707 -3.192273
v 0.203003 -0.952707 -3.321020
v 0.182336 -1.074721 -3.321020
v -0.044959 -0.847427 -3.192273
v -0.044959 -0.847427 -3.321020
v 0.077055 -0.847427 -3.321020
v -0.044959 -1.180001 -3.192273
v 0.077055 -1.180001 -3.192273
v -0.044959 -1.180001 -3.321020
v -0.150239 -0.952707 -3.192273
v -0.150239 -1.074721 -3.192273
v -0.150239 -0.952707 -3.321020
v 0.193729 -1.040692 -3.232519
v 0.196008 -1.040692 -3.280773
v 0.043026 -0.838882 -3.232519
v 0.043026 -0.833754 -3.280773
v -0.010929 -1.188547 -3.232519
v 0.043026 -1.186838 -3.280773
v -0.161633 -0.986737 -3.232519
v -0.157075 -1.040692 -3.280773
v 0.196008 -0.986737 -3.232519
v 0.189172 -0.986737 -3.280773
v -0.010929 -0.830336 -3.232519
v -0.010929 -0.840591 -3.280773
v 0.043026 -1.197092 -3.232519
v -0.010929 -1.193674 -3.280773
v -0.163911 -1.040692 -3.232519
v -0.163911 -0.986737 -3.280773
v -0.218417 -1.245373 -0.376426
v 0.261435 -1.263109 -0.283399
v -0.220056 -0.777946 -0.282708
v -0.215134 -1.244897 -0.278446
v -0.215134 -1.244897 -0.314717
v 0.247231 -1.244897 -0.314717
v 0.246198 -0.783591 -0.296626
v -0.215134 -0.782531 -0.314717
v 0.316307 -1.313972 1.016731
v -0.284210 -0.713456 1.016731
v 0.247736 -1.248141 -0.376425
v 0.253686 -0.775205 -0.529292
v -0.222599 -0.776012 -0.529271
v 0.237679 -1.236927 -0.824187
v -0.181664 -1.211715 -0.871814
v 0.239180 -0.791970 -0.824005
v 0.308936 -1.308394 -0.237475
v 0.281607 -0.750015 -0.275195
v 0.311197 -0.720039 -0.237440
v -0.278247 -0.719606 -0.239499
v -0.264988 -1.292256 -0.260610
v -0.249868 -1.277863 -0.320742
v -0.247436 -1.278716 -0.370786
v -0.248952 -0.750243 -0.370789
v 0.279533 -0.748712 -0.370786
v 0.281049 -1.277186 -0.370789
v 0.281296 -1.280321 -0.322592
v 0.281965 -0.749565 -0.320742
v -0.249199 -0.747108 -0.322592
v -0.221940 -1.253406 -0.528252
v 0.254472 -1.251513 -0.529215
v 0.250514 -0.782027 -0.376428
v -0.215639 -0.779248 -0.376428
v -0.205517 -1.234683 -0.824753
v 0.213302 -0.816403 -0.872029
v -0.205579 -0.790619 -0.824088
v -0.177959 -0.819475 -0.868572
v -0.188355 -0.805459 -2.853069
v 0.210302 -1.208017 -0.868937
v -0.184582 -1.066014 -1.915793
v -0.185023 -1.065373 -1.788172
v 0.216680 -0.961411 -1.915793
v 0.217016 -0.962062 -1.788769
v -0.036252 -0.813080 -1.915793
v -0.035611 -0.812737 -1.788170
v 0.068348 -1.214349 -1.915793
v 0.067708 -1.214688 -1.788170
v -0.184922 -0.961897 -1.916562
v -0.184465 -0.961918 -1.788938
v 0.217018 -1.065531 -1.916562
v 0.216510 -1.065526 -1.788754
v 0.067865 -0.812748 -1.916562
v 0.067845 -0.813233 -1.788938
v -0.035769 -1.214679 -1.916563
v -0.035748 -1.214209 -1.788938
v -0.165681 -1.195443 -0.826108
v 0.197778 -0.831985 -0.826108
v 0.197778 -1.195443 -0.826108
v -0.165681 -0.831985 -0.826108
s 0
f 14 20 13
f 14 17 15
f 169 162 158
f 16 19 17
f 13 19 18
f 20 21 19
f 151 148 149
f 186 188 193
f 189 188 187
f 189 192 190
f 186 192 191
f 262 258 273
f 276 275 258
f 43 44 58
f 53 54 66
f 49 50 63
f 14 15 20
f 16 17 14
f 18 19 16
f 19 21 17
f 19 13 20
f 24 26 27
f 23 22 28
f 10 31 9
f 11 30 29
f 41 42 55
f 102 85 86
f 84 85 100
f 101 100 85
f 149 150 151
f 154 149 148
f 155 148 152
f 162 151 150
f 163 154 165
f 172 161 170
f 215 216 231
f 225 226 239
f 221 222 236
f 187 188 186
f 189 190 188
f 191 192 189
f 186 193 192
f 183 203 182
f 184 202 201
f 214 229 230
f 262 263 258
f 259 276 258
f 272 276 257
f 258 275 273
f 259 257 276
f 4 122 39
f 1 3 93
f 4 21 37
f 32 6 33
f 56 41 55
f 11 10 9
f 34 5 32
f 17 2 15
f 7 33 6
f 12 8 34
f 36 15 2
f 97 140 142
f 37 35 122
f 2 39 38
f 36 38 35
f 37 20 36
f 25 23 24
f 11 26 30
f 25 24 27
f 28 27 26
f 30 24 10
f 31 24 23
f 11 23 28
f 34 16 12
f 29 30 10
f 9 31 11
f 33 16 14
f 32 14 13
f 34 13 18
f 6 40 7
f 25 41 6
f 25 57 42
f 57 7 40
f 7 43 8
f 45 7 27
f 28 45 27
f 8 46 28
f 6 48 47
f 49 5 22
f 25 49 22
f 47 25 6
f 5 52 51
f 53 8 28
f 22 53 28
f 5 54 22
f 62 48 61
f 57 40 56
f 59 43 58
f 65 52 64
f 61 49 63
f 50 47 62
f 44 45 60
f 54 51 65
f 60 46 59
f 64 53 66
f 67 56 55
f 42 67 55
f 68 57 76
f 56 76 57
f 69 58 44
f 60 69 44
f 78 60 59
f 58 78 59
f 71 62 61
f 63 71 61
f 72 63 50
f 62 72 50
f 73 65 64
f 66 73 64
f 74 66 54
f 65 74 54
f 76 67 68
f 78 69 70
f 72 71 80
f 74 73 82
f 117 109 116
f 108 106 113
f 94 107 83
f 104 92 1
f 104 93 103
f 84 88 89
f 90 84 89
f 86 90 91
f 87 91 88
f 105 86 87
f 103 3 101
f 101 92 100
f 91 106 88
f 116 110 94
f 89 112 90
f 88 111 89
f 109 113 112
f 83 108 117
f 90 113 91
f 110 112 111
f 114 94 83
f 96 83 117
f 95 117 116
f 120 95 99
f 118 96 120
f 99 142 141
f 141 120 99
f 143 118 120
f 97 114 118
f 99 115 97
f 102 101 85
f 104 105 100
f 105 103 102
f 100 87 84
f 107 111 106
f 115 116 94
f 132 35 124
f 98 124 35
f 121 125 98
f 133 122 132
f 134 39 126
f 119 126 39
f 123 127 119
f 135 38 134
f 136 122 128
f 121 128 122
f 119 129 121
f 137 39 136
f 138 38 130
f 123 130 38
f 131 98 139
f 139 35 138
f 133 124 125
f 135 126 127
f 137 128 129
f 139 130 131
f 121 140 143
f 143 119 121
f 119 142 123
f 142 98 123
f 146 145 147
f 153 148 151
f 150 144 146
f 152 147 145
f 152 156 155
f 145 157 156
f 154 144 149
f 147 158 146
f 153 159 147
f 161 153 151
f 150 158 162
f 162 161 151
f 164 165 166
f 171 170 169
f 155 165 148
f 168 160 171
f 156 166 155
f 161 171 160
f 164 154 163
f 167 157 164
f 169 159 168
f 165 154 148
f 170 161 162
f 176 293 211
f 173 175 265
f 192 176 190
f 204 178 205
f 228 213 227
f 184 183 182
f 177 206 180
f 174 190 176
f 205 179 185
f 185 180 206
f 188 208 193
f 269 311 313
f 209 207 293
f 174 211 210
f 208 210 207
f 193 209 192
f 197 195 196
f 199 196 198
f 181 198 200
f 194 200 195
f 202 200 198
f 202 196 183
f 203 196 195
f 203 200 184
f 185 191 189
f 201 202 183
f 182 203 184
f 205 189 187
f 204 187 186
f 206 186 191
f 212 178 213
f 214 178 197
f 214 199 229
f 229 179 212
f 179 215 180
f 217 179 199
f 181 217 199
f 180 218 181
f 178 220 219
f 221 177 194
f 197 221 194
f 219 197 178
f 223 180 224
f 225 180 181
f 225 194 226
f 226 177 223
f 235 220 234
f 229 212 228
f 232 215 231
f 238 224 237
f 227 214 230
f 234 221 236
f 222 219 235
f 216 217 233
f 226 223 238
f 233 218 232
f 237 225 239
f 240 228 227
f 230 240 227
f 241 229 249
f 248 229 228
f 242 231 216
f 233 242 216
f 251 233 232
f 231 251 232
f 244 235 234
f 236 244 234
f 245 236 222
f 235 245 222
f 246 238 237
f 239 246 237
f 255 226 247
f 254 226 238
f 241 248 240
f 251 242 243
f 245 244 253
f 255 254 246
f 288 280 287
f 279 277 284
f 266 278 256
f 272 173 276
f 275 173 265
f 261 259 260
f 263 259 258
f 257 261 262
f 265 274 275
f 257 262 273
f 274 264 272
f 263 277 260
f 287 281 266
f 261 283 262
f 282 260 277
f 280 284 283
f 256 279 288
f 283 263 262
f 281 283 282
f 285 266 256
f 268 256 288
f 267 288 287
f 291 267 271
f 289 268 291
f 271 313 312
f 312 291 271
f 314 289 291
f 269 285 289
f 271 286 269
f 274 257 273
f 278 282 277
f 274 273 275
f 286 287 266
f 303 207 295
f 270 295 207
f 296 292 304
f 304 293 303
f 305 211 297
f 290 297 211
f 306 290 294
f 306 210 305
f 307 293 299
f 292 299 293
f 290 300 292
f 308 211 307
f 309 210 301
f 294 301 210
f 270 302 294
f 310 207 309
f 304 295 296
f 306 297 298
f 308 299 300
f 310 301 302
f 292 311 314
f 292 312 290
f 312 294 290
f 294 311 270
f 169 170 162
f 4 37 122
f 1 92 3
f 4 17 21
f 32 5 6
f 56 40 41
f 11 29 10
f 34 8 5
f 17 4 2
f 7 12 33
f 12 7 8
f 36 20 15
f 97 118 140
f 37 36 35
f 2 4 39
f 36 2 38
f 37 21 20
f 25 22 23
f 11 28 26
f 30 26 24
f 31 10 24
f 11 31 23
f 34 18 16
f 33 12 16
f 32 33 14
f 34 32 13
f 6 41 40
f 25 42 41
f 25 27 57
f 57 27 7
f 7 44 43
f 45 44 7
f 28 46 45
f 8 43 46
f 6 5 48
f 49 48 5
f 25 50 49
f 47 50 25
f 5 8 52
f 53 52 8
f 22 54 53
f 5 51 54
f 62 47 48
f 59 46 43
f 65 51 52
f 61 48 49
f 60 45 46
f 64 52 53
f 67 75 56
f 42 68 67
f 68 42 57
f 56 75 76
f 69 77 58
f 60 70 69
f 78 70 60
f 58 77 78
f 71 79 62
f 63 80 71
f 72 80 63
f 62 79 72
f 73 81 65
f 66 82 73
f 74 82 66
f 65 81 74
f 76 75 67
f 78 77 69
f 72 79 71
f 74 81 73
f 117 108 109
f 108 107 106
f 94 110 107
f 104 100 92
f 104 1 93
f 84 87 88
f 90 85 84
f 86 85 90
f 87 86 91
f 105 102 86
f 103 93 3
f 101 3 92
f 91 113 106
f 116 109 110
f 89 111 112
f 88 106 111
f 109 108 113
f 83 107 108
f 90 112 113
f 110 109 112
f 114 115 94
f 96 114 83
f 95 96 117
f 120 96 95
f 118 114 96
f 99 97 142
f 141 143 120
f 143 140 118
f 97 115 114
f 99 95 115
f 102 103 101
f 105 104 103
f 100 105 87
f 107 110 111
f 115 95 116
f 132 122 35
f 98 125 124
f 121 133 125
f 133 121 122
f 134 38 39
f 119 127 126
f 123 135 127
f 135 123 38
f 136 39 122
f 121 129 128
f 119 137 129
f 137 119 39
f 138 35 38
f 123 131 130
f 131 123 98
f 139 98 35
f 133 132 124
f 135 134 126
f 137 136 128
f 139 138 130
f 121 98 140
f 143 141 119
f 119 141 142
f 142 140 98
f 146 144 145
f 153 152 148
f 150 149 144
f 152 153 147
f 152 145 156
f 145 144 157
f 154 157 144
f 147 159 158
f 153 160 159
f 161 160 153
f 150 146 158
f 166 167 164
f 164 163 165
f 169 168 171
f 171 172 170
f 155 166 165
f 168 159 160
f 156 167 166
f 161 172 171
f 164 157 154
f 167 156 157
f 169 158 159
f 176 209 293
f 173 264 175
f 192 209 176
f 204 177 178
f 228 212 213
f 184 201 183
f 177 204 206
f 174 188 190
f 205 178 179
f 185 179 180
f 188 174 208
f 269 289 311
f 209 208 207
f 174 176 211
f 208 174 210
f 193 208 209
f 197 194 195
f 199 197 196
f 181 199 198
f 194 181 200
f 202 184 200
f 202 198 196
f 203 183 196
f 203 195 200
f 185 206 191
f 205 185 189
f 204 205 187
f 206 204 186
f 212 179 178
f 214 213 178
f 214 197 199
f 229 199 179
f 179 216 215
f 217 216 179
f 181 218 217
f 180 215 218
f 178 177 220
f 221 220 177
f 197 222 221
f 219 222 197
f 223 177 180
f 225 224 180
f 225 181 194
f 226 194 177
f 235 219 220
f 232 218 215
f 238 223 224
f 227 213 214
f 234 220 221
f 233 217 218
f 237 224 225
f 240 248 228
f 230 241 240
f 241 230 229
f 248 249 229
f 242 250 231
f 233 243 242
f 251 243 233
f 231 250 251
f 244 252 235
f 236 253 244
f 245 253 236
f 235 252 245
f 246 254 238
f 239 255 246
f 255 239 226
f 254 247 226
f 241 249 248
f 251 250 242
f 245 252 244
f 255 247 254
f 288 279 280
f 279 278 277
f 266 281 278
f 272 264 173
f 275 276 173
f 261 257 259
f 263 260 259
f 265 175 274
f 274 175 264
f 263 284 277
f 287 280 281
f 261 282 283
f 282 261 260
f 280 279 284
f 256 278 279
f 283 284 263
f 281 280 283
f 285 286 266
f 268 285 256
f 267 268 288
f 291 268 267
f 289 285 268
f 271 269 313
f 312 314 291
f 314 311 289
f 269 286 285
f 271 267 286
f 274 272 257
f 278 281 282
f 286 267 287
f 303 293 207
f 270 296 295
f 296 270 292
f 304 292 293
f 305 210 211
f 290 298 297
f 306 298 290
f 306 294 210
f 307 211 293
f 292 300 299
f 290 308 300
f 308 290 211
f 309 207 210
f 294 302 301
f 270 310 302
f 310 270 207
f 304 303 295
f 306 305 297
f 308 307 299
f 310 309 301
f 292 270 311
f 292 314 312
f 312 313 294
f 294 313 311
