# Blender 4.5.3 LTS
# www.blender.org
o mesh_4.001
v -1.102271 -0.552750 -0.352864
v -1.102063 0.571592 -0.357084
v 1.130527 0.576227 -0.352314
v -1.138790 0.537114 -0.360730
v -1.152643 0.544192 -0.387878
v -1.097093 0.582007 -0.406695
v 1.136824 0.594341 -0.387878
v -1.102677 0.015891 -0.349566
v -1.129939 0.540078 -0.423200
v -1.147465 -0.523753 -0.371501
v -1.111988 -0.563911 -0.387878
v -1.116777 -0.551420 -0.420295
v 1.161454 -0.531219 -0.355140
v 1.138517 -0.553400 -0.387878
v 1.150462 -0.532870 -0.423342
v 1.176716 -0.521085 -0.408153
v 1.161518 0.549757 -0.360936
v 1.170415 0.548334 -0.405269
v 1.128659 0.577529 -0.423798
v -0.030469 -0.030849 -0.394544
v -0.017500 0.190600 -0.398247
v -0.980927 0.360542 -0.437617
v -1.153112 0.354407 -0.405979
v -1.094267 0.328818 -0.485939
v -0.823394 0.356028 -0.440376
v -1.128048 0.218784 -0.448771
v -1.100311 0.175302 -0.512108
v -0.936233 0.223632 -0.555014
v -0.936790 0.320280 -0.511550
v -0.647474 0.365000 -0.424127
v -1.123258 0.098248 -0.462230
v -1.001132 0.017249 -0.554600
v -0.661484 0.182842 -0.561457
v -1.111198 -0.041416 -0.465697
v -1.088031 -0.129694 -0.518201
v -0.628996 -0.115225 -0.555246
v -0.975182 -0.158462 -0.561972
v -0.538930 0.068373 -0.518813
v -1.117921 -0.181380 -0.462230
v -1.074077 -0.372424 -0.498327
v -0.898430 -0.295145 -0.550641
v -0.653934 -0.286548 -0.552748
v -0.529719 -0.223303 -0.515438
v -1.129982 -0.334782 -0.433097
v -0.955316 -0.400958 -0.500120
v -0.532622 -0.407500 -0.484797
v -1.110454 -0.436640 -0.431203
v -1.040915 -0.438696 -0.400779
v -0.892390 -0.425704 -0.462158
v -1.127015 -0.439845 -0.369820
v -0.946086 -0.424622 -0.424535
v -0.807913 -0.425515 -0.442537
v -0.662928 -0.431196 -0.439922
v -0.498300 -0.277569 -0.451066
v -0.496196 -0.418249 -0.414720
v -0.517655 -0.032250 -0.465698
v -0.553780 -0.005005 -0.402989
v -0.499541 0.253055 -0.436945
v -0.551401 0.319806 -0.494954
v -0.559909 -0.372628 -0.394109
v -0.647897 -0.070010 -0.379236
v -0.938069 -0.393932 -0.375409
v -0.970465 0.004750 -0.377602
v -0.496538 -0.419879 -0.422920
v -0.662928 -0.431196 -0.439922
v -1.099756 -0.420393 -0.377711
v -1.074976 -0.087826 -0.404506
v -0.816405 -0.424419 -0.442563
v -1.040915 -0.438696 -0.400779
v -1.129982 -0.334782 -0.433097
v -1.117921 -0.181380 -0.462230
v -1.111198 -0.041416 -0.465697
v -1.130209 -0.443235 -0.375126
v -1.118027 0.108318 -0.464632
v -1.089458 0.308374 -0.388739
v -0.563794 0.328813 -0.376208
v -1.153548 0.356229 -0.411698
v -0.980998 0.359788 -0.437351
v -0.635372 0.363164 -0.424294
v -0.494243 0.375006 -0.384044
v -0.516253 0.363952 -0.436795
v -0.498027 0.370624 -0.374139
v -0.425712 -0.109242 -0.424141
v -0.404388 -0.279089 -0.424170
v -0.106748 -0.032942 -0.460679
v -0.258827 -0.527943 -0.429523
v -0.102299 -0.431783 -0.420774
v 0.007876 -0.385373 -0.418611
v -0.500506 -0.025895 -0.423104
v -0.087749 0.172794 -0.452334
v -0.560008 0.070286 -0.421955
v -0.350996 0.270977 -0.461869
v -0.562503 0.208223 -0.422995
v 0.164008 -0.052273 -0.443552
v 0.027519 0.069700 -0.480646
v 0.247411 0.304467 -0.446896
v -0.069560 0.427685 -0.466753
v -0.278183 0.540061 -0.432363
v -0.641038 0.515385 -0.434873
v 0.273339 -0.333591 -0.417420
v 0.397147 -0.114909 -0.468543
v 0.347382 0.019767 -0.426964
v 0.500301 0.403834 -0.478773
v 0.424217 0.629721 -0.431041
v -0.053044 0.614185 -0.423401
v 0.531849 -0.308662 -0.417512
v 0.718025 -0.239820 -0.418472
v 0.659251 0.112955 -0.478541
v 0.626385 0.453356 -0.449761
v 0.855033 0.633249 -0.400946
v 0.801568 0.666991 -0.341752
v 0.014352 0.646599 -0.363942
v 0.940339 -0.139523 -0.447887
v 0.793084 0.233934 -0.482351
v 0.886785 0.398125 -0.426757
v 0.904006 0.473351 -0.433147
v 0.887790 0.562959 -0.429479
v 0.939748 -0.285873 -0.427069
v 1.172184 -0.169935 -0.434710
v 0.991110 0.061626 -0.427844
v 0.936320 0.286269 -0.423002
v 0.115933 0.662897 -0.340219
v 0.746785 0.661603 -0.134785
v -0.443998 0.556896 -0.429280
v 1.223448 0.631504 -0.967225
v 1.207750 0.631504 -0.967225
v 1.207753 -0.592760 -0.967225
v 1.223448 -0.592760 -0.967225
v 1.223448 0.631504 -0.950201
v 1.223448 0.631504 -0.967225
v 1.223448 -0.592760 -0.967225
v 1.223448 -0.592760 -0.950201
v 1.220200 0.429514 -0.395259
v 1.220200 0.439796 -0.395259
v 1.220201 0.439796 -0.953119
v 1.220201 0.429514 -0.953119
v 1.210719 0.182747 -0.395259
v 1.210719 0.172464 -0.395259
v 1.210720 0.172464 -0.953119
v 1.210720 0.182747 -0.953119
v 1.220200 0.172464 -0.395259
v 1.220200 0.182747 -0.395259
v 1.220201 0.182747 -0.953119
v 1.220201 0.172464 -0.953119
v 1.220200 -0.100220 -0.395259
v 1.220200 -0.089937 -0.395259
v 1.220201 -0.089937 -0.953119
v 1.220201 -0.100220 -0.953119
v 1.220200 -0.399876 -0.395259
v 1.220200 -0.389593 -0.395259
v 1.220201 -0.389593 -0.953119
v 1.220201 -0.399876 -0.953119
v -1.205669 0.631504 -0.967225
v -1.221367 0.631504 -0.967225
v -1.221364 -0.589995 -0.967225
v -1.205668 -0.589995 -0.967225
v -1.205669 0.631504 -0.950201
v -1.205669 0.631504 -0.967225
v -1.205668 -0.589995 -0.967225
v -1.205668 -0.589995 -0.950201
v -0.632454 0.625204 -0.332672
v -0.620379 0.625204 -0.332672
v -0.620378 -0.584136 -0.332672
v -0.632452 -0.584136 -0.332672
v -0.632454 0.625204 -0.345768
v -0.632454 0.625204 -0.332672
v -0.632452 -0.584136 -0.332672
v -0.632452 -0.584136 -0.345768
v -0.620379 0.625204 -0.345768
v -0.632454 0.625204 -0.345768
v -0.632452 -0.584136 -0.345768
v -0.620378 -0.584136 -0.345768
v -0.620379 0.625204 -0.332672
v -0.620379 0.625204 -0.345768
v -0.620378 -0.584136 -0.345768
v -0.620378 -0.584136 -0.332672
v 0.003847 0.625204 -0.332672
v 0.015922 0.625204 -0.332672
v 0.015923 -0.584136 -0.332672
v 0.003849 -0.584136 -0.332672
v 0.003847 0.625204 -0.345768
v 0.003847 0.625204 -0.332672
v 0.003849 -0.584136 -0.332672
v 0.003849 -0.584136 -0.345768
v 0.015922 0.625204 -0.345768
v 0.003847 0.625204 -0.345768
v 0.003849 -0.584136 -0.345768
v 0.015923 -0.584136 -0.345768
v 0.015922 0.625204 -0.332672
v 0.015922 0.625204 -0.345768
v 0.015923 -0.584136 -0.345768
v 0.015923 -0.584136 -0.332672
v 0.565773 0.625204 -0.332672
v 0.577848 0.625204 -0.332672
v 0.577849 -0.584136 -0.332672
v 0.565775 -0.584136 -0.332672
v 0.565773 0.625204 -0.345768
v 0.565773 0.625204 -0.332672
v 0.565775 -0.584136 -0.332672
v 0.565775 -0.584136 -0.345768
v 0.577848 0.625204 -0.345768
v 0.565773 0.625204 -0.345768
v 0.565775 -0.584136 -0.345768
v 0.577849 -0.584136 -0.345768
v 0.577848 0.625204 -0.332672
v 0.577848 0.625204 -0.345768
v 0.577849 -0.584136 -0.345768
v 0.577849 -0.584136 -0.332672
v -1.208048 0.619740 -0.175832
v -1.220123 0.619740 -0.175832
v -1.220120 -0.589995 -0.175832
v -1.208047 -0.589995 -0.175832
v -1.208048 0.619740 -0.162737
v -1.208048 0.619740 -0.175832
v -1.208047 -0.589995 -0.175832
v -1.208047 -0.589995 -0.162737
v 1.222083 0.625204 -0.175832
v 1.210009 0.625204 -0.175832
v 1.210011 -0.584136 -0.175832
v 1.222085 -0.584136 -0.175832
v 1.222083 0.625204 -0.162737
v 1.222083 0.625204 -0.175832
v 1.222085 -0.584136 -0.175832
v 1.222085 -0.584136 -0.162737
v -1.196474 0.619740 -0.000553
v -1.214053 0.609591 -0.000553
v -1.231632 0.619740 -0.000553
v -1.214053 0.650187 -0.000553
v -1.196474 0.640038 -0.000553
v -1.231632 0.640038 -0.000553
v -1.214053 -0.613869 -0.000553
v -1.231632 -0.603720 -0.000553
v -1.231632 -0.583422 -0.000553
v -1.196474 -0.583422 -0.000553
v -1.196474 -0.603720 -0.000553
v -1.214053 -0.573273 -0.000553
v 1.232729 0.619740 -0.000553
v 1.215150 0.609591 -0.000553
v 1.197572 0.619740 -0.000553
v 1.215150 0.650187 -0.000553
v 1.232729 0.640038 -0.000553
v 1.197572 0.640038 -0.000553
v 1.215151 -0.613869 -0.000553
v 1.197572 -0.603720 -0.000553
v 1.197572 -0.583422 -0.000553
v 1.232729 -0.583422 -0.000553
v 1.232729 -0.603720 -0.000553
v 1.215151 -0.573273 -0.000553
v -1.208676 0.429514 -0.395259
v -1.208676 0.439796 -0.395259
v -1.208675 0.439796 -0.953119
v -1.208675 0.429514 -0.953119
v -1.218157 0.182747 -0.395259
v -1.218157 0.172464 -0.395259
v -1.218155 0.172464 -0.953119
v -1.218155 0.182747 -0.953119
v -1.208676 0.172464 -0.395259
v -1.208676 0.182747 -0.395259
v -1.208675 0.182747 -0.953119
v -1.208675 0.172464 -0.953119
v -1.208676 -0.100220 -0.395259
v -1.208676 -0.089937 -0.395259
v -1.208675 -0.089937 -0.953119
v -1.208675 -0.100220 -0.953119
v -1.208676 -0.399876 -0.395259
v -1.208676 -0.389593 -0.395259
v -1.208675 -0.389593 -0.953119
v -1.208675 -0.399876 -0.953119
v -1.196474 0.619740 -0.000553
v -1.196474 0.619740 -1.270129
v -1.222044 0.610514 -1.270129
v -1.226838 0.613281 -0.000553
v -1.226838 0.646497 -1.270129
v -1.222044 0.649264 -0.000553
v -1.191516 0.619997 -1.270129
v -1.193789 0.619879 -0.000553
v -1.191516 -0.583680 -0.000553
v -1.193789 -0.583562 -1.270129
v -1.222044 -0.612946 -1.270129
v -1.226838 -0.610179 -0.000553
v -1.226838 -0.576964 -1.270129
v -1.222044 -0.574196 -0.000553
v -1.196474 -0.583422 -1.270129
v -1.196474 -0.583422 -0.000553
v -1.204262 0.625204 -0.393010
v -1.228411 0.625204 -0.393010
v -1.228408 -0.584136 -0.393010
v -1.204261 -0.584136 -0.393010
v -1.204262 0.625204 -0.322483
v -1.204262 0.625204 -0.393010
v -1.204261 -0.584136 -0.393010
v -1.204261 -0.584136 -0.322483
v 1.244221 -0.594914 -0.317819
v -1.253513 -0.598157 -0.322818
v -1.253891 -0.573264 -0.350491
v 1.244147 -0.586130 -0.368055
v -1.253777 -0.619064 -0.359284
v 1.244234 -0.624521 -0.347179
v -1.253513 -0.598157 -0.322818
v 1.244221 -0.598157 -0.322818
v 1.203971 0.625204 -0.322483
v 1.228121 0.625204 -0.322483
v 1.228121 -0.584136 -0.322483
v 1.203974 -0.584136 -0.322483
v 1.203971 0.625204 -0.393010
v 1.203971 0.625204 -0.322483
v 1.203974 -0.584136 -0.322483
v 1.203974 -0.584136 -0.393010
v 1.228121 0.625204 -0.393010
v 1.203971 0.625204 -0.393010
v 1.203974 -0.584136 -0.393010
v 1.228121 -0.584136 -0.393010
v 1.228121 0.625204 -0.322483
v 1.228121 0.625204 -0.393010
v 1.228121 -0.584136 -0.393010
v 1.228121 -0.584136 -0.322483
v 1.215150 0.609591 -1.270140
v 1.215150 0.609591 -0.000553
v 1.235925 0.627121 -0.000553
v 1.232729 0.619740 -1.270140
v 1.232729 0.640038 -1.306368
v 1.199525 0.643421 -0.000553
v 1.202366 0.646496 -1.306368
v 1.197572 0.619740 -1.306368
v 1.215150 0.609591 -0.000553
v 1.215150 0.609591 -1.270140
v 1.215151 -0.573273 -1.270139
v 1.215151 -0.573273 -0.000553
v 1.194376 -0.590803 -0.000553
v 1.194376 -0.596339 -1.270139
v 1.230776 -0.607103 -0.000553
v 1.227935 -0.610179 -1.270139
v 1.216614 -0.571017 -1.270139
v 1.215151 -0.573273 -0.000553
v -1.253831 0.607469 -0.334996
v 1.248925 0.601526 -0.335306
v -1.253643 0.616680 -0.368062
v 1.248822 0.640591 -0.368055
v -1.253892 0.653457 -0.350491
v 1.248895 0.643905 -0.327247
v -1.253648 0.604827 -0.329786
v 1.248895 0.607469 -0.334997
v 1.207750 0.631504 -0.950201
v 1.223448 0.631504 -0.950201
v 1.207753 -0.592760 -0.950201
v 1.207750 0.631504 -0.967225
v 1.207750 0.631504 -0.950201
v 1.207753 -0.592760 -0.950201
v 1.207753 -0.592760 -0.967225
v 1.210719 0.429514 -0.395259
v 1.220200 0.429514 -0.395259
v 1.220201 0.429514 -0.953119
v 1.210720 0.429514 -0.953119
v 1.210719 0.439796 -0.395259
v 1.210719 0.429514 -0.395259
v 1.210720 0.429514 -0.953119
v 1.210720 0.439796 -0.953119
v 1.220200 0.439796 -0.395259
v 1.210719 0.439796 -0.395259
v 1.210720 0.439796 -0.953119
v 1.220201 0.439796 -0.953119
v 1.210719 0.172464 -0.395259
v 1.220200 0.172464 -0.395259
v 1.210720 0.172464 -0.953119
v 1.220200 0.182747 -0.395259
v 1.210719 0.182747 -0.395259
v 1.210720 0.182747 -0.953119
v 1.220201 0.182747 -0.953119
v 1.210719 -0.100220 -0.395259
v 1.220200 -0.100220 -0.395259
v 1.220201 -0.100220 -0.953119
v 1.210720 -0.100220 -0.953119
v 1.210719 -0.089937 -0.395259
v 1.210719 -0.100220 -0.395259
v 1.210720 -0.100220 -0.953119
v 1.210720 -0.089937 -0.953119
v 1.220200 -0.089937 -0.395259
v 1.210719 -0.089937 -0.395259
v 1.210720 -0.089937 -0.953119
v 1.220201 -0.089937 -0.953119
v 1.210719 -0.399876 -0.395259
v 1.220200 -0.399876 -0.395259
v 1.220201 -0.399876 -0.953119
v 1.210720 -0.399876 -0.953119
v 1.210719 -0.389593 -0.395259
v 1.210719 -0.399876 -0.395259
v 1.210720 -0.399876 -0.953119
v 1.210720 -0.389593 -0.953119
v 1.220200 -0.389593 -0.395259
v 1.210719 -0.389593 -0.395259
v 1.210720 -0.389593 -0.953119
v 1.220201 -0.389593 -0.953119
v -1.221367 0.631504 -0.950201
v -1.205669 0.631504 -0.950201
v -1.221364 -0.589995 -0.950201
v -1.221367 0.631504 -0.967225
v -1.221367 0.631504 -0.950201
v -1.221364 -0.589995 -0.950201
v -1.221364 -0.589995 -0.967225
v -1.220123 0.619740 -0.162737
v -1.208048 0.619740 -0.162737
v -1.220121 -0.589995 -0.162737
v -1.220123 0.619740 -0.175832
v -1.220123 0.619740 -0.162737
v -1.220121 -0.589995 -0.162737
v -1.220120 -0.589995 -0.175832
v 1.210009 0.625204 -0.162737
v 1.222083 0.625204 -0.162737
v 1.210011 -0.584136 -0.162737
v 1.210009 0.625204 -0.175832
v 1.210009 0.625204 -0.162737
v 1.210011 -0.584136 -0.162737
v 1.210011 -0.584136 -0.175832
v -1.218157 0.429514 -0.395259
v -1.208676 0.429514 -0.395259
v -1.208675 0.429514 -0.953119
v -1.218155 0.429514 -0.953119
v -1.218157 0.439796 -0.395259
v -1.218157 0.429514 -0.395259
v -1.218155 0.429514 -0.953119
v -1.218155 0.439796 -0.953119
v -1.208676 0.439796 -0.395259
v -1.218157 0.439796 -0.395259
v -1.218155 0.439796 -0.953119
v -1.208675 0.439796 -0.953119
v -1.218157 0.172464 -0.395259
v -1.208676 0.172464 -0.395259
v -1.218155 0.172464 -0.953119
v -1.208676 0.182747 -0.395259
v -1.218157 0.182747 -0.395259
v -1.218155 0.182747 -0.953119
v -1.208675 0.182747 -0.953119
v -1.218157 -0.100220 -0.395259
v -1.208676 -0.100220 -0.395259
v -1.208675 -0.100220 -0.953119
v -1.218155 -0.100220 -0.953119
v -1.218157 -0.089937 -0.395259
v -1.218157 -0.100220 -0.395259
v -1.218155 -0.100220 -0.953119
v -1.218155 -0.089937 -0.953119
v -1.208676 -0.089937 -0.395259
v -1.218157 -0.089937 -0.395259
v -1.218155 -0.089937 -0.953119
v -1.208675 -0.089937 -0.953119
v -1.218157 -0.399876 -0.395259
v -1.208676 -0.399876 -0.395259
v -1.208675 -0.399876 -0.953119
v -1.218155 -0.399876 -0.953119
v -1.218157 -0.389593 -0.395259
v -1.218157 -0.399876 -0.395259
v -1.218155 -0.399876 -0.953119
v -1.218155 -0.389593 -0.953119
v -1.208676 -0.389593 -0.395259
v -1.218157 -0.389593 -0.395259
v -1.218155 -0.389593 -0.953119
v -1.208675 -0.389593 -0.953119
v -1.228411 0.625204 -0.322483
v -1.204262 0.625204 -0.322483
v -1.228409 -0.584136 -0.322483
v -1.228411 0.625204 -0.393010
v -1.228411 0.625204 -0.322483
v -1.228409 -0.584136 -0.322483
v -1.228408 -0.584136 -0.393010
v 1.214102 -0.579779 -0.348228
v -1.205215 0.632017 -0.348228
v 1.214102 0.632017 -0.348228
v 1.214102 0.632017 -0.348228
v -1.205215 -0.579779 -0.348228
v -1.205215 -0.579779 -0.348228
v -1.198158 0.602654 -1.312392
v -1.181502 0.631504 -1.312387
v -1.198158 0.660354 -1.312392
v -1.248127 0.631504 -1.312384
v -1.231471 0.602654 -1.312392
v -1.231471 0.660354 -1.312392
v -1.248127 0.631504 -1.224168
v -1.231471 0.660354 -1.224168
v -1.198158 0.660354 -1.224168
v -1.198158 0.602654 -1.224168
v -1.231471 0.602654 -1.224168
v -1.181501 0.631504 -1.224174
v -1.231471 0.660354 -1.224168
v -1.231471 0.660354 -1.312392
v -1.183583 0.649535 -1.312389
v -1.186260 0.647989 -1.224172
v -1.198158 0.602654 -1.224168
v -1.214815 0.598532 -1.312393
v -1.243368 0.615018 -1.224168
v -1.248127 0.631504 -1.312384
v -1.231471 0.660354 -1.224168
v -1.231471 0.660354 -1.312392
v 1.231251 0.602654 -1.312392
v 1.247908 0.631504 -1.312387
v 1.231251 0.660354 -1.312392
v 1.181282 0.631504 -1.312384
v 1.197939 0.602654 -1.312392
v 1.197939 0.660354 -1.312392
v 1.181282 0.631504 -1.224168
v 1.197939 0.660354 -1.224168
v 1.231251 0.660354 -1.224168
v 1.231251 0.602654 -1.224168
v 1.197939 0.602654 -1.224168
v 1.247908 0.631504 -1.224174
v 1.197939 0.660354 -1.224168
v 1.197939 0.660354 -1.312392
v 1.245826 0.649535 -1.312389
v 1.243149 0.647989 -1.224172
v 1.231251 0.602654 -1.224168
v 1.214595 0.598532 -1.312393
v 1.186041 0.615018 -1.224168
v 1.181282 0.631504 -1.312384
v 1.197939 0.660354 -1.224168
v 1.197939 0.660354 -1.312392
v -1.197380 -0.621611 -1.312392
v -1.180724 -0.592760 -1.312387
v -1.197380 -0.563910 -1.312392
v -1.247349 -0.592760 -1.312384
v -1.230693 -0.621611 -1.312392
v -1.230693 -0.563910 -1.312392
v -1.247349 -0.592760 -1.224168
v -1.230693 -0.563910 -1.224168
v -1.197380 -0.563910 -1.224168
v -1.197380 -0.621611 -1.224168
v -1.230693 -0.621611 -1.224168
v -1.180723 -0.592760 -1.224174
v -1.230693 -0.563910 -1.224168
v -1.230693 -0.563910 -1.312392
v -1.182806 -0.574729 -1.312389
v -1.185483 -0.576275 -1.224172
v -1.197380 -0.621611 -1.224168
v -1.214037 -0.625732 -1.312393
v -1.242590 -0.609247 -1.224168
v -1.247349 -0.592760 -1.312384
v -1.230693 -0.563910 -1.224168
v -1.230693 -0.563910 -1.312392
v 1.231251 -0.621611 -1.312392
v 1.247908 -0.592760 -1.312387
v 1.231251 -0.563910 -1.312392
v 1.181282 -0.592760 -1.312384
v 1.197939 -0.621611 -1.312392
v 1.197939 -0.563910 -1.312392
v 1.181282 -0.592760 -1.224168
v 1.197939 -0.563910 -1.224168
v 1.231251 -0.563910 -1.224168
v 1.231251 -0.621611 -1.224168
v 1.197939 -0.621611 -1.224168
v 1.247908 -0.592760 -1.224174
v 1.197939 -0.563910 -1.224168
v 1.197939 -0.563910 -1.312392
v 1.245826 -0.574729 -1.312389
v 1.243149 -0.576275 -1.224172
v 1.231251 -0.621611 -1.224168
v 1.214595 -0.625732 -1.312393
v 1.186041 -0.609246 -1.224168
v 1.181282 -0.592760 -1.312384
v 1.197939 -0.563910 -1.224168
v 1.197939 -0.563910 -1.312392
v -1.258185 0.599714 -0.363832
v -1.258180 0.628564 -0.380488
v -1.258185 0.657414 -0.363832
v -1.258177 0.628564 -0.313863
v -1.258185 0.599714 -0.330519
v -1.258185 0.657414 -0.330519
v -1.258185 -0.630538 -0.363832
v -1.258180 -0.601688 -0.380488
v -1.258185 -0.572838 -0.363832
v -1.258177 -0.601688 -0.313863
v -1.258185 -0.630538 -0.330519
v -1.258185 -0.572838 -0.330519
v 1.133733 -0.630538 -0.363832
v 1.133737 -0.601688 -0.380489
v 1.133733 -0.572838 -0.363832
v 1.133740 -0.601688 -0.313863
v 1.133733 -0.630538 -0.330519
v 1.133733 -0.572838 -0.330519
v 1.133733 0.599714 -0.363832
v 1.133737 0.628564 -0.380489
v 1.133733 0.657414 -0.363832
v 1.133740 0.628564 -0.313863
v 1.133733 0.599714 -0.330519
v 1.133733 0.657414 -0.330519
v -1.133743 0.628564 -0.313863
v -1.133743 0.657414 -0.330519
v -1.133743 0.657414 -0.363832
v -1.133743 0.599714 -0.363832
v -1.133743 0.599714 -0.330519
v -1.133749 0.628564 -0.380488
v -1.133743 0.657414 -0.330519
v -1.258185 0.657414 -0.330519
v -1.258182 0.646595 -0.378406
v -1.133747 0.645049 -0.375729
v -1.133743 0.599714 -0.363832
v -1.258186 0.595592 -0.347175
v -1.133743 0.612078 -0.318622
v -1.258177 0.628564 -0.313863
v -1.133743 0.657414 -0.330519
v -1.258185 0.657414 -0.330519
v -1.133743 -0.601688 -0.313863
v -1.133743 -0.572838 -0.330519
v -1.133743 -0.572838 -0.363832
v -1.133743 -0.630538 -0.363832
v -1.133743 -0.630538 -0.330519
v -1.133749 -0.601688 -0.380488
v -1.258186 -0.567593 -0.351718
v -1.258180 -0.601688 -0.380488
v -1.133749 -0.601688 -0.380488
v -1.133743 -0.567593 -0.342633
v -1.258177 -0.601688 -0.313863
v -1.133743 -0.618174 -0.318622
v -1.258186 -0.634660 -0.347175
v -1.133743 -0.630538 -0.363832
v -1.258180 -0.601688 -0.380488
v -1.133749 -0.601688 -0.380488
v 1.258185 -0.601688 -0.313863
v 1.258185 -0.572838 -0.330519
v 1.258185 -0.572838 -0.363832
v 1.258185 -0.630538 -0.363832
v 1.258185 -0.630538 -0.330519
v 1.258178 -0.601688 -0.380489
v 1.258185 -0.572838 -0.330519
v 1.133733 -0.572838 -0.330519
v 1.133735 -0.583657 -0.378406
v 1.258181 -0.585202 -0.375730
v 1.258185 -0.630538 -0.363832
v 1.133731 -0.634660 -0.347175
v 1.258185 -0.618174 -0.318622
v 1.133740 -0.601688 -0.313863
v 1.258185 -0.572838 -0.330519
v 1.133733 -0.572838 -0.330519
v 1.258184 0.628564 -0.313863
v 1.258184 0.657414 -0.330519
v 1.258184 0.657414 -0.363832
v 1.258184 0.599714 -0.363832
v 1.258184 0.599714 -0.330519
v 1.258178 0.628564 -0.380489
v 1.258184 0.599714 -0.363832
v 1.133733 0.599714 -0.363832
v 1.133737 0.610532 -0.315945
v 1.258184 0.612078 -0.318622
v 1.258184 0.657414 -0.330519
v 1.133731 0.662659 -0.351718
v 1.258181 0.645049 -0.375730
v 1.133735 0.597708 -0.367764
v 1.258184 0.599714 -0.363832
s 0
f 3 2 1
f 4 2 5
f 6 5 2
f 7 6 2
f 2 3 7
f 8 2 4
f 5 6 9
f 8 4 10
f 4 5 10
f 10 1 8
f 11 1 10
f 10 12 11
f 9 12 10
f 10 5 9
f 1 13 3
f 14 13 1
f 1 11 14
f 14 16 13
f 14 15 16
f 12 15 14
f 14 11 12
f 13 17 3
f 17 13 16
f 16 18 17
f 19 18 16
f 16 15 19
f 7 3 17
f 18 7 17
f 18 19 7
f 7 19 6
f 9 6 19
f 9 19 21
f 20 21 19
f 15 20 19
f 20 9 21
f 20 12 9
f 15 12 20
f 24 23 22
f 24 26 23
f 27 26 24
f 27 24 28
f 29 28 24
f 29 24 22
f 29 22 25
f 26 27 31
f 28 32 27
f 33 32 28
f 59 29 25
f 34 31 27
f 35 34 27
f 35 27 32
f 32 33 36
f 33 28 29
f 59 33 29
f 35 32 37
f 32 36 37
f 38 36 33
f 39 34 35
f 39 35 40
f 35 37 40
f 37 41 40
f 41 37 42
f 37 36 42
f 42 36 43
f 38 43 36
f 44 39 40
f 40 41 45
f 45 41 46
f 41 42 46
f 43 46 42
f 47 44 40
f 45 47 40
f 47 45 48
f 45 49 48
f 45 46 49
f 50 44 47
f 47 48 50
f 48 49 51
f 51 49 52
f 53 52 49
f 49 46 53
f 43 54 46
f 46 55 53
f 46 54 55
f 56 54 43
f 38 56 43
f 54 56 57
f 56 58 57
f 58 56 38
f 58 38 59
f 59 38 33
f 60 54 57
f 60 57 61
f 61 62 60
f 61 63 62
f 64 54 60
f 64 60 65
f 60 62 65
f 66 62 63
f 63 67 66
f 62 68 65
f 68 62 69
f 69 62 66
f 66 67 70
f 67 71 70
f 72 71 67
f 69 66 73
f 66 70 73
f 74 72 67
f 75 74 67
f 75 67 63
f 63 76 75
f 76 63 61
f 61 57 76
f 77 74 75
f 77 75 78
f 78 75 79
f 75 76 79
f 76 57 58
f 79 76 80
f 58 80 76
f 81 59 25
f 81 25 30
f 81 58 59
f 81 30 82
f 82 58 81
f 85 84 83
f 85 86 84
f 87 86 85
f 88 87 85
f 85 83 89
f 90 85 89
f 90 89 91
f 90 91 92
f 92 91 93
f 88 85 94
f 95 94 85
f 95 85 90
f 96 95 90
f 90 97 96
f 90 98 97
f 90 92 98
f 92 93 99
f 100 88 94
f 100 94 101
f 94 102 101
f 102 94 95
f 96 102 95
f 96 103 102
f 96 104 103
f 96 105 104
f 97 105 96
f 97 98 105
f 100 101 106
f 106 101 107
f 107 101 108
f 101 102 108
f 103 108 102
f 103 109 108
f 103 104 109
f 109 104 110
f 111 110 104
f 112 111 104
f 104 105 112
f 107 108 113
f 113 108 114
f 108 109 114
f 109 115 114
f 109 116 115
f 117 116 109
f 117 109 110
f 107 113 118
f 119 118 113
f 119 113 120
f 113 114 120
f 120 114 121
f 115 121 114
f 111 112 122
f 111 122 123
f 124 92 99
f 92 124 98
f 127 126 125
f 125 128 127
f 131 130 129
f 129 132 131
f 135 134 133
f 133 136 135
f 139 138 137
f 137 140 139
f 143 142 141
f 141 144 143
f 147 146 145
f 145 148 147
f 151 150 149
f 149 152 151
f 155 154 153
f 153 156 155
f 159 158 157
f 157 160 159
f 163 162 161
f 161 164 163
f 167 166 165
f 165 168 167
f 171 170 169
f 169 172 171
f 175 174 173
f 173 176 175
f 179 178 177
f 177 180 179
f 183 182 181
f 181 184 183
f 187 186 185
f 185 188 187
f 191 190 189
f 189 192 191
f 195 194 193
f 193 196 195
f 199 198 197
f 197 200 199
f 203 202 201
f 201 204 203
f 207 206 205
f 205 208 207
f 211 210 209
f 209 212 211
f 215 214 213
f 213 216 215
f 219 218 217
f 217 220 219
f 223 222 221
f 221 224 223
f 227 226 225
f 227 225 228
f 225 229 228
f 227 228 230
f 233 232 231
f 233 231 234
f 231 235 234
f 233 234 236
f 239 238 237
f 239 237 240
f 237 241 240
f 239 240 242
f 245 244 243
f 245 243 246
f 243 247 246
f 245 246 248
f 251 250 249
f 249 252 251
f 255 254 253
f 253 256 255
f 259 258 257
f 257 260 259
f 263 262 261
f 261 264 263
f 267 266 265
f 265 268 267
f 271 270 269
f 269 272 271
f 273 271 272
f 272 274 273
f 275 273 274
f 274 276 275
f 279 278 277
f 277 280 279
f 281 279 280
f 280 282 281
f 283 281 282
f 282 284 283
f 287 286 285
f 285 288 287
f 291 290 289
f 289 292 291
f 293 295 294
f 293 296 295
f 296 297 295
f 297 296 298
f 299 297 298
f 298 300 299
f 303 302 301
f 301 304 303
f 307 306 305
f 305 308 307
f 311 310 309
f 309 312 311
f 315 314 313
f 313 316 315
f 319 318 317
f 317 320 319
f 320 321 319
f 322 319 321
f 321 323 322
f 323 324 322
f 325 322 324
f 324 326 325
f 329 328 327
f 327 330 329
f 331 329 330
f 330 332 331
f 332 333 331
f 334 331 333
f 335 337 336
f 337 338 336
f 338 337 339
f 340 338 339
f 340 339 341
f 342 340 341
f 132 344 343
f 343 345 132
f 348 347 346
f 346 349 348
f 352 351 350
f 350 353 352
f 356 355 354
f 354 357 356
f 360 359 358
f 358 361 360
f 144 363 362
f 362 364 144
f 367 366 365
f 365 368 367
f 371 370 369
f 369 372 371
f 375 374 373
f 373 376 375
f 379 378 377
f 377 380 379
f 383 382 381
f 381 384 383
f 387 386 385
f 385 388 387
f 391 390 389
f 389 392 391
f 160 394 393
f 393 395 160
f 398 397 396
f 396 399 398
f 216 401 400
f 400 402 216
f 405 404 403
f 403 406 405
f 224 408 407
f 407 409 224
f 412 411 410
f 410 413 412
f 416 415 414
f 414 417 416
f 420 419 418
f 418 421 420
f 424 423 422
f 422 425 424
f 260 427 426
f 426 428 260
f 431 430 429
f 429 432 431
f 435 434 433
f 433 436 435
f 439 438 437
f 437 440 439
f 443 442 441
f 441 444 443
f 447 446 445
f 445 448 447
f 451 450 449
f 449 452 451
f 455 454 453
f 453 456 455
f 292 458 457
f 457 459 292
f 462 461 460
f 460 463 462
f 466 465 464
f 465 467 464
f 468 464 465
f 464 469 465
f 472 471 470
f 472 470 473
f 470 474 473
f 472 473 475
f 478 477 476
f 478 476 479
f 476 480 479
f 478 479 481
f 484 483 482
f 482 485 484
f 484 485 486
f 486 487 484
f 486 488 487
f 489 487 488
f 489 488 490
f 490 491 489
f 494 493 492
f 494 492 495
f 492 496 495
f 494 495 497
f 500 499 498
f 500 498 501
f 498 502 501
f 500 501 503
f 506 505 504
f 504 507 506
f 506 507 508
f 508 509 506
f 508 510 509
f 511 509 510
f 511 510 512
f 512 513 511
f 516 515 514
f 516 514 517
f 514 518 517
f 516 517 519
f 522 521 520
f 522 520 523
f 520 524 523
f 522 523 525
f 528 527 526
f 526 529 528
f 528 529 530
f 530 531 528
f 530 532 531
f 533 531 532
f 533 532 534
f 534 535 533
f 538 537 536
f 538 536 539
f 536 540 539
f 538 539 541
f 544 543 542
f 544 542 545
f 542 546 545
f 544 545 547
f 550 549 548
f 548 551 550
f 550 551 552
f 552 553 550
f 552 554 553
f 555 553 554
f 555 554 556
f 556 557 555
f 560 559 558
f 560 558 561
f 558 562 561
f 560 561 563
f 566 565 564
f 566 564 567
f 564 568 567
f 566 567 569
f 572 571 570
f 572 570 573
f 570 574 573
f 572 573 575
f 578 577 576
f 578 576 579
f 576 580 579
f 578 579 581
f 584 583 582
f 584 582 585
f 582 586 585
f 584 585 587
f 590 589 588
f 588 591 590
f 590 591 592
f 592 593 590
f 592 594 593
f 595 593 594
f 595 594 596
f 596 597 595
f 600 599 598
f 600 598 601
f 598 602 601
f 600 601 603
f 606 605 604
f 604 607 606
f 607 604 608
f 608 609 607
f 608 610 609
f 611 609 610
f 611 610 612
f 612 613 611
f 616 615 614
f 616 614 617
f 614 618 617
f 616 617 619
f 622 621 620
f 620 623 622
f 622 623 624
f 624 625 622
f 624 626 625
f 627 625 626
f 627 626 628
f 628 629 627
f 632 631 630
f 632 630 633
f 630 634 633
f 632 633 635
f 638 637 636
f 636 639 638
f 638 639 640
f 640 641 638
f 640 642 641
f 642 643 641
f 643 642 644
