# Blender 5.2.2 LTS
# www.blender.org
o Crab.001
v -0.624830 0.197807 0.978775
v -0.493140 0.206462 0.975168
v -0.642243 0.302948 0.986007
v -0.498503 0.290275 0.991279
v -0.668004 0.196916 1.121392
v -0.514606 0.206998 1.117190
v -0.688287 0.319389 1.129816
v -0.520853 0.304627 1.135957
v -0.704056 0.337963 1.059512
v -0.476582 0.317907 1.067855
v -0.676499 0.171572 1.048067
v -0.468095 0.185270 1.042358
v 0.307922 0.197807 0.978776
v 0.176233 0.206462 0.975168
v 0.325335 0.302948 0.986008
v 0.181595 0.290275 0.991279
v 0.351096 0.196915 1.121392
v 0.197698 0.206998 1.117190
v 0.371379 0.319389 1.129816
v 0.203945 0.304627 1.135957
v 0.387148 0.337962 1.059512
v 0.159674 0.317906 1.067855
v 0.359591 0.171572 1.048068
v 0.151187 0.185270 1.042358
vn -0.2863 -0.4950 -0.8204
vn 0.4857 -0.3758 -0.7892
vn -0.3259 0.4755 -0.8171
vn 0.4937 0.5122 -0.7028
vn -0.4781 -0.5626 0.6745
vn 0.4233 -0.5325 0.7330
vn -0.5542 0.4613 0.6928
vn 0.3888 0.4519 0.8029
vn -0.7287 0.6644 -0.1662
vn 0.7441 0.6622 0.0885
vn -0.6287 -0.7635 -0.1477
vn 0.7657 -0.6427 0.0248
vn 0.2863 -0.4950 -0.8204
vn -0.4857 -0.3758 -0.7892
vn 0.3259 0.4755 -0.8171
vn -0.4937 0.5122 -0.7028
vn 0.4781 -0.5626 0.6745
vn -0.4233 -0.5325 0.7330
vn 0.5542 0.4613 0.6928
vn -0.3888 0.4519 0.8029
vn 0.7287 0.6644 -0.1662
vn -0.7441 0.6622 0.0885
vn 0.6287 -0.7635 -0.1477
vn -0.7657 -0.6427 0.0248
vt 0.730292 0.792372
vt 0.783150 0.707309
vt 0.789854 0.808776
vt 0.737310 0.309729
vt 0.786701 0.190124
vt 0.781615 0.319434
vt 0.807304 0.393486
vt 0.807304 0.125717
vt 0.745165 0.165870
vt 0.725423 0.094072
vt 0.707022 0.341787
vt 0.708365 0.658125
vt 0.813175 0.658124
vt 0.735574 0.716945
vt 0.819167 0.869359
vt 0.707022 0.851268
vt 0.844775 0.232779
vt 0.897030 0.319757
vt 0.837355 0.333968
vt 0.742212 0.465220
vt 0.782162 0.601911
vt 0.737747 0.594627
vt 0.707022 0.657814
vt 0.726633 0.393806
vt 0.809682 0.645041
vt 0.784943 0.457085
vt 0.809682 0.393797
vt 0.919872 0.186284
vt 0.892272 0.244137
vt 0.815075 0.182495
vt 0.919872 0.379452
vt 0.807615 0.393486
s 1
f 4/1/4 1/2/1 3/3/3
f 5/4/5 8/5/8 7/6/7
f 9/7/9 8/5/8 10/8/10
f 9/7/9 5/4/5 7/6/7
f 10/8/10 6/9/6 12/10/12
f 11/11/11 6/9/6 5/4/5
f 1/2/1 12/12/12 11/13/11
f 4/1/4 12/12/12 2/14/2
f 3/3/3 11/13/11 9/15/9
f 3/3/3 10/16/10 4/1/4
f 13/17/13 16/18/16 15/19/15
f 20/20/20 17/21/17 19/22/19
f 20/20/20 21/23/21 22/24/22
f 21/23/21 17/21/17 23/25/23
f 18/26/18 22/24/22 24/27/24
f 23/25/23 18/26/18 24/27/24
f 13/17/13 24/28/24 14/29/14
f 24/28/24 16/18/16 14/29/14
f 15/19/15 23/30/23 13/17/13
f 22/31/22 15/19/15 16/18/16
f 4/1/4 2/14/2 1/2/1
f 5/4/5 6/9/6 8/5/8
f 9/7/9 7/6/7 8/5/8
f 9/7/9 11/11/11 5/4/5
f 10/8/10 8/5/8 6/9/6
f 11/11/11 12/10/12 6/9/6
f 1/2/1 2/14/2 12/12/12
f 4/1/4 10/16/10 12/12/12
f 3/3/3 1/2/1 11/13/11
f 3/3/3 9/15/9 10/16/10
f 13/17/13 14/29/14 16/18/16
f 20/20/20 18/26/18 17/21/17
f 20/20/20 19/22/19 21/23/21
f 21/23/21 19/22/19 17/21/17
f 18/26/18 20/20/20 22/24/22
f 23/25/23 17/21/17 18/26/18
f 13/17/13 23/30/23 24/28/24
f 24/28/24 22/31/22 16/18/16
f 15/19/15 21/32/21 23/30/23
f 22/31/22 21/32/21 15/19/15
