# Blender 5.2.2 LTS
# www.blender.org
o Crab.004
v -0.535723 0.156831 0.609215
v -0.380181 0.210403 0.680940
v -0.600041 0.296551 0.583215
v -0.424980 0.324472 0.676002
v -0.569535 0.156831 0.787369
v -0.414686 0.207778 0.859094
v -0.633853 0.296551 0.761369
v -0.458333 0.323678 0.854155
v -0.610113 0.188417 0.866232
v -0.456759 0.204280 0.943767
v -0.649688 0.281091 0.848747
v -0.489216 0.289449 0.925236
v -0.700481 0.144504 1.047357
v -0.441187 0.170596 1.049541
v -0.720388 0.354376 1.051032
v -0.469006 0.341578 1.066866
v -0.666667 0.172547 1.081531
v -0.483661 0.192185 1.072661
v -0.677163 0.323251 1.083177
v -0.501468 0.318187 1.090968
v -0.589745 0.212992 0.990553
v -0.508838 0.220273 0.990904
v -0.609331 0.277929 0.992388
v -0.514959 0.272162 0.998493
v 0.063422 0.502792 0.933414
v 0.069726 0.550965 0.941881
v 0.074781 0.536753 0.831771
v 0.081854 0.585509 0.829551
v 0.112149 0.495866 0.936545
v 0.118453 0.544039 0.945012
v 0.123508 0.529827 0.834902
v 0.130581 0.578582 0.832683
v 0.072888 0.536366 1.097348
v 0.075345 0.555145 1.100648
v 0.091883 0.533667 1.098569
v 0.094340 0.552445 1.101869
v 0.098113 0.586411 1.228078
v 0.100000 0.600837 1.230613
v 0.112705 0.584337 1.229015
v 0.114592 0.598763 1.231551
v 0.095029 0.580628 1.263277
v 0.096916 0.595055 1.265812
v 0.109621 0.578554 1.264214
v 0.111508 0.592981 1.266749
v 0.218815 0.156831 0.609216
v 0.063273 0.210403 0.680941
v 0.283134 0.296551 0.583215
v 0.108072 0.324471 0.676002
v 0.252627 0.156831 0.787370
v 0.097778 0.207778 0.859094
v 0.316946 0.296551 0.761369
v 0.141425 0.323677 0.854156
v 0.293205 0.188417 0.866232
v 0.139851 0.204279 0.943767
v 0.332781 0.281090 0.848747
v 0.172308 0.289449 0.925236
v 0.383573 0.144504 1.047358
v 0.124279 0.170595 1.049541
v 0.403480 0.354375 1.051032
v 0.152098 0.341578 1.066866
v 0.349759 0.172546 1.081531
v 0.166753 0.192185 1.072661
v 0.360255 0.323251 1.083178
v 0.184560 0.318187 1.090968
v 0.272837 0.212992 0.990554
v 0.191930 0.220273 0.990904
v 0.292423 0.277928 0.992388
v 0.198051 0.272162 0.998493
v -0.256879 0.523902 0.868040
v -0.230973 0.596162 0.874430
v -0.206410 0.548442 0.709344
v -0.176961 0.618929 0.699451
v -0.186928 0.497221 0.886160
v -0.161022 0.569481 0.892551
v -0.136458 0.521760 0.727465
v -0.107010 0.592247 0.717572
v -0.263246 0.607740 1.115959
v -0.253147 0.635908 1.118450
v -0.235978 0.597339 1.123023
v -0.225879 0.625507 1.125514
v -0.290193 0.683815 1.334338
v -0.276653 0.702369 1.336464
v -0.271621 0.670713 1.330396
v -0.258081 0.689268 1.332521
v -0.285432 0.674057 1.389197
v -0.271892 0.692611 1.391322
v -0.266860 0.660955 1.385255
v -0.253320 0.679509 1.387380
v 0.451093 0.414979 0.781371
v 0.458017 0.501579 0.794274
v 0.395638 0.476247 0.608144
v 0.396598 0.563916 0.602925
v 0.534439 0.412424 0.753786
v 0.541364 0.499025 0.766689
v 0.478985 0.473692 0.580559
v 0.479944 0.561362 0.575340
v 0.569514 0.478038 1.048017
v 0.572213 0.511796 1.053046
v 0.602003 0.477042 1.037264
v 0.604703 0.510801 1.042293
v 0.653422 0.527535 1.294955
v 0.661868 0.552443 1.295047
v 0.672045 0.521284 1.277466
v 0.680491 0.546192 1.277557
v 0.693524 0.513762 1.342579
v 0.701971 0.538670 1.342670
v 0.712147 0.507511 1.325089
v 0.720594 0.532419 1.325181
v 0.283770 0.492303 0.896844
v 0.282637 0.537783 0.901273
v 0.263674 0.517021 0.802176
v 0.260593 0.562315 0.796854
v 0.328543 0.494293 0.887859
v 0.327410 0.539773 0.892288
v 0.308447 0.519011 0.793191
v 0.305366 0.564305 0.787870
v 0.324692 0.537297 1.039789
v 0.324250 0.555026 1.041515
v 0.342145 0.538073 1.036286
v 0.341703 0.555802 1.038013
v 0.368662 0.597238 1.148663
v 0.368323 0.610857 1.149989
v 0.382070 0.597834 1.145972
v 0.381730 0.611453 1.147298
v 0.375292 0.594250 1.181041
v 0.374953 0.607869 1.182367
v 0.388700 0.594846 1.178350
v 0.388361 0.608465 1.179676
v 2.764519 -0.924905 -1.350869
v 2.760624 -0.923042 -1.359026
v 2.779901 -0.929790 -1.362967
v 2.777775 -0.928526 -1.371859
v 2.761386 -0.933573 -1.351352
v 2.757490 -0.931710 -1.359510
v 2.776767 -0.938459 -1.363450
v 2.774642 -0.937195 -1.372343
v 2.734280 -0.917143 -1.347817
v 2.732761 -0.916416 -1.350997
v 2.733058 -0.920522 -1.348005
v 2.731539 -0.919795 -1.351185
v 2.708120 -0.912778 -1.350116
v 2.706953 -0.912221 -1.352559
v 2.707181 -0.915374 -1.350261
v 2.706015 -0.914816 -1.352703
v 2.702487 -0.910916 -1.347001
v 2.701320 -0.910358 -1.349444
v 2.701549 -0.913512 -1.347145
v 2.700382 -0.912954 -1.349588
v 2.727417 -0.940911 -1.357628
v 2.721685 -0.941261 -1.370852
v 2.750710 -0.955727 -1.372808
v 2.747648 -0.957542 -1.386778
v 2.721288 -0.953612 -1.354636
v 2.715556 -0.953962 -1.367859
v 2.744581 -0.968428 -1.369815
v 2.741519 -0.970243 -1.383786
v 2.681496 -0.923829 -1.357982
v 2.679261 -0.923965 -1.363137
v 2.679107 -0.928780 -1.356815
v 2.676872 -0.928916 -1.361970
v 2.642217 -0.904965 -1.357864
v 2.640253 -0.906226 -1.361496
v 2.642356 -0.909064 -1.356516
v 2.640392 -0.910325 -1.360147
v 2.632902 -0.903760 -1.353245
v 2.630939 -0.905021 -1.356877
v 2.633041 -0.907859 -1.351897
v 2.631077 -0.909120 -1.355529
v 2.778374 -0.896513 -1.380017
v 2.772032 -0.892508 -1.394644
v 2.808881 -0.891692 -1.398359
v 2.805969 -0.887438 -1.413968
v 2.778291 -0.912377 -1.384325
v 2.771949 -0.908371 -1.398952
v 2.808798 -0.907556 -1.402667
v 2.805886 -0.903302 -1.418276
v 2.722714 -0.901295 -1.380474
v 2.720242 -0.899733 -1.386176
v 2.722682 -0.907478 -1.382153
v 2.720209 -0.905917 -1.387855
v 2.673078 -0.901731 -1.378358
v 2.671494 -0.901866 -1.383017
v 2.675254 -0.906104 -1.378971
v 2.673670 -0.906239 -1.383630
v 2.663085 -0.907201 -1.374803
v 2.661501 -0.907336 -1.379462
v 2.665260 -0.911574 -1.375416
v 2.663677 -0.911709 -1.380075
v 2.689145 -0.973300 -1.336993
v 2.686502 -0.970479 -1.344624
v 2.705587 -0.972901 -1.345881
v 2.704746 -0.970205 -1.353956
v 2.687951 -0.981371 -1.339563
v 2.685308 -0.978550 -1.347195
v 2.704393 -0.980972 -1.348451
v 2.703553 -0.978277 -1.356526
v 2.660166 -0.971357 -1.338323
v 2.659135 -0.970258 -1.341298
v 2.659701 -0.974504 -1.339325
v 2.658670 -0.973404 -1.342300
v 2.636235 -0.970731 -1.344300
v 2.635443 -0.969887 -1.346585
v 2.635878 -0.973149 -1.345069
v 2.635086 -0.972304 -1.347355
v 2.630392 -0.970535 -1.342203
v 2.629600 -0.969690 -1.344489
v 2.630035 -0.972952 -1.342973
v 2.629243 -0.972107 -1.345258
vn -0.1197 -0.7255 -0.6777
vn 0.8743 -0.3359 -0.3503
vn -0.5094 0.3733 -0.7753
vn 0.5534 0.7351 -0.3915
vn -0.3621 -0.9316 0.0321
vn 0.8376 -0.4406 0.3228
vn -0.8613 0.4908 -0.1311
vn 0.4400 0.8443 0.3060
vn -0.4711 -0.8586 -0.2023
vn 0.8266 -0.5607 -0.0483
vn -0.8376 0.4501 -0.3095
vn 0.5398 0.8392 0.0667
vn -0.6380 -0.7427 0.2033
vn 0.7326 -0.6121 0.2977
vn -0.7103 0.6727 0.2074
vn 0.6278 0.7144 0.3092
vn -0.0534 -0.2642 0.9630
vn -0.0395 -0.1444 0.9887
vn -0.1117 0.1552 0.9815
vn 0.0220 0.0415 0.9989
vn 0.2071 0.5160 0.8312
vn -0.5417 0.3575 0.7607
vn 0.3467 -0.4158 0.8408
vn -0.5242 -0.4807 0.7029
vn -0.7563 -0.6509 -0.0656
vn -0.6654 0.7420 0.0825
vn -0.6198 -0.3955 -0.6778
vn -0.4301 0.7250 -0.5380
vn 0.5480 -0.8363 0.0182
vn 0.8293 0.5295 0.1785
vn 0.5656 -0.5640 -0.6017
vn 0.6784 0.5674 -0.4667
vn -0.7779 -0.5773 0.2480
vn -0.6672 0.7438 -0.0408
vn 0.5338 -0.8028 0.2656
vn 0.8047 0.5765 -0.1417
vn -0.8294 -0.5446 0.1243
vn -0.5165 0.8533 -0.0721
vn 0.7017 -0.7120 0.0265
vn 0.7661 0.6396 -0.0640
vn -0.6940 -0.5761 0.4318
vn -0.5464 0.5518 0.6301
vn 0.4469 -0.7383 0.5052
vn 0.5945 0.3896 0.7034
vn 0.1197 -0.7255 -0.6777
vn -0.8743 -0.3359 -0.3503
vn 0.5094 0.3733 -0.7753
vn -0.5534 0.7351 -0.3915
vn 0.3621 -0.9316 0.0321
vn -0.8376 -0.4406 0.3228
vn 0.8613 0.4908 -0.1311
vn -0.4400 0.8443 0.3060
vn 0.4711 -0.8586 -0.2023
vn -0.8266 -0.5607 -0.0483
vn 0.8376 0.4501 -0.3095
vn -0.5398 0.8392 0.0667
vn 0.6380 -0.7427 0.2033
vn -0.7326 -0.6121 0.2977
vn 0.7103 0.6727 0.2074
vn -0.6278 0.7144 0.3092
vn 0.0534 -0.2642 0.9630
vn 0.0395 -0.1444 0.9887
vn 0.1117 0.1552 0.9815
vn -0.0220 0.0415 0.9989
vn -0.2071 0.5160 0.8312
vn 0.5417 0.3575 0.7607
vn -0.3467 -0.4158 0.8408
vn 0.5242 -0.4807 0.7029
vn -0.8759 -0.4687 -0.1145
vn -0.4716 0.8755 -0.1057
vn -0.6035 -0.3402 -0.7212
vn -0.1689 0.7181 -0.6751
vn 0.3229 -0.9259 0.1960
vn 0.9022 0.3515 0.2502
vn 0.4860 -0.7557 -0.4389
vn 0.8499 0.3295 -0.4111
vn -0.9238 -0.3776 0.0641
vn -0.3783 0.8902 -0.2538
vn 0.3364 -0.8528 0.3995
vn 0.9142 0.3931 0.0989
vn -0.9983 -0.0522 -0.0271
vn -0.1840 0.9822 -0.0380
vn 0.1340 -0.9839 0.1180
vn 0.9581 0.2852 -0.0271
vn -0.7546 -0.2372 0.6119
vn -0.0768 0.6915 0.7182
vn 0.1751 -0.8930 0.4145
vn 0.8529 0.0357 0.5209
vn -0.6527 -0.7315 0.1973
vn -0.6605 0.6637 0.3510
vn -0.7829 -0.4661 -0.4121
vn -0.6741 0.6692 -0.3126
vn 0.6000 -0.7699 -0.2173
vn 0.7750 0.6197 -0.1241
vn 0.3557 -0.5010 -0.7890
vn 0.3906 0.6367 -0.6649
vn -0.6207 -0.6780 0.3938
vn -0.6664 0.7222 0.1855
vn 0.6994 -0.7140 -0.0331
vn 0.6947 0.6754 -0.2473
vn -0.8117 -0.3920 0.4329
vn -0.4185 0.8572 0.3000
vn 0.4203 -0.8829 -0.2092
vn 0.6915 0.6004 -0.4017
vn -0.2311 -0.5343 0.8131
vn 0.1398 0.5593 0.8171
vn 0.5865 -0.8087 0.0453
vn 0.9573 0.2848 0.0493
vn -0.6070 -0.7783 0.1609
vn -0.7534 0.6160 0.2301
vn -0.6829 -0.5556 -0.4743
vn -0.6850 0.5884 -0.4295
vn 0.6861 -0.7208 -0.0986
vn 0.7284 0.6819 -0.0672
vn 0.4923 -0.5034 -0.7101
vn 0.4139 0.6373 -0.6501
vn -0.5620 -0.6833 0.4661
vn -0.7868 0.6070 0.1118
vn 0.7291 -0.6695 0.1423
vn 0.6145 0.6963 -0.3708
vn -0.6485 -0.6710 0.3595
vn -0.6732 0.7385 0.0377
vn 0.8097 -0.5709 -0.1359
vn 0.5854 0.7579 -0.2880
vn -0.4358 -0.6516 0.6209
vn -0.4645 0.4973 0.7328
vn 0.6952 -0.6013 0.3939
vn 0.6666 0.5476 0.5058
vn -0.4490 -0.4992 -0.7411
vn 0.0348 -0.8475 0.5297
vn -0.9108 -0.2933 -0.2905
vn -0.4656 -0.4708 0.7494
vn -0.0009 0.7406 -0.6719
vn 0.5483 0.5732 0.6089
vn -0.5035 0.8335 -0.2276
vn -0.0847 0.5829 0.8081
vn -0.1504 -0.6180 -0.7717
vn -0.0788 -0.8191 0.5682
vn 0.2299 0.6565 -0.7184
vn 0.2566 0.6165 0.7443
vn -0.2731 -0.6442 -0.7144
vn -0.0348 -0.7029 0.7105
vn 0.0839 0.8456 -0.5272
vn 0.3302 0.5436 0.7717
vn 0.0457 -0.5862 -0.8089
vn 0.5330 -0.8192 0.2116
vn 0.4377 0.4982 -0.7484
vn 0.9250 0.2652 0.2721
vn -0.4903 -0.6496 -0.5811
vn -0.0465 -0.6593 0.7505
vn -0.9329 -0.2832 -0.2225
vn -0.5106 -0.1929 0.8379
vn 0.0709 0.5135 -0.8552
vn 0.5966 0.6735 0.4364
vn -0.4229 0.7738 -0.4716
vn -0.0336 0.7955 0.6050
vn -0.3202 -0.7641 -0.5601
vn -0.1498 -0.5403 0.8280
vn 0.2792 0.4547 -0.8458
vn 0.4708 0.7103 0.5233
vn -0.3533 -0.9029 -0.2448
vn 0.1314 -0.4401 0.8883
vn -0.0741 0.3744 -0.9243
vn 0.3440 0.8129 0.4699
vn 0.2698 -0.7833 -0.5601
vn 0.7950 -0.4459 0.4113
vn 0.2326 0.3130 -0.9208
vn 0.7580 0.6503 0.0506
vn -0.1927 -0.4455 -0.8743
vn 0.2656 -0.8875 0.3767
vn -0.7341 -0.4902 -0.4699
vn -0.3482 -0.7368 0.5795
vn -0.1860 0.8284 -0.5283
vn 0.2732 0.5724 0.7731
vn -0.7281 0.6676 -0.1554
vn -0.3425 0.3459 0.8735
vn 0.0105 -0.4800 -0.8772
vn 0.1248 -0.8684 0.4799
vn 0.0278 0.8588 -0.5116
vn 0.1471 0.5128 0.8458
vn 0.0515 -0.7478 -0.6619
vn 0.3396 -0.7057 0.6219
vn -0.2613 0.6921 -0.6729
vn -0.0131 0.5695 0.8219
vn 0.5529 -0.2640 -0.7903
vn 0.9244 -0.2324 0.3026
vn 0.0426 0.7617 -0.6465
vn 0.4140 0.7933 0.4463
vn -0.2224 -0.3809 -0.8975
vn 0.1140 -0.9299 0.3498
vn -0.7801 -0.3568 -0.5140
vn -0.4778 -0.6950 0.5373
vn -0.0382 0.8647 -0.5009
vn 0.3250 0.4975 0.8043
vn -0.6127 0.7753 -0.1535
vn -0.3213 0.3636 0.8744
vn 0.0946 -0.4419 -0.8921
vn -0.0076 -0.9289 0.3703
vn 0.2089 0.8301 -0.5170
vn 0.0128 0.4632 0.8861
vn -0.0282 -0.4992 -0.8660
vn -0.0097 -0.8427 0.5383
vn 0.0009 0.9458 -0.3247
vn 0.0939 0.3982 0.9125
vn 0.2842 -0.3726 -0.8834
vn 0.6410 -0.7533 0.1467
vn 0.4453 0.7169 -0.5365
vn 0.8021 0.3361 0.4936
vt 0.078061 0.293181
vt 0.171510 0.367043
vt 0.144596 0.411538
vt 0.228385 0.181377
vt 0.291599 0.135506
vt 0.270914 0.236818
vt 0.166286 0.279173
vt 0.212265 0.356275
vt 0.166621 0.562505
vt 0.161571 0.717109
vt 0.264804 0.469031
vt 0.236924 0.389345
vt 0.204662 0.574274
vt 0.234776 0.750075
vt 0.364173 0.668036
vt 0.294340 0.589123
vt 0.365888 0.613540
vt 0.270828 0.617209
vt 0.392231 0.239469
vt 0.314791 0.266840
vt 0.328865 0.311010
vt 0.371550 0.440725
vt 0.343958 0.410511
vt 0.285457 0.470221
vt 0.323082 0.462634
vt 0.330824 0.526154
vt 0.726213 0.565982
vt 0.745292 0.639004
vt 0.711370 0.624840
vt 0.762949 0.632942
vt 0.748377 0.678505
vt 0.720296 0.741059
vt 0.712304 0.678162
vt 0.647674 0.597838
vt 0.644910 0.573395
vt 0.742916 0.523646
vt 0.791535 0.669118
vt 0.643827 0.621516
vt 0.574505 0.560293
vt 0.643876 0.548815
vt 0.560233 0.523646
vt 0.555095 0.549699
vt 0.538622 0.541946
vt 0.568392 0.537710
vt 0.636542 0.639779
vt 0.570709 0.584674
vt 0.557659 0.562261
vt 0.553848 0.570471
vt 0.485986 0.477108
vt 0.392542 0.550966
vt 0.459077 0.432608
vt 0.542856 0.662796
vt 0.606079 0.708640
vt 0.542868 0.750075
vt 0.480753 0.564992
vt 0.526725 0.487840
vt 0.481112 0.281677
vt 0.579271 0.375276
vt 0.585401 0.607308
vt 0.551375 0.454763
vt 0.476051 0.127038
vt 0.519129 0.269925
vt 0.678653 0.176109
vt 0.608789 0.255111
vt 0.585266 0.227051
vt 0.549257 0.094072
vt 0.706711 0.604677
vt 0.643381 0.533204
vt 0.686030 0.403421
vt 0.706711 0.550808
vt 0.629295 0.577359
vt 0.637560 0.381577
vt 0.645294 0.318054
vt 0.599926 0.374091
vt 0.680368 0.230606
vt 0.437178 0.587314
vt 0.466891 0.699213
vt 0.413925 0.676217
vt 0.494172 0.689506
vt 0.471810 0.760187
vt 0.430812 0.856161
vt 0.415724 0.758083
vt 0.310993 0.632352
vt 0.308955 0.590617
vt 0.464816 0.523646
vt 0.538375 0.745486
vt 0.193019 0.611213
vt 0.193651 0.576537
vt 0.306901 0.553886
vt 0.305751 0.673498
vt 0.176749 0.523646
vt 0.164777 0.560884
vt 0.138923 0.546503
vt 0.184902 0.545164
vt 0.295484 0.706378
vt 0.169259 0.580174
vt 0.165408 0.594273
vt 0.476784 0.216443
vt 0.510655 0.344260
vt 0.450209 0.317902
vt 0.541797 0.333262
vt 0.516241 0.413865
vt 0.469417 0.523400
vt 0.452231 0.411384
vt 0.332757 0.267601
vt 0.330562 0.219805
vt 0.508261 0.143839
vt 0.592215 0.397109
vt 0.199816 0.243944
vt 0.200296 0.201250
vt 0.326738 0.314745
vt 0.327998 0.178307
vt 0.189314 0.168975
vt 0.138923 0.171569
vt 0.179644 0.143838
vt 0.314959 0.352357
vt 0.167467 0.224687
vt 0.164297 0.188225
vt 0.173955 0.208294
vt 0.167507 0.264986
vt 0.766349 0.183069
vt 0.784026 0.250786
vt 0.752591 0.237582
vt 0.826876 0.278670
vt 0.786856 0.287405
vt 0.760847 0.345350
vt 0.753442 0.287015
vt 0.693541 0.212603
vt 0.690972 0.189956
vt 0.781813 0.143838
vt 0.689976 0.234554
vt 0.625715 0.177791
vt 0.690017 0.167167
vt 0.620053 0.156871
vt 0.592461 0.160800
vt 0.612491 0.143838
vt 0.683219 0.251478
vt 0.622212 0.200388
vt 0.606579 0.187248
vt 0.607725 0.167984
vt 0.610104 0.179624
vt 0.606191 0.209601
vt 0.553436 0.594598
vt 0.166397 0.630238
vt 0.800401 0.245198
vt 0.228388 0.094072
vt 0.392231 0.293338
vt 0.658446 0.433687
s 1
f 4/1/4 1/2/1 3/3/3
f 6/4/6 12/5/12 10/6/10
f 4/1/4 6/4/6 2/7/2
f 2/7/2 5/8/5 1/2/1
f 4/1/4 7/9/7 8/10/8
f 1/2/1 7/9/7 3/3/3
f 10/6/10 13/11/13 9/12/9
f 6/4/6 9/12/9 5/8/5
f 8/10/8 11/13/11 12/14/12
f 7/9/7 9/12/9 11/13/11
f 16/15/16 19/16/19 20/17/20
f 12/14/12 15/18/15 16/15/16
f 11/13/11 13/11/13 15/18/15
f 10/6/10 16/19/16 14/20/14
f 18/21/18 24/22/24 22/23/22
f 13/11/13 19/16/19 15/18/15
f 16/19/16 18/21/18 14/20/14
f 13/11/13 18/21/18 17/24/17
f 21/25/21 24/22/24 23/26/23
f 18/21/18 21/25/21 17/24/17
f 20/17/20 23/26/23 24/22/24
f 17/24/17 23/26/23 19/16/19
f 26/27/26 27/28/27 25/29/25
f 28/30/28 31/31/31 27/28/27
f 31/31/31 30/32/30 29/33/29
f 26/27/26 33/34/33 34/35/34
f 27/28/27 29/33/29 25/29/25
f 28/30/28 30/36/30 32/37/32
f 35/38/35 37/39/37 33/34/33
f 29/33/29 33/34/33 25/29/25
f 30/36/30 34/35/34 36/40/36
f 30/32/30 35/38/35 29/33/29
f 40/41/40 42/42/42 44/43/44
f 34/35/34 37/39/37 38/44/38
f 36/40/36 38/44/38 40/41/40
f 36/45/36 39/46/39 35/38/35
f 44/43/44 41/47/41 43/48/43
f 39/46/39 44/43/44 43/48/43
f 37/39/37 43/48/43 41/47/41
f 37/39/37 42/42/42 38/44/38
f 45/49/45 48/50/48 47/51/47
f 50/52/50 56/53/56 52/54/52
f 50/52/50 48/50/48 46/55/46
f 49/56/49 46/55/46 45/49/45
f 48/50/48 51/57/51 47/51/47
f 51/57/51 45/49/45 47/51/47
f 57/58/57 54/59/54 53/60/53
f 53/60/53 50/52/50 49/56/49
f 52/61/52 55/62/55 51/57/51
f 51/57/51 53/60/53 49/56/49
f 60/63/60 63/64/63 59/65/59
f 56/66/56 59/65/59 55/62/55
f 55/62/55 57/58/57 53/60/53
f 54/59/54 60/67/60 56/53/56
f 62/68/62 68/69/68 64/70/64
f 63/64/63 57/58/57 59/65/59
f 62/68/62 60/67/60 58/71/58
f 57/58/57 62/68/62 58/71/58
f 68/69/68 65/72/65 67/73/67
f 65/72/65 62/68/62 61/74/61
f 64/75/64 67/73/67 63/64/63
f 67/73/67 61/74/61 63/64/63
f 70/76/70 71/77/71 69/78/69
f 72/79/72 75/80/75 71/77/71
f 75/80/75 74/81/74 73/82/73
f 70/76/70 77/83/77 78/84/78
f 75/80/75 69/78/69 71/77/71
f 72/79/72 74/85/74 76/86/76
f 77/83/77 83/87/83 81/88/81
f 73/82/73 77/83/77 69/78/69
f 74/85/74 78/84/78 80/89/80
f 74/81/74 79/90/79 73/82/73
f 84/91/84 86/92/86 88/93/88
f 78/84/78 81/88/81 82/94/82
f 78/84/78 84/91/84 80/89/80
f 80/95/80 83/87/83 79/90/79
f 88/93/88 85/96/85 87/97/87
f 83/87/83 88/93/88 87/97/87
f 81/88/81 87/97/87 85/96/85
f 81/88/81 86/92/86 82/94/82
f 90/98/90 91/99/91 89/100/89
f 92/101/92 95/102/95 91/99/91
f 95/102/95 94/103/94 93/104/93
f 90/98/90 97/105/97 98/106/98
f 91/99/91 93/104/93 89/100/89
f 92/101/92 94/107/94 96/108/96
f 97/105/97 103/109/103 101/110/101
f 89/100/89 99/111/99 97/105/97
f 90/98/90 100/112/100 94/107/94
f 94/103/94 99/111/99 93/104/93
f 102/113/102 108/114/108 104/115/104
f 98/106/98 101/110/101 102/113/102
f 98/106/98 104/115/104 100/112/100
f 100/116/100 103/109/103 99/111/99
f 107/117/107 106/118/106 105/119/105
f 104/120/104 107/117/107 103/109/103
f 101/110/101 107/117/107 105/119/105
f 101/110/101 106/118/106 102/113/102
f 110/121/110 111/122/111 109/123/109
f 111/122/111 116/124/116 115/125/115
f 115/125/115 114/126/114 113/127/113
f 110/121/110 117/128/117 118/129/118
f 115/125/115 109/123/109 111/122/111
f 116/124/116 110/121/110 114/130/114
f 119/131/119 121/132/121 117/128/117
f 113/127/113 117/128/117 109/123/109
f 110/121/110 120/133/120 114/130/114
f 114/126/114 119/131/119 113/127/113
f 122/134/122 128/135/128 124/136/124
f 118/129/118 121/132/121 122/134/122
f 120/133/120 122/134/122 124/136/124
f 120/137/120 123/138/123 119/131/119
f 127/139/127 126/140/126 125/141/125
f 124/142/124 127/139/127 123/138/123
f 121/132/121 127/139/127 125/141/125
f 122/134/122 125/141/125 126/140/126
f 130/27/130 131/28/131 129/29/129
f 132/30/132 135/31/135 131/28/131
f 135/31/135 134/32/134 133/33/133
f 130/27/130 137/34/137 138/35/138
f 135/31/135 129/29/129 131/28/131
f 136/37/136 130/27/130 134/36/134
f 139/38/139 141/39/141 137/34/137
f 129/29/129 139/38/139 137/34/137
f 130/27/130 140/40/140 134/36/134
f 134/32/134 139/38/139 133/33/133
f 142/44/142 148/43/148 144/41/144
f 138/35/138 141/39/141 142/44/142
f 140/40/140 142/44/142 144/41/144
f 140/45/140 143/46/143 139/38/139
f 148/43/148 145/47/145 147/48/147
f 144/143/144 147/48/147 143/46/143
f 143/46/143 145/47/145 141/39/141
f 142/44/142 145/47/145 146/42/146
f 150/76/150 151/77/151 149/78/149
f 152/79/152 155/80/155 151/77/151
f 155/80/155 154/81/154 153/82/153
f 150/76/150 157/83/157 158/84/158
f 155/80/155 149/78/149 151/77/151
f 156/86/156 150/76/150 154/85/154
f 157/83/157 163/87/163 161/88/161
f 153/82/153 157/83/157 149/78/149
f 150/76/150 160/89/160 154/85/154
f 154/81/154 159/90/159 153/82/153
f 164/91/164 166/92/166 168/93/168
f 158/84/158 161/88/161 162/94/162
f 158/84/158 164/91/164 160/89/160
f 160/95/160 163/87/163 159/90/159
f 168/93/168 165/96/165 167/97/167
f 164/144/164 167/97/167 163/87/163
f 163/87/163 165/96/165 161/88/161
f 161/88/161 166/92/166 162/94/162
f 170/98/170 171/99/171 169/100/169
f 172/101/172 175/102/175 171/99/171
f 175/102/175 174/103/174 173/104/173
f 170/98/170 177/105/177 178/106/178
f 171/99/171 173/104/173 169/100/169
f 172/101/172 174/107/174 176/108/176
f 177/105/177 183/109/183 181/110/181
f 173/104/173 177/105/177 169/100/169
f 170/98/170 180/112/180 174/107/174
f 174/103/174 179/111/179 173/104/173
f 182/113/182 188/114/188 184/115/184
f 178/106/178 181/110/181 182/113/182
f 178/106/178 184/115/184 180/112/180
f 180/116/180 183/109/183 179/111/179
f 188/114/188 185/119/185 187/117/187
f 183/109/183 188/114/188 187/117/187
f 181/110/181 187/117/187 185/119/185
f 182/113/182 185/119/185 186/118/186
f 190/121/190 191/122/191 189/123/189
f 192/145/192 195/125/195 191/122/191
f 195/125/195 194/126/194 193/127/193
f 190/121/190 197/128/197 198/129/198
f 195/125/195 189/123/189 191/122/191
f 196/124/196 190/121/190 194/130/194
f 199/131/199 201/132/201 197/128/197
f 193/127/193 197/128/197 189/123/189
f 194/130/194 198/129/198 200/133/200
f 194/126/194 199/131/199 193/127/193
f 202/134/202 208/135/208 204/136/204
f 198/129/198 201/132/201 202/134/202
f 200/133/200 202/134/202 204/136/204
f 200/137/200 203/138/203 199/131/199
f 208/135/208 205/141/205 207/139/207
f 203/138/203 208/135/208 207/139/207
f 203/138/203 205/141/205 201/132/201
f 202/134/202 205/141/205 206/140/206
f 4/1/4 2/7/2 1/2/1
f 6/4/6 8/146/8 12/5/12
f 4/1/4 8/146/8 6/4/6
f 2/7/2 6/4/6 5/8/5
f 4/1/4 3/3/3 7/9/7
f 1/2/1 5/8/5 7/9/7
f 10/6/10 14/20/14 13/11/13
f 6/4/6 10/6/10 9/12/9
f 8/10/8 7/9/7 11/13/11
f 7/9/7 5/8/5 9/12/9
f 16/15/16 15/18/15 19/16/19
f 12/14/12 11/13/11 15/18/15
f 11/13/11 9/12/9 13/11/13
f 10/6/10 12/5/12 16/19/16
f 18/21/18 20/147/20 24/22/24
f 13/11/13 17/24/17 19/16/19
f 16/19/16 20/147/20 18/21/18
f 13/11/13 14/20/14 18/21/18
f 21/25/21 22/23/22 24/22/24
f 18/21/18 22/23/22 21/25/21
f 20/17/20 19/16/19 23/26/23
f 17/24/17 21/25/21 23/26/23
f 26/27/26 28/30/28 27/28/27
f 28/30/28 32/37/32 31/31/31
f 31/31/31 32/37/32 30/32/30
f 26/27/26 25/29/25 33/34/33
f 27/28/27 31/31/31 29/33/29
f 28/30/28 26/27/26 30/36/30
f 35/38/35 39/46/39 37/39/37
f 29/33/29 35/38/35 33/34/33
f 30/36/30 26/27/26 34/35/34
f 30/32/30 36/45/36 35/38/35
f 40/41/40 38/44/38 42/42/42
f 34/35/34 33/34/33 37/39/37
f 36/40/36 34/35/34 38/44/38
f 36/45/36 40/143/40 39/46/39
f 44/43/44 42/42/42 41/47/41
f 39/46/39 40/143/40 44/43/44
f 37/39/37 39/46/39 43/48/43
f 37/39/37 41/47/41 42/42/42
f 45/49/45 46/55/46 48/50/48
f 50/52/50 54/59/54 56/53/56
f 50/52/50 52/54/52 48/50/48
f 49/56/49 50/52/50 46/55/46
f 48/50/48 52/61/52 51/57/51
f 51/57/51 49/56/49 45/49/45
f 57/58/57 58/71/58 54/59/54
f 53/60/53 54/59/54 50/52/50
f 52/61/52 56/66/56 55/62/55
f 51/57/51 55/62/55 53/60/53
f 60/63/60 64/75/64 63/64/63
f 56/66/56 60/63/60 59/65/59
f 55/62/55 59/65/59 57/58/57
f 54/59/54 58/71/58 60/67/60
f 62/68/62 66/148/66 68/69/68
f 63/64/63 61/74/61 57/58/57
f 62/68/62 64/70/64 60/67/60
f 57/58/57 61/74/61 62/68/62
f 68/69/68 66/148/66 65/72/65
f 65/72/65 66/148/66 62/68/62
f 64/75/64 68/69/68 67/73/67
f 67/73/67 65/72/65 61/74/61
f 70/76/70 72/79/72 71/77/71
f 72/79/72 76/86/76 75/80/75
f 75/80/75 76/86/76 74/81/74
f 70/76/70 69/78/69 77/83/77
f 75/80/75 73/82/73 69/78/69
f 72/79/72 70/76/70 74/85/74
f 77/83/77 79/90/79 83/87/83
f 73/82/73 79/90/79 77/83/77
f 74/85/74 70/76/70 78/84/78
f 74/81/74 80/95/80 79/90/79
f 84/91/84 82/94/82 86/92/86
f 78/84/78 77/83/77 81/88/81
f 78/84/78 82/94/82 84/91/84
f 80/95/80 84/144/84 83/87/83
f 88/93/88 86/92/86 85/96/85
f 83/87/83 84/144/84 88/93/88
f 81/88/81 83/87/83 87/97/87
f 81/88/81 85/96/85 86/92/86
f 90/98/90 92/101/92 91/99/91
f 92/101/92 96/108/96 95/102/95
f 95/102/95 96/108/96 94/103/94
f 90/98/90 89/100/89 97/105/97
f 91/99/91 95/102/95 93/104/93
f 92/101/92 90/98/90 94/107/94
f 97/105/97 99/111/99 103/109/103
f 89/100/89 93/104/93 99/111/99
f 90/98/90 98/106/98 100/112/100
f 94/103/94 100/116/100 99/111/99
f 102/113/102 106/118/106 108/114/108
f 98/106/98 97/105/97 101/110/101
f 98/106/98 102/113/102 104/115/104
f 100/116/100 104/120/104 103/109/103
f 107/117/107 108/114/108 106/118/106
f 104/120/104 108/114/108 107/117/107
f 101/110/101 103/109/103 107/117/107
f 101/110/101 105/119/105 106/118/106
f 110/121/110 112/145/112 111/122/111
f 111/122/111 112/145/112 116/124/116
f 115/125/115 116/124/116 114/126/114
f 110/121/110 109/123/109 117/128/117
f 115/125/115 113/127/113 109/123/109
f 116/124/116 112/145/112 110/121/110
f 119/131/119 123/138/123 121/132/121
f 113/127/113 119/131/119 117/128/117
f 110/121/110 118/129/118 120/133/120
f 114/126/114 120/137/120 119/131/119
f 122/134/122 126/140/126 128/135/128
f 118/129/118 117/128/117 121/132/121
f 120/133/120 118/129/118 122/134/122
f 120/137/120 124/142/124 123/138/123
f 127/139/127 128/135/128 126/140/126
f 124/142/124 128/135/128 127/139/127
f 121/132/121 123/138/123 127/139/127
f 122/134/122 121/132/121 125/141/125
f 130/27/130 132/30/132 131/28/131
f 132/30/132 136/37/136 135/31/135
f 135/31/135 136/37/136 134/32/134
f 130/27/130 129/29/129 137/34/137
f 135/31/135 133/33/133 129/29/129
f 136/37/136 132/30/132 130/27/130
f 139/38/139 143/46/143 141/39/141
f 129/29/129 133/33/133 139/38/139
f 130/27/130 138/35/138 140/40/140
f 134/32/134 140/45/140 139/38/139
f 142/44/142 146/42/146 148/43/148
f 138/35/138 137/34/137 141/39/141
f 140/40/140 138/35/138 142/44/142
f 140/45/140 144/143/144 143/46/143
f 148/43/148 146/42/146 145/47/145
f 144/143/144 148/43/148 147/48/147
f 143/46/143 147/48/147 145/47/145
f 142/44/142 141/39/141 145/47/145
f 150/76/150 152/79/152 151/77/151
f 152/79/152 156/86/156 155/80/155
f 155/80/155 156/86/156 154/81/154
f 150/76/150 149/78/149 157/83/157
f 155/80/155 153/82/153 149/78/149
f 156/86/156 152/79/152 150/76/150
f 157/83/157 159/90/159 163/87/163
f 153/82/153 159/90/159 157/83/157
f 150/76/150 158/84/158 160/89/160
f 154/81/154 160/95/160 159/90/159
f 164/91/164 162/94/162 166/92/166
f 158/84/158 157/83/157 161/88/161
f 158/84/158 162/94/162 164/91/164
f 160/95/160 164/144/164 163/87/163
f 168/93/168 166/92/166 165/96/165
f 164/144/164 168/93/168 167/97/167
f 163/87/163 167/97/167 165/96/165
f 161/88/161 165/96/165 166/92/166
f 170/98/170 172/101/172 171/99/171
f 172/101/172 176/108/176 175/102/175
f 175/102/175 176/108/176 174/103/174
f 170/98/170 169/100/169 177/105/177
f 171/99/171 175/102/175 173/104/173
f 172/101/172 170/98/170 174/107/174
f 177/105/177 179/111/179 183/109/183
f 173/104/173 179/111/179 177/105/177
f 170/98/170 178/106/178 180/112/180
f 174/103/174 180/116/180 179/111/179
f 182/113/182 186/118/186 188/114/188
f 178/106/178 177/105/177 181/110/181
f 178/106/178 182/113/182 184/115/184
f 180/116/180 184/120/184 183/109/183
f 188/114/188 186/118/186 185/119/185
f 183/109/183 184/120/184 188/114/188
f 181/110/181 183/109/183 187/117/187
f 182/113/182 181/110/181 185/119/185
f 190/121/190 192/145/192 191/122/191
f 192/145/192 196/124/196 195/125/195
f 195/125/195 196/124/196 194/126/194
f 190/121/190 189/123/189 197/128/197
f 195/125/195 193/127/193 189/123/189
f 196/124/196 192/145/192 190/121/190
f 199/131/199 203/138/203 201/132/201
f 193/127/193 199/131/199 197/128/197
f 194/130/194 190/121/190 198/129/198
f 194/126/194 200/137/200 199/131/199
f 202/134/202 206/140/206 208/135/208
f 198/129/198 197/128/197 201/132/201
f 200/133/200 198/129/198 202/134/202
f 200/137/200 204/142/204 203/138/203
f 208/135/208 206/140/206 205/141/205
f 203/138/203 204/142/204 208/135/208
f 203/138/203 207/139/207 205/141/205
f 202/134/202 201/132/201 205/141/205
