# Blender 4.5.3 LTS
# www.blender.org
o Factory_Fan
v 0.566657 97.652267 -4.640675
v 0.566651 98.360558 -4.328940
v 0.566569 99.067032 -3.602423
v 0.566611 99.375137 -2.502063
v 0.566660 99.212265 -1.632490
v 0.566611 98.748978 -0.878798
v 0.566566 97.781731 -0.270396
v 0.566604 96.621925 -0.222958
v 0.566641 95.722206 -0.648525
v 0.566553 95.040543 -1.470996
v 0.566664 94.843864 -2.390825
v 0.566642 94.944901 -3.140331
v 0.566662 95.310196 -3.823266
v 0.566614 95.934677 -4.394837
v 0.566642 96.842827 -4.697922
v 0.566672 97.503860 -4.868039
v 0.566672 98.478981 -4.506168
v 0.566672 99.338928 -3.503980
v 0.566673 99.560493 -2.465343
v 0.566673 99.362625 -1.444476
v 0.566673 98.665985 -0.541284
v 0.566673 98.000168 -0.166743
v 0.566673 97.182922 0.022879
v 0.566673 96.179626 -0.168181
v 0.566673 95.419258 -0.650157
v 0.566672 94.888847 -1.378154
v 0.566672 94.665306 -2.145665
v 0.566672 94.735283 -3.164394
v 0.566672 95.268616 -4.082767
v 0.566672 95.826515 -4.540150
v 0.566672 96.602394 -4.860816
v 0.679546 97.047272 -2.448329
v -0.301200 97.293358 -2.462701
v -0.203961 97.302071 -2.465058
v 0.106442 97.156784 -2.455593
v 0.811094 97.051964 -2.449338
v 0.791482 96.934990 -4.327652
v -0.198114 97.175545 -4.347425
v 0.029380 97.146400 -2.453443
v -0.286997 97.176048 -4.346578
v -0.101057 97.062424 -4.347803
v 0.641354 97.055275 -2.420113
v -0.254159 97.272865 -2.558571
v 0.113177 97.143440 -2.480455
v 0.811451 97.057663 -2.424210
v 0.791482 96.016762 -3.991792
v -0.198198 96.213486 -4.128777
v -0.085002 97.161514 -2.492370
v 0.200722 96.067505 -4.042047
v -0.294072 96.201340 -4.125267
v 0.809900 97.075676 -2.401340
v -0.250629 97.194656 -2.632639
v 0.110118 97.121185 -2.496765
v 0.791462 95.389473 -3.241794
v -0.196344 95.493401 -3.462021
v -0.042573 97.118660 -2.494080
v -0.295598 95.477562 -3.445388
v 0.255346 95.405678 -3.302959
v 0.810323 97.102173 -2.394590
v -0.269212 97.089432 -2.654962
v 0.791016 95.221321 -2.278268
v -0.002515 95.204994 -2.402107
v -0.190973 95.201828 -2.529618
v 0.343598 97.102631 -2.441320
v -0.147408 97.095901 -2.562958
v -0.083760 95.205856 -2.393384
v -0.288132 95.202667 -2.520290
v 0.808164 97.129868 -2.398766
v -0.250878 96.987892 -2.618474
v 0.791484 95.557083 -1.360435
v 0.010827 95.482880 -1.458217
v -0.191735 95.414810 -1.567610
v -0.071732 97.060768 -2.510522
v -0.287217 95.419899 -1.560833
v -0.098384 95.486076 -1.454092
v 0.805382 97.152664 -2.418497
v -0.301201 96.929192 -2.527428
v -0.200761 96.932655 -2.523669
v 0.258914 97.080139 -2.451566
v 0.791484 96.307068 -0.733152
v -0.198112 96.088860 -0.836303
v 0.029380 97.061089 -2.461968
v -0.077771 96.190865 -0.776826
v -0.287843 96.089310 -0.837066
v 0.679545 97.157928 -2.444223
v -0.301202 96.911842 -2.429850
v -0.203962 96.903130 -2.427494
v 0.106442 97.048416 -2.436958
v 0.811093 97.153236 -2.443214
v 0.791484 97.270210 -0.564899
v -0.191689 97.018074 -0.545864
v 0.029378 97.058800 -2.439109
v -0.033067 97.153954 -0.543570
v -0.287843 97.029671 -0.546012
v 0.796120 97.158791 -2.474594
v -0.301201 96.945610 -2.336673
v -0.196784 96.956848 -2.341936
v 0.791463 98.188454 -0.900773
v 0.180858 98.121979 -0.846387
v -0.197194 97.985626 -0.761217
v 0.029380 97.068253 -2.418169
v -0.077750 98.098778 -0.831826
v -0.287843 97.989571 -0.764133
v 0.805504 97.130249 -2.496176
v -0.252153 97.014862 -2.265093
v 0.791462 98.815727 -1.650757
v 0.180859 98.785347 -1.570419
v -0.195983 98.710754 -1.429560
v -0.103782 97.067184 -2.371511
v -0.287218 98.710770 -1.431735
v -0.098385 98.770119 -1.542418
v 0.805504 97.101601 -2.503316
v -0.252152 97.117203 -2.245496
v 0.791461 98.983971 -2.613901
v -0.002517 99.000206 -2.490445
v -0.191691 99.003014 -2.361748
v -0.103781 97.109314 -2.363819
v -0.286997 99.002899 -2.372828
v -0.098386 98.998642 -2.497271
v 0.809901 97.077148 -2.492060
v -0.302213 97.211349 -2.291031
v -0.203961 97.218597 -2.282921
v 0.110120 97.137032 -2.404934
v 0.791043 98.647850 -3.532395
v -0.191693 98.790672 -3.323278
v 0.126186 97.117165 -2.433330
v -0.036992 98.725624 -3.440737
v -0.287847 98.784744 -3.333246
v 0.687538 97.055679 -2.475224
v -0.232324 97.292412 -2.356067
v 0.113178 97.152618 -2.427998
v 0.811453 97.061020 -2.474159
v 0.791041 97.897766 -4.159507
v -0.197200 98.120392 -4.053531
v -0.212277 97.198952 -2.404325
v -0.294109 98.101974 -4.071449
v 0.231197 97.963226 -4.141468
v 0.517820 97.304054 -2.600741
v 0.517820 97.334251 -2.327231
v 0.517820 97.055923 -2.190045
v 0.517820 96.857368 -2.380663
v 0.517820 96.911804 -2.613727
v 0.517820 97.110947 -2.696516
v -0.450544 97.324356 -2.547226
v -0.451595 97.303375 -2.321585
v -0.452314 97.148888 -2.212578
v -0.456269 96.957077 -2.259719
v -0.455272 96.889771 -2.551270
v -0.407770 96.852371 -2.409157
v -0.452322 97.032539 -2.672124
v -0.456422 97.174156 -2.667854
v -0.406864 97.003563 -2.536035
v -0.406864 96.989388 -2.378420
v -0.406864 97.117470 -2.316651
v -0.406864 97.240585 -2.434949
v -0.406864 97.046066 -2.522506
v -0.406864 97.042168 -2.379600
v -0.406864 97.172234 -2.387205
v -0.406864 97.138168 -2.556758
v -0.452962 97.015244 -2.448664
v -0.453480 97.109985 -2.359763
v -0.454037 97.187622 -2.457242
v -0.453123 97.101715 -2.530647
v -0.458743 97.000854 -2.534449
v -0.457246 97.005936 -2.345898
v -0.458834 97.168243 -2.334100
v -0.458060 97.236908 -2.463140
v -0.458494 97.135269 -2.572360
v -0.423975 97.112198 -2.636883
v -0.423975 97.091377 -2.609704
v -0.489531 97.102600 -2.624050
v -0.423975 97.013710 -2.600233
v -0.489531 97.028450 -2.608743
v -0.489531 96.997459 -2.590849
v -0.489531 96.937515 -2.549663
v -0.489531 96.959770 -2.520662
v -0.423975 96.948639 -2.535163
v -0.423975 96.940742 -2.455601
v -0.489531 96.924828 -2.446275
v -0.423975 96.908905 -2.436949
v -0.489531 96.933899 -2.348877
v -0.423974 96.948639 -2.357388
v -0.489531 96.964897 -2.366772
v -0.489531 97.013710 -2.292318
v -0.423974 97.020844 -2.309080
v -0.423974 97.007767 -2.277438
v -0.423974 97.102600 -2.268501
v -0.489531 97.118523 -2.259175
v -0.489531 97.086678 -2.277827
v -0.489531 97.204453 -2.279189
v -0.489531 97.178520 -2.305447
v -0.423974 97.191490 -2.292318
v -0.423974 97.241814 -2.365899
v -0.489531 97.256561 -2.357388
v -0.423974 97.272812 -2.348004
v -0.489531 97.297264 -2.439281
v -0.423974 97.280373 -2.446275
v -0.489531 97.263489 -2.453270
v -0.423974 97.256561 -2.535163
v -0.489531 97.262505 -2.520283
v -0.489531 97.249428 -2.551925
v -0.423974 97.209610 -2.597847
v -0.423974 97.173363 -2.602619
v -0.489531 97.191490 -2.600233
v -0.136878 97.583130 -4.363941
v -0.133419 98.120781 -4.145003
v -0.133055 98.636398 -3.700998
v -0.136364 98.964081 -3.112666
v -0.138907 99.045525 -2.832627
v -0.136542 99.070534 -2.252931
v -0.135293 98.965431 -1.778976
v -0.134708 98.633522 -1.191955
v -0.138297 98.357185 -0.917455
v -0.133819 97.859627 -0.616799
v -0.136460 97.296288 -0.478269
v -0.134345 96.716347 -0.504909
v -0.136223 96.170410 -0.701897
v -0.132677 95.635559 -1.113371
v -0.133073 95.237862 -1.775751
v -0.135304 95.126328 -2.350184
v -0.138230 95.162338 -2.832130
v -0.133697 95.356819 -3.380136
v -0.132277 95.843575 -3.979543
v -0.136038 96.436356 -4.308260
v -0.133758 97.006096 -4.423766
v -0.149146 99.445770 -3.033190
v -0.148084 97.221115 -4.859090
v -0.147958 97.346672 -4.425023
v -0.148200 97.339432 -4.850870
v -0.142857 97.457748 -4.861375
v -0.148127 97.491516 -4.401471
v -0.148084 97.573868 -4.815586
v -0.148084 97.689552 -4.789608
v -0.147089 97.681374 -4.354303
v -0.149146 97.803780 -4.757825
v -0.148471 97.820152 -4.306496
v -0.147266 97.916664 -4.721431
v -0.147943 98.026825 -4.677542
v -0.147919 97.999100 -4.227310
v -0.142414 98.148415 -4.654109
v -0.148084 98.241348 -4.576763
v -0.148200 98.344788 -4.518745
v -0.147958 98.250603 -4.076337
v -0.147943 98.444359 -4.454363
v -0.148200 98.541946 -4.387010
v -0.147919 98.404984 -3.956104
v -0.148084 98.635132 -4.313643
v -0.144133 98.738106 -4.250825
v -0.147958 98.546570 -3.821032
v -0.148084 98.810791 -4.154437
v -0.148084 98.892548 -4.068562
v -0.147943 98.969505 -3.978403
v -0.148127 98.703796 -3.633802
v -0.145122 99.055534 -3.894671
v -0.147958 98.787010 -3.512934
v -0.147943 99.110687 -3.788036
v -0.148200 99.175072 -3.688466
v -0.148025 98.861153 -3.386263
v -0.148084 99.233086 -3.585023
v -0.147918 98.925476 -3.254302
v -0.148084 99.286400 -3.479113
v -0.142416 99.360046 -3.380220
v -0.148084 99.377106 -3.260127
v -0.147513 99.023880 -2.977964
v -0.148200 99.414787 -3.147670
v -0.148084 99.471909 -2.917541
v -0.147958 99.081345 -2.690344
v -0.147009 99.491669 -2.800661
v -0.145389 99.524284 -2.685824
v -0.149090 99.094360 -2.544143
v -0.147009 99.514908 -2.564785
v -0.147918 99.095940 -2.397342
v -0.149146 99.518158 -2.446294
v -0.147150 99.515564 -2.327755
v -0.144543 99.524483 -2.208672
v -0.147993 99.066818 -2.105452
v -0.147942 99.491570 -2.091906
v -0.148084 99.471909 -1.975010
v -0.147477 99.024055 -1.914551
v -0.149146 99.445770 -1.859361
v -0.148200 99.414787 -1.744881
v -0.143123 99.400421 -1.626352
v -0.148432 98.925537 -1.638223
v -0.147009 99.333969 -1.522014
v -0.148084 99.286400 -1.413438
v -0.147189 98.860565 -1.506623
v -0.149261 99.233345 -1.307369
v -0.148470 98.787086 -1.379600
v -0.148084 99.174629 -1.204329
v -0.143358 99.128334 -1.092072
v -0.147088 98.704109 -1.258542
v -0.149146 99.042809 -1.007345
v -0.148199 98.970375 -0.913436
v -0.148126 98.579689 -1.107523
v -0.148084 98.892517 -0.823960
v -0.147957 98.477379 -1.002323
v -0.147942 98.810341 -0.738538
v -0.143952 98.738449 -0.640531
v -0.148084 98.635132 -0.578908
v -0.148126 98.290123 -0.845081
v -0.148084 98.541664 -0.505960
v -0.147918 98.169350 -0.761689
v -0.148199 98.444984 -0.437254
v -0.148084 98.344513 -0.374230
v -0.147957 97.999001 -0.665411
v -0.144396 98.250732 -0.298081
v -0.148199 98.135674 -0.262030
v -0.147942 98.026825 -0.215009
v -0.147993 97.727943 -0.553330
v -0.147150 97.916504 -0.171635
v -0.149261 97.803940 -0.134282
v -0.147957 97.539444 -0.500980
v -0.148084 97.689552 -0.102944
v -0.147942 97.573761 -0.077576
v -0.147899 97.395271 -0.473228
v -0.141786 97.470345 -0.028395
v -0.148199 97.339432 -0.041681
v -0.147918 97.151535 -0.452937
v -0.147009 97.221107 -0.033972
v -0.149261 97.102600 -0.030249
v -0.148126 97.004784 -0.455177
v -0.147942 96.984100 -0.034080
v -0.147918 96.858521 -0.467332
v -0.143697 96.863174 -0.021851
v -0.148084 96.748123 -0.056702
v -0.147009 96.631416 -0.077471
v -0.146964 96.617966 -0.511511
v -0.149146 96.515686 -0.103105
v -0.147993 96.477257 -0.553330
v -0.148084 96.401375 -0.134566
v -0.143785 96.281273 -0.152560
v -0.147918 96.294571 -0.623397
v -0.148084 96.178162 -0.214431
v -0.148199 96.069527 -0.262030
v -0.147942 95.964127 -0.316343
v -0.148126 96.077736 -0.736394
v -0.148084 95.860687 -0.374230
v -0.148470 95.954552 -0.816155
v -0.143699 95.748726 -0.420887
v -0.147150 95.663452 -0.505843
v -0.147088 95.837715 -0.904975
v -0.149146 95.570175 -0.579036
v -0.148084 95.480286 -0.656356
v -0.148432 95.727654 -1.002125
v -0.147150 95.394310 -0.738012
v -0.144544 95.297142 -0.810485
v -0.148024 95.561195 -1.181304
v -0.148084 95.235207 -0.913772
v -0.148471 95.472481 -1.298231
v -0.148084 95.162262 -1.007246
v -0.147009 95.094421 -1.104455
v -0.148126 95.392715 -1.421412
v -0.145409 95.017723 -1.196952
v -0.147088 95.344170 -1.506350
v -0.149005 94.972778 -1.307860
v -0.147958 95.279907 -1.638317
v -0.148200 94.918358 -1.413204
v -0.147942 94.871338 -1.522055
v -0.143270 94.808235 -1.626047
v -0.148024 95.194458 -1.867426
v -0.148200 94.790413 -1.744881
v -0.147958 95.157303 -2.009431
v -0.149005 94.759995 -1.859483
v -0.147266 94.732620 -1.974858
v -0.145910 94.695625 -2.090369
v -0.147477 95.123924 -2.202215
v -0.148200 94.698006 -2.209444
v -0.147150 94.689644 -2.327755
v -0.146964 95.108063 -2.446276
v -0.149005 94.687614 -2.446276
v -0.148506 95.114357 -2.592937
v -0.147150 94.689644 -2.564796
v -0.143426 94.677185 -2.685158
v -0.146964 95.129646 -2.738935
v -0.149146 94.713188 -2.800730
v -0.147009 94.733795 -2.917460
v -0.147437 95.180946 -2.978069
v -0.148084 94.759270 -3.033230
v -0.149261 94.790611 -3.147611
v -0.148506 95.242546 -3.163779
v -0.147009 94.828575 -3.259936
v -0.148084 94.870758 -3.370715
v -0.147900 95.299469 -3.299093
v -0.142485 94.889839 -3.484744
v -0.149146 94.972260 -3.584945
v -0.148432 95.417961 -3.513063
v -0.147151 95.030426 -3.688263
v -0.148084 95.093987 -3.788363
v -0.148025 95.501007 -3.634122
v -0.148084 95.162262 -3.885305
v -0.147958 95.592926 -3.748544
v -0.148084 95.235207 -3.978780
v -0.142414 95.293419 -4.087960
v -0.147994 95.727959 -3.890109
v -0.148084 95.394409 -4.154437
v -0.148084 95.480286 -4.236196
v -0.148084 95.570068 -4.313643
v -0.147919 95.954475 -4.076490
v -0.148084 95.663544 -4.386592
v -0.148084 95.760483 -4.454865
v -0.147994 96.119972 -4.180850
v -0.143611 95.850662 -4.536083
v -0.148084 95.963852 -4.576763
v -0.147919 96.294571 -4.269154
v -0.148084 96.069763 -4.630072
v -0.147943 96.178383 -4.677542
v -0.145539 96.283981 -4.735051
v -0.147477 96.570877 -4.367734
v -0.148200 96.401207 -4.758464
v -0.149006 96.515808 -4.788885
v -0.148506 96.761765 -4.410571
v -0.147266 96.631180 -4.816254
v -0.144484 96.745186 -4.855788
v -0.148025 96.907135 -4.430683
v -0.148200 96.865768 -4.850870
v -0.147943 96.984100 -4.858472
v -0.147919 97.151535 -4.439614
v -0.148084 97.102585 -4.861999
v -0.134490 96.745148 -4.731145
v -0.134490 97.867271 -4.638591
v -0.134490 98.720001 -4.088971
v -0.134490 99.205872 -3.398432
v -0.134490 99.392082 -2.671769
v -0.134489 99.341431 -1.866586
v -0.134489 98.953415 -1.073617
v -0.134489 98.442581 -0.574079
v -0.134489 97.788895 -0.245493
v -0.134489 96.780327 -0.146906
v -0.134489 95.788071 -0.548287
v -0.160736 95.255333 -1.076244
v -0.134490 94.938141 -1.652826
v -0.134490 94.797363 -2.428393
v -0.134490 94.942085 -3.260237
v -0.134490 95.314140 -3.892106
v -0.134490 95.852135 -4.387072
v -0.134490 97.310661 -4.558738
v -0.134490 98.120789 -4.315397
v -0.134490 98.822189 -3.700608
v -0.134490 99.149025 -2.995870
v -0.134489 99.220413 -2.273319
v -0.134489 98.902809 -1.285928
v -0.134489 98.135384 -0.589290
v -0.134489 96.687599 -0.359926
v -0.134489 96.014084 -0.630193
v -0.134489 95.446632 -1.109077
v -0.134490 95.003479 -2.046189
v -0.134490 95.045418 -2.961574
v -0.134490 95.337654 -3.625574
v -0.134490 95.771935 -4.092288
v -0.134490 96.434113 -4.469813
v -0.186983 97.535789 -4.718004
v -0.186982 98.529060 -4.274112
v -0.186982 99.074585 -3.628232
v -0.186982 99.339867 -3.006681
v -0.186982 99.384041 -2.050408
v -0.186982 99.020294 -1.164916
v -0.186982 98.386703 -0.524483
v -0.186982 97.442146 -0.157269
v -0.186982 96.525124 -0.214469
v -0.186982 95.758415 -0.569175
v -0.186982 94.884270 -1.792503
v -0.186982 94.807877 -2.633110
v -0.186982 95.019882 -3.451601
v -0.186983 95.567749 -4.166352
v -0.186983 96.429085 -4.666567
v -0.186983 96.616554 -4.532160
v -0.186983 97.704300 -4.487913
v -0.186982 98.560669 -4.002388
v -0.186982 99.009270 -3.365323
v -0.186982 99.212608 -2.706522
v -0.186982 99.159790 -1.930977
v -0.186982 98.901367 -1.326304
v -0.186982 98.304001 -0.679069
v -0.162117 97.436867 -0.352354
v -0.186982 96.636795 -0.371933
v -0.186982 95.879715 -0.709912
v -0.186982 95.379524 -1.213026
v -0.186982 95.059227 -1.863479
v -0.186982 94.987839 -2.550165
v -0.186982 95.110542 -3.176525
v -0.186983 95.592651 -3.956227
s 1
f 240 17 16
f 269 19 18
f 20 290 21
f 306 22 21
f 316 23 22
f 339 25 24
f 359 27 26
f 27 373 28
f 9 217 8
f 8 24 9
f 13 223 222
f 9 24 25
f 1 206 205
f 14 223 13
f 5 20 6
f 2 206 1
f 13 29 14
f 6 20 21
f 10 218 9
f 14 224 223
f 2 17 3
f 6 21 7
f 7 21 22
f 3 208 207
f 230 16 31
f 7 22 23
f 3 18 4
f 8 215 7
f 8 23 24
f 13 222 12
f 4 20 5
f 1 205 225
f 38 41 40
f 36 41 35
f 35 38 34
f 41 39 33
f 41 32 39
f 37 36 32
f 47 49 50
f 49 44 45
f 47 43 44
f 50 48 43
f 48 49 42
f 44 42 45
f 43 48 44
f 46 45 42
f 58 53 51
f 52 57 56
f 52 56 53
f 62 61 66
f 62 65 64
f 65 66 64
f 71 70 75
f 68 71 73
f 71 69 73
f 81 83 84
f 83 82 77
f 83 76 82
f 78 82 79
f 91 93 94
f 89 93 88
f 88 93 87
f 93 92 86
f 93 85 92
f 90 89 85
f 100 102 103
f 99 98 102
f 95 99 97
f 102 101 96
f 102 95 101
f 97 101 95
f 108 111 110
f 107 106 111
f 107 105 109
f 111 104 109
f 115 114 119
f 115 113 117
f 119 112 117
f 125 127 128
f 127 123 120
f 123 127 122
f 121 127 126
f 137 131 132
f 135 137 129
f 131 129 132
f 130 135 131
f 133 132 129
f 151 138 143
f 144 139 138
f 146 140 139
f 147 141 140
f 149 142 141
f 150 143 142
f 149 147 148
f 166 154 165
f 167 155 166
f 168 159 167
f 151 167 144
f 150 164 168
f 151 168 167
f 146 165 147
f 152 156 159
f 153 156 152
f 153 157 156
f 154 157 153
f 154 158 157
f 155 158 154
f 208 258 207
f 158 161 157
f 156 163 159
f 159 162 158
f 171 170 169
f 171 169 170
f 179 178 180
f 179 180 178
f 184 185 186
f 184 186 185
f 195 194 193
f 194 195 193
f 202 204 203
f 204 202 203
f 228 225 205
f 234 205 236
f 236 206 239
f 243 206 246
f 246 206 207
f 253 207 255
f 255 207 258
f 254 17 248
f 267 209 270
f 288 212 291
f 294 212 296
f 296 212 213
f 300 213 302
f 302 213 214
f 309 214 312
f 312 214 215
f 312 215 315
f 321 216 323
f 336 217 338
f 338 217 218
f 338 218 341
f 341 218 344
f 352 219 354
f 354 219 356
f 360 219 362
f 380 222 383
f 411 225 414
f 240 237 238
f 240 242 244
f 248 245 247
f 248 250 251
f 254 257 262
f 262 257 259
f 262 259 261
f 262 265 226
f 269 266 268
f 275 278 282
f 290 287 289
f 298 295 297
f 306 303 304
f 306 307 308
f 306 310 316
f 316 311 313
f 316 313 314
f 316 317 319
f 324 320 322
f 324 325 326
f 339 340 342
f 346 343 345
f 346 348 350
f 359 357 358
f 359 361 363
f 365 367 368
f 373 368 370
f 373 375 376
f 373 378 384
f 384 379 381
f 402 403 405
f 413 415 416
f 272 274 273
f 279 281 280
f 288 290 289
f 296 298 297
f 302 304 303
f 305 307 306
f 312 314 313
f 323 325 324
f 329 331 330
f 332 334 333
f 338 340 339
f 344 345 343
f 349 351 350
f 356 358 357
f 362 364 363
f 366 367 365
f 419 450 436
f 450 435 449
f 434 448 449
f 448 433 447
f 432 446 447
f 446 431 445
f 429 444 445
f 428 474 443
f 427 442 474
f 442 426 441
f 441 424 440
f 423 439 440
f 422 438 439
f 438 421 437
f 437 420 436
f 466 465 451
f 481 464 465
f 481 463 464
f 480 463 481
f 477 430 461
f 473 458 474
f 473 457 458
f 467 452 468
f 424 456 455
f 438 469 439
f 426 457 425
f 439 470 440
f 427 457 426
f 427 458 457
f 440 470 471
f 440 471 441
f 428 458 427
f 441 473 442
f 430 460 429
f 432 461 431
f 433 462 432
f 444 476 445
f 420 451 419
f 434 463 433
f 435 464 434
f 420 452 451
f 421 452 420
f 419 465 435
f 446 479 447
f 447 479 480
f 422 453 421
f 419 451 465
f 422 454 453
f 448 480 481
f 423 454 422
f 436 467 437
f 448 481 449
f 449 481 450
f 437 468 438
f 31 413 230
f 230 240 16
f 240 248 17
f 20 275 282
f 254 262 18
f 262 269 18
f 269 275 19
f 24 324 331
f 282 290 20
f 290 298 21
f 298 306 21
f 22 306 316
f 316 324 23
f 25 353 26
f 331 339 24
f 339 346 25
f 29 384 393
f 353 359 26
f 359 365 27
f 27 365 373
f 373 384 28
f 30 393 402
f 30 407 31
f 212 5 6
f 407 413 31
f 9 218 217
f 1 16 17
f 213 7 214
f 2 1 17
f 14 29 30
f 10 9 25
f 6 213 212
f 2 207 206
f 10 25 26
f 10 219 218
f 2 3 207
f 14 30 31
f 14 15 224
f 219 11 220
f 15 14 31
f 3 17 18
f 15 225 224
f 10 26 27
f 11 221 220
f 11 10 27
f 15 1 225
f 7 215 214
f 3 4 208
f 4 209 208
f 11 27 28
f 210 5 211
f 4 18 19
f 8 7 23
f 12 11 28
f 8 216 215
f 4 210 209
f 12 222 221
f 15 31 16
f 4 19 20
f 34 40 33
f 8 217 216
f 1 15 16
f 13 12 28
f 13 28 29
f 32 35 39
f 37 41 36
f 41 38 35
f 33 40 41
f 41 37 32
f 39 34 33
f 55 53 58
f 47 50 43
f 46 49 45
f 44 49 47
f 50 49 48
f 49 46 42
f 44 48 42
f 52 55 57
f 55 58 57
f 51 56 54
f 51 54 58
f 66 63 62
f 57 58 56
f 58 54 56
f 53 56 51
f 60 65 63
f 60 63 67
f 64 61 62
f 59 64 61
f 65 67 66
f 62 63 65
f 75 72 71
f 64 66 61
f 69 72 74
f 75 69 74
f 70 71 68
f 69 71 72
f 73 70 68
f 78 84 77
f 79 80 83
f 78 83 81
f 87 94 86
f 84 83 77
f 83 80 76
f 79 82 76
f 78 77 82
f 85 88 92
f 90 93 89
f 93 91 87
f 94 93 86
f 93 90 85
f 92 87 86
f 97 103 96
f 107 104 106
f 100 99 102
f 95 98 99
f 99 100 97
f 103 102 96
f 102 98 95
f 97 96 101
f 105 108 110
f 108 107 111
f 109 110 111
f 107 108 105
f 119 116 115
f 111 106 104
f 116 118 113
f 115 112 114
f 117 118 119
f 115 116 113
f 122 128 121
f 119 114 112
f 126 122 121
f 120 126 124
f 124 127 120
f 127 125 122
f 128 127 121
f 126 127 124
f 123 126 120
f 131 134 130
f 135 130 136
f 134 136 130
f 134 137 136
f 133 137 132
f 168 152 159
f 135 136 137
f 129 137 133
f 131 135 129
f 151 144 138
f 144 145 139
f 145 146 139
f 146 147 140
f 147 149 141
f 142 149 148
f 148 150 142
f 150 151 143
f 140 142 138
f 153 164 165
f 161 163 160
f 165 154 153
f 166 155 154
f 167 159 155
f 151 150 168
f 146 166 165
f 150 148 164
f 146 145 166
f 145 167 166
f 148 165 164
f 148 147 165
f 145 144 167
f 155 159 158
f 157 161 160
f 159 163 162
f 156 160 163
f 158 162 161
f 156 157 160
f 172 173 174
f 174 173 172
f 175 176 177
f 177 176 175
f 182 181 183
f 183 181 182
f 188 189 187
f 189 188 187
f 190 191 192
f 191 190 192
f 196 198 197
f 197 198 196
f 200 201 199
f 201 200 199
f 228 417 225
f 231 228 205
f 236 205 206
f 249 246 207
f 210 270 209
f 264 208 209
f 279 210 211
f 212 286 211
f 286 283 211
f 215 321 318
f 305 302 214
f 217 329 216
f 329 327 216
f 218 352 349
f 349 347 218
f 220 362 219
f 221 371 220
f 371 369 220
f 221 380 377
f 222 391 389
f 389 386 222
f 224 401 223
f 394 391 223
f 401 398 223
f 224 411 408
f 240 233 235
f 230 418 227
f 230 227 229
f 230 232 233
f 248 244 245
f 240 235 237
f 240 241 242
f 251 254 248
f 266 262 226
f 254 256 257
f 262 263 265
f 273 269 271
f 290 285 287
f 275 273 274
f 275 277 278
f 282 278 280
f 282 280 281
f 282 284 285
f 293 298 290
f 290 292 293
f 303 298 301
f 298 299 301
f 320 316 319
f 306 308 310
f 316 310 311
f 331 326 328
f 334 339 331
f 331 328 330
f 331 333 334
f 343 339 342
f 339 335 337
f 350 353 346
f 357 353 355
f 365 363 364
f 388 384 387
f 373 365 368
f 373 370 372
f 373 376 378
f 384 378 379
f 384 381 382
f 384 385 387
f 399 393 397
f 393 388 390
f 393 390 392
f 393 395 396
f 393 396 397
f 405 407 402
f 402 399 400
f 410 407 409
f 230 416 418
f 413 410 412
f 227 228 229
f 228 232 230
f 228 230 229
f 231 233 232
f 233 234 235
f 237 234 236
f 238 239 240
f 236 238 237
f 241 206 242
f 239 241 240
f 206 244 242
f 243 247 245
f 243 245 244
f 246 250 248
f 246 248 247
f 251 207 252
f 249 251 250
f 252 253 254
f 253 256 254
f 257 258 259
f 255 257 256
f 258 261 259
f 260 263 262
f 260 262 261
f 208 265 263
f 226 209 266
f 264 226 265
f 268 209 267
f 271 267 270
f 267 269 268
f 270 273 271
f 274 210 275
f 210 277 275
f 276 280 278
f 276 278 277
f 281 211 282
f 284 211 283
f 285 286 287
f 283 285 284
f 289 286 288
f 288 292 290
f 293 291 212
f 293 294 295
f 297 294 296
f 299 296 213
f 299 300 301
f 303 300 302
f 304 305 306
f 307 214 308
f 310 214 309
f 313 309 312
f 309 311 310
f 314 315 316
f 317 315 215
f 319 215 318
f 320 321 322
f 318 320 319
f 322 323 324
f 325 216 326
f 326 327 328
f 330 327 329
f 333 329 332
f 334 217 335
f 335 336 337
f 337 338 339
f 340 341 342
f 343 341 344
f 345 218 346
f 348 218 347
f 350 347 349
f 351 352 353
f 352 355 353
f 357 354 356
f 358 219 359
f 219 361 359
f 360 363 361
f 364 366 365
f 367 220 368
f 368 369 370
f 372 369 371
f 371 375 373
f 371 373 372
f 376 374 221
f 221 378 376
f 381 377 380
f 377 379 378
f 382 383 384
f 380 382 381
f 383 385 384
f 387 222 386
f 388 389 390
f 386 388 387
f 389 392 390
f 391 395 393
f 391 393 392
f 396 223 397
f 394 396 395
f 223 399 397
f 400 401 402
f 398 400 399
f 403 404 405
f 401 403 402
f 406 224 407
f 404 406 405
f 224 409 407
f 410 411 412
f 408 410 409
f 411 415 413
f 411 413 412
f 414 416 415
f 225 418 416
f 428 444 429
f 417 227 418
f 419 435 450
f 449 435 434
f 434 433 448
f 447 433 432
f 432 431 446
f 445 431 430
f 445 430 429
f 461 479 478
f 428 427 474
f 442 427 426
f 441 426 425
f 441 425 424
f 424 423 440
f 439 423 422
f 422 421 438
f 437 421 420
f 436 420 419
f 466 481 465
f 480 462 463
f 480 479 462
f 430 476 460
f 478 477 461
f 459 476 475
f 456 471 455
f 475 458 459
f 475 474 458
f 473 456 457
f 473 472 456
f 459 429 460
f 471 470 455
f 470 454 455
f 470 469 454
f 469 453 454
f 469 468 453
f 468 452 453
f 467 451 452
f 467 466 451
f 424 425 456
f 438 468 469
f 436 450 466
f 425 457 456
f 439 469 470
f 441 471 472
f 428 459 458
f 441 472 473
f 475 444 443
f 442 473 474
f 431 461 430
f 443 474 475
f 432 462 461
f 478 445 477
f 433 463 462
f 445 476 477
f 434 464 463
f 435 465 464
f 446 478 479
f 421 453 452
f 448 447 480
f 436 466 467
f 423 455 454
f 423 424 455
f 437 467 468
f 450 481 466
f 208 260 258
f 254 18 17
f 20 19 275
f 24 23 324
f 25 346 353
f 29 28 384
f 30 29 393
f 30 402 407
f 212 211 5
f 213 6 7
f 219 10 11
f 11 12 221
f 210 4 5
f 34 38 40
f 32 36 35
f 39 35 34
f 55 52 53
f 66 67 63
f 65 60 67
f 75 74 72
f 75 73 69
f 73 75 70
f 78 81 84
f 79 76 80
f 78 79 83
f 87 91 94
f 85 89 88
f 92 88 87
f 97 100 103
f 107 109 104
f 109 105 110
f 119 118 116
f 115 117 112
f 117 113 118
f 122 125 128
f 126 123 122
f 131 137 134
f 168 164 152
f 138 139 140
f 140 141 142
f 142 143 138
f 153 152 164
f 161 162 163
f 210 272 270
f 279 276 210
f 212 288 286
f 215 216 321
f 217 332 329
f 218 219 352
f 220 366 362
f 221 374 371
f 221 222 380
f 222 223 391
f 224 404 401
f 224 225 411
f 240 230 233
f 248 240 244
f 251 252 254
f 266 269 262
f 273 275 269
f 290 282 285
f 293 295 298
f 303 306 298
f 320 324 316
f 331 324 326
f 334 335 339
f 343 346 339
f 350 351 353
f 357 359 353
f 365 359 363
f 388 393 384
f 399 402 393
f 405 406 407
f 410 413 407
f 230 413 416
f 227 417 228
f 228 231 232
f 231 205 233
f 233 205 234
f 237 235 234
f 238 236 239
f 241 239 206
f 206 243 244
f 243 246 247
f 246 249 250
f 251 249 207
f 252 207 253
f 253 255 256
f 257 255 258
f 258 260 261
f 260 208 263
f 208 264 265
f 226 264 209
f 268 266 209
f 271 269 267
f 270 272 273
f 274 272 210
f 210 276 277
f 276 279 280
f 281 279 211
f 284 282 211
f 285 283 286
f 289 287 286
f 288 291 292
f 293 292 291
f 293 212 294
f 297 295 294
f 299 298 296
f 299 213 300
f 303 301 300
f 304 302 305
f 307 305 214
f 310 308 214
f 313 311 309
f 314 312 315
f 317 316 315
f 319 317 215
f 320 318 321
f 322 321 323
f 325 323 216
f 326 216 327
f 330 328 327
f 333 331 329
f 334 332 217
f 335 217 336
f 337 336 338
f 340 338 341
f 343 342 341
f 345 344 218
f 348 346 218
f 350 348 347
f 351 349 352
f 352 354 355
f 357 355 354
f 358 356 219
f 219 360 361
f 360 362 363
f 364 362 366
f 367 366 220
f 368 220 369
f 372 370 369
f 371 374 375
f 376 375 374
f 221 377 378
f 381 379 377
f 382 380 383
f 383 222 385
f 387 385 222
f 388 386 389
f 389 391 392
f 391 394 395
f 396 394 223
f 223 398 399
f 400 398 401
f 403 401 404
f 406 404 224
f 224 408 409
f 410 408 411
f 411 414 415
f 414 225 416
f 225 417 418
f 428 443 444
f 461 462 479
f 430 477 476
f 459 460 476
f 456 472 471
f 459 428 429
f 475 476 444
f 478 446 445
