#
#
#

mtllib KrazyKube.mtl


#
#  Mesh
#
g  Mesh

v -0.289272 -1.000000 -0.500000
v -0.289272 -0.882841 -0.662131
v -0.289272 -0.882841 -0.441421
v 0.138014 1.000000 0.000000
v 0.138014 0.882841 -0.441421
v 0.138014 0.882841 0.000000
v -0.289272 1.000000 0.000000
v -0.289272 0.882841 0.441421
v -0.289272 0.882841 0.000000
v 0.924371 0.000000 -0.500000
v 0.924371 -0.500000 0.000000
v 0.924371 -0.500000 -0.500000
v -0.289272 0.882841 0.662131
v 0.138014 0.882841 0.441421
v -1.075629 0.000000 0.500000
v -1.075629 -0.500000 0.000000
v -1.075629 -0.500000 0.500000
v -1.075629 0.500000 0.500000
v -1.075629 0.000000 0.000000
v -1.075629 -0.500000 -0.500000
v 0.138014 -0.882841 0.662131
v -0.289272 -0.882841 0.441421
v 0.138014 -0.882841 0.441421
v 0.138014 -0.441421 0.882841
v -0.289272 -0.662131 0.882841
v 0.138014 -0.662131 0.882841
v 0.924371 0.500000 -0.500000
v 0.924371 0.000000 0.000000
v 0.924371 -0.500000 0.500000
v 0.138014 -0.882841 -0.441421
v -0.289272 -0.882841 0.662131
v -0.289272 -0.662131 -0.882841
v 0.138014 -0.882841 -0.662131
v -0.289272 -0.441421 0.882841
v 0.138014 0.000000 0.882841
v -0.289272 0.000000 0.882841
v 0.138014 0.441421 0.882841
v -0.289272 0.441421 0.882841
v 0.138014 1.000000 -0.500000
v 0.138014 0.882841 -0.662131
v -0.289272 -1.000000 0.000000
v -0.289272 -0.882841 0.000000
v 0.138014 -0.500000 -1.000000
v 0.138014 -0.662131 -0.882841
v 0.138014 -0.441421 -0.882841
v 0.924371 0.500000 0.000000
v 0.924371 0.000000 0.500000
v 0.138014 0.750000 -1.000000
v 0.138014 1.000000 -0.750000
v -1.075629 0.500000 0.000000
v -1.075629 0.000000 -0.500000
v -0.825629 -1.000000 0.750000
v -0.825629 -0.750000 1.000000
v -1.075629 -0.750000 0.750000
v -1.075629 0.750000 0.750000
v -0.825629 0.750000 1.000000
v -0.825629 1.000000 0.750000
v -1.075629 -0.750000 -0.750000
v -0.825629 -0.750000 -1.000000
v -0.825629 -1.000000 -0.750000
v -0.825629 1.000000 -0.750000
v -0.825629 0.750000 -1.000000
v -1.075629 0.750000 -0.750000
v 0.924371 -0.750000 0.750000
v 0.674371 -0.750000 1.000000
v 0.674371 -1.000000 0.750000
v 0.674371 1.000000 0.750000
v 0.674371 0.750000 1.000000
v 0.924371 0.750000 0.750000
v 0.674371 -0.750000 -1.000000
v 0.924371 -0.750000 -0.750000
v 0.674371 -1.000000 -0.750000
v 0.674371 1.000000 -0.750000
v 0.924371 0.750000 -0.750000
v 0.674371 0.750000 -1.000000
v -1.075629 -0.750000 0.500000
v -0.825629 -1.000000 0.500000
v -1.075629 0.500000 0.750000
v -0.825629 0.500000 1.000000
v -1.075629 0.750000 -0.500000
v -0.825629 1.000000 -0.500000
v -1.075629 -0.500000 -0.750000
v -0.825629 -0.500000 -1.000000
v -0.575629 -0.750000 -1.000000
v -0.575629 -1.000000 -0.750000
v 0.424371 0.750000 -1.000000
v 0.424371 1.000000 -0.750000
v 0.674371 -0.500000 -1.000000
v 0.924371 -0.500000 -0.750000
v 0.924371 -0.750000 -0.500000
v 0.674371 -1.000000 -0.500000
v 0.924371 0.750000 0.500000
v 0.674371 1.000000 0.500000
v 0.924371 -0.500000 0.750000
v 0.674371 -0.500000 1.000000
v 0.424371 -0.750000 1.000000
v 0.424371 -1.000000 0.750000
v -0.575629 0.750000 1.000000
v -0.575629 1.000000 0.750000
v -0.825629 -1.000000 0.000000
v -1.075629 -0.750000 -0.500000
v -0.825629 -1.000000 -0.500000
v -0.825629 0.000000 1.000000
v -1.075629 -0.500000 0.750000
v -0.825629 -0.500000 1.000000
v -0.825629 1.000000 0.000000
v -1.075629 0.750000 0.500000
v -0.825629 1.000000 0.500000
v -0.825629 0.000000 -1.000000
v -1.075629 0.500000 -0.750000
v -0.825629 0.500000 -1.000000
v -0.289272 -0.441421 -0.882841
v -0.289272 -0.500000 -1.000000
v -0.289272 -0.750000 -1.000000
v 0.924371 0.000000 -0.750000
v 0.674371 0.500000 -1.000000
v 0.924371 0.500000 -0.750000
v 0.674371 -1.000000 0.000000
v 0.924371 -0.750000 0.500000
v 0.674371 -1.000000 0.500000
v 0.674371 1.000000 0.000000
v 0.924371 0.750000 -0.500000
v 0.674371 1.000000 -0.500000
v 0.674371 0.000000 1.000000
v 0.924371 0.500000 0.750000
v 0.674371 0.500000 1.000000
v -0.289272 0.882841 -0.441421
v -0.289272 -1.000000 0.500000
v -1.075629 -0.750000 0.000000
v -1.075629 0.000000 0.750000
v -1.075629 0.750000 0.000000
v -1.075629 0.000000 -0.750000
v 0.138014 -1.000000 0.000000
v 0.138014 -0.882841 0.000000
v 0.138014 1.000000 0.500000
v 0.138014 0.882841 0.662131
v 0.138014 1.000000 0.750000
v 0.674371 0.000000 -1.000000
v 0.924371 -0.750000 0.000000
v 0.924371 0.750000 0.000000
v 0.924371 0.000000 0.750000
v 0.138014 -1.000000 -0.500000
v 0.138014 -1.000000 -0.750000
v 0.424371 -1.000000 -0.750000
v -0.575629 1.000000 -0.750000
v -0.575629 -1.000000 0.750000
v 0.424371 1.000000 0.750000
v -0.575629 -1.000000 0.500000
v -0.575629 -0.500000 1.000000
v -0.575629 -0.750000 1.000000
v -0.575629 0.500000 1.000000
v -0.575629 1.000000 0.500000
v -0.575629 1.000000 -0.500000
v -1.075629 0.500000 -0.500000
v -0.575629 0.500000 -1.000000
v 0.424371 -1.000000 0.500000
v 0.424371 1.000000 0.500000
v 0.924371 0.500000 0.500000
v 0.424371 0.500000 1.000000
v 0.424371 -1.000000 -0.500000
v 0.424371 -0.500000 -1.000000
v 0.424371 -0.750000 -1.000000
v 0.424371 0.500000 -1.000000
v -0.575629 -1.000000 -0.500000
v -0.575629 -1.000000 0.000000
v -0.575629 0.000000 1.000000
v -0.575629 1.000000 0.000000
v -0.575629 -0.500000 -1.000000
v -0.575629 0.000000 -1.000000
v -0.289272 0.662131 -0.882841
v 0.138014 0.441421 -0.882841
v -0.289272 0.441421 -0.882841
v -0.289272 0.662131 0.882841
v 0.138014 0.662131 -0.882841
v -0.289272 0.882841 -0.662131
v -0.289272 0.000000 -0.882841
v 0.138014 0.000000 -0.882841
v 0.424371 0.000000 -1.000000
v 0.424371 -1.000000 0.000000
v 0.424371 1.000000 -0.500000
v 0.424371 1.000000 0.000000
v 0.424371 -0.500000 1.000000
v 0.424371 0.000000 1.000000
v -0.289272 1.000000 0.500000
v 0.138014 -0.750000 -1.000000
v 0.138014 0.500000 1.000000
v 0.138014 0.662131 0.882841
v 0.138014 0.750000 1.000000
v -0.289272 0.500000 1.000000
v -0.289272 0.750000 1.000000
v -0.289272 -1.000000 -0.750000
v -0.289272 0.000000 -1.000000
v -0.289272 -1.000000 0.750000
v -0.289272 1.000000 -0.500000
v -0.289272 1.000000 0.750000
v 0.138014 -1.000000 0.500000
v 0.138014 0.000000 -1.000000
v 0.138014 0.500000 -1.000000
v -0.289272 -0.500000 1.000000
v -0.289272 -0.750000 1.000000
v 0.138014 -0.500000 1.000000
v 0.138014 -0.750000 1.000000
v 0.138014 0.000000 1.000000
v 0.138014 -1.000000 0.750000
v -0.289272 0.500000 -1.000000
v -0.289272 0.000000 1.000000
v -0.289272 1.000000 -0.750000
v -0.289272 0.750000 -1.000000
v 0.424371 0.750000 1.000000
v -0.575629 0.750000 -1.000000
vn 0.707107 -0.707107 0.000000
vn 0.819430 -0.554572 -0.144856
vn -0.800000 0.600000 0.000000
vn -0.707107 0.707107 0.000000
vn -0.554700 0.832050 0.000000
vn 0.800000 0.600000 0.000000
vn 0.707107 0.707107 0.000000
vn 0.554700 0.832050 0.000000
vn 1.000000 0.000000 0.000000
vn 0.819430 0.554572 0.144856
vn -1.000000 0.000000 0.000000
vn -0.819430 -0.554572 0.144856
vn -0.707107 -0.707107 0.000000
vn -0.707107 0.000000 0.707107
vn 0.819431 -0.144857 0.554572
vn -0.731306 -0.344742 0.588510
vn 0.731306 -0.588510 0.344741
vn 0.731307 -0.344741 -0.588510
vn -0.731306 -0.588510 -0.344741
vn 0.707107 0.000000 0.707107
vn -0.554700 0.000000 0.832050
vn 0.554700 0.000000 0.832050
vn -0.819430 0.554572 -0.144856
vn 0.800000 -0.600000 0.000000
vn 0.554700 -0.832050 0.000000
vn -0.707107 0.000000 -0.707107
vn -0.819431 -0.144857 -0.554572
vn -0.707107 0.000000 -0.707107
vn -0.630262 0.297110 -0.717283
vn -0.581522 0.787122 -0.205599
vn -0.378446 -0.892863 0.244078
vn -0.244078 -0.378446 0.892863
vn -0.841993 -0.292403 0.453374
vn -0.892863 0.378446 0.244078
vn -0.453374 0.292403 0.841993
vn -0.292403 0.841993 0.453374
vn -0.892863 -0.378446 -0.244078
vn -0.453374 -0.292403 -0.841993
vn -0.292403 -0.841993 -0.453374
vn -0.378446 0.892863 -0.244078
vn -0.244078 0.378446 -0.892863
vn -0.841993 0.292403 -0.453374
vn 0.892863 -0.378446 0.244078
vn 0.453374 -0.292403 0.841993
vn 0.292403 -0.841993 0.453374
vn 0.378446 0.892863 0.244078
vn 0.244078 0.378446 0.892863
vn 0.841993 0.292403 0.453374
vn 0.244078 -0.378446 -0.892863
vn 0.841993 -0.292403 -0.453374
vn 0.378446 -0.892863 -0.244078
vn 0.292403 0.841993 -0.453374
vn 0.892863 0.378446 -0.244078
vn 0.453374 0.292403 -0.841993
vn -0.923880 -0.382683 0.000000
vn -0.382683 -0.923880 0.000000
vn -0.923880 0.000000 0.382683
vn -0.382683 0.000000 0.923880
vn -0.923880 0.382683 0.000000
vn -0.382683 0.923880 0.000000
vn -0.923880 0.000000 -0.382683
vn -0.382683 0.000000 -0.923880
vn 0.000000 -0.382683 -0.923880
vn 0.000000 -0.923880 -0.382683
vn 0.000000 0.382683 -0.923880
vn 0.000000 0.923880 -0.382683
vn 0.382683 0.000000 -0.923880
vn 0.923880 0.000000 -0.382683
vn 0.923880 -0.382683 0.000000
vn 0.382683 -0.923880 0.000000
vn 0.923880 0.382683 0.000000
vn 0.382683 0.923880 0.000000
vn 0.923880 0.000000 0.382683
vn 0.382683 0.000000 0.923880
vn 0.000000 -0.382683 0.923880
vn 0.000000 -0.923880 0.382683
vn 0.000000 0.382683 0.923880
vn 0.000000 0.923880 0.382683
vn 0.707107 0.000000 -0.707107
vn 0.707107 0.000000 -0.707107
vn 0.630262 -0.297109 -0.717283
vn -0.800000 -0.600000 0.000000
vn -0.554700 -0.832050 0.000000
vn -0.731306 0.588510 0.344741
vn -0.731306 0.588511 0.344741
vn -0.731306 -0.588511 -0.344741
vn 0.000000 -0.923880 0.382683
vn 0.000000 0.923880 0.382683
vn 0.000000 -1.000000 0.000000
vn 0.000000 0.000000 1.000000
vn 0.000000 1.000000 0.000000
vn 0.000000 0.000000 -1.000000
vn 0.819431 0.144857 -0.554572
vn 0.731307 0.344741 0.588510
vn -0.731306 0.344742 -0.588510
vn 0.731306 0.588510 -0.344741
vn 0.554700 0.000000 -0.832050
vn -0.554700 0.000000 -0.832050
vn -0.734510 -0.259688 -0.626943
vn -0.707107 0.000000 0.707107
vn -0.819431 0.144857 0.554572
vn -0.734510 0.259688 0.626943
vn 0.707107 0.000000 0.707107
vn 0.630262 0.297109 0.717283
vn 0.581522 -0.787122 -0.205599
vn 0.800000 0.000000 -0.600000
vn 0.731306 -0.588511 0.344741
vn 0.581522 0.787122 0.205599
vn -0.800000 0.000000 -0.600000
vn 0.734510 -0.259688 0.626943
vn -0.630262 -0.297110 0.717283
vn -0.800000 0.000000 0.600000
vn -0.581522 -0.787122 0.205599
vn 0.800000 0.000000 0.600000
vn 0.731306 0.588511 -0.344741
vn 0.734510 0.259688 -0.626943
vn 0.819430 0.554572 0.144856
vn 0.819430 -0.554572 -0.144856
vn 0.731307 -0.344741 -0.588510
vn -0.382683 0.000000 0.923880
vn -0.382683 0.923880 0.000000
vn 0.382683 -0.923880 0.000000
vn -0.923880 0.382683 0.000000
vn -0.923880 0.000000 -0.382683
vn 0.923880 0.000000 0.382683
vn 0.923880 0.382683 0.000000
vn 0.382683 0.000000 -0.923880
vn 0.731307 0.344741 0.588510
vn -0.731306 0.344742 -0.588510
vn 0.000000 0.382683 -0.923880
vn 0.000000 0.382683 0.923880
f 1//1 2//2 3//1
f 4//3 5//4 6//5
f 7//6 8//7 9//8
f 10//9 11//9 12//9
f 13//10 14//4 8//7
f 15//11 16//11 17//11
f 18//11 19//11 15//11
f 19//11 20//11 16//11
f 21//12 22//1 23//13
f 24//14 25//15 26//16
f 27//9 28//9 10//9
f 28//9 29//9 11//9
f 2//2 30//13 3//1
f 26//16 31//17 21//12
f 32//18 33//19 2//2
f 34//20 35//21 36//22
f 8//7 6//5 9//8
f 36//22 37//14 38//20
f 39//4 40//23 5//4
f 41//24 3//1 42//25
f 43//26 44//27 45//28
f 46//9 47//9 28//9
f 48//29 40//23 49//30
f 50//11 51//11 19//11
f 52//31 53//32 54//33
f 55//34 56//35 57//36
f 58//37 59//38 60//39
f 61//40 62//41 63//42
f 64//43 65//44 66//45
f 67//46 68//47 69//48
f 70//49 71//50 72//51
f 73//52 74//53 75//54
f 52//31 76//55 77//56
f 56//35 78//57 79//58
f 61//40 80//59 81//60
f 59//38 82//61 83//62
f 60//39 84//63 85//64
f 73//52 86//65 87//66
f 71//50 88//67 89//68
f 72//51 90//69 91//70
f 67//46 92//71 93//72
f 65//44 94//73 95//74
f 66//45 96//75 97//76
f 57//36 98//77 99//78
f 100//56 101//55 102//56
f 103//58 104//57 105//58
f 106//60 107//59 108//60
f 109//62 110//61 111//62
f 112//79 44//27 32//18
f 113//80 32//18 114//81
f 115//68 116//67 117//68
f 118//70 119//69 120//70
f 121//72 122//71 123//72
f 124//74 125//73 126//74
f 9//8 5//4 127//7
f 41//24 22//1 128//1
f 77//56 129//55 100//56
f 79//58 130//57 103//58
f 81//60 131//59 106//60
f 83//62 132//61 109//62
f 133//82 23//13 134//83
f 135//4 136//84 137//85
f 89//68 138//67 115//68
f 91//70 139//69 118//70
f 93//72 140//71 121//72
f 95//74 141//73 124//74
f 133//82 30//13 142//13
f 142//13 33//19 143//86
f 102//56 58//37 60//39
f 105//58 54//33 53//32
f 108//60 55//34 57//36
f 111//62 63//42 62//41
f 144//64 70//49 72//51
f 145//66 62//41 61//40
f 117//68 75//54 74//53
f 120//70 64//43 66//45
f 123//72 74//53 73//52
f 126//74 69//48 68//47
f 146//87 53//32 52//31
f 147//88 68//47 67//46
f 148//89 52//31 77//56
f 104//57 76//55 54//33
f 149//90 53//32 150//75
f 55//34 18//11 78//57
f 98//77 79//58 151//90
f 108//60 99//78 152//91
f 83//62 84//63 59//38
f 85//64 102//56 60//39
f 20//11 58//37 101//55
f 61//40 153//91 145//66
f 80//59 110//61 154//11
f 62//41 155//92 111//62
f 95//74 96//75 65//44
f 120//70 97//76 156//89
f 29//9 64//43 119//69
f 157//91 67//46 93//72
f 92//71 125//73 158//9
f 68//47 159//90 126//74
f 89//68 90//69 71//50
f 72//51 160//89 144//64
f 161//92 70//49 162//63
f 87//66 123//72 73//52
f 86//65 116//67 163//92
f 74//53 27//9 117//68
f 164//89 100//56 102//56
f 165//89 77//56 100//56
f 16//11 101//55 129//55
f 17//11 129//55 76//55
f 130//57 17//11 104//57
f 166//90 105//58 149//90
f 151//90 103//58 166//90
f 78//57 15//11 130//57
f 106//60 152//91 167//91
f 131//59 154//11 50//11
f 81//60 167//91 153//91
f 107//59 50//11 18//11
f 154//11 132//61 51//11
f 51//11 82//61 20//11
f 109//62 168//92 83//62
f 111//62 169//92 109//62
f 170//93 171//28 172//79
f 40//23 127//7 5//4
f 173//94 136//84 13//10
f 174//95 175//96 40//23
f 45//28 176//97 177//98
f 23//13 42//25 134//83
f 177//98 172//79 171//28
f 134//83 3//1 30//13
f 163//92 138//67 178//92
f 178//92 88//67 161//92
f 115//68 12//9 89//68
f 117//68 10//9 115//68
f 118//70 156//89 179//89
f 11//9 119//69 139//69
f 12//9 139//69 90//69
f 91//70 179//89 160//89
f 180//91 121//72 123//72
f 181//91 93//72 121//72
f 140//71 158//9 46//9
f 122//71 46//9 27//9
f 158//9 141//73 47//9
f 47//9 94//73 29//9
f 124//74 182//90 95//74
f 126//74 183//90 124//74
f 4//3 14//4 135//4
f 184//7 13//10 8//7
f 143//86 44//27 185//99
f 186//100 187//101 37//14
f 137//85 187//101 188//102
f 189//103 173//94 190//104
f 114//81 2//2 191//105
f 38//20 187//101 173//94
f 192//106 172//79 176//97
f 128//1 31//17 193//107
f 7//6 127//7 194//7
f 190//104 13//10 195//108
f 196//13 21//12 23//13
f 192//106 112//79 113//80
f 197//109 171//28 198//26
f 199//103 25//15 34//20
f 193//107 25//15 200//110
f 201//100 26//16 202//111
f 197//109 45//28 177//98
f 203//112 37//14 35//21
f 198//26 174//95 48//29
f 203//112 24//14 201//100
f 202//111 21//12 204//113
f 205//80 170//93 172//79
f 206//114 38//20 189//103
f 194//7 175//96 207//115
f 206//114 34//20 36//22
f 207//115 170//93 208//116
f 153//91 7//6 194//7
f 167//91 184//7 7//6
f 4//3 157//91 181//91
f 39//4 181//91 180//91
f 160//89 133//82 142//13
f 179//89 196//13 133//82
f 41//24 148//89 165//89
f 1//1 165//89 164//89
f 159//90 203//112 183//90
f 189//103 166//90 206//114
f 206//114 149//90 199//103
f 183//90 201//100 182//90
f 155//92 192//106 169//92
f 198//26 178//92 197//109
f 197//109 161//92 43//26
f 169//92 113//80 168//92
f 152//91 195//108 184//7
f 135//4 147//88 157//91
f 49//30 180//91 87//66
f 145//66 194//7 207//115
f 156//89 204//113 196//13
f 128//1 146//87 148//89
f 191//105 164//89 85//64
f 144//64 142//13 143//86
f 199//103 150//75 200//110
f 182//90 202//111 96//75
f 190//104 151//90 189//103
f 209//77 186//100 159//90
f 43//26 162//63 185//99
f 168//92 114//81 84//63
f 48//29 163//92 198//26
f 210//65 205//80 155//92
f 143//86 162//63 144//64
f 85//64 114//81 191//105
f 207//115 210//65 145//66
f 87//66 48//29 49//30
f 193//107 150//75 146//87
f 97//76 202//111 204//113
f 137//85 209//77 147//88
f 99//78 190//104 195//108
f 1//1 191//105 2//2
f 4//3 39//4 5//4
f 7//6 184//7 8//7
f 10//9 28//9 11//9
f 13//117 136//84 14//4
f 15//11 19//11 16//11
f 18//11 50//11 19//11
f 19//11 51//11 20//11
f 21//12 31//17 22//1
f 24//14 34//20 25//15
f 27//9 46//9 28//9
f 28//9 47//9 29//9
f 2//118 33//19 30//13
f 26//16 25//15 31//17
f 32//119 44//27 33//19
f 34//20 24//14 35//21
f 8//7 14//4 6//5
f 36//22 35//21 37//14
f 39//4 49//30 40//23
f 41//24 1//1 3//1
f 43//26 185//99 44//27
f 46//9 158//9 47//9
f 48//29 174//95 40//23
f 50//11 154//11 51//11
f 52//31 54//33 76//55
f 56//35 55//34 78//57
f 61//40 63//42 80//59
f 59//38 58//37 82//61
f 60//39 59//38 84//63
f 73//52 75//54 86//65
f 71//50 70//49 88//67
f 72//51 71//50 90//69
f 67//46 69//48 92//71
f 65//44 64//43 94//73
f 66//45 65//44 96//75
f 57//36 56//35 98//77
f 100//56 129//55 101//55
f 103//120 130//57 104//57
f 106//121 131//59 107//59
f 109//62 132//61 110//61
f 112//79 45//28 44//27
f 113//80 112//79 32//18
f 115//68 138//67 116//67
f 118//122 139//69 119//69
f 121//72 140//71 122//71
f 124//74 141//73 125//73
f 9//8 6//5 5//4
f 41//24 42//25 22//1
f 77//56 76//55 129//55
f 79//120 78//57 130//57
f 81//121 80//59 131//59
f 83//62 82//61 132//61
f 133//82 196//13 23//13
f 135//4 14//4 136//84
f 89//68 88//67 138//67
f 91//122 90//69 139//69
f 93//72 92//71 140//71
f 95//74 94//73 141//73
f 133//82 134//83 30//13
f 142//13 30//13 33//19
f 102//56 101//55 58//37
f 105//120 104//57 54//33
f 108//121 107//59 55//34
f 111//62 110//61 63//42
f 144//64 162//63 70//49
f 145//66 210//65 62//41
f 117//68 116//67 75//54
f 120//122 119//69 64//43
f 123//72 122//71 74//53
f 126//74 125//73 69//48
f 146//87 150//75 53//32
f 147//88 209//77 68//47
f 148//89 146//76 52//31
f 104//57 17//11 76//55
f 149//90 105//120 53//32
f 55//34 107//123 18//11
f 98//77 56//35 79//120
f 108//121 57//36 99//78
f 83//62 168//92 84//63
f 85//64 164//89 102//56
f 20//11 82//124 58//37
f 61//40 81//121 153//91
f 80//123 63//42 110//124
f 62//41 210//65 155//92
f 95//74 182//90 96//75
f 120//122 66//45 97//76
f 29//9 94//125 64//43
f 157//91 147//78 67//46
f 92//126 69//48 125//125
f 68//47 209//77 159//90
f 89//68 12//9 90//69
f 72//51 91//122 160//89
f 161//92 88//127 70//49
f 87//66 180//91 123//72
f 86//65 75//54 116//127
f 74//53 122//126 27//9
f 164//89 165//89 100//56
f 165//89 148//89 77//56
f 16//11 20//11 101//55
f 17//11 16//11 129//55
f 130//57 15//11 17//11
f 166//90 103//120 105//120
f 151//90 79//120 103//120
f 78//57 18//11 15//11
f 106//121 108//121 152//91
f 131//123 80//123 154//11
f 81//121 106//121 167//91
f 107//123 131//123 50//11
f 154//11 110//124 132//124
f 51//11 132//124 82//124
f 109//62 169//92 168//92
f 111//62 155//92 169//92
f 170//93 174//95 171//28
f 40//23 175//96 127//7
f 173//128 187//101 136//84
f 174//129 170//93 175//96
f 45//28 112//79 176//97
f 23//13 22//1 42//25
f 177//98 176//97 172//79
f 134//83 42//25 3//1
f 163//92 116//127 138//127
f 178//92 138//127 88//127
f 115//68 10//9 12//9
f 117//68 27//9 10//9
f 118//122 120//122 156//89
f 11//9 29//9 119//69
f 12//9 11//9 139//69
f 91//122 118//122 179//89
f 180//91 181//91 121//72
f 181//91 157//91 93//72
f 140//126 92//126 158//9
f 122//126 140//126 46//9
f 158//9 125//125 141//125
f 47//9 141//125 94//125
f 124//74 183//90 182//90
f 126//74 159//90 183//90
f 4//3 6//5 14//4
f 184//7 195//108 13//10
f 143//86 33//19 44//27
f 186//100 188//102 187//101
f 137//85 136//84 187//101
f 189//103 38//20 173//94
f 114//81 32//18 2//2
f 38//20 37//14 187//101
f 192//106 205//80 172//79
f 128//1 22//1 31//17
f 7//6 9//8 127//7
f 190//104 173//94 13//10
f 196//13 204//113 21//12
f 192//106 176//97 112//79
f 197//109 177//98 171//28
f 199//103 200//110 25//15
f 193//107 31//17 25//15
f 201//100 24//14 26//16
f 197//109 43//26 45//28
f 203//112 186//100 37//14
f 198//26 171//28 174//95
f 203//112 35//21 24//14
f 202//111 26//16 21//12
f 205//80 208//116 170//93
f 206//114 36//22 38//20
f 194//7 127//7 175//96
f 206//114 199//103 34//20
f 207//115 175//96 170//93
f 153//91 167//91 7//6
f 167//91 152//91 184//7
f 4//3 135//4 157//91
f 39//4 4//3 181//91
f 160//89 179//89 133//82
f 179//89 156//89 196//13
f 41//24 128//1 148//89
f 1//1 41//24 165//89
f 159//90 186//100 203//112
f 189//103 151//90 166//90
f 206//114 166//90 149//90
f 183//90 203//112 201//100
f 155//92 205//80 192//106
f 198//26 163//92 178//92
f 197//109 178//92 161//92
f 169//92 192//106 113//80
f 152//91 99//78 195//108
f 135//4 137//85 147//78
f 49//30 39//4 180//91
f 145//66 153//91 194//7
f 156//89 97//76 204//113
f 128//1 193//107 146//76
f 191//105 1//1 164//89
f 144//64 160//89 142//13
f 199//103 149//90 150//75
f 182//90 201//100 202//111
f 190//104 98//77 151//90
f 209//77 188//102 186//100
f 43//26 161//92 162//63
f 168//92 113//80 114//81
f 48//29 86//65 163//92
f 210//65 208//116 205//80
f 143//86 185//99 162//63
f 85//64 84//63 114//81
f 207//115 208//116 210//130
f 87//66 86//130 48//29
f 193//107 200//110 150//75
f 97//87 96//75 202//111
f 137//85 188//102 209//131
f 99//88 98//131 190//104
