# Blender 4.5.3 LTS
# www.blender.org
o mesh_1.025
v 0.341166 0.380387 -0.338445
v 0.340417 0.392838 -0.338444
v 0.341164 0.380423 -0.901692
v 0.334177 0.391849 -0.900098
v 0.330695 0.392192 -0.923698
v 0.325333 0.376340 -0.906788
v -0.367713 0.334397 -0.908015
v 0.328044 0.373745 -0.334286
v 0.342222 0.379081 -0.337924
v -0.382512 0.349260 -0.920292
v -0.366784 0.350132 -0.309368
v -0.370483 0.331724 -0.334286
v 0.319428 0.391494 -0.315967
v 0.318355 0.371556 -0.328140
v -0.360602 0.330712 -0.328140
v -0.020495 0.340689 -0.376150
v -0.020125 0.334543 -0.480943
v -0.228809 0.321989 -0.480943
v -0.253945 0.327466 -0.377004
v -0.293654 0.323162 -0.391249
v -0.249502 0.320758 -0.491448
v -0.306871 0.325355 -0.430699
v -0.252772 0.320564 -0.747576
v -0.308351 0.323760 -0.799216
v -0.242286 0.321196 -0.768306
v -0.293324 0.323028 -0.838981
v -0.253790 0.328551 -0.851477
v -0.020126 0.334561 -0.771582
v -0.020544 0.341510 -0.852595
v -0.021494 0.357305 -0.813173
v -0.022321 0.371046 -0.813172
v 0.241903 0.373147 -0.802387
v 0.239810 0.386812 -0.801118
v 0.251844 0.387516 -0.448734
v 0.252670 0.373775 -0.448735
v -0.020125 0.334543 -0.480943
v -0.021493 0.357284 -0.480942
v -0.247464 0.343691 -0.485306
v -0.248415 0.320810 -0.487631
v -0.249784 0.343569 -0.764893
v -0.246097 0.320967 -0.767217
v -0.021494 0.357303 -0.771580
v -0.020126 0.334561 -0.771582
v -0.021008 0.349224 -0.326015
v -0.020608 0.342575 -0.378122
v -0.253790 0.328548 -0.378122
v -0.370246 0.330112 -0.330937
v -0.291305 0.326291 -0.393503
v -0.306871 0.325355 -0.430699
v -0.306871 0.325358 -0.798900
v -0.370107 0.330321 -0.909047
v -0.291305 0.326295 -0.836096
v -0.253790 0.328551 -0.851477
v -0.021010 0.349261 -0.914122
v -0.020609 0.342579 -0.851477
v -0.021493 0.357284 -0.480942
v 0.200666 0.370649 -0.484217
v -0.021493 0.357282 -0.448735
v 0.252670 0.373775 -0.448735
v 0.211153 0.371281 -0.504947
v 0.249493 0.373604 -0.779872
v 0.211152 0.371296 -0.747575
v 0.200665 0.370669 -0.768304
v 0.219428 0.371795 -0.809990
v -0.021494 0.357305 -0.813173
v -0.021494 0.357303 -0.771580
v -0.021494 0.357305 -0.813173
v -0.021494 0.357303 -0.771580
v -0.230178 0.344749 -0.771580
v -0.262417 0.342808 -0.809990
v -0.250870 0.343503 -0.761075
v -0.292481 0.341001 -0.779872
v -0.254139 0.343291 -0.504947
v -0.295657 0.340789 -0.448735
v -0.243653 0.343920 -0.484217
v -0.021493 0.357282 -0.448735
v -0.021493 0.357284 -0.480942
v -0.022321 0.371046 -0.813172
v -0.021494 0.357305 -0.813173
v -0.284892 0.341456 -0.802387
v -0.284452 0.355274 -0.801118
v -0.296483 0.354531 -0.448734
v -0.295657 0.340789 -0.448735
v -0.020125 0.334543 -0.480943
v -0.020495 0.340689 -0.376150
v 0.188559 0.347097 -0.480943
v 0.212857 0.355547 -0.377004
v 0.252795 0.356035 -0.391249
v 0.209250 0.348355 -0.491448
v 0.265654 0.359797 -0.430699
v 0.212520 0.348555 -0.747576
v 0.267315 0.358390 -0.799216
v 0.202033 0.347925 -0.768306
v 0.252484 0.355862 -0.838981
v 0.212573 0.356606 -0.851477
v -0.020126 0.334561 -0.771582
v -0.020544 0.341510 -0.852595
v -0.020608 0.342575 -0.378122
v -0.021008 0.349224 -0.326015
v 0.212573 0.356603 -0.378122
v 0.328002 0.372116 -0.330937
v 0.250089 0.358860 -0.393503
v 0.265654 0.359797 -0.430699
v 0.265654 0.359799 -0.798900
v 0.327839 0.372307 -0.909047
v 0.250088 0.358863 -0.836096
v 0.212573 0.356606 -0.851477
v -0.021011 0.349261 -0.914122
v -0.020609 0.342579 -0.851477
v -0.295657 0.340789 -0.448735
v 0.252670 0.373775 -0.448735
v -0.296483 0.354531 -0.448734
v 0.251844 0.387516 -0.448734
v 0.205844 0.348155 -0.767217
v -0.020126 0.334561 -0.771582
v -0.021494 0.357303 -0.771580
v 0.206795 0.371035 -0.764893
v 0.208164 0.348276 -0.487631
v 0.204477 0.370878 -0.485306
v -0.020125 0.334543 -0.480943
v -0.021493 0.357284 -0.480942
v 0.319312 0.391567 -0.317300
v 0.337537 0.392666 -0.326553
v 0.251844 0.387516 -0.448734
v 0.248666 0.387340 -0.779871
v 0.337535 0.392702 -0.913582
v -0.363950 0.350464 -0.317300
v -0.296483 0.354531 -0.448734
v 0.224955 0.385918 -0.805954
v 0.319310 0.391605 -0.922835
v 0.198067 0.384303 -0.813172
v -0.363953 0.350502 -0.922835
v -0.263243 0.356551 -0.809990
v -0.382176 0.349370 -0.326553
v -0.293307 0.354737 -0.779871
v -0.382178 0.349407 -0.913582
v 0.298074 0.371212 -0.440459
v 0.294072 0.370986 -0.438665
v 0.289259 0.370695 -0.453028
v 0.304083 0.371586 -0.450023
v -0.332118 0.326819 -0.790960
v -0.332508 0.333292 -0.790960
v -0.328732 0.333518 -0.793139
v -0.344698 0.332558 -0.800248
v -0.333297 0.333244 -0.804398
v -0.340133 0.332833 -0.788989
v 0.290155 0.370749 -0.790960
v 0.290544 0.364276 -0.790960
v 0.297780 0.371208 -0.788989
v 0.286379 0.370523 -0.793139
v 0.302345 0.371484 -0.800248
v 0.290944 0.370797 -0.804398
v -0.340077 0.326353 -0.440459
v -0.340425 0.332802 -0.440459
v -0.329880 0.333449 -0.444455
v -0.344703 0.332558 -0.441449
v -0.339890 0.332847 -0.455813
v -0.288959 0.353683 -1.026206
v -0.289855 0.368581 -1.017987
v -0.121828 -0.153286 -1.136420
v -0.165336 -0.135258 -1.136762
v -0.165094 -0.139283 -1.156535
v -0.134213 -0.149951 -1.156535
v -0.125206 -0.194446 -1.154539
v -0.133923 -0.222596 -1.136420
v -0.175082 -0.219218 -1.154539
v -0.203233 -0.210501 -1.136420
v -0.199854 -0.169341 -1.154539
v -0.199653 -0.148984 -1.136831
v -0.165094 -0.139283 -1.156535
v -0.165336 -0.135258 -1.136762
v 0.215196 -0.139587 -1.135836
v 0.180900 -0.125655 -1.136026
v 0.181091 -0.128819 -1.155799
v 0.212344 -0.148457 -1.154886
v 0.205839 -0.194410 -1.135836
v 0.196969 -0.191558 -1.154886
v 0.151016 -0.185053 -1.135836
v 0.160843 -0.187433 -1.155799
v 0.152417 -0.152062 -1.154886
v 0.178732 -0.121398 -1.135432
v 0.181091 -0.128819 -1.155799
v 0.121690 0.154497 -1.136421
v 0.165198 0.136468 -1.136762
v 0.164956 0.140494 -1.156536
v 0.126842 0.166168 -1.154539
v 0.133785 0.223806 -1.136421
v 0.130450 0.211421 -1.156536
v 0.174945 0.220428 -1.154539
v 0.195302 0.220227 -1.136832
v 0.199717 0.170552 -1.154539
v 0.206231 0.159582 -1.136421
v 0.164956 0.140494 -1.156536
v 0.165198 0.136468 -1.136762
v -0.180966 0.125651 -1.136762
v -0.182124 0.128809 -1.155210
v -0.219439 0.150221 -1.135879
v -0.208647 0.184900 -1.155749
v -0.185396 0.199294 -1.136200
v -0.154593 0.180214 -1.156160
v -0.144567 0.164638 -1.136483
v -0.180195 0.128925 -1.155210
v -0.180400 0.124358 -1.136413
v 0.214123 0.397914 -1.010976
v 0.246171 0.399155 -1.003981
v 0.219127 0.384937 -1.019679
v 0.255616 0.382019 -0.999086
v 0.206216 0.378817 -1.045453
v 0.261233 0.401380 -1.033985
v 0.265066 0.388468 -1.034676
v 0.258109 0.385158 -1.048563
v 0.208743 0.397581 -1.021456
v 0.223036 0.397737 -1.052290
v 0.260025 0.382417 -1.051120
v 0.254807 0.400982 -1.046501
v 0.268785 0.388867 -1.054156
v 0.257937 0.388026 -1.048561
v 0.265066 0.388468 -1.034676
v 0.275913 0.389309 -1.040271
v 0.265810 0.389479 -1.032151
v 0.268785 0.388867 -1.054156
v 0.258933 0.411677 -1.047735
v 0.202447 0.402222 -1.014971
v 0.208743 0.397581 -1.021456
v 0.206837 0.384253 -1.020778
v 0.197955 0.383579 -1.014042
v 0.202174 0.383841 -1.005823
v 0.212806 0.384623 -1.009152
v 0.206837 0.384253 -1.020778
v 0.197955 0.383579 -1.014042
v 0.212806 0.384623 -1.009152
v 0.202174 0.383841 -1.005823
v 0.214123 0.397914 -1.010976
v 0.205066 0.402384 -1.009869
v 0.264365 0.412013 -1.037154
v 0.261233 0.401380 -1.033985
v 0.265066 0.388468 -1.034676
v 0.275913 0.389309 -1.040271
v 0.200142 0.384741 -1.005654
v 0.198194 0.383941 -1.013371
v 0.273405 0.391972 -1.056144
v 0.278517 0.391230 -1.042176
v 0.051300 0.387735 -1.050137
v 0.049402 0.374727 -1.039841
v 0.010187 0.367254 -1.052893
v 0.017313 0.386289 -1.050019
v 0.007235 0.386050 -1.017168
v 0.067762 0.370488 -1.017183
v 0.007220 0.372957 -1.016066
v 0.017115 0.370661 -1.003859
v 0.060613 0.388541 -1.040252
v 0.051050 0.388282 -1.006420
v 0.016077 0.367742 -1.001006
v 0.291810 0.463066 -0.891063
v 0.296197 0.389878 -0.905208
v 0.313252 0.390904 -0.905208
v 0.308865 0.464092 -0.891063
v 0.308865 0.464092 -0.891063
v 0.308845 0.464156 -0.879860
v 0.291790 0.463131 -0.879860
v 0.291810 0.463066 -0.891063
v 0.313252 0.390904 -0.865715
v 0.308845 0.464156 -0.879860
v 0.308865 0.464092 -0.891063
v 0.313252 0.390904 -0.905208
v 0.308845 0.464156 -0.879860
v 0.313252 0.390904 -0.865715
v 0.296197 0.389878 -0.865715
v 0.291790 0.463131 -0.879860
v 0.291810 0.463066 -0.891063
v 0.291790 0.463131 -0.879860
v 0.296197 0.389878 -0.865715
v 0.296197 0.389878 -0.905208
v -0.357854 0.350532 -0.865715
v -0.357854 0.350532 -0.905208
v -0.362273 0.423719 -0.891063
v -0.362261 0.423785 -0.879860
v -0.345219 0.424745 -0.891063
v -0.340800 0.351558 -0.905208
v -0.340800 0.351558 -0.865715
v -0.345206 0.424811 -0.879860
v -0.362261 0.423785 -0.879860
v -0.345206 0.424811 -0.879860
v -0.340800 0.351558 -0.865715
v -0.357854 0.350532 -0.865715
v -0.345219 0.424745 -0.891063
v -0.362273 0.423719 -0.891063
v -0.357854 0.350532 -0.905208
v -0.340800 0.351558 -0.905208
v -0.362273 0.423719 -0.891063
v -0.345219 0.424745 -0.891063
v -0.345206 0.424811 -0.879860
v -0.362261 0.423785 -0.879860
v 0.293499 0.434728 -0.874123
v 0.293499 0.434728 -0.896800
v 0.040895 0.417707 -0.870330
v 0.040923 0.417292 -0.893006
v -0.343498 0.396408 -0.896800
v -0.343498 0.396408 -0.874123
v 0.291807 0.462854 -0.891063
v 0.291807 0.462854 -0.879860
v 0.039204 0.445833 -0.887270
v 0.039231 0.445418 -0.876066
v -0.345190 0.424534 -0.879860
v -0.345190 0.424534 -0.891063
v 0.043346 0.417565 -0.870522
v -0.343498 0.396408 -0.874123
v -0.345190 0.424534 -0.879860
v 0.041674 0.445757 -0.875936
v 0.291807 0.462854 -0.879860
v 0.293499 0.434728 -0.874123
v 0.047831 0.446141 -0.887461
v -0.345190 0.424534 -0.891063
v -0.343498 0.396408 -0.896800
v 0.049754 0.417922 -0.892676
v 0.293499 0.434728 -0.896800
v 0.291807 0.462854 -0.891063
v -0.346153 0.264322 -0.331315
v -0.346469 0.269574 -0.290297
v -0.347113 0.280282 -0.294741
v -0.346849 0.275894 -0.329009
v -0.347387 0.284843 -0.367197
v -0.347880 0.293038 -0.358987
v -0.349463 0.319354 -0.386298
v -0.349501 0.319971 -0.374657
v -0.350372 0.278718 -0.294484
v -0.347041 0.279093 -0.343809
v -0.353828 0.317595 -0.382304
v -0.349530 0.320457 -0.374642
v -0.353918 0.319086 -0.386298
v -0.353955 0.319703 -0.374657
v -0.352335 0.292770 -0.358987
v -0.351842 0.284575 -0.367197
v -0.351303 0.275626 -0.329009
v -0.350607 0.264054 -0.331315
v -0.351567 0.280014 -0.294741
v -0.350923 0.269306 -0.290297
v -0.348696 0.269440 -0.290297
v -0.346208 0.265233 -0.341971
v -0.350838 0.267884 -0.349030
v -0.351747 0.320165 -0.386708
v -0.360505 0.321033 -0.401643
v -0.343158 0.322077 -0.401643
v -0.360505 0.321033 -0.357437
v -0.360505 0.321033 -0.401643
v -0.343158 0.322077 -0.401643
v -0.343158 0.322077 -0.357437
v -0.343158 0.322077 -0.357437
v -0.360505 0.321033 -0.357437
v 0.313881 0.309299 -0.290297
v 0.311915 0.304823 -0.341971
v 0.316194 0.308010 -0.349030
v 0.310829 0.360023 -0.386708
v 0.311653 0.309165 -0.290297
v 0.311969 0.303913 -0.331315
v 0.311009 0.319872 -0.294741
v 0.311279 0.315393 -0.317301
v 0.310735 0.324430 -0.350643
v 0.310735 0.324433 -0.367197
v 0.308659 0.358945 -0.386298
v 0.308622 0.359562 -0.374657
v 0.313076 0.359830 -0.374657
v 0.313113 0.359213 -0.386298
v 0.314696 0.332897 -0.358987
v 0.315190 0.324701 -0.367197
v 0.315728 0.315753 -0.329009
v 0.316424 0.304181 -0.331315
v 0.315464 0.320140 -0.294741
v 0.316108 0.309433 -0.290297
v 0.314432 0.318711 -0.294484
v 0.311081 0.318684 -0.343809
v 0.313203 0.357721 -0.382304
v 0.308592 0.360048 -0.374642
v 0.319419 0.361935 -0.401643
v 0.302072 0.360892 -0.401643
v 0.319419 0.361935 -0.357437
v 0.319419 0.361935 -0.401643
v 0.302072 0.360892 -0.357437
v 0.319419 0.361935 -0.357437
v 0.302072 0.360892 -0.401643
v 0.302072 0.360892 -0.357437
v -0.203516 0.327414 -0.482617
v -0.214624 0.326746 -0.482617
v -0.214625 0.326757 -0.482617
v -0.215311 0.338160 -0.482496
v -0.215304 0.338041 -0.496511
v -0.204202 0.338829 -0.482496
v -0.203517 0.327425 -0.482617
v -0.204195 0.338709 -0.496511
v -0.215236 0.336905 -0.496520
v -0.215248 0.337109 -0.483498
v -0.204139 0.337777 -0.483498
v -0.204127 0.337573 -0.496520
v -0.215248 0.337109 -0.483498
v -0.214624 0.326746 -0.483702
v -0.203516 0.327414 -0.483702
v -0.204139 0.337777 -0.483498
v -0.215304 0.338041 -0.496520
v -0.204195 0.338709 -0.496520
v -0.165605 0.329695 -0.482617
v -0.176713 0.329026 -0.482617
v -0.176714 0.329037 -0.482617
v -0.177400 0.340441 -0.482496
v -0.177393 0.340322 -0.496511
v -0.166291 0.341109 -0.482496
v -0.165605 0.329705 -0.482617
v -0.166285 0.340990 -0.496511
v -0.177325 0.339186 -0.496520
v -0.177337 0.339390 -0.483498
v -0.166228 0.340058 -0.483498
v -0.166216 0.339854 -0.496520
v -0.177337 0.339390 -0.483498
v -0.176713 0.329026 -0.483702
v -0.165605 0.329695 -0.483702
v -0.166228 0.340058 -0.483498
v -0.177393 0.340321 -0.496520
v -0.166284 0.340990 -0.496520
v -0.228288 0.341130 -0.481532
v -0.228288 0.341130 -0.527776
v -0.153623 0.343269 -0.481548
v -0.153623 0.343269 -0.527791
v -0.228147 0.338786 -0.527776
v -0.228147 0.338786 -0.481532
v -0.153764 0.345613 -0.527791
v -0.153764 0.345613 -0.481548
v -0.228429 0.343474 -0.481532
v -0.228429 0.343474 -0.527776
v -0.153905 0.347957 -0.527791
v -0.153905 0.347957 -0.481548
v -0.228288 0.341130 -0.527776
v -0.153764 0.345613 -0.527791
v -0.325735 -0.322352 -0.003960
v -0.336543 -0.329490 -0.003960
v -0.339449 -0.328038 -0.031791
v -0.325930 -0.319109 -0.031791
v -0.328726 -0.329574 -0.005206
v -0.324549 -0.316964 -0.032030
v -0.317517 -0.349133 -0.032019
v -0.340149 -0.328254 -0.032191
v -0.313371 -0.341072 -0.003960
v -0.324179 -0.348211 -0.003960
v -0.335765 -0.342420 -0.003960
v -0.336543 -0.329490 -0.003960
v -0.325735 -0.322352 -0.003960
v -0.314149 -0.328143 -0.003960
v 0.325357 0.321905 -0.004280
v 0.324549 0.316964 -0.032030
v 0.320141 0.332450 -0.005229
v 0.317517 0.349133 -0.032019
v 0.324455 0.322671 -0.033052
v 0.313371 0.341072 -0.003960
v 0.324179 0.348211 -0.003960
v 0.335765 0.342420 -0.003960
v 0.336543 0.329490 -0.003960
v 0.325735 0.322352 -0.003960
v 0.314149 0.328143 -0.003960
v 0.361600 -0.280580 -0.004280
v 0.360206 -0.275771 -0.032030
v 0.357687 -0.291674 -0.005229
v 0.357081 -0.308551 -0.032019
v 0.360797 -0.281448 -0.033052
v 0.374393 -0.299699 -0.003960
v 0.363585 -0.306837 -0.003960
v 0.351999 -0.301046 -0.003960
v 0.373615 -0.286769 -0.003960
v 0.362030 -0.280978 -0.003960
v 0.351221 -0.288117 -0.003960
v -0.357687 0.291674 -0.005229
v -0.360797 0.281448 -0.033052
v -0.357081 0.308551 -0.032019
v -0.360206 0.275771 -0.032030
v -0.361600 0.280580 -0.004280
v -0.374393 0.299699 -0.003960
v -0.363585 0.306837 -0.003960
v -0.351999 0.301046 -0.003960
v -0.373615 0.286769 -0.003960
v -0.362030 0.280978 -0.003960
v -0.351221 0.288117 -0.003960
v -0.249450 -0.407119 -0.702701
v -0.236923 -0.406365 -0.680597
v -0.237445 -0.397688 -0.680597
v -0.249972 -0.398442 -0.702701
v 0.017826 0.386423 -1.005443
v 0.007383 0.373141 -0.996232
v 0.016940 0.373529 -1.003860
v 0.007220 0.372957 -1.016066
v -0.002337 0.372570 -1.008438
v 0.005880 0.373842 -1.018383
v 0.007383 0.373141 -0.996232
v 0.013001 0.396882 -1.004194
v 0.062660 0.393812 -1.047532
v 0.058358 0.388534 -1.039991
v 0.061661 0.375520 -1.041188
v 0.069062 0.375825 -1.049546
v 0.063309 0.375487 -1.056772
v 0.053523 0.375041 -1.051408
v 0.061661 0.375520 -1.041188
v 0.069062 0.375825 -1.049546
v 0.053523 0.375041 -1.051408
v 0.063309 0.375487 -1.056772
v 0.051021 0.388103 -1.049204
v 0.059088 0.393602 -1.052017
v 0.005594 0.396446 -1.013496
v 0.009282 0.386224 -1.017345
v 0.007220 0.372957 -1.016066
v -0.002337 0.372570 -1.008438
v 0.065146 0.376620 -1.057326
v 0.068655 0.376148 -1.050153
v 0.002908 0.375700 -0.993337
v -0.004726 0.374191 -1.006036
v 0.210985 0.397843 -1.043098
v 0.208743 0.397581 -1.021456
v 0.236072 0.399693 -1.056203
v 0.254807 0.400982 -1.046501
v 0.232996 0.399208 -1.000224
v 0.214123 0.397914 -1.010976
v 0.258219 0.401066 -1.013066
v 0.261233 0.401380 -1.033985
v 0.051610 0.388426 -1.006326
v 0.058358 0.388534 -1.039991
v 0.061162 0.388776 -1.025178
v 0.031128 0.387431 -1.001200
v 0.018044 0.386739 -1.006341
v 0.016742 0.386374 -1.050115
v 0.037224 0.387368 -1.055241
v 0.051021 0.388103 -1.049204
v 0.007190 0.386023 -1.031263
v 0.009282 0.386224 -1.017345
v 0.210300 -0.057411 -0.587231
v 0.085112 -0.064942 -0.587231
v 0.085112 -0.064942 -0.667230
v 0.210300 -0.057411 -0.667230
v -0.164652 -0.131765 -1.159273
v -0.112892 -0.162705 -1.156536
v -0.110804 -0.197422 -1.159821
v -0.162575 -0.236708 -1.156536
v -0.195449 -0.225352 -1.159821
v -0.212836 -0.173157 -1.156536
v -0.204813 -0.160375 -1.159821
v -0.165904 -0.133693 -1.158178
v -0.183149 -0.140575 -1.156536
v -0.155916 -0.135404 -1.156536
v -0.204027 -0.158809 -1.156536
v -0.168998 -0.230812 -1.156536
v -0.200814 -0.212214 -1.156536
v -0.209671 -0.185948 -1.156536
v -0.120888 -0.207406 -1.156536
v -0.115243 -0.180267 -1.156536
v -0.124100 -0.154001 -1.156536
v -0.141765 -0.225641 -1.156536
v -0.174670 -0.136532 -1.159821
v -0.204027 -0.158809 -1.159821
v -0.138159 -0.141538 -1.159821
v -0.133350 -0.221465 -1.159821
v -0.186756 -0.224677 -1.159821
v -0.209033 -0.195320 -1.159821
v -0.159617 -0.230321 -1.159821
v -0.114753 -0.189649 -1.159821
v -0.119924 -0.162416 -1.159821
v 0.180372 -0.123503 -1.158263
v 0.140874 -0.157226 -1.155799
v 0.143919 -0.183584 -1.159084
v 0.177300 -0.200399 -1.155799
v 0.217770 -0.182888 -1.159084
v 0.220363 -0.177700 -1.155799
v 0.210078 -0.134821 -1.159084
v 0.182015 -0.119915 -1.156347
v 0.145259 -0.154580 -1.159084
v 0.151809 -0.182989 -1.159084
v 0.175366 -0.200167 -1.159084
v 0.203776 -0.193616 -1.159084
v 0.220953 -0.170059 -1.159084
v 0.208732 -0.133413 -1.159084
v 0.170885 -0.125674 -1.159084
v 0.203776 -0.193616 -1.155799
v 0.175366 -0.200167 -1.155799
v 0.154199 -0.136694 -1.155799
v 0.146460 -0.174540 -1.155799
v 0.220953 -0.170059 -1.155799
v 0.208732 -0.133413 -1.155799
v 0.180854 -0.124881 -1.155799
v 0.164394 0.130750 -1.157768
v 0.119096 0.159193 -1.159821
v 0.112013 0.193054 -1.156536
v 0.135989 0.229750 -1.159821
v 0.161983 0.232562 -1.156536
v 0.206407 0.205723 -1.157850
v 0.208802 0.165925 -1.158507
v 0.165839 0.133689 -1.158178
v 0.150180 0.229680 -1.156536
v 0.186691 0.224674 -1.156536
v 0.120823 0.207402 -1.156536
v 0.138094 0.141534 -1.156536
v 0.115817 0.170891 -1.156536
v 0.203962 0.158805 -1.156536
v 0.208968 0.195316 -1.156536
v 0.174605 0.136528 -1.156536
v 0.168933 0.230808 -1.159821
v 0.133286 0.221461 -1.159821
v 0.193769 0.218497 -1.159821
v 0.203962 0.158805 -1.159821
v 0.124035 0.153997 -1.159821
v 0.114688 0.189645 -1.159821
v 0.146949 0.138397 -1.159821
v 0.174605 0.136528 -1.159821
v 0.208968 0.195316 -1.159821
v 0.021991 -0.365560 -1.120626
v 0.021309 -0.354216 -1.118644
v 0.364058 -0.333597 -1.118644
v 0.375915 -0.340665 -1.126818
v 0.386545 -0.322271 -1.119618
v 0.390869 -0.341778 -0.032330
v 0.359080 0.362995 -0.030400
v 0.346929 0.365061 -0.337131
v 0.389289 -0.341338 -0.690146
v 0.350322 0.364916 -1.119642
v 0.391739 -0.343182 -1.119190
v 0.365770 0.363921 -0.030646
v 0.341815 0.363783 -0.317925
v 0.346207 0.364558 -0.372951
v 0.250026 0.361029 -0.396734
v 0.264146 0.361811 -0.430877
v 0.215943 0.358999 -0.382592
v 0.338465 0.364919 -0.033217
v 0.264193 0.361037 -0.801103
v -0.020653 0.343316 -0.033217
v -0.020736 0.344694 -0.382592
v 0.344424 0.367075 -0.922208
v -0.265980 -0.455806 -0.676046
v -0.146292 -0.448606 -0.676046
v -0.274777 -0.408963 -0.680861
v -0.143184 -0.401047 -0.679994
v -0.191208 -0.403615 -0.680597
v -0.181066 -0.403005 -0.680597
v -0.191730 -0.394938 -0.680597
v -0.226782 -0.405755 -0.680597
v -0.181588 -0.394328 -0.680597
v -0.236923 -0.406365 -0.680597
v -0.227304 -0.397078 -0.680597
v -0.237445 -0.397688 -0.680597
v -0.144264 -0.400791 -0.702701
v -0.168540 -0.402252 -0.702701
v -0.181066 -0.403005 -0.680597
v -0.144264 -0.400791 -0.680597
v -0.168540 -0.402252 -0.702701
v -0.169062 -0.393575 -0.702701
v -0.181588 -0.394328 -0.680597
v -0.181066 -0.403005 -0.680597
v -0.227304 -0.397078 -0.547926
v -0.226782 -0.405755 -0.547926
v -0.226782 -0.405755 -0.570030
v -0.227304 -0.397078 -0.570030
v -0.273726 -0.408579 -0.547926
v -0.249450 -0.407119 -0.547926
v -0.236923 -0.406365 -0.570030
v -0.273726 -0.408579 -0.570030
v -0.191730 -0.394938 -0.570030
v -0.181588 -0.394328 -0.570030
v -0.181066 -0.403005 -0.570030
v -0.191208 -0.403615 -0.570030
v -0.143174 -0.401046 -0.569766
v -0.226782 -0.405755 -0.570030
v -0.274767 -0.408963 -0.570633
v -0.265980 -0.455806 -0.574580
v -0.146292 -0.448606 -0.574580
v -0.236923 -0.406365 -0.570030
v -0.227304 -0.397078 -0.570030
v -0.237445 -0.397688 -0.570030
v -0.191730 -0.394938 -0.547926
v -0.191730 -0.394938 -0.570030
v -0.191208 -0.403615 -0.570030
v -0.191208 -0.403615 -0.547926
v -0.227304 -0.397078 -0.702701
v -0.227304 -0.397078 -0.680597
v -0.226782 -0.405755 -0.680597
v -0.226782 -0.405755 -0.702701
v -0.168540 -0.402252 -0.547926
v -0.181066 -0.403005 -0.570030
v -0.181588 -0.394328 -0.570030
v -0.169062 -0.393575 -0.547926
v -0.146292 -0.448606 -0.676046
v -0.146292 -0.448606 -0.574580
v -0.144808 -0.401506 -0.682189
v -0.145544 -0.401542 -0.568446
v -0.144786 -0.392114 -0.547926
v -0.144264 -0.400791 -0.547926
v -0.144786 -0.392114 -0.702701
v -0.144264 -0.400791 -0.702701
v -0.274248 -0.399902 -0.547926
v -0.249972 -0.398442 -0.547926
v -0.249450 -0.407119 -0.547926
v -0.273726 -0.408579 -0.547926
v -0.191730 -0.394938 -0.702701
v -0.227304 -0.397078 -0.702701
v -0.226782 -0.405755 -0.702701
v -0.191208 -0.403615 -0.702701
v -0.274248 -0.399902 -0.702701
v -0.273726 -0.408579 -0.702701
v -0.249450 -0.407119 -0.702701
v -0.249972 -0.398442 -0.702701
v -0.273726 -0.408579 -0.702701
v -0.273726 -0.408579 -0.680597
v -0.236923 -0.406365 -0.680597
v -0.249450 -0.407119 -0.702701
v -0.191730 -0.394938 -0.702701
v -0.191208 -0.403615 -0.702701
v -0.191208 -0.403615 -0.680597
v -0.191730 -0.394938 -0.680597
v -0.146292 -0.448606 -0.676046
v -0.265980 -0.455806 -0.676046
v -0.265980 -0.455806 -0.574580
v -0.146292 -0.448606 -0.574580
v -0.191208 -0.403615 -0.680597
v -0.191208 -0.403615 -0.702701
v -0.226782 -0.405755 -0.702701
v -0.226782 -0.405755 -0.680597
v -0.144786 -0.392114 -0.702701
v -0.169062 -0.393575 -0.702701
v -0.168540 -0.402252 -0.702701
v -0.144264 -0.400791 -0.702701
v -0.191730 -0.394938 -0.547926
v -0.191208 -0.403615 -0.547926
v -0.226782 -0.405755 -0.547926
v -0.227304 -0.397078 -0.547926
v -0.144264 -0.400791 -0.547926
v -0.144264 -0.400791 -0.570030
v -0.181066 -0.403005 -0.570030
v -0.168540 -0.402252 -0.547926
v -0.249450 -0.407119 -0.547926
v -0.249972 -0.398442 -0.547926
v -0.237445 -0.397688 -0.570030
v -0.236923 -0.406365 -0.570030
v -0.144786 -0.392114 -0.547926
v -0.144264 -0.400791 -0.547926
v -0.168540 -0.402252 -0.547926
v -0.169062 -0.393575 -0.547926
v -0.191208 -0.403615 -0.547926
v -0.191208 -0.403615 -0.570030
v -0.226782 -0.405755 -0.570030
v -0.226782 -0.405755 -0.547926
v -0.274248 -0.399902 -0.702701
v -0.272365 -0.409171 -0.682181
v -0.273726 -0.408579 -0.702701
v -0.273099 -0.409224 -0.568438
v -0.274248 -0.399902 -0.547926
v -0.273726 -0.408579 -0.547926
v -0.265980 -0.455806 -0.676046
v -0.265980 -0.455806 -0.574580
v -0.223910 -0.367454 -0.723337
v -0.222909 -0.379142 -0.723616
v -0.224602 -0.379243 -0.910001
v -0.224679 -0.367500 -0.910630
v -0.047930 -0.368615 -0.910630
v -0.048007 -0.356872 -0.910001
v -0.048699 -0.368662 -0.723337
v -0.049700 -0.356974 -0.723616
v -0.224323 -0.379227 -0.724900
v -0.047581 -0.368594 -0.724900
v -0.047581 -0.368594 -0.910350
v -0.224323 -0.379227 -0.910350
v 0.219654 -0.187565 -1.190390
v 0.212722 -0.195383 -1.190390
v 0.357160 -0.303495 -1.187801
v 0.344208 -0.317909 -1.190390
v 0.373106 -0.322151 -1.188251
v 0.351529 -0.334944 -1.186985
v 0.353767 0.021282 -1.190390
v 0.338592 -0.000417 -1.190390
v 0.040258 -0.336955 -1.189591
v 0.021276 -0.353668 -1.190390
v 0.325568 0.011122 -1.190390
v 0.216442 -0.132239 -1.190390
v 0.209413 -0.126011 -1.190390
v 0.324554 0.027988 -1.190390
v 0.021218 -0.007187 -1.190390
v 0.027982 -0.324457 -1.190390
v 0.150165 -0.192667 -1.190390
v 0.157191 -0.198895 -1.190390
v 0.011116 -0.325471 -1.190390
v 0.009679 -0.020204 -1.190390
v -0.000039 -0.338861 -1.189514
v -0.307363 -0.372517 -1.194949
v 0.020204 0.009679 -1.190390
v 0.153008 -0.129371 -1.190390
v 0.146780 -0.136396 -1.190390
v -0.125985 -0.209279 -1.190390
v -0.007187 -0.021218 -1.190390
v -0.020204 -0.009679 -1.190390
v -0.132214 -0.216305 -1.190390
v -0.300165 -0.355305 -1.196654
v -0.327145 -0.363914 -1.194689
v -0.314652 -0.342463 -1.196654
v -0.187765 -0.219475 -1.190390
v -0.195584 -0.212544 -1.190390
v -0.334383 -0.042642 -1.189396
v -0.353767 -0.021282 -1.190390
v -0.324554 -0.027988 -1.190390
v -0.199028 -0.157232 -1.190390
v -0.192797 -0.150207 -1.190390
v -0.325568 -0.011122 -1.190390
v -0.136396 -0.146780 -1.190390
v -0.129371 -0.153008 -1.190390
v -0.337083 0.002249 -1.189396
v -0.368412 0.322072 -1.194689
v -0.216442 0.132239 -1.190390
v -0.353437 0.302273 -1.196654
v -0.209413 0.126011 -1.190390
v -0.021218 0.007187 -1.190390
v -0.340594 0.316759 -1.196654
v -0.349804 0.332984 -1.194949
v -0.212722 0.195383 -1.190390
v -0.219654 0.187565 -1.190390
v -0.040662 0.336412 -1.189514
v -0.021276 0.353668 -1.190390
v -0.153008 0.129371 -1.190390
v -0.009679 0.020204 -1.190390
v -0.146780 0.136396 -1.190390
v 0.007187 0.021218 -1.190390
v -0.027982 0.324457 -1.190390
v -0.150165 0.192667 -1.190390
v -0.157191 0.198895 -1.190390
v -0.011116 0.325471 -1.190390
v -0.000426 0.339351 -1.189591
v 0.308841 0.374670 -1.186985
v 0.125985 0.209279 -1.190390
v 0.132213 0.216305 -1.190390
v 0.303615 0.356880 -1.190390
v 0.331796 0.364556 -1.188259
v 0.318200 0.344122 -1.187811
v 0.187765 0.219475 -1.190390
v 0.195584 0.212544 -1.190390
v 0.336100 0.041005 -1.190390
v 0.136396 0.146780 -1.190390
v 0.199028 0.157232 -1.190390
v 0.192797 0.150207 -1.190390
v 0.129371 0.153008 -1.190390
v -0.212722 0.195383 -1.190390
v -0.212722 0.195383 -1.176190
v -0.340594 0.316759 -1.182454
v -0.340594 0.316759 -1.196654
v -0.216442 0.132239 -1.176190
v -0.209413 0.126011 -1.176190
v -0.325568 -0.011122 -1.176190
v -0.337083 0.002249 -1.175338
v -0.324554 -0.027988 -1.176190
v -0.179682 -0.002346 -1.176190
v -0.178667 -0.019211 -1.176190
v -0.353767 -0.021282 -1.176190
v -0.334383 -0.042642 -1.175338
v -0.199028 -0.157232 -1.176190
v -0.192797 -0.150207 -1.176190
v -0.368548 0.321189 -1.176823
v -0.327386 -0.363054 -1.176823
v -0.355512 0.307249 -1.182458
v -0.316115 -0.347652 -1.182458
v -0.362454 0.315859 -1.182154
v -0.354477 0.324531 -1.183515
v -0.348759 0.333079 -1.180496
v -0.345489 0.317655 -1.181921
v -0.212722 0.195383 -1.176190
v -0.219654 0.187565 -1.176190
v -0.040999 0.335997 -1.176190
v -0.021276 0.353668 -1.176190
v -0.027982 0.324457 -1.176190
v -0.150165 0.192667 -1.176190
v -0.157191 0.198895 -1.176190
v -0.011116 0.325471 -1.176190
v -0.009679 0.020204 -1.176190
v -0.000426 0.339351 -1.175391
v 0.308809 0.374683 -1.173648
v 0.007187 0.021218 -1.176190
v 0.125985 0.209279 -1.176190
v 0.250081 0.360116 -0.835134
v 0.216003 0.358035 -0.849005
v -0.020681 0.343782 -0.924439
v -0.020681 0.343790 -0.847122
v -0.326266 -0.396404 -1.153134
v -0.328733 -0.401786 -1.120525
v -0.384380 0.338569 -1.153134
v -0.384240 0.337314 -1.120626
v 0.322206 0.386266 -1.120626
v 0.322206 0.386266 -1.153134
v -0.020736 0.344694 -0.382592
v -0.019799 0.329128 -0.382592
v 0.250714 0.361081 -0.391370
v 0.256315 0.345789 -0.396042
v 0.255419 0.360434 -0.835858
v 0.251696 0.344580 -0.840488
v -0.020681 0.343790 -0.847122
v -0.019745 0.328223 -0.847122
v 0.340702 0.341886 -0.924439
v 0.340482 0.365509 -0.924439
v 0.330170 0.360386 -0.924439
v -0.381844 0.322056 -0.924439
v -0.372067 0.316846 -0.924439
v -0.379230 0.298577 -0.924439
v 0.390222 -0.332439 -1.099494
v 0.368276 -0.333760 -1.117733
v 0.378384 -0.190561 -1.120273
v 0.342015 0.282753 -1.118185
v 0.330650 0.381458 -1.117454
v 0.331640 0.381294 -1.064718
v 0.344583 0.282937 -0.924439
v 0.330751 0.360199 -0.924540
v 0.329661 0.384700 -0.960936
v -0.374598 0.338082 -1.117634
v -0.377060 0.340600 -0.960925
v -0.370229 0.316861 -0.924847
v -0.373291 0.239747 -1.118125
v -0.376016 0.239588 -0.924439
v 0.365929 -0.344901 -1.118286
v 0.398158 -0.342599 -1.118877
v 0.364058 -0.333597 -1.118644
v 0.391993 -0.332269 -1.119365
v 0.370735 -0.074579 -1.118099
v 0.353012 0.365009 -1.123077
v 0.346140 0.364777 -1.123245
v 0.350010 0.283264 -1.120626
v 0.340800 0.282710 -1.117701
v 0.340534 0.373729 -1.126491
v 0.330493 0.376805 -1.123038
v 0.322206 0.386266 -1.120626
v -0.378632 0.337797 -1.124041
v -0.373575 0.332352 -1.123858
v -0.386442 0.322008 -1.120626
v -0.372233 0.239816 -1.117701
v -0.381443 0.239262 -1.120626
v 0.341888 0.282775 -1.117328
v 0.347868 0.283135 -1.119795
v 0.343639 0.353183 -0.918710
v 0.349338 0.355057 -1.119245
v 0.353349 -0.334302 -0.033261
v 0.358409 -0.345019 -0.031622
v 0.351421 -0.343001 -0.349919
v 0.355017 -0.334261 -1.119010
v 0.364197 -0.344632 -1.118360
v -0.019747 0.328250 -0.824000
v 0.227920 0.343180 -0.815227
v 0.004211 -0.070002 -0.824000
v 0.256558 -0.054822 -0.810551
v 0.233440 0.344771 -0.424841
v 0.252825 -0.055047 -0.420173
v -0.019826 0.329578 -0.411390
v 0.004211 -0.070002 -0.411390
v 0.193127 0.341056 -0.824000
v -0.019747 0.328250 -0.824000
v -0.019745 0.328223 -0.847122
v 0.216939 0.342469 -0.849005
v 0.227240 0.343154 -0.809858
v 0.251017 0.344549 -0.835134
v 0.241434 0.344120 -0.775715
v 0.265129 0.345470 -0.801103
v 0.242132 0.345178 -0.459675
v 0.265083 0.346244 -0.430877
v 0.228092 0.344445 -0.425532
v 0.250962 0.345463 -0.396734
v 0.194043 0.342444 -0.411390
v 0.216880 0.343432 -0.382592
v -0.019826 0.329578 -0.411390
v -0.019799 0.329128 -0.382592
v -0.391541 0.320287 -1.119642
v -0.347773 -0.387668 -1.119190
v -0.345562 -0.385544 -0.690139
v -0.388191 0.320839 -0.337138
v -0.347078 -0.386170 -0.032330
v -0.400006 0.317330 -0.030399
v -0.310542 -0.386987 -0.814460
v -0.321944 -0.386282 -1.118286
v -0.354216 -0.387860 -1.118877
v -0.346398 -0.384453 -0.850839
v -0.312505 -0.383740 -0.031864
v -0.345037 -0.386402 -0.032322
v -0.354216 -0.387860 -1.118877
v -0.321944 -0.386282 -1.118286
v -0.321441 -0.374834 -1.118644
v -0.349334 -0.376865 -1.119365
v -0.359120 -0.118487 -1.118099
v -0.394223 0.320057 -1.123077
v -0.387373 0.320651 -1.123245
v -0.312385 -0.374410 -1.119010
v -0.320256 -0.385807 -1.118360
v -0.307768 -0.382656 -0.349921
v -0.310724 -0.374250 -0.033261
v -0.314463 -0.385497 -0.031622
v -0.383500 0.309441 -0.918710
v -0.389383 0.310618 -1.119245
v 0.337714 -0.364638 -0.723992
v -0.291566 -0.402493 -0.723992
v -0.291566 -0.402493 -0.183444
v 0.337714 -0.364638 -0.183445
v -0.293331 -0.373143 -0.183444
v -0.291566 -0.402493 -0.183444
v -0.291566 -0.402493 -0.723992
v -0.293331 -0.373143 -0.723992
v 0.021309 -0.354216 -0.033279
v 0.021309 -0.354216 -0.183444
v -0.311209 -0.374219 -0.033394
v 0.132213 0.216305 -1.176190
v 0.307459 0.358138 -1.175882
v 0.318525 0.347595 -1.174399
v 0.187765 0.219475 -1.176190
v 0.195584 0.212544 -1.176190
v 0.316420 0.366523 -1.176190
v 0.331802 0.364551 -1.174458
v 0.326142 0.357905 -1.176190
v 0.353767 0.021282 -1.176190
v 0.336100 0.041005 -1.176190
v 0.324554 0.027988 -1.176190
v 0.199028 0.157232 -1.176190
v 0.192797 0.150207 -1.176190
v 0.178667 0.019211 -1.176190
v 0.179682 0.002346 -1.176190
v 0.325568 0.011122 -1.176190
v 0.338592 -0.000417 -1.176190
v 0.357898 -0.306903 -1.174393
v 0.373111 -0.322146 -1.174452
v 0.216442 -0.132239 -1.176190
v 0.209413 -0.126011 -1.176190
v 0.366696 -0.316226 -1.176190
v 0.348175 -0.318697 -1.175882
v 0.358076 -0.325947 -1.176190
v 0.351499 -0.334961 -1.173648
v 0.212722 -0.195383 -1.176190
v 0.219654 -0.187565 -1.176190
v 0.040258 -0.336955 -1.175391
v 0.021276 -0.353668 -1.176190
v 0.027982 -0.324457 -1.176190
v 0.150165 -0.192667 -1.176190
v 0.157191 -0.198895 -1.176190
v 0.011116 -0.325471 -1.176190
v -0.000424 -0.338488 -1.176190
v -0.306314 -0.372486 -1.180496
v -0.007187 -0.021218 -1.176190
v 0.009679 -0.020204 -1.176190
v -0.125985 -0.209279 -1.176190
v -0.132214 -0.216305 -1.176190
v -0.304917 -0.356781 -1.181921
v -0.313016 -0.364685 -1.183515
v -0.321974 -0.357032 -1.182154
v -0.187765 -0.219475 -1.176190
v -0.195584 -0.212544 -1.176190
v 0.125985 0.209279 -1.176190
v 0.125985 0.209279 -1.190390
v -0.011116 0.325471 -1.190390
v -0.011116 0.325471 -1.176190
v -0.153008 0.129371 -1.176190
v -0.146780 0.136396 -1.176190
v -0.021218 0.007187 -1.176190
v -0.020204 -0.009679 -1.176190
v -0.167679 -0.001624 -1.176190
v -0.166664 -0.018489 -1.176190
v 0.020204 0.009679 -1.176190
v -0.136396 -0.146780 -1.176190
v -0.129371 -0.153008 -1.176190
v 0.021218 -0.007187 -1.176190
v 0.167679 0.001624 -1.176190
v 0.136396 0.146780 -1.176190
v 0.129371 0.153008 -1.176190
v 0.166664 0.018489 -1.176190
v 0.153008 -0.129371 -1.176190
v 0.146780 -0.136396 -1.176190
v 0.358076 -0.325947 -1.176190
v 0.358072 -0.325599 -1.153963
v 0.365582 -0.316545 -1.154369
v 0.366696 -0.316226 -1.176190
v -0.125985 -0.209279 -1.190390
v -0.125985 -0.209279 -1.176190
v -0.132214 -0.216305 -1.176190
v -0.132214 -0.216305 -1.190390
v -0.165548 -0.019942 -1.129157
v -0.166745 -0.000048 -1.129157
v -0.167679 -0.001624 -1.176190
v -0.166664 -0.018489 -1.176190
v -0.353437 0.302273 -1.182454
v -0.219654 0.187565 -1.176190
v -0.219654 0.187565 -1.190390
v -0.353437 0.302273 -1.196654
v 0.129371 0.153008 -1.176190
v 0.007187 0.021218 -1.176190
v 0.007187 0.021218 -1.190390
v 0.129371 0.153008 -1.190390
v 0.146780 -0.136396 -1.176190
v 0.146780 -0.136396 -1.190390
v 0.009679 -0.020204 -1.190390
v 0.009679 -0.020204 -1.176190
v -0.314652 -0.342463 -1.182454
v -0.334332 -0.041019 -1.174161
v -0.314652 -0.342463 -1.196654
v -0.335054 -0.041081 -1.188361
v -0.125985 -0.209279 -1.176190
v -0.125985 -0.209279 -1.190390
v 0.011116 -0.325471 -1.190390
v 0.011116 -0.325471 -1.176190
v 0.027982 -0.324457 -1.190390
v 0.027982 -0.324457 -1.176190
v 0.009679 -0.020204 -1.176190
v 0.009679 -0.020204 -1.190390
v -0.157191 0.198895 -1.176190
v -0.157191 0.198895 -1.190390
v -0.040999 0.335997 -1.190390
v -0.040999 0.335997 -1.176190
v -0.336838 0.000644 -1.174161
v -0.353437 0.302273 -1.182454
v -0.353437 0.302273 -1.196654
v -0.337563 0.000619 -1.188361
v 0.192797 0.150207 -1.190390
v 0.192797 0.150207 -1.176190
v 0.324554 0.027988 -1.176190
v 0.324554 0.027988 -1.190390
v 0.350932 -0.318219 -1.154188
v 0.358243 -0.309718 -1.154476
v 0.365582 -0.316545 -1.154369
v 0.358072 -0.325599 -1.153963
v 0.140774 0.348519 -1.172293
v 0.303615 0.356880 -1.176190
v 0.303615 0.356880 -1.190390
v 0.140774 0.348519 -1.186493
v 0.000424 0.338488 -1.176190
v 0.000424 0.338488 -1.190390
v 0.167679 0.001624 -1.176190
v 0.166745 0.000048 -1.129157
v 0.165548 0.019942 -1.129157
v 0.166664 0.018489 -1.176190
v 0.344208 -0.317909 -1.176190
v 0.181539 -0.329130 -1.172293
v 0.344208 -0.317909 -1.190390
v 0.181539 -0.329130 -1.186493
v 0.040999 -0.335997 -1.176190
v 0.040999 -0.335997 -1.190390
v 0.219654 -0.187565 -1.190390
v 0.219654 -0.187565 -1.176190
v 0.212722 -0.195383 -1.176190
v 0.212722 -0.195383 -1.190390
v 0.180797 0.000893 -1.129157
v 0.179601 0.020787 -1.129157
v 0.179682 0.002346 -1.176190
v 0.178667 0.019211 -1.176190
v -0.209413 0.126011 -1.176190
v -0.216442 0.132239 -1.176190
v -0.216442 0.132239 -1.190390
v -0.209413 0.126011 -1.190390
v 0.349657 -0.318188 -1.175956
v 0.358096 -0.308489 -1.176050
v 0.358243 -0.309718 -1.154476
v 0.350932 -0.318219 -1.154188
v -0.150165 0.192667 -1.176190
v -0.027982 0.324457 -1.176190
v -0.027982 0.324457 -1.190390
v -0.150165 0.192667 -1.190390
v -0.315727 -0.349750 -1.161001
v -0.316052 -0.349486 -1.182564
v -0.306895 -0.357447 -1.182605
v -0.307672 -0.357493 -1.161213
v 0.195584 0.212544 -1.190390
v 0.187765 0.219475 -1.190390
v 0.187765 0.219475 -1.176190
v 0.195584 0.212544 -1.176190
v -0.314145 -0.364504 -1.161141
v -0.313016 -0.364685 -1.183515
v -0.321974 -0.357032 -1.182154
v -0.322779 -0.357064 -1.161787
v -0.150165 0.192667 -1.190390
v -0.157191 0.198895 -1.190390
v -0.157191 0.198895 -1.176190
v -0.150165 0.192667 -1.176190
v -0.209413 0.126011 -1.176190
v -0.209413 0.126011 -1.190390
v -0.325568 -0.011122 -1.190390
v -0.325568 -0.011122 -1.176190
v -0.153008 0.129371 -1.176190
v -0.021218 0.007187 -1.176190
v -0.021218 0.007187 -1.190390
v -0.153008 0.129371 -1.190390
v -0.179708 -0.020794 -1.128779
v -0.165420 -0.020286 -1.128891
v -0.166664 -0.018489 -1.176190
v -0.178667 -0.019211 -1.176190
v -0.324554 -0.027988 -1.190390
v -0.324554 -0.027988 -1.176190
v -0.020204 -0.009679 -1.190390
v -0.020204 -0.009679 -1.176190
v 0.358072 -0.325599 -1.153963
v 0.358076 -0.325947 -1.176190
v 0.349657 -0.318188 -1.175956
v 0.350932 -0.318219 -1.154188
v -0.000566 -0.338947 -1.174143
v -0.000577 -0.338762 -1.188343
v -0.300165 -0.355305 -1.196654
v -0.300165 -0.355305 -1.182454
v 0.146780 -0.136396 -1.190390
v 0.146780 -0.136396 -1.176190
v 0.153008 -0.129371 -1.176190
v 0.153008 -0.129371 -1.190390
v 0.000424 0.338488 -1.176190
v 0.000424 0.338488 -1.190390
v 0.132213 0.216305 -1.190390
v 0.132213 0.216305 -1.176190
v 0.336100 0.041005 -1.176190
v 0.336100 0.041005 -1.190390
v 0.324945 0.228379 -1.169181
v 0.324945 0.228379 -1.183381
v 0.318102 0.344038 -1.190390
v 0.318102 0.344038 -1.176190
v 0.129371 0.153008 -1.190390
v 0.136396 0.146780 -1.190390
v 0.136396 0.146780 -1.176190
v 0.129371 0.153008 -1.176190
v 0.150165 -0.192667 -1.176190
v 0.150165 -0.192667 -1.190390
v 0.157191 -0.198895 -1.190390
v 0.157191 -0.198895 -1.176190
v -0.219654 0.187565 -1.190390
v -0.219654 0.187565 -1.176190
v -0.212722 0.195383 -1.176190
v -0.212722 0.195383 -1.190390
v 0.125985 0.209279 -1.176190
v 0.132213 0.216305 -1.176190
v 0.132213 0.216305 -1.190390
v 0.125985 0.209279 -1.190390
v -0.011116 0.325471 -1.190390
v 0.007187 0.021218 -1.190390
v 0.007187 0.021218 -1.176190
v -0.011116 0.325471 -1.176190
v 0.187765 0.219475 -1.176190
v 0.187765 0.219475 -1.190390
v 0.303615 0.356880 -1.190390
v 0.303615 0.356880 -1.176190
v 0.365582 -0.316545 -1.154369
v 0.358243 -0.309718 -1.154476
v 0.358096 -0.308489 -1.176050
v 0.366696 -0.316226 -1.176190
v 0.216442 -0.132239 -1.176190
v 0.338592 -0.000417 -1.176190
v 0.338592 -0.000417 -1.190390
v 0.216442 -0.132239 -1.190390
v 0.318102 0.344038 -1.190390
v 0.195584 0.212544 -1.190390
v 0.195584 0.212544 -1.176190
v 0.318102 0.344038 -1.176190
v 0.136396 0.146780 -1.190390
v 0.020204 0.009679 -1.190390
v 0.020204 0.009679 -1.176190
v 0.136396 0.146780 -1.176190
v -0.007187 -0.021218 -1.176190
v -0.007187 -0.021218 -1.190390
v -0.129371 -0.153008 -1.190390
v -0.129371 -0.153008 -1.176190
v -0.027982 0.324457 -1.176190
v -0.009679 0.020204 -1.176190
v -0.009679 0.020204 -1.190390
v -0.027982 0.324457 -1.190390
v -0.322779 -0.357064 -1.161787
v -0.321974 -0.357032 -1.182154
v -0.316052 -0.349486 -1.182564
v -0.315727 -0.349750 -1.161001
v -0.129371 -0.153008 -1.190390
v -0.136396 -0.146780 -1.190390
v -0.136396 -0.146780 -1.176190
v -0.129371 -0.153008 -1.176190
v -0.340594 0.316759 -1.182454
v -0.041195 0.336435 -1.174143
v -0.340594 0.316759 -1.196654
v -0.041184 0.336250 -1.188343
v -0.146780 0.136396 -1.190390
v -0.146780 0.136396 -1.176190
v -0.153008 0.129371 -1.176190
v -0.153008 0.129371 -1.190390
v -0.307672 -0.357493 -1.161213
v -0.306895 -0.357447 -1.182605
v -0.313016 -0.364685 -1.183515
v -0.314145 -0.364504 -1.161141
v -0.307672 -0.357493 -1.161213
v -0.314145 -0.364504 -1.161141
v -0.322779 -0.357064 -1.161787
v -0.315727 -0.349750 -1.161001
v -0.195584 -0.212544 -1.190390
v -0.187765 -0.219475 -1.190390
v -0.187765 -0.219475 -1.176190
v -0.195584 -0.212544 -1.176190
v 0.199028 0.157232 -1.176190
v 0.199028 0.157232 -1.190390
v 0.336100 0.041005 -1.190390
v 0.336100 0.041005 -1.176190
v 0.153008 -0.129371 -1.190390
v 0.153008 -0.129371 -1.176190
v 0.021218 -0.007187 -1.176190
v 0.021218 -0.007187 -1.190390
v 0.209413 -0.126011 -1.176190
v 0.216442 -0.132239 -1.176190
v 0.216442 -0.132239 -1.190390
v 0.209413 -0.126011 -1.190390
v 0.192797 0.150207 -1.176190
v 0.192797 0.150207 -1.190390
v 0.199028 0.157232 -1.190390
v 0.199028 0.157232 -1.176190
v -0.216442 0.132239 -1.176190
v -0.338592 0.000417 -1.176190
v -0.338592 0.000417 -1.190390
v -0.216442 0.132239 -1.190390
v 0.349980 -0.187791 -1.169155
v 0.357051 -0.303423 -1.176190
v 0.357051 -0.303423 -1.190390
v 0.349980 -0.187791 -1.183355
v 0.338592 -0.000417 -1.190390
v 0.338592 -0.000417 -1.176190
v -0.180797 -0.000893 -1.129157
v -0.179682 -0.002346 -1.176190
v -0.179601 -0.020787 -1.129157
v -0.178667 -0.019211 -1.176190
v 0.040999 -0.335997 -1.176190
v 0.157191 -0.198895 -1.176190
v 0.157191 -0.198895 -1.190390
v 0.040999 -0.335997 -1.190390
v -0.199028 -0.157232 -1.176190
v -0.199028 -0.157232 -1.190390
v -0.336100 -0.041005 -1.190390
v -0.336100 -0.041005 -1.176190
v -0.293331 -0.373143 -0.183444
v -0.293331 -0.373143 -0.723992
v -0.309726 -0.374130 -0.795983
v 0.021309 -0.354216 -0.723992
v 0.021309 -0.354216 -1.118644
v -0.321441 -0.374834 -1.118644
v 0.335948 -0.335288 -0.183445
v 0.337714 -0.364638 -0.183445
v -0.291566 -0.402493 -0.183444
v -0.293331 -0.373143 -0.183444
v 0.345053 0.366012 -1.153134
v 0.334503 0.384055 -1.153134
v 0.314549 0.334411 -1.153134
v 0.352192 -0.294302 -1.153134
v 0.384051 -0.334318 -1.153134
v 0.294478 0.352203 -1.153134
v -0.378131 0.341185 -1.153134
v -0.334576 0.314361 -1.153134
v -0.352370 0.294291 -1.153134
v 0.366010 -0.344865 -1.153134
v 0.334398 -0.314371 -1.153134
v -0.294300 -0.352192 -1.153134
v -0.322029 -0.386256 -1.153134
v -0.314371 -0.334400 -1.153134
v -0.386442 0.322008 -1.153134
v -0.341203 -0.377947 -1.153134
v -0.401802 0.316708 -0.030283
v -0.408208 0.316365 -0.030772
v -0.382960 0.320183 -0.317925
v -0.387414 0.320425 -0.372952
v -0.291503 0.328452 -0.396734
v -0.305616 0.327536 -0.430877
v -0.257423 0.330523 -0.382592
v -0.379770 0.321712 -0.033217
v -0.305569 0.326762 -0.801103
v -0.020653 0.343316 -0.033217
v -0.020736 0.344694 -0.382592
v -0.385945 0.323138 -0.922208
v -0.291448 0.327539 -0.835134
v -0.257366 0.329559 -0.849005
v -0.020681 0.343782 -0.924439
v -0.020681 0.343790 -0.847122
v -0.019799 0.329128 -0.382592
v -0.020736 0.344694 -0.382592
v -0.292192 0.328422 -0.391370
v -0.295920 0.312568 -0.396042
v -0.296786 0.327215 -0.835858
v -0.291190 0.311922 -0.840488
v -0.020681 0.343790 -0.847122
v -0.019745 0.328223 -0.847122
v 0.391993 -0.332269 -1.119365
v 0.390222 -0.332439 -1.099494
v 0.364058 -0.333597 -1.118644
v 0.363946 0.362538 -0.035273
v 0.363887 0.093994 -0.031775
v 0.357591 0.133302 -0.030943
v -0.020653 0.343316 -0.033217
v 0.338465 0.364919 -0.033217
v 0.021309 -0.354216 -0.033279
v 0.352935 -0.334266 -0.033279
v 0.388703 -0.341931 -0.032318
v 0.355771 -0.344725 -0.031745
v 0.335948 -0.335288 -0.183445
v 0.335948 -0.335288 -0.723992
v 0.337714 -0.364638 -0.723992
v 0.337714 -0.364638 -0.183445
v 0.338465 0.364919 -0.033217
v 0.338465 0.364919 -0.317875
v 0.351169 0.133237 -0.317875
v 0.357591 0.133302 -0.030943
v -0.019826 0.329578 -0.411390
v -0.019799 0.329128 -0.382592
v -0.256486 0.314956 -0.382592
v -0.233696 0.316712 -0.411390
v -0.290566 0.312886 -0.396734
v -0.267739 0.314618 -0.425532
v -0.304679 0.311969 -0.430877
v -0.281765 0.313662 -0.459675
v -0.304633 0.311195 -0.801103
v -0.280946 0.312696 -0.775715
v -0.290512 0.311973 -0.835134
v -0.266738 0.313438 -0.809858
v -0.256430 0.313992 -0.849005
v -0.232620 0.315444 -0.824000
v -0.019745 0.328223 -0.847122
v -0.019747 0.328250 -0.824000
v 0.021309 -0.354216 -0.183444
v 0.021309 -0.354216 -0.033279
v 0.353826 -0.334212 -0.033394
v 0.335948 -0.335288 -0.183445
v 0.335948 -0.335288 -0.723992
v 0.352343 -0.334302 -0.795978
v 0.021309 -0.354216 -0.723992
v 0.021309 -0.354216 -1.118644
v 0.364058 -0.333597 -1.118644
v 0.004211 -0.070002 -0.411390
v -0.019826 0.329578 -0.411390
v -0.244403 -0.084958 -0.420173
v -0.273087 0.314300 -0.424841
v -0.248136 -0.085183 -0.810552
v -0.267417 0.313382 -0.815227
v 0.004211 -0.070002 -0.824000
v -0.019747 0.328250 -0.824000
v 0.346634 0.364755 -1.119338
v 0.340482 0.365509 -0.924439
v 0.344583 0.282937 -0.924439
v 0.350010 0.283264 -1.120626
v -0.370992 0.089472 -0.030943
v -0.402092 0.317327 -0.030315
v -0.384454 0.321482 -0.317868
v -0.364609 0.090178 -0.317874
v -0.404783 0.316294 -0.035273
v -0.372531 0.049694 -0.031775
v -0.370992 0.089472 -0.030943
v -0.020653 0.343316 -0.033217
v -0.379770 0.321712 -0.033217
v 0.021309 -0.354216 -0.033279
v -0.310318 -0.374165 -0.033279
v -0.344909 -0.386063 -0.032318
v -0.311879 -0.384889 -0.031745
v -0.387861 0.320570 -1.119338
v -0.381443 0.239262 -1.120626
v -0.376016 0.239588 -0.924439
v -0.381844 0.322056 -0.924439
v -0.379301 0.239391 -1.119795
v -0.373321 0.239751 -1.117328
v 0.356254 -0.343510 -0.031864
v 0.388871 -0.342253 -0.032322
v 0.389988 -0.340155 -0.850839
v 0.354695 -0.346969 -0.814459
v 0.398158 -0.342599 -1.118877
v 0.365929 -0.344901 -1.118286
v 0.378384 -0.190561 -1.120273
v 0.390222 -0.332439 -1.099494
v 0.391993 -0.332269 -1.119365
v -0.379770 0.321712 -0.033217
v -0.370992 0.089472 -0.030943
v -0.364609 0.090178 -0.317874
v -0.379770 0.321712 -0.317874
v 0.326444 0.396413 -1.153134
v 0.325928 0.395283 -1.120626
v 0.385839 -0.336148 -1.120531
v 0.384196 -0.338584 -1.153134
v -0.322029 -0.386256 -1.120626
v -0.322029 -0.386256 -1.153134
v 0.021309 -0.354216 -1.118644
v 0.021991 -0.365560 -1.120626
v -0.321441 -0.374834 -1.118644
v -0.332365 -0.383273 -1.126818
v -0.345123 -0.366286 -1.119618
v -0.347555 -0.376821 -1.099494
v -0.352811 -0.234547 -1.120273
v -0.349334 -0.376865 -1.119365
v -0.347555 -0.376821 -1.099494
v -0.349334 -0.376865 -1.119365
v -0.321441 -0.374834 -1.118644
v -0.347555 -0.376821 -1.099494
v -0.325609 -0.375502 -1.117733
v -0.352811 -0.234547 -1.120273
v 0.361151 0.363242 -0.030315
v 0.357591 0.133302 -0.030943
v 0.343143 0.365252 -0.317868
v 0.351169 0.133237 -0.317875
v 0.266160 -0.054244 -0.459675
v 0.252127 -0.055089 -0.425532
v 0.218080 -0.057137 -0.411390
v 0.004211 -0.070002 -0.411390
v 0.265401 -0.054290 -0.775715
v 0.004211 -0.070002 -0.824000
v 0.217084 -0.057197 -0.824000
v 0.251200 -0.055144 -0.809858
v -0.208662 -0.082808 -0.824000
v -0.256979 -0.085715 -0.775715
v -0.242778 -0.084861 -0.809858
v 0.004211 -0.070002 -0.824000
v 0.004211 -0.070002 -0.411390
v -0.257737 -0.085760 -0.459675
v -0.209658 -0.082868 -0.411390
v -0.243704 -0.084916 -0.425532
v 0.335948 -0.335288 -0.723992
v 0.337714 -0.364638 -0.723992
v -0.291566 -0.402493 -0.723992
v -0.293331 -0.373143 -0.723992
v -0.382196 0.321541 -0.317874
v -0.364609 0.090178 -0.317874
v 0.340893 0.365040 -0.317875
v 0.351169 0.133237 -0.317875
v 0.320890 0.381324 -0.037478
v 0.322433 0.363257 -0.036683
v 0.329575 0.381847 -0.141186
v 0.323345 0.363269 -0.310410
v 0.311260 0.399525 -0.218594
v 0.328180 0.399268 -0.152337
v 0.319895 0.398843 -0.309783
v 0.127090 0.382087 -0.298807
v 0.136639 0.352080 -0.307432
v -0.383337 0.356442 -0.289177
v -0.383146 0.320811 -0.287160
v -0.382424 0.356521 -0.130266
v -0.381029 0.339099 -0.119114
v -0.365264 0.321887 -0.015323
v -0.365948 0.340006 -0.016145
v 0.318871 0.381203 -0.041472
v 0.319960 0.363108 -0.041472
v -0.363092 0.322018 -0.020256
v -0.364180 0.340112 -0.020256
v 0.329575 0.381847 -0.141186
v -0.380945 0.338165 -0.121380
v 0.328180 0.399268 -0.152337
v -0.252103 0.362265 -0.143105
v -0.382424 0.356521 -0.130266
v 0.314718 0.399926 -0.217959
v 0.328180 0.399268 -0.152337
v 0.129587 0.381420 -0.296198
v -0.254170 0.360046 -0.138768
v 0.166658 -0.000310 -1.128891
v 0.180905 0.000900 -1.128779
v 0.167679 0.001624 -1.176190
v 0.179682 0.002346 -1.176190
v 0.325568 0.011122 -1.190390
v 0.325568 0.011122 -1.176190
v 0.021218 -0.007187 -1.190390
v 0.021218 -0.007187 -1.176190
v -0.166659 0.000310 -1.128891
v -0.180905 -0.000900 -1.128779
v -0.167679 -0.001624 -1.176190
v -0.179682 -0.002346 -1.176190
v -0.325568 -0.011122 -1.190390
v -0.325568 -0.011122 -1.176190
v -0.021218 0.007187 -1.190390
v -0.021218 0.007187 -1.176190
v 0.011116 -0.325471 -1.176190
v 0.011116 -0.325471 -1.190390
v -0.007187 -0.021218 -1.190390
v -0.007187 -0.021218 -1.176190
v -0.192797 -0.150207 -1.176190
v -0.192797 -0.150207 -1.190390
v -0.199028 -0.157232 -1.190390
v -0.199028 -0.157232 -1.176190
v 0.212722 -0.195383 -1.176190
v 0.344208 -0.317909 -1.176190
v 0.344208 -0.317909 -1.190390
v 0.212722 -0.195383 -1.190390
v -0.192797 -0.150207 -1.176190
v -0.324554 -0.027988 -1.176190
v -0.324554 -0.027988 -1.190390
v -0.192797 -0.150207 -1.190390
v -0.009679 0.020204 -1.176190
v -0.146780 0.136396 -1.176190
v -0.146780 0.136396 -1.190390
v -0.009679 0.020204 -1.190390
v -0.348309 0.318031 -1.161213
v -0.355378 0.309378 -1.161001
v -0.363256 0.315794 -1.161787
v -0.355576 0.324216 -1.161141
v -0.363256 0.315794 -1.161787
v -0.355378 0.309378 -1.161001
v -0.355669 0.309077 -1.182564
v -0.362454 0.315859 -1.182154
v -0.355576 0.324216 -1.161141
v -0.363256 0.315794 -1.161787
v -0.362454 0.315859 -1.182154
v -0.354477 0.324531 -1.183515
v -0.314652 -0.342463 -1.182454
v -0.314652 -0.342463 -1.196654
v -0.195584 -0.212544 -1.190390
v -0.195584 -0.212544 -1.176190
v -0.355378 0.309378 -1.161001
v -0.348309 0.318031 -1.161213
v -0.347533 0.318079 -1.182605
v -0.355669 0.309077 -1.182564
v -0.348309 0.318031 -1.161213
v -0.355576 0.324216 -1.161141
v -0.354477 0.324531 -1.183515
v -0.347533 0.318079 -1.182605
v 0.179708 0.020794 -1.128779
v 0.165419 0.020286 -1.128891
v 0.166664 0.018489 -1.176190
v 0.178667 0.019211 -1.176190
v 0.324554 0.027988 -1.190390
v 0.324554 0.027988 -1.176190
v 0.020204 0.009679 -1.190390
v 0.020204 0.009679 -1.176190
v -0.187765 -0.219475 -1.190390
v -0.300165 -0.355305 -1.196654
v -0.300165 -0.355305 -1.182454
v -0.187765 -0.219475 -1.176190
v 0.308991 0.357810 -1.175956
v 0.310253 0.357994 -1.154188
v 0.318531 0.350431 -1.154476
v 0.318532 0.349193 -1.176050
v 0.316456 0.366177 -1.153963
v 0.310253 0.357994 -1.154188
v 0.308991 0.357810 -1.175956
v 0.316420 0.366523 -1.176190
v 0.310253 0.357994 -1.154188
v 0.316456 0.366177 -1.153963
v 0.324999 0.358088 -1.154369
v 0.318531 0.350431 -1.154476
v 0.324999 0.358088 -1.154369
v 0.326142 0.357905 -1.176190
v 0.318532 0.349193 -1.176050
v 0.318531 0.350431 -1.154476
v 0.316420 0.366523 -1.176190
v 0.326142 0.357905 -1.176190
v 0.324999 0.358088 -1.154369
v 0.316456 0.366177 -1.153963
v 0.209413 -0.126011 -1.190390
v 0.325568 0.011122 -1.190390
v 0.325568 0.011122 -1.176190
v 0.209413 -0.126011 -1.176190
v 0.357051 -0.303423 -1.190390
v 0.357051 -0.303423 -1.176190
v 0.219654 -0.187565 -1.176190
v 0.219654 -0.187565 -1.190390
v -0.136396 -0.146780 -1.176190
v -0.136396 -0.146780 -1.190390
v -0.020204 -0.009679 -1.190390
v -0.020204 -0.009679 -1.176190
v -0.132214 -0.216305 -1.176190
v -0.000424 -0.338488 -1.176190
v -0.000424 -0.338488 -1.190390
v -0.132214 -0.216305 -1.190390
v 0.150165 -0.192667 -1.176190
v 0.027982 -0.324457 -1.176190
v 0.027982 -0.324457 -1.190390
v 0.150165 -0.192667 -1.190390
v -0.291702 0.347355 -1.027245
v -0.291814 0.357581 -1.027125
v -0.289620 0.358355 -1.018742
v -0.288938 0.348237 -1.017432
v -0.298526 0.358329 -1.031894
v -0.285439 0.359116 -1.037326
v -0.280017 0.359442 -1.024215
v -0.293105 0.358655 -1.018783
v -0.183930 0.373585 -1.042633
v -0.172637 0.361370 -1.041193
v -0.180595 0.355778 -1.000335
v -0.179837 0.374429 -1.008873
v -0.146107 0.376825 -1.002752
v -0.151989 0.357269 -1.061816
v -0.144136 0.363852 -1.002087
v -0.133010 0.361629 -1.013199
v -0.174733 0.374512 -1.050875
v -0.141005 0.375837 -1.046911
v -0.129871 0.358962 -1.012335
v -0.136656 0.377433 -1.014786
v -0.124507 0.365207 -1.004603
v -0.133185 0.364498 -1.013198
v -0.144136 0.363852 -1.002087
v -0.135459 0.364562 -0.993492
v -0.146339 0.364685 -1.000537
v -0.124507 0.365207 -1.004603
v -0.134632 0.388001 -1.010647
v -0.183052 0.379031 -1.054563
v -0.174733 0.374512 -1.050875
v -0.175424 0.361258 -1.053232
v -0.184574 0.360567 -1.059598
v -0.191056 0.360185 -1.053021
v -0.184593 0.360717 -1.043929
v -0.175424 0.361258 -1.053232
v -0.184574 0.360567 -1.059598
v -0.184593 0.360717 -1.043929
v -0.191056 0.360185 -1.053021
v -0.182999 0.374025 -1.042489
v -0.187076 0.378794 -1.050480
v -0.142977 0.387509 -1.002180
v -0.146528 0.376851 -1.004770
v -0.144136 0.363852 -1.002087
v -0.135459 0.364562 -0.993492
v -0.191891 0.361158 -1.054845
v -0.185151 0.360880 -1.059142
v -0.121299 0.368228 -1.000663
v -0.132913 0.366480 -0.991505
v -0.153511 0.375917 -1.055473
v -0.174733 0.374512 -1.050875
v -0.133282 0.377474 -1.035652
v -0.136656 0.377433 -1.014786
v -0.179872 0.374546 -1.008300
v -0.187358 0.373858 -1.028055
v -0.182999 0.374025 -1.042489
v -0.160071 0.375962 -1.001040
v -0.146528 0.376851 -1.004770
v -0.056436 0.381638 -1.003106
v -0.039473 0.381972 -1.031208
v -0.062509 0.367995 -1.009900
v -0.031086 0.364772 -1.037582
v -0.090807 0.360950 -1.005654
v -0.063028 0.381874 -1.055233
v -0.061913 0.368798 -1.058344
v -0.077159 0.364989 -1.056054
v -0.068968 0.380746 -0.999300
v -0.093396 0.379592 -1.024560
v -0.078843 0.362032 -1.058533
v -0.077564 0.380684 -1.053825
v -0.079131 0.367937 -1.068156
v -0.077330 0.367858 -1.056055
v -0.061913 0.368798 -1.058344
v -0.063714 0.368878 -1.070444
v -0.059327 0.369919 -1.058291
v -0.079131 0.367937 -1.068156
v -0.077187 0.391457 -1.058074
v -0.064176 0.386182 -0.993604
v -0.068072 0.380928 -1.001378
v -0.067508 0.367750 -0.998602
v -0.063999 0.367821 -0.988000
v -0.054873 0.368378 -0.989354
v -0.054600 0.368537 -1.000518
v -0.067508 0.367750 -0.998602
v -0.063999 0.367821 -0.988000
v -0.054600 0.368537 -1.000518
v -0.054873 0.368378 -0.989354
v -0.056436 0.381638 -1.003106
v -0.058511 0.386528 -0.994445
v -0.065439 0.392173 -1.059818
v -0.063028 0.381874 -1.055233
v -0.061913 0.368798 -1.058344
v -0.063714 0.368878 -1.070444
v -0.055410 0.369368 -0.987431
v -0.063301 0.368210 -0.988030
v -0.079636 0.370735 -1.073339
v -0.064746 0.370580 -1.073628
v -0.093768 0.379680 -1.024117
v -0.068072 0.380928 -1.001378
v -0.082273 0.380148 -1.006385
v -0.087927 0.380269 -1.044422
v -0.076926 0.381026 -1.053170
v -0.040202 0.382773 -1.017550
v -0.056436 0.381638 -1.003106
v -0.044226 0.382872 -1.045628
v -0.063028 0.381874 -1.055233
v 0.130174 0.372597 -1.022848
v 0.128796 0.395499 -1.022848
v 0.139856 0.396165 -1.033928
v 0.139856 0.396165 -1.022525
v 0.128474 0.395480 -1.022525
v 0.128474 0.395480 -1.033928
v 0.298501 0.364768 -0.440459
v 0.151145 0.384197 -0.304977
v 0.107223 0.381447 -0.303437
v 0.320459 0.397563 -0.309964
v 0.322370 0.397957 -0.233138
v -0.384170 0.356632 -0.288228
v -0.279247 0.362727 -0.133471
v -0.382424 0.356521 -0.130266
v -0.374941 0.339651 -0.023056
v -0.381011 0.338928 -0.119945
v 0.329416 0.382018 -0.044933
v 0.329575 0.381847 -0.141186
v 0.319652 0.391437 -0.318270
v -0.364385 0.350282 -0.315722
v 0.318355 0.371556 -0.328140
v -0.360602 0.330712 -0.328140
v -0.365938 0.326206 -1.196852
v -0.366734 0.326864 -1.182661
v -0.190528 0.343486 -1.190390
v -0.190528 0.343486 -1.176190
v 0.119750 0.363210 -1.173383
v 0.119720 0.363295 -1.187584
v -0.362051 0.144741 -1.190356
v -0.361461 0.146133 -1.176168
v 0.327635 0.369841 -1.190597
v 0.329630 0.367937 -1.176385
v -0.339587 -0.190583 -1.176190
v -0.339587 -0.190583 -1.190390
v -0.324905 -0.368471 -1.182661
v -0.324193 -0.367722 -1.196852
v 0.341194 0.231701 -1.183381
v 0.341194 0.231701 -1.169181
v 0.353767 0.021282 -1.190390
v 0.353767 0.021282 -1.176190
v -0.147977 -0.363850 -1.190390
v -0.147977 -0.363850 -1.176190
v 0.366511 -0.189142 -1.169155
v 0.366511 -0.189142 -1.183355
v 0.162428 -0.346235 -1.173383
v 0.162409 -0.346323 -1.187584
v 0.371364 -0.325759 -1.176386
v 0.369613 -0.327889 -1.190598
v -0.289796 0.367600 -1.023640
v -0.289737 0.366624 -1.021585
v -0.156422 0.162589 -1.157122
v -0.190798 0.137010 -1.157946
v -0.183463 0.189174 -1.157078
v -0.210746 0.167287 -1.156348
v -0.294556 -0.332275 -1.130287
v -0.299199 -0.337493 -1.161539
v -0.338849 0.300214 -1.160465
v -0.330825 0.293111 -1.130287
v 0.337896 -0.299965 -1.160982
v 0.333163 -0.291573 -1.130287
v 0.295065 0.356988 -1.149489
v 0.314549 0.334411 -1.153134
v -0.360442 0.319984 -0.357437
v -0.353995 0.320372 -0.373960
v -0.351768 0.320506 -0.385119
v -0.343094 0.321028 -0.357437
v -0.360442 0.319984 -0.401643
v -0.349541 0.320640 -0.373960
v -0.343094 0.321028 -0.401643
v 0.302135 0.359843 -0.401643
v 0.302135 0.359843 -0.357437
v 0.308582 0.360231 -0.373960
v 0.310809 0.360365 -0.385119
v 0.319482 0.360887 -0.401643
v 0.313036 0.360499 -0.373960
v 0.319482 0.360887 -0.357437
v -0.215131 0.151658 -1.156536
v -0.209479 0.153543 -1.156536
v -0.189922 0.129309 -1.156536
v -0.195210 0.138232 -1.156536
v -0.203923 0.180712 -1.156536
v -0.212430 0.176940 -1.156536
v -0.174399 0.136009 -1.156536
v -0.165146 0.135022 -1.156536
v -0.193830 0.194275 -1.156536
v -0.177616 0.189485 -1.156536
v -0.150166 0.155566 -1.156536
v -0.159088 0.150278 -1.156536
v -0.160823 0.187525 -1.156536
v -0.156865 0.171088 -1.156536
s 0
f 3 2 1
f 3 4 2
f 6 5 4
f 5 6 7
f 8 6 4
f 8 4 9
f 10 5 7
f 12 10 7
f 12 11 10
f 2 13 9
f 8 9 13
f 8 13 14
f 12 15 11
f 18 17 16
f 18 16 19
f 20 18 19
f 20 21 18
f 23 21 20
f 23 20 24
f 22 24 20
f 25 23 24
f 25 24 26
f 26 28 25
f 29 26 27
f 26 29 28
f 32 31 30
f 32 33 31
f 32 34 33
f 32 35 34
f 38 37 36
f 38 36 39
f 39 40 38
f 39 41 40
f 42 40 41
f 42 41 43
f 46 45 44
f 46 44 47
f 48 46 47
f 49 48 47
f 50 49 47
f 47 51 50
f 50 51 52
f 51 53 52
f 51 54 53
f 54 55 53
f 58 57 56
f 59 57 58
f 59 60 57
f 59 61 60
f 62 60 61
f 62 61 63
f 64 63 61
f 65 63 64
f 63 65 66
f 69 68 67
f 67 70 69
f 69 70 71
f 70 72 71
f 71 72 73
f 74 73 72
f 74 75 73
f 74 76 75
f 76 77 75
f 80 79 78
f 80 78 81
f 80 81 82
f 80 82 83
f 86 85 84
f 86 87 85
f 88 87 86
f 88 86 89
f 91 88 89
f 91 92 88
f 90 88 92
f 93 92 91
f 93 94 92
f 94 93 96
f 97 95 94
f 94 96 97
f 100 99 98
f 100 101 99
f 102 101 100
f 103 101 102
f 104 101 103
f 101 104 105
f 104 106 105
f 105 106 107
f 105 107 108
f 108 107 109
f 112 111 110
f 112 113 111
f 116 115 114
f 116 114 117
f 118 117 114
f 118 119 117
f 119 118 120
f 119 120 121
f 122 123 124
f 123 125 124
f 126 125 123
f 127 122 124
f 127 124 128
f 125 126 129
f 130 129 126
f 129 130 131
f 132 131 130
f 133 131 132
f 127 128 134
f 134 128 135
f 136 134 135
f 132 136 133
f 135 133 136
f 139 138 140
f 145 144 143
f 144 146 143
f 150 149 151
f 151 152 150
f 156 155 157
f 162 161 160
f 163 162 160
f 164 163 160
f 165 164 160
f 164 165 166
f 166 165 167
f 168 166 167
f 169 168 167
f 168 169 170
f 171 170 169
f 174 173 172
f 175 174 172
f 176 175 172
f 176 177 175
f 177 176 178
f 179 177 178
f 180 179 178
f 181 180 178
f 180 181 182
f 185 184 183
f 186 185 183
f 187 186 183
f 187 188 186
f 188 187 189
f 189 187 190
f 191 189 190
f 191 190 192
f 191 192 193
f 194 193 192
f 197 196 195
f 198 196 197
f 198 197 199
f 199 200 198
f 201 200 199
f 201 202 200
f 201 203 202
f 206 205 204
f 206 207 205
f 206 208 207
f 207 209 205
f 207 210 209
f 210 207 211
f 208 206 212
f 208 212 213
f 214 208 213
f 214 213 215
f 218 217 216
f 218 216 219
f 220 222 221
f 223 222 220
f 223 220 224
f 223 224 225
f 223 225 226
f 229 228 227
f 229 227 230
f 233 232 231
f 233 234 232
f 235 234 233
f 235 233 236
f 235 236 237
f 235 237 238
f 239 241 240
f 239 242 241
f 244 245 243
f 245 246 243
f 245 247 246
f 244 248 245
f 245 249 247
f 249 245 250
f 248 244 251
f 248 251 252
f 253 248 252
f 256 255 254
f 256 254 257
f 260 259 258
f 260 258 261
f 264 263 262
f 264 262 265
f 268 267 266
f 268 266 269
f 272 271 270
f 272 270 273
f 276 275 274
f 276 274 277
f 280 279 278
f 280 278 281
f 284 283 282
f 284 282 285
f 288 287 286
f 288 286 289
f 292 291 290
f 292 290 293
f 296 295 294
f 296 297 295
f 296 298 297
f 296 299 298
f 302 301 300
f 302 303 301
f 302 304 303
f 302 305 304
f 308 307 306
f 308 306 309
f 310 309 306
f 310 306 311
f 314 313 312
f 314 312 315
f 316 315 312
f 316 312 317
f 320 319 318
f 320 318 321
f 321 318 322
f 321 322 323
f 323 322 324
f 323 324 325
f 327 328 326
f 327 329 328
f 332 331 330
f 332 330 333
f 334 332 333
f 334 333 335
f 336 334 335
f 336 335 337
f 339 338 340
f 341 339 340
f 351 352 350
f 353 352 351
f 356 355 354
f 356 357 355
f 357 358 355
f 358 359 355
f 358 360 359
f 358 361 360
f 364 363 362
f 364 365 363
f 366 365 364
f 366 367 365
f 368 367 366
f 368 369 367
f 371 370 372
f 371 372 373
f 392 391 390
f 392 390 393
f 396 395 394
f 396 394 397
f 410 409 408
f 410 408 411
f 414 413 412
f 414 412 415
f 422 421 420
f 422 420 423
f 428 427 426
f 428 426 429
f 434 433 432
f 434 432 435
f 437 436 438
f 438 436 439
f 442 441 440
f 440 443 442
f 444 443 440
f 440 445 444
f 447 446 448
f 447 448 449
f 449 448 450
f 453 452 451
f 451 454 453
f 455 454 451
f 451 456 455
f 458 459 457
f 458 460 459
f 460 461 459
f 464 463 462
f 462 465 464
f 465 466 464
f 466 467 464
f 470 469 468
f 471 470 468
f 471 468 472
f 475 474 473
f 473 476 475
f 476 477 475
f 477 478 475
f 481 480 479
f 481 479 482
f 253 252 483
f 486 485 484
f 486 484 487
f 488 490 489
f 491 490 488
f 491 488 492
f 491 492 493
f 491 493 494
f 497 496 495
f 497 495 498
f 501 500 499
f 501 502 500
f 503 502 501
f 503 501 504
f 503 504 505
f 503 505 506
f 507 509 508
f 507 510 509
f 513 511 512
f 514 513 512
f 515 517 516
f 517 518 516
f 521 520 519
f 522 519 520
f 523 522 520
f 526 525 524
f 524 527 526
f 527 528 526
f 531 530 529
f 531 529 532
f 535 533 534
f 535 534 536
f 537 535 536
f 537 536 538
f 539 537 538
f 540 539 538
f 541 543 542
f 542 543 544
f 543 545 544
f 543 546 545
f 544 547 542
f 547 548 542
f 548 549 542
f 550 547 544
f 551 553 552
f 552 553 554
f 554 555 552
f 556 552 555
f 557 555 554
f 553 558 554
f 553 559 558
f 562 561 560
f 562 563 561
f 564 563 562
f 564 565 563
f 566 565 564
f 566 567 565
f 570 569 568
f 571 570 568
f 568 572 571
f 573 572 568
f 568 574 573
f 576 575 577
f 577 578 576
f 579 577 575
f 579 580 577
f 580 581 577
f 583 582 584
f 585 583 584
f 585 584 586
f 587 585 586
f 590 592 591
f 591 592 593
f 594 593 592
f 593 595 591
f 595 596 591
f 597 595 593
f 599 598 600
f 599 600 601
f 601 602 599
f 602 603 599
f 601 604 602
f 605 604 601
f 606 601 600
f 609 608 607
f 609 607 610
f 610 611 609
f 614 613 612
f 614 612 615
f 616 614 615
f 615 617 616
f 620 619 618
f 619 620 621
f 620 622 621
f 623 619 621
f 619 623 624
f 622 620 625
f 626 624 623
f 626 623 627
f 628 625 620
f 631 630 629
f 631 632 630
f 633 632 631
f 633 634 632
f 634 633 635
f 636 633 631
f 634 635 637
f 631 638 636
f 638 639 636
f 638 640 639
f 643 642 641
f 643 641 644
f 647 646 645
f 647 645 648
f 651 650 649
f 651 649 652
f 655 654 653
f 655 653 656
f 659 658 657
f 659 657 660
f 661 659 660
f 662 661 660
f 662 663 661
f 661 663 664
f 661 664 665
f 662 666 663
f 666 662 667
f 666 667 668
f 671 670 669
f 671 669 672
f 675 674 673
f 675 673 676
f 679 678 677
f 679 677 680
f 683 682 681
f 683 684 682
f 685 684 683
f 685 686 684
f 683 687 685
f 688 687 683
f 691 690 689
f 691 689 692
f 695 694 693
f 695 693 696
f 699 698 697
f 699 697 700
f 703 702 701
f 703 701 704
f 707 706 705
f 707 705 708
f 711 710 709
f 711 709 712
f 715 714 713
f 715 713 716
f 719 718 717
f 719 717 720
f 723 722 721
f 723 721 724
f 727 726 725
f 727 725 728
f 731 730 729
f 731 729 732
f 735 734 733
f 735 733 736
f 739 738 737
f 739 737 740
f 743 742 741
f 744 741 742
f 745 741 744
f 744 746 745
f 744 742 747
f 744 747 748
f 751 750 749
f 751 749 752
f 752 753 751
f 752 754 753
f 755 753 754
f 755 754 756
f 759 758 757
f 757 760 759
f 763 762 761
f 763 764 762
f 764 763 765
f 766 764 765
f 767 765 763
f 767 763 768
f 764 766 769
f 770 769 766
f 767 768 771
f 771 768 772
f 771 772 773
f 767 771 774
f 775 774 771
f 769 770 776
f 769 776 777
f 769 777 778
f 776 770 779
f 780 776 779
f 781 779 770
f 781 770 782
f 775 783 774
f 783 775 780
f 780 775 784
f 780 784 785
f 781 786 779
f 780 779 787
f 780 788 783
f 780 787 788
f 781 789 786
f 782 790 781
f 782 791 790
f 792 790 791
f 792 793 790
f 792 794 793
f 791 795 792
f 796 795 791
f 796 797 795
f 797 798 795
f 797 799 798
f 796 800 797
f 800 788 797
f 787 801 788
f 787 802 801
f 796 803 800
f 796 804 803
f 800 803 805
f 804 806 803
f 800 805 807
f 800 808 788
f 809 806 804
f 810 809 804
f 806 809 811
f 806 811 812
f 810 813 809
f 813 810 814
f 816 808 815
f 808 816 788
f 816 815 817
f 788 816 818
f 818 816 819
f 783 788 818
f 813 814 819
f 813 819 820
f 813 820 821
f 818 819 822
f 822 819 814
f 823 822 814
f 814 824 823
f 823 825 822
f 823 826 825
f 827 823 824
f 824 828 827
f 829 827 828
f 829 830 827
f 829 831 830
f 767 829 828
f 767 832 829
f 767 774 832
f 818 833 783
f 774 834 832
f 774 835 834
f 818 836 833
f 839 838 837
f 839 837 840
f 843 842 841
f 843 841 844
f 844 845 843
f 846 843 845
f 847 846 845
f 844 848 845
f 849 845 848
f 845 849 850
f 845 850 851
f 848 844 852
f 848 853 849
f 854 852 844
f 855 849 853
f 852 854 856
f 852 856 857
f 857 858 852
f 859 858 857
f 854 860 859
f 854 861 860
f 858 859 862
f 863 858 862
f 862 864 863
f 862 865 864
f 862 866 865
f 864 867 863
f 868 867 864
f 863 867 869
f 869 870 863
f 868 871 867
f 869 867 872
f 625 628 873
f 873 628 874
f 628 875 874
f 874 875 876
f 877 878 879
f 879 878 880
f 879 880 881
f 881 882 879
f 885 884 883
f 885 886 884
f 887 886 885
f 887 888 886
f 889 888 887
f 889 890 888
f 893 892 891
f 893 894 892
f 893 895 894
f 895 896 894
f 899 897 898
f 900 901 902
f 903 900 902
f 903 902 904
f 902 905 904
f 901 906 902
f 907 905 902
f 902 906 907
f 905 907 904
f 908 904 907
f 907 906 909
f 907 909 910
f 910 908 907
f 913 912 911
f 913 914 912
f 915 912 914
f 916 915 917
f 920 919 918
f 920 921 919
f 921 920 922
f 923 921 922
f 923 924 921
f 924 923 925
f 925 926 924
f 925 927 926
f 933 932 934
f 934 932 935
f 934 935 936
f 939 938 937
f 939 940 938
f 940 941 938
f 940 942 941
f 942 943 941
f 942 944 943
f 947 946 945
f 947 945 948
f 948 945 949
f 948 949 950
f 950 949 951
f 950 951 952
f 952 951 953
f 952 953 954
f 954 953 955
f 954 955 956
f 956 955 957
f 956 957 958
f 958 957 959
f 958 959 960
f 963 961 962
f 961 963 964
f 964 963 965
f 964 965 966
f 969 968 967
f 969 967 970
f 970 967 971
f 970 971 972
f 975 974 973
f 975 973 976
f 977 976 973
f 978 979 977
f 982 981 980
f 982 980 983
f 984 982 983
f 989 988 987
f 989 987 990
f 993 992 991
f 993 991 994
f 997 996 995
f 869 872 998
f 999 870 869
f 1000 999 1001
f 1000 1001 1002
f 999 1003 870
f 870 1003 1004
f 1003 1005 1004
f 1004 1005 1000
f 1006 1004 1000
f 1006 1000 1007
f 1006 1007 1008
f 1008 1007 1009
f 1008 1009 1010
f 1011 1012 1008
f 1012 1013 1008
f 1006 1008 1013
f 1006 1013 1014
f 1006 1014 1015
f 1006 1015 1016
f 1013 1017 1014
f 1013 1018 1017
f 1016 1015 1019
f 1019 1021 1016
f 1022 1016 1021
f 1020 1022 1021
f 1015 1023 1020
f 1015 1024 1023
f 1020 1025 1022
f 1025 1026 1022
f 1026 1025 1027
f 1025 1028 1027
f 1025 1029 1028
f 1030 1026 1027
f 1031 1026 1030
f 1026 1031 1032
f 1033 1030 1027
f 1033 1027 1034
f 1031 1030 1035
f 1031 1035 1036
f 1032 1031 1037
f 1037 1038 1032
f 853 1032 1038
f 1038 1039 853
f 853 1039 855
f 855 1037 1040
f 855 1040 1041
f 1044 1043 1042
f 1044 1042 1045
f 868 1047 1046
f 868 1046 1048
f 868 1048 1049
f 1050 1049 1048
f 1051 1049 1050
f 1049 1052 868
f 1052 871 868
f 1033 1052 1049
f 1033 1049 1053
f 1033 1053 1054
f 1033 1034 1052
f 1055 1052 1034
f 1055 1056 1052
f 871 1052 1057
f 871 1057 1058
f 1052 1056 1059
f 1034 1060 1055
f 1034 1061 1060
f 1064 1063 1062
f 1064 1062 1065
f 1068 1067 1066
f 1068 1066 1069
f 1072 1071 1070
f 1073 1072 1070
f 1076 1075 1074
f 1076 1074 1077
f 1080 1079 1078
f 1080 1078 1081
f 1084 1083 1082
f 1084 1082 1085
f 1088 1087 1086
f 1088 1089 1087
f 1092 1091 1090
f 1092 1090 1093
f 1096 1095 1094
f 1096 1094 1097
f 1100 1099 1098
f 1100 1098 1101
f 1104 1103 1102
f 1104 1102 1105
f 1108 1107 1106
f 1108 1106 1109
f 1112 1111 1110
f 1112 1110 1113
f 1116 1115 1114
f 1116 1114 1117
f 1118 1117 1114
f 1118 1119 1117
f 1122 1120 1121
f 1122 1123 1120
f 1126 1125 1124
f 1126 1127 1125
f 1128 1125 1127
f 1128 1127 1129
f 1132 1131 1130
f 1132 1130 1133
f 1135 1134 1136
f 1137 1135 1136
f 1140 1139 1138
f 1140 1138 1141
f 1144 1143 1142
f 1144 1142 1145
f 1148 1147 1146
f 1148 1146 1149
f 1152 1151 1150
f 1152 1150 1153
f 1156 1155 1154
f 1156 1154 1157
f 1160 1159 1158
f 1160 1158 1161
f 1164 1163 1162
f 1164 1162 1165
f 1168 1167 1166
f 1168 1166 1169
f 1172 1171 1170
f 1172 1170 1173
f 1176 1175 1174
f 1176 1174 1177
f 1176 1177 1178
f 1179 1178 1177
f 1178 1180 1176
f 1180 1181 1176
f 1184 1183 1182
f 1184 1182 1185
f 1188 1186 1187
f 1188 1189 1186
f 1192 1191 1190
f 1192 1190 1193
f 1196 1195 1194
f 1196 1194 1197
f 1200 1199 1198
f 1200 1201 1199
f 1202 1201 1200
f 1202 1200 1203
f 1206 1205 1204
f 1206 1204 1207
f 1210 1209 1208
f 1210 1208 1211
f 1214 1213 1212
f 1214 1212 1215
f 1218 1217 1216
f 1218 1216 1219
f 1222 1221 1220
f 1222 1220 1223
f 1226 1225 1224
f 1226 1224 1227
f 1230 1229 1228
f 1230 1228 1231
f 1234 1233 1232
f 1234 1232 1235
f 1238 1237 1236
f 1238 1236 1239
f 1242 1241 1240
f 1242 1240 1243
f 1246 1245 1244
f 1246 1244 1247
f 1250 1249 1248
f 1250 1248 1251
f 1254 1253 1252
f 1254 1252 1255
f 1258 1257 1256
f 1258 1256 1259
f 1262 1261 1260
f 1262 1263 1261
f 1266 1265 1264
f 1266 1264 1267
f 1270 1269 1268
f 1270 1268 1271
f 1274 1273 1272
f 1274 1272 1275
f 1278 1277 1276
f 1278 1276 1279
f 1282 1281 1280
f 1282 1280 1283
f 1286 1285 1284
f 1286 1284 1287
f 1290 1289 1288
f 1290 1288 1291
f 1294 1293 1292
f 1294 1292 1295
f 1298 1297 1296
f 1298 1296 1299
f 1302 1301 1300
f 1302 1300 1303
f 1300 1304 1303
f 1300 1305 1304
f 1306 1307 1308
f 1309 1308 1307
f 1312 1311 1310
f 1312 1310 1313
f 1316 1315 1314
f 1316 1314 1317
f 997 1318 996
f 1319 1318 997
f 1320 1319 997
f 1319 1320 1321
f 1322 1321 1320
f 1320 1323 1322
f 1326 1325 1324
f 1324 1327 1326
f 1328 1330 1329
f 1328 1331 1330
f 1328 1332 1331
f 1333 1329 1330
f 1334 1329 1333
f 1334 1333 1335
f 1335 1336 1334
f 1337 1331 1332
f 1337 1338 1331
f 1339 1338 1337
f 1339 1337 1340
f 1341 1339 1340
f 1342 1334 1336
f 1342 1336 1341
f 1342 1341 1343
f 1343 1341 1340
f 1345 1344 1346
f 1347 1345 1346
f 1346 1348 1347
f 1347 1348 1349
f 1350 1348 1346
f 1346 1351 1350
f 1349 1352 1347
f 1353 1350 1351
f 1353 1354 1350
f 1355 1347 1352
f 1352 1356 1355
f 1356 1357 1355
f 1355 1357 1358
f 1357 1359 1358
f 1362 1361 1360
f 1362 1360 1363
f 1364 1362 1363
f 1364 1363 1365
f 1366 1364 1365
f 1366 1365 1367
f 1370 1369 1368
f 1372 1371 1373
f 1374 1372 1373
f 1373 1375 1374
f 1374 1376 1372
f 1376 1377 1372
f 1377 1378 1372
f 1377 1379 1378
f 1382 1381 1380
f 1382 1380 1383
f 1386 1385 1384
f 1386 1384 1387
f 1390 1389 1388
f 1390 1388 1391
f 1392 1390 1391
f 1392 1391 1393
f 1394 1392 1393
f 1394 1393 1395
f 1396 1394 1395
f 1396 1395 1397
f 1398 1396 1397
f 1398 1397 1399
f 1400 1398 1399
f 1400 1399 1401
f 1402 1400 1401
f 1402 1401 1403
f 1406 1405 1404
f 1406 1404 1407
f 1407 1408 1406
f 1409 1406 1408
f 1408 1410 1409
f 1410 1411 1409
f 1411 1412 1409
f 1415 1414 1413
f 1415 1416 1414
f 1417 1416 1415
f 1417 1418 1416
f 1419 1418 1417
f 1419 1420 1418
f 1423 1422 1421
f 1423 1421 1424
f 1427 1426 1425
f 1427 1425 1428
f 1430 1431 1429
f 1431 1430 1432
f 1432 1433 1431
f 1434 1432 1430
f 1435 1434 1430
f 1430 1436 1435
f 1436 1437 1435
f 1440 1439 1438
f 1440 1438 1441
f 1446 1445 1444
f 1446 1444 1447
f 1448 1446 1447
f 1448 1447 1449
f 1452 1451 1450
f 1455 1454 1453
f 1455 1453 1456
f 1457 1458 1459
f 1460 1457 1459
f 1460 1459 1461
f 1460 1461 1462
f 1465 1464 1463
f 1465 1466 1464
f 1466 1465 1467
f 1470 1469 1468
f 1473 1472 1471
f 1476 1475 1474
f 1479 1478 1477
f 1479 1480 1478
f 1483 1482 1481
f 1484 1483 1481
f 1481 1485 1484
f 1486 1484 1485
f 1485 1487 1486
f 1488 1487 1485
f 1491 1490 1489
f 1492 1489 1490
f 1490 1493 1492
f 1493 1490 1494
f 1495 1493 1494
f 1494 1496 1495
f 1499 1497 1498
f 1499 1500 1497
f 1507 1505 1506
f 1506 1508 1507
f 1507 1508 1509
f 1509 1510 1507
f 1509 1508 1511
f 1512 1511 1508
f 1512 1508 1513
f 1514 1512 1513
f 1514 1513 1515
f 1514 1515 1516
f 1517 1516 1515
f 1517 1515 1518
f 1518 1519 1517
f 1522 1521 1520
f 1522 1520 1523
f 1526 1525 1524
f 1526 1527 1525
f 1527 1528 1525
f 1530 1529 1531
f 1532 1530 1531
f 1535 1534 1533
f 1535 1536 1534
f 1536 1535 1537
f 1537 1538 1536
f 1539 1537 1535
f 1540 1539 1535
f 1543 1542 1541
f 1543 1544 1542
f 1543 1545 1544
f 1546 1544 1545
f 1547 1545 1543
f 1543 1548 1547
f 1551 1550 1549
f 1551 1549 1552
f 1555 1554 1553
f 1555 1553 1556
f 1559 1558 1557
f 1559 1557 1560
f 1563 1562 1561
f 1563 1561 1564
f 1567 1566 1565
f 1567 1565 1568
f 1571 1570 1569
f 1571 1569 1572
f 1575 1574 1573
f 1575 1573 1576
f 1579 1578 1577
f 1579 1577 1580
f 1583 1582 1581
f 1583 1581 1584
f 1587 1586 1585
f 1587 1585 1588
f 1591 1590 1589
f 1591 1589 1592
f 1595 1594 1593
f 1595 1593 1596
f 1597 1595 1596
f 1596 1598 1597
f 1597 1599 1595
f 1600 1595 1599
f 1603 1602 1601
f 1603 1601 1604
f 1607 1606 1605
f 1607 1605 1608
f 1611 1610 1609
f 1611 1609 1612
f 1615 1614 1613
f 1615 1613 1616
f 1619 1618 1617
f 1619 1617 1620
f 1623 1622 1621
f 1623 1621 1624
f 1627 1626 1625
f 1627 1625 1628
f 1631 1630 1629
f 1631 1629 1632
f 1635 1634 1633
f 1635 1633 1636
f 1639 1638 1637
f 1639 1637 1640
f 1643 1642 1641
f 1643 1641 1644
f 1647 1646 1645
f 1647 1645 1648
f 1650 1649 1651
f 1652 1651 1649
f 1654 1655 1653
f 1655 1656 1653
f 1655 1657 1656
f 1654 1658 1655
f 1655 1659 1657
f 1659 1655 1660
f 1658 1654 1661
f 1658 1661 1662
f 1663 1658 1662
f 1663 1662 1664
f 1667 1666 1665
f 1667 1665 1668
f 1669 1671 1670
f 1672 1671 1669
f 1672 1669 1673
f 1672 1673 1674
f 1672 1674 1675
f 1678 1677 1676
f 1678 1676 1679
f 1682 1681 1680
f 1682 1683 1681
f 1684 1683 1682
f 1684 1682 1685
f 1684 1685 1686
f 1684 1686 1687
f 1688 1690 1689
f 1688 1691 1690
f 1694 1692 1693
f 1695 1694 1693
f 1698 1697 1696
f 1696 1699 1698
f 1699 1700 1698
f 1703 1702 1701
f 1703 1704 1702
f 1703 1705 1704
f 1704 1706 1702
f 1704 1707 1706
f 1707 1704 1708
f 1705 1703 1709
f 1705 1709 1710
f 1711 1705 1710
f 1711 1710 1712
f 1715 1714 1713
f 1715 1713 1716
f 1717 1719 1718
f 1720 1719 1717
f 1720 1717 1721
f 1720 1721 1722
f 1720 1722 1723
f 1726 1725 1724
f 1726 1724 1727
f 1730 1729 1728
f 1730 1731 1729
f 1732 1731 1730
f 1732 1730 1733
f 1732 1733 1734
f 1732 1734 1735
f 1736 1738 1737
f 1736 1739 1738
f 1742 1741 1740
f 1743 1740 1741
f 1744 1743 1741
f 1745 1747 1746
f 1747 1748 1746
f 1753 1752 1751
f 1753 1751 1754
f 1529 1756 1531
f 1531 1757 1532
f 1529 1758 1756
f 1529 1759 1758
f 1757 1760 1532
f 1760 1761 1532
f 1762 1761 1760
f 1763 1765 1764
f 1764 1765 1766
f 1769 1767 1768
f 1769 1768 1770
f 1772 1773 1771
f 1772 1774 1773
f 1773 1774 1775
f 1773 1775 1776
f 1777 1772 1771
f 1777 1778 1772
f 1779 1776 1775
f 1779 1775 1780
f 1777 1781 1778
f 1777 1782 1781
f 1782 1783 1781
f 1782 1784 1783
f 1785 1779 1780
f 1785 1780 1786
f 1787 1785 1786
f 1787 1786 1788
f 1783 1784 1789
f 1783 1789 1790
f 1787 1788 1791
f 1787 1791 1792
f 1789 1793 1790
f 1789 1794 1793
f 1792 1791 1795
f 1792 1795 1796
f 1796 1793 1794
f 1796 1795 1793
f 1801 1799 1800
f 1800 1802 1801
f 1805 1803 1804
f 1805 1806 1803
f 1803 1807 1804
f 1803 1808 1807
f 1808 1803 1806
f 1805 1809 1806
f 1806 1809 1808
f 1810 1807 1808
f 1810 1808 1809
f 1813 1812 1811
f 1812 1814 1811
f 1813 1811 1815
f 1812 1816 1814
f 1816 1817 1814
f 1813 1815 1817
f 1816 1813 1817
f 1820 1819 1818
f 1820 1818 1821
f 1821 1818 1822
f 1823 1819 1820
f 1823 1824 1819
f 1821 1822 1824
f 1821 1824 1823
f 1826 1827 1825
f 1826 1828 1827
f 1829 1826 1825
f 1829 1825 1830
f 1828 1831 1827
f 1831 1832 1827
f 1829 1830 1833
f 1834 1829 1833
f 1831 1835 1832
f 1831 1836 1835
f 1834 1833 1837
f 1836 1838 1835
f 1838 1834 1837
f 1838 1837 1835
l 344 345
l 348 349
l 376 377
l 380 381
l 384 385
l 400 401
l 416 417
l 928 929
l 985 986
l 1442 1443
l 587 588
l 385 386
l 405 406
l 405 407
l 1755 137
l 147 148
l 158 159
l 1749 1750
l 342 343
l 346 347
l 374 375
l 378 379
l 382 383
l 398 399
l 402 403
l 418 419
l 424 425
l 430 431
l 930 931
l 1501 1502
l 387 388
l 387 389
l 403 404
l 141 142
l 153 154
l 588 589
l 1503 1504
l 1797 1798
