# Blender 5.2.2 LTS
# www.blender.org
o ScifiCafe.014
v 3.455784 -6.718231 1.085594
v 3.964211 -6.718231 1.813128
v 1.683758 -7.545917 1.560698
v 1.683758 -9.195026 1.560698
v 3.455784 -7.468732 1.085594
v 3.964211 -7.468732 1.813128
v 3.146034 -7.545917 2.041468
v 3.146034 -9.195026 2.041468
v 3.379907 -7.545917 1.330135
v 1.917632 -7.545917 0.849365
v 3.686184 -6.718231 2.007422
v 3.686184 -7.468732 2.007422
v 3.177757 -6.718231 1.279889
v 3.177757 -7.468732 1.279889
v 3.379907 -9.195026 1.330135
v 1.917632 -9.195026 0.849365
v 0.959828 -6.620044 0.986342
v 0.917256 -6.620044 0.970940
v 0.930841 -6.588032 0.999927
v 0.954210 -6.620044 0.978048
v 0.946310 -6.620044 0.971900
v 0.958409 -6.610149 0.987007
v 0.952394 -6.609887 0.978546
v 0.945044 -6.610219 0.972972
v 0.954294 -6.601231 0.988936
v 0.948642 -6.601648 0.980705
v 0.942882 -6.603106 0.975578
v 0.917921 -6.610149 0.972359
v 0.919849 -6.601231 0.976474
v 0.926880 -6.620044 0.968160
v 0.927905 -6.609830 0.969730
v 0.929426 -6.601665 0.973755
v 0.936885 -6.620044 0.968490
v 0.937196 -6.610194 0.970138
v 0.937167 -6.603106 0.973510
v 0.939800 -6.589599 0.995728
v 0.947876 -6.594143 0.991943
v 0.926642 -6.589599 0.990968
v 0.935779 -6.591455 0.986396
v 0.943314 -6.595745 0.983231
v 0.922857 -6.594143 0.982892
v 0.931954 -6.595767 0.979089
v 0.938990 -6.598807 0.977401
v 0.260908 -6.620044 1.313887
v 0.289895 -6.588032 1.300303
v 0.276310 -6.620044 1.271316
v 0.262327 -6.610149 1.313223
v 0.266442 -6.601231 1.311294
v 0.258129 -6.620044 1.304263
v 0.259698 -6.609830 1.303238
v 0.263723 -6.601665 1.301717
v 0.258458 -6.620044 1.294259
v 0.260107 -6.610194 1.293947
v 0.263478 -6.603106 1.293977
v 0.285696 -6.589599 1.291344
v 0.281912 -6.594143 1.283268
v 0.280936 -6.589599 1.304502
v 0.276364 -6.591455 1.295364
v 0.273199 -6.595745 1.287830
v 0.272860 -6.594143 1.308286
v 0.269057 -6.595767 1.299190
v 0.267370 -6.598808 1.292153
v 0.268016 -6.620044 1.276934
v 0.261869 -6.620044 1.284833
v 0.276976 -6.610149 1.272735
v 0.268515 -6.609887 1.278750
v 0.262941 -6.610219 1.286100
v 0.278904 -6.601231 1.276850
v 0.270673 -6.601648 1.282501
v 0.265546 -6.603106 1.288262
v 0.959828 -7.426688 0.986342
v 0.930841 -7.458701 0.999927
v 0.917256 -7.426688 0.970940
v 0.958408 -7.436582 0.987007
v 0.954294 -7.445502 0.988935
v 0.954210 -7.426687 0.978048
v 0.952418 -7.436902 0.978598
v 0.948674 -7.445067 0.980718
v 0.946310 -7.426687 0.971900
v 0.945016 -7.436539 0.972967
v 0.942882 -7.443626 0.975577
v 0.926642 -7.457133 0.990967
v 0.922857 -7.452589 0.982891
v 0.939800 -7.457133 0.995728
v 0.935703 -7.455277 0.986368
v 0.931938 -7.450987 0.979114
v 0.947876 -7.452589 0.991943
v 0.943318 -7.450964 0.983200
v 0.938990 -7.447924 0.977401
v 0.926880 -7.426687 0.968160
v 0.936885 -7.426687 0.968490
v 0.917921 -7.436582 0.972359
v 0.927957 -7.436845 0.969705
v 0.937172 -7.436513 0.970124
v 0.919849 -7.445502 0.976473
v 0.929459 -7.445084 0.973764
v 0.937167 -7.443626 0.973509
v 0.260908 -7.426688 1.313887
v 0.276310 -7.426688 1.271316
v 0.289895 -7.458701 1.300303
v 0.258128 -7.426688 1.304263
v 0.258458 -7.426688 1.294258
v 0.262327 -7.436582 1.313222
v 0.259674 -7.436845 1.303186
v 0.260093 -7.436513 1.293971
v 0.266442 -7.445502 1.311294
v 0.263733 -7.445084 1.301684
v 0.263478 -7.443626 1.293977
v 0.276976 -7.436582 1.272735
v 0.278904 -7.445502 1.276849
v 0.268016 -7.426688 1.276933
v 0.268566 -7.436902 1.278726
v 0.270687 -7.445067 1.282469
v 0.261868 -7.426688 1.284833
v 0.262936 -7.436539 1.286127
v 0.265546 -7.443626 1.288261
v 0.280936 -7.457133 1.304501
v 0.272860 -7.452589 1.308286
v 0.285696 -7.457133 1.291343
v 0.276337 -7.455277 1.295440
v 0.269083 -7.450987 1.299205
v 0.281912 -7.452589 1.283267
v 0.273169 -7.450964 1.287825
v 0.267370 -7.447924 1.292153
v 0.393075 -6.620044 1.595907
v 0.435647 -6.620044 1.611310
v 0.422062 -6.588032 1.582322
v 0.398693 -6.620044 1.604201
v 0.406593 -6.620044 1.610349
v 0.394494 -6.610149 1.595242
v 0.400510 -6.609887 1.603703
v 0.407859 -6.610219 1.609277
v 0.398609 -6.601231 1.593314
v 0.404261 -6.601648 1.601544
v 0.410021 -6.603106 1.606672
v 0.434982 -6.610149 1.609890
v 0.433054 -6.601231 1.605776
v 0.426023 -6.620044 1.614089
v 0.424998 -6.609830 1.612520
v 0.423477 -6.601665 1.608495
v 0.416018 -6.620044 1.613759
v 0.415707 -6.610194 1.612111
v 0.415736 -6.603106 1.608740
v 0.413103 -6.589599 1.586521
v 0.405027 -6.594143 1.590306
v 0.426261 -6.589599 1.591282
v 0.417124 -6.591455 1.595854
v 0.409589 -6.595745 1.599019
v 0.430046 -6.594143 1.599358
v 0.420949 -6.595767 1.603160
v 0.413913 -6.598808 1.604848
v 0.393075 -7.426688 1.595907
v 0.422062 -7.458701 1.582322
v 0.435647 -7.426688 1.611309
v 0.394495 -7.436582 1.595242
v 0.398609 -7.445502 1.593314
v 0.398693 -7.426687 1.604201
v 0.400485 -7.436902 1.603651
v 0.404229 -7.445067 1.601531
v 0.406593 -7.426687 1.610349
v 0.407887 -7.436539 1.609282
v 0.410021 -7.443626 1.606672
v 0.426261 -7.457133 1.591282
v 0.430046 -7.452589 1.599358
v 0.413103 -7.457133 1.586521
v 0.417200 -7.455277 1.595881
v 0.420965 -7.450987 1.603135
v 0.405027 -7.452589 1.590306
v 0.409585 -7.450964 1.599049
v 0.413913 -7.447924 1.604848
v 0.426023 -7.426687 1.614089
v 0.416018 -7.426687 1.613759
v 0.434982 -7.436582 1.609890
v 0.424946 -7.436845 1.612544
v 0.415731 -7.436513 1.612125
v 0.433054 -7.445502 1.605776
v 0.423444 -7.445084 1.608485
v 0.415737 -7.443626 1.608740
v 1.091995 -6.620044 1.268362
v 1.063008 -6.588032 1.281946
v 1.076593 -6.620044 1.310934
v 1.090576 -6.610149 1.269027
v 1.086461 -6.601231 1.270955
v 1.094775 -6.620044 1.277986
v 1.093205 -6.609830 1.279011
v 1.089180 -6.601665 1.280532
v 1.094445 -6.620044 1.287991
v 1.092797 -6.610194 1.288302
v 1.089425 -6.603106 1.288273
v 1.067207 -6.589599 1.290906
v 1.070992 -6.594143 1.298982
v 1.071967 -6.589599 1.277748
v 1.076539 -6.591455 1.286885
v 1.079705 -6.595745 1.294420
v 1.080043 -6.594143 1.273963
v 1.083846 -6.595767 1.283060
v 1.085534 -6.598807 1.290096
v 1.084887 -6.620044 1.305316
v 1.091035 -6.620044 1.297416
v 1.075927 -6.610149 1.309514
v 1.084388 -6.609887 1.303499
v 1.089962 -6.610219 1.296150
v 1.073999 -6.601231 1.305400
v 1.082230 -6.601648 1.299748
v 1.087357 -6.603106 1.293988
v 1.091995 -7.426688 1.268361
v 1.076593 -7.426688 1.310933
v 1.063008 -7.458701 1.281946
v 1.094774 -7.426688 1.277986
v 1.094445 -7.426688 1.287990
v 1.090576 -7.436582 1.269026
v 1.093229 -7.436845 1.279063
v 1.092810 -7.436513 1.288278
v 1.086461 -7.445502 1.270955
v 1.089170 -7.445084 1.280564
v 1.089425 -7.443626 1.288272
v 1.075927 -7.436582 1.309514
v 1.073999 -7.445502 1.305399
v 1.084887 -7.426688 1.305315
v 1.084336 -7.436902 1.303523
v 1.082216 -7.445067 1.299779
v 1.091034 -7.426688 1.297415
v 1.089967 -7.436539 1.296122
v 1.087357 -7.443626 1.293988
v 1.071967 -7.457133 1.277747
v 1.080043 -7.452589 1.273962
v 1.067207 -7.457133 1.290905
v 1.076566 -7.455277 1.286808
v 1.083820 -7.450987 1.283043
v 1.070991 -7.452589 1.298981
v 1.079734 -7.450964 1.294423
v 1.085533 -7.447924 1.290096
vn 0.8197 -0.0000 -0.5728
vn -0.0000 1.0000 -0.0000
vn -0.0000 -1.0000 -0.0000
vn 0.5728 -0.0000 0.8197
vn -0.4244 -0.0000 -0.9055
vn -0.9500 -0.0000 -0.3123
vn -0.5728 -0.0000 -0.8197
vn 0.3123 -0.0000 -0.9500
vn 0.9500 -0.0000 0.3123
vn -0.9055 -0.0000 0.4244
vn 0.4244 -0.0000 0.9055
vn -0.3123 -0.0000 0.9500
vn -0.8197 -0.0000 0.5728
vn 0.8180 0.1546 -0.5541
vn 0.6075 0.1469 -0.7806
vn 0.3367 0.1449 -0.9304
vn 0.7348 0.4489 -0.5085
vn 0.5322 0.4329 -0.7275
vn 0.3113 0.4087 -0.8579
vn -0.2732 0.1728 -0.9463
vn -0.2393 0.4648 -0.8525
vn -0.1655 0.6997 -0.6951
vn 0.0325 0.1639 -0.9859
vn 0.0563 0.4291 -0.9015
vn 0.0961 0.6453 -0.7578
vn 0.0743 0.9758 -0.2055
vn 0.3442 0.8813 -0.3236
vn 0.5721 0.6995 -0.4282
vn -0.0558 0.8811 -0.4697
vn 0.2044 0.7924 -0.5747
vn 0.4109 0.6455 -0.6439
vn 0.2779 0.5772 -0.7678
vn -0.9492 0.1546 0.2741
vn -0.8604 0.4490 0.2409
vn -0.6950 0.6997 0.1656
vn -0.9884 0.1486 -0.0325
vn -0.8997 0.4329 -0.0564
vn -0.7583 0.6448 -0.0960
vn -0.2129 0.9728 -0.0911
vn -0.3285 0.8735 -0.3593
vn -0.4282 0.6996 -0.5721
vn -0.4751 0.8789 0.0416
vn -0.5747 0.7924 -0.2046
vn -0.6440 0.6454 -0.4108
vn -0.5541 0.1546 -0.8180
vn -0.7806 0.1469 -0.6075
vn -0.9304 0.1449 -0.3366
vn -0.5085 0.4489 -0.7348
vn -0.7248 0.4336 -0.5354
vn -0.8582 0.4087 -0.3106
vn -0.7678 0.5774 -0.2777
vn 0.8180 -0.1546 -0.5541
vn 0.7357 -0.4490 -0.5071
vn 0.5719 -0.6997 -0.4281
vn 0.6073 -0.1486 -0.7804
vn 0.5322 -0.4329 -0.7275
vn 0.4114 -0.6448 -0.6442
vn 0.0743 -0.9758 -0.2056
vn -0.0576 -0.8813 -0.4689
vn -0.1656 -0.6997 -0.6950
vn 0.3434 -0.8812 -0.3250
vn 0.2106 -0.7924 -0.5726
vn 0.0966 -0.6458 -0.7574
vn -0.2564 -0.1541 -0.9542
vn 0.0502 -0.1450 -0.9882
vn 0.3368 -0.1449 -0.9304
vn -0.2246 -0.4478 -0.8655
vn 0.0524 -0.4337 -0.8996
vn 0.3105 -0.4087 -0.8582
vn 0.2778 -0.5773 -0.7678
vn -0.9492 -0.1546 0.2741
vn -0.9886 -0.1470 -0.0326
vn -0.9304 -0.1449 -0.3366
vn -0.8609 -0.4489 0.2394
vn -0.8997 -0.4329 -0.0564
vn -0.8584 -0.4088 -0.3099
vn -0.5540 -0.1546 -0.8180
vn -0.5070 -0.4490 -0.7357
vn -0.4281 -0.6997 -0.5720
vn -0.7804 -0.1486 -0.6074
vn -0.7289 -0.4291 -0.5334
vn -0.6443 -0.6448 -0.4114
vn -0.2219 -0.9728 -0.0662
vn -0.4823 -0.8735 0.0658
vn -0.6951 -0.6996 0.1657
vn -0.3385 -0.8789 -0.3361
vn -0.5727 -0.7923 -0.2104
vn -0.7578 -0.6454 -0.0962
vn -0.7677 -0.5774 -0.2779
vn -0.8180 0.1546 0.5541
vn -0.6075 0.1469 0.7806
vn -0.3367 0.1449 0.9304
vn -0.7348 0.4489 0.5085
vn -0.5322 0.4329 0.7276
vn -0.3112 0.4088 0.8579
vn 0.2733 0.1728 0.9463
vn 0.2394 0.4648 0.8525
vn 0.1655 0.6997 0.6950
vn -0.0325 0.1639 0.9859
vn -0.0564 0.4291 0.9015
vn -0.0961 0.6454 0.7577
vn -0.0743 0.9758 0.2055
vn -0.3443 0.8813 0.3237
vn -0.5721 0.6995 0.4282
vn 0.0558 0.8811 0.4697
vn -0.2046 0.7923 0.5748
vn -0.4108 0.6455 0.6439
vn -0.2778 0.5774 0.7677
vn -0.8180 -0.1546 0.5541
vn -0.7357 -0.4490 0.5071
vn -0.5720 -0.6997 0.4281
vn -0.6073 -0.1486 0.7804
vn -0.5322 -0.4329 0.7275
vn -0.4114 -0.6448 0.6442
vn -0.0744 -0.9758 0.2056
vn 0.0576 -0.8813 0.4689
vn 0.1656 -0.6997 0.6950
vn -0.3434 -0.8811 0.3250
vn -0.2106 -0.7924 0.5726
vn -0.0966 -0.6458 0.7574
vn 0.2564 -0.1541 0.9542
vn -0.0502 -0.1450 0.9882
vn -0.3367 -0.1449 0.9304
vn 0.2246 -0.4478 0.8655
vn -0.0523 -0.4336 0.8996
vn -0.3106 -0.4087 0.8582
vn -0.2777 -0.5774 0.7678
vn 0.9492 0.1546 -0.2741
vn 0.8604 0.4490 -0.2409
vn 0.6950 0.6997 -0.1655
vn 0.9884 0.1486 0.0326
vn 0.8997 0.4329 0.0564
vn 0.7583 0.6448 0.0961
vn 0.2129 0.9728 0.0911
vn 0.3286 0.8735 0.3592
vn 0.4282 0.6996 0.5720
vn 0.4752 0.8789 -0.0417
vn 0.5747 0.7924 0.2045
vn 0.6439 0.6454 0.4110
vn 0.5541 0.1546 0.8180
vn 0.7806 0.1470 0.6075
vn 0.9304 0.1449 0.3366
vn 0.5085 0.4489 0.7348
vn 0.7248 0.4336 0.5354
vn 0.8582 0.4087 0.3106
vn 0.7678 0.5774 0.2778
vn 0.9492 -0.1546 -0.2741
vn 0.9886 -0.1470 0.0326
vn 0.9304 -0.1449 0.3366
vn 0.8609 -0.4489 -0.2394
vn 0.8997 -0.4329 0.0565
vn 0.8584 -0.4088 0.3099
vn 0.5541 -0.1547 0.8180
vn 0.5070 -0.4490 0.7357
vn 0.4281 -0.6997 0.5720
vn 0.7804 -0.1486 0.6074
vn 0.7289 -0.4291 0.5335
vn 0.6442 -0.6448 0.4114
vn 0.2218 -0.9728 0.0662
vn 0.4823 -0.8735 -0.0658
vn 0.6950 -0.6996 -0.1657
vn 0.3385 -0.8789 0.3360
vn 0.5726 -0.7923 0.2105
vn 0.7578 -0.6454 0.0962
vn 0.7678 -0.5773 0.2778
vn -0.2775 -0.0000 -0.9607
vn 0.0329 -0.0000 -0.9995
vn 0.3402 -0.0000 -0.9403
vn 0.6142 -0.0000 -0.7892
vn 0.8280 -0.0000 -0.5608
vn -0.9607 -0.0000 0.2775
vn -0.9995 -0.0000 -0.0330
vn -0.9403 -0.0000 -0.3402
vn -0.7892 -0.0000 -0.6142
vn -0.5608 -0.0000 -0.8280
vn -0.4191 0.1565 -0.8943
vn -0.3781 0.4539 -0.8068
vn -0.3001 0.7071 -0.6403
vn -0.1926 0.8910 -0.4111
vn -0.0664 0.9877 -0.1416
vn -0.0664 -0.9877 -0.1417
vn -0.1927 -0.8910 -0.4111
vn -0.3000 -0.7072 -0.6402
vn -0.3781 -0.4539 -0.8069
vn -0.4191 -0.1565 -0.8943
vn 0.8943 0.1564 -0.4191
vn 0.8068 0.4540 -0.3781
vn 0.6403 0.7071 -0.3001
vn 0.4110 0.8911 -0.1926
vn 0.1417 0.9877 -0.0664
vn -0.8943 0.1564 0.4191
vn -0.8068 0.4540 0.3781
vn -0.6403 0.7071 0.3001
vn -0.4111 0.8910 0.1926
vn -0.1417 0.9877 0.0664
vn -0.8943 -0.1565 0.4191
vn -0.8068 -0.4539 0.3781
vn -0.6403 -0.7071 0.3001
vn -0.4110 -0.8911 0.1926
vn -0.1416 -0.9877 0.0663
vn 0.8943 -0.1565 -0.4191
vn 0.8068 -0.4539 -0.3781
vn 0.6403 -0.7071 -0.3001
vn 0.4110 -0.8910 -0.1926
vn 0.1416 -0.9877 -0.0664
vn 0.4191 -0.1565 0.8943
vn 0.3781 -0.4539 0.8068
vn 0.3001 -0.7071 0.6403
vn 0.1926 -0.8910 0.4111
vn 0.0664 -0.9877 0.1417
vn 0.0664 0.9877 0.1416
vn 0.1927 0.8910 0.4111
vn 0.3001 0.7071 0.6403
vn 0.3781 0.4540 0.8068
vn 0.4191 0.1565 0.8943
vn 0.2775 -0.0000 0.9607
vn -0.0330 -0.0000 0.9995
vn -0.3402 -0.0000 0.9403
vn -0.6142 -0.0000 0.7892
vn -0.8279 -0.0000 0.5608
vn 0.9607 -0.0000 -0.2775
vn 0.9995 -0.0000 0.0330
vn 0.9403 -0.0000 0.3402
vn 0.7892 -0.0000 0.6142
vn 0.5608 -0.0000 0.8279
vn 0.9055 -0.0000 -0.4244
vn 0.8054 0.1719 -0.5673
vn 0.5915 0.1625 -0.7897
vn 0.3365 0.1450 -0.9305
vn 0.7195 0.4631 -0.5175
vn 0.5375 0.4292 -0.7259
vn 0.3103 0.4094 -0.8579
vn -0.2562 0.1541 -0.9542
vn -0.2253 0.4479 -0.8652
vn -0.1657 0.6997 -0.6950
vn 0.0492 0.1469 -0.9879
vn 0.0523 0.4337 -0.8996
vn 0.0966 0.6446 -0.7584
vn 0.0827 0.9700 -0.2286
vn 0.3511 0.8709 -0.3440
vn 0.5720 0.6996 -0.4282
vn -0.0487 0.8711 -0.4886
vn 0.2106 0.7924 -0.5725
vn 0.4101 0.6456 -0.6442
vn -0.9513 0.1719 0.2560
vn -0.8574 0.4640 0.2224
vn -0.6950 0.6997 0.1655
vn -0.9853 0.1633 -0.0497
vn -0.9018 0.4291 -0.0514
vn -0.7579 0.6451 -0.0970
vn -0.2219 0.9728 -0.0661
vn -0.3378 0.8791 -0.3364
vn -0.4282 0.6996 -0.5720
vn -0.4822 0.8737 0.0638
vn -0.5726 0.7923 -0.2105
vn -0.6441 0.6457 -0.4101
vn -0.5672 0.1718 -0.8054
vn -0.7897 0.1625 -0.5916
vn -0.9304 0.1450 -0.3366
vn -0.5175 0.4632 -0.7195
vn -0.7290 0.4290 -0.5334
vn -0.8577 0.4093 -0.3111
vn 0.8054 -0.1718 -0.5673
vn 0.7195 -0.4640 -0.5166
vn 0.5923 -0.1632 -0.7890
vn 0.5375 -0.4292 -0.7259
vn 0.4103 -0.6452 -0.6445
vn 0.0828 -0.9700 -0.2286
vn -0.0500 -0.8708 -0.4890
vn -0.1656 -0.6995 -0.6952
vn 0.3501 -0.8711 -0.3443
vn 0.2046 -0.7924 -0.5747
vn 0.0970 -0.6451 -0.7579
vn -0.2733 -0.1729 -0.9463
vn 0.0325 -0.1631 -0.9861
vn 0.3367 -0.1450 -0.9304
vn -0.2378 -0.4638 -0.8534
vn 0.0564 -0.4291 -0.9015
vn 0.3096 -0.4094 -0.8582
vn -0.9513 -0.1719 0.2560
vn -0.9854 -0.1625 -0.0507
vn -0.9304 -0.1450 -0.3367
vn -0.8581 -0.4632 0.2218
vn -0.9017 -0.4293 -0.0515
vn -0.8579 -0.4094 -0.3103
vn -0.5672 -0.1719 -0.8054
vn -0.5166 -0.4641 -0.7195
vn -0.4282 -0.6997 -0.5719
vn -0.7890 -0.1633 -0.5923
vn -0.7248 -0.4337 -0.5354
vn -0.6446 -0.6451 -0.4103
vn -0.2128 -0.9728 -0.0913
vn -0.4748 -0.8791 0.0425
vn -0.6950 -0.6996 0.1656
vn -0.3298 -0.8737 -0.3576
vn -0.5746 -0.7924 -0.2046
vn -0.7575 -0.6456 -0.0970
vn -0.8054 0.1719 0.5673
vn -0.5916 0.1624 0.7897
vn -0.3365 0.1450 0.9305
vn -0.7195 0.4632 0.5175
vn -0.5375 0.4292 0.7259
vn -0.3104 0.4094 0.8579
vn 0.2562 0.1541 0.9543
vn 0.2253 0.4479 0.8653
vn 0.1657 0.6997 0.6950
vn -0.0492 0.1469 0.9879
vn -0.0522 0.4337 0.8996
vn -0.0966 0.6446 0.7584
vn -0.0828 0.9700 0.2286
vn -0.3511 0.8709 0.3439
vn -0.5720 0.6996 0.4282
vn 0.0488 0.8711 0.4886
vn -0.2105 0.7924 0.5725
vn -0.4101 0.6456 0.6442
vn -0.8054 -0.1718 0.5672
vn -0.7195 -0.4641 0.5166
vn -0.5719 -0.6997 0.4281
vn -0.5923 -0.1632 0.7890
vn -0.5375 -0.4292 0.7259
vn -0.4103 -0.6452 0.6445
vn -0.0827 -0.9700 0.2285
vn 0.0499 -0.8708 0.4891
vn 0.1656 -0.6995 0.6951
vn -0.3500 -0.8712 0.3443
vn -0.2046 -0.7924 0.5747
vn -0.0971 -0.6451 0.7579
vn 0.2733 -0.1729 0.9463
vn -0.0325 -0.1630 0.9861
vn -0.3366 -0.1450 0.9304
vn 0.2378 -0.4638 0.8534
vn -0.0564 -0.4291 0.9015
vn -0.3096 -0.4094 0.8582
vn 0.9513 0.1719 -0.2560
vn 0.8574 0.4640 -0.2224
vn 0.9853 0.1633 0.0497
vn 0.9018 0.4292 0.0514
vn 0.7580 0.6451 0.0968
vn 0.2219 0.9728 0.0662
vn 0.3378 0.8791 0.3364
vn 0.4281 0.6997 0.5720
vn 0.4823 0.8737 -0.0638
vn 0.5726 0.7924 0.2105
vn 0.6441 0.6457 0.4101
vn 0.5672 0.1719 0.8054
vn 0.7897 0.1624 0.5916
vn 0.9304 0.1450 0.3366
vn 0.5175 0.4631 0.7195
vn 0.7289 0.4291 0.5335
vn 0.8577 0.4093 0.3111
vn 0.9513 -0.1719 -0.2560
vn 0.9854 -0.1625 0.0507
vn 0.9304 -0.1451 0.3367
vn 0.8581 -0.4631 -0.2218
vn 0.9018 -0.4292 0.0514
vn 0.8579 -0.4094 0.3104
vn 0.5672 -0.1719 0.8054
vn 0.5166 -0.4641 0.7195
vn 0.4282 -0.6997 0.5719
vn 0.7890 -0.1633 0.5923
vn 0.7247 -0.4337 0.5354
vn 0.6446 -0.6451 0.4103
vn 0.2130 -0.9728 0.0912
vn 0.4749 -0.8790 -0.0425
vn 0.6950 -0.6996 -0.1656
vn 0.3299 -0.8737 0.3576
vn 0.5746 -0.7924 0.2046
vn 0.7574 -0.6457 0.0971
vn -0.2774 -0.0000 -0.9607
vn 0.3402 -0.0000 -0.9404
vn 0.8279 -0.0000 -0.5608
vn -0.9607 -0.0000 0.2774
vn -0.9995 -0.0000 -0.0329
vn -0.5608 -0.0000 -0.8279
vn -0.3781 0.4540 -0.8068
vn -0.1927 0.8910 -0.4111
vn -0.0664 -0.9877 -0.1416
vn -0.1927 -0.8910 -0.4112
vn -0.3781 -0.4539 -0.8068
vn 0.8943 0.1565 -0.4191
vn 0.4111 0.8910 -0.1927
vn 0.1416 0.9877 -0.0663
vn -0.1416 0.9877 0.0663
vn -0.8068 -0.4540 0.3781
vn -0.6402 -0.7072 0.3000
vn -0.4112 -0.8909 0.1927
vn -0.1417 -0.9877 0.0664
vn 0.6402 -0.7072 -0.3000
vn 0.4112 -0.8909 -0.1927
vn 0.1417 -0.9877 -0.0664
vn 0.3000 -0.7072 0.6402
vn 0.1927 -0.8910 0.4111
vn 0.1926 0.8910 0.4111
vn 0.3781 0.4539 0.8068
vt 0.611100 0.889303
vt 0.938300 0.520416
vt 0.611100 0.520416
vt 0.321717 0.931985
vt 0.557437 0.931985
vt 0.557436 0.931985
vt 0.321717 0.545393
vt 0.557436 0.545393
vt 0.311056 0.472970
vt 0.568097 0.472970
vt 0.311056 0.105796
vt 0.568097 0.105796
vt 0.938300 0.889303
vt 0.321717 0.559607
vt 0.557436 0.917771
vt 0.557436 0.559607
vt 0.311056 0.917771
vt 0.311056 0.559607
vt 0.311056 0.917771
vt 0.321717 0.559607
vt 0.557437 0.917771
vt 0.321717 0.917771
vt 0.568097 0.917771
vt 0.568097 0.922164
vt 0.568097 0.917771
vt 0.568097 0.917771
vt 0.568097 0.922280
vt 0.563702 0.917771
vt 0.568097 0.922134
vt 0.568097 0.926124
vt 0.568097 0.925939
vt 0.563563 0.922145
vt 0.568097 0.925292
vt 0.560819 0.922306
vt 0.560731 0.917771
vt 0.557437 0.922164
vt 0.560709 0.925932
vt 0.557436 0.926124
vt 0.560717 0.931985
vt 0.563077 0.925292
vt 0.563077 0.931985
vt 0.560731 0.931985
vt 0.563702 0.931985
vt 0.560838 0.931985
vt 0.563557 0.931985
vt 0.557437 0.931985
vt 0.311056 0.922164
vt 0.311056 0.926124
vt 0.311056 0.922306
vt 0.315452 0.931985
vt 0.311056 0.925932
vt 0.311056 0.917771
vt 0.311056 0.922145
vt 0.315591 0.931985
vt 0.311056 0.925292
vt 0.318335 0.931985
vt 0.318422 0.931985
vt 0.321717 0.931985
vt 0.318445 0.931985
vt 0.321717 0.931985
vt 0.318436 0.925939
vt 0.316076 0.931985
vt 0.316076 0.925292
vt 0.318422 0.917771
vt 0.321717 0.922164
vt 0.321717 0.917771
vt 0.315452 0.917771
vt 0.318316 0.922281
vt 0.315596 0.922134
vt 0.321717 0.926124
vt 0.568097 0.555214
vt 0.568097 0.559608
vt 0.568097 0.559607
vt 0.568097 0.551254
vt 0.568097 0.555073
vt 0.563563 0.545393
vt 0.568097 0.551447
vt 0.568097 0.559608
vt 0.568097 0.555234
vt 0.568097 0.552087
vt 0.560731 0.545393
vt 0.557436 0.545393
vt 0.557436 0.545393
vt 0.560819 0.545393
vt 0.557436 0.551254
vt 0.560709 0.545393
vt 0.563702 0.545393
vt 0.563077 0.545393
vt 0.560717 0.551439
vt 0.560838 0.555098
vt 0.557436 0.555214
vt 0.560731 0.559608
vt 0.563557 0.555245
vt 0.563702 0.559608
vt 0.563077 0.552087
vt 0.311056 0.559607
vt 0.311056 0.555214
vt 0.311056 0.555098
vt 0.315452 0.559607
vt 0.311056 0.555245
vt 0.311056 0.551254
vt 0.311056 0.551439
vt 0.315591 0.555234
vt 0.311056 0.552087
vt 0.321717 0.555214
vt 0.318422 0.559608
vt 0.321717 0.551254
vt 0.318335 0.555072
vt 0.321717 0.545393
vt 0.318445 0.551447
vt 0.316076 0.552087
vt 0.318436 0.545393
vt 0.318316 0.545393
vt 0.321717 0.545393
vt 0.318422 0.545393
vt 0.315596 0.545393
vt 0.315452 0.545393
vt 0.316076 0.545393
vt 0.311056 0.917771
vt 0.311056 0.922281
vt 0.315452 0.917771
vt 0.311056 0.922134
vt 0.311056 0.926124
vt 0.311056 0.925939
vt 0.315591 0.922145
vt 0.318335 0.922306
vt 0.318422 0.917771
vt 0.321717 0.922164
vt 0.318445 0.925932
vt 0.318436 0.931985
vt 0.316076 0.925292
vt 0.316076 0.931985
vt 0.318422 0.931985
vt 0.321717 0.931985
vt 0.315452 0.931985
vt 0.318316 0.931985
vt 0.315596 0.931985
vt 0.311056 0.555214
vt 0.311056 0.559608
vt 0.311056 0.551254
vt 0.311056 0.555072
vt 0.315591 0.545393
vt 0.311056 0.551447
vt 0.311056 0.555234
vt 0.311056 0.552087
vt 0.318422 0.545393
vt 0.321717 0.545393
vt 0.318335 0.545393
vt 0.321717 0.551254
vt 0.318445 0.545393
vt 0.315452 0.545393
vt 0.316076 0.545393
vt 0.318436 0.551439
vt 0.318316 0.555098
vt 0.321717 0.555214
vt 0.318422 0.559607
vt 0.315596 0.555245
vt 0.315452 0.559608
vt 0.316076 0.552087
vt 0.568097 0.922164
vt 0.568097 0.926124
vt 0.568097 0.922306
vt 0.563702 0.931985
vt 0.568097 0.925932
vt 0.568097 0.922145
vt 0.563563 0.931985
vt 0.568097 0.925292
vt 0.560819 0.931985
vt 0.560731 0.931985
vt 0.560708 0.931985
vt 0.560717 0.925939
vt 0.563077 0.931985
vt 0.557437 0.922164
vt 0.563702 0.917771
vt 0.560838 0.922281
vt 0.563557 0.922134
vt 0.568097 0.559607
vt 0.568097 0.559608
vt 0.568097 0.555098
vt 0.563702 0.559607
vt 0.568097 0.555245
vt 0.568097 0.551254
vt 0.568097 0.551439
vt 0.563563 0.555234
vt 0.568097 0.552087
vt 0.557436 0.555214
vt 0.560731 0.559608
vt 0.557436 0.559608
vt 0.557436 0.551254
vt 0.560819 0.555072
vt 0.560708 0.551447
vt 0.563077 0.552087
vt 0.560717 0.545393
vt 0.560838 0.545393
vt 0.557436 0.545393
vt 0.560731 0.545393
vt 0.563557 0.545393
vt 0.563077 0.545393
s 0
f 1/1/1 6/2/1 5/3/1
f 45/4/2 180/5/2 19/6/2
f 100/7/3 208/8/3 153/7/3
f 10/9/2 7/10/2 9/10/2
f 16/11/3 8/12/3 4/11/3
f 2/13/4 12/2/4 6/2/4
f 99/14/5 18/15/5 73/16/5
f 10/9/6 4/11/6 3/9/6
f 1/1/7 14/3/7 13/1/7
f 5/3/3 12/2/3 14/3/3
f 16/11/8 9/10/8 15/12/8
f 9/10/9 8/12/9 15/12/9
f 44/17/10 152/18/10 125/19/10
f 154/20/11 181/21/11 126/22/11
f 1/1/2 11/13/2 2/13/2
f 4/11/12 7/10/12 3/9/12
f 12/2/13 13/1/13 14/3/13
f 20/23/14 22/24/14 17/25/14
f 21/26/15 23/27/15 20/23/15
f 33/28/16 24/29/16 21/26/16
f 23/27/17 25/30/17 22/24/17
f 24/29/18 26/31/18 23/27/18
f 34/32/19 27/33/19 24/29/19
f 18/15/20 31/34/20 30/35/20
f 28/36/21 32/37/21 31/34/21
f 29/38/22 42/39/22 32/37/22
f 30/35/23 34/32/23 33/28/23
f 31/34/24 35/40/24 34/32/24
f 32/37/25 43/41/25 35/40/25
f 36/42/26 38/6/26 19/6/26
f 37/43/27 39/44/27 36/42/27
f 25/30/28 40/45/28 37/43/28
f 39/44/29 41/46/29 38/6/29
f 39/44/30 43/41/30 42/39/30
f 40/45/31 27/33/31 43/41/31
f 27/33/32 35/40/32 43/41/32
f 47/47/33 49/19/33 44/17/33
f 48/48/34 50/49/34 47/47/34
f 60/50/35 51/51/35 48/48/35
f 50/49/36 52/52/36 49/19/36
f 51/51/37 53/53/37 50/49/37
f 61/54/38 54/55/38 51/51/38
f 45/4/39 58/56/39 57/57/39
f 55/58/40 59/59/40 58/56/40
f 56/60/41 69/61/41 59/59/41
f 57/57/42 61/54/42 60/50/42
f 58/56/43 62/62/43 61/54/43
f 59/59/44 70/63/44 62/62/44
f 63/64/45 65/65/45 46/66/45
f 64/67/46 66/68/46 63/64/46
f 64/67/47 53/53/47 67/69/47
f 66/68/48 68/70/48 65/65/48
f 66/68/49 70/63/49 69/61/49
f 67/69/50 54/55/50 70/63/50
f 54/55/51 62/62/51 70/63/51
f 74/71/52 76/72/52 71/73/52
f 75/74/53 77/75/53 74/71/53
f 75/74/54 88/76/54 78/77/54
f 77/75/55 79/78/55 76/72/55
f 78/77/56 80/79/56 77/75/56
f 88/76/57 81/80/57 78/77/57
f 82/8/58 84/81/58 72/82/58
f 83/83/59 85/84/59 82/8/59
f 95/85/60 86/86/60 83/83/60
f 85/84/61 87/87/61 84/81/61
f 85/84/62 89/88/62 88/76/62
f 96/89/63 89/88/63 86/86/63
f 73/16/64 93/90/64 92/91/64
f 90/92/65 94/93/65 93/90/65
f 91/94/66 80/79/66 94/93/66
f 92/91/67 96/89/67 95/85/67
f 93/90/68 97/95/68 96/89/68
f 94/93/69 81/80/69 97/95/69
f 81/80/70 89/88/70 97/95/70
f 101/96/71 103/97/71 98/96/71
f 102/96/72 104/98/72 101/96/72
f 114/99/73 105/100/73 102/96/73
f 104/98/74 106/101/74 103/97/74
f 105/100/75 107/102/75 104/98/75
f 115/103/76 108/104/76 105/100/76
f 109/105/77 111/106/77 99/14/77
f 110/107/78 112/108/78 109/105/78
f 122/109/79 113/110/79 110/107/79
f 112/108/80 114/99/80 111/106/80
f 112/108/81 116/111/81 115/103/81
f 123/112/82 116/111/82 113/110/82
f 100/7/83 120/113/83 119/114/83
f 117/115/84 121/116/84 120/113/84
f 118/117/85 107/102/85 121/116/85
f 119/114/86 123/112/86 122/109/86
f 120/113/87 124/118/87 123/112/87
f 121/116/88 108/104/88 124/118/88
f 108/104/89 116/111/89 124/118/89
f 128/119/90 130/47/90 125/19/90
f 129/19/91 131/120/91 128/119/91
f 141/121/92 132/122/92 129/19/92
f 131/120/93 133/123/93 130/47/93
f 132/122/94 134/124/94 131/120/94
f 142/125/95 135/55/95 132/122/95
f 126/22/96 139/126/96 138/127/96
f 136/128/97 140/129/97 139/126/97
f 137/70/98 150/130/98 140/129/98
f 138/127/99 142/125/99 141/121/99
f 139/126/100 143/131/100 142/125/100
f 140/129/101 151/132/101 143/131/101
f 144/133/102 146/134/102 127/4/102
f 145/135/103 147/136/103 144/133/103
f 133/123/104 148/137/104 145/135/104
f 147/136/105 149/60/105 146/134/105
f 147/136/106 151/132/106 150/130/106
f 148/137/107 135/55/107 151/132/107
f 135/55/108 143/131/108 151/132/108
f 155/138/109 157/139/109 152/18/109
f 156/140/110 158/141/110 155/138/110
f 156/140/111 169/142/111 159/143/111
f 158/141/112 160/139/112 157/139/112
f 159/143/113 161/144/113 158/141/113
f 169/142/114 162/145/114 159/143/114
f 163/109/115 165/146/115 153/7/115
f 164/147/116 166/148/116 163/109/116
f 176/149/117 167/150/117 164/147/117
f 166/148/118 168/151/118 165/146/118
f 166/148/119 170/152/119 169/142/119
f 177/153/120 170/152/120 167/150/120
f 154/20/121 174/154/121 173/155/121
f 171/156/122 175/157/122 174/154/122
f 172/158/123 161/144/123 175/157/123
f 173/155/124 177/153/124 176/149/124
f 174/154/125 178/159/125 177/153/125
f 175/157/126 162/145/126 178/159/126
f 162/145/127 170/152/127 178/159/127
f 182/160/128 184/26/128 179/26/128
f 183/161/129 185/162/129 182/160/129
f 195/163/130 186/164/130 183/161/130
f 185/162/131 187/26/131 184/26/131
f 186/164/132 188/165/132 185/162/132
f 196/166/133 189/167/133 186/164/133
f 180/5/134 193/168/134 192/169/134
f 190/46/135 194/170/135 193/168/135
f 191/6/136 204/171/136 194/170/136
f 192/169/137 196/166/137 195/163/137
f 193/168/138 197/172/138 196/166/138
f 194/170/139 205/40/139 197/172/139
f 198/35/140 200/173/140 181/21/140
f 199/174/141 201/175/141 198/35/141
f 199/174/142 188/165/142 202/176/142
f 201/175/143 203/38/143 200/173/143
f 201/175/144 205/40/144 204/171/144
f 202/176/145 189/167/145 205/40/145
f 189/167/146 197/172/146 205/40/146
f 209/73/147 211/71/147 206/177/147
f 210/178/148 212/179/148 209/73/148
f 222/180/149 213/181/149 210/178/149
f 212/179/150 214/182/150 211/71/150
f 213/181/151 215/183/151 212/179/151
f 223/184/152 216/185/152 213/181/152
f 217/186/153 219/187/153 207/188/153
f 218/189/154 220/190/154 217/186/154
f 230/82/155 221/191/155 218/189/155
f 220/190/156 222/180/156 219/187/156
f 220/190/157 224/192/157 223/184/157
f 231/193/158 224/192/158 221/191/158
f 208/8/159 228/194/159 227/195/159
f 225/196/160 229/197/160 228/194/160
f 226/87/161 215/183/161 229/197/161
f 227/195/162 231/193/162 230/82/162
f 228/194/163 232/198/163 231/193/163
f 229/197/164 216/185/164 232/198/164
f 216/185/165 224/192/165 232/198/165
f 18/15/166 90/92/166 73/16/166
f 90/92/167 33/28/167 91/94/167
f 33/28/168 79/78/168 91/94/168
f 21/26/169 76/72/169 79/78/169
f 76/72/170 17/25/170 71/73/170
f 44/17/171 101/96/171 98/96/171
f 101/96/172 52/52/172 102/96/172
f 102/96/173 64/67/173 114/99/173
f 64/67/174 111/106/174 114/99/174
f 63/64/175 99/14/175 111/106/175
f 46/66/176 28/36/176 18/15/176
f 65/65/177 29/38/177 28/36/177
f 68/70/178 41/46/178 29/38/178
f 56/60/179 38/6/179 41/46/179
f 55/58/180 19/6/180 38/6/180
f 72/82/181 119/114/181 82/8/181
f 82/8/182 122/109/182 83/83/182
f 83/83/183 110/107/183 95/85/183
f 95/85/184 109/105/184 92/91/184
f 92/91/185 99/14/185 73/16/185
f 179/26/186 22/24/186 182/160/186
f 182/160/187 25/30/187 183/161/187
f 183/161/188 37/43/188 195/163/188
f 195/163/189 36/42/189 192/169/189
f 192/169/190 19/6/190 180/5/190
f 44/17/191 130/47/191 47/47/191
f 47/47/192 133/123/192 48/48/192
f 48/48/193 145/135/193 60/50/193
f 60/50/194 144/133/194 57/57/194
f 57/57/195 127/4/195 45/4/195
f 98/96/196 155/138/196 152/18/196
f 103/97/197 156/140/197 155/138/197
f 106/101/198 168/151/198 156/140/198
f 118/117/199 165/146/199 168/151/199
f 117/115/200 153/7/200 165/146/200
f 206/177/201 74/71/201 71/73/201
f 211/71/202 75/74/202 74/71/202
f 214/182/203 87/87/203 75/74/203
f 226/87/204 84/81/204 87/87/204
f 225/196/205 72/82/205 84/81/205
f 207/188/206 173/155/206 217/186/206
f 217/186/207 176/149/207 218/189/207
f 218/189/208 164/147/208 230/82/208
f 230/82/209 163/109/209 227/195/209
f 227/195/210 153/7/210 208/8/210
f 127/4/211 190/46/211 180/5/211
f 146/134/212 191/6/212 190/46/212
f 149/60/213 203/38/213 191/6/213
f 137/70/214 200/173/214 203/38/214
f 136/128/215 181/21/215 200/173/215
f 126/22/216 171/156/216 154/20/216
f 138/127/217 172/158/217 171/156/217
f 141/121/218 160/139/218 172/158/218
f 160/139/219 128/119/219 157/139/219
f 157/139/220 125/19/220 152/18/220
f 179/26/221 209/73/221 206/177/221
f 184/26/222 210/178/222 209/73/222
f 187/26/223 222/180/223 210/178/223
f 199/174/224 219/187/224 222/180/224
f 198/35/225 207/188/225 219/187/225
f 17/25/226 206/177/226 71/73/226
f 1/1/1 2/13/1 6/2/1
f 45/4/2 127/4/2 180/5/2
f 100/7/3 72/82/3 208/8/3
f 10/9/2 3/9/2 7/10/2
f 16/11/3 15/12/3 8/12/3
f 2/13/4 11/13/4 12/2/4
f 99/14/5 46/66/5 18/15/5
f 10/9/6 16/11/6 4/11/6
f 1/1/7 5/3/7 14/3/7
f 5/3/3 6/2/3 12/2/3
f 16/11/8 10/9/8 9/10/8
f 9/10/9 7/10/9 8/12/9
f 44/17/10 98/96/10 152/18/10
f 154/20/11 207/188/11 181/21/11
f 1/1/2 13/1/2 11/13/2
f 4/11/12 8/12/12 7/10/12
f 12/2/13 11/13/13 13/1/13
f 20/23/227 23/27/227 22/24/227
f 21/26/228 24/29/228 23/27/228
f 33/28/229 34/32/229 24/29/229
f 23/27/230 26/31/230 25/30/230
f 24/29/231 27/33/231 26/31/231
f 34/32/232 35/40/232 27/33/232
f 18/15/233 28/36/233 31/34/233
f 28/36/234 29/38/234 32/37/234
f 29/38/235 41/46/235 42/39/235
f 30/35/236 31/34/236 34/32/236
f 31/34/237 32/37/237 35/40/237
f 32/37/238 42/39/238 43/41/238
f 36/42/239 39/44/239 38/6/239
f 37/43/240 40/45/240 39/44/240
f 25/30/241 26/31/241 40/45/241
f 39/44/242 42/39/242 41/46/242
f 39/44/243 40/45/243 43/41/243
f 40/45/244 26/31/244 27/33/244
f 47/47/245 50/49/245 49/19/245
f 48/48/246 51/51/246 50/49/246
f 60/50/247 61/54/247 51/51/247
f 50/49/248 53/53/248 52/52/248
f 51/51/249 54/55/249 53/53/249
f 61/54/250 62/62/250 54/55/250
f 45/4/251 55/58/251 58/56/251
f 55/58/252 56/60/252 59/59/252
f 56/60/253 68/70/253 69/61/253
f 57/57/254 58/56/254 61/54/254
f 58/56/255 59/59/255 62/62/255
f 59/59/256 69/61/256 70/63/256
f 63/64/257 66/68/257 65/65/257
f 64/67/258 67/69/258 66/68/258
f 64/67/259 52/52/259 53/53/259
f 66/68/260 69/61/260 68/70/260
f 66/68/261 67/69/261 70/63/261
f 67/69/262 53/53/262 54/55/262
f 74/71/263 77/75/263 76/72/263
f 75/74/264 78/77/264 77/75/264
f 75/74/54 87/87/54 88/76/54
f 77/75/265 80/79/265 79/78/265
f 78/77/266 81/80/266 80/79/266
f 88/76/267 89/88/267 81/80/267
f 82/8/268 85/84/268 84/81/268
f 83/83/269 86/86/269 85/84/269
f 95/85/270 96/89/270 86/86/270
f 85/84/271 88/76/271 87/87/271
f 85/84/272 86/86/272 89/88/272
f 96/89/273 97/95/273 89/88/273
f 73/16/274 90/92/274 93/90/274
f 90/92/275 91/94/275 94/93/275
f 91/94/276 79/78/276 80/79/276
f 92/91/277 93/90/277 96/89/277
f 93/90/278 94/93/278 97/95/278
f 94/93/279 80/79/279 81/80/279
f 101/96/280 104/98/280 103/97/280
f 102/96/281 105/100/281 104/98/281
f 114/99/282 115/103/282 105/100/282
f 104/98/283 107/102/283 106/101/283
f 105/100/284 108/104/284 107/102/284
f 115/103/285 116/111/285 108/104/285
f 109/105/286 112/108/286 111/106/286
f 110/107/287 113/110/287 112/108/287
f 122/109/288 123/112/288 113/110/288
f 112/108/289 115/103/289 114/99/289
f 112/108/290 113/110/290 116/111/290
f 123/112/291 124/118/291 116/111/291
f 100/7/292 117/115/292 120/113/292
f 117/115/293 118/117/293 121/116/293
f 118/117/294 106/101/294 107/102/294
f 119/114/295 120/113/295 123/112/295
f 120/113/296 121/116/296 124/118/296
f 121/116/297 107/102/297 108/104/297
f 128/119/298 131/120/298 130/47/298
f 129/19/299 132/122/299 131/120/299
f 141/121/300 142/125/300 132/122/300
f 131/120/301 134/124/301 133/123/301
f 132/122/302 135/55/302 134/124/302
f 142/125/303 143/131/303 135/55/303
f 126/22/304 136/128/304 139/126/304
f 136/128/305 137/70/305 140/129/305
f 137/70/306 149/60/306 150/130/306
f 138/127/307 139/126/307 142/125/307
f 139/126/308 140/129/308 143/131/308
f 140/129/309 150/130/309 151/132/309
f 144/133/310 147/136/310 146/134/310
f 145/135/311 148/137/311 147/136/311
f 133/123/312 134/124/312 148/137/312
f 147/136/313 150/130/313 149/60/313
f 147/136/314 148/137/314 151/132/314
f 148/137/315 134/124/315 135/55/315
f 155/138/316 158/141/316 157/139/316
f 156/140/317 159/143/317 158/141/317
f 156/140/318 168/151/318 169/142/318
f 158/141/319 161/144/319 160/139/319
f 159/143/320 162/145/320 161/144/320
f 169/142/321 170/152/321 162/145/321
f 163/109/322 166/148/322 165/146/322
f 164/147/323 167/150/323 166/148/323
f 176/149/324 177/153/324 167/150/324
f 166/148/325 169/142/325 168/151/325
f 166/148/326 167/150/326 170/152/326
f 177/153/327 178/159/327 170/152/327
f 154/20/328 171/156/328 174/154/328
f 171/156/329 172/158/329 175/157/329
f 172/158/330 160/139/330 161/144/330
f 173/155/331 174/154/331 177/153/331
f 174/154/332 175/157/332 178/159/332
f 175/157/333 161/144/333 162/145/333
f 182/160/334 185/162/334 184/26/334
f 183/161/335 186/164/335 185/162/335
f 195/163/130 196/166/130 186/164/130
f 185/162/336 188/165/336 187/26/336
f 186/164/337 189/167/337 188/165/337
f 196/166/338 197/172/338 189/167/338
f 180/5/339 190/46/339 193/168/339
f 190/46/340 191/6/340 194/170/340
f 191/6/341 203/38/341 204/171/341
f 192/169/342 193/168/342 196/166/342
f 193/168/343 194/170/343 197/172/343
f 194/170/344 204/171/344 205/40/344
f 198/35/345 201/175/345 200/173/345
f 199/174/346 202/176/346 201/175/346
f 199/174/347 187/26/347 188/165/347
f 201/175/348 204/171/348 203/38/348
f 201/175/349 202/176/349 205/40/349
f 202/176/350 188/165/350 189/167/350
f 209/73/351 212/179/351 211/71/351
f 210/178/352 213/181/352 212/179/352
f 222/180/353 223/184/353 213/181/353
f 212/179/354 215/183/354 214/182/354
f 213/181/355 216/185/355 215/183/355
f 223/184/356 224/192/356 216/185/356
f 217/186/357 220/190/357 219/187/357
f 218/189/358 221/191/358 220/190/358
f 230/82/359 231/193/359 221/191/359
f 220/190/360 223/184/360 222/180/360
f 220/190/361 221/191/361 224/192/361
f 231/193/362 232/198/362 224/192/362
f 208/8/363 225/196/363 228/194/363
f 225/196/364 226/87/364 229/197/364
f 226/87/365 214/182/365 215/183/365
f 227/195/366 228/194/366 231/193/366
f 228/194/367 229/197/367 232/198/367
f 229/197/368 215/183/368 216/185/368
f 18/15/369 30/35/369 90/92/369
f 90/92/167 30/35/167 33/28/167
f 33/28/370 21/26/370 79/78/370
f 21/26/169 20/23/169 76/72/169
f 76/72/371 20/23/371 17/25/371
f 44/17/372 49/19/372 101/96/372
f 101/96/373 49/19/373 52/52/373
f 102/96/173 52/52/173 64/67/173
f 64/67/174 63/64/174 111/106/174
f 63/64/374 46/66/374 99/14/374
f 46/66/176 65/65/176 28/36/176
f 65/65/375 68/70/375 29/38/375
f 68/70/178 56/60/178 41/46/178
f 56/60/376 55/58/376 38/6/376
f 55/58/180 45/4/180 19/6/180
f 72/82/377 100/7/377 119/114/377
f 82/8/378 119/114/378 122/109/378
f 83/83/183 122/109/183 110/107/183
f 95/85/379 110/107/379 109/105/379
f 92/91/185 109/105/185 99/14/185
f 179/26/380 17/25/380 22/24/380
f 182/160/187 22/24/187 25/30/187
f 183/161/188 25/30/188 37/43/188
f 195/163/381 37/43/381 36/42/381
f 192/169/382 36/42/382 19/6/382
f 44/17/191 125/19/191 130/47/191
f 47/47/192 130/47/192 133/123/192
f 48/48/193 133/123/193 145/135/193
f 60/50/194 145/135/194 144/133/194
f 57/57/383 144/133/383 127/4/383
f 98/96/196 103/97/196 155/138/196
f 103/97/384 106/101/384 156/140/384
f 106/101/385 118/117/385 168/151/385
f 118/117/386 117/115/386 165/146/386
f 117/115/387 100/7/387 153/7/387
f 206/177/201 211/71/201 74/71/201
f 211/71/202 214/182/202 75/74/202
f 214/182/388 226/87/388 87/87/388
f 226/87/389 225/196/389 84/81/389
f 225/196/390 208/8/390 72/82/390
f 207/188/206 154/20/206 173/155/206
f 217/186/207 173/155/207 176/149/207
f 218/189/391 176/149/391 164/147/391
f 230/82/392 164/147/392 163/109/392
f 227/195/210 163/109/210 153/7/210
f 127/4/211 146/134/211 190/46/211
f 146/134/393 149/60/393 191/6/393
f 149/60/213 137/70/213 203/38/213
f 137/70/394 136/128/394 200/173/394
f 136/128/215 126/22/215 181/21/215
f 126/22/216 138/127/216 171/156/216
f 138/127/217 141/121/217 172/158/217
f 141/121/218 129/19/218 160/139/218
f 160/139/219 129/19/219 128/119/219
f 157/139/220 128/119/220 125/19/220
f 179/26/221 184/26/221 209/73/221
f 184/26/222 187/26/222 210/178/222
f 187/26/223 199/174/223 222/180/223
f 199/174/224 198/35/224 219/187/224
f 198/35/225 181/21/225 207/188/225
f 17/25/226 179/26/226 206/177/226
