# Blender 5.2.2 LTS
# www.blender.org
o ScifiCafe.012
v -0.580425 -5.190386 1.863780
v -0.580425 -5.190386 4.532971
v -0.491555 -5.687150 4.532971
v -0.491556 -5.687150 1.863780
v -0.139944 -5.237671 4.875651
v 1.257829 -5.275949 5.734458
v -0.066535 -5.710776 4.731663
v 1.331238 -5.749052 5.590470
v 0.583322 -5.257478 5.320034
v 0.656732 -5.730581 5.176045
v -0.194193 -6.556352 1.807020
v -0.194193 -5.153086 1.807020
v -0.305063 -5.153086 1.343028
v -0.305063 -6.556352 1.343028
v -0.194193 -5.879195 1.807020
v -0.305063 -5.879195 1.343028
v -0.316545 -9.098468 4.354971
v -0.316545 -7.454019 4.354971
v 0.007581 -9.098467 4.788609
v 0.007580 -7.454019 4.788608
v -0.316545 -8.304926 4.354971
v 0.007580 -8.304925 4.788608
v 1.394818 -5.541318 6.105474
v 1.394818 -7.187465 6.105474
v 1.394818 -7.187465 5.502804
v 1.394818 -5.541318 5.502803
v 1.394818 -6.393104 6.105474
v 1.394818 -6.393104 5.502803
v -0.329988 -5.626846 1.957558
v -0.329988 -7.119987 1.957558
v 0.164790 -7.119987 2.228297
v 0.164790 -5.626846 2.228297
v -0.329988 -6.399459 1.957558
v 0.164790 -6.399459 2.228297
v 1.300177 -5.714609 5.584870
v 1.237237 -5.308978 5.708323
v 0.614383 -5.291922 5.325634
v 0.677323 -5.697553 5.202181
v 0.625671 -5.696138 5.170445
v 0.562731 -5.290507 5.293898
v -0.108883 -5.272115 4.881251
v -0.045943 -5.677746 4.757798
v -0.297246 -5.853267 1.375741
v -0.202010 -5.853267 1.774307
v -0.202010 -5.179013 1.774307
v -0.297246 -5.179013 1.375741
v -0.297246 -6.530425 1.375742
v -0.202009 -6.530425 1.774307
v -0.202010 -5.905122 1.774307
v -0.297246 -5.905122 1.375741
v -0.295030 -9.068083 4.383756
v -0.013935 -9.068083 4.759824
v -0.013935 -8.335309 4.759823
v -0.295030 -8.335309 4.383756
v -0.295030 -8.274542 4.383756
v -0.013935 -8.274542 4.759823
v -0.013935 -7.484403 4.759824
v -0.295030 -7.484404 4.383756
v 1.394818 -6.362689 5.543039
v 1.394818 -6.362689 6.065238
v 1.394818 -5.571733 6.065238
v 1.394818 -5.571733 5.543039
v 1.394818 -7.157051 5.543039
v 1.394818 -7.157051 6.065238
v 1.394818 -6.423519 6.065238
v 1.394818 -6.423519 5.543039
v -0.297696 -7.092399 1.975228
v 0.132498 -7.092399 2.210627
v 0.132498 -6.427048 2.210627
v -0.297696 -6.427048 1.975228
v -0.297696 -6.371871 1.975228
v 0.132498 -6.371871 2.210627
v 0.132498 -5.654434 2.210627
v -0.297696 -5.654434 1.975228
v 1.257284 -5.296105 5.676246
v 0.634430 -5.279049 5.293557
v 0.582777 -5.277634 5.261821
v -0.088837 -5.259243 4.849174
v 0.645717 -5.683265 5.138368
v -0.025896 -5.664874 4.725721
v 1.320224 -5.701736 5.552793
v 0.697370 -5.684680 5.170104
v -0.260723 -6.530425 1.367015
v -0.260723 -5.905122 1.367015
v -0.165486 -6.530425 1.765580
v -0.165486 -5.905122 1.765580
v -0.165486 -5.853267 1.765580
v -0.165487 -5.179013 1.765580
v -0.260723 -5.853267 1.367015
v -0.260723 -5.179013 1.367015
v 0.017511 -9.068083 4.736319
v 0.017511 -8.335309 4.736319
v -0.263584 -9.068083 4.360251
v -0.263584 -8.335309 4.360251
v -0.263584 -8.274542 4.360251
v -0.263584 -7.484404 4.360251
v 0.017511 -7.484403 4.736319
v 0.017511 -8.274542 4.736319
v 1.438869 -7.157051 5.543039
v 1.438869 -6.423519 5.543039
v 1.438869 -7.157051 6.065238
v 1.438869 -6.423519 6.065238
v 1.438869 -6.362689 6.065238
v 1.438869 -5.571733 6.065238
v 1.438868 -6.362689 5.543039
v 1.438868 -5.571733 5.543038
v -0.278516 -7.092399 1.940176
v -0.278516 -6.427048 1.940176
v -0.278516 -6.371871 1.940176
v -0.278516 -5.654434 1.940176
v 0.151678 -5.654434 2.175575
v 0.151678 -7.092399 2.175575
v 0.151678 -6.371871 2.175575
v 0.151678 -6.427048 2.175575
v -0.580425 -5.190386 3.114308
v -0.491556 -5.687150 3.114308
v -0.580425 -5.190386 3.157001
v -0.491556 -5.687150 3.157002
v -0.580425 -5.190386 4.496130
v -0.491555 -5.687150 4.496131
v -0.502282 -5.627193 1.924688
v -0.502282 -5.627193 3.053399
v -0.569699 -5.250343 3.053399
v -0.569699 -5.250343 1.924688
v -0.502282 -5.627193 3.217910
v -0.502282 -5.627193 4.435223
v -0.569699 -5.250343 4.435223
v -0.569699 -5.250343 3.217910
v -0.472755 -5.621912 1.924688
v -0.540173 -5.245060 1.924688
v -0.540173 -5.245060 3.053399
v -0.472755 -5.621912 3.053399
v -0.540173 -5.245060 4.435222
v -0.540173 -5.245060 3.217910
v -0.472755 -5.621912 4.435222
v -0.472755 -5.621912 3.217910
v -0.486911 -5.173656 1.863780
v -0.486910 -5.173656 4.532971
v -0.398041 -5.670421 4.532971
v -0.398041 -5.670421 1.863780
v -0.092282 -5.207066 4.799385
v 1.305491 -5.245343 5.658192
v -0.018872 -5.680169 4.655397
v 1.378900 -5.718446 5.514205
v 0.630984 -5.226872 5.243768
v 0.704394 -5.699975 5.099779
v -0.107356 -6.556352 1.786270
v -0.107356 -5.153086 1.786270
v -0.218226 -5.153086 1.322279
v -0.218226 -6.556352 1.322279
v -0.107356 -5.879195 1.786270
v -0.218226 -5.879195 1.322279
v -0.241779 -9.098467 4.299088
v -0.241780 -7.454019 4.299087
v 0.082346 -9.098467 4.732724
v 0.082346 -7.454019 4.732724
v -0.241780 -8.304925 4.299087
v 0.082346 -8.304925 4.732724
v 1.499552 -5.541318 6.105474
v 1.499552 -7.187465 6.105474
v 1.499552 -7.187465 5.502804
v 1.499552 -5.541318 5.502803
v 1.499552 -6.393104 6.105474
v 1.499552 -6.393104 5.502804
v -0.284386 -5.626846 1.874219
v -0.284386 -7.119987 1.874219
v 0.210392 -7.119987 2.144958
v 0.210392 -5.626846 2.144958
v -0.284386 -6.399459 1.874219
v 0.210393 -6.399459 2.144958
v -0.486910 -5.173656 3.114308
v -0.398041 -5.670421 3.114308
v -0.486910 -5.173656 3.157001
v -0.398041 -5.670421 3.157002
v -0.486911 -5.173656 4.496131
v -0.398041 -5.670421 4.496130
v -0.524634 -4.878916 4.580953
v -0.292158 -4.878916 4.986882
v -0.524634 -5.534855 4.580953
v -0.292158 -5.534855 4.986882
v -0.307590 -5.558277 4.959936
v -0.509202 -5.558277 4.607898
v -0.509202 -5.511433 4.607898
v -0.307589 -5.511433 4.959936
v -0.307590 -4.902338 4.959937
v -0.509203 -4.902338 4.607898
v -0.479766 -5.511433 4.591040
v -0.479766 -4.902338 4.591040
v -0.278153 -4.902338 4.943078
v -0.278153 -5.511433 4.943078
v -0.454646 -4.878916 4.540871
v -0.222169 -4.878916 4.946799
v -0.454646 -5.534855 4.540871
v -0.222169 -5.534855 4.946799
v -0.485786 -9.329804 2.811028
v -0.485786 -7.604698 2.811028
v -0.340079 -7.604698 2.242951
v -0.340079 -9.329804 2.242951
v -0.485786 -8.497340 2.811028
v -0.340079 -8.497340 2.242951
v -0.350352 -8.465466 2.283002
v -0.475513 -8.465466 2.770976
v -0.475513 -7.636571 2.770976
v -0.350352 -7.636571 2.283002
v -0.350352 -9.297930 2.283002
v -0.475513 -9.297930 2.770976
v -0.475513 -8.529214 2.770976
v -0.350352 -8.529214 2.283002
v -0.305636 -9.297930 2.294472
v -0.305636 -8.529214 2.294472
v -0.430798 -9.297930 2.782445
v -0.430798 -8.529214 2.782445
v -0.430798 -8.465466 2.782445
v -0.430798 -7.636571 2.782445
v -0.305636 -8.465466 2.294472
v -0.305636 -7.636571 2.294472
v -0.379470 -9.329804 2.838297
v -0.379470 -7.604698 2.838297
v -0.233763 -7.604698 2.270220
v -0.233763 -9.329804 2.270220
v -0.379470 -8.497340 2.838297
v -0.233762 -8.497340 2.270220
v 1.130128 -6.670078 5.310618
v 1.281000 -6.670078 5.574059
v 1.130128 -7.095771 5.310618
v 1.281000 -7.095771 5.574059
v 1.270986 -7.110971 5.556571
v 1.140143 -7.110971 5.328105
v 1.140143 -7.080570 5.328105
v 1.270986 -7.080570 5.556571
v 1.270986 -6.685279 5.556571
v 1.140143 -6.685279 5.328105
v 1.159246 -7.080570 5.317164
v 1.159246 -6.685279 5.317165
v 1.290089 -6.685279 5.545630
v 1.290089 -7.080570 5.545630
v 1.175549 -6.670078 5.284606
v 1.326421 -6.670078 5.548045
v 1.175549 -7.095771 5.284606
v 1.326421 -7.095771 5.548045
v 4.814920 -5.435914 6.330011
v 4.814919 -6.668850 6.330012
v 5.063809 -6.668850 6.723649
v 5.063808 -5.435914 6.723649
v 4.814919 -6.073886 6.330012
v 5.063808 -6.073886 6.723649
v 4.831164 -6.646070 6.355702
v 5.047565 -6.646070 6.697958
v 5.047565 -6.096667 6.697958
v 4.831164 -6.096667 6.355702
v 4.831164 -6.051105 6.355702
v 5.047565 -6.051105 6.697958
v 5.047565 -5.458694 6.697957
v 4.831164 -5.458694 6.355702
v 4.859051 -6.646070 6.338071
v 4.859051 -6.096667 6.338071
v 4.859051 -6.051105 6.338071
v 4.859051 -5.458694 6.338070
v 5.075451 -5.458694 6.680326
v 5.075451 -6.646070 6.680326
v 5.075451 -6.051105 6.680326
v 5.075451 -6.096667 6.680326
v 4.881224 -5.435914 6.288090
v 4.881224 -6.668850 6.288090
v 5.130112 -6.668850 6.681727
v 5.130111 -5.435914 6.681726
v 4.881224 -6.073886 6.288090
v 5.130111 -6.073886 6.681726
vn -0.9844 -0.1761 -0.0000
vn -0.8525 0.0266 -0.5221
vn 0.5987 -0.0000 0.8010
vn -0.0000 1.0000 -0.0000
vn 0.8773 -0.0000 0.4800
vn -0.1499 0.9464 0.2861
vn 0.1499 -0.9464 -0.2861
vn -0.5987 -0.0000 -0.8010
vn -0.5020 -0.3222 0.8026
vn -0.9726 -0.0000 0.2324
vn -0.8010 -0.0000 0.5987
vn -1.0000 -0.0000 -0.0000
vn -0.4800 -0.0000 0.8773
vn -0.4800 -0.0000 0.8772
vn -0.0000 -1.0000 -0.0000
vn 0.8525 -0.0266 0.5221
vn -0.8773 -0.0000 -0.4800
vn 0.2324 -0.0000 0.9726
vn -0.0000 -0.0000 1.0000
vn -0.2324 -0.0000 -0.9726
vn -0.0000 -0.0000 -1.0000
vn -0.1761 0.9844 -0.0000
vn 0.1761 -0.9844 -0.0000
vn 0.4970 -0.0000 0.8678
vn -0.8678 -0.0000 0.4970
vn -0.4970 -0.0000 -0.8678
vn -0.9686 -0.0000 -0.2485
vn -0.9686 -0.0000 -0.2484
vn -0.2485 -0.0000 0.9686
vn 0.2485 -0.0000 -0.9686
vn 0.2484 -0.0000 -0.9686
vn -0.2484 -0.0000 0.9686
vn 0.5344 -0.0000 0.8452
vn -0.8452 -0.0000 0.5344
vn -0.5344 -0.0000 -0.8452
vt 0.775280 0.206623
vt 0.768233 0.403656
vt 0.767527 0.206694
vt 0.217507 0.407430
vt 0.311540 0.408588
vt 0.215077 0.672361
vt 0.309697 0.676299
vt 0.429448 0.681375
vt 0.428343 0.951398
vt 0.546681 0.686303
vt 0.651242 0.690656
vt 0.662991 0.691193
vt 0.663329 0.968049
vt 0.212648 0.936115
vt 0.430548 0.410144
vt 0.429523 0.660561
vt 0.662642 0.413100
vt 0.662955 0.669854
vt 0.307871 0.942903
vt 0.535378 0.411436
vt 0.534975 0.664802
vt 0.317447 0.398425
vt 0.211764 0.397199
vt 0.309847 0.655838
vt 0.209297 0.661957
vt 0.315640 0.666309
vt 0.215254 0.652033
vt 0.206652 0.945854
vt 0.313703 0.953558
vt 0.423617 0.670728
vt 0.321445 0.676833
vt 0.422398 0.961380
vt 0.417699 0.680839
vt 0.416540 0.950603
vt 0.319674 0.943699
vt 0.424753 0.399670
vt 0.323216 0.408776
vt 0.418872 0.409954
vt 0.417798 0.660136
vt 0.321572 0.656265
vt 0.541231 0.401022
vt 0.540822 0.675524
vt 0.534932 0.685766
vt 0.534497 0.958963
vt 0.540383 0.969870
vt 0.657104 0.680283
vt 0.651526 0.967256
vt 0.657439 0.978294
vt 0.546300 0.959757
vt 0.650966 0.412908
vt 0.547053 0.411627
vt 0.656792 0.402363
vt 0.651230 0.669429
vt 0.546700 0.665226
vt 0.770223 0.414426
vt 0.777078 0.685193
vt 0.776021 0.403746
vt 0.771175 0.674205
vt 0.771244 0.695700
vt 0.778212 0.986985
vt 0.772270 0.975813
vt 0.498449 0.232296
vt 0.754776 0.230509
vt 0.485678 0.209274
vt 0.476121 0.400266
vt 0.476692 0.209356
vt 0.498070 0.377381
vt 0.226118 0.234102
vt 0.213491 0.211765
vt 0.463329 0.377149
vt 0.463788 0.232441
vt 0.224832 0.374893
vt 0.755288 0.379809
vt 0.485146 0.400371
s 0
f 3/1/1 119/2/1 120/3/1
f 35/4/2 75/5/2 81/4/2
f 39/6/2 77/7/2 79/6/2
f 55/8/3 96/9/3 58/9/3
f 59/10/4 103/11/4 105/10/4
f 71/12/5 110/13/5 74/13/5
f 39/6/6 80/14/6 42/14/6
f 51/15/3 94/16/3 54/16/3
f 67/17/5 108/18/5 70/18/5
f 40/7/7 78/19/7 77/7/7
f 52/20/8 92/21/8 91/20/8
f 6/22/9 35/4/9 8/23/9
f 6/22/9 37/24/9 36/5/9
f 10/25/9 37/24/9 9/26/9
f 10/25/9 35/4/9 38/27/9
f 9/26/9 39/6/9 10/25/9
f 9/26/9 41/19/9 40/7/9
f 7/28/9 41/19/9 5/29/9
f 7/28/9 39/6/9 42/14/9
f 15/30/10 43/31/10 16/26/10
f 12/32/10 44/33/10 15/30/10
f 13/29/10 45/34/10 12/32/10
f 13/29/10 43/31/10 46/35/10
f 11/36/10 47/37/10 14/22/10
f 15/30/10 48/38/10 11/36/10
f 16/26/10 49/39/10 15/30/10
f 16/26/10 47/37/10 50/40/10
f 17/36/11 52/20/11 51/15/11
f 19/41/11 53/21/11 52/20/11
f 22/42/11 54/16/11 53/21/11
f 21/30/11 51/15/11 54/16/11
f 21/30/11 56/43/11 55/8/11
f 22/42/11 57/44/11 56/43/11
f 20/45/11 58/9/11 57/44/11
f 21/30/11 58/9/11 18/32/11
f 28/42/12 60/11/12 59/10/12
f 27/46/12 61/47/12 60/11/12
f 26/45/12 61/47/12 23/48/12
f 28/42/12 62/49/12 26/45/12
f 25/41/12 64/50/12 63/51/12
f 24/52/12 65/53/12 64/50/12
f 28/42/12 65/53/12 27/46/12
f 25/41/12 66/54/12 28/42/12
f 30/52/13 68/55/13 67/17/13
f 34/56/13 68/55/13 31/57/13
f 33/46/13 69/58/13 34/56/13
f 30/52/13 70/18/13 33/46/13
f 33/46/13 72/59/13 71/12/13
f 32/60/13 72/59/13 34/56/13
f 32/60/14 74/13/14 73/61/14
f 29/48/13 71/12/13 74/13/13
f 75/5/9 82/27/9 81/4/9
f 77/7/9 80/14/9 79/6/9
f 87/33/10 90/35/10 89/31/10
f 85/38/10 84/40/10 83/37/10
f 93/15/11 92/21/11 94/16/11
f 98/43/11 96/9/11 95/8/11
f 103/11/12 106/49/12 105/10/12
f 101/50/12 100/54/12 99/51/12
f 107/17/13 114/58/13 108/18/13
f 109/12/13 111/61/13 110/13/13
f 73/61/15 110/13/15 111/61/15
f 52/20/4 93/15/4 51/15/4
f 42/14/16 78/19/16 41/19/16
f 68/55/4 107/17/4 67/17/4
f 57/44/15 96/9/15 97/44/15
f 35/4/6 82/27/6 38/27/6
f 69/58/15 108/18/15 114/58/15
f 72/59/17 111/61/17 113/59/17
f 50/40/15 86/39/15 49/39/15
f 57/44/8 98/43/8 56/43/8
f 68/55/17 114/58/17 112/55/17
f 47/37/18 84/40/18 50/40/18
f 63/51/19 100/54/19 66/54/19
f 56/43/4 95/8/4 55/8/4
f 48/38/20 86/39/20 85/38/20
f 38/27/16 76/24/16 37/24/16
f 65/53/21 101/50/21 64/50/21
f 44/33/20 88/34/20 87/33/20
f 61/47/21 103/11/21 60/11/21
f 43/31/18 90/35/18 46/35/18
f 66/54/15 102/53/15 65/53/15
f 59/10/19 106/49/19 62/49/19
f 43/31/4 87/33/4 89/31/4
f 46/35/15 88/34/15 45/34/15
f 63/51/4 101/50/4 99/51/4
f 47/37/4 85/38/4 83/37/4
f 62/49/15 104/47/15 61/47/15
f 72/59/4 109/12/4 71/12/4
f 53/21/15 94/16/15 92/21/15
f 36/5/7 76/24/7 75/5/7
f 125/62/22 135/63/22 136/62/22
f 118/64/1 115/65/1 116/66/1
f 125/62/19 134/67/19 128/67/19
f 116/66/1 121/68/1 4/69/1
f 116/66/1 123/70/1 122/71/1
f 1/23/1 123/70/1 115/65/1
f 1/23/1 121/68/1 124/72/1
f 120/3/1 125/62/1 118/64/1
f 120/3/1 127/73/1 126/63/1
f 117/74/1 127/73/1 119/2/1
f 117/74/1 125/62/1 128/67/1
f 132/71/1 130/72/1 129/68/1
f 135/63/1 134/67/1 136/62/1
f 121/68/22 132/71/22 129/68/22
f 122/71/21 131/70/21 132/71/21
f 126/63/21 133/73/21 135/63/21
f 128/67/23 133/73/23 127/73/23
f 124/72/23 131/70/23 123/70/23
f 121/68/19 130/72/19 124/72/19
f 15/30/18 148/32/18 12/32/18
f 120/3/23 139/1/23 3/1/23
f 19/41/15 153/36/15 155/41/15
f 24/52/19 163/46/19 27/46/19
f 18/32/8 157/30/8 21/30/8
f 8/23/7 146/25/7 144/23/7
f 13/29/4 148/32/4 149/29/4
f 34/56/5 168/60/5 32/60/5
f 117/74/22 175/2/22 173/74/22
f 4/69/23 172/66/23 116/66/23
f 19/41/3 158/42/3 22/42/3
f 25/41/21 164/42/21 161/41/21
f 16/26/20 149/29/20 152/26/20
f 32/60/4 165/48/4 29/48/4
f 27/46/19 159/48/19 23/48/19
f 9/26/6 141/29/6 5/29/6
f 31/57/15 166/52/15 167/57/15
f 14/22/15 147/36/15 11/36/15
f 29/48/17 169/46/17 33/46/17
f 17/36/8 157/30/8 153/36/8
f 115/65/22 173/74/22 171/65/22
f 26/45/4 159/48/4 162/45/4
f 7/28/2 141/29/2 143/28/2
f 1/23/22 171/65/22 137/23/22
f 116/66/23 174/64/23 118/64/23
f 31/57/5 170/56/5 34/56/5
f 8/23/16 142/22/16 6/22/16
f 11/36/18 151/30/18 15/30/18
f 26/45/21 164/42/21 28/42/21
f 10/25/7 143/28/7 146/25/7
f 4/69/21 137/23/21 140/69/21
f 22/42/3 156/45/3 20/45/3
f 25/41/15 160/52/15 24/52/15
f 30/52/17 169/46/17 166/52/17
f 6/22/6 145/26/6 9/26/6
f 14/22/20 152/26/20 150/22/20
f 118/64/23 176/3/23 120/3/23
f 20/45/4 154/32/4 18/32/4
f 119/2/22 138/57/22 175/2/22
f 183/8/24 188/9/24 186/9/24
f 180/42/25 182/16/25 181/21/25
f 180/42/25 183/8/25 179/30/25
f 180/42/25 185/44/25 184/43/25
f 178/45/25 186/9/25 185/44/25
f 179/30/25 186/9/25 177/32/25
f 190/43/25 188/9/25 187/8/25
f 186/9/15 189/44/15 185/44/15
f 184/43/26 189/44/26 190/43/26
f 183/8/4 190/43/4 187/8/4
f 177/32/26 193/30/26 179/30/26
f 180/42/24 192/45/24 178/45/24
f 177/32/4 192/45/4 191/32/4
f 200/26/27 202/33/27 201/31/27
f 196/32/27 202/33/27 199/30/27
f 196/32/27 204/35/27 203/34/27
f 197/29/27 201/31/27 204/35/27
f 198/22/28 206/38/28 205/37/28
f 199/30/28 206/38/28 195/36/28
f 200/26/28 207/39/28 199/30/28
f 200/26/28 205/37/28 208/40/28
f 213/33/28 216/35/28 215/31/28
f 211/38/27 210/40/27 209/37/27
f 208/40/15 212/39/15 207/39/15
f 205/37/29 210/40/29 208/40/29
f 207/39/30 211/38/30 206/38/30
f 202/33/31 214/34/31 213/33/31
f 201/31/29 216/35/29 204/35/29
f 201/31/4 213/33/4 215/31/4
f 204/35/15 214/34/15 203/34/15
f 205/37/4 211/38/4 209/37/4
f 199/30/32 218/32/32 196/32/32
f 197/29/4 218/32/4 219/29/4
f 200/26/31 219/29/31 222/26/31
f 198/22/15 217/36/15 195/36/15
f 195/36/29 221/30/29 199/30/29
f 200/26/31 220/22/31 198/22/31
f 229/8/24 234/9/24 232/9/24
f 225/30/25 227/21/25 226/42/25
f 225/30/25 230/43/25 229/8/25
f 226/42/25 231/44/25 230/43/25
f 224/45/25 232/9/25 231/44/25
f 225/30/25 232/9/25 223/32/25
f 236/43/25 234/9/25 233/8/25
f 232/9/15 235/44/15 231/44/15
f 230/43/26 235/44/26 236/43/26
f 229/8/4 236/43/4 233/8/4
f 223/32/26 239/30/26 225/30/26
f 226/42/24 238/45/24 224/45/24
f 223/32/4 238/45/4 237/32/4
f 251/12/33 258/13/33 254/13/33
f 247/17/33 256/18/33 250/18/33
f 243/57/34 247/17/34 242/52/34
f 246/56/34 248/55/34 243/57/34
f 245/46/34 249/58/34 246/56/34
f 242/52/34 250/18/34 245/46/34
f 246/56/34 251/12/34 245/46/34
f 244/60/34 252/59/34 246/56/34
f 241/48/34 253/61/34 244/60/34
f 245/46/34 254/13/34 241/48/34
f 260/55/34 256/18/34 255/17/34
f 261/59/34 258/13/34 257/12/34
f 253/61/15 258/13/15 259/61/15
f 248/55/4 255/17/4 247/17/4
f 249/58/15 256/18/15 262/58/15
f 252/59/35 259/61/35 261/59/35
f 248/55/35 262/58/35 260/55/35
f 252/59/4 257/12/4 251/12/4
f 246/56/33 266/60/33 244/60/33
f 244/60/4 263/48/4 241/48/4
f 243/57/15 264/52/15 265/57/15
f 241/48/35 267/46/35 245/46/35
f 243/57/33 268/56/33 246/56/33
f 245/46/35 264/52/35 242/52/35
f 3/1/1 2/57/1 119/2/1
f 35/4/2 36/5/2 75/5/2
f 39/6/2 40/7/2 77/7/2
f 55/8/3 95/8/3 96/9/3
f 59/10/4 60/11/4 103/11/4
f 71/12/5 109/12/5 110/13/5
f 39/6/6 79/6/6 80/14/6
f 51/15/3 93/15/3 94/16/3
f 67/17/5 107/17/5 108/18/5
f 40/7/7 41/19/7 78/19/7
f 52/20/8 53/21/8 92/21/8
f 6/22/9 36/5/9 35/4/9
f 6/22/9 9/26/9 37/24/9
f 10/25/9 38/27/9 37/24/9
f 10/25/9 8/23/9 35/4/9
f 9/26/9 40/7/9 39/6/9
f 9/26/9 5/29/9 41/19/9
f 7/28/9 42/14/9 41/19/9
f 7/28/9 10/25/9 39/6/9
f 15/30/10 44/33/10 43/31/10
f 12/32/10 45/34/10 44/33/10
f 13/29/10 46/35/10 45/34/10
f 13/29/10 16/26/10 43/31/10
f 11/36/10 48/38/10 47/37/10
f 15/30/10 49/39/10 48/38/10
f 16/26/10 50/40/10 49/39/10
f 16/26/10 14/22/10 47/37/10
f 17/36/11 19/41/11 52/20/11
f 19/41/11 22/42/11 53/21/11
f 22/42/11 21/30/11 54/16/11
f 21/30/11 17/36/11 51/15/11
f 21/30/11 22/42/11 56/43/11
f 22/42/11 20/45/11 57/44/11
f 20/45/11 18/32/11 58/9/11
f 21/30/11 55/8/11 58/9/11
f 28/42/12 27/46/12 60/11/12
f 27/46/12 23/48/12 61/47/12
f 26/45/12 62/49/12 61/47/12
f 28/42/12 59/10/12 62/49/12
f 25/41/12 24/52/12 64/50/12
f 24/52/12 27/46/12 65/53/12
f 28/42/12 66/54/12 65/53/12
f 25/41/12 63/51/12 66/54/12
f 30/52/13 31/57/13 68/55/13
f 34/56/13 69/58/13 68/55/13
f 33/46/13 70/18/13 69/58/13
f 30/52/13 67/17/13 70/18/13
f 33/46/13 34/56/13 72/59/13
f 32/60/13 73/61/13 72/59/13
f 32/60/13 29/48/13 74/13/13
f 29/48/13 33/46/13 71/12/13
f 75/5/9 76/24/9 82/27/9
f 77/7/9 78/19/9 80/14/9
f 87/33/10 88/34/10 90/35/10
f 85/38/10 86/39/10 84/40/10
f 93/15/11 91/20/11 92/21/11
f 98/43/11 97/44/11 96/9/11
f 103/11/12 104/47/12 106/49/12
f 101/50/12 102/53/12 100/54/12
f 107/17/13 112/55/13 114/58/13
f 109/12/13 113/59/13 111/61/13
f 73/61/15 74/13/15 110/13/15
f 52/20/4 91/20/4 93/15/4
f 42/14/16 80/14/16 78/19/16
f 68/55/4 112/55/4 107/17/4
f 57/44/15 58/9/15 96/9/15
f 35/4/6 81/4/6 82/27/6
f 69/58/15 70/18/15 108/18/15
f 72/59/17 73/61/17 111/61/17
f 50/40/15 84/40/15 86/39/15
f 57/44/8 97/44/8 98/43/8
f 68/55/17 69/58/17 114/58/17
f 47/37/18 83/37/18 84/40/18
f 63/51/19 99/51/19 100/54/19
f 56/43/4 98/43/4 95/8/4
f 48/38/20 49/39/20 86/39/20
f 38/27/16 82/27/16 76/24/16
f 65/53/21 102/53/21 101/50/21
f 44/33/20 45/34/20 88/34/20
f 61/47/21 104/47/21 103/11/21
f 43/31/18 89/31/18 90/35/18
f 66/54/15 100/54/15 102/53/15
f 59/10/19 105/10/19 106/49/19
f 43/31/4 44/33/4 87/33/4
f 46/35/15 90/35/15 88/34/15
f 63/51/4 64/50/4 101/50/4
f 47/37/4 48/38/4 85/38/4
f 62/49/15 106/49/15 104/47/15
f 72/59/4 113/59/4 109/12/4
f 53/21/15 54/16/15 94/16/15
f 36/5/7 37/24/7 76/24/7
f 125/62/22 126/63/22 135/63/22
f 118/64/1 117/74/1 115/65/1
f 125/62/19 136/62/19 134/67/19
f 116/66/1 122/71/1 121/68/1
f 116/66/1 115/65/1 123/70/1
f 1/23/1 124/72/1 123/70/1
f 1/23/1 4/69/1 121/68/1
f 120/3/1 126/63/1 125/62/1
f 120/3/1 119/2/1 127/73/1
f 117/74/1 128/67/1 127/73/1
f 117/74/1 118/64/1 125/62/1
f 132/71/1 131/70/1 130/72/1
f 135/63/1 133/73/1 134/67/1
f 121/68/22 122/71/22 132/71/22
f 122/71/21 123/70/21 131/70/21
f 126/63/21 127/73/21 133/73/21
f 128/67/23 134/67/23 133/73/23
f 124/72/23 130/72/23 131/70/23
f 121/68/19 129/68/19 130/72/19
f 15/30/18 151/30/18 148/32/18
f 120/3/23 176/3/23 139/1/23
f 19/41/15 17/36/15 153/36/15
f 24/52/19 160/52/19 163/46/19
f 18/32/8 154/32/8 157/30/8
f 8/23/7 10/25/7 146/25/7
f 13/29/4 12/32/4 148/32/4
f 34/56/5 170/56/5 168/60/5
f 117/74/22 119/2/22 175/2/22
f 4/69/23 140/69/23 172/66/23
f 19/41/3 155/41/3 158/42/3
f 25/41/21 28/42/21 164/42/21
f 16/26/20 13/29/20 149/29/20
f 32/60/4 168/60/4 165/48/4
f 27/46/19 163/46/19 159/48/19
f 9/26/6 145/26/6 141/29/6
f 31/57/15 30/52/15 166/52/15
f 14/22/15 150/22/15 147/36/15
f 29/48/17 165/48/17 169/46/17
f 17/36/8 21/30/8 157/30/8
f 115/65/22 117/74/22 173/74/22
f 26/45/4 23/48/4 159/48/4
f 7/28/2 5/29/2 141/29/2
f 1/23/22 115/65/22 171/65/22
f 116/66/23 172/66/23 174/64/23
f 31/57/5 167/57/5 170/56/5
f 8/23/16 144/23/16 142/22/16
f 11/36/18 147/36/18 151/30/18
f 26/45/21 162/45/21 164/42/21
f 10/25/7 7/28/7 143/28/7
f 4/69/21 1/23/21 137/23/21
f 22/42/3 158/42/3 156/45/3
f 25/41/15 161/41/15 160/52/15
f 30/52/17 33/46/17 169/46/17
f 6/22/6 142/22/6 145/26/6
f 14/22/20 16/26/20 152/26/20
f 118/64/23 174/64/23 176/3/23
f 20/45/4 156/45/4 154/32/4
f 119/2/22 2/57/22 138/57/22
f 183/8/24 187/8/24 188/9/24
f 180/42/25 179/30/25 182/16/25
f 180/42/25 184/43/25 183/8/25
f 180/42/25 178/45/25 185/44/25
f 178/45/25 177/32/25 186/9/25
f 179/30/25 183/8/25 186/9/25
f 190/43/25 189/44/25 188/9/25
f 186/9/15 188/9/15 189/44/15
f 184/43/26 185/44/26 189/44/26
f 183/8/4 184/43/4 190/43/4
f 177/32/26 191/32/26 193/30/26
f 180/42/24 194/42/24 192/45/24
f 177/32/4 178/45/4 192/45/4
f 200/26/28 199/30/28 202/33/28
f 196/32/28 203/34/28 202/33/28
f 196/32/27 197/29/27 204/35/27
f 197/29/28 200/26/28 201/31/28
f 198/22/28 195/36/28 206/38/28
f 199/30/28 207/39/28 206/38/28
f 200/26/27 208/40/27 207/39/27
f 200/26/27 198/22/27 205/37/27
f 213/33/28 214/34/28 216/35/28
f 211/38/28 212/39/28 210/40/28
f 208/40/15 210/40/15 212/39/15
f 205/37/29 209/37/29 210/40/29
f 207/39/31 212/39/31 211/38/31
f 202/33/30 203/34/30 214/34/30
f 201/31/29 215/31/29 216/35/29
f 201/31/4 202/33/4 213/33/4
f 204/35/15 216/35/15 214/34/15
f 205/37/4 206/38/4 211/38/4
f 199/30/32 221/30/32 218/32/32
f 197/29/4 196/32/4 218/32/4
f 200/26/31 197/29/31 219/29/31
f 198/22/15 220/22/15 217/36/15
f 195/36/32 217/36/32 221/30/32
f 200/26/31 222/26/31 220/22/31
f 229/8/24 233/8/24 234/9/24
f 225/30/25 228/16/25 227/21/25
f 225/30/25 226/42/25 230/43/25
f 226/42/25 224/45/25 231/44/25
f 224/45/25 223/32/25 232/9/25
f 225/30/25 229/8/25 232/9/25
f 236/43/25 235/44/25 234/9/25
f 232/9/15 234/9/15 235/44/15
f 230/43/26 231/44/26 235/44/26
f 229/8/4 230/43/4 236/43/4
f 223/32/26 237/32/26 239/30/26
f 226/42/24 240/42/24 238/45/24
f 223/32/4 224/45/4 238/45/4
f 251/12/33 257/12/33 258/13/33
f 247/17/33 255/17/33 256/18/33
f 243/57/34 248/55/34 247/17/34
f 246/56/34 249/58/34 248/55/34
f 245/46/34 250/18/34 249/58/34
f 242/52/34 247/17/34 250/18/34
f 246/56/34 252/59/34 251/12/34
f 244/60/34 253/61/34 252/59/34
f 241/48/34 254/13/34 253/61/34
f 245/46/34 251/12/34 254/13/34
f 260/55/34 262/58/34 256/18/34
f 261/59/34 259/61/34 258/13/34
f 253/61/15 254/13/15 258/13/15
f 248/55/4 260/55/4 255/17/4
f 249/58/15 250/18/15 256/18/15
f 252/59/35 253/61/35 259/61/35
f 248/55/35 249/58/35 262/58/35
f 252/59/4 261/59/4 257/12/4
f 246/56/33 268/56/33 266/60/33
f 244/60/4 266/60/4 263/48/4
f 243/57/15 242/52/15 264/52/15
f 241/48/35 263/48/35 267/46/35
f 243/57/33 265/57/33 268/56/33
f 245/46/35 267/46/35 264/52/35
