# Blender 5.2.2 LTS
# www.blender.org
o ScoutJet.012
v 0.115521 -0.064926 5.763278
v 0.115494 -0.123880 5.763401
v 0.206894 -0.065283 5.763382
v 0.207047 -0.123769 5.763394
v -0.115440 -0.064971 5.763274
v -0.115494 -0.123880 5.763401
v -0.206811 -0.065237 5.763386
v -0.207084 -0.123736 5.763399
v -0.068895 -0.233654 5.736483
v -0.068438 -0.143902 5.760208
v 0.068834 -0.233476 5.736523
v 0.068497 -0.144113 5.760152
v 0.188538 -0.201066 5.751455
v 0.188825 -0.149123 5.764607
v 0.134100 -0.147684 5.764910
v 0.134016 -0.201229 5.751468
v -0.133928 -0.147782 5.764837
v -0.188540 -0.201061 5.751457
v -0.188471 -0.149548 5.764851
v -0.133860 -0.201308 5.751302
v 0.076028 -0.092090 5.760589
v 0.075567 -0.121377 5.760571
v 0.036431 -0.085161 5.762009
v -0.076026 -0.092073 5.760589
v -0.075660 -0.121152 5.760579
v -0.037654 -0.085359 5.761315
v 1.522528 -0.250183 -6.224651
v 1.522559 -0.252334 -6.224644
v 1.521353 -0.182161 -6.224680
v 1.521353 -0.184366 -6.224649
v 2.001024 -0.599692 -6.224651
v 2.000994 -0.597541 -6.224644
v 2.002200 -0.667714 -6.224680
v 2.002200 -0.665509 -6.224649
v 1.522528 -0.599692 -6.224651
v 1.522558 -0.597541 -6.224644
v 1.521352 -0.667713 -6.224679
v 1.521353 -0.665509 -6.224649
v 2.001024 -0.250183 -6.224651
v 2.000994 -0.252334 -6.224644
v 2.002201 -0.182162 -6.224679
v 2.002200 -0.184366 -6.224649
v -1.522528 -0.250183 -6.224651
v -1.522558 -0.252334 -6.224644
v -1.521352 -0.182162 -6.224679
v -1.521353 -0.184366 -6.224649
v -2.001024 -0.599692 -6.224651
v -2.000995 -0.597545 -6.224643
v -2.002201 -0.667713 -6.224679
v -2.002200 -0.665509 -6.224649
v -1.522528 -0.599692 -6.224651
v -1.522559 -0.597541 -6.224644
v -1.521353 -0.667714 -6.224680
v -1.521353 -0.665509 -6.224649
v -2.001024 -0.250183 -6.224651
v -2.000994 -0.252334 -6.224644
v -2.002200 -0.182161 -6.224680
v -2.002200 -0.184366 -6.224649
v -0.151636 -0.378756 5.181204
v -0.152730 -0.373918 5.180463
v -0.162142 -0.334399 5.174371
v -0.163236 -0.329560 5.175112
vn 0.0479 0.0369 -0.9982
vn -0.0520 -0.0367 -0.9980
vn -0.0501 0.0382 -0.9980
vn 0.0518 -0.0369 -0.9980
vn -0.0481 0.0369 -0.9982
vn 0.0503 0.0381 -0.9980
vn 0.2895 -0.2219 -0.9311
vn -0.3079 0.5466 -0.7787
vn 0.3002 0.5430 -0.7843
vn -0.0091 0.1711 -0.9852
vn 0.0008 0.7107 -0.7035
vn 0.0067 -0.1885 -0.9821
vn 0.0086 0.1286 -0.9917
vn -0.0057 0.7138 -0.7004
vn 0.0086 0.7114 -0.7028
vn -0.0162 0.7515 -0.6595
vn -0.5232 -0.2879 -0.8021
vn -0.4457 0.3067 -0.8410
vn 0.5001 0.2070 -0.8408
vn 0.0209 0.7091 -0.7048
vn 0.5388 -0.2825 -0.7936
vn 0.0510 -0.0383 -0.9980
vn -0.0514 -0.0381 -0.9979
vn -0.3097 -0.0681 -0.9484
vn -0.0052 0.7088 -0.7054
vn -0.0386 -0.1737 -0.9840
vt 1.984851 0.292082
vt 1.692223 0.479707
vt 1.692323 0.291881
vt 1.668117 0.479670
vt 1.375683 0.292087
vt 1.668239 0.291897
vt 1.341935 0.469810
vt 1.018651 0.256327
vt 1.342314 0.256247
vt 1.182494 0.158158
vt 1.349546 0.011214
vt 1.349546 0.158158
vt 1.169665 0.159877
vt 1.009861 0.008927
vt 1.169667 0.009505
vt 1.101032 0.240726
vt 1.008877 0.234889
vt 1.010020 0.175924
vt 1.345222 0.175814
vt 1.253902 0.240726
vt 1.346037 0.234900
vt 1.984977 0.479738
vt 1.375275 0.479706
vt 1.018987 0.469530
vt 1.182494 0.011214
vt 1.008708 0.159300
s 1
f 2/1/1 3/2/2 4/3/3
f 7/4/4 6/5/5 8/6/6
f 10/7/7 11/8/8 9/9/9
f 14/10/10 16/11/11 15/12/12
f 19/13/13 20/14/14 18/15/15
f 23/16/16 21/17/17 22/18/18
f 23/16/16 25/19/19 26/20/20
f 25/19/19 24/21/21 26/20/20
f 2/1/1 1/22/22 3/2/2
f 7/4/4 5/23/23 6/5/5
f 10/7/7 12/24/24 11/8/8
f 14/10/10 13/25/25 16/11/11
f 19/13/13 17/26/26 20/14/14
f 23/16/16 22/18/18 25/19/19
l 27 28
l 33 34
l 45 46
l 41 42
l 31 32
l 37 38
l 43 44
l 49 50
l 39 40
l 57 58
l 35 36
l 47 48
l 53 54
l 55 56
l 29 30
l 51 52
l 61 62
l 59 60
