# Blender 4.5.3 LTS
# www.blender.org
o Suzanne
v -0.591673 0.551347 -0.084310
v -0.591672 -0.551357 -0.084313
v -0.640781 -0.348848 0.012393
v -0.640782 0.348839 0.012396
v -0.827833 0.241081 -0.215793
v -0.663568 0.151933 -0.084310
v -0.663566 -0.151943 -0.084313
v -0.679446 -0.059750 -0.274894
v -0.679820 0.059266 -0.275298
v -0.823777 0.295102 -0.401117
v -0.663568 0.151933 -0.475736
v -0.663566 -0.151943 -0.475739
v -0.631614 0.351640 -0.555619
v -0.631613 -0.351650 -0.555622
v -0.823881 -0.292537 -0.400102
v -0.785962 -0.469294 -0.344430
v -0.591673 0.551347 -0.475736
v -0.591672 -0.551357 -0.475739
v -0.579821 0.639787 -0.275945
v -0.579779 -0.639689 -0.275871
v -0.785946 0.469768 -0.343726
v -0.828359 -0.240784 -0.215684
v -0.813075 0.413033 -0.161134
v -0.813074 -0.413043 -0.161137
v -0.796875 0.000000 0.187500
v 0.886247 0.161855 -0.425610
v 0.421084 0.174571 0.359035
v -0.537520 0.223095 0.182572
v -0.573527 -0.356728 0.927976
v -0.569124 0.561106 0.083400
v -0.631966 0.801472 -0.401529
v -0.761608 -0.278309 -0.403248
v -0.752781 0.306832 -0.476701
v -0.750000 0.000000 0.195312
v -0.742188 0.000000 0.140625
v -0.804936 0.085959 0.130101
v -0.582604 -0.590524 0.058461
v -0.639416 -0.816663 -0.389995
v -0.854577 -0.248244 -0.648821
v -0.850654 0.252976 -0.656178
v -0.809708 -0.004469 -0.371789
v -0.792388 -0.091305 0.118257
v -0.579292 0.342333 0.952106
v -0.751561 0.134283 0.242667
v -0.762465 -0.003510 0.332462
v -0.759088 -0.128254 0.242695
v -0.702949 0.094934 0.794266
v -0.728907 -0.098573 0.730395
v -0.683015 -0.065943 0.865276
v -0.752534 -0.412973 -0.388532
v -0.681778 -0.548006 -0.301844
v -0.683209 -0.543159 -0.212734
v -0.718920 -0.414005 -0.087832
v -0.760369 0.198150 -0.304100
v -0.761091 -0.196071 -0.294624
v -0.806824 0.324415 -0.390499
v -0.756619 0.222894 -0.132351
v -0.697299 0.414528 -0.069190
v -0.687762 0.536324 -0.197204
v -0.675520 0.549449 -0.303430
v -0.753801 -0.219586 -0.131121
v -0.632235 -0.002492 -0.430919
v -0.702398 -0.251173 -0.772215
v -0.701714 0.250629 -0.772171
v -0.474708 -0.457458 -0.528564
v -0.307327 -0.711654 -0.400774
v -0.349172 -0.801044 -0.082684
v -0.507440 -0.237773 0.217792
v -0.400528 0.789853 -0.107807
v -0.190772 0.001752 -0.976525
v 0.779360 -0.011619 0.075160
v 0.455613 -0.844518 -0.402894
v -0.341908 -0.214052 0.410230
v -0.400826 -0.286777 0.948688
v -0.408725 0.321192 0.910612
v -0.307091 0.000282 0.495311
v -0.297475 0.199753 0.398234
v 0.498892 0.187004 -0.931783
v 0.380830 -0.718625 -0.694284
v -0.128827 -0.476077 -0.899132
v -0.152219 0.465608 -0.900982
v -0.472638 0.460237 -0.527298
v -0.312642 0.717463 -0.403459
v -0.095848 -0.781498 -0.576058
v -0.095848 0.781498 -0.576058
v 0.342437 0.770823 -0.623203
v 0.470120 -0.412197 0.155198
v 0.158480 0.539567 0.142898
v 0.462036 -1.253194 0.000911
v 0.444733 -1.363250 -0.313430
v 0.352791 -1.144385 -0.493109
v 0.444590 1.211712 -0.314025
v 0.396365 1.179577 0.017760
v 0.124813 0.704133 0.078292
v 0.192084 0.861481 -0.344903
v 0.293091 0.851778 0.000411
v 0.437880 -1.147014 -0.048217
v 0.444218 -1.210577 -0.316817
v 0.354455 -0.983413 -0.301681
v 0.308274 -0.795922 -0.102855
v 0.308961 0.790779 -0.104465
v 0.139283 -0.708888 0.071127
v 0.191879 -0.851212 -0.363598
v 0.359371 0.985268 -0.297194
v 0.295795 -0.849688 0.002268
v 0.458032 1.142695 -0.041631
v 0.551496 -1.223191 -0.489490
v 0.552827 1.227002 -0.480829
v 0.431381 1.310776 -0.440003
v 0.547001 1.225087 0.009861
v 0.323445 -0.771686 0.120624
v 0.374711 0.696472 0.061959
v 0.391235 0.833846 -0.352238
s 0
f 21 23 19
f 24 16 20
f 23 4 1
f 3 24 2
f 23 5 4
f 22 24 3
f 9 6 5
f 5 10 9
f 15 22 8
f 15 8 12
f 15 12 14
f 19 17 21
f 23 10 5
f 22 15 24
f 23 21 10
f 15 16 24
f 28 30 36
f 37 68 42
f 31 59 69
f 39 63 38
f 41 40 64
f 32 41 39
f 38 32 39
f 36 30 57
f 57 61 36
f 43 49 29
f 44 47 43
f 25 35 34
f 25 35 42
f 36 45 44
f 45 36 46
f 35 36 61
f 42 35 61
f 49 47 48
f 30 59 58
f 52 37 53
f 32 51 50
f 54 56 33
f 41 64 62
f 63 41 62
f 69 83 31
f 76 75 74
f 76 74 73
f 43 74 75
f 43 75 77
f 74 29 73
f 75 76 77
f 27 77 76
f 26 86 113
f 81 85 86
f 84 80 79
f 62 64 82
f 63 62 65
f 13 21 17
f 95 86 85
f 79 103 84
f 86 95 113
f 27 88 77
f 112 26 113
f 111 72 87
f 72 71 87
f 91 90 98
f 92 93 109
f 99 91 98
f 88 94 69
f 69 94 95
f 103 100 102
f 103 91 100
f 67 103 102
f 101 104 95
f 96 104 101
f 106 104 96
f 99 97 105
f 104 106 92
f 109 108 95
f 103 72 107
f 89 107 111
f 108 109 110
f 89 90 107
f 88 112 94
f 19 23 1
f 2 24 20
f 4 5 6
f 7 22 3
f 8 22 7
f 10 11 9
f 10 13 11
f 14 16 15
f 41 33 40
f 20 16 18
f 28 44 43
f 29 46 68
f 30 69 59
f 38 67 37
f 64 40 31
f 41 63 39
f 33 31 40
f 38 52 51
f 38 51 32
f 59 31 60
f 57 41 61
f 42 61 37
f 41 32 55
f 46 48 45
f 61 41 55
f 47 49 43
f 49 48 29
f 47 45 48
f 82 31 83
f 25 36 35
f 42 36 25
f 46 36 42
f 28 36 44
f 46 42 68
f 57 30 58
f 53 37 61
f 33 56 60
f 65 38 63
f 27 73 87
f 67 38 66
f 68 37 67
f 74 43 29
f 28 43 77
f 73 29 68
f 28 69 30
f 112 27 71
f 87 71 27
f 78 80 70
f 26 112 71
f 72 26 71
f 70 81 78
f 26 79 78
f 85 82 83
f 26 78 86
f 78 81 86
f 84 65 80
f 70 82 81
f 70 65 62
f 83 95 85
f 66 103 67
f 102 68 67
f 79 72 103
f 87 73 68
f 88 28 77
f 89 98 90
f 87 102 111
f 27 112 88
f 96 93 106
f 109 104 92
f 102 97 89
f 92 106 93
f 112 93 94
f 101 94 96
f 105 102 100
f 95 94 101
f 100 91 99
f 97 102 105
f 105 100 99
f 99 98 97
f 113 110 112
f 111 102 89
f 93 110 109
f 90 91 107
f 91 103 107
f 95 108 113
f 111 107 72
f 13 10 21
f 14 18 16
f 41 54 33
f 33 60 31
f 38 37 52
f 57 54 41
f 46 29 48
f 47 44 45
f 82 64 31
f 65 66 38
f 27 76 73
f 78 79 80
f 26 72 79
f 85 81 82
f 84 66 65
f 70 62 82
f 70 80 65
f 83 69 95
f 66 84 103
f 102 87 68
f 88 69 28
f 89 97 98
f 96 94 93
f 109 95 104
f 112 110 93
f 113 108 110
