# Blender 5.2.2 LTS
# www.blender.org
o VendingMachine.001
v -1.115585 2.349650 1.002535
v -1.228083 2.349650 1.002535
v 0.559479 -0.506228 1.002535
v 0.559479 -0.844937 1.002535
v -1.228083 -0.506228 1.002535
v -1.228083 -0.844937 1.002535
v -1.115585 -0.844937 1.002535
v 0.488178 2.349650 1.002535
v -0.220911 2.349650 1.002535
v 0.488178 -0.844937 1.002535
v -0.220911 -0.844937 1.002535
v -0.220911 -0.506228 1.002535
v 0.559479 2.349650 1.002535
v 0.488178 -0.506228 1.002535
v -0.809515 2.349650 1.002535
v -0.809515 -0.844937 1.002535
v -0.809515 -0.506228 1.002535
v -1.115585 -0.506228 1.002535
v 0.559479 1.470852 1.002535
v 0.559479 1.355692 1.002535
v -1.228083 1.470852 1.002535
v -1.228083 1.355692 1.002535
v -0.220911 1.470852 1.002535
v -0.220911 1.355692 1.002535
v 0.488178 1.470852 1.002535
v 0.488178 1.355692 1.002535
v -0.809515 1.470852 1.002535
v -0.809515 1.355692 1.002535
v -1.115585 1.470852 1.002535
v -1.115585 1.355692 1.002535
v 0.559479 1.733132 1.002535
v -1.228083 1.733132 1.002535
v -0.220911 1.733132 1.002535
v 0.488178 1.733132 1.002535
v -0.809515 1.733132 1.002535
v -1.115585 1.733132 1.002535
v 0.559479 1.063575 1.002535
v 0.559479 0.898016 1.002535
v -1.228083 1.063575 1.002535
v -1.228083 0.898016 1.002535
v -0.220911 1.063575 1.002535
v -0.220911 0.898016 1.002535
v 0.488178 1.063575 1.002535
v 0.488178 0.898016 1.002535
v -0.809515 1.063575 1.002535
v -0.809515 0.898016 1.002535
v -1.115585 1.063575 1.002535
v -1.115585 0.898016 1.002535
v 0.559479 1.292634 1.002535
v -1.228083 1.292634 1.002535
v -0.220911 1.292634 1.002535
v 0.488178 1.292634 1.002535
v -0.809515 1.292634 1.002535
v -1.115585 1.292634 1.002535
v 0.559479 0.852783 1.002535
v -1.228083 0.852783 1.002535
v -0.220911 0.852783 1.002535
v 0.488178 0.852783 1.002535
v -0.809515 0.852783 1.002535
v -1.115585 0.852783 1.002535
v 0.559479 0.488059 1.002535
v -1.228083 0.488059 1.002535
v -0.220911 0.488059 1.002535
v 0.488178 0.488059 1.002535
v -0.809515 0.488059 1.002535
v -1.115585 0.488059 1.002535
v 0.559479 -0.347503 1.002535
v -1.228083 -0.347503 1.002535
v -0.220911 -0.347503 1.002535
v 0.488178 -0.347503 1.002535
v -0.809515 -0.347503 1.002535
v -1.115585 -0.347503 1.002535
v 0.559479 -0.258420 1.002535
v -1.228083 -0.258420 1.002535
v -0.220911 -0.258420 1.002535
v 0.488178 -0.258420 1.002535
v -0.809515 -0.258420 1.002535
v -1.115585 -0.258420 1.002535
v 0.559479 -0.096647 1.002535
v -1.228083 -0.096647 1.002535
v -0.220911 -0.096647 1.002535
v 0.488178 -0.096647 1.002535
v -0.809515 -0.096647 1.002535
v -1.115585 -0.096647 1.002535
v 0.559479 -0.010405 1.002535
v -1.228083 -0.010405 1.002535
v -0.220911 -0.010405 1.002535
v 0.488178 -0.010405 1.002535
v -0.809515 -0.010405 1.002535
v -1.115585 -0.010405 1.002535
v 0.559479 0.155904 1.002535
v -1.228083 0.155904 1.002535
v -0.220911 0.155904 1.002535
v 0.488178 0.155904 1.002535
v -0.809515 0.155904 1.002535
v -1.115585 0.155904 1.002535
v 0.559479 0.247300 1.002535
v -1.228083 0.247300 1.002535
v -0.220911 0.247300 1.002535
v 0.488178 0.247300 1.002535
v -0.809515 0.247300 1.002535
v -1.115585 0.247300 1.002535
v 0.559479 0.407806 1.002535
v -1.228083 0.407806 1.002535
v -0.220911 0.407806 1.002535
v 0.488178 0.407806 1.002535
v -0.809515 0.407806 1.002535
v -1.115585 0.407806 1.002535
v 0.559479 1.137542 1.002535
v -1.228083 1.137542 1.002535
v -0.220911 1.137542 1.002535
v 0.488178 1.137542 1.002535
v -0.809515 1.137542 1.002535
v -1.115585 1.137542 1.002535
v 0.559479 1.616613 1.002535
v -1.228083 1.616613 1.002535
v -0.220911 1.616613 1.002535
v 0.488178 1.616613 1.002535
v -0.809515 1.616613 1.002535
v -1.115585 1.616613 1.002535
v -0.130461 2.416401 -0.114164
v -0.017524 2.389496 -0.401550
v -0.166550 2.390973 -0.177522
v -0.088449 2.372366 -0.376263
v 0.323959 2.373770 -0.236760
v 0.065092 2.406807 -0.370704
v 0.277197 2.376472 -0.153343
v -0.000353 2.414579 -0.176834
vn -0.0000 -0.0000 1.0000
vn 0.2981 -0.9324 0.2044
vn -0.1274 -0.9918 -0.0141
vt 0.262228 0.827755
vt 0.262228 0.977037
vt 0.237176 0.977037
vt 0.237176 0.827755
vt 0.619377 0.827755
vt 0.619377 0.977037
vt 0.461467 0.977037
vt 0.461467 0.827755
vt 0.635256 0.827755
vt 0.635256 0.977037
vt 0.330388 0.977037
vt 0.330388 0.827755
vt 0.330388 0.721094
vt 0.330388 0.736363
vt 0.262228 0.736363
vt 0.262228 0.721094
vt 0.461467 0.721094
vt 0.461467 0.736363
vt 0.635256 0.721094
vt 0.635256 0.736363
vt 0.619377 0.736363
vt 0.619377 0.721094
vt 0.237176 0.736363
vt 0.237176 0.721094
vt 0.330388 0.799542
vt 0.262228 0.799542
vt 0.461467 0.799542
vt 0.635256 0.799542
vt 0.619377 0.799542
vt 0.237176 0.799542
vt 0.262228 0.614590
vt 0.262228 0.625543
vt 0.237176 0.625543
vt 0.237176 0.614590
vt 0.619377 0.614590
vt 0.619377 0.625543
vt 0.461467 0.625543
vt 0.461467 0.614590
vt 0.635256 0.614590
vt 0.635256 0.625543
vt 0.330388 0.625543
vt 0.330388 0.614590
vt 0.262228 0.683541
vt 0.237176 0.683541
vt 0.619377 0.683541
vt 0.461467 0.683541
vt 0.635256 0.683541
vt 0.330388 0.683541
vt 0.330388 0.526277
vt 0.262228 0.526277
vt 0.461467 0.526277
vt 0.635256 0.526277
vt 0.619377 0.526277
vt 0.237176 0.526277
vt 0.262228 0.506845
vt 0.237176 0.506845
vt 0.619377 0.506845
vt 0.461467 0.506845
vt 0.635256 0.506845
vt 0.330388 0.506845
vt 0.330388 0.203510
vt 0.330388 0.285524
vt 0.262228 0.285524
vt 0.262228 0.203510
vt 0.461467 0.203510
vt 0.461467 0.285524
vt 0.635256 0.203510
vt 0.635256 0.285524
vt 0.619377 0.285524
vt 0.619377 0.203510
vt 0.237176 0.285524
vt 0.237176 0.203510
vt 0.330388 0.323957
vt 0.262228 0.323957
vt 0.461467 0.323957
vt 0.635256 0.323957
vt 0.619377 0.323957
vt 0.237176 0.323957
vt 0.330388 0.345527
vt 0.262228 0.345527
vt 0.461467 0.345527
vt 0.635256 0.345527
vt 0.619377 0.345527
vt 0.237176 0.345527
vt 0.330388 0.384698
vt 0.262228 0.384698
vt 0.461467 0.384698
vt 0.635256 0.384698
vt 0.619377 0.384698
vt 0.237176 0.384698
vt 0.330388 0.405581
vt 0.262228 0.405581
vt 0.461467 0.405581
vt 0.635256 0.405581
vt 0.619377 0.405581
vt 0.237176 0.405581
vt 0.330388 0.445850
vt 0.262228 0.445850
vt 0.461467 0.445850
vt 0.635256 0.445850
vt 0.619377 0.445850
vt 0.237176 0.445850
vt 0.330388 0.467981
vt 0.262228 0.467981
vt 0.461467 0.467981
vt 0.635256 0.467981
vt 0.619377 0.467981
vt 0.237176 0.467981
vt 0.330388 0.665631
vt 0.262228 0.665631
vt 0.461467 0.665631
vt 0.635256 0.665631
vt 0.619377 0.665631
vt 0.237176 0.665631
vt 0.262228 0.764248
vt 0.237176 0.764248
vt 0.619377 0.764248
vt 0.461467 0.764248
vt 0.635256 0.764248
vt 0.330388 0.764248
vt 0.857099 0.216360
vt 0.567079 0.216360
vt 0.611808 0.270219
vt 0.812370 0.270219
vt 0.857099 0.239784
vt 0.831833 -0.064041
vt 0.743300 -0.051821
vt 0.665957 0.227564
s 0
f 36/1/1 1/2/1 2/3/1 32/4/1
f 34/5/1 8/6/1 9/7/1 33/8/1
f 31/9/1 13/10/1 8/6/1 34/5/1
f 33/8/1 9/7/1 15/11/1 35/12/1
f 35/12/1 15/11/1 1/2/1 36/1/1
f 53/13/1 28/14/1 30/15/1 54/16/1
f 51/17/1 24/18/1 28/14/1 53/13/1
f 49/19/1 20/20/1 26/21/1 52/22/1
f 52/22/1 26/21/1 24/18/1 51/17/1
f 54/16/1 30/15/1 22/23/1 50/24/1
f 119/25/1 35/12/1 36/1/1 120/26/1
f 117/27/1 33/8/1 35/12/1 119/25/1
f 115/28/1 31/9/1 34/5/1 118/29/1
f 118/29/1 34/5/1 33/8/1 117/27/1
f 120/26/1 36/1/1 32/4/1 116/30/1
f 60/31/1 48/32/1 40/33/1 56/34/1
f 58/35/1 44/36/1 42/37/1 57/38/1
f 55/39/1 38/40/1 44/36/1 58/35/1
f 57/38/1 42/37/1 46/41/1 59/42/1
f 59/42/1 46/41/1 48/32/1 60/31/1
f 114/43/1 54/16/1 50/24/1 110/44/1
f 112/45/1 52/22/1 51/17/1 111/46/1
f 109/47/1 49/19/1 52/22/1 112/45/1
f 111/46/1 51/17/1 53/13/1 113/48/1
f 113/48/1 53/13/1 54/16/1 114/43/1
f 65/49/1 59/42/1 60/31/1 66/50/1
f 63/51/1 57/38/1 59/42/1 65/49/1
f 61/52/1 55/39/1 58/35/1 64/53/1
f 64/53/1 58/35/1 57/38/1 63/51/1
f 66/50/1 60/31/1 56/34/1 62/54/1
f 108/55/1 66/50/1 62/54/1 104/56/1
f 106/57/1 64/53/1 63/51/1 105/58/1
f 103/59/1 61/52/1 64/53/1 106/57/1
f 105/58/1 63/51/1 65/49/1 107/60/1
f 107/60/1 65/49/1 66/50/1 108/55/1
f 16/61/1 17/62/1 18/63/1 7/64/1
f 11/65/1 12/66/1 17/62/1 16/61/1
f 4/67/1 3/68/1 14/69/1 10/70/1
f 10/70/1 14/69/1 12/66/1 11/65/1
f 7/64/1 18/63/1 5/71/1 6/72/1
f 17/62/1 71/73/1 72/74/1 18/63/1
f 12/66/1 69/75/1 71/73/1 17/62/1
f 3/68/1 67/76/1 70/77/1 14/69/1
f 14/69/1 70/77/1 69/75/1 12/66/1
f 18/63/1 72/74/1 68/78/1 5/71/1
f 71/73/1 77/79/1 78/80/1 72/74/1
f 69/75/1 75/81/1 77/79/1 71/73/1
f 67/76/1 73/82/1 76/83/1 70/77/1
f 70/77/1 76/83/1 75/81/1 69/75/1
f 72/74/1 78/80/1 74/84/1 68/78/1
f 77/79/1 83/85/1 84/86/1 78/80/1
f 75/81/1 81/87/1 83/85/1 77/79/1
f 73/82/1 79/88/1 82/89/1 76/83/1
f 76/83/1 82/89/1 81/87/1 75/81/1
f 78/80/1 84/86/1 80/90/1 74/84/1
f 83/85/1 89/91/1 90/92/1 84/86/1
f 81/87/1 87/93/1 89/91/1 83/85/1
f 79/88/1 85/94/1 88/95/1 82/89/1
f 82/89/1 88/95/1 87/93/1 81/87/1
f 84/86/1 90/92/1 86/96/1 80/90/1
f 89/91/1 95/97/1 96/98/1 90/92/1
f 87/93/1 93/99/1 95/97/1 89/91/1
f 85/94/1 91/100/1 94/101/1 88/95/1
f 88/95/1 94/101/1 93/99/1 87/93/1
f 90/92/1 96/98/1 92/102/1 86/96/1
f 95/97/1 101/103/1 102/104/1 96/98/1
f 93/99/1 99/105/1 101/103/1 95/97/1
f 91/100/1 97/106/1 100/107/1 94/101/1
f 94/101/1 100/107/1 99/105/1 93/99/1
f 96/98/1 102/104/1 98/108/1 92/102/1
f 101/103/1 107/60/1 108/55/1 102/104/1
f 99/105/1 105/58/1 107/60/1 101/103/1
f 97/106/1 103/59/1 106/57/1 100/107/1
f 100/107/1 106/57/1 105/58/1 99/105/1
f 102/104/1 108/55/1 104/56/1 98/108/1
f 46/41/1 45/109/1 47/110/1 48/32/1
f 42/37/1 41/111/1 45/109/1 46/41/1
f 38/40/1 37/112/1 43/113/1 44/36/1
f 44/36/1 43/113/1 41/111/1 42/37/1
f 48/32/1 47/110/1 39/114/1 40/33/1
f 45/109/1 113/48/1 114/43/1 47/110/1
f 41/111/1 111/46/1 113/48/1 45/109/1
f 37/112/1 109/47/1 112/45/1 43/113/1
f 43/113/1 112/45/1 111/46/1 41/111/1
f 47/110/1 114/43/1 110/44/1 39/114/1
f 29/115/1 120/26/1 116/30/1 21/116/1
f 25/117/1 118/29/1 117/27/1 23/118/1
f 19/119/1 115/28/1 118/29/1 25/117/1
f 23/118/1 117/27/1 119/25/1 27/120/1
f 27/120/1 119/25/1 120/26/1 29/115/1
f 28/14/1 27/120/1 29/115/1 30/15/1
f 24/18/1 23/118/1 27/120/1 28/14/1
f 20/20/1 19/119/1 25/117/1 26/21/1
f 26/21/1 25/117/1 23/118/1 24/18/1
f 30/15/1 29/115/1 21/116/1 22/23/1
s 1
f 122/121/2 121/122/2 123/123/2 124/124/2
f 126/125/3 125/126/3 127/127/3 128/128/3
