# Blender 5.2.2 LTS
# www.blender.org
o VendingMachine.001
v -1.115585 2.349650 1.002535
v -1.228083 2.349650 1.002535
v 0.559479 -0.506228 1.002535
v 0.559479 -0.844937 1.002535
v -1.228083 -0.506228 1.002535
v -1.228083 -0.844937 1.002535
v -1.115585 -0.844937 1.002535
v 0.488178 2.349650 1.002535
v -0.220911 2.349650 1.002535
v 0.488178 -0.844937 1.002535
v -0.220911 -0.844937 1.002535
v -0.220911 -0.506228 1.002535
v 0.559479 2.349650 1.002535
v 0.488178 -0.506228 1.002535
v -0.809515 2.349650 1.002535
v -0.809515 -0.844937 1.002535
v -0.809515 -0.506228 1.002535
v -1.115585 -0.506228 1.002535
v 0.559479 1.470852 1.002535
v 0.559479 1.355692 1.002535
v -1.228083 1.470852 1.002535
v -1.228083 1.355692 1.002535
v -0.220911 1.470852 1.002535
v -0.220911 1.355692 1.002535
v 0.488178 1.470852 1.002535
v 0.488178 1.355692 1.002535
v -0.809515 1.470852 1.002535
v -0.809515 1.355692 1.002535
v -1.115585 1.470852 1.002535
v -1.115585 1.355692 1.002535
v 0.559479 1.733132 1.002535
v -1.228083 1.733132 1.002535
v -0.220911 1.733132 1.002535
v 0.488178 1.733132 1.002535
v -0.809515 1.733132 1.002535
v -1.115585 1.733132 1.002535
v 0.559479 1.063575 1.002535
v 0.559479 0.898016 1.002535
v -1.228083 1.063575 1.002535
v -1.228083 0.898016 1.002535
v -0.220911 1.063575 1.002535
v -0.220911 0.898016 1.002535
v 0.488178 1.063575 1.002535
v 0.488178 0.898016 1.002535
v -0.809515 1.063575 1.002535
v -0.809515 0.898016 1.002535
v -1.115585 1.063575 1.002535
v -1.115585 0.898016 1.002535
v 0.559479 1.292634 1.002535
v -1.228083 1.292634 1.002535
v -0.220911 1.292634 1.002535
v 0.488178 1.292634 1.002535
v -0.809515 1.292634 1.002535
v -1.115585 1.292634 1.002535
v 0.559479 0.852783 1.002535
v -1.228083 0.852783 1.002535
v -0.220911 0.852783 1.002535
v 0.488178 0.852783 1.002535
v -0.809515 0.852783 1.002535
v -1.115585 0.852783 1.002535
v 0.559479 0.488059 1.002535
v -1.228083 0.488059 1.002535
v -0.220911 0.488059 1.002535
v 0.488178 0.488059 1.002535
v -0.809515 0.488059 1.002535
v -1.115585 0.488059 1.002535
v 0.559479 -0.347503 1.002535
v -1.228083 -0.347503 1.002535
v -0.220911 -0.347503 1.002535
v 0.488178 -0.347503 1.002535
v -0.809515 -0.347503 1.002535
v -1.115585 -0.347503 1.002535
v 0.559479 -0.258420 1.002535
v -1.228083 -0.258420 1.002535
v -0.220911 -0.258420 1.002535
v 0.488178 -0.258420 1.002535
v -0.809515 -0.258420 1.002535
v -1.115585 -0.258420 1.002535
v 0.559479 -0.096647 1.002535
v -1.228083 -0.096647 1.002535
v -0.220911 -0.096647 1.002535
v 0.488178 -0.096647 1.002535
v -0.809515 -0.096647 1.002535
v -1.115585 -0.096647 1.002535
v 0.559479 -0.010405 1.002535
v -1.228083 -0.010405 1.002535
v -0.220911 -0.010405 1.002535
v 0.488178 -0.010405 1.002535
v -0.809515 -0.010405 1.002535
v -1.115585 -0.010405 1.002535
v 0.559479 0.155904 1.002535
v -1.228083 0.155904 1.002535
v -0.220911 0.155904 1.002535
v 0.488178 0.155904 1.002535
v -0.809515 0.155904 1.002535
v -1.115585 0.155904 1.002535
v 0.559479 0.247300 1.002535
v -1.228083 0.247300 1.002535
v -0.220911 0.247300 1.002535
v 0.488178 0.247300 1.002535
v -0.809515 0.247300 1.002535
v -1.115585 0.247300 1.002535
v 0.559479 0.407806 1.002535
v -1.228083 0.407806 1.002535
v -0.220911 0.407806 1.002535
v 0.488178 0.407806 1.002535
v -0.809515 0.407806 1.002535
v -1.115585 0.407806 1.002535
v 0.559479 1.137542 1.002535
v -1.228083 1.137542 1.002535
v -0.220911 1.137542 1.002535
v 0.488178 1.137542 1.002535
v -0.809515 1.137542 1.002535
v -1.115585 1.137542 1.002535
v 0.559479 1.616613 1.002535
v -1.228083 1.616613 1.002535
v -0.220911 1.616613 1.002535
v 0.488178 1.616613 1.002535
v -0.809515 1.616613 1.002535
v -1.115585 1.616613 1.002535
v -0.130461 2.416401 -0.114164
v -0.017524 2.389496 -0.401550
v -0.166550 2.390973 -0.177522
v -0.088449 2.372366 -0.376263
v 0.323959 2.373770 -0.236760
v 0.065092 2.406807 -0.370704
v 0.277197 2.376472 -0.153343
v -0.000353 2.414579 -0.176834
vn -0.0000 -0.0000 1.0000
vn 0.2981 -0.9324 0.2044
vn -0.1291 -0.9914 -0.0236
vn -0.1270 -0.9918 -0.0120
vn -0.1253 -0.9921 -0.0025
vn -0.1324 -0.9903 -0.0421
vt 0.262228 0.977037
vt 0.237176 0.827755
vt 0.262228 0.827755
vt 0.619377 0.977037
vt 0.461467 0.827755
vt 0.619377 0.827755
vt 0.635256 0.977037
vt 0.635256 0.827755
vt 0.461467 0.977037
vt 0.330388 0.827755
vt 0.330388 0.977037
vt 0.330388 0.736363
vt 0.262228 0.721094
vt 0.330388 0.721094
vt 0.461467 0.736363
vt 0.461467 0.721094
vt 0.635256 0.736363
vt 0.619377 0.721094
vt 0.635256 0.721094
vt 0.619377 0.736363
vt 0.262228 0.736363
vt 0.237176 0.721094
vt 0.262228 0.799542
vt 0.330388 0.799542
vt 0.461467 0.799542
vt 0.619377 0.799542
vt 0.635256 0.799542
vt 0.237176 0.799542
vt 0.262228 0.625543
vt 0.237176 0.614590
vt 0.262228 0.614590
vt 0.619377 0.625543
vt 0.461467 0.614590
vt 0.619377 0.614590
vt 0.635256 0.625543
vt 0.635256 0.614590
vt 0.461467 0.625543
vt 0.330388 0.614590
vt 0.330388 0.625543
vt 0.237176 0.683541
vt 0.262228 0.683541
vt 0.461467 0.683541
vt 0.619377 0.683541
vt 0.635256 0.683541
vt 0.330388 0.683541
vt 0.262228 0.526277
vt 0.330388 0.526277
vt 0.461467 0.526277
vt 0.619377 0.526277
vt 0.635256 0.526277
vt 0.237176 0.526277
vt 0.237176 0.506845
vt 0.262228 0.506845
vt 0.461467 0.506845
vt 0.619377 0.506845
vt 0.635256 0.506845
vt 0.330388 0.506845
vt 0.330388 0.285524
vt 0.262228 0.203510
vt 0.330388 0.203510
vt 0.461467 0.285524
vt 0.461467 0.203510
vt 0.635256 0.285524
vt 0.619377 0.203510
vt 0.635256 0.203510
vt 0.619377 0.285524
vt 0.262228 0.285524
vt 0.237176 0.203510
vt 0.330388 0.323957
vt 0.461467 0.323957
vt 0.635256 0.323957
vt 0.619377 0.323957
vt 0.262228 0.323957
vt 0.237176 0.285524
vt 0.330388 0.345527
vt 0.461467 0.345527
vt 0.635256 0.345527
vt 0.619377 0.345527
vt 0.262228 0.345527
vt 0.237176 0.323957
vt 0.330388 0.384698
vt 0.461467 0.384698
vt 0.635256 0.384698
vt 0.619377 0.384698
vt 0.262228 0.384698
vt 0.237176 0.345527
vt 0.330388 0.405581
vt 0.461467 0.405581
vt 0.635256 0.405581
vt 0.619377 0.405581
vt 0.262228 0.405581
vt 0.237176 0.384698
vt 0.330388 0.445850
vt 0.461467 0.445850
vt 0.635256 0.445850
vt 0.619377 0.445850
vt 0.262228 0.445850
vt 0.237176 0.405581
vt 0.330388 0.467981
vt 0.461467 0.467981
vt 0.635256 0.467981
vt 0.619377 0.467981
vt 0.262228 0.467981
vt 0.237176 0.445850
vt 0.237176 0.467981
vt 0.330388 0.665631
vt 0.461467 0.665631
vt 0.635256 0.665631
vt 0.619377 0.665631
vt 0.262228 0.665631
vt 0.237176 0.625543
vt 0.237176 0.665631
vt 0.237176 0.764248
vt 0.262228 0.764248
vt 0.461467 0.764248
vt 0.619377 0.764248
vt 0.635256 0.764248
vt 0.330388 0.764248
vt 0.237176 0.736363
vt 0.857099 0.216360
vt 0.611808 0.270219
vt 0.812370 0.270219
vt 0.831833 -0.064041
vt 0.665957 0.227564
vt 0.857099 0.239784
vt 0.237176 0.977037
vt 0.567079 0.216360
vt 0.743300 -0.051821
s 0
f 1/1/1 32/2/1 36/3/1
f 8/4/1 33/5/1 34/6/1
f 13/7/1 34/6/1 31/8/1
f 9/9/1 35/10/1 33/5/1
f 15/11/1 36/3/1 35/10/1
f 28/12/1 54/13/1 53/14/1
f 24/15/1 53/14/1 51/16/1
f 20/17/1 52/18/1 49/19/1
f 26/20/1 51/16/1 52/18/1
f 30/21/1 50/22/1 54/13/1
f 35/10/1 120/23/1 119/24/1
f 33/5/1 119/24/1 117/25/1
f 31/8/1 118/26/1 115/27/1
f 34/6/1 117/25/1 118/26/1
f 36/3/1 116/28/1 120/23/1
f 48/29/1 56/30/1 60/31/1
f 44/32/1 57/33/1 58/34/1
f 38/35/1 58/34/1 55/36/1
f 42/37/1 59/38/1 57/33/1
f 46/39/1 60/31/1 59/38/1
f 54/13/1 110/40/1 114/41/1
f 52/18/1 111/42/1 112/43/1
f 49/19/1 112/43/1 109/44/1
f 51/16/1 113/45/1 111/42/1
f 53/14/1 114/41/1 113/45/1
f 59/38/1 66/46/1 65/47/1
f 57/33/1 65/47/1 63/48/1
f 55/36/1 64/49/1 61/50/1
f 58/34/1 63/48/1 64/49/1
f 60/31/1 62/51/1 66/46/1
f 66/46/1 104/52/1 108/53/1
f 64/49/1 105/54/1 106/55/1
f 61/50/1 106/55/1 103/56/1
f 63/48/1 107/57/1 105/54/1
f 65/47/1 108/53/1 107/57/1
f 17/58/1 7/59/1 16/60/1
f 12/61/1 16/60/1 11/62/1
f 3/63/1 10/64/1 4/65/1
f 14/66/1 11/62/1 10/64/1
f 18/67/1 6/68/1 7/59/1
f 71/69/1 18/67/1 17/58/1
f 69/70/1 17/58/1 12/61/1
f 67/71/1 14/66/1 3/63/1
f 70/72/1 12/61/1 14/66/1
f 72/73/1 5/74/1 18/67/1
f 77/75/1 72/73/1 71/69/1
f 75/76/1 71/69/1 69/70/1
f 73/77/1 70/72/1 67/71/1
f 76/78/1 69/70/1 70/72/1
f 78/79/1 68/80/1 72/73/1
f 83/81/1 78/79/1 77/75/1
f 81/82/1 77/75/1 75/76/1
f 79/83/1 76/78/1 73/77/1
f 82/84/1 75/76/1 76/78/1
f 84/85/1 74/86/1 78/79/1
f 89/87/1 84/85/1 83/81/1
f 87/88/1 83/81/1 81/82/1
f 85/89/1 82/84/1 79/83/1
f 88/90/1 81/82/1 82/84/1
f 90/91/1 80/92/1 84/85/1
f 95/93/1 90/91/1 89/87/1
f 93/94/1 89/87/1 87/88/1
f 91/95/1 88/90/1 85/89/1
f 94/96/1 87/88/1 88/90/1
f 96/97/1 86/98/1 90/91/1
f 101/99/1 96/97/1 95/93/1
f 99/100/1 95/93/1 93/94/1
f 97/101/1 94/96/1 91/95/1
f 100/102/1 93/94/1 94/96/1
f 102/103/1 92/104/1 96/97/1
f 107/57/1 102/103/1 101/99/1
f 105/54/1 101/99/1 99/100/1
f 103/56/1 100/102/1 97/101/1
f 106/55/1 99/100/1 100/102/1
f 108/53/1 98/105/1 102/103/1
f 45/106/1 48/29/1 46/39/1
f 41/107/1 46/39/1 42/37/1
f 37/108/1 44/32/1 38/35/1
f 43/109/1 42/37/1 44/32/1
f 47/110/1 40/111/1 48/29/1
f 113/45/1 47/110/1 45/106/1
f 111/42/1 45/106/1 41/107/1
f 109/44/1 43/109/1 37/108/1
f 112/43/1 41/107/1 43/109/1
f 114/41/1 39/112/1 47/110/1
f 120/23/1 21/113/1 29/114/1
f 118/26/1 23/115/1 25/116/1
f 115/27/1 25/116/1 19/117/1
f 117/25/1 27/118/1 23/115/1
f 119/24/1 29/114/1 27/118/1
f 27/118/1 30/21/1 28/12/1
f 23/115/1 28/12/1 24/15/1
f 19/117/1 26/20/1 20/17/1
f 25/116/1 24/15/1 26/20/1
f 29/114/1 22/119/1 30/21/1
s 1
f 122/120/2 123/121/2 124/122/2
f 125/123/3 128/124/4 126/125/5
s 0
f 1/1/1 2/126/1 32/2/1
f 8/4/1 9/9/1 33/5/1
f 13/7/1 8/4/1 34/6/1
f 9/9/1 15/11/1 35/10/1
f 15/11/1 1/1/1 36/3/1
f 28/12/1 30/21/1 54/13/1
f 24/15/1 28/12/1 53/14/1
f 20/17/1 26/20/1 52/18/1
f 26/20/1 24/15/1 51/16/1
f 30/21/1 22/119/1 50/22/1
f 35/10/1 36/3/1 120/23/1
f 33/5/1 35/10/1 119/24/1
f 31/8/1 34/6/1 118/26/1
f 34/6/1 33/5/1 117/25/1
f 36/3/1 32/2/1 116/28/1
f 48/29/1 40/111/1 56/30/1
f 44/32/1 42/37/1 57/33/1
f 38/35/1 44/32/1 58/34/1
f 42/37/1 46/39/1 59/38/1
f 46/39/1 48/29/1 60/31/1
f 54/13/1 50/22/1 110/40/1
f 52/18/1 51/16/1 111/42/1
f 49/19/1 52/18/1 112/43/1
f 51/16/1 53/14/1 113/45/1
f 53/14/1 54/13/1 114/41/1
f 59/38/1 60/31/1 66/46/1
f 57/33/1 59/38/1 65/47/1
f 55/36/1 58/34/1 64/49/1
f 58/34/1 57/33/1 63/48/1
f 60/31/1 56/30/1 62/51/1
f 66/46/1 62/51/1 104/52/1
f 64/49/1 63/48/1 105/54/1
f 61/50/1 64/49/1 106/55/1
f 63/48/1 65/47/1 107/57/1
f 65/47/1 66/46/1 108/53/1
f 17/58/1 18/67/1 7/59/1
f 12/61/1 17/58/1 16/60/1
f 3/63/1 14/66/1 10/64/1
f 14/66/1 12/61/1 11/62/1
f 18/67/1 5/74/1 6/68/1
f 71/69/1 72/73/1 18/67/1
f 69/70/1 71/69/1 17/58/1
f 67/71/1 70/72/1 14/66/1
f 70/72/1 69/70/1 12/61/1
f 72/73/1 68/80/1 5/74/1
f 77/75/1 78/79/1 72/73/1
f 75/76/1 77/75/1 71/69/1
f 73/77/1 76/78/1 70/72/1
f 76/78/1 75/76/1 69/70/1
f 78/79/1 74/86/1 68/80/1
f 83/81/1 84/85/1 78/79/1
f 81/82/1 83/81/1 77/75/1
f 79/83/1 82/84/1 76/78/1
f 82/84/1 81/82/1 75/76/1
f 84/85/1 80/92/1 74/86/1
f 89/87/1 90/91/1 84/85/1
f 87/88/1 89/87/1 83/81/1
f 85/89/1 88/90/1 82/84/1
f 88/90/1 87/88/1 81/82/1
f 90/91/1 86/98/1 80/92/1
f 95/93/1 96/97/1 90/91/1
f 93/94/1 95/93/1 89/87/1
f 91/95/1 94/96/1 88/90/1
f 94/96/1 93/94/1 87/88/1
f 96/97/1 92/104/1 86/98/1
f 101/99/1 102/103/1 96/97/1
f 99/100/1 101/99/1 95/93/1
f 97/101/1 100/102/1 94/96/1
f 100/102/1 99/100/1 93/94/1
f 102/103/1 98/105/1 92/104/1
f 107/57/1 108/53/1 102/103/1
f 105/54/1 107/57/1 101/99/1
f 103/56/1 106/55/1 100/102/1
f 106/55/1 105/54/1 99/100/1
f 108/53/1 104/52/1 98/105/1
f 45/106/1 47/110/1 48/29/1
f 41/107/1 45/106/1 46/39/1
f 37/108/1 43/109/1 44/32/1
f 43/109/1 41/107/1 42/37/1
f 47/110/1 39/112/1 40/111/1
f 113/45/1 114/41/1 47/110/1
f 111/42/1 113/45/1 45/106/1
f 109/44/1 112/43/1 43/109/1
f 112/43/1 111/42/1 41/107/1
f 114/41/1 110/40/1 39/112/1
f 120/23/1 116/28/1 21/113/1
f 118/26/1 117/25/1 23/115/1
f 115/27/1 118/26/1 25/116/1
f 117/25/1 119/24/1 27/118/1
f 119/24/1 120/23/1 29/114/1
f 27/118/1 29/114/1 30/21/1
f 23/115/1 27/118/1 28/12/1
f 19/117/1 25/116/1 26/20/1
f 25/116/1 23/115/1 24/15/1
f 29/114/1 21/113/1 22/119/1
s 1
f 122/120/2 121/127/2 123/121/2
f 125/123/3 127/128/6 128/124/4
