# Blender 3.6.23
# www.blender.org
o sol.034
v -2.372441 1.297639 -3.536784
v -2.372441 1.258825 -3.530984
v -2.320563 1.297639 -3.536784
v -2.320561 1.336817 -3.542401
v -2.320563 1.376212 -3.547449
v -2.372441 1.336817 -3.542401
v -2.320561 1.258825 -3.530984
v -2.268683 1.297639 -3.536784
v -2.268683 1.336817 -3.542401
v -2.268683 1.376212 -3.547449
v -2.268683 1.258825 -3.530984
v -2.216803 1.297639 -3.536784
v -2.216803 1.336817 -3.542401
v -2.216803 1.376212 -3.547449
v -2.216803 1.258825 -3.530984
v -2.164923 1.297639 -3.536784
v -2.164923 1.336817 -3.542401
v -2.164923 1.376212 -3.547449
v -2.320563 1.415678 -3.551533
v -2.372441 1.376212 -3.547449
v -2.268683 1.415678 -3.551533
v -2.216803 1.415678 -3.551533
v -2.164923 1.415678 -3.551533
v -2.320563 1.462090 -3.554269
v -2.372441 1.415678 -3.551533
v -2.268683 1.462090 -3.554269
v -2.216803 1.462090 -3.554269
v -2.164923 1.462090 -3.554269
v -2.320563 1.511366 -3.555076
v -2.372441 1.462090 -3.554269
v -2.268683 1.511366 -3.555076
v -2.216803 1.511366 -3.555076
v -2.164923 1.511366 -3.555076
v -2.424321 1.258825 -3.530984
v -2.424321 1.297639 -3.536784
v -2.113045 1.297639 -3.536784
v -2.113045 1.336817 -3.542401
v -2.164923 1.258825 -3.530984
v -2.113045 1.258825 -3.530984
v -2.113045 1.511366 -3.555076
v -2.113045 1.462090 -3.554269
v -2.424321 1.462090 -3.554269
v -2.424321 1.415678 -3.551533
v -2.372441 1.511366 -3.555076
v -2.424321 1.511366 -3.555076
v -2.113045 1.376212 -3.547449
v -2.424321 1.376212 -3.547449
v -2.113045 1.415678 -3.551533
v -2.424321 1.336817 -3.542401
v -2.061165 1.297692 -3.536406
v -2.061165 1.258881 -3.530606
v -2.009284 1.297822 -3.535460
v -2.009284 1.336964 -3.541075
v -2.009284 1.376312 -3.546118
v -2.061165 1.336859 -3.542022
v -2.009284 1.259023 -3.529660
v -1.957404 1.297992 -3.534231
v -1.957404 1.337101 -3.539844
v -1.957404 1.376402 -3.544882
v -1.957404 1.259206 -3.528431
v -1.905527 1.298164 -3.533000
v -1.905527 1.337236 -3.538610
v -1.905527 1.376495 -3.543646
v -1.905527 1.259390 -3.527202
v -1.853646 1.298294 -3.532055
v -1.853646 1.337340 -3.537662
v -1.853646 1.376565 -3.542696
v -2.009284 1.415729 -3.550199
v -2.061165 1.376240 -3.547068
v -1.957404 1.415776 -3.548961
v -1.905527 1.415825 -3.547723
v -1.853646 1.415862 -3.546768
v -2.009284 1.462109 -3.552933
v -2.061165 1.415692 -3.551152
v -1.957404 1.462128 -3.551693
v -1.905527 1.462147 -3.550450
v -1.853646 1.462160 -3.549495
v -2.009284 1.511369 -3.553738
v -2.061165 1.462093 -3.553888
v -1.957404 1.511373 -3.552496
v -1.905527 1.511377 -3.551255
v -1.853646 1.511379 -3.550298
v -1.801766 1.298345 -3.531676
v -1.801766 1.337382 -3.537284
v -1.853646 1.259531 -3.526257
v -1.801766 1.259587 -3.525881
v -1.801766 1.511381 -3.549918
v -1.801766 1.462166 -3.549114
v -2.061165 1.511366 -3.554695
v -1.801766 1.376593 -3.542315
v -1.801766 1.415876 -3.546387
v -1.749886 1.298294 -3.532055
v -1.749886 1.259531 -3.526257
v -1.698008 1.298164 -3.533000
v -1.698008 1.337236 -3.538610
v -1.698008 1.376495 -3.543646
v -1.749886 1.337340 -3.537662
v -1.698008 1.259390 -3.527202
v -1.646128 1.297992 -3.534231
v -1.646128 1.337101 -3.539844
v -1.646128 1.376402 -3.544882
v -1.646128 1.259206 -3.528431
v -1.594248 1.297822 -3.535460
v -1.594248 1.336964 -3.541075
v -1.594248 1.376312 -3.546118
v -1.594248 1.259023 -3.529660
v -1.542368 1.297692 -3.536406
v -1.542368 1.336859 -3.542022
v -1.542368 1.376240 -3.547068
v -1.698008 1.415825 -3.547723
v -1.749886 1.376565 -3.542696
v -1.646128 1.415776 -3.548961
v -1.594248 1.415729 -3.550199
v -1.542368 1.415692 -3.551152
v -1.698008 1.462147 -3.550450
v -1.749886 1.415862 -3.546768
v -1.646128 1.462128 -3.551693
v -1.594248 1.462109 -3.552933
v -1.542368 1.462093 -3.553888
v -1.698008 1.511377 -3.551255
v -1.749886 1.462160 -3.549495
v -1.646128 1.511373 -3.552496
v -1.594248 1.511369 -3.553738
v -1.542368 1.511366 -3.554695
v -1.490490 1.297639 -3.536784
v -1.490490 1.336817 -3.542401
v -1.542368 1.258881 -3.530606
v -1.490490 1.258825 -3.530984
v -1.490490 1.511366 -3.555076
v -1.490490 1.462090 -3.554269
v -1.749886 1.511379 -3.550298
v -1.490490 1.376212 -3.547449
v -1.490490 1.415678 -3.551533
v -1.439460 1.297360 -3.537049
v -1.439734 1.259327 -3.529899
v -1.389798 1.296984 -3.537225
v -1.388864 1.335043 -3.544889
v -1.388026 1.374451 -3.550085
v -1.439200 1.336237 -3.543224
v -1.390762 1.260930 -3.526661
v -1.340994 1.297205 -3.536380
v -1.339147 1.334058 -3.546192
v -1.337474 1.373264 -3.551857
v -1.342870 1.263782 -3.521291
v -1.292537 1.298719 -3.533579
v -1.289710 1.334109 -3.545932
v -1.287109 1.372776 -3.552573
v -1.295357 1.268031 -3.513808
v -1.243925 1.302222 -3.527892
v -1.240218 1.336016 -3.542905
v -1.236738 1.373661 -3.551217
v -1.387350 1.414556 -3.553256
v -1.438967 1.375659 -3.548278
v -1.336108 1.413748 -3.554506
v -1.284964 1.413300 -3.555207
v -1.233828 1.413611 -3.554756
v -1.386894 1.461589 -3.554838
v -1.438779 1.415332 -3.552065
v -1.335186 1.461219 -3.555265
v -1.283508 1.460988 -3.555537
v -1.231832 1.461067 -3.555463
v -1.386761 1.511270 -3.555185
v -1.438654 1.461935 -3.554443
v -1.334914 1.511199 -3.555267
v -1.283074 1.511154 -3.555319
v -1.231234 1.511169 -3.555305
v -1.194649 1.308403 -3.518389
v -1.190329 1.340604 -3.535913
v -1.247521 1.273822 -3.504240
v -1.198659 1.281304 -3.492604
v -1.179389 1.511275 -3.555188
v -1.180138 1.461617 -3.554854
v -1.438618 1.511336 -3.555109
v -1.186161 1.376597 -3.546771
v -1.182610 1.415074 -3.552552
v -2.372441 1.564670 -3.555268
v -2.320562 1.564670 -3.555268
v -2.320561 1.688655 -3.555268
v -2.320563 1.793464 -3.555268
v -2.372441 1.688655 -3.555268
v -2.268683 1.564670 -3.555268
v -2.268683 1.688655 -3.555268
v -2.268683 1.793464 -3.555268
v -2.216803 1.564670 -3.555268
v -2.216803 1.688655 -3.555268
v -2.216803 1.793464 -3.555268
v -2.164923 1.564670 -3.555268
v -2.164923 1.688655 -3.555268
v -2.164923 1.793464 -3.555268
v -2.320563 2.005167 -3.555268
v -2.372441 1.793464 -3.555268
v -2.268683 2.005167 -3.555268
v -2.216803 2.005167 -3.555268
v -2.164923 2.005167 -3.555268
v -2.320563 2.047122 -3.555268
v -2.372441 2.005167 -3.555268
v -2.268683 2.047122 -3.555268
v -2.216803 2.047122 -3.555268
v -2.164923 2.047122 -3.555268
v -2.320563 2.086135 -3.555268
v -2.372441 2.047122 -3.555268
v -2.268683 2.086135 -3.555268
v -2.216803 2.086135 -3.555268
v -2.164923 2.086135 -3.555268
v -2.424321 1.564670 -3.555268
v -2.113045 1.564670 -3.555268
v -2.113045 1.688655 -3.555268
v -2.113045 2.086135 -3.555268
v -2.113045 2.047122 -3.555268
v -2.424321 2.047122 -3.555268
v -2.424321 2.005167 -3.555268
v -2.372441 2.086135 -3.555268
v -2.424321 2.086135 -3.555268
v -2.113045 1.793464 -3.555268
v -2.424321 1.793464 -3.555268
v -2.113045 2.005167 -3.555268
v -2.424321 1.688655 -3.555268
v -2.061165 1.564670 -3.554887
v -2.009284 1.564670 -3.553930
v -2.009284 1.688655 -3.553930
v -2.009284 1.793464 -3.553930
v -2.061165 1.688655 -3.554887
v -1.957404 1.564670 -3.552687
v -1.957404 1.688655 -3.552687
v -1.957404 1.793464 -3.552687
v -1.905527 1.564670 -3.551447
v -1.905527 1.688655 -3.551447
v -1.905527 1.793464 -3.551447
v -1.853646 1.564670 -3.550489
v -1.853646 1.688655 -3.550489
v -1.853646 1.793464 -3.550489
v -2.009284 2.005167 -3.553930
v -2.061165 1.793464 -3.554887
v -1.957404 2.005167 -3.552687
v -1.905527 2.005167 -3.551447
v -1.853646 2.005167 -3.550489
v -2.009284 2.047122 -3.553930
v -2.061165 2.005167 -3.554887
v -1.957404 2.047122 -3.552687
v -1.905527 2.047122 -3.551447
v -1.853646 2.047122 -3.550489
v -2.009284 2.086135 -3.553930
v -2.061165 2.047122 -3.554887
v -1.957404 2.086135 -3.552687
v -1.905527 2.086135 -3.551447
v -1.853646 2.086135 -3.550489
v -1.801766 1.564670 -3.550109
v -1.801766 1.688655 -3.550109
v -1.801766 2.086135 -3.550109
v -1.801766 2.047122 -3.550109
v -2.061165 2.086135 -3.554887
v -1.801766 1.793464 -3.550109
v -1.801766 2.005167 -3.550109
v -1.749886 1.564670 -3.550489
v -1.698008 1.564670 -3.551447
v -1.698008 1.688655 -3.551447
v -1.698008 1.793464 -3.551447
v -1.749886 1.688655 -3.550489
v -1.646128 1.564670 -3.552687
v -1.646128 1.688655 -3.552687
v -1.646128 1.793464 -3.552687
v -1.594248 1.564670 -3.553930
v -1.594248 1.688655 -3.553930
v -1.594248 1.793464 -3.553930
v -1.542368 1.564670 -3.554887
v -1.542368 1.688655 -3.554887
v -1.542368 1.793464 -3.554887
v -1.698008 2.005167 -3.551447
v -1.749886 1.793464 -3.550489
v -1.646128 2.005167 -3.552687
v -1.594248 2.005167 -3.553930
v -1.542368 2.005167 -3.554887
v -1.698008 2.047122 -3.551447
v -1.749886 2.005167 -3.550489
v -1.646128 2.047122 -3.552687
v -1.594248 2.047122 -3.553930
v -1.542368 2.047122 -3.554887
v -1.698008 2.086135 -3.551447
v -1.749886 2.047122 -3.550489
v -1.646128 2.086135 -3.552687
v -1.594248 2.086135 -3.553930
v -1.542368 2.086135 -3.554887
v -1.490490 1.564670 -3.555268
v -1.490490 1.688655 -3.555268
v -1.490490 2.086135 -3.555268
v -1.490490 2.047122 -3.555268
v -1.749886 2.086135 -3.550489
v -1.490490 1.793464 -3.555268
v -1.490490 2.005167 -3.555268
v -1.438610 1.564670 -3.555268
v -1.386729 1.564670 -3.555268
v -1.386729 1.688655 -3.555268
v -1.386729 1.793464 -3.555268
v -1.438610 1.688655 -3.555268
v -1.334849 1.564670 -3.555268
v -1.334849 1.688655 -3.555268
v -1.334849 1.793464 -3.555268
v -1.282972 1.564670 -3.555268
v -1.282972 1.688655 -3.555268
v -1.282972 1.793464 -3.555268
v -1.231091 1.564670 -3.555268
v -1.231091 1.688655 -3.555268
v -1.231091 1.793464 -3.555268
v -1.386729 2.005167 -3.555268
v -1.438610 1.793464 -3.555268
v -1.334849 2.005167 -3.555268
v -1.282972 2.005167 -3.555268
v -1.231091 2.005167 -3.555268
v -1.386729 2.047122 -3.555268
v -1.438610 2.005167 -3.555268
v -1.334849 2.047122 -3.555268
v -1.282972 2.047122 -3.555268
v -1.231091 2.047122 -3.555268
v -1.386729 2.086135 -3.555268
v -1.438610 2.047122 -3.555268
v -1.334849 2.086135 -3.555268
v -1.282972 2.086135 -3.555268
v -1.231091 2.086135 -3.555268
v -1.179211 1.564670 -3.555268
v -1.179211 1.688655 -3.555268
v -1.179211 2.086135 -3.555268
v -1.179211 2.047122 -3.555268
v -1.438610 2.086135 -3.555268
v -1.179211 1.793464 -3.555268
v -1.179211 2.005167 -3.555268
v -2.372267 2.125091 -3.555259
v -2.320440 2.125102 -3.555467
v -2.320068 2.163930 -3.555568
v -2.319441 2.202551 -3.554819
v -2.371751 2.163874 -3.554741
v -2.268606 2.125116 -3.555495
v -2.268374 2.164006 -3.555795
v -2.267977 2.202753 -3.555590
v -2.216766 2.125132 -3.555421
v -2.216654 2.164081 -3.555660
v -2.216457 2.202957 -3.555667
v -2.164913 2.125144 -3.555319
v -2.164883 2.164139 -3.555405
v -2.164828 2.203113 -3.555432
v -2.318556 2.240893 -3.552477
v -2.370901 2.202395 -3.552968
v -2.267403 2.241313 -3.554310
v -2.216166 2.241734 -3.555116
v -2.164749 2.242059 -3.555298
v -2.317404 2.278887 -3.547797
v -2.369726 2.240570 -3.549205
v -2.266646 2.279639 -3.551384
v -2.215781 2.280392 -3.553684
v -2.164639 2.280970 -3.554907
v -2.315985 2.316460 -3.540027
v -2.368234 2.278308 -3.542709
v -2.265694 2.317679 -3.546232
v -2.215291 2.318901 -3.551047
v -2.164500 2.319840 -3.554162
v -2.424096 2.125086 -3.554796
v -2.113045 2.125148 -3.555268
v -2.113045 2.164162 -3.555268
v -2.113045 2.320214 -3.555267
v -2.113045 2.281200 -3.555267
v -2.419308 2.278076 -3.535910
v -2.421013 2.240440 -3.544085
v -2.366439 2.315521 -3.532740
v -2.417332 2.315145 -3.524682
v -2.113045 2.203176 -3.555267
v -2.422402 2.202332 -3.549655
v -2.113045 2.242187 -3.555267
v -2.423443 2.163851 -3.553075
v -2.061165 2.125146 -3.554887
v -2.009284 2.125146 -3.553930
v -2.009284 2.164160 -3.553930
v -2.009284 2.203176 -3.553929
v -2.061165 2.164160 -3.554887
v -1.957404 2.125148 -3.552687
v -1.957404 2.164162 -3.552687
v -1.957404 2.203176 -3.552687
v -1.905527 2.125148 -3.551447
v -1.905527 2.164162 -3.551447
v -1.905527 2.203176 -3.551447
v -1.853646 2.125148 -3.550489
v -1.853646 2.164162 -3.550489
v -1.853646 2.203176 -3.550489
v -2.009284 2.242187 -3.553929
v -2.061165 2.203176 -3.554886
v -1.957404 2.242187 -3.552687
v -1.905527 2.242187 -3.551447
v -1.853646 2.242187 -3.550489
v -2.009284 2.281200 -3.553929
v -2.061165 2.242187 -3.554886
v -1.957404 2.281200 -3.552686
v -1.905527 2.281200 -3.551447
v -1.853646 2.281200 -3.550489
v -2.009284 2.320214 -3.553929
v -2.061165 2.281200 -3.554886
v -1.957404 2.320214 -3.552686
v -1.905527 2.320214 -3.551447
v -1.853646 2.320214 -3.550489
v -1.801766 2.125148 -3.550109
v -1.801766 2.164162 -3.550109
v -1.801766 2.320214 -3.550108
v -1.801766 2.281200 -3.550108
v -2.061165 2.320214 -3.554886
v -1.801766 2.203176 -3.550108
v -1.801766 2.242187 -3.550108
v -1.749886 2.125146 -3.550489
v -1.698008 2.125146 -3.551447
v -1.698008 2.164160 -3.551447
v -1.698008 2.203176 -3.551447
v -1.749886 2.164160 -3.550489
v -1.646128 2.125148 -3.552687
v -1.646128 2.164162 -3.552687
v -1.646128 2.203176 -3.552687
v -1.594248 2.125148 -3.553930
v -1.594248 2.164162 -3.553930
v -1.594248 2.203176 -3.553929
v -1.542368 2.125148 -3.554887
v -1.542368 2.164162 -3.554887
v -1.542368 2.203176 -3.554886
v -1.698008 2.242187 -3.551447
v -1.749886 2.203176 -3.550489
v -1.646128 2.242187 -3.552687
v -1.594248 2.242187 -3.553929
v -1.542368 2.242187 -3.554886
v -1.698008 2.281200 -3.551447
v -1.749886 2.242187 -3.550489
v -1.646128 2.281200 -3.552686
v -1.594248 2.281200 -3.553929
v -1.542368 2.281200 -3.554886
v -1.698008 2.320214 -3.551447
v -1.749886 2.281200 -3.550489
v -1.646128 2.320214 -3.552686
v -1.594248 2.320214 -3.553929
v -1.542368 2.320214 -3.554886
v -1.490490 2.125148 -3.555268
v -1.490490 2.164162 -3.555268
v -1.490490 2.320214 -3.555267
v -1.490490 2.281200 -3.555267
v -1.749886 2.320214 -3.550489
v -1.490490 2.203176 -3.555267
v -1.490490 2.242187 -3.555267
v -1.438624 2.125144 -3.555350
v -1.386783 2.125132 -3.555537
v -1.386929 2.164081 -3.556072
v -1.387141 2.202957 -3.556457
v -1.438665 2.164139 -3.555510
v -1.334954 2.125116 -3.555758
v -1.335237 2.164006 -3.556713
v -1.335648 2.202753 -3.557356
v -1.283127 2.125102 -3.555932
v -1.283552 2.163930 -3.557189
v -1.284170 2.202551 -3.557934
v -1.231293 2.125091 -3.555979
v -1.231832 2.163874 -3.557254
v -1.232620 2.202395 -3.557804
v -1.387394 2.241734 -3.556278
v -1.438726 2.203113 -3.555630
v -1.336141 2.241313 -3.556912
v -1.284906 2.240893 -3.557072
v -1.233554 2.240570 -3.556341
v -1.387663 2.280392 -3.555121
v -1.438798 2.242059 -3.555590
v -1.336663 2.279639 -3.554605
v -1.285687 2.278887 -3.553497
v -1.234541 2.278308 -3.551577
v -1.387926 2.318901 -3.552573
v -1.438874 2.280970 -3.555267
v -1.337172 2.317679 -3.549660
v -1.286442 2.316460 -3.546111
v -1.235489 2.315521 -3.542224
v -1.179436 2.125086 -3.555823
v -1.180040 2.163851 -3.556666
v -1.184068 2.315145 -3.538306
v -1.183037 2.278076 -3.548619
v -1.438949 2.319840 -3.554543
v -1.180914 2.202332 -3.556568
v -1.181950 2.240440 -3.554296
v -1.542368 1.964688 -3.554887
v -1.282972 1.964688 -3.555268
v -2.268683 1.964688 -3.555268
v -1.853646 1.964688 -3.550489
v -1.594248 1.964688 -3.553930
v -1.386729 1.964688 -3.555268
v -2.061165 1.964688 -3.554887
v -1.646128 1.964688 -3.552687
v -1.231091 1.964688 -3.555268
v -1.957404 1.964688 -3.552687
v -1.438610 1.964688 -3.555268
v -1.490490 1.964688 -3.555268
v -1.698008 1.964688 -3.551447
v -2.372441 1.964688 -3.555268
v -2.216803 1.964688 -3.555268
v -2.113045 1.964688 -3.555268
v -2.009284 1.964688 -3.553930
v -1.179211 1.964688 -3.555268
v -1.905527 1.964688 -3.551447
v -1.749886 1.964688 -3.550489
v -1.801766 1.964688 -3.550109
v -2.320563 1.964688 -3.555268
v -2.164923 1.964688 -3.555268
v -1.334849 1.964688 -3.555268
v -2.424321 1.964688 -3.555268
v -2.424321 1.915332 -3.555268
v -1.542368 1.915332 -3.554887
v -1.282972 1.915332 -3.555268
v -2.268683 1.915332 -3.555268
v -1.853646 1.915332 -3.550489
v -1.594248 1.915332 -3.553930
v -1.386729 1.915332 -3.555268
v -2.061165 1.915332 -3.554887
v -1.646128 1.915332 -3.552687
v -1.231091 1.915332 -3.555268
v -1.957404 1.915332 -3.552687
v -1.438610 1.915332 -3.555268
v -1.490490 1.915332 -3.555268
v -1.698008 1.915332 -3.551447
v -2.372441 1.915332 -3.555268
v -2.216803 1.915332 -3.555268
v -2.113045 1.915332 -3.555268
v -2.009284 1.915332 -3.553930
v -1.179211 1.915332 -3.555268
v -1.905527 1.915332 -3.551447
v -1.749886 1.915332 -3.550489
v -1.801766 1.915332 -3.550109
v -2.320563 1.915332 -3.555268
v -2.164923 1.915332 -3.555268
v -1.334849 1.915332 -3.555268
v -2.424321 1.873440 -3.555268
v -1.542368 1.873440 -3.554887
v -1.282972 1.873440 -3.555268
v -2.268683 1.873440 -3.555268
v -1.853646 1.873440 -3.550489
v -1.594248 1.873440 -3.553930
v -1.386729 1.873440 -3.555268
v -2.061165 1.873440 -3.554887
v -1.646128 1.873440 -3.552687
v -1.231091 1.873440 -3.555268
v -1.957404 1.873440 -3.552687
v -1.438610 1.873440 -3.555268
v -1.490490 1.873440 -3.555268
v -1.698008 1.873440 -3.551447
v -2.372441 1.873440 -3.555268
v -2.216803 1.873440 -3.555268
v -2.113045 1.873440 -3.555268
v -2.009284 1.873440 -3.553930
v -1.179211 1.873440 -3.555268
v -1.905527 1.873440 -3.551447
v -1.749886 1.873440 -3.550489
v -1.801766 1.873440 -3.550109
v -2.320563 1.873440 -3.555268
v -2.164923 1.873440 -3.555268
v -1.334849 1.873440 -3.555268
v -2.424321 1.833452 -3.555268
v -1.542368 1.833452 -3.554887
v -1.282972 1.833452 -3.555268
v -2.268683 1.833452 -3.555268
v -1.853646 1.833452 -3.550489
v -1.594248 1.833452 -3.553930
v -1.386729 1.833452 -3.555268
v -2.061165 1.833452 -3.554887
v -1.646128 1.833452 -3.552687
v -1.231091 1.833452 -3.555268
v -1.957404 1.833452 -3.552687
v -1.438610 1.833452 -3.555268
v -1.490490 1.833452 -3.555268
v -1.698008 1.833452 -3.551447
v -2.372441 1.833452 -3.555268
v -2.216803 1.833452 -3.555268
v -2.113045 1.833452 -3.555268
v -2.009284 1.833452 -3.553930
v -1.179211 1.833452 -3.555268
v -1.905527 1.833452 -3.551447
v -1.749886 1.833452 -3.550489
v -1.801766 1.833452 -3.550109
v -2.320563 1.833452 -3.555268
v -2.164923 1.833452 -3.555268
v -1.334849 1.833452 -3.555268
v -2.372441 1.741060 -3.555268
v -1.905527 1.741060 -3.551447
v -1.853646 1.741060 -3.550489
v -2.216803 1.741060 -3.555268
v -1.542368 1.741060 -3.554887
v -1.438610 1.741060 -3.555268
v -2.164923 1.741060 -3.555268
v -2.113045 1.741060 -3.555268
v -2.061165 1.741060 -3.554887
v -1.801766 1.741060 -3.550109
v -1.386729 1.741060 -3.555268
v -1.698008 1.741060 -3.551447
v -1.334849 1.741060 -3.555268
v -2.009284 1.741060 -3.553930
v -1.646128 1.741060 -3.552687
v -1.179211 1.741060 -3.555268
v -1.231091 1.741060 -3.555268
v -1.282972 1.741060 -3.555268
v -1.749886 1.741060 -3.550489
v -2.320562 1.741060 -3.555268
v -1.594248 1.741060 -3.553930
v -2.268683 1.741060 -3.555268
v -2.424321 1.741060 -3.555268
v -1.490490 1.741060 -3.555268
v -1.957404 1.741060 -3.552687
v -1.542368 1.644141 -3.554887
v -1.853646 1.644141 -3.550489
v -1.905527 1.644141 -3.551447
v -2.268683 1.644141 -3.555268
v -1.179211 1.644141 -3.555268
v -1.490490 1.644141 -3.555268
v -1.749886 1.644141 -3.550489
v -2.009284 1.644141 -3.553930
v -2.372441 1.644141 -3.555268
v -2.164923 1.644141 -3.555268
v -2.061165 1.644141 -3.554887
v -1.386729 1.644141 -3.555268
v -1.282972 1.644141 -3.555268
v -1.646128 1.644141 -3.552687
v -2.424321 1.644141 -3.555268
v -1.334849 1.644141 -3.555268
v -1.438610 1.644141 -3.555268
v -1.698008 1.644141 -3.551447
v -2.216803 1.644141 -3.555268
v -2.320561 1.644141 -3.555268
v -1.594248 1.644141 -3.553930
v -1.801766 1.644141 -3.550109
v -1.231091 1.644141 -3.555268
v -2.113045 1.644141 -3.555268
v -1.957404 1.644141 -3.552687
v -1.542368 1.604406 -3.554887
v -1.853646 1.604406 -3.550489
v -1.905527 1.604406 -3.551447
v -2.268683 1.604406 -3.555268
v -1.179211 1.604406 -3.555268
v -1.490490 1.604406 -3.555268
v -1.749886 1.604406 -3.550489
v -2.009284 1.604406 -3.553930
v -2.372441 1.604406 -3.555268
v -2.164923 1.604406 -3.555268
v -2.061165 1.604406 -3.554887
v -1.386729 1.604406 -3.555268
v -1.282972 1.604406 -3.555268
v -1.646128 1.604406 -3.552687
v -2.424321 1.604406 -3.555268
v -1.334849 1.604406 -3.555268
v -1.438610 1.604406 -3.555268
v -1.698008 1.604406 -3.551447
v -2.216803 1.604406 -3.555268
v -2.320562 1.604406 -3.555268
v -1.594248 1.604406 -3.553930
v -1.801766 1.604406 -3.550109
v -1.231091 1.604406 -3.555268
v -2.113045 1.604406 -3.555268
v -1.957404 1.604406 -3.552687
vn -0.0212 0.1479 0.9888
vn -0.0129 0.1450 0.9893
vn -0.0212 0.1450 0.9892
vn 0.0005 0.0015 1.0000
vn 0.0046 0.0110 0.9999
vn 0.0034 0.0039 1.0000
vn 0.0124 0.1345 0.9908
vn 0.0256 0.1091 0.9937
vn 0.0114 0.1141 0.9934
vn 0.0212 0.0100 0.9997
vn 0.0129 0.0018 0.9999
vn 0.0129 0.0100 0.9999
vn -0.1194 0.3246 0.9383
vn -0.2050 0.5739 0.7929
vn -0.1433 0.3717 0.9172
vn -0.0129 0.0810 0.9966
vn -0.0211 0.1151 0.9931
vn -0.0128 0.1152 0.9933
vn 0.0524 -0.0754 0.9958
vn 0.0126 -0.0108 0.9999
vn 0.0282 -0.0431 0.9987
vn 0.0162 0.0717 0.9973
vn 0.0081 0.0799 0.9968
vn -0.0239 -0.0000 0.9997
vn -0.0212 -0.0000 0.9998
vn 0.0039 0.0099 0.9999
vn -0.0212 0.0100 0.9997
vn -0.0129 0.0018 0.9999
vn -0.0212 0.0018 0.9998
vn 0.0129 -0.0000 0.9999
vn 0.0212 -0.0000 0.9998
vn -0.0129 -0.0000 0.9999
vn -0.0037 -0.0000 1.0000
vn -0.0128 0.1237 0.9922
vn -0.0694 0.1638 0.9840
vn 0.0020 -0.0020 1.0000
vn -0.0028 -0.0010 1.0000
vn -0.0000 -0.0000 1.0000
vn 0.0037 -0.0000 1.0000
vn -0.0211 0.0376 0.9991
vn -0.0129 0.0809 0.9966
vn -0.0211 0.0809 0.9965
vn 0.0212 0.0376 0.9991
vn 0.0239 0.0809 0.9964
vn 0.0239 0.0376 0.9990
vn -0.0037 0.0100 0.9999
vn -0.0000 0.0376 0.9993
vn -0.0037 0.0376 0.9993
vn 0.0079 0.0068 0.9999
vn -0.0015 0.0398 0.9992
vn 0.0004 0.0028 1.0000
vn -0.0037 0.1478 0.9890
vn -0.0129 0.1449 0.9894
vn -0.0037 0.1449 0.9894
vn 0.0152 0.0013 0.9999
vn 0.0081 0.0039 1.0000
vn 0.0113 0.0116 0.9999
vn -0.0088 0.0119 0.9999
vn -0.0024 0.0243 0.9997
vn -0.0021 0.0188 0.9998
vn -0.0109 0.0103 0.9999
vn -0.0364 0.0900 0.9953
vn -0.0095 0.0253 0.9996
vn -0.0119 -0.0524 0.9986
vn 0.0075 -0.0068 0.9999
vn 0.0097 -0.0200 0.9998
vn 0.0239 -0.0000 0.9997
vn 0.0023 0.0050 1.0000
vn 0.0058 0.0323 0.9995
vn 0.0115 0.0193 0.9997
vn 0.0239 0.0018 0.9997
vn -0.0037 0.0809 0.9967
vn -0.0129 0.0376 0.9992
vn -0.0000 0.0809 0.9967
vn -0.0335 0.0597 0.9977
vn 0.0042 0.1502 0.9886
vn 0.0210 0.1448 0.9892
vn 0.0129 0.0376 0.9992
vn -0.0175 0.2499 0.9681
vn 0.0260 0.1699 0.9851
vn -0.0129 0.1347 0.9908
vn 0.1349 -0.2507 0.9586
vn 0.0873 -0.1659 0.9823
vn 0.1182 -0.1910 0.9745
vn -0.0000 0.0018 1.0000
vn -0.0000 0.0100 1.0000
vn 0.0006 0.0020 1.0000
vn 0.0001 0.0028 1.0000
vn 0.0129 0.1479 0.9889
vn -0.0000 0.1450 0.9894
vn -0.0000 0.1479 0.9890
vn 0.0001 -0.0024 1.0000
vn 0.0001 -0.0001 1.0000
vn 0.0025 0.0005 1.0000
vn 0.0293 -0.0580 0.9979
vn 0.0625 -0.1096 0.9920
vn -0.0000 0.1150 0.9934
vn -0.0037 0.1345 0.9909
vn -0.0037 0.1150 0.9934
vn -0.0281 -0.0833 0.9961
vn 0.0023 -0.0035 1.0000
vn -0.0151 -0.0140 0.9998
vn 0.0027 -0.0004 1.0000
vn -0.0016 0.0049 1.0000
vn -0.0027 0.0022 1.0000
vn 0.0526 -0.0950 0.9941
vn 0.0109 -0.0217 0.9997
vn 0.1129 -0.2159 0.9699
vn 0.0006 0.0040 1.0000
vn -0.0239 0.1346 0.9906
vn -0.0211 0.1449 0.9892
vn -0.0239 0.1449 0.9892
vn 0.0129 0.1347 0.9908
vn 0.0212 0.1450 0.9892
vn 0.0211 0.1347 0.9907
vn -0.0026 -0.0025 1.0000
vn -0.0051 0.0001 1.0000
vn -0.0049 -0.0004 1.0000
vn 0.0174 0.0422 0.9990
vn -0.0000 0.1478 0.9890
vn -0.0000 0.1449 0.9895
vn 0.0012 0.0084 1.0000
vn 0.0004 0.0008 1.0000
vn 0.0001 0.0016 1.0000
vn 0.0051 0.0372 0.9993
vn -0.0380 0.1771 0.9835
vn -0.0076 0.1478 0.9890
vn 0.0212 0.1479 0.9888
vn 0.0129 0.1450 0.9893
vn -0.0128 0.1150 0.9933
vn -0.0000 0.1345 0.9909
vn 0.0239 0.1449 0.9892
vn 0.0239 0.1346 0.9906
vn -0.0000 0.0810 0.9967
vn 0.0129 0.1152 0.9933
vn 0.0211 0.1151 0.9931
vn 0.0005 0.0067 1.0000
vn 0.0017 0.0243 0.9997
vn 0.0041 0.0188 0.9998
vn -0.0239 0.1151 0.9931
vn -0.0211 0.1345 0.9907
vn -0.0018 0.0020 1.0000
vn -0.0035 0.0012 1.0000
vn -0.0239 0.0376 0.9990
vn -0.0212 0.0376 0.9991
vn -0.0025 -0.0007 1.0000
vn -0.0000 -0.0005 1.0000
vn -0.0017 0.0035 1.0000
vn -0.0129 0.1479 0.9889
vn 0.0397 -0.0573 0.9976
vn 0.0042 -0.0092 0.9999
vn 0.0200 -0.0188 0.9996
vn -0.0514 -0.1162 0.9919
vn -0.0212 -0.0984 0.9949
vn 0.0129 0.1478 0.9889
vn 0.0211 0.1449 0.9892
vn 0.0212 0.1478 0.9888
vn -0.0608 -0.1804 0.9817
vn -0.0332 -0.1458 0.9888
vn -0.0211 0.1347 0.9907
vn -0.0212 0.1478 0.9888
vn -0.0822 0.2066 0.9750
vn -0.0000 0.1152 0.9933
vn -0.0000 0.1347 0.9909
vn 0.0131 -0.0287 0.9995
vn 0.0094 -0.0095 0.9999
vn 0.0013 -0.0013 1.0000
vn -0.0038 0.0001 1.0000
vn 0.0129 0.0810 0.9966
vn 0.0211 0.0809 0.9965
vn 0.0211 0.1345 0.9907
vn -0.1176 0.3861 0.9149
vn -0.0738 0.2614 0.9624
vn -0.0037 0.0018 1.0000
vn 0.0064 0.0003 1.0000
vn 0.0071 -0.0001 1.0000
vn 0.0044 -0.0385 0.9992
vn 0.0124 0.0009 0.9999
vn 0.0239 0.1151 0.9931
vn 0.0821 -0.1369 0.9872
vn 0.1193 -0.2458 0.9620
vn 0.0878 -0.1712 0.9813
vn 0.0211 0.1150 0.9931
vn 0.0211 0.0376 0.9991
vn 0.0129 0.0809 0.9966
vn 0.0006 -0.0089 1.0000
vn -0.0239 0.0809 0.9964
vn -0.0003 0.0009 1.0000
vn -0.0002 0.0022 1.0000
vn -0.0239 0.0099 0.9997
vn -0.0239 0.0018 0.9997
vn 0.0001 0.0087 1.0000
vn -0.0044 0.0002 1.0000
vn 0.0239 0.0099 0.9997
vn -0.2398 0.6685 0.7040
vn -0.1771 0.5320 0.8280
vn -0.2196 0.6207 0.7527
vn 0.0281 0.0561 0.9980
vn 0.0359 0.1050 0.9938
vn 0.0046 0.2073 0.9783
vn 0.0216 0.1079 0.9939
vn 0.0271 -0.0329 0.9991
vn 0.0543 -0.1089 0.9926
vn 0.0252 -0.0603 0.9979
vn 0.0129 0.1345 0.9908
vn 0.0128 0.1150 0.9933
vn 0.0099 0.0198 0.9998
vn 0.0038 0.0246 0.9997
vn -0.1058 0.4477 0.8879
vn -0.1675 0.5176 0.8391
vn 0.0039 0.0002 1.0000
vn 0.0063 -0.0258 0.9996
vn 0.0037 0.0018 1.0000
vn -0.0129 0.1478 0.9889
vn 0.0049 0.0004 1.0000
vn -0.0083 -0.0604 0.9981
vn -0.0516 -0.2045 0.9775
vn -0.0349 -0.1002 0.9944
vn 0.0129 0.1449 0.9894
vn 0.0070 -0.0000 1.0000
vn -0.0000 0.0071 1.0000
vn -0.0000 -0.0060 1.0000
vn -0.0129 0.0100 0.9999
vn 0.0108 0.0004 0.9999
vn -0.0129 0.1345 0.9908
vn -0.0239 0.1479 0.9887
vn -0.0652 -0.2343 0.9700
vn -0.0472 -0.1849 0.9816
vn 0.0040 0.0023 1.0000
vn -0.0004 0.0087 1.0000
vn 0.0371 -0.0153 0.9992
vn -0.0211 0.1150 0.9931
vn 0.0954 -0.1219 0.9879
vn 0.0677 -0.0586 0.9960
vn 0.0212 0.0018 0.9998
vn -0.0000 0.0007 1.0000
vn 0.0059 -0.0009 1.0000
vn -0.0441 0.2595 0.9647
vn -0.0003 -0.0001 1.0000
vn -0.0060 -0.0176 0.9998
vn 0.0016 -0.0019 1.0000
vn -0.0033 -0.0000 1.0000
vn -0.0222 -0.0148 0.9996
vn -0.0516 0.3463 0.9367
vn -0.0201 -0.0276 0.9994
vn -0.0070 0.0217 0.9997
vn 0.1378 -0.2811 0.9497
vn -0.0642 -0.2593 0.9637
vn -0.0056 0.1810 0.9835
vn 0.0239 0.1479 0.9887
vn 0.0003 0.0060 1.0000
vn -0.0382 -0.0563 0.9977
vt 0.416835 0.009341
vt 0.458404 0.045312
vt 0.416806 0.045286
vt 0.791183 0.768789
vt 0.832733 0.804529
vt 0.791180 0.804554
vt 0.749623 0.081349
vt 0.790953 0.117357
vt 0.749640 0.117777
vt 0.583250 0.241801
vt 0.541622 0.290669
vt 0.541631 0.241775
vt 0.949704 0.080912
vt 0.987626 0.049585
vt 0.989993 0.083341
vt 0.458370 0.154036
vt 0.416757 0.117791
vt 0.458378 0.117778
vt 0.043797 0.875555
vt 0.084553 0.840251
vt 0.085056 0.875660
vt 0.791087 0.153897
vt 0.749642 0.154157
vt 0.375320 0.947718
vt 0.416905 0.911938
vt 0.416913 0.947705
vt 0.749607 0.241933
vt 0.708020 0.290763
vt 0.708041 0.241907
vt 0.416765 0.241808
vt 0.458399 0.290673
vt 0.416786 0.290694
vt 0.541642 0.768836
vt 0.583227 0.733060
vt 0.583232 0.768829
vt 0.292070 0.657536
vt 0.250488 0.694660
vt 0.250482 0.657544
vt 0.912371 0.115335
vt 0.952467 0.115948
vt 0.292121 0.911980
vt 0.250544 0.947774
vt 0.250529 0.911998
vt 0.791168 0.694558
vt 0.749593 0.733030
vt 0.749587 0.694567
vt 0.333535 0.196721
vt 0.291961 0.154157
vt 0.333534 0.154135
vt 0.583268 0.196631
vt 0.624885 0.154086
vt 0.624885 0.196669
vt 0.375311 0.911950
vt 0.416898 0.876171
vt 0.250402 0.241931
vt 0.208829 0.196765
vt 0.250395 0.196765
vt 0.873984 0.196107
vt 0.914106 0.152336
vt 0.915306 0.195894
vt 0.250471 0.009139
vt 0.292029 0.045157
vt 0.250448 0.045120
vt 0.458427 0.452449
vt 0.500016 0.404388
vt 0.500020 0.452443
vt 0.832474 0.875891
vt 0.791155 0.840309
vt 0.832628 0.840243
vt 0.998418 0.839982
vt 0.957343 0.804446
vt 0.998902 0.804435
vt 0.458488 0.876161
vt 0.500067 0.840383
vt 0.500073 0.876151
vt 0.956632 0.195886
vt 0.995936 0.153543
vt 0.998029 0.196258
vt 0.375244 0.537186
vt 0.416837 0.500512
vt 0.416842 0.537177
vt 0.791146 0.537143
vt 0.832715 0.500480
vt 0.832721 0.537136
vt 0.666424 0.768815
vt 0.708010 0.733039
vt 0.708015 0.768808
vt 0.832068 0.946926
vt 0.791063 0.911764
vt 0.832283 0.911452
vt 0.666442 0.947658
vt 0.624845 0.911895
vt 0.666440 0.911890
vt 0.832691 0.241897
vt 0.791156 0.196663
vt 0.832608 0.196398
vt 0.541668 0.947676
vt 0.583250 0.911901
vt 0.583255 0.947668
vt 0.583224 0.327126
vt 0.624840 0.290710
vt 0.624829 0.327145
vt 0.250398 0.154161
vt 0.291959 0.196750
vt 0.167254 0.196763
vt 0.208833 0.154151
vt 0.954917 0.152503
vt 0.749590 0.045037
vt 0.790773 0.080894
vt 0.666461 0.241873
vt 0.708062 0.196743
vt 0.042562 0.733159
vt 0.084141 0.694687
vt 0.084146 0.733154
vt 0.830421 0.044433
vt 0.831163 0.080055
vt 0.458390 0.081493
vt 0.791138 0.452452
vt 0.749564 0.500489
vt 0.749564 0.452453
vt 0.375281 0.768871
vt 0.333690 0.804650
vt 0.333683 0.768881
vt 0.046454 0.981134
vt 0.086530 0.945956
vt 0.087319 0.981140
vt 0.458482 0.840392
vt 0.500062 0.804614
vt 0.125682 0.327241
vt 0.167259 0.290807
vt 0.167264 0.327236
vt 0.666402 0.537152
vt 0.707986 0.500491
vt 0.707990 0.537151
vt 0.500008 0.241767
vt 0.458372 0.196605
vt 0.500007 0.196591
vt 0.084149 0.768925
vt 0.125732 0.733149
vt 0.125736 0.768920
vt 0.541573 0.009370
vt 0.499998 0.045319
vt 0.499996 0.009388
vt 0.915684 0.241798
vt 0.874252 0.290817
vt 0.874197 0.241850
vt 0.375303 0.876182
vt 0.416891 0.840402
vt 0.126756 0.911224
vt 0.127319 0.946474
vt 0.208841 0.117784
vt 0.250427 0.081400
vt 0.250410 0.117801
vt 0.292111 0.876209
vt 0.333697 0.840422
vt 0.333705 0.876195
vt 0.955547 0.910296
vt 0.914997 0.875467
vt 0.956283 0.875306
vt 0.125988 0.840321
vt 0.167357 0.804673
vt 0.167448 0.840389
vt 0.541647 0.804603
vt 0.085734 0.910867
vt 0.126306 0.875847
vt 0.045600 0.945801
vt 0.832757 0.733008
vt 0.832766 0.768775
vt 0.375176 0.081469
vt 0.333616 0.045199
vt 0.375210 0.045244
vt 0.333715 0.911964
vt 0.832710 0.452449
vt 0.874271 0.404411
vt 0.874280 0.452441
vt 0.416797 0.327137
vt 0.458406 0.327119
vt 0.541612 0.081486
vt 0.583190 0.045271
vt 0.583222 0.081470
vt 0.874289 0.500471
vt 0.874296 0.537127
vt 0.209003 0.876178
vt 0.250512 0.840448
vt 0.250519 0.876223
vt 0.873277 0.152699
vt 0.416920 0.983473
vt 0.458502 0.947694
vt 0.458509 0.983461
vt 0.167295 0.009089
vt 0.125697 0.045059
vt 0.125706 0.009074
vt 0.791160 0.241931
vt 0.832706 0.290813
vt 0.791151 0.290800
vt 0.874328 0.694535
vt 0.874337 0.732995
vt 0.624828 0.768822
vt 0.583236 0.804596
vt 0.541617 0.537158
vt 0.583206 0.500492
vt 0.583209 0.537155
vt 0.749628 0.196771
vt 0.458438 0.537169
vt 0.500023 0.500498
vt 0.500028 0.537163
vt 0.790232 0.009235
vt 0.749527 0.009038
vt 0.583155 0.009325
vt 0.541593 0.045305
vt 0.291977 0.117812
vt 0.125689 0.081348
vt 0.167284 0.045073
vt 0.167273 0.081360
vt 0.000924 0.241946
vt 0.042509 0.196758
vt 0.042510 0.241944
vt 0.541657 0.876143
vt 0.500079 0.911917
vt 0.084093 0.241942
vt 0.125675 0.196761
vt 0.125675 0.241941
vt 0.624790 0.045219
vt 0.624830 0.081448
vt 0.500005 0.154022
vt 0.541629 0.117772
vt 0.583249 0.117779
vt 0.624848 0.947662
vt 0.125708 0.537240
vt 0.167288 0.500568
vt 0.167293 0.537232
vt 0.874346 0.768760
vt 0.915807 0.804467
vt 0.874274 0.804497
vt 0.832705 0.327222
vt 0.874258 0.327223
vt 0.500010 0.290664
vt 0.500012 0.327111
vt 0.375148 0.117802
vt 0.333582 0.081448
vt 0.084105 0.081339
vt 0.208924 0.804678
vt 0.208953 0.840437
vt 0.084098 0.117754
vt 0.042517 0.081332
vt 0.375131 0.196680
vt 0.416744 0.196639
vt 0.458476 0.804622
vt 0.957178 0.241757
vt 0.915792 0.290802
vt 0.416741 0.154065
vt 0.998705 0.241772
vt 0.042512 0.290818
vt 0.000927 0.290821
vt 0.458419 0.009378
vt 0.541641 0.196601
vt 0.168150 0.947094
vt 0.209074 0.911898
vt 0.209175 0.947591
vt 0.872597 0.981411
vt 0.872965 0.946237
vt 0.707936 0.009117
vt 0.666389 0.045162
vt 0.666342 0.009192
vt 0.913361 0.980674
vt 0.913832 0.945572
vt 0.624837 0.840360
vt 0.666429 0.804584
vt 0.666433 0.840354
vt 0.416780 0.081484
vt 0.208873 0.500560
vt 0.208879 0.537224
vt 0.832704 0.404418
vt 0.333651 0.009232
vt 0.993056 0.117861
vt 0.500003 0.117770
vt 0.500001 0.081493
vt 0.915835 0.404397
vt 0.915848 0.452428
vt 0.167842 0.911608
vt 0.458470 0.768853
vt 0.416884 0.804632
vt 0.416878 0.768862
vt 0.042707 0.804648
vt 0.042565 0.768930
vt 0.250499 0.768900
vt 0.292082 0.733119
vt 0.292088 0.768891
vt 0.541640 0.154031
vt 0.583268 0.154055
vt 0.957419 0.452411
vt 0.998975 0.404354
vt 0.998992 0.452390
vt 0.666431 0.081418
vt 0.375329 0.983485
vt 0.868308 0.010962
vt 0.829602 0.009951
vt 0.042539 0.537253
vt 0.084118 0.500583
vt 0.084122 0.537247
vt 0.915869 0.537115
vt 0.957434 0.500444
vt 0.957444 0.537100
vt 0.208907 0.733136
vt 0.250493 0.733128
vt 0.791163 0.657450
vt 0.749582 0.657458
vt 0.291991 0.290775
vt 0.250413 0.290792
vt 0.084100 0.327246
vt 0.125678 0.290811
vt 0.708029 0.876118
vt 0.749611 0.840340
vt 0.749616 0.876113
vt 0.873373 0.911031
vt 0.873752 0.875680
vt 0.208844 0.327229
vt 0.250421 0.327220
vt 0.333555 0.241884
vt 0.624863 0.117784
vt 0.500091 0.983451
vt 0.541673 0.983443
vt 0.125683 0.117762
vt 0.167264 0.117771
vt 0.044659 0.910707
vt 0.004318 0.946282
vt 0.003362 0.910956
vt 0.624806 0.537154
vt 0.666398 0.500491
vt 0.666464 0.117789
vt 0.666483 0.196710
vt 0.708067 0.154143
vt 0.167608 0.876040
vt 0.125728 0.694681
vt 0.375129 0.154100
vt 0.791141 0.363627
vt 0.749565 0.404416
vt 0.749573 0.363619
vt 0.208853 0.081377
vt 0.666419 0.733046
vt 0.624832 0.804591
vt 0.500056 0.768844
vt 0.333736 0.983501
vt 0.208912 0.768909
vt 0.167323 0.768915
vt 0.375154 0.241846
vt 0.375179 0.290722
vt 0.125696 0.452529
vt 0.084107 0.404488
vt 0.125690 0.404482
vt 0.458465 0.733082
vt 0.500051 0.733074
vt 0.915922 0.768744
vt 0.250505 0.804674
vt 0.292102 0.840434
vt 0.333628 0.452480
vt 0.375219 0.404416
vt 0.375228 0.452468
vt 0.624863 0.241836
vt 0.292076 0.694651
vt 0.987126 0.015080
vt 0.947321 0.047283
vt 0.946424 0.013399
vt 0.583246 0.876135
vt 0.624841 0.876129
vt 0.500046 0.694608
vt 0.208868 0.045092
vt 0.208885 0.009110
vt 0.541663 0.911909
vt 0.500085 0.947684
vt 0.208838 0.290801
vt 0.208831 0.241937
vt 0.084093 0.196759
vt 0.125678 0.154138
vt 0.333591 0.327184
vt 0.375192 0.327160
vt 0.292133 0.947751
vt 0.333725 0.947733
vt 0.832289 0.153309
vt 0.831795 0.116473
vt 0.870953 0.079469
vt 0.872232 0.115644
vt 0.043126 0.840209
vt 0.002441 0.875641
vt 0.001673 0.840221
vt 0.708026 0.081385
vt 0.708053 0.117786
vt 0.583241 0.840365
vt 0.458495 0.911927
vt 0.874062 0.840158
vt 0.915478 0.840072
vt 0.167258 0.154144
vt 0.908324 0.045531
vt 0.907030 0.012089
vt 0.167315 0.694675
vt 0.167320 0.733143
vt 0.084118 0.009063
vt 0.084109 0.045048
vt 0.666426 0.327166
vt 0.708011 0.327186
vt 0.749599 0.768799
vt 0.001162 0.804646
vt 0.749588 0.290783
vt 0.292059 0.009179
vt 0.749605 0.804569
vt 0.666485 0.154119
vt 0.084095 0.154133
vt 0.914422 0.910604
vt 0.042528 0.009054
vt 0.042522 0.045040
vt 0.708025 0.840347
vt 0.208865 0.452513
vt 0.250439 0.404455
vt 0.250448 0.452503
vt 0.458433 0.500504
vt 0.333677 0.733110
vt 0.375269 0.694633
vt 0.375275 0.733100
vt 0.996162 0.945155
vt 0.996916 0.910258
vt 0.791175 0.733020
vt 0.707986 0.045102
vt 0.541633 0.694601
vt 0.042516 0.327250
vt 0.084096 0.290815
vt 0.333644 0.537196
vt 0.375238 0.500521
vt 0.832749 0.694547
vt 0.250565 0.983544
vt 0.292148 0.983519
vt 0.999078 0.768723
vt 0.957492 0.732969
vt 0.999071 0.732957
vt 0.000980 0.768933
vt 0.915905 0.694522
vt 0.915914 0.732981
vt 0.458385 0.241779
vt 0.000925 0.117745
vt 0.000928 0.081326
vt 0.791114 0.876048
vt 0.541615 0.363559
vt 0.500014 0.363558
vt 0.292000 0.081425
vt 0.291973 0.241913
vt 0.333579 0.290751
vt 0.375245 0.009290
vt 0.954323 0.980304
vt 0.954831 0.945136
vt 0.666437 0.876123
vt 0.375288 0.804642
vt 0.167255 0.241940
vt 0.541637 0.733067
vt 0.084251 0.804653
vt 0.957499 0.768732
vt 0.209315 0.983241
vt 0.292095 0.804661
vt 0.333670 0.694642
vt 0.541629 0.657486
vt 0.500042 0.657492
vt 0.624823 0.733053
vt 0.333554 0.117811
vt 0.127942 0.981677
vt 0.168528 0.982493
vt 0.999010 0.500427
vt 0.999020 0.537084
vt 0.583232 0.290686
vt 0.915860 0.500459
vt 0.292013 0.363634
vt 0.250430 0.363647
vt 0.708020 0.804577
vt 0.541612 0.452440
vt 0.167281 0.452521
vt 0.208857 0.404466
vt 0.957359 0.327176
vt 0.998901 0.290712
vt 0.998925 0.327133
vt 0.749581 0.327201
vt 0.708032 0.911887
vt 0.749619 0.911884
vt 0.416866 0.694624
vt 0.416872 0.733091
vt 0.292050 0.537206
vt 0.333638 0.500531
vt 0.910327 0.079655
vt 0.292002 0.327205
vt 0.541652 0.840372
vt 0.042519 0.363682
vt 0.000937 0.404500
vt 0.000933 0.363687
vt 0.042514 0.117749
vt 0.000923 0.154127
vt 0.915806 0.327208
vt 0.957339 0.290765
vt 0.084113 0.452536
vt 0.042523 0.404494
vt 0.583207 0.452441
vt 0.624808 0.404396
vt 0.624805 0.452444
vt 0.791001 0.947454
vt 0.749618 0.947658
vt 0.375295 0.840412
vt 0.666401 0.452447
vt 0.707990 0.404411
vt 0.707988 0.452451
vt 0.208902 0.694668
vt 0.749611 0.983428
vt 0.708033 0.947656
vt 0.790924 0.983103
vt 0.458459 0.694615
vt 0.666444 0.983425
vt 0.708032 0.983423
vt 0.999061 0.694497
vt 0.583208 0.404390
vt 0.869556 0.044588
vt 0.997719 0.875260
vt 0.666437 0.290738
vt 0.583223 0.694594
vt 0.042528 0.452542
vt 0.000949 0.500596
vt 0.000943 0.452548
vt 0.250457 0.500551
vt 0.250463 0.537215
vt 0.956914 0.840010
vt 0.042553 0.657579
vt 0.000973 0.694698
vt 0.000968 0.657585
vt 0.005159 0.981825
vt 0.995655 0.980437
vt 0.790545 0.044753
vt 0.957403 0.404378
vt 0.624747 0.009263
vt 0.125703 0.500576
vt 0.541618 0.327114
vt 0.957483 0.694509
vt 0.791146 0.327213
vt 0.708005 0.694575
vt 0.292035 0.452492
vt 0.125800 0.804662
vt 0.416820 0.404404
vt 0.416829 0.452458
vt 0.167274 0.404474
vt 0.333618 0.404430
vt 0.666415 0.694582
vt 0.624803 0.500491
vt 0.042511 0.154129
vt 0.666403 0.404404
vt 0.042558 0.694693
vt 0.000977 0.733164
vt 0.458421 0.404394
vt 0.831848 0.982318
vt 0.624819 0.694588
vt 0.583259 0.983435
vt 0.624852 0.983429
vt 0.000938 0.009047
vt 0.000933 0.045033
vt 0.749568 0.537148
vt 0.000922 0.196758
vt 0.624816 0.657475
vt 0.125723 0.657567
vt 0.042548 0.612326
vt 0.000963 0.612332
vt 0.333664 0.657526
vt 0.915896 0.657415
vt 0.999052 0.657389
vt 0.541624 0.612233
vt 0.500036 0.612238
vt 0.375263 0.657517
vt 0.458454 0.657500
vt 0.666412 0.657470
vt 0.791157 0.612205
vt 0.749577 0.612211
vt 0.957473 0.657402
vt 0.084137 0.657573
vt 0.208896 0.657553
vt 0.167309 0.657560
vt 0.583220 0.657480
vt 0.874321 0.657428
vt 0.708001 0.657465
vt 0.832743 0.657440
vt 0.416860 0.657508
vt 0.292063 0.612281
vt 0.250475 0.612291
vt 0.292056 0.573871
vt 0.250469 0.573880
vt 0.791151 0.573801
vt 0.749573 0.573807
vt 0.541620 0.573822
vt 0.500032 0.573828
vt 0.042543 0.573917
vt 0.000958 0.573923
vt 0.624812 0.612224
vt 0.125717 0.612314
vt 0.333657 0.612272
vt 0.915886 0.612172
vt 0.999040 0.612144
vt 0.375256 0.612262
vt 0.458448 0.612245
vt 0.666408 0.612221
vt 0.957462 0.612158
vt 0.084131 0.612320
vt 0.208890 0.612299
vt 0.167303 0.612307
vt 0.583216 0.612228
vt 0.874312 0.612185
vt 0.707997 0.612217
vt 0.832735 0.612196
vt 0.416853 0.612253
vt 0.000954 0.537260
vt 0.624809 0.573816
vt 0.125712 0.573904
vt 0.333650 0.573861
vt 0.915877 0.573771
vt 0.999029 0.573741
vt 0.375250 0.573851
vt 0.458443 0.573834
vt 0.666404 0.573813
vt 0.957453 0.573757
vt 0.084127 0.573910
vt 0.208884 0.573889
vt 0.167298 0.573897
vt 0.583212 0.573819
vt 0.874304 0.573783
vt 0.707993 0.573811
vt 0.832728 0.573793
vt 0.416848 0.573842
vt 0.292044 0.500541
vt 0.791140 0.500486
vt 0.541613 0.500494
vt 0.042534 0.500590
vt 0.292025 0.404444
vt 0.541611 0.404387
vt 0.791136 0.404419
vt 0.832705 0.363631
vt 0.583216 0.363567
vt 0.915819 0.363614
vt 0.666416 0.363595
vt 0.957380 0.363588
vt 0.000930 0.327254
vt 0.333604 0.363616
vt 0.208850 0.363657
vt 0.998948 0.363554
vt 0.416808 0.363579
vt 0.084103 0.363677
vt 0.708001 0.363609
vt 0.375204 0.363597
vt 0.125686 0.363671
vt 0.874264 0.363628
vt 0.458413 0.363565
vt 0.167268 0.363665
vt 0.624819 0.363580
s 1
f 64/1/1 65/2/2 61/3/3
f 323/4/4 441/5/5 440/6/6
f 126/7/7 153/8/8 132/9/9
f 120/10/10 254/11/11 131/12/12
f 150/13/13 167/14/14 168/15/15
f 72/16/16 63/17/17 67/18/18
f 341/19/19 328/20/20 329/21/21
f 132/9/9 158/22/22 133/23/23
f 389/24/24 385/25/25 390/26/25
f 129/27/26 265/28/11 124/29/12
f 81/30/27 229/31/28 226/32/29
f 287/33/30 273/34/31 278/35/31
f 482/36/32 216/37/33 491/38/33
f 147/39/34 150/13/13 151/40/35
f 388/41/32 359/42/36 366/43/37
f 310/44/38 286/45/39 289/46/39
f 73/47/40 74/48/41 68/49/42
f 115/50/43 112/51/44 117/52/45
f 384/53/24 378/54/25 385/25/25
f 40/55/46 28/56/47 41/57/48
f 159/58/49 155/59/50 160/60/51
f 39/61/52 50/62/53 36/63/54
f 578/64/32 248/65/38 585/66/38
f 443/67/55 444/68/56 442/69/57
f 470/70/58 451/71/59 469/72/60
f 381/73/32 398/74/38 402/75/38
f 161/76/61 175/77/62 172/78/63
f 561/79/24 228/80/25 570/81/25
f 562/82/38 293/83/38 557/84/38
f 281/85/31 277/86/30 282/87/30
f 459/88/64 460/89/65 454/90/66
f 426/91/31 420/92/67 421/93/31
f 162/94/68 163/95/69 157/96/70
f 429/97/30 418/98/31 423/99/31
f 643/100/31 259/101/71 639/102/67
f 48/103/72 79/104/73 41/57/48
f 27/105/47 23/106/74 28/56/47
f 160/60/51 156/107/75 161/76/61
f 125/108/76 139/109/77 126/7/7
f 123/110/10 119/111/78 124/29/12
f 201/112/38 190/113/38 195/114/38
f 139/109/77 136/115/79 137/116/80
f 66/117/81 61/3/3 65/2/2
f 581/118/38 288/119/39 599/120/39
f 244/121/24 369/122/25 242/123/25
f 362/124/82 345/125/83 350/126/84
f 380/127/32 397/128/38 398/74/38
f 629/129/38 184/130/85 644/131/38
f 556/132/31 267/133/30 552/134/30
f 87/135/86 77/136/73 88/137/47
f 200/138/87 197/139/38 202/140/88
f 93/141/89 83/142/90 86/143/91
f 165/144/92 295/145/93 164/146/94
f 375/147/24 377/148/25 378/54/25
f 345/125/83 342/149/95 347/150/96
f 18/151/97 37/152/98 46/153/99
f 23/106/74 46/153/99 48/103/72
f 383/154/32 370/155/25 371/156/25
f 46/153/99 74/48/41 48/103/72
f 458/157/100 450/158/101 453/159/102
f 332/160/103 334/161/104 335/162/105
f 278/35/31 404/163/30 287/33/30
f 340/164/106 333/165/107 342/149/95
f 351/166/108 340/164/106 345/125/83
f 323/4/4 309/167/38 314/168/109
f 58/169/110 52/170/111 57/171/112
f 389/24/24 382/172/25 384/53/24
f 586/173/38 296/174/38 588/175/38
f 628/176/25 229/31/28 627/177/32
f 97/178/113 94/179/114 95/180/115
f 557/84/38 297/181/38 575/182/38
f 339/183/116 357/184/117 364/185/118
f 157/96/70 154/186/119 159/58/49
f 395/187/25 391/188/32 396/189/32
f 15/190/120 8/191/121 11/192/120
f 173/193/122 291/194/123 290/195/124
f 309/167/38 306/196/38 311/197/38
f 280/198/67 405/199/31 278/35/31
f 571/200/30 257/201/31 564/202/31
f 124/29/12 130/203/125 129/27/26
f 555/204/32 252/205/38 572/206/38
f 135/207/126 125/108/76 128/208/127
f 98/209/128 92/210/129 93/141/89
f 37/152/98 69/211/130 46/153/99
f 9/212/131 12/213/121 13/214/131
f 45/215/86 30/216/47 44/217/86
f 419/218/30 403/219/38 402/75/38
f 29/220/86 26/221/47 31/222/86
f 95/180/115 99/223/132 100/224/133
f 119/111/78 133/23/23 130/203/125
f 88/137/47 72/16/16 91/225/134
f 111/226/135 95/180/115 96/227/136
f 329/21/21 332/160/103 333/165/107
f 423/99/31 420/92/67 425/228/67
f 554/229/38 186/230/38 566/231/38
f 316/232/137 448/233/138 445/234/139
f 131/12/12 115/50/43 120/10/10
f 637/235/38 295/145/93 641/236/38
f 627/177/32 247/237/85 647/238/38
f 59/239/140 53/240/141 58/169/110
f 154/186/119 147/39/34 155/59/50
f 4/241/131 8/191/121 9/212/131
f 357/184/117 383/154/32 364/185/118
f 335/162/105 337/242/142 338/243/143
f 5/244/97 6/245/131 4/241/131
f 81/30/27 75/246/144 76/247/145
f 377/148/25 379/248/32 380/127/32
f 166/249/146 298/250/147 165/144/92
f 77/136/73 71/251/42 72/16/16
f 166/249/146 172/78/63 171/252/148
f 71/251/42 59/239/140 63/17/17
f 45/215/86 176/253/85 205/254/85
f 28/56/47 48/103/72 41/57/48
f 85/255/149 83/142/90 65/2/2
f 87/135/86 121/256/78 131/12/12
f 348/257/150 344/258/151 349/259/152
f 466/260/153 459/88/64 461/261/154
f 127/262/155 103/263/156 106/264/157
f 467/265/158 461/261/154 462/266/159
f 410/267/67 412/268/31 413/269/31
f 67/18/18 62/270/160 66/117/81
f 566/231/38 189/271/38 574/272/38
f 581/118/38 292/273/38 586/173/38
f 56/274/161 57/171/112 52/170/111
f 156/107/75 174/275/162 175/77/62
f 97/178/113 90/276/163 84/277/164
f 588/175/38 299/278/38 593/279/38
f 277/86/30 289/46/39 286/45/39
f 343/280/165 339/183/116 344/258/151
f 246/281/32 376/282/25 245/283/25
f 200/138/87 326/284/166 212/285/167
f 208/286/168 243/287/32 251/288/32
f 116/289/169 96/227/136 110/290/170
f 592/291/38 320/292/38 591/293/38
f 100/224/133 103/263/156 104/294/171
f 394/295/24 390/26/25 395/187/25
f 144/296/172 136/115/79 140/297/173
f 565/298/38 179/299/38 573/300/38
f 553/301/38 303/302/38 560/303/38
f 208/286/168 199/304/38 209/305/33
f 486/306/38 289/46/39 487/307/39
f 40/55/46 218/308/28 206/309/174
f 645/310/38 181/311/85 629/129/38
f 417/312/30 434/313/175 438/314/176
f 456/315/177 443/67/55 447/316/178
f 635/317/38 206/309/174 649/318/33
f 78/319/27 79/104/73 73/47/40
f 96/227/136 100/224/133 101/320/179
f 399/321/38 429/97/30 437/322/30
f 10/323/97 13/214/131 14/324/97
f 346/325/180 360/326/181 361/327/182
f 559/328/67 264/329/31 556/132/31
f 101/320/179 104/294/171 105/330/183
f 118/331/184 114/332/185 119/111/78
f 342/149/95 336/333/186 343/280/165
f 195/114/38 192/334/38 197/139/38
f 75/246/144 68/49/42 70/335/187
f 346/325/180 329/21/21 340/164/106
f 398/74/38 419/218/30 402/75/38
f 617/336/38 284/337/39 606/338/39
f 14/324/97 17/339/131 18/151/97
f 280/198/67 276/340/31 281/85/31
f 281/85/31 409/341/67 280/198/67
f 249/342/38 379/248/32 246/281/32
f 62/270/160 57/171/112 61/3/3
f 392/343/25 389/24/24 394/295/24
f 204/344/188 334/161/104 203/345/189
f 80/346/190 226/32/29 223/347/191
f 597/348/38 178/349/38 182/350/38
f 249/342/38 241/351/32 250/352/38
f 317/353/192 451/71/59 448/233/138
f 247/237/85 131/12/12 254/11/11
f 356/354/193 372/355/32 357/184/117
f 589/356/25 224/357/24 600/358/24
f 123/110/10 259/101/71 122/359/194
f 238/360/32 209/305/33 216/37/33
f 120/10/10 117/52/45 122/359/194
f 170/361/195 149/362/196 169/363/197
f 407/364/31 410/267/67 411/365/67
f 241/351/32 253/366/38 250/352/38
f 39/61/52 16/367/121 38/368/120
f 155/59/50 151/40/35 156/107/75
f 424/369/30 400/370/38 403/219/38
f 40/55/46 187/371/85 33/372/86
f 24/373/47 21/374/74 26/221/47
f 633/375/25 223/347/191 650/376/24
f 393/377/32 382/172/25 387/378/25
f 157/96/70 158/22/22 152/379/198
f 138/380/199 142/381/200 143/382/201
f 330/383/202 365/384/203 367/385/204
f 105/330/183 108/386/205 109/387/206
f 419/218/30 406/388/31 407/364/31
f 390/26/25 386/389/32 391/188/32
f 450/158/101 446/390/207 449/391/208
f 26/221/47 22/392/74 27/105/47
f 169/363/197 145/393/209 148/394/210
f 197/139/38 193/395/38 198/396/38
f 7/397/120 8/191/121 3/398/121
f 646/399/31 265/28/11 626/400/30
f 285/401/211 277/86/30 286/45/39
f 326/284/166 367/385/204 355/402/212
f 129/27/26 290/195/124 283/403/213
f 51/404/214 52/170/111 50/62/53
f 433/405/215 444/68/56 434/313/175
f 90/276/163 66/117/81 84/277/164
f 117/52/45 113/406/170 118/331/184
f 92/210/129 84/277/164 83/142/90
f 336/333/186 338/243/143 339/183/116
f 30/216/47 19/407/74 24/373/47
f 341/19/19 361/327/182 365/384/203
f 457/408/216 447/316/178 450/158/101
f 2/409/120 3/398/121 1/410/121
f 416/411/30 433/405/215 434/313/175
f 282/87/30 412/268/31 281/85/31
f 112/51/44 105/330/183 113/406/170
f 582/412/38 207/413/33 583/414/33
f 570/81/25 231/415/32 555/204/32
f 237/416/25 234/417/24 239/418/24
f 472/419/217 458/157/100 475/420/218
f 314/168/109 445/234/139 441/5/5
f 108/386/205 125/108/76 126/7/7
f 285/401/211 315/421/38 323/4/4
f 104/294/171 107/422/219 108/386/205
f 274/423/30 250/352/38 253/366/38
f 447/316/178 442/69/57 446/390/207
f 634/424/38 177/425/85 645/310/38
f 568/426/25 225/427/24 561/79/24
f 315/421/38 304/428/38 309/167/38
f 358/429/220 393/377/32 401/430/32
f 321/431/221 313/432/38 322/433/38
f 91/225/134 67/18/18 90/276/163
f 212/285/167 355/402/212 213/434/222
f 311/197/38 307/435/38 312/436/38
f 82/437/223 76/247/145 77/136/73
f 349/259/152 366/43/37 359/42/36
f 6/245/131 47/438/97 49/439/131
f 650/376/24 226/32/29 628/176/25
f 454/90/66 455/440/224 443/67/55
f 607/441/30 248/65/38 622/442/38
f 22/392/74 18/151/97 23/106/74
f 36/63/54 55/443/225 37/152/98
f 89/444/223 219/445/29 218/308/28
f 60/446/226 61/3/3 57/171/112
f 449/391/208 445/234/139 448/233/138
f 468/447/227 462/266/159 463/448/228
f 29/220/86 176/253/85 44/217/86
f 164/146/94 160/60/51 165/144/92
f 411/365/67 413/269/31 414/449/31
f 245/283/25 373/450/24 244/121/24
f 347/150/96 343/280/165 348/257/150
f 31/222/86 27/105/47 32/451/86
f 249/342/38 279/452/30 287/33/30
f 406/388/31 409/341/67 410/267/67
f 242/123/25 239/418/24 244/121/24
f 330/383/202 327/453/229 328/20/20
f 318/454/230 469/72/60 451/71/59
f 111/226/135 91/225/134 90/276/163
f 202/140/88 198/396/38 203/345/189
f 382/172/25 375/147/24 384/53/24
f 354/455/231 359/42/36 358/429/220
f 21/374/74 14/324/97 22/392/74
f 208/286/168 368/456/32 356/354/193
f 199/304/38 216/37/33 209/305/33
f 151/40/35 168/15/15 174/275/162
f 243/287/32 232/457/25 237/416/25
f 245/283/25 241/351/32 246/281/32
f 495/458/30 253/366/38 496/459/38
f 278/35/31 275/460/67 280/198/67
f 138/380/199 139/109/77 137/116/80
f 54/461/232 55/443/225 53/240/141
f 242/123/25 368/456/32 251/288/32
f 352/462/233 348/257/150 353/463/234
f 383/154/32 366/43/37 364/185/118
f 70/335/187 54/461/232 59/239/140
f 560/303/38 324/464/38 569/465/38
f 344/258/151 364/185/118 366/43/37
f 122/359/194 255/466/235 120/10/10
f 575/182/38 300/467/38 553/301/38
f 611/468/32 207/413/33 624/469/33
f 285/401/211 415/470/30 282/87/30
f 76/247/145 70/335/187 71/251/42
f 594/471/30 252/205/38 585/66/38
f 579/472/38 188/473/38 582/412/38
f 648/474/38 319/475/236 630/476/38
f 80/346/190 73/47/40 75/246/144
f 463/448/228 457/408/216 458/157/100
f 110/290/170 101/320/179 112/51/44
f 626/400/30 283/403/213 631/477/39
f 422/478/30 438/314/176 439/479/237
f 399/321/38 391/188/32 400/370/38
f 10/323/97 4/241/131 9/212/131
f 249/342/38 404/163/30 397/128/38
f 239/418/24 235/480/25 240/481/25
f 644/131/38 187/371/85 635/317/38
f 386/389/32 402/75/38 403/219/38
f 418/98/31 411/365/67 420/92/67
f 558/482/32 221/483/25 568/426/25
f 142/381/200 145/393/209 146/484/238
f 636/485/32 219/445/29 633/375/25
f 109/387/206 126/7/7 132/9/9
f 13/214/131 16/367/121 17/339/131
f 397/128/38 408/486/30 398/74/38
f 609/487/38 217/488/38 615/489/38
f 372/355/32 369/122/25 370/155/25
f 32/451/86 28/56/47 33/372/86
f 20/490/97 43/491/74 47/438/97
f 113/406/170 109/387/206 114/332/185
f 122/359/194 118/331/184 123/110/10
f 638/492/38 301/493/239 648/474/38
f 595/494/38 180/495/38 178/349/38
f 353/463/234 349/259/152 354/455/231
f 442/69/57 440/6/6 441/5/5
f 587/496/31 260/497/67 590/498/67
f 439/479/237 465/499/240 436/500/241
f 121/256/78 110/290/170 115/50/43
f 370/155/25 373/450/24 374/501/24
f 596/502/31 266/503/30 580/504/30
f 462/266/159 456/315/177 457/408/216
f 198/396/38 194/505/38 199/304/38
f 435/506/242 427/507/30 436/500/241
f 473/508/243 436/500/241 465/499/240
f 285/401/211 440/6/6 433/405/215
f 202/140/88 327/453/229 200/138/87
f 240/481/25 236/509/32 241/351/32
f 388/41/32 371/156/25 382/172/25
f 152/379/198 143/382/201 154/186/119
f 413/269/31 415/470/30 416/411/30
f 431/510/31 427/507/30 432/511/30
f 19/407/74 10/323/97 21/374/74
f 426/91/31 422/478/30 427/507/30
f 378/54/25 380/127/32 381/73/32
f 313/432/38 325/512/38 322/433/38
f 594/471/30 256/513/31 587/496/31
f 137/116/80 141/514/244 142/381/200
f 475/420/218 453/159/102 474/515/245
f 213/434/222 201/112/38 212/285/167
f 438/314/176 460/89/65 439/479/237
f 639/102/67 262/516/235 646/399/31
f 212/285/167 195/114/38 200/138/87
f 391/188/32 403/219/38 400/370/38
f 124/29/12 262/516/235 123/110/10
f 279/452/30 268/517/31 273/34/31
f 576/518/38 215/519/38 598/520/38
f 171/252/148 301/493/239 166/249/146
f 574/272/38 214/521/33 567/522/33
f 452/523/246 448/233/138 451/71/59
f 133/23/23 163/95/69 130/203/125
f 489/524/38 211/525/38 500/526/38
f 363/527/247 351/166/108 362/124/82
f 471/528/248 463/448/228 472/419/217
f 140/297/173 134/529/249 135/207/126
f 414/449/31 416/411/30 417/312/30
f 593/279/38 302/530/38 592/291/38
f 102/531/250 94/179/114 98/209/128
f 165/144/92 161/76/61 166/249/146
f 453/159/102 449/391/208 452/523/246
f 580/504/30 284/337/39 599/120/39
f 420/92/67 414/449/31 421/93/31
f 350/126/84 347/150/96 352/462/233
f 573/300/38 183/532/38 554/229/38
f 641/236/38 298/250/147 638/492/38
f 164/146/94 157/96/70 159/58/49
f 6/245/131 3/398/121 4/241/131
f 208/286/168 337/242/142 204/344/188
f 434/313/175 455/440/224 438/314/176
f 31/222/86 177/425/85 29/220/86
f 371/156/25 374/501/24 375/147/24
f 44/217/86 24/373/47 29/220/86
f 461/261/154 454/90/66 456/315/177
f 408/486/30 405/199/31 406/388/31
f 203/345/189 199/304/38 204/344/188
f 314/168/109 311/197/38 316/232/137
f 84/277/164 65/2/2 83/142/90
f 401/430/32 387/378/25 392/343/25
f 632/533/30 255/466/235 643/100/31
f 312/436/38 308/534/38 313/432/38
f 642/535/38 291/194/123 637/235/38
f 276/340/31 272/536/30 277/86/30
f 584/537/32 214/521/33 583/414/33
f 374/501/24 376/282/25 377/148/25
f 203/345/189 331/538/251 202/140/88
f 317/353/192 313/432/38 318/454/230
f 316/232/137 312/436/38 317/353/192
f 600/358/24 227/539/25 577/540/25
f 251/288/32 237/416/25 242/123/25
f 63/17/17 58/169/110 62/270/160
f 78/319/27 223/347/191 219/445/29
f 597/348/38 185/541/38 579/472/38
f 584/537/32 220/542/25 589/356/25
f 333/165/107 335/162/105 336/333/186
f 53/240/141 50/62/53 52/170/111
f 275/460/67 271/543/31 276/340/31
f 114/332/185 132/9/9 133/23/23
f 152/379/198 153/8/8 138/380/199
f 33/372/86 184/130/85 32/451/86
f 564/202/31 261/544/67 559/328/67
f 25/545/74 5/244/97 19/407/74
f 17/339/131 36/63/54 37/152/98
f 590/498/67 263/546/31 596/502/31
f 474/515/245 452/523/246 470/70/58
f 116/289/169 88/137/47 91/225/134
f 196/547/38 210/548/38 211/525/38
f 173/193/122 130/203/125 163/95/69
f 577/540/25 230/549/32 578/64/32
f 128/208/127 107/422/219 127/262/155
f 464/550/252 465/499/240 459/88/64
f 273/34/31 270/551/67 275/460/67
f 428/552/31 425/228/67 430/553/67
f 82/437/223 247/237/85 229/31/28
f 338/243/143 356/354/193 357/184/117
f 1/410/121 34/554/120 2/409/120
f 106/264/157 99/223/132 102/531/250
f 430/553/67 426/91/31 431/510/31
f 244/121/24 240/481/25 245/283/25
f 424/369/30 407/364/31 418/98/31
f 1/410/121 49/439/131 35/555/121
f 32/451/86 181/311/85 31/222/86
f 89/444/223 41/57/48 79/104/73
f 446/390/207 441/5/5 445/234/139
f 552/134/30 288/119/39 563/556/39
f 146/484/238 149/362/196 150/13/13
f 385/25/25 381/73/32 386/389/32
f 148/394/210 141/514/244 144/296/172
f 164/146/94 291/194/123 162/94/68
f 38/368/120 12/213/121 15/190/120
f 25/545/74 42/557/47 43/491/74
f 437/322/30 423/99/31 428/552/31
f 421/93/31 417/312/30 422/478/30
f 427/507/30 439/479/237 436/500/241
f 143/382/201 146/484/238 147/39/34
f 328/20/20 331/538/251 332/160/103
f 68/49/42 69/211/130 54/461/232
f 272/536/30 487/307/39 289/46/39
f 268/517/31 483/558/67 270/551/67
f 190/113/38 478/559/38 192/334/38
f 515/560/38 500/526/38 501/561/38
f 194/505/38 491/38/33 216/37/33
f 238/360/32 492/562/25 232/457/25
f 306/196/38 477/563/38 307/435/38
f 308/534/38 493/564/38 325/512/38
f 521/565/30 496/459/38 522/566/38
f 232/457/25 485/567/24 234/417/24
f 235/480/25 479/568/32 236/509/32
f 270/551/67 480/569/31 271/543/31
f 512/570/38 487/307/39 513/571/39
f 307/435/38 484/572/38 308/534/38
f 196/547/38 497/573/38 190/113/38
f 193/395/38 498/574/38 194/505/38
f 192/334/38 490/575/38 193/395/38
f 236/509/32 496/459/38 253/366/38
f 274/423/30 488/576/31 268/517/31
f 304/428/38 499/577/38 306/196/38
f 271/543/31 476/578/30 272/536/30
f 310/44/38 481/579/38 304/428/38
f 234/417/24 494/580/25 235/480/25
f 508/581/32 491/38/33 517/582/33
f 533/583/32 517/582/33 542/584/33
f 537/585/38 513/571/39 538/586/39
f 546/587/30 522/566/38 547/588/38
f 540/589/38 501/561/38 526/590/38
f 476/578/30 513/571/39 487/307/39
f 488/576/31 509/591/67 483/558/67
f 497/573/38 504/592/38 478/559/38
f 498/574/38 517/582/33 491/38/33
f 482/36/32 518/593/25 492/562/25
f 499/577/38 503/594/38 477/563/38
f 484/572/38 519/595/38 493/564/38
f 492/562/25 511/596/24 485/567/24
f 494/580/25 505/597/32 479/568/32
f 483/558/67 506/598/31 480/569/31
f 477/563/38 510/599/38 484/572/38
f 489/524/38 523/600/38 497/573/38
f 490/575/38 524/601/38 498/574/38
f 478/559/38 516/602/38 490/575/38
f 479/568/32 522/566/38 496/459/38
f 495/458/30 514/603/31 488/576/31
f 481/579/38 525/604/38 499/577/38
f 480/569/31 502/605/30 476/578/30
f 486/306/38 507/606/38 481/579/38
f 485/567/24 520/607/25 494/580/25
f 565/298/38 526/590/38 551/608/38
f 571/200/30 547/588/38 572/206/38
f 562/82/38 538/586/39 563/556/39
f 558/482/32 542/584/33 567/522/33
f 502/605/30 538/586/39 513/571/39
f 514/603/31 534/609/67 509/591/67
f 523/600/38 529/610/38 504/592/38
f 524/601/38 542/584/33 517/582/33
f 508/581/32 543/611/25 518/593/25
f 525/604/38 528/612/38 503/594/38
f 510/599/38 544/613/38 519/595/38
f 518/593/25 536/614/24 511/596/24
f 520/607/25 530/615/32 505/597/32
f 509/591/67 531/616/31 506/598/31
f 503/594/38 535/617/38 510/599/38
f 515/560/38 548/618/38 523/600/38
f 516/602/38 549/619/38 524/601/38
f 504/592/38 541/620/38 516/602/38
f 505/597/32 547/588/38 522/566/38
f 521/565/30 539/621/31 514/603/31
f 507/606/38 550/622/38 525/604/38
f 506/598/31 527/623/30 502/605/30
f 512/570/38 532/624/38 507/606/38
f 511/596/24 545/625/25 520/607/25
f 233/626/32 567/522/33 214/521/33
f 305/627/38 563/556/39 288/119/39
f 269/628/30 572/206/38 252/205/38
f 191/629/38 551/608/38 215/519/38
f 527/623/30 563/556/39 538/586/39
f 539/621/31 559/328/67 534/609/67
f 548/618/38 554/229/38 529/610/38
f 549/619/38 567/522/33 542/584/33
f 533/583/32 568/426/25 543/611/25
f 550/622/38 553/301/38 528/612/38
f 535/617/38 569/465/38 544/613/38
f 543/611/25 561/79/24 536/614/24
f 545/625/25 555/204/32 530/615/32
f 534/609/67 556/132/31 531/616/31
f 528/612/38 560/303/38 535/617/38
f 540/589/38 573/300/38 548/618/38
f 541/620/38 574/272/38 549/619/38
f 529/610/38 566/231/38 541/620/38
f 530/615/32 572/206/38 547/588/38
f 546/587/30 564/202/31 539/621/31
f 532/624/38 575/182/38 550/622/38
f 531/616/31 552/134/30 527/623/30
f 537/585/38 557/84/38 532/624/38
f 536/614/24 570/81/25 545/625/25
f 228/80/25 578/64/32 231/415/32
f 261/544/67 596/502/31 264/329/31
f 233/626/32 589/356/25 221/483/25
f 183/532/38 579/472/38 186/230/38
f 225/427/24 577/540/25 228/80/25
f 222/630/32 583/414/33 207/413/33
f 267/133/30 599/120/39 288/119/39
f 300/467/38 592/291/38 303/302/38
f 180/495/38 598/520/38 217/488/38
f 269/628/30 587/496/31 257/201/31
f 264/329/31 580/504/30 267/133/30
f 257/201/31 590/498/67 261/544/67
f 179/299/38 576/518/38 595/494/38
f 186/230/38 582/412/38 189/271/38
f 258/631/30 585/66/38 248/65/38
f 189/271/38 583/414/33 214/521/33
f 221/483/25 600/358/24 225/427/24
f 183/532/38 595/494/38 597/348/38
f 303/302/38 591/293/38 324/464/38
f 297/181/38 593/279/38 300/467/38
f 305/627/38 586/173/38 293/83/38
f 293/83/38 588/175/38 297/181/38
f 294/632/38 599/120/39 284/337/39
f 231/415/32 585/66/38 252/205/38
f 294/632/38 612/633/38 292/273/38
f 258/631/30 618/634/31 256/513/31
f 296/174/38 613/635/38 299/278/38
f 260/497/67 621/636/31 263/546/31
f 299/278/38 623/637/38 302/530/38
f 634/424/38 615/489/38 640/638/38
f 222/630/32 608/639/25 220/542/25
f 185/541/38 610/640/38 188/473/38
f 266/503/30 606/338/39 284/337/39
f 302/530/38 605/641/38 320/292/38
f 636/485/32 624/469/33 649/318/33
f 632/533/30 622/442/38 647/238/38
f 224/357/24 603/642/25 227/539/25
f 180/495/38 620/643/38 178/349/38
f 263/546/31 601/644/30 266/503/30
f 220/542/25 625/645/24 224/357/24
f 642/535/38 606/338/39 631/477/39
f 188/473/38 624/469/33 207/413/33
f 178/349/38 604/646/38 182/350/38
f 230/549/32 622/442/38 248/65/38
f 292/273/38 616/647/38 296/174/38
f 227/539/25 602/648/32 230/549/32
f 182/350/38 619/649/38 185/541/38
f 256/513/31 614/650/67 260/497/67
f 290/195/124 631/477/39 283/403/213
f 254/11/11 647/238/38 247/237/85
f 218/308/28 649/318/33 206/309/174
f 176/253/85 640/638/38 205/254/85
f 617/336/38 637/235/38 612/633/38
f 607/441/30 643/100/31 618/634/31
f 616/647/38 638/492/38 613/635/38
f 614/650/67 646/399/31 621/636/31
f 613/635/38 648/474/38 623/637/38
f 611/468/32 633/375/25 608/639/25
f 619/649/38 635/317/38 610/640/38
f 601/644/30 631/477/39 606/338/39
f 623/637/38 630/476/38 605/641/38
f 625/645/24 628/176/25 603/642/25
f 609/487/38 645/310/38 620/643/38
f 621/636/31 626/400/30 601/644/30
f 608/639/25 650/376/24 625/645/24
f 610/640/38 649/318/33 624/469/33
f 620/643/38 629/129/38 604/646/38
f 602/648/32 647/238/38 622/442/38
f 612/633/38 641/236/38 616/647/38
f 603/642/25 627/177/32 602/648/32
f 604/646/38 644/131/38 619/649/38
f 618/634/31 639/102/67 614/650/67
f 64/1/1 85/255/149 65/2/2
f 323/4/4 314/168/109 441/5/5
f 126/7/7 139/109/77 153/8/8
f 120/10/10 255/466/235 254/11/11
f 150/13/13 149/362/196 167/14/14
f 72/16/16 71/251/42 63/17/17
f 341/19/19 330/383/202 328/20/20
f 132/9/9 153/8/8 158/22/22
f 389/24/24 384/53/24 385/25/25
f 129/27/26 283/403/213 265/28/11
f 81/30/27 82/437/223 229/31/28
f 287/33/30 279/452/30 273/34/31
f 482/36/32 238/360/32 216/37/33
f 147/39/34 146/484/238 150/13/13
f 388/41/32 393/377/32 359/42/36
f 310/44/38 315/421/38 286/45/39
f 73/47/40 79/104/73 74/48/41
f 115/50/43 110/290/170 112/51/44
f 384/53/24 375/147/24 378/54/25
f 40/55/46 33/372/86 28/56/47
f 159/58/49 154/186/119 155/59/50
f 39/61/52 51/404/214 50/62/53
f 578/64/32 230/549/32 248/65/38
f 443/67/55 455/440/224 444/68/56
f 470/70/58 452/523/246 451/71/59
f 381/73/32 380/127/32 398/74/38
f 161/76/61 156/107/75 175/77/62
f 561/79/24 225/427/24 228/80/25
f 562/82/38 305/627/38 293/83/38
f 281/85/31 276/340/31 277/86/30
f 459/88/64 465/499/240 460/89/65
f 426/91/31 425/228/67 420/92/67
f 162/94/68 173/193/122 163/95/69
f 429/97/30 424/369/30 418/98/31
f 643/100/31 255/466/235 259/101/71
f 48/103/72 74/48/41 79/104/73
f 27/105/47 22/392/74 23/106/74
f 160/60/51 155/59/50 156/107/75
f 125/108/76 134/529/249 139/109/77
f 123/110/10 118/331/184 119/111/78
f 201/112/38 196/547/38 190/113/38
f 139/109/77 134/529/249 136/115/79
f 66/117/81 62/270/160 61/3/3
f 581/118/38 305/627/38 288/119/39
f 244/121/24 373/450/24 369/122/25
f 362/124/82 351/166/108 345/125/83
f 380/127/32 379/248/32 397/128/38
f 629/129/38 181/311/85 184/130/85
f 556/132/31 264/329/31 267/133/30
f 87/135/86 82/437/223 77/136/73
f 200/138/87 195/114/38 197/139/38
f 93/141/89 92/210/129 83/142/90
f 165/144/92 298/250/147 295/145/93
f 375/147/24 374/501/24 377/148/25
f 345/125/83 340/164/106 342/149/95
f 18/151/97 17/339/131 37/152/98
f 23/106/74 18/151/97 46/153/99
f 383/154/32 372/355/32 370/155/25
f 46/153/99 69/211/130 74/48/41
f 458/157/100 457/408/216 450/158/101
f 332/160/103 331/538/251 334/161/104
f 278/35/31 405/199/31 404/163/30
f 340/164/106 329/21/21 333/165/107
f 351/166/108 346/325/180 340/164/106
f 323/4/4 315/421/38 309/167/38
f 58/169/110 53/240/141 52/170/111
f 389/24/24 387/378/25 382/172/25
f 586/173/38 292/273/38 296/174/38
f 628/176/25 226/32/29 229/31/28
f 97/178/113 92/210/129 94/179/114
f 557/84/38 293/83/38 297/181/38
f 339/183/116 338/243/143 357/184/117
f 157/96/70 152/379/198 154/186/119
f 395/187/25 390/26/25 391/188/32
f 15/190/120 12/213/121 8/191/121
f 173/193/122 162/94/68 291/194/123
f 309/167/38 304/428/38 306/196/38
f 280/198/67 409/341/67 405/199/31
f 571/200/30 269/628/30 257/201/31
f 124/29/12 119/111/78 130/203/125
f 555/204/32 231/415/32 252/205/38
f 135/207/126 134/529/249 125/108/76
f 98/209/128 94/179/114 92/210/129
f 37/152/98 55/443/225 69/211/130
f 9/212/131 8/191/121 12/213/121
f 45/215/86 42/557/47 30/216/47
f 419/218/30 424/369/30 403/219/38
f 29/220/86 24/373/47 26/221/47
f 95/180/115 94/179/114 99/223/132
f 119/111/78 114/332/185 133/23/23
f 88/137/47 77/136/73 72/16/16
f 111/226/135 97/178/113 95/180/115
f 329/21/21 328/20/20 332/160/103
f 423/99/31 418/98/31 420/92/67
f 554/229/38 183/532/38 186/230/38
f 316/232/137 317/353/192 448/233/138
f 131/12/12 121/256/78 115/50/43
f 637/235/38 291/194/123 295/145/93
f 627/177/32 229/31/28 247/237/85
f 59/239/140 54/461/232 53/240/141
f 154/186/119 143/382/201 147/39/34
f 4/241/131 3/398/121 8/191/121
f 357/184/117 372/355/32 383/154/32
f 335/162/105 334/161/104 337/242/142
f 5/244/97 20/490/97 6/245/131
f 81/30/27 80/346/190 75/246/144
f 377/148/25 376/282/25 379/248/32
f 166/249/146 301/493/239 298/250/147
f 77/136/73 76/247/145 71/251/42
f 166/249/146 161/76/61 172/78/63
f 71/251/42 70/335/187 59/239/140
f 45/215/86 44/217/86 176/253/85
f 28/56/47 23/106/74 48/103/72
f 85/255/149 86/143/91 83/142/90
f 87/135/86 88/137/47 121/256/78
f 348/257/150 343/280/165 344/258/151
f 466/260/153 464/550/252 459/88/64
f 127/262/155 107/422/219 103/263/156
f 467/265/158 466/260/153 461/261/154
f 410/267/67 409/341/67 412/268/31
f 67/18/18 63/17/17 62/270/160
f 566/231/38 186/230/38 189/271/38
f 581/118/38 294/632/38 292/273/38
f 56/274/161 60/446/226 57/171/112
f 156/107/75 151/40/35 174/275/162
f 97/178/113 111/226/135 90/276/163
f 588/175/38 296/174/38 299/278/38
f 277/86/30 272/536/30 289/46/39
f 343/280/165 336/333/186 339/183/116
f 246/281/32 379/248/32 376/282/25
f 200/138/87 327/453/229 326/284/166
f 208/286/168 209/305/33 243/287/32
f 116/289/169 111/226/135 96/227/136
f 592/291/38 302/530/38 320/292/38
f 100/224/133 99/223/132 103/263/156
f 394/295/24 389/24/24 390/26/25
f 144/296/172 141/514/244 136/115/79
f 565/298/38 191/629/38 179/299/38
f 553/301/38 300/467/38 303/302/38
f 208/286/168 204/344/188 199/304/38
f 486/306/38 310/44/38 289/46/39
f 40/55/46 89/444/223 218/308/28
f 645/310/38 177/425/85 181/311/85
f 417/312/30 416/411/30 434/313/175
f 456/315/177 454/90/66 443/67/55
f 635/317/38 187/371/85 206/309/174
f 78/319/27 89/444/223 79/104/73
f 96/227/136 95/180/115 100/224/133
f 399/321/38 400/370/38 429/97/30
f 10/323/97 9/212/131 13/214/131
f 346/325/180 351/166/108 360/326/181
f 559/328/67 261/544/67 264/329/31
f 101/320/179 100/224/133 104/294/171
f 118/331/184 113/406/170 114/332/185
f 342/149/95 333/165/107 336/333/186
f 195/114/38 190/113/38 192/334/38
f 75/246/144 73/47/40 68/49/42
f 346/325/180 341/19/19 329/21/21
f 398/74/38 408/486/30 419/218/30
f 617/336/38 294/632/38 284/337/39
f 14/324/97 13/214/131 17/339/131
f 280/198/67 275/460/67 276/340/31
f 281/85/31 412/268/31 409/341/67
f 249/342/38 397/128/38 379/248/32
f 62/270/160 58/169/110 57/171/112
f 392/343/25 387/378/25 389/24/24
f 204/344/188 337/242/142 334/161/104
f 80/346/190 81/30/27 226/32/29
f 597/348/38 595/494/38 178/349/38
f 249/342/38 246/281/32 241/351/32
f 317/353/192 318/454/230 451/71/59
f 247/237/85 87/135/86 131/12/12
f 356/354/193 368/456/32 372/355/32
f 589/356/25 220/542/25 224/357/24
f 123/110/10 262/516/235 259/101/71
f 238/360/32 243/287/32 209/305/33
f 120/10/10 115/50/43 117/52/45
f 170/361/195 167/14/14 149/362/196
f 407/364/31 406/388/31 410/267/67
f 241/351/32 236/509/32 253/366/38
f 39/61/52 36/63/54 16/367/121
f 155/59/50 147/39/34 151/40/35
f 424/369/30 429/97/30 400/370/38
f 40/55/46 206/309/174 187/371/85
f 24/373/47 19/407/74 21/374/74
f 633/375/25 219/445/29 223/347/191
f 393/377/32 388/41/32 382/172/25
f 157/96/70 163/95/69 158/22/22
f 138/380/199 137/116/80 142/381/200
f 330/383/202 341/19/19 365/384/203
f 105/330/183 104/294/171 108/386/205
f 419/218/30 408/486/30 406/388/31
f 390/26/25 385/25/25 386/389/32
f 450/158/101 447/316/178 446/390/207
f 26/221/47 21/374/74 22/392/74
f 169/363/197 149/362/196 145/393/209
f 197/139/38 192/334/38 193/395/38
f 7/397/120 11/192/120 8/191/121
f 646/399/31 262/516/235 265/28/11
f 285/401/211 282/87/30 277/86/30
f 326/284/166 330/383/202 367/385/204
f 129/27/26 173/193/122 290/195/124
f 51/404/214 56/274/161 52/170/111
f 433/405/215 440/6/6 444/68/56
f 90/276/163 67/18/18 66/117/81
f 117/52/45 112/51/44 113/406/170
f 92/210/129 97/178/113 84/277/164
f 336/333/186 335/162/105 338/243/143
f 30/216/47 25/545/74 19/407/74
f 341/19/19 346/325/180 361/327/182
f 457/408/216 456/315/177 447/316/178
f 2/409/120 7/397/120 3/398/121
f 416/411/30 415/470/30 433/405/215
f 282/87/30 415/470/30 412/268/31
f 112/51/44 101/320/179 105/330/183
f 582/412/38 188/473/38 207/413/33
f 570/81/25 228/80/25 231/415/32
f 237/416/25 232/457/25 234/417/24
f 472/419/217 463/448/228 458/157/100
f 314/168/109 316/232/137 445/234/139
f 108/386/205 107/422/219 125/108/76
f 285/401/211 286/45/39 315/421/38
f 104/294/171 103/263/156 107/422/219
f 274/423/30 279/452/30 250/352/38
f 447/316/178 443/67/55 442/69/57
f 634/424/38 176/253/85 177/425/85
f 568/426/25 221/483/25 225/427/24
f 315/421/38 310/44/38 304/428/38
f 358/429/220 359/42/36 393/377/32
f 321/431/221 318/454/230 313/432/38
f 91/225/134 72/16/16 67/18/18
f 212/285/167 326/284/166 355/402/212
f 311/197/38 306/196/38 307/435/38
f 82/437/223 81/30/27 76/247/145
f 349/259/152 344/258/151 366/43/37
f 6/245/131 20/490/97 47/438/97
f 650/376/24 223/347/191 226/32/29
f 454/90/66 460/89/65 455/440/224
f 607/441/30 258/631/30 248/65/38
f 22/392/74 14/324/97 18/151/97
f 36/63/54 50/62/53 55/443/225
f 89/444/223 78/319/27 219/445/29
f 60/446/226 64/1/1 61/3/3
f 449/391/208 446/390/207 445/234/139
f 468/447/227 467/265/158 462/266/159
f 29/220/86 177/425/85 176/253/85
f 164/146/94 159/58/49 160/60/51
f 411/365/67 410/267/67 413/269/31
f 245/283/25 376/282/25 373/450/24
f 347/150/96 342/149/95 343/280/165
f 31/222/86 26/221/47 27/105/47
f 249/342/38 250/352/38 279/452/30
f 406/388/31 405/199/31 409/341/67
f 242/123/25 237/416/25 239/418/24
f 330/383/202 326/284/166 327/453/229
f 318/454/230 321/431/221 469/72/60
f 111/226/135 116/289/169 91/225/134
f 202/140/88 197/139/38 198/396/38
f 382/172/25 371/156/25 375/147/24
f 354/455/231 349/259/152 359/42/36
f 21/374/74 10/323/97 14/324/97
f 208/286/168 251/288/32 368/456/32
f 199/304/38 194/505/38 216/37/33
f 151/40/35 150/13/13 168/15/15
f 243/287/32 238/360/32 232/457/25
f 245/283/25 240/481/25 241/351/32
f 495/458/30 274/423/30 253/366/38
f 278/35/31 273/34/31 275/460/67
f 138/380/199 153/8/8 139/109/77
f 54/461/232 69/211/130 55/443/225
f 242/123/25 369/122/25 368/456/32
f 352/462/233 347/150/96 348/257/150
f 383/154/32 388/41/32 366/43/37
f 70/335/187 68/49/42 54/461/232
f 560/303/38 303/302/38 324/464/38
f 344/258/151 339/183/116 364/185/118
f 122/359/194 259/101/71 255/466/235
f 575/182/38 297/181/38 300/467/38
f 611/468/32 222/630/32 207/413/33
f 285/401/211 433/405/215 415/470/30
f 76/247/145 75/246/144 70/335/187
f 594/471/30 269/628/30 252/205/38
f 579/472/38 185/541/38 188/473/38
f 648/474/38 301/493/239 319/475/236
f 80/346/190 78/319/27 73/47/40
f 463/448/228 462/266/159 457/408/216
f 110/290/170 96/227/136 101/320/179
f 626/400/30 265/28/11 283/403/213
f 422/478/30 417/312/30 438/314/176
f 399/321/38 396/189/32 391/188/32
f 10/323/97 5/244/97 4/241/131
f 249/342/38 287/33/30 404/163/30
f 239/418/24 234/417/24 235/480/25
f 644/131/38 184/130/85 187/371/85
f 386/389/32 381/73/32 402/75/38
f 418/98/31 407/364/31 411/365/67
f 558/482/32 233/626/32 221/483/25
f 142/381/200 141/514/244 145/393/209
f 636/485/32 218/308/28 219/445/29
f 109/387/206 108/386/205 126/7/7
f 13/214/131 12/213/121 16/367/121
f 397/128/38 404/163/30 408/486/30
f 609/487/38 180/495/38 217/488/38
f 372/355/32 368/456/32 369/122/25
f 32/451/86 27/105/47 28/56/47
f 20/490/97 25/545/74 43/491/74
f 113/406/170 105/330/183 109/387/206
f 122/359/194 117/52/45 118/331/184
f 638/492/38 298/250/147 301/493/239
f 595/494/38 576/518/38 180/495/38
f 353/463/234 348/257/150 349/259/152
f 442/69/57 444/68/56 440/6/6
f 587/496/31 256/513/31 260/497/67
f 439/479/237 460/89/65 465/499/240
f 121/256/78 116/289/169 110/290/170
f 370/155/25 369/122/25 373/450/24
f 596/502/31 263/546/31 266/503/30
f 462/266/159 461/261/154 456/315/177
f 198/396/38 193/395/38 194/505/38
f 435/506/242 432/511/30 427/507/30
f 473/508/243 435/506/242 436/500/241
f 285/401/211 323/4/4 440/6/6
f 202/140/88 331/538/251 327/453/229
f 240/481/25 235/480/25 236/509/32
f 388/41/32 383/154/32 371/156/25
f 152/379/198 138/380/199 143/382/201
f 413/269/31 412/268/31 415/470/30
f 431/510/31 426/91/31 427/507/30
f 19/407/74 5/244/97 10/323/97
f 426/91/31 421/93/31 422/478/30
f 378/54/25 377/148/25 380/127/32
f 313/432/38 308/534/38 325/512/38
f 594/471/30 258/631/30 256/513/31
f 137/116/80 136/115/79 141/514/244
f 475/420/218 458/157/100 453/159/102
f 213/434/222 210/548/38 201/112/38
f 438/314/176 455/440/224 460/89/65
f 639/102/67 259/101/71 262/516/235
f 212/285/167 201/112/38 195/114/38
f 391/188/32 386/389/32 403/219/38
f 124/29/12 265/28/11 262/516/235
f 279/452/30 274/423/30 268/517/31
f 576/518/38 191/629/38 215/519/38
f 171/252/148 319/475/236 301/493/239
f 574/272/38 189/271/38 214/521/33
f 452/523/246 449/391/208 448/233/138
f 133/23/23 158/22/22 163/95/69
f 489/524/38 196/547/38 211/525/38
f 363/527/247 360/326/181 351/166/108
f 471/528/248 468/447/227 463/448/228
f 140/297/173 136/115/79 134/529/249
f 414/449/31 413/269/31 416/411/30
f 593/279/38 299/278/38 302/530/38
f 102/531/250 99/223/132 94/179/114
f 165/144/92 160/60/51 161/76/61
f 453/159/102 450/158/101 449/391/208
f 580/504/30 266/503/30 284/337/39
f 420/92/67 411/365/67 414/449/31
f 350/126/84 345/125/83 347/150/96
f 573/300/38 179/299/38 183/532/38
f 641/236/38 295/145/93 298/250/147
f 164/146/94 162/94/68 157/96/70
f 6/245/131 1/410/121 3/398/121
f 208/286/168 356/354/193 337/242/142
f 434/313/175 444/68/56 455/440/224
f 31/222/86 181/311/85 177/425/85
f 371/156/25 370/155/25 374/501/24
f 44/217/86 30/216/47 24/373/47
f 461/261/154 459/88/64 454/90/66
f 408/486/30 404/163/30 405/199/31
f 203/345/189 198/396/38 199/304/38
f 314/168/109 309/167/38 311/197/38
f 84/277/164 66/117/81 65/2/2
f 401/430/32 393/377/32 387/378/25
f 632/533/30 254/11/11 255/466/235
f 312/436/38 307/435/38 308/534/38
f 642/535/38 290/195/124 291/194/123
f 276/340/31 271/543/31 272/536/30
f 584/537/32 233/626/32 214/521/33
f 374/501/24 373/450/24 376/282/25
f 203/345/189 334/161/104 331/538/251
f 317/353/192 312/436/38 313/432/38
f 316/232/137 311/197/38 312/436/38
f 600/358/24 224/357/24 227/539/25
f 251/288/32 243/287/32 237/416/25
f 63/17/17 59/239/140 58/169/110
f 78/319/27 80/346/190 223/347/191
f 597/348/38 182/350/38 185/541/38
f 584/537/32 222/630/32 220/542/25
f 333/165/107 332/160/103 335/162/105
f 53/240/141 55/443/225 50/62/53
f 275/460/67 270/551/67 271/543/31
f 114/332/185 109/387/206 132/9/9
f 152/379/198 158/22/22 153/8/8
f 33/372/86 187/371/85 184/130/85
f 564/202/31 257/201/31 261/544/67
f 25/545/74 20/490/97 5/244/97
f 17/339/131 16/367/121 36/63/54
f 590/498/67 260/497/67 263/546/31
f 474/515/245 453/159/102 452/523/246
f 116/289/169 121/256/78 88/137/47
f 196/547/38 201/112/38 210/548/38
f 173/193/122 129/27/26 130/203/125
f 577/540/25 227/539/25 230/549/32
f 128/208/127 125/108/76 107/422/219
f 464/550/252 473/508/243 465/499/240
f 273/34/31 268/517/31 270/551/67
f 428/552/31 423/99/31 425/228/67
f 82/437/223 87/135/86 247/237/85
f 338/243/143 337/242/142 356/354/193
f 1/410/121 35/555/121 34/554/120
f 106/264/157 103/263/156 99/223/132
f 430/553/67 425/228/67 426/91/31
f 244/121/24 239/418/24 240/481/25
f 424/369/30 419/218/30 407/364/31
f 1/410/121 6/245/131 49/439/131
f 32/451/86 184/130/85 181/311/85
f 89/444/223 40/55/46 41/57/48
f 446/390/207 442/69/57 441/5/5
f 552/134/30 267/133/30 288/119/39
f 146/484/238 145/393/209 149/362/196
f 385/25/25 378/54/25 381/73/32
f 148/394/210 145/393/209 141/514/244
f 164/146/94 295/145/93 291/194/123
f 38/368/120 16/367/121 12/213/121
f 25/545/74 30/216/47 42/557/47
f 437/322/30 429/97/30 423/99/31
f 421/93/31 414/449/31 417/312/30
f 427/507/30 422/478/30 439/479/237
f 143/382/201 142/381/200 146/484/238
f 328/20/20 327/453/229 331/538/251
f 68/49/42 74/48/41 69/211/130
f 272/536/30 476/578/30 487/307/39
f 268/517/31 488/576/31 483/558/67
f 190/113/38 497/573/38 478/559/38
f 515/560/38 489/524/38 500/526/38
f 194/505/38 498/574/38 491/38/33
f 238/360/32 482/36/32 492/562/25
f 306/196/38 499/577/38 477/563/38
f 308/534/38 484/572/38 493/564/38
f 521/565/30 495/458/30 496/459/38
f 232/457/25 492/562/25 485/567/24
f 235/480/25 494/580/25 479/568/32
f 270/551/67 483/558/67 480/569/31
f 512/570/38 486/306/38 487/307/39
f 307/435/38 477/563/38 484/572/38
f 196/547/38 489/524/38 497/573/38
f 193/395/38 490/575/38 498/574/38
f 192/334/38 478/559/38 490/575/38
f 236/509/32 479/568/32 496/459/38
f 274/423/30 495/458/30 488/576/31
f 304/428/38 481/579/38 499/577/38
f 271/543/31 480/569/31 476/578/30
f 310/44/38 486/306/38 481/579/38
f 234/417/24 485/567/24 494/580/25
f 508/581/32 482/36/32 491/38/33
f 533/583/32 508/581/32 517/582/33
f 537/585/38 512/570/38 513/571/39
f 546/587/30 521/565/30 522/566/38
f 540/589/38 515/560/38 501/561/38
f 476/578/30 502/605/30 513/571/39
f 488/576/31 514/603/31 509/591/67
f 497/573/38 523/600/38 504/592/38
f 498/574/38 524/601/38 517/582/33
f 482/36/32 508/581/32 518/593/25
f 499/577/38 525/604/38 503/594/38
f 484/572/38 510/599/38 519/595/38
f 492/562/25 518/593/25 511/596/24
f 494/580/25 520/607/25 505/597/32
f 483/558/67 509/591/67 506/598/31
f 477/563/38 503/594/38 510/599/38
f 489/524/38 515/560/38 523/600/38
f 490/575/38 516/602/38 524/601/38
f 478/559/38 504/592/38 516/602/38
f 479/568/32 505/597/32 522/566/38
f 495/458/30 521/565/30 514/603/31
f 481/579/38 507/606/38 525/604/38
f 480/569/31 506/598/31 502/605/30
f 486/306/38 512/570/38 507/606/38
f 485/567/24 511/596/24 520/607/25
f 565/298/38 540/589/38 526/590/38
f 571/200/30 546/587/30 547/588/38
f 562/82/38 537/585/38 538/586/39
f 558/482/32 533/583/32 542/584/33
f 502/605/30 527/623/30 538/586/39
f 514/603/31 539/621/31 534/609/67
f 523/600/38 548/618/38 529/610/38
f 524/601/38 549/619/38 542/584/33
f 508/581/32 533/583/32 543/611/25
f 525/604/38 550/622/38 528/612/38
f 510/599/38 535/617/38 544/613/38
f 518/593/25 543/611/25 536/614/24
f 520/607/25 545/625/25 530/615/32
f 509/591/67 534/609/67 531/616/31
f 503/594/38 528/612/38 535/617/38
f 515/560/38 540/589/38 548/618/38
f 516/602/38 541/620/38 549/619/38
f 504/592/38 529/610/38 541/620/38
f 505/597/32 530/615/32 547/588/38
f 521/565/30 546/587/30 539/621/31
f 507/606/38 532/624/38 550/622/38
f 506/598/31 531/616/31 527/623/30
f 512/570/38 537/585/38 532/624/38
f 511/596/24 536/614/24 545/625/25
f 233/626/32 558/482/32 567/522/33
f 305/627/38 562/82/38 563/556/39
f 269/628/30 571/200/30 572/206/38
f 191/629/38 565/298/38 551/608/38
f 527/623/30 552/134/30 563/556/39
f 539/621/31 564/202/31 559/328/67
f 548/618/38 573/300/38 554/229/38
f 549/619/38 574/272/38 567/522/33
f 533/583/32 558/482/32 568/426/25
f 550/622/38 575/182/38 553/301/38
f 535/617/38 560/303/38 569/465/38
f 543/611/25 568/426/25 561/79/24
f 545/625/25 570/81/25 555/204/32
f 534/609/67 559/328/67 556/132/31
f 528/612/38 553/301/38 560/303/38
f 540/589/38 565/298/38 573/300/38
f 541/620/38 566/231/38 574/272/38
f 529/610/38 554/229/38 566/231/38
f 530/615/32 555/204/32 572/206/38
f 546/587/30 571/200/30 564/202/31
f 532/624/38 557/84/38 575/182/38
f 531/616/31 556/132/31 552/134/30
f 537/585/38 562/82/38 557/84/38
f 536/614/24 561/79/24 570/81/25
f 228/80/25 577/540/25 578/64/32
f 261/544/67 590/498/67 596/502/31
f 233/626/32 584/537/32 589/356/25
f 183/532/38 597/348/38 579/472/38
f 225/427/24 600/358/24 577/540/25
f 222/630/32 584/537/32 583/414/33
f 267/133/30 580/504/30 599/120/39
f 300/467/38 593/279/38 592/291/38
f 180/495/38 576/518/38 598/520/38
f 269/628/30 594/471/30 587/496/31
f 264/329/31 596/502/31 580/504/30
f 257/201/31 587/496/31 590/498/67
f 179/299/38 191/629/38 576/518/38
f 186/230/38 579/472/38 582/412/38
f 258/631/30 594/471/30 585/66/38
f 189/271/38 582/412/38 583/414/33
f 221/483/25 589/356/25 600/358/24
f 183/532/38 179/299/38 595/494/38
f 303/302/38 592/291/38 591/293/38
f 297/181/38 588/175/38 593/279/38
f 305/627/38 581/118/38 586/173/38
f 293/83/38 586/173/38 588/175/38
f 294/632/38 581/118/38 599/120/39
f 231/415/32 578/64/32 585/66/38
f 294/632/38 617/336/38 612/633/38
f 258/631/30 607/441/30 618/634/31
f 296/174/38 616/647/38 613/635/38
f 260/497/67 614/650/67 621/636/31
f 299/278/38 613/635/38 623/637/38
f 634/424/38 609/487/38 615/489/38
f 222/630/32 611/468/32 608/639/25
f 185/541/38 619/649/38 610/640/38
f 266/503/30 601/644/30 606/338/39
f 302/530/38 623/637/38 605/641/38
f 636/485/32 611/468/32 624/469/33
f 632/533/30 607/441/30 622/442/38
f 224/357/24 625/645/24 603/642/25
f 180/495/38 609/487/38 620/643/38
f 263/546/31 621/636/31 601/644/30
f 220/542/25 608/639/25 625/645/24
f 642/535/38 617/336/38 606/338/39
f 188/473/38 610/640/38 624/469/33
f 178/349/38 620/643/38 604/646/38
f 230/549/32 602/648/32 622/442/38
f 292/273/38 612/633/38 616/647/38
f 227/539/25 603/642/25 602/648/32
f 182/350/38 604/646/38 619/649/38
f 256/513/31 618/634/31 614/650/67
f 290/195/124 642/535/38 631/477/39
f 254/11/11 632/533/30 647/238/38
f 218/308/28 636/485/32 649/318/33
f 176/253/85 634/424/38 640/638/38
f 617/336/38 642/535/38 637/235/38
f 607/441/30 632/533/30 643/100/31
f 616/647/38 641/236/38 638/492/38
f 614/650/67 639/102/67 646/399/31
f 613/635/38 638/492/38 648/474/38
f 611/468/32 636/485/32 633/375/25
f 619/649/38 644/131/38 635/317/38
f 601/644/30 626/400/30 631/477/39
f 623/637/38 648/474/38 630/476/38
f 625/645/24 650/376/24 628/176/25
f 609/487/38 634/424/38 645/310/38
f 621/636/31 646/399/31 626/400/30
f 608/639/25 633/375/25 650/376/24
f 610/640/38 635/317/38 649/318/33
f 620/643/38 645/310/38 629/129/38
f 602/648/32 627/177/32 647/238/38
f 612/633/38 637/235/38 641/236/38
f 603/642/25 628/176/25 627/177/32
f 604/646/38 629/129/38 644/131/38
f 618/634/31 643/100/31 639/102/67
