# Blender 3.6.23
# www.blender.org
o sol.049
v 1.947308 0.823535 -1.327421
v 1.947448 0.823451 -1.326922
v 1.947747 0.816542 -1.328164
v 1.947607 0.816626 -1.328663
v 1.947574 0.823366 -1.326417
v 1.947873 0.816457 -1.327659
v 1.947679 0.823282 -1.325894
v 1.947978 0.816362 -1.327138
v 1.947747 0.823191 -1.325341
v 1.948047 0.816261 -1.326587
v 1.947762 0.823090 -1.324757
v 1.948062 0.816153 -1.326004
v 1.947709 0.822977 -1.324131
v 1.948009 0.816037 -1.325379
v 1.947577 0.822850 -1.323452
v 1.947877 0.815908 -1.324700
v 1.947346 0.822729 -1.322839
v 1.947647 0.815789 -1.324087
v 1.947022 0.822634 -1.322391
v 1.947322 0.815694 -1.323638
v 1.946617 0.822561 -1.322082
v 1.946918 0.815621 -1.323330
v 1.946148 0.822507 -1.321890
v 1.946448 0.815566 -1.323138
v 1.945635 0.822464 -1.321779
v 1.945935 0.815525 -1.323027
v 1.945088 0.822428 -1.321726
v 1.945388 0.815493 -1.322973
v 1.944529 0.822397 -1.321707
v 1.944829 0.815469 -1.322953
v 1.882405 0.822536 -1.337492
v 1.882704 0.815627 -1.338734
v 1.882804 0.822683 -1.338213
v 1.883103 0.815774 -1.339455
v 1.883254 0.822830 -1.338878
v 1.883553 0.815906 -1.340123
v 1.883793 0.822958 -1.339450
v 1.884092 0.816030 -1.340696
v 1.884447 0.823069 -1.339900
v 1.884747 0.816138 -1.341146
v 1.885242 0.823160 -1.340199
v 1.885542 0.816223 -1.341446
v 1.886209 0.823225 -1.340314
v 1.886510 0.816284 -1.341562
v 1.887210 0.823252 -1.340231
v 1.887510 0.816313 -1.341479
v 1.888109 0.823241 -1.339973
v 1.888409 0.816309 -1.341219
v 1.888918 0.823202 -1.339575
v 1.889217 0.816275 -1.340821
v 1.889660 0.823140 -1.339066
v 1.889959 0.816218 -1.340311
v 1.890351 0.823065 -1.338475
v 1.890651 0.816141 -1.339719
v 1.891011 0.822979 -1.337827
v 1.891310 0.816051 -1.339073
v 1.891655 0.822886 -1.337146
v 1.891955 0.815954 -1.338392
v 1.891284 0.822834 -1.336979
v 1.891584 0.815914 -1.338223
v 1.890627 0.822920 -1.337646
v 1.890926 0.816011 -1.338889
v 1.889958 0.823006 -1.338283
v 1.890257 0.816096 -1.339525
v 1.889273 0.823079 -1.338856
v 1.889572 0.816170 -1.340098
v 1.888559 0.823136 -1.339344
v 1.888858 0.816227 -1.340586
v 1.887808 0.823175 -1.339708
v 1.888107 0.816254 -1.340952
v 1.887013 0.823186 -1.339923
v 1.887313 0.816252 -1.341170
v 1.886171 0.823159 -1.339965
v 1.886471 0.816221 -1.341212
v 1.885369 0.823098 -1.339841
v 1.885669 0.816167 -1.341087
v 1.884699 0.823017 -1.339581
v 1.884999 0.816097 -1.340826
v 1.884138 0.822920 -1.339208
v 1.884437 0.816011 -1.340450
v 1.883671 0.822816 -1.338741
v 1.883970 0.815907 -1.339983
v 1.883270 0.822703 -1.338207
v 1.883569 0.815793 -1.339450
v 1.882915 0.822583 -1.337630
v 1.883214 0.815674 -1.338872
v 1.944624 0.822464 -1.322113
v 1.944924 0.815555 -1.323355
v 1.945105 0.822495 -1.322120
v 1.945405 0.815570 -1.323365
v 1.945570 0.822523 -1.322144
v 1.945870 0.815590 -1.323390
v 1.946004 0.822557 -1.322220
v 1.946304 0.815621 -1.323467
v 1.946401 0.822602 -1.322373
v 1.946702 0.815666 -1.323620
v 1.946749 0.822663 -1.322627
v 1.947049 0.815727 -1.323875
v 1.947030 0.822744 -1.323010
v 1.947331 0.815807 -1.324257
v 1.947232 0.822850 -1.323550
v 1.947532 0.815913 -1.324797
v 1.947346 0.822966 -1.324170
v 1.947646 0.816030 -1.325417
v 1.947372 0.823071 -1.324767
v 1.947672 0.816142 -1.326013
v 1.947331 0.823166 -1.325349
v 1.947630 0.816252 -1.326592
v 1.947228 0.823260 -1.325914
v 1.947527 0.816351 -1.327156
v 1.947076 0.823354 -1.326473
v 1.947375 0.816445 -1.327715
v 1.946895 0.823446 -1.327024
v 1.947194 0.816537 -1.328266
v 1.946699 0.823535 -1.327569
v 1.946998 0.816626 -1.328811
v 1.891749 0.822604 -1.336985
v 1.892027 0.816170 -1.338141
v 1.891397 0.822559 -1.336830
v 1.891675 0.816129 -1.337986
v 1.947641 0.816239 -1.327172
v 1.946851 0.823644 -1.327544
v 1.947332 0.823381 -1.325888
v 1.947193 0.823473 -1.326438
v 1.947335 0.816422 -1.328262
v 1.947108 0.822842 -1.322947
v 1.947417 0.815701 -1.324231
v 1.887367 0.816165 -1.341269
v 1.947627 0.815810 -1.324790
v 1.886485 0.816136 -1.341322
v 1.887058 0.823306 -1.339985
v 1.885332 0.823218 -1.339913
v 1.886176 0.823277 -1.340038
v 1.947436 0.823071 -1.324142
v 1.946762 0.815552 -1.323563
v 1.946452 0.822693 -1.322279
v 1.947125 0.815616 -1.323831
v 1.946815 0.822758 -1.322547
v 1.947745 0.815930 -1.325426
v 1.947776 0.816040 -1.326030
v 1.947467 0.823181 -1.324746
v 1.947318 0.822952 -1.323506
v 1.889671 0.816067 -1.340169
v 1.889362 0.823208 -1.338885
v 1.947427 0.823284 -1.325327
v 1.947737 0.816142 -1.326611
v 1.884359 0.815902 -1.340529
v 1.946345 0.815505 -1.323399
v 1.946036 0.822646 -1.322116
v 1.945582 0.822611 -1.322031
v 1.888641 0.823266 -1.339378
v 1.883875 0.815792 -1.340037
v 1.884632 0.823139 -1.339641
v 1.945891 0.815470 -1.323315
v 1.945405 0.815444 -1.323285
v 1.884050 0.823043 -1.339245
v 1.883565 0.822933 -1.338753
v 1.890715 0.823048 -1.337669
v 1.883460 0.815673 -1.339472
v 1.891024 0.815907 -1.338953
v 1.888186 0.816159 -1.341039
v 1.887877 0.823300 -1.339755
v 1.885641 0.816077 -1.341197
v 1.884941 0.815998 -1.340925
v 1.890049 0.823134 -1.338308
v 1.888950 0.816124 -1.340662
v 1.891377 0.822950 -1.336988
v 1.890358 0.815993 -1.339592
v 1.891686 0.815817 -1.338270
v 1.947159 0.816529 -1.328823
v 1.947026 0.823563 -1.326978
v 1.882785 0.822688 -1.337575
v 1.883094 0.815547 -1.338859
v 1.944596 0.822562 -1.321995
v 1.944905 0.815421 -1.323279
v 1.883151 0.822814 -1.338188
v 1.947502 0.816332 -1.327722
v 1.945096 0.822585 -1.322001
v 1.891496 0.822644 -1.336828
v 1.891781 0.816057 -1.338013
v 1.947881 0.816248 -1.327161
v 1.947179 0.823644 -1.327464
v 1.947572 0.823389 -1.325878
v 1.947461 0.823480 -1.326408
v 1.947632 0.816425 -1.328207
v 1.947264 0.822834 -1.322863
v 1.947573 0.815692 -1.324147
v 1.887470 0.816196 -1.341420
v 1.947797 0.815809 -1.324742
v 1.886506 0.816168 -1.341493
v 1.887161 0.823338 -1.340136
v 1.885267 0.823248 -1.340093
v 1.886197 0.823309 -1.340210
v 1.947616 0.823075 -1.324123
v 1.946870 0.815531 -1.323420
v 1.946561 0.822673 -1.322136
v 1.947260 0.815601 -1.323715
v 1.946951 0.822743 -1.322431
v 1.947925 0.815934 -1.325407
v 1.947973 0.816047 -1.326025
v 1.947664 0.823189 -1.324741
v 1.947488 0.822950 -1.323458
v 1.889877 0.816096 -1.340280
v 1.889568 0.823237 -1.338996
v 1.947644 0.823292 -1.325323
v 1.947953 0.816151 -1.326607
v 1.884177 0.815917 -1.340656
v 1.946418 0.815479 -1.323237
v 1.946109 0.822620 -1.321953
v 1.945615 0.822580 -1.321850
v 1.888832 0.823296 -1.339500
v 1.883653 0.815795 -1.340109
v 1.884501 0.823163 -1.339805
v 1.945924 0.815439 -1.323133
v 1.945396 0.815407 -1.323085
v 1.883868 0.823058 -1.339373
v 1.883344 0.822937 -1.338825
v 1.890918 0.823074 -1.337764
v 1.883209 0.815662 -1.339475
v 1.891227 0.815932 -1.339047
v 1.888345 0.816190 -1.341173
v 1.888036 0.823331 -1.339889
v 1.885576 0.816107 -1.341377
v 1.884810 0.816022 -1.341088
v 1.890257 0.823161 -1.338409
v 1.889141 0.816154 -1.340784
v 1.891569 0.822974 -1.337075
v 1.890567 0.816020 -1.339693
v 1.891878 0.815841 -1.338358
v 1.947487 0.816529 -1.328744
v 1.947323 0.823566 -1.326923
v 1.882510 0.822663 -1.337501
v 1.882819 0.815521 -1.338785
v 1.944546 0.822522 -1.321784
v 1.944854 0.815381 -1.323068
v 1.882900 0.822804 -1.338191
v 1.947770 0.816338 -1.327692
v 1.945086 0.822549 -1.321801
v 1.891674 0.822666 -1.336910
v 1.891959 0.816079 -1.338094
v 1.947590 0.822999 -1.326483
v 1.947695 0.822914 -1.325960
v 1.946633 0.822193 -1.322149
v 1.944545 0.822029 -1.321774
v 1.945104 0.822060 -1.321792
v 1.882820 0.822316 -1.338279
v 1.882421 0.822169 -1.337558
v 1.946164 0.822138 -1.321956
v 1.946911 0.823079 -1.327090
v 1.889676 0.822773 -1.339132
v 1.945651 0.822095 -1.321846
v 1.947092 0.822987 -1.326539
v 1.891671 0.822518 -1.337212
v 1.890367 0.822697 -1.338541
v 1.947464 0.823084 -1.326988
v 1.947323 0.823168 -1.327487
v 1.946715 0.823168 -1.327635
v 1.891026 0.822611 -1.337893
v 1.944640 0.822097 -1.322179
v 1.891300 0.822467 -1.337045
v 1.888575 0.822769 -1.339410
v 1.889289 0.822712 -1.338922
v 1.889974 0.822639 -1.338349
v 1.887029 0.822817 -1.339990
v 1.887824 0.822807 -1.339774
v 1.885385 0.822730 -1.339907
v 1.890643 0.822553 -1.337712
v 1.884154 0.822553 -1.339274
v 1.883286 0.822335 -1.338273
v 1.882931 0.822216 -1.337696
v 1.945121 0.822127 -1.322186
v 1.884715 0.822650 -1.339648
v 1.946765 0.822295 -1.322694
v 1.946417 0.822234 -1.322439
v 1.946020 0.822189 -1.322286
v 1.945586 0.822155 -1.322210
v 1.888125 0.822873 -1.340039
v 1.888933 0.822834 -1.339641
v 1.947347 0.822799 -1.325415
v 1.947244 0.822894 -1.325980
v 1.883687 0.822449 -1.338807
v 1.883270 0.822462 -1.338944
v 1.886225 0.822856 -1.340380
v 1.884463 0.822701 -1.339966
v 1.887226 0.822884 -1.340297
v 1.947038 0.822266 -1.322457
v 1.947362 0.822361 -1.322906
v 1.883808 0.822590 -1.339517
v 1.947763 0.822823 -1.325407
v 1.947778 0.822721 -1.324823
v 1.947388 0.822703 -1.324834
v 1.947362 0.822597 -1.324236
v 1.947046 0.822376 -1.323076
v 1.947593 0.822481 -1.323519
v 1.947725 0.822608 -1.324197
v 1.886187 0.822790 -1.340031
v 1.885258 0.822792 -1.340265
v 1.947248 0.822482 -1.323616
v 1.891764 0.822262 -1.337046
v 1.891412 0.822217 -1.336892
v 1.946868 0.823266 -1.327612
v 1.891511 0.822294 -1.336891
v 1.947195 0.823266 -1.327532
v 1.891689 0.822317 -1.336973
v 1.947858 0.816806 -1.327596
v 1.947963 0.816712 -1.327075
v 1.946903 0.815972 -1.323267
v 1.944813 0.815819 -1.322890
v 1.945373 0.815844 -1.322910
v 1.883088 0.816123 -1.339393
v 1.882689 0.815976 -1.338672
v 1.946433 0.815917 -1.323075
v 1.947179 0.816886 -1.328203
v 1.889944 0.816567 -1.340248
v 1.945920 0.815875 -1.322964
v 1.947360 0.816794 -1.327652
v 1.891940 0.816304 -1.338329
v 1.890636 0.816491 -1.339656
v 1.947732 0.816891 -1.328102
v 1.947591 0.816975 -1.328601
v 1.946983 0.816975 -1.328748
v 1.891295 0.816401 -1.339010
v 1.944908 0.815904 -1.323292
v 1.891569 0.816264 -1.338160
v 1.888843 0.816576 -1.340524
v 1.889557 0.816519 -1.340035
v 1.890242 0.816445 -1.339462
v 1.887298 0.816602 -1.341107
v 1.888092 0.816603 -1.340889
v 1.885654 0.816517 -1.341024
v 1.890911 0.816360 -1.338826
v 1.884422 0.816360 -1.340388
v 1.883554 0.816142 -1.339387
v 1.883199 0.816023 -1.338810
v 1.945390 0.815919 -1.323302
v 1.884984 0.816446 -1.340763
v 1.947034 0.816077 -1.323812
v 1.946687 0.816016 -1.323557
v 1.946289 0.815972 -1.323404
v 1.945855 0.815940 -1.323327
v 1.888394 0.816659 -1.341156
v 1.889202 0.816625 -1.340758
v 1.947615 0.816601 -1.326529
v 1.947512 0.816700 -1.327093
v 1.883955 0.816256 -1.339920
v 1.883538 0.816256 -1.340060
v 1.886495 0.816634 -1.341498
v 1.884731 0.816488 -1.341083
v 1.887495 0.816664 -1.341416
v 1.947307 0.816045 -1.323575
v 1.947632 0.816139 -1.324024
v 1.884077 0.816380 -1.340633
v 1.948032 0.816611 -1.326524
v 1.948047 0.816504 -1.325941
v 1.947657 0.816492 -1.325950
v 1.947631 0.816381 -1.325354
v 1.947315 0.816158 -1.324194
v 1.947862 0.816259 -1.324637
v 1.947994 0.816387 -1.325316
v 1.886456 0.816572 -1.341149
v 1.885527 0.816574 -1.341383
v 1.947517 0.816264 -1.324734
v 1.892013 0.816495 -1.338083
v 1.891661 0.816453 -1.337928
v 1.947144 0.816888 -1.328759
v 1.891767 0.816390 -1.337953
v 1.947471 0.816888 -1.328679
v 1.891945 0.816412 -1.338034
v 1.882149 0.822385 -1.336711
v 1.882085 0.822407 -1.336848
v 1.882448 0.815476 -1.337953
v 1.882384 0.815498 -1.338090
v 1.882644 0.822483 -1.337137
v 1.882700 0.822460 -1.336998
v 1.882943 0.815574 -1.338379
v 1.883000 0.815551 -1.338240
v 1.882811 0.815439 -1.338329
v 1.882869 0.815417 -1.338191
v 1.882560 0.822558 -1.336907
v 1.882502 0.822580 -1.337045
v 1.882572 0.815376 -1.338036
v 1.882509 0.815398 -1.338173
v 1.882200 0.822539 -1.336889
v 1.882263 0.822517 -1.336752
v 1.882165 0.822018 -1.336777
v 1.882101 0.822040 -1.336914
v 1.882659 0.822116 -1.337203
v 1.882716 0.822093 -1.337064
v 1.882369 0.815847 -1.338027
v 1.882433 0.815825 -1.337891
v 1.882985 0.815900 -1.338178
v 1.882928 0.815923 -1.338316
v 1.949532 0.823752 -1.339001
v 1.949613 0.822511 -1.339349
v 1.946687 0.823917 -1.327169
v 1.946808 0.817727 -1.327681
v 1.949605 0.819940 -1.339316
v 1.948706 0.827364 -1.335581
v 1.946562 0.821403 -1.326648
v 1.947262 0.826838 -1.329566
v 1.948080 0.814723 -1.332964
v 1.949371 0.817578 -1.338330
v 1.949641 0.821224 -1.339456
v 1.948669 0.815191 -1.335422
v 1.947229 0.815883 -1.329422
v 1.949204 0.825908 -1.337641
v 1.947821 0.827788 -1.331888
v 1.946833 0.825044 -1.327775
v 1.947026 0.826033 -1.328584
v 1.946594 0.822682 -1.326790
v 1.947530 0.827431 -1.330680
v 1.948119 0.827898 -1.333138
v 1.949516 0.818710 -1.338935
v 1.949172 0.816592 -1.337517
v 1.949391 0.824895 -1.338425
v 1.947780 0.814867 -1.331718
v 1.948974 0.826739 -1.336683
v 1.947492 0.815262 -1.330520
v 1.946999 0.816718 -1.328463
v 1.948419 0.827754 -1.334388
v 1.946671 0.818874 -1.327103
v 1.946585 0.820115 -1.326752
v 1.948382 0.814834 -1.334217
v 1.948937 0.815784 -1.336540
v 1.942182 0.824894 -1.340156
v 1.941995 0.825908 -1.339372
v 1.941765 0.826738 -1.338414
v 1.941501 0.827364 -1.337315
v 1.941213 0.827754 -1.336118
v 1.940914 0.827898 -1.334872
v 1.940612 0.827787 -1.333619
v 1.940321 0.827431 -1.332415
v 1.940053 0.826837 -1.331297
v 1.939817 0.826033 -1.330318
v 1.939623 0.825044 -1.329506
v 1.939477 0.823916 -1.328900
v 1.939388 0.822682 -1.328521
v 1.939353 0.821402 -1.328380
v 1.939376 0.820115 -1.328487
v 1.939462 0.818874 -1.328834
v 1.939603 0.817726 -1.329412
v 1.939789 0.816717 -1.330194
v 1.940020 0.815883 -1.331153
v 1.940284 0.815261 -1.332255
v 1.940571 0.814867 -1.333449
v 1.940871 0.814723 -1.334699
v 1.941173 0.814834 -1.335948
v 1.941464 0.815190 -1.337156
v 1.941731 0.815784 -1.338270
v 1.941968 0.816592 -1.339252
v 1.942161 0.817577 -1.340061
v 1.942307 0.818709 -1.340666
v 1.942396 0.819939 -1.341047
v 1.942322 0.823751 -1.340732
v 1.942432 0.821223 -1.341187
v 1.942404 0.822511 -1.341084
v 1.949880 0.822259 -1.337884
v 1.949903 0.821242 -1.337968
v 1.941596 0.821241 -1.339964
v 1.941573 0.822258 -1.339882
v 1.949874 0.820228 -1.337858
v 1.941567 0.820227 -1.339853
v 1.949804 0.819257 -1.337557
v 1.941497 0.819256 -1.339553
v 1.949689 0.818363 -1.337079
v 1.941382 0.818362 -1.339074
v 1.949531 0.817585 -1.336438
v 1.941229 0.817585 -1.338436
v 1.949345 0.816947 -1.335666
v 1.941043 0.816946 -1.337660
v 1.949134 0.816478 -1.334783
v 1.940832 0.816478 -1.336781
v 1.948908 0.816196 -1.333831
v 1.940601 0.816196 -1.335826
v 1.948669 0.816109 -1.332842
v 1.940363 0.816109 -1.334841
v 1.948433 0.816223 -1.331858
v 1.940126 0.816222 -1.333853
v 1.948205 0.816534 -1.330912
v 1.939899 0.816534 -1.332910
v 1.947998 0.817025 -1.330045
v 1.939691 0.817024 -1.332040
v 1.947816 0.817684 -1.329287
v 1.939509 0.817683 -1.331283
v 1.947665 0.818481 -1.328670
v 1.939362 0.818480 -1.330664
v 1.947557 0.819387 -1.328213
v 1.939250 0.819386 -1.330209
v 1.947489 0.820367 -1.327936
v 1.939183 0.820367 -1.329935
v 1.947471 0.821384 -1.327854
v 1.939164 0.821383 -1.329850
v 1.947495 0.822394 -1.327966
v 1.939193 0.822394 -1.329961
v 1.947570 0.823369 -1.328265
v 1.939263 0.823368 -1.330261
v 1.947685 0.824259 -1.328744
v 1.939378 0.824259 -1.330739
v 1.947837 0.825040 -1.329382
v 1.939531 0.825040 -1.331381
v 1.948024 0.825675 -1.330158
v 1.939717 0.825675 -1.332154
v 1.948235 0.826144 -1.331038
v 1.939928 0.826144 -1.333036
v 1.948465 0.826426 -1.331992
v 1.940158 0.826425 -1.333987
v 1.948699 0.826513 -1.332979
v 1.940397 0.826513 -1.334977
v 1.948936 0.826400 -1.333966
v 1.940634 0.826399 -1.335961
v 1.949163 0.826091 -1.334908
v 1.940861 0.826091 -1.336906
v 1.949376 0.825597 -1.335778
v 1.941069 0.825597 -1.337774
v 1.949558 0.824942 -1.336535
v 1.941251 0.824941 -1.338531
v 1.949705 0.824142 -1.337154
v 1.941398 0.824141 -1.339149
v 1.949816 0.823239 -1.337609
v 1.941509 0.823238 -1.339605
v 1.950122 0.822451 -1.338894
v 1.949880 0.822511 -1.339285
v 1.949908 0.821224 -1.339391
v 1.950149 0.821228 -1.338995
v 1.941842 0.821227 -1.340990
v 1.942237 0.821223 -1.341234
v 1.941816 0.822451 -1.340893
v 1.942210 0.822511 -1.341130
v 1.949872 0.819940 -1.339251
v 1.950116 0.820008 -1.338862
v 1.941808 0.820007 -1.340857
v 1.942202 0.819939 -1.341093
v 1.950031 0.818840 -1.338501
v 1.949783 0.818710 -1.338871
v 1.941724 0.818839 -1.340496
v 1.942113 0.818709 -1.340713
v 1.949638 0.817578 -1.338266
v 1.949893 0.817764 -1.337926
v 1.941586 0.817763 -1.339921
v 1.941967 0.817577 -1.340108
v 1.949439 0.816592 -1.337453
v 1.949704 0.816828 -1.337154
v 1.941774 0.816592 -1.339298
v 1.941402 0.816828 -1.339152
v 1.949480 0.816060 -1.336225
v 1.949203 0.815784 -1.336476
v 1.941177 0.816059 -1.338219
v 1.941537 0.815784 -1.338317
v 1.948936 0.815191 -1.335358
v 1.949225 0.815496 -1.335163
v 1.941270 0.815190 -1.337203
v 1.940923 0.815496 -1.337161
v 1.948953 0.815158 -1.334018
v 1.948649 0.814834 -1.334153
v 1.940978 0.814833 -1.335995
v 1.940646 0.815157 -1.336013
v 1.948666 0.815052 -1.332828
v 1.948347 0.814723 -1.332900
v 1.940360 0.815052 -1.334827
v 1.940677 0.814723 -1.334746
v 1.948047 0.814867 -1.331654
v 1.948382 0.815189 -1.331644
v 1.940075 0.815188 -1.333639
v 1.940377 0.814867 -1.333496
v 1.948108 0.815563 -1.330506
v 1.947759 0.815262 -1.330456
v 1.939801 0.815563 -1.332505
v 1.940089 0.815261 -1.332302
v 1.947496 0.815883 -1.329358
v 1.947858 0.816154 -1.329463
v 1.939551 0.816154 -1.331458
v 1.939826 0.815883 -1.331200
v 1.947639 0.816947 -1.328552
v 1.947266 0.816718 -1.328399
v 1.939595 0.816717 -1.330241
v 1.939332 0.816946 -1.330547
v 1.947458 0.817906 -1.327809
v 1.947075 0.817727 -1.327617
v 1.939155 0.817905 -1.329803
v 1.939409 0.817726 -1.329458
v 1.947328 0.818996 -1.327259
v 1.946939 0.818874 -1.327039
v 1.939268 0.818874 -1.328881
v 1.939021 0.818995 -1.329254
v 1.946852 0.820115 -1.326688
v 1.947246 0.820175 -1.326926
v 1.939182 0.820115 -1.328534
v 1.938940 0.820175 -1.328925
v 1.947224 0.821398 -1.326827
v 1.946829 0.821403 -1.326584
v 1.939158 0.821402 -1.328426
v 1.938917 0.821397 -1.328822
v 1.946860 0.822682 -1.326726
v 1.947254 0.822614 -1.326962
v 1.938951 0.822613 -1.328956
v 1.939194 0.822682 -1.328567
v 1.947343 0.823787 -1.327322
v 1.946954 0.823917 -1.327105
v 1.939036 0.823786 -1.329317
v 1.939283 0.823916 -1.328947
v 1.947100 0.825044 -1.327711
v 1.947481 0.824858 -1.327898
v 1.939174 0.824857 -1.329893
v 1.939429 0.825044 -1.329553
v 1.947665 0.825798 -1.328666
v 1.947293 0.826033 -1.328519
v 1.939623 0.826033 -1.330365
v 1.939358 0.825798 -1.330665
v 1.947889 0.826562 -1.329599
v 1.947529 0.826838 -1.329502
v 1.939582 0.826561 -1.331594
v 1.939859 0.826837 -1.331344
v 1.947797 0.827431 -1.330615
v 1.948143 0.827125 -1.330657
v 1.939837 0.827125 -1.332656
v 1.940127 0.827431 -1.332461
v 1.948420 0.827464 -1.331805
v 1.948088 0.827788 -1.331824
v 1.940418 0.827787 -1.333666
v 1.940113 0.827464 -1.333800
v 1.948703 0.827569 -1.332992
v 1.948385 0.827898 -1.333073
v 1.940401 0.827569 -1.334991
v 1.940720 0.827898 -1.334918
v 1.948685 0.827755 -1.334324
v 1.948987 0.827433 -1.334181
v 1.940685 0.827432 -1.336175
v 1.941019 0.827754 -1.336165
v 1.948973 0.827364 -1.335517
v 1.949261 0.827062 -1.335314
v 1.940959 0.827062 -1.337312
v 1.941307 0.827364 -1.337362
v 1.949516 0.826468 -1.336361
v 1.949241 0.826739 -1.336619
v 1.941571 0.826738 -1.338461
v 1.941209 0.826467 -1.338356
v 1.949471 0.825908 -1.337577
v 1.949735 0.825679 -1.337271
v 1.941801 0.825908 -1.339419
v 1.941428 0.825678 -1.339266
v 1.949658 0.824895 -1.338360
v 1.949912 0.824716 -1.338016
v 1.941605 0.824715 -1.340011
v 1.941987 0.824894 -1.340202
v 1.949799 0.823752 -1.338937
v 1.950045 0.823630 -1.338563
v 1.942128 0.823751 -1.340779
v 1.941738 0.823629 -1.340558
vn 0.7710 0.1450 -0.6201
vn 0.9154 -0.2776 -0.2915
vn 0.7912 -0.1552 -0.5915
vn 0.9666 0.0851 -0.2418
vn 0.9291 -0.2675 -0.2553
vn 0.9865 0.0692 -0.1484
vn 0.9753 0.0793 -0.2061
vn 0.9964 0.0544 -0.0647
vn 0.9376 -0.2825 -0.2030
vn 0.9987 0.0367 0.0358
vn 0.9453 -0.3008 -0.1263
vn 0.9899 0.0174 0.1410
vn 0.9487 -0.3146 -0.0305
vn 0.9625 -0.0069 0.2712
vn 0.9429 -0.3260 0.0689
vn 0.8453 -0.3779 0.3776
vn 0.9186 -0.3443 0.1937
vn 0.8839 -0.0452 0.4655
vn 0.6945 -0.4209 0.5835
vn 0.5067 -0.1313 0.8520
vn 0.7228 -0.0918 0.6849
vn 0.3065 -0.1556 0.9391
vn 0.4921 -0.4585 0.7400
vn 0.1666 -0.5014 0.8491
vn 0.3028 -0.4837 0.8212
vn 0.1639 -0.1676 0.9721
vn 0.0832 -0.5124 0.8547
vn 0.0746 -0.1731 0.9821
vn -0.0769 -0.5141 0.8543
vn -0.2153 -0.9491 0.2297
vn -0.5889 -0.5097 0.6272
vn -0.4432 -0.8664 -0.2302
vn -0.8345 -0.2555 -0.4882
vn -0.3731 -0.8494 -0.3732
vn -0.8884 0.0438 -0.4570
vn -0.8033 -0.2501 -0.5405
vn -0.7867 0.0760 -0.6127
vn -0.8563 0.0554 -0.5135
vn -0.6594 0.1053 -0.7444
vn -0.7254 -0.2650 -0.6352
vn -0.4728 0.1361 -0.8706
vn -0.6051 -0.2447 -0.7576
vn -0.2467 0.1612 -0.9556
vn -0.4306 -0.2161 -0.8763
vn -0.0259 0.1758 -0.9841
vn -0.2192 -0.1901 -0.9570
vn 0.1844 -0.1541 -0.9707
vn -0.0096 -0.1684 -0.9857
vn 0.1755 0.1814 -0.9676
vn 0.3583 -0.1559 -0.9205
vn 0.3588 0.1801 -0.9159
vn 0.4948 -0.1665 -0.8529
vn 0.5056 0.1737 -0.8451
vn 0.5908 -0.1789 -0.7867
vn 0.6774 0.1586 -0.7183
vn 0.6103 0.1657 -0.7746
vn 0.7155 0.1534 -0.6816
vn 0.6515 -0.1911 -0.7342
vn 0.8427 0.1305 -0.5223
vn 0.6856 -0.2021 -0.6994
vn -0.8083 -0.1380 0.5724
vn -0.6476 -0.4781 0.5933
vn -0.5752 -0.5295 0.6236
vn -0.6675 -0.1598 0.7273
vn -0.7027 -0.1550 0.6944
vn -0.5509 -0.4930 0.6733
vn -0.6110 -0.4883 0.6231
vn -0.6051 -0.1662 0.7786
vn -0.4554 -0.4896 0.7435
vn -0.3494 -0.1805 0.9194
vn -0.5022 -0.1741 0.8470
vn -0.1522 -0.1812 0.9716
vn -0.3073 -0.5026 0.8081
vn 0.0606 -0.1740 0.9829
vn -0.1211 -0.5136 0.8494
vn 0.2630 -0.5135 0.8168
vn 0.0735 -0.5201 0.8509
vn 0.2697 -0.1591 0.9497
vn 0.4493 -0.4871 0.7489
vn 0.4709 -0.1362 0.8716
vn 0.6152 -0.4435 0.6518
vn 0.6429 -0.1084 0.7582
vn 0.7274 -0.4166 0.5452
vn 0.7616 -0.0824 0.6428
vn 0.7954 -0.3915 0.4626
vn 0.8676 -0.0515 0.4946
vn 0.8308 -0.0639 0.5529
vn 0.5534 -0.3143 -0.7713
vn 0.0830 -0.8342 -0.5452
vn 0.2074 -0.9172 -0.3401
vn 0.9122 -0.4077 0.0416
vn 0.4177 -0.9072 0.0502
vn 0.8338 -0.3698 0.4099
vn -0.0435 0.1749 -0.9836
vn 0.1088 -0.1801 -0.9776
vn 0.1028 0.1803 -0.9782
vn -0.1221 0.1705 -0.9778
vn -0.0297 -0.1957 -0.9802
vn -0.2774 0.1585 -0.9476
vn -0.1002 -0.2027 -0.9741
vn -0.4888 0.1340 -0.8621
vn -0.2425 -0.2136 -0.9464
vn -0.7136 0.0940 -0.6943
vn -0.4374 -0.2384 -0.8671
vn -0.8046 -0.3203 -0.5001
vn -0.6462 -0.2786 -0.7105
vn -0.8826 0.0458 -0.4679
vn -0.8816 -0.3542 -0.3118
vn -0.9642 0.0058 -0.2652
vn -0.9083 -0.3803 -0.1746
vn -0.9930 -0.0220 -0.1162
vn -0.9134 -0.4025 -0.0612
vn -0.9990 -0.0443 0.0060
vn -0.9118 -0.4085 0.0411
vn -0.9914 -0.0634 0.1147
vn -0.8935 -0.4307 0.1274
vn -0.9749 -0.0795 0.2078
vn -0.8711 -0.4555 0.1838
vn -0.9580 -0.0905 0.2721
vn -0.8537 -0.4804 0.2011
vn -0.9461 -0.0966 0.3090
vn -0.7561 -0.3127 -0.5750
vn 0.3419 0.1807 -0.9222
vn 0.3937 -0.5396 -0.7442
vn 0.3442 0.9372 0.0571
vn 0.7664 0.4169 -0.4886
vn 0.3362 0.7955 -0.5041
vn 0.3695 0.9265 0.0709
vn 0.8844 0.4374 -0.1629
vn 0.3733 0.9229 0.0942
vn 0.8996 0.4162 -0.1322
vn 0.3728 0.9188 0.1300
vn 0.9077 0.4123 -0.0782
vn 0.3798 0.9086 0.1737
vn 0.9147 0.4041 0.0004
vn 0.9135 0.3586 0.1922
vn 0.9190 0.3826 0.0946
vn 0.3833 0.8973 0.2189
vn 0.8892 0.3318 0.3151
vn 0.3536 0.8612 0.3651
vn 0.3780 0.8837 0.2761
vn 0.6657 0.2481 0.7038
vn 0.8164 0.2918 0.4984
vn 0.2826 0.8393 0.4644
vn 0.4631 0.2114 0.8608
vn 0.1834 0.8233 0.5371
vn 0.2736 0.1912 0.9426
vn 0.0920 0.8182 0.5675
vn 0.1366 0.1869 0.9728
vn -0.0087 0.8236 0.5671
vn 0.0279 0.8199 0.5718
vn -0.0770 0.8090 0.5827
vn 0.0528 0.1883 0.9807
vn -0.5175 0.8521 0.0780
vn -0.8601 0.3391 -0.3812
vn -0.9473 0.3119 0.0738
vn -0.6200 0.2085 0.7564
vn -0.0946 -0.1801 0.9791
vn -0.1069 0.1763 0.9785
vn -0.4482 0.8919 -0.0597
vn -0.8293 0.3550 -0.4316
vn -0.4298 0.8990 -0.0837
vn -0.7545 0.4076 -0.5143
vn -0.3731 0.9211 -0.1110
vn -0.6347 0.4413 -0.6344
vn -0.3175 0.9340 -0.1640
vn -0.4604 0.4703 -0.7529
vn -0.2392 0.9461 -0.2183
vn -0.2487 0.4920 -0.8344
vn -0.0540 0.9603 -0.2736
vn -0.1451 0.9558 -0.2558
vn 0.0335 0.9597 -0.2790
vn -0.0384 0.4990 -0.8658
vn 0.1158 0.9599 -0.2555
vn 0.1562 0.4967 -0.8538
vn 0.1799 0.9595 -0.2168
vn 0.3300 0.4959 -0.8033
vn 0.2228 0.9584 -0.1782
vn 0.4662 0.4936 -0.7341
vn 0.2472 0.9578 -0.1468
vn 0.5618 0.4904 -0.6662
vn 0.2595 0.9579 -0.1224
vn 0.6219 0.4886 -0.6120
vn 0.4598 0.8457 0.2710
vn 0.6555 0.4898 -0.5747
vn 0.4223 -0.8662 -0.2671
vn 0.4469 -0.8589 -0.2502
vn 0.4503 -0.8636 -0.2268
vn 0.4507 -0.8718 -0.1919
vn 0.4559 -0.8778 -0.1471
vn 0.4601 -0.8821 -0.1012
vn 0.4556 -0.8892 -0.0424
vn 0.4295 -0.9018 0.0474
vn 0.3585 -0.9218 0.1473
vn 0.2593 -0.9405 0.2198
vn 0.1687 -0.9537 0.2491
vn 0.1052 -0.9620 0.2519
vn 0.0689 -0.9671 0.2447
vn -0.0001 -0.9647 0.2634
vn 0.5135 0.6082 -0.6053
vn 0.1027 0.1802 -0.9783
vn 0.6501 0.1615 -0.7425
vn -0.0943 -0.1801 0.9791
vn -0.3551 -0.8459 -0.3980
vn -0.2965 -0.8526 -0.4303
vn -0.2407 -0.8419 -0.4830
vn -0.1625 -0.8277 -0.5372
vn -0.0685 -0.8159 -0.5741
vn 0.0225 -0.8063 -0.5911
vn 0.1097 -0.7967 -0.5944
vn 0.1919 -0.7975 -0.5720
vn 0.2563 -0.8051 -0.5349
vn 0.2996 -0.8142 -0.4973
vn 0.3244 -0.8227 -0.4668
vn 0.3374 -0.8298 -0.4445
vn 0.5334 -0.8452 -0.0327
vn 0.8780 -0.3124 -0.3627
vn 0.6315 -0.4619 0.6228
vn 0.2803 -0.1585 0.9467
vn -0.4558 -0.0437 0.8890
vn -0.4607 -0.1767 0.8698
vn -0.6077 0.2287 0.7605
vn 0.1223 0.2062 0.9708
vn -0.1395 0.7349 0.6636
vn -0.4442 -0.3063 0.8419
vn -0.4599 -0.1763 0.8703
vn 0.8426 0.1304 -0.5225
vn 0.9570 0.1257 0.2616
vn 0.9718 -0.0002 0.2359
vn 0.1334 0.1810 -0.9744
vn -0.8064 0.0707 -0.5871
vn -0.8879 0.3067 0.3429
vn -0.2242 0.8361 -0.5006
vn -0.7884 0.4285 -0.4415
vn -0.9034 0.2881 0.3177
vn -0.3963 0.8803 0.2607
vn -0.9246 0.2827 0.2554
vn -0.4115 0.8724 0.2638
vn -0.9422 0.2904 0.1669
vn -0.4295 0.8709 0.2390
vn -0.9448 0.3204 0.0690
vn -0.4379 0.8759 0.2027
vn -0.9395 0.3394 -0.0453
vn -0.4286 0.8886 0.1632
vn -0.9128 0.3655 -0.1824
vn -0.4275 0.8966 0.1158
vn -0.8361 0.4057 -0.3693
vn -0.4127 0.9089 0.0598
vn -0.3070 0.9471 -0.0932
vn -0.3723 0.9280 -0.0127
vn -0.6777 0.4529 -0.5793
vn -0.2274 0.9605 -0.1604
vn -0.4687 0.4879 -0.7364
vn -0.1501 0.9677 -0.2026
vn -0.2735 0.5077 -0.8170
vn -0.0899 0.9716 -0.2189
vn -0.1314 0.5198 -0.8441
vn -0.0600 0.9710 -0.2313
vn 0.0786 0.5167 -0.8526
vn -0.0607 0.5207 -0.8516
vn 0.8061 0.2723 0.5254
vn 0.9976 0.0320 0.0615
vn 0.8676 -0.0512 0.4946
vn 0.0046 0.9755 -0.2202
vn 0.3133 0.8675 0.3865
vn 0.3409 0.8648 0.3686
vn 0.7664 0.2722 0.5819
vn 0.2765 0.8644 0.4200
vn 0.6982 0.2603 0.6669
vn 0.2244 0.8573 0.4634
vn 0.5857 0.2393 0.7744
vn 0.1438 0.8551 0.4981
vn 0.4184 0.2319 0.8782
vn 0.0621 0.8496 0.5238
vn 0.0425 0.1960 0.9797
vn 0.2312 0.2171 0.9484
vn -0.1507 0.1746 0.9730
vn -0.0196 0.8389 0.5439
vn -0.3361 0.1628 0.9277
vn -0.1068 0.8297 0.5479
vn -0.4835 0.1611 0.8604
vn -0.1891 0.8230 0.5356
vn -0.5803 0.1805 0.7942
vn -0.2547 0.8203 0.5120
vn -0.6402 0.1886 0.7447
vn -0.2913 0.8273 0.4804
vn -0.6763 0.1859 0.7127
vn -0.3180 0.8285 0.4610
vn -0.3373 0.8252 0.4530
vn -0.1606 -0.6254 -0.7636
vn -0.3173 -0.9459 -0.0677
vn -0.3323 -0.9411 -0.0625
vn -0.3508 -0.9326 -0.0851
vn -0.3600 -0.9251 -0.1211
vn -0.3499 -0.9226 -0.1624
vn -0.3483 -0.9137 -0.2094
vn -0.3343 -0.9040 -0.2666
vn -0.2278 -0.8778 -0.4215
vn -0.1486 -0.8604 -0.4875
vn -0.0715 -0.8462 -0.5280
vn -0.0117 -0.8389 -0.5441
vn 0.0182 -0.8316 -0.5551
vn 0.3916 -0.9178 0.0656
vn 0.3539 -0.9303 0.0970
vn 0.3025 -0.9428 0.1403
vn 0.2222 -0.9598 0.1715
vn 0.1409 -0.9704 0.1963
vn 0.0590 -0.9741 0.2182
vn -0.0289 -0.9741 0.2241
vn -0.1113 -0.9706 0.2133
vn -0.1779 -0.9653 0.1912
vn -0.2137 -0.9639 0.1586
vn -0.2408 -0.9604 0.1398
vn -0.2601 -0.9564 0.1325
vn -0.0675 -0.9289 0.3641
vn 0.1539 -0.5200 0.8402
vn 0.5475 -0.1249 0.8274
vn 0.5999 0.2676 0.7540
vn -0.9991 -0.0398 -0.0172
vn -0.9991 -0.0399 -0.0170
vn 0.1248 0.9922 0.0035
vn -0.2936 -0.8932 -0.3407
vn 0.2953 -0.9384 -0.1796
vn 0.2129 0.9634 0.1627
vn 0.8431 0.4917 -0.2180
vn 0.9666 0.0854 -0.2418
vn 0.7707 0.1450 -0.6205
vn 0.9753 0.0794 -0.2060
vn 0.9865 0.0696 -0.1484
vn 0.9964 0.0546 -0.0647
vn 0.9987 0.0366 0.0359
vn 0.9899 0.0175 0.1409
vn 0.9625 -0.0072 0.2712
vn 0.8839 -0.0453 0.4655
vn 0.7228 -0.0919 0.6849
vn 0.3066 -0.1556 0.9390
vn 0.5066 -0.1313 0.8521
vn 0.1641 -0.1677 0.9721
vn 0.0745 -0.1733 0.9821
vn -0.9165 -0.3964 -0.0530
vn -0.2905 0.7883 0.5424
vn -0.8563 0.0552 -0.5136
vn -0.8883 0.0438 -0.4571
vn -0.7866 0.0762 -0.6128
vn -0.6593 0.1052 -0.7445
vn -0.4728 0.1359 -0.8706
vn -0.0258 0.1757 -0.9841
vn 0.1755 0.1816 -0.9676
vn 0.3587 0.1801 -0.9159
vn 0.5055 0.1736 -0.8452
vn 0.6773 0.1586 -0.7184
vn 0.6103 0.1656 -0.7747
vn 0.7154 0.1535 -0.6816
vn -0.8081 -0.1379 0.5727
vn -0.7028 -0.1552 0.6943
vn -0.6052 -0.1661 0.7786
vn -0.6674 -0.1596 0.7274
vn -0.3495 -0.1803 0.9194
vn -0.5023 -0.1741 0.8470
vn -0.1523 -0.1814 0.9716
vn 0.0607 -0.1742 0.9828
vn 0.2696 -0.1590 0.9497
vn 0.4709 -0.1363 0.8716
vn 0.6427 -0.1085 0.7584
vn 0.8309 -0.0634 0.5528
vn 0.7616 -0.0829 0.6427
vn 0.9976 0.0318 0.0613
vn 0.8756 0.4420 0.1950
vn -0.0435 0.1750 -0.9836
vn -0.1225 0.1705 -0.9777
vn -0.2776 0.1583 -0.9476
vn -0.4889 0.1339 -0.8620
vn -0.7135 0.0940 -0.6944
vn -0.8826 0.0458 -0.4680
vn -0.9642 0.0058 -0.2653
vn -0.9930 -0.0222 -0.1162
vn -0.9990 -0.0444 0.0061
vn -0.9913 -0.0638 0.1147
vn -0.9750 -0.0794 0.2077
vn -0.9580 -0.0902 0.2722
vn -0.9462 -0.0966 0.3090
vn 0.3409 0.1805 -0.9226
vn 0.2814 -0.1579 0.9465
vn 0.9717 -0.0003 0.2364
vn 0.1332 0.1809 -0.9744
vn -0.8062 0.0711 -0.5873
vn 0.5477 -0.1248 0.8273
vn -0.6319 -0.1633 0.7577
vn 0.9677 -0.1287 0.2166
vn -0.6320 -0.1633 0.7576
vn 0.2302 0.1819 -0.9560
vn -0.1633 0.3449 -0.9243
vn 0.2173 0.3719 -0.9025
vn 0.9822 -0.0836 -0.1680
vn 0.9722 0.0004 0.2340
vn 0.9723 -0.0000 0.2338
vn 0.9724 0.0009 0.2335
vn 0.9768 -0.1575 -0.1450
vn 0.9721 -0.0011 0.2346
vn 0.9675 -0.2289 -0.1071
vn 0.9559 -0.2883 -0.0569
vn 0.9720 -0.0012 0.2349
vn 0.9723 -0.0001 0.2336
vn 0.9415 -0.3369 0.0008
vn 0.9254 -0.3727 0.0686
vn 0.9727 0.0004 0.2322
vn 0.9079 -0.3942 0.1424
vn 0.9725 -0.0000 0.2328
vn 0.9722 -0.0002 0.2340
vn 0.8891 -0.4017 0.2194
vn 0.8708 -0.3927 0.2958
vn 0.9723 -0.0000 0.2337
vn 0.8535 -0.3688 0.3682
vn 0.9724 -0.0002 0.2335
vn 0.9724 -0.0001 0.2334
vn 0.8373 -0.3309 0.4353
vn 0.8232 -0.2788 0.4946
vn 0.9721 0.0009 0.2345
vn 0.8115 -0.2187 0.5418
vn 0.8037 -0.1492 0.5760
vn 0.9723 0.0001 0.2339
vn 0.7978 -0.0730 0.5985
vn 0.7968 0.0065 0.6042
vn 0.9723 0.0002 0.2337
vn 0.7986 0.0836 0.5960
vn 0.9722 -0.0010 0.2341
vn 0.8040 0.1577 0.5733
vn 0.8133 0.2275 0.5355
vn 0.9723 0.0006 0.2336
vn 0.9723 0.0005 0.2336
vn 0.8249 0.2880 0.4865
vn 0.8396 0.3368 0.4262
vn 0.9723 0.0003 0.2336
vn 0.9722 -0.0000 0.2340
vn 0.8555 0.3733 0.3587
vn 0.8738 0.3946 0.2843
vn 0.9725 0.0003 0.2328
vn 0.9727 -0.0000 0.2321
vn 0.8920 0.4015 0.2078
vn 0.9723 -0.0001 0.2337
vn 0.9099 0.3929 0.1327
vn 0.9271 0.3697 0.0611
vn 0.9719 0.0005 0.2355
vn 0.9720 0.0008 0.2349
vn 0.9434 0.3317 -0.0060
vn 0.9724 -0.0007 0.2332
vn 0.9579 0.2794 -0.0665
vn 0.9692 0.2185 -0.1135
vn 0.9723 0.0002 0.2338
vn 0.9723 -0.0002 0.2339
vn 0.9776 0.1487 -0.1488
vn 0.9827 0.0730 -0.1699
vn 0.9723 -0.0001 0.2339
vn -0.0865 0.9293 0.3591
vn -0.4831 0.7774 0.4028
vn -0.1273 0.8390 0.5291
vn -0.9691 -0.2188 0.1137
vn -0.9724 0.0007 -0.2333
vn -0.9579 -0.2792 0.0664
vn -0.2144 0.3943 0.8936
vn -0.5767 0.1929 0.7938
vn -0.2284 0.2082 0.9510
vn 0.9843 -0.0050 -0.1764
vn -0.8250 -0.2878 -0.4863
vn -0.9723 -0.0000 -0.2336
vn -0.9724 -0.0003 -0.2335
vn -0.1670 -0.6969 0.6974
vn -0.5462 -0.5046 0.6686
vn -0.5203 -0.6458 0.5588
vn -0.9829 -0.0730 0.1693
vn -0.9723 0.0017 -0.2337
vn -0.9723 -0.0000 -0.2339
vn 0.1961 0.5441 -0.8158
vn -0.2097 0.6463 -0.7337
vn 0.1675 0.6970 -0.6973
vn -0.2307 -0.1818 0.9559
vn -0.5822 0.0133 0.8129
vn -0.5793 -0.1685 0.7975
vn -0.8733 -0.3945 -0.2859
vn -0.9722 0.0001 -0.2340
vn -0.9720 0.0002 -0.2349
vn -0.8711 0.3926 -0.2952
vn -0.9722 -0.0000 -0.2340
vn -0.8891 0.4019 -0.2193
vn -0.7988 -0.0836 -0.5957
vn -0.9724 -0.0010 -0.2334
vn -0.9723 -0.0001 -0.2337
vn -0.9278 -0.3683 -0.0599
vn -0.9724 0.0003 -0.2334
vn -0.9723 0.0003 -0.2335
vn -0.9435 -0.3312 0.0076
vn -0.0030 -0.9999 0.0123
vn -0.4103 -0.9063 0.1012
vn -0.3681 -0.9266 -0.0765
vn 0.1640 -0.7163 -0.6783
vn -0.2473 -0.7769 -0.5790
vn -0.2131 -0.6642 -0.7166
vn -0.5658 -0.3434 0.7496
vn -0.2167 -0.3699 0.9034
vn -0.9251 0.3732 -0.0701
vn -0.9723 0.0001 -0.2337
vn -0.9415 0.3370 -0.0015
vn -0.9723 -0.0006 -0.2338
vn -0.7967 -0.0065 -0.6044
vn -0.9560 0.2875 0.0583
vn -0.9724 -0.0005 -0.2334
vn -0.9678 0.2274 0.1079
vn -0.9724 -0.0009 -0.2335
vn -0.9767 0.1578 0.1452
vn -0.9721 -0.0017 -0.2344
vn -0.9775 -0.1502 0.1484
vn -0.9723 -0.0001 -0.2338
vn -0.1637 0.7164 0.6782
vn -0.5170 0.6636 0.5406
vn 0.2295 0.1818 -0.9562
vn 0.2171 0.3703 -0.9032
vn -0.1838 0.5042 -0.8438
vn 0.1328 0.8234 -0.5516
vn -0.2422 0.7632 -0.5991
vn 0.0427 -0.9834 -0.1766
vn -0.2848 -0.8613 -0.4208
vn 0.0864 -0.9292 -0.3593
vn 0.2280 -0.2083 -0.9511
vn -0.1659 -0.3657 -0.9158
vn -0.1542 -0.1929 -0.9690
vn 0.0486 0.9782 -0.2020
vn -0.3620 0.9269 -0.0995
vn 0.0030 0.9999 -0.0127
vn -0.5434 0.5255 0.6547
vn -0.1925 0.5671 0.8008
vn -0.9723 -0.0001 -0.2335
vn -0.7979 0.0730 -0.5983
vn -0.2794 0.8514 -0.4439
vn 0.0925 0.9186 -0.3843
vn -0.8916 -0.4014 -0.2094
vn -0.9723 -0.0000 -0.2337
vn 0.1273 -0.8384 -0.5300
vn -0.8033 0.1497 -0.5765
vn -0.9723 0.0005 -0.2336
vn -0.8121 0.2181 -0.5412
vn -0.9724 0.0006 -0.2333
vn -0.8231 0.2806 -0.4937
vn -0.5639 0.3652 0.7407
vn -0.8393 -0.3366 -0.4269
vn -0.9823 0.0834 0.1678
vn -0.9843 0.0069 0.1764
vn -0.1488 -0.0138 -0.9888
vn 0.2331 -0.0146 -0.9724
vn -0.4045 0.9114 0.0759
vn -0.4455 0.8611 0.2449
vn -0.1956 -0.5443 0.8158
vn -0.8374 0.3307 -0.4352
vn -0.9723 0.0002 -0.2336
vn -0.8533 0.3692 -0.3684
vn 0.1925 -0.5663 -0.8014
vn 0.2149 -0.3944 -0.8935
vn -0.3256 -0.9113 -0.2518
vn -0.9723 -0.0002 -0.2336
vn -0.3202 0.9065 -0.2750
vn -0.2342 0.0139 0.9721
vn -0.0426 0.9833 0.1769
vn -0.1867 -0.5249 -0.8304
vn -0.0924 -0.9186 0.3842
vn -0.0490 -0.9778 0.2038
vn -0.9724 -0.0005 -0.2335
vn -0.8130 -0.2279 -0.5358
vn -0.9723 -0.0003 -0.2335
vn -0.9074 0.3949 -0.1439
vn -0.9100 -0.3931 -0.1321
vn -0.8556 -0.3733 -0.3586
vn -0.9722 0.0002 -0.2340
vn -0.1324 -0.8242 0.5505
vn -0.4878 -0.7639 0.4226
vn -0.9724 0.0001 -0.2334
vn -0.4509 -0.8513 0.2682
vn -0.8043 -0.1589 -0.5726
vn -0.9723 0.0001 -0.2338
vn -0.9723 0.0002 -0.2337
vn 0.4882 0.7639 -0.4220
vn 0.5467 0.5041 -0.6685
vn 0.5204 0.6458 -0.5587
vn 0.3680 0.9267 0.0758
vn -0.1520 0.1685 -0.9739
vn 0.3262 0.9113 0.2512
vn 0.2475 0.7777 0.5778
vn 0.1490 0.0143 0.9887
vn 0.1647 -0.3442 0.9243
vn 0.5667 0.3432 -0.7491
vn 0.3198 -0.9063 0.2764
vn 0.3623 -0.9267 0.0996
vn 0.2848 0.8612 0.4211
vn 0.1515 -0.1685 0.9740
vn 0.5821 -0.0121 -0.8130
vn 0.5777 0.1686 -0.7986
vn 0.2795 -0.8513 0.4440
vn 0.1830 -0.5045 0.8438
vn 0.4503 0.8518 -0.2677
vn 0.4100 0.9066 -0.0998
vn 0.2103 -0.6454 0.7343
vn 0.2426 -0.7634 0.5987
vn 0.5647 -0.3651 -0.7401
vn 0.5763 -0.1932 -0.7941
vn 0.4053 -0.9110 -0.0763
vn 0.4452 -0.8611 -0.2456
vn 0.4832 -0.7768 -0.4039
vn 0.5163 -0.6645 -0.5403
vn 0.5432 -0.5263 -0.6542
vn 0.1871 0.5248 0.8304
vn 0.1665 0.3654 0.9158
vn 0.1532 0.1928 0.9692
vn 0.2138 0.6641 0.7164
vn -0.0864 0.9291 0.3596
vn -0.1272 0.8392 0.5288
vn -0.2282 0.2080 0.9511
vn -0.1959 -0.5443 0.8157
vn -0.1674 -0.6969 0.6973
vn 0.1961 0.5440 -0.8159
vn 0.1672 0.6970 -0.6973
vn -0.2299 -0.1818 0.9561
vn -0.0030 -0.9999 0.0127
vn 0.1277 -0.8381 -0.5304
vn 0.1631 -0.7166 -0.6782
vn -0.2168 -0.3713 0.9029
vn -0.1633 0.7165 0.6782
vn 0.1325 0.8241 -0.5507
vn 0.0864 -0.9293 -0.3592
vn 0.2279 -0.2083 -0.9512
vn 0.0484 0.9781 -0.2023
vn 0.0030 0.9999 -0.0123
vn -0.1924 0.5663 0.8014
vn 0.0922 0.9187 -0.3840
vn -0.2144 0.3947 0.8935
vn 0.2336 -0.0132 -0.9722
vn 0.1919 -0.5674 -0.8007
vn 0.2150 -0.3943 -0.8935
vn 0.0427 -0.9833 -0.1769
vn -0.2336 0.0152 0.9722
vn -0.0426 0.9834 0.1766
vn -0.0923 -0.9185 0.3845
vn -0.0489 -0.9778 0.2036
vn -0.1323 -0.8237 0.5513
vt 0.500000 0.000000
vt 0.500000 0.000000
vt 0.750000 0.500000
vt 0.718800 0.961693
vt 0.718800 0.500000
vt 0.812500 0.000000
vt 0.781300 0.000000
vt 0.843800 0.000000
vt 0.875000 0.000000
vt 0.906300 0.000000
vt 0.906300 0.000000
vt 0.937500 0.000000
vt 0.968800 0.000000
vt 1.000000 0.000000
vt 1.031300 0.000000
vt 0.062500 0.000000
vt 0.031300 0.000000
vt 0.093800 0.000000
vt 0.125000 0.000000
vt 0.125000 0.000000
vt 0.156300 0.000000
vt 0.187500 0.000000
vt 0.187500 0.000000
vt 0.218800 0.000000
vt 0.250000 0.000000
vt 0.281300 0.000000
vt 0.312500 0.000000
vt 0.343800 0.000000
vt 0.375000 0.000000
vt 0.375000 0.000000
vt 0.406300 0.000000
vt 0.437500 0.000000
vt 0.468800 0.000000
vt 0.531300 0.000000
vt 0.562500 0.000000
vt 0.562500 0.000000
vt 0.593800 0.000000
vt 0.625000 0.000000
vt 0.656300 0.000000
vt 0.687500 0.000000
vt 0.687500 0.000000
vt 0.718800 0.000000
vt 0.750000 0.000000
vt 0.468800 0.500000
vt 0.437500 0.961693
vt 0.437500 0.500000
vt 0.187500 1.000000
vt 0.156300 1.000000
vt 0.156300 1.000000
vt 0.343800 0.500000
vt 0.312500 0.961673
vt 0.312500 0.500000
vt 0.781300 0.000000
vt 0.906300 1.000000
vt 0.937500 1.000000
vt 0.156300 0.500000
vt 0.187500 0.961673
vt 0.156300 0.961693
vt 0.250000 1.000000
vt 0.281300 1.000000
vt 0.687500 0.500000
vt 0.656300 0.961693
vt 0.656300 0.500000
vt 0.250000 0.500000
vt 0.281300 0.961693
vt 0.250000 0.961694
vt 1.000000 1.000000
vt 1.031300 1.000000
vt 1.000000 1.000000
vt 0.562500 1.000000
vt 0.531300 1.000000
vt 0.812500 1.000000
vt 0.843800 1.000000
vt 0.093800 1.000000
vt 0.125000 1.000000
vt 0.125000 1.000000
vt 0.031300 0.500000
vt 0.062500 0.961693
vt 0.031300 0.961694
vt 0.906300 0.500000
vt 0.937500 0.961673
vt 0.906300 0.961674
vt 0.218800 0.961693
vt 0.218800 0.500000
vt 0.468800 1.000000
vt 0.437500 1.000000
vt 0.781300 1.000000
vt 0.781300 1.000000
vt 0.406300 1.000000
vt 0.375000 1.000000
vt 0.343800 1.000000
vt 0.218800 1.000000
vt 0.218800 1.000000
vt 0.187500 1.000000
vt 0.406300 0.500000
vt 0.406300 0.961694
vt 0.750000 0.269153
vt 0.718800 0.269154
vt 0.687500 0.961693
vt 0.625000 0.500000
vt 0.625000 0.961693
vt 1.000000 0.500000
vt 0.968800 0.961674
vt 0.968800 0.500000
vt 0.812500 0.500000
vt 0.843800 0.961692
vt 0.812500 0.961693
vt 0.562500 0.500000
vt 0.531300 0.961674
vt 0.531300 0.500000
vt 0.375000 0.961693
vt 0.375000 0.500000
vt 0.750000 1.000000
vt 0.625000 0.500000
vt 0.593800 0.961674
vt 0.593800 0.500000
vt 0.031300 1.000000
vt 0.062500 1.000000
vt 0.031300 1.000000
vt 0.937500 0.500001
vt 0.718800 1.000000
vt 0.687500 1.000000
vt 0.656300 1.000000
vt 0.656300 1.000000
vt 0.343800 0.961693
vt 0.937500 1.000000
vt 0.968800 1.000000
vt 0.312500 1.000000
vt 0.781300 0.961693
vt 0.781300 0.500000
vt 0.500000 0.961693
vt 0.468800 0.961694
vt 0.187500 0.500000
vt 0.625000 1.000000
vt 0.593800 1.000000
vt 0.875000 0.500000
vt 0.843800 0.500000
vt 1.031300 0.500000
vt 1.000000 0.961693
vt 0.312500 1.000000
vt 0.562500 0.961673
vt 0.281300 0.500000
vt 0.500000 0.500000
vt 0.875000 0.500000
vt 0.875000 0.961692
vt 0.093800 0.500000
vt 0.062500 0.500000
vt 0.875000 1.000000
vt 0.500000 1.000000
vt 0.968800 1.000000
vt 0.125000 0.500001
vt 0.125000 0.961693
vt 0.125000 0.961692
vt 0.093800 0.961694
vt 0.843800 1.000000
vt 0.625000 0.038307
vt 0.687500 0.038307
vt 0.656300 0.038307
vt 0.531300 0.038326
vt 0.750000 0.961694
vt 0.500000 0.038307
vt 0.437500 0.038307
vt 0.281300 0.038307
vt 0.218800 0.038307
vt 0.718800 0.038307
vt 0.062500 0.038307
vt 0.031300 0.038307
vt 0.500000 0.038307
vt 0.468800 0.038306
vt 1.031300 0.961694
vt 0.281300 0.038307
vt 0.250000 0.038306
vt 0.781300 0.038308
vt 0.750000 0.038306
vt 0.781300 0.038307
vt 0.093800 0.038306
vt 0.718800 0.038307
vt 0.750000 0.038306
vt 0.093800 0.038306
vt 0.187500 0.038327
vt 0.593800 0.038326
vt 0.562500 0.038327
vt 0.156300 0.038308
vt 0.625000 0.038307
vt 0.156300 0.038307
vt 0.125000 0.038308
vt 0.812500 0.961692
vt 0.843800 0.038307
vt 0.843800 0.038308
vt 0.812500 0.038307
vt 1.000000 0.038307
vt 0.968800 0.038326
vt 0.937500 0.038327
vt 0.906300 0.038327
vt 0.875000 0.038308
vt 0.375000 0.038308
vt 0.343800 0.038307
vt 0.343800 0.038307
vt 0.312500 0.038327
vt 0.406300 0.038306
vt 0.375000 0.038307
vt 0.906300 0.038326
vt 0.468800 0.269153
vt 0.437500 0.269154
vt 0.312500 0.269164
vt 0.187500 0.269164
vt 0.156300 0.269154
vt 0.687500 0.269154
vt 0.656300 0.269154
vt 0.250000 0.269153
vt 0.031300 0.269153
vt 0.937500 0.269164
vt 0.906300 0.269163
vt 0.218800 0.269154
vt 0.406300 0.269153
vt 0.625000 0.269153
vt 0.968800 0.269163
vt 0.812500 0.269153
vt 0.562500 0.269164
vt 0.531300 0.269163
vt 0.406300 0.269153
vt 0.375000 0.269153
vt 0.593800 0.269163
vt 0.937500 0.269164
vt 0.343800 0.269153
vt 0.781300 0.269154
vt 0.500000 0.500000
vt 0.875000 0.269153
vt 0.843800 0.269154
vt 1.031300 0.269153
vt 1.000000 0.269154
vt 0.281300 0.269154
vt 0.531300 0.269163
vt 0.500000 0.269153
vt 0.875000 0.269154
vt 0.093800 0.269153
vt 0.062500 0.269154
vt 0.156300 0.269154
vt 0.125000 0.269154
vt 0.468800 0.038306
vt 0.937500 0.038328
vt 0.250000 0.038306
vt 0.562500 0.038327
vt 0.406300 0.038307
vt 0.625000 0.269154
vt 0.812500 0.038307
vt 0.500000 0.269154
vt 0.875000 0.038307
vt 1.031300 0.038306
vt 0.531300 0.038325
vt 0.531300 0.499999
vt 0.125000 0.038308
vt 0.375000 0.269154
s 1
f 320/1/1 3/1/2 4/1/3
f 319/1/4 6/1/5 3/1/2
f 306/1/6 6/1/5 305/1/7
f 353/1/8 8/1/9 306/1/6
f 354/1/10 10/1/11 353/1/8
f 359/1/12 12/1/13 354/1/10
f 358/1/14 14/1/15 359/1/12
f 358/1/14 18/1/16 16/1/17
f 351/1/18 20/1/19 18/1/16
f 307/1/20 20/1/19 350/1/21
f 312/1/22 22/1/23 307/1/20
f 312/1/22 26/1/24 24/1/25
f 315/1/26 28/1/27 26/1/24
f 309/1/28 30/1/29 28/1/27
f 381/1/30 30/1/29 371/1/31
f 382/2/32 32/1/33 233/1/34
f 311/1/35 34/1/36 32/1/33
f 346/1/37 34/1/36 310/1/38
f 352/1/39 36/1/40 346/1/37
f 348/1/41 38/1/42 352/1/39
f 361/1/43 40/1/44 348/1/41
f 347/1/45 42/1/46 361/1/43
f 347/1/45 46/1/47 44/1/48
f 349/1/49 48/1/50 46/1/47
f 341/1/51 50/1/52 48/1/50
f 342/1/53 52/1/54 50/1/52
f 318/1/55 52/1/54 314/1/56
f 322/1/57 54/1/58 318/1/55
f 317/1/59 56/1/60 322/1/57
f 324/1/61 62/1/62 60/1/63
f 327/1/64 62/1/62 331/1/65
f 327/1/64 66/1/66 64/1/67
f 326/1/68 68/1/69 66/1/66
f 329/1/70 68/1/69 325/1/71
f 328/1/72 70/1/73 329/1/70
f 360/1/74 72/1/75 328/1/72
f 360/1/74 76/1/76 74/1/77
f 330/1/78 78/1/79 76/1/76
f 336/1/80 80/1/81 78/1/79
f 332/1/82 82/1/83 80/1/81
f 345/1/84 84/1/85 82/1/83
f 334/1/86 84/1/85 333/1/87
f 376/1/88 175/1/89 378/1/90
f 375/1/91 173/1/92 86/1/93
f 335/1/94 88/1/95 323/1/96
f 340/1/97 90/1/98 335/1/94
f 339/1/99 92/1/100 340/1/97
f 338/1/101 94/1/102 339/1/99
f 337/1/103 96/1/104 338/1/101
f 337/1/103 100/1/105 98/1/106
f 357/1/107 102/1/108 100/1/105
f 362/1/109 104/1/110 102/1/108
f 356/1/111 106/1/112 104/1/110
f 355/1/113 108/1/114 106/1/112
f 343/1/115 110/1/116 108/1/114
f 344/1/117 112/1/118 110/1/116
f 316/1/119 114/1/120 112/1/118
f 313/1/121 116/1/122 114/1/120
f 367/1/123 4/1/3 230/1/124
f 231/1/125 1/1/126 182/1/127
f 184/1/128 2/1/129 231/1/125
f 183/1/130 5/1/131 184/1/128
f 205/1/132 7/1/133 183/1/130
f 201/1/134 9/1/135 205/1/132
f 201/1/134 13/1/136 11/1/137
f 194/1/138 15/1/139 13/1/136
f 186/1/140 15/1/139 202/1/141
f 186/1/140 19/1/142 17/1/143
f 198/1/144 21/1/145 19/1/142
f 196/1/146 23/1/147 21/1/145
f 209/1/148 25/1/149 23/1/147
f 238/1/150 25/1/149 210/1/151
f 234/1/152 27/1/153 238/1/150
f 383/1/154 31/1/155 370/1/156
f 369/1/157 244/1/158 29/1/159
f 232/1/160 33/1/161 31/1/155
f 236/1/162 35/1/163 33/1/161
f 217/1/164 37/1/165 35/1/163
f 216/1/166 39/1/167 37/1/165
f 213/1/168 41/1/169 39/1/167
f 193/1/170 41/1/169 192/1/171
f 191/1/172 43/1/173 193/1/170
f 222/1/174 45/1/175 191/1/172
f 211/1/176 47/1/177 222/1/174
f 204/1/178 49/1/179 211/1/176
f 225/1/180 51/1/181 204/1/178
f 218/1/182 53/1/183 225/1/180
f 227/1/184 55/1/185 218/1/182
f 185/1/186 4/1/3 3/1/2
f 237/1/187 3/1/2 6/1/5
f 181/1/188 6/1/5 8/1/9
f 206/1/189 8/1/9 10/1/11
f 200/1/190 10/1/11 12/1/13
f 200/1/190 14/1/15 199/1/191
f 199/1/191 16/1/17 189/1/192
f 16/1/17 187/1/193 189/1/192
f 187/1/193 20/1/19 197/1/194
f 197/1/194 22/1/23 195/1/195
f 195/1/195 24/1/25 208/1/196
f 208/1/196 26/1/24 214/1/197
f 26/1/24 215/1/198 214/1/197
f 235/1/199 28/1/27 30/1/29
f 374/1/200 259/1/201 388/1/202
f 308/1/203 371/1/31 30/1/29
f 233/1/34 34/1/36 219/1/204
f 219/1/204 36/1/40 212/1/205
f 212/1/205 38/1/42 207/1/206
f 207/1/206 40/1/44 224/1/207
f 224/1/207 42/1/46 223/1/208
f 42/1/46 190/1/209 223/1/208
f 188/1/210 44/1/48 46/1/47
f 221/1/211 46/1/47 48/1/50
f 226/1/212 48/1/50 50/1/52
f 203/1/213 50/1/52 52/1/54
f 228/1/214 52/1/54 54/1/58
f 220/1/215 54/1/58 56/1/60
f 229/1/216 56/1/60 58/1/217
f 58/1/217 240/1/218 229/1/216
f 302/1/219 119/1/220 300/1/221
f 59/1/222 179/1/223 167/1/224
f 324/1/61 120/1/225 364/1/226
f 253/1/227 117/1/228 299/1/229
f 365/1/230 116/1/122 321/1/231
f 113/1/232 122/1/233 115/1/234
f 111/1/235 171/1/236 113/1/232
f 109/1/237 124/1/238 111/1/235
f 107/1/239 123/1/240 109/1/237
f 105/1/241 145/1/242 107/1/239
f 103/1/243 141/1/244 105/1/241
f 101/1/245 134/1/246 103/1/243
f 99/1/247 142/1/248 101/1/245
f 99/1/247 138/1/249 126/1/250
f 97/1/251 136/1/252 138/1/249
f 95/1/253 149/1/254 136/1/252
f 93/1/255 150/1/256 149/1/254
f 91/1/257 178/1/258 150/1/256
f 87/1/259 178/1/258 89/1/260
f 85/1/261 387/2/262 270/1/263
f 374/1/200 174/1/264 87/1/259
f 85/1/261 176/1/265 172/1/266
f 83/1/267 157/1/268 176/1/265
f 81/1/269 156/1/270 157/1/268
f 79/1/271 153/1/272 156/1/270
f 77/1/273 132/1/274 153/1/272
f 73/1/275 132/1/274 75/1/276
f 71/1/277 133/1/278 73/1/275
f 69/1/279 131/1/280 71/1/277
f 67/1/281 162/1/282 69/1/279
f 65/1/283 151/1/284 67/1/281
f 63/1/285 144/1/286 65/1/283
f 61/1/287 165/1/288 63/1/285
f 59/1/222 158/1/289 61/1/287
f 114/1/120 170/1/290 125/1/291
f 112/1/118 125/1/291 177/1/292
f 110/1/116 177/1/292 121/1/293
f 108/1/114 121/1/293 146/1/294
f 106/1/112 146/1/294 140/1/295
f 140/1/295 104/1/110 106/1/112
f 139/1/296 102/1/108 104/1/110
f 129/1/297 100/1/105 102/1/108
f 100/1/105 137/1/298 98/1/106
f 98/1/106 135/1/299 96/1/104
f 96/1/104 148/1/300 94/1/102
f 94/1/102 154/1/301 92/1/100
f 92/1/100 155/1/302 90/1/98
f 88/1/95 155/1/302 175/1/89
f 323/1/96 376/1/88 391/1/202
f 378/1/90 235/1/199 381/1/30
f 86/1/93 159/1/303 84/1/85
f 84/1/85 152/1/304 82/1/83
f 82/1/83 147/1/305 80/1/81
f 80/1/81 164/1/306 78/1/79
f 78/1/79 163/1/307 76/1/76
f 163/1/307 74/1/77 76/1/76
f 72/1/75 130/1/308 128/1/309
f 70/1/73 128/1/309 161/1/310
f 68/1/69 161/1/310 166/1/311
f 66/1/66 166/1/311 143/1/312
f 64/1/67 143/1/312 168/1/313
f 62/1/62 168/1/313 160/1/314
f 60/1/63 160/1/314 169/1/315
f 60/1/63 180/1/316 120/1/225
f 304/1/317 179/1/223 302/1/219
f 167/1/224 239/1/318 227/1/184
f 367/1/123 170/1/290 365/1/230
f 171/1/236 182/1/127 122/1/233
f 124/1/238 231/1/125 171/1/236
f 123/1/240 184/1/128 124/1/238
f 145/1/242 183/1/130 123/1/240
f 141/1/244 205/1/132 145/1/242
f 141/1/244 194/1/138 201/1/134
f 142/1/248 194/1/138 134/1/246
f 126/1/250 202/1/141 142/1/248
f 126/1/250 198/1/144 186/1/140
f 138/1/249 196/1/146 198/1/144
f 136/1/252 209/1/148 196/1/146
f 149/1/254 210/1/151 209/1/148
f 178/1/258 210/1/151 150/1/256
f 174/1/264 238/1/150 178/1/258
f 386/1/319 311/1/35 389/2/320
f 379/1/321 234/1/152 174/1/264
f 172/1/266 236/1/162 232/1/160
f 176/1/265 217/1/164 236/1/162
f 157/1/268 216/1/166 217/1/164
f 156/1/270 213/1/168 216/1/166
f 153/1/272 192/1/171 213/1/168
f 133/1/278 192/1/171 132/1/274
f 131/1/280 193/1/170 133/1/278
f 162/1/282 191/1/172 131/1/280
f 151/1/284 222/1/174 162/1/282
f 144/1/286 211/1/176 151/1/284
f 165/1/288 204/1/178 144/1/286
f 158/1/289 225/1/180 165/1/288
f 167/1/224 218/1/182 158/1/289
f 125/1/291 230/1/124 185/1/186
f 177/1/292 185/1/186 237/1/187
f 121/1/293 237/1/187 181/1/188
f 146/1/294 181/1/188 206/1/189
f 140/1/295 206/1/189 200/1/190
f 140/1/295 199/1/191 139/1/296
f 199/1/191 129/1/297 139/1/296
f 189/1/192 127/1/322 129/1/297
f 127/1/322 197/1/194 137/1/298
f 137/1/298 195/1/195 135/1/299
f 135/1/299 208/1/196 148/1/300
f 148/1/300 214/1/197 154/1/301
f 214/1/197 155/1/302 154/1/301
f 175/1/89 215/1/198 235/1/199
f 377/1/323 233/1/34 173/1/92
f 380/1/324 232/1/160 383/1/154
f 173/1/92 219/1/204 159/1/303
f 159/1/303 212/1/205 152/1/304
f 152/1/304 207/1/206 147/1/305
f 147/1/305 224/1/207 164/1/306
f 164/1/306 223/1/208 163/1/307
f 223/1/208 130/1/308 163/1/307
f 128/1/309 190/1/209 188/1/210
f 161/1/310 188/1/210 221/1/211
f 166/1/311 221/1/211 226/1/212
f 143/1/312 226/1/212 203/1/213
f 168/1/313 203/1/213 228/1/214
f 160/1/314 228/1/214 220/1/215
f 169/1/315 220/1/215 229/1/216
f 169/1/315 240/1/218 180/1/316
f 117/1/228 304/1/317 299/1/229
f 57/1/325 239/1/318 117/1/228
f 1/1/126 255/1/326 256/1/327
f 2/1/129 241/1/328 255/1/326
f 5/1/131 242/1/329 241/1/328
f 7/1/133 289/1/330 242/1/329
f 9/1/135 290/1/331 289/1/330
f 11/1/137 295/1/332 290/1/331
f 13/1/136 294/1/333 295/1/332
f 17/1/143 294/1/333 15/1/139
f 19/1/142 287/1/334 17/1/143
f 21/1/145 286/1/335 19/1/142
f 21/1/145 248/1/336 243/1/337
f 25/1/149 248/1/336 23/1/147
f 27/1/153 251/1/338 25/1/149
f 29/1/159 245/1/339 27/1/153
f 311/1/35 372/1/340 389/2/320
f 384/1/341 29/1/159 234/1/152
f 31/1/155 246/1/342 247/1/343
f 33/1/161 282/1/344 246/1/342
f 35/1/163 288/1/345 282/1/344
f 37/1/165 284/1/346 288/1/345
f 39/1/167 297/1/43 284/1/346
f 41/1/169 283/1/347 297/1/43
f 45/1/175 283/1/347 43/1/173
f 47/1/177 285/1/348 45/1/175
f 49/1/179 277/1/349 47/1/177
f 51/1/181 278/1/350 49/1/179
f 51/1/181 254/1/351 250/1/352
f 53/1/183 258/1/353 254/1/351
f 55/1/185 253/1/227 258/1/353
f 61/1/287 260/1/354 59/1/222
f 63/1/285 267/1/355 61/1/287
f 63/1/285 262/1/356 263/1/357
f 67/1/281 262/1/356 65/1/283
f 67/1/281 265/1/358 261/1/359
f 69/1/279 264/1/360 265/1/358
f 71/1/277 296/1/361 264/1/360
f 75/1/276 296/1/361 73/1/275
f 77/1/273 266/1/362 75/1/276
f 79/1/271 272/1/363 77/1/273
f 81/1/269 268/1/364 79/1/271
f 81/1/269 269/1/365 281/1/366
f 85/1/261 269/1/365 83/1/267
f 392/1/367 86/1/93 334/1/86
f 373/2/368 172/1/266 380/1/324
f 87/1/259 271/1/369 259/1/201
f 89/1/260 276/1/370 271/1/369
f 91/1/257 275/1/371 276/1/370
f 93/1/255 274/1/372 275/1/371
f 95/1/253 273/1/373 274/1/372
f 97/1/251 293/1/374 273/1/373
f 101/1/245 293/1/374 99/1/247
f 103/1/243 298/1/375 101/1/245
f 105/1/241 292/1/376 103/1/243
f 107/1/239 291/1/377 105/1/241
f 109/1/237 279/1/378 107/1/239
f 111/1/235 280/1/379 109/1/237
f 113/1/232 252/1/380 111/1/235
f 115/1/234 249/1/381 113/1/232
f 1/1/126 303/1/382 182/1/127
f 302/1/219 364/1/226 366/1/383
f 260/1/354 119/1/220 59/1/222
f 253/1/227 363/1/384 317/1/59
f 115/1/234 301/1/385 257/1/386
f 368/1/387 302/1/219 366/1/383
f 182/1/127 301/1/385 122/1/233
f 363/1/384 304/1/317 368/1/387
f 255/1/326 320/1/1 256/1/327
f 241/1/328 319/1/4 255/1/326
f 242/1/329 305/1/7 241/1/328
f 242/1/329 353/1/8 306/1/6
f 290/1/331 353/1/8 289/1/330
f 290/1/331 359/1/12 354/1/10
f 294/1/333 359/1/12 295/1/332
f 294/1/333 351/1/18 358/1/14
f 287/1/334 350/1/21 351/1/18
f 243/1/337 350/1/21 286/1/335
f 248/1/336 307/1/20 243/1/337
f 251/1/338 312/1/22 248/1/336
f 251/1/338 309/1/28 315/1/26
f 245/1/339 308/1/203 309/1/28
f 388/1/202 323/1/96 391/1/202
f 244/1/158 390/1/388 308/1/203
f 246/1/342 311/1/35 247/1/343
f 246/1/342 346/1/37 310/1/38
f 288/1/345 346/1/37 282/1/344
f 284/1/346 352/1/39 288/1/345
f 284/1/346 361/1/43 348/1/41
f 283/1/347 361/1/43 297/1/43
f 285/1/348 347/1/45 283/1/347
f 277/1/349 349/1/49 285/1/348
f 277/1/349 342/1/53 341/1/51
f 250/1/352 342/1/53 278/1/350
f 250/1/352 318/1/55 314/1/56
f 258/1/353 318/1/55 254/1/351
f 253/1/227 322/1/57 258/1/353
f 267/1/355 324/1/61 260/1/354
f 263/1/357 331/1/65 267/1/355
f 263/1/357 326/1/68 327/1/64
f 262/1/356 325/1/71 326/1/68
f 265/1/358 325/1/71 261/1/359
f 265/1/358 328/1/72 329/1/70
f 296/1/361 328/1/72 264/1/360
f 296/1/361 330/1/78 360/1/74
f 272/1/363 330/1/78 266/1/362
f 272/1/363 332/1/82 336/1/80
f 281/1/366 332/1/82 268/1/364
f 281/1/366 333/1/87 345/1/84
f 270/1/263 333/1/87 269/1/365
f 270/1/263 392/1/367 334/1/86
f 259/1/201 335/1/94 323/1/96
f 276/1/370 335/1/94 271/1/369
f 276/1/370 339/1/99 340/1/97
f 274/1/372 339/1/99 275/1/371
f 273/1/373 338/1/101 274/1/372
f 293/1/374 337/1/103 273/1/373
f 293/1/374 362/1/109 357/1/107
f 298/1/375 356/1/111 362/1/109
f 291/1/377 356/1/111 292/1/376
f 291/1/377 343/1/115 355/1/113
f 279/1/378 344/1/117 343/1/115
f 252/1/380 344/1/117 280/1/379
f 252/1/380 313/1/121 316/1/119
f 257/1/386 313/1/121 249/1/381
f 303/1/382 320/1/1 367/1/123
f 260/1/354 364/1/226 300/1/221
f 301/1/385 321/1/231 257/1/386
f 301/1/385 367/1/123 365/1/230
f 366/1/383 120/1/225 180/1/316
f 317/1/59 118/1/389 58/1/217
f 240/1/218 366/1/383 180/1/316
f 118/1/389 368/1/387 240/1/218
f 389/2/320 371/1/31 390/1/388
f 391/1/202 375/1/91 392/1/367
f 377/1/323 376/1/88 378/1/90
f 374/1/200 380/1/324 379/1/321
f 381/1/30 372/1/340 382/2/32
f 370/1/156 384/1/341 383/1/154
f 382/2/32 378/1/90 381/1/30
f 379/1/321 383/1/154 384/1/341
f 385/1/390 370/1/156 386/1/319
f 387/2/262 374/1/200 388/1/202
f 385/1/390 389/2/320 390/1/388
f 392/1/367 388/1/202 391/1/202
f 31/1/155 386/1/319 370/1/156
f 456/3/391 647/4/392 454/5/393
f 530/6/394 458/7/395 461/6/396
f 530/6/394 463/8/397 533/8/398
f 533/8/398 465/9/399 538/9/400
f 542/10/401 465/9/399 467/11/402
f 542/10/401 469/12/403 545/12/404
f 550/13/405 469/12/403 471/13/406
f 553/14/407 471/13/406 473/14/408
f 553/14/407 475/15/409 557/15/410
f 562/16/411 475/17/409 477/16/412
f 565/18/413 477/16/412 479/18/414
f 565/18/413 481/19/415 570/20/416
f 573/21/417 481/19/415 483/21/418
f 577/22/419 483/21/418 485/23/396
f 577/22/419 487/24/403 581/24/420
f 581/24/420 489/25/421 586/25/422
f 589/26/423 489/25/421 491/26/424
f 594/27/425 491/26/424 493/27/424
f 594/27/425 495/28/426 597/28/427
f 602/29/428 495/28/426 497/30/429
f 602/29/428 499/31/430 605/31/431
f 609/32/432 499/31/430 501/32/433
f 609/32/432 503/33/434 614/33/435
f 617/1/436 503/33/434 505/1/437
f 617/1/436 507/34/438 621/34/439
f 621/34/439 509/35/440 626/36/441
f 630/37/442 509/35/440 511/37/443
f 630/37/442 513/38/444 633/38/445
f 633/38/445 515/39/446 638/39/447
f 642/40/448 515/39/446 517/41/449
f 642/40/448 519/42/450 646/42/451
f 521/43/452 519/42/450 457/43/453
f 432/44/454 612/45/455 433/46/456
f 579/47/457 484/48/458 576/49/459
f 436/50/460 596/51/461 437/52/462
f 521/43/452 458/7/395 524/53/463
f 544/54/464 470/55/465 468/54/466
f 442/56/467 580/57/468 575/58/469
f 588/59/470 492/60/471 490/59/472
f 425/61/473 639/62/474 426/63/475
f 439/64/476 591/65/477 587/66/478
f 556/67/479 476/68/480 474/69/481
f 627/70/482 508/71/483 623/71/484
f 531/72/485 464/73/486 462/72/487
f 567/74/488 482/75/489 480/74/490
f 576/49/459 482/75/489 571/76/491
f 446/77/492 564/78/493 560/79/494
f 450/80/495 548/81/496 543/82/497
f 439/64/476 583/83/498 440/84/499
f 615/85/500 502/86/501 611/86/502
f 531/72/485 459/87/503 525/88/504
f 608/89/505 498/90/506 603/90/507
f 603/90/507 496/91/508 599/91/509
f 588/59/470 488/92/510 584/93/511
f 579/47/457 488/92/510 486/94/512
f 434/95/513 612/45/455 607/96/514
f 394/97/515 454/5/393 393/98/516
f 425/61/473 647/4/392 644/99/517
f 427/100/518 639/62/474 635/101/519
f 447/102/520 551/103/521 448/104/522
f 453/105/523 536/106/524 532/107/525
f 429/108/526 624/109/527 430/110/528
f 434/95/513 604/111/529 435/112/530
f 525/88/504 460/113/531 527/113/532
f 427/114/518 632/115/533 428/116/534
f 559/117/535 478/118/536 476/119/480
f 449/120/537 551/103/521 548/81/496
f 648/121/538 460/113/531 520/121/539
f 643/122/540 516/123/541 640/124/542
f 436/50/460 604/111/529 600/125/543
f 547/126/544 472/127/483 470/55/465
f 595/128/545 492/60/471 592/60/546
f 453/105/523 526/129/547 455/130/548
f 432/44/454 619/131/549 616/132/550
f 440/84/499 580/57/468 441/133/551
f 636/134/552 512/135/553 631/135/554
f 451/136/555 536/106/524 452/137/556
f 446/138/492 555/139/557 447/102/520
f 595/128/545 496/91/508 494/140/558
f 429/108/526 632/115/533 628/141/559
f 438/142/560 596/51/461 591/65/477
f 431/143/561 624/109/527 619/131/549
f 451/144/555 543/82/497 540/145/562
f 444/146/563 564/78/493 445/147/564
f 544/54/464 466/148/565 539/148/566
f 608/89/505 502/86/501 500/89/567
f 620/149/568 508/71/483 506/149/481
f 567/74/488 478/118/536 563/118/569
f 556/67/479 472/127/483 552/150/570
f 620/149/568 504/85/571 615/85/500
f 443/151/572 575/58/469 572/152/573
f 636/134/552 516/123/541 514/134/574
f 444/146/563 572/153/573 568/154/575
f 535/155/576 466/148/565 464/73/486
f 643/122/540 520/121/539 518/122/577
f 627/70/482 512/135/553 510/70/578
f 644/99/517 640/124/542 639/62/474
f 638/39/447 634/156/579 633/38/445
f 635/101/519 640/124/542 636/134/552
f 638/39/447 641/157/580 637/158/581
f 619/131/549 623/71/484 620/149/568
f 628/141/559 623/71/484 624/109/527
f 626/36/441 622/159/582 621/34/439
f 607/96/514 611/86/502 608/89/505
f 591/65/477 595/128/545 592/60/546
f 527/113/532 647/4/392 528/160/583
f 616/132/550 611/86/502 612/45/455
f 587/66/478 592/60/546 588/59/470
f 621/34/439 618/161/584 617/1/436
f 614/33/435 610/162/585 609/32/432
f 587/66/478 584/93/511 583/83/498
f 594/27/425 590/163/586 589/26/423
f 586/25/422 582/164/587 581/24/420
f 642/40/448 645/165/588 641/157/580
f 557/17/410 561/166/589 558/167/590
f 644/99/517 648/121/538 643/122/540
f 616/132/550 620/149/568 615/85/500
f 614/33/435 618/168/584 613/169/591
f 560/170/494 556/67/479 555/139/557
f 586/25/422 590/171/586 585/172/592
f 527/113/532 526/129/547 525/88/504
f 521/43/452 523/173/593 522/174/594
f 530/6/394 523/175/593 524/53/463
f 560/79/494 563/118/569 559/117/535
f 568/154/575 563/118/569 564/78/493
f 570/20/416 566/176/595 565/18/413
f 645/177/588 521/43/452 522/178/594
f 575/58/469 579/47/457 576/49/459
f 562/16/411 566/179/595 561/166/589
f 583/83/498 579/47/457 580/57/468
f 577/22/419 582/164/587 578/180/596
f 626/36/441 629/181/597 625/182/598
f 577/22/419 574/183/599 573/21/417
f 628/141/559 631/135/554 627/70/482
f 635/101/519 631/135/554 632/115/533
f 630/37/442 634/184/579 629/181/597
f 568/154/575 571/76/491 567/74/488
f 570/20/416 574/185/599 569/186/600
f 575/58/469 571/76/491 572/152/573
f 532/187/525 525/88/504 526/129/547
f 532/107/525 535/155/576 531/72/485
f 536/106/524 539/148/566 535/155/576
f 538/9/400 534/188/601 533/8/398
f 530/6/394 534/189/601 529/190/602
f 543/82/497 547/126/544 544/54/464
f 540/145/562 544/54/464 539/148/566
f 557/15/410 554/191/603 553/14/407
f 545/12/404 549/192/604 546/193/605
f 555/139/557 552/150/570 551/103/521
f 538/9/400 541/194/606 537/195/607
f 548/81/496 552/150/570 547/126/544
f 550/13/405 554/191/603 549/192/604
f 596/51/461 599/91/509 595/128/545
f 604/111/529 599/91/509 600/125/543
f 597/28/427 601/196/608 598/197/609
f 594/27/425 598/198/609 593/199/610
f 605/31/431 610/162/585 606/200/611
f 605/31/431 601/201/608 602/29/428
f 607/96/514 603/90/507 604/111/529
f 545/12/404 541/202/606 542/10/401
f 456/3/391 526/129/547 528/160/583
f 411/203/612 433/46/456 400/204/613
f 410/205/614 436/50/460 437/52/462
f 396/206/615 442/56/467 419/207/616
f 415/208/617 426/63/475 406/209/618
f 422/210/619 438/142/560 439/64/476
f 401/211/620 445/147/564 446/77/492
f 424/212/621 450/80/495 414/213/622
f 422/210/619 440/84/499 421/214/623
f 409/215/624 433/46/456 434/95/513
f 415/208/617 454/5/393 425/61/473
f 417/216/625 426/63/475 427/100/518
f 404/217/626 447/102/520 448/104/522
f 397/218/627 452/137/556 453/105/523
f 420/219/628 430/110/528 412/220/629
f 409/221/624 435/112/530 408/222/630
f 398/223/631 427/114/518 428/116/534
f 424/224/621 448/104/522 449/120/537
f 395/225/632 435/112/530 436/50/460
f 397/218/627 455/130/548 403/226/633
f 411/203/612 431/227/561 432/44/454
f 396/206/615 440/84/499 441/133/551
f 402/228/634 452/137/556 413/229/635
f 401/230/620 447/102/520 423/231/636
f 420/219/628 428/116/534 429/108/526
f 410/205/614 438/142/560 399/232/637
f 412/233/629 431/143/561 407/234/638
f 414/213/622 451/144/555 402/235/634
f 418/236/639 445/147/564 416/237/640
f 419/238/616 443/151/572 405/239/641
f 418/236/639 443/151/572 444/146/563
f 394/97/515 455/130/548 456/3/391
f 522/178/594 393/98/516 645/177/588
f 613/240/591 400/204/613 610/162/585
f 593/199/610 395/225/632 410/205/614
f 578/180/596 419/207/616 574/183/599
f 641/157/580 406/209/618 637/158/581
f 585/172/592 399/232/637 422/210/619
f 561/166/589 401/211/620 558/167/590
f 546/241/605 414/213/622 541/202/606
f 585/242/592 421/214/623 582/164/587
f 606/200/611 400/204/613 409/215/624
f 641/157/580 393/98/516 415/208/617
f 634/156/579 406/209/618 417/216/625
f 549/192/604 423/231/636 404/217/626
f 529/190/602 413/229/635 397/218/627
f 625/243/598 412/220/629 622/159/582
f 606/244/611 408/222/630 601/201/608
f 629/181/597 417/245/625 398/223/631
f 546/193/605 404/217/626 424/224/621
f 601/196/608 395/225/632 598/197/609
f 529/246/602 403/226/633 523/175/593
f 613/169/591 407/247/638 411/203/612
f 578/180/596 421/214/623 396/206/615
f 537/248/607 413/229/635 534/188/601
f 558/249/590 423/231/636 554/191/603
f 625/182/598 398/223/631 420/219/628
f 593/199/610 399/232/637 590/163/586
f 622/250/582 407/234/638 618/161/584
f 541/194/606 402/235/634 537/195/607
f 566/179/595 416/237/640 561/166/589
f 574/185/599 405/239/641 569/186/600
f 566/176/595 405/239/641 418/236/639
f 522/174/594 403/226/633 394/97/515
f 320/1/1 319/1/4 3/1/2
f 319/1/4 305/1/7 6/1/5
f 306/1/6 8/1/9 6/1/5
f 353/1/8 10/1/11 8/1/9
f 354/1/10 12/1/13 10/1/11
f 359/1/12 14/1/15 12/1/13
f 358/1/14 16/1/17 14/1/15
f 358/1/14 351/1/18 18/1/16
f 351/1/18 350/1/21 20/1/19
f 307/1/20 22/1/23 20/1/19
f 312/1/22 24/1/25 22/1/23
f 312/1/22 315/1/26 26/1/24
f 315/1/26 309/1/28 28/1/27
f 309/1/28 308/1/203 30/1/29
f 381/1/30 235/1/199 30/1/29
f 382/2/32 372/1/340 32/1/33
f 311/1/35 310/1/38 34/1/36
f 346/1/37 36/1/40 34/1/36
f 352/1/39 38/1/42 36/1/40
f 348/1/41 40/1/44 38/1/42
f 361/1/43 42/1/46 40/1/44
f 347/1/45 44/1/48 42/1/46
f 347/1/45 349/1/49 46/1/47
f 349/1/49 341/1/51 48/1/50
f 341/1/51 342/1/53 50/1/52
f 342/1/53 314/1/56 52/1/54
f 318/1/55 54/1/58 52/1/54
f 322/1/57 56/1/60 54/1/58
f 317/1/59 58/1/217 56/1/60
f 324/1/61 331/1/65 62/1/62
f 327/1/64 64/1/67 62/1/62
f 327/1/64 326/1/68 66/1/66
f 326/1/68 325/1/71 68/1/69
f 329/1/70 70/1/73 68/1/69
f 328/1/72 72/1/75 70/1/73
f 360/1/74 74/1/77 72/1/75
f 360/1/74 330/1/78 76/1/76
f 330/1/78 336/1/80 78/1/79
f 336/1/80 332/1/82 80/1/81
f 332/1/82 345/1/84 82/1/83
f 345/1/84 333/1/87 84/1/85
f 334/1/86 86/1/93 84/1/85
f 376/1/88 88/1/95 175/1/89
f 375/1/91 377/1/323 173/1/92
f 335/1/94 90/1/98 88/1/95
f 340/1/97 92/1/100 90/1/98
f 339/1/99 94/1/102 92/1/100
f 338/1/101 96/1/104 94/1/102
f 337/1/103 98/1/106 96/1/104
f 337/1/103 357/1/107 100/1/105
f 357/1/107 362/1/109 102/1/108
f 362/1/109 356/1/111 104/1/110
f 356/1/111 355/1/113 106/1/112
f 355/1/113 343/1/115 108/1/114
f 343/1/115 344/1/117 110/1/116
f 344/1/117 316/1/119 112/1/118
f 316/1/119 313/1/121 114/1/120
f 313/1/121 321/1/231 116/1/122
f 367/1/123 320/1/1 4/1/3
f 231/1/125 2/1/129 1/1/126
f 184/1/128 5/1/131 2/1/129
f 183/1/130 7/1/133 5/1/131
f 205/1/132 9/1/135 7/1/133
f 201/1/134 11/1/137 9/1/135
f 201/1/134 194/1/138 13/1/136
f 194/1/138 202/1/141 15/1/139
f 186/1/140 17/1/143 15/1/139
f 186/1/140 198/1/144 19/1/142
f 198/1/144 196/1/146 21/1/145
f 196/1/146 209/1/148 23/1/147
f 209/1/148 210/1/151 25/1/149
f 238/1/150 27/1/153 25/1/149
f 234/1/152 29/1/159 27/1/153
f 383/1/154 232/1/160 31/1/155
f 369/1/157 385/1/390 244/1/158
f 232/1/160 236/1/162 33/1/161
f 236/1/162 217/1/164 35/1/163
f 217/1/164 216/1/166 37/1/165
f 216/1/166 213/1/168 39/1/167
f 213/1/168 192/1/171 41/1/169
f 193/1/170 43/1/173 41/1/169
f 191/1/172 45/1/175 43/1/173
f 222/1/174 47/1/177 45/1/175
f 211/1/176 49/1/179 47/1/177
f 204/1/178 51/1/181 49/1/179
f 225/1/180 53/1/183 51/1/181
f 218/1/182 55/1/185 53/1/183
f 227/1/184 57/1/325 55/1/185
f 185/1/186 230/1/124 4/1/3
f 237/1/187 185/1/186 3/1/2
f 181/1/188 237/1/187 6/1/5
f 206/1/189 181/1/188 8/1/9
f 200/1/190 206/1/189 10/1/11
f 200/1/190 12/1/13 14/1/15
f 199/1/191 14/1/15 16/1/17
f 16/1/17 18/1/16 187/1/193
f 187/1/193 18/1/16 20/1/19
f 197/1/194 20/1/19 22/1/23
f 195/1/195 22/1/23 24/1/25
f 208/1/196 24/1/25 26/1/24
f 26/1/24 28/1/27 215/1/198
f 235/1/199 215/1/198 28/1/27
f 374/1/200 87/1/259 259/1/201
f 308/1/203 390/1/388 371/1/31
f 233/1/34 32/1/33 34/1/36
f 219/1/204 34/1/36 36/1/40
f 212/1/205 36/1/40 38/1/42
f 207/1/206 38/1/42 40/1/44
f 224/1/207 40/1/44 42/1/46
f 42/1/46 44/1/48 190/1/209
f 188/1/210 190/1/209 44/1/48
f 221/1/211 188/1/210 46/1/47
f 226/1/212 221/1/211 48/1/50
f 203/1/213 226/1/212 50/1/52
f 228/1/214 203/1/213 52/1/54
f 220/1/215 228/1/214 54/1/58
f 229/1/216 220/1/215 56/1/60
f 58/1/217 118/1/389 240/1/218
f 302/1/219 179/1/223 119/1/220
f 59/1/222 119/1/220 179/1/223
f 324/1/61 60/1/63 120/1/225
f 253/1/227 57/1/325 117/1/228
f 365/1/230 170/1/290 116/1/122
f 113/1/232 171/1/236 122/1/233
f 111/1/235 124/1/238 171/1/236
f 109/1/237 123/1/240 124/1/238
f 107/1/239 145/1/242 123/1/240
f 105/1/241 141/1/244 145/1/242
f 103/1/243 134/1/246 141/1/244
f 101/1/245 142/1/248 134/1/246
f 99/1/247 126/1/250 142/1/248
f 99/1/247 97/1/251 138/1/249
f 97/1/251 95/1/253 136/1/252
f 95/1/253 93/1/255 149/1/254
f 93/1/255 91/1/257 150/1/256
f 91/1/257 89/1/260 178/1/258
f 87/1/259 174/1/264 178/1/258
f 85/1/261 373/2/368 387/2/262
f 374/1/200 379/1/321 174/1/264
f 85/1/261 83/1/267 176/1/265
f 83/1/267 81/1/269 157/1/268
f 81/1/269 79/1/271 156/1/270
f 79/1/271 77/1/273 153/1/272
f 77/1/273 75/1/276 132/1/274
f 73/1/275 133/1/278 132/1/274
f 71/1/277 131/1/280 133/1/278
f 69/1/279 162/1/282 131/1/280
f 67/1/281 151/1/284 162/1/282
f 65/1/283 144/1/286 151/1/284
f 63/1/285 165/1/288 144/1/286
f 61/1/287 158/1/289 165/1/288
f 59/1/222 167/1/224 158/1/289
f 114/1/120 116/1/122 170/1/290
f 112/1/118 114/1/120 125/1/291
f 110/1/116 112/1/118 177/1/292
f 108/1/114 110/1/116 121/1/293
f 106/1/112 108/1/114 146/1/294
f 140/1/295 139/1/296 104/1/110
f 139/1/296 129/1/297 102/1/108
f 129/1/297 127/1/322 100/1/105
f 100/1/105 127/1/322 137/1/298
f 98/1/106 137/1/298 135/1/299
f 96/1/104 135/1/299 148/1/300
f 94/1/102 148/1/300 154/1/301
f 92/1/100 154/1/301 155/1/302
f 88/1/95 90/1/98 155/1/302
f 323/1/96 88/1/95 376/1/88
f 378/1/90 175/1/89 235/1/199
f 86/1/93 173/1/92 159/1/303
f 84/1/85 159/1/303 152/1/304
f 82/1/83 152/1/304 147/1/305
f 80/1/81 147/1/305 164/1/306
f 78/1/79 164/1/306 163/1/307
f 163/1/307 130/1/308 74/1/77
f 72/1/75 74/1/77 130/1/308
f 70/1/73 72/1/75 128/1/309
f 68/1/69 70/1/73 161/1/310
f 66/1/66 68/1/69 166/1/311
f 64/1/67 66/1/66 143/1/312
f 62/1/62 64/1/67 168/1/313
f 60/1/63 62/1/62 160/1/314
f 60/1/63 169/1/315 180/1/316
f 304/1/317 239/1/318 179/1/223
f 167/1/224 179/1/223 239/1/318
f 367/1/123 230/1/124 170/1/290
f 171/1/236 231/1/125 182/1/127
f 124/1/238 184/1/128 231/1/125
f 123/1/240 183/1/130 184/1/128
f 145/1/242 205/1/132 183/1/130
f 141/1/244 201/1/134 205/1/132
f 141/1/244 134/1/246 194/1/138
f 142/1/248 202/1/141 194/1/138
f 126/1/250 186/1/140 202/1/141
f 126/1/250 138/1/249 198/1/144
f 138/1/249 136/1/252 196/1/146
f 136/1/252 149/1/254 209/1/148
f 149/1/254 150/1/256 210/1/151
f 178/1/258 238/1/150 210/1/151
f 174/1/264 234/1/152 238/1/150
f 386/1/319 247/1/343 311/1/35
f 379/1/321 384/1/341 234/1/152
f 172/1/266 176/1/265 236/1/162
f 176/1/265 157/1/268 217/1/164
f 157/1/268 156/1/270 216/1/166
f 156/1/270 153/1/272 213/1/168
f 153/1/272 132/1/274 192/1/171
f 133/1/278 193/1/170 192/1/171
f 131/1/280 191/1/172 193/1/170
f 162/1/282 222/1/174 191/1/172
f 151/1/284 211/1/176 222/1/174
f 144/1/286 204/1/178 211/1/176
f 165/1/288 225/1/180 204/1/178
f 158/1/289 218/1/182 225/1/180
f 167/1/224 227/1/184 218/1/182
f 125/1/291 170/1/290 230/1/124
f 177/1/292 125/1/291 185/1/186
f 121/1/293 177/1/292 237/1/187
f 146/1/294 121/1/293 181/1/188
f 140/1/295 146/1/294 206/1/189
f 140/1/295 200/1/190 199/1/191
f 199/1/191 189/1/192 129/1/297
f 189/1/192 187/1/193 127/1/322
f 127/1/322 187/1/193 197/1/194
f 137/1/298 197/1/194 195/1/195
f 135/1/299 195/1/195 208/1/196
f 148/1/300 208/1/196 214/1/197
f 214/1/197 215/1/198 155/1/302
f 175/1/89 155/1/302 215/1/198
f 377/1/323 382/2/32 233/1/34
f 380/1/324 172/1/266 232/1/160
f 173/1/92 233/1/34 219/1/204
f 159/1/303 219/1/204 212/1/205
f 152/1/304 212/1/205 207/1/206
f 147/1/305 207/1/206 224/1/207
f 164/1/306 224/1/207 223/1/208
f 223/1/208 190/1/209 130/1/308
f 128/1/309 130/1/308 190/1/209
f 161/1/310 128/1/309 188/1/210
f 166/1/311 161/1/310 221/1/211
f 143/1/312 166/1/311 226/1/212
f 168/1/313 143/1/312 203/1/213
f 160/1/314 168/1/313 228/1/214
f 169/1/315 160/1/314 220/1/215
f 169/1/315 229/1/216 240/1/218
f 117/1/228 239/1/318 304/1/317
f 57/1/325 227/1/184 239/1/318
f 1/1/126 2/1/129 255/1/326
f 2/1/129 5/1/131 241/1/328
f 5/1/131 7/1/133 242/1/329
f 7/1/133 9/1/135 289/1/330
f 9/1/135 11/1/137 290/1/331
f 11/1/137 13/1/136 295/1/332
f 13/1/136 15/1/139 294/1/333
f 17/1/143 287/1/334 294/1/333
f 19/1/142 286/1/335 287/1/334
f 21/1/145 243/1/337 286/1/335
f 21/1/145 23/1/147 248/1/336
f 25/1/149 251/1/338 248/1/336
f 27/1/153 245/1/339 251/1/338
f 29/1/159 244/1/158 245/1/339
f 311/1/35 32/1/33 372/1/340
f 384/1/341 369/1/157 29/1/159
f 31/1/155 33/1/161 246/1/342
f 33/1/161 35/1/163 282/1/344
f 35/1/163 37/1/165 288/1/345
f 37/1/165 39/1/167 284/1/346
f 39/1/167 41/1/169 297/1/43
f 41/1/169 43/1/173 283/1/347
f 45/1/175 285/1/348 283/1/347
f 47/1/177 277/1/349 285/1/348
f 49/1/179 278/1/350 277/1/349
f 51/1/181 250/1/352 278/1/350
f 51/1/181 53/1/183 254/1/351
f 53/1/183 55/1/185 258/1/353
f 55/1/185 57/1/325 253/1/227
f 61/1/287 267/1/355 260/1/354
f 63/1/285 263/1/357 267/1/355
f 63/1/285 65/1/283 262/1/356
f 67/1/281 261/1/359 262/1/356
f 67/1/281 69/1/279 265/1/358
f 69/1/279 71/1/277 264/1/360
f 71/1/277 73/1/275 296/1/361
f 75/1/276 266/1/362 296/1/361
f 77/1/273 272/1/363 266/1/362
f 79/1/271 268/1/364 272/1/363
f 81/1/269 281/1/366 268/1/364
f 81/1/269 83/1/267 269/1/365
f 85/1/261 270/1/263 269/1/365
f 392/1/367 375/1/91 86/1/93
f 373/2/368 85/1/261 172/1/266
f 87/1/259 89/1/260 271/1/369
f 89/1/260 91/1/257 276/1/370
f 91/1/257 93/1/255 275/1/371
f 93/1/255 95/1/253 274/1/372
f 95/1/253 97/1/251 273/1/373
f 97/1/251 99/1/247 293/1/374
f 101/1/245 298/1/375 293/1/374
f 103/1/243 292/1/376 298/1/375
f 105/1/241 291/1/377 292/1/376
f 107/1/239 279/1/378 291/1/377
f 109/1/237 280/1/379 279/1/378
f 111/1/235 252/1/380 280/1/379
f 113/1/232 249/1/381 252/1/380
f 115/1/234 257/1/386 249/1/381
f 1/1/126 256/1/327 303/1/382
f 302/1/219 300/1/221 364/1/226
f 260/1/354 300/1/221 119/1/220
f 253/1/227 299/1/229 363/1/384
f 115/1/234 122/1/233 301/1/385
f 368/1/387 304/1/317 302/1/219
f 182/1/127 303/1/382 301/1/385
f 363/1/384 299/1/229 304/1/317
f 255/1/326 319/1/4 320/1/1
f 241/1/328 305/1/7 319/1/4
f 242/1/329 306/1/6 305/1/7
f 242/1/329 289/1/330 353/1/8
f 290/1/331 354/1/10 353/1/8
f 290/1/331 295/1/332 359/1/12
f 294/1/333 358/1/14 359/1/12
f 294/1/333 287/1/334 351/1/18
f 287/1/334 286/1/335 350/1/21
f 243/1/337 307/1/20 350/1/21
f 248/1/336 312/1/22 307/1/20
f 251/1/338 315/1/26 312/1/22
f 251/1/338 245/1/339 309/1/28
f 245/1/339 244/1/158 308/1/203
f 388/1/202 259/1/201 323/1/96
f 244/1/158 385/1/390 390/1/388
f 246/1/342 310/1/38 311/1/35
f 246/1/342 282/1/344 346/1/37
f 288/1/345 352/1/39 346/1/37
f 284/1/346 348/1/41 352/1/39
f 284/1/346 297/1/43 361/1/43
f 283/1/347 347/1/45 361/1/43
f 285/1/348 349/1/49 347/1/45
f 277/1/349 341/1/51 349/1/49
f 277/1/349 278/1/350 342/1/53
f 250/1/352 314/1/56 342/1/53
f 250/1/352 254/1/351 318/1/55
f 258/1/353 322/1/57 318/1/55
f 253/1/227 317/1/59 322/1/57
f 267/1/355 331/1/65 324/1/61
f 263/1/357 327/1/64 331/1/65
f 263/1/357 262/1/356 326/1/68
f 262/1/356 261/1/359 325/1/71
f 265/1/358 329/1/70 325/1/71
f 265/1/358 264/1/360 328/1/72
f 296/1/361 360/1/74 328/1/72
f 296/1/361 266/1/362 330/1/78
f 272/1/363 336/1/80 330/1/78
f 272/1/363 268/1/364 332/1/82
f 281/1/366 345/1/84 332/1/82
f 281/1/366 269/1/365 333/1/87
f 270/1/263 334/1/86 333/1/87
f 270/1/263 387/2/262 392/1/367
f 259/1/201 271/1/369 335/1/94
f 276/1/370 340/1/97 335/1/94
f 276/1/370 275/1/371 339/1/99
f 274/1/372 338/1/101 339/1/99
f 273/1/373 337/1/103 338/1/101
f 293/1/374 357/1/107 337/1/103
f 293/1/374 298/1/375 362/1/109
f 298/1/375 292/1/376 356/1/111
f 291/1/377 355/1/113 356/1/111
f 291/1/377 279/1/378 343/1/115
f 279/1/378 280/1/379 344/1/117
f 252/1/380 316/1/119 344/1/117
f 252/1/380 249/1/381 313/1/121
f 257/1/386 321/1/231 313/1/121
f 303/1/382 256/1/327 320/1/1
f 260/1/354 324/1/61 364/1/226
f 301/1/385 365/1/230 321/1/231
f 301/1/385 303/1/382 367/1/123
f 366/1/383 364/1/226 120/1/225
f 317/1/59 363/1/384 118/1/389
f 240/1/218 368/1/387 366/1/383
f 118/1/389 363/1/384 368/1/387
f 389/2/320 372/1/340 371/1/31
f 391/1/202 376/1/88 375/1/91
f 377/1/323 375/1/91 376/1/88
f 374/1/200 373/2/368 380/1/324
f 381/1/30 371/1/31 372/1/340
f 370/1/156 369/1/157 384/1/341
f 382/2/32 377/1/323 378/1/90
f 379/1/321 380/1/324 383/1/154
f 385/1/390 369/1/157 370/1/156
f 387/2/262 373/2/368 374/1/200
f 385/1/390 386/1/319 389/2/320
f 392/1/367 387/2/262 388/1/202
f 31/1/155 247/1/343 386/1/319
f 456/3/391 528/160/583 647/4/392
f 530/6/394 524/53/463 458/7/395
f 530/6/394 461/6/396 463/8/397
f 533/8/398 463/8/397 465/9/399
f 542/10/401 538/9/400 465/9/399
f 542/10/401 467/11/402 469/12/403
f 550/13/405 545/12/404 469/12/403
f 553/14/407 550/13/405 471/13/406
f 553/14/407 473/14/408 475/15/409
f 562/16/411 557/17/410 475/17/409
f 565/18/413 562/16/411 477/16/412
f 565/18/413 479/18/414 481/19/415
f 573/21/417 570/20/416 481/19/415
f 577/22/419 573/21/417 483/21/418
f 577/22/419 485/23/396 487/24/403
f 581/24/420 487/24/403 489/25/421
f 589/26/423 586/25/422 489/25/421
f 594/27/425 589/26/423 491/26/424
f 594/27/425 493/27/424 495/28/426
f 602/29/428 597/28/427 495/28/426
f 602/29/428 497/30/429 499/31/430
f 609/32/432 605/31/431 499/31/430
f 609/32/432 501/32/433 503/33/434
f 617/1/436 614/33/435 503/33/434
f 617/1/436 505/1/437 507/34/438
f 621/34/439 507/34/438 509/35/440
f 630/37/442 626/36/441 509/35/440
f 630/37/442 511/37/443 513/38/444
f 633/38/445 513/38/444 515/39/446
f 642/40/448 638/39/447 515/39/446
f 642/40/448 517/41/449 519/42/450
f 521/43/452 646/42/451 519/42/450
f 432/44/454 616/132/550 612/45/455
f 579/47/457 486/94/512 484/48/458
f 436/50/460 600/125/543 596/51/461
f 521/43/452 457/43/453 458/7/395
f 544/54/464 547/126/544 470/55/465
f 442/56/467 441/133/551 580/57/468
f 588/59/470 592/60/546 492/60/471
f 425/61/473 644/99/517 639/62/474
f 439/64/476 438/142/560 591/65/477
f 556/67/479 559/68/535 476/68/480
f 627/70/482 510/70/578 508/71/483
f 531/72/485 535/155/576 464/73/486
f 567/74/488 571/76/491 482/75/489
f 576/49/459 484/48/458 482/75/489
f 446/77/492 445/147/564 564/78/493
f 450/80/495 449/120/537 548/81/496
f 439/64/476 587/66/478 583/83/498
f 615/85/500 504/85/571 502/86/501
f 531/72/485 462/72/487 459/87/503
f 608/89/505 500/89/567 498/90/506
f 603/90/507 498/90/506 496/91/508
f 588/59/470 490/59/472 488/92/510
f 579/47/457 584/93/511 488/92/510
f 434/95/513 433/46/456 612/45/455
f 394/97/515 456/3/391 454/5/393
f 425/61/473 454/5/393 647/4/392
f 427/100/518 426/63/475 639/62/474
f 447/102/520 555/139/557 551/103/521
f 453/105/523 452/137/556 536/106/524
f 429/108/526 628/141/559 624/109/527
f 434/95/513 607/96/514 604/111/529
f 525/88/504 459/87/503 460/113/531
f 427/114/518 635/101/519 632/115/533
f 559/117/535 563/118/569 478/118/536
f 449/120/537 448/104/522 551/103/521
f 648/121/538 527/113/532 460/113/531
f 643/122/540 518/122/577 516/123/541
f 436/50/460 435/112/530 604/111/529
f 547/126/544 552/150/570 472/127/483
f 595/128/545 494/140/558 492/60/471
f 453/105/523 532/187/525 526/129/547
f 432/44/454 431/227/561 619/131/549
f 440/84/499 583/83/498 580/57/468
f 636/134/552 514/134/574 512/135/553
f 451/136/555 540/145/562 536/106/524
f 446/138/492 560/170/494 555/139/557
f 595/128/545 599/91/509 496/91/508
f 429/108/526 428/116/534 632/115/533
f 438/142/560 437/52/462 596/51/461
f 431/143/561 430/251/528 624/109/527
f 451/144/555 450/80/495 543/82/497
f 444/146/563 568/154/575 564/78/493
f 544/54/464 468/54/466 466/148/565
f 608/89/505 611/86/502 502/86/501
f 620/149/568 623/71/484 508/71/483
f 567/74/488 480/74/490 478/118/536
f 556/67/479 474/69/481 472/127/483
f 620/149/568 506/149/481 504/85/571
f 443/151/572 442/56/467 575/58/469
f 636/134/552 640/124/542 516/123/541
f 444/146/563 443/151/572 572/153/573
f 535/155/576 539/148/566 466/148/565
f 643/122/540 648/121/538 520/121/539
f 627/70/482 631/135/554 512/135/553
f 644/99/517 643/122/540 640/124/542
f 638/39/447 637/158/581 634/156/579
f 635/101/519 639/62/474 640/124/542
f 638/39/447 642/40/448 641/157/580
f 619/131/549 624/109/527 623/71/484
f 628/141/559 627/70/482 623/71/484
f 626/36/441 625/243/598 622/159/582
f 607/96/514 612/45/455 611/86/502
f 591/65/477 596/51/461 595/128/545
f 527/113/532 648/121/538 647/4/392
f 616/132/550 615/85/500 611/86/502
f 587/66/478 591/65/477 592/60/546
f 621/34/439 622/250/582 618/161/584
f 614/33/435 613/240/591 610/162/585
f 587/66/478 588/59/470 584/93/511
f 594/27/425 593/199/610 590/163/586
f 586/25/422 585/242/592 582/164/587
f 642/40/448 646/42/451 645/165/588
f 557/17/410 562/16/411 561/166/589
f 644/99/517 647/4/392 648/121/538
f 616/132/550 619/131/549 620/149/568
f 614/33/435 617/1/436 618/168/584
f 560/170/494 559/68/535 556/67/479
f 586/25/422 589/26/423 590/171/586
f 527/113/532 528/160/583 526/129/547
f 521/43/452 524/53/463 523/173/593
f 530/6/394 529/246/602 523/175/593
f 560/79/494 564/78/493 563/118/569
f 568/154/575 567/74/488 563/118/569
f 570/20/416 569/252/600 566/176/595
f 645/177/588 646/42/451 521/43/452
f 575/58/469 580/57/468 579/47/457
f 562/16/411 565/18/413 566/179/595
f 583/83/498 584/93/511 579/47/457
f 577/22/419 581/24/420 582/164/587
f 626/36/441 630/37/442 629/181/597
f 577/22/419 578/180/596 574/183/599
f 628/141/559 632/115/533 631/135/554
f 635/101/519 636/134/552 631/135/554
f 630/37/442 633/38/445 634/184/579
f 568/154/575 572/153/573 571/76/491
f 570/20/416 573/21/417 574/185/599
f 575/58/469 576/49/459 571/76/491
f 532/187/525 531/72/485 525/88/504
f 532/107/525 536/106/524 535/155/576
f 536/106/524 540/145/562 539/148/566
f 538/9/400 537/248/607 534/188/601
f 530/6/394 533/8/398 534/189/601
f 543/82/497 548/81/496 547/126/544
f 540/145/562 543/82/497 544/54/464
f 557/15/410 558/249/590 554/191/603
f 545/12/404 550/13/405 549/192/604
f 555/139/557 556/67/479 552/150/570
f 538/9/400 542/10/401 541/194/606
f 548/81/496 551/103/521 552/150/570
f 550/13/405 553/14/407 554/191/603
f 596/51/461 600/125/543 599/91/509
f 604/111/529 603/90/507 599/91/509
f 597/28/427 602/29/428 601/196/608
f 594/27/425 597/28/427 598/198/609
f 605/31/431 609/32/432 610/162/585
f 605/31/431 606/244/611 601/201/608
f 607/96/514 608/89/505 603/90/507
f 545/12/404 546/241/605 541/202/606
f 456/3/391 455/130/548 526/129/547
f 411/203/612 432/44/454 433/46/456
f 410/205/614 395/225/632 436/50/460
f 396/206/615 441/133/551 442/56/467
f 415/208/617 425/61/473 426/63/475
f 422/210/619 399/232/637 438/142/560
f 401/211/620 416/237/640 445/147/564
f 424/212/621 449/120/537 450/80/495
f 422/210/619 439/64/476 440/84/499
f 409/215/624 400/204/613 433/46/456
f 415/208/617 393/98/516 454/5/393
f 417/216/625 406/209/618 426/63/475
f 404/217/626 423/231/636 447/102/520
f 397/218/627 413/229/635 452/137/556
f 420/219/628 429/108/526 430/110/528
f 409/221/624 434/95/513 435/112/530
f 398/223/631 417/245/625 427/114/518
f 424/224/621 404/217/626 448/104/522
f 395/225/632 408/253/630 435/112/530
f 397/218/627 453/105/523 455/130/548
f 411/203/612 407/247/638 431/227/561
f 396/206/615 421/214/623 440/84/499
f 402/228/634 451/136/555 452/137/556
f 401/230/620 446/138/492 447/102/520
f 420/219/628 398/223/631 428/116/534
f 410/205/614 437/52/462 438/142/560
f 412/233/629 430/251/528 431/143/561
f 414/213/622 450/80/495 451/144/555
f 418/236/639 444/146/563 445/147/564
f 419/238/616 442/56/467 443/151/572
f 418/236/639 405/239/641 443/151/572
f 394/97/515 403/226/633 455/130/548
f 522/178/594 394/97/515 393/98/516
f 613/240/591 411/203/612 400/204/613
f 593/199/610 598/198/609 395/225/632
f 578/180/596 396/206/615 419/207/616
f 641/157/580 415/208/617 406/209/618
f 585/172/592 590/171/586 399/232/637
f 561/166/589 416/237/640 401/211/620
f 546/241/605 424/212/621 414/213/622
f 585/242/592 422/210/619 421/214/623
f 606/200/611 610/162/585 400/204/613
f 641/157/580 645/165/588 393/98/516
f 634/156/579 637/158/581 406/209/618
f 549/192/604 554/191/603 423/231/636
f 529/190/602 534/189/601 413/229/635
f 625/243/598 420/219/628 412/220/629
f 606/244/611 409/221/624 408/222/630
f 629/181/597 634/184/579 417/245/625
f 546/193/605 549/192/604 404/217/626
f 601/196/608 408/253/630 395/225/632
f 529/246/602 397/218/627 403/226/633
f 613/169/591 618/168/584 407/247/638
f 578/180/596 582/164/587 421/214/623
f 537/248/607 402/228/634 413/229/635
f 558/249/590 401/230/620 423/231/636
f 625/182/598 629/181/597 398/223/631
f 593/199/610 410/205/614 399/232/637
f 622/250/582 412/233/629 407/234/638
f 541/194/606 414/213/622 402/235/634
f 566/179/595 418/236/639 416/237/640
f 574/185/599 419/238/616 405/239/641
f 566/176/595 569/252/600 405/239/641
f 522/174/594 523/173/593 403/226/633
