# Blender 3.6.23
# www.blender.org
o sol.004
v -2.489753 2.165109 -1.802212
v -2.489838 2.164917 -1.525842
v -2.376089 2.422448 -1.525842
v -2.376004 2.422640 -1.802212
v -2.489569 2.165524 -2.398229
v -2.489654 2.165332 -2.121859
v -2.375906 2.422863 -2.121859
v -2.375821 2.423056 -2.398229
v -2.489661 2.165317 -2.100221
v -2.489746 2.165124 -1.823851
v -2.375998 2.422655 -1.823851
v -2.375913 2.422848 -2.100221
v -2.494840 2.167356 -1.802212
v -2.494925 2.167164 -1.525842
v -2.381177 2.424695 -1.525842
v -2.381092 2.424887 -1.802212
v -2.494657 2.167771 -2.398229
v -2.494741 2.167579 -2.121859
v -2.380993 2.425110 -2.121859
v -2.380908 2.425303 -2.398229
v -2.494748 2.167564 -2.100221
v -2.494833 2.167371 -1.823851
v -2.381085 2.424902 -1.823851
v -2.381000 2.425095 -2.100221
vn 0.9147 -0.4040 -0.0000
vn -0.9147 0.4040 -0.0000
vt 0.980243 0.998887
vt 0.491232 0.501113
vt 0.491233 0.999259
vt 0.489751 0.498887
vt 0.000741 0.001113
vt 0.000741 0.499259
vt 0.491232 0.001113
vt 0.980243 0.498887
vt 0.980243 0.000741
vt 0.980243 0.500741
vt 0.489751 0.000741
vt 0.491232 0.499259
s 0
f 1/1/1 3/2/1 2/3/1
f 5/4/1 7/5/1 6/6/1
f 9/7/1 11/8/1 10/9/1
f 13/1/2 15/2/2 16/10/2
f 17/4/2 19/5/2 20/11/2
f 21/7/2 23/8/2 24/12/2
f 1/1/1 4/10/1 3/2/1
f 5/4/1 8/11/1 7/5/1
f 9/7/1 12/12/1 11/8/1
f 13/1/2 14/3/2 15/2/2
f 17/4/2 18/6/2 19/5/2
f 21/7/2 22/9/2 23/8/2
