# Blender 3.6.23
# www.blender.org
o sol.058
v -1.992619 0.003297 -3.134598
v -1.992618 0.429388 -3.171760
v -1.961970 0.003330 -3.129459
v -1.954444 0.429419 -3.167811
v -1.931620 0.003295 -3.122643
v -1.915931 0.428209 -3.160543
v -1.905221 0.003327 -3.106177
v -1.882931 0.428777 -3.139523
v -1.880104 0.003299 -3.087893
v -1.851197 0.428391 -3.116580
v -1.861818 0.003327 -3.062776
v -1.832449 0.430212 -3.082418
v -1.847326 0.003328 -3.035560
v -1.808994 0.429002 -3.051458
v -1.838576 0.003331 -3.006019
v -1.801928 0.429589 -3.013232
v -1.833376 0.003297 -2.975378
v -1.795480 0.429088 -2.975622
v -1.837947 0.003321 -2.944612
v -1.800419 0.429717 -2.937311
v -1.846409 0.003312 -2.914815
v -1.813342 0.430523 -2.901334
v -1.860921 0.003310 -2.887380
v -1.825914 0.428477 -2.864104
v -1.880140 0.003300 -2.862899
v -1.850676 0.427749 -2.833406
v -1.903710 0.003285 -2.842317
v -1.880108 0.426921 -2.806844
v -1.931420 0.003286 -2.827630
v -1.917019 0.428597 -2.792778
v -1.960818 0.003238 -2.815500
v -1.954050 0.428764 -2.781775
v -1.992619 0.003303 -2.816548
v -1.992564 0.427750 -2.774749
v -2.023181 0.003337 -2.821732
v -2.032036 0.427485 -2.777865
v -2.052912 0.003323 -2.829817
v -2.067419 0.429401 -2.795223
v -2.080648 0.003309 -2.843633
v -2.101432 0.429334 -2.812175
v -2.105395 0.003293 -2.862602
v -2.133472 0.428785 -2.834482
v -2.123301 0.003329 -2.888059
v -2.157052 0.429310 -2.865665
v -2.135406 0.003370 -2.916234
v -2.172140 0.430145 -2.901041
v -2.150224 0.003274 -2.944028
v -2.187581 0.428939 -2.936649
v -2.150632 0.003316 -2.975378
v -2.188957 0.429477 -2.975430
v -2.145699 0.003346 -3.005827
v -2.184360 0.429979 -3.013571
v -2.136498 0.003352 -3.034975
v -2.173417 0.429714 -3.050283
v -2.125299 0.003292 -3.064032
v -2.156549 0.429205 -3.084713
v -2.105335 0.003295 -3.088095
v -2.134985 0.428094 -3.117727
v -2.078732 0.003363 -3.104255
v -2.102372 0.428896 -3.139767
v -2.052541 0.003338 -3.120043
v -2.069291 0.428083 -3.160524
v -2.023407 0.003319 -3.130158
v -2.031281 0.428637 -3.170219
v -1.992619 0.032728 -3.135234
v -1.992619 0.062805 -3.131808
v -1.992619 0.093658 -3.134145
v -1.992619 0.124606 -3.131163
v -1.992619 0.155681 -3.131082
v -1.992619 0.186301 -3.129795
v -1.992620 0.216708 -3.129191
v -1.992627 0.247539 -3.131950
v -1.992635 0.280144 -3.132060
v -1.992626 0.313926 -3.136513
v -1.992611 0.349015 -3.142356
v -1.992600 0.385420 -3.144382
v -1.992611 0.408028 -3.154052
v -1.957345 0.407466 -3.152835
v -1.959785 0.385483 -3.140397
v -1.959777 0.348769 -3.140479
v -1.961370 0.314183 -3.132532
v -1.961790 0.279937 -3.130405
v -1.961833 0.247456 -3.130176
v -1.961866 0.216699 -3.129991
v -1.962458 0.186309 -3.127008
v -1.962578 0.155572 -3.126402
v -1.961948 0.124694 -3.129569
v -1.961106 0.093788 -3.133803
v -1.961476 0.062879 -3.131943
v -1.960515 0.032676 -3.136778
v -1.924504 0.408067 -3.139824
v -1.928126 0.385471 -3.131066
v -1.928972 0.349203 -3.129011
v -1.930354 0.313569 -3.125646
v -1.932438 0.280041 -3.120594
v -1.932336 0.247484 -3.120879
v -1.932788 0.216703 -3.119818
v -1.934226 0.186213 -3.116352
v -1.934546 0.155430 -3.115580
v -1.933491 0.124527 -3.118124
v -1.932345 0.093598 -3.120893
v -1.931730 0.062867 -3.122378
v -1.932204 0.032733 -3.121233
v -1.893098 0.407880 -3.124338
v -1.898260 0.385285 -3.116541
v -1.900159 0.349165 -3.113464
v -1.902614 0.313857 -3.109640
v -1.905264 0.280044 -3.105776
v -1.908209 0.247827 -3.101539
v -1.905289 0.216706 -3.106063
v -1.906813 0.186302 -3.103795
v -1.904571 0.155858 -3.107151
v -1.904195 0.124814 -3.107713
v -1.904484 0.093652 -3.107282
v -1.902869 0.062919 -3.109699
v -1.904801 0.032735 -3.106807
v -1.866903 0.408339 -3.100929
v -1.871644 0.385146 -3.096106
v -1.875613 0.349283 -3.091851
v -1.879563 0.314449 -3.087741
v -1.880443 0.279837 -3.086975
v -1.881300 0.247428 -3.086357
v -1.882377 0.216672 -3.085495
v -1.882557 0.186358 -3.085434
v -1.882235 0.155707 -3.085762
v -1.881597 0.124681 -3.086400
v -1.879247 0.093732 -3.088749
v -1.879520 0.062886 -3.088477
v -1.879400 0.032726 -3.088596
v -1.845177 0.408478 -3.073793
v -1.848540 0.384854 -3.071356
v -1.853887 0.348985 -3.067501
v -1.855465 0.313189 -3.066325
v -1.861787 0.279975 -3.062161
v -1.861153 0.247297 -3.062816
v -1.862801 0.216606 -3.061939
v -1.864344 0.186267 -3.061050
v -1.866673 0.155412 -3.059532
v -1.861630 0.124714 -3.062902
v -1.857048 0.093859 -3.065964
v -1.857361 0.062942 -3.065754
v -1.863084 0.032742 -3.061930
v -1.825176 0.407767 -3.044624
v -1.832477 0.384745 -3.041494
v -1.837850 0.348922 -3.039161
v -1.837675 0.312551 -3.039176
v -1.845225 0.279530 -3.036127
v -1.848170 0.247310 -3.035024
v -1.851105 0.216550 -3.033907
v -1.850698 0.186205 -3.034139
v -1.848579 0.155694 -3.035041
v -1.845006 0.124852 -3.036521
v -1.847625 0.093572 -3.035436
v -1.845242 0.062876 -3.036423
v -1.845319 0.032728 -3.036391
v -1.819105 0.408324 -3.009907
v -1.826384 0.385211 -3.008609
v -1.828714 0.349027 -3.008332
v -1.825901 0.311974 -3.009081
v -1.835326 0.279353 -3.006996
v -1.835536 0.247018 -3.006817
v -1.840020 0.216523 -3.005825
v -1.838156 0.186377 -3.006130
v -1.839838 0.155684 -3.005769
v -1.839318 0.124638 -3.005871
v -1.839465 0.093535 -3.005842
v -1.836158 0.062876 -3.006500
v -1.838247 0.032738 -3.006084
v -1.815905 0.408424 -2.975687
v -1.820698 0.385031 -2.975820
v -1.819967 0.347931 -2.976175
v -1.827848 0.313158 -2.976426
v -1.834283 0.279668 -2.976203
v -1.837291 0.247360 -2.975860
v -1.837943 0.216556 -2.975606
v -1.835717 0.186364 -2.975445
v -1.834713 0.155821 -2.975379
v -1.835072 0.124715 -2.975378
v -1.836102 0.093551 -2.975378
v -1.835699 0.062817 -2.975378
v -1.836740 0.032735 -2.975378
v -1.815766 0.407588 -2.940501
v -1.828028 0.385377 -2.943088
v -1.830622 0.349455 -2.943941
v -1.829703 0.312780 -2.943955
v -1.835813 0.279470 -2.945041
v -1.842790 0.247618 -2.946118
v -1.843361 0.216622 -2.945930
v -1.839955 0.186334 -2.945062
v -1.840306 0.155655 -2.945081
v -1.839930 0.124600 -2.945006
v -1.837512 0.093629 -2.944525
v -1.835333 0.062895 -2.944092
v -1.836547 0.032730 -2.944333
v -1.823656 0.407199 -2.905580
v -1.835968 0.385109 -2.910798
v -1.838839 0.349215 -2.912222
v -1.841407 0.313380 -2.913385
v -1.850806 0.280582 -2.917244
v -1.847790 0.247478 -2.915755
v -1.848323 0.216677 -2.915741
v -1.848068 0.186397 -2.915509
v -1.847568 0.155764 -2.915296
v -1.846394 0.124759 -2.914810
v -1.845894 0.093661 -2.914602
v -1.842677 0.062936 -2.913270
v -1.844737 0.032726 -2.914123
v -1.841628 0.407387 -2.874488
v -1.851796 0.385249 -2.881342
v -1.855960 0.349549 -2.884302
v -1.859341 0.314207 -2.886662
v -1.862961 0.280239 -2.889028
v -1.863888 0.247655 -2.889486
v -1.861793 0.216709 -2.887972
v -1.862345 0.186410 -2.888331
v -1.861374 0.155818 -2.887683
v -1.862708 0.124634 -2.888574
v -1.862913 0.093526 -2.888711
v -1.860789 0.062855 -2.887292
v -1.862898 0.032738 -2.888701
v -1.867277 0.408176 -2.849938
v -1.872117 0.385294 -2.854821
v -1.873677 0.348850 -2.856480
v -1.878013 0.313720 -2.860892
v -1.880982 0.279903 -2.863799
v -1.883832 0.247702 -2.866597
v -1.882832 0.216709 -2.865586
v -1.883309 0.186309 -2.866067
v -1.882807 0.155655 -2.865566
v -1.881773 0.124666 -2.864532
v -1.881027 0.093613 -2.863785
v -1.879690 0.062881 -2.862449
v -1.879455 0.032727 -2.862214
v -1.894490 0.408169 -2.828452
v -1.900582 0.385931 -2.837608
v -1.899606 0.349011 -2.836166
v -1.900415 0.312638 -2.837402
v -1.905162 0.279962 -2.844503
v -1.904611 0.247386 -2.843671
v -1.908135 0.216705 -2.848938
v -1.908108 0.186190 -2.848897
v -1.906549 0.155632 -2.846565
v -1.905689 0.124648 -2.845277
v -1.904005 0.093693 -2.842757
v -1.905317 0.062821 -2.844721
v -1.905436 0.032731 -2.844899
v -1.925201 0.408443 -2.812756
v -1.927387 0.385265 -2.817977
v -1.929084 0.349300 -2.821898
v -1.929552 0.312997 -2.822976
v -1.932759 0.280144 -2.830832
v -1.932498 0.247484 -2.830235
v -1.933732 0.216703 -2.833218
v -1.933723 0.186276 -2.833190
v -1.934046 0.155513 -2.833969
v -1.931618 0.124829 -2.828107
v -1.930971 0.093768 -2.826545
v -1.932697 0.062807 -2.830712
v -1.929783 0.032700 -2.823678
v -1.957351 0.407568 -2.798080
v -1.959533 0.385302 -2.809040
v -1.960943 0.349911 -2.816173
v -1.961112 0.313860 -2.816878
v -1.962077 0.280133 -2.821706
v -1.961635 0.247376 -2.819556
v -1.962777 0.216710 -2.825342
v -1.962069 0.186406 -2.821793
v -1.962365 0.155642 -2.823279
v -1.962164 0.124625 -2.822270
v -1.961938 0.093583 -2.821132
v -1.961574 0.062863 -2.819302
v -1.962396 0.032700 -2.823437
v -1.992636 0.408631 -2.800428
v -1.992627 0.385495 -2.806312
v -1.992597 0.348488 -2.805681
v -1.992597 0.313852 -2.814043
v -1.992620 0.280442 -2.820787
v -1.992622 0.247745 -2.822267
v -1.992618 0.216715 -2.822602
v -1.992619 0.186294 -2.821096
v -1.992619 0.155623 -2.820585
v -1.992619 0.124618 -2.819398
v -1.992619 0.093653 -2.816721
v -1.992619 0.062860 -2.816594
v -1.992619 0.032726 -2.815244
v -2.027553 0.407796 -2.799891
v -2.025227 0.385761 -2.811382
v -2.025234 0.348981 -2.811436
v -2.024079 0.313872 -2.817256
v -2.023502 0.279846 -2.820039
v -2.022908 0.247609 -2.823010
v -2.022964 0.216711 -2.822794
v -2.023312 0.186441 -2.821075
v -2.022721 0.155592 -2.824044
v -2.023476 0.124753 -2.820249
v -2.023779 0.093703 -2.818725
v -2.023210 0.062816 -2.821588
v -2.023384 0.032737 -2.820710
v -2.059926 0.408577 -2.812987
v -2.057907 0.385357 -2.817717
v -2.057236 0.348633 -2.819350
v -2.053867 0.314136 -2.827554
v -2.052347 0.280256 -2.831238
v -2.053534 0.247381 -2.828329
v -2.053077 0.216704 -2.829422
v -2.052010 0.186338 -2.831997
v -2.051056 0.155490 -2.834299
v -2.053519 0.124813 -2.828353
v -2.053946 0.093729 -2.827320
v -2.053697 0.062878 -2.827922
v -2.052282 0.032741 -2.831340
v -2.091580 0.408163 -2.827072
v -2.086639 0.385448 -2.834614
v -2.085675 0.348887 -2.836118
v -2.082520 0.313659 -2.840843
v -2.077311 0.280827 -2.848637
v -2.079538 0.247556 -2.845313
v -2.078382 0.216709 -2.847032
v -2.079911 0.186431 -2.844735
v -2.078610 0.155622 -2.846683
v -2.077654 0.124438 -2.848115
v -2.081253 0.093695 -2.842728
v -2.081170 0.062874 -2.842852
v -2.083150 0.032704 -2.839889
v -2.120396 0.407800 -2.847560
v -2.114356 0.385031 -2.853634
v -2.111011 0.348897 -2.857002
v -2.105797 0.314153 -2.862178
v -2.102740 0.280272 -2.865230
v -2.103637 0.247501 -2.864358
v -2.099850 0.216712 -2.868150
v -2.102527 0.186350 -2.865470
v -2.102765 0.155685 -2.865232
v -2.105078 0.124807 -2.862919
v -2.106720 0.093781 -2.861276
v -2.105042 0.062864 -2.862955
v -2.105218 0.032730 -2.862779
v -2.141504 0.408117 -2.875947
v -2.135051 0.385060 -2.880226
v -2.129021 0.349541 -2.884238
v -2.128249 0.313447 -2.884739
v -2.123518 0.279980 -2.887925
v -2.120961 0.247671 -2.889630
v -2.121208 0.216707 -2.889458
v -2.118736 0.186169 -2.891109
v -2.122528 0.155715 -2.888576
v -2.126919 0.124959 -2.885642
v -2.125490 0.093707 -2.886596
v -2.124011 0.062844 -2.887585
v -2.125489 0.032725 -2.886597
v -2.160508 0.407644 -2.905849
v -2.150584 0.385113 -2.909930
v -2.145978 0.349229 -2.911825
v -2.144036 0.313227 -2.912633
v -2.133316 0.280782 -2.917079
v -2.136369 0.247587 -2.915828
v -2.132873 0.216711 -2.917283
v -2.136003 0.186339 -2.915986
v -2.135326 0.155602 -2.916267
v -2.138946 0.124766 -2.914767
v -2.134990 0.093438 -2.916406
v -2.143978 0.062956 -2.912683
v -2.143347 0.032671 -2.912944
v -2.167135 0.408393 -2.940700
v -2.161308 0.385090 -2.941833
v -2.157145 0.348881 -2.942652
v -2.152622 0.313430 -2.943539
v -2.149570 0.279556 -2.944145
v -2.147734 0.247411 -2.944518
v -2.140931 0.216712 -2.945874
v -2.143931 0.186294 -2.945280
v -2.148297 0.155874 -2.944412
v -2.144385 0.124541 -2.945190
v -2.149632 0.093720 -2.944146
v -2.147531 0.062839 -2.944564
v -2.147999 0.032729 -2.944471
v -2.170898 0.408409 -2.975346
v -2.165163 0.385042 -2.975333
v -2.157617 0.349308 -2.975368
v -2.156943 0.313136 -2.975397
v -2.148496 0.280211 -2.975394
v -2.147146 0.247657 -2.975377
v -2.149116 0.216707 -2.975374
v -2.148203 0.186357 -2.975378
v -2.147265 0.155614 -2.975378
v -2.147237 0.124534 -2.975378
v -2.150696 0.093626 -2.975378
v -2.151884 0.062871 -2.975378
v -2.153394 0.032720 -2.975378
v -2.169791 0.408137 -3.010651
v -2.164719 0.384721 -3.009629
v -2.157650 0.348627 -3.008225
v -2.151206 0.313726 -3.006959
v -2.146806 0.280007 -3.006058
v -2.147170 0.247469 -3.006123
v -2.145723 0.216710 -3.005834
v -2.146144 0.186403 -3.005916
v -2.146883 0.155782 -3.006063
v -2.143958 0.124515 -3.005481
v -2.149799 0.093728 -3.006643
v -2.150135 0.062898 -3.006710
v -2.152988 0.032680 -3.007277
v -2.157026 0.408437 -3.043518
v -2.150833 0.385122 -3.040963
v -2.144564 0.349374 -3.038353
v -2.140936 0.314131 -3.036818
v -2.135614 0.280420 -3.034606
v -2.136727 0.247549 -3.035084
v -2.132640 0.216720 -3.033382
v -2.137765 0.186430 -3.035500
v -2.137323 0.155740 -3.035316
v -2.136993 0.124636 -3.035180
v -2.143826 0.093886 -3.038010
v -2.139709 0.062868 -3.036305
v -2.140808 0.032714 -3.036760
v -2.141583 0.408164 -3.074831
v -2.136576 0.384888 -3.071551
v -2.129394 0.349329 -3.066765
v -2.126615 0.314027 -3.064904
v -2.126522 0.279400 -3.064837
v -2.118564 0.247811 -3.059524
v -2.117350 0.216725 -3.058718
v -2.123105 0.186422 -3.062566
v -2.120034 0.155525 -3.060514
v -2.124703 0.124795 -3.063634
v -2.126442 0.093761 -3.064796
v -2.120977 0.062754 -3.061144
v -2.124072 0.032733 -3.063212
v -2.119779 0.407972 -3.102527
v -2.113884 0.385063 -3.096635
v -2.109366 0.349292 -3.092107
v -2.105662 0.314354 -3.088411
v -2.103682 0.280047 -3.086447
v -2.103491 0.247503 -3.086238
v -2.101839 0.216718 -3.084591
v -2.103860 0.186440 -3.086619
v -2.101426 0.155565 -3.084185
v -2.104765 0.124779 -3.087524
v -2.103735 0.093581 -3.086494
v -2.105888 0.062891 -3.088647
v -2.105512 0.032728 -3.088270
v -2.092413 0.407978 -3.124818
v -2.088767 0.384908 -3.119311
v -2.084632 0.349194 -3.113071
v -2.083080 0.313560 -3.110728
v -2.080557 0.279832 -3.106986
v -2.077750 0.247745 -3.102793
v -2.080390 0.216710 -3.106740
v -2.079281 0.186376 -3.105077
v -2.079568 0.155732 -3.105506
v -2.081188 0.124830 -3.107930
v -2.079664 0.093560 -3.105650
v -2.083307 0.062947 -3.111102
v -2.083082 0.032680 -3.110765
v -2.060727 0.408223 -3.139865
v -2.057673 0.385305 -3.132452
v -2.056074 0.349234 -3.128568
v -2.054735 0.313642 -3.125384
v -2.052389 0.280170 -3.119708
v -2.052307 0.247579 -3.119477
v -2.051327 0.216713 -3.117110
v -2.051474 0.186271 -3.117466
v -2.053417 0.155883 -3.122158
v -2.052731 0.124686 -3.120502
v -2.054420 0.093786 -3.124580
v -2.054036 0.062896 -3.123653
v -2.052548 0.032741 -3.120060
v -2.027352 0.408236 -3.150149
v -2.026250 0.385072 -3.144462
v -2.025198 0.348976 -3.139165
v -2.024086 0.313848 -3.133589
v -2.022909 0.280328 -3.127652
v -2.022838 0.247650 -3.127289
v -2.023372 0.216706 -3.129983
v -2.023009 0.186366 -3.128161
v -2.023452 0.155830 -3.130386
v -2.023474 0.124752 -3.130498
v -2.023511 0.093639 -3.130684
v -2.023704 0.062873 -3.131654
v -2.023781 0.032727 -3.132040
v -1.992614 0.420333 -3.161207
v -1.956221 0.420059 -3.158679
v -1.920896 0.419779 -3.148543
v -1.888961 0.419958 -3.130513
v -1.860326 0.420005 -3.107497
v -1.840214 0.420956 -3.077179
v -1.818716 0.420020 -3.047369
v -1.812216 0.420588 -3.011226
v -1.807469 0.420395 -2.975638
v -1.809780 0.420280 -2.939220
v -1.820044 0.420460 -2.904077
v -1.835218 0.419570 -2.870262
v -1.860235 0.419607 -2.842932
v -1.888308 0.419197 -2.819158
v -1.921777 0.420155 -2.804372
v -1.956029 0.419788 -2.791579
v -1.992600 0.419835 -2.789387
v -2.029447 0.419286 -2.790619
v -2.063021 0.420615 -2.805672
v -2.095567 0.420372 -2.821032
v -2.125715 0.419923 -2.842239
v -2.147849 0.420341 -2.871758
v -2.164808 0.420486 -2.904072
v -2.175644 0.420296 -2.939013
v -2.178231 0.420563 -2.975387
v -2.175446 0.420659 -3.011785
v -2.163659 0.420694 -3.046251
v -2.147652 0.420308 -3.078828
v -2.126130 0.419672 -3.108874
v -2.096448 0.420063 -3.130875
v -2.064332 0.419791 -3.148557
v -2.028978 0.420069 -3.158478
vn 0.0058 -0.7597 -0.6503
vn 0.1428 -0.5836 -0.7994
vn -0.0152 -0.6444 -0.7645
vn 0.1192 -0.7227 -0.6808
vn 0.2719 -0.7270 -0.6304
vn 0.3450 -0.7913 -0.5049
vn 0.4152 -0.6752 -0.6097
vn 0.5122 -0.7354 -0.4436
vn 0.5647 -0.7310 -0.3831
vn 0.6537 -0.5957 -0.4668
vn 0.6979 -0.6474 -0.3063
vn 0.6378 -0.7637 -0.1002
vn 0.7590 -0.6422 -0.1077
vn 0.7163 -0.6963 -0.0462
vn 0.6006 -0.7990 -0.0294
vn 0.8000 -0.5797 0.1548
vn 0.7386 -0.6213 0.2618
vn 0.8288 -0.4583 0.3212
vn 0.6414 -0.6701 0.3736
vn 0.3734 -0.8523 0.3664
vn 0.4431 -0.7625 0.4715
vn 0.3019 -0.8047 0.5112
vn 0.1935 -0.8280 0.5264
vn 0.2720 -0.7311 0.6257
vn 0.1505 -0.6343 0.7583
vn 0.1225 -0.7645 0.6328
vn 0.0184 -0.7801 0.6254
vn 0.0476 -0.8743 0.4830
vn -0.1693 -0.7586 0.6291
vn -0.2711 -0.7925 0.5463
vn -0.3043 -0.6831 0.6639
vn -0.3795 -0.6530 0.6554
vn -0.3256 -0.7648 0.5560
vn -0.5162 -0.6691 0.5346
vn -0.5530 -0.7749 0.3062
vn -0.6467 -0.6484 0.4018
vn -0.6807 -0.6748 0.2852
vn -0.8005 -0.4995 0.3313
vn -0.7096 -0.6930 0.1271
vn -0.6410 -0.7674 -0.0136
vn -0.7557 -0.6549 0.0089
vn -0.7958 -0.5825 -0.1659
vn -0.6094 -0.7544 -0.2439
vn -0.7072 -0.6411 -0.2981
vn -0.6467 -0.6588 -0.3844
vn -0.5510 -0.7743 -0.3111
vn -0.4900 -0.7289 -0.4782
vn -0.3340 -0.7863 -0.5197
vn -0.4107 -0.6618 -0.6272
vn -0.2510 -0.7395 -0.6246
vn -0.0776 -0.8161 -0.5727
vn -0.1139 -0.7116 -0.6933
vn -0.2413 -0.0390 -0.9697
vn -0.0472 0.0187 -0.9987
vn 0.0115 -0.0216 -0.9997
vn -0.2336 -0.0135 -0.9722
vn -0.0305 0.0201 -0.9993
vn -0.1525 0.0258 -0.9880
vn -0.1483 0.0051 -0.9889
vn 0.0164 0.0509 -0.9986
vn -0.0471 0.0171 -0.9987
vn -0.1746 0.0048 -0.9846
vn 0.0622 0.0262 -0.9977
vn -0.2003 0.0220 -0.9795
vn -0.1633 0.0425 -0.9857
vn -0.0071 -0.0267 -0.9996
vn 0.0270 0.0231 -0.9994
vn -0.2034 -0.0040 -0.9791
vn -0.2014 0.0135 -0.9794
vn -0.0380 -0.0593 -0.9975
vn -0.0482 -0.0466 -0.9977
vn -0.1955 -0.0890 -0.9767
vn 0.0110 -0.1532 -0.9881
vn -0.2025 -0.1380 -0.9695
vn -0.1818 -0.1603 -0.9702
vn 0.0501 -0.2411 -0.9692
vn -0.0047 -0.1103 -0.9939
vn -0.1833 -0.2218 -0.9577
vn -0.0115 -0.4469 -0.8945
vn -0.3430 -0.0858 -0.9354
vn -0.4244 -0.0006 -0.9055
vn -0.3331 -0.0278 -0.9425
vn -0.3852 0.0230 -0.9226
vn -0.4062 0.0543 -0.9122
vn -0.3855 0.0591 -0.9208
vn -0.4047 0.0537 -0.9129
vn -0.3854 -0.0026 -0.9227
vn -0.3569 -0.1076 -0.9279
vn -0.4071 -0.0450 -0.9123
vn -0.3926 -0.1145 -0.9125
vn -0.3594 -0.1359 -0.9232
vn -0.3684 -0.2405 -0.8980
vn -0.3157 -0.4752 -0.8213
vn -0.5105 -0.1367 -0.8490
vn -0.5221 -0.1488 -0.8398
vn -0.5792 0.0516 -0.8135
vn -0.5568 0.0975 -0.8249
vn -0.5843 0.0625 -0.8091
vn -0.5353 0.0035 -0.8446
vn -0.5292 -0.0109 -0.8485
vn -0.5434 -0.0221 -0.8392
vn -0.5411 0.0423 -0.8399
vn -0.5752 -0.1054 -0.8112
vn -0.5381 -0.1439 -0.8305
vn -0.5583 -0.1386 -0.8180
vn -0.5178 -0.2540 -0.8169
vn -0.7489 -0.0266 -0.6622
vn -0.6642 0.0058 -0.7476
vn -0.7897 0.0546 -0.6110
vn -0.7167 0.0435 -0.6960
vn -0.6962 0.0013 -0.7178
vn -0.7321 0.0358 -0.6802
vn -0.7537 0.0393 -0.6560
vn -0.6962 -0.0082 -0.7178
vn -0.6967 -0.0969 -0.7108
vn -0.7266 -0.0421 -0.6858
vn -0.7205 -0.0981 -0.6865
vn -0.6829 -0.2720 -0.6780
vn -0.7099 -0.1622 -0.6854
vn -0.6325 -0.4591 -0.6238
vn -0.8285 0.0441 -0.5583
vn -0.8614 0.0500 -0.5055
vn -0.8083 -0.0214 -0.5884
vn -0.8390 0.1089 -0.5331
vn -0.7780 -0.0398 -0.6270
vn -0.8179 0.0033 -0.5754
vn -0.8319 0.0444 -0.5532
vn -0.8416 -0.1052 -0.5298
vn -0.8535 0.0886 -0.5134
vn -0.8288 -0.0815 -0.5535
vn -0.8419 -0.1470 -0.5192
vn -0.8225 -0.1608 -0.5456
vn -0.8101 -0.2551 -0.5279
vn -0.9204 -0.1075 -0.3759
vn -0.8982 -0.0314 -0.4385
vn -0.8943 -0.0626 -0.4431
vn -0.9308 0.1104 -0.3485
vn -0.9269 0.0461 -0.3725
vn -0.9086 -0.0325 -0.4165
vn -0.8873 0.0170 -0.4608
vn -0.9232 0.0821 -0.3754
vn -0.9220 -0.0818 -0.3784
vn -0.8733 -0.0436 -0.4852
vn -0.9055 -0.1469 -0.3981
vn -0.8815 -0.2386 -0.4074
vn -0.8896 -0.1492 -0.4317
vn -0.8425 -0.3870 -0.3748
vn -0.9590 -0.1880 -0.2119
vn -0.9800 0.0447 -0.1937
vn -0.9769 -0.0746 -0.2002
vn -0.9875 0.0864 -0.1319
vn -0.9858 0.0609 -0.1567
vn -0.9800 0.0354 -0.1960
vn -0.9845 -0.0418 -0.1704
vn -0.9698 -0.0207 -0.2431
vn -0.9772 -0.0640 -0.2027
vn -0.9850 -0.0183 -0.1718
vn -0.9627 -0.1562 -0.2210
vn -0.9640 -0.1824 -0.1935
vn -0.9550 -0.2151 -0.2042
vn -0.9978 -0.0349 0.0555
vn -0.9981 -0.0525 -0.0324
vn -0.9971 0.0752 0.0104
vn -0.9981 0.0401 0.0465
vn -0.9998 -0.0218 0.0025
vn -0.9984 0.0554 -0.0072
vn -0.9985 -0.0014 0.0545
vn -0.9994 -0.0343 0.0038
vn -0.9967 0.0166 0.0793
vn -0.9932 -0.1099 -0.0398
vn -0.9904 -0.1377 0.0136
vn -0.9907 -0.1339 -0.0227
vn -0.9738 -0.2215 0.0515
vn -0.9234 -0.3819 0.0399
vn -0.9839 -0.0142 0.1782
vn -0.9659 0.0767 0.2472
vn -0.9862 0.0295 0.1629
vn -0.9831 0.0238 0.1813
vn -0.9654 0.0508 0.2557
vn -0.9763 0.0805 0.2011
vn -0.9802 0.0099 0.1979
vn -0.9724 -0.0285 0.2314
vn -0.9711 -0.0515 0.2329
vn -0.9745 -0.1387 0.1764
vn -0.9685 -0.1398 0.2062
vn -0.9586 -0.1976 0.2052
vn -0.9763 -0.1226 0.1785
vn -0.8870 -0.4395 0.1415
vn -0.9073 -0.1509 0.3925
vn -0.9211 -0.1363 0.3646
vn -0.9361 0.0333 0.3502
vn -0.9153 0.1391 0.3779
vn -0.9188 0.0620 0.3898
vn -0.9610 0.0110 0.2762
vn -0.9296 -0.0164 0.3682
vn -0.9059 0.0434 0.4213
vn -0.9037 -0.0686 0.4226
vn -0.9177 -0.0917 0.3866
vn -0.9025 -0.1000 0.4188
vn -0.9175 -0.1757 0.3569
vn -0.8865 -0.2675 0.3777
vn -0.8095 -0.0390 0.5858
vn -0.8595 -0.0655 0.5070
vn -0.8163 0.0306 0.5768
vn -0.8751 -0.0527 0.4811
vn -0.8328 0.1455 0.5342
vn -0.8358 0.0572 0.5461
vn -0.8344 0.0408 0.5496
vn -0.8294 -0.0651 0.5548
vn -0.8292 -0.0434 0.5573
vn -0.8290 -0.1302 0.5439
vn -0.7928 -0.0958 0.6019
vn -0.8244 -0.1194 0.5533
vn -0.7437 -0.4411 0.5024
vn -0.8122 -0.2604 0.5220
vn -0.7313 -0.0032 0.6820
vn -0.7214 0.0085 0.6925
vn -0.7176 -0.0230 0.6961
vn -0.6342 0.0983 0.7669
vn -0.7041 -0.0008 0.7101
vn -0.6866 0.0554 0.7250
vn -0.7298 -0.0156 0.6835
vn -0.7618 0.0517 0.6457
vn -0.6621 -0.0555 0.7474
vn -0.7289 -0.0666 0.6813
vn -0.6832 -0.1556 0.7135
vn -0.6732 -0.2532 0.6948
vn -0.7278 -0.1573 0.6675
vn -0.5183 -0.0630 0.8529
vn -0.5502 0.0135 0.8349
vn -0.5124 -0.0169 0.8586
vn -0.5314 0.0733 0.8440
vn -0.5250 0.1069 0.8443
vn -0.5223 -0.0553 0.8510
vn -0.6178 -0.0063 0.7863
vn -0.5523 0.0076 0.8336
vn -0.5918 0.0027 0.8061
vn -0.5577 -0.0390 0.8291
vn -0.5654 -0.1218 0.8158
vn -0.5416 -0.2166 0.8122
vn -0.5176 -0.2081 0.8299
vn -0.4415 -0.4430 0.7802
vn -0.3287 -0.0211 0.9442
vn -0.3555 0.0559 0.9330
vn -0.3539 -0.0783 0.9320
vn -0.4033 0.0310 0.9145
vn -0.3965 0.0194 0.9178
vn -0.4536 0.1197 0.8831
vn -0.3866 -0.0462 0.9211
vn -0.3963 -0.0685 0.9156
vn -0.4426 -0.0267 0.8963
vn -0.3717 0.0335 0.9277
vn -0.3869 -0.1814 0.9041
vn -0.3556 -0.1273 0.9259
vn -0.3736 -0.1485 0.9156
vn -0.3439 -0.4310 0.8342
vn -0.2369 -0.0132 0.9714
vn -0.1885 -0.0386 0.9813
vn -0.2583 -0.0020 0.9661
vn -0.1568 -0.0083 0.9876
vn -0.1559 0.0955 0.9831
vn -0.2063 0.0191 0.9783
vn -0.1230 0.0073 0.9924
vn -0.1806 -0.0196 0.9834
vn -0.1195 -0.0209 0.9926
vn -0.2040 -0.1451 0.9682
vn -0.1772 -0.0822 0.9807
vn -0.1996 -0.1068 0.9740
vn -0.1715 -0.1955 0.9656
vn -0.0256 0.0346 0.9991
vn -0.0095 0.0069 0.9999
vn 0.0442 0.0003 0.9990
vn 0.0270 0.0327 0.9991
vn 0.0242 0.0623 0.9978
vn 0.0132 0.0198 0.9997
vn -0.0122 0.0268 0.9996
vn 0.0404 0.0216 0.9990
vn -0.0141 -0.0418 0.9990
vn 0.0193 -0.0996 0.9948
vn 0.0138 -0.1787 0.9838
vn -0.0114 -0.1484 0.9889
vn 0.0724 -0.1095 0.9913
vn -0.0262 -0.5294 0.8480
vn 0.1701 0.0475 0.9843
vn 0.1725 0.2648 0.9487
vn 0.1696 0.0224 0.9853
vn 0.2291 -0.0387 0.9726
vn 0.1586 0.0592 0.9856
vn 0.2177 0.0029 0.9760
vn 0.1713 -0.0256 0.9849
vn 0.2010 0.0347 0.9790
vn 0.1560 -0.0600 0.9859
vn 0.1323 -0.0610 0.9893
vn 0.1423 -0.1038 0.9844
vn 0.2038 -0.0982 0.9741
vn 0.1683 -0.2887 0.9425
vn 0.3880 0.0174 0.9215
vn 0.3813 0.0064 0.9244
vn 0.3550 0.0494 0.9336
vn 0.3568 -0.0408 0.9333
vn 0.3960 0.0623 0.9161
vn 0.3742 0.1279 0.9185
vn 0.4341 -0.0011 0.9009
vn 0.3863 -0.0577 0.9206
vn 0.3961 -0.0520 0.9167
vn 0.3560 -0.1031 0.9288
vn 0.3297 -0.0511 0.9427
vn 0.3133 -0.1420 0.9390
vn 0.3954 -0.2128 0.8935
vn 0.3698 -0.4559 0.8095
vn 0.5732 0.0361 0.8186
vn 0.5635 0.1049 0.8194
vn 0.5912 0.0021 0.8065
vn 0.5277 -0.0247 0.8491
vn 0.5752 0.0795 0.8141
vn 0.5407 0.0229 0.8409
vn 0.5235 0.0702 0.8491
vn 0.5537 -0.0598 0.8305
vn 0.5625 -0.1169 0.8185
vn 0.5960 -0.0856 0.7984
vn 0.5873 -0.1470 0.7959
vn 0.5322 -0.0280 0.8461
vn 0.5226 -0.2272 0.8218
vn 0.4431 -0.5522 0.7062
vn 0.7210 0.0283 0.6924
vn 0.6977 0.0221 0.7161
vn 0.7173 -0.0109 0.6967
vn 0.7264 0.0412 0.6860
vn 0.7127 0.0356 0.7006
vn 0.6753 0.0313 0.7369
vn 0.6485 0.0052 0.7612
vn 0.7122 -0.0504 0.7002
vn 0.6471 0.0165 0.7622
vn 0.7409 -0.1467 0.6553
vn 0.7136 -0.1107 0.6917
vn 0.6854 -0.1918 0.7024
vn 0.7320 -0.1105 0.6723
vn 0.8264 -0.0207 0.5627
vn 0.8358 0.0805 0.5430
vn 0.8110 0.0016 0.5850
vn 0.8188 0.0429 0.5725
vn 0.8154 -0.0025 0.5789
vn 0.8169 -0.0083 0.5767
vn 0.8180 0.0096 0.5752
vn 0.8173 -0.0031 0.5762
vn 0.8232 0.0306 0.5669
vn 0.8610 -0.0608 0.5050
vn 0.8299 -0.1452 0.5387
vn 0.8411 -0.1109 0.5294
vn 0.7873 -0.3013 0.5380
vn 0.5823 -0.5087 0.6341
vn 0.9155 -0.0238 0.4016
vn 0.9041 -0.0650 0.4223
vn 0.9133 0.0614 0.4026
vn 0.9125 0.0195 0.4087
vn 0.9326 0.0166 0.3606
vn 0.9257 0.0256 0.3774
vn 0.9436 0.0189 0.3305
vn 0.9301 0.0142 0.3671
vn 0.9425 0.0243 0.3334
vn 0.8999 -0.1176 0.4200
vn 0.9155 -0.0872 0.3927
vn 0.8749 -0.1572 0.4581
vn 0.8828 -0.3163 0.3473
vn 0.6965 -0.5084 0.5063
vn 0.9905 -0.0455 0.1296
vn 0.9852 -0.0091 0.1714
vn 0.9926 0.0165 0.1200
vn 0.9839 0.0239 0.1774
vn 0.9862 0.0684 0.1510
vn 0.9792 0.0011 0.2029
vn 0.9805 0.0478 0.1908
vn 0.9852 0.0437 0.1655
vn 0.9743 -0.0759 0.2121
vn 0.9438 -0.1983 0.2645
vn 0.9587 -0.0277 0.2831
vn 0.9645 -0.1132 0.2385
vn 0.9459 -0.2642 0.1886
vn 0.8751 -0.4725 0.1046
vn 0.9997 0.0048 -0.0232
vn 0.9935 0.1136 -0.0101
vn 0.9998 0.0033 -0.0216
vn 0.9997 0.0077 -0.0217
vn 0.9998 -0.0156 0.0095
vn 1.0000 0.0051 0.0023
vn 0.9986 0.0473 0.0237
vn 0.9981 0.0256 0.0552
vn 0.9940 -0.0776 0.0771
vn 0.9901 -0.1404 0.0086
vn 0.9976 -0.0694 -0.0051
vn 0.9844 -0.1757 0.0077
vn 0.9911 -0.1274 0.0386
vn 0.9057 -0.4233 -0.0233
vn 0.9804 0.0190 -0.1961
vn 0.9880 -0.0358 -0.1499
vn 0.9831 0.0372 -0.1795
vn 0.9878 0.0194 -0.1544
vn 0.9836 0.0051 -0.1802
vn 0.9735 0.0045 -0.2284
vn 0.9693 0.0046 -0.2459
vn 0.9760 -0.0275 -0.2162
vn 0.9734 -0.1527 -0.1710
vn 0.9804 -0.0779 -0.1807
vn 0.9712 -0.0305 -0.2362
vn 0.9822 -0.1049 -0.1560
vn 0.9092 -0.3954 -0.1309
vn 0.9626 -0.1990 -0.1839
vn 0.9191 -0.0281 -0.3931
vn 0.9362 0.0079 -0.3515
vn 0.9131 -0.0381 -0.4060
vn 0.9496 0.0286 -0.3121
vn 0.9003 0.0958 -0.4245
vn 0.9311 0.0173 -0.3645
vn 0.9029 0.0135 -0.4296
vn 0.9094 -0.0722 -0.4096
vn 0.9218 -0.0524 -0.3842
vn 0.8893 -0.1125 -0.4433
vn 0.8874 -0.1672 -0.4296
vn 0.9200 -0.0739 -0.3850
vn 0.9120 -0.2318 -0.3383
vn 0.8381 -0.0563 -0.5425
vn 0.8464 0.0517 -0.5300
vn 0.8372 -0.1045 -0.5368
vn 0.8081 0.1339 -0.5736
vn 0.8567 0.0813 -0.5094
vn 0.8316 0.0526 -0.5529
vn 0.8569 -0.0451 -0.5134
vn 0.8500 -0.0630 -0.5231
vn 0.8130 -0.0896 -0.5754
vn 0.8444 -0.0245 -0.5352
vn 0.7548 -0.1313 -0.6427
vn 0.7990 -0.1301 -0.5871
vn 0.7586 -0.3323 -0.5604
vn 0.8010 -0.1743 -0.5728
vn 0.7203 -0.0111 -0.6935
vn 0.6945 -0.0335 -0.7187
vn 0.7323 -0.0141 -0.6809
vn 0.6615 0.0555 -0.7479
vn 0.7268 0.0737 -0.6829
vn 0.7649 0.0221 -0.6437
vn 0.6984 -0.0145 -0.7156
vn 0.7093 0.0047 -0.7049
vn 0.6359 -0.0395 -0.7708
vn 0.6999 -0.0554 -0.7120
vn 0.6958 -0.1031 -0.7108
vn 0.6931 -0.1635 -0.7021
vn 0.6718 -0.2027 -0.7125
vn 0.5305 -0.0475 -0.8463
vn 0.5435 -0.0071 -0.8394
vn 0.5246 0.0503 -0.8499
vn 0.5446 -0.0100 -0.8386
vn 0.5152 0.0122 -0.8570
vn 0.5210 -0.0077 -0.8535
vn 0.4947 0.0762 -0.8657
vn 0.5774 0.0165 -0.8163
vn 0.5837 0.0144 -0.8119
vn 0.5824 -0.1150 -0.8047
vn 0.5388 -0.1506 -0.8289
vn 0.5641 -0.1264 -0.8160
vn 0.5256 -0.2310 -0.8188
vn 0.6469 -0.4554 -0.6116
vn 0.4280 -0.0157 -0.9036
vn 0.3791 0.0517 -0.9239
vn 0.3677 0.0017 -0.9299
vn 0.3645 0.0802 -0.9277
vn 0.4063 0.0652 -0.9114
vn 0.3413 0.0418 -0.9390
vn 0.3839 -0.0687 -0.9208
vn 0.3848 -0.0738 -0.9200
vn 0.4490 0.0105 -0.8935
vn 0.4172 -0.0984 -0.9035
vn 0.3683 -0.1154 -0.9225
vn 0.3875 -0.0980 -0.9167
vn 0.3469 -0.5175 -0.7822
vn 0.3508 -0.2294 -0.9079
vn 0.2085 -0.1218 -0.9704
vn 0.1873 0.0322 -0.9818
vn 0.2239 -0.0423 -0.9737
vn 0.2141 0.1111 -0.9705
vn 0.2143 0.0386 -0.9760
vn 0.2396 0.0343 -0.9703
vn 0.2066 -0.0481 -0.9772
vn 0.1740 -0.0211 -0.9845
vn 0.1547 -0.0526 -0.9866
vn 0.1726 -0.0455 -0.9839
vn 0.1697 -0.1299 -0.9769
vn 0.1975 -0.2528 -0.9471
vn 0.2042 -0.1132 -0.9724
vn -0.1787 -0.4194 -0.8900
vn -0.4958 -0.4109 -0.7651
vn -0.7814 -0.3881 -0.4887
vn -0.9231 -0.3347 -0.1892
vn -0.8452 -0.4125 0.3400
vn -0.6251 -0.4448 0.6415
vn -0.1687 -0.5612 0.8103
vn 0.1671 -0.4909 0.8551
vn 0.8453 -0.4087 0.3442
vn 0.8401 -0.4146 -0.3498
vn 0.4990 -0.4571 -0.7363
vn 0.1665 -0.4807 -0.8609
vn 0.1945 -0.8387 -0.5087
vn 0.4182 -0.8372 -0.3525
vn 0.5910 -0.7612 -0.2668
vn 0.6806 -0.7109 0.1772
vn 0.5609 -0.7792 0.2796
vn 0.2352 -0.8861 0.3993
vn -0.1555 -0.8450 0.5116
vn -0.4361 -0.7778 0.4525
vn -0.5637 -0.8151 0.1335
vn -0.7005 -0.6983 -0.1476
vn -0.3999 -0.8297 -0.3894
vn -0.2147 -0.8422 -0.4946
vt 2.059105 1.068011
vt 1.961661 1.027118
vt 2.059105 1.027118
vt 1.961661 1.068011
vt 1.864217 1.027118
vt 1.766773 1.068011
vt 1.766773 1.027118
vt 1.669329 1.027118
vt 1.571885 1.068011
vt 1.571885 1.027118
vt 1.474441 1.027118
vt 1.376996 1.068011
vt 1.376996 1.027118
vt 1.279552 1.027118
vt 1.279552 1.068011
vt 1.182108 1.027118
vt 1.084664 1.068011
vt 1.084664 1.027118
vt 0.987220 1.027118
vt 0.889776 1.068011
vt 0.889776 1.027118
vt 0.792332 1.027118
vt 0.694888 1.068011
vt 0.694888 1.027118
vt 0.597444 1.027118
vt 0.597444 1.068011
vt 0.500000 1.027118
vt 0.500000 1.068011
vt 0.402556 1.027118
vt 0.305112 1.068011
vt 0.305112 1.027118
vt 0.207667 1.027118
vt 0.207667 1.068011
vt 0.110223 1.027118
vt 0.012779 1.068011
vt 0.012779 1.027118
vt -0.084665 1.068011
vt -0.084665 1.027118
vt -0.182109 1.027118
vt -0.279553 1.068011
vt -0.279553 1.027118
vt -0.376997 1.027118
vt -0.474441 1.068011
vt -0.474441 1.027118
vt -0.571885 1.027118
vt -0.571885 1.068011
vt -0.669330 1.027118
vt -0.766774 1.068011
vt -0.766774 1.027118
vt -0.864218 1.027118
vt -0.961662 1.068011
vt -0.961662 1.027118
vt -1.059105 1.068011
vt -1.059105 1.027118
vt -0.961662 -0.076987
vt -1.059105 0.004798
vt -1.059105 -0.076987
vt -0.961662 0.004798
vt -1.059105 0.086584
vt -0.961662 0.168369
vt -0.961662 0.086584
vt -1.059105 0.250155
vt -1.059105 0.168369
vt -0.961662 0.250155
vt -1.059105 0.331941
vt -0.961662 0.413726
vt -0.961662 0.331941
vt -1.059105 0.495512
vt -1.059105 0.413726
vt -0.961662 0.577298
vt -0.961662 0.495512
vt -1.059105 0.659083
vt -1.059105 0.577298
vt -0.961662 0.659083
vt -1.059105 0.740869
vt -0.961662 0.822654
vt -0.961662 0.740869
vt -1.059105 0.904440
vt -1.059105 0.822654
vt -0.961662 0.904440
vt -1.059105 0.986225
vt -0.864218 0.004798
vt -0.864218 -0.076987
vt -0.864218 0.086584
vt -0.864218 0.250155
vt -0.864218 0.168370
vt -0.864218 0.413726
vt -0.864218 0.331941
vt -0.864218 0.495512
vt -0.864218 0.659083
vt -0.864218 0.577298
vt -0.864218 0.822654
vt -0.864218 0.740869
vt -0.864218 0.904440
vt -0.864218 0.986225
vt -0.766773 -0.076987
vt -0.766773 0.004798
vt -0.766774 0.168370
vt -0.766773 0.086584
vt -0.766774 0.331941
vt -0.766774 0.250155
vt -0.766774 0.413726
vt -0.766774 0.577298
vt -0.766774 0.495512
vt -0.766774 0.740869
vt -0.766774 0.659083
vt -0.766774 0.822654
vt -0.766774 0.904440
vt -0.669329 0.004798
vt -0.669329 -0.076987
vt -0.669329 0.086584
vt -0.669329 0.250155
vt -0.669329 0.168370
vt -0.669329 0.331941
vt -0.669329 0.495512
vt -0.669329 0.413726
vt -0.669329 0.659083
vt -0.669329 0.577298
vt -0.669329 0.740869
vt -0.669330 0.904440
vt -0.669330 0.822654
vt -0.669330 0.986225
vt -0.571885 0.004798
vt -0.571885 -0.076987
vt -0.571885 0.086584
vt -0.571885 0.250155
vt -0.571885 0.168370
vt -0.571885 0.331941
vt -0.571885 0.413726
vt -0.571885 0.577298
vt -0.571885 0.495512
vt -0.571885 0.740869
vt -0.571885 0.659083
vt -0.571885 0.822654
vt -0.571885 0.904440
vt -0.474441 -0.076987
vt -0.474441 0.086584
vt -0.474441 0.004798
vt -0.474441 0.250155
vt -0.474441 0.168370
vt -0.474441 0.331941
vt -0.474441 0.495512
vt -0.474441 0.413726
vt -0.474441 0.659083
vt -0.474441 0.577298
vt -0.474441 0.740869
vt -0.474441 0.904440
vt -0.474441 0.822654
vt -0.474441 0.986225
vt -0.376997 -0.076987
vt -0.376997 0.086584
vt -0.376997 0.004798
vt -0.376997 0.168370
vt -0.376997 0.250155
vt -0.376997 0.413726
vt -0.376997 0.331941
vt -0.376997 0.495512
vt -0.376997 0.659083
vt -0.376997 0.577298
vt -0.376997 0.740869
vt -0.376997 0.822654
vt -0.376997 0.904440
vt -0.279553 0.004798
vt -0.279553 -0.076987
vt -0.279553 0.168370
vt -0.279553 0.086584
vt -0.279553 0.331941
vt -0.279553 0.250155
vt -0.279553 0.413726
vt -0.279553 0.577298
vt -0.279553 0.495512
vt -0.279553 0.659083
vt -0.279553 0.822654
vt -0.279553 0.740869
vt -0.279553 0.904440
vt -0.279553 0.986225
vt -0.182109 0.004798
vt -0.182109 -0.076987
vt -0.182109 0.086584
vt -0.182109 0.250155
vt -0.182109 0.168370
vt -0.182109 0.413726
vt -0.182109 0.331941
vt -0.182109 0.495512
vt -0.182109 0.659083
vt -0.182109 0.577298
vt -0.182109 0.740869
vt -0.182109 0.904440
vt -0.182109 0.822654
vt -0.182109 0.986225
vt -0.084665 -0.076987
vt -0.084665 0.004798
vt -0.084665 0.168370
vt -0.084665 0.086584
vt -0.084665 0.331941
vt -0.084665 0.250155
vt -0.084665 0.495512
vt -0.084665 0.413726
vt -0.084665 0.577298
vt -0.084665 0.659083
vt -0.084665 0.822654
vt -0.084665 0.740869
vt -0.084665 0.904440
vt 0.012779 0.004798
vt 0.012779 -0.076987
vt 0.012779 0.086584
vt 0.012779 0.168370
vt 0.012779 0.331941
vt 0.012779 0.250155
vt 0.012779 0.413726
vt 0.012779 0.577298
vt 0.012779 0.495512
vt 0.012779 0.659083
vt 0.012779 0.740869
vt 0.012779 0.822654
vt 0.012779 0.986225
vt 0.012779 0.904440
vt 0.110223 0.004798
vt 0.110223 -0.076987
vt 0.110223 0.086584
vt 0.110223 0.250155
vt 0.110223 0.168370
vt 0.110223 0.331941
vt 0.110223 0.495512
vt 0.110223 0.413726
vt 0.110223 0.659083
vt 0.110223 0.577298
vt 0.110223 0.740869
vt 0.110223 0.904440
vt 0.110223 0.822654
vt 0.207667 -0.076987
vt 0.207667 0.086584
vt 0.207667 0.004798
vt 0.207667 0.168370
vt 0.207667 0.250155
vt 0.207667 0.331941
vt 0.207667 0.495512
vt 0.207667 0.413726
vt 0.207667 0.577298
vt 0.207667 0.659083
vt 0.207667 0.822654
vt 0.207667 0.740869
vt 0.207667 0.904440
vt 0.207667 0.986225
vt 0.305112 0.004798
vt 0.305112 -0.076987
vt 0.305112 0.086584
vt 0.305112 0.168370
vt 0.305111 0.331941
vt 0.305112 0.250155
vt 0.305112 0.413726
vt 0.305112 0.495512
vt 0.305112 0.659083
vt 0.305112 0.577298
vt 0.305112 0.740869
vt 0.305112 0.904440
vt 0.305112 0.822654
vt 0.305112 0.986225
vt 0.402556 -0.076987
vt 0.402556 0.086584
vt 0.402556 0.004798
vt 0.402556 0.168370
vt 0.402556 0.250155
vt 0.402556 0.331941
vt 0.402556 0.495512
vt 0.402556 0.413726
vt 0.402556 0.577298
vt 0.402556 0.740869
vt 0.402556 0.659083
vt 0.402556 0.822654
vt 0.402556 0.904440
vt 0.500000 -0.076987
vt 0.500000 0.086584
vt 0.500000 0.004798
vt 0.500000 0.168370
vt 0.500000 0.250155
vt 0.500000 0.413726
vt 0.500000 0.331941
vt 0.500000 0.495512
vt 0.500000 0.577298
vt 0.500000 0.659083
vt 0.500000 0.740869
vt 0.500000 0.904440
vt 0.500000 0.822654
vt 0.500000 0.986225
vt 0.597444 0.004798
vt 0.597444 -0.076987
vt 0.597444 0.168370
vt 0.597444 0.086584
vt 0.597444 0.250155
vt 0.597444 0.331941
vt 0.597444 0.495512
vt 0.597444 0.413726
vt 0.597444 0.659083
vt 0.597444 0.577298
vt 0.597444 0.740869
vt 0.597444 0.822654
vt 0.597444 0.904440
vt 0.694888 -0.076987
vt 0.694888 0.086584
vt 0.694888 0.004798
vt 0.694888 0.168370
vt 0.694888 0.331941
vt 0.694888 0.250155
vt 0.694888 0.413726
vt 0.694888 0.577298
vt 0.694888 0.495512
vt 0.694888 0.659083
vt 0.694888 0.822654
vt 0.694888 0.740869
vt 0.694888 0.904440
vt 0.694888 0.986225
vt 0.792332 0.004798
vt 0.792332 -0.076987
vt 0.792332 0.168370
vt 0.792332 0.086584
vt 0.792332 0.250155
vt 0.792332 0.413726
vt 0.792332 0.331941
vt 0.792332 0.495512
vt 0.792332 0.659083
vt 0.792332 0.577298
vt 0.792332 0.740869
vt 0.792332 0.822654
vt 0.792332 0.904440
vt 0.792332 0.986225
vt 0.889776 -0.076987
vt 0.889776 0.086584
vt 0.889776 0.004798
vt 0.889776 0.168370
vt 0.889776 0.250155
vt 0.889776 0.331941
vt 0.889776 0.413726
vt 0.889776 0.577298
vt 0.889776 0.495512
vt 0.889776 0.740869
vt 0.889776 0.659083
vt 0.889776 0.904440
vt 0.889776 0.822654
vt 0.987220 0.004798
vt 0.987220 -0.076987
vt 0.987220 0.086584
vt 0.987220 0.168370
vt 0.987220 0.250155
vt 0.987220 0.331941
vt 0.987220 0.413726
vt 0.987220 0.577298
vt 0.987220 0.495512
vt 0.987220 0.659083
vt 0.987220 0.740869
vt 0.987220 0.822654
vt 0.987220 0.904440
vt 0.889776 0.986225
vt 1.084664 -0.076987
vt 1.084664 0.004798
vt 1.084664 0.168370
vt 1.084664 0.086584
vt 1.084664 0.331941
vt 1.084664 0.250155
vt 1.084664 0.495512
vt 1.084664 0.413726
vt 1.084664 0.577298
vt 1.084664 0.659083
vt 1.084664 0.822654
vt 1.084664 0.740869
vt 1.084664 0.904440
vt 0.987220 0.986225
vt 1.182108 0.004798
vt 1.182108 -0.076987
vt 1.182108 0.086584
vt 1.182108 0.250155
vt 1.182108 0.168369
vt 1.182108 0.331941
vt 1.182108 0.413726
vt 1.182108 0.495512
vt 1.182108 0.577298
vt 1.182108 0.659083
vt 1.182108 0.822654
vt 1.182108 0.740869
vt 1.182108 0.904440
vt 1.182108 0.986225
vt 1.279552 0.004798
vt 1.279552 -0.076987
vt 1.279552 0.086584
vt 1.279552 0.168369
vt 1.279552 0.250155
vt 1.279552 0.331941
vt 1.279552 0.413726
vt 1.279552 0.495512
vt 1.279552 0.577298
vt 1.279552 0.659083
vt 1.279552 0.822654
vt 1.279552 0.740869
vt 1.279552 0.904440
vt 1.279552 0.986225
vt 1.376996 -0.076987
vt 1.376996 0.004798
vt 1.376996 0.168369
vt 1.376996 0.086584
vt 1.376996 0.250155
vt 1.376996 0.331941
vt 1.376996 0.413726
vt 1.376996 0.495512
vt 1.376996 0.659083
vt 1.376996 0.577298
vt 1.376996 0.822654
vt 1.376996 0.740869
vt 1.376996 0.986225
vt 1.376996 0.904440
vt 1.474441 -0.076987
vt 1.474440 0.086584
vt 1.474441 0.004798
vt 1.474440 0.168369
vt 1.474440 0.331941
vt 1.474440 0.250155
vt 1.474440 0.413726
vt 1.474440 0.577298
vt 1.474440 0.495512
vt 1.474441 0.740869
vt 1.474440 0.659083
vt 1.474441 0.822654
vt 1.474441 0.904440
vt 1.571885 0.004798
vt 1.571885 -0.076987
vt 1.571885 0.086584
vt 1.571885 0.250155
vt 1.571885 0.168369
vt 1.571885 0.331941
vt 1.571885 0.413726
vt 1.571885 0.495512
vt 1.571885 0.659083
vt 1.571885 0.577298
vt 1.571885 0.740869
vt 1.571885 0.822654
vt 1.571885 0.986225
vt 1.571885 0.904440
vt 1.669329 -0.076987
vt 1.669329 0.086584
vt 1.669329 0.004798
vt 1.669329 0.168369
vt 1.669329 0.250155
vt 1.669329 0.331941
vt 1.669329 0.495512
vt 1.669329 0.413726
vt 1.669329 0.577298
vt 1.669329 0.659083
vt 1.669329 0.740869
vt 1.669329 0.822654
vt 1.669329 0.904440
vt 1.766773 0.004798
vt 1.766773 -0.076987
vt 1.766773 0.168369
vt 1.766773 0.086584
vt 1.766773 0.250155
vt 1.766773 0.413726
vt 1.766773 0.331941
vt 1.766773 0.577298
vt 1.766773 0.495512
vt 1.766773 0.740869
vt 1.766773 0.659083
vt 1.766773 0.822654
vt 1.766773 0.904440
vt 1.669329 0.986225
vt 1.864217 0.004798
vt 1.864217 -0.076987
vt 1.864217 0.086584
vt 1.864217 0.250155
vt 1.864217 0.168369
vt 1.864217 0.331941
vt 1.864217 0.495512
vt 1.864217 0.413726
vt 1.864217 0.577298
vt 1.864217 0.659083
vt 1.864217 0.740869
vt 1.864217 0.822654
vt 1.864217 0.986225
vt 1.864217 0.904440
vt 1.961661 -0.076987
vt 1.961661 0.086584
vt 1.961661 0.004798
vt 1.961661 0.250155
vt 1.961661 0.168369
vt 1.961661 0.331941
vt 1.961661 0.413726
vt 1.961661 0.577298
vt 1.961661 0.495512
vt 1.961661 0.659083
vt 1.961661 0.740869
vt 1.961661 0.904440
vt 1.961661 0.822654
vt 2.059105 0.004798
vt 2.059105 -0.076987
vt 2.059105 0.168369
vt 2.059105 0.086584
vt 2.059105 0.250155
vt 2.059105 0.413726
vt 2.059105 0.331941
vt 2.059105 0.495512
vt 2.059105 0.577298
vt 2.059105 0.659083
vt 2.059105 0.822654
vt 2.059105 0.740869
vt 2.059105 0.986225
vt 2.059105 0.904440
vt -0.961662 0.986225
vt -0.766774 0.986225
vt -0.571885 0.986225
vt -0.376997 0.986225
vt -0.084665 0.986225
vt 0.110223 0.986225
vt 0.402556 0.986225
vt 0.597444 0.986225
vt 1.084664 0.986225
vt 1.474441 0.986225
vt 1.766773 0.986225
vt 1.961661 0.986225
vt 1.864217 1.068011
vt 1.669329 1.068011
vt 1.474441 1.068011
vt 1.182108 1.068011
vt 0.987220 1.068011
vt 0.792332 1.068011
vt 0.402556 1.068011
vt 0.110223 1.068011
vt -0.182109 1.068011
vt -0.376997 1.068011
vt -0.669330 1.068011
vt -0.864218 1.068011
s 1
f 2/1/1 482/2/2 481/3/3
f 4/4/4 483/5/5 482/2/2
f 483/5/5 8/6/6 484/7/7
f 8/6/6 485/8/8 484/7/7
f 485/8/8 12/9/9 486/10/10
f 12/9/9 487/11/11 486/10/10
f 487/11/11 16/12/12 488/13/13
f 16/12/12 489/14/14 488/13/13
f 18/15/15 490/16/16 489/14/14
f 490/16/16 22/17/17 491/18/18
f 22/17/17 492/19/19 491/18/18
f 492/19/19 26/20/20 493/21/21
f 26/20/20 494/22/22 493/21/21
f 494/22/22 30/23/23 495/24/24
f 30/23/23 496/25/25 495/24/24
f 32/26/26 497/27/27 496/25/25
f 34/28/28 498/29/29 497/27/27
f 498/29/29 38/30/30 499/31/31
f 38/30/30 500/32/32 499/31/31
f 40/33/33 501/34/34 500/32/32
f 501/34/34 44/35/35 502/36/36
f 502/36/36 46/37/37 503/38/38
f 46/37/37 504/39/39 503/38/38
f 504/39/39 50/40/40 505/41/41
f 50/40/40 506/42/42 505/41/41
f 506/42/42 54/43/43 507/44/44
f 54/43/43 508/45/45 507/44/44
f 56/46/46 509/47/47 508/45/45
f 509/47/47 60/48/48 510/49/49
f 60/48/48 511/50/50 510/49/49
f 511/50/50 64/51/51 512/52/52
f 512/52/52 2/53/1 481/54/3
f 63/55/53 65/56/54 1/57/55
f 480/58/56 66/59/57 65/56/54
f 478/60/58 66/59/57 479/61/59
f 478/60/58 68/62/60 67/63/61
f 477/64/62 69/65/63 68/62/60
f 475/66/64 69/65/63 476/67/65
f 475/66/64 71/68/66 70/69/67
f 473/70/68 71/68/66 474/71/69
f 473/70/68 73/72/70 72/73/71
f 472/74/72 74/75/73 73/72/70
f 470/76/74 74/75/73 471/77/75
f 470/76/74 76/78/76 75/79/77
f 469/80/78 77/81/79 76/78/76
f 467/82/80 63/55/53 61/83/81
f 467/82/80 479/61/59 480/58/56
f 466/84/82 478/60/58 479/61/59
f 464/85/83 478/60/58 465/86/84
f 464/85/83 476/67/65 477/64/62
f 462/87/85 476/67/65 463/88/86
f 461/89/87 475/66/64 462/87/85
f 461/89/87 473/70/68 474/71/69
f 459/90/88 473/70/68 460/91/89
f 459/90/88 471/77/75 472/74/72
f 457/92/90 471/77/75 458/93/91
f 456/94/92 470/76/74 457/92/90
f 455/95/93 469/80/78 456/94/92
f 59/96/94 467/82/80 61/83/81
f 454/97/95 466/84/82 467/82/80
f 452/98/96 466/84/82 453/99/97
f 452/98/96 464/85/83 465/86/84
f 450/100/98 464/85/83 451/101/99
f 450/100/98 462/87/85 463/88/86
f 449/102/100 461/89/87 462/87/85
f 447/103/101 461/89/87 448/104/102
f 447/103/101 459/90/88 460/91/89
f 445/105/103 459/90/88 446/106/104
f 444/107/105 458/93/91 445/105/103
f 444/107/105 456/94/92 457/92/90
f 443/108/106 455/95/93 456/94/92
f 441/109/107 59/96/94 57/110/108
f 440/111/109 454/97/95 441/109/107
f 440/111/109 452/98/96 453/99/97
f 438/112/110 452/98/96 439/113/111
f 438/112/110 450/100/98 451/101/99
f 437/114/112 449/102/100 450/100/98
f 435/115/113 449/102/100 436/116/114
f 435/115/113 447/103/101 448/104/102
f 433/117/115 447/103/101 434/118/116
f 433/117/115 445/105/103 446/106/104
f 432/119/117 444/107/105 445/105/103
f 430/120/118 444/107/105 431/121/119
f 429/122/120 443/108/106 430/120/118
f 428/123/121 57/110/108 55/124/122
f 427/125/123 441/109/107 428/123/121
f 427/125/123 439/113/111 440/111/109
f 425/126/124 439/113/111 426/127/125
f 424/128/126 438/112/110 425/126/124
f 423/129/127 437/114/112 424/128/126
f 423/129/127 435/115/113 436/116/114
f 421/130/128 435/115/113 422/131/129
f 421/130/128 433/117/115 434/118/116
f 419/132/130 433/117/115 420/133/131
f 418/134/132 432/119/117 419/132/130
f 418/134/132 430/120/118 431/121/119
f 417/135/133 429/122/120 430/120/118
f 53/136/134 428/123/121 55/124/122
f 414/137/135 428/123/121 415/138/136
f 414/137/135 426/127/125 427/125/123
f 412/139/137 426/127/125 413/140/138
f 412/139/137 424/128/126 425/126/124
f 411/141/139 423/129/127 424/128/126
f 409/142/140 423/129/127 410/143/141
f 409/142/140 421/130/128 422/131/129
f 407/144/142 421/130/128 408/145/143
f 407/144/142 419/132/130 420/133/131
f 406/146/144 418/134/132 419/132/130
f 404/147/145 418/134/132 405/148/146
f 403/149/147 417/135/133 404/147/145
f 51/150/148 415/138/136 53/136/134
f 401/151/149 415/138/136 402/152/150
f 400/153/151 414/137/135 401/151/149
f 400/153/151 412/139/137 413/140/138
f 399/154/152 411/141/139 412/139/137
f 397/155/153 411/141/139 398/156/154
f 397/155/153 409/142/140 410/143/141
f 396/157/155 408/145/143 409/142/140
f 394/158/156 408/145/143 395/159/157
f 393/160/158 407/144/142 394/158/156
f 392/161/159 406/146/144 393/160/158
f 392/161/159 404/147/145 405/148/146
f 391/162/160 403/149/147 404/147/145
f 389/163/161 51/150/148 49/164/162
f 389/163/161 401/151/149 402/152/150
f 387/165/163 401/151/149 388/166/164
f 387/165/163 399/154/152 400/153/151
f 385/167/165 399/154/152 386/168/166
f 384/169/167 398/156/154 385/167/165
f 384/169/167 396/157/155 397/155/153
f 382/170/168 396/157/155 383/171/169
f 382/170/168 394/158/156 395/159/157
f 381/172/170 393/160/158 394/158/156
f 379/173/171 393/160/158 380/174/172
f 378/175/173 392/161/159 379/173/171
f 377/176/174 391/162/160 378/175/173
f 376/177/175 49/164/162 47/178/176
f 376/177/175 388/166/164 389/163/161
f 375/179/177 387/165/163 388/166/164
f 373/180/178 387/165/163 374/181/179
f 373/180/178 385/167/165 386/168/166
f 371/182/180 385/167/165 372/183/181
f 370/184/182 384/169/167 371/182/180
f 370/184/182 382/170/168 383/171/169
f 368/185/183 382/170/168 369/186/184
f 367/187/185 381/172/170 368/185/183
f 367/187/185 379/173/171 380/174/172
f 365/188/186 379/173/171 366/189/187
f 364/190/188 378/175/173 365/188/186
f 45/191/189 376/177/175 47/178/176
f 363/192/190 375/179/177 376/177/175
f 361/193/191 375/179/177 362/194/192
f 361/193/191 373/180/178 374/181/179
f 359/195/193 373/180/178 360/196/194
f 359/195/193 371/182/180 372/183/181
f 357/197/195 371/182/180 358/198/196
f 356/199/197 370/184/182 357/197/195
f 356/199/197 368/185/183 369/186/184
f 355/200/198 367/187/185 368/185/183
f 353/201/199 367/187/185 354/202/200
f 353/201/199 365/188/186 366/189/187
f 352/203/201 364/190/188 365/188/186
f 350/204/202 45/191/189 43/205/203
f 349/206/204 363/192/190 350/204/202
f 349/206/204 361/193/191 362/194/192
f 348/207/205 360/196/194 361/193/191
f 346/208/206 360/196/194 347/209/207
f 345/210/208 359/195/193 346/208/206
f 345/210/208 357/197/195 358/198/196
f 343/211/209 357/197/195 344/212/210
f 342/213/211 356/199/197 343/211/209
f 342/213/211 354/202/200 355/200/198
f 341/214/212 353/201/199 354/202/200
f 340/215/213 352/203/201 353/201/199
f 338/216/214 352/203/201 339/217/215
f 337/218/216 43/205/203 41/219/217
f 337/218/216 349/206/204 350/204/202
f 336/220/218 348/207/205 349/206/204
f 334/221/219 348/207/205 335/222/220
f 334/221/219 346/208/206 347/209/207
f 333/223/221 345/210/208 346/208/206
f 331/224/222 345/210/208 332/225/223
f 331/224/222 343/211/209 344/212/210
f 329/226/224 343/211/209 330/227/225
f 329/226/224 341/214/212 342/213/211
f 328/228/226 340/215/213 341/214/212
f 326/229/227 340/215/213 327/230/228
f 326/229/227 338/216/214 339/217/215
f 39/231/229 337/218/216 41/219/217
f 323/232/230 337/218/216 324/233/231
f 322/234/232 336/220/218 323/232/230
f 322/234/232 334/221/219 335/222/220
f 321/235/233 333/223/221 334/221/219
f 320/236/234 332/225/223 333/223/221
f 318/237/235 332/225/223 319/238/236
f 317/239/237 331/224/222 318/237/235
f 317/239/237 329/226/224 330/227/225
f 316/240/238 328/228/226 329/226/224
f 314/241/239 328/228/226 315/242/240
f 313/243/241 327/230/228 314/241/239
f 312/244/242 326/229/227 313/243/241
f 311/245/243 39/231/229 37/246/244
f 311/245/243 323/232/230 324/233/231
f 310/247/245 322/234/232 323/232/230
f 309/248/246 321/235/233 322/234/232
f 307/249/247 321/235/233 308/250/248
f 306/251/249 320/236/234 307/249/247
f 306/251/249 318/237/235 319/238/236
f 305/252/250 317/239/237 318/237/235
f 303/253/251 317/239/237 304/254/252
f 302/255/253 316/240/238 303/253/251
f 302/255/253 314/241/239 315/242/240
f 300/256/254 314/241/239 301/257/255
f 299/258/256 313/243/241 300/256/254
f 35/259/257 311/245/243 37/246/244
f 297/260/258 311/245/243 298/261/259
f 296/262/260 310/247/245 297/260/258
f 295/263/261 309/248/246 296/262/260
f 295/263/261 307/249/247 308/250/248
f 294/264/262 306/251/249 307/249/247
f 292/265/263 306/251/249 293/266/264
f 292/265/263 304/254/252 305/252/250
f 291/267/265 303/253/251 304/254/252
f 289/268/266 303/253/251 290/269/267
f 288/270/268 302/255/253 289/268/266
f 288/270/268 300/256/254 301/257/255
f 287/271/269 299/258/256 300/256/254
f 33/272/270 298/261/259 35/259/257
f 284/273/271 298/261/259 285/274/272
f 283/275/273 297/260/258 284/273/271
f 282/276/274 296/262/260 283/275/273
f 282/276/274 294/264/262 295/263/261
f 280/277/275 294/264/262 281/278/276
f 280/277/275 292/265/263 293/266/264
f 279/279/277 291/267/265 292/265/263
f 278/280/278 290/269/267 291/267/265
f 277/281/279 289/268/266 290/269/267
f 276/282/280 288/270/268 289/268/266
f 274/283/281 288/270/268 275/284/282
f 273/285/283 287/271/269 274/283/281
f 272/286/284 33/272/270 31/287/285
f 272/286/284 284/273/271 285/274/272
f 270/288/286 284/273/271 271/289/287
f 270/288/286 282/276/274 283/275/273
f 269/290/288 281/278/276 282/276/274
f 268/291/289 280/277/275 281/278/276
f 266/292/290 280/277/275 267/293/291
f 266/292/290 278/280/278 279/279/277
f 264/294/292 278/280/278 265/295/293
f 263/296/294 277/281/279 264/294/292
f 262/297/295 276/282/280 263/296/294
f 262/297/295 274/283/281 275/284/282
f 261/298/296 273/285/283 274/283/281
f 29/299/297 272/286/284 31/287/285
f 258/300/298 272/286/284 259/301/299
f 258/300/298 270/288/286 271/289/287
f 257/302/300 269/290/288 270/288/286
f 255/303/301 269/290/288 256/304/302
f 254/305/303 268/291/289 255/303/301
f 254/305/303 266/292/290 267/293/291
f 252/306/304 266/292/290 253/307/305
f 252/306/304 264/294/292 265/295/293
f 251/308/306 263/296/294 264/294/292
f 249/309/307 263/296/294 250/310/308
f 248/311/309 262/297/295 249/309/307
f 247/312/310 261/298/296 248/311/309
f 246/313/311 29/299/297 27/314/312
f 246/313/311 258/300/298 259/301/299
f 244/315/313 258/300/298 245/316/314
f 243/317/315 257/302/300 244/315/313
f 243/317/315 255/303/301 256/304/302
f 241/318/316 255/303/301 242/319/317
f 240/320/318 254/305/303 241/318/316
f 240/320/318 252/306/304 253/307/305
f 238/321/319 252/306/304 239/322/320
f 237/323/321 251/308/306 238/321/319
f 236/324/322 250/310/308 237/323/321
f 235/325/323 249/309/307 236/324/322
f 234/326/324 248/311/309 235/325/323
f 25/327/325 246/313/311 27/314/312
f 232/328/326 246/313/311 233/329/327
f 231/330/328 245/316/314 232/328/326
f 231/330/328 243/317/315 244/315/313
f 230/331/329 242/319/317 243/317/315
f 229/332/330 241/318/316 242/319/317
f 228/333/331 240/320/318 241/318/316
f 226/334/332 240/320/318 227/335/333
f 226/334/332 238/321/319 239/322/320
f 224/336/334 238/321/319 225/337/335
f 224/336/334 236/324/322 237/323/321
f 222/338/336 236/324/322 223/339/337
f 222/338/336 234/326/324 235/325/323
f 220/340/338 25/327/325 23/341/339
f 220/340/338 232/328/326 233/329/327
f 219/342/340 231/330/328 232/328/326
f 218/343/341 230/331/329 231/330/328
f 217/344/342 229/332/330 230/331/329
f 216/345/343 228/333/331 229/332/330
f 215/346/344 227/335/333 228/333/331
f 213/347/345 227/335/333 214/348/346
f 213/347/345 225/337/335 226/334/332
f 212/349/347 224/336/334 225/337/335
f 211/350/348 223/339/337 224/336/334
f 210/351/349 222/338/336 223/339/337
f 209/352/350 221/353/351 222/338/336
f 21/354/352 220/340/338 23/341/339
f 207/355/353 219/342/340 220/340/338
f 205/356/354 219/342/340 206/357/355
f 205/356/354 217/344/342 218/343/341
f 203/358/356 217/344/342 204/359/357
f 203/358/356 215/346/344 216/345/343
f 201/360/358 215/346/344 202/361/359
f 201/360/358 213/347/345 214/348/346
f 200/362/360 212/349/347 213/347/345
f 199/363/361 211/350/348 212/349/347
f 197/364/362 211/350/348 198/365/363
f 196/366/364 210/351/349 197/364/362
f 196/366/364 208/367/365 209/352/350
f 194/368/366 21/354/352 19/369/367
f 193/370/368 207/355/353 194/368/366
f 193/370/368 205/356/354 206/357/355
f 191/371/369 205/356/354 192/372/370
f 190/373/371 204/359/357 191/371/369
f 189/374/372 203/358/356 190/373/371
f 189/374/372 201/360/358 202/361/359
f 188/375/373 200/362/360 201/360/358
f 187/376/374 199/363/361 200/362/360
f 186/377/375 198/365/363 199/363/361
f 184/378/376 198/365/363 185/379/377
f 183/380/378 197/364/362 184/378/376
f 182/381/379 196/366/364 183/380/378
f 181/382/380 19/369/367 17/383/381
f 180/384/382 194/368/366 181/382/380
f 180/384/382 192/372/370 193/370/368
f 179/385/383 191/371/369 192/372/370
f 178/386/384 190/373/371 191/371/369
f 177/387/385 189/374/372 190/373/371
f 176/388/386 188/375/373 189/374/372
f 175/389/387 187/376/374 188/375/373
f 174/390/388 186/377/375 187/376/374
f 173/391/389 185/379/377 186/377/375
f 171/392/390 185/379/377 172/393/391
f 170/394/392 184/378/376 171/392/390
f 169/395/393 183/380/378 170/394/392
f 15/396/394 181/382/380 17/383/381
f 168/397/395 180/384/382 181/382/380
f 166/398/396 180/384/382 167/399/397
f 165/400/398 179/385/383 166/398/396
f 164/401/399 178/386/384 165/400/398
f 164/401/399 176/388/386 177/387/385
f 163/402/400 175/389/387 176/388/386
f 162/403/401 174/390/388 175/389/387
f 160/404/402 174/390/388 161/405/403
f 160/404/402 172/393/391 173/391/389
f 158/406/404 172/393/391 159/407/405
f 158/406/404 170/394/392 171/392/390
f 156/408/406 170/394/392 157/409/407
f 13/410/408 168/397/395 15/396/394
f 154/411/409 168/397/395 155/412/410
f 154/411/409 166/398/396 167/399/397
f 153/413/411 165/400/398 166/398/396
f 151/414/412 165/400/398 152/415/413
f 150/416/414 164/401/399 151/414/412
f 150/416/414 162/403/401 163/402/400
f 148/417/415 162/403/401 149/418/416
f 148/417/415 160/404/402 161/405/403
f 146/419/417 160/404/402 147/420/418
f 146/419/417 158/406/404 159/407/405
f 145/421/419 157/409/407 158/406/404
f 144/422/420 156/408/406 157/409/407
f 142/423/421 13/410/408 11/424/422
f 142/423/421 154/411/409 155/412/410
f 141/425/423 153/413/411 154/411/409
f 139/426/424 153/413/411 140/427/425
f 139/426/424 151/414/412 152/415/413
f 138/428/426 150/416/414 151/414/412
f 137/429/427 149/418/416 150/416/414
f 136/430/428 148/417/415 149/418/416
f 134/431/429 148/417/415 135/432/430
f 133/433/431 147/420/418 134/431/429
f 133/433/431 145/421/419 146/419/417
f 132/434/432 144/422/420 145/421/419
f 130/435/433 144/422/420 131/436/434
f 9/437/435 142/423/421 11/424/422
f 128/438/436 142/423/421 129/439/437
f 127/440/438 141/425/423 128/438/436
f 127/440/438 139/426/424 140/427/425
f 126/441/439 138/428/426 139/426/424
f 125/442/440 137/429/427 138/428/426
f 123/443/441 137/429/427 124/444/442
f 122/445/443 136/430/428 123/443/441
f 121/446/444 135/432/430 122/445/443
f 120/447/445 134/431/429 121/446/444
f 120/447/445 132/434/432 133/433/431
f 119/448/446 131/436/434 132/434/432
f 118/449/447 130/435/433 131/436/434
f 116/450/448 9/437/435 7/451/449
f 116/450/448 128/438/436 129/439/437
f 114/452/450 128/438/436 115/453/451
f 114/452/450 126/441/439 127/440/438
f 113/454/452 125/442/440 126/441/439
f 111/455/453 125/442/440 112/456/454
f 111/455/453 123/443/441 124/444/442
f 109/457/455 123/443/441 110/458/456
f 109/457/455 121/446/444 122/445/443
f 107/459/457 121/446/444 108/460/458
f 106/461/459 120/447/445 107/459/457
f 106/461/459 118/449/447 119/448/446
f 105/462/460 117/463/461 118/449/447
f 103/464/462 7/451/449 5/465/463
f 102/466/464 116/450/448 103/464/462
f 102/466/464 114/452/450 115/453/451
f 100/467/465 114/452/450 101/468/466
f 99/469/467 113/454/452 100/467/465
f 99/469/467 111/455/453 112/456/454
f 97/470/468 111/455/453 98/471/469
f 96/472/470 110/458/456 97/470/468
f 95/473/471 109/457/455 96/472/470
f 94/474/472 108/460/458 95/473/471
f 93/475/473 107/459/457 94/474/472
f 93/475/473 105/462/460 106/461/459
f 91/476/474 105/462/460 92/477/475
f 3/478/476 103/464/462 5/465/463
f 89/479/477 103/464/462 90/480/478
f 89/479/477 101/468/466 102/466/464
f 87/481/479 101/468/466 88/482/480
f 86/483/481 100/467/465 87/481/479
f 86/483/481 98/471/469 99/469/467
f 85/484/482 97/470/468 98/471/469
f 83/485/483 97/470/468 84/486/484
f 82/487/485 96/472/470 83/485/483
f 82/487/485 94/474/472 95/473/471
f 81/488/486 93/475/473 94/474/472
f 79/489/487 93/475/473 80/490/488
f 79/489/487 91/476/474 92/477/475
f 65/491/54 3/478/476 1/492/55
f 65/491/54 89/479/477 90/480/478
f 67/493/61 89/479/477 66/494/57
f 67/493/61 87/481/479 88/482/480
f 68/495/60 86/483/481 87/481/479
f 70/496/67 86/483/481 69/497/63
f 71/498/66 85/484/482 70/496/67
f 71/498/66 83/485/483 84/486/484
f 72/499/71 82/487/485 83/485/483
f 73/500/70 81/488/486 82/487/485
f 75/501/77 81/488/486 74/502/73
f 75/501/77 79/489/487 80/490/488
f 77/503/79 79/489/487 76/504/76
f 468/505/489 481/54/3 77/81/79
f 455/95/93 512/52/52 468/505/489
f 442/506/490 511/50/50 455/95/93
f 429/122/120 510/49/49 442/506/490
f 508/45/45 429/122/120 416/507/491
f 507/44/44 416/507/491 403/149/147
f 390/508/492 507/44/44 403/149/147
f 505/41/41 390/508/492 377/176/174
f 364/190/188 505/41/41 377/176/174
f 351/509/493 504/39/39 364/190/188
f 502/36/36 351/509/493 338/216/214
f 325/510/494 502/36/36 338/216/214
f 500/32/32 325/510/494 312/244/242
f 499/31/31 312/244/242 299/258/256
f 286/511/495 499/31/31 299/258/256
f 497/27/27 286/511/495 273/285/283
f 260/512/496 497/27/27 273/285/283
f 495/24/24 260/512/496 247/312/310
f 234/326/324 495/24/24 247/312/310
f 221/353/351 494/22/22 234/326/324
f 208/367/365 493/21/21 221/353/351
f 491/18/18 208/367/365 195/513/497
f 490/16/16 195/513/497 182/381/379
f 489/14/14 182/381/379 169/395/393
f 488/13/13 169/395/393 156/408/406
f 143/514/498 488/13/13 156/408/406
f 486/10/10 143/514/498 130/435/433
f 117/463/461 486/10/10 130/435/433
f 484/7/7 117/463/461 104/515/499
f 91/476/474 484/7/7 104/515/499
f 78/516/500 483/5/5 91/476/474
f 481/3/3 78/516/500 77/503/79
f 2/1/1 4/4/4 482/2/2
f 4/4/4 6/517/501 483/5/5
f 483/5/5 6/517/501 8/6/6
f 8/6/6 10/518/502 485/8/8
f 485/8/8 10/518/502 12/9/9
f 12/9/9 14/519/503 487/11/11
f 487/11/11 14/519/503 16/12/12
f 16/12/12 18/15/15 489/14/14
f 18/15/15 20/520/504 490/16/16
f 490/16/16 20/520/504 22/17/17
f 22/17/17 24/521/505 492/19/19
f 492/19/19 24/521/505 26/20/20
f 26/20/20 28/522/506 494/22/22
f 494/22/22 28/522/506 30/23/23
f 30/23/23 32/26/26 496/25/25
f 32/26/26 34/28/28 497/27/27
f 34/28/28 36/523/507 498/29/29
f 498/29/29 36/523/507 38/30/30
f 38/30/30 40/33/33 500/32/32
f 40/33/33 42/524/508 501/34/34
f 501/34/34 42/524/508 44/35/35
f 502/36/36 44/35/35 46/37/37
f 46/37/37 48/525/509 504/39/39
f 504/39/39 48/525/509 50/40/40
f 50/40/40 52/526/510 506/42/42
f 506/42/42 52/526/510 54/43/43
f 54/43/43 56/46/46 508/45/45
f 56/46/46 58/527/511 509/47/47
f 509/47/47 58/527/511 60/48/48
f 60/48/48 62/528/512 511/50/50
f 511/50/50 62/528/512 64/51/51
f 512/52/52 64/51/51 2/53/1
f 63/55/53 480/58/56 65/56/54
f 480/58/56 479/61/59 66/59/57
f 478/60/58 67/63/61 66/59/57
f 478/60/58 477/64/62 68/62/60
f 477/64/62 476/67/65 69/65/63
f 475/66/64 70/69/67 69/65/63
f 475/66/64 474/71/69 71/68/66
f 473/70/68 72/73/71 71/68/66
f 473/70/68 472/74/72 73/72/70
f 472/74/72 471/77/75 74/75/73
f 470/76/74 75/79/77 74/75/73
f 470/76/74 469/80/78 76/78/76
f 469/80/78 468/505/489 77/81/79
f 467/82/80 480/58/56 63/55/53
f 467/82/80 466/84/82 479/61/59
f 466/84/82 465/86/84 478/60/58
f 464/85/83 477/64/62 478/60/58
f 464/85/83 463/88/86 476/67/65
f 462/87/85 475/66/64 476/67/65
f 461/89/87 474/71/69 475/66/64
f 461/89/87 460/91/89 473/70/68
f 459/90/88 472/74/72 473/70/68
f 459/90/88 458/93/91 471/77/75
f 457/92/90 470/76/74 471/77/75
f 456/94/92 469/80/78 470/76/74
f 455/95/93 468/505/489 469/80/78
f 59/96/94 454/97/95 467/82/80
f 454/97/95 453/99/97 466/84/82
f 452/98/96 465/86/84 466/84/82
f 452/98/96 451/101/99 464/85/83
f 450/100/98 463/88/86 464/85/83
f 450/100/98 449/102/100 462/87/85
f 449/102/100 448/104/102 461/89/87
f 447/103/101 460/91/89 461/89/87
f 447/103/101 446/106/104 459/90/88
f 445/105/103 458/93/91 459/90/88
f 444/107/105 457/92/90 458/93/91
f 444/107/105 443/108/106 456/94/92
f 443/108/106 442/506/490 455/95/93
f 441/109/107 454/97/95 59/96/94
f 440/111/109 453/99/97 454/97/95
f 440/111/109 439/113/111 452/98/96
f 438/112/110 451/101/99 452/98/96
f 438/112/110 437/114/112 450/100/98
f 437/114/112 436/116/114 449/102/100
f 435/115/113 448/104/102 449/102/100
f 435/115/113 434/118/116 447/103/101
f 433/117/115 446/106/104 447/103/101
f 433/117/115 432/119/117 445/105/103
f 432/119/117 431/121/119 444/107/105
f 430/120/118 443/108/106 444/107/105
f 429/122/120 442/506/490 443/108/106
f 428/123/121 441/109/107 57/110/108
f 427/125/123 440/111/109 441/109/107
f 427/125/123 426/127/125 439/113/111
f 425/126/124 438/112/110 439/113/111
f 424/128/126 437/114/112 438/112/110
f 423/129/127 436/116/114 437/114/112
f 423/129/127 422/131/129 435/115/113
f 421/130/128 434/118/116 435/115/113
f 421/130/128 420/133/131 433/117/115
f 419/132/130 432/119/117 433/117/115
f 418/134/132 431/121/119 432/119/117
f 418/134/132 417/135/133 430/120/118
f 417/135/133 416/507/491 429/122/120
f 53/136/134 415/138/136 428/123/121
f 414/137/135 427/125/123 428/123/121
f 414/137/135 413/140/138 426/127/125
f 412/139/137 425/126/124 426/127/125
f 412/139/137 411/141/139 424/128/126
f 411/141/139 410/143/141 423/129/127
f 409/142/140 422/131/129 423/129/127
f 409/142/140 408/145/143 421/130/128
f 407/144/142 420/133/131 421/130/128
f 407/144/142 406/146/144 419/132/130
f 406/146/144 405/148/146 418/134/132
f 404/147/145 417/135/133 418/134/132
f 403/149/147 416/507/491 417/135/133
f 51/150/148 402/152/150 415/138/136
f 401/151/149 414/137/135 415/138/136
f 400/153/151 413/140/138 414/137/135
f 400/153/151 399/154/152 412/139/137
f 399/154/152 398/156/154 411/141/139
f 397/155/153 410/143/141 411/141/139
f 397/155/153 396/157/155 409/142/140
f 396/157/155 395/159/157 408/145/143
f 394/158/156 407/144/142 408/145/143
f 393/160/158 406/146/144 407/144/142
f 392/161/159 405/148/146 406/146/144
f 392/161/159 391/162/160 404/147/145
f 391/162/160 390/508/492 403/149/147
f 389/163/161 402/152/150 51/150/148
f 389/163/161 388/166/164 401/151/149
f 387/165/163 400/153/151 401/151/149
f 387/165/163 386/168/166 399/154/152
f 385/167/165 398/156/154 399/154/152
f 384/169/167 397/155/153 398/156/154
f 384/169/167 383/171/169 396/157/155
f 382/170/168 395/159/157 396/157/155
f 382/170/168 381/172/170 394/158/156
f 381/172/170 380/174/172 393/160/158
f 379/173/171 392/161/159 393/160/158
f 378/175/173 391/162/160 392/161/159
f 377/176/174 390/508/492 391/162/160
f 376/177/175 389/163/161 49/164/162
f 376/177/175 375/179/177 388/166/164
f 375/179/177 374/181/179 387/165/163
f 373/180/178 386/168/166 387/165/163
f 373/180/178 372/183/181 385/167/165
f 371/182/180 384/169/167 385/167/165
f 370/184/182 383/171/169 384/169/167
f 370/184/182 369/186/184 382/170/168
f 368/185/183 381/172/170 382/170/168
f 367/187/185 380/174/172 381/172/170
f 367/187/185 366/189/187 379/173/171
f 365/188/186 378/175/173 379/173/171
f 364/190/188 377/176/174 378/175/173
f 45/191/189 363/192/190 376/177/175
f 363/192/190 362/194/192 375/179/177
f 361/193/191 374/181/179 375/179/177
f 361/193/191 360/196/194 373/180/178
f 359/195/193 372/183/181 373/180/178
f 359/195/193 358/198/196 371/182/180
f 357/197/195 370/184/182 371/182/180
f 356/199/197 369/186/184 370/184/182
f 356/199/197 355/200/198 368/185/183
f 355/200/198 354/202/200 367/187/185
f 353/201/199 366/189/187 367/187/185
f 353/201/199 352/203/201 365/188/186
f 352/203/201 351/509/493 364/190/188
f 350/204/202 363/192/190 45/191/189
f 349/206/204 362/194/192 363/192/190
f 349/206/204 348/207/205 361/193/191
f 348/207/205 347/209/207 360/196/194
f 346/208/206 359/195/193 360/196/194
f 345/210/208 358/198/196 359/195/193
f 345/210/208 344/212/210 357/197/195
f 343/211/209 356/199/197 357/197/195
f 342/213/211 355/200/198 356/199/197
f 342/213/211 341/214/212 354/202/200
f 341/214/212 340/215/213 353/201/199
f 340/215/213 339/217/215 352/203/201
f 338/216/214 351/509/493 352/203/201
f 337/218/216 350/204/202 43/205/203
f 337/218/216 336/220/218 349/206/204
f 336/220/218 335/222/220 348/207/205
f 334/221/219 347/209/207 348/207/205
f 334/221/219 333/223/221 346/208/206
f 333/223/221 332/225/223 345/210/208
f 331/224/222 344/212/210 345/210/208
f 331/224/222 330/227/225 343/211/209
f 329/226/224 342/213/211 343/211/209
f 329/226/224 328/228/226 341/214/212
f 328/228/226 327/230/228 340/215/213
f 326/229/227 339/217/215 340/215/213
f 326/229/227 325/510/494 338/216/214
f 39/231/229 324/233/231 337/218/216
f 323/232/230 336/220/218 337/218/216
f 322/234/232 335/222/220 336/220/218
f 322/234/232 321/235/233 334/221/219
f 321/235/233 320/236/234 333/223/221
f 320/236/234 319/238/236 332/225/223
f 318/237/235 331/224/222 332/225/223
f 317/239/237 330/227/225 331/224/222
f 317/239/237 316/240/238 329/226/224
f 316/240/238 315/242/240 328/228/226
f 314/241/239 327/230/228 328/228/226
f 313/243/241 326/229/227 327/230/228
f 312/244/242 325/510/494 326/229/227
f 311/245/243 324/233/231 39/231/229
f 311/245/243 310/247/245 323/232/230
f 310/247/245 309/248/246 322/234/232
f 309/248/246 308/250/248 321/235/233
f 307/249/247 320/236/234 321/235/233
f 306/251/249 319/238/236 320/236/234
f 306/251/249 305/252/250 318/237/235
f 305/252/250 304/254/252 317/239/237
f 303/253/251 316/240/238 317/239/237
f 302/255/253 315/242/240 316/240/238
f 302/255/253 301/257/255 314/241/239
f 300/256/254 313/243/241 314/241/239
f 299/258/256 312/244/242 313/243/241
f 35/259/257 298/261/259 311/245/243
f 297/260/258 310/247/245 311/245/243
f 296/262/260 309/248/246 310/247/245
f 295/263/261 308/250/248 309/248/246
f 295/263/261 294/264/262 307/249/247
f 294/264/262 293/266/264 306/251/249
f 292/265/263 305/252/250 306/251/249
f 292/265/263 291/267/265 304/254/252
f 291/267/265 290/269/267 303/253/251
f 289/268/266 302/255/253 303/253/251
f 288/270/268 301/257/255 302/255/253
f 288/270/268 287/271/269 300/256/254
f 287/271/269 286/511/495 299/258/256
f 33/272/270 285/274/272 298/261/259
f 284/273/271 297/260/258 298/261/259
f 283/275/273 296/262/260 297/260/258
f 282/276/274 295/263/261 296/262/260
f 282/276/274 281/278/276 294/264/262
f 280/277/275 293/266/264 294/264/262
f 280/277/275 279/279/277 292/265/263
f 279/279/277 278/280/278 291/267/265
f 278/280/278 277/281/279 290/269/267
f 277/281/279 276/282/280 289/268/266
f 276/282/280 275/284/282 288/270/268
f 274/283/281 287/271/269 288/270/268
f 273/285/283 286/511/495 287/271/269
f 272/286/284 285/274/272 33/272/270
f 272/286/284 271/289/287 284/273/271
f 270/288/286 283/275/273 284/273/271
f 270/288/286 269/290/288 282/276/274
f 269/290/288 268/291/289 281/278/276
f 268/291/289 267/293/291 280/277/275
f 266/292/290 279/279/277 280/277/275
f 266/292/290 265/295/293 278/280/278
f 264/294/292 277/281/279 278/280/278
f 263/296/294 276/282/280 277/281/279
f 262/297/295 275/284/282 276/282/280
f 262/297/295 261/298/296 274/283/281
f 261/298/296 260/512/496 273/285/283
f 29/299/297 259/301/299 272/286/284
f 258/300/298 271/289/287 272/286/284
f 258/300/298 257/302/300 270/288/286
f 257/302/300 256/304/302 269/290/288
f 255/303/301 268/291/289 269/290/288
f 254/305/303 267/293/291 268/291/289
f 254/305/303 253/307/305 266/292/290
f 252/306/304 265/295/293 266/292/290
f 252/306/304 251/308/306 264/294/292
f 251/308/306 250/310/308 263/296/294
f 249/309/307 262/297/295 263/296/294
f 248/311/309 261/298/296 262/297/295
f 247/312/310 260/512/496 261/298/296
f 246/313/311 259/301/299 29/299/297
f 246/313/311 245/316/314 258/300/298
f 244/315/313 257/302/300 258/300/298
f 243/317/315 256/304/302 257/302/300
f 243/317/315 242/319/317 255/303/301
f 241/318/316 254/305/303 255/303/301
f 240/320/318 253/307/305 254/305/303
f 240/320/318 239/322/320 252/306/304
f 238/321/319 251/308/306 252/306/304
f 237/323/321 250/310/308 251/308/306
f 236/324/322 249/309/307 250/310/308
f 235/325/323 248/311/309 249/309/307
f 234/326/324 247/312/310 248/311/309
f 25/327/325 233/329/327 246/313/311
f 232/328/326 245/316/314 246/313/311
f 231/330/328 244/315/313 245/316/314
f 231/330/328 230/331/329 243/317/315
f 230/331/329 229/332/330 242/319/317
f 229/332/330 228/333/331 241/318/316
f 228/333/331 227/335/333 240/320/318
f 226/334/332 239/322/320 240/320/318
f 226/334/332 225/337/335 238/321/319
f 224/336/334 237/323/321 238/321/319
f 224/336/334 223/339/337 236/324/322
f 222/338/336 235/325/323 236/324/322
f 222/338/336 221/353/351 234/326/324
f 220/340/338 233/329/327 25/327/325
f 220/340/338 219/342/340 232/328/326
f 219/342/340 218/343/341 231/330/328
f 218/343/341 217/344/342 230/331/329
f 217/344/342 216/345/343 229/332/330
f 216/345/343 215/346/344 228/333/331
f 215/346/344 214/348/346 227/335/333
f 213/347/345 226/334/332 227/335/333
f 213/347/345 212/349/347 225/337/335
f 212/349/347 211/350/348 224/336/334
f 211/350/348 210/351/349 223/339/337
f 210/351/349 209/352/350 222/338/336
f 209/352/350 208/367/365 221/353/351
f 21/354/352 207/355/353 220/340/338
f 207/355/353 206/357/355 219/342/340
f 205/356/354 218/343/341 219/342/340
f 205/356/354 204/359/357 217/344/342
f 203/358/356 216/345/343 217/344/342
f 203/358/356 202/361/359 215/346/344
f 201/360/358 214/348/346 215/346/344
f 201/360/358 200/362/360 213/347/345
f 200/362/360 199/363/361 212/349/347
f 199/363/361 198/365/363 211/350/348
f 197/364/362 210/351/349 211/350/348
f 196/366/364 209/352/350 210/351/349
f 196/366/364 195/513/497 208/367/365
f 194/368/366 207/355/353 21/354/352
f 193/370/368 206/357/355 207/355/353
f 193/370/368 192/372/370 205/356/354
f 191/371/369 204/359/357 205/356/354
f 190/373/371 203/358/356 204/359/357
f 189/374/372 202/361/359 203/358/356
f 189/374/372 188/375/373 201/360/358
f 188/375/373 187/376/374 200/362/360
f 187/376/374 186/377/375 199/363/361
f 186/377/375 185/379/377 198/365/363
f 184/378/376 197/364/362 198/365/363
f 183/380/378 196/366/364 197/364/362
f 182/381/379 195/513/497 196/366/364
f 181/382/380 194/368/366 19/369/367
f 180/384/382 193/370/368 194/368/366
f 180/384/382 179/385/383 192/372/370
f 179/385/383 178/386/384 191/371/369
f 178/386/384 177/387/385 190/373/371
f 177/387/385 176/388/386 189/374/372
f 176/388/386 175/389/387 188/375/373
f 175/389/387 174/390/388 187/376/374
f 174/390/388 173/391/389 186/377/375
f 173/391/389 172/393/391 185/379/377
f 171/392/390 184/378/376 185/379/377
f 170/394/392 183/380/378 184/378/376
f 169/395/393 182/381/379 183/380/378
f 15/396/394 168/397/395 181/382/380
f 168/397/395 167/399/397 180/384/382
f 166/398/396 179/385/383 180/384/382
f 165/400/398 178/386/384 179/385/383
f 164/401/399 177/387/385 178/386/384
f 164/401/399 163/402/400 176/388/386
f 163/402/400 162/403/401 175/389/387
f 162/403/401 161/405/403 174/390/388
f 160/404/402 173/391/389 174/390/388
f 160/404/402 159/407/405 172/393/391
f 158/406/404 171/392/390 172/393/391
f 158/406/404 157/409/407 170/394/392
f 156/408/406 169/395/393 170/394/392
f 13/410/408 155/412/410 168/397/395
f 154/411/409 167/399/397 168/397/395
f 154/411/409 153/413/411 166/398/396
f 153/413/411 152/415/413 165/400/398
f 151/414/412 164/401/399 165/400/398
f 150/416/414 163/402/400 164/401/399
f 150/416/414 149/418/416 162/403/401
f 148/417/415 161/405/403 162/403/401
f 148/417/415 147/420/418 160/404/402
f 146/419/417 159/407/405 160/404/402
f 146/419/417 145/421/419 158/406/404
f 145/421/419 144/422/420 157/409/407
f 144/422/420 143/514/498 156/408/406
f 142/423/421 155/412/410 13/410/408
f 142/423/421 141/425/423 154/411/409
f 141/425/423 140/427/425 153/413/411
f 139/426/424 152/415/413 153/413/411
f 139/426/424 138/428/426 151/414/412
f 138/428/426 137/429/427 150/416/414
f 137/429/427 136/430/428 149/418/416
f 136/430/428 135/432/430 148/417/415
f 134/431/429 147/420/418 148/417/415
f 133/433/431 146/419/417 147/420/418
f 133/433/431 132/434/432 145/421/419
f 132/434/432 131/436/434 144/422/420
f 130/435/433 143/514/498 144/422/420
f 9/437/435 129/439/437 142/423/421
f 128/438/436 141/425/423 142/423/421
f 127/440/438 140/427/425 141/425/423
f 127/440/438 126/441/439 139/426/424
f 126/441/439 125/442/440 138/428/426
f 125/442/440 124/444/442 137/429/427
f 123/443/441 136/430/428 137/429/427
f 122/445/443 135/432/430 136/430/428
f 121/446/444 134/431/429 135/432/430
f 120/447/445 133/433/431 134/431/429
f 120/447/445 119/448/446 132/434/432
f 119/448/446 118/449/447 131/436/434
f 118/449/447 117/463/461 130/435/433
f 116/450/448 129/439/437 9/437/435
f 116/450/448 115/453/451 128/438/436
f 114/452/450 127/440/438 128/438/436
f 114/452/450 113/454/452 126/441/439
f 113/454/452 112/456/454 125/442/440
f 111/455/453 124/444/442 125/442/440
f 111/455/453 110/458/456 123/443/441
f 109/457/455 122/445/443 123/443/441
f 109/457/455 108/460/458 121/446/444
f 107/459/457 120/447/445 121/446/444
f 106/461/459 119/448/446 120/447/445
f 106/461/459 105/462/460 118/449/447
f 105/462/460 104/515/499 117/463/461
f 103/464/462 116/450/448 7/451/449
f 102/466/464 115/453/451 116/450/448
f 102/466/464 101/468/466 114/452/450
f 100/467/465 113/454/452 114/452/450
f 99/469/467 112/456/454 113/454/452
f 99/469/467 98/471/469 111/455/453
f 97/470/468 110/458/456 111/455/453
f 96/472/470 109/457/455 110/458/456
f 95/473/471 108/460/458 109/457/455
f 94/474/472 107/459/457 108/460/458
f 93/475/473 106/461/459 107/459/457
f 93/475/473 92/477/475 105/462/460
f 91/476/474 104/515/499 105/462/460
f 3/478/476 90/480/478 103/464/462
f 89/479/477 102/466/464 103/464/462
f 89/479/477 88/482/480 101/468/466
f 87/481/479 100/467/465 101/468/466
f 86/483/481 99/469/467 100/467/465
f 86/483/481 85/484/482 98/471/469
f 85/484/482 84/486/484 97/470/468
f 83/485/483 96/472/470 97/470/468
f 82/487/485 95/473/471 96/472/470
f 82/487/485 81/488/486 94/474/472
f 81/488/486 80/490/488 93/475/473
f 79/489/487 92/477/475 93/475/473
f 79/489/487 78/516/500 91/476/474
f 65/491/54 90/480/478 3/478/476
f 65/491/54 66/494/57 89/479/477
f 67/493/61 88/482/480 89/479/477
f 67/493/61 68/495/60 87/481/479
f 68/495/60 69/497/63 86/483/481
f 70/496/67 85/484/482 86/483/481
f 71/498/66 84/486/484 85/484/482
f 71/498/66 72/499/71 83/485/483
f 72/499/71 73/500/70 82/487/485
f 73/500/70 74/502/73 81/488/486
f 75/501/77 80/490/488 81/488/486
f 75/501/77 76/504/76 79/489/487
f 77/503/79 78/516/500 79/489/487
f 468/505/489 512/52/52 481/54/3
f 455/95/93 511/50/50 512/52/52
f 442/506/490 510/49/49 511/50/50
f 429/122/120 509/47/47 510/49/49
f 508/45/45 509/47/47 429/122/120
f 507/44/44 508/45/45 416/507/491
f 390/508/492 506/42/42 507/44/44
f 505/41/41 506/42/42 390/508/492
f 364/190/188 504/39/39 505/41/41
f 351/509/493 503/38/38 504/39/39
f 502/36/36 503/38/38 351/509/493
f 325/510/494 501/34/34 502/36/36
f 500/32/32 501/34/34 325/510/494
f 499/31/31 500/32/32 312/244/242
f 286/511/495 498/29/29 499/31/31
f 497/27/27 498/29/29 286/511/495
f 260/512/496 496/25/25 497/27/27
f 495/24/24 496/25/25 260/512/496
f 234/326/324 494/22/22 495/24/24
f 221/353/351 493/21/21 494/22/22
f 208/367/365 492/19/19 493/21/21
f 491/18/18 492/19/19 208/367/365
f 490/16/16 491/18/18 195/513/497
f 489/14/14 490/16/16 182/381/379
f 488/13/13 489/14/14 169/395/393
f 143/514/498 487/11/11 488/13/13
f 486/10/10 487/11/11 143/514/498
f 117/463/461 485/8/8 486/10/10
f 484/7/7 485/8/8 117/463/461
f 91/476/474 483/5/5 484/7/7
f 78/516/500 482/2/2 483/5/5
f 481/3/3 482/2/2 78/516/500
