# Blender 3.6.23
# www.blender.org
o sol.011
v 2.639122 1.320495 -3.252612
v 2.638204 1.305869 -3.245726
v 2.623830 1.318648 -3.257533
v 2.624451 1.333808 -3.262449
v 2.624952 1.349151 -3.266638
v 2.639894 1.335182 -3.259009
v 2.623081 1.303616 -3.252069
v 2.608582 1.317037 -3.262553
v 2.609028 1.332658 -3.265835
v 2.609390 1.348420 -3.268583
v 2.608045 1.301535 -3.258824
v 2.593297 1.315752 -3.266960
v 2.593574 1.331770 -3.268729
v 2.593807 1.347866 -3.270199
v 2.592971 1.299808 -3.264918
v 2.577890 1.314884 -3.270037
v 2.578039 1.331179 -3.270694
v 2.578177 1.347499 -3.271248
v 2.625332 1.364726 -3.269919
v 2.640517 1.350045 -3.264594
v 2.609670 1.364341 -3.270716
v 2.593997 1.364047 -3.271343
v 2.578305 1.363842 -3.271700
v 2.625597 1.380592 -3.272109
v 2.640993 1.365206 -3.269045
v 2.609875 1.380439 -3.272149
v 2.594149 1.380310 -3.272139
v 2.578418 1.380209 -3.272057
v 2.625753 1.396801 -3.273029
v 2.641318 1.380773 -3.272042
v 2.610010 1.396735 -3.272795
v 2.594268 1.396666 -3.272560
v 2.578525 1.396596 -3.272326
v 2.653546 1.308119 -3.240873
v 2.654544 1.322485 -3.248512
v 2.562278 1.314529 -3.271064
v 2.562378 1.330930 -3.271291
v 2.577725 1.298614 -3.269269
v 2.562176 1.298131 -3.270804
v 2.562783 1.396528 -3.272092
v 2.562681 1.380128 -3.271879
v 2.657042 1.380983 -3.271975
v 2.656663 1.365777 -3.268202
v 2.641495 1.396871 -3.273264
v 2.657237 1.396940 -3.273498
v 2.562478 1.347329 -3.271493
v 2.656113 1.351099 -3.262691
v 2.562581 1.363729 -3.271683
v 2.655404 1.336742 -3.255955
v 2.546535 1.314462 -3.270834
v 2.546434 1.298061 -3.270570
v 2.530793 1.314393 -3.270607
v 2.530893 1.330792 -3.270835
v 2.530995 1.347191 -3.271034
v 2.546636 1.330861 -3.271059
v 2.530691 1.297995 -3.270335
v 2.515050 1.314324 -3.270383
v 2.515151 1.330722 -3.270613
v 2.515253 1.347124 -3.270810
v 2.514949 1.297925 -3.270101
v 2.499308 1.314254 -3.270159
v 2.499408 1.330655 -3.270391
v 2.499510 1.347055 -3.270588
v 2.499207 1.297856 -3.269866
v 2.483565 1.314188 -3.269929
v 2.483665 1.330586 -3.270166
v 2.483768 1.346986 -3.270361
v 2.531096 1.363593 -3.271221
v 2.546738 1.347260 -3.271261
v 2.515353 1.363524 -3.270994
v 2.499611 1.363454 -3.270765
v 2.483868 1.363385 -3.270535
v 2.531198 1.379992 -3.271413
v 2.546838 1.363660 -3.271451
v 2.515455 1.379923 -3.271179
v 2.499713 1.379854 -3.270947
v 2.483970 1.379787 -3.270715
v 2.531298 1.396391 -3.271623
v 2.546938 1.380061 -3.271645
v 2.515556 1.396322 -3.271389
v 2.499813 1.396255 -3.271154
v 2.484071 1.396186 -3.270920
v 2.467823 1.314118 -3.269700
v 2.467923 1.330517 -3.269934
v 2.483464 1.297789 -3.269632
v 2.467722 1.297720 -3.269398
v 2.468328 1.396117 -3.270685
v 2.468228 1.379718 -3.270481
v 2.547040 1.396461 -3.271857
v 2.468025 1.346917 -3.270129
v 2.468126 1.363318 -3.270304
v 2.452093 1.313981 -3.269300
v 2.451977 1.297577 -3.268992
v 2.436384 1.313760 -3.268699
v 2.436502 1.330202 -3.269032
v 2.436595 1.346661 -3.269362
v 2.452198 1.330393 -3.269567
v 2.436229 1.297343 -3.268378
v 2.420687 1.313537 -3.268078
v 2.420820 1.330010 -3.268479
v 2.420904 1.346509 -3.268907
v 2.420482 1.297109 -3.267751
v 2.404994 1.313399 -3.267628
v 2.405141 1.329886 -3.268059
v 2.405215 1.346402 -3.268545
v 2.404736 1.296965 -3.267306
v 2.389294 1.313428 -3.267531
v 2.389452 1.329898 -3.267930
v 2.389516 1.346387 -3.268375
v 2.436674 1.363119 -3.269677
v 2.452297 1.346812 -3.269802
v 2.420962 1.363006 -3.269327
v 2.405252 1.362918 -3.269026
v 2.389535 1.362878 -3.268822
v 2.436753 1.379563 -3.269967
v 2.452394 1.363230 -3.270021
v 2.421020 1.379483 -3.269700
v 2.405287 1.379409 -3.269445
v 2.389553 1.379347 -3.269219
v 2.436843 1.395981 -3.270216
v 2.452488 1.379645 -3.270231
v 2.421101 1.395912 -3.269982
v 2.405359 1.395843 -3.269747
v 2.389616 1.395776 -3.269513
v 2.373580 1.313709 -3.267977
v 2.373739 1.330107 -3.268234
v 2.388999 1.297005 -3.267238
v 2.373269 1.297313 -3.267744
v 2.373874 1.395707 -3.269279
v 2.373816 1.379307 -3.269037
v 2.452586 1.396048 -3.270451
v 2.373798 1.346507 -3.268506
v 2.373806 1.362907 -3.268777
v 2.641595 1.413269 -3.273488
v 2.625853 1.413203 -3.273254
v 2.625954 1.429602 -3.273478
v 2.626055 1.446001 -3.273703
v 2.641697 1.429671 -3.273713
v 2.610110 1.413134 -3.273019
v 2.610212 1.429533 -3.273244
v 2.610312 1.445931 -3.273468
v 2.594368 1.413064 -3.272785
v 2.594470 1.429464 -3.273010
v 2.594570 1.445865 -3.273234
v 2.578626 1.412995 -3.272550
v 2.578727 1.429397 -3.272775
v 2.578827 1.445796 -3.273000
v 2.626157 1.462400 -3.273927
v 2.641797 1.446070 -3.273937
v 2.610414 1.462333 -3.273693
v 2.594672 1.462264 -3.273458
v 2.578929 1.462195 -3.273224
v 2.626257 1.478799 -3.274152
v 2.641899 1.462469 -3.274162
v 2.610514 1.478732 -3.273917
v 2.594772 1.478663 -3.273683
v 2.579030 1.478593 -3.273449
v 2.626359 1.495200 -3.274376
v 2.641999 1.478868 -3.274386
v 2.610616 1.495131 -3.274142
v 2.594874 1.495062 -3.273908
v 2.579131 1.494995 -3.273673
v 2.657337 1.413339 -3.273723
v 2.562883 1.412928 -3.272316
v 2.562985 1.429328 -3.272541
v 2.563389 1.494926 -3.273439
v 2.563287 1.478527 -3.273215
v 2.657742 1.478937 -3.274621
v 2.657641 1.462538 -3.274396
v 2.642101 1.495267 -3.274611
v 2.657844 1.495336 -3.274845
v 2.563085 1.445727 -3.272765
v 2.657540 1.446137 -3.274172
v 2.563187 1.462126 -3.272990
v 2.657440 1.429738 -3.273947
v 2.547140 1.412859 -3.272082
v 2.531398 1.412790 -3.271847
v 2.531500 1.429192 -3.272072
v 2.531600 1.445590 -3.272297
v 2.547243 1.429258 -3.272306
v 2.515656 1.412723 -3.271613
v 2.515757 1.429123 -3.271837
v 2.515858 1.445521 -3.272062
v 2.499913 1.412654 -3.271379
v 2.500015 1.429053 -3.271603
v 2.500115 1.445452 -3.271828
v 2.484171 1.412585 -3.271144
v 2.484273 1.428984 -3.271369
v 2.484373 1.445385 -3.271593
v 2.531702 1.461990 -3.272521
v 2.547343 1.445657 -3.272531
v 2.515960 1.461920 -3.272287
v 2.500217 1.461854 -3.272052
v 2.484475 1.461785 -3.271818
v 2.531802 1.478388 -3.272746
v 2.547444 1.462059 -3.272755
v 2.516060 1.478319 -3.272511
v 2.500317 1.478252 -3.272277
v 2.484575 1.478183 -3.272042
v 2.531904 1.494787 -3.272970
v 2.547544 1.478457 -3.272980
v 2.516161 1.494721 -3.272736
v 2.500419 1.494652 -3.272501
v 2.484677 1.494582 -3.272267
v 2.468430 1.412516 -3.270910
v 2.468530 1.428918 -3.271134
v 2.468934 1.494516 -3.272032
v 2.468832 1.478114 -3.271808
v 2.547647 1.494857 -3.273205
v 2.468630 1.445316 -3.271359
v 2.468732 1.461715 -3.271583
v 2.452688 1.412450 -3.270675
v 2.436945 1.412380 -3.270441
v 2.437045 1.428779 -3.270665
v 2.437147 1.445181 -3.270890
v 2.452788 1.428848 -3.270900
v 2.421203 1.412311 -3.270206
v 2.421303 1.428712 -3.270431
v 2.421405 1.445112 -3.270656
v 2.405460 1.412244 -3.269972
v 2.405560 1.428643 -3.270197
v 2.405662 1.445042 -3.270421
v 2.389718 1.412175 -3.269738
v 2.389818 1.428574 -3.269963
v 2.389920 1.444973 -3.270187
v 2.437247 1.461579 -3.271115
v 2.452888 1.445247 -3.271124
v 2.421505 1.461510 -3.270880
v 2.405762 1.461441 -3.270646
v 2.390020 1.461374 -3.270411
v 2.437347 1.477978 -3.271339
v 2.452990 1.461646 -3.271349
v 2.421605 1.477909 -3.271105
v 2.405863 1.477842 -3.270870
v 2.390122 1.477774 -3.270636
v 2.437449 1.494377 -3.271564
v 2.453090 1.478047 -3.271574
v 2.421707 1.494308 -3.271329
v 2.405964 1.494241 -3.271095
v 2.390222 1.494172 -3.270860
v 2.373976 1.412106 -3.269503
v 2.374076 1.428505 -3.269728
v 2.374480 1.494103 -3.270626
v 2.374379 1.477704 -3.270402
v 2.453192 1.494447 -3.271798
v 2.374177 1.444906 -3.269953
v 2.374278 1.461305 -3.270177
v 2.642489 1.511909 -3.274821
v 2.626711 1.511790 -3.274772
v 2.627384 1.528610 -3.275204
v 2.628110 1.545435 -3.275208
v 2.643239 1.528841 -3.274729
v 2.610896 1.511658 -3.274564
v 2.611408 1.528338 -3.275133
v 2.611961 1.545023 -3.275478
v 2.595071 1.511527 -3.274265
v 2.595393 1.528073 -3.274745
v 2.595741 1.544618 -3.275132
v 2.579260 1.511411 -3.273941
v 2.579427 1.527854 -3.274255
v 2.579600 1.544294 -3.274548
v 2.628610 1.562043 -3.274326
v 2.644031 1.545785 -3.273936
v 2.612363 1.561560 -3.275224
v 2.596009 1.561087 -3.275208
v 2.579751 1.560714 -3.274751
v 2.628614 1.578209 -3.272094
v 2.644543 1.562453 -3.272030
v 2.612424 1.577798 -3.273996
v 2.596099 1.577402 -3.274753
v 2.579852 1.577089 -3.274798
v 2.627852 1.593704 -3.268050
v 2.644458 1.578567 -3.268613
v 2.611951 1.593587 -3.271423
v 2.595906 1.593485 -3.273559
v 2.579869 1.593397 -3.274623
v 2.658205 1.512001 -3.274640
v 2.563489 1.511325 -3.273664
v 2.563591 1.527724 -3.273888
v 2.563995 1.593322 -3.274786
v 2.563893 1.576923 -3.274562
v 2.659741 1.578809 -3.263122
v 2.659964 1.562703 -3.267862
v 2.643452 1.593841 -3.263272
v 2.658598 1.593998 -3.256923
v 2.563691 1.544125 -3.274113
v 2.659575 1.545996 -3.271279
v 2.563793 1.560524 -3.274337
v 2.658886 1.528991 -3.273494
v 2.547747 1.511255 -3.273429
v 2.532004 1.511189 -3.273195
v 2.532106 1.527588 -3.273419
v 2.532206 1.543987 -3.273644
v 2.547848 1.527657 -3.273654
v 2.516262 1.511119 -3.272960
v 2.516364 1.527519 -3.273185
v 2.516464 1.543917 -3.273409
v 2.500520 1.511050 -3.272726
v 2.500621 1.527452 -3.272950
v 2.500721 1.543851 -3.273175
v 2.484777 1.510983 -3.272491
v 2.484879 1.527383 -3.272716
v 2.484979 1.543782 -3.272941
v 2.532308 1.560386 -3.273868
v 2.547949 1.544056 -3.273878
v 2.516566 1.560319 -3.273634
v 2.500823 1.560250 -3.273400
v 2.485081 1.560181 -3.273165
v 2.532408 1.576787 -3.274093
v 2.548051 1.560455 -3.274103
v 2.516666 1.576718 -3.273859
v 2.500923 1.576649 -3.273624
v 2.485181 1.576579 -3.273390
v 2.532510 1.593186 -3.274318
v 2.548151 1.576854 -3.274327
v 2.516768 1.593117 -3.274083
v 2.501025 1.593048 -3.273849
v 2.485283 1.592981 -3.273614
v 2.469034 1.510914 -3.272257
v 2.469136 1.527314 -3.272482
v 2.469540 1.592912 -3.273380
v 2.469439 1.576513 -3.273155
v 2.548252 1.593255 -3.274552
v 2.469237 1.543712 -3.272706
v 2.469338 1.560114 -3.272931
v 2.453290 1.510817 -3.272017
v 2.437548 1.510677 -3.271744
v 2.437661 1.526815 -3.271800
v 2.437815 1.542848 -3.271673
v 2.453393 1.527140 -3.272211
v 2.421813 1.510517 -3.271406
v 2.421959 1.526413 -3.271152
v 2.422192 1.542110 -3.270494
v 2.406091 1.510357 -3.270973
v 2.406306 1.526018 -3.270159
v 2.406662 1.541385 -3.268656
v 2.390390 1.510221 -3.270409
v 2.390719 1.525704 -3.268727
v 2.391254 1.540825 -3.266000
v 2.438038 1.558837 -3.271307
v 2.453505 1.543437 -3.272357
v 2.422559 1.557722 -3.269372
v 2.407217 1.556620 -3.266464
v 2.392035 1.555781 -3.262409
v 2.438359 1.574839 -3.270639
v 2.453638 1.559719 -3.272435
v 2.423105 1.573355 -3.267720
v 2.408025 1.571888 -3.263580
v 2.393107 1.570778 -3.258138
v 2.438803 1.590911 -3.269611
v 2.453800 1.576004 -3.272421
v 2.423879 1.589124 -3.265468
v 2.409140 1.587355 -3.260007
v 2.394510 1.586011 -3.253373
v 2.374715 1.510132 -3.269680
v 2.375219 1.525559 -3.266749
v 2.379909 1.585502 -3.245708
v 2.378338 1.570354 -3.251312
v 2.453999 1.592309 -3.272296
v 2.375993 1.540596 -3.262360
v 2.377033 1.555457 -3.257039
vn 0.0847 -0.0816 0.9931
vn 0.0284 -0.0096 0.9996
vn 0.0577 -0.0342 0.9977
vn -0.1181 0.3711 0.9210
vn -0.0638 0.2394 0.9688
vn -0.1390 0.3187 0.9376
vn 0.0173 0.0115 0.9998
vn 0.0196 0.0132 0.9997
vn 0.0238 0.0141 0.9996
vn 0.0148 0.0136 0.9998
vn 0.0205 0.0141 0.9997
vn 0.0260 0.0189 0.9995
vn 0.0307 0.0157 0.9994
vn -0.2662 0.4469 0.8541
vn -0.2217 0.3727 0.9011
vn -0.2985 0.4029 0.8652
vn 0.0148 0.0131 0.9998
vn 0.0147 0.0120 0.9998
vn 0.0153 0.0189 0.9997
vn 0.0203 0.0242 0.9995
vn 0.0155 0.0169 0.9997
vn 0.0149 0.0136 0.9998
vn -0.0054 0.0193 0.9998
vn 0.0073 0.0234 0.9997
vn 0.0029 0.0162 0.9999
vn 0.0341 0.0202 0.9992
vn 0.0312 0.0178 0.9994
vn 0.0281 0.0156 0.9995
vn -0.0153 0.0166 0.9997
vn -0.1400 0.0517 0.9888
vn -0.0893 0.0441 0.9950
vn -0.3063 0.4424 0.8429
vn 0.0135 -0.0105 0.9999
vn 0.0022 0.0025 1.0000
vn -0.0271 -0.0439 0.9987
vn 0.0144 0.0137 0.9998
vn 0.0051 0.0221 0.9997
vn 0.0136 0.0162 0.9998
vn -0.0033 0.0148 0.9999
vn 0.0146 0.0116 0.9998
vn 0.0145 0.0118 0.9998
vn 0.0250 0.0116 0.9996
vn 0.3561 -0.2934 0.8872
vn 0.2313 -0.1717 0.9576
vn 0.3122 -0.2125 0.9260
vn 0.0146 0.0262 0.9995
vn 0.0083 0.0242 0.9997
vn -0.0115 0.0120 0.9999
vn 0.0182 0.0143 0.9997
vn 0.0196 0.0124 0.9997
vn 0.0564 -0.0029 0.9984
vn 0.0358 0.0036 0.9994
vn 0.1053 -0.2163 0.9706
vn 0.0491 -0.0763 0.9959
vn 0.1161 -0.1512 0.9817
vn 0.0151 0.0141 0.9998
vn 0.0163 0.0130 0.9998
vn 0.0149 0.0133 0.9998
vn 0.0166 0.0130 0.9998
vn 0.0235 0.0083 0.9997
vn 0.0058 0.0138 0.9999
vn -0.0473 0.0365 0.9982
vn -0.0154 0.0291 0.9995
vn 0.0261 0.0253 0.9993
vn 0.0282 0.0195 0.9994
vn 0.0189 -0.0113 0.9998
vn 0.0388 -0.1150 0.9926
vn 0.0150 -0.0225 0.9996
vn 0.0122 0.0471 0.9988
vn -0.0014 0.1620 0.9868
vn 0.0146 0.0539 0.9984
vn 0.0162 0.0122 0.9998
vn 0.0084 0.0074 0.9999
vn -0.0222 -0.0268 0.9994
vn -0.0255 -0.0491 0.9985
vn -0.0760 -0.0966 0.9924
vn 0.0142 0.0115 0.9998
vn 0.0142 0.0129 0.9998
vn 0.0143 0.0117 0.9998
vn -0.1779 0.0398 0.9832
vn -0.0299 0.0191 0.9994
vn -0.0413 0.0162 0.9990
vn 0.0180 0.0271 0.9995
vn 0.0336 0.0219 0.9992
vn 0.0308 0.0248 0.9992
vn 0.0146 0.0167 0.9998
vn 0.0142 0.0155 0.9998
vn 0.0147 0.0173 0.9997
vn 0.0186 0.0133 0.9997
vn 0.0145 0.0161 0.9998
vn 0.0145 0.0130 0.9998
vn 0.0123 0.0375 0.9992
vn 0.0145 0.0148 0.9998
vn 0.0147 0.0162 0.9998
vn 0.2950 -0.1273 0.9470
vn 0.1618 -0.0613 0.9849
vn 0.2071 -0.0521 0.9769
vn 0.0148 0.0130 0.9998
vn 0.0147 0.0116 0.9998
vn -0.0924 0.0866 0.9920
vn -0.0369 0.0647 0.9972
vn 0.0142 0.0113 0.9998
vn 0.0141 0.0129 0.9998
vn 0.0146 0.0107 0.9998
vn 0.0145 0.0109 0.9998
vn -0.3913 0.3060 0.8679
vn -0.3084 0.2197 0.9256
vn -0.3800 0.2021 0.9026
vn 0.0142 0.0130 0.9998
vn 0.2281 -0.2626 0.9376
vn 0.1916 -0.1993 0.9610
vn 0.0148 0.0181 0.9997
vn 0.0197 0.0165 0.9997
vn 0.0202 0.0184 0.9996
vn 0.0156 0.0115 0.9998
vn 0.0164 0.0075 0.9998
vn 0.2395 -0.1324 0.9618
vn 0.1055 -0.0389 0.9937
vn 0.0156 0.0214 0.9996
vn 0.0210 0.0235 0.9995
vn 0.0170 0.0193 0.9997
vn 0.0144 0.0112 0.9998
vn 0.0144 0.0159 0.9998
vn 0.0148 0.0178 0.9997
vn -0.0013 0.0413 0.9991
vn -0.0815 -0.1159 0.9899
vn 0.0149 0.0132 0.9998
vn 0.0118 0.0137 0.9998
vn 0.0376 -0.0357 0.9987
vn 0.0175 0.0003 0.9998
vn 0.0152 0.0134 0.9998
vn 0.0172 0.0115 0.9998
vn 0.0321 0.0187 0.9993
vn 0.0160 0.0109 0.9998
vn 0.0145 0.0112 0.9998
vn 0.0140 0.0150 0.9998
vn 0.0131 0.0207 0.9997
vn 0.0147 0.0158 0.9998
vn 0.0166 0.0266 0.9995
vn 0.3678 -0.2120 0.9054
vn 0.0175 0.0285 0.9994
vn -0.1641 0.1067 0.9807
vn 0.1140 -0.0031 0.9935
vn 0.0336 0.0106 0.9994
vn 0.0415 0.0134 0.9991
vn -0.1227 0.1575 0.9799
vn -0.2296 0.2864 0.9302
vn -0.1381 0.2386 0.9612
vn 0.0265 0.0078 0.9996
vn 0.0069 -0.0048 1.0000
vn 0.0221 0.0182 0.9996
vn 0.0172 0.0159 0.9997
vn -0.0103 0.1371 0.9905
vn 0.0144 0.0129 0.9998
vn 0.0148 0.0132 0.9998
vn 0.0147 0.0123 0.9998
vn -0.2109 0.1926 0.9584
vn 0.0390 0.0192 0.9991
vn 0.0338 0.0193 0.9992
vn 0.0126 0.0288 0.9995
vn 0.0166 0.0189 0.9997
vn -0.0115 0.0209 0.9997
vn -0.0138 0.0181 0.9997
vn 0.0152 0.0146 0.9998
vn 0.0158 0.0139 0.9998
vn 0.0147 0.0118 0.9998
vn 0.1655 -0.0963 0.9815
vn 0.0645 -0.0204 0.9977
vn 0.1040 -0.0633 0.9926
vn 0.0371 -0.0058 0.9993
vn 0.0215 0.0049 0.9998
vn 0.1523 -0.1275 0.9801
vn 0.0145 0.0114 0.9998
vn -0.0259 0.0175 0.9995
vn -0.0067 0.0248 0.9997
vn -0.0165 0.0190 0.9997
vn -0.0521 0.1158 0.9919
vn -0.0612 0.1762 0.9824
vn 0.0146 0.0188 0.9997
vn 0.0130 0.0214 0.9997
vn -0.0060 0.0687 0.9976
vn -0.0091 0.1015 0.9948
vn 0.0205 0.0134 0.9997
vn -0.3056 -0.3445 0.8877
vn -0.3290 -0.3155 0.8901
vn -0.3549 -0.3760 0.8560
vn 0.0147 0.0122 0.9998
vn 0.0134 0.0144 0.9998
vn 0.0150 0.0158 0.9998
vn 0.0152 0.0117 0.9998
vn 0.0151 0.0131 0.9998
vn 0.0874 -0.0111 0.9961
vn -0.0003 0.0260 0.9997
vn 0.0143 0.0151 0.9998
vn 0.0151 0.0151 0.9998
vn -0.2478 0.1239 0.9608
vn 0.0382 0.0200 0.9991
vn -0.0962 -0.0934 0.9910
vn -0.1610 -0.1937 0.9678
vn 0.0084 0.0070 0.9999
vn -0.0050 0.0047 1.0000
vn 0.0271 0.0256 0.9993
vn -0.1421 -0.1867 0.9721
vn -0.1882 -0.1342 0.9729
vn -0.1943 -0.1579 0.9682
vn -0.1194 -0.0785 0.9897
vn -0.2188 -0.2765 0.9358
vn -0.2625 -0.2678 0.9270
vn 0.0176 0.0224 0.9996
vn -0.3102 0.1058 0.9448
vn -0.2713 -0.2138 0.9384
vn -0.0464 -0.0261 0.9986
vn 0.0189 0.0175 0.9997
vn -0.3478 0.3971 0.8493
vn -0.3242 0.3188 0.8907
vn 0.2717 -0.2612 0.9263
vn 0.3453 -0.3301 0.8785
vn 0.0167 0.0285 0.9995
vn 0.0278 0.0141 0.9995
vn 0.4136 -0.3439 0.8430
vn 0.4049 -0.3004 0.8636
vn 0.4448 -0.3510 0.8240
vn -0.0276 -0.0228 0.9994
vn -0.0519 -0.0258 0.9983
vn -0.0998 -0.0724 0.9924
vn -0.0300 0.0166 0.9994
vn 0.0094 0.0174 0.9998
vn -0.0480 0.2828 0.9580
vn -0.1959 0.4249 0.8838
vt 0.111100 0.777797
vt 0.166700 0.722197
vt 0.166700 0.777797
vt 1.000000 0.166699
vt 0.944400 0.222199
vt 0.944400 0.166699
vt 0.333300 0.166699
vt 0.277800 0.222199
vt 0.277800 0.166699
vt 0.444400 0.777797
vt 0.500000 0.722197
vt 0.500000 0.777797
vt 0.055600 0.611098
vt 0.111100 0.555598
vt 0.111100 0.611098
vt 0.666700 0.833297
vt 0.722200 0.777797
vt 0.722200 0.833297
vt 1.000000 0.055600
vt 0.944400 0.111100
vt 0.944400 0.055600
vt 0.444400 0.333299
vt 0.500000 0.277799
vt 0.500000 0.333299
vt 0.555600 0.888897
vt 0.611100 0.833297
vt 0.611100 0.888897
vt 0.833300 0.666698
vt 0.777800 0.722197
vt 0.777800 0.666698
vt 0.000000 0.611098
vt 0.055600 0.555598
vt 0.000000 0.166699
vt 0.055600 0.222199
vt 0.000000 0.222199
vt 0.222200 0.111100
vt 0.277800 0.055600
vt 0.277800 0.111100
vt 0.500000 0.666698
vt 0.444400 0.722197
vt 0.444400 0.666698
vt 0.777800 0.555598
vt 0.833300 0.499998
vt 0.833300 0.555598
vt 0.500000 0.999996
vt 0.555600 0.944397
vt 0.555600 0.999996
vt 0.666700 0.444398
vt 0.722200 0.388899
vt 0.722200 0.444398
vt 0.666700 0.111100
vt 0.722200 0.055600
vt 0.722200 0.111100
vt 0.444400 0.444398
vt 0.500000 0.388899
vt 0.500000 0.444398
vt 1.000000 -0.000000
vt 0.777800 0.888897
vt 0.833300 0.833297
vt 0.833300 0.888897
vt 0.666700 0.333299
vt 0.722200 0.277799
vt 0.722200 0.333299
vt 0.500000 0.833297
vt 0.555600 0.777797
vt 0.555600 0.833297
vt 0.666700 0.166699
vt 0.611100 0.222199
vt 0.611100 0.166699
vt 0.333300 0.888897
vt 0.388900 0.833297
vt 0.388900 0.888897
vt 0.055600 0.944397
vt 0.111100 0.888897
vt 0.111100 0.944397
vt 0.833300 0.777797
vt 0.888900 0.722197
vt 0.888900 0.777797
vt 0.666700 0.777797
vt 0.611100 0.777797
vt 0.333300 0.833297
vt 0.277800 0.888897
vt 0.277800 0.833297
vt 0.000000 0.777797
vt 0.055600 0.722197
vt 0.055600 0.777797
vt 0.222200 0.333299
vt 0.277800 0.277799
vt 0.277800 0.333299
vt 0.333300 0.777797
vt 0.277800 0.777797
vt 0.444400 0.833297
vt 0.000000 0.555598
vt 0.055600 0.499998
vt 0.666700 0.222199
vt 0.722200 0.166699
vt 0.722200 0.222199
vt 0.166700 0.166699
vt 0.222200 0.166699
vt 0.055600 0.666698
vt 0.000000 0.722197
vt 0.000000 0.666698
vt 0.944400 0.333299
vt 1.000000 0.277799
vt 1.000000 0.333299
vt 0.611100 0.999996
vt 0.666700 0.944397
vt 0.666700 0.999996
vt 0.722200 0.999996
vt 0.777800 0.944397
vt 0.777800 0.999996
vt 0.500000 0.166699
vt 0.555600 0.111100
vt 0.555600 0.166699
vt 0.722200 -0.000000
vt 0.666700 0.055600
vt 0.666700 -0.000000
vt 0.388900 0.499998
vt 0.444400 0.499998
vt 0.111100 0.111100
vt 0.166700 0.055600
vt 0.166700 0.111100
vt 0.555600 -0.000000
vt 0.500000 0.055600
vt 0.500000 -0.000000
vt 0.333300 0.111100
vt 0.388900 0.055600
vt 0.388900 0.111100
vt 0.333300 0.555598
vt 0.277800 0.611098
vt 0.277800 0.555598
vt 0.888900 0.388899
vt 0.888900 0.333299
vt 0.611100 0.055600
vt 0.611100 -0.000000
vt 0.166700 0.999996
vt 0.222200 0.944397
vt 0.222200 0.999996
vt 0.333300 0.333299
vt 0.388900 0.277799
vt 0.388900 0.333299
vt 0.777800 0.166699
vt 0.777800 0.222199
vt 0.444400 0.166699
vt 0.500000 0.111100
vt 0.388900 0.222199
vt 0.444400 0.222199
vt 0.888900 -0.000000
vt 0.833300 0.055600
vt 0.833300 -0.000000
vt 0.222200 0.499998
vt 0.277800 0.444398
vt 0.277800 0.499998
vt 0.444400 0.111100
vt 0.388900 0.777797
vt 0.111100 0.499998
vt 0.000000 0.833297
vt 0.055600 0.833297
vt 0.388900 -0.000000
vt 0.333300 0.055600
vt 0.333300 -0.000000
vt 0.222200 0.666698
vt 0.166700 0.666698
vt 0.500000 0.888897
vt 0.166700 0.944397
vt 0.222200 0.888897
vt 0.111100 0.277799
vt 0.166700 0.222199
vt 0.166700 0.277799
vt 0.500000 0.222199
vt 0.444400 0.388899
vt 0.444400 0.055600
vt 0.444400 -0.000000
vt 0.777800 0.277799
vt 0.500000 0.944397
vt 0.833300 0.944397
vt 0.611100 0.333299
vt 0.666700 0.277799
vt 0.111100 0.722197
vt 0.111100 0.666698
vt 0.333300 0.722197
vt 0.277800 0.722197
vt 0.166700 0.499998
vt 0.222200 0.444398
vt 0.333300 0.388899
vt 0.277800 0.388899
vt 0.277800 -0.000000
vt 0.333300 0.222199
vt 0.388900 0.166699
vt 0.000000 0.333299
vt 0.055600 0.277799
vt 0.055600 0.333299
vt 0.111100 0.222199
vt 0.611100 0.666698
vt 0.555600 0.722197
vt 0.555600 0.666698
vt 0.611100 0.611098
vt 0.111100 0.444398
vt 0.111100 0.999996
vt 0.111100 0.166699
vt 0.777800 0.111100
vt 0.277800 0.999996
vt 0.333300 0.944397
vt 0.333300 0.999996
vt 0.555600 0.388899
vt 0.555600 0.444398
vt 0.222200 0.555598
vt 0.833300 0.166699
vt 0.888900 0.111100
vt 0.888900 0.166699
vt 0.722200 0.555598
vt 0.777800 0.499998
vt 0.555600 0.611098
vt 0.611100 0.555598
vt 0.666700 0.499998
vt 0.611100 0.499998
vt 0.722200 0.888897
vt 0.722200 0.944397
vt 0.833300 0.444398
vt 0.222200 0.222199
vt 0.222200 0.277799
vt 0.944400 0.277799
vt 0.444400 0.999996
vt 0.611100 0.111100
vt 0.555600 0.333299
vt 0.611100 0.277799
vt 0.833300 0.111100
vt 0.222200 -0.000000
vt 0.166700 -0.000000
vt 0.833300 0.388899
vt 0.833300 0.333299
vt 0.944400 0.388899
vt 0.111100 -0.000000
vt 0.055600 0.055600
vt 0.055600 -0.000000
vt 0.666700 0.666698
vt 0.722200 0.611098
vt 0.722200 0.666698
vt 0.666700 0.722197
vt 0.611100 0.722197
vt 0.444400 0.277799
vt 0.166700 0.888897
vt 0.222200 0.833297
vt 0.166700 0.833297
vt 0.222200 0.777797
vt 0.777800 0.611098
vt 0.166700 0.611098
vt 0.222200 0.611098
vt 0.222200 0.722197
vt 0.111100 0.833297
vt 0.555600 0.222199
vt 0.000000 0.055600
vt 0.055600 0.111100
vt 0.000000 0.111100
vt 0.000000 0.388899
vt 0.388900 0.555598
vt 0.833300 0.611098
vt 0.888900 0.555598
vt 0.888900 0.611098
vt 0.833300 0.222199
vt 0.888900 0.222199
vt 0.888900 0.666698
vt 0.388900 0.722197
vt 0.777800 0.388899
vt 0.777800 0.333299
vt 0.833300 0.277799
vt 0.888900 0.277799
vt 0.666700 0.888897
vt 0.611100 0.944397
vt 0.166700 0.555598
vt 0.555600 0.499998
vt 0.611100 0.444398
vt 0.166700 0.444398
vt 0.611100 0.388899
vt 0.944400 0.999996
vt 1.000000 0.944397
vt 1.000000 0.999996
vt 0.333300 0.666698
vt 0.388900 0.611098
vt 0.388900 0.666698
vt 0.888900 0.444398
vt 0.888900 0.499998
vt 0.555600 0.277799
vt 0.944400 0.611098
vt 0.944400 0.666698
vt 0.777800 0.444398
vt 0.111100 0.333299
vt 0.055600 0.388899
vt 0.333300 0.277799
vt 0.277800 0.666698
vt 0.333300 0.611098
vt 0.277800 0.944397
vt 0.500000 0.611098
vt 0.555600 0.555598
vt 0.666700 0.388899
vt 0.055600 0.166699
vt 0.555600 0.055600
vt 0.444400 0.555598
vt 0.666700 0.611098
vt 0.166700 0.333299
vt 0.944400 0.444398
vt 0.666700 0.555598
vt 0.444400 0.611098
vt 0.222200 0.388899
vt 0.777800 0.055600
vt 0.222200 0.055600
vt 0.388900 0.944397
vt 0.722200 0.499998
vt 0.944400 0.499998
vt 0.944400 0.555598
vt 0.888900 0.888897
vt 0.888900 0.944397
vt 0.333300 0.444398
vt 0.388900 0.388899
vt 0.388900 0.444398
vt 0.500000 0.499998
vt 1.000000 0.666698
vt 0.944400 0.722197
vt 0.777800 0.777797
vt 0.833300 0.999996
vt 1.000000 0.833297
vt 0.944400 0.888897
vt 0.944400 0.833297
vt 0.888900 0.999996
vt 0.944400 0.944397
vt 0.444400 0.888897
vt 0.444400 0.944397
vt 0.388900 0.999996
vt 1.000000 0.499998
vt 0.111100 0.055600
vt 0.777800 -0.000000
vt 1.000000 0.888897
vt 0.000000 0.444398
vt 0.055600 0.444398
vt 1.000000 0.611098
vt 0.888900 0.833297
vt 0.166700 0.388899
vt 0.722200 0.722197
vt 0.944400 -0.000000
vt 0.888900 0.055600
vt 0.055600 0.888897
vt 0.000000 0.888897
vt 1.000000 0.555598
vt 0.111100 0.388899
vt 1.000000 0.444398
vt 0.833300 0.722197
vt 0.777800 0.833297
vt 0.333300 0.499998
vt 0.000000 0.944397
vt 0.055600 0.999996
vt 0.000000 0.999996
vt 0.000000 0.499998
vt 1.000000 0.722197
vt 0.944400 0.777797
vt 1.000000 0.777797
vt 0.000000 -0.000000
vt 1.000000 0.388899
vt 0.500000 0.555598
vt 0.000000 0.277799
vt 1.000000 0.222199
vt 1.000000 0.111100
s 1
f 335/1/1 331/2/2 332/3/3
f 47/4/4 25/5/5 20/6/6
f 90/7/7 116/8/8 111/9/9
f 299/10/10 295/11/10 296/12/10
f 235/13/10 229/14/10 234/15/10
f 286/16/11 260/17/12 261/18/13
f 35/19/14 6/20/15 1/21/16
f 81/22/17 75/23/18 80/24/17
f 304/25/10 305/26/10 310/27/10
f 160/28/19 256/29/20 161/30/21
f 244/31/22 230/32/10 235/13/10
f 132/33/23 114/34/24 133/35/25
f 95/36/26 92/37/27 97/38/28
f 202/39/10 298/40/10 203/41/10
f 151/42/10 141/43/10 150/44/10
f 316/45/22 309/46/10 314/47/10
f 165/48/10 145/49/10 146/50/10
f 37/51/29 16/52/30 17/53/31
f 185/54/10 181/55/10 182/56/10
f 1/21/16 34/57/32 35/19/14
f 265/58/33 255/59/34 264/60/35
f 40/61/36 28/62/37 33/63/38
f 297/64/10 292/65/10 293/66/10
f 46/67/39 74/68/40 69/69/41
f 325/70/42 303/71/10 308/72/10
f 349/73/43 343/74/44 348/75/45
f 254/76/46 249/77/47 250/78/48
f 279/79/49 305/26/10 294/80/10
f 324/81/50 346/82/51 341/83/52
f 356/84/53 337/85/54 338/86/55
f 120/87/56 121/88/57 131/89/58
f 320/90/59 341/83/52 330/91/60
f 303/71/10 299/10/10 300/92/10
f 247/93/10 225/94/10 230/32/10
f 48/95/61 18/96/62 23/97/63
f 101/98/64 95/36/26 96/99/65
f 240/100/66 355/101/67 243/102/68
f 44/103/69 42/104/70 45/105/71
f 323/106/10 281/107/72 280/108/73
f 276/109/74 270/110/75 275/111/76
f 59/112/77 53/113/78 54/114/79
f 38/115/80 36/116/81 39/117/82
f 189/118/10 185/54/10 186/119/10
f 104/120/83 99/121/84 100/122/85
f 56/123/86 57/124/87 60/125/88
f 84/126/89 65/127/90 66/128/91
f 211/129/10 237/130/10 232/131/10
f 84/126/89 111/9/9 97/38/28
f 44/103/69 135/132/10 29/133/92
f 39/117/82 50/134/93 51/135/94
f 352/136/95 345/137/96 350/138/97
f 87/139/98 77/140/99 82/141/98
f 23/97/63 14/142/100 22/143/101
f 63/144/102 58/145/103 59/112/77
f 72/146/104 63/144/102 71/147/105
f 7/148/106 8/149/107 11/150/108
f 215/151/10 216/152/10 227/153/10
f 62/154/109 57/124/87 58/145/103
f 302/155/10 298/40/10 299/10/10
f 230/32/10 222/156/10 229/14/10
f 360/157/110 338/86/55 339/158/111
f 85/159/112 83/160/113 86/161/114
f 236/162/115 331/2/2 238/163/116
f 306/164/10 293/66/10 304/25/10
f 347/165/117 340/166/118 345/137/96
f 118/167/119 112/168/120 117/169/121
f 71/147/105 59/112/77 70/170/122
f 80/24/17 184/171/10 81/22/17
f 60/125/88 61/172/123 64/173/124
f 28/62/37 22/143/101 27/174/125
f 311/175/10 304/25/10 309/46/10
f 270/110/75 264/60/35 269/176/126
f 89/177/127 41/178/128 40/61/36
f 238/163/116 334/179/129 239/180/130
f 319/181/131 330/91/60 326/182/132
f 219/183/10 214/184/10 215/151/10
f 64/173/124 65/127/90 85/159/112
f 205/185/10 216/152/10 212/186/10
f 86/161/114 92/37/27 93/187/133
f 91/188/134 67/189/135 72/146/104
f 129/190/136 119/191/137 124/192/138
f 119/191/137 113/193/139 118/167/119
f 209/194/10 291/195/10 200/196/10
f 200/196/10 201/197/10 209/194/10
f 225/94/10 221/198/10 222/156/10
f 353/199/140 347/165/117 352/136/95
f 105/200/141 100/122/85 101/98/64
f 18/96/62 13/201/142 14/142/100
f 359/202/143 322/203/144 321/204/145
f 182/56/10 177/205/10 178/206/10
f 226/207/10 227/153/10 232/131/10
f 10/208/146 4/209/147 5/210/148
f 340/166/118 341/83/52 346/82/51
f 152/211/10 144/212/10 151/42/10
f 214/184/10 212/186/10 216/152/10
f 195/213/10 196/214/10 201/197/10
f 172/215/10 196/214/10 191/216/10
f 281/107/72 266/217/149 271/218/150
f 144/212/10 140/219/10 141/43/10
f 117/169/121 110/220/151 115/221/152
f 113/193/139 101/98/64 112/168/120
f 29/133/92 30/222/153 44/103/69
f 317/223/22 311/175/10 316/45/22
f 53/113/78 50/134/93 55/224/154
f 78/225/155 79/226/156 89/177/127
f 13/201/142 8/149/107 9/227/157
f 98/228/158 99/121/84 102/229/159
f 29/133/92 139/230/10 31/231/160
f 45/105/71 134/232/10 44/103/69
f 106/233/161 107/234/162 127/235/163
f 166/236/10 157/237/10 162/238/164
f 278/239/165 294/80/10 290/240/10
f 82/141/98 76/241/166 81/22/17
f 342/242/167 329/243/168 340/166/118
f 333/244/169 328/245/170 329/243/168
f 77/140/99 71/147/105 76/241/166
f 329/243/168 330/91/60 341/83/52
f 157/237/10 151/42/10 156/246/10
f 233/247/10 226/207/10 231/248/10
f 332/3/3 327/249/171 328/245/170
f 338/86/55 334/179/129 335/1/1
f 339/158/111 335/1/1 336/250/172
f 68/251/173 69/69/41 74/68/40
f 125/252/174 108/253/175 126/254/176
f 124/192/138 241/255/22 129/190/136
f 211/129/10 189/118/10 194/256/10
f 155/257/10 148/258/10 153/259/10
f 37/51/29 69/69/41 55/224/154
f 21/260/177 5/210/148 19/261/178
f 160/28/19 153/259/10 158/262/179
f 320/90/59 301/263/10 302/155/10
f 31/231/160 142/264/10 32/265/180
f 26/266/181 19/261/178 24/267/182
f 288/268/183 315/269/10 310/27/10
f 234/15/10 228/270/10 233/247/10
f 96/99/65 97/38/28 111/9/9
f 179/271/10 180/272/10 191/216/10
f 222/156/10 218/273/10 219/183/10
f 40/61/36 176/274/10 89/177/127
f 284/275/184 282/276/185 285/277/186
f 207/278/22 199/279/10 204/280/10
f 141/43/10 136/281/10 137/282/10
f 73/283/187 74/68/40 79/226/156
f 296/12/10 291/195/10 292/65/10
f 158/262/179 159/284/10 170/285/188
f 146/50/10 142/264/10 143/286/10
f 156/246/10 150/44/10 155/257/10
f 123/287/189 223/288/10 124/192/138
f 88/289/190 72/146/104 77/140/99
f 78/225/155 181/55/10 80/24/17
f 245/290/191 208/291/10 207/278/22
f 36/116/81 55/224/154 50/134/93
f 343/74/44 333/244/169 342/242/167
f 345/137/96 346/82/51 351/292/192
f 197/293/10 190/294/10 195/213/10
f 164/295/10 180/272/10 176/274/10
f 336/250/172 332/3/3 333/244/169
f 110/220/151 111/9/9 116/8/8
f 126/254/176 109/296/193 132/33/23
f 83/160/113 97/38/28 92/37/27
f 140/219/10 135/132/10 136/281/10
f 58/145/103 52/297/194 53/113/78
f 194/256/10 186/119/10 193/298/10
f 228/270/10 215/151/10 226/207/10
f 90/7/7 66/128/91 67/189/135
f 209/194/10 167/299/10 166/236/10
f 123/287/189 117/169/121 122/300/195
f 245/290/191 327/249/171 236/162/115
f 87/139/98 212/186/10 131/89/58
f 75/23/18 68/251/173 73/283/187
f 243/102/68 235/13/10 240/100/66
f 24/267/182 25/5/5 30/222/153
f 136/281/10 134/232/10 138/301/10
f 27/174/125 21/260/177 26/266/181
f 14/142/100 9/227/157 10/208/146
f 174/302/10 201/197/10 196/214/10
f 240/100/66 234/15/10 239/180/130
f 167/299/10 152/211/10 157/237/10
f 199/279/10 193/298/10 198/303/10
f 91/188/134 121/88/57 116/8/8
f 80/24/17 73/283/187 78/225/155
f 19/261/178 20/6/6 25/5/5
f 218/273/10 213/304/10 214/184/10
f 17/53/31 12/305/196 13/201/142
f 203/41/10 301/263/10 204/280/10
f 33/63/38 164/295/10 40/61/36
f 93/187/133 94/306/197 98/228/158
f 115/221/152 116/8/8 121/88/57
f 322/203/144 308/72/10 313/307/10
f 350/138/97 351/292/192 359/202/143
f 174/302/10 147/308/10 152/211/10
f 170/285/188 249/77/47 158/262/179
f 238/163/116 231/248/10 236/162/115
f 148/258/10 149/309/10 154/310/10
f 269/176/126 262/311/198 267/312/199
f 206/313/10 187/314/10 188/315/10
f 183/316/10 178/206/10 179/271/10
f 150/44/10 137/282/10 148/258/10
f 171/317/200 248/318/201 170/285/188
f 162/238/164 156/246/10 161/30/21
f 280/108/73 271/218/150 276/109/74
f 260/17/12 256/29/20 257/319/202
f 275/111/76 269/176/126 274/320/203
f 112/168/120 96/99/65 110/220/151
f 131/89/58 213/304/10 120/87/56
f 287/321/204 268/322/205 263/323/206
f 272/324/207 273/325/208 284/275/184
f 313/307/10 307/326/10 312/327/10
f 208/291/10 194/256/10 199/279/10
f 318/328/10 312/327/10 317/223/22
f 204/280/10 198/303/10 203/41/10
f 274/320/203 267/312/199 272/324/207
f 292/65/10 290/240/10 294/80/10
f 190/294/10 191/216/10 196/214/10
f 288/268/183 261/18/13 266/217/149
f 66/128/91 61/172/123 62/154/109
f 165/48/10 191/216/10 180/272/10
f 54/114/79 55/224/154 69/69/41
f 32/265/180 26/266/181 31/231/160
f 173/329/10 154/310/10 149/309/10
f 108/253/175 103/330/209 104/120/83
f 308/72/10 300/92/10 307/326/10
f 11/150/108 12/305/196 15/331/210
f 283/332/211 273/325/208 268/322/205
f 172/215/10 146/50/10 147/308/10
f 242/333/10 223/288/10 224/334/10
f 114/34/24 105/200/141 113/193/139
f 170/285/188 168/335/10 171/317/200
f 166/236/10 290/240/10 209/194/10
f 307/326/10 297/64/10 306/164/10
f 321/204/145 313/307/10 318/328/10
f 51/135/94 52/297/194 56/123/86
f 300/92/10 296/12/10 297/64/10
f 255/59/34 250/78/48 251/336/212
f 102/229/159 103/330/209 106/233/161
f 309/46/10 310/27/10 315/269/10
f 221/198/10 217/337/10 218/273/10
f 262/311/198 263/323/206 268/322/205
f 161/30/21 259/338/213 162/238/164
f 2/339/214 3/340/215 7/148/106
f 204/280/10 319/181/131 207/278/22
f 360/157/110 344/341/216 361/342/217
f 169/343/10 159/284/10 154/310/10
f 122/300/195 220/344/10 123/287/189
f 186/119/10 182/56/10 183/316/10
f 286/16/11 310/27/10 305/26/10
f 229/14/10 219/183/10 228/270/10
f 175/345/10 149/309/10 138/301/10
f 239/180/130 337/85/54 240/100/66
f 158/262/179 253/346/218 160/28/19
f 76/241/166 70/170/122 75/23/18
f 266/217/149 258/347/219 265/58/33
f 279/79/49 259/338/213 260/17/12
f 89/177/127 177/205/10 78/225/155
f 210/348/10 232/131/10 227/153/10
f 267/312/199 268/322/205 273/325/208
f 293/66/10 294/80/10 305/26/10
f 261/18/13 257/319/202 258/347/219
f 207/278/22 326/182/132 245/290/191
f 32/265/180 145/49/10 33/63/38
f 358/349/220 354/350/221 357/351/222
f 31/231/160 24/267/182 29/133/92
f 246/352/10 224/334/10 225/94/10
f 122/300/195 115/221/152 120/87/56
f 82/141/98 205/185/10 87/139/98
f 81/22/17 187/314/10 82/141/98
f 258/347/219 254/76/46 255/59/34
f 200/196/10 295/11/10 202/39/10
f 109/296/193 104/120/83 105/200/141
f 277/353/223 252/354/224 248/318/201
f 271/218/150 265/58/33 270/110/75
f 153/259/10 154/310/10 159/284/10
f 361/342/217 349/73/43 358/349/220
f 236/162/115 237/130/10 245/290/191
f 67/189/135 62/154/109 63/144/102
f 289/355/225 263/323/206 252/354/224
f 188/315/10 184/171/10 185/54/10
f 354/350/221 348/75/45 353/199/140
f 162/238/164 278/239/165 166/236/10
f 107/234/162 128/356/226 127/235/163
f 257/319/202 253/346/218 254/76/46
f 202/39/10 195/213/10 200/196/10
f 250/78/48 248/318/201 252/354/224
f 137/282/10 138/301/10 149/309/10
f 143/286/10 139/230/10 140/219/10
f 239/180/130 233/247/10 238/163/116
f 328/245/170 326/182/132 330/91/60
f 41/178/128 23/97/63 28/62/37
f 131/89/58 88/289/190 87/139/98
f 314/47/10 315/269/10 323/106/10
f 325/70/42 351/292/192 346/82/51
f 161/30/21 155/257/10 160/28/19
f 312/327/10 306/164/10 311/175/10
f 9/227/157 3/340/215 4/209/147
f 100/122/85 94/306/197 95/36/26
f 163/357/10 138/301/10 134/232/10
f 124/192/138 118/167/119 123/287/189
f 210/348/10 188/315/10 189/118/10
f 198/303/10 192/358/10 197/293/10
f 70/170/122 54/114/79 68/251/173
f 15/331/210 16/52/30 38/115/80
f 192/358/10 179/271/10 190/294/10
f 324/81/50 302/155/10 303/71/10
f 33/63/38 27/174/125 32/265/180
f 46/67/39 17/53/31 18/96/62
f 203/41/10 197/293/10 202/39/10
f 5/210/148 6/20/15 20/6/6
f 147/308/10 143/286/10 144/212/10
f 130/359/227 114/34/24 119/191/137
f 43/360/228 30/222/153 25/5/5
f 264/60/35 251/336/212 262/311/198
f 22/143/101 10/208/146 21/260/177
f 231/248/10 232/131/10 237/130/10
f 48/95/61 79/226/156 74/68/40
f 193/298/10 183/316/10 192/358/10
f 348/75/45 342/242/167 347/165/117
f 224/334/10 220/344/10 221/198/10
f 251/336/212 252/354/224 263/323/206
f 49/361/229 20/6/6 6/20/15
f 4/209/147 1/21/16 6/20/15
f 344/341/216 336/250/172 343/74/44
f 178/206/10 176/274/10 180/272/10
f 206/313/10 227/153/10 216/152/10
f 120/87/56 217/337/10 122/300/195
f 335/1/1 334/179/129 331/2/2
f 47/4/4 43/360/228 25/5/5
f 90/7/7 91/188/134 116/8/8
f 299/10/10 298/40/10 295/11/10
f 235/13/10 230/32/10 229/14/10
f 286/16/11 279/79/49 260/17/12
f 35/19/14 49/361/229 6/20/15
f 81/22/17 76/241/166 75/23/18
f 304/25/10 293/66/10 305/26/10
f 160/28/19 253/346/218 256/29/20
f 244/31/22 247/93/10 230/32/10
f 132/33/23 109/296/193 114/34/24
f 95/36/26 94/306/197 92/37/27
f 202/39/10 295/11/10 298/40/10
f 151/42/10 144/212/10 141/43/10
f 316/45/22 311/175/10 309/46/10
f 165/48/10 164/295/10 145/49/10
f 37/51/29 36/116/81 16/52/30
f 185/54/10 184/171/10 181/55/10
f 1/21/16 2/339/214 34/57/32
f 265/58/33 258/347/219 255/59/34
f 40/61/36 41/178/128 28/62/37
f 297/64/10 296/12/10 292/65/10
f 46/67/39 48/95/61 74/68/40
f 325/70/42 324/81/50 303/71/10
f 349/73/43 344/341/216 343/74/44
f 254/76/46 253/346/218 249/77/47
f 279/79/49 286/16/11 305/26/10
f 324/81/50 325/70/42 346/82/51
f 356/84/53 355/101/67 337/85/54
f 120/87/56 115/221/152 121/88/57
f 320/90/59 324/81/50 341/83/52
f 303/71/10 302/155/10 299/10/10
f 247/93/10 246/352/10 225/94/10
f 48/95/61 46/67/39 18/96/62
f 101/98/64 100/122/85 95/36/26
f 240/100/66 337/85/54 355/101/67
f 44/103/69 30/222/153 42/104/70
f 323/106/10 315/269/10 281/107/72
f 276/109/74 271/218/150 270/110/75
f 59/112/77 58/145/103 53/113/78
f 38/115/80 16/52/30 36/116/81
f 189/118/10 188/315/10 185/54/10
f 104/120/83 103/330/209 99/121/84
f 56/123/86 52/297/194 57/124/87
f 84/126/89 83/160/113 65/127/90
f 211/129/10 208/291/10 237/130/10
f 84/126/89 90/7/7 111/9/9
f 44/103/69 134/232/10 135/132/10
f 39/117/82 36/116/81 50/134/93
f 352/136/95 347/165/117 345/137/96
f 87/139/98 88/289/190 77/140/99
f 23/97/63 18/96/62 14/142/100
f 63/144/102 62/154/109 58/145/103
f 72/146/104 67/189/135 63/144/102
f 7/148/106 3/340/215 8/149/107
f 215/151/10 214/184/10 216/152/10
f 62/154/109 61/172/123 57/124/87
f 302/155/10 301/263/10 298/40/10
f 230/32/10 225/94/10 222/156/10
f 360/157/110 356/84/53 338/86/55
f 85/159/112 65/127/90 83/160/113
f 236/162/115 327/249/171 331/2/2
f 306/164/10 297/64/10 293/66/10
f 347/165/117 342/242/167 340/166/118
f 118/167/119 113/193/139 112/168/120
f 71/147/105 63/144/102 59/112/77
f 80/24/17 181/55/10 184/171/10
f 60/125/88 57/124/87 61/172/123
f 28/62/37 23/97/63 22/143/101
f 311/175/10 306/164/10 304/25/10
f 270/110/75 265/58/33 264/60/35
f 89/177/127 79/226/156 41/178/128
f 238/163/116 331/2/2 334/179/129
f 319/181/131 320/90/59 330/91/60
f 219/183/10 218/273/10 214/184/10
f 64/173/124 61/172/123 65/127/90
f 205/185/10 206/313/10 216/152/10
f 86/161/114 83/160/113 92/37/27
f 91/188/134 90/7/7 67/189/135
f 129/190/136 130/359/227 119/191/137
f 119/191/137 114/34/24 113/193/139
f 209/194/10 290/240/10 291/195/10
f 200/196/10 195/213/10 201/197/10
f 225/94/10 224/334/10 221/198/10
f 353/199/140 348/75/45 347/165/117
f 105/200/141 104/120/83 100/122/85
f 18/96/62 17/53/31 13/201/142
f 359/202/143 351/292/192 322/203/144
f 182/56/10 181/55/10 177/205/10
f 226/207/10 215/151/10 227/153/10
f 10/208/146 9/227/157 4/209/147
f 340/166/118 329/243/168 341/83/52
f 152/211/10 147/308/10 144/212/10
f 214/184/10 213/304/10 212/186/10
f 195/213/10 190/294/10 196/214/10
f 172/215/10 174/302/10 196/214/10
f 281/107/72 288/268/183 266/217/149
f 144/212/10 143/286/10 140/219/10
f 117/169/121 112/168/120 110/220/151
f 113/193/139 105/200/141 101/98/64
f 29/133/92 24/267/182 30/222/153
f 317/223/22 312/327/10 311/175/10
f 53/113/78 52/297/194 50/134/93
f 78/225/155 73/283/187 79/226/156
f 13/201/142 12/305/196 8/149/107
f 98/228/158 94/306/197 99/121/84
f 29/133/92 135/132/10 139/230/10
f 45/105/71 163/357/10 134/232/10
f 106/233/161 103/330/209 107/234/162
f 166/236/10 167/299/10 157/237/10
f 278/239/165 279/79/49 294/80/10
f 82/141/98 77/140/99 76/241/166
f 342/242/167 333/244/169 329/243/168
f 333/244/169 332/3/3 328/245/170
f 77/140/99 72/146/104 71/147/105
f 329/243/168 328/245/170 330/91/60
f 157/237/10 152/211/10 151/42/10
f 233/247/10 228/270/10 226/207/10
f 332/3/3 331/2/2 327/249/171
f 338/86/55 337/85/54 334/179/129
f 339/158/111 338/86/55 335/1/1
f 68/251/173 54/114/79 69/69/41
f 125/252/174 107/234/162 108/253/175
f 124/192/138 223/288/10 241/255/22
f 211/129/10 210/348/10 189/118/10
f 155/257/10 150/44/10 148/258/10
f 37/51/29 46/67/39 69/69/41
f 21/260/177 10/208/146 5/210/148
f 160/28/19 155/257/10 153/259/10
f 320/90/59 319/181/131 301/263/10
f 31/231/160 139/230/10 142/264/10
f 26/266/181 21/260/177 19/261/178
f 288/268/183 281/107/72 315/269/10
f 234/15/10 229/14/10 228/270/10
f 96/99/65 95/36/26 97/38/28
f 179/271/10 178/206/10 180/272/10
f 222/156/10 221/198/10 218/273/10
f 40/61/36 164/295/10 176/274/10
f 284/275/184 273/325/208 282/276/185
f 207/278/22 208/291/10 199/279/10
f 141/43/10 140/219/10 136/281/10
f 73/283/187 68/251/173 74/68/40
f 296/12/10 295/11/10 291/195/10
f 158/262/179 153/259/10 159/284/10
f 146/50/10 145/49/10 142/264/10
f 156/246/10 151/42/10 150/44/10
f 123/287/189 220/344/10 223/288/10
f 88/289/190 91/188/134 72/146/104
f 78/225/155 177/205/10 181/55/10
f 245/290/191 237/130/10 208/291/10
f 36/116/81 37/51/29 55/224/154
f 343/74/44 336/250/172 333/244/169
f 345/137/96 340/166/118 346/82/51
f 197/293/10 192/358/10 190/294/10
f 164/295/10 165/48/10 180/272/10
f 336/250/172 335/1/1 332/3/3
f 110/220/151 96/99/65 111/9/9
f 126/254/176 108/253/175 109/296/193
f 83/160/113 84/126/89 97/38/28
f 140/219/10 139/230/10 135/132/10
f 58/145/103 57/124/87 52/297/194
f 194/256/10 189/118/10 186/119/10
f 228/270/10 219/183/10 215/151/10
f 90/7/7 84/126/89 66/128/91
f 209/194/10 201/197/10 167/299/10
f 123/287/189 118/167/119 117/169/121
f 245/290/191 326/182/132 327/249/171
f 87/139/98 205/185/10 212/186/10
f 75/23/18 70/170/122 68/251/173
f 243/102/68 244/31/22 235/13/10
f 24/267/182 19/261/178 25/5/5
f 136/281/10 135/132/10 134/232/10
f 27/174/125 22/143/101 21/260/177
f 14/142/100 13/201/142 9/227/157
f 174/302/10 167/299/10 201/197/10
f 240/100/66 235/13/10 234/15/10
f 167/299/10 174/302/10 152/211/10
f 199/279/10 194/256/10 193/298/10
f 91/188/134 88/289/190 121/88/57
f 80/24/17 75/23/18 73/283/187
f 19/261/178 5/210/148 20/6/6
f 218/273/10 217/337/10 213/304/10
f 17/53/31 16/52/30 12/305/196
f 203/41/10 298/40/10 301/263/10
f 33/63/38 145/49/10 164/295/10
f 93/187/133 92/37/27 94/306/197
f 115/221/152 110/220/151 116/8/8
f 322/203/144 325/70/42 308/72/10
f 350/138/97 345/137/96 351/292/192
f 174/302/10 172/215/10 147/308/10
f 170/285/188 248/318/201 249/77/47
f 238/163/116 233/247/10 231/248/10
f 148/258/10 137/282/10 149/309/10
f 269/176/126 264/60/35 262/311/198
f 206/313/10 205/185/10 187/314/10
f 183/316/10 182/56/10 178/206/10
f 150/44/10 141/43/10 137/282/10
f 171/317/200 277/353/223 248/318/201
f 162/238/164 157/237/10 156/246/10
f 280/108/73 281/107/72 271/218/150
f 260/17/12 259/338/213 256/29/20
f 275/111/76 270/110/75 269/176/126
f 112/168/120 101/98/64 96/99/65
f 131/89/58 212/186/10 213/304/10
f 287/321/204 283/332/211 268/322/205
f 272/324/207 267/312/199 273/325/208
f 313/307/10 308/72/10 307/326/10
f 208/291/10 211/129/10 194/256/10
f 318/328/10 313/307/10 312/327/10
f 204/280/10 199/279/10 198/303/10
f 274/320/203 269/176/126 267/312/199
f 292/65/10 291/195/10 290/240/10
f 190/294/10 179/271/10 191/216/10
f 288/268/183 286/16/11 261/18/13
f 66/128/91 65/127/90 61/172/123
f 165/48/10 172/215/10 191/216/10
f 54/114/79 53/113/78 55/224/154
f 32/265/180 27/174/125 26/266/181
f 173/329/10 169/343/10 154/310/10
f 108/253/175 107/234/162 103/330/209
f 308/72/10 303/71/10 300/92/10
f 11/150/108 8/149/107 12/305/196
f 283/332/211 282/276/185 273/325/208
f 172/215/10 165/48/10 146/50/10
f 242/333/10 241/255/22 223/288/10
f 114/34/24 109/296/193 105/200/141
f 170/285/188 159/284/10 168/335/10
f 166/236/10 278/239/165 290/240/10
f 307/326/10 300/92/10 297/64/10
f 321/204/145 322/203/144 313/307/10
f 51/135/94 50/134/93 52/297/194
f 300/92/10 299/10/10 296/12/10
f 255/59/34 254/76/46 250/78/48
f 102/229/159 99/121/84 103/330/209
f 309/46/10 304/25/10 310/27/10
f 221/198/10 220/344/10 217/337/10
f 262/311/198 251/336/212 263/323/206
f 161/30/21 256/29/20 259/338/213
f 2/339/214 1/21/16 3/340/215
f 204/280/10 301/263/10 319/181/131
f 360/157/110 339/158/111 344/341/216
f 169/343/10 168/335/10 159/284/10
f 122/300/195 217/337/10 220/344/10
f 186/119/10 185/54/10 182/56/10
f 286/16/11 288/268/183 310/27/10
f 229/14/10 222/156/10 219/183/10
f 175/345/10 173/329/10 149/309/10
f 239/180/130 334/179/129 337/85/54
f 158/262/179 249/77/47 253/346/218
f 76/241/166 71/147/105 70/170/122
f 266/217/149 261/18/13 258/347/219
f 279/79/49 278/239/165 259/338/213
f 89/177/127 176/274/10 177/205/10
f 210/348/10 211/129/10 232/131/10
f 267/312/199 262/311/198 268/322/205
f 293/66/10 292/65/10 294/80/10
f 261/18/13 260/17/12 257/319/202
f 207/278/22 319/181/131 326/182/132
f 32/265/180 142/264/10 145/49/10
f 358/349/220 349/73/43 354/350/221
f 31/231/160 26/266/181 24/267/182
f 246/352/10 242/333/10 224/334/10
f 122/300/195 117/169/121 115/221/152
f 82/141/98 187/314/10 205/185/10
f 81/22/17 184/171/10 187/314/10
f 258/347/219 257/319/202 254/76/46
f 200/196/10 291/195/10 295/11/10
f 109/296/193 108/253/175 104/120/83
f 277/353/223 289/355/225 252/354/224
f 271/218/150 266/217/149 265/58/33
f 153/259/10 148/258/10 154/310/10
f 361/342/217 344/341/216 349/73/43
f 236/162/115 231/248/10 237/130/10
f 67/189/135 66/128/91 62/154/109
f 289/355/225 287/321/204 263/323/206
f 188/315/10 187/314/10 184/171/10
f 354/350/221 349/73/43 348/75/45
f 162/238/164 259/338/213 278/239/165
f 107/234/162 125/252/174 128/356/226
f 257/319/202 256/29/20 253/346/218
f 202/39/10 197/293/10 195/213/10
f 250/78/48 249/77/47 248/318/201
f 137/282/10 136/281/10 138/301/10
f 143/286/10 142/264/10 139/230/10
f 239/180/130 234/15/10 233/247/10
f 328/245/170 327/249/171 326/182/132
f 41/178/128 48/95/61 23/97/63
f 131/89/58 121/88/57 88/289/190
f 314/47/10 309/46/10 315/269/10
f 325/70/42 322/203/144 351/292/192
f 161/30/21 156/246/10 155/257/10
f 312/327/10 307/326/10 306/164/10
f 9/227/157 8/149/107 3/340/215
f 100/122/85 99/121/84 94/306/197
f 163/357/10 175/345/10 138/301/10
f 124/192/138 119/191/137 118/167/119
f 210/348/10 206/313/10 188/315/10
f 198/303/10 193/298/10 192/358/10
f 70/170/122 59/112/77 54/114/79
f 15/331/210 12/305/196 16/52/30
f 192/358/10 183/316/10 179/271/10
f 324/81/50 320/90/59 302/155/10
f 33/63/38 28/62/37 27/174/125
f 46/67/39 37/51/29 17/53/31
f 203/41/10 198/303/10 197/293/10
f 5/210/148 4/209/147 6/20/15
f 147/308/10 146/50/10 143/286/10
f 130/359/227 133/35/25 114/34/24
f 43/360/228 42/104/70 30/222/153
f 264/60/35 255/59/34 251/336/212
f 22/143/101 14/142/100 10/208/146
f 231/248/10 226/207/10 232/131/10
f 48/95/61 41/178/128 79/226/156
f 193/298/10 186/119/10 183/316/10
f 348/75/45 343/74/44 342/242/167
f 224/334/10 223/288/10 220/344/10
f 251/336/212 250/78/48 252/354/224
f 49/361/229 47/4/4 20/6/6
f 4/209/147 3/340/215 1/21/16
f 344/341/216 339/158/111 336/250/172
f 178/206/10 177/205/10 176/274/10
f 206/313/10 210/348/10 227/153/10
f 120/87/56 213/304/10 217/337/10
