# Blender 3.6.23
# www.blender.org
o sol.067
v 1.690422 -0.000195 -1.314935
v 1.691879 -0.000195 -1.307613
v 1.690114 0.002122 -1.314805
v 1.691544 0.002122 -1.307613
v 1.688519 0.003640 -1.314145
v 1.689819 0.003640 -1.307613
v 1.678997 0.005535 -1.310200
v 1.679512 0.005535 -1.307613
v 1.675079 0.009317 -1.308578
v 1.675272 0.009317 -1.307613
v 1.686277 -0.000195 -1.321140
v 1.686039 0.002122 -1.320905
v 1.684819 0.003640 -1.319683
v 1.677532 0.005535 -1.312395
v 1.674532 0.009317 -1.309395
v 1.680069 -0.000195 -1.325288
v 1.679942 0.002122 -1.324978
v 1.679282 0.003640 -1.323383
v 1.675337 0.005535 -1.313860
v 1.673714 0.009317 -1.309943
v 1.672749 -0.000195 -1.326743
v 1.672749 0.002122 -1.326410
v 1.672749 0.003640 -1.324683
v 1.672749 0.005535 -1.314375
v 1.672749 0.009317 -1.310135
v 1.665429 -0.000195 -1.325288
v 1.665557 0.002122 -1.324978
v 1.666217 0.003640 -1.323383
v 1.670162 0.005535 -1.313860
v 1.671784 0.009317 -1.309943
v 1.659222 -0.000195 -1.321140
v 1.659459 0.002122 -1.320905
v 1.660679 0.003640 -1.319683
v 1.667967 0.005535 -1.312395
v 1.670967 0.009317 -1.309395
v 1.655077 -0.000195 -1.314935
v 1.655384 0.002122 -1.314805
v 1.656979 0.003640 -1.314145
v 1.666502 0.005535 -1.310200
v 1.670419 0.009317 -1.308578
v 1.653619 -0.000195 -1.307613
v 1.653954 0.002122 -1.307613
v 1.655679 0.003640 -1.307613
v 1.665987 0.005535 -1.307613
v 1.670227 0.009317 -1.307613
v 1.655077 -0.000195 -1.300293
v 1.655384 0.002122 -1.300420
v 1.656979 0.003640 -1.301080
v 1.666502 0.005535 -1.305025
v 1.670419 0.009317 -1.306648
v 1.659222 -0.000195 -1.294085
v 1.659459 0.002122 -1.294323
v 1.660679 0.003640 -1.295543
v 1.667967 0.005535 -1.302833
v 1.670967 0.009317 -1.305830
v 1.665429 -0.000195 -1.289940
v 1.665557 0.002122 -1.290248
v 1.666217 0.003640 -1.291843
v 1.670162 0.005535 -1.301365
v 1.671784 0.009317 -1.305283
v 1.672749 -0.000195 -1.288483
v 1.672749 0.002122 -1.288818
v 1.672749 0.003640 -1.290543
v 1.672749 0.005535 -1.300850
v 1.672749 0.009317 -1.305093
v 1.680069 -0.000195 -1.289940
v 1.679942 0.002122 -1.290248
v 1.679282 0.003640 -1.291843
v 1.675337 0.005535 -1.301365
v 1.673714 0.009317 -1.305283
v 1.686277 -0.000195 -1.294085
v 1.686039 0.002122 -1.294323
v 1.684819 0.003640 -1.295543
v 1.677532 0.005535 -1.302833
v 1.674532 0.009317 -1.305830
v 1.690422 -0.000195 -1.300293
v 1.690114 0.002122 -1.300420
v 1.688519 0.003640 -1.301080
v 1.678997 0.005535 -1.305025
v 1.675079 0.009317 -1.306648
v 1.689654 -0.001369 -1.314617
v 1.691048 -0.001369 -1.307613
v 1.685689 -0.001369 -1.320553
v 1.679751 -0.001369 -1.324520
v 1.672749 -0.001369 -1.325912
v 1.665747 -0.001369 -1.324520
v 1.659810 -0.001369 -1.320553
v 1.655845 -0.001369 -1.314617
v 1.654450 -0.001369 -1.307613
v 1.655845 -0.001369 -1.300611
v 1.659810 -0.001369 -1.294673
v 1.665747 -0.001369 -1.290708
v 1.672749 -0.001369 -1.289314
v 1.679751 -0.001369 -1.290708
v 1.685689 -0.001369 -1.294673
v 1.689654 -0.001369 -1.300611
v 1.686756 -0.001369 -1.307611
v 1.680329 -0.001369 -1.307613
v 1.672749 -0.001369 -1.307612
v 1.665170 -0.001369 -1.307613
v 1.658742 -0.001369 -1.307611
v 2.925463 -0.000195 -1.314935
v 2.926921 -0.000195 -1.307613
v 2.925156 0.002122 -1.314805
v 2.926586 0.002122 -1.307613
v 2.923561 0.003640 -1.314145
v 2.924861 0.003640 -1.307613
v 2.914038 0.005535 -1.310200
v 2.914553 0.005535 -1.307613
v 2.910121 0.009317 -1.308578
v 2.910313 0.009317 -1.307613
v 2.921319 -0.000195 -1.321140
v 2.921081 0.002122 -1.320905
v 2.919861 0.003640 -1.319683
v 2.912573 0.005535 -1.312395
v 2.909573 0.009317 -1.309395
v 2.915111 -0.000195 -1.325288
v 2.914983 0.002122 -1.324978
v 2.914323 0.003640 -1.323383
v 2.910378 0.005535 -1.313860
v 2.908756 0.009317 -1.309943
v 2.907791 -0.000195 -1.326743
v 2.907791 0.002122 -1.326410
v 2.907791 0.003640 -1.324683
v 2.907791 0.005535 -1.314375
v 2.907791 0.009317 -1.310135
v 2.900471 -0.000195 -1.325288
v 2.900598 0.002122 -1.324978
v 2.901258 0.003640 -1.323383
v 2.905203 0.005535 -1.313860
v 2.906826 0.009317 -1.309943
v 2.894263 -0.000195 -1.321140
v 2.894501 0.002122 -1.320905
v 2.895720 0.003640 -1.319683
v 2.903008 0.005535 -1.312395
v 2.906008 0.009317 -1.309395
v 2.890118 -0.000195 -1.314935
v 2.890426 0.002122 -1.314805
v 2.892021 0.003640 -1.314145
v 2.901543 0.005535 -1.310200
v 2.905461 0.009317 -1.308578
v 2.888661 -0.000195 -1.307613
v 2.888996 0.002122 -1.307613
v 2.890721 0.003640 -1.307613
v 2.901028 0.005535 -1.307613
v 2.905268 0.009317 -1.307613
v 2.890118 -0.000195 -1.300293
v 2.890426 0.002122 -1.300420
v 2.892021 0.003640 -1.301080
v 2.901543 0.005535 -1.305025
v 2.905461 0.009317 -1.306648
v 2.894263 -0.000195 -1.294085
v 2.894501 0.002122 -1.294323
v 2.895720 0.003640 -1.295543
v 2.903008 0.005535 -1.302833
v 2.906008 0.009317 -1.305830
v 2.900471 -0.000195 -1.289940
v 2.900598 0.002122 -1.290248
v 2.901258 0.003640 -1.291843
v 2.905203 0.005535 -1.301365
v 2.906826 0.009317 -1.305283
v 2.907791 -0.000195 -1.288483
v 2.907791 0.002122 -1.288818
v 2.907791 0.003640 -1.290543
v 2.907791 0.005535 -1.300850
v 2.907791 0.009317 -1.305093
v 2.915111 -0.000195 -1.289940
v 2.914983 0.002122 -1.290248
v 2.914323 0.003640 -1.291843
v 2.910378 0.005535 -1.301365
v 2.908756 0.009317 -1.305283
v 2.921319 -0.000195 -1.294085
v 2.921081 0.002122 -1.294323
v 2.919861 0.003640 -1.295543
v 2.912573 0.005535 -1.302833
v 2.909573 0.009317 -1.305830
v 2.925463 -0.000195 -1.300293
v 2.925156 0.002122 -1.300420
v 2.923561 0.003640 -1.301080
v 2.914038 0.005535 -1.305025
v 2.910121 0.009317 -1.306648
v 2.924695 -0.001369 -1.314617
v 2.926090 -0.001369 -1.307613
v 2.920731 -0.001369 -1.320553
v 2.914793 -0.001369 -1.324520
v 2.907791 -0.001369 -1.325912
v 2.900789 -0.001369 -1.324520
v 2.894851 -0.001369 -1.320553
v 2.890886 -0.001369 -1.314617
v 2.889492 -0.001369 -1.307613
v 2.890886 -0.001369 -1.300611
v 2.894851 -0.001369 -1.294673
v 2.900789 -0.001369 -1.290708
v 2.907791 -0.001369 -1.289314
v 2.914793 -0.001369 -1.290708
v 2.920731 -0.001369 -1.294673
v 2.924695 -0.001369 -1.300611
v 2.921798 -0.001369 -1.307611
v 2.915370 -0.001369 -1.307613
v 2.907791 -0.001369 -1.307612
v 2.900211 -0.001369 -1.307613
v 2.893784 -0.001369 -1.307611
v 2.925463 -0.000195 -1.769527
v 2.926921 -0.000195 -1.762205
v 2.925156 0.002122 -1.769397
v 2.926586 0.002122 -1.762205
v 2.923561 0.003640 -1.768737
v 2.924861 0.003640 -1.762205
v 2.914038 0.005535 -1.764792
v 2.914553 0.005535 -1.762205
v 2.910121 0.009317 -1.763170
v 2.910313 0.009317 -1.762205
v 2.921319 -0.000195 -1.775732
v 2.921081 0.002122 -1.775497
v 2.919861 0.003640 -1.774275
v 2.912573 0.005535 -1.766987
v 2.909573 0.009317 -1.763987
v 2.915111 -0.000195 -1.779880
v 2.914983 0.002122 -1.779570
v 2.914323 0.003640 -1.777974
v 2.910378 0.005535 -1.768452
v 2.908756 0.009317 -1.764535
v 2.907791 -0.000195 -1.781335
v 2.907791 0.002122 -1.781002
v 2.907791 0.003640 -1.779275
v 2.907791 0.005535 -1.768967
v 2.907791 0.009317 -1.764727
v 2.900471 -0.000195 -1.779880
v 2.900598 0.002122 -1.779570
v 2.901258 0.003640 -1.777974
v 2.905203 0.005535 -1.768452
v 2.906826 0.009317 -1.764535
v 2.894263 -0.000195 -1.775732
v 2.894501 0.002122 -1.775497
v 2.895720 0.003640 -1.774275
v 2.903008 0.005535 -1.766987
v 2.906008 0.009317 -1.763987
v 2.890118 -0.000195 -1.769527
v 2.890426 0.002122 -1.769397
v 2.892021 0.003640 -1.768737
v 2.901543 0.005535 -1.764792
v 2.905461 0.009317 -1.763170
v 2.888661 -0.000195 -1.762205
v 2.888996 0.002122 -1.762205
v 2.890721 0.003640 -1.762205
v 2.901028 0.005535 -1.762205
v 2.905268 0.009317 -1.762205
v 2.890118 -0.000195 -1.754885
v 2.890426 0.002122 -1.755012
v 2.892021 0.003640 -1.755672
v 2.901543 0.005535 -1.759617
v 2.905461 0.009317 -1.761240
v 2.894263 -0.000195 -1.748677
v 2.894501 0.002122 -1.748915
v 2.895720 0.003640 -1.750134
v 2.903008 0.005535 -1.757425
v 2.906008 0.009317 -1.760422
v 2.900471 -0.000195 -1.744532
v 2.900598 0.002122 -1.744840
v 2.901258 0.003640 -1.746435
v 2.905203 0.005535 -1.755957
v 2.906826 0.009317 -1.759875
v 2.907791 -0.000195 -1.743075
v 2.907791 0.002122 -1.743410
v 2.907791 0.003640 -1.745135
v 2.907791 0.005535 -1.755442
v 2.907791 0.009317 -1.759685
v 2.915111 -0.000195 -1.744532
v 2.914983 0.002122 -1.744840
v 2.914323 0.003640 -1.746435
v 2.910378 0.005535 -1.755957
v 2.908756 0.009317 -1.759875
v 2.921319 -0.000195 -1.748677
v 2.921081 0.002122 -1.748915
v 2.919861 0.003640 -1.750134
v 2.912573 0.005535 -1.757425
v 2.909573 0.009317 -1.760422
v 2.925463 -0.000195 -1.754885
v 2.925156 0.002122 -1.755012
v 2.923561 0.003640 -1.755672
v 2.914038 0.005535 -1.759617
v 2.910121 0.009317 -1.761240
v 2.924695 -0.001369 -1.769209
v 2.926090 -0.001369 -1.762205
v 2.920731 -0.001369 -1.775144
v 2.914793 -0.001369 -1.779112
v 2.907791 -0.001369 -1.780504
v 2.900789 -0.001369 -1.779112
v 2.894851 -0.001369 -1.775144
v 2.890886 -0.001369 -1.769209
v 2.889492 -0.001369 -1.762205
v 2.890886 -0.001369 -1.755203
v 2.894851 -0.001369 -1.749265
v 2.900789 -0.001369 -1.745300
v 2.907791 -0.001369 -1.743906
v 2.914793 -0.001369 -1.745300
v 2.920731 -0.001369 -1.749265
v 2.924695 -0.001369 -1.755203
v 2.921798 -0.001369 -1.762203
v 2.915370 -0.001369 -1.762205
v 2.907791 -0.001369 -1.762203
v 2.900211 -0.001369 -1.762205
v 2.893784 -0.001369 -1.762203
v 1.690422 -0.000195 -1.769527
v 1.691879 -0.000195 -1.762205
v 1.690114 0.002122 -1.769397
v 1.691544 0.002122 -1.762205
v 1.688519 0.003640 -1.768737
v 1.689819 0.003640 -1.762205
v 1.678997 0.005535 -1.764792
v 1.679512 0.005535 -1.762205
v 1.675079 0.009317 -1.763170
v 1.675272 0.009317 -1.762205
v 1.686277 -0.000195 -1.775732
v 1.686039 0.002122 -1.775497
v 1.684819 0.003640 -1.774275
v 1.677532 0.005535 -1.766987
v 1.674532 0.009317 -1.763987
v 1.680069 -0.000195 -1.779880
v 1.679942 0.002122 -1.779570
v 1.679282 0.003640 -1.777974
v 1.675337 0.005535 -1.768452
v 1.673714 0.009317 -1.764535
v 1.672749 -0.000195 -1.781335
v 1.672749 0.002122 -1.781002
v 1.672749 0.003640 -1.779275
v 1.672749 0.005535 -1.768967
v 1.672749 0.009317 -1.764727
v 1.665429 -0.000195 -1.779880
v 1.665557 0.002122 -1.779570
v 1.666217 0.003640 -1.777974
v 1.670162 0.005535 -1.768452
v 1.671784 0.009317 -1.764535
v 1.659222 -0.000195 -1.775732
v 1.659459 0.002122 -1.775497
v 1.660679 0.003640 -1.774275
v 1.667967 0.005535 -1.766987
v 1.670967 0.009317 -1.763987
v 1.655077 -0.000195 -1.769527
v 1.655384 0.002122 -1.769397
v 1.656979 0.003640 -1.768737
v 1.666502 0.005535 -1.764792
v 1.670419 0.009317 -1.763170
v 1.653619 -0.000195 -1.762205
v 1.653954 0.002122 -1.762205
v 1.655679 0.003640 -1.762205
v 1.665987 0.005535 -1.762205
v 1.670227 0.009317 -1.762205
v 1.655077 -0.000195 -1.754885
v 1.655384 0.002122 -1.755012
v 1.656979 0.003640 -1.755672
v 1.666502 0.005535 -1.759617
v 1.670419 0.009317 -1.761240
v 1.659222 -0.000195 -1.748677
v 1.659459 0.002122 -1.748915
v 1.660679 0.003640 -1.750134
v 1.667967 0.005535 -1.757425
v 1.670967 0.009317 -1.760422
v 1.665429 -0.000195 -1.744532
v 1.665557 0.002122 -1.744840
v 1.666217 0.003640 -1.746435
v 1.670162 0.005535 -1.755957
v 1.671784 0.009317 -1.759875
v 1.672749 -0.000195 -1.743075
v 1.672749 0.002122 -1.743410
v 1.672749 0.003640 -1.745135
v 1.672749 0.005535 -1.755442
v 1.672749 0.009317 -1.759685
v 1.680069 -0.000195 -1.744532
v 1.679942 0.002122 -1.744840
v 1.679282 0.003640 -1.746435
v 1.675337 0.005535 -1.755957
v 1.673714 0.009317 -1.759875
v 1.686277 -0.000195 -1.748677
v 1.686039 0.002122 -1.748915
v 1.684819 0.003640 -1.750134
v 1.677532 0.005535 -1.757425
v 1.674532 0.009317 -1.760422
v 1.690422 -0.000195 -1.754885
v 1.690114 0.002122 -1.755012
v 1.688519 0.003640 -1.755672
v 1.678997 0.005535 -1.759617
v 1.675079 0.009317 -1.761240
v 1.689654 -0.001369 -1.769209
v 1.691048 -0.001369 -1.762205
v 1.685689 -0.001369 -1.775144
v 1.679751 -0.001369 -1.779112
v 1.672749 -0.001369 -1.780504
v 1.665747 -0.001369 -1.779112
v 1.659810 -0.001369 -1.775144
v 1.655845 -0.001369 -1.769209
v 1.654450 -0.001369 -1.762205
v 1.655845 -0.001369 -1.755203
v 1.659810 -0.001369 -1.749265
v 1.665747 -0.001369 -1.745300
v 1.672749 -0.001369 -1.743906
v 1.679751 -0.001369 -1.745300
v 1.685689 -0.001369 -1.749265
v 1.689654 -0.001369 -1.755203
v 1.686756 -0.001369 -1.762203
v 1.680329 -0.001369 -1.762205
v 1.672749 -0.001369 -1.762203
v 1.665170 -0.001369 -1.762205
v 1.658742 -0.001369 -1.762203
vn 0.9745 -0.2243 0.0001
vn 0.8208 0.4591 -0.3399
vn 0.8884 0.4591 0.0001
vn 0.4626 0.8866 -0.0000
vn 0.4272 0.8866 -0.1770
vn 0.4116 0.9114 -0.0000
vn 0.3803 0.9113 -0.1575
vn 0.6656 0.7463 -0.0000
vn 0.9003 -0.2244 -0.3730
vn 0.6281 0.4592 -0.6282
vn 0.3270 0.8867 -0.3269
vn 0.2909 0.9114 -0.2909
vn 0.6146 0.7464 -0.2551
vn 0.3729 -0.2242 -0.9004
vn 0.6891 -0.2244 -0.6890
vn 0.1770 0.8867 -0.4272
vn 0.2552 0.7463 -0.6147
vn 0.4706 0.7464 -0.4705
vn -0.0000 0.4590 -0.8884
vn 0.3399 0.4594 -0.8206
vn -0.0000 0.8867 -0.4623
vn -0.0000 0.9114 -0.4116
vn 0.1574 0.9114 -0.3803
vn -0.0000 0.7463 -0.6656
vn -0.3729 -0.2243 -0.9004
vn -0.0000 -0.2247 -0.9744
vn -0.3399 0.4593 -0.8206
vn -0.1770 0.8867 -0.4272
vn -0.1575 0.9113 -0.3804
vn -0.6281 0.4592 -0.6282
vn -0.2910 0.9114 -0.2909
vn -0.2552 0.7464 -0.6147
vn -0.9003 -0.2244 -0.3730
vn -0.6891 -0.2244 -0.6890
vn -0.8208 0.4591 -0.3399
vn -0.3270 0.8867 -0.3269
vn -0.4272 0.8867 -0.1770
vn -0.6147 0.7464 -0.2551
vn -0.4706 0.7464 -0.4705
vn -0.9745 -0.2243 0.0001
vn -0.4626 0.8866 -0.0000
vn -0.4116 0.9114 -0.0000
vn -0.3803 0.9113 -0.1575
vn -0.6656 0.7463 -0.0000
vn -0.9003 -0.2245 0.3729
vn -0.8884 0.4591 0.0001
vn -0.8209 0.4589 0.3400
vn -0.4272 0.8866 0.1770
vn -0.3803 0.9114 0.1575
vn -0.6281 0.4592 0.6281
vn -0.2911 0.9114 0.2910
vn -0.6148 0.7463 0.2551
vn -0.3729 -0.2246 0.9003
vn -0.6891 -0.2241 0.6891
vn -0.1770 0.8866 0.4272
vn -0.3271 0.8866 0.3271
vn -0.1576 0.9114 0.3802
vn -0.2544 0.7465 0.6148
vn -0.4707 0.7463 0.4706
vn -0.0000 0.4591 0.8884
vn -0.3400 0.4589 0.8209
vn -0.0000 0.8866 0.4626
vn -0.0000 0.9114 0.4116
vn 0.3729 -0.2245 0.9003
vn -0.0000 -0.2242 0.9745
vn 0.3400 0.4589 0.8209
vn 0.1770 0.8866 0.4272
vn 0.2544 0.7465 0.6149
vn -0.0000 0.7464 0.6655
vn 0.6281 0.4593 0.6281
vn 0.3271 0.8866 0.3271
vn 0.1576 0.9114 0.3802
vn 0.2911 0.9114 0.2910
vn 0.9003 -0.2245 0.3729
vn 0.6891 -0.2241 0.6891
vn 0.4272 0.8866 0.1770
vn 0.6148 0.7463 0.2552
vn 0.4707 0.7463 0.4707
vn 0.8209 0.4589 0.3400
vn 0.3802 0.9114 0.1575
vn -0.0000 -0.8647 0.5024
vn 0.1922 -0.8647 0.4641
vn -0.1922 -0.8647 -0.4641
vn 0.3552 -0.8647 -0.3552
vn 0.3552 -0.8647 0.3552
vn 0.1922 -0.8647 -0.4641
vn -0.0000 -0.8647 -0.5023
vn 0.5024 -0.8647 -0.0000
vn 0.4641 -0.8647 0.1922
vn -0.3552 -0.8647 0.3552
vn -0.3552 -0.8647 -0.3552
vn -0.5023 -0.8647 -0.0000
vn -0.4641 -0.8647 0.1922
vn -0.4641 -0.8647 -0.1922
vn -0.1922 -0.8647 0.4641
vn 0.4641 -0.8647 -0.1922
vn -0.0000 -1.0000 -0.0000
vn 0.9745 -0.2242 0.0001
vn 0.6657 0.7462 -0.0000
vn 0.6281 0.4593 -0.6282
vn 0.3269 0.8867 -0.3269
vn 0.6147 0.7464 -0.2551
vn 0.3728 -0.2242 -0.9004
vn 0.4705 0.7464 -0.4706
vn 0.0001 -0.2247 -0.9744
vn 0.3398 0.4593 -0.8207
vn 0.1575 0.9114 -0.3803
vn 0.0001 0.4590 -0.8884
vn -0.3400 0.4593 -0.8206
vn -0.1769 0.8867 -0.4272
vn -0.2910 0.9114 -0.2910
vn -0.2552 0.7464 -0.6146
vn -0.9003 -0.2243 -0.3730
vn -0.6892 -0.2244 -0.6890
vn -0.8208 0.4592 -0.3398
vn -0.6146 0.7464 -0.2551
vn -0.4705 0.7465 -0.4704
vn -0.6657 0.7462 -0.0000
vn -0.9003 -0.2246 0.3729
vn -0.4272 0.8867 0.1770
vn -0.6281 0.4593 0.6281
vn -0.6148 0.7463 0.2552
vn -0.6891 -0.2240 0.6891
vn -0.1770 0.8867 0.4272
vn -0.2545 0.7465 0.6148
vn -0.0000 0.9114 0.4115
vn 0.1770 0.8866 0.4273
vn 0.2544 0.7465 0.6148
vn -0.0000 0.7465 0.6654
vn 0.3270 0.8866 0.3271
vn 0.4706 0.7463 0.4707
vn -0.1922 -0.8647 0.4640
vn -0.5024 -0.8646 -0.0000
vn -0.4641 -0.8646 -0.1922
vn 0.6147 0.7463 -0.2551
vn -0.1574 0.9113 -0.3804
vn -0.2909 0.9114 -0.2910
vn -0.2553 0.7464 -0.6146
vn -0.9745 -0.2242 0.0001
vn -0.3802 0.9114 0.1575
vn -0.3401 0.4589 0.8209
vn 0.6147 0.7463 0.2552
vn 0.3804 0.9113 -0.1575
vn -0.2909 0.9114 -0.2909
vn -0.3803 0.9113 -0.1574
vn -0.6147 0.7463 0.2551
vn 0.3553 -0.8646 -0.3552
vt 0.601779 0.508571
vt 0.575614 0.539279
vt 0.589720 0.506262
vt 0.578620 0.504118
vt 0.566536 0.533092
vt 0.530261 0.494782
vt 0.525800 0.505953
vt 0.507424 0.490444
vt 0.585361 0.545976
vt 0.550291 0.563924
vt 0.544331 0.554875
vt 0.517277 0.514412
vt 0.506411 0.493219
vt 0.520068 0.588509
vt 0.556668 0.573665
vt 0.515747 0.566607
vt 0.501526 0.496476
vt 0.504249 0.495244
vt 0.482929 0.577178
vt 0.517846 0.577160
vt 0.484966 0.566635
vt 0.494145 0.519108
vt 0.506184 0.519130
vt 0.498533 0.496396
vt 0.444242 0.573864
vt 0.480741 0.588509
vt 0.450530 0.564158
vt 0.456409 0.555146
vt 0.482964 0.514645
vt 0.425348 0.539793
vt 0.474425 0.506135
vt 0.495724 0.495354
vt 0.399484 0.510076
vt 0.415802 0.546459
vt 0.411023 0.507491
vt 0.434249 0.533614
vt 0.421752 0.505129
vt 0.492406 0.490510
vt 0.493657 0.493196
vt 0.398175 0.469248
vt 0.421326 0.473739
vt 0.469683 0.483082
vt 0.469664 0.495110
vt 0.492479 0.487556
vt 0.414595 0.431852
vt 0.410227 0.471596
vt 0.424341 0.438555
vt 0.433406 0.444761
vt 0.474190 0.471918
vt 0.449652 0.413912
vt 0.482622 0.463398
vt 0.493515 0.484796
vt 0.479897 0.389391
vt 0.443293 0.404166
vt 0.484204 0.411293
vt 0.455583 0.422962
vt 0.493767 0.458849
vt 0.498398 0.481582
vt 0.495573 0.482617
vt 0.517009 0.400726
vt 0.482112 0.400736
vt 0.514975 0.411255
vt 0.505809 0.458727
vt 0.555672 0.404025
vt 0.519196 0.389400
vt 0.549391 0.413729
vt 0.543520 0.422747
vt 0.504184 0.482677
vt 0.501420 0.481461
vt 0.574611 0.438044
vt 0.565736 0.444234
vt 0.516937 0.463321
vt 0.525584 0.471692
vt 0.600466 0.467749
vt 0.584142 0.431367
vt 0.578200 0.472724
vt 0.507506 0.487498
vt 0.506406 0.484707
vt 0.588924 0.470341
vt 0.530236 0.482740
vt 0.568759 0.502195
vt 0.535774 0.495841
vt 0.499973 0.488932
vt 0.464173 0.482013
vt 0.431194 0.475627
s 1
f 2/1/1 3/2/2 4/3/3
f 3/2/2 6/4/4 4/3/3
f 5/5/5 8/6/6 6/4/4
f 7/7/7 10/8/8 8/6/6
f 1/9/9 12/10/10 3/2/2
f 3/2/2 13/11/11 5/5/5
f 5/5/5 14/12/12 7/7/7
f 14/12/12 9/13/13 7/7/7
f 16/14/14 12/10/10 11/15/15
f 12/10/10 18/16/16 13/11/11
f 18/16/16 14/12/12 13/11/11
f 14/12/12 20/17/17 15/18/18
f 16/14/14 22/19/19 17/20/20
f 17/20/20 23/21/21 18/16/16
f 18/16/16 24/22/22 19/23/23
f 19/23/23 25/24/24 20/17/17
f 26/25/25 22/19/19 21/26/26
f 27/27/27 23/21/21 22/19/19
f 28/28/28 24/22/22 23/21/21
f 29/29/29 25/24/24 24/22/22
f 26/25/25 32/30/30 27/27/27
f 32/30/30 28/28/28 27/27/27
f 28/28/28 34/31/31 29/29/29
f 34/31/31 30/32/32 29/29/29
f 36/33/33 32/30/30 31/34/34
f 37/35/35 33/36/36 32/30/30
f 38/37/37 34/31/31 33/36/36
f 34/31/31 40/38/38 35/39/39
f 41/40/40 37/35/35 36/33/33
f 37/35/35 43/41/41 38/37/37
f 38/37/37 44/42/42 39/43/43
f 39/43/43 45/44/44 40/38/38
f 46/45/45 42/46/46 41/40/40
f 47/47/47 43/41/41 42/46/46
f 48/48/48 44/42/42 43/41/41
f 49/49/49 45/44/44 44/42/42
f 46/45/45 52/50/50 47/47/47
f 52/50/50 48/48/48 47/47/47
f 48/48/48 54/51/51 49/49/49
f 54/51/51 50/52/52 49/49/49
f 56/53/53 52/50/50 51/54/54
f 52/50/50 58/55/55 53/56/56
f 53/56/56 59/57/57 54/51/51
f 54/51/51 60/58/58 55/59/59
f 56/53/53 62/60/60 57/61/61
f 57/61/61 63/62/62 58/55/55
f 58/55/55 64/63/63 59/57/57
f 64/63/63 60/58/58 59/57/57
f 66/64/64 62/60/60 61/65/65
f 67/66/66 63/62/62 62/60/60
f 68/67/67 64/63/63 63/62/62
f 64/63/63 70/68/68 65/69/69
f 66/64/64 72/70/70 67/66/66
f 72/70/70 68/67/67 67/66/66
f 73/71/71 69/72/72 68/67/67
f 74/73/73 70/68/68 69/72/72
f 76/74/74 72/70/70 71/75/75
f 72/70/70 78/76/76 73/71/71
f 78/76/76 74/73/73 73/71/71
f 74/73/73 80/77/77 75/78/78
f 76/74/74 4/3/3 77/79/79
f 77/79/79 6/4/4 78/76/76
f 78/76/76 8/6/6 79/80/80
f 79/80/80 10/8/8 80/77/77
f 66/64/64 93/65/81 94/64/82
f 21/26/26 86/25/83 26/25/25
f 1/9/9 83/15/84 11/15/15
f 66/64/64 95/75/85 71/75/75
f 21/26/26 84/14/86 85/26/87
f 56/53/53 93/65/81 61/65/65
f 76/74/74 82/1/88 2/1/1
f 76/74/74 95/75/85 96/74/89
f 46/45/45 91/54/90 51/54/54
f 26/25/25 87/34/91 31/34/34
f 46/45/45 89/40/92 90/45/93
f 16/14/14 83/15/84 84/14/86
f 36/33/33 87/34/91 88/33/94
f 56/53/53 91/54/90 92/53/95
f 1/9/9 82/1/88 81/9/96
f 36/33/33 89/40/92 41/40/40
f 97/81/97 96/74/89 95/75/85
f 97/81/97 81/9/96 82/1/88
f 98/82/97 95/75/85 94/64/82
f 98/82/97 83/15/84 97/81/97
f 99/83/97 94/64/82 93/65/81
f 99/83/97 84/14/86 98/82/97
f 92/53/95 99/83/97 93/65/81
f 86/25/83 99/83/97 100/84/97
f 91/54/90 100/84/97 92/53/95
f 87/34/91 100/84/97 101/85/97
f 90/45/93 101/85/97 91/54/90
f 88/33/94 101/85/97 89/40/92
f 103/1/98 104/2/2 105/3/3
f 104/2/2 107/4/4 105/3/3
f 106/5/5 109/6/6 107/4/4
f 108/7/7 111/8/99 109/6/6
f 102/9/9 113/10/100 104/2/2
f 104/2/2 114/11/101 106/5/5
f 106/5/5 115/12/12 108/7/7
f 115/12/12 110/13/102 108/7/7
f 117/14/103 113/10/100 112/15/15
f 113/10/100 119/16/16 114/11/101
f 119/16/16 115/12/12 114/11/101
f 115/12/12 121/17/17 116/18/104
f 122/26/105 118/20/106 117/14/103
f 118/20/106 124/21/21 119/16/16
f 119/16/16 125/22/22 120/23/107
f 120/23/107 126/24/24 121/17/17
f 127/25/25 123/19/108 122/26/105
f 128/27/109 124/21/21 123/19/108
f 129/28/110 125/22/22 124/21/21
f 130/29/29 126/24/24 125/22/22
f 127/25/25 133/30/30 128/27/109
f 133/30/30 129/28/110 128/27/109
f 129/28/110 135/31/111 130/29/29
f 135/31/111 131/32/112 130/29/29
f 137/33/113 133/30/30 132/34/114
f 138/35/115 134/36/36 133/30/30
f 139/37/37 135/31/111 134/36/36
f 135/31/111 141/38/116 136/39/117
f 142/40/40 138/35/115 137/33/113
f 138/35/115 144/41/41 139/37/37
f 139/37/37 145/42/42 140/43/43
f 140/43/43 146/44/118 141/38/116
f 147/45/119 143/46/46 142/40/40
f 148/47/47 144/41/41 143/46/46
f 149/48/120 145/42/42 144/41/41
f 150/49/49 146/44/118 145/42/42
f 147/45/119 153/50/121 148/47/47
f 153/50/121 149/48/120 148/47/47
f 149/48/120 155/51/51 150/49/49
f 155/51/51 151/52/122 150/49/49
f 157/53/53 153/50/121 152/54/123
f 153/50/121 159/55/124 154/56/56
f 154/56/56 160/57/57 155/51/51
f 155/51/51 161/58/125 156/59/59
f 157/53/53 163/60/60 158/61/61
f 158/61/61 164/62/62 159/55/124
f 159/55/124 165/63/126 160/57/57
f 165/63/126 161/58/125 160/57/57
f 167/64/64 163/60/60 162/65/65
f 168/66/66 164/62/62 163/60/60
f 169/67/127 165/63/126 164/62/62
f 165/63/126 171/68/128 166/69/129
f 167/64/64 173/70/70 168/66/66
f 173/70/70 169/67/127 168/66/66
f 174/71/130 170/72/72 169/67/127
f 175/73/73 171/68/128 170/72/72
f 177/74/74 173/70/70 172/75/75
f 173/70/70 179/76/76 174/71/130
f 179/76/76 175/73/73 174/71/130
f 175/73/73 181/77/77 176/78/131
f 177/74/74 105/3/3 178/79/79
f 178/79/79 107/4/4 179/76/76
f 179/76/76 109/6/6 180/80/80
f 180/80/80 111/8/99 181/77/77
f 162/65/65 195/64/82 167/64/64
f 122/26/105 187/25/83 127/25/25
f 102/9/9 184/15/84 112/15/15
f 167/64/64 196/75/85 172/75/75
f 122/26/105 185/14/86 186/26/87
f 162/65/65 193/53/132 194/65/81
f 177/74/74 183/1/88 103/1/98
f 177/74/74 196/75/85 197/74/89
f 147/45/119 192/54/90 152/54/123
f 127/25/25 188/34/91 132/34/114
f 147/45/119 190/40/133 191/45/93
f 117/14/103 184/15/84 185/14/86
f 137/33/113 188/34/91 189/33/134
f 157/53/53 192/54/90 193/53/132
f 102/9/9 183/1/88 182/9/96
f 137/33/113 190/40/133 142/40/40
f 198/81/97 197/74/89 196/75/85
f 198/81/97 182/9/96 183/1/88
f 199/82/97 196/75/85 195/64/82
f 199/82/97 184/15/84 198/81/97
f 200/83/97 195/64/82 194/65/81
f 200/83/97 185/14/86 199/82/97
f 193/53/132 200/83/97 194/65/81
f 187/25/83 200/83/97 201/84/97
f 192/54/90 201/84/97 193/53/132
f 188/34/91 201/84/97 202/85/97
f 191/45/93 202/85/97 192/54/90
f 189/33/134 202/85/97 190/40/133
f 204/1/98 205/2/2 206/3/3
f 205/2/2 208/4/4 206/3/3
f 207/5/5 210/6/6 208/4/4
f 209/7/7 212/8/99 210/6/6
f 203/9/9 214/10/100 205/2/2
f 205/2/2 215/11/101 207/5/5
f 207/5/5 216/12/12 209/7/7
f 216/12/12 211/13/135 209/7/7
f 218/14/103 214/10/100 213/15/15
f 214/10/100 220/16/16 215/11/101
f 220/16/16 216/12/12 215/11/101
f 216/12/12 222/17/17 217/18/104
f 223/26/105 219/20/106 218/14/103
f 219/20/106 225/21/21 220/16/16
f 220/16/16 226/22/22 221/23/23
f 221/23/23 227/24/24 222/17/17
f 228/25/25 224/19/108 223/26/105
f 229/27/109 225/21/21 224/19/108
f 230/28/110 226/22/22 225/21/21
f 231/29/136 227/24/24 226/22/22
f 228/25/25 234/30/30 229/27/109
f 234/30/30 230/28/110 229/27/109
f 230/28/110 236/31/137 231/29/136
f 236/31/137 232/32/138 231/29/136
f 238/33/113 234/30/30 233/34/34
f 239/35/115 235/36/36 234/30/30
f 240/37/37 236/31/137 235/36/36
f 236/31/137 242/38/38 237/39/117
f 243/40/139 239/35/115 238/33/113
f 239/35/115 245/41/41 240/37/37
f 240/37/37 246/42/42 241/43/43
f 241/43/43 247/44/118 242/38/38
f 248/45/119 244/46/46 243/40/139
f 249/47/47 245/41/41 244/46/46
f 250/48/120 246/42/42 245/41/41
f 251/49/140 247/44/118 246/42/42
f 248/45/119 254/50/121 249/47/47
f 254/50/121 250/48/120 249/47/47
f 250/48/120 256/51/51 251/49/140
f 256/51/51 252/52/122 251/49/140
f 258/53/53 254/50/121 253/54/123
f 254/50/121 260/55/124 255/56/56
f 255/56/56 261/57/57 256/51/51
f 256/51/51 262/58/58 257/59/59
f 258/53/53 264/60/60 259/61/141
f 259/61/141 265/62/62 260/55/124
f 260/55/124 266/63/126 261/57/57
f 266/63/126 262/58/58 261/57/57
f 268/64/64 264/60/60 263/65/65
f 269/66/66 265/62/62 264/60/60
f 270/67/127 266/63/126 265/62/62
f 266/63/126 272/68/128 267/69/129
f 268/64/64 274/70/70 269/66/66
f 274/70/70 270/67/127 269/66/66
f 275/71/130 271/72/72 270/67/127
f 276/73/73 272/68/128 271/72/72
f 278/74/74 274/70/70 273/75/75
f 274/70/70 280/76/76 275/71/130
f 280/76/76 276/73/73 275/71/130
f 276/73/73 282/77/142 277/78/131
f 278/74/74 206/3/3 279/79/79
f 279/79/79 208/4/4 280/76/76
f 280/76/76 210/6/6 281/80/80
f 281/80/80 212/8/99 282/77/142
f 263/65/65 296/64/82 268/64/64
f 223/26/105 288/25/83 228/25/25
f 203/9/9 285/15/84 213/15/15
f 268/64/64 297/75/85 273/75/75
f 223/26/105 286/14/86 287/26/87
f 263/65/65 294/53/132 295/65/81
f 278/74/74 284/1/88 204/1/98
f 278/74/74 297/75/85 298/74/89
f 248/45/119 293/54/90 253/54/123
f 228/25/25 289/34/91 233/34/34
f 248/45/119 291/40/133 292/45/93
f 218/14/103 285/15/84 286/14/86
f 238/33/113 289/34/91 290/33/134
f 258/53/53 293/54/90 294/53/132
f 203/9/9 284/1/88 283/9/96
f 238/33/113 291/40/133 243/40/139
f 299/81/97 298/74/89 297/75/85
f 299/81/97 283/9/96 284/1/88
f 300/82/97 297/75/85 296/64/82
f 300/82/97 285/15/84 299/81/97
f 301/83/97 296/64/82 295/65/81
f 301/83/97 286/14/86 300/82/97
f 294/53/132 301/83/97 295/65/81
f 288/25/83 301/83/97 302/84/97
f 293/54/90 302/84/97 294/53/132
f 289/34/91 302/84/97 303/85/97
f 292/45/93 303/85/97 293/54/90
f 290/33/134 303/85/97 291/40/133
f 305/1/1 306/2/2 307/3/3
f 306/2/2 309/4/4 307/3/3
f 308/5/5 311/6/6 309/4/4
f 310/7/143 313/8/8 311/6/6
f 304/9/9 315/10/10 306/2/2
f 306/2/2 316/11/11 308/5/5
f 308/5/5 317/12/12 310/7/143
f 317/12/12 312/13/102 310/7/143
f 319/14/14 315/10/10 314/15/15
f 315/10/10 321/16/16 316/11/11
f 321/16/16 317/12/12 316/11/11
f 317/12/12 323/17/17 318/18/18
f 319/14/14 325/19/19 320/20/20
f 320/20/20 326/21/21 321/16/16
f 321/16/16 327/22/22 322/23/23
f 322/23/23 328/24/24 323/17/17
f 329/25/25 325/19/19 324/26/26
f 330/27/27 326/21/21 325/19/19
f 331/28/28 327/22/22 326/21/21
f 332/29/136 328/24/24 327/22/22
f 329/25/25 335/30/30 330/27/27
f 335/30/30 331/28/28 330/27/27
f 331/28/28 337/31/144 332/29/136
f 337/31/144 333/32/112 332/29/136
f 339/33/33 335/30/30 334/34/34
f 340/35/35 336/36/36 335/30/30
f 341/37/37 337/31/144 336/36/36
f 337/31/144 343/38/38 338/39/39
f 344/40/40 340/35/35 339/33/33
f 340/35/35 346/41/41 341/37/37
f 341/37/37 347/42/42 342/43/145
f 342/43/145 348/44/44 343/38/38
f 349/45/45 345/46/46 344/40/40
f 350/47/47 346/41/41 345/46/46
f 351/48/48 347/42/42 346/41/41
f 352/49/140 348/44/44 347/42/42
f 349/45/45 355/50/50 350/47/47
f 355/50/50 351/48/48 350/47/47
f 351/48/48 357/51/51 352/49/140
f 357/51/51 353/52/146 352/49/140
f 359/53/53 355/50/50 354/54/54
f 355/50/50 361/55/55 356/56/56
f 356/56/56 362/57/57 357/51/51
f 357/51/51 363/58/58 358/59/59
f 359/53/53 365/60/60 360/61/61
f 360/61/61 366/62/62 361/55/55
f 361/55/55 367/63/63 362/57/57
f 367/63/63 363/58/58 362/57/57
f 369/64/64 365/60/60 364/65/65
f 370/66/66 366/62/62 365/60/60
f 371/67/67 367/63/63 366/62/62
f 367/63/63 373/68/68 368/69/69
f 369/64/64 375/70/70 370/66/66
f 375/70/70 371/67/67 370/66/66
f 376/71/71 372/72/72 371/67/67
f 377/73/73 373/68/68 372/72/72
f 379/74/74 375/70/70 374/75/75
f 375/70/70 381/76/76 376/71/71
f 381/76/76 377/73/73 376/71/71
f 377/73/73 383/77/77 378/78/78
f 379/74/74 307/3/3 380/79/79
f 380/79/79 309/4/4 381/76/76
f 381/76/76 311/6/6 382/80/80
f 382/80/80 313/8/8 383/77/77
f 369/64/64 396/65/81 397/64/82
f 324/26/26 389/25/83 329/25/25
f 304/9/9 386/15/147 314/15/15
f 369/64/64 398/75/85 374/75/75
f 324/26/26 387/14/86 388/26/87
f 359/53/53 396/65/81 364/65/65
f 379/74/74 385/1/88 305/1/1
f 379/74/74 398/75/85 399/74/89
f 349/45/45 394/54/90 354/54/54
f 334/34/34 389/25/83 390/34/91
f 349/45/45 392/40/92 393/45/93
f 314/15/15 387/14/86 319/14/14
f 339/33/33 390/34/91 391/33/94
f 359/53/53 394/54/90 395/53/95
f 304/9/9 385/1/88 384/9/96
f 339/33/33 392/40/92 344/40/40
f 400/81/97 399/74/89 398/75/85
f 400/81/97 384/9/96 385/1/88
f 401/82/97 398/75/85 397/64/82
f 401/82/97 386/15/147 400/81/97
f 402/83/97 397/64/82 396/65/81
f 402/83/97 387/14/86 401/82/97
f 395/53/95 402/83/97 396/65/81
f 389/25/83 402/83/97 403/84/97
f 394/54/90 403/84/97 395/53/95
f 390/34/91 403/84/97 404/85/97
f 393/45/93 404/85/97 394/54/90
f 391/33/94 404/85/97 392/40/92
f 2/1/1 1/9/9 3/2/2
f 3/2/2 5/5/5 6/4/4
f 5/5/5 7/7/7 8/6/6
f 7/7/7 9/13/13 10/8/8
f 1/9/9 11/15/15 12/10/10
f 3/2/2 12/10/10 13/11/11
f 5/5/5 13/11/11 14/12/12
f 14/12/12 15/18/18 9/13/13
f 16/14/14 17/20/20 12/10/10
f 12/10/10 17/20/20 18/16/16
f 18/16/16 19/23/23 14/12/12
f 14/12/12 19/23/23 20/17/17
f 16/14/14 21/26/26 22/19/19
f 17/20/20 22/19/19 23/21/21
f 18/16/16 23/21/21 24/22/22
f 19/23/23 24/22/22 25/24/24
f 26/25/25 27/27/27 22/19/19
f 27/27/27 28/28/28 23/21/21
f 28/28/28 29/29/29 24/22/22
f 29/29/29 30/32/32 25/24/24
f 26/25/25 31/34/34 32/30/30
f 32/30/30 33/36/36 28/28/28
f 28/28/28 33/36/36 34/31/31
f 34/31/31 35/39/39 30/32/32
f 36/33/33 37/35/35 32/30/30
f 37/35/35 38/37/37 33/36/36
f 38/37/37 39/43/43 34/31/31
f 34/31/31 39/43/43 40/38/38
f 41/40/40 42/46/46 37/35/35
f 37/35/35 42/46/46 43/41/41
f 38/37/37 43/41/41 44/42/42
f 39/43/43 44/42/42 45/44/44
f 46/45/45 47/47/47 42/46/46
f 47/47/47 48/48/48 43/41/41
f 48/48/48 49/49/49 44/42/42
f 49/49/49 50/52/52 45/44/44
f 46/45/45 51/54/54 52/50/50
f 52/50/50 53/56/56 48/48/48
f 48/48/48 53/56/56 54/51/51
f 54/51/51 55/59/59 50/52/52
f 56/53/53 57/61/61 52/50/50
f 52/50/50 57/61/61 58/55/55
f 53/56/56 58/55/55 59/57/57
f 54/51/51 59/57/57 60/58/58
f 56/53/53 61/65/65 62/60/60
f 57/61/61 62/60/60 63/62/62
f 58/55/55 63/62/62 64/63/63
f 64/63/63 65/69/69 60/58/58
f 66/64/64 67/66/66 62/60/60
f 67/66/66 68/67/67 63/62/62
f 68/67/67 69/72/72 64/63/63
f 64/63/63 69/72/72 70/68/68
f 66/64/64 71/75/75 72/70/70
f 72/70/70 73/71/71 68/67/67
f 73/71/71 74/73/73 69/72/72
f 74/73/73 75/78/78 70/68/68
f 76/74/74 77/79/79 72/70/70
f 72/70/70 77/79/79 78/76/76
f 78/76/76 79/80/80 74/73/73
f 74/73/73 79/80/80 80/77/77
f 76/74/74 2/1/1 4/3/3
f 77/79/79 4/3/3 6/4/4
f 78/76/76 6/4/4 8/6/6
f 79/80/80 8/6/6 10/8/8
f 66/64/64 61/65/65 93/65/81
f 21/26/26 85/26/87 86/25/83
f 1/9/9 81/9/96 83/15/84
f 66/64/64 94/64/82 95/75/85
f 21/26/26 16/14/14 84/14/86
f 56/53/53 92/53/95 93/65/81
f 76/74/74 96/74/89 82/1/88
f 76/74/74 71/75/75 95/75/85
f 46/45/45 90/45/93 91/54/90
f 26/25/25 86/25/83 87/34/91
f 46/45/45 41/40/40 89/40/92
f 16/14/14 11/15/15 83/15/84
f 36/33/33 31/34/34 87/34/91
f 56/53/53 51/54/54 91/54/90
f 1/9/9 2/1/1 82/1/88
f 36/33/33 88/33/94 89/40/92
f 97/81/97 82/1/88 96/74/89
f 97/81/97 83/15/84 81/9/96
f 98/82/97 97/81/97 95/75/85
f 98/82/97 84/14/86 83/15/84
f 99/83/97 98/82/97 94/64/82
f 99/83/97 85/26/87 84/14/86
f 92/53/95 100/84/97 99/83/97
f 86/25/83 85/26/87 99/83/97
f 91/54/90 101/85/97 100/84/97
f 87/34/91 86/25/83 100/84/97
f 90/45/93 89/40/92 101/85/97
f 88/33/94 87/34/91 101/85/97
f 103/1/98 102/9/9 104/2/2
f 104/2/2 106/5/5 107/4/4
f 106/5/5 108/7/7 109/6/6
f 108/7/7 110/13/102 111/8/99
f 102/9/9 112/15/15 113/10/100
f 104/2/2 113/10/100 114/11/101
f 106/5/5 114/11/101 115/12/12
f 115/12/12 116/18/104 110/13/102
f 117/14/103 118/20/106 113/10/100
f 113/10/100 118/20/106 119/16/16
f 119/16/16 120/23/107 115/12/12
f 115/12/12 120/23/107 121/17/17
f 122/26/105 123/19/108 118/20/106
f 118/20/106 123/19/108 124/21/21
f 119/16/16 124/21/21 125/22/22
f 120/23/107 125/22/22 126/24/24
f 127/25/25 128/27/109 123/19/108
f 128/27/109 129/28/110 124/21/21
f 129/28/110 130/29/29 125/22/22
f 130/29/29 131/32/112 126/24/24
f 127/25/25 132/34/114 133/30/30
f 133/30/30 134/36/36 129/28/110
f 129/28/110 134/36/36 135/31/111
f 135/31/111 136/39/117 131/32/112
f 137/33/113 138/35/115 133/30/30
f 138/35/115 139/37/37 134/36/36
f 139/37/37 140/43/43 135/31/111
f 135/31/111 140/43/43 141/38/116
f 142/40/40 143/46/46 138/35/115
f 138/35/115 143/46/46 144/41/41
f 139/37/37 144/41/41 145/42/42
f 140/43/43 145/42/42 146/44/118
f 147/45/119 148/47/47 143/46/46
f 148/47/47 149/48/120 144/41/41
f 149/48/120 150/49/49 145/42/42
f 150/49/49 151/52/122 146/44/118
f 147/45/119 152/54/123 153/50/121
f 153/50/121 154/56/56 149/48/120
f 149/48/120 154/56/56 155/51/51
f 155/51/51 156/59/59 151/52/122
f 157/53/53 158/61/61 153/50/121
f 153/50/121 158/61/61 159/55/124
f 154/56/56 159/55/124 160/57/57
f 155/51/51 160/57/57 161/58/125
f 157/53/53 162/65/65 163/60/60
f 158/61/61 163/60/60 164/62/62
f 159/55/124 164/62/62 165/63/126
f 165/63/126 166/69/129 161/58/125
f 167/64/64 168/66/66 163/60/60
f 168/66/66 169/67/127 164/62/62
f 169/67/127 170/72/72 165/63/126
f 165/63/126 170/72/72 171/68/128
f 167/64/64 172/75/75 173/70/70
f 173/70/70 174/71/130 169/67/127
f 174/71/130 175/73/73 170/72/72
f 175/73/73 176/78/131 171/68/128
f 177/74/74 178/79/79 173/70/70
f 173/70/70 178/79/79 179/76/76
f 179/76/76 180/80/80 175/73/73
f 175/73/73 180/80/80 181/77/77
f 177/74/74 103/1/98 105/3/3
f 178/79/79 105/3/3 107/4/4
f 179/76/76 107/4/4 109/6/6
f 180/80/80 109/6/6 111/8/99
f 162/65/65 194/65/81 195/64/82
f 122/26/105 186/26/87 187/25/83
f 102/9/9 182/9/96 184/15/84
f 167/64/64 195/64/82 196/75/85
f 122/26/105 117/14/103 185/14/86
f 162/65/65 157/53/53 193/53/132
f 177/74/74 197/74/89 183/1/88
f 177/74/74 172/75/75 196/75/85
f 147/45/119 191/45/93 192/54/90
f 127/25/25 187/25/83 188/34/91
f 147/45/119 142/40/40 190/40/133
f 117/14/103 112/15/15 184/15/84
f 137/33/113 132/34/114 188/34/91
f 157/53/53 152/54/123 192/54/90
f 102/9/9 103/1/98 183/1/88
f 137/33/113 189/33/134 190/40/133
f 198/81/97 183/1/88 197/74/89
f 198/81/97 184/15/84 182/9/96
f 199/82/97 198/81/97 196/75/85
f 199/82/97 185/14/86 184/15/84
f 200/83/97 199/82/97 195/64/82
f 200/83/97 186/26/87 185/14/86
f 193/53/132 201/84/97 200/83/97
f 187/25/83 186/26/87 200/83/97
f 192/54/90 202/85/97 201/84/97
f 188/34/91 187/25/83 201/84/97
f 191/45/93 190/40/133 202/85/97
f 189/33/134 188/34/91 202/85/97
f 204/1/98 203/9/9 205/2/2
f 205/2/2 207/5/5 208/4/4
f 207/5/5 209/7/7 210/6/6
f 209/7/7 211/13/135 212/8/99
f 203/9/9 213/15/15 214/10/100
f 205/2/2 214/10/100 215/11/101
f 207/5/5 215/11/101 216/12/12
f 216/12/12 217/18/104 211/13/135
f 218/14/103 219/20/106 214/10/100
f 214/10/100 219/20/106 220/16/16
f 220/16/16 221/23/23 216/12/12
f 216/12/12 221/23/23 222/17/17
f 223/26/105 224/19/108 219/20/106
f 219/20/106 224/19/108 225/21/21
f 220/16/16 225/21/21 226/22/22
f 221/23/23 226/22/22 227/24/24
f 228/25/25 229/27/109 224/19/108
f 229/27/109 230/28/110 225/21/21
f 230/28/110 231/29/136 226/22/22
f 231/29/136 232/32/138 227/24/24
f 228/25/25 233/34/34 234/30/30
f 234/30/30 235/36/36 230/28/110
f 230/28/110 235/36/36 236/31/137
f 236/31/137 237/39/117 232/32/138
f 238/33/113 239/35/115 234/30/30
f 239/35/115 240/37/37 235/36/36
f 240/37/37 241/43/43 236/31/137
f 236/31/137 241/43/43 242/38/38
f 243/40/139 244/46/46 239/35/115
f 239/35/115 244/46/46 245/41/41
f 240/37/37 245/41/41 246/42/42
f 241/43/43 246/42/42 247/44/118
f 248/45/119 249/47/47 244/46/46
f 249/47/47 250/48/120 245/41/41
f 250/48/120 251/49/140 246/42/42
f 251/49/140 252/52/122 247/44/118
f 248/45/119 253/54/123 254/50/121
f 254/50/121 255/56/56 250/48/120
f 250/48/120 255/56/56 256/51/51
f 256/51/51 257/59/59 252/52/122
f 258/53/53 259/61/141 254/50/121
f 254/50/121 259/61/141 260/55/124
f 255/56/56 260/55/124 261/57/57
f 256/51/51 261/57/57 262/58/58
f 258/53/53 263/65/65 264/60/60
f 259/61/141 264/60/60 265/62/62
f 260/55/124 265/62/62 266/63/126
f 266/63/126 267/69/129 262/58/58
f 268/64/64 269/66/66 264/60/60
f 269/66/66 270/67/127 265/62/62
f 270/67/127 271/72/72 266/63/126
f 266/63/126 271/72/72 272/68/128
f 268/64/64 273/75/75 274/70/70
f 274/70/70 275/71/130 270/67/127
f 275/71/130 276/73/73 271/72/72
f 276/73/73 277/78/131 272/68/128
f 278/74/74 279/79/79 274/70/70
f 274/70/70 279/79/79 280/76/76
f 280/76/76 281/80/80 276/73/73
f 276/73/73 281/80/80 282/77/142
f 278/74/74 204/1/98 206/3/3
f 279/79/79 206/3/3 208/4/4
f 280/76/76 208/4/4 210/6/6
f 281/80/80 210/6/6 212/8/99
f 263/65/65 295/65/81 296/64/82
f 223/26/105 287/26/87 288/25/83
f 203/9/9 283/9/96 285/15/84
f 268/64/64 296/64/82 297/75/85
f 223/26/105 218/14/103 286/14/86
f 263/65/65 258/53/53 294/53/132
f 278/74/74 298/74/89 284/1/88
f 278/74/74 273/75/75 297/75/85
f 248/45/119 292/45/93 293/54/90
f 228/25/25 288/25/83 289/34/91
f 248/45/119 243/40/139 291/40/133
f 218/14/103 213/15/15 285/15/84
f 238/33/113 233/34/34 289/34/91
f 258/53/53 253/54/123 293/54/90
f 203/9/9 204/1/98 284/1/88
f 238/33/113 290/33/134 291/40/133
f 299/81/97 284/1/88 298/74/89
f 299/81/97 285/15/84 283/9/96
f 300/82/97 299/81/97 297/75/85
f 300/82/97 286/14/86 285/15/84
f 301/83/97 300/82/97 296/64/82
f 301/83/97 287/26/87 286/14/86
f 294/53/132 302/84/97 301/83/97
f 288/25/83 287/26/87 301/83/97
f 293/54/90 303/85/97 302/84/97
f 289/34/91 288/25/83 302/84/97
f 292/45/93 291/40/133 303/85/97
f 290/33/134 289/34/91 303/85/97
f 305/1/1 304/9/9 306/2/2
f 306/2/2 308/5/5 309/4/4
f 308/5/5 310/7/143 311/6/6
f 310/7/143 312/13/102 313/8/8
f 304/9/9 314/15/15 315/10/10
f 306/2/2 315/10/10 316/11/11
f 308/5/5 316/11/11 317/12/12
f 317/12/12 318/18/18 312/13/102
f 319/14/14 320/20/20 315/10/10
f 315/10/10 320/20/20 321/16/16
f 321/16/16 322/23/23 317/12/12
f 317/12/12 322/23/23 323/17/17
f 319/14/14 324/26/26 325/19/19
f 320/20/20 325/19/19 326/21/21
f 321/16/16 326/21/21 327/22/22
f 322/23/23 327/22/22 328/24/24
f 329/25/25 330/27/27 325/19/19
f 330/27/27 331/28/28 326/21/21
f 331/28/28 332/29/136 327/22/22
f 332/29/136 333/32/112 328/24/24
f 329/25/25 334/34/34 335/30/30
f 335/30/30 336/36/36 331/28/28
f 331/28/28 336/36/36 337/31/144
f 337/31/144 338/39/39 333/32/112
f 339/33/33 340/35/35 335/30/30
f 340/35/35 341/37/37 336/36/36
f 341/37/37 342/43/145 337/31/144
f 337/31/144 342/43/145 343/38/38
f 344/40/40 345/46/46 340/35/35
f 340/35/35 345/46/46 346/41/41
f 341/37/37 346/41/41 347/42/42
f 342/43/145 347/42/42 348/44/44
f 349/45/45 350/47/47 345/46/46
f 350/47/47 351/48/48 346/41/41
f 351/48/48 352/49/140 347/42/42
f 352/49/140 353/52/146 348/44/44
f 349/45/45 354/54/54 355/50/50
f 355/50/50 356/56/56 351/48/48
f 351/48/48 356/56/56 357/51/51
f 357/51/51 358/59/59 353/52/146
f 359/53/53 360/61/61 355/50/50
f 355/50/50 360/61/61 361/55/55
f 356/56/56 361/55/55 362/57/57
f 357/51/51 362/57/57 363/58/58
f 359/53/53 364/65/65 365/60/60
f 360/61/61 365/60/60 366/62/62
f 361/55/55 366/62/62 367/63/63
f 367/63/63 368/69/69 363/58/58
f 369/64/64 370/66/66 365/60/60
f 370/66/66 371/67/67 366/62/62
f 371/67/67 372/72/72 367/63/63
f 367/63/63 372/72/72 373/68/68
f 369/64/64 374/75/75 375/70/70
f 375/70/70 376/71/71 371/67/67
f 376/71/71 377/73/73 372/72/72
f 377/73/73 378/78/78 373/68/68
f 379/74/74 380/79/79 375/70/70
f 375/70/70 380/79/79 381/76/76
f 381/76/76 382/80/80 377/73/73
f 377/73/73 382/80/80 383/77/77
f 379/74/74 305/1/1 307/3/3
f 380/79/79 307/3/3 309/4/4
f 381/76/76 309/4/4 311/6/6
f 382/80/80 311/6/6 313/8/8
f 369/64/64 364/65/65 396/65/81
f 324/26/26 388/26/87 389/25/83
f 304/9/9 384/9/96 386/15/147
f 369/64/64 397/64/82 398/75/85
f 324/26/26 319/14/14 387/14/86
f 359/53/53 395/53/95 396/65/81
f 379/74/74 399/74/89 385/1/88
f 379/74/74 374/75/75 398/75/85
f 349/45/45 393/45/93 394/54/90
f 334/34/34 329/25/25 389/25/83
f 349/45/45 344/40/40 392/40/92
f 314/15/15 386/15/147 387/14/86
f 339/33/33 334/34/34 390/34/91
f 359/53/53 354/54/54 394/54/90
f 304/9/9 305/1/1 385/1/88
f 339/33/33 391/33/94 392/40/92
f 400/81/97 385/1/88 399/74/89
f 400/81/97 386/15/147 384/9/96
f 401/82/97 400/81/97 398/75/85
f 401/82/97 387/14/86 386/15/147
f 402/83/97 401/82/97 397/64/82
f 402/83/97 388/26/87 387/14/86
f 395/53/95 403/84/97 402/83/97
f 389/25/83 388/26/87 402/83/97
f 394/54/90 404/85/97 403/84/97
f 390/34/91 389/25/83 403/84/97
f 393/45/93 392/40/92 404/85/97
f 391/33/94 390/34/91 404/85/97
