# Blender 3.6.23
# www.blender.org
o sol.056
v -1.973363 0.432430 -3.171511
v -1.973695 0.432430 -3.168048
v -1.973864 0.429417 -3.166318
v -1.973700 0.426405 -3.168049
v -1.973368 0.426405 -3.171512
v -1.973199 0.429418 -3.173242
v -1.954106 0.432290 -3.169105
v -1.954609 0.432289 -3.165663
v -1.954906 0.429277 -3.163949
v -1.954699 0.426266 -3.165677
v -1.954196 0.426266 -3.169118
v -1.953900 0.429278 -3.170832
v -1.934740 0.431837 -3.165858
v -1.935510 0.431842 -3.162466
v -1.935959 0.428833 -3.160780
v -1.935638 0.425819 -3.162487
v -1.934868 0.425814 -3.165879
v -1.934419 0.428823 -3.167564
v -1.915955 0.431451 -3.160438
v -1.917235 0.431464 -3.157203
v -1.917902 0.428458 -3.155586
v -1.917289 0.425440 -3.157202
v -1.916010 0.425427 -3.160436
v -1.915343 0.428433 -3.162054
v -1.898568 0.431513 -3.151550
v -1.900318 0.431526 -3.148545
v -1.901184 0.428521 -3.147023
v -1.900299 0.425502 -3.148508
v -1.898549 0.425489 -3.151513
v -1.897683 0.428495 -3.153035
v -1.882116 0.431679 -3.140730
v -1.884070 0.431691 -3.137853
v -1.885047 0.428685 -3.136401
v -1.884070 0.425667 -3.137828
v -1.882116 0.425655 -3.140705
v -1.881139 0.428661 -3.142156
v -1.865979 0.431605 -3.129416
v -1.868149 0.431617 -3.126697
v -1.869239 0.428610 -3.125329
v -1.868159 0.425592 -3.126680
v -1.865990 0.425581 -3.129399
v -1.864900 0.428587 -3.130766
v -1.851572 0.431693 -3.116365
v -1.854182 0.431699 -3.114066
v -1.855452 0.428690 -3.112870
v -1.854113 0.425675 -3.113973
v -1.851503 0.425670 -3.116272
v -1.850232 0.428679 -3.117468
v -1.840486 0.432344 -3.100493
v -1.843410 0.432336 -3.098610
v -1.844816 0.429321 -3.097594
v -1.843298 0.426314 -3.098461
v -1.840374 0.426322 -3.100344
v -1.838968 0.429337 -3.101360
v -1.830554 0.432891 -3.083735
v -1.833479 0.432883 -3.081854
v -1.834922 0.429867 -3.080895
v -1.833439 0.426859 -3.081817
v -1.830514 0.426867 -3.083698
v -1.829071 0.429883 -3.084657
v -1.819451 0.432681 -3.067767
v -1.822382 0.432673 -3.065894
v -1.823866 0.429657 -3.065000
v -1.822419 0.426649 -3.065978
v -1.819488 0.426657 -3.067851
v -1.818004 0.429673 -3.068745
v -1.809729 0.432313 -3.051138
v -1.812916 0.432311 -3.049745
v -1.814517 0.429298 -3.049070
v -1.812931 0.426286 -3.049788
v -1.809744 0.426289 -3.051181
v -1.808143 0.429302 -3.051855
v -1.804120 0.432394 -3.032667
v -1.807502 0.432392 -3.031853
v -1.809186 0.429379 -3.031428
v -1.807490 0.426368 -3.031816
v -1.804108 0.426369 -3.032631
v -1.802423 0.429382 -3.033056
v -1.800664 0.432557 -3.013507
v -1.804088 0.432555 -3.012897
v -1.805798 0.429541 -3.012589
v -1.804083 0.426530 -3.012892
v -1.800658 0.426533 -3.013501
v -1.798949 0.429546 -3.013809
v -1.797328 0.432438 -2.994541
v -1.800774 0.432436 -2.994069
v -1.802497 0.429422 -2.993852
v -1.800775 0.426411 -2.994107
v -1.797329 0.426414 -2.994579
v -1.795605 0.429427 -2.994796
v -1.795459 0.432317 -2.975492
v -1.798936 0.432315 -2.975410
v -1.800673 0.429302 -2.975366
v -1.798933 0.426291 -2.975405
v -1.795456 0.426292 -2.975487
v -1.793719 0.429305 -2.975530
v -1.796437 0.432475 -2.956244
v -1.799892 0.432470 -2.956640
v -1.801620 0.429455 -2.956801
v -1.799893 0.426446 -2.956565
v -1.796437 0.426451 -2.956168
v -1.794709 0.429465 -2.956007
v -1.799856 0.432797 -2.937219
v -1.803241 0.432786 -2.938021
v -1.804936 0.429768 -2.938367
v -1.803247 0.426762 -2.937911
v -1.799862 0.426773 -2.937109
v -1.798167 0.429791 -2.936764
v -1.805297 0.433166 -2.918805
v -1.808607 0.433151 -2.919874
v -1.810259 0.430131 -2.920375
v -1.808601 0.427127 -2.919806
v -1.805292 0.427142 -2.918736
v -1.803640 0.430162 -2.918235
v -1.811708 0.433203 -2.900562
v -1.814994 0.433188 -2.901702
v -1.816608 0.430168 -2.902313
v -1.814937 0.427164 -2.901785
v -1.811651 0.427179 -2.900645
v -1.810036 0.430199 -2.900034
v -1.818067 0.432529 -2.881982
v -1.821308 0.432518 -2.883245
v -1.822876 0.429502 -2.883983
v -1.821203 0.426498 -2.883458
v -1.817963 0.426510 -2.882195
v -1.816395 0.429525 -2.881457
v -1.825966 0.431663 -2.863989
v -1.829015 0.431668 -2.865663
v -1.830491 0.428661 -2.866597
v -1.828919 0.425648 -2.865856
v -1.825871 0.425643 -2.864182
v -1.824394 0.428650 -2.863248
v -1.836947 0.431128 -2.847632
v -1.839706 0.431149 -2.849750
v -1.841058 0.428148 -2.850876
v -1.839650 0.425126 -2.849883
v -1.836891 0.425106 -2.847765
v -1.835540 0.428107 -2.846640
v -1.850022 0.430749 -2.832671
v -1.852549 0.430777 -2.835061
v -1.853789 0.427780 -2.836317
v -1.852503 0.424754 -2.835181
v -1.849977 0.424726 -2.832791
v -1.848736 0.427723 -2.831536
v -1.864273 0.430346 -2.818760
v -1.866536 0.430380 -2.821402
v -1.867657 0.427385 -2.822770
v -1.866516 0.424356 -2.821497
v -1.864253 0.424322 -2.818855
v -1.863132 0.427317 -2.817487
v -1.880093 0.430245 -2.806918
v -1.881909 0.430280 -2.809885
v -1.882861 0.427285 -2.811376
v -1.881997 0.424256 -2.809901
v -1.880181 0.424221 -2.806935
v -1.879229 0.427216 -2.805443
v -1.897796 0.430774 -2.798230
v -1.899152 0.430798 -2.801433
v -1.899922 0.427799 -2.803018
v -1.899335 0.424776 -2.801400
v -1.897979 0.424752 -2.798198
v -1.897209 0.427751 -2.796612
v -1.916406 0.431427 -2.791527
v -1.917522 0.431444 -2.794821
v -1.918152 0.428441 -2.796459
v -1.917666 0.425421 -2.794803
v -1.916549 0.425404 -2.791509
v -1.915920 0.428407 -2.789871
v -1.935029 0.431701 -2.785604
v -1.936005 0.431715 -2.788942
v -1.936513 0.428710 -2.790619
v -1.936044 0.425691 -2.788958
v -1.935067 0.425676 -2.785620
v -1.934559 0.428681 -2.783943
v -1.953861 0.431636 -2.780565
v -1.954669 0.431651 -2.783948
v -1.955044 0.428647 -2.785660
v -1.954612 0.425627 -2.783989
v -1.953804 0.425612 -2.780606
v -1.953429 0.428617 -2.778894
v -1.973084 0.431275 -2.776525
v -1.973644 0.431294 -2.779958
v -1.973867 0.428291 -2.781700
v -1.973531 0.425270 -2.780009
v -1.972972 0.425252 -2.776576
v -1.972749 0.428254 -2.774834
v -1.992645 0.430858 -2.774260
v -1.992820 0.430884 -2.777733
v -1.992859 0.427885 -2.779495
v -1.992723 0.424860 -2.777783
v -1.992548 0.424835 -2.774309
v -1.992509 0.427834 -2.772548
v -2.012471 0.430630 -2.774554
v -2.012146 0.430660 -2.778017
v -2.011976 0.427663 -2.779774
v -2.012129 0.424636 -2.778068
v -2.012453 0.424606 -2.774605
v -2.012624 0.427603 -2.772848
v -2.031927 0.430772 -2.777935
v -2.031008 0.430797 -2.781290
v -2.030605 0.427798 -2.783004
v -2.031121 0.424774 -2.781364
v -2.032039 0.424749 -2.778009
v -2.032442 0.427749 -2.776295
v -2.050323 0.431463 -2.784903
v -2.048937 0.431473 -2.788093
v -2.048339 0.428468 -2.789738
v -2.049128 0.425453 -2.788194
v -2.050514 0.425443 -2.785005
v -2.051112 0.428448 -2.783359
v -2.067954 0.432177 -2.793583
v -2.066412 0.432182 -2.796700
v -2.065703 0.429173 -2.798295
v -2.066536 0.426159 -2.796771
v -2.068078 0.426154 -2.793653
v -2.068787 0.429163 -2.792059
v -2.085219 0.432392 -2.802154
v -2.083613 0.432396 -2.805239
v -2.082816 0.429386 -2.806789
v -2.083626 0.426372 -2.805254
v -2.085233 0.426368 -2.802168
v -2.086029 0.429378 -2.800619
v -2.102093 0.432298 -2.811363
v -2.100317 0.432302 -2.814353
v -2.099406 0.429292 -2.815839
v -2.100272 0.426278 -2.814335
v -2.102048 0.426274 -2.811345
v -2.102959 0.429284 -2.809859
v -2.118499 0.432082 -2.821939
v -2.116451 0.432089 -2.824750
v -2.115401 0.429080 -2.826144
v -2.116399 0.426065 -2.824727
v -2.118447 0.426058 -2.821915
v -2.119497 0.429067 -2.820521
v -2.133623 0.431940 -2.834337
v -2.131212 0.431950 -2.836844
v -2.130000 0.428942 -2.838102
v -2.131200 0.425925 -2.836854
v -2.133610 0.425916 -2.834347
v -2.134822 0.428924 -2.833088
v -2.146619 0.432070 -2.848986
v -2.143864 0.432076 -2.851109
v -2.142503 0.429067 -2.852200
v -2.143897 0.426052 -2.851168
v -2.146652 0.426046 -2.849045
v -2.148013 0.429055 -2.847954
v -2.157462 0.432374 -2.865273
v -2.154454 0.432374 -2.867020
v -2.152977 0.429362 -2.867939
v -2.154509 0.426350 -2.867111
v -2.157517 0.426351 -2.865365
v -2.158994 0.429363 -2.864446
v -2.166146 0.432756 -2.882587
v -2.162991 0.432750 -2.884052
v -2.161436 0.429735 -2.884821
v -2.163036 0.426726 -2.884125
v -2.166190 0.426732 -2.882660
v -2.167745 0.429747 -2.881891
v -2.173777 0.432919 -2.900401
v -2.170582 0.432912 -2.901775
v -2.168983 0.429897 -2.902447
v -2.170580 0.426888 -2.901744
v -2.173776 0.426894 -2.900370
v -2.175374 0.429910 -2.899698
v -2.181498 0.432569 -2.918286
v -2.178246 0.432565 -2.919518
v -2.176603 0.429551 -2.920079
v -2.178212 0.426542 -2.919408
v -2.181465 0.426546 -2.918176
v -2.183108 0.429560 -2.917615
v -2.187521 0.432182 -2.936689
v -2.184129 0.432184 -2.937456
v -2.182425 0.429173 -2.937814
v -2.184114 0.426160 -2.937405
v -2.187506 0.426158 -2.936638
v -2.189210 0.429169 -2.936280
v -2.190000 0.432233 -2.955906
v -2.186528 0.432235 -2.956124
v -2.184792 0.429224 -2.956257
v -2.186527 0.426211 -2.956173
v -2.189999 0.426209 -2.955956
v -2.191735 0.429220 -2.955823
v -2.189942 0.432500 -2.975382
v -2.186467 0.432498 -2.975236
v -2.184730 0.429485 -2.975204
v -2.186467 0.426474 -2.975317
v -2.189942 0.426476 -2.975463
v -2.191680 0.429489 -2.975495
v -2.188378 0.432757 -2.994678
v -2.184926 0.432751 -2.994256
v -2.183200 0.429737 -2.994078
v -2.184927 0.426727 -2.994322
v -2.188380 0.426733 -2.994743
v -2.190105 0.429747 -2.994921
v -2.185259 0.432913 -3.013735
v -2.181854 0.432905 -3.013028
v -2.180156 0.429889 -3.012684
v -2.181863 0.426881 -3.013048
v -2.185268 0.426888 -3.013755
v -2.186967 0.429904 -3.014099
v -2.180539 0.432876 -3.032435
v -2.177206 0.432869 -3.031443
v -2.175549 0.429853 -3.030934
v -2.177227 0.426844 -3.031416
v -2.180560 0.426852 -3.032408
v -2.182217 0.429867 -3.032918
v -2.174275 0.432712 -3.050656
v -2.171036 0.432707 -3.049390
v -2.169431 0.429692 -3.048730
v -2.171066 0.426683 -3.049336
v -2.174306 0.426688 -3.050603
v -2.175910 0.429702 -3.051262
v -2.166523 0.432487 -3.068292
v -2.163392 0.432485 -3.066777
v -2.161847 0.429472 -3.065981
v -2.163433 0.426461 -3.066700
v -2.166564 0.426463 -3.068215
v -2.168109 0.429476 -3.069011
v -2.157439 0.432155 -3.085450
v -2.154417 0.432157 -3.083728
v -2.152935 0.429146 -3.082812
v -2.154476 0.426134 -3.083617
v -2.157498 0.426132 -3.085339
v -2.158980 0.429142 -3.086255
v -2.147156 0.431671 -3.102272
v -2.144311 0.431680 -3.100272
v -2.142918 0.428673 -3.099217
v -2.144370 0.425657 -3.100162
v -2.147215 0.425648 -3.102162
v -2.148609 0.428655 -3.103218
v -2.134841 0.431352 -3.117590
v -2.132362 0.431367 -3.115150
v -2.131121 0.428363 -3.113912
v -2.132360 0.425343 -3.115114
v -2.134839 0.425327 -3.117554
v -2.136079 0.428332 -3.118792
v -2.119743 0.431514 -3.130132
v -2.117667 0.431529 -3.127341
v -2.116600 0.428524 -3.125952
v -2.117608 0.425504 -3.127354
v -2.119683 0.425490 -3.130146
v -2.120751 0.428495 -3.131535
v -2.103266 0.431714 -3.141069
v -2.101367 0.431728 -3.138155
v -2.100412 0.428722 -3.136688
v -2.101356 0.425703 -3.138135
v -2.103254 0.425690 -3.141050
v -2.104209 0.428696 -3.142517
v -2.086679 0.431509 -3.151672
v -2.084933 0.431523 -3.148664
v -2.084083 0.428518 -3.147133
v -2.084980 0.425499 -3.148609
v -2.086726 0.425485 -3.151617
v -2.087576 0.428490 -3.153149
v -2.069355 0.431273 -3.160753
v -2.067985 0.431290 -3.157556
v -2.067303 0.428286 -3.155940
v -2.067992 0.425265 -3.157521
v -2.069362 0.425248 -3.160718
v -2.070043 0.428252 -3.162334
v -2.050770 0.431379 -3.167051
v -2.049868 0.431394 -3.163692
v -2.049383 0.428390 -3.162008
v -2.049800 0.425370 -3.163683
v -2.050702 0.425355 -3.167042
v -2.051187 0.428360 -3.168726
v -2.031502 0.431683 -3.170917
v -2.030998 0.431693 -3.167475
v -2.030695 0.428686 -3.165753
v -2.030895 0.425669 -3.167474
v -2.031399 0.425660 -3.170915
v -2.031702 0.428667 -3.172637
v -2.012083 0.432037 -3.172722
v -2.011914 0.432041 -3.169248
v -2.011781 0.429031 -3.167510
v -2.011815 0.426017 -3.169247
v -2.011984 0.426013 -3.172721
v -2.012118 0.429023 -3.174459
v -1.992655 0.432324 -3.172807
v -1.992764 0.432324 -3.169331
v -1.992788 0.429312 -3.167592
v -1.992703 0.426300 -3.169329
v -1.992594 0.426300 -3.172806
v -1.992570 0.429312 -3.174545
vn 0.0490 0.8626 -0.5034
vn 0.1447 0.0026 -0.9895
vn 0.0955 0.0021 -0.9954
vn -0.0463 0.8704 0.4901
vn 0.0859 0.8637 -0.4966
vn -0.0956 0.0020 0.9954
vn -0.0583 0.8693 0.4908
vn -0.0847 -0.8682 0.4889
vn -0.0480 -0.8695 0.4916
vn 0.0603 -0.8623 -0.5027
vn 0.0478 -0.8615 -0.5054
vn 0.1321 0.8571 -0.4979
vn -0.0890 0.8742 0.4773
vn -0.2211 0.0008 0.9752
vn -0.1444 0.0025 0.9895
vn -0.1260 -0.8732 0.4708
vn 0.0956 -0.8587 -0.5035
vn 0.2003 0.8500 -0.4872
vn 0.2217 -0.0018 -0.9751
vn -0.1678 0.8801 0.4441
vn -0.3679 -0.0002 0.9299
vn -0.1826 -0.8783 0.4418
vn 0.1838 -0.8557 -0.4838
vn 0.5030 -0.0045 -0.8643
vn 0.3678 -0.0069 -0.9299
vn 0.2554 0.8564 -0.4487
vn -0.2481 0.8751 0.4155
vn -0.2422 -0.8718 0.4257
vn 0.2605 -0.8606 -0.4376
vn 0.5619 -0.0015 -0.8272
vn 0.2824 0.8628 -0.4194
vn -0.5036 0.0030 0.8640
vn -0.2785 0.8702 0.4065
vn -0.2794 -0.8658 0.4150
vn 0.2834 -0.8652 -0.4137
vn 0.3229 0.8554 -0.4049
vn -0.3010 0.8758 0.3772
vn -0.6233 0.0020 0.7820
vn -0.5618 0.0054 0.8273
vn -0.3036 -0.8732 0.3812
vn 0.3193 -0.8594 -0.3993
vn 0.3863 0.8484 -0.3621
vn 0.6240 -0.0045 -0.7814
vn -0.3657 0.8812 0.2996
vn -0.7503 -0.0034 0.6610
vn -0.3426 -0.8817 0.3244
vn 0.4028 -0.8525 -0.3331
vn 0.8406 0.0031 -0.5417
vn 0.7503 -0.0059 -0.6610
vn 0.4113 0.8618 -0.2967
vn -0.4290 0.8697 0.2439
vn -0.3971 -0.8716 0.2875
vn 0.4441 -0.8591 -0.2545
vn 0.8411 0.0087 -0.5408
vn 0.4052 0.8736 -0.2695
vn -0.8410 -0.0014 0.5410
vn -0.4312 0.8614 0.2684
vn -0.4244 -0.8605 0.2817
vn 0.4212 -0.8684 -0.2618
vn 0.4340 0.8621 -0.2618
vn -0.4076 0.8704 0.2763
vn -0.8423 -0.0010 0.5390
vn -0.8412 0.0038 0.5407
vn -0.4191 -0.8721 0.2526
vn 0.4245 -0.8589 -0.2864
vn 0.4864 0.8492 -0.2055
vn 0.8428 0.0036 -0.5382
vn -0.4306 0.8811 0.1954
vn -0.9163 -0.0047 0.4004
vn -0.4322 -0.8833 0.1816
vn 0.4791 -0.8507 -0.2163
vn 0.9721 -0.0002 -0.2345
vn 0.9164 -0.0029 -0.4004
vn 0.4979 0.8581 -0.1257
vn -0.4746 0.8735 0.1083
vn -0.4705 -0.8744 0.1188
vn 0.5007 -0.8579 -0.1152
vn 0.9845 0.0031 -0.1754
vn 0.4909 0.8667 -0.0884
vn -0.9723 -0.0012 0.2336
vn -0.4917 0.8665 0.0865
vn -0.4920 -0.8661 0.0886
vn 0.4946 -0.8648 -0.0871
vn 0.5044 0.8611 -0.0635
vn -0.4861 0.8709 0.0722
vn -0.9907 -0.0007 0.1359
vn -0.9845 0.0016 0.1753
vn -0.4864 -0.8716 0.0612
vn 0.5042 -0.8604 -0.0744
vn 0.5177 0.8554 -0.0129
vn 0.9908 0.0007 -0.1355
vn -0.4830 0.8755 0.0106
vn -0.9997 -0.0028 0.0236
vn -0.4803 -0.8770 0.0122
vn 0.5165 -0.8562 -0.0113
vn 0.9935 -0.0000 0.1140
vn 0.9997 -0.0018 -0.0235
vn 0.5121 0.8576 0.0480
vn -0.4819 0.8737 -0.0664
vn -0.4808 -0.8757 -0.0443
vn 0.5109 -0.8569 0.0694
vn 0.9731 0.0028 0.2304
vn 0.5001 0.8599 0.1025
vn -0.9935 -0.0028 -0.1142
vn -0.4729 0.8717 -0.1282
vn -0.4743 -0.8751 -0.0962
vn 0.4980 -0.8568 0.1338
vn 0.9515 0.0071 0.3075
vn 0.4795 0.8654 0.1454
vn -0.9730 -0.0037 -0.2306
vn -0.4696 0.8679 -0.1616
vn -0.4703 -0.8710 -0.1424
vn 0.4834 -0.8595 0.1658
vn 0.9447 0.0102 0.3278
vn 0.4609 0.8701 0.1748
vn -0.9515 -0.0016 -0.3077
vn -0.4792 0.8646 -0.1513
vn -0.4676 -0.8661 -0.1770
vn 0.4820 -0.8628 0.1524
vn 0.4594 0.8617 0.2154
vn -0.4711 0.8698 -0.1467
vn -0.9319 -0.0018 -0.3628
vn -0.9448 0.0014 -0.3276
vn -0.4420 -0.8724 -0.2088
vn 0.4906 -0.8574 0.1551
vn 0.4437 0.8518 0.2786
vn 0.9316 0.0049 0.3634
vn -0.4339 0.8779 -0.2026
vn -0.8764 -0.0013 -0.4815
vn -0.4041 -0.8776 -0.2578
vn 0.4687 -0.8548 0.2227
vn 0.7933 -0.0071 0.6088
vn 0.8764 -0.0040 0.4815
vn 0.4008 0.8536 0.3326
vn -0.3928 0.8771 -0.2762
vn -0.3757 -0.8719 -0.3141
vn 0.4161 -0.8604 0.2943
vn 0.7264 -0.0079 0.6872
vn 0.3633 0.8563 0.3671
vn -0.7930 0.0048 -0.6091
vn -0.3628 0.8753 -0.3196
vn -0.3498 -0.8672 -0.3545
vn 0.3767 -0.8644 0.3330
vn 0.3329 0.8513 0.4056
vn -0.3185 0.8792 -0.3545
vn -0.6506 0.0076 -0.7594
vn -0.7264 0.0085 -0.6872
vn -0.3115 -0.8707 -0.3807
vn 0.3372 -0.8625 0.3772
vn 0.2858 0.8466 0.4490
vn 0.6503 -0.0120 0.7596
vn -0.2373 0.8825 -0.4060
vn -0.5221 0.0049 -0.8529
vn -0.2608 -0.8751 -0.4076
vn 0.2588 -0.8596 0.4406
vn 0.3902 -0.0078 0.9207
vn 0.5220 -0.0145 0.8528
vn 0.2263 0.8542 0.4680
vn -0.1633 0.8763 -0.4532
vn -0.2160 -0.8701 -0.4431
vn 0.1740 -0.8617 0.4766
vn 0.3210 -0.0018 0.9471
vn 0.1821 0.8615 0.4740
vn -0.3897 0.0060 -0.9209
vn -0.1378 0.8715 -0.4707
vn -0.1801 -0.8652 -0.4680
vn 0.1418 -0.8649 0.4816
vn 0.1471 0.8614 0.4862
vn -0.1330 0.8720 -0.4711
vn -0.2808 0.0071 -0.9597
vn -0.3207 0.0079 -0.9472
vn -0.1447 -0.8664 -0.4779
vn 0.1368 -0.8642 0.4841
vn 0.1091 0.8607 0.4973
vn 0.2808 -0.0015 0.9598
vn -0.1227 0.8724 -0.4731
vn -0.2324 0.0068 -0.9726
vn -0.1066 -0.8669 -0.4869
vn 0.1261 -0.8638 0.4878
vn 0.0659 0.8569 0.5113
vn 0.2322 -0.0019 0.9727
vn -0.0949 0.8749 -0.4749
vn -0.1609 0.0059 -0.9870
vn -0.0623 -0.8694 -0.4902
vn 0.0981 -0.8622 0.4970
vn 0.0122 0.8527 0.5222
vn 0.1606 -0.0049 0.9870
vn -0.0385 0.8781 -0.4769
vn -0.0505 0.0060 -0.9987
vn -0.0104 -0.8716 -0.4902
vn 0.0396 -0.8611 0.5069
vn -0.0510 0.8499 0.5245
vn 0.0503 -0.0087 0.9987
vn 0.0422 0.8803 -0.4724
vn 0.0930 0.0058 -0.9956
vn 0.0473 -0.8733 -0.4850
vn -0.0457 -0.8604 0.5076
vn -0.1224 0.8479 0.5158
vn -0.0934 -0.0114 0.9956
vn 0.1427 0.8813 -0.4504
vn 0.2641 0.0025 -0.9645
vn 0.1090 -0.8766 -0.4688
vn -0.1532 -0.8575 0.4911
vn -0.3984 -0.0031 0.9172
vn -0.2640 -0.0110 0.9645
vn -0.1765 0.8574 0.4835
vn 0.2226 0.8733 -0.4333
vn 0.1672 -0.8706 -0.4627
vn -0.2309 -0.8604 0.4543
vn -0.4431 0.0026 0.8965
vn -0.2031 0.8659 0.4572
vn 0.3990 0.0028 -0.9169
vn 0.2387 0.8677 -0.4361
vn 0.2044 -0.8643 -0.4596
vn -0.2404 -0.8653 0.4399
vn -0.2306 0.8635 0.4486
vn 0.2303 0.8698 -0.4363
vn 0.4619 0.0037 -0.8870
vn 0.4434 0.0054 -0.8963
vn 0.2273 -0.8675 -0.4424
vn -0.2356 -0.8632 0.4465
vn -0.2660 0.8606 0.4342
vn -0.4619 0.0015 0.8869
vn 0.2441 0.8718 -0.4247
vn 0.5106 0.0022 -0.8598
vn 0.2576 -0.8702 -0.4200
vn -0.2536 -0.8613 0.4403
vn -0.3098 0.8570 0.4119
vn -0.5108 -0.0002 0.8597
vn 0.2788 0.8746 -0.3966
vn 0.5886 0.0014 -0.8084
vn 0.2936 -0.8730 -0.3895
vn -0.2948 -0.8593 0.4180
vn -0.3617 0.8532 0.3757
vn -0.5889 -0.0025 0.8082
vn 0.3319 0.8777 -0.3456
vn 0.6931 0.0003 -0.7208
vn 0.3342 -0.8762 -0.3472
vn -0.3570 -0.8571 0.3715
vn -0.7921 -0.0031 0.6104
vn -0.6932 -0.0047 0.7207
vn -0.4047 0.8552 0.3239
vn 0.3879 0.8760 -0.2865
vn 0.3776 -0.8750 -0.3031
vn -0.4130 -0.8577 0.3062
vn -0.8647 -0.0004 0.5022
vn -0.4373 0.8574 0.2715
vn 0.7922 0.0003 -0.6103
vn 0.4277 0.8741 -0.2304
vn 0.4114 -0.8746 -0.2567
vn -0.4522 -0.8575 0.2451
vn -0.9069 0.0034 0.4213
vn -0.4528 0.8631 0.2237
vn 0.8649 -0.0009 -0.5020
vn 0.4528 0.8697 -0.1966
vn 0.4412 -0.8704 -0.2183
vn -0.4670 -0.8605 0.2035
vn -0.9186 0.0061 0.3950
vn -0.4575 0.8682 0.1923
vn 0.9071 0.0002 -0.4210
vn 0.4578 0.8659 -0.2014
vn 0.4615 -0.8656 -0.1940
vn -0.4605 -0.8643 0.2025
vn -0.4822 0.8603 0.1651
vn 0.4523 0.8715 -0.1893
vn 0.9350 -0.0010 -0.3546
vn 0.9186 0.0024 -0.3952
vn 0.4622 -0.8727 -0.1575
vn -0.4731 -0.8588 0.1966
vn -0.5126 0.8518 0.1082
vn -0.9352 0.0016 0.3540
vn 0.4643 0.8785 -0.1128
vn 0.9754 -0.0032 -0.2205
vn 0.4658 -0.8795 -0.0974
vn -0.5052 -0.8544 0.1218
vn -0.9980 -0.0023 0.0627
vn -0.9754 -0.0040 0.2204
vn -0.5152 0.8562 0.0394
vn 0.4838 0.8749 -0.0229
vn 0.4825 -0.8751 -0.0373
vn -0.5135 -0.8577 0.0252
vn -0.9991 0.0006 -0.0419
vn -0.5087 0.8609 -0.0097
vn 0.9981 -0.0012 -0.0622
vn 0.4902 0.8710 0.0324
vn 0.4902 -0.8716 0.0088
vn -0.5088 -0.8603 -0.0330
vn -0.9926 0.0024 -0.1212
vn 0.4864 0.8710 0.0688
vn 0.9926 -0.0007 0.1212
vn 0.9991 -0.0005 0.0421
vn 0.4867 -0.8721 0.0500
vn -0.5064 -0.8594 -0.0711
vn -0.5052 0.8614 -0.0524
vn -0.9791 0.0036 -0.2033
vn 0.4801 0.8712 0.1024
vn 0.9791 -0.0006 0.2033
vn 0.4788 -0.8726 0.0967
vn -0.5013 -0.8587 -0.1068
vn -0.4853 0.8616 -0.1491
vn -0.4974 0.8616 -0.1006
vn 0.4721 0.8710 0.1357
vn 0.9585 -0.0010 0.2852
vn -0.4921 -0.8589 -0.1417
vn -0.9585 0.0031 -0.2852
vn -0.4703 0.8611 -0.1932
vn 0.4606 0.8711 0.1706
vn 0.4669 -0.8726 0.1437
vn 0.9314 -0.0010 0.3641
vn -0.4794 -0.8594 -0.1780
vn -0.9314 0.0019 -0.3641
vn -0.9002 0.0014 -0.4355
vn -0.4516 0.8614 -0.2323
vn 0.4478 0.8709 0.2027
vn 0.4366 -0.8710 0.2251
vn 0.4521 -0.8723 0.1862
vn -0.4640 -0.8604 -0.2107
vn -0.8689 0.0006 -0.4950
vn -0.4319 0.8616 -0.2667
vn 0.9002 0.0003 0.4355
vn 0.4362 0.8706 0.2275
vn 0.4200 -0.8695 0.2600
vn -0.4497 -0.8616 -0.2355
vn -0.4134 0.8554 -0.3122
vn 0.4054 0.8756 0.2628
vn 0.8183 0.0012 0.5748
vn 0.8690 0.0018 0.4947
vn 0.3875 -0.8737 0.2941
vn -0.4291 -0.8586 -0.2804
vn -0.3744 0.8489 -0.3732
vn -0.8180 -0.0038 -0.5753
vn 0.3394 0.8812 0.3291
vn 0.7127 0.0005 0.7015
vn 0.3379 -0.8786 0.3375
vn -0.3713 -0.8556 -0.3606
vn -0.5969 -0.0043 -0.8023
vn -0.7128 -0.0081 -0.7014
vn -0.3144 0.8565 -0.4094
vn 0.2819 0.8752 0.3930
vn 0.2991 -0.8714 0.3889
vn -0.2974 -0.8607 -0.4131
vn -0.5458 -0.0005 -0.8379
vn -0.2749 0.8638 -0.4222
vn 0.5963 0.0039 0.8027
vn 0.2694 0.8698 0.4133
vn 0.2743 -0.8645 0.4213
vn -0.2731 -0.8659 -0.4191
vn -0.2493 0.8581 -0.4490
vn 0.2526 0.8739 0.4153
vn 0.5023 0.0044 0.8647
vn 0.5458 0.0071 0.8379
vn 0.2392 -0.8698 0.4315
vn -0.2628 -0.8620 -0.4335
vn -0.2035 0.8520 -0.4823
vn -0.5019 -0.0037 -0.8649
vn 0.1909 0.8785 0.4379
vn 0.3939 0.0021 0.9192
vn 0.1880 -0.8751 0.4460
vn -0.2045 -0.8585 -0.4702
vn -0.2594 -0.0058 -0.9658
vn -0.3938 -0.0074 -0.9192
vn -0.1434 0.8545 -0.4993
vn 0.1158 0.8766 0.4671
vn 0.1352 -0.8731 0.4685
vn -0.1238 -0.8597 -0.4955
vn -0.1448 -0.0031 -0.9895
vn -0.0889 0.8572 -0.5073
vn 0.2592 0.0028 0.9658
vn 0.0556 0.8744 0.4820
vn 0.0854 -0.8719 0.4822
vn -0.0596 -0.8601 -0.5066
vn -0.0485 -0.0006 -0.9988
vn -0.0390 0.8594 -0.5098
vn 0.1447 0.0023 0.9895
vn 0.0093 0.8726 0.4883
vn 0.0381 -0.8713 0.4892
vn -0.0106 -0.8602 -0.5098
vn 0.0314 0.0015 -0.9995
vn 0.0072 0.8615 -0.5078
vn 0.0484 0.0016 0.9988
vn -0.0243 0.8713 0.4902
vn -0.0066 -0.8706 0.4920
vn 0.0247 -0.8607 -0.5086
vn -0.0315 0.0015 0.9995
vt 0.000014 0.008711
vt 0.015866 0.011421
vt 0.000014 0.011581
vt 0.000080 0.005845
vt 0.015843 0.008593
vt 0.000125 0.002993
vt 0.015828 0.005780
vt 0.015932 0.017078
vt 0.000287 0.020145
vt 0.000223 0.017304
vt 0.015895 0.014252
vt 0.000103 0.014450
vt 0.031637 0.008486
vt 0.031619 0.005689
vt 0.031601 0.002834
vt 0.015814 0.002935
vt 0.031758 0.019722
vt 0.015970 0.019932
vt 0.031723 0.016874
vt 0.031688 0.014079
vt 0.047232 0.008368
vt 0.031666 0.011279
vt 0.047207 0.005539
vt 0.047182 0.002692
vt 0.047328 0.019565
vt 0.047304 0.016723
vt 0.047280 0.013911
vt 0.062840 0.011008
vt 0.047257 0.011145
vt 0.062820 0.008211
vt 0.062789 0.005411
vt 0.062880 0.016610
vt 0.062866 0.013812
vt 0.078711 0.010873
vt 0.078688 0.008033
vt 0.062757 0.002553
vt 0.078666 0.005229
vt 0.078759 0.016538
vt 0.062893 0.019461
vt 0.078734 0.013720
vt 0.094544 0.007959
vt 0.094531 0.005168
vt 0.094518 0.002308
vt 0.078644 0.002380
vt 0.094658 0.019181
vt 0.078784 0.019394
vt 0.094623 0.016331
vt 0.094589 0.013543
vt 0.110006 0.007876
vt 0.094570 0.010747
vt 0.109981 0.005052
vt 0.109952 0.002194
vt 0.110075 0.019026
vt 0.110062 0.016181
vt 0.110046 0.013380
vt 0.125552 0.010518
vt 0.110028 0.010635
vt 0.125531 0.007693
vt 0.125494 0.004872
vt 0.125565 0.016178
vt 0.125567 0.013356
vt 0.141598 0.010403
vt 0.141578 0.007468
vt 0.125450 0.001980
vt 0.141559 0.004590
vt 0.141638 0.016251
vt 0.125555 0.019059
vt 0.141618 0.013345
vt 0.157583 0.007477
vt 0.157582 0.004659
vt 0.157587 0.001768
vt 0.141540 0.001714
vt 0.157715 0.018837
vt 0.141658 0.019151
vt 0.157665 0.015955
vt 0.157623 0.013136
vt 0.172993 0.007454
vt 0.157600 0.010301
vt 0.172979 0.004633
vt 0.172967 0.001774
vt 0.173073 0.018592
vt 0.173049 0.015745
vt 0.173028 0.012946
vt 0.188361 0.010108
vt 0.173009 0.010205
vt 0.188347 0.007312
vt 0.188319 0.004517
vt 0.188379 0.015704
vt 0.188378 0.012910
vt 0.204117 0.010018
vt 0.204100 0.007154
vt 0.188288 0.001650
vt 0.204081 0.004326
vt 0.204144 0.015728
vt 0.188378 0.018563
vt 0.204132 0.012887
vt 0.219752 0.007118
vt 0.219744 0.004299
vt 0.219738 0.001433
vt 0.204062 0.001469
vt 0.219835 0.018440
vt 0.204155 0.018594
vt 0.219808 0.015579
vt 0.219784 0.012760
vt 0.235144 0.007061
vt 0.219769 0.009937
vt 0.235134 0.004224
vt 0.235126 0.001378
vt 0.235217 0.018315
vt 0.235193 0.015471
vt 0.235174 0.012644
vt 0.250525 0.009775
vt 0.235157 0.009856
vt 0.250519 0.006996
vt 0.250505 0.004208
vt 0.250562 0.015341
vt 0.250547 0.012556
vt 0.265848 0.009705
vt 0.265842 0.006946
vt 0.250498 0.001374
vt 0.265827 0.004174
vt 0.265878 0.015232
vt 0.250582 0.018170
vt 0.265867 0.012467
vt 0.281080 0.009636
vt 0.281070 0.006860
vt 0.265814 0.001357
vt 0.281054 0.004084
vt 0.281096 0.015201
vt 0.265890 0.018042
vt 0.281092 0.012421
vt 0.296530 0.009562
vt 0.296519 0.006743
vt 0.281035 0.001272
vt 0.296509 0.003960
vt 0.296560 0.015186
vt 0.281099 0.018010
vt 0.296544 0.012381
vt 0.312165 0.006736
vt 0.312161 0.003978
vt 0.312160 0.001165
vt 0.296499 0.001163
vt 0.312246 0.017827
vt 0.296576 0.018006
vt 0.312217 0.015022
vt 0.312192 0.012262
vt 0.327616 0.006703
vt 0.312179 0.009494
vt 0.327608 0.003927
vt 0.327602 0.001135
vt 0.327673 0.017695
vt 0.327654 0.014911
vt 0.327639 0.012150
vt 0.343006 0.009366
vt 0.327626 0.009430
vt 0.343002 0.006637
vt 0.342989 0.003905
vt 0.343029 0.014827
vt 0.343023 0.012097
vt 0.358537 0.009306
vt 0.358527 0.006567
vt 0.342979 0.001119
vt 0.358517 0.003854
vt 0.358557 0.014772
vt 0.343038 0.017608
vt 0.358546 0.012051
vt 0.374088 0.006527
vt 0.374083 0.003796
vt 0.374074 0.001010
vt 0.358508 0.001076
vt 0.374132 0.017489
vt 0.358567 0.017550
vt 0.374120 0.014710
vt 0.374106 0.011983
vt 0.389514 0.006480
vt 0.374103 0.009253
vt 0.389504 0.003705
vt 0.389492 0.000920
vt 0.389542 0.017457
vt 0.389537 0.014676
vt 0.389530 0.011920
vt 0.404961 0.009159
vt 0.389523 0.009207
vt 0.404958 0.006419
vt 0.404943 0.003676
vt 0.404970 0.014648
vt 0.404972 0.011906
vt 0.420575 0.009118
vt 0.420565 0.006341
vt 0.404929 0.000876
vt 0.420553 0.003587
vt 0.420581 0.014662
vt 0.404967 0.017439
vt 0.420580 0.011896
vt 0.436071 0.006306
vt 0.436061 0.003527
vt 0.436051 0.000732
vt 0.420540 0.000799
vt 0.436101 0.017442
vt 0.420581 0.017462
vt 0.436095 0.014644
vt 0.436088 0.011861
vt 0.451576 0.006253
vt 0.436083 0.009082
vt 0.451568 0.003470
vt 0.451559 0.000664
vt 0.451611 0.017423
vt 0.451603 0.014615
vt 0.451593 0.011827
vt 0.467207 0.006216
vt 0.451587 0.009037
vt 0.467200 0.003434
vt 0.467192 0.000612
vt 0.467242 0.017376
vt 0.467233 0.014558
vt 0.467223 0.011776
vt 0.482871 0.006169
vt 0.467220 0.008994
vt 0.482865 0.003379
vt 0.482854 0.000539
vt 0.482896 0.017356
vt 0.482892 0.014522
vt 0.482885 0.011735
vt 0.498701 0.006108
vt 0.482886 0.008951
vt 0.498696 0.003299
vt 0.498681 0.000431
vt 0.498719 0.017379
vt 0.498719 0.014519
vt 0.498713 0.011713
vt 0.514579 0.006059
vt 0.498716 0.008910
vt 0.514568 0.003190
vt 0.514553 0.000308
vt 0.514585 0.017419
vt 0.514590 0.014541
vt 0.514590 0.011687
vt 0.530559 0.008847
vt 0.514587 0.008880
vt 0.530557 0.005999
vt 0.530541 0.003150
vt 0.530557 0.014552
vt 0.530565 0.011704
vt 0.546743 0.008819
vt 0.546736 0.005911
vt 0.530524 0.000241
vt 0.546726 0.003035
vt 0.546745 0.014620
vt 0.530545 0.017452
vt 0.546746 0.011727
vt 0.562685 0.005915
vt 0.562682 0.003034
vt 0.562679 0.000128
vt 0.546716 0.000139
vt 0.562718 0.017475
vt 0.546743 0.017532
vt 0.562707 0.014569
vt 0.562697 0.011683
vt 0.578526 0.005893
vt 0.562692 0.008796
vt 0.578524 0.003017
vt 0.578520 0.000105
vt 0.578554 0.017431
vt 0.578546 0.014522
vt 0.578537 0.011645
vt 0.594569 0.005869
vt 0.578535 0.008767
vt 0.594568 0.002993
vt 0.594564 0.000067
vt 0.594593 0.017407
vt 0.594587 0.014487
vt 0.594578 0.011613
vt 0.610625 0.005844
vt 0.594580 0.008739
vt 0.610623 0.002932
vt 0.610622 0.000014
vt 0.610647 0.017404
vt 0.610639 0.014487
vt 0.610633 0.011582
vt 0.626636 0.008694
vt 0.610628 0.008717
vt 0.626641 0.005842
vt 0.626638 0.002982
vt 0.626653 0.014404
vt 0.626648 0.011547
vt 0.642526 0.008680
vt 0.642531 0.005853
vt 0.626642 0.000074
vt 0.642526 0.003015
vt 0.642537 0.014341
vt 0.626664 0.017309
vt 0.642537 0.011507
vt 0.658262 0.008665
vt 0.658262 0.005821
vt 0.642524 0.000125
vt 0.658254 0.002978
vt 0.658259 0.014362
vt 0.642540 0.017224
vt 0.658265 0.011515
vt 0.674134 0.008646
vt 0.674132 0.005760
vt 0.658245 0.000095
vt 0.674132 0.002908
vt 0.674143 0.014405
vt 0.658252 0.017242
vt 0.674137 0.011535
vt 0.690037 0.005810
vt 0.690045 0.002984
vt 0.690055 0.000099
vt 0.674133 0.000036
vt 0.690078 0.017171
vt 0.674149 0.017293
vt 0.690059 0.014294
vt 0.690043 0.011468
vt 0.705623 0.005835
vt 0.690041 0.008635
vt 0.705626 0.002990
vt 0.705630 0.000127
vt 0.705640 0.017095
vt 0.705632 0.014238
vt 0.705626 0.011409
vt 0.721120 0.008619
vt 0.705624 0.008628
vt 0.721126 0.005823
vt 0.721121 0.003022
vt 0.721122 0.014216
vt 0.721127 0.011418
vt 0.736739 0.008628
vt 0.736741 0.005808
vt 0.721120 0.000163
vt 0.736737 0.003015
vt 0.736733 0.014233
vt 0.721120 0.017068
vt 0.736738 0.011439
vt 0.752325 0.008620
vt 0.752325 0.002974
vt 0.752320 0.000123
vt 0.736734 0.000165
vt 0.752320 0.014267
vt 0.736727 0.017078
vt 0.752321 0.011440
vt 0.752328 0.005800
vt 0.767927 0.008598
vt 0.767927 0.002934
vt 0.767927 0.000079
vt 0.767928 0.014296
vt 0.752311 0.017119
vt 0.767928 0.011437
vt 0.783496 0.005797
vt 0.767927 0.005787
vt 0.783499 0.002973
vt 0.783519 0.017108
vt 0.767929 0.017162
vt 0.783505 0.011432
vt 0.783500 0.008615
vt 0.798977 0.005812
vt 0.783505 0.000124
vt 0.798980 0.003005
vt 0.783508 0.014258
vt 0.798993 0.017052
vt 0.798983 0.011420
vt 0.798977 0.008622
vt 0.814375 0.008613
vt 0.814380 0.005825
vt 0.798985 0.000171
vt 0.814382 0.003034
vt 0.814381 0.014193
vt 0.798986 0.014225
vt 0.814380 0.011401
vt 0.829835 0.008608
vt 0.829837 0.005826
vt 0.814387 0.000216
vt 0.829842 0.003065
vt 0.829842 0.014161
vt 0.814385 0.017010
vt 0.829837 0.011393
vt 0.845447 0.005854
vt 0.845454 0.003095
vt 0.845459 0.000276
vt 0.829848 0.000255
vt 0.845459 0.016938
vt 0.829849 0.016976
vt 0.845453 0.014126
vt 0.845446 0.011369
vt 0.860921 0.005874
vt 0.845452 0.008609
vt 0.860921 0.003077
vt 0.860919 0.000260
vt 0.860910 0.016942
vt 0.860915 0.014132
vt 0.860918 0.011351
vt 0.876416 0.008625
vt 0.860920 0.008618
vt 0.876421 0.005855
vt 0.876414 0.003083
vt 0.876402 0.014174
vt 0.876416 0.011403
vt 0.892225 0.008636
vt 0.892227 0.005814
vt 0.876407 0.000250
vt 0.892228 0.003026
vt 0.892217 0.014268
vt 0.876385 0.016999
vt 0.892222 0.011463
vt 0.907996 0.005874
vt 0.908006 0.003089
vt 0.908015 0.000257
vt 0.892228 0.000205
vt 0.908005 0.017056
vt 0.892212 0.017102
vt 0.907998 0.014229
vt 0.907992 0.011445
vt 0.923533 0.005910
vt 0.907997 0.008656
vt 0.923540 0.003104
vt 0.923549 0.000289
vt 0.923530 0.017038
vt 0.923527 0.014227
vt 0.923526 0.011432
vt 0.939006 0.008693
vt 0.923528 0.008675
vt 0.939018 0.005942
vt 0.939022 0.003184
vt 0.939006 0.014202
vt 0.939010 0.011446
vt 0.954428 0.008719
vt 0.954440 0.005983
vt 0.939032 0.000380
vt 0.954445 0.003241
vt 0.954427 0.014200
vt 0.939007 0.017002
vt 0.954430 0.011458
vt 0.969659 0.008746
vt 0.969670 0.006023
vt 0.954456 0.000461
vt 0.969676 0.003295
vt 0.969656 0.014201
vt 0.954427 0.016977
vt 0.969660 0.011472
vt 0.984782 0.008770
vt 0.984790 0.006058
vt 0.969684 0.000535
vt 0.984791 0.003341
vt 0.984772 0.014208
vt 0.969654 0.016959
vt 0.984780 0.011485
vt 0.999986 0.008802
vt 0.999959 0.006033
vt 0.984790 0.000590
vt 0.999872 0.003292
vt 0.999823 0.014299
vt 0.984761 0.016963
vt 0.999918 0.011564
vt 0.999808 0.000539
vt 0.999783 0.017054
s 1
f 1/1/1 12/2/2 6/3/3
f 2/4/4 7/5/5 1/1/1
f 3/6/6 8/7/7 2/4/4
f 10/8/8 3/9/6 4/10/9
f 11/11/10 4/10/9 5/12/11
f 12/2/2 5/12/11 6/3/3
f 13/13/12 12/2/2 7/5/5
f 14/14/13 7/5/5 8/7/7
f 15/15/14 8/7/7 9/16/15
f 10/8/8 15/17/14 9/18/15
f 11/11/10 16/19/16 10/8/8
f 12/2/2 17/20/17 11/11/10
f 19/21/18 18/22/19 13/13/12
f 20/23/20 13/13/12 14/14/13
f 21/24/21 14/14/13 15/15/14
f 16/19/16 21/25/21 15/17/14
f 17/20/17 22/26/22 16/19/16
f 18/22/19 23/27/23 17/20/17
f 19/21/18 30/28/24 24/29/25
f 20/23/20 25/30/26 19/21/18
f 21/24/21 26/31/27 20/23/20
f 28/32/28 21/25/21 22/26/22
f 29/33/29 22/26/22 23/27/23
f 30/28/24 23/27/23 24/29/25
f 25/30/26 36/34/30 30/28/24
f 26/31/27 31/35/31 25/30/26
f 27/36/32 32/37/33 26/31/27
f 34/38/34 27/39/32 28/32/28
f 35/40/35 28/32/28 29/33/29
f 36/34/30 29/33/29 30/28/24
f 37/41/36 36/34/30 31/35/31
f 38/42/37 31/35/31 32/37/33
f 39/43/38 32/37/33 33/44/39
f 34/38/34 39/45/38 33/46/39
f 35/40/35 40/47/40 34/38/34
f 36/34/30 41/48/41 35/40/35
f 43/49/42 42/50/43 37/41/36
f 44/51/44 37/41/36 38/42/37
f 45/52/45 38/42/37 39/43/38
f 40/47/40 45/53/45 39/45/38
f 41/48/41 46/54/46 40/47/40
f 42/50/43 47/55/47 41/48/41
f 43/49/42 54/56/48 48/57/49
f 44/51/44 49/58/50 43/49/42
f 45/52/45 50/59/51 44/51/44
f 52/60/52 45/53/45 46/54/46
f 53/61/53 46/54/46 47/55/47
f 54/56/48 47/55/47 48/57/49
f 49/58/50 60/62/54 54/56/48
f 50/59/51 55/63/55 49/58/50
f 51/64/56 56/65/57 50/59/51
f 58/66/58 51/67/56 52/60/52
f 59/68/59 52/60/52 53/61/53
f 60/62/54 53/61/53 54/56/48
f 61/69/60 60/62/54 55/63/55
f 62/70/61 55/63/55 56/65/57
f 63/71/62 56/65/57 57/72/63
f 58/66/58 63/73/62 57/74/63
f 59/68/59 64/75/64 58/66/58
f 60/62/54 65/76/65 59/68/59
f 67/77/66 66/78/67 61/69/60
f 68/79/68 61/69/60 62/70/61
f 69/80/69 62/70/61 63/71/62
f 64/75/64 69/81/69 63/73/62
f 65/76/65 70/82/70 64/75/64
f 66/78/67 71/83/71 65/76/65
f 67/77/66 78/84/72 72/85/73
f 68/79/68 73/86/74 67/77/66
f 69/80/69 74/87/75 68/79/68
f 76/88/76 69/81/69 70/82/70
f 77/89/77 70/82/70 71/83/71
f 78/84/72 71/83/71 72/85/73
f 73/86/74 84/90/78 78/84/72
f 74/87/75 79/91/79 73/86/74
f 75/92/80 80/93/81 74/87/75
f 82/94/82 75/95/80 76/88/76
f 83/96/83 76/88/76 77/89/77
f 84/90/78 77/89/77 78/84/72
f 85/97/84 84/90/78 79/91/79
f 86/98/85 79/91/79 80/93/81
f 87/99/86 80/93/81 81/100/87
f 82/94/82 87/101/86 81/102/87
f 83/96/83 88/103/88 82/94/82
f 84/90/78 89/104/89 83/96/83
f 91/105/90 90/106/91 85/97/84
f 92/107/92 85/97/84 86/98/85
f 93/108/93 86/98/85 87/99/86
f 88/103/88 93/109/93 87/101/86
f 89/104/89 94/110/94 88/103/88
f 90/106/91 95/111/95 89/104/89
f 91/105/90 102/112/96 96/113/97
f 92/107/92 97/114/98 91/105/90
f 93/108/93 98/115/99 92/107/92
f 100/116/100 93/109/93 94/110/94
f 101/117/101 94/110/94 95/111/95
f 102/112/96 95/111/95 96/113/97
f 97/114/98 108/118/102 102/112/96
f 98/115/99 103/119/103 97/114/98
f 99/120/104 104/121/105 98/115/99
f 106/122/106 99/123/104 100/116/100
f 107/124/107 100/116/100 101/117/101
f 108/118/102 101/117/101 102/112/96
f 103/119/103 114/125/108 108/118/102
f 104/121/105 109/126/109 103/119/103
f 105/127/110 110/128/111 104/121/105
f 112/129/112 105/130/110 106/122/106
f 113/131/113 106/122/106 107/124/107
f 114/125/108 107/124/107 108/118/102
f 109/126/109 120/132/114 114/125/108
f 110/128/111 115/133/115 109/126/109
f 111/134/116 116/135/117 110/128/111
f 118/136/118 111/137/116 112/129/112
f 119/138/119 112/129/112 113/131/113
f 120/132/114 113/131/113 114/125/108
f 121/139/120 120/132/114 115/133/115
f 122/140/121 115/133/115 116/135/117
f 123/141/122 116/135/117 117/142/123
f 118/136/118 123/143/122 117/144/123
f 119/138/119 124/145/124 118/136/118
f 120/132/114 125/146/125 119/138/119
f 127/147/126 126/148/127 121/139/120
f 128/149/128 121/139/120 122/140/121
f 129/150/129 122/140/121 123/141/122
f 124/145/124 129/151/129 123/143/122
f 125/146/125 130/152/130 124/145/124
f 126/148/127 131/153/131 125/146/125
f 127/147/126 138/154/132 132/155/133
f 128/149/128 133/156/134 127/147/126
f 129/150/129 134/157/135 128/149/128
f 136/158/136 129/151/129 130/152/130
f 137/159/137 130/152/130 131/153/131
f 138/154/132 131/153/131 132/155/133
f 133/156/134 144/160/138 138/154/132
f 134/157/135 139/161/139 133/156/134
f 135/162/140 140/163/141 134/157/135
f 142/164/142 135/165/140 136/158/136
f 143/166/143 136/158/136 137/159/137
f 144/160/138 137/159/137 138/154/132
f 145/167/144 144/160/138 139/161/139
f 146/168/145 139/161/139 140/163/141
f 147/169/146 140/163/141 141/170/147
f 142/164/142 147/171/146 141/172/147
f 143/166/143 148/173/148 142/164/142
f 144/160/138 149/174/149 143/166/143
f 151/175/150 150/176/151 145/167/144
f 152/177/152 145/167/144 146/168/145
f 153/178/153 146/168/145 147/169/146
f 148/173/148 153/179/153 147/171/146
f 149/174/149 154/180/154 148/173/148
f 150/176/151 155/181/155 149/174/149
f 151/175/150 162/182/156 156/183/157
f 152/177/152 157/184/158 151/175/150
f 153/178/153 158/185/159 152/177/152
f 160/186/160 153/179/153 154/180/154
f 161/187/161 154/180/154 155/181/155
f 162/182/156 155/181/155 156/183/157
f 157/184/158 168/188/162 162/182/156
f 158/185/159 163/189/163 157/184/158
f 159/190/164 164/191/165 158/185/159
f 166/192/166 159/193/164 160/186/160
f 167/194/167 160/186/160 161/187/161
f 168/188/162 161/187/161 162/182/156
f 169/195/168 168/188/162 163/189/163
f 170/196/169 163/189/163 164/191/165
f 171/197/170 164/191/165 165/198/171
f 166/192/166 171/199/170 165/200/171
f 167/194/167 172/201/172 166/192/166
f 168/188/162 173/202/173 167/194/167
f 175/203/174 174/204/175 169/195/168
f 176/205/176 169/195/168 170/196/169
f 177/206/177 170/196/169 171/197/170
f 172/201/172 177/207/177 171/199/170
f 173/202/173 178/208/178 172/201/172
f 174/204/175 179/209/179 173/202/173
f 181/210/180 180/211/181 175/203/174
f 182/212/182 175/203/174 176/205/176
f 183/213/183 176/205/176 177/206/177
f 178/208/178 183/214/183 177/207/177
f 179/209/179 184/215/184 178/208/178
f 180/211/181 185/216/185 179/209/179
f 187/217/186 186/218/187 181/210/180
f 188/219/188 181/210/180 182/212/182
f 189/220/189 182/212/182 183/213/183
f 184/215/184 189/221/189 183/214/183
f 185/216/185 190/222/190 184/215/184
f 186/218/187 191/223/191 185/216/185
f 193/224/192 192/225/193 187/217/186
f 194/226/194 187/217/186 188/219/188
f 195/227/195 188/219/188 189/220/189
f 190/222/190 195/228/195 189/221/189
f 191/223/191 196/229/196 190/222/190
f 192/225/193 197/230/197 191/223/191
f 199/231/198 198/232/199 193/224/192
f 200/233/200 193/224/192 194/226/194
f 201/234/201 194/226/194 195/227/195
f 196/229/196 201/235/201 195/228/195
f 197/230/197 202/236/202 196/229/196
f 198/232/199 203/237/203 197/230/197
f 199/231/198 210/238/204 204/239/205
f 200/233/200 205/240/206 199/231/198
f 201/234/201 206/241/207 200/233/200
f 208/242/208 201/235/201 202/236/202
f 209/243/209 202/236/202 203/237/203
f 210/238/204 203/237/203 204/239/205
f 205/240/206 216/244/210 210/238/204
f 206/241/207 211/245/211 205/240/206
f 207/246/212 212/247/213 206/241/207
f 214/248/214 207/249/212 208/242/208
f 215/250/215 208/242/208 209/243/209
f 216/244/210 209/243/209 210/238/204
f 217/251/216 216/244/210 211/245/211
f 218/252/217 211/245/211 212/247/213
f 219/253/218 212/247/213 213/254/219
f 214/248/214 219/255/218 213/256/219
f 215/250/215 220/257/220 214/248/214
f 216/244/210 221/258/221 215/250/215
f 223/259/222 222/260/223 217/251/216
f 224/261/224 217/251/216 218/252/217
f 225/262/225 218/252/217 219/253/218
f 220/257/220 225/263/225 219/255/218
f 221/258/221 226/264/226 220/257/220
f 222/260/223 227/265/227 221/258/221
f 229/266/228 228/267/229 223/259/222
f 230/268/230 223/259/222 224/261/224
f 231/269/231 224/261/224 225/262/225
f 226/264/226 231/270/231 225/263/225
f 227/265/227 232/271/232 226/264/226
f 228/267/229 233/272/233 227/265/227
f 235/273/234 234/274/235 229/266/228
f 236/275/236 229/266/228 230/268/230
f 237/276/237 230/268/230 231/269/231
f 232/271/232 237/277/237 231/270/231
f 233/272/233 238/278/238 232/271/232
f 234/274/235 239/279/239 233/272/233
f 235/273/234 246/280/240 240/281/241
f 236/275/236 241/282/242 235/273/234
f 237/276/237 242/283/243 236/275/236
f 244/284/244 237/277/237 238/278/238
f 245/285/245 238/278/238 239/279/239
f 246/280/240 239/279/239 240/281/241
f 241/282/242 252/286/246 246/280/240
f 242/283/243 247/287/247 241/282/242
f 243/288/248 248/289/249 242/283/243
f 250/290/250 243/291/248 244/284/244
f 251/292/251 244/284/244 245/285/245
f 252/286/246 245/285/245 246/280/240
f 247/287/247 258/293/252 252/286/246
f 248/289/249 253/294/253 247/287/247
f 249/295/254 254/296/255 248/289/249
f 256/297/256 249/298/254 250/290/250
f 257/299/257 250/290/250 251/292/251
f 258/293/252 251/292/251 252/286/246
f 253/294/253 264/300/258 258/293/252
f 254/296/255 259/301/259 253/294/253
f 255/302/260 260/303/261 254/296/255
f 262/304/262 255/305/260 256/297/256
f 263/306/263 256/297/256 257/299/257
f 264/300/258 257/299/257 258/293/252
f 265/307/264 264/300/258 259/301/259
f 266/308/265 259/301/259 260/303/261
f 267/309/266 260/303/261 261/310/267
f 262/304/262 267/311/266 261/312/267
f 263/306/263 268/313/268 262/304/262
f 264/300/258 269/314/269 263/306/263
f 271/315/270 270/316/271 265/307/264
f 272/317/272 265/307/264 266/308/265
f 273/318/273 266/308/265 267/309/266
f 268/313/268 273/319/273 267/311/266
f 269/314/269 274/320/274 268/313/268
f 270/316/271 275/321/275 269/314/269
f 271/315/270 282/322/276 276/323/277
f 272/317/272 277/324/278 271/315/270
f 273/318/273 278/325/279 272/317/272
f 280/326/280 273/319/273 274/320/274
f 281/327/281 274/320/274 275/321/275
f 282/322/276 275/321/275 276/323/277
f 277/324/278 288/328/282 282/322/276
f 278/325/279 283/329/283 277/324/278
f 279/330/284 284/331/285 278/325/279
f 286/332/286 279/333/284 280/326/280
f 287/334/287 280/326/280 281/327/281
f 288/328/282 281/327/281 282/322/276
f 283/329/283 294/335/288 288/328/282
f 290/336/289 283/329/283 284/331/285
f 291/337/290 284/331/285 285/338/291
f 292/339/292 285/340/291 286/332/286
f 287/334/287 292/339/292 286/332/286
f 288/328/282 293/341/293 287/334/287
f 289/342/294 300/343/295 294/335/288
f 296/344/296 289/342/294 290/336/289
f 297/345/297 290/336/289 291/337/290
f 298/346/298 291/347/290 292/339/292
f 293/341/293 298/346/298 292/339/292
f 294/335/288 299/348/299 293/341/293
f 301/349/300 300/343/295 295/350/301
f 296/344/296 301/349/300 295/350/301
f 297/345/297 302/351/302 296/344/296
f 298/346/298 303/352/303 297/353/297
f 305/354/304 298/346/298 299/348/299
f 306/355/305 299/348/299 300/343/295
f 307/356/306 306/355/305 301/349/300
f 302/351/302 307/356/306 301/349/300
f 303/357/303 308/358/307 302/351/302
f 304/359/308 309/360/309 303/352/303
f 311/361/310 304/359/308 305/354/304
f 312/362/311 305/354/304 306/355/305
f 307/356/306 318/363/312 312/362/311
f 308/358/307 313/364/313 307/356/306
f 309/365/309 314/366/314 308/358/307
f 316/367/315 309/360/309 310/368/316
f 317/369/317 310/368/316 311/361/310
f 318/363/312 311/361/310 312/362/311
f 313/364/313 324/370/318 318/363/312
f 314/366/314 319/371/319 313/364/313
f 315/372/320 320/373/321 314/366/314
f 322/374/322 315/375/320 316/367/315
f 323/376/323 316/367/315 317/369/317
f 324/370/318 317/369/317 318/363/312
f 325/377/324 324/370/318 319/371/319
f 326/378/325 319/371/319 320/373/321
f 327/379/326 320/373/321 321/380/327
f 322/374/322 327/381/326 321/382/327
f 323/376/323 328/383/328 322/374/322
f 324/370/318 329/384/329 323/376/323
f 331/385/330 330/386/331 325/377/324
f 332/387/332 325/377/324 326/378/325
f 333/388/333 326/378/325 327/379/326
f 328/383/328 333/389/333 327/381/326
f 329/384/329 334/390/334 328/383/328
f 330/386/331 335/391/335 329/384/329
f 331/385/330 342/392/336 336/393/337
f 332/387/332 337/394/338 331/385/330
f 333/388/333 338/395/339 332/387/332
f 340/396/340 333/389/333 334/390/334
f 341/397/341 334/390/334 335/391/335
f 342/392/336 335/391/335 336/393/337
f 337/394/338 348/398/342 342/392/336
f 338/395/339 343/399/343 337/394/338
f 339/400/344 344/401/345 338/395/339
f 346/402/346 339/403/344 340/396/340
f 347/404/347 340/396/340 341/397/341
f 348/398/342 341/397/341 342/392/336
f 349/405/348 348/398/342 343/399/343
f 350/406/349 343/399/343 344/401/345
f 351/407/350 344/401/345 345/408/351
f 346/402/346 351/409/350 345/410/351
f 347/404/347 352/411/352 346/402/346
f 348/398/342 353/412/353 347/404/347
f 355/413/354 354/414/355 349/405/348
f 356/415/356 349/405/348 350/406/349
f 357/416/357 350/406/349 351/407/350
f 352/411/352 357/417/357 351/409/350
f 353/412/353 358/418/358 352/411/352
f 354/414/355 359/419/359 353/412/353
f 355/413/354 366/420/360 360/421/361
f 356/415/356 361/422/362 355/413/354
f 357/416/357 362/423/363 356/415/356
f 364/424/364 357/417/357 358/418/358
f 365/425/365 358/418/358 359/419/359
f 366/420/360 359/419/359 360/421/361
f 361/422/362 372/426/366 366/420/360
f 362/423/363 367/427/367 361/422/362
f 363/428/368 368/429/369 362/423/363
f 370/430/370 363/431/368 364/424/364
f 371/432/371 364/424/364 365/425/365
f 372/426/366 365/425/365 366/420/360
f 367/427/367 378/433/372 372/426/366
f 368/429/369 373/434/373 367/427/367
f 369/435/374 374/436/375 368/429/369
f 376/437/376 369/438/374 370/430/370
f 377/439/377 370/430/370 371/432/371
f 378/433/372 371/432/371 372/426/366
f 373/434/373 384/440/378 378/433/372
f 374/436/375 379/441/379 373/434/373
f 375/442/380 380/443/381 374/436/375
f 382/444/382 375/445/380 376/437/376
f 383/446/383 376/437/376 377/439/377
f 384/440/378 377/439/377 378/433/372
f 379/441/379 6/447/3 384/440/378
f 380/443/381 1/448/1 379/441/379
f 381/449/384 2/450/4 380/443/381
f 4/451/9 381/452/384 382/444/382
f 5/453/11 382/444/382 383/446/383
f 6/447/3 383/446/383 384/440/378
f 1/1/1 7/5/5 12/2/2
f 2/4/4 8/7/7 7/5/5
f 3/6/6 9/16/15 8/7/7
f 10/8/8 9/18/15 3/9/6
f 11/11/10 10/8/8 4/10/9
f 12/2/2 11/11/10 5/12/11
f 13/13/12 18/22/19 12/2/2
f 14/14/13 13/13/12 7/5/5
f 15/15/14 14/14/13 8/7/7
f 10/8/8 16/19/16 15/17/14
f 11/11/10 17/20/17 16/19/16
f 12/2/2 18/22/19 17/20/17
f 19/21/18 24/29/25 18/22/19
f 20/23/20 19/21/18 13/13/12
f 21/24/21 20/23/20 14/14/13
f 16/19/16 22/26/22 21/25/21
f 17/20/17 23/27/23 22/26/22
f 18/22/19 24/29/25 23/27/23
f 19/21/18 25/30/26 30/28/24
f 20/23/20 26/31/27 25/30/26
f 21/24/21 27/36/32 26/31/27
f 28/32/28 27/39/32 21/25/21
f 29/33/29 28/32/28 22/26/22
f 30/28/24 29/33/29 23/27/23
f 25/30/26 31/35/31 36/34/30
f 26/31/27 32/37/33 31/35/31
f 27/36/32 33/44/39 32/37/33
f 34/38/34 33/46/39 27/39/32
f 35/40/35 34/38/34 28/32/28
f 36/34/30 35/40/35 29/33/29
f 37/41/36 42/50/43 36/34/30
f 38/42/37 37/41/36 31/35/31
f 39/43/38 38/42/37 32/37/33
f 34/38/34 40/47/40 39/45/38
f 35/40/35 41/48/41 40/47/40
f 36/34/30 42/50/43 41/48/41
f 43/49/42 48/57/49 42/50/43
f 44/51/44 43/49/42 37/41/36
f 45/52/45 44/51/44 38/42/37
f 40/47/40 46/54/46 45/53/45
f 41/48/41 47/55/47 46/54/46
f 42/50/43 48/57/49 47/55/47
f 43/49/42 49/58/50 54/56/48
f 44/51/44 50/59/51 49/58/50
f 45/52/45 51/64/56 50/59/51
f 52/60/52 51/67/56 45/53/45
f 53/61/53 52/60/52 46/54/46
f 54/56/48 53/61/53 47/55/47
f 49/58/50 55/63/55 60/62/54
f 50/59/51 56/65/57 55/63/55
f 51/64/56 57/72/63 56/65/57
f 58/66/58 57/74/63 51/67/56
f 59/68/59 58/66/58 52/60/52
f 60/62/54 59/68/59 53/61/53
f 61/69/60 66/78/67 60/62/54
f 62/70/61 61/69/60 55/63/55
f 63/71/62 62/70/61 56/65/57
f 58/66/58 64/75/64 63/73/62
f 59/68/59 65/76/65 64/75/64
f 60/62/54 66/78/67 65/76/65
f 67/77/66 72/85/73 66/78/67
f 68/79/68 67/77/66 61/69/60
f 69/80/69 68/79/68 62/70/61
f 64/75/64 70/82/70 69/81/69
f 65/76/65 71/83/71 70/82/70
f 66/78/67 72/85/73 71/83/71
f 67/77/66 73/86/74 78/84/72
f 68/79/68 74/87/75 73/86/74
f 69/80/69 75/92/80 74/87/75
f 76/88/76 75/95/80 69/81/69
f 77/89/77 76/88/76 70/82/70
f 78/84/72 77/89/77 71/83/71
f 73/86/74 79/91/79 84/90/78
f 74/87/75 80/93/81 79/91/79
f 75/92/80 81/100/87 80/93/81
f 82/94/82 81/102/87 75/95/80
f 83/96/83 82/94/82 76/88/76
f 84/90/78 83/96/83 77/89/77
f 85/97/84 90/106/91 84/90/78
f 86/98/85 85/97/84 79/91/79
f 87/99/86 86/98/85 80/93/81
f 82/94/82 88/103/88 87/101/86
f 83/96/83 89/104/89 88/103/88
f 84/90/78 90/106/91 89/104/89
f 91/105/90 96/113/97 90/106/91
f 92/107/92 91/105/90 85/97/84
f 93/108/93 92/107/92 86/98/85
f 88/103/88 94/110/94 93/109/93
f 89/104/89 95/111/95 94/110/94
f 90/106/91 96/113/97 95/111/95
f 91/105/90 97/114/98 102/112/96
f 92/107/92 98/115/99 97/114/98
f 93/108/93 99/120/104 98/115/99
f 100/116/100 99/123/104 93/109/93
f 101/117/101 100/116/100 94/110/94
f 102/112/96 101/117/101 95/111/95
f 97/114/98 103/119/103 108/118/102
f 98/115/99 104/121/105 103/119/103
f 99/120/104 105/127/110 104/121/105
f 106/122/106 105/130/110 99/123/104
f 107/124/107 106/122/106 100/116/100
f 108/118/102 107/124/107 101/117/101
f 103/119/103 109/126/109 114/125/108
f 104/121/105 110/128/111 109/126/109
f 105/127/110 111/134/116 110/128/111
f 112/129/112 111/137/116 105/130/110
f 113/131/113 112/129/112 106/122/106
f 114/125/108 113/131/113 107/124/107
f 109/126/109 115/133/115 120/132/114
f 110/128/111 116/135/117 115/133/115
f 111/134/116 117/142/123 116/135/117
f 118/136/118 117/144/123 111/137/116
f 119/138/119 118/136/118 112/129/112
f 120/132/114 119/138/119 113/131/113
f 121/139/120 126/148/127 120/132/114
f 122/140/121 121/139/120 115/133/115
f 123/141/122 122/140/121 116/135/117
f 118/136/118 124/145/124 123/143/122
f 119/138/119 125/146/125 124/145/124
f 120/132/114 126/148/127 125/146/125
f 127/147/126 132/155/133 126/148/127
f 128/149/128 127/147/126 121/139/120
f 129/150/129 128/149/128 122/140/121
f 124/145/124 130/152/130 129/151/129
f 125/146/125 131/153/131 130/152/130
f 126/148/127 132/155/133 131/153/131
f 127/147/126 133/156/134 138/154/132
f 128/149/128 134/157/135 133/156/134
f 129/150/129 135/162/140 134/157/135
f 136/158/136 135/165/140 129/151/129
f 137/159/137 136/158/136 130/152/130
f 138/154/132 137/159/137 131/153/131
f 133/156/134 139/161/139 144/160/138
f 134/157/135 140/163/141 139/161/139
f 135/162/140 141/170/147 140/163/141
f 142/164/142 141/172/147 135/165/140
f 143/166/143 142/164/142 136/158/136
f 144/160/138 143/166/143 137/159/137
f 145/167/144 150/176/151 144/160/138
f 146/168/145 145/167/144 139/161/139
f 147/169/146 146/168/145 140/163/141
f 142/164/142 148/173/148 147/171/146
f 143/166/143 149/174/149 148/173/148
f 144/160/138 150/176/151 149/174/149
f 151/175/150 156/183/157 150/176/151
f 152/177/152 151/175/150 145/167/144
f 153/178/153 152/177/152 146/168/145
f 148/173/148 154/180/154 153/179/153
f 149/174/149 155/181/155 154/180/154
f 150/176/151 156/183/157 155/181/155
f 151/175/150 157/184/158 162/182/156
f 152/177/152 158/185/159 157/184/158
f 153/178/153 159/190/164 158/185/159
f 160/186/160 159/193/164 153/179/153
f 161/187/161 160/186/160 154/180/154
f 162/182/156 161/187/161 155/181/155
f 157/184/158 163/189/163 168/188/162
f 158/185/159 164/191/165 163/189/163
f 159/190/164 165/198/171 164/191/165
f 166/192/166 165/200/171 159/193/164
f 167/194/167 166/192/166 160/186/160
f 168/188/162 167/194/167 161/187/161
f 169/195/168 174/204/175 168/188/162
f 170/196/169 169/195/168 163/189/163
f 171/197/170 170/196/169 164/191/165
f 166/192/166 172/201/172 171/199/170
f 167/194/167 173/202/173 172/201/172
f 168/188/162 174/204/175 173/202/173
f 175/203/174 180/211/181 174/204/175
f 176/205/176 175/203/174 169/195/168
f 177/206/177 176/205/176 170/196/169
f 172/201/172 178/208/178 177/207/177
f 173/202/173 179/209/179 178/208/178
f 174/204/175 180/211/181 179/209/179
f 181/210/180 186/218/187 180/211/181
f 182/212/182 181/210/180 175/203/174
f 183/213/183 182/212/182 176/205/176
f 178/208/178 184/215/184 183/214/183
f 179/209/179 185/216/185 184/215/184
f 180/211/181 186/218/187 185/216/185
f 187/217/186 192/225/193 186/218/187
f 188/219/188 187/217/186 181/210/180
f 189/220/189 188/219/188 182/212/182
f 184/215/184 190/222/190 189/221/189
f 185/216/185 191/223/191 190/222/190
f 186/218/187 192/225/193 191/223/191
f 193/224/192 198/232/199 192/225/193
f 194/226/194 193/224/192 187/217/186
f 195/227/195 194/226/194 188/219/188
f 190/222/190 196/229/196 195/228/195
f 191/223/191 197/230/197 196/229/196
f 192/225/193 198/232/199 197/230/197
f 199/231/198 204/239/205 198/232/199
f 200/233/200 199/231/198 193/224/192
f 201/234/201 200/233/200 194/226/194
f 196/229/196 202/236/202 201/235/201
f 197/230/197 203/237/203 202/236/202
f 198/232/199 204/239/205 203/237/203
f 199/231/198 205/240/206 210/238/204
f 200/233/200 206/241/207 205/240/206
f 201/234/201 207/246/212 206/241/207
f 208/242/208 207/249/212 201/235/201
f 209/243/209 208/242/208 202/236/202
f 210/238/204 209/243/209 203/237/203
f 205/240/206 211/245/211 216/244/210
f 206/241/207 212/247/213 211/245/211
f 207/246/212 213/254/219 212/247/213
f 214/248/214 213/256/219 207/249/212
f 215/250/215 214/248/214 208/242/208
f 216/244/210 215/250/215 209/243/209
f 217/251/216 222/260/223 216/244/210
f 218/252/217 217/251/216 211/245/211
f 219/253/218 218/252/217 212/247/213
f 214/248/214 220/257/220 219/255/218
f 215/250/215 221/258/221 220/257/220
f 216/244/210 222/260/223 221/258/221
f 223/259/222 228/267/229 222/260/223
f 224/261/224 223/259/222 217/251/216
f 225/262/225 224/261/224 218/252/217
f 220/257/220 226/264/226 225/263/225
f 221/258/221 227/265/227 226/264/226
f 222/260/223 228/267/229 227/265/227
f 229/266/228 234/274/235 228/267/229
f 230/268/230 229/266/228 223/259/222
f 231/269/231 230/268/230 224/261/224
f 226/264/226 232/271/232 231/270/231
f 227/265/227 233/272/233 232/271/232
f 228/267/229 234/274/235 233/272/233
f 235/273/234 240/281/241 234/274/235
f 236/275/236 235/273/234 229/266/228
f 237/276/237 236/275/236 230/268/230
f 232/271/232 238/278/238 237/277/237
f 233/272/233 239/279/239 238/278/238
f 234/274/235 240/281/241 239/279/239
f 235/273/234 241/282/242 246/280/240
f 236/275/236 242/283/243 241/282/242
f 237/276/237 243/288/248 242/283/243
f 244/284/244 243/291/248 237/277/237
f 245/285/245 244/284/244 238/278/238
f 246/280/240 245/285/245 239/279/239
f 241/282/242 247/287/247 252/286/246
f 242/283/243 248/289/249 247/287/247
f 243/288/248 249/295/254 248/289/249
f 250/290/250 249/298/254 243/291/248
f 251/292/251 250/290/250 244/284/244
f 252/286/246 251/292/251 245/285/245
f 247/287/247 253/294/253 258/293/252
f 248/289/249 254/296/255 253/294/253
f 249/295/254 255/302/260 254/296/255
f 256/297/256 255/305/260 249/298/254
f 257/299/257 256/297/256 250/290/250
f 258/293/252 257/299/257 251/292/251
f 253/294/253 259/301/259 264/300/258
f 254/296/255 260/303/261 259/301/259
f 255/302/260 261/310/267 260/303/261
f 262/304/262 261/312/267 255/305/260
f 263/306/263 262/304/262 256/297/256
f 264/300/258 263/306/263 257/299/257
f 265/307/264 270/316/271 264/300/258
f 266/308/265 265/307/264 259/301/259
f 267/309/266 266/308/265 260/303/261
f 262/304/262 268/313/268 267/311/266
f 263/306/263 269/314/269 268/313/268
f 264/300/258 270/316/271 269/314/269
f 271/315/270 276/323/277 270/316/271
f 272/317/272 271/315/270 265/307/264
f 273/318/273 272/317/272 266/308/265
f 268/313/268 274/320/274 273/319/273
f 269/314/269 275/321/275 274/320/274
f 270/316/271 276/323/277 275/321/275
f 271/315/270 277/324/278 282/322/276
f 272/317/272 278/325/279 277/324/278
f 273/318/273 279/330/284 278/325/279
f 280/326/280 279/333/284 273/319/273
f 281/327/281 280/326/280 274/320/274
f 282/322/276 281/327/281 275/321/275
f 277/324/278 283/329/283 288/328/282
f 278/325/279 284/331/285 283/329/283
f 279/330/284 285/338/291 284/331/285
f 286/332/286 285/340/291 279/333/284
f 287/334/287 286/332/286 280/326/280
f 288/328/282 287/334/287 281/327/281
f 283/329/283 289/342/294 294/335/288
f 290/336/289 289/342/294 283/329/283
f 291/337/290 290/336/289 284/331/285
f 292/339/292 291/347/290 285/340/291
f 287/334/287 293/341/293 292/339/292
f 288/328/282 294/335/288 293/341/293
f 289/342/294 295/350/301 300/343/295
f 296/344/296 295/350/301 289/342/294
f 297/345/297 296/344/296 290/336/289
f 298/346/298 297/353/297 291/347/290
f 293/341/293 299/348/299 298/346/298
f 294/335/288 300/343/295 299/348/299
f 301/349/300 306/355/305 300/343/295
f 296/344/296 302/351/302 301/349/300
f 297/345/297 303/357/303 302/351/302
f 298/346/298 304/359/308 303/352/303
f 305/354/304 304/359/308 298/346/298
f 306/355/305 305/354/304 299/348/299
f 307/356/306 312/362/311 306/355/305
f 302/351/302 308/358/307 307/356/306
f 303/357/303 309/365/309 308/358/307
f 304/359/308 310/368/316 309/360/309
f 311/361/310 310/368/316 304/359/308
f 312/362/311 311/361/310 305/354/304
f 307/356/306 313/364/313 318/363/312
f 308/358/307 314/366/314 313/364/313
f 309/365/309 315/372/320 314/366/314
f 316/367/315 315/375/320 309/360/309
f 317/369/317 316/367/315 310/368/316
f 318/363/312 317/369/317 311/361/310
f 313/364/313 319/371/319 324/370/318
f 314/366/314 320/373/321 319/371/319
f 315/372/320 321/380/327 320/373/321
f 322/374/322 321/382/327 315/375/320
f 323/376/323 322/374/322 316/367/315
f 324/370/318 323/376/323 317/369/317
f 325/377/324 330/386/331 324/370/318
f 326/378/325 325/377/324 319/371/319
f 327/379/326 326/378/325 320/373/321
f 322/374/322 328/383/328 327/381/326
f 323/376/323 329/384/329 328/383/328
f 324/370/318 330/386/331 329/384/329
f 331/385/330 336/393/337 330/386/331
f 332/387/332 331/385/330 325/377/324
f 333/388/333 332/387/332 326/378/325
f 328/383/328 334/390/334 333/389/333
f 329/384/329 335/391/335 334/390/334
f 330/386/331 336/393/337 335/391/335
f 331/385/330 337/394/338 342/392/336
f 332/387/332 338/395/339 337/394/338
f 333/388/333 339/400/344 338/395/339
f 340/396/340 339/403/344 333/389/333
f 341/397/341 340/396/340 334/390/334
f 342/392/336 341/397/341 335/391/335
f 337/394/338 343/399/343 348/398/342
f 338/395/339 344/401/345 343/399/343
f 339/400/344 345/408/351 344/401/345
f 346/402/346 345/410/351 339/403/344
f 347/404/347 346/402/346 340/396/340
f 348/398/342 347/404/347 341/397/341
f 349/405/348 354/414/355 348/398/342
f 350/406/349 349/405/348 343/399/343
f 351/407/350 350/406/349 344/401/345
f 346/402/346 352/411/352 351/409/350
f 347/404/347 353/412/353 352/411/352
f 348/398/342 354/414/355 353/412/353
f 355/413/354 360/421/361 354/414/355
f 356/415/356 355/413/354 349/405/348
f 357/416/357 356/415/356 350/406/349
f 352/411/352 358/418/358 357/417/357
f 353/412/353 359/419/359 358/418/358
f 354/414/355 360/421/361 359/419/359
f 355/413/354 361/422/362 366/420/360
f 356/415/356 362/423/363 361/422/362
f 357/416/357 363/428/368 362/423/363
f 364/424/364 363/431/368 357/417/357
f 365/425/365 364/424/364 358/418/358
f 366/420/360 365/425/365 359/419/359
f 361/422/362 367/427/367 372/426/366
f 362/423/363 368/429/369 367/427/367
f 363/428/368 369/435/374 368/429/369
f 370/430/370 369/438/374 363/431/368
f 371/432/371 370/430/370 364/424/364
f 372/426/366 371/432/371 365/425/365
f 367/427/367 373/434/373 378/433/372
f 368/429/369 374/436/375 373/434/373
f 369/435/374 375/442/380 374/436/375
f 376/437/376 375/445/380 369/438/374
f 377/439/377 376/437/376 370/430/370
f 378/433/372 377/439/377 371/432/371
f 373/434/373 379/441/379 384/440/378
f 374/436/375 380/443/381 379/441/379
f 375/442/380 381/449/384 380/443/381
f 382/444/382 381/452/384 375/445/380
f 383/446/383 382/444/382 376/437/376
f 384/440/378 383/446/383 377/439/377
f 379/441/379 1/448/1 6/447/3
f 380/443/381 2/450/4 1/448/1
f 381/449/384 3/454/6 2/450/4
f 4/451/9 3/455/6 381/452/384
f 5/453/11 4/451/9 382/444/382
f 6/447/3 5/453/11 383/446/383
