# Blender 3.6.23
# www.blender.org
o sol.010
v 3.487781 1.230616 -3.276189
v 3.496950 1.239786 -3.276189
v 3.494265 1.233302 -3.276189
v 3.496950 2.039380 -3.276189
v 3.489538 2.046791 -3.276189
v 3.494779 2.044621 -3.276189
v 2.300512 2.046791 -3.276189
v 2.291342 2.037622 -3.276189
v 2.294028 2.044106 -3.276189
v 2.291342 1.238027 -3.276189
v 2.298754 1.230616 -3.276189
v 2.293513 1.232787 -3.276189
v -2.440625 1.215258 -0.794544
v -2.440625 2.102780 -0.794544
v -2.440625 2.102779 2.108526
v -2.440625 1.215257 2.108526
vn -0.0000 -0.0000 1.0000
vn 1.0000 -0.0000 -0.0000
vt 1.469254 -1.288099
vt 1.525766 2.119767
vt 1.463836 2.268850
vt 1.407063 -1.294767
vt 1.401302 2.294755
vt -0.734694 -1.294767
vt -0.740457 2.294755
vt -0.797229 -1.268864
vt -0.802649 2.288090
vt -0.859164 -1.119779
vt -0.862118 2.272230
vt -0.390175 -2.428195
vt 1.371944 3.335667
vt -0.390174 3.335667
vt 1.528724 -1.272077
vt 1.371944 -2.428196
s 0
f 6/1/1 7/2/1 9/3/1
f 4/4/1 9/3/1 8/5/1
f 2/6/1 8/5/1 10/7/1
f 3/8/1 10/7/1 12/9/1
f 1/10/1 12/9/1 11/11/1
f 13/12/2 15/13/2 16/14/2
f 6/1/1 5/15/1 7/2/1
f 4/4/1 6/1/1 9/3/1
f 2/6/1 4/4/1 8/5/1
f 3/8/1 2/6/1 10/7/1
f 1/10/1 3/8/1 12/9/1
f 13/12/2 14/16/2 15/13/2
