# Blender 3.6.23
# www.blender.org
o sol.025
v -1.174198 2.165756 -3.134389
v -1.174198 2.350331 -3.158549
v -1.174198 2.155859 -3.158495
v -1.174198 2.340380 -3.134449
v 3.106816 2.357758 -3.290954
v 3.108953 2.354592 -3.290875
v 3.108957 2.166215 -3.290823
v 3.107121 2.163287 -3.290900
v -1.174198 2.340427 -3.140846
v -1.174198 2.165143 -3.140790
v 3.081916 2.347879 -3.266842
v 3.087787 2.344527 -3.266764
v 3.082385 2.173255 -3.266783
v 3.087900 2.176301 -3.266706
v -1.174198 2.335609 -3.132539
v -1.174198 2.170336 -3.132467
v -1.174198 2.349213 -3.140865
v -1.174198 2.351025 -3.142498
v -1.174198 2.157222 -3.140809
v -1.174198 2.155781 -3.142442
v 3.087402 2.344514 -3.273161
v 3.078192 2.348527 -3.273238
v 3.082001 2.173242 -3.273183
v 3.089534 2.176702 -3.273104
v 3.083688 2.340325 -3.265106
v 3.078808 2.343329 -3.265184
v 3.077843 2.178056 -3.265112
v 3.082757 2.180827 -3.265037
v 3.112430 2.354084 -3.274821
v 3.109852 2.353071 -3.273264
v 3.106458 2.355989 -3.273342
v 3.107781 2.357750 -3.274901
v 3.104335 2.162507 -3.274844
v 3.103576 2.164514 -3.273288
v 3.107138 2.167608 -3.273207
v 3.109921 2.166207 -3.274767
v -0.777204 2.165756 -3.266327
v -0.777204 2.350331 -3.290487
v -0.777204 2.155859 -3.290433
v -0.777204 2.340380 -3.266387
v -0.777204 2.340427 -3.272784
v -0.777204 2.165143 -3.272729
v -0.774056 2.335609 -3.264477
v -0.774056 2.170336 -3.264405
v -0.777204 2.349213 -3.272803
v -0.777204 2.351025 -3.274436
v -0.777204 2.157222 -3.272747
v -0.777204 2.155781 -3.274380
v -1.197338 2.350605 -3.158193
v -1.199475 2.347439 -3.158114
v -1.199478 2.159062 -3.158062
v -1.197643 2.156134 -3.158139
v -1.185897 2.340726 -3.134081
v -1.191768 2.337374 -3.134003
v -1.186366 2.166102 -3.134021
v -1.191881 2.169148 -3.133944
v -1.191383 2.337361 -3.140400
v -1.182173 2.341374 -3.140477
v -1.185981 2.166089 -3.140422
v -1.193515 2.169549 -3.140342
v -1.187669 2.333172 -3.132345
v -1.182789 2.336176 -3.132422
v -1.181823 2.170903 -3.132351
v -1.186737 2.173674 -3.132276
v -1.202952 2.346931 -3.142060
v -1.200374 2.345918 -3.140503
v -1.196980 2.348837 -3.140581
v -1.198303 2.350597 -3.142139
v -1.194857 2.155354 -3.142083
v -1.194098 2.157361 -3.140526
v -1.197660 2.160456 -3.140446
v -1.200444 2.159055 -3.142006
v -0.773446 2.155781 -3.142442
v -0.771210 2.157222 -3.140809
v -0.773932 2.351025 -3.142498
v -0.771210 2.349213 -3.140865
v -0.774619 2.170336 -3.132467
v -0.774619 2.335609 -3.132539
v -0.771210 2.165143 -3.140790
v -0.771210 2.340427 -3.140846
v -0.771210 2.340380 -3.134449
v -0.773446 2.155859 -3.158495
v -0.773932 2.350331 -3.158549
v -0.771210 2.165756 -3.134389
v -0.771210 2.348519 -3.156915
v -0.771210 2.339733 -3.156897
v -0.771210 2.164448 -3.156841
v -0.771210 2.157301 -3.156861
v -0.777204 2.348519 -3.290487
v -0.777204 2.339733 -3.290468
v -0.777204 2.164448 -3.290413
v -0.777204 2.157301 -3.290432
v 1.275820 2.620729 -3.275504
v 1.277952 2.623568 -3.275511
v 1.275848 2.442955 -3.275048
v 1.273783 2.445777 -3.275055
v 1.747910 2.625304 -3.275515
v 1.749976 2.622482 -3.275507
v 1.747939 2.447530 -3.275059
v 1.745807 2.444691 -3.275051
v 1.286187 2.614357 -3.251398
v 1.283988 2.611411 -3.251390
v 1.739406 2.616200 -3.251402
v 1.741577 2.613204 -3.251394
v 1.737572 2.454020 -3.250974
v 1.739771 2.456967 -3.250981
v 1.284353 2.452178 -3.250970
v 1.282182 2.455173 -3.250977
v 1.286187 2.614331 -3.257792
v 1.283751 2.611003 -3.257781
v 1.282182 2.455147 -3.257369
v 1.284730 2.451532 -3.257364
v 1.741576 2.613178 -3.257787
v 1.739029 2.616793 -3.257799
v 1.737572 2.453994 -3.257371
v 1.740008 2.457322 -3.257375
v 1.289339 2.610121 -3.249591
v 1.287237 2.607432 -3.249584
v 1.285409 2.459301 -3.249180
v 1.287445 2.456628 -3.249173
v 1.738350 2.609091 -3.249588
v 1.736314 2.611764 -3.249595
v 1.734420 2.458271 -3.249177
v 1.736522 2.460961 -3.249184
v 1.278393 2.624309 -3.259468
v 1.279740 2.622692 -3.257868
v 1.277156 2.619117 -3.257856
v 1.275820 2.620758 -3.259456
v 1.273498 2.446273 -3.259009
v 1.274847 2.447717 -3.257415
v 1.277255 2.444340 -3.257410
v 1.275848 2.442984 -3.259004
v 1.750260 2.622043 -3.259459
v 1.748561 2.620251 -3.257856
v 1.746146 2.623638 -3.257868
v 1.747910 2.625333 -3.259470
v 1.745366 2.444008 -3.259005
v 1.743881 2.445811 -3.257411
v 1.746263 2.449624 -3.257415
v 1.747938 2.447559 -3.259011
v 0.264325 2.620912 -3.275504
v 0.266457 2.623750 -3.275511
v 0.264353 2.443138 -3.275048
v 0.262288 2.445960 -3.275055
v 0.687676 2.625462 -3.275515
v 0.689742 2.622640 -3.275508
v 0.687704 2.447688 -3.275059
v 0.685573 2.444849 -3.275052
v 0.274692 2.614540 -3.251398
v 0.272493 2.611593 -3.251390
v 0.679172 2.616358 -3.251402
v 0.681343 2.613362 -3.251394
v 0.677338 2.454178 -3.250975
v 0.679537 2.457125 -3.250981
v 0.272858 2.452360 -3.250970
v 0.270687 2.455356 -3.250977
v 0.274692 2.614513 -3.257792
v 0.272256 2.611186 -3.257782
v 0.270687 2.455330 -3.257370
v 0.273235 2.451715 -3.257365
v 0.681342 2.613336 -3.257787
v 0.678795 2.616951 -3.257799
v 0.677338 2.454152 -3.257371
v 0.679773 2.457480 -3.257375
v 0.277844 2.610304 -3.249592
v 0.275742 2.607614 -3.249584
v 0.273914 2.459484 -3.249181
v 0.275950 2.456811 -3.249174
v 0.678116 2.609249 -3.249588
v 0.676080 2.611923 -3.249595
v 0.674186 2.458429 -3.249177
v 0.676288 2.461119 -3.249184
v 0.266898 2.624491 -3.259468
v 0.268245 2.622875 -3.257868
v 0.265661 2.619299 -3.257856
v 0.264325 2.620940 -3.259456
v 0.262003 2.446456 -3.259009
v 0.263352 2.447900 -3.257416
v 0.265760 2.444523 -3.257411
v 0.264353 2.443167 -3.259005
v 0.690026 2.622202 -3.259459
v 0.688327 2.620409 -3.257856
v 0.685912 2.623796 -3.257868
v 0.687676 2.625491 -3.259470
v 0.685131 2.444166 -3.259006
v 0.683646 2.445969 -3.257411
v 0.686029 2.449782 -3.257416
v 0.687704 2.447717 -3.259012
vn 0.3075 -0.0014 0.9516
vn -0.0023 -0.0177 0.9998
vn -0.0000 0.9991 -0.0432
vn -0.0000 -0.0023 1.0000
vn -0.0039 0.0223 0.9997
vn 0.9981 -0.0133 -0.0600
vn 0.0009 -0.3875 0.9219
vn -0.0000 0.0021 1.0000
vn -0.0000 -0.3870 0.9221
vn 0.0017 -1.0000 -0.0049
vn 0.9689 0.0007 0.2475
vn 0.0044 0.0004 1.0000
vn 0.0001 0.0021 1.0000
vn 0.6167 0.7796 -0.1089
vn 0.8468 -0.5294 -0.0512
vn 0.1126 -0.2284 0.9670
vn 0.4959 0.8678 -0.0316
vn -0.0000 -0.9954 0.0954
vn -0.0155 0.0005 0.9999
vn 0.2697 -0.4254 0.8639
vn 0.3660 0.4473 0.8161
vn -0.0000 0.0004 1.0000
vn -0.0011 0.6696 0.7427
vn -0.0000 0.6697 0.7426
vn 0.5191 -0.0073 0.8547
vn 0.0021 -0.9954 0.0955
vn -0.0000 -0.7498 0.6616
vn 0.4164 -0.9078 0.0494
vn 0.1406 0.2530 0.9572
vn -0.0019 0.9948 0.1020
vn 0.0012 -0.6126 0.7904
vn -0.0000 0.3717 0.9283
vn -0.0006 0.3429 0.9394
vn -0.0000 1.0000 0.0074
vn -0.0017 1.0000 0.0006
vn 0.0002 0.0004 1.0000
vn 0.0002 -0.0116 0.9999
vn -0.3745 0.0006 0.9272
vn 0.0035 -0.0152 0.9999
vn 0.0012 0.0164 0.9999
vn -0.9773 -0.0000 -0.2117
vn -0.9981 0.0127 -0.0601
vn -0.0110 0.0005 0.9999
vn -0.6168 0.7796 -0.1089
vn -0.8468 -0.5294 -0.0512
vn -0.1126 -0.2284 0.9670
vn -0.4959 0.8678 -0.0316
vn 0.0154 0.0005 0.9999
vn -0.3889 -0.4683 0.7934
vn -0.3659 0.4473 0.8161
vn -0.5192 -0.0073 0.8546
vn -0.4164 -0.9079 0.0495
vn -0.1307 0.2511 0.9591
vn 0.0152 0.0004 0.9999
vn 0.0186 -0.3442 0.9387
vn -0.0284 -0.9996 0.0003
vn 0.0140 -0.0250 0.9996
vn 0.0264 -0.6189 0.7850
vn 0.0401 0.3663 0.9296
vn 0.1183 0.9930 0.0073
vn 0.0118 0.0374 0.9992
vn -0.0006 0.6626 0.7490
vn 0.0112 0.9990 -0.0432
vn -0.0000 -1.0000 -0.0049
vn -0.0124 -0.9988 -0.0464
vn 0.4886 0.0003 0.8725
vn 1.0000 -0.0000 -0.0000
vn 0.5682 0.8221 -0.0355
vn 0.5438 -0.8392 -0.0041
vn -1.0000 -0.0000 -0.0000
vn -0.5185 0.0003 0.8551
vn -0.9999 0.0133 -0.0000
vn 0.4807 -0.0035 0.8769
vn 0.0041 -0.0019 1.0000
vn -0.0000 -0.0049 1.0000
vn -0.0044 -0.0018 1.0000
vn -0.0000 0.0027 1.0000
vn -0.0022 1.0000 -0.0018
vn -0.4780 0.0083 0.8783
vn 0.0037 0.0061 1.0000
vn 0.9999 -0.0133 -0.0000
vn 0.0014 -0.3752 0.9270
vn 0.0003 0.0027 1.0000
vn -0.0014 0.3781 0.9258
vn 0.0022 -1.0000 0.0018
vn 0.9993 -0.0115 0.0364
vn 0.0073 0.0026 1.0000
vn -0.0000 0.0091 1.0000
vn -0.8136 -0.5814 0.0035
vn -0.7997 0.6004 -0.0011
vn 0.8137 0.5813 0.0015
vn 0.7997 -0.6004 0.0011
vn -0.8097 -0.5868 0.0024
vn 0.2693 -0.1988 0.9423
vn 0.8098 0.5866 -0.0025
vn -0.2676 0.2024 0.9420
vn -0.0090 0.0027 1.0000
vn -0.0003 0.0027 1.0000
vn -0.5181 -0.3691 0.7716
vn 0.4549 -0.2833 0.8443
vn 0.4476 0.3227 0.8340
vn -0.4982 0.3624 0.7877
vn -0.7687 0.0120 0.6395
vn -0.0014 0.7029 0.7113
vn 0.0021 -0.6615 0.7499
vn 0.6903 -0.0074 0.7235
vn -0.0039 0.0060 1.0000
vn -0.9993 0.0116 0.0363
vn 0.0040 -0.9949 0.1006
vn -0.0040 0.9957 0.0924
vn -0.2674 -0.2010 0.9424
vn 0.8070 -0.5906 -0.0029
vn 0.2660 0.2051 0.9419
vn -0.8069 0.5906 -0.0078
vn -0.0045 -0.0017 1.0000
vn -0.0024 1.0000 -0.0018
vn 0.0039 0.0061 1.0000
vn 0.0015 -0.3753 0.9269
vn -0.0015 0.3782 0.9257
vn 0.0024 -1.0000 0.0018
vn 0.8136 0.5814 0.0014
vn -0.8098 -0.5867 0.0024
vn 0.8098 0.5867 -0.0025
vn -0.2679 0.2024 0.9419
vn -0.5183 -0.3692 0.7714
vn 0.4550 -0.2833 0.8442
vn 0.4476 0.3226 0.8340
vn -0.4983 0.3627 0.7875
vn -0.7684 0.0120 0.6399
vn -0.0016 0.7027 0.7115
vn 0.0023 -0.6615 0.7499
vn 0.6904 -0.0074 0.7234
vn 0.0045 -0.9949 0.1007
vn -0.0045 0.9957 0.0925
vn -0.2674 -0.2011 0.9424
vn 0.8069 -0.5906 -0.0029
vn 0.2658 0.2051 0.9420
vn -0.8070 0.5905 -0.0078
vn 0.3744 0.0006 0.9272
vn -0.0048 -0.0205 0.9998
vn -0.0009 0.0172 0.9999
vn 0.9773 -0.0000 -0.2117
vn 0.0007 -0.3280 0.9447
vn 0.0019 -0.9988 -0.0482
vn 0.9981 0.0127 -0.0601
vn 0.0060 0.0002 1.0000
vn 0.0001 0.0135 0.9999
vn 0.8284 0.5579 -0.0495
vn 0.5508 -0.8328 0.0551
vn 0.1141 -0.2284 0.9668
vn 0.3966 0.9074 -0.1389
vn 0.3892 -0.4682 0.7933
vn 0.3320 0.4389 0.8350
vn -0.0011 0.6632 0.7485
vn -0.0000 0.6697 0.7427
vn 0.4863 -0.0062 0.8738
vn 0.0019 -1.0000 0.0019
vn -0.0000 -0.7499 0.6616
vn 0.4835 -0.8749 -0.0273
vn 0.1304 0.2511 0.9591
vn -0.0021 1.0000 0.0074
vn 0.0015 -0.7498 0.6617
vn -0.0000 0.3717 0.9284
vn -0.0006 0.3714 0.9285
vn -0.0019 0.9991 -0.0432
vn 0.0001 -0.0023 1.0000
vn -0.3074 -0.0014 0.9516
vn 0.0089 -0.0155 0.9998
vn 0.0067 0.0191 0.9998
vn -0.9981 -0.0133 -0.0600
vn -0.9689 0.0007 0.2475
vn -0.0247 -0.0001 0.9997
vn -0.8285 0.5578 -0.0495
vn -0.5508 -0.8328 0.0551
vn -0.1142 -0.2284 0.9668
vn -0.3966 0.9074 -0.1389
vn 0.0155 0.0005 0.9999
vn -0.2700 -0.4254 0.8638
vn -0.3318 0.4389 0.8350
vn -0.4865 -0.0062 0.8737
vn -0.4836 -0.8749 -0.0273
vn -0.1405 0.2530 0.9572
vn 0.0136 0.0005 0.9999
vn -0.0148 -0.3870 0.9220
vn -0.0768 -0.9925 0.0952
vn 0.0312 -0.0023 0.9995
vn 0.0042 -0.7499 0.6616
vn 0.0372 0.3714 0.9277
vn 0.0331 0.9922 0.1199
vn 0.0466 0.0021 0.9989
vn -0.0018 0.6696 0.7427
vn -0.0177 0.9998 -0.0005
vn 0.0206 -0.9998 -0.0049
vn 0.4914 0.0004 0.8709
vn 0.5439 -0.8392 -0.0041
vn -0.5213 0.0004 0.8534
vn -0.9998 0.0116 -0.0181
vn 0.4917 -0.0034 0.8708
vn 0.0043 -0.0016 1.0000
vn -0.0000 -0.0064 1.0000
vn -0.0037 0.9989 -0.0460
vn -0.4941 0.0080 0.8694
vn 0.0040 0.0059 1.0000
vn 0.9998 -0.0117 -0.0180
vn 0.0016 -0.3885 0.9215
vn -0.0001 0.0027 1.0000
vn -0.0016 0.3913 0.9203
vn 0.0037 -0.9991 -0.0424
vn 0.9999 -0.0101 -0.0000
vn 0.0094 0.0025 1.0000
vn -0.0000 0.0101 0.9999
vn -0.8069 -0.5906 0.0011
vn -0.8098 0.5867 -0.0048
vn 0.8069 0.5906 -0.0011
vn 0.8098 -0.5867 -0.0027
vn -0.8174 -0.5760 0.0100
vn 0.2671 -0.2061 0.9414
vn 0.8174 0.5761 0.0051
vn -0.2657 0.2101 0.9409
vn -0.0080 0.0027 1.0000
vn -0.5179 -0.3683 0.7721
vn 0.4676 -0.3374 0.8170
vn 0.4476 0.3219 0.8343
vn -0.4984 0.3638 0.7869
vn -0.7615 0.0118 0.6481
vn -0.0015 0.6877 0.7260
vn 0.0017 -0.7623 0.6472
vn 0.6849 -0.0072 0.7286
vn -0.0038 0.0061 1.0000
vn -0.9999 0.0101 -0.0000
vn 0.0054 -1.0000 0.0042
vn -0.0054 1.0000 -0.0041
vn -0.2700 -0.1933 0.9433
vn 0.8014 -0.5981 0.0025
vn 0.2683 0.1971 0.9430
vn -0.8014 0.5981 -0.0025
vn -0.0045 -0.0018 1.0000
vn -0.0041 0.9989 -0.0461
vn -0.4943 0.0080 0.8693
vn 0.0038 0.0059 1.0000
vn 0.9998 -0.0117 -0.0181
vn 0.0018 -0.3884 0.9215
vn -0.0017 0.3911 0.9203
vn 0.0041 -0.9991 -0.0424
vn -0.8070 -0.5906 0.0011
vn 0.8097 -0.5868 -0.0027
vn 0.2673 -0.2062 0.9413
vn 0.8174 0.5761 0.0052
vn -0.2655 0.2101 0.9409
vn -0.0081 0.0027 1.0000
vn -0.0002 0.0027 1.0000
vn -0.5181 -0.3681 0.7720
vn 0.4675 -0.3374 0.8170
vn 0.4473 0.3220 0.8344
vn -0.4985 0.3637 0.7869
vn -0.7618 0.0118 0.6477
vn -0.0016 0.6881 0.7256
vn 0.0018 -0.7623 0.6472
vn -0.0037 0.0062 1.0000
vn 0.0060 -1.0000 0.0041
vn -0.0060 1.0000 -0.0042
vn -0.2698 -0.1934 0.9433
vn -0.8014 0.5981 -0.0026
vt 0.942126 0.045098
vt 0.945009 0.274935
vt 0.939793 0.045998
vt 0.959471 0.027426
vt 0.950406 0.041901
vt 0.945308 0.035896
vt 0.112151 0.319522
vt 0.121555 0.296595
vt 0.130432 0.033819
vt 0.115277 0.026542
vt 0.115277 0.026542
vt 0.968448 0.292998
vt 0.956925 0.279368
vt 0.969991 0.291052
vt 0.989988 0.014746
vt 0.975604 0.294880
vt 0.965350 0.025270
vt 0.135022 0.041176
vt 0.939646 0.044378
vt 0.136315 0.043249
vt 0.124752 0.292588
vt 0.136334 0.284104
vt 0.136315 0.043249
vt 0.102590 0.000284
vt 0.963838 0.023225
vt 0.111588 0.022907
vt 0.947628 0.275909
vt 0.951218 0.286185
vt 0.999718 0.304388
vt 0.973810 0.296920
vt 0.975295 0.000282
vt 0.940891 0.042513
vt 0.945723 0.278764
vt 0.960273 0.029604
vt 0.140842 0.275545
vt 0.130432 0.033819
vt 0.944175 0.276673
vt 0.139851 0.277427
vt 0.984859 0.319528
vt 0.115277 0.026542
vt 0.963838 0.023225
vt 0.000000 0.000000
vt 0.136334 0.284104
vt 0.136315 0.043249
vt 0.124752 0.292588
vt 0.135022 0.041176
vt 0.406449 0.305071
vt 0.409194 0.024909
vt 0.411149 0.294512
vt 0.584321 0.045098
vt 0.584871 0.274935
vt 0.583876 0.045998
vt 0.584928 0.035896
vt 0.587784 0.029604
vt 0.585901 0.041901
vt 0.413847 0.033610
vt 0.587631 0.027426
vt 0.410140 0.028148
vt 0.410394 0.026453
vt 0.416054 0.275432
vt 0.583848 0.044378
vt 0.584712 0.276673
vt 0.592475 0.319528
vt 0.411438 0.296563
vt 0.590367 0.296920
vt 0.415581 0.274710
vt 0.415031 0.044879
vt 0.416026 0.273815
vt 0.586056 0.286185
vt 0.589638 0.291052
vt 0.589344 0.292998
vt 0.593454 0.014746
vt 0.590709 0.294880
vt 0.588753 0.025270
vt 0.414895 0.041042
vt 0.415190 0.043136
vt 0.585007 0.278764
vt 0.407428 0.000284
vt 0.588464 0.023225
vt 0.409536 0.022875
vt 0.585371 0.275909
vt 0.587145 0.279368
vt 0.412212 0.292547
vt 0.414973 0.283895
vt 0.404593 0.015438
vt 0.409252 0.319521
vt 0.595311 0.304388
vt 0.590650 0.000282
vt 0.412758 0.040423
vt 0.414532 0.043899
vt 0.584085 0.042513
vt 0.415816 0.277293
vt 0.414001 0.277888
vt 0.412016 0.290844
vt 0.397249 0.305071
vt 0.400264 0.024909
vt 0.402412 0.294512
vt 0.592624 0.045098
vt 0.593228 0.274935
vt 0.592135 0.045998
vt 0.593291 0.035896
vt 0.596428 0.029604
vt 0.594360 0.041901
vt 0.405375 0.033610
vt 0.596260 0.027426
vt 0.401303 0.028148
vt 0.401583 0.026453
vt 0.407799 0.275432
vt 0.592104 0.044378
vt 0.593054 0.276673
vt 0.601581 0.319528
vt 0.402729 0.296563
vt 0.599265 0.296920
vt 0.407280 0.274710
vt 0.406676 0.044879
vt 0.407769 0.273815
vt 0.594530 0.286185
vt 0.598465 0.291052
vt 0.598141 0.292998
vt 0.602656 0.014746
vt 0.599641 0.294880
vt 0.597492 0.025270
vt 0.406526 0.041042
vt 0.406851 0.043136
vt 0.593378 0.278764
vt 0.398325 0.000284
vt 0.597175 0.023225
vt 0.400640 0.022875
vt 0.593777 0.275909
vt 0.595726 0.279368
vt 0.403579 0.292547
vt 0.406612 0.283895
vt 0.395211 0.015438
vt 0.400328 0.319521
vt 0.604695 0.304388
vt 0.599576 0.000282
vt 0.404179 0.040423
vt 0.406127 0.043899
vt 0.592365 0.042513
vt 0.407538 0.277293
vt 0.405544 0.277888
vt 0.403363 0.290844
s 0
f 14/1/1 25/2/1 28/3/1
f 34/4/2 24/5/2 23/6/2
f 83/7/3 18/8/3 75/8/3
f 79/9/4 19/10/4 74/11/4
f 31/12/5 21/13/5 30/14/5
f 7/15/6 29/16/6 36/17/6
f 37/18/7 27/19/7 44/20/7
f 76/21/8 9/22/8 80/22/8
f 77/23/9 1/18/9 84/18/9
f 39/24/10 33/25/10 48/26/10
f 24/5/11 12/27/11 14/1/11
f 24/5/12 30/14/12 21/13/12
f 22/28/13 45/21/13 41/22/13
f 6/29/14 32/30/14 29/16/14
f 36/17/15 8/31/15 7/15/15
f 28/3/16 13/32/16 14/1/16
f 21/13/17 11/33/17 12/27/17
f 84/18/18 10/9/18 79/9/18
f 25/2/19 27/19/19 28/3/19
f 35/34/20 33/25/20 36/17/20
f 30/14/21 32/30/21 31/12/21
f 78/35/22 16/20/22 77/23/22
f 31/12/23 46/8/23 45/21/23
f 75/8/24 17/21/24 76/21/24
f 35/34/25 29/16/25 30/14/25
f 23/6/26 37/18/26 42/36/26
f 73/26/27 19/10/27 20/26/27
f 14/1/28 23/6/28 24/5/28
f 25/2/29 11/33/29 26/37/29
f 22/28/30 40/38/30 11/33/30
f 34/4/31 48/26/31 33/25/31
f 78/35/32 4/38/32 15/35/32
f 40/38/33 26/37/33 11/33/33
f 80/22/34 4/38/34 81/38/34
f 5/39/35 46/8/35 32/30/35
f 43/35/36 27/19/36 26/37/36
f 23/6/37 47/40/37 34/4/37
f 56/1/38 61/2/38 54/27/38
f 60/5/39 70/4/39 59/6/39
f 67/12/40 57/13/40 58/28/40
f 51/15/41 65/16/41 50/29/41
f 60/5/42 54/27/42 57/13/42
f 66/14/43 60/5/43 57/13/43
f 68/30/44 50/29/44 65/16/44
f 52/31/45 72/17/45 51/15/45
f 55/32/46 64/3/46 56/1/46
f 53/33/47 57/13/47 54/27/47
f 61/2/48 63/19/48 62/37/48
f 71/34/49 69/41/49 70/4/49
f 68/30/50 66/14/50 67/12/50
f 65/16/51 71/34/51 66/14/51
f 59/6/52 56/1/52 60/5/52
f 61/2/53 53/33/53 54/27/53
f 15/35/54 63/37/54 16/42/54
f 1/20/55 63/19/55 55/42/55
f 59/32/56 1/18/56 55/42/56
f 19/9/57 59/6/57 70/42/57
f 20/42/58 70/42/58 69/4/58
f 62/35/59 4/42/59 53/33/59
f 58/28/60 4/43/60 9/42/60
f 58/42/61 17/42/61 67/12/61
f 67/42/62 18/42/62 68/30/62
f 49/39/63 18/7/63 2/42/63
f 73/26/64 3/24/64 82/24/64
f 3/26/65 69/41/65 52/42/65
f 78/44/66 84/42/66 81/35/66
f 80/38/67 84/36/67 79/42/67
f 85/42/68 75/45/68 76/42/68
f 85/42/67 80/42/67 86/42/67
f 86/42/67 79/42/67 87/42/67
f 73/24/69 88/42/69 74/26/69
f 87/42/67 74/42/67 88/42/67
f 46/7/70 89/42/70 45/8/70
f 41/21/70 89/42/70 90/42/70
f 37/20/71 43/38/71 40/42/71
f 37/42/70 41/42/70 42/46/70
f 42/42/70 90/42/70 91/42/70
f 92/42/70 48/40/70 47/42/70
f 47/9/70 91/42/70 92/42/70
f 93/47/72 129/48/72 128/49/72
f 106/50/73 121/51/73 124/52/73
f 115/53/74 139/54/74 116/55/74
f 112/56/75 138/57/75 115/53/75
f 112/56/76 130/58/76 131/59/76
f 117/60/77 123/61/77 122/62/77
f 97/63/78 125/64/78 136/65/78
f 102/66/79 119/67/79 118/68/79
f 114/69/80 134/70/80 135/71/80
f 99/72/81 133/73/81 140/74/81
f 107/75/82 123/61/82 120/76/82
f 118/68/83 120/76/83 117/60/83
f 103/77/84 117/60/84 122/62/84
f 95/78/85 137/79/85 132/80/85
f 116/55/86 104/81/86 106/50/86
f 116/55/87 134/70/87 113/82/87
f 114/69/88 126/83/88 109/84/88
f 96/85/89 132/80/89 129/48/89
f 128/49/90 94/86/90 93/47/90
f 98/87/91 136/65/91 133/73/91
f 140/74/92 100/88/92 99/72/92
f 111/89/93 107/75/93 108/90/93
f 106/50/94 123/61/94 105/91/94
f 113/82/95 103/77/95 104/81/95
f 102/66/96 117/60/96 101/92/96
f 110/93/97 130/58/97 111/89/97
f 122/62/98 124/52/98 121/51/98
f 131/59/99 129/48/99 132/80/99
f 138/57/100 140/74/100 139/54/100
f 135/71/101 133/73/101 136/65/101
f 126/83/102 128/49/102 127/94/102
f 127/94/103 129/48/103 130/58/103
f 135/71/104 125/64/104 126/83/104
f 131/59/105 137/79/105 138/57/105
f 139/54/106 133/73/106 134/70/106
f 109/84/107 127/94/107 110/93/107
f 110/93/108 108/90/108 102/66/108
f 112/56/109 105/91/109 107/75/109
f 114/69/110 101/92/110 103/77/110
f 108/90/111 120/76/111 119/67/111
f 106/50/112 115/53/112 116/55/112
f 104/81/113 122/62/113 121/51/113
f 102/66/114 109/84/114 110/93/114
f 141/95/72 177/96/72 176/97/72
f 154/98/73 169/99/73 172/100/73
f 163/101/74 187/102/74 164/103/74
f 160/104/75 186/105/75 163/101/75
f 160/104/115 178/106/115 179/107/115
f 165/108/77 171/109/77 170/110/77
f 145/111/116 173/112/116 184/113/116
f 150/114/79 167/115/79 166/116/79
f 162/117/117 182/118/117 183/119/117
f 147/120/81 181/121/81 188/122/81
f 155/123/118 171/109/118 168/124/118
f 166/116/77 168/124/77 165/108/77
f 151/125/119 165/108/119 170/110/119
f 143/126/120 185/127/120 180/128/120
f 164/103/86 152/129/86 154/98/86
f 164/103/87 182/118/87 161/130/87
f 162/117/88 174/131/88 157/132/88
f 144/133/89 180/128/89 177/96/89
f 176/97/90 142/134/90 141/95/90
f 146/135/121 184/113/121 181/121/121
f 188/122/92 148/136/92 147/120/92
f 159/137/122 155/123/122 156/138/122
f 154/98/94 171/109/94 153/139/94
f 161/130/123 151/125/123 152/129/123
f 150/114/124 165/108/124 149/140/124
f 158/141/97 178/106/97 159/137/97
f 170/110/83 172/100/83 169/99/83
f 179/107/125 177/96/125 180/128/125
f 186/105/126 188/122/126 187/102/126
f 183/119/127 181/121/127 184/113/127
f 174/131/128 176/97/128 175/142/128
f 175/142/129 177/96/129 178/106/129
f 183/119/130 173/112/130 174/131/130
f 179/107/131 185/127/131 186/105/131
f 187/102/132 181/121/132 182/118/132
f 157/132/107 175/142/107 158/141/107
f 158/141/108 156/138/108 150/114/108
f 160/104/133 153/139/133 155/123/133
f 162/117/134 149/140/134 151/125/134
f 156/138/135 168/124/135 167/115/135
f 154/98/136 163/101/136 164/103/136
f 152/129/137 170/110/137 169/99/137
f 150/114/138 157/132/138 158/141/138
f 14/1/139 12/27/139 25/2/139
f 34/4/140 35/34/140 24/5/140
f 83/7/3 2/7/3 18/8/3
f 79/9/4 10/9/4 19/10/4
f 31/12/141 22/28/141 21/13/141
f 7/15/142 6/29/142 29/16/142
f 37/18/143 13/32/143 27/19/143
f 76/21/8 17/21/8 9/22/8
f 77/23/9 16/20/9 1/18/9
f 39/24/144 8/31/144 33/25/144
f 24/5/145 21/13/145 12/27/145
f 24/5/146 35/34/146 30/14/146
f 22/28/147 31/12/147 45/21/147
f 6/29/148 5/39/148 32/30/148
f 36/17/149 33/25/149 8/31/149
f 28/3/150 27/19/150 13/32/150
f 21/13/151 22/28/151 11/33/151
f 84/18/18 1/18/18 10/9/18
f 25/2/19 26/37/19 27/19/19
f 35/34/152 34/4/152 33/25/152
f 30/14/153 29/16/153 32/30/153
f 78/35/22 15/35/22 16/20/22
f 31/12/154 32/30/154 46/8/154
f 75/8/155 18/8/155 17/21/155
f 35/34/156 36/17/156 29/16/156
f 23/6/157 13/32/157 37/18/157
f 73/26/158 74/11/158 19/10/158
f 14/1/159 13/32/159 23/6/159
f 25/2/160 12/27/160 11/33/160
f 22/28/161 41/22/161 40/38/161
f 34/4/162 47/40/162 48/26/162
f 78/35/163 81/38/163 4/38/163
f 40/38/164 43/35/164 26/37/164
f 80/22/34 9/22/34 4/38/34
f 5/39/165 38/7/165 46/8/165
f 43/35/36 44/20/36 27/19/36
f 23/6/166 42/36/166 47/40/166
f 56/1/167 64/3/167 61/2/167
f 60/5/168 71/34/168 70/4/168
f 67/12/169 66/14/169 57/13/169
f 51/15/170 72/17/170 65/16/170
f 60/5/171 56/1/171 54/27/171
f 66/14/172 71/34/172 60/5/172
f 68/30/173 49/39/173 50/29/173
f 52/31/174 69/41/174 72/17/174
f 55/32/175 63/19/175 64/3/175
f 53/33/176 58/28/176 57/13/176
f 61/2/177 64/3/177 63/19/177
f 71/34/178 72/17/178 69/41/178
f 68/30/179 65/16/179 66/14/179
f 65/16/180 72/17/180 71/34/180
f 59/6/181 55/32/181 56/1/181
f 61/2/182 62/37/182 53/33/182
f 15/35/183 62/42/183 63/37/183
f 1/20/184 16/37/184 63/19/184
f 59/32/185 10/42/185 1/18/185
f 19/9/186 10/42/186 59/6/186
f 20/42/187 19/10/187 70/42/187
f 62/35/188 15/38/188 4/42/188
f 58/28/189 53/42/189 4/43/189
f 58/42/190 9/21/190 17/42/190
f 67/42/191 17/8/191 18/42/191
f 49/39/192 68/42/192 18/7/192
f 73/26/64 20/26/64 3/24/64
f 3/26/193 20/42/193 69/41/193
f 78/44/194 77/18/194 84/42/194
f 80/38/67 81/42/67 84/36/67
f 85/42/68 83/8/68 75/45/68
f 85/42/67 76/22/67 80/42/67
f 86/42/67 80/42/67 79/42/67
f 73/24/195 82/42/195 88/42/195
f 87/42/67 79/11/67 74/42/67
f 46/7/70 38/42/70 89/42/70
f 41/21/70 45/42/70 89/42/70
f 37/20/196 44/35/196 43/38/196
f 37/42/70 40/43/70 41/42/70
f 42/42/70 41/42/70 90/42/70
f 92/42/70 39/26/70 48/40/70
f 47/9/70 42/42/70 91/42/70
f 93/47/197 96/85/197 129/48/197
f 106/50/198 104/81/198 121/51/198
f 115/53/199 138/57/199 139/54/199
f 112/56/200 131/59/200 138/57/200
f 112/56/76 111/89/76 130/58/76
f 117/60/77 120/76/77 123/61/77
f 97/63/201 94/86/201 125/64/201
f 102/66/202 108/90/202 119/67/202
f 114/69/203 113/82/203 134/70/203
f 99/72/204 98/87/204 133/73/204
f 107/75/205 105/91/205 123/61/205
f 118/68/206 119/67/206 120/76/206
f 103/77/207 101/92/207 117/60/207
f 95/78/208 100/88/208 137/79/208
f 116/55/209 113/82/209 104/81/209
f 116/55/210 139/54/210 134/70/210
f 114/69/211 135/71/211 126/83/211
f 96/85/212 95/78/212 132/80/212
f 128/49/213 125/64/213 94/86/213
f 98/87/214 97/63/214 136/65/214
f 140/74/215 137/79/215 100/88/215
f 111/89/216 112/56/216 107/75/216
f 106/50/217 124/52/217 123/61/217
f 113/82/218 114/69/218 103/77/218
f 102/66/219 118/68/219 117/60/219
f 110/93/220 127/94/220 130/58/220
f 122/62/83 123/61/83 124/52/83
f 131/59/221 130/58/221 129/48/221
f 138/57/222 137/79/222 140/74/222
f 135/71/223 134/70/223 133/73/223
f 126/83/224 125/64/224 128/49/224
f 127/94/225 128/49/225 129/48/225
f 135/71/226 136/65/226 125/64/226
f 131/59/227 132/80/227 137/79/227
f 139/54/228 140/74/228 133/73/228
f 109/84/229 126/83/229 127/94/229
f 110/93/230 111/89/230 108/90/230
f 112/56/231 115/53/231 105/91/231
f 114/69/232 109/84/232 101/92/232
f 108/90/233 107/75/233 120/76/233
f 106/50/234 105/91/234 115/53/234
f 104/81/235 103/77/235 122/62/235
f 102/66/236 101/92/236 109/84/236
f 141/95/197 144/133/197 177/96/197
f 154/98/198 152/129/198 169/99/198
f 163/101/199 186/105/199 187/102/199
f 160/104/200 179/107/200 186/105/200
f 160/104/237 159/137/237 178/106/237
f 165/108/77 168/124/77 171/109/77
f 145/111/238 142/134/238 173/112/238
f 150/114/239 156/138/239 167/115/239
f 162/117/240 161/130/240 182/118/240
f 147/120/241 146/135/241 181/121/241
f 155/123/242 153/139/242 171/109/242
f 166/116/206 167/115/206 168/124/206
f 151/125/243 149/140/243 165/108/243
f 143/126/244 148/136/244 185/127/244
f 164/103/209 161/130/209 152/129/209
f 164/103/210 187/102/210 182/118/210
f 162/117/211 183/119/211 174/131/211
f 144/133/245 143/126/245 180/128/245
f 176/97/213 173/112/213 142/134/213
f 146/135/214 145/111/214 184/113/214
f 188/122/246 185/127/246 148/136/246
f 159/137/216 160/104/216 155/123/216
f 154/98/247 172/100/247 171/109/247
f 161/130/248 162/117/248 151/125/248
f 150/114/249 166/116/249 165/108/249
f 158/141/250 175/142/250 178/106/250
f 170/110/251 171/109/251 172/100/251
f 179/107/252 178/106/252 177/96/252
f 186/105/253 185/127/253 188/122/253
f 183/119/254 182/118/254 181/121/254
f 174/131/255 173/112/255 176/97/255
f 175/142/256 176/97/256 177/96/256
f 183/119/257 184/113/257 173/112/257
f 179/107/258 180/128/258 185/127/258
f 187/102/228 188/122/228 181/121/228
f 157/132/259 174/131/259 175/142/259
f 158/141/230 159/137/230 156/138/230
f 160/104/260 163/101/260 153/139/260
f 162/117/261 157/132/261 149/140/261
f 156/138/262 155/123/262 168/124/262
f 154/98/234 153/139/234 163/101/234
f 152/129/235 151/125/235 170/110/235
f 150/114/263 149/140/263 157/132/263
