# Blender 3.6.23
# www.blender.org
o sol.028
v 1.996917 0.765049 -3.259006
v 1.996917 1.903708 -3.259006
v -0.203148 0.765049 -3.259006
v -0.203148 1.903708 -3.259006
v 2.044236 0.733757 -3.259006
v 2.044236 1.934999 -3.259006
v -0.250467 0.733757 -3.259006
v -0.250467 1.934999 -3.259006
v 2.044236 0.733757 -3.243999
v 2.044236 1.934999 -3.243999
v -0.250467 0.733757 -3.243999
v -0.250467 1.934999 -3.243999
v 1.996917 0.765049 -3.246517
v 1.999828 0.763124 -3.243999
v 1.996917 1.903708 -3.246517
v 1.999828 1.905632 -3.243999
v -0.203148 0.765049 -3.246517
v -0.205249 0.763660 -3.243999
v -0.203148 1.903708 -3.246517
v -0.205249 1.905097 -3.243999
v 0.546583 0.708654 -3.228354
v -0.020529 0.708654 -3.228354
v 0.546578 0.713644 -3.228354
v -0.020519 0.713246 -3.228354
v -0.020529 0.708654 -3.175245
v 0.546583 0.708654 -3.175245
v 0.546578 0.713644 -3.183025
v -0.020519 0.713246 -3.183025
v 0.546563 0.735689 -3.183025
v -0.020534 0.735289 -3.183025
v -0.020534 0.735289 -3.175245
v 0.546563 0.735689 -3.175245
v -0.276400 0.708654 -3.280294
v -0.276400 1.960105 -3.280294
v 2.070168 1.960105 -3.280294
v 2.070168 0.708654 -3.280294
v -0.250467 0.734586 -3.254290
v 2.044236 0.734586 -3.254290
v 2.044236 1.934170 -3.254290
v -0.250467 1.934170 -3.254290
v 2.070168 0.708654 -3.228354
v 0.546583 0.708654 -3.228354
v -0.020529 0.708654 -3.228354
v -0.276400 0.708654 -3.228354
v 2.070168 1.960105 -3.228354
v -0.276400 1.960105 -3.228354
v 2.048819 0.730004 -3.228354
v 0.546578 0.713644 -3.228354
v 0.546575 0.730004 -3.228354
v 2.048819 1.938755 -3.228354
v -0.255052 1.938755 -3.228354
v -0.255052 0.730004 -3.228354
v 0.546573 0.734586 -3.232939
v 2.044236 0.734586 -3.232939
v -0.020509 0.734586 -3.232939
v -0.250467 0.734586 -3.232939
v 2.044236 1.934170 -3.232939
v -0.250467 1.934170 -3.232939
v -0.020519 0.713246 -3.228354
v -0.020509 0.730004 -3.228354
v 2.044236 0.734586 -3.259006
v 2.044236 1.934170 -3.259006
v -0.250467 0.734586 -3.259006
v -0.250467 1.934170 -3.259006
v -0.268118 1.951823 -3.228354
v 2.061886 1.951823 -3.228354
v 2.061886 0.716936 -3.228354
v -0.268118 0.716936 -3.228354
vn -0.0000 -0.0000 -1.0000
vn -1.0000 -0.0000 -0.0000
vn 1.0000 -0.0000 -0.0000
vn -0.0000 1.0000 -0.0000
vn -0.0000 -0.0000 1.0000
vn -0.6543 -0.0000 0.7562
vn 0.7679 -0.0000 0.6406
vn -0.0007 1.0000 -0.0000
vn -1.0000 -0.0007 -0.0000
vn 1.0000 0.0010 -0.0000
vn 1.0000 0.0007 -0.0002
vn -0.0000 -1.0000 -0.0000
vn -1.0000 0.0022 -0.0000
vn -0.0000 0.7073 0.7069
vn -0.7073 -0.0000 0.7069
vn -0.0000 -0.7071 0.7071
vn 0.7072 -0.0000 0.7070
vn 0.0002 0.7946 0.6071
vn 0.0002 -0.7946 0.6072
vn -0.6543 -0.0000 0.7563
vn 0.7679 -0.0000 0.6405
vn -1.0000 -0.0002 -0.0014
vn 1.0000 0.0007 -0.0000
vn -0.0000 -0.7072 0.7071
vn 0.7071 -0.0000 0.7071
vn -0.0000 0.8756 0.4830
vn -0.0000 -0.8756 0.4830
vt 0.501015 -1.037409
vt 0.542834 1.345718
vt 0.501231 1.295659
vt 0.440091 1.140169
vt 0.505059 -0.466183
vt 0.505061 1.097206
vt 0.631346 -0.477689
vt 0.696573 1.130229
vt 0.631535 1.087232
vt 0.349546 -1.003156
vt 0.307969 1.391626
vt 0.307969 -1.053199
vt 0.604223 1.087058
vt 0.532347 1.097062
vt 0.460297 -1.037088
vt 0.473683 1.379104
vt 0.431576 -1.041438
vt 0.474389 -1.105560
vt 0.559831 -0.477966
vt 0.622122 1.140056
vt 0.559666 1.098745
vt 0.576483 1.100446
vt 0.604033 -0.477863
vt 0.532346 -0.466327
vt 0.515022 1.141089
vt 0.576484 -0.480765
vt 1.364156 3.276417
vt 1.325247 2.413943
vt 1.398039 2.461934
vt 1.300477 3.301450
vt 1.261926 3.277918
vt 1.274426 3.273365
vt 1.262519 2.434624
vt 1.282050 2.434639
vt 1.402238 2.455850
vt 1.320051 2.397162
vt 1.276466 2.424161
vt 1.143340 2.434595
vt 1.222317 3.277911
vt 1.143341 3.277911
vt 1.366255 3.281422
vt 0.033339 -2.093606
vt 0.106167 -2.092056
vt 0.038141 -1.584611
vt -0.603232 -1.405795
vt -0.600277 0.421476
vt -0.604564 0.425196
vt 0.099270 2.315092
vt 0.028918 2.314594
vt 0.037214 -0.825886
vt -0.417187 2.723314
vt -0.501392 0.774489
vt -0.412631 0.774356
vt 0.680378 2.533855
vt 0.609042 -1.983737
vt 0.680408 -1.983737
vt -0.751101 -1.476694
vt -0.669721 0.488767
vt -0.759231 0.488736
vt 0.609022 2.533855
vt 0.597570 -1.972296
vt -0.567995 2.660378
vt -0.571151 0.843270
vt -0.566959 0.839541
vt -0.518969 2.709203
vt -0.538578 0.811551
vt -0.515981 0.789035
vt 0.597419 2.521997
vt 0.579438 -1.954203
vt -0.649479 -1.460443
vt -0.632720 0.452412
vt -0.655268 0.474624
vt 0.002980 -0.825155
vt -0.023165 -2.046171
vt 0.003318 -1.581844
vt -0.007638 -2.059552
vt -0.550194 2.677923
vt -0.548499 0.821422
vt 0.571445 2.495466
vt 0.557286 -1.931846
vt 0.571761 -1.946533
vt -0.619934 -1.425177
vt -0.622932 0.442967
vt -0.505102 2.723108
vt 0.017200 2.302840
vt 0.031546 -0.825650
vt 0.011142 -1.582730
vt 0.010662 -0.825425
vt 0.556865 2.480397
vt 0.554318 -1.928715
vt -0.023489 2.261771
vt -0.026039 -2.043172
vt -0.628287 -1.436440
vt -0.008891 2.276643
vt -0.662444 -1.476327
vt 0.020615 -2.083220
vt 0.001385 -2.066242
vt 0.032817 -1.583748
vt -0.000939 2.284635
vt 0.418791 1.325424
vt 0.419059 -1.040573
vt 0.376385 1.389520
vt 0.376937 -1.088074
vt 0.390454 1.328107
vt 0.390238 -1.003477
vt 0.431185 1.329976
vt 0.542834 -1.100648
vt 0.440091 -0.509145
vt 0.696374 -0.520702
vt 0.349761 1.328428
vt 0.460513 1.295981
vt 0.622298 -0.519264
vt 0.515022 -0.521408
vt 1.291967 3.313679
vt 1.222316 2.434594
vt -0.599488 -1.402207
vt -0.571791 2.656782
vt -0.540898 2.687228
vt 0.579194 2.503498
vt 0.553813 2.476879
vt -0.026493 2.258395
s 0
f 1/1/1 7/2/1 3/3/1
f 7/4/1 4/5/1 3/6/1
f 2/7/1 5/8/1 1/9/1
f 2/10/1 8/11/1 6/12/1
f 13/13/2 2/7/2 1/9/2
f 4/5/3 17/14/3 3/6/3
f 3/3/4 13/15/4 1/1/4
f 12/16/5 16/17/5 10/18/5
f 20/19/5 11/20/5 18/21/5
f 14/22/6 15/23/6 13/13/6
f 19/24/7 18/21/7 17/14/7
f 9/25/5 16/26/5 14/22/5
f 24/27/8 27/28/8 23/29/8
f 28/30/9 31/31/9 30/32/9
f 30/32/8 32/33/8 29/34/8
f 21/35/10 27/28/10 26/36/10
f 27/28/1 30/32/1 29/34/1
f 27/28/11 32/37/11 26/36/11
f 21/38/12 25/39/12 22/40/12
f 22/41/13 28/30/13 24/27/13
f 25/39/5 32/33/5 31/31/5
f 44/42/12 33/43/12 43/44/12
f 37/45/3 64/46/3 40/47/3
f 36/48/12 41/49/12 42/50/12
f 35/51/3 41/52/3 36/53/3
f 34/54/4 45/55/4 35/56/4
f 33/57/2 46/58/2 34/59/2
f 46/60/5 66/61/5 45/55/5
f 39/62/2 61/63/2 38/64/2
f 66/65/5 47/66/5 67/67/5
f 65/68/5 50/69/5 66/61/5
f 68/70/5 51/71/5 65/72/5
f 53/73/4 37/74/4 55/75/4
f 56/76/4 55/75/4 37/74/4
f 57/77/2 38/64/2 54/78/2
f 58/79/12 39/80/12 57/81/12
f 56/82/3 40/47/3 58/83/3
f 45/84/5 67/67/5 41/52/5
f 42/50/5 67/85/5 48/86/5
f 60/87/5 48/86/5 49/88/5
f 40/89/12 62/90/12 39/80/12
f 38/91/4 63/92/4 37/74/4
f 56/76/14 60/87/14 55/75/14
f 47/66/15 57/77/15 54/78/15
f 50/69/16 58/79/16 57/81/16
f 58/83/17 52/93/17 56/82/17
f 60/87/14 53/73/14 55/75/14
f 49/88/14 54/94/14 53/73/14
f 44/95/5 65/72/5 46/58/5
f 42/50/12 33/43/12 36/48/12
f 43/44/5 68/96/5 44/42/5
f 52/97/5 59/98/5 60/87/5
f 47/99/5 48/86/5 67/85/5
f 53/73/4 54/94/4 38/91/4
f 13/15/18 18/100/18 14/101/18
f 14/101/5 11/102/5 9/103/5
f 19/104/12 2/10/12 15/105/12
f 20/106/19 15/105/19 16/17/19
f 1/1/1 5/107/1 7/2/1
f 7/4/1 8/108/1 4/5/1
f 2/7/1 6/109/1 5/8/1
f 2/10/1 4/110/1 8/11/1
f 13/13/2 15/23/2 2/7/2
f 4/5/3 19/24/3 17/14/3
f 3/3/4 17/111/4 13/15/4
f 12/16/5 20/106/5 16/17/5
f 20/19/5 12/112/5 11/20/5
f 14/22/20 16/26/20 15/23/20
f 19/24/21 20/19/21 18/21/21
f 9/25/5 10/113/5 16/26/5
f 24/27/8 28/30/8 27/28/8
f 28/30/22 25/114/22 31/31/22
f 30/32/8 31/31/8 32/33/8
f 21/35/10 23/29/10 27/28/10
f 27/28/1 28/30/1 30/32/1
f 27/28/23 29/34/23 32/37/23
f 21/38/12 26/115/12 25/39/12
f 22/41/13 25/114/13 28/30/13
f 25/39/5 26/115/5 32/33/5
f 37/45/3 63/116/3 64/46/3
f 35/51/3 45/84/3 41/52/3
f 34/54/4 46/60/4 45/55/4
f 33/57/2 44/95/2 46/58/2
f 46/60/5 65/68/5 66/61/5
f 39/62/2 62/117/2 61/63/2
f 66/65/5 50/118/5 47/66/5
f 65/68/5 51/119/5 50/69/5
f 68/70/5 52/93/5 51/71/5
f 53/73/4 38/91/4 37/74/4
f 57/77/2 39/62/2 38/64/2
f 58/79/12 40/89/12 39/80/12
f 56/82/3 37/45/3 40/47/3
f 45/84/5 66/65/5 67/67/5
f 42/50/5 41/49/5 67/85/5
f 60/87/5 59/98/5 48/86/5
f 40/89/12 64/120/12 62/90/12
f 38/91/4 61/121/4 63/92/4
f 56/76/14 52/97/14 60/87/14
f 47/66/15 50/118/15 57/77/15
f 50/69/24 51/119/24 58/79/24
f 58/83/25 51/71/25 52/93/25
f 60/87/14 49/88/14 53/73/14
f 49/88/14 47/99/14 54/94/14
f 44/95/5 68/70/5 65/72/5
f 42/50/12 43/44/12 33/43/12
f 43/44/5 59/98/5 68/96/5
f 52/97/5 68/96/5 59/98/5
f 47/99/5 49/88/5 48/86/5
f 13/15/26 17/111/26 18/100/26
f 14/101/5 18/100/5 11/102/5
f 19/104/12 4/110/12 2/10/12
f 20/106/27 19/104/27 15/105/27
