# Blender 3.6.23
# www.blender.org
o sol.008
v 2.053732 0.822410 -1.342928
v 2.052469 0.822138 -1.343451
v 2.051399 0.821364 -1.343895
v 2.050683 0.820205 -1.344191
v 2.050432 0.818838 -1.344296
v 2.050683 0.817470 -1.344191
v 2.051399 0.816311 -1.343895
v 2.052469 0.815537 -1.343451
v 2.053732 0.815265 -1.342928
v 2.054996 0.815537 -1.342405
v 2.056066 0.816311 -1.341962
v 2.056782 0.817470 -1.341665
v 2.057033 0.818838 -1.341561
v 2.056782 0.820205 -1.341665
v 2.056066 0.821364 -1.341962
v 2.054996 0.822138 -1.342405
v 2.026550 0.822410 -1.277309
v 2.025246 0.822138 -1.277733
v 2.024092 0.821364 -1.277975
v 2.023298 0.820205 -1.278082
v 2.023014 0.818838 -1.278107
v 2.023298 0.817470 -1.278082
v 2.024092 0.816311 -1.277975
v 2.025246 0.815537 -1.277733
v 2.026550 0.815265 -1.277309
v 2.027772 0.815537 -1.276686
v 2.028759 0.816311 -1.276041
v 2.029397 0.817470 -1.275556
v 2.029615 0.818838 -1.275373
v 2.029397 0.820205 -1.275556
v 2.028759 0.821364 -1.276041
v 2.027772 0.822138 -1.276686
v 2.034461 0.821364 -1.303005
v 2.035532 0.822138 -1.302562
v 2.039844 0.820205 -1.300776
v 2.040095 0.818838 -1.300672
v 2.039844 0.817470 -1.300776
v 2.039128 0.816312 -1.301072
v 2.038057 0.815537 -1.301515
v 2.036794 0.815265 -1.302039
v 2.035532 0.815537 -1.302562
v 2.034461 0.816312 -1.303005
v 2.033745 0.817470 -1.303302
v 2.033494 0.818838 -1.303406
v 2.036794 0.822410 -1.302039
v 2.038057 0.822138 -1.301515
v 2.033745 0.820205 -1.303302
v 2.039128 0.821364 -1.301072
v 2.029564 0.822138 -1.288156
v 2.034127 0.818838 -1.286266
v 2.033161 0.816312 -1.286666
v 2.030827 0.815265 -1.287633
v 2.028493 0.816312 -1.288600
v 2.027526 0.818838 -1.289000
v 2.032090 0.822138 -1.287110
v 2.028493 0.821364 -1.288600
v 2.033876 0.820205 -1.286370
v 2.033876 0.817470 -1.286370
v 2.032090 0.815537 -1.287110
v 2.029564 0.815537 -1.288156
v 2.027778 0.817470 -1.288896
v 2.030827 0.822410 -1.287633
v 2.027778 0.820205 -1.288896
v 2.033161 0.821364 -1.286666
v 2.026598 0.821190 -1.277425
v 2.025745 0.821011 -1.277717
v 2.024990 0.820501 -1.277888
v 2.024466 0.819738 -1.277956
v 2.024286 0.818838 -1.277989
v 2.024466 0.817937 -1.277956
v 2.024990 0.817174 -1.277888
v 2.025745 0.816664 -1.277717
v 2.026598 0.816485 -1.277425
v 2.027408 0.816664 -1.277028
v 2.028063 0.817174 -1.276615
v 2.028481 0.817937 -1.276292
v 2.028632 0.818838 -1.276189
v 2.028481 0.819738 -1.276292
v 2.028063 0.820501 -1.276615
v 2.027408 0.821011 -1.277028
v 2.027655 0.820071 -1.276903
v 2.026613 0.820188 -1.277461
v 2.025482 0.820071 -1.277803
v 2.027738 0.818838 -1.276850
v 2.026613 0.818838 -1.277461
v 2.025386 0.818838 -1.277824
v 2.027655 0.817604 -1.276903
v 2.026613 0.817487 -1.277461
v 2.025482 0.817604 -1.277803
v 2.025426 0.822138 -1.278167
v 2.029806 0.818838 -1.275835
v 2.028945 0.816311 -1.276489
v 2.026727 0.815265 -1.277737
v 2.024277 0.816311 -1.278423
v 2.023206 0.818838 -1.278569
v 2.027952 0.822138 -1.277120
v 2.024277 0.821364 -1.278423
v 2.029586 0.820205 -1.276014
v 2.029586 0.817470 -1.276014
v 2.027952 0.815537 -1.277120
v 2.025426 0.815537 -1.278167
v 2.023488 0.817470 -1.278540
v 2.026727 0.822410 -1.277737
v 2.023488 0.820205 -1.278540
v 2.028945 0.821364 -1.276489
v 2.053732 0.821382 -1.342928
v 2.052833 0.821188 -1.343301
v 2.052070 0.820637 -1.343617
v 2.051561 0.819811 -1.343828
v 2.051382 0.818838 -1.343902
v 2.051561 0.817864 -1.343828
v 2.052070 0.817039 -1.343617
v 2.052833 0.816487 -1.343301
v 2.053732 0.816293 -1.342928
v 2.054632 0.816487 -1.342556
v 2.055395 0.817039 -1.342240
v 2.055904 0.817864 -1.342029
v 2.056083 0.818838 -1.341954
v 2.055904 0.819811 -1.342029
v 2.055395 0.820637 -1.342240
v 2.054632 0.821188 -1.342556
v 2.054908 0.820172 -1.342441
v 2.053732 0.820298 -1.342928
v 2.052557 0.820172 -1.343415
v 2.055005 0.818838 -1.342401
v 2.053732 0.818838 -1.342928
v 2.052460 0.818838 -1.343455
v 2.054908 0.817504 -1.342441
v 2.053732 0.817377 -1.342928
v 2.052557 0.817504 -1.343415
v 2.051238 0.821364 -1.343507
v 2.056621 0.820205 -1.341277
v 2.056621 0.817470 -1.341277
v 2.054835 0.815537 -1.342017
v 2.052309 0.815537 -1.343063
v 2.050522 0.817470 -1.343803
v 2.053572 0.822410 -1.342540
v 2.050522 0.820205 -1.343803
v 2.055905 0.821364 -1.341573
v 2.052309 0.822138 -1.343063
v 2.056872 0.818838 -1.341173
v 2.055905 0.816311 -1.341573
v 2.053572 0.815265 -1.342540
v 2.051238 0.816311 -1.343507
v 2.050271 0.818838 -1.343907
v 2.054835 0.822138 -1.342017
v 2.040381 0.822410 -1.392808
v 2.039040 0.822138 -1.393072
v 2.037903 0.821364 -1.393296
v 2.037143 0.820205 -1.393446
v 2.036876 0.818838 -1.393498
v 2.037143 0.817470 -1.393446
v 2.037903 0.816311 -1.393296
v 2.039040 0.815537 -1.393072
v 2.040381 0.815265 -1.392808
v 2.041723 0.815537 -1.392544
v 2.042860 0.816311 -1.392320
v 2.043620 0.817470 -1.392170
v 2.043886 0.818838 -1.392118
v 2.043620 0.820205 -1.392170
v 2.042860 0.821364 -1.392320
v 2.041723 0.822138 -1.392544
v 2.023274 0.822410 -1.305959
v 2.021933 0.822138 -1.306223
v 2.020796 0.821364 -1.306447
v 2.020036 0.820205 -1.306597
v 2.019769 0.818838 -1.306649
v 2.020036 0.817470 -1.306597
v 2.020796 0.816312 -1.306447
v 2.021933 0.815537 -1.306223
v 2.023274 0.815265 -1.305959
v 2.024616 0.815537 -1.305694
v 2.025753 0.816312 -1.305470
v 2.026512 0.817470 -1.305321
v 2.026779 0.818838 -1.305268
v 2.026512 0.820205 -1.305321
v 2.025753 0.821364 -1.305470
v 2.024616 0.822138 -1.305694
v 2.029349 0.821364 -1.349872
v 2.030487 0.822138 -1.349648
v 2.035066 0.820205 -1.348745
v 2.035333 0.818838 -1.348693
v 2.035066 0.817470 -1.348745
v 2.034306 0.816312 -1.348895
v 2.033169 0.815537 -1.349119
v 2.031828 0.815265 -1.349383
v 2.030487 0.815537 -1.349648
v 2.029349 0.816312 -1.349872
v 2.028589 0.817470 -1.350021
v 2.028323 0.818838 -1.350074
v 2.031828 0.822410 -1.349383
v 2.033169 0.822138 -1.349119
v 2.028589 0.820205 -1.350021
v 2.034306 0.821364 -1.348895
v 2.023274 0.821651 -1.305959
v 2.022218 0.821437 -1.306167
v 2.021322 0.820827 -1.306343
v 2.020724 0.819914 -1.306461
v 2.020514 0.818838 -1.306503
v 2.020724 0.817761 -1.306461
v 2.021322 0.816848 -1.306343
v 2.022218 0.816238 -1.306167
v 2.023274 0.816024 -1.305959
v 2.024331 0.816238 -1.305751
v 2.025226 0.816848 -1.305574
v 2.025825 0.817761 -1.305456
v 2.026035 0.818838 -1.305415
v 2.025825 0.819914 -1.305456
v 2.025226 0.820827 -1.305574
v 2.024331 0.821437 -1.305751
v 2.024655 0.820313 -1.305687
v 2.023274 0.820453 -1.305959
v 2.021894 0.820313 -1.306231
v 2.024768 0.818838 -1.305665
v 2.023274 0.818838 -1.305959
v 2.021780 0.818838 -1.306253
v 2.024655 0.817362 -1.305687
v 2.023274 0.817222 -1.305959
v 2.021894 0.817362 -1.306231
v 2.040381 0.821221 -1.392808
v 2.039487 0.821039 -1.392984
v 2.038728 0.820523 -1.393133
v 2.038221 0.819749 -1.393233
v 2.038043 0.818838 -1.393268
v 2.038221 0.817926 -1.393233
v 2.038728 0.817153 -1.393133
v 2.039487 0.816636 -1.392984
v 2.040381 0.816455 -1.392808
v 2.041276 0.816636 -1.392632
v 2.042035 0.817153 -1.392482
v 2.042542 0.817926 -1.392382
v 2.042719 0.818838 -1.392347
v 2.042542 0.819749 -1.392382
v 2.042035 0.820523 -1.392482
v 2.041276 0.821039 -1.392632
v 2.041550 0.820087 -1.392578
v 2.040381 0.820205 -1.392808
v 2.039212 0.820087 -1.393038
v 2.041647 0.818838 -1.392559
v 2.040381 0.818838 -1.392808
v 2.039116 0.818838 -1.393057
v 2.041550 0.817588 -1.392578
v 2.040381 0.817470 -1.392808
v 2.039212 0.817588 -1.393038
v 2.022024 0.822138 -1.306685
v 2.026870 0.818838 -1.305731
v 2.025844 0.816312 -1.305933
v 2.023365 0.815265 -1.306421
v 2.020887 0.816312 -1.306909
v 2.019860 0.818838 -1.307112
v 2.024707 0.822138 -1.306157
v 2.020887 0.821364 -1.306909
v 2.026604 0.820205 -1.305783
v 2.026604 0.817470 -1.305783
v 2.024707 0.815537 -1.306157
v 2.022024 0.815537 -1.306685
v 2.020127 0.817470 -1.307059
v 2.023365 0.822410 -1.306421
v 2.020127 0.820205 -1.307059
v 2.025844 0.821364 -1.305933
v 2.037746 0.821364 -1.392497
v 2.043462 0.820205 -1.391371
v 2.043462 0.817470 -1.391371
v 2.041565 0.815537 -1.391745
v 2.038883 0.815537 -1.392274
v 2.036986 0.817470 -1.392647
v 2.040224 0.822410 -1.392009
v 2.036986 0.820205 -1.392647
v 2.042703 0.821364 -1.391521
v 2.038883 0.822138 -1.392274
v 2.043729 0.818838 -1.391319
v 2.042703 0.816311 -1.391521
v 2.040224 0.815265 -1.392009
v 2.037746 0.816311 -1.392497
v 2.036719 0.818838 -1.392700
v 2.041565 0.822138 -1.391745
v 2.026200 0.822410 -1.370338
v 2.024902 0.822138 -1.370767
v 2.023801 0.821364 -1.371130
v 2.023066 0.820205 -1.371372
v 2.022808 0.818838 -1.371457
v 2.023066 0.817470 -1.371372
v 2.023801 0.816311 -1.371130
v 2.024902 0.815537 -1.370767
v 2.026200 0.815265 -1.370338
v 2.027498 0.815537 -1.369910
v 2.028599 0.816311 -1.369547
v 2.029335 0.817470 -1.369304
v 2.029593 0.818838 -1.369219
v 2.029335 0.820205 -1.369304
v 2.028599 0.821364 -1.369547
v 2.027498 0.822138 -1.369910
v 1.998466 0.822410 -1.286277
v 1.997168 0.822138 -1.286706
v 1.996067 0.821364 -1.287069
v 1.995332 0.820205 -1.287311
v 1.995073 0.818838 -1.287397
v 1.995332 0.817470 -1.287311
v 1.996067 0.816312 -1.287069
v 1.997168 0.815537 -1.286706
v 1.998466 0.815265 -1.286277
v 1.999764 0.815537 -1.285849
v 2.000865 0.816312 -1.285486
v 2.001600 0.817470 -1.285243
v 2.001858 0.818838 -1.285158
v 2.001600 0.820205 -1.285243
v 2.000865 0.821364 -1.285486
v 1.999764 0.822138 -1.285849
v 2.009934 0.821364 -1.329099
v 2.011035 0.822138 -1.328736
v 2.015467 0.820205 -1.327274
v 2.015726 0.818838 -1.327188
v 2.015467 0.817470 -1.327274
v 2.014732 0.816312 -1.327516
v 2.013631 0.815537 -1.327879
v 2.012333 0.815265 -1.328308
v 2.011035 0.815537 -1.328736
v 2.009934 0.816312 -1.329099
v 2.009199 0.817470 -1.329342
v 2.008940 0.818838 -1.329427
v 2.012333 0.822410 -1.328308
v 2.013631 0.822138 -1.327879
v 2.009199 0.820205 -1.329342
v 2.014732 0.821364 -1.327516
v 1.998466 0.821651 -1.286277
v 1.997443 0.821437 -1.286615
v 1.996577 0.820827 -1.286901
v 1.995997 0.819914 -1.287092
v 1.995794 0.818838 -1.287159
v 1.995997 0.817761 -1.287092
v 1.996577 0.816848 -1.286901
v 1.997443 0.816238 -1.286615
v 1.998466 0.816024 -1.286277
v 1.999488 0.816238 -1.285940
v 2.000355 0.816848 -1.285654
v 2.000935 0.817761 -1.285463
v 2.001138 0.818838 -1.285396
v 2.000935 0.819914 -1.285463
v 2.000355 0.820827 -1.285654
v 1.999488 0.821437 -1.285940
v 1.999802 0.820313 -1.285836
v 1.998466 0.820453 -1.286277
v 1.997130 0.820313 -1.286718
v 1.999912 0.818838 -1.285800
v 1.998466 0.818838 -1.286277
v 1.997020 0.818838 -1.286754
v 1.999802 0.817362 -1.285836
v 1.998466 0.817222 -1.286277
v 1.997130 0.817362 -1.286718
v 2.026200 0.821221 -1.370338
v 2.025334 0.821039 -1.370624
v 2.024600 0.820523 -1.370866
v 2.024110 0.819749 -1.371028
v 2.023937 0.818838 -1.371085
v 2.024110 0.817926 -1.371028
v 2.024600 0.817153 -1.370866
v 2.025334 0.816636 -1.370624
v 2.026200 0.816455 -1.370338
v 2.027066 0.816636 -1.370052
v 2.027800 0.817153 -1.369810
v 2.028291 0.817926 -1.369648
v 2.028463 0.818838 -1.369592
v 2.028291 0.819749 -1.369648
v 2.027800 0.820523 -1.369810
v 2.027066 0.821039 -1.370052
v 2.027332 0.820087 -1.369965
v 2.026200 0.820205 -1.370338
v 2.025069 0.820087 -1.370711
v 2.027425 0.818838 -1.369934
v 2.026200 0.818838 -1.370338
v 2.024975 0.818838 -1.370742
v 2.027332 0.817588 -1.369965
v 2.026200 0.817470 -1.370338
v 2.025069 0.817588 -1.370711
v 1.997315 0.822138 -1.287153
v 2.002006 0.818838 -1.285606
v 2.001012 0.816312 -1.285933
v 1.998613 0.815265 -1.286725
v 1.996215 0.816312 -1.287516
v 1.995221 0.818838 -1.287844
v 1.999912 0.822138 -1.286297
v 1.996215 0.821364 -1.287516
v 2.001748 0.820205 -1.285691
v 2.001748 0.817470 -1.285691
v 1.999912 0.815537 -1.286297
v 1.997315 0.815537 -1.287153
v 1.995479 0.817470 -1.287759
v 1.998613 0.822410 -1.286725
v 1.995479 0.820205 -1.287759
v 2.001012 0.821364 -1.285933
v 2.023546 0.821364 -1.370357
v 2.029079 0.820205 -1.368531
v 2.029079 0.817470 -1.368531
v 2.027243 0.815537 -1.369137
v 2.024647 0.815537 -1.369993
v 2.022811 0.817470 -1.370599
v 2.025945 0.822410 -1.369565
v 2.022811 0.820205 -1.370599
v 2.028344 0.821364 -1.368774
v 2.024647 0.822138 -1.369993
v 2.029338 0.818838 -1.368446
v 2.028344 0.816311 -1.368774
v 2.025945 0.815265 -1.369565
v 2.023546 0.816311 -1.370357
v 2.022553 0.818838 -1.370684
v 2.027243 0.822138 -1.369137
vn -0.6533 0.7071 -0.2706
vn -0.4591 0.6838 0.5672
vn -0.3535 0.9239 -0.1465
vn 0.2449 0.3107 0.9184
vn 0.9238 -0.0000 0.3828
vn 0.8536 0.3826 0.3536
vn 0.8536 -0.3826 0.3536
vn 0.1029 -0.5499 0.8289
vn 0.6533 -0.7071 0.2707
vn 0.3536 -0.9238 0.1465
vn -0.2613 -0.7307 0.6308
vn -0.0000 -1.0000 -0.0000
vn -0.4591 -0.6837 0.5672
vn -0.6533 -0.7071 -0.2705
vn -0.3536 -0.9239 -0.1464
vn -0.8225 -0.3107 0.4764
vn -0.9239 -0.0000 -0.3826
vn -0.8536 -0.3826 -0.3535
vn -0.2612 0.7307 0.6308
vn 0.3536 0.9238 0.1465
vn -0.0000 1.0000 -0.0000
vn -0.8536 0.3826 -0.3535
vn -0.6590 0.5498 0.5132
vn 0.1029 0.5499 0.8288
vn 0.6533 0.7071 0.2707
vn 0.2449 -0.3107 0.9184
vn -0.0764 -0.6837 0.7258
vn -0.6590 -0.5498 0.5133
vn -0.8225 0.3108 0.4764
vn -0.0764 0.6837 0.7258
vn -0.5884 0.0253 0.8082
vn -0.5029 0.0596 0.8623
vn 0.7423 -0.5276 -0.4131
vn 0.3827 -0.0000 -0.9239
vn 0.8917 -0.2856 -0.3511
vn 0.3536 0.9239 0.1464
vn 0.6532 0.7071 0.2706
vn -0.9238 -0.0000 -0.3828
vn -0.8535 0.3827 -0.3536
vn -0.8535 0.3828 -0.3536
vn -0.6532 -0.7072 -0.2705
vn -0.8535 -0.3827 -0.3536
vn -0.8535 -0.3828 -0.3536
vn -0.3536 -0.9239 -0.1465
vn -0.3535 -0.9239 -0.1464
vn 0.6532 -0.7072 0.2706
vn 0.3536 -0.9239 0.1464
vn 0.9239 -0.0000 0.3827
vn 0.8535 -0.3827 0.3536
vn -0.0000 1.0000 0.0001
vn 0.8535 0.3827 0.3536
vn -0.6532 0.7072 -0.2705
vn -0.3536 0.9239 -0.1465
vn 0.3536 0.9239 0.1465
vn 0.3535 0.9239 0.1464
vn -0.9239 -0.0000 -0.3827
vn -0.8536 0.3826 -0.3536
vn -0.6532 -0.7071 -0.2706
vn -0.6533 -0.7071 -0.2706
vn 0.3535 -0.9239 0.1464
vn -0.9239 -0.0001 -0.3827
vn 0.8535 -0.3828 0.3535
vn -0.2540 0.0596 0.9654
vn -0.1284 0.0080 0.9917
vn -0.1224 -0.0000 0.9925
vn -0.1284 -0.0080 0.9917
vn -0.5884 -0.0253 0.8082
vn -0.1555 -0.0253 0.9875
vn -0.2540 -0.0596 0.9654
vn -0.6152 -0.0000 0.7883
vn 0.2930 -0.0000 0.9561
vn -0.6104 0.0080 0.7920
vn -0.3817 0.0745 0.9213
vn -0.1555 0.0253 0.9875
vn -0.8832 -0.0000 0.4690
vn -0.5029 -0.0596 0.8623
vn -0.6104 -0.0080 0.7920
vn -0.3816 -0.0745 0.9213
vn -0.5308 -0.0046 0.8475
vn -0.5406 -0.0000 0.8413
vn -0.5308 0.0046 0.8475
vn -0.3826 -0.0120 0.9238
vn -0.3827 -0.0000 0.9239
vn -0.3826 0.0120 0.9238
vn -0.2238 -0.0046 0.9746
vn -0.2238 0.0046 0.9746
vn -0.2127 -0.0000 0.9771
vn 0.3536 -0.9239 0.1465
vn 0.5187 -0.6893 -0.5058
vn -0.2328 -0.5277 -0.8169
vn -0.0090 -0.6895 -0.7242
vn -0.4345 -0.0000 -0.9006
vn -0.3820 -0.2856 -0.8789
vn 0.5187 0.6893 -0.5058
vn 0.2549 0.7463 -0.6149
vn -0.3820 0.2856 -0.8789
vn 0.3827 -0.0001 -0.9239
vn 0.8917 0.2856 -0.3512
vn 0.3827 0.0001 -0.9239
vn 0.7422 0.5277 -0.4131
vn -0.0090 0.6894 -0.7243
vn 0.3828 -0.0000 -0.9238
vn 0.9442 -0.0000 -0.3294
vn 0.3826 -0.0001 -0.9239
vn 0.2548 -0.7462 -0.6151
vn 0.3826 0.0001 -0.9239
vn -0.2327 0.5277 -0.8169
vn 0.3826 -0.0000 -0.9239
vn 0.3828 -0.0000 -0.9239
vn -0.6939 0.7070 -0.1367
vn -0.4089 0.6894 0.5979
vn -0.3755 0.9239 -0.0740
vn 0.5477 0.2855 0.7865
vn 0.9812 -0.0000 0.1932
vn 0.9065 0.3826 0.1786
vn 0.5476 -0.2856 0.7865
vn 0.6938 -0.7071 0.1367
vn 0.9064 -0.3827 0.1786
vn 0.3754 -0.9239 0.0739
vn -0.1287 -0.7462 0.6531
vn -0.0001 -1.0000 -0.0000
vn -0.4088 -0.6894 0.5980
vn -0.6938 -0.7071 -0.1367
vn -0.3755 -0.9239 -0.0740
vn -0.9064 -0.3827 -0.1786
vn -0.8608 -0.0001 0.5090
vn -0.9812 -0.0000 -0.1932
vn -0.1286 0.7462 0.6532
vn 0.3754 0.9239 0.0739
vn -0.9064 0.3827 -0.1787
vn -0.6464 0.5276 0.5512
vn 0.3891 0.5276 0.7551
vn 0.6938 0.7071 0.1366
vn 0.3892 -0.5276 0.7551
vn -0.6464 -0.5277 0.5511
vn -0.8050 0.2857 0.5199
vn 0.3755 0.9239 0.0739
vn 0.6938 0.7071 0.1367
vn 0.3754 0.9239 0.0740
vn -0.9811 -0.0000 -0.1933
vn -0.9065 0.3827 -0.1785
vn -0.6937 -0.7071 -0.1366
vn -0.9065 -0.3827 -0.1785
vn -0.6937 -0.7072 -0.1366
vn -0.3754 -0.9239 -0.0740
vn 0.3755 -0.9239 0.0740
vn 0.9811 -0.0000 0.1933
vn 0.9065 -0.3827 0.1785
vn 0.9065 -0.3826 0.1786
vn -0.3754 0.9239 -0.0740
vn -0.3755 0.9239 -0.0739
vn 0.9065 0.3827 0.1786
vn -0.6938 0.7071 -0.1367
vn -0.6937 0.7071 -0.1366
vn -0.1933 -0.0000 0.9811
vn -0.1932 -0.0000 0.9812
vn -0.1934 -0.0000 0.9811
vn 0.1514 0.6894 0.7084
vn -0.1934 -0.0001 0.9811
vn -0.8051 -0.2857 0.5199
vn 0.1514 -0.6894 0.7083
vn -0.1931 -0.0000 0.9812
vn 0.6035 -0.0000 0.7974
vn -0.1934 0.0001 0.9811
vn 0.8051 -0.2855 -0.5199
vn 0.1932 -0.0000 -0.9812
vn 0.1287 -0.7462 -0.6532
vn 0.1933 -0.0000 -0.9811
vn 0.4088 -0.6894 -0.5980
vn -0.1516 -0.6894 -0.7084
vn -0.5478 -0.2855 -0.7864
vn 0.1933 -0.0001 -0.9811
vn 0.1286 0.7462 -0.6532
vn 0.1934 -0.0000 -0.9811
vn -0.3891 0.5277 -0.7551
vn 0.1933 0.0001 -0.9811
vn -0.5478 0.2855 -0.7864
vn 0.8051 0.2856 -0.5199
vn 0.6464 0.5276 -0.5512
vn -0.1516 0.6894 -0.7083
vn 0.8608 -0.0000 -0.5089
vn 0.6463 -0.5276 -0.5512
vn 0.1935 -0.0000 -0.9811
vn -0.3891 -0.5277 -0.7551
vn -0.6034 -0.0000 -0.7974
vn 0.4088 0.6894 -0.5980
vn -0.9064 0.3827 -0.1786
vn -0.9064 -0.3828 -0.1785
vn 0.6937 -0.7071 0.1366
vn -0.7096 0.5276 0.4669
vn -0.3634 0.9239 -0.1199
vn -0.6715 0.7071 -0.2215
vn 0.4461 0.2856 0.8482
vn 0.9497 -0.0000 0.3133
vn 0.8774 0.3827 0.2895
vn 0.4461 -0.2856 0.8482
vn 0.6715 -0.7071 0.2216
vn 0.8774 -0.3827 0.2894
vn 0.3634 -0.9239 0.1199
vn -0.2085 -0.7462 0.6322
vn -0.3634 -0.9239 -0.1199
vn -0.7096 -0.5276 0.4670
vn -0.6715 -0.7071 -0.2215
vn -0.8774 -0.3827 -0.2895
vn -0.9172 -0.0000 0.3983
vn -0.9497 -0.0000 -0.3133
vn -0.2086 0.7462 0.6322
vn 0.3634 0.9239 0.1199
vn -0.0000 1.0000 -0.0001
vn -0.8632 0.2856 0.4163
vn -0.8774 0.3827 -0.2895
vn 0.2925 0.5276 0.7975
vn 0.6716 0.7070 0.2216
vn -0.4798 0.6894 0.5427
vn 0.0626 -0.6894 0.7217
vn -0.4798 -0.6894 0.5427
vn -0.8632 -0.2856 0.4162
vn 0.0626 0.6894 0.7217
vn 0.3633 0.9239 0.1199
vn 0.6715 0.7071 0.2216
vn 0.6714 0.7072 0.2215
vn -0.8774 0.3826 -0.2895
vn -0.8774 0.3827 -0.2894
vn -0.8774 -0.3826 -0.2894
vn 0.6716 -0.7070 0.2216
vn 0.3633 -0.9239 0.1199
vn 0.9496 -0.0001 0.3133
vn 0.8774 -0.3826 0.2895
vn -0.3635 0.9239 -0.1199
vn -0.6715 0.7071 -0.2216
vn 0.3635 -0.9239 0.1199
vn -0.3133 -0.0000 0.9497
vn -0.3132 -0.0000 0.9497
vn -0.3133 -0.0000 0.9496
vn -0.3134 -0.0000 0.9496
vn -0.3133 -0.0001 0.9496
vn 0.2925 -0.5277 0.7975
vn 0.5001 -0.0000 0.8659
vn -0.3133 0.0001 0.9497
vn 0.7097 -0.5276 -0.4669
vn 0.3134 -0.0000 -0.9496
vn 0.8633 -0.2856 -0.4162
vn 0.4797 -0.6895 -0.5427
vn 0.3132 -0.0000 -0.9497
vn 0.3133 -0.0000 -0.9497
vn -0.2925 -0.5277 -0.7975
vn 0.3133 -0.0000 -0.9496
vn -0.0626 -0.6894 -0.7217
vn -0.4462 -0.2855 -0.8482
vn 0.4797 0.6895 -0.5427
vn 0.2087 0.7462 -0.6322
vn -0.4461 0.2855 -0.8482
vn 0.8633 0.2856 -0.4162
vn 0.3133 -0.0001 -0.9496
vn 0.7096 0.5276 -0.4669
vn -0.0626 0.6894 -0.7217
vn 0.9172 -0.0000 -0.3984
vn 0.2086 -0.7462 -0.6322
vn -0.5000 -0.0000 -0.8660
vn -0.2925 0.5277 -0.7975
vn -0.9496 -0.0000 -0.3133
vt 0.000000 0.000000
s 1
f 97/1/1 18/1/2 90/1/3
f 30/1/4 91/1/5 98/1/6
f 99/1/7 27/1/8 92/1/9
f 100/1/10 25/1/11 93/1/12
f 24/1/13 94/1/14 101/1/15
f 22/1/16 95/1/17 102/1/18
f 17/1/19 96/1/20 103/1/21
f 104/1/22 19/1/23 97/1/1
f 31/1/24 98/1/6 105/1/25
f 90/1/3 17/1/19 103/1/21
f 91/1/5 28/1/26 99/1/7
f 92/1/9 26/1/27 100/1/10
f 25/1/11 101/1/15 93/1/12
f 23/1/28 102/1/18 94/1/14
f 95/1/17 20/1/29 104/1/22
f 32/1/30 105/1/25 96/1/20
f 26/1/27 75/1/31 74/1/32
f 11/1/33 117/1/34 12/1/35
f 146/1/36 48/1/37 139/1/37
f 145/1/38 47/1/39 138/1/40
f 144/1/41 43/1/42 136/1/43
f 143/1/12 41/1/44 135/1/45
f 38/1/46 134/1/47 142/1/9
f 36/1/48 133/1/49 141/1/5
f 140/1/3 45/1/21 137/1/50
f 48/1/37 132/1/51 139/1/37
f 47/1/39 131/1/52 138/1/40
f 45/1/21 146/1/36 137/1/50
f 43/1/42 145/1/38 136/1/43
f 41/1/44 144/1/41 135/1/45
f 134/1/47 40/1/12 143/1/12
f 37/1/49 142/1/9 133/1/49
f 132/1/51 36/1/48 141/1/5
f 131/1/52 34/1/53 140/1/3
f 55/1/54 48/1/37 46/1/55
f 44/1/56 63/1/57 47/1/39
f 53/1/58 43/1/42 42/1/59
f 52/1/12 41/1/44 40/1/12
f 51/1/46 39/1/60 38/1/46
f 50/1/48 37/1/49 36/1/48
f 49/1/3 45/1/21 34/1/53
f 48/1/37 57/1/51 35/1/51
f 47/1/39 56/1/1 33/1/1
f 62/1/21 46/1/55 45/1/21
f 43/1/42 54/1/61 44/1/56
f 60/1/45 42/1/59 41/1/44
f 39/1/60 52/1/12 40/1/12
f 58/1/62 38/1/46 37/1/49
f 35/1/51 50/1/48 36/1/48
f 33/1/1 49/1/3 34/1/53
f 25/1/11 72/1/63 24/1/13
f 23/1/28 70/1/64 22/1/16
f 20/1/29 69/1/65 68/1/66
f 32/1/30 79/1/67 31/1/24
f 18/1/2 67/1/68 66/1/69
f 30/1/4 77/1/70 29/1/71
f 27/1/8 76/1/72 75/1/31
f 25/1/11 74/1/32 73/1/73
f 24/1/13 71/1/74 23/1/28
f 22/1/16 69/1/65 21/1/75
f 17/1/19 80/1/76 32/1/30
f 19/1/23 68/1/66 67/1/68
f 31/1/24 78/1/77 30/1/4
f 17/1/19 66/1/69 65/1/78
f 28/1/26 77/1/70 76/1/72
f 81/1/79 79/1/67 80/1/76
f 84/1/80 78/1/77 81/1/79
f 84/1/80 76/1/72 77/1/70
f 87/1/81 75/1/31 76/1/72
f 82/1/82 80/1/76 65/1/78
f 85/1/83 81/1/79 82/1/82
f 85/1/83 87/1/81 84/1/80
f 88/1/84 74/1/32 87/1/81
f 66/1/69 82/1/82 65/1/78
f 83/1/85 85/1/83 82/1/82
f 89/1/86 85/1/83 86/1/87
f 72/1/63 88/1/84 89/1/86
f 67/1/68 83/1/85 66/1/69
f 68/1/66 86/1/87 83/1/85
f 70/1/64 86/1/87 69/1/65
f 71/1/74 89/1/86 70/1/64
f 96/1/20 64/1/37 55/1/54
f 54/1/61 104/1/22 63/1/57
f 94/1/14 61/1/42 53/1/58
f 93/1/12 60/1/45 52/1/12
f 51/1/46 100/1/10 59/1/88
f 50/1/48 99/1/7 58/1/62
f 49/1/3 103/1/21 62/1/21
f 105/1/25 57/1/51 64/1/37
f 63/1/57 97/1/1 56/1/1
f 103/1/21 55/1/54 62/1/21
f 102/1/18 54/1/61 61/1/42
f 101/1/15 53/1/58 60/1/45
f 59/1/88 93/1/12 52/1/12
f 58/1/62 92/1/9 51/1/46
f 98/1/6 50/1/48 57/1/51
f 56/1/1 90/1/3 49/1/3
f 10/1/89 114/1/34 115/1/34
f 7/1/90 113/1/34 8/1/91
f 5/1/92 111/1/34 6/1/93
f 16/1/94 106/1/34 1/1/95
f 4/1/96 108/1/97 109/1/97
f 14/1/98 120/1/99 15/1/100
f 2/1/101 106/1/34 107/1/34
f 12/1/35 118/1/102 13/1/103
f 11/1/33 115/1/34 116/1/104
f 9/1/105 113/1/34 114/1/34
f 7/1/90 111/1/34 112/1/106
f 5/1/92 109/1/97 110/1/34
f 15/1/100 121/1/34 16/1/94
f 3/1/107 107/1/34 108/1/97
f 14/1/98 118/1/102 119/1/34
f 120/1/99 122/1/34 121/1/34
f 119/1/34 125/1/34 122/1/34
f 117/1/34 125/1/34 118/1/102
f 116/1/104 128/1/108 117/1/34
f 121/1/34 123/1/109 106/1/34
f 122/1/34 126/1/34 123/1/109
f 128/1/108 126/1/34 125/1/34
f 115/1/34 129/1/102 128/1/108
f 123/1/109 107/1/34 106/1/34
f 126/1/34 124/1/34 123/1/109
f 126/1/34 130/1/34 127/1/34
f 129/1/102 113/1/34 130/1/34
f 124/1/34 108/1/97 107/1/34
f 127/1/34 109/1/97 124/1/34
f 127/1/34 111/1/34 110/1/34
f 130/1/34 112/1/106 111/1/34
f 131/1/52 2/1/101 3/1/107
f 132/1/51 13/1/103 14/1/98
f 12/1/35 142/1/9 11/1/33
f 134/1/47 9/1/105 10/1/89
f 8/1/91 144/1/41 7/1/90
f 6/1/93 145/1/38 5/1/92
f 137/1/50 16/1/94 1/1/95
f 138/1/40 3/1/107 4/1/96
f 15/1/100 132/1/51 14/1/98
f 2/1/101 137/1/50 1/1/95
f 13/1/103 133/1/49 12/1/35
f 142/1/9 10/1/89 11/1/33
f 143/1/12 8/1/91 9/1/105
f 7/1/90 136/1/43 6/1/93
f 145/1/38 4/1/96 5/1/92
f 16/1/94 139/1/37 15/1/100
f 252/1/110 164/1/111 245/1/112
f 176/1/113 246/1/114 253/1/115
f 174/1/116 247/1/117 254/1/118
f 255/1/119 171/1/120 248/1/121
f 170/1/122 249/1/123 256/1/124
f 257/1/125 167/1/126 250/1/127
f 163/1/128 251/1/129 258/1/21
f 259/1/130 165/1/131 252/1/110
f 177/1/132 253/1/115 260/1/133
f 164/1/111 258/1/21 245/1/112
f 246/1/114 174/1/116 254/1/118
f 173/1/134 255/1/119 247/1/117
f 171/1/120 256/1/124 248/1/121
f 169/1/135 257/1/125 249/1/123
f 250/1/127 166/1/136 259/1/130
f 251/1/129 177/1/132 260/1/133
f 192/1/137 269/1/138 276/1/139
f 190/1/140 268/1/141 275/1/140
f 188/1/142 266/1/143 274/1/144
f 273/1/12 187/1/124 265/1/145
f 272/1/117 185/1/119 264/1/146
f 271/1/147 183/1/148 263/1/149
f 180/1/150 267/1/21 270/1/151
f 194/1/138 262/1/152 269/1/138
f 268/1/141 179/1/153 261/1/154
f 191/1/21 276/1/139 267/1/21
f 266/1/143 190/1/140 275/1/140
f 265/1/145 188/1/142 274/1/144
f 185/1/119 273/1/12 264/1/146
f 183/1/148 272/1/117 263/1/149
f 181/1/115 271/1/147 262/1/152
f 179/1/153 270/1/151 261/1/154
f 176/1/113 209/1/155 208/1/155
f 165/1/131 198/1/156 197/1/157
f 178/1/158 195/1/156 210/1/159
f 168/1/160 199/1/155 167/1/126
f 170/1/122 201/1/155 169/1/135
f 172/1/161 203/1/155 171/1/120
f 173/1/134 206/1/155 205/1/162
f 176/1/113 207/1/155 175/1/163
f 164/1/111 197/1/157 196/1/156
f 178/1/158 209/1/155 177/1/132
f 166/1/136 199/1/155 198/1/156
f 169/1/135 200/1/155 168/1/160
f 171/1/120 202/1/156 170/1/122
f 172/1/161 205/1/162 204/1/164
f 174/1/116 207/1/155 206/1/155
f 164/1/111 195/1/156 163/1/128
f 211/1/155 209/1/155 210/1/159
f 214/1/155 208/1/155 211/1/155
f 214/1/155 206/1/155 207/1/155
f 217/1/155 205/1/162 206/1/155
f 212/1/155 210/1/159 195/1/156
f 215/1/156 211/1/155 212/1/155
f 215/1/156 217/1/155 214/1/155
f 218/1/155 204/1/164 217/1/155
f 196/1/156 212/1/155 195/1/156
f 213/1/156 215/1/156 212/1/155
f 219/1/156 215/1/156 216/1/156
f 202/1/156 218/1/155 219/1/156
f 197/1/157 213/1/156 196/1/156
f 198/1/156 216/1/156 213/1/156
f 200/1/155 216/1/156 199/1/155
f 201/1/155 219/1/156 200/1/155
f 158/1/165 230/1/166 231/1/166
f 155/1/167 229/1/168 156/1/169
f 154/1/170 226/1/168 227/1/168
f 152/1/171 224/1/168 225/1/172
f 147/1/173 235/1/168 220/1/174
f 149/1/175 223/1/176 150/1/177
f 160/1/178 234/1/166 161/1/179
f 148/1/180 220/1/174 221/1/168
f 159/1/181 231/1/166 232/1/166
f 156/1/169 230/1/166 157/1/182
f 155/1/167 227/1/168 228/1/183
f 153/1/184 225/1/172 226/1/168
f 151/1/185 223/1/176 224/1/168
f 162/1/186 234/1/166 235/1/168
f 148/1/180 222/1/168 149/1/175
f 159/1/181 233/1/166 160/1/178
f 234/1/166 236/1/166 235/1/168
f 233/1/166 239/1/168 236/1/166
f 231/1/166 239/1/168 232/1/166
f 230/1/166 242/1/166 231/1/166
f 235/1/168 237/1/166 220/1/174
f 236/1/166 240/1/168 237/1/166
f 242/1/166 240/1/168 239/1/168
f 229/1/168 243/1/166 242/1/166
f 237/1/166 221/1/168 220/1/174
f 240/1/168 238/1/166 237/1/166
f 240/1/168 244/1/166 241/1/174
f 243/1/166 227/1/168 244/1/166
f 238/1/166 222/1/168 221/1/168
f 241/1/174 223/1/176 238/1/166
f 241/1/174 225/1/172 224/1/168
f 244/1/166 226/1/168 225/1/172
f 251/1/129 194/1/138 192/1/137
f 250/1/127 193/1/187 190/1/140
f 249/1/123 189/1/188 188/1/142
f 186/1/12 256/1/124 187/1/124
f 184/1/189 255/1/119 185/1/119
f 246/1/114 183/1/148 182/1/147
f 245/1/112 191/1/21 180/1/150
f 260/1/133 181/1/115 194/1/138
f 193/1/187 252/1/110 179/1/153
f 191/1/21 251/1/129 192/1/137
f 189/1/188 250/1/127 190/1/140
f 256/1/124 188/1/142 187/1/124
f 185/1/119 248/1/121 186/1/12
f 254/1/118 184/1/189 183/1/148
f 181/1/115 246/1/114 182/1/147
f 252/1/110 180/1/150 179/1/153
f 149/1/175 270/1/151 148/1/180
f 160/1/178 271/1/147 159/1/181
f 263/1/149 157/1/182 158/1/165
f 264/1/146 155/1/167 156/1/169
f 265/1/145 153/1/184 154/1/170
f 266/1/143 151/1/185 152/1/171
f 147/1/173 276/1/139 162/1/186
f 268/1/141 149/1/175 150/1/177
f 269/1/138 160/1/178 161/1/179
f 270/1/151 147/1/173 148/1/180
f 159/1/181 263/1/149 158/1/165
f 157/1/182 264/1/146 156/1/169
f 155/1/167 265/1/145 154/1/170
f 153/1/184 266/1/143 152/1/171
f 151/1/185 268/1/141 150/1/177
f 162/1/186 269/1/138 161/1/179
f 295/1/190 375/1/191 382/1/192
f 306/1/193 376/1/194 383/1/195
f 304/1/196 377/1/197 384/1/198
f 385/1/199 301/1/200 378/1/12
f 386/1/201 299/1/202 379/1/203
f 387/1/204 297/1/205 380/1/206
f 293/1/207 381/1/208 388/1/209
f 296/1/210 382/1/192 389/1/211
f 307/1/212 383/1/195 390/1/213
f 294/1/214 388/1/209 375/1/191
f 376/1/194 304/1/196 384/1/198
f 377/1/197 302/1/215 385/1/199
f 378/1/12 300/1/216 386/1/201
f 379/1/203 298/1/217 387/1/204
f 380/1/206 296/1/210 389/1/211
f 308/1/218 390/1/213 381/1/208
f 406/1/219 324/1/220 399/1/221
f 405/1/206 323/1/222 398/1/223
f 404/1/203 319/1/204 396/1/224
f 316/1/12 395/1/201 403/1/12
f 314/1/225 394/1/226 402/1/197
f 401/1/227 313/1/228 393/1/198
f 310/1/191 397/1/21 400/1/229
f 399/1/221 311/1/195 392/1/195
f 398/1/223 309/1/230 391/1/192
f 397/1/21 322/1/208 406/1/219
f 319/1/204 405/1/206 396/1/224
f 317/1/201 404/1/203 395/1/201
f 315/1/231 403/1/12 394/1/226
f 313/1/228 402/1/197 393/1/198
f 392/1/195 312/1/194 401/1/227
f 391/1/192 310/1/191 400/1/229
f 306/1/193 339/1/232 338/1/233
f 296/1/210 327/1/234 295/1/190
f 308/1/218 325/1/232 340/1/234
f 297/1/205 330/1/234 329/1/235
f 299/1/202 332/1/236 331/1/235
f 302/1/215 333/1/232 301/1/200
f 304/1/196 335/1/232 303/1/237
f 305/1/238 338/1/233 337/1/234
f 295/1/190 326/1/239 294/1/214
f 308/1/218 339/1/232 307/1/212
f 296/1/210 329/1/235 328/1/233
f 299/1/202 330/1/234 298/1/217
f 300/1/216 333/1/232 332/1/236
f 302/1/215 335/1/232 334/1/234
f 304/1/196 337/1/234 336/1/234
f 294/1/214 325/1/232 293/1/207
f 341/1/234 339/1/232 340/1/234
f 344/1/234 338/1/233 341/1/234
f 344/1/234 336/1/234 337/1/234
f 347/1/234 335/1/232 336/1/234
f 342/1/232 340/1/234 325/1/232
f 345/1/232 341/1/234 342/1/232
f 345/1/232 347/1/234 344/1/234
f 348/1/232 334/1/234 347/1/234
f 326/1/239 342/1/232 325/1/232
f 343/1/234 345/1/232 342/1/232
f 349/1/232 345/1/232 346/1/235
f 332/1/236 348/1/232 349/1/232
f 327/1/234 343/1/234 326/1/239
f 328/1/233 346/1/235 343/1/234
f 330/1/234 346/1/235 329/1/235
f 331/1/235 349/1/232 330/1/234
f 287/1/240 361/1/241 288/1/242
f 286/1/243 358/1/244 359/1/245
f 283/1/246 357/1/247 284/1/248
f 282/1/249 354/1/241 355/1/245
f 292/1/250 350/1/244 277/1/251
f 280/1/252 352/1/247 353/1/241
f 290/1/253 364/1/254 291/1/255
f 278/1/256 350/1/244 351/1/245
f 288/1/242 362/1/247 289/1/257
f 286/1/243 360/1/247 287/1/240
f 285/1/258 357/1/247 358/1/244
f 282/1/249 356/1/247 283/1/246
f 281/1/259 353/1/241 354/1/241
f 291/1/255 365/1/244 292/1/250
f 278/1/256 352/1/247 279/1/260
f 289/1/257 363/1/241 290/1/253
f 364/1/254 366/1/241 365/1/244
f 363/1/241 369/1/247 366/1/241
f 361/1/241 369/1/247 362/1/247
f 360/1/247 372/1/241 361/1/241
f 365/1/244 367/1/245 350/1/244
f 366/1/241 370/1/245 367/1/245
f 372/1/241 370/1/245 369/1/247
f 359/1/245 373/1/245 372/1/241
f 367/1/245 351/1/245 350/1/244
f 370/1/245 368/1/247 367/1/245
f 370/1/245 374/1/247 371/1/241
f 373/1/245 357/1/247 374/1/247
f 368/1/247 352/1/247 351/1/245
f 371/1/241 353/1/241 368/1/247
f 371/1/241 355/1/245 354/1/241
f 374/1/247 356/1/247 355/1/245
f 322/1/208 390/1/213 324/1/220
f 380/1/206 323/1/222 320/1/261
f 379/1/203 319/1/204 318/1/203
f 316/1/12 386/1/201 317/1/201
f 314/1/225 385/1/199 315/1/231
f 312/1/194 384/1/198 313/1/228
f 375/1/191 321/1/21 310/1/191
f 390/1/213 311/1/195 324/1/220
f 323/1/222 382/1/192 309/1/230
f 321/1/21 381/1/208 322/1/208
f 319/1/204 380/1/206 320/1/261
f 386/1/201 318/1/203 317/1/201
f 385/1/199 316/1/12 315/1/231
f 384/1/198 314/1/225 313/1/228
f 383/1/195 312/1/194 311/1/195
f 382/1/192 310/1/191 309/1/230
f 391/1/192 278/1/256 279/1/260
f 392/1/195 289/1/257 290/1/253
f 393/1/198 287/1/240 288/1/242
f 286/1/243 403/1/12 285/1/258
f 395/1/201 283/1/246 284/1/248
f 396/1/224 281/1/259 282/1/249
f 397/1/21 292/1/250 277/1/251
f 398/1/223 279/1/260 280/1/252
f 399/1/221 290/1/253 291/1/255
f 400/1/229 277/1/251 278/1/256
f 289/1/257 393/1/198 288/1/242
f 402/1/197 286/1/243 287/1/240
f 285/1/258 395/1/201 284/1/248
f 283/1/246 396/1/224 282/1/249
f 281/1/259 398/1/223 280/1/252
f 292/1/250 399/1/221 291/1/255
f 97/1/1 19/1/23 18/1/2
f 30/1/4 29/1/71 91/1/5
f 99/1/7 28/1/26 27/1/8
f 100/1/10 26/1/27 25/1/11
f 24/1/13 23/1/28 94/1/14
f 22/1/16 21/1/75 95/1/17
f 17/1/19 32/1/30 96/1/20
f 104/1/22 20/1/29 19/1/23
f 31/1/24 30/1/4 98/1/6
f 90/1/3 18/1/2 17/1/19
f 91/1/5 29/1/71 28/1/26
f 92/1/9 27/1/8 26/1/27
f 25/1/11 24/1/13 101/1/15
f 23/1/28 22/1/16 102/1/18
f 95/1/17 21/1/75 20/1/29
f 32/1/30 31/1/24 105/1/25
f 26/1/27 27/1/8 75/1/31
f 11/1/33 116/1/104 117/1/34
f 146/1/36 46/1/55 48/1/37
f 145/1/38 44/1/56 47/1/39
f 144/1/41 42/1/59 43/1/42
f 143/1/12 40/1/12 41/1/44
f 38/1/46 39/1/60 134/1/47
f 36/1/48 37/1/49 133/1/49
f 140/1/3 34/1/53 45/1/21
f 48/1/37 35/1/51 132/1/51
f 47/1/39 33/1/1 131/1/52
f 45/1/21 46/1/55 146/1/36
f 43/1/42 44/1/56 145/1/38
f 41/1/44 42/1/59 144/1/41
f 134/1/47 39/1/60 40/1/12
f 37/1/49 38/1/46 142/1/9
f 132/1/51 35/1/51 36/1/48
f 131/1/52 33/1/1 34/1/53
f 55/1/54 64/1/37 48/1/37
f 44/1/56 54/1/61 63/1/57
f 53/1/58 61/1/42 43/1/42
f 52/1/12 60/1/45 41/1/44
f 51/1/46 59/1/88 39/1/60
f 50/1/48 58/1/62 37/1/49
f 49/1/3 62/1/21 45/1/21
f 48/1/37 64/1/37 57/1/51
f 47/1/39 63/1/57 56/1/1
f 62/1/21 55/1/54 46/1/55
f 43/1/42 61/1/42 54/1/61
f 60/1/45 53/1/58 42/1/59
f 39/1/60 59/1/88 52/1/12
f 58/1/62 51/1/46 38/1/46
f 35/1/51 57/1/51 50/1/48
f 33/1/1 56/1/1 49/1/3
f 25/1/11 73/1/73 72/1/63
f 23/1/28 71/1/74 70/1/64
f 20/1/29 21/1/75 69/1/65
f 32/1/30 80/1/76 79/1/67
f 18/1/2 19/1/23 67/1/68
f 30/1/4 78/1/77 77/1/70
f 27/1/8 28/1/26 76/1/72
f 25/1/11 26/1/27 74/1/32
f 24/1/13 72/1/63 71/1/74
f 22/1/16 70/1/64 69/1/65
f 17/1/19 65/1/78 80/1/76
f 19/1/23 20/1/29 68/1/66
f 31/1/24 79/1/67 78/1/77
f 17/1/19 18/1/2 66/1/69
f 28/1/26 29/1/71 77/1/70
f 81/1/79 78/1/77 79/1/67
f 84/1/80 77/1/70 78/1/77
f 84/1/80 87/1/81 76/1/72
f 87/1/81 74/1/32 75/1/31
f 82/1/82 81/1/79 80/1/76
f 85/1/83 84/1/80 81/1/79
f 85/1/83 88/1/84 87/1/81
f 88/1/84 73/1/73 74/1/32
f 66/1/69 83/1/85 82/1/82
f 83/1/85 86/1/87 85/1/83
f 89/1/86 88/1/84 85/1/83
f 72/1/63 73/1/73 88/1/84
f 67/1/68 68/1/66 83/1/85
f 68/1/66 69/1/65 86/1/87
f 70/1/64 89/1/86 86/1/87
f 71/1/74 72/1/63 89/1/86
f 96/1/20 105/1/25 64/1/37
f 54/1/61 95/1/17 104/1/22
f 94/1/14 102/1/18 61/1/42
f 93/1/12 101/1/15 60/1/45
f 51/1/46 92/1/9 100/1/10
f 50/1/48 91/1/5 99/1/7
f 49/1/3 90/1/3 103/1/21
f 105/1/25 98/1/6 57/1/51
f 63/1/57 104/1/22 97/1/1
f 103/1/21 96/1/20 55/1/54
f 102/1/18 95/1/17 54/1/61
f 101/1/15 94/1/14 53/1/58
f 59/1/88 100/1/10 93/1/12
f 58/1/62 99/1/7 92/1/9
f 98/1/6 91/1/5 50/1/48
f 56/1/1 97/1/1 90/1/3
f 10/1/89 9/1/105 114/1/34
f 7/1/90 112/1/106 113/1/34
f 5/1/92 110/1/34 111/1/34
f 16/1/94 121/1/34 106/1/34
f 4/1/96 3/1/107 108/1/97
f 14/1/98 119/1/34 120/1/99
f 2/1/101 1/1/95 106/1/34
f 12/1/35 117/1/34 118/1/102
f 11/1/33 10/1/89 115/1/34
f 9/1/105 8/1/91 113/1/34
f 7/1/90 6/1/93 111/1/34
f 5/1/92 4/1/96 109/1/97
f 15/1/100 120/1/99 121/1/34
f 3/1/107 2/1/101 107/1/34
f 14/1/98 13/1/103 118/1/102
f 120/1/99 119/1/34 122/1/34
f 119/1/34 118/1/102 125/1/34
f 117/1/34 128/1/108 125/1/34
f 116/1/104 115/1/34 128/1/108
f 121/1/34 122/1/34 123/1/109
f 122/1/34 125/1/34 126/1/34
f 128/1/108 129/1/102 126/1/34
f 115/1/34 114/1/34 129/1/102
f 123/1/109 124/1/34 107/1/34
f 126/1/34 127/1/34 124/1/34
f 126/1/34 129/1/102 130/1/34
f 129/1/102 114/1/34 113/1/34
f 124/1/34 109/1/97 108/1/97
f 127/1/34 110/1/34 109/1/97
f 127/1/34 130/1/34 111/1/34
f 130/1/34 113/1/34 112/1/106
f 131/1/52 140/1/3 2/1/101
f 132/1/51 141/1/5 13/1/103
f 12/1/35 133/1/49 142/1/9
f 134/1/47 143/1/12 9/1/105
f 8/1/91 135/1/45 144/1/41
f 6/1/93 136/1/43 145/1/38
f 137/1/50 146/1/36 16/1/94
f 138/1/40 131/1/52 3/1/107
f 15/1/100 139/1/37 132/1/51
f 2/1/101 140/1/3 137/1/50
f 13/1/103 141/1/5 133/1/49
f 142/1/9 134/1/47 10/1/89
f 143/1/12 135/1/45 8/1/91
f 7/1/90 144/1/41 136/1/43
f 145/1/38 138/1/40 4/1/96
f 16/1/94 146/1/36 139/1/37
f 252/1/110 165/1/131 164/1/111
f 176/1/113 175/1/163 246/1/114
f 174/1/116 173/1/134 247/1/117
f 255/1/119 172/1/161 171/1/120
f 170/1/122 169/1/135 249/1/123
f 257/1/125 168/1/160 167/1/126
f 163/1/128 178/1/158 251/1/129
f 259/1/130 166/1/136 165/1/131
f 177/1/132 176/1/113 253/1/115
f 164/1/111 163/1/128 258/1/21
f 246/1/114 175/1/163 174/1/116
f 173/1/134 172/1/161 255/1/119
f 171/1/120 170/1/122 256/1/124
f 169/1/135 168/1/160 257/1/125
f 250/1/127 167/1/126 166/1/136
f 251/1/129 178/1/158 177/1/132
f 192/1/137 194/1/138 269/1/138
f 190/1/140 193/1/187 268/1/141
f 188/1/142 189/1/188 266/1/143
f 273/1/12 186/1/12 187/1/124
f 272/1/117 184/1/189 185/1/119
f 271/1/147 182/1/147 183/1/148
f 180/1/150 191/1/21 267/1/21
f 194/1/138 181/1/115 262/1/152
f 268/1/141 193/1/187 179/1/153
f 191/1/21 192/1/137 276/1/139
f 266/1/143 189/1/188 190/1/140
f 265/1/145 187/1/124 188/1/142
f 185/1/119 186/1/12 273/1/12
f 183/1/148 184/1/189 272/1/117
f 181/1/115 182/1/147 271/1/147
f 179/1/153 180/1/150 270/1/151
f 176/1/113 177/1/132 209/1/155
f 165/1/131 166/1/136 198/1/156
f 178/1/158 163/1/128 195/1/156
f 168/1/160 200/1/155 199/1/155
f 170/1/122 202/1/156 201/1/155
f 172/1/161 204/1/164 203/1/155
f 173/1/134 174/1/116 206/1/155
f 176/1/113 208/1/155 207/1/155
f 164/1/111 165/1/131 197/1/157
f 178/1/158 210/1/159 209/1/155
f 166/1/136 167/1/126 199/1/155
f 169/1/135 201/1/155 200/1/155
f 171/1/120 203/1/155 202/1/156
f 172/1/161 173/1/134 205/1/162
f 174/1/116 175/1/163 207/1/155
f 164/1/111 196/1/156 195/1/156
f 211/1/155 208/1/155 209/1/155
f 214/1/155 207/1/155 208/1/155
f 214/1/155 217/1/155 206/1/155
f 217/1/155 204/1/164 205/1/162
f 212/1/155 211/1/155 210/1/159
f 215/1/156 214/1/155 211/1/155
f 215/1/156 218/1/155 217/1/155
f 218/1/155 203/1/155 204/1/164
f 196/1/156 213/1/156 212/1/155
f 213/1/156 216/1/156 215/1/156
f 219/1/156 218/1/155 215/1/156
f 202/1/156 203/1/155 218/1/155
f 197/1/157 198/1/156 213/1/156
f 198/1/156 199/1/155 216/1/156
f 200/1/155 219/1/156 216/1/156
f 201/1/155 202/1/156 219/1/156
f 158/1/165 157/1/182 230/1/166
f 155/1/167 228/1/183 229/1/168
f 154/1/170 153/1/184 226/1/168
f 152/1/171 151/1/185 224/1/168
f 147/1/173 162/1/186 235/1/168
f 149/1/175 222/1/168 223/1/176
f 160/1/178 233/1/166 234/1/166
f 148/1/180 147/1/173 220/1/174
f 159/1/181 158/1/165 231/1/166
f 156/1/169 229/1/168 230/1/166
f 155/1/167 154/1/170 227/1/168
f 153/1/184 152/1/171 225/1/172
f 151/1/185 150/1/177 223/1/176
f 162/1/186 161/1/179 234/1/166
f 148/1/180 221/1/168 222/1/168
f 159/1/181 232/1/166 233/1/166
f 234/1/166 233/1/166 236/1/166
f 233/1/166 232/1/166 239/1/168
f 231/1/166 242/1/166 239/1/168
f 230/1/166 229/1/168 242/1/166
f 235/1/168 236/1/166 237/1/166
f 236/1/166 239/1/168 240/1/168
f 242/1/166 243/1/166 240/1/168
f 229/1/168 228/1/183 243/1/166
f 237/1/166 238/1/166 221/1/168
f 240/1/168 241/1/174 238/1/166
f 240/1/168 243/1/166 244/1/166
f 243/1/166 228/1/183 227/1/168
f 238/1/166 223/1/176 222/1/168
f 241/1/174 224/1/168 223/1/176
f 241/1/174 244/1/166 225/1/172
f 244/1/166 227/1/168 226/1/168
f 251/1/129 260/1/133 194/1/138
f 250/1/127 259/1/130 193/1/187
f 249/1/123 257/1/125 189/1/188
f 186/1/12 248/1/121 256/1/124
f 184/1/189 247/1/117 255/1/119
f 246/1/114 254/1/118 183/1/148
f 245/1/112 258/1/21 191/1/21
f 260/1/133 253/1/115 181/1/115
f 193/1/187 259/1/130 252/1/110
f 191/1/21 258/1/21 251/1/129
f 189/1/188 257/1/125 250/1/127
f 256/1/124 249/1/123 188/1/142
f 185/1/119 255/1/119 248/1/121
f 254/1/118 247/1/117 184/1/189
f 181/1/115 253/1/115 246/1/114
f 252/1/110 245/1/112 180/1/150
f 149/1/175 261/1/154 270/1/151
f 160/1/178 262/1/152 271/1/147
f 263/1/149 272/1/117 157/1/182
f 264/1/146 273/1/12 155/1/167
f 265/1/145 274/1/144 153/1/184
f 266/1/143 275/1/140 151/1/185
f 147/1/173 267/1/21 276/1/139
f 268/1/141 261/1/154 149/1/175
f 269/1/138 262/1/152 160/1/178
f 270/1/151 267/1/21 147/1/173
f 159/1/181 271/1/147 263/1/149
f 157/1/182 272/1/117 264/1/146
f 155/1/167 273/1/12 265/1/145
f 153/1/184 274/1/144 266/1/143
f 151/1/185 275/1/140 268/1/141
f 162/1/186 276/1/139 269/1/138
f 295/1/190 294/1/214 375/1/191
f 306/1/193 305/1/238 376/1/194
f 304/1/196 303/1/237 377/1/197
f 385/1/199 302/1/215 301/1/200
f 386/1/201 300/1/216 299/1/202
f 387/1/204 298/1/217 297/1/205
f 293/1/207 308/1/218 381/1/208
f 296/1/210 295/1/190 382/1/192
f 307/1/212 306/1/193 383/1/195
f 294/1/214 293/1/207 388/1/209
f 376/1/194 305/1/238 304/1/196
f 377/1/197 303/1/237 302/1/215
f 378/1/12 301/1/200 300/1/216
f 379/1/203 299/1/202 298/1/217
f 380/1/206 297/1/205 296/1/210
f 308/1/218 307/1/212 390/1/213
f 406/1/219 322/1/208 324/1/220
f 405/1/206 320/1/261 323/1/222
f 404/1/203 318/1/203 319/1/204
f 316/1/12 317/1/201 395/1/201
f 314/1/225 315/1/231 394/1/226
f 401/1/227 312/1/194 313/1/228
f 310/1/191 321/1/21 397/1/21
f 399/1/221 324/1/220 311/1/195
f 398/1/223 323/1/222 309/1/230
f 397/1/21 321/1/21 322/1/208
f 319/1/204 320/1/261 405/1/206
f 317/1/201 318/1/203 404/1/203
f 315/1/231 316/1/12 403/1/12
f 313/1/228 314/1/225 402/1/197
f 392/1/195 311/1/195 312/1/194
f 391/1/192 309/1/230 310/1/191
f 306/1/193 307/1/212 339/1/232
f 296/1/210 328/1/233 327/1/234
f 308/1/218 293/1/207 325/1/232
f 297/1/205 298/1/217 330/1/234
f 299/1/202 300/1/216 332/1/236
f 302/1/215 334/1/234 333/1/232
f 304/1/196 336/1/234 335/1/232
f 305/1/238 306/1/193 338/1/233
f 295/1/190 327/1/234 326/1/239
f 308/1/218 340/1/234 339/1/232
f 296/1/210 297/1/205 329/1/235
f 299/1/202 331/1/235 330/1/234
f 300/1/216 301/1/200 333/1/232
f 302/1/215 303/1/237 335/1/232
f 304/1/196 305/1/238 337/1/234
f 294/1/214 326/1/239 325/1/232
f 341/1/234 338/1/233 339/1/232
f 344/1/234 337/1/234 338/1/233
f 344/1/234 347/1/234 336/1/234
f 347/1/234 334/1/234 335/1/232
f 342/1/232 341/1/234 340/1/234
f 345/1/232 344/1/234 341/1/234
f 345/1/232 348/1/232 347/1/234
f 348/1/232 333/1/232 334/1/234
f 326/1/239 343/1/234 342/1/232
f 343/1/234 346/1/235 345/1/232
f 349/1/232 348/1/232 345/1/232
f 332/1/236 333/1/232 348/1/232
f 327/1/234 328/1/233 343/1/234
f 328/1/233 329/1/235 346/1/235
f 330/1/234 349/1/232 346/1/235
f 331/1/235 332/1/236 349/1/232
f 287/1/240 360/1/247 361/1/241
f 286/1/243 285/1/258 358/1/244
f 283/1/246 356/1/247 357/1/247
f 282/1/249 281/1/259 354/1/241
f 292/1/250 365/1/244 350/1/244
f 280/1/252 279/1/260 352/1/247
f 290/1/253 363/1/241 364/1/254
f 278/1/256 277/1/251 350/1/244
f 288/1/242 361/1/241 362/1/247
f 286/1/243 359/1/245 360/1/247
f 285/1/258 284/1/248 357/1/247
f 282/1/249 355/1/245 356/1/247
f 281/1/259 280/1/252 353/1/241
f 291/1/255 364/1/254 365/1/244
f 278/1/256 351/1/245 352/1/247
f 289/1/257 362/1/247 363/1/241
f 364/1/254 363/1/241 366/1/241
f 363/1/241 362/1/247 369/1/247
f 361/1/241 372/1/241 369/1/247
f 360/1/247 359/1/245 372/1/241
f 365/1/244 366/1/241 367/1/245
f 366/1/241 369/1/247 370/1/245
f 372/1/241 373/1/245 370/1/245
f 359/1/245 358/1/244 373/1/245
f 367/1/245 368/1/247 351/1/245
f 370/1/245 371/1/241 368/1/247
f 370/1/245 373/1/245 374/1/247
f 373/1/245 358/1/244 357/1/247
f 368/1/247 353/1/241 352/1/247
f 371/1/241 354/1/241 353/1/241
f 371/1/241 374/1/247 355/1/245
f 374/1/247 357/1/247 356/1/247
f 322/1/208 381/1/208 390/1/213
f 380/1/206 389/1/211 323/1/222
f 379/1/203 387/1/204 319/1/204
f 316/1/12 378/1/12 386/1/201
f 314/1/225 377/1/197 385/1/199
f 312/1/194 376/1/194 384/1/198
f 375/1/191 388/1/209 321/1/21
f 390/1/213 383/1/195 311/1/195
f 323/1/222 389/1/211 382/1/192
f 321/1/21 388/1/209 381/1/208
f 319/1/204 387/1/204 380/1/206
f 386/1/201 379/1/203 318/1/203
f 385/1/199 378/1/12 316/1/12
f 384/1/198 377/1/197 314/1/225
f 383/1/195 376/1/194 312/1/194
f 382/1/192 375/1/191 310/1/191
f 391/1/192 400/1/229 278/1/256
f 392/1/195 401/1/227 289/1/257
f 393/1/198 402/1/197 287/1/240
f 286/1/243 394/1/226 403/1/12
f 395/1/201 404/1/203 283/1/246
f 396/1/224 405/1/206 281/1/259
f 397/1/21 406/1/219 292/1/250
f 398/1/223 391/1/192 279/1/260
f 399/1/221 392/1/195 290/1/253
f 400/1/229 397/1/21 277/1/251
f 289/1/257 401/1/227 393/1/198
f 402/1/197 394/1/226 286/1/243
f 285/1/258 403/1/12 395/1/201
f 283/1/246 404/1/203 396/1/224
f 281/1/259 405/1/206 398/1/223
f 292/1/250 406/1/219 399/1/221
