# Blender 3.6.23
# www.blender.org
o sol.065
v 1.612687 0.810652 -1.822140
v 1.612687 0.810652 -1.251273
v 2.970953 0.810652 -1.251273
v 2.970953 0.810652 -1.822140
v 1.612687 0.810991 -1.827060
v 1.609327 0.810991 -1.825501
v 1.607767 0.810991 -1.822140
v 1.607767 0.810991 -1.251273
v 1.609327 0.810991 -1.247913
v 1.612687 0.810991 -1.246353
v 2.970953 0.810991 -1.246353
v 2.974316 0.810991 -1.247913
v 2.975876 0.810991 -1.251273
v 2.975876 0.810991 -1.822140
v 2.974316 0.810991 -1.825501
v 2.970953 0.810991 -1.827060
v 1.612687 0.811436 -1.830662
v 1.606867 0.811436 -1.827962
v 1.604164 0.811436 -1.822140
v 1.604164 0.811436 -1.251273
v 1.606867 0.811436 -1.245453
v 1.612687 0.811436 -1.242750
v 2.970953 0.811436 -1.242750
v 2.976776 0.811436 -1.245453
v 2.979478 0.811436 -1.251273
v 2.979478 0.811436 -1.822140
v 2.976776 0.811436 -1.827962
v 2.970953 0.811436 -1.830662
v 1.612687 0.815630 -1.822140
v 1.612687 0.815630 -1.251273
v 2.970953 0.815630 -1.251273
v 2.970953 0.815630 -1.822140
v 1.612687 0.815292 -1.827060
v 1.609327 0.815292 -1.825501
v 1.607767 0.815292 -1.822140
v 1.607767 0.815292 -1.251273
v 1.609327 0.815292 -1.247913
v 1.612687 0.815292 -1.246353
v 2.970953 0.815292 -1.246353
v 2.974316 0.815292 -1.247913
v 2.975876 0.815292 -1.251273
v 2.975876 0.815292 -1.822140
v 2.974316 0.815292 -1.825501
v 2.970953 0.815292 -1.827060
v 1.612687 0.814847 -1.830662
v 1.606867 0.814846 -1.827962
v 1.604164 0.814847 -1.822140
v 1.604164 0.814846 -1.251273
v 1.606867 0.814846 -1.245453
v 1.612687 0.814846 -1.242750
v 2.970953 0.814846 -1.242750
v 2.976776 0.814846 -1.245453
v 2.979478 0.814846 -1.251273
v 2.979478 0.814847 -1.822140
v 2.976776 0.814846 -1.827962
v 2.970953 0.814847 -1.830662
v 1.613333 0.813083 -1.831316
v 1.606618 0.813083 -1.828202
v 1.603500 0.813083 -1.821496
v 1.603500 0.813083 -1.251917
v 1.606618 0.813083 -1.245210
v 1.613333 0.813083 -1.242096
v 2.970307 0.813083 -1.242096
v 2.977024 0.813083 -1.245210
v 2.980140 0.813083 -1.251917
v 2.980140 0.813083 -1.821496
v 2.977024 0.813083 -1.828202
v 2.970307 0.813083 -1.831316
vn 0.0298 0.9991 -0.0298
vn -0.0297 0.9991 0.0298
vn 0.0298 0.9991 0.0297
vn 0.5207 0.6758 0.5217
vn 0.0994 0.9948 0.0239
vn 0.0744 0.9944 0.0744
vn 0.5206 0.6763 -0.5212
vn 0.0239 0.9948 -0.0994
vn 0.0744 0.9944 -0.0744
vn -0.0297 0.9991 -0.0298
vn -0.0744 0.9945 0.0744
vn -0.0239 0.9948 0.0994
vn -0.5205 0.6763 -0.5212
vn -0.0993 0.9948 -0.0239
vn -0.0744 0.9944 -0.0744
vn -0.5207 0.6758 0.5217
vn 0.0239 0.9948 0.0994
vn 0.6677 0.7211 0.1850
vn 0.0994 0.9948 -0.0239
vn 0.1852 0.7192 -0.6697
vn -0.0239 0.9948 -0.0994
vn -0.6682 0.7207 -0.1850
vn -0.0994 0.9948 0.0239
vn -0.1851 0.7192 0.6697
vn -0.0298 0.9991 0.0297
vn 0.0297 0.9991 -0.0297
vn -0.0298 0.9991 -0.0297
vn -0.5239 0.6708 -0.5249
vn -0.0994 0.9948 -0.0239
vn -0.5239 0.6713 0.5244
vn -0.0744 0.9944 0.0744
vn 0.0297 0.9991 0.0297
vn 0.5238 0.6713 0.5244
vn 0.5239 0.6708 -0.5249
vn -0.6738 0.7155 -0.1844
vn -0.1846 0.7137 0.6757
vn 0.6743 0.7151 0.1844
vn 0.1845 0.7137 -0.6757
vn -0.1846 0.7137 -0.6757
vn -0.0093 0.9999 -0.0094
vn -0.0135 0.9999 -0.0066
vn -0.6738 0.7155 0.1844
vn -0.0093 0.9999 0.0094
vn -0.0067 0.9999 0.0134
vn 0.1845 0.7138 0.6757
vn 0.0094 0.9999 0.0094
vn 0.0135 0.9999 0.0066
vn 0.6743 0.7151 -0.1844
vn 0.0094 0.9999 -0.0094
vn -0.0067 0.9999 -0.0134
vn 0.1852 0.7192 0.6697
vn 0.6677 0.7211 -0.1850
vn -0.1851 0.7192 -0.6696
vn -0.6682 0.7206 0.1850
vn -0.0135 0.9999 0.0066
vn 0.0067 0.9999 0.0134
vn 0.0135 0.9999 -0.0066
vn 0.0067 0.9999 -0.0134
vt 0.266171 0.311073
vt 0.952604 0.600674
vt 0.265778 0.599739
vt 0.000866 0.305392
vt 0.003599 0.307333
vt 0.001824 0.307626
vt 0.263203 0.599772
vt 0.263795 0.305813
vt 0.266138 0.308497
vt 0.263727 0.308280
vt 0.952996 0.312007
vt 0.954365 0.602440
vt 0.952636 0.603249
vt 0.999089 0.607434
vt 0.996104 0.605324
vt 0.998038 0.604999
vt 0.955573 0.311975
vt 0.712339 0.607689
vt 0.709850 0.604931
vt 0.712373 0.605082
vt 0.265738 0.602314
vt 0.004100 0.604483
vt 0.000943 0.606706
vt 0.002058 0.604136
vt 0.003797 0.305030
vt 0.261407 0.308210
vt 0.266723 0.306037
vt 0.953036 0.309433
vt 0.956110 0.307273
vt 0.955024 0.309771
vt 0.995893 0.607836
vt 0.714849 0.605075
vt 0.709263 0.607505
vt 0.954763 0.310247
vt 0.264013 0.601500
vt 0.264410 0.309307
vt 0.004318 0.607135
vt 0.000443 0.609562
vt 0.003851 0.302776
vt 0.260935 0.305846
vt 0.263834 0.303548
vt 0.267002 0.303687
vt 0.952826 0.306851
vt 0.956599 0.304495
vt 0.995840 0.610295
vt 0.715381 0.607600
vt 0.712320 0.610083
vt 0.004371 0.609731
vt 0.000443 0.302913
vt 0.999557 0.610139
vt 0.263594 0.311033
vt 0.955181 0.600714
vt 0.260720 0.303564
vt 0.952777 0.304324
vt 0.715626 0.610031
vt 0.708986 0.609970
s 1
f 2/1/1 4/2/2 1/3/3
f 18/4/4 7/5/5 6/6/6
f 7/7/5 2/1/1 1/3/3
f 21/8/7 10/9/8 9/10/9
f 10/9/8 3/11/10 2/1/1
f 4/2/2 15/12/11 16/13/12
f 24/14/13 13/15/14 12/16/15
f 13/17/14 4/2/2 3/11/10
f 27/18/16 16/19/12 15/20/11
f 1/3/3 16/13/12 5/21/17
f 5/22/17 18/23/4 6/24/6
f 19/25/18 8/26/19 7/5/5
f 8/26/19 21/8/7 9/10/9
f 22/27/20 11/28/21 10/9/8
f 11/28/21 24/29/13 12/30/15
f 25/31/22 14/32/23 13/15/14
f 14/32/23 27/18/16 15/20/11
f 28/33/24 5/22/17 16/19/12
f 3/11/10 12/34/15 13/17/14
f 1/3/3 6/35/6 7/7/5
f 2/1/1 9/36/9 10/9/8
f 30/1/25 32/2/26 29/3/27
f 46/4/28 35/5/29 34/6/15
f 35/7/29 30/1/25 29/3/27
f 49/8/30 38/9/12 37/10/31
f 38/9/12 31/11/32 30/1/25
f 32/2/26 43/12/9 44/13/8
f 52/14/33 41/15/5 40/16/6
f 41/17/5 32/2/26 31/11/32
f 55/18/34 44/19/8 43/20/9
f 29/3/27 44/13/8 33/21/21
f 33/22/21 46/23/28 34/24/15
f 47/25/35 36/26/23 35/5/29
f 36/26/23 49/8/30 37/10/31
f 50/27/36 39/28/17 38/9/12
f 39/28/17 52/29/33 40/30/6
f 53/31/37 42/32/19 41/15/5
f 42/32/19 55/18/34 43/20/9
f 56/33/38 33/22/21 44/19/8
f 45/37/39 58/38/40 46/23/28
f 59/39/41 48/40/42 47/25/35
f 48/40/42 61/41/43 49/8/30
f 62/42/44 51/43/45 50/27/36
f 51/43/45 64/44/46 52/29/33
f 65/45/47 54/46/48 53/31/37
f 54/46/48 67/47/49 55/18/34
f 56/33/38 57/48/50 45/37/39
f 67/47/49 56/33/38 55/18/34
f 58/49/40 47/25/35 46/4/28
f 31/11/32 40/34/6 41/17/5
f 29/3/27 34/35/15 35/7/29
f 64/50/46 53/31/37 52/14/33
f 61/41/43 50/27/36 49/8/30
f 30/1/25 37/36/31 38/9/12
f 17/37/51 58/38/40 18/23/4
f 59/39/41 20/40/52 19/25/18
f 20/40/52 61/41/43 21/8/7
f 62/42/44 23/43/53 22/27/20
f 23/43/53 64/44/46 24/29/13
f 65/45/47 26/46/54 25/31/22
f 26/46/54 67/47/49 27/18/16
f 28/33/24 57/48/50 17/37/51
f 67/47/49 28/33/24 27/18/16
f 58/49/40 19/25/18 18/4/4
f 64/50/46 25/31/22 24/14/13
f 61/41/43 22/27/20 21/8/7
f 2/1/1 3/11/10 4/2/2
f 18/4/4 19/25/18 7/5/5
f 7/7/5 8/51/19 2/1/1
f 21/8/7 22/27/20 10/9/8
f 10/9/8 11/28/21 3/11/10
f 4/2/2 14/52/23 15/12/11
f 24/14/13 25/31/22 13/15/14
f 13/17/14 14/52/23 4/2/2
f 27/18/16 28/33/24 16/19/12
f 1/3/3 4/2/2 16/13/12
f 5/22/17 17/37/51 18/23/4
f 19/25/18 20/40/52 8/26/19
f 8/26/19 20/40/52 21/8/7
f 22/27/20 23/43/53 11/28/21
f 11/28/21 23/43/53 24/29/13
f 25/31/22 26/46/54 14/32/23
f 14/32/23 26/46/54 27/18/16
f 28/33/24 17/37/51 5/22/17
f 3/11/10 11/28/21 12/34/15
f 1/3/3 5/21/17 6/35/6
f 2/1/1 8/51/19 9/36/9
f 30/1/25 31/11/32 32/2/26
f 46/4/28 47/25/35 35/5/29
f 35/7/29 36/51/23 30/1/25
f 49/8/30 50/27/36 38/9/12
f 38/9/12 39/28/17 31/11/32
f 32/2/26 42/52/19 43/12/9
f 52/14/33 53/31/37 41/15/5
f 41/17/5 42/52/19 32/2/26
f 55/18/34 56/33/38 44/19/8
f 29/3/27 32/2/26 44/13/8
f 33/22/21 45/37/39 46/23/28
f 47/25/35 48/40/42 36/26/23
f 36/26/23 48/40/42 49/8/30
f 50/27/36 51/43/45 39/28/17
f 39/28/17 51/43/45 52/29/33
f 53/31/37 54/46/48 42/32/19
f 42/32/19 54/46/48 55/18/34
f 56/33/38 45/37/39 33/22/21
f 45/37/39 57/48/50 58/38/40
f 59/39/41 60/53/55 48/40/42
f 48/40/42 60/53/55 61/41/43
f 62/42/44 63/54/56 51/43/45
f 51/43/45 63/54/56 64/44/46
f 65/45/47 66/55/57 54/46/48
f 54/46/48 66/55/57 67/47/49
f 56/33/38 68/56/58 57/48/50
f 67/47/49 68/56/58 56/33/38
f 58/49/40 59/39/41 47/25/35
f 31/11/32 39/28/17 40/34/6
f 29/3/27 33/21/21 34/35/15
f 64/50/46 65/45/47 53/31/37
f 61/41/43 62/42/44 50/27/36
f 30/1/25 36/51/23 37/36/31
f 17/37/51 57/48/50 58/38/40
f 59/39/41 60/53/55 20/40/52
f 20/40/52 60/53/55 61/41/43
f 62/42/44 63/54/56 23/43/53
f 23/43/53 63/54/56 64/44/46
f 65/45/47 66/55/57 26/46/54
f 26/46/54 66/55/57 67/47/49
f 28/33/24 68/56/58 57/48/50
f 67/47/49 68/56/58 28/33/24
f 58/49/40 59/39/41 19/25/18
f 64/50/46 65/45/47 25/31/22
f 61/41/43 62/42/44 22/27/20
