# Blender 3.6.23
# www.blender.org
o sol.044
v 1.986759 0.828634 -1.411877
v 2.003442 0.828643 -1.610874
v 1.986730 0.828600 -1.411516
v 1.986708 0.828504 -1.411201
v 1.986688 0.828358 -1.410943
v 1.986676 0.828175 -1.410748
v 1.986667 0.827967 -1.410626
v 1.986663 0.827746 -1.410587
v 1.986665 0.827519 -1.410634
v 1.986679 0.827025 -1.410834
v 1.986690 0.826513 -1.411021
v 1.986705 0.825977 -1.411189
v 1.986716 0.825414 -1.411331
v 1.986722 0.824820 -1.411444
v 1.986728 0.824189 -1.411525
v 2.003318 0.824553 -1.609400
v 2.003325 0.825401 -1.609526
v 2.003340 0.826162 -1.609718
v 2.003357 0.826853 -1.609961
v 2.003379 0.827489 -1.610247
v 2.003404 0.828057 -1.610561
v 2.003424 0.828424 -1.610787
v 1.986710 0.824191 -1.411800
v 1.986764 0.824180 -1.413227
v 1.986760 0.824805 -1.413091
v 1.986755 0.825431 -1.412916
v 1.986751 0.826056 -1.412752
v 1.986746 0.826682 -1.412555
v 1.986742 0.827384 -1.412402
v 1.986735 0.828023 -1.412140
v 1.986707 0.827992 -1.411786
v 1.986717 0.827358 -1.412059
v 1.986724 0.826682 -1.412224
v 1.986732 0.826056 -1.412432
v 1.986740 0.825431 -1.412608
v 1.986747 0.824805 -1.412795
v 1.986753 0.824180 -1.412941
v 1.986686 0.827924 -1.411463
v 1.986698 0.827308 -1.411741
v 1.986707 0.826682 -1.411922
v 1.986717 0.826056 -1.412137
v 1.986727 0.825431 -1.412319
v 1.986736 0.824805 -1.412512
v 1.986744 0.824180 -1.412660
v 1.986666 0.827831 -1.411178
v 1.986680 0.827234 -1.411452
v 1.986691 0.826682 -1.411647
v 1.986703 0.826056 -1.411858
v 1.986714 0.825431 -1.412037
v 1.986725 0.824805 -1.412226
v 1.986735 0.824180 -1.412383
v 1.986702 0.824824 -1.411682
v 1.986693 0.825431 -1.411531
v 1.986682 0.826018 -1.411360
v 1.986667 0.826586 -1.411162
v 1.986655 0.827083 -1.410968
v 1.986639 0.827631 -1.410720
v 1.986722 0.824180 -1.412133
v 1.986713 0.824810 -1.411987
v 1.986703 0.825428 -1.411806
v 1.986692 0.826038 -1.411620
v 1.986679 0.826639 -1.411402
v 1.986666 0.827162 -1.411196
v 1.986652 0.827738 -1.410922
v 2.003211 0.826843 -1.610000
v 1.986535 0.828379 -1.410938
v 2.003233 0.827478 -1.610284
v 2.003179 0.825396 -1.609565
v 1.986513 0.827976 -1.410612
v 1.986573 0.824816 -1.411430
v 1.986579 0.828626 -1.411523
v 1.986556 0.828528 -1.411202
v 2.003172 0.824550 -1.609440
v 1.986541 0.826505 -1.411008
v 1.986529 0.827016 -1.410821
v 1.986513 0.827511 -1.410620
v 1.986566 0.825409 -1.411317
v 2.003281 0.828660 -1.610914
v 1.986555 0.825970 -1.411175
v 1.986578 0.824186 -1.411511
v 1.986508 0.827746 -1.410571
v 1.986523 0.828191 -1.410738
v 1.986609 0.828661 -1.411889
v 2.003195 0.826155 -1.609757
v 2.003258 0.828044 -1.610597
v 2.003275 0.828413 -1.610826
v 2.003437 0.828643 -1.610798
v 2.003418 0.828424 -1.610711
v 2.003398 0.828056 -1.610485
v 2.003373 0.827488 -1.610172
v 2.003352 0.826851 -1.609887
v 2.003335 0.826161 -1.609645
v 2.003319 0.825400 -1.609453
v 2.003312 0.824552 -1.609328
v 2.003275 0.828660 -1.610838
v 1.668352 0.828634 -1.439667
v 1.686394 0.828643 -1.638545
v 1.668318 0.828600 -1.439305
v 1.668285 0.828504 -1.438992
v 1.668260 0.828358 -1.438734
v 1.668238 0.828175 -1.438540
v 1.668226 0.827967 -1.438419
v 1.668223 0.827746 -1.438379
v 1.668229 0.827519 -1.438426
v 1.668251 0.827025 -1.438625
v 1.668271 0.826513 -1.438812
v 1.668286 0.825977 -1.438979
v 1.668300 0.825415 -1.439121
v 1.668313 0.824820 -1.439234
v 1.668321 0.824189 -1.439314
v 1.686261 0.824553 -1.637072
v 1.686276 0.825401 -1.637197
v 1.686294 0.826162 -1.637388
v 1.686319 0.826853 -1.637631
v 1.686348 0.827489 -1.637916
v 1.686377 0.828057 -1.638230
v 1.686396 0.828424 -1.638456
v 1.668387 0.824191 -1.439582
v 1.668581 0.824180 -1.440996
v 1.668561 0.824805 -1.440862
v 1.668535 0.825431 -1.440689
v 1.668511 0.826056 -1.440527
v 1.668482 0.826682 -1.440332
v 1.668460 0.827384 -1.440180
v 1.668421 0.828023 -1.439921
v 1.668387 0.827992 -1.439568
v 1.668425 0.827358 -1.439838
v 1.668446 0.826682 -1.440002
v 1.668474 0.826056 -1.440209
v 1.668498 0.825431 -1.440383
v 1.668523 0.824805 -1.440568
v 1.668542 0.824180 -1.440713
v 1.668352 0.827924 -1.439247
v 1.668388 0.827308 -1.439521
v 1.668410 0.826682 -1.439702
v 1.668438 0.826056 -1.439915
v 1.668460 0.825431 -1.440096
v 1.668484 0.824805 -1.440288
v 1.668502 0.824180 -1.440435
v 1.668322 0.827831 -1.438962
v 1.668356 0.827234 -1.439234
v 1.668379 0.826682 -1.439428
v 1.668404 0.826056 -1.439638
v 1.668424 0.825431 -1.439816
v 1.668446 0.824805 -1.440004
v 1.668463 0.824180 -1.440161
v 1.668374 0.824824 -1.439464
v 1.668357 0.825431 -1.439314
v 1.668338 0.826018 -1.439144
v 1.668319 0.826586 -1.438946
v 1.668296 0.827083 -1.438753
v 1.668270 0.827631 -1.438506
v 1.668433 0.824180 -1.439912
v 1.668416 0.824810 -1.439767
v 1.668395 0.825428 -1.439587
v 1.668373 0.826038 -1.439401
v 1.668349 0.826639 -1.439184
v 1.668325 0.827162 -1.438980
v 1.668292 0.827738 -1.438707
v 1.686470 0.826843 -1.637644
v 1.668410 0.828379 -1.438703
v 1.686498 0.827478 -1.637927
v 1.686426 0.825396 -1.637210
v 1.668375 0.827976 -1.438378
v 1.668458 0.824816 -1.439194
v 1.668468 0.828626 -1.439286
v 1.668435 0.828528 -1.438967
v 1.686411 0.824550 -1.637086
v 1.668416 0.826505 -1.438772
v 1.668396 0.827016 -1.438587
v 1.668376 0.827511 -1.438386
v 1.668445 0.825409 -1.439082
v 1.686559 0.828661 -1.638556
v 1.668431 0.825970 -1.438940
v 1.668466 0.824186 -1.439274
v 1.668373 0.827746 -1.438336
v 1.668387 0.828191 -1.438504
v 1.668501 0.828661 -1.439652
v 1.686444 0.826155 -1.637401
v 1.686527 0.828044 -1.638240
v 1.686550 0.828413 -1.638468
v 1.686386 0.828643 -1.638468
v 1.686389 0.828424 -1.638380
v 1.686369 0.828056 -1.638155
v 1.686340 0.827488 -1.637841
v 1.686312 0.826851 -1.637558
v 1.686287 0.826161 -1.637315
v 1.686269 0.825400 -1.637124
v 1.686254 0.824552 -1.637000
v 1.686552 0.828661 -1.638480
v 1.986759 0.818633 -1.411877
v 2.003442 0.818624 -1.610874
v 1.986730 0.818667 -1.411516
v 1.986708 0.818763 -1.411201
v 1.986688 0.818909 -1.410943
v 1.986676 0.819092 -1.410748
v 1.986667 0.819300 -1.410626
v 1.986663 0.819521 -1.410587
v 1.986665 0.819748 -1.410634
v 1.986679 0.820241 -1.410834
v 1.986690 0.820754 -1.411021
v 1.986705 0.821290 -1.411189
v 1.986716 0.821852 -1.411331
v 1.986722 0.822447 -1.411444
v 1.986728 0.823078 -1.411525
v 1.986731 0.823633 -1.411566
v 2.003313 0.823633 -1.609353
v 2.003318 0.822714 -1.609400
v 2.003325 0.821865 -1.609526
v 2.003340 0.821105 -1.609718
v 2.003357 0.820414 -1.609961
v 2.003379 0.819777 -1.610247
v 2.003404 0.819210 -1.610561
v 2.003424 0.818842 -1.610787
v 1.986765 0.823633 -1.413291
v 1.986758 0.823633 -1.413018
v 1.986751 0.823633 -1.412748
v 1.986743 0.823633 -1.412455
v 1.986716 0.823633 -1.411865
v 1.986729 0.823633 -1.412209
v 1.986710 0.823075 -1.411800
v 1.986764 0.823087 -1.413227
v 1.986760 0.822461 -1.413091
v 1.986755 0.821836 -1.412916
v 1.986751 0.821210 -1.412752
v 1.986746 0.820585 -1.412555
v 1.986742 0.819882 -1.412402
v 1.986735 0.819244 -1.412140
v 1.986707 0.819274 -1.411786
v 1.986717 0.819908 -1.412059
v 1.986724 0.820585 -1.412224
v 1.986732 0.821210 -1.412432
v 1.986740 0.821836 -1.412608
v 1.986747 0.822461 -1.412795
v 1.986753 0.823087 -1.412941
v 1.986686 0.819342 -1.411463
v 1.986698 0.819959 -1.411741
v 1.986707 0.820585 -1.411922
v 1.986717 0.821210 -1.412137
v 1.986727 0.821836 -1.412319
v 1.986736 0.822461 -1.412512
v 1.986744 0.823087 -1.412660
v 1.986666 0.819435 -1.411178
v 1.986680 0.820032 -1.411452
v 1.986691 0.820585 -1.411647
v 1.986703 0.821210 -1.411858
v 1.986714 0.821836 -1.412037
v 1.986725 0.822461 -1.412226
v 1.986735 0.823087 -1.412383
v 1.986702 0.822443 -1.411682
v 1.986693 0.821836 -1.411531
v 1.986682 0.821249 -1.411360
v 1.986667 0.820680 -1.411162
v 1.986655 0.820184 -1.410968
v 1.986639 0.819636 -1.410720
v 1.986722 0.823087 -1.412133
v 1.986713 0.822457 -1.411987
v 1.986703 0.821839 -1.411806
v 1.986692 0.821229 -1.411620
v 1.986679 0.820628 -1.411402
v 1.986666 0.820105 -1.411196
v 1.986652 0.819528 -1.410922
v 2.003211 0.820423 -1.610000
v 2.003168 0.823633 -1.609393
v 1.986535 0.818887 -1.410938
v 1.986583 0.823633 -1.411552
v 2.003233 0.819788 -1.610284
v 2.003179 0.821870 -1.609565
v 1.986513 0.819291 -1.410612
v 1.986573 0.822450 -1.411430
v 1.986579 0.818640 -1.411523
v 1.986556 0.818738 -1.411202
v 2.003172 0.822716 -1.609440
v 1.986541 0.820762 -1.411008
v 1.986529 0.820250 -1.410821
v 1.986513 0.819755 -1.410620
v 1.986566 0.821857 -1.411317
v 2.003281 0.818606 -1.610914
v 1.986555 0.821296 -1.411175
v 1.986578 0.823080 -1.411511
v 1.986508 0.819521 -1.410571
v 1.986523 0.819076 -1.410738
v 1.986609 0.818606 -1.411889
v 2.003195 0.821112 -1.609757
v 2.003258 0.819223 -1.610597
v 2.003275 0.818854 -1.610826
v 2.003437 0.818624 -1.610798
v 2.003418 0.818843 -1.610711
v 2.003398 0.819211 -1.610485
v 2.003373 0.819778 -1.610172
v 2.003352 0.820415 -1.609887
v 2.003335 0.821105 -1.609645
v 2.003319 0.821866 -1.609453
v 2.003312 0.822714 -1.609328
v 2.003308 0.823633 -1.609281
v 2.003275 0.818606 -1.610838
v 1.668352 0.818633 -1.439667
v 1.686394 0.818624 -1.638545
v 1.668318 0.818667 -1.439305
v 1.668285 0.818763 -1.438992
v 1.668260 0.818909 -1.438734
v 1.668238 0.819092 -1.438540
v 1.668226 0.819300 -1.438419
v 1.668223 0.819521 -1.438379
v 1.668229 0.819748 -1.438426
v 1.668251 0.820241 -1.438625
v 1.668271 0.820754 -1.438812
v 1.668286 0.821290 -1.438979
v 1.668300 0.821852 -1.439121
v 1.668313 0.822447 -1.439234
v 1.668321 0.823078 -1.439314
v 1.668325 0.823633 -1.439356
v 1.686258 0.823633 -1.637025
v 1.686261 0.822714 -1.637072
v 1.686276 0.821865 -1.637197
v 1.686294 0.821105 -1.637388
v 1.686319 0.820414 -1.637631
v 1.686348 0.819777 -1.637916
v 1.686377 0.819210 -1.638230
v 1.686396 0.818842 -1.638456
v 1.668591 0.823633 -1.441060
v 1.668550 0.823633 -1.440790
v 1.668511 0.823633 -1.440522
v 1.668467 0.823633 -1.440233
v 1.668392 0.823633 -1.439647
v 1.668439 0.823633 -1.439988
v 1.668387 0.823075 -1.439582
v 1.668581 0.823087 -1.440996
v 1.668561 0.822461 -1.440862
v 1.668535 0.821836 -1.440689
v 1.668511 0.821210 -1.440527
v 1.668482 0.820585 -1.440332
v 1.668460 0.819882 -1.440180
v 1.668421 0.819244 -1.439921
v 1.668387 0.819274 -1.439568
v 1.668425 0.819908 -1.439838
v 1.668446 0.820585 -1.440002
v 1.668474 0.821210 -1.440209
v 1.668498 0.821836 -1.440383
v 1.668523 0.822461 -1.440568
v 1.668542 0.823087 -1.440713
v 1.668352 0.819342 -1.439247
v 1.668388 0.819959 -1.439521
v 1.668410 0.820585 -1.439702
v 1.668438 0.821210 -1.439915
v 1.668460 0.821836 -1.440096
v 1.668484 0.822461 -1.440288
v 1.668502 0.823087 -1.440435
v 1.668322 0.819435 -1.438962
v 1.668356 0.820032 -1.439234
v 1.668379 0.820585 -1.439428
v 1.668404 0.821210 -1.439638
v 1.668424 0.821836 -1.439816
v 1.668446 0.822461 -1.440004
v 1.668463 0.823087 -1.440161
v 1.668374 0.822443 -1.439464
v 1.668357 0.821836 -1.439314
v 1.668338 0.821249 -1.439144
v 1.668319 0.820680 -1.438946
v 1.668296 0.820184 -1.438753
v 1.668270 0.819636 -1.438506
v 1.668433 0.823087 -1.439912
v 1.668416 0.822457 -1.439767
v 1.668395 0.821839 -1.439587
v 1.668373 0.821229 -1.439401
v 1.668349 0.820628 -1.439184
v 1.668325 0.820105 -1.438980
v 1.668292 0.819528 -1.438707
v 1.686470 0.820423 -1.637644
v 1.686408 0.823633 -1.637039
v 1.668410 0.818887 -1.438703
v 1.668469 0.823633 -1.439316
v 1.686498 0.819788 -1.637927
v 1.686426 0.821870 -1.637210
v 1.668375 0.819291 -1.438378
v 1.668458 0.822450 -1.439194
v 1.668468 0.818640 -1.439286
v 1.668435 0.818738 -1.438967
v 1.686411 0.822716 -1.637086
v 1.668416 0.820762 -1.438772
v 1.668396 0.820250 -1.438587
v 1.668376 0.819755 -1.438386
v 1.668445 0.821857 -1.439082
v 1.686559 0.818606 -1.638556
v 1.668431 0.821296 -1.438940
v 1.668466 0.823080 -1.439274
v 1.668373 0.819521 -1.438336
v 1.668387 0.819076 -1.438504
v 1.668501 0.818606 -1.439652
v 1.686444 0.821112 -1.637401
v 1.686527 0.819223 -1.638240
v 1.686550 0.818854 -1.638468
v 1.686386 0.818624 -1.638468
v 1.686389 0.818843 -1.638380
v 1.686369 0.819211 -1.638155
v 1.686340 0.819778 -1.637841
v 1.686312 0.820415 -1.637558
v 1.686287 0.821106 -1.637315
v 1.686269 0.821866 -1.637124
v 1.686254 0.822715 -1.637000
v 1.686251 0.823633 -1.636953
v 1.686552 0.818606 -1.638480
v 1.687328 0.828661 -1.638411
v 1.687246 0.826843 -1.637574
v 1.687184 0.823633 -1.636970
v 1.687274 0.827478 -1.637858
v 1.687203 0.825396 -1.637141
v 1.687188 0.824550 -1.637017
v 1.687336 0.828661 -1.638487
v 1.687221 0.826155 -1.637332
v 1.687304 0.828044 -1.638171
v 1.687326 0.828413 -1.638399
v 1.669192 0.828379 -1.438633
v 1.669251 0.823633 -1.439246
v 1.669158 0.827976 -1.438308
v 1.669240 0.824816 -1.439124
v 1.669250 0.828626 -1.439217
v 1.669217 0.828528 -1.438897
v 1.669198 0.826505 -1.438703
v 1.669178 0.827016 -1.438517
v 1.669159 0.827511 -1.438316
v 1.669227 0.825409 -1.439012
v 1.669213 0.825970 -1.438870
v 1.669248 0.824186 -1.439205
v 1.669155 0.827746 -1.438267
v 1.669169 0.828191 -1.438434
v 1.669284 0.828661 -1.439582
v 1.687328 0.818606 -1.638411
v 1.687246 0.820423 -1.637574
v 1.687274 0.819788 -1.637858
v 1.687203 0.821870 -1.637141
v 1.687188 0.822716 -1.637017
v 1.687336 0.818606 -1.638487
v 1.687221 0.821112 -1.637332
v 1.687304 0.819223 -1.638171
v 1.687326 0.818854 -1.638399
v 1.669192 0.818887 -1.438633
v 1.669158 0.819291 -1.438308
v 1.669240 0.822450 -1.439124
v 1.669250 0.818640 -1.439217
v 1.669217 0.818738 -1.438897
v 1.669198 0.820762 -1.438703
v 1.669178 0.820250 -1.438517
v 1.669159 0.819755 -1.438316
v 1.669227 0.821857 -1.439012
v 1.669213 0.821296 -1.438870
v 1.669248 0.823080 -1.439205
v 1.669155 0.819521 -1.438267
v 1.669169 0.819076 -1.438434
v 1.669284 0.818606 -1.439582
v 2.002657 0.828660 -1.610891
v 2.002593 0.826843 -1.610052
v 2.002549 0.823633 -1.609446
v 2.002614 0.827478 -1.610337
v 2.002561 0.825396 -1.609618
v 2.002554 0.824550 -1.609493
v 2.002662 0.828660 -1.610967
v 2.002576 0.826155 -1.609810
v 2.002639 0.828044 -1.610650
v 2.002657 0.828413 -1.610879
v 1.985912 0.828379 -1.410991
v 1.985960 0.823633 -1.411605
v 1.985890 0.827976 -1.410665
v 1.985950 0.824816 -1.411483
v 1.985956 0.828626 -1.411576
v 1.985933 0.828528 -1.411255
v 1.985918 0.826505 -1.411061
v 1.985906 0.827016 -1.410874
v 1.985890 0.827511 -1.410673
v 1.985943 0.825409 -1.411371
v 1.985933 0.825970 -1.411228
v 1.985955 0.824186 -1.411564
v 1.985885 0.827746 -1.410624
v 1.985900 0.828191 -1.410791
v 1.985986 0.828661 -1.411942
v 2.002657 0.818606 -1.610891
v 2.002593 0.820423 -1.610052
v 2.002614 0.819788 -1.610337
v 2.002561 0.821870 -1.609618
v 2.002554 0.822716 -1.609493
v 2.002662 0.818606 -1.610967
v 2.002576 0.821112 -1.609810
v 2.002639 0.819223 -1.610650
v 2.002657 0.818854 -1.610879
v 1.985912 0.818887 -1.410991
v 1.985890 0.819291 -1.410665
v 1.985950 0.822450 -1.411483
v 1.985956 0.818640 -1.411576
v 1.985933 0.818738 -1.411255
v 1.985918 0.820762 -1.411061
v 1.985906 0.820250 -1.410874
v 1.985890 0.819755 -1.410673
v 1.985943 0.821857 -1.411371
v 1.985933 0.821296 -1.411228
v 1.985955 0.823080 -1.411564
v 1.985885 0.819521 -1.410624
v 1.985900 0.819076 -1.410791
v 1.985986 0.818606 -1.411942
vn 0.0830 0.9951 0.0537
vn 0.7602 0.6469 0.0593
vn 0.0539 0.9985 0.0041
vn 0.7540 0.6314 0.1810
vn 0.7738 0.6266 0.0922
vn 0.0549 0.9161 0.3972
vn 0.0707 0.9775 0.1989
vn 0.7317 0.5228 0.4373
vn 0.7442 0.5920 0.3095
vn 0.0251 0.6216 0.7829
vn 0.0390 0.8035 0.5941
vn 0.7197 0.2107 0.6615
vn 0.7253 0.4019 0.5590
vn 0.0126 0.3457 0.9382
vn 0.7495 -0.0236 0.6616
vn 0.0111 -0.2924 0.9562
vn 0.0078 -0.0152 0.9999
vn 0.0116 -0.3593 0.9332
vn 0.7845 -0.1576 0.5998
vn 0.7917 -0.1770 0.5847
vn 0.7966 -0.1982 0.5711
vn 0.0094 -0.2722 0.9622
vn 0.0092 -0.3205 0.9472
vn 0.0075 -0.2162 0.9763
vn 0.7906 -0.1497 0.5938
vn 0.7772 -0.0882 0.6230
vn 0.7855 -0.1209 0.6069
vn 0.0071 -0.1567 0.9876
vn 0.7699 -0.0563 0.6357
vn 0.0056 -0.0000 1.0000
vn 0.0066 -0.1009 0.9949
vn 0.8260 -0.1219 -0.5503
vn 0.1756 -0.0982 -0.9796
vn 0.1738 -0.1951 -0.9653
vn 0.8234 -0.1807 -0.5379
vn 0.1717 -0.2884 -0.9420
vn 0.8211 -0.2321 -0.5215
vn 0.1686 -0.3701 -0.9136
vn 0.8188 -0.2819 -0.5002
vn 0.1654 -0.4461 -0.8796
vn 0.9958 -0.0470 0.0786
vn 0.9964 -0.0286 0.0798
vn 0.8130 -0.3236 -0.4841
vn 0.1753 -0.0000 -0.9845
vn 0.8266 -0.0605 -0.5596
vn 0.8265 -0.0000 -0.5629
vn 0.1606 -0.4387 -0.8842
vn 0.6950 0.4321 -0.5746
vn 0.7877 -0.3218 -0.5253
vn 0.9970 -0.0401 0.0656
vn 0.9977 -0.0353 0.0577
vn 0.9982 -0.0331 0.0495
vn 0.9996 -0.0000 0.0278
vn 0.9982 -0.0052 0.0598
vn 0.9994 0.0026 0.0343
vn 0.9979 -0.0086 0.0638
vn 0.9991 -0.0001 0.0416
vn 0.9977 -0.0103 0.0672
vn 0.9988 -0.0024 0.0484
vn 0.9974 -0.0121 0.0711
vn 0.9985 -0.0049 0.0547
vn 0.9972 -0.0116 0.0739
vn 0.9982 -0.0057 0.0603
vn 0.9969 -0.0157 0.0773
vn 0.9978 -0.0097 0.0655
vn 0.9996 -0.0000 0.0275
vn 0.9994 0.0062 0.0327
vn 0.9992 0.0036 0.0386
vn 0.9990 0.0015 0.0447
vn 0.9987 -0.0009 0.0505
vn 0.9984 -0.0019 0.0567
vn 0.9981 -0.0056 0.0606
vn 0.9991 -0.0000 0.0424
vn 0.9990 0.0061 0.0439
vn 0.9990 0.0035 0.0453
vn 0.9989 0.0028 0.0461
vn 0.9988 0.0017 0.0496
vn 0.9985 0.0008 0.0556
vn 0.9983 -0.0023 0.0576
vn 0.7757 -0.0000 0.6311
vn 0.9998 0.0122 -0.0129
vn 1.0000 -0.0000 -0.0043
vn 0.9990 0.0052 0.0452
vn 0.9988 -0.0000 0.0481
vn 0.9996 0.0161 -0.0220
vn 0.9991 0.0038 0.0433
vn 0.9992 0.0233 -0.0333
vn 0.9991 0.0049 0.0411
vn 0.9988 0.0324 -0.0379
vn 0.9990 0.0057 0.0435
vn 0.9987 0.0045 0.0503
vn 0.9985 0.0378 -0.0383
vn 0.9987 0.0019 0.0512
vn 0.9982 0.0422 -0.0430
vn 0.9986 -0.0379 0.0379
vn 0.9968 0.0101 -0.0795
vn 0.1628 -0.5044 -0.8480
vn 0.9968 -0.0025 0.0804
vn 0.9968 0.0009 0.0799
vn 0.9968 0.0033 0.0802
vn 0.9968 0.0013 0.0797
vn 0.9967 0.0019 0.0810
vn 0.9968 0.0015 0.0803
vn 0.9984 -0.0000 0.0573
vn 0.9968 -0.0000 0.0802
vn -0.0040 0.9989 0.0466
vn -0.0000 1.0000 -0.0002
vn -0.0167 0.9811 0.1927
vn -0.0339 0.9195 0.3916
vn -0.0510 0.8062 0.5895
vn -0.0673 0.6240 0.7785
vn -0.0807 0.3476 0.9342
vn -0.0823 -0.2937 0.9523
vn -0.0861 -0.0151 0.9962
vn -0.0802 -0.3604 0.9294
vn -0.0827 -0.2731 0.9584
vn -0.0815 -0.3215 0.9434
vn -0.0840 -0.2167 0.9726
vn -0.0849 -0.1571 0.9839
vn -0.0860 -0.0000 0.9963
vn -0.0857 -0.1012 0.9912
vn 0.0855 -0.0988 -0.9914
vn 0.0843 -0.1963 -0.9769
vn 0.0823 -0.2899 -0.9535
vn 0.0798 -0.3716 -0.9249
vn 0.0770 -0.4481 -0.8906
vn 0.0862 -0.0000 -0.9963
vn 0.0776 -0.4342 -0.8975
vn 0.1605 0.5729 -0.8037
vn 0.0742 -0.5068 -0.8589
vn 0.0703 0.5762 -0.8143
vn -0.7582 0.6480 -0.0728
vn -0.0912 0.9951 0.0384
vn -0.0540 0.9985 -0.0053
vn -0.7740 0.6315 0.0473
vn -0.1042 0.9775 0.1833
vn -0.1231 0.9161 0.3816
vn -0.7965 0.5226 0.3040
vn -0.1414 0.8032 0.5787
vn -0.1600 0.6218 0.7666
vn -0.8236 0.2108 0.5265
vn -0.1747 0.3459 0.9219
vn -0.8528 -0.0249 0.5217
vn -0.1808 -0.0152 0.9834
vn -0.1765 -0.2924 0.9399
vn -0.8763 -0.1580 0.4550
vn -0.1741 -0.3588 0.9170
vn -0.8815 -0.1772 0.4377
vn -0.1743 -0.3209 0.9309
vn -0.1751 -0.2722 0.9462
vn -0.8811 -0.1496 0.4486
vn -0.1762 -0.2163 0.9603
vn -0.8735 -0.0883 0.4788
vn -0.1787 -0.1569 0.9713
vn -0.1790 -0.1008 0.9787
vn -0.8683 -0.0562 0.4928
vn -0.1789 -0.0000 0.9839
vn -0.0028 -0.0982 -0.9952
vn -0.7167 -0.1215 -0.6867
vn -0.0028 -0.1951 -0.9808
vn -0.7190 -0.1809 -0.6711
vn -0.0068 -0.2887 -0.9574
vn -0.7174 -0.2324 -0.6568
vn -0.0070 -0.3698 -0.9291
vn -0.7202 -0.2813 -0.6341
vn -0.0110 -0.4459 -0.8950
vn -0.9944 -0.0469 -0.0951
vn -0.9952 -0.0279 -0.0943
vn -0.7157 -0.3240 -0.6187
vn -0.0128 -0.5044 -0.8634
vn -0.0023 -0.0000 -1.0000
vn -0.7173 -0.0606 -0.6941
vn -0.0047 -0.4389 -0.8985
vn -0.5844 0.4335 -0.6860
vn -0.0178 0.5729 -0.8195
vn -0.9933 -0.0401 -0.1081
vn -0.7781 0.6267 -0.0434
vn -0.9926 -0.0353 -0.1160
vn -0.9917 -0.0330 -0.1241
vn -0.7866 0.5917 0.1763
vn -0.9893 -0.0000 -0.1458
vn -0.9935 -0.0048 -0.1139
vn -0.9932 -0.0000 -0.1164
vn -0.9902 0.0027 -0.1394
vn -0.9939 -0.0086 -0.1100
vn -0.9912 -0.0001 -0.1320
vn -0.9943 -0.0102 -0.1066
vn -0.9921 -0.0024 -0.1254
vn -0.9946 -0.0122 -0.1028
vn -0.9929 -0.0049 -0.1192
vn -0.9949 -0.0118 -0.0999
vn -0.9935 -0.0056 -0.1136
vn -0.9952 -0.0156 -0.0965
vn -0.9941 -0.0095 -0.1084
vn -0.9892 -0.0000 -0.1464
vn -0.9900 0.0063 -0.1411
vn -0.9908 0.0036 -0.1351
vn -0.9916 0.0014 -0.1291
vn -0.9924 -0.0008 -0.1232
vn -0.9931 -0.0021 -0.1174
vn -0.9936 -0.0055 -0.1133
vn -0.9913 -0.0000 -0.1313
vn -0.9915 0.0063 -0.1296
vn -0.9917 0.0035 -0.1285
vn -0.9918 0.0028 -0.1275
vn -0.9923 0.0017 -0.1240
vn -0.9930 0.0005 -0.1182
vn -0.9932 -0.0025 -0.1163
vn -0.8734 -0.0000 0.4871
vn -0.9824 0.0123 -0.1862
vn -0.9841 -0.0000 -0.1776
vn -0.9917 0.0054 -0.1285
vn -0.9921 -0.0000 -0.1255
vn -0.9807 0.0160 -0.1948
vn -0.9914 0.0037 -0.1306
vn -0.9783 0.0234 -0.2060
vn -0.9911 0.0047 -0.1328
vn -0.8787 -0.1209 0.4619
vn -0.9771 0.0324 -0.2102
vn -0.9915 0.0057 -0.1302
vn -0.9923 0.0044 -0.1235
vn -0.8837 -0.1978 0.4242
vn -0.9768 0.0377 -0.2108
vn -0.9924 0.0016 -0.1228
vn -0.9758 0.0416 -0.2147
vn -0.9900 -0.0377 -0.1356
vn -0.9680 0.0099 -0.2506
vn -0.8110 0.4021 0.4251
vn -0.6848 -0.3213 -0.6540
vn -0.9955 -0.0036 -0.0943
vn -0.9956 0.0011 -0.0939
vn -0.9956 0.0027 -0.0941
vn -0.9956 0.0016 -0.0936
vn -0.9956 0.0021 -0.0937
vn -0.9957 0.0016 -0.0930
vn -0.9957 -0.0000 -0.0930
vn -0.0041 0.9989 0.0465
vn -0.0000 1.0000 -0.0005
vn -0.0170 0.9811 0.1928
vn -0.0346 0.9194 0.3917
vn -0.0520 0.8060 0.5896
vn -0.0687 0.6241 0.7783
vn -0.0824 0.3479 0.9339
vn -0.0879 -0.0153 0.9960
vn -0.0840 -0.2937 0.9522
vn -0.0820 -0.3603 0.9292
vn -0.0832 -0.3219 0.9431
vn -0.0844 -0.2733 0.9582
vn -0.0857 -0.2166 0.9725
vn -0.0868 -0.1572 0.9837
vn -0.0875 -0.1012 0.9910
vn -0.0879 -0.0000 0.9961
vn 0.0874 -0.0988 -0.9913
vn 0.0861 -0.1962 -0.9768
vn 0.0840 -0.2898 -0.9534
vn 0.0816 -0.3717 -0.9248
vn 0.0786 -0.4481 -0.8905
vn 0.0757 -0.5069 -0.8587
vn 0.0879 -0.0000 -0.9961
vn 0.0791 -0.4346 -0.8971
vn 0.0717 0.5757 -0.8145
vn -0.7172 -0.0000 -0.6969
vn 0.7602 -0.6470 0.0598
vn 0.0831 -0.9951 0.0537
vn 0.0540 -0.9985 0.0043
vn 0.7541 -0.6314 0.1809
vn 0.0708 -0.9775 0.1988
vn 0.0550 -0.9161 0.3972
vn 0.7316 -0.5229 0.4374
vn 0.0389 -0.8034 0.5941
vn 0.0251 -0.6217 0.7828
vn 0.7198 -0.2108 0.6614
vn 0.0127 -0.3457 0.9382
vn 0.7496 0.0235 0.6615
vn 0.0078 0.0153 0.9999
vn 0.0112 0.2923 0.9563
vn 0.7843 0.1576 0.6000
vn 0.0115 0.3594 0.9331
vn 0.7918 0.1771 0.5845
vn 0.0096 0.3205 0.9472
vn 0.0090 0.2722 0.9622
vn 0.7903 0.1496 0.5941
vn 0.0076 0.2162 0.9763
vn 0.7772 0.0881 0.6230
vn 0.0072 0.1567 0.9876
vn 0.0068 0.1009 0.9949
vn 0.7700 0.0563 0.6356
vn 0.1761 0.0982 -0.9795
vn 0.8260 0.1220 -0.5503
vn 0.1738 0.1952 -0.9652
vn 0.8235 0.1807 -0.5378
vn 0.1717 0.2884 -0.9420
vn 0.8211 0.2319 -0.5215
vn 0.1688 0.3700 -0.9136
vn 0.8189 0.2818 -0.4999
vn 0.1656 0.4461 -0.8795
vn 0.9958 0.0470 0.0786
vn 0.9964 0.0284 0.0798
vn 0.8129 0.3235 -0.4842
vn 0.1628 0.5044 -0.8480
vn 0.1606 0.4387 -0.8842
vn 0.6953 -0.4325 -0.5740
vn 0.1605 -0.5731 -0.8036
vn 0.9970 0.0401 0.0656
vn 0.7738 -0.6266 0.0922
vn 0.9977 0.0353 0.0577
vn 0.9982 0.0331 0.0495
vn 0.7442 -0.5919 0.3096
vn 0.9982 0.0051 0.0598
vn 0.9994 -0.0026 0.0344
vn 0.9979 0.0086 0.0638
vn 0.9991 0.0001 0.0416
vn 0.9977 0.0102 0.0672
vn 0.9988 0.0024 0.0484
vn 0.9974 0.0121 0.0711
vn 0.9985 0.0049 0.0547
vn 0.9972 0.0116 0.0739
vn 0.9982 0.0057 0.0603
vn 0.9969 0.0157 0.0773
vn 0.9978 0.0097 0.0655
vn 0.9994 -0.0062 0.0327
vn 0.9992 -0.0036 0.0386
vn 0.9990 -0.0015 0.0447
vn 0.9987 0.0009 0.0505
vn 0.9984 0.0019 0.0566
vn 0.9981 0.0056 0.0606
vn 0.9990 -0.0061 0.0439
vn 0.9990 -0.0035 0.0453
vn 0.9989 -0.0028 0.0461
vn 0.9988 -0.0017 0.0496
vn 0.9985 -0.0008 0.0556
vn 0.9983 0.0023 0.0576
vn 0.9998 -0.0122 -0.0129
vn 0.9990 -0.0052 0.0452
vn 0.9996 -0.0161 -0.0220
vn 0.9991 -0.0038 0.0433
vn 0.9992 -0.0232 -0.0333
vn 0.9991 -0.0049 0.0411
vn 0.7856 0.1209 0.6067
vn 0.9988 -0.0323 -0.0379
vn 0.9990 -0.0057 0.0435
vn 0.9987 -0.0045 0.0503
vn 0.7965 0.1985 0.5712
vn 0.9985 -0.0378 -0.0384
vn 0.9987 -0.0019 0.0512
vn 0.9982 -0.0422 -0.0430
vn 0.9986 0.0380 0.0379
vn 0.9968 -0.0099 -0.0794
vn 0.7253 -0.4020 0.5588
vn 0.7877 0.3219 -0.5253
vn 0.9968 0.0025 0.0802
vn 0.9968 -0.0009 0.0800
vn 0.9968 -0.0033 0.0802
vn 0.9968 -0.0012 0.0797
vn 0.9967 -0.0019 0.0810
vn 0.9968 -0.0015 0.0802
vn -0.0040 -0.9989 0.0465
vn -0.0000 -1.0000 0.0003
vn -0.0167 -0.9811 0.1928
vn -0.0339 -0.9194 0.3918
vn -0.0510 -0.8062 0.5895
vn -0.0673 -0.6241 0.7784
vn -0.0807 -0.3477 0.9341
vn -0.0861 0.0151 0.9962
vn -0.0822 0.2937 0.9524
vn -0.0802 0.3604 0.9294
vn -0.0815 0.3215 0.9434
vn -0.0827 0.2731 0.9584
vn -0.0840 0.2167 0.9726
vn -0.0849 0.1571 0.9839
vn -0.0857 0.1012 0.9912
vn 0.0856 0.0988 -0.9914
vn 0.0843 0.1962 -0.9769
vn 0.0823 0.2899 -0.9535
vn 0.0798 0.3717 -0.9249
vn 0.0770 0.4481 -0.8906
vn 0.0742 0.5069 -0.8588
vn 0.0776 0.4342 -0.8975
vn 0.0703 -0.5767 -0.8139
vn 0.8268 0.0605 -0.5592
vn -0.0910 -0.9951 0.0385
vn -0.7582 -0.6479 -0.0728
vn -0.0540 -0.9985 -0.0055
vn -0.7740 -0.6314 0.0474
vn -0.7779 -0.6269 -0.0433
vn -0.1231 -0.9161 0.3816
vn -0.1042 -0.9775 0.1835
vn -0.7965 -0.5226 0.3041
vn -0.7866 -0.5918 0.1763
vn -0.1601 -0.6217 0.7667
vn -0.1414 -0.8033 0.5786
vn -0.8237 -0.2107 0.5265
vn -0.8110 -0.4021 0.4249
vn -0.1746 -0.3458 0.9219
vn -0.8528 0.0250 0.5216
vn -0.1765 0.2925 0.9398
vn -0.1808 0.0153 0.9834
vn -0.1740 0.3588 0.9171
vn -0.8763 0.1581 0.4550
vn -0.8813 0.1773 0.4380
vn -0.8836 0.1978 0.4244
vn -0.1754 0.2721 0.9461
vn -0.1738 0.3209 0.9310
vn -0.1763 0.2162 0.9603
vn -0.8813 0.1495 0.4483
vn -0.8732 0.0884 0.4792
vn -0.8787 0.1208 0.4618
vn -0.1787 0.1008 0.9787
vn -0.1782 0.1569 0.9714
vn -0.8682 0.0562 0.4930
vn -0.7168 0.1215 -0.6866
vn -0.0028 0.0982 -0.9952
vn -0.0029 0.1951 -0.9808
vn -0.7186 0.1810 -0.6715
vn -0.0063 0.2887 -0.9574
vn -0.7173 0.2325 -0.6569
vn -0.0068 0.3699 -0.9291
vn -0.7203 0.2814 -0.6341
vn -0.0111 0.4460 -0.8949
vn -0.9944 0.0469 -0.0951
vn -0.9952 0.0280 -0.0943
vn -0.7160 0.3239 -0.6185
vn -0.7173 0.0605 -0.6942
vn -0.0046 0.4390 -0.8985
vn -0.5847 -0.4334 -0.6858
vn -0.6848 0.3213 -0.6541
vn -0.9933 0.0402 -0.1081
vn -0.9926 0.0352 -0.1159
vn -0.9917 0.0329 -0.1241
vn -0.9935 0.0049 -0.1139
vn -0.9902 -0.0027 -0.1394
vn -0.9939 0.0086 -0.1100
vn -0.9912 0.0001 -0.1320
vn -0.9943 0.0102 -0.1066
vn -0.9921 0.0024 -0.1254
vn -0.9946 0.0122 -0.1028
vn -0.9929 0.0049 -0.1192
vn -0.9949 0.0118 -0.0999
vn -0.9935 0.0056 -0.1136
vn -0.9952 0.0156 -0.0965
vn -0.9941 0.0095 -0.1084
vn -0.9900 -0.0063 -0.1411
vn -0.9908 -0.0036 -0.1351
vn -0.9916 -0.0014 -0.1291
vn -0.9924 0.0008 -0.1232
vn -0.9931 0.0021 -0.1174
vn -0.9935 0.0055 -0.1133
vn -0.9915 -0.0063 -0.1296
vn -0.9917 -0.0035 -0.1284
vn -0.9918 -0.0028 -0.1275
vn -0.9923 -0.0017 -0.1240
vn -0.9930 -0.0005 -0.1181
vn -0.9932 0.0025 -0.1163
vn -0.9824 -0.0123 -0.1862
vn -0.9917 -0.0054 -0.1285
vn -0.9807 -0.0160 -0.1948
vn -0.9914 -0.0037 -0.1306
vn -0.9783 -0.0234 -0.2060
vn -0.9911 -0.0047 -0.1327
vn -0.9771 -0.0324 -0.2103
vn -0.9915 -0.0057 -0.1302
vn -0.9923 -0.0044 -0.1235
vn -0.9768 -0.0377 -0.2107
vn -0.9924 -0.0016 -0.1228
vn -0.9758 -0.0416 -0.2147
vn -0.9900 0.0376 -0.1357
vn -0.9680 -0.0100 -0.2507
vn -0.0130 0.5044 -0.8634
vn -0.9955 0.0036 -0.0943
vn -0.9956 -0.0011 -0.0939
vn -0.9956 -0.0027 -0.0940
vn -0.9956 -0.0016 -0.0937
vn -0.9956 -0.0021 -0.0937
vn -0.9957 -0.0015 -0.0930
vn -0.0041 -0.9989 0.0464
vn -0.0170 -0.9811 0.1925
vn -0.0345 -0.9196 0.3914
vn -0.0520 -0.8061 0.5894
vn -0.0687 -0.6239 0.7785
vn -0.0824 -0.3476 0.9340
vn -0.0840 0.2937 0.9522
vn -0.0878 0.0154 0.9960
vn -0.0820 0.3603 0.9292
vn -0.0845 0.2733 0.9582
vn -0.0833 0.3218 0.9431
vn -0.0858 0.2167 0.9725
vn -0.0868 0.1572 0.9837
vn -0.0875 0.1012 0.9910
vn 0.0874 0.0989 -0.9913
vn 0.0860 0.1963 -0.9768
vn 0.0840 0.2898 -0.9534
vn 0.0815 0.3717 -0.9248
vn 0.0785 0.4481 -0.8905
vn 0.0791 0.4344 -0.8972
vn -0.0180 -0.5727 -0.8196
vn 0.0757 0.5068 -0.8587
vn 0.0717 -0.5765 -0.8139
vt 0.254785 0.509614
vt 0.256796 0.289858
vt 0.257041 0.289830
vt 0.254521 0.511068
vt 0.254531 0.509612
vt 0.254764 0.512402
vt 0.254778 0.511071
vt 0.254497 0.513614
vt 0.254506 0.512400
vt 0.254743 0.514729
vt 0.254756 0.513616
vt 0.254475 0.515748
vt 0.254483 0.514727
vt 0.254735 0.515752
vt 0.254456 0.516702
vt 0.840911 0.338764
vt 0.841166 0.339699
vt 0.840915 0.339721
vt 0.840910 0.336639
vt 0.841156 0.338763
vt 0.841143 0.334472
vt 0.841150 0.336639
vt 0.840904 0.332239
vt 0.840903 0.334473
vt 0.840902 0.329929
vt 0.841143 0.332239
vt 0.841136 0.327514
vt 0.841141 0.329929
vt 0.840897 0.327514
vt 0.841134 0.324971
vt 0.840898 0.322750
vt 0.840895 0.324971
vt 0.254391 0.275770
vt 0.254459 0.272143
vt 0.254701 0.275739
vt 0.254776 0.279032
vt 0.255067 0.278989
vt 0.255261 0.282014
vt 0.255531 0.281965
vt 0.255833 0.284781
vt 0.256066 0.284734
vt 0.256884 0.289525
vt 0.046114 0.285984
vt 0.256745 0.288686
vt 0.256474 0.287247
vt 0.254371 0.268263
vt 0.254138 0.272159
vt 0.254041 0.268263
vt 0.257021 0.288769
vt 0.256953 0.289575
vt 0.256905 0.288788
vt 0.044763 0.285857
vt 0.045114 0.288437
vt 0.043735 0.288293
vt 0.043536 0.285577
vt 0.042537 0.287902
vt 0.042450 0.285198
vt 0.041554 0.287312
vt 0.049501 0.268360
vt 0.050293 0.270554
vt 0.049206 0.270553
vt 0.049773 0.273065
vt 0.048647 0.273063
vt 0.049102 0.275577
vt 0.047932 0.275573
vt 0.048472 0.278087
vt 0.047255 0.278083
vt 0.047716 0.280599
vt 0.046454 0.280594
vt 0.047122 0.283421
vt 0.045814 0.283312
vt 0.048475 0.268360
vt 0.048141 0.270552
vt 0.047573 0.273061
vt 0.046833 0.275569
vt 0.046131 0.278078
vt 0.045304 0.280589
vt 0.044601 0.283104
vt 0.047365 0.268361
vt 0.047090 0.270551
vt 0.046489 0.273058
vt 0.045760 0.275565
vt 0.045071 0.278074
vt 0.044256 0.280584
vt 0.043501 0.282803
vt 0.044005 0.268362
vt 0.044877 0.270595
vt 0.043846 0.270582
vt 0.045127 0.268361
vt 0.046141 0.270550
vt 0.046430 0.268361
vt 0.044422 0.273127
vt 0.043531 0.273107
vt 0.045580 0.273074
vt 0.043839 0.275559
vt 0.043090 0.275488
vt 0.044885 0.275551
vt 0.043179 0.277912
vt 0.042535 0.277743
vt 0.044164 0.277995
vt 0.041883 0.279893
vt 0.043322 0.280407
vt 0.042411 0.280192
vt 0.041160 0.281951
vt 0.042528 0.282507
vt 0.041659 0.282186
vt 0.040389 0.283933
vt 0.041474 0.284821
vt 0.040708 0.284385
vt 0.040204 0.284846
vt 0.040354 0.285735
vt 0.040815 0.286572
vt 0.256636 0.287219
vt 0.256263 0.287145
vt 0.255554 0.284711
vt 0.254950 0.281964
vt 0.254445 0.278996
vt 0.254044 0.275747
vt 0.253780 0.272147
vt 0.050537 0.268359
vt 0.253675 0.268263
vt 0.255735 0.509623
vt 0.257873 0.289876
vt 0.255727 0.511079
vt 0.255713 0.512411
vt 0.255704 0.513624
vt 0.255691 0.514737
vt 0.255683 0.515763
vt 0.254720 0.516729
vt 0.839999 0.338766
vt 0.840000 0.339725
vt 0.839997 0.336640
vt 0.839992 0.332240
vt 0.839991 0.334474
vt 0.839989 0.329930
vt 0.839984 0.327515
vt 0.839984 0.322750
vt 0.839982 0.324971
vt 0.255481 0.272097
vt 0.255705 0.275648
vt 0.256043 0.278856
vt 0.256473 0.281801
vt 0.256951 0.284554
vt 0.255403 0.268263
vt 0.257707 0.288662
vt 0.257114 0.289618
vt 0.257407 0.287054
vt 0.257825 0.289612
vt 0.548872 0.291333
vt 0.548747 0.511071
vt 0.548643 0.291304
vt 0.548997 0.512525
vt 0.548740 0.512526
vt 0.548742 0.513857
vt 0.548997 0.515073
vt 0.548738 0.515072
vt 0.548739 0.516185
vt 0.548996 0.517205
vt 0.548736 0.517206
vt 0.549004 0.518156
vt 0.548741 0.518180
vt 0.558097 0.339684
vt 0.558351 0.338750
vt 0.558347 0.339706
vt 0.558106 0.338750
vt 0.558351 0.336627
vt 0.558118 0.334458
vt 0.558357 0.334459
vt 0.558357 0.332225
vt 0.558118 0.332225
vt 0.558359 0.329914
vt 0.558125 0.327501
vt 0.558364 0.327501
vt 0.558366 0.324960
vt 0.558127 0.324960
vt 0.558364 0.322740
vt 0.551894 0.273186
vt 0.551869 0.276960
vt 0.551549 0.276914
vt 0.551374 0.280333
vt 0.551075 0.280275
vt 0.550775 0.283406
vt 0.550499 0.283343
vt 0.550084 0.286246
vt 0.549850 0.286186
vt 0.774861 0.286155
vt 0.548772 0.291078
vt 0.548962 0.290230
vt 0.549321 0.288760
vt 0.549165 0.288715
vt 0.552075 0.269153
vt 0.552228 0.273214
vt 0.548701 0.290269
vt 0.548716 0.291077
vt 0.548571 0.291106
vt 0.776316 0.286078
vt 0.775826 0.288829
vt 0.777643 0.285832
vt 0.777311 0.288735
vt 0.778823 0.285474
vt 0.778613 0.288368
vt 0.772007 0.267107
vt 0.771059 0.269425
vt 0.770894 0.267061
vt 0.772226 0.269473
vt 0.771506 0.272143
vt 0.772714 0.272191
vt 0.772115 0.274867
vt 0.773371 0.274914
vt 0.772681 0.277586
vt 0.773985 0.277636
vt 0.773381 0.280313
vt 0.774734 0.280363
vt 0.773894 0.283365
vt 0.775300 0.283305
vt 0.773108 0.267153
vt 0.773369 0.269519
vt 0.773867 0.272236
vt 0.774550 0.274959
vt 0.775191 0.277681
vt 0.775967 0.280408
vt 0.776609 0.283135
vt 0.774300 0.267202
vt 0.774497 0.269565
vt 0.775030 0.272281
vt 0.775700 0.275003
vt 0.776328 0.277723
vt 0.777089 0.280450
vt 0.777802 0.282860
vt 0.777905 0.267353
vt 0.776870 0.269711
vt 0.776702 0.267303
vt 0.775515 0.269607
vt 0.775303 0.267244
vt 0.777976 0.269743
vt 0.777243 0.272448
vt 0.776004 0.272339
vt 0.778200 0.272467
vt 0.777761 0.275081
vt 0.776639 0.275027
vt 0.778566 0.275039
vt 0.778363 0.277633
vt 0.777303 0.277679
vt 0.779663 0.279814
vt 0.779060 0.277481
vt 0.778099 0.280301
vt 0.780347 0.282050
vt 0.779084 0.280110
vt 0.778857 0.282586
vt 0.781087 0.284207
vt 0.779802 0.282280
vt 0.779886 0.285111
vt 0.781246 0.285194
vt 0.780726 0.284677
vt 0.781047 0.286140
vt 0.780517 0.287017
vt 0.548807 0.290311
vt 0.549534 0.288671
vt 0.550370 0.286187
vt 0.551096 0.283367
vt 0.551717 0.280310
vt 0.552229 0.276951
vt 0.552601 0.273216
vt 0.552804 0.269171
vt 0.547555 0.511071
vt 0.547599 0.291314
vt 0.547549 0.512525
vt 0.547550 0.513856
vt 0.547547 0.515070
vt 0.547549 0.516183
vt 0.547547 0.517208
vt 0.547544 0.518182
vt 0.559495 0.338753
vt 0.559495 0.339710
vt 0.559497 0.336628
vt 0.559503 0.334460
vt 0.559502 0.332227
vt 0.559505 0.329915
vt 0.559510 0.327502
vt 0.559511 0.324960
vt 0.559510 0.322740
vt 0.550581 0.273091
vt 0.550260 0.276758
vt 0.549822 0.280064
vt 0.549294 0.283091
vt 0.548720 0.285910
vt 0.548180 0.288453
vt 0.550746 0.269123
vt 0.547827 0.290081
vt 0.547670 0.291043
vt 0.552421 0.269162
vt 0.256740 0.246666
vt 0.255744 0.026190
vt 0.256982 0.246691
vt 0.255471 0.024737
vt 0.255729 0.024733
vt 0.255700 0.023398
vt 0.255413 0.022181
vt 0.255675 0.022175
vt 0.255643 0.021050
vt 0.255346 0.020001
vt 0.255622 0.020000
vt 0.255348 0.019023
vt 0.255619 0.019001
vt 0.841164 0.305795
vt 0.840910 0.306730
vt 0.840913 0.305772
vt 0.841154 0.306731
vt 0.840909 0.308855
vt 0.841143 0.311023
vt 0.840903 0.311023
vt 0.840904 0.313257
vt 0.841143 0.313257
vt 0.840902 0.315570
vt 0.841136 0.317984
vt 0.840897 0.317984
vt 0.840895 0.320527
vt 0.841134 0.320527
vt 0.254455 0.264382
vt 0.254383 0.260754
vt 0.254693 0.260785
vt 0.254762 0.257491
vt 0.255053 0.257534
vt 0.255241 0.254508
vt 0.255511 0.254556
vt 0.255806 0.251739
vt 0.256039 0.251785
vt 0.046100 0.250744
vt 0.256839 0.246997
vt 0.256704 0.247835
vt 0.256439 0.249273
vt 0.256601 0.249299
vt 0.256978 0.247750
vt 0.256901 0.246947
vt 0.257061 0.246902
vt 0.044749 0.250874
vt 0.045097 0.248293
vt 0.043523 0.251155
vt 0.043718 0.248439
vt 0.042438 0.251535
vt 0.042520 0.248833
vt 0.050292 0.266167
vt 0.049205 0.266168
vt 0.049770 0.263655
vt 0.048644 0.263658
vt 0.049097 0.261145
vt 0.047926 0.261149
vt 0.048464 0.258636
vt 0.047248 0.258641
vt 0.047706 0.256125
vt 0.046445 0.256132
vt 0.047110 0.253304
vt 0.045803 0.253415
vt 0.048140 0.266169
vt 0.047570 0.263661
vt 0.046828 0.261154
vt 0.046124 0.258646
vt 0.045296 0.256138
vt 0.044591 0.253625
vt 0.047089 0.266171
vt 0.046486 0.263664
vt 0.045756 0.261159
vt 0.045065 0.258651
vt 0.044249 0.256143
vt 0.043492 0.253927
vt 0.044876 0.266128
vt 0.046140 0.266172
vt 0.043845 0.266142
vt 0.044420 0.263597
vt 0.045578 0.263649
vt 0.043529 0.263617
vt 0.043835 0.261167
vt 0.044881 0.261173
vt 0.043087 0.261237
vt 0.043174 0.258815
vt 0.044159 0.258731
vt 0.041879 0.256836
vt 0.042531 0.258983
vt 0.043315 0.256321
vt 0.041155 0.254781
vt 0.042406 0.256537
vt 0.042520 0.254224
vt 0.040381 0.252803
vt 0.041653 0.254546
vt 0.041463 0.251914
vt 0.040195 0.251891
vt 0.040699 0.252351
vt 0.040342 0.251002
vt 0.040801 0.250165
vt 0.256863 0.247731
vt 0.256228 0.249377
vt 0.255527 0.251811
vt 0.254930 0.254559
vt 0.254431 0.257527
vt 0.254035 0.260777
vt 0.253775 0.264378
vt 0.256699 0.026181
vt 0.257811 0.246645
vt 0.256681 0.024716
vt 0.256654 0.023379
vt 0.256633 0.022154
vt 0.256609 0.021034
vt 0.256597 0.019992
vt 0.256595 0.019003
vt 0.839998 0.306728
vt 0.839998 0.305769
vt 0.839996 0.308854
vt 0.839991 0.311022
vt 0.839991 0.313256
vt 0.839989 0.315570
vt 0.839984 0.317983
vt 0.839982 0.320527
vt 0.255478 0.264427
vt 0.255698 0.260875
vt 0.256031 0.257665
vt 0.256454 0.254718
vt 0.256925 0.251962
vt 0.257374 0.249459
vt 0.257663 0.247850
vt 0.257771 0.246904
vt 0.254133 0.264367
vt 0.550670 0.026136
vt 0.549771 0.246583
vt 0.549530 0.246619
vt 0.550928 0.024676
vt 0.550925 0.026137
vt 0.550677 0.023339
vt 0.550670 0.024675
vt 0.550939 0.022121
vt 0.550936 0.023340
vt 0.550686 0.021004
vt 0.550679 0.022120
vt 0.550948 0.019982
vt 0.550947 0.021005
vt 0.550688 0.019979
vt 0.550961 0.019027
vt 0.558349 0.306729
vt 0.558095 0.305795
vt 0.558345 0.305773
vt 0.558350 0.308853
vt 0.558104 0.306730
vt 0.558117 0.311021
vt 0.558109 0.308853
vt 0.558356 0.313254
vt 0.558356 0.311021
vt 0.558359 0.315566
vt 0.558117 0.313255
vt 0.558125 0.317979
vt 0.558120 0.315566
vt 0.558366 0.320520
vt 0.558364 0.317979
vt 0.558127 0.320520
vt 0.552207 0.261324
vt 0.552065 0.265110
vt 0.551879 0.261354
vt 0.551856 0.257908
vt 0.551547 0.257951
vt 0.551386 0.254779
vt 0.551100 0.254830
vt 0.550814 0.251873
vt 0.550566 0.251925
vt 0.549724 0.246871
vt 0.776459 0.248306
vt 0.549876 0.247758
vt 0.550156 0.249283
vt 0.552404 0.265099
vt 0.549576 0.247711
vt 0.549628 0.246856
vt 0.549704 0.247670
vt 0.777921 0.248506
vt 0.777640 0.245692
vt 0.779142 0.245895
vt 0.779246 0.248868
vt 0.780443 0.246370
vt 0.780413 0.249337
vt 0.781503 0.247062
vt 0.771256 0.264716
vt 0.772423 0.264766
vt 0.771928 0.262043
vt 0.773137 0.262096
vt 0.772764 0.259376
vt 0.774021 0.259434
vt 0.773558 0.256708
vt 0.774865 0.256770
vt 0.774488 0.254041
vt 0.775846 0.254108
vt 0.775258 0.251029
vt 0.776664 0.251210
vt 0.773566 0.264815
vt 0.774290 0.262148
vt 0.775200 0.259490
vt 0.776072 0.256829
vt 0.777083 0.254171
vt 0.777966 0.251496
vt 0.774694 0.264864
vt 0.775453 0.262201
vt 0.776350 0.259544
vt 0.777210 0.256885
vt 0.778210 0.254230
vt 0.779142 0.251880
vt 0.777070 0.264917
vt 0.778176 0.264978
vt 0.775712 0.264907
vt 0.777672 0.262221
vt 0.778627 0.262283
vt 0.776428 0.262225
vt 0.778410 0.259642
vt 0.779209 0.259753
vt 0.777289 0.259600
vt 0.779231 0.257154
vt 0.779911 0.257367
vt 0.778179 0.257015
vt 0.780722 0.255102
vt 0.779206 0.254471
vt 0.780173 0.254752
vt 0.781620 0.252937
vt 0.780177 0.252254
vt 0.781097 0.252652
vt 0.782586 0.250844
vt 0.781461 0.249806
vt 0.782270 0.250331
vt 0.782854 0.249861
vt 0.782756 0.248874
vt 0.782287 0.247916
vt 0.549981 0.249326
vt 0.550382 0.249379
vt 0.551108 0.251945
vt 0.551713 0.254833
vt 0.552204 0.257947
vt 0.552573 0.261351
vt 0.552781 0.265116
vt 0.549473 0.026130
vt 0.548461 0.246602
vt 0.549474 0.024671
vt 0.549482 0.023335
vt 0.549484 0.022116
vt 0.549492 0.021000
vt 0.549495 0.019972
vt 0.550697 0.019002
vt 0.559493 0.306726
vt 0.559493 0.305769
vt 0.559496 0.308851
vt 0.559502 0.313253
vt 0.559502 0.311019
vt 0.559504 0.315565
vt 0.559509 0.317978
vt 0.559511 0.320519
vt 0.550742 0.265147
vt 0.550572 0.261453
vt 0.550271 0.258108
vt 0.549865 0.255032
vt 0.549400 0.252157
vt 0.548647 0.247879
vt 0.549462 0.246830
vt 0.548947 0.249555
vt 0.548517 0.246884
vt 0.549496 0.018994
vt 0.841135 0.322750
vt 0.255676 0.516741
vt 0.548995 0.511072
vt 0.549000 0.513857
vt 0.548999 0.516185
vt 0.558111 0.336627
vt 0.558120 0.329914
vt 0.558127 0.322740
vt 0.779693 0.287778
vt 0.255496 0.026192
vt 0.255441 0.023403
vt 0.255377 0.021056
vt 0.841150 0.308855
vt 0.841141 0.315571
vt 0.041538 0.249424
s 1
f 83/1/1 87/2/2 95/3/3
f 83/1/1 3/4/4 1/5/5
f 72/6/6 3/4/4 71/7/7
f 72/6/6 5/8/8 4/9/9
f 82/10/10 5/8/8 66/11/11
f 82/10/10 7/12/12 6/13/13
f 69/14/14 8/15/15 7/12/12
f 76/16/16 8/17/15 81/18/17
f 75/19/18 9/20/19 76/16/16
f 75/19/18 11/21/20 10/22/21
f 79/23/22 11/21/20 74/24/23
f 77/25/24 12/26/25 79/23/22
f 77/25/24 14/27/26 13/28/27
f 70/29/28 15/30/29 14/27/26
f 266/31/30 15/30/29 80/32/31
f 17/33/32 73/34/33 68/35/34
f 18/36/35 68/35/34 84/37/36
f 19/38/37 84/37/36 65/39/38
f 20/40/39 65/39/38 67/41/40
f 87/42/2 30/43/41 88/44/42
f 67/41/40 21/45/43 20/40/39
f 264/46/44 16/47/45 207/48/46
f 86/49/47 2/50/48 22/51/49
f 31/52/50 1/53/5 3/54/4
f 38/55/51 3/54/4 4/56/9
f 45/57/52 4/56/9 5/58/8
f 216/59/53 24/60/54 37/61/55
f 37/61/55 25/62/56 36/63/57
f 36/63/57 26/64/58 35/65/59
f 35/65/59 27/66/60 34/67/61
f 34/67/61 28/68/62 33/69/63
f 33/69/63 29/70/64 32/71/65
f 32/71/65 30/43/41 31/52/50
f 217/72/66 37/61/55 44/73/67
f 44/73/67 36/63/57 43/74/68
f 43/74/68 35/65/59 42/75/69
f 42/75/69 34/67/61 41/76/70
f 41/76/70 33/69/63 40/77/71
f 40/77/71 32/71/65 39/78/72
f 39/78/72 31/52/50 38/55/51
f 218/79/73 44/73/67 51/80/74
f 51/80/74 43/74/68 50/81/75
f 50/81/75 42/75/69 49/82/76
f 49/82/76 41/76/70 48/83/77
f 48/83/77 40/77/71 47/84/78
f 47/84/78 39/78/72 46/85/79
f 46/85/79 38/55/51 45/57/52
f 206/86/80 23/87/81 15/88/29
f 219/89/82 58/90/83 23/87/81
f 220/91/84 51/80/74 58/90/83
f 15/88/29 52/92/85 14/93/26
f 23/87/81 59/94/86 52/92/85
f 58/90/83 50/81/75 59/94/86
f 14/93/26 53/95/87 13/96/27
f 52/92/85 60/97/88 53/95/87
f 59/94/86 49/82/76 60/97/88
f 13/96/27 54/98/89 12/99/25
f 53/95/87 61/100/90 54/98/89
f 60/97/88 48/83/77 61/100/90
f 54/98/89 11/101/20 12/99/25
f 54/98/89 62/102/91 55/103/92
f 61/100/90 47/84/78 62/102/91
f 55/103/92 10/104/21 11/101/20
f 55/103/92 63/105/93 56/106/94
f 62/102/91 46/85/79 63/105/93
f 56/106/94 9/107/19 10/104/21
f 56/106/94 64/108/95 57/109/96
f 63/105/93 45/57/52 64/108/95
f 57/109/96 8/110/15 9/107/19
f 64/108/95 7/111/12 57/109/96
f 45/57/52 6/112/13 64/108/95
f 85/113/97 22/51/49 21/45/43
f 89/114/98 30/43/41 29/70/64
f 90/115/99 29/70/64 28/68/62
f 91/116/100 28/68/62 27/66/60
f 92/117/101 27/66/60 26/64/58
f 92/117/101 25/62/56 93/118/102
f 93/118/102 24/60/54 94/119/103
f 94/119/103 215/120/104 295/121/105
f 475/122/106 95/3/3 451/123/107
f 465/124/108 83/1/1 475/122/106
f 466/125/109 71/7/7 465/124/108
f 461/126/110 72/6/6 466/125/109
f 474/127/111 66/11/11 461/126/110
f 463/128/112 82/10/10 474/127/111
f 463/128/112 81/129/17 69/14/14
f 469/130/113 81/18/17 473/131/114
f 469/130/113 75/19/18 76/16/16
f 468/132/115 74/24/23 75/19/18
f 471/133/116 74/24/23 467/134/117
f 471/133/116 77/25/24 79/23/22
f 470/135/118 70/29/28 77/25/24
f 464/136/119 80/32/31 70/29/28
f 462/137/120 80/32/31 472/138/121
f 68/35/34 456/139/122 455/140/123
f 84/37/36 455/140/123 458/141/124
f 65/39/38 458/141/124 452/142/125
f 67/41/40 452/142/125 454/143/126
f 454/143/126 85/113/97 67/41/40
f 456/139/122 264/46/44 453/144/127
f 460/145/128 78/146/129 86/49/47
f 459/147/130 86/49/47 85/113/97
f 95/3/3 2/50/48 78/146/129
f 22/51/49 87/42/2 88/44/42
f 21/45/43 88/44/42 89/114/98
f 20/40/39 89/114/98 90/115/99
f 19/38/37 90/115/99 91/116/100
f 18/36/35 91/116/100 92/117/101
f 17/33/32 92/117/101 93/118/102
f 16/47/45 93/118/102 94/119/103
f 207/48/46 94/119/103 295/121/105
f 451/123/107 78/146/129 457/148/131
f 182/149/132 178/150/133 190/151/134
f 178/150/133 98/152/135 166/153/136
f 98/152/135 167/154/137 166/153/136
f 167/154/137 100/155/138 161/156/139
f 100/155/138 177/157/140 161/156/139
f 177/157/140 102/158/141 164/159/142
f 164/159/142 103/160/143 176/161/144
f 103/162/143 171/163/145 176/164/144
f 104/165/146 170/166/147 171/163/145
f 170/166/147 106/167/148 169/168/149
f 106/167/148 174/169/150 169/168/149
f 107/170/151 172/171/152 174/169/150
f 172/171/152 109/172/153 165/173/154
f 109/172/153 175/174/155 165/173/154
f 110/175/156 372/176/157 175/174/155
f 168/177/158 112/178/159 163/179/160
f 163/179/160 113/180/161 179/181/162
f 179/181/162 114/182/163 160/183/164
f 160/183/164 115/184/165 162/185/166
f 125/186/167 182/187/132 183/188/168
f 162/185/166 116/189/169 180/190/170
f 370/191/171 111/192/172 168/177/158
f 181/193/173 97/194/174 173/195/175
f 126/196/176 96/197/177 125/186/167
f 133/198/178 98/199/135 126/196/176
f 140/200/179 99/201/180 133/198/178
f 322/202/181 119/203/182 321/204/183
f 132/205/184 120/206/185 119/203/182
f 131/207/186 121/208/187 120/206/185
f 130/209/188 122/210/189 121/208/187
f 129/211/190 123/212/191 122/210/189
f 128/213/192 124/214/193 123/212/191
f 127/215/194 125/186/167 124/214/193
f 323/216/195 132/205/184 322/202/181
f 139/217/196 131/207/186 132/205/184
f 138/218/197 130/209/188 131/207/186
f 137/219/198 129/211/190 130/209/188
f 136/220/199 128/213/192 129/211/190
f 135/221/200 127/215/194 128/213/192
f 134/222/201 126/196/176 127/215/194
f 324/223/202 139/217/196 323/216/195
f 146/224/203 138/218/197 139/217/196
f 145/225/204 137/219/198 138/218/197
f 144/226/205 136/220/199 137/219/198
f 143/227/206 135/221/200 136/220/199
f 142/228/207 134/222/201 135/221/200
f 141/229/208 133/198/178 134/222/201
f 312/230/209 118/231/210 325/232/211
f 325/232/211 153/233/212 326/234/213
f 326/234/213 146/224/203 324/223/202
f 110/235/156 147/236/214 118/231/210
f 118/231/210 154/237/215 153/233/212
f 153/233/212 145/225/204 146/224/203
f 109/238/153 148/239/216 147/236/214
f 147/236/214 155/240/217 154/237/215
f 154/237/215 144/226/205 145/225/204
f 108/241/218 149/242/219 148/239/216
f 148/239/216 156/243/220 155/240/217
f 155/240/217 143/227/206 144/226/205
f 106/244/148 149/242/219 107/245/151
f 149/242/219 157/246/221 156/243/220
f 156/243/220 142/228/207 143/227/206
f 105/247/222 150/248/223 106/244/148
f 150/248/223 158/249/224 157/246/221
f 157/246/221 141/229/208 142/228/207
f 104/250/146 151/251/225 105/247/222
f 151/251/225 159/252/226 158/249/224
f 158/249/224 140/200/179 141/229/208
f 103/253/143 152/254/227 104/250/146
f 102/255/141 159/252/226 152/254/227
f 101/256/228 140/200/179 159/252/226
f 180/190/170 117/257/229 181/193/173
f 184/258/230 125/186/167 183/188/168
f 185/259/231 124/214/193 184/258/230
f 186/260/232 123/212/191 185/259/231
f 187/261/233 122/210/189 186/260/232
f 120/206/185 187/261/233 188/262/234
f 119/203/182 188/262/234 189/263/235
f 321/204/183 189/263/235 401/264/236
f 190/151/134 427/265/237 403/266/238
f 178/150/133 417/267/239 427/265/237
f 166/153/136 418/268/240 417/267/239
f 167/154/137 413/269/241 418/268/240
f 161/156/139 426/270/242 413/269/241
f 177/157/140 415/271/243 426/270/242
f 415/271/243 176/161/144 425/272/244
f 176/164/144 421/273/245 425/274/244
f 421/273/245 170/166/147 420/275/246
f 420/275/246 169/168/149 419/276/247
f 169/168/149 423/277/248 419/276/247
f 423/277/248 172/171/152 422/278/249
f 422/278/249 165/173/154 416/279/250
f 416/279/250 175/174/155 424/280/251
f 175/174/155 414/281/252 424/280/251
f 408/282/253 163/179/160 407/283/254
f 407/283/254 179/181/162 410/284/255
f 410/284/255 160/183/164 404/285/256
f 404/285/256 162/185/166 406/286/257
f 406/286/257 180/190/170 411/287/258
f 370/191/171 408/282/253 405/288/259
f 412/289/260 173/195/175 409/290/261
f 411/287/258 181/193/173 412/289/260
f 97/194/174 190/151/134 173/195/175
f 117/257/229 182/187/132 97/194/174
f 116/189/169 183/188/168 117/257/229
f 115/184/165 184/258/230 116/189/169
f 114/182/163 185/259/231 115/184/165
f 113/180/161 186/260/232 114/182/163
f 112/178/159 187/261/233 113/180/161
f 111/192/172 188/262/234 112/178/159
f 313/291/262 189/263/235 111/192/172
f 173/195/175 403/266/238 409/290/261
f 287/292/263 283/293/264 296/294/265
f 283/293/264 193/295/266 271/296/267
f 193/295/266 272/297/268 271/296/267
f 272/297/268 195/298/269 265/299/270
f 195/298/269 282/300/271 265/299/270
f 282/300/271 197/301/272 269/302/273
f 269/302/273 198/303/274 281/304/275
f 198/305/274 276/306/276 281/307/275
f 199/308/277 275/309/278 276/306/276
f 275/309/278 201/310/279 274/311/280
f 201/310/279 279/312/281 274/311/280
f 202/313/282 277/314/283 279/312/281
f 277/314/283 204/315/284 270/316/285
f 204/315/284 280/317/286 270/316/285
f 205/318/287 266/31/30 280/317/286
f 273/319/288 209/320/289 268/321/290
f 268/321/290 210/322/291 284/323/292
f 284/323/292 211/324/293 263/325/294
f 263/325/294 212/326/295 267/327/296
f 228/328/297 287/329/263 288/330/298
f 267/327/296 213/331/299 285/332/300
f 207/48/46 273/319/288 264/46/44
f 286/333/301 192/334/302 278/335/303
f 229/336/304 191/337/305 228/328/297
f 236/338/306 193/339/266 229/336/304
f 243/340/307 194/341/308 236/338/306
f 216/59/53 222/342/309 215/120/104
f 235/343/310 223/344/311 222/342/309
f 234/345/312 224/346/313 223/344/311
f 233/347/314 225/348/315 224/346/313
f 232/349/316 226/350/317 225/348/315
f 231/351/318 227/352/319 226/350/317
f 230/353/320 228/328/297 227/352/319
f 217/72/66 235/343/310 216/59/53
f 242/354/321 234/345/312 235/343/310
f 241/355/322 233/347/314 234/345/312
f 240/356/323 232/349/316 233/347/314
f 239/357/324 231/351/318 232/349/316
f 238/358/325 230/353/320 231/351/318
f 237/359/326 229/336/304 230/353/320
f 218/79/73 242/354/321 217/72/66
f 249/360/327 241/355/322 242/354/321
f 248/361/328 240/356/323 241/355/322
f 247/362/329 239/357/324 240/356/323
f 246/363/330 238/358/325 239/357/324
f 245/364/331 237/359/326 238/358/325
f 244/365/332 236/338/306 237/359/326
f 206/86/80 221/366/333 219/89/82
f 219/89/82 256/367/334 220/91/84
f 220/91/84 249/360/327 218/79/73
f 205/368/287 250/369/335 221/366/333
f 221/366/333 257/370/336 256/367/334
f 256/367/334 248/361/328 249/360/327
f 204/371/284 251/372/337 250/369/335
f 250/369/335 258/373/338 257/370/336
f 257/370/336 247/362/329 248/361/328
f 203/374/339 252/375/340 251/372/337
f 251/372/337 259/376/341 258/373/338
f 258/373/338 246/363/330 247/362/329
f 201/377/279 252/375/340 202/378/282
f 252/375/340 260/379/342 259/376/341
f 259/376/341 245/364/331 246/363/330
f 200/380/343 253/381/344 201/377/279
f 253/381/344 261/382/345 260/379/342
f 260/379/342 244/365/332 245/364/331
f 199/383/277 254/384/346 200/380/343
f 254/384/346 262/385/347 261/382/345
f 261/382/345 243/340/307 244/365/332
f 198/386/274 255/387/348 199/383/277
f 197/388/272 262/385/347 255/387/348
f 196/389/349 243/340/307 262/385/347
f 285/332/300 214/390/350 286/333/301
f 289/391/351 228/328/297 288/330/298
f 290/392/352 227/352/319 289/391/351
f 291/393/353 226/350/317 290/392/352
f 292/394/354 225/348/315 291/393/353
f 223/344/311 292/394/354 293/395/355
f 222/342/309 293/395/355 294/396/356
f 215/120/104 294/396/356 295/121/105
f 296/294/265 498/397/357 476/398/358
f 283/293/264 488/399/359 498/397/357
f 271/296/267 489/400/360 488/399/359
f 272/297/268 485/401/361 489/400/360
f 265/299/270 497/402/362 485/401/361
f 282/300/271 486/403/363 497/402/362
f 486/403/363 281/304/275 496/404/364
f 281/307/275 492/405/365 496/406/364
f 492/405/365 275/309/278 491/407/366
f 491/407/366 274/311/280 490/408/367
f 274/311/280 494/409/368 490/408/367
f 494/409/368 277/314/283 493/410/369
f 493/410/369 270/316/285 487/411/370
f 487/411/370 280/317/286 495/412/371
f 280/317/286 462/137/120 495/412/371
f 480/413/372 268/321/290 479/414/373
f 479/414/373 284/323/292 482/415/374
f 482/415/374 263/325/294 477/416/375
f 477/416/375 267/327/296 478/417/376
f 478/417/376 285/332/300 483/418/377
f 264/46/44 480/413/372 453/144/127
f 484/419/378 278/335/303 481/420/379
f 483/418/377 286/333/301 484/419/378
f 192/334/302 296/294/265 278/335/303
f 214/390/350 287/329/263 192/334/302
f 213/331/299 288/330/298 214/390/350
f 212/326/295 289/391/351 213/331/299
f 211/324/293 290/392/352 212/326/295
f 210/322/291 291/393/353 211/324/293
f 209/320/289 292/394/354 210/322/291
f 208/421/380 293/395/355 209/320/289
f 207/48/46 294/396/356 208/421/380
f 278/335/303 476/398/358 481/420/379
f 389/422/381 393/423/382 402/424/383
f 389/422/381 299/425/384 297/426/385
f 378/427/386 299/425/384 377/428/387
f 378/427/386 301/429/388 300/430/389
f 388/431/390 301/429/388 371/432/391
f 388/431/390 303/433/392 302/434/393
f 375/435/394 304/436/395 303/433/392
f 382/437/396 304/438/395 387/439/397
f 381/440/398 305/441/399 382/437/396
f 381/440/398 307/442/400 306/443/401
f 385/444/402 307/442/400 380/445/403
f 383/446/404 308/447/405 385/444/402
f 383/446/404 310/448/406 309/449/407
f 386/450/408 310/448/406 376/451/409
f 372/176/157 311/452/410 386/450/408
f 315/453/411 379/454/412 374/455/413
f 316/456/414 374/455/413 390/457/415
f 317/458/416 390/457/415 369/459/417
f 318/460/418 369/459/417 373/461/419
f 393/462/382 334/463/420 394/464/421
f 373/461/419 319/465/422 318/460/418
f 370/191/171 314/466/423 313/291/262
f 392/467/424 298/468/425 320/469/426
f 335/470/427 297/471/385 299/472/384
f 342/473/428 299/472/384 300/474/389
f 349/475/429 300/474/389 301/476/388
f 322/202/181 328/477/430 341/478/431
f 341/478/431 329/479/432 340/480/433
f 340/480/433 330/481/434 339/482/435
f 339/482/435 331/483/436 338/484/437
f 338/484/437 332/485/438 337/486/439
f 337/486/439 333/487/440 336/488/441
f 336/488/441 334/463/420 335/470/427
f 323/216/195 341/478/431 348/489/442
f 348/489/442 340/480/433 347/490/443
f 347/490/443 339/482/435 346/491/444
f 346/491/444 338/484/437 345/492/445
f 345/492/445 337/486/439 344/493/446
f 344/493/446 336/488/441 343/494/447
f 343/494/447 335/470/427 342/473/428
f 324/223/202 348/489/442 355/495/448
f 355/495/448 347/490/443 354/496/449
f 354/496/449 346/491/444 353/497/450
f 353/497/450 345/492/445 352/498/451
f 352/498/451 344/493/446 351/499/452
f 351/499/452 343/494/447 350/500/453
f 350/500/453 342/473/428 349/475/429
f 312/230/209 327/501/454 311/502/410
f 325/232/211 362/503/455 327/501/454
f 326/234/213 355/495/448 362/503/455
f 311/502/410 356/504/456 310/505/406
f 327/501/454 363/506/457 356/504/456
f 362/503/455 354/496/449 363/506/457
f 310/505/406 357/507/458 309/508/407
f 356/504/456 364/509/459 357/507/458
f 363/506/457 353/497/450 364/509/459
f 309/508/407 358/510/460 308/511/405
f 357/507/458 365/512/461 358/510/460
f 364/509/459 352/498/451 365/512/461
f 358/510/460 307/513/400 308/511/405
f 358/510/460 366/514/462 359/515/463
f 365/512/461 351/499/452 366/514/462
f 359/515/463 306/516/401 307/513/400
f 359/515/463 367/517/464 360/518/465
f 366/514/462 350/500/453 367/517/464
f 360/518/465 305/519/399 306/516/401
f 360/518/465 368/520/466 361/521/467
f 367/517/464 349/475/429 368/520/466
f 361/521/467 304/522/395 305/519/399
f 368/520/466 303/523/392 361/521/467
f 349/475/429 302/524/393 368/520/466
f 391/525/468 320/469/426 319/465/422
f 395/526/469 334/463/420 333/487/440
f 396/527/470 333/487/440 332/485/438
f 397/528/471 332/485/438 331/483/436
f 398/529/472 331/483/436 330/481/434
f 398/529/472 329/479/432 399/530/473
f 399/530/473 328/477/430 400/531/474
f 400/531/474 321/204/183 401/264/236
f 450/532/475 402/424/383 428/533/358
f 440/534/476 389/422/381 450/532/475
f 441/535/477 377/428/387 440/534/476
f 437/536/478 378/427/386 441/535/477
f 449/537/479 371/432/391 437/536/478
f 438/538/480 388/431/390 449/537/479
f 438/538/480 387/539/397 375/435/394
f 444/540/481 387/439/397 448/541/482
f 444/540/481 381/440/398 382/437/396
f 443/542/483 380/445/403 381/440/398
f 446/543/484 380/445/403 442/544/485
f 446/543/484 383/446/404 385/444/402
f 445/545/486 376/451/409 383/446/404
f 439/546/487 386/450/408 376/451/409
f 414/281/252 386/450/408 447/547/488
f 374/455/413 432/548/489 431/549/490
f 390/457/415 431/549/490 434/550/491
f 369/459/417 434/550/491 429/551/492
f 373/461/419 429/551/492 430/552/493
f 430/552/493 391/525/468 373/461/419
f 432/548/489 370/191/171 405/288/259
f 436/553/494 384/554/495 392/467/424
f 435/555/496 392/467/424 391/525/468
f 402/424/383 298/468/425 384/554/495
f 320/469/426 393/462/382 394/464/421
f 319/465/422 394/464/421 395/526/469
f 318/460/418 395/526/469 396/527/470
f 317/458/416 396/527/470 397/528/471
f 316/456/414 397/528/471 398/529/472
f 315/453/411 398/529/472 399/530/473
f 314/466/423 399/530/473 400/531/474
f 313/291/262 400/531/474 401/264/236
f 428/533/358 384/554/495 433/556/497
f 427/265/237 465/124/108 475/122/106
f 418/268/240 465/124/108 417/267/239
f 413/269/241 466/125/109 418/268/240
f 426/270/242 461/126/110 413/269/241
f 415/271/243 474/127/111 426/270/242
f 425/272/244 463/128/112 415/271/243
f 421/273/245 473/131/114 425/274/244
f 420/275/246 469/130/113 421/273/245
f 420/275/246 467/134/117 468/132/115
f 419/276/247 471/133/116 467/134/117
f 422/278/249 471/133/116 423/277/248
f 422/278/249 464/136/119 470/135/118
f 416/279/250 472/138/121 464/136/119
f 424/280/251 462/137/120 472/138/121
f 408/282/253 455/140/123 456/139/122
f 410/284/255 455/140/123 407/283/254
f 410/284/255 452/142/125 458/141/124
f 404/285/256 454/143/126 452/142/125
f 406/286/257 459/147/130 454/143/126
f 405/288/259 456/139/122 453/144/127
f 412/289/260 457/148/131 460/145/128
f 411/287/258 460/145/128 459/147/130
f 403/266/238 457/148/131 409/290/261
f 450/532/475 476/398/358 498/397/357
f 450/532/475 488/399/359 440/534/476
f 441/535/477 488/399/359 489/400/360
f 441/535/477 485/401/361 437/536/478
f 449/537/479 485/401/361 497/402/362
f 438/538/480 497/402/362 486/403/363
f 448/557/482 486/403/363 496/404/364
f 448/541/482 492/405/365 444/540/481
f 444/540/481 491/407/366 443/542/483
f 442/544/485 491/407/366 490/408/367
f 442/544/485 494/409/368 446/543/484
f 445/545/486 494/409/368 493/410/369
f 439/546/487 493/410/369 487/411/370
f 439/546/487 495/412/371 447/547/488
f 447/547/488 462/137/120 414/281/252
f 432/548/489 479/414/373 431/549/490
f 431/549/490 482/415/374 434/550/491
f 429/551/492 482/415/374 477/416/375
f 429/551/492 478/417/376 430/552/493
f 435/555/496 478/417/376 483/418/377
f 432/548/489 453/144/127 480/413/372
f 436/553/494 481/420/379 433/556/497
f 435/555/496 484/419/378 436/553/494
f 428/533/358 481/420/379 476/398/358
f 427/265/237 451/123/107 403/266/238
f 83/1/1 1/5/5 87/2/2
f 83/1/1 71/7/7 3/4/4
f 72/6/6 4/9/9 3/4/4
f 72/6/6 66/11/11 5/8/8
f 82/10/10 6/13/13 5/8/8
f 82/10/10 69/14/14 7/12/12
f 69/14/14 81/129/17 8/15/15
f 76/16/16 9/20/19 8/17/15
f 75/19/18 10/22/21 9/20/19
f 75/19/18 74/24/23 11/21/20
f 79/23/22 12/26/25 11/21/20
f 77/25/24 13/28/27 12/26/25
f 77/25/24 70/29/28 14/27/26
f 70/29/28 80/32/31 15/30/29
f 266/31/30 206/558/80 15/30/29
f 17/33/32 16/47/45 73/34/33
f 18/36/35 17/33/32 68/35/34
f 19/38/37 18/36/35 84/37/36
f 20/40/39 19/38/37 65/39/38
f 87/42/2 1/53/5 30/43/41
f 67/41/40 85/113/97 21/45/43
f 264/46/44 73/34/33 16/47/45
f 86/49/47 78/146/129 2/50/48
f 31/52/50 30/43/41 1/53/5
f 38/55/51 31/52/50 3/54/4
f 45/57/52 38/55/51 4/56/9
f 216/59/53 215/120/104 24/60/54
f 37/61/55 24/60/54 25/62/56
f 36/63/57 25/62/56 26/64/58
f 35/65/59 26/64/58 27/66/60
f 34/67/61 27/66/60 28/68/62
f 33/69/63 28/68/62 29/70/64
f 32/71/65 29/70/64 30/43/41
f 217/72/66 216/59/53 37/61/55
f 44/73/67 37/61/55 36/63/57
f 43/74/68 36/63/57 35/65/59
f 42/75/69 35/65/59 34/67/61
f 41/76/70 34/67/61 33/69/63
f 40/77/71 33/69/63 32/71/65
f 39/78/72 32/71/65 31/52/50
f 218/79/73 217/72/66 44/73/67
f 51/80/74 44/73/67 43/74/68
f 50/81/75 43/74/68 42/75/69
f 49/82/76 42/75/69 41/76/70
f 48/83/77 41/76/70 40/77/71
f 47/84/78 40/77/71 39/78/72
f 46/85/79 39/78/72 38/55/51
f 206/86/80 219/89/82 23/87/81
f 219/89/82 220/91/84 58/90/83
f 220/91/84 218/79/73 51/80/74
f 15/88/29 23/87/81 52/92/85
f 23/87/81 58/90/83 59/94/86
f 58/90/83 51/80/74 50/81/75
f 14/93/26 52/92/85 53/95/87
f 52/92/85 59/94/86 60/97/88
f 59/94/86 50/81/75 49/82/76
f 13/96/27 53/95/87 54/98/89
f 53/95/87 60/97/88 61/100/90
f 60/97/88 49/82/76 48/83/77
f 54/98/89 55/103/92 11/101/20
f 54/98/89 61/100/90 62/102/91
f 61/100/90 48/83/77 47/84/78
f 55/103/92 56/106/94 10/104/21
f 55/103/92 62/102/91 63/105/93
f 62/102/91 47/84/78 46/85/79
f 56/106/94 57/109/96 9/107/19
f 56/106/94 63/105/93 64/108/95
f 63/105/93 46/85/79 45/57/52
f 57/109/96 7/111/12 8/110/15
f 64/108/95 6/112/13 7/111/12
f 45/57/52 5/58/8 6/112/13
f 85/113/97 86/49/47 22/51/49
f 89/114/98 88/44/42 30/43/41
f 90/115/99 89/114/98 29/70/64
f 91/116/100 90/115/99 28/68/62
f 92/117/101 91/116/100 27/66/60
f 92/117/101 26/64/58 25/62/56
f 93/118/102 25/62/56 24/60/54
f 94/119/103 24/60/54 215/120/104
f 475/122/106 83/1/1 95/3/3
f 465/124/108 71/7/7 83/1/1
f 466/125/109 72/6/6 71/7/7
f 461/126/110 66/11/11 72/6/6
f 474/127/111 82/10/10 66/11/11
f 463/128/112 69/14/14 82/10/10
f 463/128/112 473/559/114 81/129/17
f 469/130/113 76/16/16 81/18/17
f 469/130/113 468/132/115 75/19/18
f 468/132/115 467/134/117 74/24/23
f 471/133/116 79/23/22 74/24/23
f 471/133/116 470/135/118 77/25/24
f 470/135/118 464/136/119 70/29/28
f 464/136/119 472/138/121 80/32/31
f 462/137/120 266/31/30 80/32/31
f 68/35/34 73/34/33 456/139/122
f 84/37/36 68/35/34 455/140/123
f 65/39/38 84/37/36 458/141/124
f 67/41/40 65/39/38 452/142/125
f 454/143/126 459/147/130 85/113/97
f 456/139/122 73/34/33 264/46/44
f 460/145/128 457/148/131 78/146/129
f 459/147/130 460/145/128 86/49/47
f 95/3/3 87/2/2 2/50/48
f 22/51/49 2/50/48 87/42/2
f 21/45/43 22/51/49 88/44/42
f 20/40/39 21/45/43 89/114/98
f 19/38/37 20/40/39 90/115/99
f 18/36/35 19/38/37 91/116/100
f 17/33/32 18/36/35 92/117/101
f 16/47/45 17/33/32 93/118/102
f 207/48/46 16/47/45 94/119/103
f 451/123/107 95/3/3 78/146/129
f 182/149/132 96/560/177 178/150/133
f 178/150/133 96/560/177 98/152/135
f 98/152/135 99/561/180 167/154/137
f 167/154/137 99/561/180 100/155/138
f 100/155/138 101/562/228 177/157/140
f 177/157/140 101/562/228 102/158/141
f 164/159/142 102/158/141 103/160/143
f 103/162/143 104/165/146 171/163/145
f 104/165/146 105/563/222 170/166/147
f 170/166/147 105/563/222 106/167/148
f 106/167/148 107/170/151 174/169/150
f 107/170/151 108/564/218 172/171/152
f 172/171/152 108/564/218 109/172/153
f 109/172/153 110/175/156 175/174/155
f 110/175/156 312/565/209 372/176/157
f 168/177/158 111/192/172 112/178/159
f 163/179/160 112/178/159 113/180/161
f 179/181/162 113/180/161 114/182/163
f 160/183/164 114/182/163 115/184/165
f 125/186/167 96/197/177 182/187/132
f 162/185/166 115/184/165 116/189/169
f 370/191/171 313/291/262 111/192/172
f 181/193/173 117/257/229 97/194/174
f 126/196/176 98/199/135 96/197/177
f 133/198/178 99/201/180 98/199/135
f 140/200/179 100/566/138 99/201/180
f 322/202/181 132/205/184 119/203/182
f 132/205/184 131/207/186 120/206/185
f 131/207/186 130/209/188 121/208/187
f 130/209/188 129/211/190 122/210/189
f 129/211/190 128/213/192 123/212/191
f 128/213/192 127/215/194 124/214/193
f 127/215/194 126/196/176 125/186/167
f 323/216/195 139/217/196 132/205/184
f 139/217/196 138/218/197 131/207/186
f 138/218/197 137/219/198 130/209/188
f 137/219/198 136/220/199 129/211/190
f 136/220/199 135/221/200 128/213/192
f 135/221/200 134/222/201 127/215/194
f 134/222/201 133/198/178 126/196/176
f 324/223/202 146/224/203 139/217/196
f 146/224/203 145/225/204 138/218/197
f 145/225/204 144/226/205 137/219/198
f 144/226/205 143/227/206 136/220/199
f 143/227/206 142/228/207 135/221/200
f 142/228/207 141/229/208 134/222/201
f 141/229/208 140/200/179 133/198/178
f 312/230/209 110/235/156 118/231/210
f 325/232/211 118/231/210 153/233/212
f 326/234/213 153/233/212 146/224/203
f 110/235/156 109/238/153 147/236/214
f 118/231/210 147/236/214 154/237/215
f 153/233/212 154/237/215 145/225/204
f 109/238/153 108/241/218 148/239/216
f 147/236/214 148/239/216 155/240/217
f 154/237/215 155/240/217 144/226/205
f 108/241/218 107/245/151 149/242/219
f 148/239/216 149/242/219 156/243/220
f 155/240/217 156/243/220 143/227/206
f 106/244/148 150/248/223 149/242/219
f 149/242/219 150/248/223 157/246/221
f 156/243/220 157/246/221 142/228/207
f 105/247/222 151/251/225 150/248/223
f 150/248/223 151/251/225 158/249/224
f 157/246/221 158/249/224 141/229/208
f 104/250/146 152/254/227 151/251/225
f 151/251/225 152/254/227 159/252/226
f 158/249/224 159/252/226 140/200/179
f 103/253/143 102/255/141 152/254/227
f 102/255/141 101/256/228 159/252/226
f 101/256/228 100/566/138 140/200/179
f 180/190/170 116/189/169 117/257/229
f 184/258/230 124/214/193 125/186/167
f 185/259/231 123/212/191 124/214/193
f 186/260/232 122/210/189 123/212/191
f 187/261/233 121/208/187 122/210/189
f 120/206/185 121/208/187 187/261/233
f 119/203/182 120/206/185 188/262/234
f 321/204/183 119/203/182 189/263/235
f 190/151/134 178/150/133 427/265/237
f 178/150/133 166/153/136 417/267/239
f 166/153/136 167/154/137 418/268/240
f 167/154/137 161/156/139 413/269/241
f 161/156/139 177/157/140 426/270/242
f 177/157/140 164/159/142 415/271/243
f 415/271/243 164/159/142 176/161/144
f 176/164/144 171/163/145 421/273/245
f 421/273/245 171/163/145 170/166/147
f 420/275/246 170/166/147 169/168/149
f 169/168/149 174/169/150 423/277/248
f 423/277/248 174/169/150 172/171/152
f 422/278/249 172/171/152 165/173/154
f 416/279/250 165/173/154 175/174/155
f 175/174/155 372/176/157 414/281/252
f 408/282/253 168/177/158 163/179/160
f 407/283/254 163/179/160 179/181/162
f 410/284/255 179/181/162 160/183/164
f 404/285/256 160/183/164 162/185/166
f 406/286/257 162/185/166 180/190/170
f 370/191/171 168/177/158 408/282/253
f 412/289/260 181/193/173 173/195/175
f 411/287/258 180/190/170 181/193/173
f 97/194/174 182/149/132 190/151/134
f 117/257/229 183/188/168 182/187/132
f 116/189/169 184/258/230 183/188/168
f 115/184/165 185/259/231 184/258/230
f 114/182/163 186/260/232 185/259/231
f 113/180/161 187/261/233 186/260/232
f 112/178/159 188/262/234 187/261/233
f 111/192/172 189/263/235 188/262/234
f 313/291/262 401/264/236 189/263/235
f 173/195/175 190/151/134 403/266/238
f 287/292/263 191/567/305 283/293/264
f 283/293/264 191/567/305 193/295/266
f 193/295/266 194/568/308 272/297/268
f 272/297/268 194/568/308 195/298/269
f 195/298/269 196/569/349 282/300/271
f 282/300/271 196/569/349 197/301/272
f 269/302/273 197/301/272 198/303/274
f 198/305/274 199/308/277 276/306/276
f 199/308/277 200/570/343 275/309/278
f 275/309/278 200/570/343 201/310/279
f 201/310/279 202/313/282 279/312/281
f 202/313/282 203/571/339 277/314/283
f 277/314/283 203/571/339 204/315/284
f 204/315/284 205/318/287 280/317/286
f 205/318/287 206/558/80 266/31/30
f 273/319/288 208/421/380 209/320/289
f 268/321/290 209/320/289 210/322/291
f 284/323/292 210/322/291 211/324/293
f 263/325/294 211/324/293 212/326/295
f 228/328/297 191/337/305 287/329/263
f 267/327/296 212/326/295 213/331/299
f 207/48/46 208/421/380 273/319/288
f 286/333/301 214/390/350 192/334/302
f 229/336/304 193/339/266 191/337/305
f 236/338/306 194/341/308 193/339/266
f 243/340/307 195/572/269 194/341/308
f 216/59/53 235/343/310 222/342/309
f 235/343/310 234/345/312 223/344/311
f 234/345/312 233/347/314 224/346/313
f 233/347/314 232/349/316 225/348/315
f 232/349/316 231/351/318 226/350/317
f 231/351/318 230/353/320 227/352/319
f 230/353/320 229/336/304 228/328/297
f 217/72/66 242/354/321 235/343/310
f 242/354/321 241/355/322 234/345/312
f 241/355/322 240/356/323 233/347/314
f 240/356/323 239/357/324 232/349/316
f 239/357/324 238/358/325 231/351/318
f 238/358/325 237/359/326 230/353/320
f 237/359/326 236/338/306 229/336/304
f 218/79/73 249/360/327 242/354/321
f 249/360/327 248/361/328 241/355/322
f 248/361/328 247/362/329 240/356/323
f 247/362/329 246/363/330 239/357/324
f 246/363/330 245/364/331 238/358/325
f 245/364/331 244/365/332 237/359/326
f 244/365/332 243/340/307 236/338/306
f 206/86/80 205/368/287 221/366/333
f 219/89/82 221/366/333 256/367/334
f 220/91/84 256/367/334 249/360/327
f 205/368/287 204/371/284 250/369/335
f 221/366/333 250/369/335 257/370/336
f 256/367/334 257/370/336 248/361/328
f 204/371/284 203/374/339 251/372/337
f 250/369/335 251/372/337 258/373/338
f 257/370/336 258/373/338 247/362/329
f 203/374/339 202/378/282 252/375/340
f 251/372/337 252/375/340 259/376/341
f 258/373/338 259/376/341 246/363/330
f 201/377/279 253/381/344 252/375/340
f 252/375/340 253/381/344 260/379/342
f 259/376/341 260/379/342 245/364/331
f 200/380/343 254/384/346 253/381/344
f 253/381/344 254/384/346 261/382/345
f 260/379/342 261/382/345 244/365/332
f 199/383/277 255/387/348 254/384/346
f 254/384/346 255/387/348 262/385/347
f 261/382/345 262/385/347 243/340/307
f 198/386/274 197/388/272 255/387/348
f 197/388/272 196/389/349 262/385/347
f 196/389/349 195/572/269 243/340/307
f 285/332/300 213/331/299 214/390/350
f 289/391/351 227/352/319 228/328/297
f 290/392/352 226/350/317 227/352/319
f 291/393/353 225/348/315 226/350/317
f 292/394/354 224/346/313 225/348/315
f 223/344/311 224/346/313 292/394/354
f 222/342/309 223/344/311 293/395/355
f 215/120/104 222/342/309 294/396/356
f 296/294/265 283/293/264 498/397/357
f 283/293/264 271/296/267 488/399/359
f 271/296/267 272/297/268 489/400/360
f 272/297/268 265/299/270 485/401/361
f 265/299/270 282/300/271 497/402/362
f 282/300/271 269/302/273 486/403/363
f 486/403/363 269/302/273 281/304/275
f 281/307/275 276/306/276 492/405/365
f 492/405/365 276/306/276 275/309/278
f 491/407/366 275/309/278 274/311/280
f 274/311/280 279/312/281 494/409/368
f 494/409/368 279/312/281 277/314/283
f 493/410/369 277/314/283 270/316/285
f 487/411/370 270/316/285 280/317/286
f 280/317/286 266/31/30 462/137/120
f 480/413/372 273/319/288 268/321/290
f 479/414/373 268/321/290 284/323/292
f 482/415/374 284/323/292 263/325/294
f 477/416/375 263/325/294 267/327/296
f 478/417/376 267/327/296 285/332/300
f 264/46/44 273/319/288 480/413/372
f 484/419/378 286/333/301 278/335/303
f 483/418/377 285/332/300 286/333/301
f 192/334/302 287/292/263 296/294/265
f 214/390/350 288/330/298 287/329/263
f 213/331/299 289/391/351 288/330/298
f 212/326/295 290/392/352 289/391/351
f 211/324/293 291/393/353 290/392/352
f 210/322/291 292/394/354 291/393/353
f 209/320/289 293/395/355 292/394/354
f 208/421/380 294/396/356 293/395/355
f 207/48/46 295/121/105 294/396/356
f 278/335/303 296/294/265 476/398/358
f 389/422/381 297/426/385 393/423/382
f 389/422/381 377/428/387 299/425/384
f 378/427/386 300/430/389 299/425/384
f 378/427/386 371/432/391 301/429/388
f 388/431/390 302/434/393 301/429/388
f 388/431/390 375/435/394 303/433/392
f 375/435/394 387/539/397 304/436/395
f 382/437/396 305/441/399 304/438/395
f 381/440/398 306/443/401 305/441/399
f 381/440/398 380/445/403 307/442/400
f 385/444/402 308/447/405 307/442/400
f 383/446/404 309/449/407 308/447/405
f 383/446/404 376/451/409 310/448/406
f 386/450/408 311/452/410 310/448/406
f 372/176/157 312/565/209 311/452/410
f 315/453/411 314/466/423 379/454/412
f 316/456/414 315/453/411 374/455/413
f 317/458/416 316/456/414 390/457/415
f 318/460/418 317/458/416 369/459/417
f 393/462/382 297/471/385 334/463/420
f 373/461/419 391/525/468 319/465/422
f 370/191/171 379/454/412 314/466/423
f 392/467/424 384/554/495 298/468/425
f 335/470/427 334/463/420 297/471/385
f 342/473/428 335/470/427 299/472/384
f 349/475/429 342/473/428 300/474/389
f 322/202/181 321/204/183 328/477/430
f 341/478/431 328/477/430 329/479/432
f 340/480/433 329/479/432 330/481/434
f 339/482/435 330/481/434 331/483/436
f 338/484/437 331/483/436 332/485/438
f 337/486/439 332/485/438 333/487/440
f 336/488/441 333/487/440 334/463/420
f 323/216/195 322/202/181 341/478/431
f 348/489/442 341/478/431 340/480/433
f 347/490/443 340/480/433 339/482/435
f 346/491/444 339/482/435 338/484/437
f 345/492/445 338/484/437 337/486/439
f 344/493/446 337/486/439 336/488/441
f 343/494/447 336/488/441 335/470/427
f 324/223/202 323/216/195 348/489/442
f 355/495/448 348/489/442 347/490/443
f 354/496/449 347/490/443 346/491/444
f 353/497/450 346/491/444 345/492/445
f 352/498/451 345/492/445 344/493/446
f 351/499/452 344/493/446 343/494/447
f 350/500/453 343/494/447 342/473/428
f 312/230/209 325/232/211 327/501/454
f 325/232/211 326/234/213 362/503/455
f 326/234/213 324/223/202 355/495/448
f 311/502/410 327/501/454 356/504/456
f 327/501/454 362/503/455 363/506/457
f 362/503/455 355/495/448 354/496/449
f 310/505/406 356/504/456 357/507/458
f 356/504/456 363/506/457 364/509/459
f 363/506/457 354/496/449 353/497/450
f 309/508/407 357/507/458 358/510/460
f 357/507/458 364/509/459 365/512/461
f 364/509/459 353/497/450 352/498/451
f 358/510/460 359/515/463 307/513/400
f 358/510/460 365/512/461 366/514/462
f 365/512/461 352/498/451 351/499/452
f 359/515/463 360/518/465 306/516/401
f 359/515/463 366/514/462 367/517/464
f 366/514/462 351/499/452 350/500/453
f 360/518/465 361/521/467 305/519/399
f 360/518/465 367/517/464 368/520/466
f 367/517/464 350/500/453 349/475/429
f 361/521/467 303/523/392 304/522/395
f 368/520/466 302/524/393 303/523/392
f 349/475/429 301/476/388 302/524/393
f 391/525/468 392/467/424 320/469/426
f 395/526/469 394/464/421 334/463/420
f 396/527/470 395/526/469 333/487/440
f 397/528/471 396/527/470 332/485/438
f 398/529/472 397/528/471 331/483/436
f 398/529/472 330/481/434 329/479/432
f 399/530/473 329/479/432 328/477/430
f 400/531/474 328/477/430 321/204/183
f 450/532/475 389/422/381 402/424/383
f 440/534/476 377/428/387 389/422/381
f 441/535/477 378/427/386 377/428/387
f 437/536/478 371/432/391 378/427/386
f 449/537/479 388/431/390 371/432/391
f 438/538/480 375/435/394 388/431/390
f 438/538/480 448/557/482 387/539/397
f 444/540/481 382/437/396 387/439/397
f 444/540/481 443/542/483 381/440/398
f 443/542/483 442/544/485 380/445/403
f 446/543/484 385/444/402 380/445/403
f 446/543/484 445/545/486 383/446/404
f 445/545/486 439/546/487 376/451/409
f 439/546/487 447/547/488 386/450/408
f 414/281/252 372/176/157 386/450/408
f 374/455/413 379/454/412 432/548/489
f 390/457/415 374/455/413 431/549/490
f 369/459/417 390/457/415 434/550/491
f 373/461/419 369/459/417 429/551/492
f 430/552/493 435/555/496 391/525/468
f 432/548/489 379/454/412 370/191/171
f 436/553/494 433/556/497 384/554/495
f 435/555/496 436/553/494 392/467/424
f 402/424/383 393/423/382 298/468/425
f 320/469/426 298/468/425 393/462/382
f 319/465/422 320/469/426 394/464/421
f 318/460/418 319/465/422 395/526/469
f 317/458/416 318/460/418 396/527/470
f 316/456/414 317/458/416 397/528/471
f 315/453/411 316/456/414 398/529/472
f 314/466/423 315/453/411 399/530/473
f 313/291/262 314/466/423 400/531/474
f 428/533/358 402/424/383 384/554/495
f 427/265/237 417/267/239 465/124/108
f 418/268/240 466/125/109 465/124/108
f 413/269/241 461/126/110 466/125/109
f 426/270/242 474/127/111 461/126/110
f 415/271/243 463/128/112 474/127/111
f 425/272/244 473/559/114 463/128/112
f 421/273/245 469/130/113 473/131/114
f 420/275/246 468/132/115 469/130/113
f 420/275/246 419/276/247 467/134/117
f 419/276/247 423/277/248 471/133/116
f 422/278/249 470/135/118 471/133/116
f 422/278/249 416/279/250 464/136/119
f 416/279/250 424/280/251 472/138/121
f 424/280/251 414/281/252 462/137/120
f 408/282/253 407/283/254 455/140/123
f 410/284/255 458/141/124 455/140/123
f 410/284/255 404/285/256 452/142/125
f 404/285/256 406/286/257 454/143/126
f 406/286/257 411/287/258 459/147/130
f 405/288/259 408/282/253 456/139/122
f 412/289/260 409/290/261 457/148/131
f 411/287/258 412/289/260 460/145/128
f 403/266/238 451/123/107 457/148/131
f 450/532/475 428/533/358 476/398/358
f 450/532/475 498/397/357 488/399/359
f 441/535/477 440/534/476 488/399/359
f 441/535/477 489/400/360 485/401/361
f 449/537/479 437/536/478 485/401/361
f 438/538/480 449/537/479 497/402/362
f 448/557/482 438/538/480 486/403/363
f 448/541/482 496/406/364 492/405/365
f 444/540/481 492/405/365 491/407/366
f 442/544/485 443/542/483 491/407/366
f 442/544/485 490/408/367 494/409/368
f 445/545/486 446/543/484 494/409/368
f 439/546/487 445/545/486 493/410/369
f 439/546/487 487/411/370 495/412/371
f 447/547/488 495/412/371 462/137/120
f 432/548/489 480/413/372 479/414/373
f 431/549/490 479/414/373 482/415/374
f 429/551/492 434/550/491 482/415/374
f 429/551/492 477/416/375 478/417/376
f 435/555/496 430/552/493 478/417/376
f 432/548/489 405/288/259 453/144/127
f 436/553/494 484/419/378 481/420/379
f 435/555/496 483/418/377 484/419/378
f 428/533/358 433/556/497 481/420/379
f 427/265/237 475/122/106 451/123/107
