# Blender 3.6.23
# www.blender.org
o sol.019
v 3.411688 1.759285 -3.252611
v 3.410622 1.744654 -3.245725
v 3.390469 1.757386 -3.257532
v 3.391116 1.772551 -3.262449
v 3.391592 1.787898 -3.266638
v 3.412552 1.773978 -3.259009
v 3.389643 1.742349 -3.252069
v 3.369307 1.755723 -3.262553
v 3.369704 1.771348 -3.265835
v 3.369982 1.787115 -3.268583
v 3.368783 1.740218 -3.258824
v 3.348090 1.754386 -3.266959
v 3.348245 1.770408 -3.268729
v 3.348339 1.786507 -3.270199
v 3.347865 1.738438 -3.264918
v 3.326696 1.753466 -3.270037
v 3.326672 1.769764 -3.270694
v 3.326631 1.786088 -3.271248
v 3.391899 1.803477 -3.269919
v 3.413206 1.788845 -3.264593
v 3.370143 1.803039 -3.270716
v 3.348373 1.802691 -3.271342
v 3.326574 1.802433 -3.271699
v 3.392040 1.819346 -3.272109
v 3.413650 1.804010 -3.269045
v 3.370199 1.819139 -3.272148
v 3.348352 1.818958 -3.272138
v 3.326499 1.818803 -3.272056
v 3.392025 1.835559 -3.273029
v 3.413880 1.819581 -3.272042
v 3.370154 1.835439 -3.272794
v 3.348284 1.835316 -3.272560
v 3.326413 1.835194 -3.272326
v 3.431905 1.746956 -3.240873
v 3.433087 1.761328 -3.248512
v 3.305011 1.753058 -3.271064
v 3.304916 1.769462 -3.271291
v 3.326700 1.737193 -3.269268
v 3.305104 1.736657 -3.270804
v 3.304543 1.835071 -3.272091
v 3.304635 1.818669 -3.271879
v 3.435723 1.819844 -3.271975
v 3.435414 1.804634 -3.268202
v 3.413896 1.835681 -3.273263
v 3.435766 1.835804 -3.273498
v 3.304821 1.785864 -3.271492
v 3.434859 1.789952 -3.262691
v 3.304729 1.802267 -3.271682
v 3.434078 1.775590 -3.255954
v 3.283140 1.752938 -3.270834
v 3.283233 1.736534 -3.270570
v 3.261269 1.752816 -3.270607
v 3.261175 1.769217 -3.270834
v 3.261082 1.785619 -3.271034
v 3.283045 1.769340 -3.271059
v 3.261362 1.736414 -3.270335
v 3.239398 1.752693 -3.270383
v 3.239304 1.769094 -3.270612
v 3.239211 1.785499 -3.270809
v 3.239491 1.736291 -3.270101
v 3.217528 1.752570 -3.270158
v 3.217432 1.768974 -3.270390
v 3.217340 1.785377 -3.270587
v 3.217621 1.736169 -3.269866
v 3.195657 1.752450 -3.269929
v 3.195562 1.768852 -3.270166
v 3.195470 1.785254 -3.270361
v 3.260987 1.802024 -3.271221
v 3.282953 1.785742 -3.271260
v 3.239117 1.801901 -3.270994
v 3.217246 1.801779 -3.270764
v 3.195376 1.801656 -3.270535
v 3.260896 1.818426 -3.271413
v 3.282859 1.802144 -3.271451
v 3.239025 1.818304 -3.271179
v 3.217155 1.818181 -3.270947
v 3.195283 1.818061 -3.270715
v 3.260801 1.834828 -3.271622
v 3.282764 1.818549 -3.271645
v 3.238930 1.834706 -3.271388
v 3.217059 1.834586 -3.271154
v 3.195189 1.834463 -3.270919
v 3.173786 1.752327 -3.269700
v 3.173691 1.768729 -3.269934
v 3.195750 1.736049 -3.269632
v 3.173879 1.735926 -3.269397
v 3.173318 1.834341 -3.270685
v 3.173413 1.817939 -3.270480
v 3.282671 1.834951 -3.271857
v 3.173599 1.785131 -3.270129
v 3.173504 1.801536 -3.270303
v 3.151934 1.752136 -3.269300
v 3.152008 1.735729 -3.268992
v 3.130112 1.751862 -3.268698
v 3.130040 1.768307 -3.269031
v 3.129935 1.784770 -3.269362
v 3.151846 1.768551 -3.269567
v 3.130130 1.735442 -3.268378
v 3.108306 1.751586 -3.268078
v 3.108256 1.768063 -3.268479
v 3.108137 1.784564 -3.268907
v 3.108256 1.735155 -3.267751
v 3.086505 1.751395 -3.267628
v 3.086474 1.767885 -3.268059
v 3.086341 1.784404 -3.268545
v 3.086381 1.734958 -3.267306
v 3.064692 1.751371 -3.267530
v 3.064676 1.767844 -3.267929
v 3.064531 1.784335 -3.268375
v 3.129810 1.801230 -3.269677
v 3.151749 1.784973 -3.269801
v 3.107983 1.801064 -3.269327
v 3.086157 1.800923 -3.269025
v 3.064321 1.800830 -3.268821
v 3.129685 1.817677 -3.269966
v 3.151649 1.801394 -3.270021
v 3.107828 1.817544 -3.269700
v 3.085971 1.817417 -3.269445
v 3.064111 1.817301 -3.269219
v 3.129576 1.834098 -3.270216
v 3.151546 1.817812 -3.270231
v 3.107706 1.833976 -3.269982
v 3.085835 1.833853 -3.269747
v 3.063964 1.833733 -3.269513
v 3.042856 1.751598 -3.267977
v 3.042842 1.768000 -3.268234
v 3.064516 1.734944 -3.267238
v 3.042658 1.735199 -3.267744
v 3.042094 1.833610 -3.269279
v 3.042248 1.817208 -3.269037
v 3.151448 1.834218 -3.270451
v 3.042691 1.784403 -3.268505
v 3.042468 1.800805 -3.268776
v 3.413801 1.852083 -3.273488
v 3.391930 1.851963 -3.273253
v 3.391838 1.868365 -3.273478
v 3.391743 1.884766 -3.273703
v 3.413708 1.868487 -3.273712
v 3.370059 1.851840 -3.273019
v 3.369967 1.868242 -3.273244
v 3.369872 1.884644 -3.273468
v 3.348189 1.851718 -3.272785
v 3.348096 1.868120 -3.273009
v 3.348001 1.884524 -3.273234
v 3.326318 1.851595 -3.272550
v 3.326225 1.868000 -3.272775
v 3.326131 1.884401 -3.272999
v 3.391650 1.901168 -3.273927
v 3.413613 1.884889 -3.273937
v 3.369780 1.901048 -3.273693
v 3.347909 1.900926 -3.273458
v 3.326038 1.900803 -3.273224
v 3.391556 1.917570 -3.274152
v 3.413521 1.901291 -3.274162
v 3.369684 1.917450 -3.273917
v 3.347814 1.917328 -3.273683
v 3.325944 1.917205 -3.273448
v 3.391463 1.933975 -3.274376
v 3.413426 1.917693 -3.274386
v 3.369592 1.933852 -3.274142
v 3.347722 1.933730 -3.273907
v 3.325851 1.933609 -3.273673
v 3.435672 1.852205 -3.273722
v 3.304447 1.851475 -3.272316
v 3.304355 1.867877 -3.272540
v 3.303980 1.933487 -3.273439
v 3.304072 1.917085 -3.273214
v 3.435297 1.917815 -3.274621
v 3.435391 1.901414 -3.274396
v 3.413334 1.934095 -3.274611
v 3.435204 1.934217 -3.274845
v 3.304260 1.884279 -3.272765
v 3.435484 1.885009 -3.274171
v 3.304168 1.900681 -3.272990
v 3.435579 1.868608 -3.273947
v 3.282577 1.851352 -3.272081
v 3.260706 1.851230 -3.271847
v 3.260613 1.867635 -3.272072
v 3.260518 1.884036 -3.272296
v 3.282485 1.867755 -3.272306
v 3.238835 1.851110 -3.271613
v 3.238743 1.867512 -3.271837
v 3.238648 1.883914 -3.272062
v 3.216965 1.850987 -3.271378
v 3.216872 1.867389 -3.271603
v 3.216777 1.883791 -3.271827
v 3.195094 1.850865 -3.271144
v 3.195002 1.867267 -3.271369
v 3.194906 1.883671 -3.271593
v 3.260426 1.900438 -3.272521
v 3.282389 1.884156 -3.272531
v 3.238555 1.900316 -3.272286
v 3.216684 1.900195 -3.272052
v 3.194814 1.900073 -3.271818
v 3.260331 1.916840 -3.272745
v 3.282297 1.900561 -3.272755
v 3.238461 1.916717 -3.272511
v 3.216590 1.916597 -3.272277
v 3.194719 1.916475 -3.272042
v 3.260239 1.933242 -3.272970
v 3.282202 1.916962 -3.272979
v 3.238368 1.933122 -3.272736
v 3.216497 1.932999 -3.272501
v 3.194627 1.932877 -3.272267
v 3.173226 1.850743 -3.270910
v 3.173131 1.867147 -3.271134
v 3.172756 1.932756 -3.272032
v 3.172848 1.916352 -3.271808
v 3.282109 1.933364 -3.273204
v 3.173036 1.883548 -3.271359
v 3.172943 1.899950 -3.271583
v 3.151355 1.850623 -3.270675
v 3.129484 1.850500 -3.270441
v 3.129389 1.866902 -3.270665
v 3.129297 1.883306 -3.270890
v 3.151260 1.867024 -3.270900
v 3.107614 1.850378 -3.270206
v 3.107518 1.866782 -3.270431
v 3.107426 1.883184 -3.270655
v 3.085742 1.850257 -3.269972
v 3.085648 1.866659 -3.270196
v 3.085556 1.883061 -3.270421
v 3.063872 1.850135 -3.269737
v 3.063777 1.866537 -3.269962
v 3.063685 1.882939 -3.270187
v 3.129201 1.899708 -3.271114
v 3.151165 1.883426 -3.271124
v 3.107331 1.899585 -3.270880
v 3.085460 1.899463 -3.270645
v 3.063589 1.899343 -3.270411
v 3.129107 1.916109 -3.271339
v 3.151073 1.899828 -3.271349
v 3.107236 1.915987 -3.271105
v 3.085365 1.915867 -3.270870
v 3.063497 1.915745 -3.270636
v 3.129015 1.932511 -3.271563
v 3.150978 1.916232 -3.271573
v 3.107144 1.932389 -3.271329
v 3.085273 1.932269 -3.271095
v 3.063402 1.932146 -3.270860
v 3.042001 1.850012 -3.269503
v 3.041907 1.866414 -3.269727
v 3.041532 1.932024 -3.270626
v 3.041626 1.915622 -3.270401
v 3.150885 1.932634 -3.271798
v 3.041814 1.882818 -3.269952
v 3.041719 1.899220 -3.270177
v 3.413635 1.950740 -3.274820
v 3.391716 1.950568 -3.274772
v 3.392411 1.967393 -3.275203
v 3.393179 1.984224 -3.275208
v 3.414435 1.967678 -3.274729
v 3.369745 1.950382 -3.274563
v 3.370218 1.967067 -3.275133
v 3.370749 1.983757 -3.275478
v 3.347760 1.950198 -3.274264
v 3.347972 1.966747 -3.274744
v 3.348219 1.983296 -3.275132
v 3.325795 1.950028 -3.273941
v 3.325793 1.966474 -3.274254
v 3.325799 1.982917 -3.274548
v 3.393636 2.000835 -3.274326
v 3.415293 1.984627 -3.273936
v 3.371072 2.000297 -3.275224
v 3.348357 1.999769 -3.275207
v 3.325773 1.999340 -3.274751
v 3.393412 2.017004 -3.272093
v 3.415768 2.001299 -3.272030
v 3.370925 2.016538 -3.273995
v 3.348248 2.016087 -3.274753
v 3.325680 2.015719 -3.274798
v 3.392132 2.032499 -3.268049
v 3.415420 2.017415 -3.268613
v 3.370042 2.032328 -3.271423
v 3.347752 2.032171 -3.273559
v 3.325471 2.032029 -3.274622
v 3.435469 1.950886 -3.274640
v 3.303885 1.949888 -3.273663
v 3.303793 1.966290 -3.273888
v 3.303418 2.031900 -3.274786
v 3.303511 2.015498 -3.274562
v 3.436649 2.017709 -3.263122
v 3.437190 2.001602 -3.267862
v 3.413804 2.032688 -3.263272
v 3.434844 2.032897 -3.256923
v 3.303698 1.982695 -3.274112
v 3.436888 1.984891 -3.271279
v 3.303605 1.999097 -3.274337
v 3.436172 1.967881 -3.273493
v 3.282015 1.949766 -3.273429
v 3.260144 1.949646 -3.273195
v 3.260051 1.966048 -3.273419
v 3.259957 1.982450 -3.273644
v 3.281922 1.966170 -3.273654
v 3.238273 1.949523 -3.272960
v 3.238181 1.965925 -3.273185
v 3.238086 1.982327 -3.273409
v 3.216403 1.949401 -3.272726
v 3.216310 1.965805 -3.272950
v 3.216215 1.982207 -3.273175
v 3.194531 1.949281 -3.272491
v 3.194439 1.965683 -3.272716
v 3.194344 1.982084 -3.272940
v 3.259864 1.998852 -3.273868
v 3.281827 1.982572 -3.273878
v 3.237993 1.998731 -3.273634
v 3.216122 1.998609 -3.273399
v 3.194252 1.998486 -3.273165
v 3.259769 2.015255 -3.274093
v 3.281734 1.998974 -3.274102
v 3.237898 2.015133 -3.273858
v 3.216028 2.015011 -3.273624
v 3.194157 2.014888 -3.273389
v 3.259676 2.031658 -3.274317
v 3.281640 2.015376 -3.274327
v 3.237806 2.031535 -3.274083
v 3.215935 2.031413 -3.273848
v 3.194064 2.031292 -3.273614
v 3.172661 1.949158 -3.272257
v 3.172568 1.965560 -3.272481
v 3.172194 2.031170 -3.273380
v 3.172286 2.014768 -3.273155
v 3.281547 2.031780 -3.274552
v 3.172474 1.981962 -3.272706
v 3.172381 1.998366 -3.272930
v 3.150788 1.949007 -3.272017
v 3.128919 1.948814 -3.271744
v 3.128845 1.964954 -3.271800
v 3.128830 1.980991 -3.271673
v 3.150698 1.965334 -3.272210
v 3.107059 1.948601 -3.271406
v 3.107036 1.964500 -3.271152
v 3.107135 1.980200 -3.270494
v 3.085219 1.948387 -3.270973
v 3.085294 1.964052 -3.270159
v 3.085569 1.979422 -3.268656
v 3.063406 1.948198 -3.270408
v 3.063643 1.963685 -3.268726
v 3.064170 1.978809 -3.265999
v 3.128913 1.996983 -3.271306
v 3.150621 1.981633 -3.272356
v 3.107422 1.995815 -3.269371
v 3.086122 1.994662 -3.266463
v 3.065042 1.993770 -3.262408
v 3.129129 2.012989 -3.270638
v 3.150573 1.997918 -3.272435
v 3.107958 2.011453 -3.267719
v 3.087027 2.009934 -3.263580
v 3.066317 2.008773 -3.258138
v 3.129518 2.029064 -3.269611
v 3.150567 2.014206 -3.272421
v 3.108808 2.027226 -3.265467
v 3.088356 2.025407 -3.260006
v 3.068050 2.024014 -3.253373
v 3.041630 1.948056 -3.269680
v 3.042111 1.963487 -3.266749
v 3.047771 2.023455 -3.245708
v 3.045805 2.008300 -3.251312
v 3.150609 2.030514 -3.272296
v 3.042970 1.978529 -3.262359
v 3.044204 1.993396 -3.257038
v -2.420511 1.759713 0.092634
v -2.413839 1.745724 0.087900
v -2.425683 1.763160 0.071672
v -2.430384 1.777748 0.076105
v -2.434356 1.792547 0.080407
v -2.426696 1.773806 0.097182
v -2.420436 1.748734 0.067089
v -2.430951 1.766823 0.050824
v -2.434013 1.781901 0.055105
v -2.436541 1.797140 0.059299
v -2.427441 1.751886 0.046443
v -2.435601 1.770808 0.029994
v -2.437149 1.786314 0.034119
v -2.438396 1.801908 0.038200
v -2.433781 1.755388 0.025817
v -2.438919 1.775226 0.009079
v -2.439351 1.791033 0.013082
v -2.439681 1.806867 0.017074
v -2.437419 1.807604 0.084590
v -2.432069 1.788112 0.101557
v -2.438454 1.812554 0.063411
v -2.439316 1.817594 0.042238
v -2.439909 1.822725 0.021055
v -2.439389 1.822970 0.088669
v -2.436306 1.802745 0.105787
v -2.439664 1.828158 0.067454
v -2.439888 1.833371 0.046239
v -2.440041 1.838611 0.025023
v -2.440086 1.838694 0.092664
v -2.439086 1.817809 0.109890
v -2.440086 1.843970 0.071438
v -2.440086 1.849244 0.050211
v -2.440086 1.854518 0.028984
v -2.408729 1.742653 0.109025
v -2.416156 1.756371 0.113818
v -2.440181 1.780192 -0.012022
v -2.440184 1.796114 -0.008067
v -2.438374 1.759449 0.005060
v -2.440146 1.764273 -0.015979
v -2.440086 1.859792 0.007757
v -2.440099 1.843873 0.003800
v -2.438784 1.812675 0.131121
v -2.435224 1.797972 0.127019
v -2.440086 1.833420 0.113891
v -2.440086 1.828146 0.135118
v -2.440161 1.812034 -0.004112
v -2.429921 1.783822 0.122786
v -2.440126 1.827953 -0.000155
v -2.423391 1.770025 0.118397
v -2.440186 1.785468 -0.033248
v -2.440146 1.769546 -0.037206
v -2.440194 1.790742 -0.054475
v -2.440196 1.806662 -0.050520
v -2.440171 1.822581 -0.046563
v -2.440186 1.801388 -0.029293
v -2.440146 1.774823 -0.058432
v -2.440204 1.796016 -0.075702
v -2.440209 1.811936 -0.071747
v -2.440181 1.827857 -0.067790
v -2.440146 1.780097 -0.079659
v -2.440214 1.801290 -0.096929
v -2.440221 1.817212 -0.092974
v -2.440194 1.833131 -0.089017
v -2.440146 1.785371 -0.100886
v -2.440219 1.806566 -0.118155
v -2.440231 1.822486 -0.114201
v -2.440201 1.838405 -0.110243
v -2.440134 1.838503 -0.042608
v -2.440164 1.817307 -0.025336
v -2.440141 1.843777 -0.063835
v -2.440146 1.849051 -0.085062
v -2.440151 1.854325 -0.106289
v -2.440101 1.854423 -0.038651
v -2.440129 1.833227 -0.021381
v -2.440101 1.859696 -0.059878
v -2.440104 1.864970 -0.081105
v -2.440106 1.870247 -0.102331
v -2.440086 1.870342 -0.034696
v -2.440099 1.849149 -0.017427
v -2.440086 1.875616 -0.055923
v -2.440086 1.880892 -0.077150
v -2.440086 1.886166 -0.098377
v -2.440224 1.811840 -0.139382
v -2.440234 1.827760 -0.135428
v -2.440146 1.790647 -0.122113
v -2.440146 1.795921 -0.143339
v -2.440086 1.891440 -0.119603
v -2.440106 1.875521 -0.123558
v -2.440086 1.865068 -0.013469
v -2.440204 1.843679 -0.131470
v -2.440154 1.859601 -0.127515
v -2.440059 1.817042 -0.160611
v -2.439976 1.801121 -0.164588
v -2.439694 1.822152 -0.181833
v -2.439801 1.838110 -0.177843
v -2.439906 1.854092 -0.173882
v -2.440101 1.832973 -0.156645
v -2.439599 1.806233 -0.185868
v -2.439309 1.827257 -0.203040
v -2.439484 1.843240 -0.199021
v -2.439686 1.859265 -0.195062
v -2.439209 1.811344 -0.207144
v -2.439094 1.832445 -0.224219
v -2.439299 1.848437 -0.220177
v -2.439559 1.864482 -0.216228
v -2.438999 1.816544 -0.228396
v -2.439229 1.837802 -0.245363
v -2.439401 1.853773 -0.241313
v -2.439621 1.869795 -0.237382
v -2.439996 1.870077 -0.169941
v -2.440111 1.848912 -0.152687
v -2.439881 1.875297 -0.191138
v -2.439814 1.880541 -0.212327
v -2.439844 1.885834 -0.233513
v -2.440061 1.886048 -0.166003
v -2.440106 1.864852 -0.148734
v -2.440029 1.891308 -0.187221
v -2.440009 1.896574 -0.208435
v -2.440016 1.901852 -0.229649
v -2.440086 1.901990 -0.162057
v -2.440091 1.880789 -0.144783
v -2.440086 1.907264 -0.183284
v -2.440086 1.912538 -0.204511
v -2.440086 1.917814 -0.225737
v -2.439904 1.843414 -0.266462
v -2.439936 1.859313 -0.262428
v -2.439164 1.821924 -0.249589
v -2.439899 1.827569 -0.270700
v -2.440086 1.923088 -0.246964
v -2.440068 1.907153 -0.250862
v -2.440086 1.896714 -0.140830
v -2.439983 1.875249 -0.258528
v -2.440031 1.891201 -0.254696
v -2.440086 1.849340 0.117846
v -2.440086 1.854616 0.096619
v -2.440086 1.870535 0.100577
v -2.440086 1.886455 0.104531
v -2.440086 1.865261 0.121803
v -2.440086 1.859890 0.075393
v -2.440086 1.875809 0.079350
v -2.440086 1.891729 0.083305
v -2.440086 1.865164 0.054166
v -2.440086 1.881083 0.058123
v -2.440086 1.897005 0.062078
v -2.440086 1.870438 0.032939
v -2.440086 1.886359 0.036896
v -2.440086 1.902279 0.040851
v -2.440086 1.902374 0.108489
v -2.440086 1.881181 0.125758
v -2.440086 1.907651 0.087262
v -2.440086 1.912925 0.066035
v -2.440086 1.918198 0.044808
v -2.440086 1.918294 0.112443
v -2.440086 1.897100 0.129715
v -2.440086 1.923570 0.091217
v -2.440086 1.928844 0.069990
v -2.440086 1.934118 0.048763
v -2.440086 1.934216 0.116401
v -2.440086 1.913020 0.133670
v -2.440086 1.939490 0.095174
v -2.440086 1.944764 0.073947
v -2.440086 1.950040 0.052720
v -2.440086 1.844066 0.139073
v -2.440086 1.875714 0.011712
v -2.440086 1.891633 0.015669
v -2.440086 1.955314 0.031494
v -2.440086 1.939394 0.027536
v -2.440086 1.907746 0.154897
v -2.440086 1.891827 0.150942
v -2.440086 1.928939 0.137627
v -2.440086 1.923665 0.158854
v -2.440086 1.907553 0.019624
v -2.440086 1.875905 0.146985
v -2.440086 1.923472 0.023581
v -2.440086 1.859985 0.143030
v -2.440086 1.880988 -0.009515
v -2.440086 1.886262 -0.030741
v -2.440086 1.902184 -0.026784
v -2.440086 1.918103 -0.022829
v -2.440086 1.896907 -0.005557
v -2.440086 1.891538 -0.051968
v -2.440086 1.907458 -0.048011
v -2.440086 1.923377 -0.044056
v -2.440086 1.896812 -0.073195
v -2.440086 1.912731 -0.069238
v -2.440086 1.928651 -0.065283
v -2.440086 1.902086 -0.094422
v -2.440086 1.918005 -0.090465
v -2.440086 1.933927 -0.086510
v -2.440086 1.934022 -0.018872
v -2.440086 1.912827 -0.001603
v -2.440086 1.939296 -0.040099
v -2.440086 1.944573 -0.061326
v -2.440086 1.949847 -0.082552
v -2.440086 1.949942 -0.014917
v -2.440086 1.928748 0.002355
v -2.440086 1.955216 -0.036144
v -2.440086 1.960492 -0.057371
v -2.440086 1.965766 -0.078598
v -2.440086 1.965861 -0.010960
v -2.440086 1.944668 0.006309
v -2.440086 1.971138 -0.032187
v -2.440086 1.976412 -0.053414
v -2.440086 1.981686 -0.074640
v -2.440086 1.907359 -0.115646
v -2.440086 1.923282 -0.111691
v -2.440086 1.986962 -0.095867
v -2.440086 1.971040 -0.099825
v -2.440086 1.960588 0.010267
v -2.440086 1.939201 -0.107737
v -2.440086 1.955120 -0.103779
v -2.440086 1.912636 -0.136873
v -2.440086 1.917910 -0.158100
v -2.440086 1.933829 -0.154145
v -2.440086 1.949751 -0.150188
v -2.440086 1.928555 -0.132918
v -2.440086 1.923184 -0.179327
v -2.440086 1.939106 -0.175372
v -2.440086 1.955025 -0.171414
v -2.440086 1.928460 -0.200553
v -2.440086 1.944380 -0.196598
v -2.440086 1.960299 -0.192641
v -2.440086 1.933734 -0.221780
v -2.440086 1.949654 -0.217825
v -2.440086 1.965573 -0.213868
v -2.440086 1.965671 -0.146233
v -2.440086 1.944475 -0.128963
v -2.440086 1.970945 -0.167460
v -2.440086 1.976218 -0.188687
v -2.440086 1.981495 -0.209913
v -2.440086 1.981590 -0.142278
v -2.440086 1.960394 -0.125006
v -2.440086 1.986864 -0.163505
v -2.440086 1.992140 -0.184732
v -2.440086 1.997414 -0.205956
v -2.440086 1.997509 -0.138321
v -2.440086 1.976316 -0.121051
v -2.440086 2.002783 -0.159548
v -2.440086 2.008060 -0.180774
v -2.440086 2.013334 -0.202001
v -2.440086 1.939008 -0.243007
v -2.440086 1.954927 -0.239052
v -2.440086 2.018608 -0.223228
v -2.440086 2.002688 -0.227183
v -2.440086 1.992236 -0.117094
v -2.440086 1.970849 -0.235095
v -2.440086 1.986768 -0.231140
v -2.440064 1.944997 0.142026
v -2.440251 1.950237 0.120742
v -2.440444 1.966374 0.125569
v -2.440209 1.982494 0.130463
v -2.439731 1.961212 0.146976
v -2.440279 1.955475 0.099403
v -2.440614 1.971532 0.103982
v -2.440724 1.987578 0.108616
v -2.440216 1.960717 0.078049
v -2.440466 1.976706 0.082341
v -2.440624 1.992686 0.086665
v -2.440129 1.965967 0.056718
v -2.440216 1.981908 0.060774
v -2.440284 1.997843 0.064838
v -2.439094 1.998470 0.134990
v -2.438696 1.977416 0.151975
v -2.440238 2.003524 0.113003
v -2.440471 2.008615 0.090861
v -2.440261 2.013766 0.068865
v -2.436641 2.014169 0.138728
v -2.436556 1.993435 0.156519
v -2.438789 2.019285 0.116848
v -2.439794 2.024450 0.094773
v -2.440084 2.029661 0.072814
v -2.432399 2.029457 0.141252
v -2.432921 2.009101 0.160108
v -2.436009 2.034776 0.119850
v -2.438384 2.040146 0.098241
v -2.439686 2.045516 0.076629
v -2.439649 1.939751 0.163217
v -2.440086 1.971233 0.035448
v -2.440086 1.987153 0.039406
v -2.440086 2.050833 0.055230
v -2.440086 2.034914 0.051272
v -2.427201 2.004091 0.180677
v -2.432156 1.988399 0.177295
v -2.427389 2.024243 0.162234
v -2.420814 2.019187 0.182588
v -2.440086 2.003075 0.043360
v -2.435806 1.972317 0.172929
v -2.440086 2.018994 0.047318
v -2.438261 1.956034 0.168073
v -2.440086 1.976507 0.014221
v -2.440086 1.981784 -0.007005
v -2.440086 1.997703 -0.003048
v -2.440086 2.013622 0.000907
v -2.440086 1.992429 0.018179
v -2.440086 1.987057 -0.028232
v -2.440086 2.002977 -0.024275
v -2.440086 2.018896 -0.020320
v -2.440086 1.992331 -0.049459
v -2.440086 2.008253 -0.045501
v -2.440086 2.024173 -0.041547
v -2.440086 1.997607 -0.070686
v -2.440086 2.013527 -0.066728
v -2.440086 2.029447 -0.062774
v -2.440086 2.029542 0.004864
v -2.440086 2.008348 0.022134
v -2.440086 2.034818 -0.016363
v -2.440086 2.040092 -0.037590
v -2.440086 2.045366 -0.058816
v -2.440086 2.045464 0.008819
v -2.440086 2.024268 0.026091
v -2.440086 2.050738 -0.012408
v -2.440086 2.056012 -0.033635
v -2.440086 2.061285 -0.054862
v -2.440086 2.061383 0.012776
v -2.440086 2.040187 0.030046
v -2.440086 2.066657 -0.008451
v -2.440086 2.071931 -0.029678
v -2.440086 2.077207 -0.050904
v -2.440086 2.002882 -0.091912
v -2.440086 2.018801 -0.087955
v -2.440086 2.082481 -0.072131
v -2.440086 2.066562 -0.076088
v -2.440086 2.056109 0.034003
v -2.440086 2.034720 -0.084000
v -2.440086 2.050642 -0.080043
v -2.440081 2.008128 -0.113148
v -2.440044 2.013333 -0.134392
v -2.439878 2.028992 -0.130483
v -2.439531 2.044535 -0.126546
v -2.440051 2.023973 -0.109208
v -2.439941 2.018515 -0.155632
v -2.439468 2.033925 -0.151738
v -2.438594 2.049108 -0.147781
v -2.439744 2.023691 -0.176855
v -2.438714 2.038844 -0.172931
v -2.436996 2.053654 -0.168896
v -2.439414 2.028883 -0.198047
v -2.437516 2.043814 -0.194021
v -2.434576 2.058311 -0.189820
v -2.438944 2.060007 -0.122529
v -2.439974 2.039788 -0.105262
v -2.437253 2.064156 -0.143668
v -2.434589 2.068262 -0.164633
v -2.430771 2.072555 -0.185336
v -2.438054 2.075457 -0.118382
v -2.439829 2.055582 -0.101293
v -2.435381 2.079160 -0.139316
v -2.431486 2.082807 -0.160030
v -2.426281 2.086733 -0.180460
v -2.436801 2.090928 -0.114056
v -2.439591 2.071368 -0.097283
v -2.432904 2.094211 -0.134635
v -2.427686 2.097435 -0.154977
v -2.421289 2.101023 -0.175089
v -2.438919 2.034109 -0.219193
v -2.435771 2.048912 -0.214963
v -2.413849 2.105402 -0.194982
v -2.419681 2.091261 -0.200547
v -2.439241 2.087158 -0.093224
v -2.431166 2.063229 -0.210482
v -2.425629 2.077275 -0.205695
vn 0.0621 -0.0797 0.9949
vn 0.0210 -0.0085 0.9997
vn 0.0423 -0.0326 0.9986
vn -0.0834 0.3749 0.9233
vn -0.0470 0.2384 0.9700
vn -0.1014 0.3189 0.9424
vn 0.0124 0.0116 0.9999
vn 0.0140 0.0134 0.9998
vn 0.0171 0.0143 0.9998
vn 0.0106 0.0137 0.9998
vn 0.0106 0.0138 0.9998
vn 0.0146 0.0142 0.9998
vn 0.0185 0.0190 0.9996
vn 0.0219 0.0158 0.9996
vn -0.1935 0.4556 0.8689
vn -0.1622 0.3758 0.9124
vn -0.2200 0.4101 0.8851
vn 0.0105 0.0120 0.9999
vn 0.0106 0.0133 0.9999
vn 0.0106 0.0132 0.9999
vn 0.0110 0.0192 0.9998
vn 0.0146 0.0246 0.9996
vn 0.0112 0.0171 0.9998
vn -0.0036 0.0187 0.9998
vn 0.0046 0.0247 0.9997
vn 0.0039 0.0180 0.9998
vn 0.0245 0.0205 0.9995
vn 0.0223 0.0180 0.9996
vn 0.0201 0.0158 0.9997
vn 0.0107 0.0137 0.9998
vn -0.0115 0.0157 0.9998
vn -0.1026 0.0491 0.9935
vn -0.0655 0.0419 0.9970
vn -0.2236 0.4544 0.8623
vn 0.0095 -0.0106 0.9999
vn 0.0016 0.0025 1.0000
vn -0.0196 -0.0445 0.9988
vn 0.0102 0.0137 0.9999
vn 0.0032 0.0215 0.9998
vn 0.0096 0.0161 0.9998
vn -0.0028 0.0142 0.9999
vn 0.0105 0.0118 0.9999
vn 0.0104 0.0120 0.9999
vn 0.0182 0.0123 0.9998
vn 0.2783 -0.2960 0.9137
vn 0.1700 -0.1716 0.9704
vn 0.2314 -0.2153 0.9487
vn 0.0106 0.0265 0.9996
vn 0.0060 0.0243 0.9997
vn -0.0081 0.0121 0.9999
vn 0.0130 0.0143 0.9998
vn 0.0142 0.0129 0.9998
vn 0.0412 -0.0014 0.9991
vn 0.0262 0.0046 0.9996
vn 0.0735 -0.2195 0.9728
vn 0.0367 -0.0743 0.9966
vn 0.0854 -0.1495 0.9851
vn 0.0130 0.0163 0.9998
vn 0.0108 0.0138 0.9998
vn 0.0109 0.0147 0.9998
vn 0.0120 0.0133 0.9998
vn 0.0171 0.0089 0.9998
vn 0.0038 0.0134 0.9999
vn -0.0349 0.0349 0.9988
vn -0.0118 0.0281 0.9995
vn 0.0192 0.0252 0.9995
vn 0.0202 0.0198 0.9996
vn 0.0142 -0.0103 0.9998
vn 0.0271 -0.1164 0.9928
vn 0.0108 -0.0225 0.9997
vn 0.0083 0.0467 0.9989
vn -0.0006 0.1634 0.9866
vn 0.0104 0.0543 0.9985
vn 0.0091 0.0102 0.9999
vn 0.0016 0.0137 0.9999
vn 0.0010 -0.0133 0.9999
vn -0.0566 -0.0628 0.9964
vn -0.0220 -0.0061 0.9997
vn 0.0101 0.0117 0.9999
vn 0.0102 0.0131 0.9999
vn 0.0102 0.0119 0.9999
vn -0.1294 0.0401 0.9908
vn -0.0222 0.0180 0.9996
vn -0.0302 0.0157 0.9994
vn 0.0127 0.0276 0.9995
vn 0.0241 0.0223 0.9995
vn 0.0221 0.0252 0.9994
vn 0.0105 0.0168 0.9998
vn 0.0102 0.0156 0.9998
vn 0.0105 0.0174 0.9998
vn 0.0141 0.0166 0.9998
vn 0.0103 0.0132 0.9999
vn 0.0133 0.0134 0.9998
vn 0.0084 0.0372 0.9993
vn 0.0104 0.0149 0.9998
vn 0.0105 0.0163 0.9998
vn 0.2150 -0.1317 0.9677
vn 0.1182 -0.0590 0.9912
vn 0.1496 -0.0540 0.9873
vn 0.0110 0.0117 0.9999
vn 0.0106 0.0131 0.9999
vn 0.0107 0.0132 0.9999
vn -0.0676 0.0848 0.9941
vn -0.0274 0.0633 0.9976
vn 0.0102 0.0115 0.9999
vn 0.0101 0.0131 0.9999
vn 0.0104 0.0113 0.9999
vn 0.0104 0.0110 0.9999
vn 0.0105 0.0108 0.9999
vn -0.2900 0.3191 0.9023
vn -0.2284 0.2218 0.9480
vn -0.2810 0.2112 0.9362
vn 0.0103 0.0160 0.9998
vn 0.0102 0.0132 0.9999
vn 0.1422 -0.2937 0.9453
vn 0.1502 -0.2127 0.9655
vn 0.0105 0.0182 0.9998
vn 0.0144 0.0186 0.9997
vn 0.0113 0.0118 0.9999
vn 0.0120 0.0080 0.9999
vn 0.1760 -0.1316 0.9755
vn 0.0770 -0.0369 0.9964
vn 0.0109 0.0269 0.9996
vn 0.0119 0.0201 0.9997
vn 0.0106 0.0218 0.9997
vn 0.0103 0.0113 0.9999
vn 0.0105 0.0179 0.9998
vn -0.0016 0.0404 0.9992
vn -0.0209 -0.0649 0.9977
vn -0.0595 -0.1358 0.9889
vn 0.0106 0.0124 0.9999
vn 0.0106 0.0134 0.9999
vn 0.0280 -0.0341 0.9990
vn 0.0130 0.0010 0.9999
vn 0.0110 0.0136 0.9998
vn 0.0125 0.0119 0.9999
vn 0.0104 0.0163 0.9998
vn 0.0230 0.0190 0.9996
vn 0.0115 0.0110 0.9999
vn 0.0089 0.0161 0.9998
vn 0.0103 0.0155 0.9998
vn 0.0107 0.0143 0.9998
vn 0.0084 0.0203 0.9998
vn 0.2714 -0.2199 0.9370
vn 0.0118 0.0284 0.9995
vn -0.1200 0.1047 0.9872
vn 0.0823 -0.0033 0.9966
vn 0.0245 0.0116 0.9996
vn 0.0300 0.0138 0.9995
vn -0.0896 0.1561 0.9837
vn -0.1684 0.2880 0.9427
vn -0.1009 0.2380 0.9660
vn 0.0190 0.0080 0.9998
vn 0.0153 0.0234 0.9996
vn -0.0083 0.1360 0.9907
vn 0.0103 0.0152 0.9998
vn 0.0104 0.0131 0.9999
vn -0.1545 0.1921 0.9691
vn 0.0280 0.0196 0.9994
vn 0.0243 0.0197 0.9995
vn 0.0087 0.0284 0.9996
vn 0.0120 0.0191 0.9997
vn -0.0080 0.0212 0.9997
vn -0.0092 0.0172 0.9998
vn 0.0109 0.0148 0.9998
vn 0.0113 0.0140 0.9998
vn 0.0106 0.0118 0.9999
vn 0.1210 -0.0945 0.9881
vn 0.0471 -0.0188 0.9987
vn 0.0759 -0.0614 0.9952
vn 0.0272 -0.0047 0.9996
vn 0.0158 0.0056 0.9999
vn 0.1115 -0.1260 0.9858
vn 0.0104 0.0116 0.9999
vn -0.0191 0.0176 0.9997
vn -0.0048 0.0252 0.9997
vn -0.0115 0.0182 0.9998
vn -0.0384 0.1145 0.9927
vn -0.0451 0.1750 0.9835
vn 0.0104 0.0189 0.9998
vn 0.0091 0.0212 0.9997
vn -0.0051 0.0677 0.9977
vn -0.0074 0.1004 0.9949
vn 0.0147 0.0136 0.9998
vn -0.2054 -0.3367 0.9189
vn -0.2435 -0.3278 0.9128
vn -0.2623 -0.3912 0.8821
vn 0.0106 0.0123 0.9999
vn 0.0094 0.0143 0.9999
vn 0.0106 0.0161 0.9998
vn 0.0109 0.0134 0.9999
vn 0.0639 -0.0090 0.9979
vn 0.0164 0.0179 0.9997
vn -0.0000 0.0262 0.9997
vn 0.0108 0.0156 0.9998
vn 0.0105 0.0121 0.9999
vn 0.0118 0.0129 0.9998
vn -0.1824 0.1225 0.9756
vn 0.0274 0.0203 0.9994
vn -0.0692 -0.0947 0.9931
vn -0.1149 -0.2146 0.9699
vn 0.0051 0.0058 1.0000
vn -0.0038 0.0045 1.0000
vn 0.0195 0.0259 0.9995
vn -0.1007 -0.1478 0.9839
vn -0.1397 -0.1418 0.9800
vn -0.1406 -0.1611 0.9769
vn -0.0856 -0.0795 0.9932
vn -0.1543 -0.2428 0.9577
vn 0.0126 0.0227 0.9997
vn -0.2273 0.1097 0.9676
vn -0.2007 -0.2238 0.9538
vn -0.1827 -0.2830 0.9416
vn -0.0331 -0.0264 0.9991
vn 0.0136 0.0177 0.9998
vn -0.2563 0.4098 0.8754
vn -0.2403 0.3246 0.9148
vn 0.2173 -0.3371 0.9161
vn 0.2185 -0.2617 0.9401
vn 0.0121 0.0289 0.9995
vn 0.0199 0.0143 0.9997
vn 0.3186 -0.3450 0.8829
vn 0.3117 -0.2999 0.9016
vn -0.0224 -0.0263 0.9994
vn -0.0370 -0.0260 0.9990
vn 0.2840 -0.3507 0.8924
vn -0.0753 -0.0779 0.9941
vn -0.0230 0.0145 0.9996
vn 0.0082 0.0135 0.9999
vn -0.0333 0.2854 0.9578
vn -0.1404 0.4308 0.8914
vn -0.9943 0.1032 -0.0269
vn -0.9997 0.0241 -0.0045
vn -0.9984 0.0528 -0.0193
vn -0.9274 -0.3740 0.0011
vn -0.9727 -0.2323 -0.0000
vn -0.9455 -0.3239 0.0326
vn -1.0000 0.0025 -0.0012
vn -1.0000 0.0012 -0.0032
vn -1.0000 0.0011 -0.0064
vn -1.0000 -0.0000 -0.0000
vn -1.0000 0.0006 -0.0040
vn -1.0000 -0.0032 -0.0090
vn -0.9999 0.0008 -0.0114
vn -0.8730 -0.4799 0.0871
vn -0.9157 -0.3944 0.0770
vn -0.8883 -0.4422 0.1242
vn -1.0000 0.0017 0.0005
vn -1.0000 0.0005 0.0001
vn -1.0000 -0.0052 -0.0017
vn -0.9999 -0.0095 -0.0065
vn -1.0000 -0.0032 -0.0014
vn -0.9999 -0.0083 0.0125
vn -0.9999 -0.0121 0.0032
vn -1.0000 -0.0057 0.0055
vn -0.9999 -0.0031 -0.0151
vn -0.9999 -0.0012 -0.0124
vn -1.0000 0.0003 -0.0097
vn -0.9998 -0.0074 0.0210
vn -0.9929 -0.0623 0.1010
vn -0.9967 -0.0461 0.0668
vn -0.8660 -0.4863 0.1165
vn -0.9997 0.0233 0.0071
vn -0.9999 0.0087 0.0115
vn -0.9978 0.0490 0.0437
vn -1.0000 -0.0001 0.0004
vn -0.9999 -0.0094 0.0053
vn -1.0000 -0.0025 0.0004
vn -0.9999 -0.0037 0.0130
vn -1.0000 0.0019 0.0006
vn -1.0000 0.0016 0.0006
vn -1.0000 0.0033 -0.0070
vn -0.9125 0.3653 -0.1842
vn -0.9697 0.2186 -0.1091
vn -0.9481 0.2759 -0.1581
vn -0.9999 -0.0124 -0.0031
vn -0.9999 -0.0114 0.0019
vn -0.9998 -0.0030 0.0185
vn -1.0000 -0.0000 -0.0024
vn -1.0000 0.0017 -0.0032
vn -0.9994 0.0222 -0.0259
vn -0.9998 0.0127 -0.0128
vn -0.9705 0.2412 -0.0037
vn -0.9958 0.0918 -0.0036
vn -0.9838 0.1764 -0.0324
vn -1.0000 -0.0019 -0.0029
vn -1.0000 -0.0000 -0.0002
vn -1.0000 -0.0009 -0.0004
vn -1.0000 0.0008 -0.0012
vn -1.0000 0.0063 -0.0051
vn -1.0000 -0.0014 0.0067
vn -0.9987 -0.0317 0.0389
vn -0.9996 -0.0194 0.0182
vn -0.9999 -0.0090 -0.0111
vn -0.9999 -0.0035 -0.0108
vn -0.9997 0.0242 0.0025
vn -0.9914 0.1301 0.0161
vn -0.9993 0.0352 0.0087
vn -0.9995 -0.0325 -0.0059
vn -0.9887 -0.1479 -0.0262
vn -0.9992 -0.0393 -0.0098
vn -1.0000 0.0031 0.0023
vn -1.0000 -0.0022 0.0088
vn -0.9996 0.0239 0.0160
vn -0.9948 0.0575 0.0840
vn -0.9993 0.0111 0.0365
vn -1.0000 0.0018 0.0010
vn -1.0000 0.0005 0.0006
vn -1.0000 0.0017 0.0008
vn -0.9898 -0.0602 0.1291
vn -0.9995 -0.0122 0.0307
vn -0.9992 -0.0120 0.0391
vn -0.9999 -0.0130 -0.0054
vn -0.9999 -0.0049 -0.0152
vn -0.9999 -0.0082 -0.0140
vn -1.0000 -0.0030 -0.0006
vn -1.0000 -0.0019 -0.0001
vn -1.0000 -0.0036 -0.0007
vn -1.0000 -0.0019 -0.0041
vn -1.0000 0.0005 0.0004
vn -1.0000 0.0010 -0.0025
vn -0.9997 -0.0232 -0.0036
vn -1.0000 -0.0012 -0.0001
vn -1.0000 -0.0025 -0.0005
vn -0.9680 0.1910 -0.1626
vn -0.9915 0.0969 -0.0864
vn -0.9880 0.0998 -0.1181
vn -1.0000 0.0021 0.0002
vn -1.0000 0.0006 0.0001
vn -1.0000 0.0005 -0.0000
vn -0.9944 -0.0882 0.0582
vn -0.9980 -0.0574 0.0246
vn -1.0000 0.0021 0.0009
vn -1.0000 0.0005 0.0007
vn -1.0000 0.0023 0.0008
vn -1.0000 0.0026 0.0009
vn -1.0000 0.0028 0.0009
vn -0.9034 -0.3711 0.2147
vn -0.9484 -0.2612 0.1796
vn -0.9360 -0.2639 0.2331
vn -1.0000 -0.0022 -0.0002
vn -0.9426 0.3298 -0.0524
vn -0.9640 0.2535 -0.0799
vn -1.0000 -0.0044 -0.0010
vn -1.0000 -0.0037 -0.0049
vn -1.0000 0.0021 -0.0002
vn -1.0000 0.0059 0.0001
vn -0.9755 0.1814 -0.1248
vn -0.9965 0.0654 -0.0518
vn -0.9999 -0.0127 -0.0035
vn -1.0000 -0.0058 -0.0028
vn -1.0000 -0.0078 -0.0019
vn -1.0000 0.0024 0.0009
vn -1.0000 -0.0041 -0.0009
vn -0.9996 -0.0289 0.0053
vn -0.9964 0.0684 0.0500
vn -0.9863 0.1275 0.1047
vn -1.0000 0.0004 0.0001
vn -1.0000 -0.0004 0.0024
vn -0.9987 0.0507 -0.0050
vn -0.9999 0.0129 0.0009
vn -1.0000 0.0003 -0.0003
vn -1.0000 0.0023 -0.0014
vn -1.0000 -0.0025 -0.0004
vn -0.9999 -0.0020 -0.0132
vn -1.0000 0.0029 -0.0001
vn -1.0000 -0.0027 0.0011
vn -1.0000 -0.0018 -0.0001
vn -1.0000 -0.0005 -0.0001
vn -1.0000 -0.0069 0.0006
vn -0.9367 0.2901 -0.1959
vn -0.9999 -0.0139 -0.0047
vn -0.9872 -0.1205 0.1040
vn -0.9973 0.0341 -0.0653
vn -0.9999 0.0055 -0.0129
vn -0.9998 0.0047 -0.0188
vn -0.9847 -0.1629 0.0618
vn -0.9447 -0.3105 0.1051
vn -0.9681 -0.2451 0.0523
vn -0.9999 0.0077 -0.0067
vn -0.9999 -0.0082 -0.0069
vn -0.9923 -0.1233 -0.0119
vn -1.0000 -0.0015 -0.0000
vn -1.0000 0.0006 0.0004
vn -1.0000 0.0013 0.0004
vn -0.9700 -0.2140 0.1157
vn -0.9998 -0.0014 -0.0183
vn -0.9999 -0.0024 -0.0147
vn -0.9999 -0.0147 -0.0017
vn -1.0000 -0.0049 -0.0026
vn -0.9998 -0.0119 0.0162
vn -0.9998 -0.0082 0.0184
vn -1.0000 -0.0009 -0.0005
vn -1.0000 -0.0001 -0.0007
vn -1.0000 0.0019 0.0005
vn -0.9880 0.1320 -0.0804
vn -0.9988 0.0406 -0.0273
vn -0.9950 0.0889 -0.0448
vn -0.9997 0.0220 -0.0115
vn -1.0000 0.0091 -0.0030
vn -0.9851 0.1601 -0.0635
vn -1.0000 0.0021 0.0008
vn -0.9995 -0.0111 0.0279
vn -0.9998 -0.0149 0.0122
vn -0.9997 -0.0098 0.0203
vn -0.9937 -0.1098 0.0226
vn -0.9853 -0.1702 0.0140
vn -1.0000 -0.0050 -0.0011
vn -1.0000 -0.0076 -0.0003
vn -0.9984 -0.0561 0.0019
vn -0.9961 -0.0885 -0.0039
vn -1.0000 0.0011 -0.0039
vn -0.9120 0.2854 0.2946
vn -0.9056 0.2674 0.3293
vn -0.8738 0.3238 0.3627
vn -1.0000 0.0014 0.0004
vn -1.0000 -0.0008 0.0011
vn -1.0000 -0.0023 -0.0005
vn -1.0000 0.0004 -0.0002
vn -0.9983 0.0351 -0.0460
vn -1.0000 -0.0026 -0.0066
vn -0.9999 -0.0147 0.0073
vn -1.0000 -0.0018 -0.0006
vn -1.0000 0.0016 0.0005
vn -1.0000 0.0012 -0.0009
vn -0.9752 -0.1533 0.1599
vn -0.9998 -0.0022 -0.0178
vn -0.9909 0.0853 0.1040
vn -0.9656 0.1900 0.1776
vn -1.0000 0.0063 0.0073
vn -0.9999 0.0054 0.0163
vn -0.9999 -0.0096 -0.0115
vn -0.9806 0.1289 0.1475
vn -0.9764 0.1134 0.1838
vn -0.9730 0.1319 0.1893
vn -0.9910 0.0665 0.1162
vn -0.9526 0.2075 0.2226
vn -1.0000 -0.0082 -0.0041
vn -0.9666 -0.1520 0.2064
vn -0.9484 0.1776 0.2627
vn -0.9356 0.2392 0.2597
vn -0.9982 0.0281 0.0523
vn -1.0000 -0.0031 -0.0038
vn -0.8782 -0.4510 0.1594
vn -0.9166 -0.3641 0.1654
vn -0.9136 0.3900 -0.1149
vn -0.9387 0.3176 -0.1343
vn -0.9999 -0.0143 -0.0051
vn -1.0000 0.0018 -0.0091
vn -0.8814 0.4224 -0.2116
vn -0.9007 0.3771 -0.2158
vn -0.9987 0.0306 0.0419
vn -0.9981 0.0267 0.0560
vn -0.8904 0.4195 -0.1765
vn -0.9921 0.0675 0.1058
vn -0.9994 -0.0090 0.0324
vn -0.9613 -0.2745 -0.0250
vn -0.8957 -0.4426 0.0421
vt 0.130357 0.758494
vt 0.183204 0.706758
vt 0.183204 0.758494
vt 0.975242 0.189863
vt 0.922395 0.241506
vt 0.922395 0.189863
vt 0.341554 0.189863
vt 0.288803 0.241506
vt 0.288803 0.189863
vt 0.447153 0.758494
vt 0.500000 0.706758
vt 0.500000 0.758494
vt 0.077605 0.551736
vt 0.130357 0.603379
vt 0.077605 0.603379
vt 0.658445 0.810137
vt 0.711197 0.758494
vt 0.711197 0.810137
vt 0.975242 0.086484
vt 0.922395 0.138127
vt 0.922395 0.086484
vt 0.447153 0.293242
vt 0.500000 0.344885
vt 0.447153 0.344885
vt 0.552847 0.861873
vt 0.605599 0.810137
vt 0.605599 0.861873
vt 0.816796 0.655115
vt 0.764044 0.706758
vt 0.764044 0.655115
vt 0.024758 0.603379
vt 0.024758 0.189863
vt 0.077605 0.241506
vt 0.024758 0.241506
vt 0.235956 0.138127
vt 0.288803 0.086484
vt 0.288803 0.138127
vt 0.447153 0.655115
vt 0.500000 0.655115
vt 0.764044 0.551736
vt 0.816796 0.500000
vt 0.816796 0.551736
vt 0.500000 0.965252
vt 0.552847 0.913516
vt 0.552847 0.965252
vt 0.658445 0.448264
vt 0.711197 0.396621
vt 0.711197 0.448264
vt 0.658445 0.138127
vt 0.711197 0.086484
vt 0.711197 0.138127
vt 0.447153 0.448264
vt 0.500000 0.396621
vt 0.500000 0.448264
vt 0.975242 0.034748
vt 0.764044 0.861873
vt 0.816796 0.810137
vt 0.816796 0.861873
vt 0.658445 0.344885
vt 0.711197 0.293242
vt 0.711197 0.344885
vt 0.552847 0.810137
vt 0.500000 0.810137
vt 0.658445 0.189863
vt 0.605599 0.241506
vt 0.605599 0.189863
vt 0.341554 0.861873
vt 0.394401 0.810137
vt 0.394401 0.861873
vt 0.077605 0.913516
vt 0.130357 0.861873
vt 0.130357 0.913516
vt 0.816796 0.758494
vt 0.869643 0.706758
vt 0.869643 0.758494
vt 0.605599 0.758494
vt 0.658445 0.758494
vt 0.341554 0.810137
vt 0.288803 0.861873
vt 0.288803 0.810137
vt 0.024758 0.758494
vt 0.077605 0.706758
vt 0.077605 0.758494
vt 0.235956 0.293242
vt 0.288803 0.344885
vt 0.235956 0.344885
vt 0.341554 0.758494
vt 0.288803 0.758494
vt 0.394401 0.758494
vt 0.447153 0.810137
vt 0.024758 0.500000
vt 0.024758 0.551736
vt 0.658445 0.241506
vt 0.711197 0.189863
vt 0.711197 0.241506
vt 0.183204 0.189863
vt 0.235956 0.189863
vt 0.077605 0.655115
vt 0.024758 0.706758
vt 0.024758 0.655115
vt 0.922395 0.344885
vt 0.975242 0.293242
vt 0.975242 0.344885
vt 0.605599 0.965252
vt 0.658445 0.913516
vt 0.658445 0.965252
vt 0.711197 0.913516
vt 0.764044 0.965252
vt 0.711197 0.965252
vt 0.500000 0.189863
vt 0.552847 0.138127
vt 0.552847 0.189863
vt 0.711197 0.034748
vt 0.658445 0.086484
vt 0.658445 0.034748
vt 0.394401 0.448264
vt 0.447153 0.500000
vt 0.394401 0.500000
vt 0.130357 0.138127
vt 0.183204 0.086484
vt 0.183204 0.138127
vt 0.552847 0.034748
vt 0.500000 0.086484
vt 0.500000 0.034748
vt 0.341554 0.086484
vt 0.394401 0.138127
vt 0.341554 0.138127
vt 0.341554 0.603379
vt 0.288803 0.551736
vt 0.341554 0.551736
vt 0.922395 0.396621
vt 0.869643 0.344885
vt 0.605599 0.086484
vt 0.605599 0.034748
vt 0.183204 0.965252
vt 0.235956 0.913516
vt 0.235956 0.965252
vt 0.341554 0.293242
vt 0.394401 0.344885
vt 0.341554 0.344885
vt 0.764044 0.189863
vt 0.764044 0.241506
vt 0.447153 0.189863
vt 0.500000 0.138127
vt 0.394401 0.189863
vt 0.447153 0.241506
vt 0.394401 0.241506
vt 0.869643 0.034748
vt 0.816796 0.086484
vt 0.816796 0.034748
vt 0.235956 0.448264
vt 0.288803 0.500000
vt 0.235956 0.500000
vt 0.447153 0.086484
vt 0.447153 0.138127
vt 0.447153 0.706758
vt 0.077605 0.500000
vt 0.130357 0.551736
vt 0.024758 0.810137
vt 0.077605 0.810137
vt 0.394401 0.034748
vt 0.341554 0.034748
vt 0.235956 0.655115
vt 0.183204 0.655115
vt 0.500000 0.861873
vt 0.183204 0.913516
vt 0.235956 0.861873
vt 0.130357 0.241506
vt 0.183204 0.293242
vt 0.130357 0.293242
vt 0.500000 0.241506
vt 0.447153 0.034748
vt 0.764044 0.293242
vt 0.500000 0.913516
vt 0.764044 0.913516
vt 0.816796 0.913516
vt 0.605599 0.293242
vt 0.605599 0.344885
vt 0.130357 0.706758
vt 0.130357 0.655115
vt 0.341554 0.706758
vt 0.288803 0.706758
vt 0.183204 0.500000
vt 0.394401 0.086484
vt 0.341554 0.448264
vt 0.288803 0.396621
vt 0.341554 0.396621
vt 0.288803 0.034748
vt 0.341554 0.241506
vt 0.024758 0.293242
vt 0.077605 0.344885
vt 0.024758 0.344885
vt 0.077605 0.293242
vt 0.605599 0.706758
vt 0.552847 0.655115
vt 0.605599 0.655115
vt 0.605599 0.603379
vt 0.130357 0.448264
vt 0.130357 0.500000
vt 0.130357 0.965252
vt 0.130357 0.189863
vt 0.764044 0.138127
vt 0.288803 0.965252
vt 0.341554 0.913516
vt 0.341554 0.965252
vt 0.552847 0.396621
vt 0.552847 0.448264
vt 0.235956 0.551736
vt 0.816796 0.189863
vt 0.869643 0.138127
vt 0.869643 0.189863
vt 0.711197 0.551736
vt 0.764044 0.500000
vt 0.235956 0.396621
vt 0.288803 0.448264
vt 0.552847 0.551736
vt 0.552847 0.603379
vt 0.658445 0.500000
vt 0.605599 0.551736
vt 0.605599 0.500000
vt 0.711197 0.861873
vt 0.764044 0.448264
vt 0.183204 0.241506
vt 0.922395 0.293242
vt 0.447153 0.965252
vt 0.552847 0.086484
vt 0.605599 0.138127
vt 0.552847 0.344885
vt 0.816796 0.138127
vt 0.235956 0.034748
vt 0.183204 0.034748
vt 0.869643 0.396621
vt 0.816796 0.344885
vt 0.975242 0.396621
vt 0.130357 0.034748
vt 0.077605 0.086484
vt 0.077605 0.034748
vt 0.658445 0.655115
vt 0.711197 0.603379
vt 0.711197 0.655115
vt 0.658445 0.706758
vt 0.394401 0.293242
vt 0.183204 0.861873
vt 0.235956 0.810137
vt 0.183204 0.810137
vt 0.235956 0.758494
vt 0.764044 0.603379
vt 0.183204 0.551736
vt 0.235956 0.603379
vt 0.183204 0.603379
vt 0.235956 0.706758
vt 0.130357 0.810137
vt 0.552847 0.241506
vt 0.024758 0.086484
vt 0.077605 0.138127
vt 0.024758 0.138127
vt 0.024758 0.396621
vt 0.394401 0.551736
vt 0.869643 0.603379
vt 0.816796 0.603379
vt 0.816796 0.241506
vt 0.869643 0.241506
vt 0.869643 0.655115
vt 0.394401 0.706758
vt 0.816796 0.396621
vt 0.764044 0.344885
vt 0.816796 0.293242
vt 0.869643 0.293242
vt 0.658445 0.861873
vt 0.552847 0.500000
vt 0.183204 0.448264
vt 0.658445 0.396621
vt 0.922395 0.965252
vt 0.975242 0.913516
vt 0.975242 0.965252
vt 0.341554 0.655115
vt 0.394401 0.603379
vt 0.394401 0.655115
vt 0.816796 0.448264
vt 0.869643 0.500000
vt 0.552847 0.293242
vt 0.552847 0.706758
vt 0.552847 0.758494
vt 0.922395 0.603379
vt 0.922395 0.655115
vt 0.764044 0.396621
vt 0.130357 0.344885
vt 0.077605 0.396621
vt 0.288803 0.655115
vt 0.288803 0.913516
vt 0.500000 0.551736
vt 0.500000 0.603379
vt 0.605599 0.448264
vt 0.605599 0.396621
vt 0.235956 0.241506
vt 0.077605 0.189863
vt 0.869643 0.448264
vt 0.447153 0.551736
vt 0.658445 0.603379
vt 0.183204 0.344885
vt 0.500000 0.293242
vt 0.922395 0.448264
vt 0.658445 0.551736
vt 0.447153 0.603379
vt 0.288803 0.293242
vt 0.183204 0.396621
vt 0.764044 0.086484
vt 0.235956 0.086484
vt 0.394401 0.913516
vt 0.711197 0.500000
vt 0.869643 0.551736
vt 0.922395 0.500000
vt 0.922395 0.551736
vt 0.869643 0.861873
vt 0.869643 0.913516
vt 0.500000 0.500000
vt 0.975242 0.655115
vt 0.922395 0.706758
vt 0.764044 0.758494
vt 0.816796 0.965252
vt 0.975242 0.810137
vt 0.922395 0.861873
vt 0.922395 0.810137
vt 0.869643 0.965252
vt 0.447153 0.913516
vt 0.394401 0.965252
vt 0.975242 0.500000
vt 0.130357 0.086484
vt 0.447153 0.861873
vt 0.764044 0.034748
vt 0.975242 0.861873
vt 0.922395 0.913516
vt 0.077605 0.448264
vt 0.024758 0.448264
vt 0.975242 0.603379
vt 0.869643 0.810137
vt 0.605599 0.913516
vt 0.130357 0.396621
vt 0.711197 0.706758
vt 0.922395 0.034748
vt 0.869643 0.086484
vt 0.024758 0.861873
vt 0.077605 0.861873
vt 0.975242 0.551736
vt 0.975242 0.448264
vt 0.816796 0.706758
vt 0.764044 0.810137
vt 0.341554 0.500000
vt 0.024758 0.965252
vt 0.077605 0.965252
vt 0.447153 0.396621
vt 0.975242 0.706758
vt 0.922395 0.758494
vt 0.024758 0.913516
vt 0.288803 0.603379
vt 0.975242 0.758494
vt 0.024758 0.034748
vt 0.658445 0.293242
vt 0.975242 0.241506
vt 0.975242 0.138127
vt 0.848558 0.703048
vt 0.798725 0.662409
vt 0.798725 0.703048
vt 0.051868 0.256386
vt 0.101700 0.296951
vt 0.101700 0.256386
vt 0.649408 0.256386
vt 0.699150 0.296951
vt 0.699150 0.256386
vt 0.549833 0.703048
vt 0.500000 0.662409
vt 0.500000 0.703048
vt 0.898301 0.540639
vt 0.848558 0.581205
vt 0.898301 0.581205
vt 0.350593 0.743614
vt 0.300850 0.703048
vt 0.300850 0.743614
vt 0.051868 0.175181
vt 0.101700 0.215747
vt 0.101700 0.175181
vt 0.549833 0.337590
vt 0.500000 0.378156
vt 0.549833 0.378156
vt 0.450168 0.784253
vt 0.400425 0.743614
vt 0.400425 0.784253
vt 0.201275 0.621844
vt 0.251018 0.662409
vt 0.251018 0.621844
vt 0.948133 0.581205
vt 0.948133 0.256386
vt 0.898301 0.296951
vt 0.948133 0.296951
vt 0.748983 0.215747
vt 0.699150 0.175181
vt 0.699150 0.215747
vt 0.549833 0.621844
vt 0.500000 0.621844
vt 0.251018 0.540639
vt 0.201275 0.500000
vt 0.201275 0.540639
vt 0.500000 0.865458
vt 0.450168 0.824819
vt 0.450168 0.865458
vt 0.350593 0.459361
vt 0.300850 0.418795
vt 0.300850 0.459361
vt 0.350593 0.215747
vt 0.300850 0.175181
vt 0.300850 0.215747
vt 0.549833 0.459361
vt 0.500000 0.418795
vt 0.500000 0.459361
vt 0.051868 0.134542
vt 0.251018 0.784253
vt 0.201275 0.743614
vt 0.201275 0.784253
vt 0.350593 0.378156
vt 0.300850 0.337590
vt 0.300850 0.378156
vt 0.450168 0.743614
vt 0.500000 0.743614
vt 0.350593 0.256386
vt 0.400425 0.296951
vt 0.400425 0.256386
vt 0.649408 0.784253
vt 0.599575 0.743614
vt 0.599575 0.784253
vt 0.898301 0.824819
vt 0.848558 0.784253
vt 0.848558 0.824819
vt 0.201275 0.703048
vt 0.151443 0.662409
vt 0.151443 0.703048
vt 0.400425 0.703048
vt 0.350593 0.703048
vt 0.649408 0.743614
vt 0.699150 0.784253
vt 0.699150 0.743614
vt 0.948133 0.703048
vt 0.898301 0.662409
vt 0.898301 0.703048
vt 0.748983 0.337590
vt 0.699150 0.378156
vt 0.748983 0.378156
vt 0.649408 0.703048
vt 0.699150 0.703048
vt 0.599575 0.703048
vt 0.549833 0.743614
vt 0.948133 0.500000
vt 0.948133 0.540639
vt 0.350593 0.296951
vt 0.300850 0.256386
vt 0.300850 0.296951
vt 0.798725 0.256386
vt 0.748983 0.256386
vt 0.898301 0.621844
vt 0.948133 0.662409
vt 0.948133 0.621844
vt 0.101700 0.378156
vt 0.051868 0.337590
vt 0.051868 0.378156
vt 0.400425 0.865458
vt 0.350593 0.824819
vt 0.350593 0.865458
vt 0.300850 0.824819
vt 0.251018 0.865458
vt 0.300850 0.865458
vt 0.500000 0.256386
vt 0.450168 0.215747
vt 0.450168 0.256386
vt 0.300850 0.134542
vt 0.350593 0.175181
vt 0.350593 0.134542
vt 0.599575 0.459361
vt 0.549833 0.500000
vt 0.599575 0.500000
vt 0.848558 0.215747
vt 0.798725 0.175181
vt 0.798725 0.215747
vt 0.450168 0.134542
vt 0.500000 0.175181
vt 0.500000 0.134542
vt 0.649408 0.175181
vt 0.599575 0.215747
vt 0.649408 0.215747
vt 0.649408 0.581205
vt 0.699150 0.540639
vt 0.649408 0.540639
vt 0.101700 0.418795
vt 0.151443 0.378156
vt 0.400425 0.175181
vt 0.400425 0.134542
vt 0.798725 0.865458
vt 0.748983 0.824819
vt 0.748983 0.865458
vt 0.649408 0.337590
vt 0.599575 0.378156
vt 0.649408 0.378156
vt 0.251018 0.256386
vt 0.251018 0.296951
vt 0.549833 0.256386
vt 0.500000 0.215747
vt 0.599575 0.256386
vt 0.549833 0.296951
vt 0.599575 0.296951
vt 0.151443 0.134542
vt 0.201275 0.175181
vt 0.201275 0.134542
vt 0.748983 0.459361
vt 0.699150 0.500000
vt 0.748983 0.500000
vt 0.549833 0.175181
vt 0.549833 0.215747
vt 0.549833 0.662409
vt 0.898301 0.500000
vt 0.848558 0.540639
vt 0.948133 0.743614
vt 0.898301 0.743614
vt 0.599575 0.134542
vt 0.649408 0.134542
vt 0.748983 0.621844
vt 0.798725 0.621844
vt 0.500000 0.784253
vt 0.798725 0.824819
vt 0.748983 0.784253
vt 0.848558 0.296951
vt 0.798725 0.337590
vt 0.848558 0.337590
vt 0.500000 0.296951
vt 0.549833 0.134542
vt 0.251018 0.337590
vt 0.500000 0.824819
vt 0.251018 0.824819
vt 0.201275 0.824819
vt 0.400425 0.378156
vt 0.350593 0.337590
vt 0.848558 0.662409
vt 0.848558 0.621844
vt 0.649408 0.662409
vt 0.699150 0.662409
vt 0.798725 0.500000
vt 0.599575 0.175181
vt 0.649408 0.459361
vt 0.699150 0.418795
vt 0.649408 0.418795
vt 0.699150 0.134542
vt 0.649408 0.296951
vt 0.948133 0.337590
vt 0.898301 0.378156
vt 0.948133 0.378156
vt 0.898301 0.337590
vt 0.400425 0.662409
vt 0.450168 0.621844
vt 0.400425 0.621844
vt 0.400425 0.581205
vt 0.848558 0.459361
vt 0.848558 0.500000
vt 0.848558 0.865458
vt 0.848558 0.256386
vt 0.251018 0.215747
vt 0.699150 0.865458
vt 0.649408 0.824819
vt 0.649408 0.865458
vt 0.450168 0.418795
vt 0.450168 0.459361
vt 0.748983 0.540639
vt 0.201275 0.256386
vt 0.151443 0.215747
vt 0.151443 0.256386
vt 0.300850 0.540639
vt 0.251018 0.500000
vt 0.748983 0.418795
vt 0.699150 0.459361
vt 0.450168 0.540639
vt 0.450168 0.581205
vt 0.350593 0.500000
vt 0.400425 0.540639
vt 0.400425 0.500000
vt 0.300850 0.784253
vt 0.251018 0.459361
vt 0.798725 0.296951
vt 0.101700 0.337590
vt 0.549833 0.865458
vt 0.450168 0.175181
vt 0.400425 0.215747
vt 0.450168 0.378156
vt 0.400425 0.337590
vt 0.201275 0.215747
vt 0.748983 0.134542
vt 0.798725 0.134542
vt 0.151443 0.418795
vt 0.201275 0.378156
vt 0.051868 0.418795
vt 0.848558 0.134542
vt 0.898301 0.175181
vt 0.898301 0.134542
vt 0.350593 0.621844
vt 0.300850 0.581205
vt 0.300850 0.621844
vt 0.350593 0.662409
vt 0.599575 0.337590
vt 0.798725 0.784253
vt 0.748983 0.743614
vt 0.798725 0.743614
vt 0.748983 0.703048
vt 0.251018 0.581205
vt 0.798725 0.540639
vt 0.748983 0.581205
vt 0.798725 0.581205
vt 0.748983 0.662409
vt 0.848558 0.743614
vt 0.450168 0.296951
vt 0.948133 0.175181
vt 0.898301 0.215747
vt 0.948133 0.215747
vt 0.948133 0.418795
vt 0.599575 0.540639
vt 0.151443 0.581205
vt 0.201275 0.581205
vt 0.201275 0.296951
vt 0.151443 0.296951
vt 0.151443 0.621844
vt 0.599575 0.662409
vt 0.201275 0.418795
vt 0.251018 0.378156
vt 0.201275 0.337590
vt 0.151443 0.337590
vt 0.350593 0.784253
vt 0.450168 0.500000
vt 0.798725 0.459361
vt 0.350593 0.418795
vt 0.101700 0.865458
vt 0.051868 0.824819
vt 0.051868 0.865458
vt 0.649408 0.621844
vt 0.599575 0.581205
vt 0.599575 0.621844
vt 0.201275 0.459361
vt 0.151443 0.500000
vt 0.450168 0.337590
vt 0.450168 0.662409
vt 0.450168 0.703048
vt 0.101700 0.581205
vt 0.101700 0.621844
vt 0.251018 0.418795
vt 0.848558 0.378156
vt 0.898301 0.418795
vt 0.699150 0.621844
vt 0.699150 0.824819
vt 0.500000 0.540639
vt 0.500000 0.581205
vt 0.400425 0.459361
vt 0.400425 0.418795
vt 0.748983 0.296951
vt 0.898301 0.256386
vt 0.151443 0.459361
vt 0.549833 0.540639
vt 0.350593 0.581205
vt 0.798725 0.378156
vt 0.500000 0.337590
vt 0.101700 0.459361
vt 0.350593 0.540639
vt 0.549833 0.581205
vt 0.699150 0.337590
vt 0.798725 0.418795
vt 0.251018 0.175181
vt 0.748983 0.175181
vt 0.599575 0.824819
vt 0.300850 0.500000
vt 0.151443 0.540639
vt 0.101700 0.500000
vt 0.101700 0.540639
vt 0.151443 0.784253
vt 0.151443 0.824819
vt 0.500000 0.500000
vt 0.051868 0.621844
vt 0.101700 0.662409
vt 0.251018 0.703048
vt 0.201275 0.865458
vt 0.051868 0.743614
vt 0.101700 0.784253
vt 0.101700 0.743614
vt 0.151443 0.865458
vt 0.549833 0.824819
vt 0.599575 0.865458
vt 0.051868 0.500000
vt 0.848558 0.175181
vt 0.549833 0.784253
vt 0.251018 0.134542
vt 0.051868 0.784253
vt 0.101700 0.824819
vt 0.898301 0.459361
vt 0.948133 0.459361
vt 0.051868 0.581205
vt 0.151443 0.743614
vt 0.400425 0.824819
vt 0.848558 0.418795
vt 0.300850 0.662409
vt 0.101700 0.134542
vt 0.151443 0.175181
vt 0.948133 0.784253
vt 0.898301 0.784253
vt 0.051868 0.540639
vt 0.051868 0.459361
vt 0.201275 0.662409
vt 0.251018 0.743614
vt 0.649408 0.500000
vt 0.948133 0.865458
vt 0.898301 0.865458
vt 0.549833 0.418795
vt 0.051868 0.662409
vt 0.101700 0.703048
vt 0.948133 0.824819
vt 0.699150 0.581205
vt 0.051868 0.703048
vt 0.948133 0.134542
vt 0.051868 0.296951
vt 0.051868 0.215747
vt 0.394401 0.396621
vt 0.599575 0.418795
s 1
f 335/1/1 331/2/2 332/3/3
f 47/4/4 25/5/5 20/6/6
f 90/7/7 116/8/8 111/9/9
f 299/10/10 295/11/10 296/12/10
f 230/13/11 234/14/10 235/15/10
f 286/16/12 260/17/13 261/18/14
f 35/19/15 6/20/16 1/21/17
f 76/22/18 80/23/19 81/24/20
f 304/25/10 305/26/10 310/27/10
f 160/28/21 256/29/22 161/30/23
f 244/31/10 230/13/11 235/15/10
f 132/32/24 114/33/25 133/34/26
f 95/35/27 92/36/28 97/37/29
f 295/11/10 203/38/30 202/39/10
f 151/40/10 141/41/10 150/42/10
f 316/43/11 309/44/10 314/45/10
f 165/46/10 145/47/30 146/48/10
f 37/49/31 16/50/32 17/51/33
f 185/52/10 181/53/10 182/54/10
f 1/21/17 34/55/34 35/19/15
f 265/56/35 255/57/36 264/58/37
f 40/59/38 28/60/39 33/61/40
f 296/12/10 293/62/10 297/63/10
f 46/64/41 74/65/42 69/66/43
f 325/67/44 303/68/10 308/69/10
f 349/70/45 343/71/46 348/72/47
f 254/73/48 249/74/49 250/75/50
f 286/16/12 294/76/10 279/77/51
f 324/78/52 346/79/53 341/80/54
f 356/81/55 337/82/56 338/83/57
f 115/84/58 131/85/59 120/86/60
f 320/87/61 341/80/54 330/88/62
f 302/89/10 300/90/10 303/68/10
f 246/91/10 230/13/11 247/92/30
f 48/93/63 18/94/64 23/95/65
f 101/96/66 95/35/27 96/97/67
f 240/98/68 355/99/69 243/100/70
f 44/101/71 42/102/72 45/103/73
f 323/104/11 281/105/74 280/106/75
f 271/107/76 275/108/77 276/109/78
f 59/110/79 53/111/80 54/112/81
f 38/113/82 36/114/83 39/115/84
f 188/116/10 186/117/10 189/118/10
f 104/119/85 99/120/86 100/121/87
f 56/122/88 57/123/89 60/124/90
f 83/125/91 66/126/92 84/127/93
f 208/128/10 232/129/10 211/130/10
f 84/127/93 111/9/9 97/37/29
f 134/131/10 29/132/94 44/101/71
f 39/115/84 50/133/95 51/134/96
f 352/135/97 345/136/98 350/137/99
f 88/138/100 82/139/101 87/140/102
f 23/95/65 14/141/103 22/142/104
f 63/143/105 58/144/106 59/110/79
f 67/145/107 71/146/108 72/147/109
f 7/148/110 8/149/111 11/150/112
f 214/151/10 227/152/11 215/153/11
f 61/154/113 58/144/106 62/155/114
f 302/89/10 298/156/10 299/10/10
f 225/157/10 229/158/10 230/13/11
f 360/159/115 338/83/57 339/160/116
f 85/161/117 83/125/91 86/162/118
f 236/163/119 331/2/2 238/164/120
f 306/165/10 293/62/10 304/25/10
f 347/166/121 340/167/122 345/136/98
f 113/168/123 117/169/124 118/170/125
f 63/143/105 70/171/126 71/146/108
f 181/53/10 81/24/20 80/23/19
f 60/124/90 61/154/113 64/172/127
f 28/60/39 22/142/104 27/173/128
f 306/165/10 309/44/10 311/174/10
f 270/175/129 264/58/37 269/176/130
f 79/177/131 40/59/38 89/178/132
f 238/164/120 334/179/133 239/180/134
f 319/181/135 330/88/62 326/182/136
f 219/183/10 214/151/10 215/153/11
f 64/172/127 65/184/137 85/161/117
f 206/185/10 212/186/10 205/187/10
f 86/162/118 92/36/28 93/188/138
f 90/7/7 72/147/109 91/189/139
f 130/190/140 124/191/141 129/192/142
f 114/33/25 118/170/125 119/193/143
f 290/194/30 200/195/10 209/196/10
f 200/195/10 201/197/10 209/196/10
f 225/157/10 221/198/10 222/199/10
f 353/200/144 347/166/121 352/135/97
f 105/201/145 100/121/87 101/96/66
f 18/94/64 13/202/146 14/141/103
f 359/203/147 322/204/148 321/205/149
f 182/54/10 177/206/10 178/207/10
f 215/153/11 232/129/10 226/208/11
f 10/209/150 4/210/151 5/211/152
f 340/167/122 341/80/54 346/79/53
f 152/212/10 144/213/10 151/40/10
f 213/214/10 216/215/11 214/151/10
f 190/216/10 201/197/10 195/217/10
f 172/218/10 196/219/30 191/220/10
f 281/105/74 266/221/153 271/107/76
f 143/222/10 141/41/10 144/213/10
f 112/223/154 115/84/58 117/169/124
f 105/201/145 112/223/154 113/168/123
f 29/132/94 30/224/155 44/101/71
f 317/225/10 311/174/10 316/43/11
f 52/226/156 55/227/157 53/111/80
f 78/228/19 79/177/131 89/178/132
f 13/202/146 8/149/111 9/229/158
f 98/230/159 99/120/86 102/231/160
f 135/232/10 31/233/161 29/132/94
f 163/234/10 44/101/71 45/103/73
f 106/235/162 107/236/163 127/237/164
f 166/238/11 157/239/30 162/240/165
f 278/241/166 294/76/10 290/194/30
f 77/242/167 81/24/20 82/139/101
f 342/243/168 329/244/169 340/167/122
f 333/245/170 328/246/171 329/244/169
f 77/242/167 71/146/108 76/22/18
f 329/244/169 330/88/62 341/80/54
f 152/212/10 156/247/10 157/239/30
f 228/248/11 231/249/10 233/250/10
f 332/3/3 327/251/172 328/246/171
f 338/83/57 334/179/133 335/1/1
f 339/160/116 335/1/1 336/252/173
f 54/112/81 74/65/42 68/253/174
f 125/254/175 108/255/176 126/256/177
f 124/191/141 241/257/10 129/192/142
f 211/130/10 189/118/10 194/258/10
f 150/42/10 153/259/10 155/260/10
f 37/49/31 69/66/43 55/227/157
f 21/261/178 5/211/152 19/262/179
f 160/28/21 153/259/10 158/263/180
f 320/87/61 301/264/30 302/89/10
f 139/265/10 32/266/181 31/233/161
f 26/267/182 19/262/179 24/268/183
f 281/105/74 310/27/10 288/269/184
f 229/158/10 233/250/10 234/14/10
f 96/97/67 97/37/29 111/9/9
f 178/207/10 191/220/10 179/270/10
f 222/199/10 218/271/10 219/183/10
f 164/272/10 89/178/132 40/59/38
f 284/273/185 282/274/186 285/275/187
f 207/276/30 199/277/10 204/278/10
f 140/279/10 137/280/10 141/41/10
f 68/253/174 79/177/131 73/281/188
f 296/12/10 291/282/10 292/283/10
f 158/263/180 159/284/10 170/285/189
f 146/48/10 142/286/10 143/222/10
f 151/40/10 155/260/10 156/247/10
f 123/287/190 223/288/10 124/191/141
f 88/138/100 72/147/109 77/242/167
f 177/206/10 80/23/19 78/228/19
f 245/289/191 208/128/10 207/276/30
f 37/49/31 50/133/95 36/114/83
f 343/71/46 333/245/170 342/243/168
f 345/136/98 346/79/53 351/290/192
f 192/291/10 195/217/10 197/292/30
f 164/272/10 180/293/10 176/294/10
f 336/252/173 332/3/3 333/245/170
f 110/295/193 111/9/9 116/8/8
f 126/256/177 109/296/194 132/32/24
f 83/125/91 97/37/29 92/36/28
f 140/279/10 135/232/10 136/297/10
f 57/123/89 53/111/80 58/144/106
f 194/258/10 186/117/10 193/298/10
f 219/183/10 226/208/11 228/248/11
f 90/7/7 66/126/92 67/145/107
f 209/196/10 167/299/10 166/238/11
f 118/170/125 122/300/195 123/287/190
f 245/289/191 327/251/172 236/163/119
f 87/140/102 212/186/10 131/85/59
f 75/301/196 68/253/174 73/281/188
f 244/31/10 240/98/68 243/100/70
f 24/268/183 25/5/5 30/224/155
f 136/297/10 134/131/10 138/302/10
f 27/173/128 21/261/178 26/267/182
f 14/141/103 9/229/158 10/209/150
f 167/299/10 196/219/30 174/303/10
f 240/98/68 234/14/10 239/180/134
f 174/303/10 157/239/30 167/299/10
f 194/258/10 198/304/10 199/277/10
f 91/189/139 121/305/197 116/8/8
f 75/301/196 78/228/19 80/23/19
f 19/262/179 20/6/6 25/5/5
f 217/306/10 214/151/10 218/271/10
f 17/51/33 12/307/198 13/202/146
f 298/156/10 204/278/10 203/38/30
f 145/47/30 40/59/38 33/61/40
f 93/188/138 94/308/199 98/230/159
f 115/84/58 116/8/8 121/305/197
f 325/67/44 313/309/30 322/204/148
f 350/137/99 351/290/192 359/203/147
f 174/303/10 147/310/10 152/212/10
f 170/285/189 249/74/49 158/263/180
f 238/164/120 231/249/10 236/163/119
f 148/311/10 149/312/10 154/313/10
f 269/176/130 262/314/200 267/315/201
f 205/187/10 188/116/10 206/185/10
f 182/54/10 179/270/10 183/316/10
f 150/42/10 137/280/10 148/311/10
f 171/317/202 248/318/203 170/285/189
f 162/240/165 156/247/10 161/30/23
f 281/105/74 276/109/78 280/106/75
f 260/17/13 256/29/22 257/319/204
f 270/175/129 274/320/205 275/108/77
f 112/223/154 96/97/67 110/295/193
f 131/85/59 213/214/10 120/86/60
f 287/321/206 268/322/207 263/323/208
f 267/315/201 284/273/185 272/324/209
f 308/69/10 312/325/10 313/309/30
f 211/130/10 199/277/10 208/128/10
f 318/326/11 312/325/10 317/225/10
f 204/278/10 198/304/10 203/38/30
f 269/176/130 272/324/209 274/320/205
f 292/283/10 290/194/30 294/76/10
f 190/216/10 191/220/10 196/219/30
f 288/269/184 261/18/14 266/221/153
f 65/184/137 62/155/114 66/126/92
f 172/218/10 180/293/10 165/46/10
f 54/112/81 55/227/157 69/66/43
f 32/266/181 26/267/182 31/233/161
f 173/327/10 154/313/10 149/312/10
f 108/255/176 103/328/210 104/119/85
f 308/69/10 300/90/10 307/329/10
f 11/150/112 12/307/198 15/330/211
f 283/331/212 273/332/213 268/322/207
f 165/46/10 147/310/10 172/218/10
f 241/257/10 224/333/10 242/334/10
f 109/296/194 113/168/123 114/33/25
f 170/285/189 168/335/10 171/317/202
f 278/241/166 209/196/10 166/238/11
f 307/329/10 297/63/10 306/165/10
f 321/205/149 313/309/30 318/326/11
f 51/134/96 52/226/156 56/122/88
f 299/10/10 297/63/10 300/90/10
f 255/57/36 250/75/50 251/336/214
f 102/231/160 103/328/210 106/235/162
f 304/25/10 315/337/10 309/44/10
f 220/338/10 218/271/10 221/198/10
f 262/314/200 263/323/208 268/322/207
f 161/30/23 259/339/215 162/240/165
f 2/340/216 3/341/217 7/148/110
f 301/264/30 207/276/30 204/278/10
f 361/342/218 339/160/116 344/343/219
f 168/335/10 154/313/10 169/344/30
f 122/300/195 220/338/10 123/287/190
f 185/52/10 183/316/10 186/117/10
f 286/16/12 310/27/10 305/26/10
f 222/199/10 228/248/11 229/158/10
f 173/327/10 138/302/10 175/345/10
f 239/180/134 337/82/56 240/98/68
f 158/263/180 253/346/220 160/28/21
f 76/22/18 70/171/126 75/301/196
f 266/221/153 258/347/221 265/56/35
f 279/77/51 259/339/215 260/17/13
f 176/294/10 78/228/19 89/178/132
f 210/348/10 232/129/10 227/152/11
f 267/315/201 268/322/207 273/332/213
f 292/283/10 305/26/10 293/62/10
f 261/18/14 257/319/204 258/347/221
f 207/276/30 326/182/136 245/289/191
f 142/286/10 33/61/40 32/266/181
f 357/349/222 349/70/45 354/350/223
f 31/233/161 24/268/183 29/132/94
f 246/91/10 224/333/10 225/157/10
f 117/169/124 120/86/60 122/300/195
f 82/139/101 205/187/10 87/140/102
f 184/351/10 82/139/101 81/24/20
f 258/347/221 254/73/48 255/57/36
f 291/282/10 202/39/10 200/195/10
f 108/255/176 105/201/145 109/296/194
f 277/352/224 252/353/225 248/318/203
f 271/107/76 265/56/35 270/175/129
f 148/311/10 159/284/10 153/259/10
f 358/354/226 344/343/219 349/70/45
f 236/163/119 237/355/10 245/289/191
f 67/145/107 62/155/114 63/143/105
f 289/356/227 263/323/208 252/353/225
f 188/116/10 184/351/10 185/52/10
f 354/350/223 348/72/47 353/200/144
f 162/240/165 278/241/166 166/238/11
f 127/237/164 125/254/175 128/357/228
f 257/319/204 253/346/220 254/73/48
f 202/39/10 195/217/10 200/195/10
f 250/75/50 248/318/203 252/353/225
f 136/297/10 149/312/10 137/280/10
f 143/222/10 139/265/10 140/279/10
f 234/14/10 238/164/120 239/180/134
f 328/246/171 326/182/136 330/88/62
f 41/358/229 23/95/65 28/60/39
f 121/305/197 87/140/102 131/85/59
f 314/45/10 315/337/10 323/104/11
f 325/67/44 351/290/192 346/79/53
f 161/30/23 155/260/10 160/28/21
f 307/329/10 311/174/10 312/325/10
f 9/229/158 3/341/217 4/210/151
f 100/121/87 94/308/199 95/35/27
f 163/234/10 138/302/10 134/131/10
f 119/193/143 123/287/190 124/191/141
f 206/185/10 189/118/10 210/348/10
f 193/298/10 197/292/30 198/304/10
f 59/110/79 68/253/174 70/171/126
f 15/330/211 16/50/32 38/113/82
f 192/291/10 179/270/10 190/216/10
f 320/87/61 303/68/10 324/78/52
f 33/61/40 27/173/128 32/266/181
f 46/64/41 17/51/33 18/94/64
f 203/38/30 197/292/30 202/39/10
f 5/211/152 6/20/16 20/6/6
f 146/48/10 144/213/10 147/310/10
f 133/34/26 119/193/143 130/190/140
f 43/359/230 30/224/155 25/5/5
f 264/58/37 251/336/214 262/314/200
f 22/142/104 10/209/150 21/261/178
f 226/208/11 237/355/10 231/249/10
f 41/358/229 74/65/42 48/93/63
f 193/298/10 183/316/10 192/291/10
f 348/72/47 342/243/168 347/166/121
f 223/288/10 221/198/10 224/333/10
f 251/336/214 252/353/225 263/323/208
f 49/360/231 20/6/6 6/20/16
f 4/210/151 1/21/17 6/20/16
f 344/343/219 336/252/173 343/71/46
f 178/207/10 176/294/10 180/293/10
f 210/348/10 216/215/11 206/185/10
f 120/86/60 217/306/10 122/300/195
f 696/361/232 692/362/233 693/363/234
f 408/364/235 386/365/236 381/366/237
f 451/367/238 477/368/239 472/369/240
f 660/370/241 656/371/241 657/372/241
f 591/373/241 595/374/241 596/375/241
f 647/376/242 621/377/243 622/378/244
f 396/379/245 367/380/246 362/381/247
f 437/382/248 441/383/249 442/384/249
f 665/385/241 666/386/241 671/387/241
f 521/388/250 617/389/251 522/390/252
f 605/391/241 591/373/241 596/375/241
f 493/392/253 475/393/254 494/394/255
f 456/395/256 453/396/257 458/397/258
f 656/371/241 564/398/241 563/399/241
f 512/400/241 502/401/241 511/402/241
f 677/403/241 670/404/241 675/405/241
f 526/406/241 506/407/241 507/408/241
f 398/409/259 377/410/260 378/411/261
f 546/412/241 542/413/241 543/414/241
f 362/381/247 395/415/262 396/379/245
f 626/416/263 616/417/264 625/418/265
f 401/419/266 389/420/267 394/421/268
f 657/372/241 654/422/241 658/423/241
f 407/424/269 435/425/270 430/426/271
f 686/427/272 664/428/241 669/429/241
f 710/430/273 704/431/274 709/432/275
f 615/433/276 610/434/277 611/435/278
f 647/376/242 655/436/241 640/437/279
f 685/438/280 707/439/281 702/440/282
f 717/441/283 698/442/284 699/443/285
f 476/444/286 492/445/287 481/446/288
f 681/447/289 702/440/282 691/448/290
f 663/449/241 661/450/241 664/428/241
f 607/451/241 591/373/241 608/452/241
f 409/453/291 379/454/292 384/455/293
f 462/456/294 456/395/256 457/457/295
f 601/458/296 716/459/297 604/460/298
f 405/461/299 403/462/300 406/463/301
f 684/464/241 642/465/302 641/466/303
f 632/467/304 636/468/305 637/469/306
f 420/470/307 414/471/308 415/472/309
f 399/473/310 397/474/311 400/475/312
f 549/476/241 547/477/241 550/478/241
f 465/479/313 460/480/314 461/481/315
f 417/482/316 418/483/317 421/484/318
f 444/485/319 427/486/320 445/487/321
f 569/488/241 593/489/241 572/490/241
f 445/487/321 472/369/240 458/397/258
f 495/491/241 390/492/322 405/461/299
f 400/475/312 411/493/323 412/494/324
f 713/495/325 706/496/326 711/497/327
f 449/498/328 443/499/329 448/500/330
f 384/455/293 375/501/331 383/502/332
f 424/503/333 419/504/334 420/470/307
f 428/505/335 432/506/336 433/507/337
f 368/508/338 369/509/339 372/510/340
f 575/511/241 588/512/241 576/513/241
f 422/514/341 419/504/334 423/515/308
f 663/449/241 659/516/241 660/370/241
f 586/517/241 590/518/241 591/373/241
f 721/519/342 699/443/285 700/520/343
f 446/521/344 444/485/319 447/522/345
f 597/523/346 692/362/233 599/524/347
f 667/525/241 654/422/241 665/385/241
f 708/526/348 701/527/349 706/496/326
f 474/528/350 478/529/351 479/530/352
f 424/503/333 431/531/353 432/506/336
f 542/413/241 442/384/249 441/383/249
f 421/484/318 422/514/341 425/532/354
f 389/420/267 383/502/332 388/533/355
f 667/525/241 670/404/241 672/534/241
f 631/535/356 625/418/265 630/536/357
f 450/537/358 402/538/359 401/419/266
f 599/524/347 695/539/360 600/540/361
f 680/541/362 691/448/290 687/542/363
f 580/543/241 575/511/241 576/513/241
f 425/532/354 426/544/364 446/521/344
f 567/545/241 573/546/241 566/547/241
f 447/522/345 453/396/257 454/548/365
f 451/367/238 433/507/337 452/549/366
f 491/550/367 485/551/368 490/552/369
f 475/393/254 479/530/352 480/553/370
f 651/554/241 561/555/241 570/556/241
f 561/555/241 562/557/241 570/556/241
f 586/517/241 582/558/241 583/559/241
f 714/560/371 708/526/348 713/495/325
f 466/561/372 461/481/315 462/456/294
f 379/454/292 374/562/373 375/501/331
f 720/563/374 683/564/375 682/565/376
f 543/414/241 538/566/241 539/567/241
f 576/513/241 593/489/241 587/568/241
f 371/569/377 365/570/378 366/571/379
f 701/527/349 702/440/282 707/439/281
f 513/572/241 505/573/241 512/400/241
f 574/574/241 577/575/241 575/511/241
f 551/576/241 562/557/241 556/577/241
f 533/578/241 557/579/241 552/580/241
f 642/465/302 627/581/380 632/467/304
f 504/582/241 502/401/241 505/573/241
f 473/583/381 476/444/286 478/529/351
f 466/561/372 473/583/381 474/528/350
f 390/492/322 391/584/382 405/461/299
f 678/585/241 672/534/241 677/403/241
f 413/586/383 416/587/384 414/471/308
f 439/588/358 440/589/385 450/537/358
f 374/562/373 369/509/339 370/590/386
f 459/591/387 460/480/314 463/592/388
f 496/593/241 392/594/389 390/492/322
f 524/595/241 405/461/299 406/463/301
f 467/596/390 468/597/391 488/598/392
f 527/599/241 518/600/241 523/601/393
f 639/602/394 655/436/241 651/554/241
f 438/603/395 442/384/249 443/499/329
f 703/604/396 690/605/397 701/527/349
f 694/606/398 689/607/399 690/605/397
f 438/603/395 432/506/336 437/382/248
f 690/605/397 691/448/290 702/440/282
f 513/572/241 517/608/241 518/600/241
f 589/609/241 592/610/241 594/611/241
f 693/363/234 688/612/400 689/607/399
f 699/443/285 695/539/360 696/361/232
f 700/520/343 696/361/232 697/613/401
f 415/472/309 435/425/270 429/614/402
f 486/615/403 469/616/404 487/617/405
f 485/551/368 602/618/241 490/552/369
f 572/490/241 550/478/241 555/619/241
f 511/402/241 514/620/241 516/621/241
f 398/409/259 430/426/271 416/587/384
f 382/622/406 366/571/379 380/623/407
f 521/388/250 514/620/241 519/624/408
f 681/447/289 662/625/241 663/449/241
f 500/626/241 393/627/409 392/594/389
f 387/628/410 380/623/407 385/629/411
f 642/465/302 671/387/241 649/630/412
f 590/518/241 594/611/241 595/374/241
f 457/457/295 458/397/258 472/369/240
f 539/567/241 552/580/241 540/631/241
f 583/559/241 579/632/241 580/543/241
f 525/633/241 450/537/358 401/419/266
f 645/634/413 643/635/414 646/636/415
f 568/637/241 560/638/241 565/639/241
f 501/640/241 498/641/241 502/401/241
f 429/614/402 440/589/385 434/642/416
f 657/372/241 652/643/241 653/644/241
f 519/624/408 520/645/241 531/646/417
f 507/408/241 503/647/241 504/582/241
f 512/400/241 516/621/241 517/608/241
f 484/648/418 584/649/241 485/551/368
f 449/498/328 433/507/337 438/603/395
f 538/566/241 441/383/249 439/588/358
f 606/650/419 569/488/241 568/637/241
f 398/409/259 411/493/323 397/474/311
f 704/431/274 694/606/398 703/604/396
f 706/496/326 707/439/281 712/651/420
f 553/652/241 556/577/241 558/653/241
f 525/633/241 541/654/241 537/655/241
f 697/613/401 693/363/234 694/606/398
f 471/656/421 472/369/240 477/368/239
f 487/617/405 470/657/422 493/392/253
f 444/485/319 458/397/258 453/396/257
f 501/640/241 496/593/241 497/658/241
f 418/483/317 414/471/308 419/504/334
f 555/619/241 547/477/241 554/659/241
f 580/543/241 587/568/241 589/609/241
f 451/367/238 427/486/320 428/505/335
f 570/556/241 528/660/241 527/599/241
f 479/530/352 483/661/423 484/648/418
f 606/650/419 688/612/400 597/523/346
f 448/500/330 573/546/241 492/445/287
f 436/662/424 429/614/402 434/642/416
f 605/391/241 601/458/296 604/460/298
f 385/629/411 386/365/236 391/584/382
f 497/658/241 495/491/241 499/663/241
f 388/533/355 382/622/406 387/628/410
f 375/501/331 370/590/386 371/569/377
f 528/660/241 557/579/241 535/664/241
f 601/458/296 595/374/241 600/540/361
f 535/664/241 518/600/241 528/660/241
f 555/619/241 559/665/241 560/638/241
f 452/549/366 482/666/425 477/368/239
f 436/662/424 439/588/358 441/383/249
f 380/623/407 381/366/237 386/365/236
f 578/667/241 575/511/241 579/632/241
f 378/411/261 373/668/426 374/562/373
f 659/516/241 565/639/241 564/398/241
f 506/407/241 401/419/266 394/421/268
f 454/548/365 455/669/427 459/591/387
f 476/444/286 477/368/239 482/666/425
f 686/427/272 674/670/241 683/564/375
f 711/497/327 712/651/420 720/563/374
f 535/664/241 508/671/241 513/572/241
f 531/646/417 610/434/277 519/624/408
f 599/524/347 592/610/241 597/523/346
f 509/672/241 510/673/241 515/674/241
f 630/536/357 623/675/428 628/676/429
f 566/547/241 549/476/241 567/545/241
f 543/414/241 540/631/241 544/677/241
f 511/402/241 498/641/241 509/672/241
f 532/678/430 609/679/431 531/646/417
f 523/601/393 517/608/241 522/390/252
f 642/465/302 637/469/306 641/466/303
f 621/377/243 617/389/251 618/680/432
f 631/535/356 635/681/433 636/468/305
f 473/583/381 457/457/295 471/656/421
f 492/445/287 574/574/241 481/446/288
f 648/682/434 629/683/435 624/684/436
f 628/676/429 645/634/413 633/685/437
f 669/429/241 673/686/241 674/670/241
f 572/490/241 560/638/241 569/488/241
f 679/687/241 673/686/241 678/585/241
f 565/639/241 559/665/241 564/398/241
f 630/536/357 633/685/437 635/681/433
f 653/644/241 651/554/241 655/436/241
f 551/576/241 552/580/241 557/579/241
f 649/630/412 622/378/244 627/581/380
f 426/544/364 423/515/308 427/486/320
f 533/578/241 541/654/241 526/406/241
f 415/472/309 416/587/384 430/426/271
f 393/627/409 387/628/410 392/594/389
f 534/688/241 515/674/241 510/673/241
f 469/616/404 464/689/438 465/479/313
f 669/429/241 661/450/241 668/690/241
f 372/510/340 373/668/426 376/691/439
f 644/692/440 634/693/441 629/683/435
f 526/406/241 508/671/241 533/578/241
f 602/618/241 585/694/241 603/695/241
f 470/657/422 474/528/350 475/393/254
f 531/646/417 529/696/241 532/678/430
f 639/602/394 570/556/241 527/599/241
f 668/690/241 658/423/241 667/525/241
f 682/565/376 674/670/241 679/687/241
f 412/494/324 413/586/383 417/482/316
f 660/370/241 658/423/241 661/450/241
f 616/417/264 611/435/278 612/697/442
f 463/592/388 464/689/438 467/596/390
f 665/385/241 676/698/241 670/404/241
f 581/699/241 579/632/241 582/558/241
f 623/675/428 624/684/436 629/683/435
f 522/390/252 620/700/443 523/601/393
f 363/701/444 364/702/445 368/508/338
f 662/625/241 568/637/241 565/639/241
f 722/703/446 700/520/343 705/704/447
f 529/696/241 515/674/241 530/705/241
f 483/661/423 581/699/241 484/648/418
f 546/412/241 544/677/241 547/477/241
f 647/376/242 671/387/241 666/386/241
f 583/559/241 589/609/241 590/518/241
f 534/688/241 499/663/241 536/706/241
f 600/540/361 698/442/284 601/458/296
f 519/624/408 614/707/448 521/388/250
f 437/382/248 431/531/353 436/662/424
f 627/581/380 619/708/449 626/416/263
f 640/437/279 620/700/443 621/377/243
f 537/655/241 439/588/358 450/537/358
f 571/709/241 593/489/241 588/512/241
f 628/676/429 629/683/435 634/693/441
f 653/644/241 666/386/241 654/422/241
f 622/378/244 618/680/432 619/708/449
f 568/637/241 687/542/363 606/650/419
f 503/647/241 394/421/268 393/627/409
f 718/710/450 710/430/273 715/711/451
f 392/594/389 385/629/411 390/492/322
f 607/451/241 585/694/241 586/517/241
f 478/529/351 481/446/288 483/661/423
f 443/499/329 566/547/241 448/500/330
f 545/712/241 443/499/329 442/384/249
f 619/708/449 615/433/276 616/417/264
f 652/643/241 563/399/241 561/555/241
f 469/616/404 466/561/372 470/657/422
f 638/713/452 613/714/453 609/679/431
f 632/467/304 626/416/263 631/535/356
f 509/672/241 520/645/241 514/620/241
f 719/715/454 705/704/447 710/430/273
f 597/523/346 598/716/241 606/650/419
f 428/505/335 423/515/308 424/503/333
f 650/717/455 624/684/436 613/714/453
f 549/476/241 545/712/241 546/412/241
f 715/711/451 709/432/275 714/560/371
f 523/601/393 639/602/394 527/599/241
f 488/598/392 486/615/403 489/718/456
f 618/680/432 614/707/448 615/433/276
f 563/399/241 556/577/241 561/555/241
f 611/435/278 609/679/431 613/714/453
f 497/658/241 510/673/241 498/641/241
f 504/582/241 500/626/241 501/640/241
f 600/540/361 594/611/241 599/524/347
f 689/607/399 687/542/363 691/448/290
f 402/538/359 384/455/293 389/420/267
f 482/666/425 448/500/330 492/445/287
f 675/405/241 676/698/241 684/464/241
f 686/427/272 712/651/420 707/439/281
f 522/390/252 516/621/241 521/388/250
f 668/690/241 672/534/241 673/686/241
f 370/590/386 364/702/445 365/570/378
f 461/481/315 455/669/427 456/395/256
f 524/595/241 499/663/241 495/491/241
f 480/553/370 484/648/418 485/551/368
f 567/545/241 550/478/241 571/709/241
f 554/659/241 558/653/241 559/665/241
f 420/470/307 429/614/402 431/531/353
f 376/691/439 377/410/260 399/473/310
f 553/652/241 540/631/241 551/576/241
f 681/447/289 664/428/241 685/438/280
f 394/421/268 388/533/355 393/627/409
f 407/424/269 378/411/261 379/454/292
f 564/398/241 558/653/241 563/399/241
f 366/571/379 367/380/246 381/366/237
f 507/408/241 505/573/241 508/671/241
f 494/394/255 480/553/370 491/550/367
f 404/719/457 391/584/382 386/365/236
f 625/418/265 612/697/442 623/675/428
f 383/502/332 371/569/377 382/622/406
f 587/568/241 598/716/241 592/610/241
f 402/538/359 435/425/270 409/453/291
f 554/659/241 544/677/241 553/652/241
f 709/432/275 703/604/396 708/526/348
f 584/649/241 582/558/241 585/694/241
f 612/697/442 613/714/453 624/684/436
f 410/720/458 381/366/237 367/380/246
f 365/570/378 362/381/247 367/380/246
f 705/704/447 697/613/401 704/431/274
f 539/567/241 537/655/241 541/654/241
f 571/709/241 577/575/241 567/545/241
f 481/446/288 578/667/241 483/661/423
f 335/1/1 334/179/133 331/2/2
f 47/4/4 43/359/230 25/5/5
f 90/7/7 91/189/139 116/8/8
f 299/10/10 298/156/10 295/11/10
f 230/13/11 229/158/10 234/14/10
f 286/16/12 279/77/51 260/17/13
f 35/19/15 49/360/231 6/20/16
f 76/22/18 75/301/196 80/23/19
f 304/25/10 293/62/10 305/26/10
f 160/28/21 253/346/220 256/29/22
f 244/31/10 247/92/30 230/13/11
f 132/32/24 109/296/194 114/33/25
f 95/35/27 94/308/199 92/36/28
f 295/11/10 298/156/10 203/38/30
f 151/40/10 144/213/10 141/41/10
f 316/43/11 311/174/10 309/44/10
f 165/46/10 164/272/10 145/47/30
f 37/49/31 36/114/83 16/50/32
f 185/52/10 184/351/10 181/53/10
f 1/21/17 2/340/216 34/55/34
f 265/56/35 258/347/221 255/57/36
f 40/59/38 41/358/229 28/60/39
f 296/12/10 292/283/10 293/62/10
f 46/64/41 48/93/63 74/65/42
f 325/67/44 324/78/52 303/68/10
f 349/70/45 344/343/219 343/71/46
f 254/73/48 253/346/220 249/74/49
f 286/16/12 305/26/10 294/76/10
f 324/78/52 325/67/44 346/79/53
f 356/81/55 355/99/69 337/82/56
f 115/84/58 121/305/197 131/85/59
f 320/87/61 324/78/52 341/80/54
f 302/89/10 299/10/10 300/90/10
f 246/91/10 225/157/10 230/13/11
f 48/93/63 46/64/41 18/94/64
f 101/96/66 100/121/87 95/35/27
f 240/98/68 337/82/56 355/99/69
f 44/101/71 30/224/155 42/102/72
f 323/104/11 315/337/10 281/105/74
f 271/107/76 270/175/129 275/108/77
f 59/110/79 58/144/106 53/111/80
f 38/113/82 16/50/32 36/114/83
f 188/116/10 185/52/10 186/117/10
f 104/119/85 103/328/210 99/120/86
f 56/122/88 52/226/156 57/123/89
f 83/125/91 65/184/137 66/126/92
f 208/128/10 237/355/10 232/129/10
f 84/127/93 90/7/7 111/9/9
f 134/131/10 135/232/10 29/132/94
f 39/115/84 36/114/83 50/133/95
f 352/135/97 347/166/121 345/136/98
f 88/138/100 77/242/167 82/139/101
f 23/95/65 18/94/64 14/141/103
f 63/143/105 62/155/114 58/144/106
f 67/145/107 63/143/105 71/146/108
f 7/148/110 3/341/217 8/149/111
f 214/151/10 216/215/11 227/152/11
f 61/154/113 57/123/89 58/144/106
f 302/89/10 301/264/30 298/156/10
f 225/157/10 222/199/10 229/158/10
f 360/159/115 356/81/55 338/83/57
f 85/161/117 65/184/137 83/125/91
f 236/163/119 327/251/172 331/2/2
f 306/165/10 297/63/10 293/62/10
f 347/166/121 342/243/168 340/167/122
f 113/168/123 112/223/154 117/169/124
f 63/143/105 59/110/79 70/171/126
f 181/53/10 184/351/10 81/24/20
f 60/124/90 57/123/89 61/154/113
f 28/60/39 23/95/65 22/142/104
f 306/165/10 304/25/10 309/44/10
f 270/175/129 265/56/35 264/58/37
f 79/177/131 41/358/229 40/59/38
f 238/164/120 331/2/2 334/179/133
f 319/181/135 320/87/61 330/88/62
f 219/183/10 218/271/10 214/151/10
f 64/172/127 61/154/113 65/184/137
f 206/185/10 216/215/11 212/186/10
f 86/162/118 83/125/91 92/36/28
f 90/7/7 67/145/107 72/147/109
f 130/190/140 119/193/143 124/191/141
f 114/33/25 113/168/123 118/170/125
f 290/194/30 291/282/10 200/195/10
f 200/195/10 195/217/10 201/197/10
f 225/157/10 224/333/10 221/198/10
f 353/200/144 348/72/47 347/166/121
f 105/201/145 104/119/85 100/121/87
f 18/94/64 17/51/33 13/202/146
f 359/203/147 351/290/192 322/204/148
f 182/54/10 181/53/10 177/206/10
f 215/153/11 227/152/11 232/129/10
f 10/209/150 9/229/158 4/210/151
f 340/167/122 329/244/169 341/80/54
f 152/212/10 147/310/10 144/213/10
f 213/214/10 212/186/10 216/215/11
f 190/216/10 196/219/30 201/197/10
f 172/218/10 174/303/10 196/219/30
f 281/105/74 288/269/184 266/221/153
f 143/222/10 140/279/10 141/41/10
f 112/223/154 110/295/193 115/84/58
f 105/201/145 101/96/66 112/223/154
f 29/132/94 24/268/183 30/224/155
f 317/225/10 312/325/10 311/174/10
f 52/226/156 50/133/95 55/227/157
f 78/228/19 73/281/188 79/177/131
f 13/202/146 12/307/198 8/149/111
f 98/230/159 94/308/199 99/120/86
f 135/232/10 139/265/10 31/233/161
f 163/234/10 134/131/10 44/101/71
f 106/235/162 103/328/210 107/236/163
f 166/238/11 167/299/10 157/239/30
f 278/241/166 279/77/51 294/76/10
f 77/242/167 76/22/18 81/24/20
f 342/243/168 333/245/170 329/244/169
f 333/245/170 332/3/3 328/246/171
f 77/242/167 72/147/109 71/146/108
f 329/244/169 328/246/171 330/88/62
f 152/212/10 151/40/10 156/247/10
f 228/248/11 226/208/11 231/249/10
f 332/3/3 331/2/2 327/251/172
f 338/83/57 337/82/56 334/179/133
f 339/160/116 338/83/57 335/1/1
f 54/112/81 69/66/43 74/65/42
f 125/254/175 107/236/163 108/255/176
f 124/191/141 223/288/10 241/257/10
f 211/130/10 210/348/10 189/118/10
f 150/42/10 148/311/10 153/259/10
f 37/49/31 46/64/41 69/66/43
f 21/261/178 10/209/150 5/211/152
f 160/28/21 155/260/10 153/259/10
f 320/87/61 319/181/135 301/264/30
f 139/265/10 142/286/10 32/266/181
f 26/267/182 21/261/178 19/262/179
f 281/105/74 315/337/10 310/27/10
f 229/158/10 228/248/11 233/250/10
f 96/97/67 95/35/27 97/37/29
f 178/207/10 180/293/10 191/220/10
f 222/199/10 221/198/10 218/271/10
f 164/272/10 176/294/10 89/178/132
f 284/273/185 273/332/213 282/274/186
f 207/276/30 208/128/10 199/277/10
f 140/279/10 136/297/10 137/280/10
f 68/253/174 74/65/42 79/177/131
f 296/12/10 295/11/10 291/282/10
f 158/263/180 153/259/10 159/284/10
f 146/48/10 145/47/30 142/286/10
f 151/40/10 150/42/10 155/260/10
f 123/287/190 220/338/10 223/288/10
f 88/138/100 91/189/139 72/147/109
f 177/206/10 181/53/10 80/23/19
f 245/289/191 237/355/10 208/128/10
f 37/49/31 55/227/157 50/133/95
f 343/71/46 336/252/173 333/245/170
f 345/136/98 340/167/122 346/79/53
f 192/291/10 190/216/10 195/217/10
f 164/272/10 165/46/10 180/293/10
f 336/252/173 335/1/1 332/3/3
f 110/295/193 96/97/67 111/9/9
f 126/256/177 108/255/176 109/296/194
f 83/125/91 84/127/93 97/37/29
f 140/279/10 139/265/10 135/232/10
f 57/123/89 52/226/156 53/111/80
f 194/258/10 189/118/10 186/117/10
f 219/183/10 215/153/11 226/208/11
f 90/7/7 84/127/93 66/126/92
f 209/196/10 201/197/10 167/299/10
f 118/170/125 117/169/124 122/300/195
f 245/289/191 326/182/136 327/251/172
f 87/140/102 205/187/10 212/186/10
f 75/301/196 70/171/126 68/253/174
f 244/31/10 235/15/10 240/98/68
f 24/268/183 19/262/179 25/5/5
f 136/297/10 135/232/10 134/131/10
f 27/173/128 22/142/104 21/261/178
f 14/141/103 13/202/146 9/229/158
f 167/299/10 201/197/10 196/219/30
f 240/98/68 235/15/10 234/14/10
f 174/303/10 152/212/10 157/239/30
f 194/258/10 193/298/10 198/304/10
f 91/189/139 88/138/100 121/305/197
f 75/301/196 73/281/188 78/228/19
f 19/262/179 5/211/152 20/6/6
f 217/306/10 213/214/10 214/151/10
f 17/51/33 16/50/32 12/307/198
f 298/156/10 301/264/30 204/278/10
f 145/47/30 164/272/10 40/59/38
f 93/188/138 92/36/28 94/308/199
f 115/84/58 110/295/193 116/8/8
f 325/67/44 308/69/10 313/309/30
f 350/137/99 345/136/98 351/290/192
f 174/303/10 172/218/10 147/310/10
f 170/285/189 248/318/203 249/74/49
f 238/164/120 233/250/10 231/249/10
f 148/311/10 137/280/10 149/312/10
f 269/176/130 264/58/37 262/314/200
f 205/187/10 187/721/10 188/116/10
f 182/54/10 178/207/10 179/270/10
f 150/42/10 141/41/10 137/280/10
f 171/317/202 277/352/224 248/318/203
f 162/240/165 157/239/30 156/247/10
f 281/105/74 271/107/76 276/109/78
f 260/17/13 259/339/215 256/29/22
f 270/175/129 269/176/130 274/320/205
f 112/223/154 101/96/66 96/97/67
f 131/85/59 212/186/10 213/214/10
f 287/321/206 283/331/212 268/322/207
f 267/315/201 273/332/213 284/273/185
f 308/69/10 307/329/10 312/325/10
f 211/130/10 194/258/10 199/277/10
f 318/326/11 313/309/30 312/325/10
f 204/278/10 199/277/10 198/304/10
f 269/176/130 267/315/201 272/324/209
f 292/283/10 291/282/10 290/194/30
f 190/216/10 179/270/10 191/220/10
f 288/269/184 286/16/12 261/18/14
f 65/184/137 61/154/113 62/155/114
f 172/218/10 191/220/10 180/293/10
f 54/112/81 53/111/80 55/227/157
f 32/266/181 27/173/128 26/267/182
f 173/327/10 169/344/30 154/313/10
f 108/255/176 107/236/163 103/328/210
f 308/69/10 303/68/10 300/90/10
f 11/150/112 8/149/111 12/307/198
f 283/331/212 282/274/186 273/332/213
f 165/46/10 146/48/10 147/310/10
f 241/257/10 223/288/10 224/333/10
f 109/296/194 105/201/145 113/168/123
f 170/285/189 159/284/10 168/335/10
f 278/241/166 290/194/30 209/196/10
f 307/329/10 300/90/10 297/63/10
f 321/205/149 322/204/148 313/309/30
f 51/134/96 50/133/95 52/226/156
f 299/10/10 296/12/10 297/63/10
f 255/57/36 254/73/48 250/75/50
f 102/231/160 99/120/86 103/328/210
f 304/25/10 310/27/10 315/337/10
f 220/338/10 217/306/10 218/271/10
f 262/314/200 251/336/214 263/323/208
f 161/30/23 256/29/22 259/339/215
f 2/340/216 1/21/17 3/341/217
f 301/264/30 319/181/135 207/276/30
f 361/342/218 360/159/115 339/160/116
f 168/335/10 159/284/10 154/313/10
f 122/300/195 217/306/10 220/338/10
f 185/52/10 182/54/10 183/316/10
f 286/16/12 288/269/184 310/27/10
f 222/199/10 219/183/10 228/248/11
f 173/327/10 149/312/10 138/302/10
f 239/180/134 334/179/133 337/82/56
f 158/263/180 249/74/49 253/346/220
f 76/22/18 71/146/108 70/171/126
f 266/221/153 261/18/14 258/347/221
f 279/77/51 278/241/166 259/339/215
f 176/294/10 177/206/10 78/228/19
f 210/348/10 211/130/10 232/129/10
f 267/315/201 262/314/200 268/322/207
f 292/283/10 294/76/10 305/26/10
f 261/18/14 260/17/13 257/319/204
f 207/276/30 319/181/135 326/182/136
f 142/286/10 145/47/30 33/61/40
f 357/349/222 358/354/226 349/70/45
f 31/233/161 26/267/182 24/268/183
f 246/91/10 242/334/10 224/333/10
f 117/169/124 115/84/58 120/86/60
f 82/139/101 187/721/10 205/187/10
f 184/351/10 187/721/10 82/139/101
f 258/347/221 257/319/204 254/73/48
f 291/282/10 295/11/10 202/39/10
f 108/255/176 104/119/85 105/201/145
f 277/352/224 289/356/227 252/353/225
f 271/107/76 266/221/153 265/56/35
f 148/311/10 154/313/10 159/284/10
f 358/354/226 361/342/218 344/343/219
f 236/163/119 231/249/10 237/355/10
f 67/145/107 66/126/92 62/155/114
f 289/356/227 287/321/206 263/323/208
f 188/116/10 187/721/10 184/351/10
f 354/350/223 349/70/45 348/72/47
f 162/240/165 259/339/215 278/241/166
f 127/237/164 107/236/163 125/254/175
f 257/319/204 256/29/22 253/346/220
f 202/39/10 197/292/30 195/217/10
f 250/75/50 249/74/49 248/318/203
f 136/297/10 138/302/10 149/312/10
f 143/222/10 142/286/10 139/265/10
f 234/14/10 233/250/10 238/164/120
f 328/246/171 327/251/172 326/182/136
f 41/358/229 48/93/63 23/95/65
f 121/305/197 88/138/100 87/140/102
f 314/45/10 309/44/10 315/337/10
f 325/67/44 322/204/148 351/290/192
f 161/30/23 156/247/10 155/260/10
f 307/329/10 306/165/10 311/174/10
f 9/229/158 8/149/111 3/341/217
f 100/121/87 99/120/86 94/308/199
f 163/234/10 175/345/10 138/302/10
f 119/193/143 118/170/125 123/287/190
f 206/185/10 188/116/10 189/118/10
f 193/298/10 192/291/10 197/292/30
f 59/110/79 54/112/81 68/253/174
f 15/330/211 12/307/198 16/50/32
f 192/291/10 183/316/10 179/270/10
f 320/87/61 302/89/10 303/68/10
f 33/61/40 28/60/39 27/173/128
f 46/64/41 37/49/31 17/51/33
f 203/38/30 198/304/10 197/292/30
f 5/211/152 4/210/151 6/20/16
f 146/48/10 143/222/10 144/213/10
f 133/34/26 114/33/25 119/193/143
f 43/359/230 42/102/72 30/224/155
f 264/58/37 255/57/36 251/336/214
f 22/142/104 14/141/103 10/209/150
f 226/208/11 232/129/10 237/355/10
f 41/358/229 79/177/131 74/65/42
f 193/298/10 186/117/10 183/316/10
f 348/72/47 343/71/46 342/243/168
f 223/288/10 220/338/10 221/198/10
f 251/336/214 250/75/50 252/353/225
f 49/360/231 47/4/4 20/6/6
f 4/210/151 3/341/217 1/21/17
f 344/343/219 339/160/116 336/252/173
f 178/207/10 177/206/10 176/294/10
f 210/348/10 227/152/11 216/215/11
f 120/86/60 213/214/10 217/306/10
f 696/361/232 695/539/360 692/362/233
f 408/364/235 404/719/457 386/365/236
f 451/367/238 452/549/366 477/368/239
f 660/370/241 659/516/241 656/371/241
f 591/373/241 590/518/241 595/374/241
f 647/376/242 640/437/279 621/377/243
f 396/379/245 410/720/458 367/380/246
f 437/382/248 436/662/424 441/383/249
f 665/385/241 654/422/241 666/386/241
f 521/388/250 614/707/448 617/389/251
f 605/391/241 608/452/241 591/373/241
f 493/392/253 470/657/422 475/393/254
f 456/395/256 455/669/427 453/396/257
f 656/371/241 659/516/241 564/398/241
f 512/400/241 505/573/241 502/401/241
f 677/403/241 672/534/241 670/404/241
f 526/406/241 525/633/241 506/407/241
f 398/409/259 397/474/311 377/410/260
f 546/412/241 545/712/241 542/413/241
f 362/381/247 363/701/444 395/415/262
f 626/416/263 619/708/449 616/417/264
f 401/419/266 402/538/359 389/420/267
f 657/372/241 653/644/241 654/422/241
f 407/424/269 409/453/291 435/425/270
f 686/427/272 685/438/280 664/428/241
f 710/430/273 705/704/447 704/431/274
f 615/433/276 614/707/448 610/434/277
f 647/376/242 666/386/241 655/436/241
f 685/438/280 686/427/272 707/439/281
f 717/441/283 716/459/297 698/442/284
f 476/444/286 482/666/425 492/445/287
f 681/447/289 685/438/280 702/440/282
f 663/449/241 660/370/241 661/450/241
f 607/451/241 586/517/241 591/373/241
f 409/453/291 407/424/269 379/454/292
f 462/456/294 461/481/315 456/395/256
f 601/458/296 698/442/284 716/459/297
f 405/461/299 391/584/382 403/462/300
f 684/464/241 676/698/241 642/465/302
f 632/467/304 631/535/356 636/468/305
f 420/470/307 419/504/334 414/471/308
f 399/473/310 377/410/260 397/474/311
f 549/476/241 546/412/241 547/477/241
f 465/479/313 464/689/438 460/480/314
f 417/482/316 413/586/383 418/483/317
f 444/485/319 426/544/364 427/486/320
f 569/488/241 598/716/241 593/489/241
f 445/487/321 451/367/238 472/369/240
f 495/491/241 496/593/241 390/492/322
f 400/475/312 397/474/311 411/493/323
f 713/495/325 708/526/348 706/496/326
f 449/498/328 438/603/395 443/499/329
f 384/455/293 379/454/292 375/501/331
f 424/503/333 423/515/308 419/504/334
f 428/505/335 424/503/333 432/506/336
f 368/508/338 364/702/445 369/509/339
f 575/511/241 577/575/241 588/512/241
f 422/514/341 418/483/317 419/504/334
f 663/449/241 662/625/241 659/516/241
f 586/517/241 583/559/241 590/518/241
f 721/519/342 717/441/283 699/443/285
f 446/521/344 426/544/364 444/485/319
f 597/523/346 688/612/400 692/362/233
f 667/525/241 658/423/241 654/422/241
f 708/526/348 703/604/396 701/527/349
f 474/528/350 473/583/381 478/529/351
f 424/503/333 420/470/307 431/531/353
f 542/413/241 545/712/241 442/384/249
f 421/484/318 418/483/317 422/514/341
f 389/420/267 384/455/293 383/502/332
f 667/525/241 665/385/241 670/404/241
f 631/535/356 626/416/263 625/418/265
f 450/537/358 440/589/385 402/538/359
f 599/524/347 692/362/233 695/539/360
f 680/541/362 681/447/289 691/448/290
f 580/543/241 579/632/241 575/511/241
f 425/532/354 422/514/341 426/544/364
f 567/545/241 577/575/241 573/546/241
f 447/522/345 444/485/319 453/396/257
f 451/367/238 428/505/335 433/507/337
f 491/550/367 480/553/370 485/551/368
f 475/393/254 474/528/350 479/530/352
f 651/554/241 652/643/241 561/555/241
f 561/555/241 556/577/241 562/557/241
f 586/517/241 585/694/241 582/558/241
f 714/560/371 709/432/275 708/526/348
f 466/561/372 465/479/313 461/481/315
f 379/454/292 378/411/261 374/562/373
f 720/563/374 712/651/420 683/564/375
f 543/414/241 542/413/241 538/566/241
f 576/513/241 588/512/241 593/489/241
f 371/569/377 370/590/386 365/570/378
f 701/527/349 690/605/397 702/440/282
f 513/572/241 508/671/241 505/573/241
f 574/574/241 573/546/241 577/575/241
f 551/576/241 557/579/241 562/557/241
f 533/578/241 535/664/241 557/579/241
f 642/465/302 649/630/412 627/581/380
f 504/582/241 501/640/241 502/401/241
f 473/583/381 471/656/421 476/444/286
f 466/561/372 462/456/294 473/583/381
f 390/492/322 385/629/411 391/584/382
f 678/585/241 673/686/241 672/534/241
f 413/586/383 411/493/323 416/587/384
f 439/588/358 434/642/416 440/589/385
f 374/562/373 373/668/426 369/509/339
f 459/591/387 455/669/427 460/480/314
f 496/593/241 500/626/241 392/594/389
f 524/595/241 495/491/241 405/461/299
f 467/596/390 464/689/438 468/597/391
f 527/599/241 528/660/241 518/600/241
f 639/602/394 640/437/279 655/436/241
f 438/603/395 437/382/248 442/384/249
f 703/604/396 694/606/398 690/605/397
f 694/606/398 693/363/234 689/607/399
f 438/603/395 433/507/337 432/506/336
f 690/605/397 689/607/399 691/448/290
f 513/572/241 512/400/241 517/608/241
f 589/609/241 587/568/241 592/610/241
f 693/363/234 692/362/233 688/612/400
f 699/443/285 698/442/284 695/539/360
f 700/520/343 699/443/285 696/361/232
f 415/472/309 430/426/271 435/425/270
f 486/615/403 468/597/391 469/616/404
f 485/551/368 584/649/241 602/618/241
f 572/490/241 571/709/241 550/478/241
f 511/402/241 509/672/241 514/620/241
f 398/409/259 407/424/269 430/426/271
f 382/622/406 371/569/377 366/571/379
f 521/388/250 516/621/241 514/620/241
f 681/447/289 680/541/362 662/625/241
f 500/626/241 503/647/241 393/627/409
f 387/628/410 382/622/406 380/623/407
f 642/465/302 676/698/241 671/387/241
f 590/518/241 589/609/241 594/611/241
f 457/457/295 456/395/256 458/397/258
f 539/567/241 541/654/241 552/580/241
f 583/559/241 582/558/241 579/632/241
f 525/633/241 537/655/241 450/537/358
f 645/634/413 634/693/441 643/635/414
f 568/637/241 569/488/241 560/638/241
f 501/640/241 497/658/241 498/641/241
f 429/614/402 435/425/270 440/589/385
f 657/372/241 656/371/241 652/643/241
f 519/624/408 514/620/241 520/645/241
f 507/408/241 506/407/241 503/647/241
f 512/400/241 511/402/241 516/621/241
f 484/648/418 581/699/241 584/649/241
f 449/498/328 452/549/366 433/507/337
f 538/566/241 542/413/241 441/383/249
f 606/650/419 598/716/241 569/488/241
f 398/409/259 416/587/384 411/493/323
f 704/431/274 697/613/401 694/606/398
f 706/496/326 701/527/349 707/439/281
f 553/652/241 551/576/241 556/577/241
f 525/633/241 526/406/241 541/654/241
f 697/613/401 696/361/232 693/363/234
f 471/656/421 457/457/295 472/369/240
f 487/617/405 469/616/404 470/657/422
f 444/485/319 445/487/321 458/397/258
f 501/640/241 500/626/241 496/593/241
f 418/483/317 413/586/383 414/471/308
f 555/619/241 550/478/241 547/477/241
f 580/543/241 576/513/241 587/568/241
f 451/367/238 445/487/321 427/486/320
f 570/556/241 562/557/241 528/660/241
f 479/530/352 478/529/351 483/661/423
f 606/650/419 687/542/363 688/612/400
f 448/500/330 566/547/241 573/546/241
f 436/662/424 431/531/353 429/614/402
f 605/391/241 596/375/241 601/458/296
f 385/629/411 380/623/407 386/365/236
f 497/658/241 496/593/241 495/491/241
f 388/533/355 383/502/332 382/622/406
f 375/501/331 374/562/373 370/590/386
f 528/660/241 562/557/241 557/579/241
f 601/458/296 596/375/241 595/374/241
f 535/664/241 513/572/241 518/600/241
f 555/619/241 554/659/241 559/665/241
f 452/549/366 449/498/328 482/666/425
f 436/662/424 434/642/416 439/588/358
f 380/623/407 366/571/379 381/366/237
f 578/667/241 574/574/241 575/511/241
f 378/411/261 377/410/260 373/668/426
f 659/516/241 662/625/241 565/639/241
f 506/407/241 525/633/241 401/419/266
f 454/548/365 453/396/257 455/669/427
f 476/444/286 471/656/421 477/368/239
f 686/427/272 669/429/241 674/670/241
f 711/497/327 706/496/326 712/651/420
f 535/664/241 533/578/241 508/671/241
f 531/646/417 609/679/431 610/434/277
f 599/524/347 594/611/241 592/610/241
f 509/672/241 498/641/241 510/673/241
f 630/536/357 625/418/265 623/675/428
f 566/547/241 548/722/241 549/476/241
f 543/414/241 539/567/241 540/631/241
f 511/402/241 502/401/241 498/641/241
f 532/678/430 638/713/452 609/679/431
f 523/601/393 518/600/241 517/608/241
f 642/465/302 632/467/304 637/469/306
f 621/377/243 620/700/443 617/389/251
f 631/535/356 630/536/357 635/681/433
f 473/583/381 462/456/294 457/457/295
f 492/445/287 573/546/241 574/574/241
f 648/682/434 644/692/440 629/683/435
f 628/676/429 634/693/441 645/634/413
f 669/429/241 668/690/241 673/686/241
f 572/490/241 555/619/241 560/638/241
f 679/687/241 674/670/241 673/686/241
f 565/639/241 560/638/241 559/665/241
f 630/536/357 628/676/429 633/685/437
f 653/644/241 652/643/241 651/554/241
f 551/576/241 540/631/241 552/580/241
f 649/630/412 647/376/242 622/378/244
f 426/544/364 422/514/341 423/515/308
f 533/578/241 552/580/241 541/654/241
f 415/472/309 414/471/308 416/587/384
f 393/627/409 388/533/355 387/628/410
f 534/688/241 530/705/241 515/674/241
f 469/616/404 468/597/391 464/689/438
f 669/429/241 664/428/241 661/450/241
f 372/510/340 369/509/339 373/668/426
f 644/692/440 643/635/414 634/693/441
f 526/406/241 507/408/241 508/671/241
f 602/618/241 584/649/241 585/694/241
f 470/657/422 466/561/372 474/528/350
f 531/646/417 520/645/241 529/696/241
f 639/602/394 651/554/241 570/556/241
f 668/690/241 661/450/241 658/423/241
f 682/565/376 683/564/375 674/670/241
f 412/494/324 411/493/323 413/586/383
f 660/370/241 657/372/241 658/423/241
f 616/417/264 615/433/276 611/435/278
f 463/592/388 460/480/314 464/689/438
f 665/385/241 671/387/241 676/698/241
f 581/699/241 578/667/241 579/632/241
f 623/675/428 612/697/442 624/684/436
f 522/390/252 617/389/251 620/700/443
f 363/701/444 362/381/247 364/702/445
f 662/625/241 680/541/362 568/637/241
f 722/703/446 721/519/342 700/520/343
f 529/696/241 520/645/241 515/674/241
f 483/661/423 578/667/241 581/699/241
f 546/412/241 543/414/241 544/677/241
f 647/376/242 649/630/412 671/387/241
f 583/559/241 580/543/241 589/609/241
f 534/688/241 510/673/241 499/663/241
f 600/540/361 695/539/360 698/442/284
f 519/624/408 610/434/277 614/707/448
f 437/382/248 432/506/336 431/531/353
f 627/581/380 622/378/244 619/708/449
f 640/437/279 639/602/394 620/700/443
f 537/655/241 538/566/241 439/588/358
f 571/709/241 572/490/241 593/489/241
f 628/676/429 623/675/428 629/683/435
f 653/644/241 655/436/241 666/386/241
f 622/378/244 621/377/243 618/680/432
f 568/637/241 680/541/362 687/542/363
f 503/647/241 506/407/241 394/421/268
f 718/710/450 719/715/454 710/430/273
f 392/594/389 387/628/410 385/629/411
f 607/451/241 603/695/241 585/694/241
f 478/529/351 476/444/286 481/446/288
f 443/499/329 548/722/241 566/547/241
f 545/712/241 548/722/241 443/499/329
f 619/708/449 618/680/432 615/433/276
f 652/643/241 656/371/241 563/399/241
f 469/616/404 465/479/313 466/561/372
f 638/713/452 650/717/455 613/714/453
f 632/467/304 627/581/380 626/416/263
f 509/672/241 515/674/241 520/645/241
f 719/715/454 722/703/446 705/704/447
f 597/523/346 592/610/241 598/716/241
f 428/505/335 427/486/320 423/515/308
f 650/717/455 648/682/434 624/684/436
f 549/476/241 548/722/241 545/712/241
f 715/711/451 710/430/273 709/432/275
f 523/601/393 620/700/443 639/602/394
f 488/598/392 468/597/391 486/615/403
f 618/680/432 617/389/251 614/707/448
f 563/399/241 558/653/241 556/577/241
f 611/435/278 610/434/277 609/679/431
f 497/658/241 499/663/241 510/673/241
f 504/582/241 503/647/241 500/626/241
f 600/540/361 595/374/241 594/611/241
f 689/607/399 688/612/400 687/542/363
f 402/538/359 409/453/291 384/455/293
f 482/666/425 449/498/328 448/500/330
f 675/405/241 670/404/241 676/698/241
f 686/427/272 683/564/375 712/651/420
f 522/390/252 517/608/241 516/621/241
f 668/690/241 667/525/241 672/534/241
f 370/590/386 369/509/339 364/702/445
f 461/481/315 460/480/314 455/669/427
f 524/595/241 536/706/241 499/663/241
f 480/553/370 479/530/352 484/648/418
f 567/545/241 549/476/241 550/478/241
f 554/659/241 553/652/241 558/653/241
f 420/470/307 415/472/309 429/614/402
f 376/691/439 373/668/426 377/410/260
f 553/652/241 544/677/241 540/631/241
f 681/447/289 663/449/241 664/428/241
f 394/421/268 389/420/267 388/533/355
f 407/424/269 398/409/259 378/411/261
f 564/398/241 559/665/241 558/653/241
f 366/571/379 365/570/378 367/380/246
f 507/408/241 504/582/241 505/573/241
f 494/394/255 475/393/254 480/553/370
f 404/719/457 403/462/300 391/584/382
f 625/418/265 616/417/264 612/697/442
f 383/502/332 375/501/331 371/569/377
f 587/568/241 593/489/241 598/716/241
f 402/538/359 440/589/385 435/425/270
f 554/659/241 547/477/241 544/677/241
f 709/432/275 704/431/274 703/604/396
f 584/649/241 581/699/241 582/558/241
f 612/697/442 611/435/278 613/714/453
f 410/720/458 408/364/235 381/366/237
f 365/570/378 364/702/445 362/381/247
f 705/704/447 700/520/343 697/613/401
f 539/567/241 538/566/241 537/655/241
f 571/709/241 588/512/241 577/575/241
f 481/446/288 574/574/241 578/667/241
