# Blender 3.6.23
# www.blender.org
o sol.045
v 2.080774 0.846049 -1.298124
v 2.169190 0.878811 -1.336469
v 2.165792 0.920806 -1.413451
v 2.077083 0.920806 -1.374979
v 2.165402 0.917474 -1.414353
v 2.076691 0.917474 -1.375878
v 2.165014 0.913960 -1.415242
v 2.076303 0.913960 -1.376767
v 2.164637 0.910169 -1.416112
v 2.075926 0.910169 -1.377637
v 2.164267 0.906009 -1.416957
v 2.075559 0.906009 -1.378485
v 2.163913 0.901394 -1.417773
v 2.075205 0.901394 -1.379301
v 2.163574 0.896223 -1.418555
v 2.074863 0.896223 -1.380080
v 2.163298 0.890356 -1.419185
v 2.074593 0.890356 -1.380710
v 2.163126 0.884040 -1.419586
v 2.074414 0.884040 -1.381111
v 2.163032 0.877764 -1.419806
v 2.074323 0.877764 -1.381328
v 2.162994 0.872022 -1.419888
v 2.074286 0.872022 -1.381416
v 2.162994 0.867309 -1.419888
v 2.074286 0.867309 -1.381416
v 2.163009 0.864120 -1.419854
v 2.074298 0.864120 -1.381379
v 2.162765 0.862817 -1.419676
v 2.074278 0.862817 -1.381299
v 2.079937 0.922379 -1.368410
v 2.080609 0.922027 -1.367262
v 2.081505 0.921702 -1.366325
v 2.082578 0.921412 -1.365627
v 2.083783 0.921176 -1.365175
v 2.085071 0.920993 -1.364993
v 2.086398 0.920873 -1.365094
v 2.087848 0.920833 -1.365551
v 2.165431 0.920833 -1.399203
v 2.166661 0.920873 -1.399900
v 2.167645 0.920993 -1.400799
v 2.168387 0.921176 -1.401865
v 2.168881 0.921412 -1.403055
v 2.169101 0.921702 -1.404317
v 2.169027 0.922027 -1.405609
v 2.168648 0.922379 -1.406885
v 2.058843 0.852556 -1.374588
v 2.074123 0.862817 -1.380908
v 2.095072 0.852556 -1.291078
v 2.092775 0.851064 -1.290431
v 2.090419 0.849697 -1.290410
v 2.088089 0.848490 -1.290969
v 2.085874 0.847479 -1.292062
v 2.083855 0.846712 -1.293654
v 2.082117 0.846222 -1.295695
v 2.054412 0.846049 -1.358903
v 2.053386 0.846222 -1.361965
v 2.053073 0.846712 -1.364627
v 2.053285 0.847479 -1.367190
v 2.053998 0.848490 -1.369561
v 2.055180 0.849697 -1.371644
v 2.056806 0.851064 -1.373351
v 2.147497 0.872735 -1.413038
v 2.183724 0.872735 -1.329525
v 2.181373 0.874125 -1.328856
v 2.178969 0.875403 -1.328813
v 2.176592 0.876534 -1.329350
v 2.174339 0.877474 -1.330431
v 2.172288 0.878191 -1.332010
v 2.170538 0.878650 -1.334045
v 2.142823 0.878811 -1.397257
v 2.141801 0.878650 -1.400315
v 2.141510 0.878191 -1.402986
v 2.141751 0.877474 -1.405559
v 2.142502 0.876534 -1.407942
v 2.143728 0.875403 -1.410050
v 2.145403 0.874125 -1.411776
v 2.166142 0.923710 -1.412641
v 2.166320 0.923957 -1.412234
v 2.077611 0.923957 -1.373762
v 2.077435 0.923710 -1.374169
v 2.194426 0.815710 -1.347438
v 2.105393 0.815710 -1.308825
v 2.194426 0.862817 -1.347438
v 2.105393 0.862817 -1.308825
v 2.081738 0.846712 -1.298541
v 2.170174 0.878191 -1.336898
v 2.082854 0.847479 -1.299027
v 2.084318 0.848490 -1.299665
v 2.086074 0.849697 -1.300427
v 2.088065 0.851064 -1.301291
v 2.090232 0.852556 -1.302234
v 2.171319 0.877474 -1.337396
v 2.172822 0.876534 -1.338046
v 2.174623 0.875403 -1.338832
v 2.176662 0.874125 -1.339716
v 2.178885 0.872735 -1.340682
v 2.079035 0.815710 -1.369585
v 2.168064 0.862817 -1.408207
v 2.168064 0.815710 -1.408207
v 2.055373 0.846712 -1.359320
v 2.143807 0.878191 -1.397684
v 2.056489 0.847479 -1.359804
v 2.057954 0.848490 -1.360440
v 2.059710 0.849697 -1.361201
v 2.061701 0.851064 -1.362065
v 2.063868 0.852556 -1.363005
v 2.144951 0.877474 -1.398180
v 2.146453 0.876534 -1.398831
v 2.148255 0.875403 -1.399613
v 2.150295 0.874125 -1.400498
v 2.152518 0.872735 -1.401463
v 2.079035 0.862817 -1.369585
v 2.081914 0.913960 -1.379197
v 2.082303 0.917474 -1.378308
v 2.079934 0.862817 -1.383752
v 2.079910 0.864120 -1.383808
v 2.080201 0.890356 -1.383140
v 2.079933 0.877764 -1.383760
v 2.080026 0.884040 -1.383541
v 2.080474 0.896223 -1.382510
v 2.079896 0.867309 -1.383845
v 2.080815 0.901394 -1.381729
v 2.081169 0.906009 -1.380913
v 2.081537 0.910169 -1.380067
v 2.087614 0.920993 -1.366088
v 2.082693 0.920806 -1.377408
v 2.079895 0.872022 -1.383845
v 2.087341 0.921176 -1.366712
v 2.086985 0.921412 -1.367533
v 2.086559 0.921702 -1.368514
v 2.086074 0.922027 -1.369628
v 2.085549 0.922379 -1.370840
v 2.083044 0.923710 -1.376598
v 2.083221 0.923957 -1.376190
v 2.160813 0.923957 -1.409847
v 2.159508 0.913960 -1.412856
v 2.159894 0.917474 -1.411966
v 2.157564 0.862817 -1.417420
v 2.157507 0.864120 -1.417469
v 2.157797 0.890356 -1.416800
v 2.157528 0.877764 -1.417420
v 2.157623 0.884040 -1.417201
v 2.158070 0.896223 -1.416170
v 2.157491 0.867309 -1.417504
v 2.158409 0.901394 -1.415388
v 2.158763 0.906009 -1.414572
v 2.159131 0.910169 -1.413725
v 2.165197 0.920993 -1.399741
v 2.160285 0.920806 -1.411065
v 2.157491 0.872022 -1.417504
v 2.164926 0.921176 -1.400366
v 2.164570 0.921412 -1.401188
v 2.164144 0.921702 -1.402169
v 2.163660 0.922027 -1.403283
v 2.163135 0.922379 -1.404496
v 2.160636 0.923710 -1.410255
v 2.110113 0.862817 -1.297940
v 2.079934 0.815710 -1.383752
v 2.198851 0.862817 -1.337234
v 2.163156 0.862817 -1.419521
v 2.170454 0.878660 -1.334196
v 2.199146 0.862817 -1.336553
v 2.157564 0.815710 -1.417420
v 2.110504 0.862817 -1.297786
v 2.110271 0.862817 -1.297777
v 2.162998 0.862817 -1.419685
v 2.198992 0.862817 -1.336163
v 2.172156 0.878191 -1.332315
v 2.199157 0.862817 -1.336326
v 2.110504 0.815710 -1.297786
v 2.110113 0.815710 -1.297940
v 2.110271 0.815710 -1.297777
v 2.074123 0.815710 -1.380908
v 2.074278 0.815710 -1.381299
v 2.074112 0.815710 -1.381135
v 2.162765 0.815710 -1.419676
v 2.163156 0.815710 -1.419521
v 2.162998 0.815710 -1.419685
v 2.199146 0.815710 -1.336553
v 2.198992 0.815710 -1.336163
v 2.199157 0.815710 -1.336326
v 2.074112 0.862817 -1.381135
v 2.162765 0.862690 -1.419676
v 2.157564 0.862690 -1.417420
v 2.194426 0.862690 -1.347438
v 2.105393 0.862690 -1.308825
v 2.168064 0.862690 -1.408207
v 2.079035 0.862690 -1.369585
v 2.074278 0.862690 -1.381299
v 2.162998 0.862690 -1.419685
v 2.163156 0.862690 -1.419521
v 2.198992 0.862690 -1.336163
v 2.199157 0.862690 -1.336326
v 2.199146 0.862690 -1.336553
v 2.110271 0.862690 -1.297777
v 2.110504 0.862690 -1.297786
v 2.074123 0.862690 -1.380908
v 2.074112 0.862690 -1.381135
v 2.110113 0.862690 -1.297940
v 2.079934 0.862690 -1.383752
v 2.076853 0.913960 -1.377005
v 2.077242 0.917474 -1.376116
v 2.074833 0.862817 -1.381540
v 2.074849 0.864120 -1.381617
v 2.075143 0.890356 -1.380949
v 2.074874 0.877764 -1.381567
v 2.074965 0.884040 -1.381349
v 2.086540 0.920869 -1.365139
v 2.075413 0.896223 -1.380318
v 2.074836 0.867309 -1.381655
v 2.075755 0.901394 -1.379540
v 2.076110 0.906009 -1.378723
v 2.076477 0.910169 -1.377875
v 2.077634 0.920806 -1.375218
v 2.074836 0.872022 -1.381655
v 2.084133 0.921176 -1.365325
v 2.083010 0.921412 -1.365814
v 2.082001 0.921702 -1.366540
v 2.081146 0.922027 -1.367494
v 2.080488 0.922379 -1.368649
v 2.077985 0.923710 -1.374408
v 2.085321 0.920993 -1.365100
v 2.078162 0.923957 -1.374000
v 2.074833 0.815710 -1.381540
v 2.074833 0.862690 -1.381540
v 2.166464 0.920867 -1.399788
v 2.165438 0.923957 -1.411852
v 2.164132 0.913960 -1.414860
v 2.164521 0.917474 -1.413971
v 2.161933 0.862817 -1.419315
v 2.162129 0.864120 -1.419472
v 2.162417 0.890356 -1.418804
v 2.162151 0.877764 -1.419424
v 2.162245 0.884040 -1.419204
v 2.162693 0.896223 -1.418173
v 2.162113 0.867309 -1.419507
v 2.163032 0.901394 -1.417391
v 2.163386 0.906009 -1.416575
v 2.163756 0.910169 -1.415730
v 2.164910 0.920806 -1.413070
v 2.162113 0.872022 -1.419507
v 2.167833 0.921176 -1.401625
v 2.168191 0.921412 -1.402756
v 2.168307 0.921702 -1.403974
v 2.168168 0.922027 -1.405237
v 2.167766 0.922379 -1.406503
v 2.165261 0.923710 -1.412259
v 2.167253 0.920993 -1.400629
v 2.161933 0.815710 -1.419315
v 2.161933 0.862690 -1.419315
v 2.053482 0.846206 -1.361677
v 2.074584 0.862817 -1.379845
v 2.053586 0.847479 -1.366497
v 2.054370 0.848490 -1.368704
v 2.055606 0.849697 -1.370663
v 2.057265 0.851064 -1.372291
v 2.059314 0.852556 -1.373501
v 2.053289 0.846712 -1.364129
v 2.074584 0.815710 -1.379845
v 2.074584 0.862690 -1.379845
v 2.174150 0.877474 -1.330866
v 2.176357 0.876534 -1.329893
v 2.178698 0.875403 -1.329439
v 2.181078 0.874125 -1.329534
v 2.183421 0.872735 -1.330222
v 2.198851 0.815710 -1.337234
v 2.198851 0.862690 -1.337234
v 2.141858 0.878659 -1.400142
v 2.141931 0.877474 -1.405143
v 2.142725 0.876534 -1.407428
v 2.143983 0.875403 -1.409461
v 2.145679 0.874125 -1.411140
v 2.147780 0.872735 -1.412386
v 2.141639 0.878191 -1.402687
v 2.163433 0.862817 -1.418883
v 2.163433 0.815710 -1.418883
v 2.163433 0.862690 -1.418883
v 2.114072 0.815710 -1.299333
v 2.114072 0.862817 -1.299333
v 2.114072 0.862690 -1.299333
v 2.193237 0.815710 -1.333667
v 2.193237 0.862817 -1.333667
v 2.193237 0.862690 -1.333667
v 2.083650 0.846712 -1.294126
v 2.085582 0.847479 -1.292736
v 2.087724 0.848490 -1.291809
v 2.089999 0.849697 -1.291378
v 2.092319 0.851064 -1.291481
v 2.094604 0.852556 -1.292157
v 2.081987 0.846206 -1.295930
v 2.109657 0.862817 -1.298993
v 2.109657 0.815710 -1.298993
v 2.109657 0.862690 -1.298993
v 2.110380 0.815710 -1.297953
v 2.109960 0.815710 -1.298933
v 2.105713 0.815710 -1.308868
v 2.079654 0.815710 -1.369805
v 2.075219 0.815710 -1.380178
v 2.074799 0.815710 -1.381159
v 2.074756 0.815710 -1.381383
v 2.113982 0.815710 -1.299510
v 2.113612 0.815710 -1.300424
v 2.109527 0.815710 -1.310516
v 2.084646 0.815710 -1.371955
v 2.080377 0.815710 -1.382498
v 2.080011 0.815710 -1.383401
v 2.079941 0.815710 -1.383619
v 2.193175 0.815710 -1.333856
v 2.192821 0.815710 -1.334687
v 2.188530 0.815710 -1.344779
v 2.162589 0.815710 -1.405761
v 2.158103 0.815710 -1.416309
v 2.157758 0.815710 -1.417120
v 2.157654 0.815710 -1.417323
v 2.198954 0.815710 -1.336367
v 2.198620 0.815710 -1.337119
v 2.194138 0.815710 -1.347218
v 2.167243 0.815710 -1.407798
v 2.162555 0.815710 -1.418359
v 2.162235 0.815710 -1.419079
v 2.162100 0.815710 -1.419264
v 2.074278 0.816121 -1.381299
v 2.163156 0.816121 -1.419521
v 2.198992 0.816121 -1.336163
v 2.110113 0.816121 -1.297940
v 2.162765 0.816121 -1.419676
v 2.157564 0.816121 -1.417420
v 2.194426 0.816121 -1.347438
v 2.105393 0.816121 -1.308825
v 2.168064 0.816121 -1.408207
v 2.079035 0.816121 -1.369585
v 2.162998 0.816121 -1.419685
v 2.199157 0.816121 -1.336326
v 2.199146 0.816121 -1.336553
v 2.110271 0.816121 -1.297777
v 2.110504 0.816121 -1.297786
v 2.074123 0.816121 -1.380908
v 2.074112 0.816121 -1.381135
v 2.079934 0.816121 -1.383752
v 2.074833 0.816121 -1.381540
v 2.161933 0.816121 -1.419315
v 2.074584 0.816121 -1.379845
v 2.198851 0.816121 -1.337234
v 2.163433 0.816121 -1.418883
v 2.114072 0.816121 -1.299333
v 2.193237 0.816121 -1.333667
v 2.109657 0.816121 -1.298993
v 2.073945 0.862697 -1.380834
v 2.109938 0.862697 -1.297860
v 2.078858 0.862697 -1.369508
v 2.105216 0.862697 -1.308748
v 2.074406 0.862697 -1.379771
v 2.109481 0.862697 -1.298913
v 2.162938 0.862955 -1.419431
v 2.198931 0.862956 -1.336455
v 2.194209 0.862956 -1.347344
v 2.167847 0.862955 -1.408113
v 2.198636 0.862956 -1.337136
v 2.163215 0.862955 -1.418793
v 2.074279 0.862916 -1.381305
v 2.162784 0.862916 -1.419689
v 2.079932 0.862916 -1.383756
v 2.157560 0.862916 -1.417424
v 2.074834 0.862916 -1.381546
v 2.161948 0.862916 -1.419327
vn -0.3821 0.2742 -0.8825
vn -0.3804 0.2866 -0.8793
vn -0.3805 0.2866 -0.8792
vn -0.3842 0.2544 -0.8875
vn -0.3868 0.2296 -0.8931
vn -0.3842 0.2543 -0.8875
vn -0.3868 0.2297 -0.8931
vn -0.3889 0.2032 -0.8986
vn -0.3910 0.1758 -0.9034
vn -0.3935 0.1392 -0.9087
vn -0.3909 0.1758 -0.9035
vn -0.3958 0.0927 -0.9136
vn -0.3936 0.1392 -0.9087
vn -0.3968 0.0534 -0.9164
vn -0.3958 0.0927 -0.9137
vn -0.3975 0.0271 -0.9172
vn -0.3967 0.0534 -0.9164
vn -0.3974 0.0271 -0.9172
vn -0.3974 0.0083 -0.9176
vn -0.3973 -0.0062 -0.9177
vn -0.3973 0.0083 -0.9177
vn -0.3973 -0.0309 -0.9172
vn -0.3974 -0.0062 -0.9176
vn -0.3979 -0.0247 -0.9171
vn -0.3974 -0.0494 -0.9163
vn -0.3975 -0.0495 -0.9163
vn -0.3091 0.6288 -0.7135
vn -0.3090 0.6288 -0.7135
vn 0.1019 0.9665 0.2355
vn 0.1027 0.9659 0.2378
vn 0.1016 0.9668 0.2346
vn 0.4876 -0.8471 -0.2113
vn 0.4810 -0.8524 -0.2049
vn 0.4870 -0.8477 -0.2103
vn 0.4894 -0.8459 -0.2122
vn 0.4881 -0.8468 -0.2117
vn -0.7271 -0.6258 -0.2824
vn -0.9738 -0.0000 0.2275
vn -0.9321 -0.0000 -0.3623
vn -0.3980 -0.0000 -0.9174
vn -0.3975 -0.0266 -0.9172
vn -0.3978 -0.0000 -0.9175
vn 0.9174 -0.0000 -0.3979
vn 0.7958 0.4976 -0.3452
vn -0.4168 -0.6683 -0.6162
vn -0.5600 -0.0000 -0.8285
vn 0.6181 -0.6691 -0.4128
vn 0.3725 -0.0000 -0.9280
vn 0.8318 -0.0000 -0.5551
vn 0.1025 0.9662 0.2367
vn 0.1031 0.9658 0.2380
vn 0.1033 0.9657 0.2384
vn 0.1032 0.9657 0.2381
vn 0.1026 0.9661 0.2367
vn 0.1026 0.9662 0.2366
vn 0.1031 0.9658 0.2378
vn 0.1031 0.9658 0.2379
vn 0.4900 -0.8454 -0.2125
vn 0.4902 -0.8453 -0.2124
vn 0.4892 -0.8460 -0.2121
vn 0.4896 -0.8457 -0.2124
vn 0.4893 -0.8459 -0.2123
vn 0.4867 -0.8477 -0.2111
vn 0.4838 -0.8496 -0.2099
vn 0.4869 -0.8475 -0.2112
vn 0.4870 -0.8475 -0.2112
vn 0.4572 0.8670 -0.1983
vn 0.4566 0.8674 -0.1979
vn 0.4573 0.8669 -0.1983
vn 0.4575 0.8668 -0.1984
vn 0.4570 0.8671 -0.1982
vn 0.4599 0.8653 -0.1994
vn 0.4634 0.8631 -0.2010
vn 0.4633 0.8631 -0.2010
vn -0.0481 0.9927 -0.1109
vn -0.0479 0.9927 -0.1106
vn 0.1030 0.9658 0.2380
vn -0.6181 -0.6690 0.4128
vn -0.3722 -0.0000 0.9281
vn -0.8314 -0.0000 0.5557
vn -0.9174 -0.0000 0.3979
vn -0.4459 -0.8739 0.1936
vn -0.9174 -0.0000 0.3980
vn 0.4898 -0.8455 -0.2125
vn 0.4902 -0.8453 -0.2126
vn 0.4901 -0.8454 -0.2126
vn 0.4892 -0.8460 -0.2122
vn 0.4893 -0.8459 -0.2122
vn 0.4895 -0.8458 -0.2123
vn 0.4895 -0.8457 -0.2124
vn 0.4868 -0.8476 -0.2112
vn 0.4838 -0.8496 -0.2098
vn 0.4838 -0.8497 -0.2098
vn 0.4568 0.8673 -0.1980
vn 0.4575 0.8668 -0.1985
vn 0.4568 0.8672 -0.1982
vn 0.4569 0.8672 -0.1982
vn 0.4599 0.8653 -0.1995
vn 0.4599 0.8652 -0.1995
vn 0.4563 0.8675 -0.1978
vn 0.9320 -0.0000 0.3625
vn 0.9098 0.3326 -0.2483
vn 0.4575 0.8670 -0.1977
vn 0.4577 0.8668 -0.1981
vn 0.4586 0.8662 -0.1983
vn 0.4901 -0.8454 -0.2124
vn 0.4903 -0.8455 -0.2117
vn 0.4911 -0.8447 -0.2128
vn 0.4901 -0.8454 -0.2125
vn -0.5598 -0.0000 -0.8286
vn 0.4581 0.8664 -0.1986
vn 0.4571 0.8671 -0.1982
vn 0.4586 0.8661 -0.1988
vn 0.4585 0.8662 -0.1986
vn 0.4574 0.8668 -0.1984
vn 0.4576 0.8667 -0.1985
vn 0.4568 0.8673 -0.1981
vn 0.9738 -0.0000 -0.2275
vn -0.3811 0.2867 -0.8790
vn -0.3824 0.2743 -0.8824
vn -0.3809 0.2867 -0.8790
vn -0.3847 0.2544 -0.8873
vn -0.3825 0.2744 -0.8823
vn -0.3870 0.2296 -0.8930
vn -0.3846 0.2544 -0.8874
vn -0.3895 0.2030 -0.8984
vn -0.3872 0.2296 -0.8930
vn -0.3916 0.1760 -0.9032
vn -0.3893 0.2030 -0.8984
vn -0.3940 0.1395 -0.9085
vn -0.3914 0.1759 -0.9032
vn -0.3960 0.0927 -0.9135
vn -0.3938 0.1394 -0.9086
vn -0.3973 0.0535 -0.9161
vn -0.3961 0.0927 -0.9135
vn -0.3977 0.0270 -0.9171
vn -0.3971 0.0534 -0.9162
vn -0.3978 0.0080 -0.9174
vn -0.3978 -0.0060 -0.9175
vn -0.3976 0.0082 -0.9175
vn -0.3976 -0.0319 -0.9170
vn -0.3976 -0.0061 -0.9175
vn -0.3972 -0.0524 -0.9163
vn -0.3979 -0.0234 -0.9171
vn -0.3974 -0.0471 -0.9164
vn -0.3093 0.6288 -0.7134
vn -0.3091 0.6289 -0.7134
vn 0.4552 0.8682 -0.1976
vn 0.1022 0.9662 0.2367
vn 0.1026 0.9661 0.2369
vn 0.1027 0.9660 0.2373
vn 0.1034 0.9656 0.2385
vn 0.1033 0.9656 0.2388
vn 0.1026 0.9662 0.2367
vn 0.1025 0.9661 0.2367
vn -0.0479 0.9927 -0.1105
vn -0.0480 0.9927 -0.1106
vn 0.1046 0.9646 0.2421
vn 0.1021 0.9664 0.2358
vn 0.1036 0.9652 0.2403
vn 0.1021 0.9665 0.2357
vn 0.1059 0.9639 0.2442
vn 0.1040 0.9653 0.2397
vn 0.1053 0.9646 0.2417
vn 0.1027 0.9661 0.2369
vn -0.3846 0.2543 -0.8874
vn -0.3823 0.2744 -0.8823
vn -0.3892 0.2030 -0.8985
vn -0.3870 0.2295 -0.8930
vn -0.3915 0.1760 -0.9032
vn -0.3937 0.1395 -0.9086
vn -0.3970 0.0535 -0.9163
vn -0.3976 0.0079 -0.9175
vn -0.3976 -0.0060 -0.9175
vn -0.3980 -0.0248 -0.9170
vn -0.3975 -0.0504 -0.9162
vn -0.3091 0.6290 -0.7133
vn -0.0479 0.9927 -0.1104
vn 0.4588 0.8660 -0.1989
vn 0.1056 0.9634 0.2464
vn 0.1042 0.9645 0.2426
vn 0.4897 -0.8456 -0.2123
vn 0.4920 -0.8441 -0.2131
vn 0.8317 -0.0000 -0.5552
vn 0.7958 0.4974 -0.3452
vn 0.9174 -0.0000 -0.3980
vn 0.4165 -0.6679 0.6167
vn 0.9320 -0.0000 0.3626
vn 0.5598 -0.0000 0.8286
vn 0.7269 -0.6257 0.2829
vn 0.9738 -0.0000 -0.2276
vn 0.4835 -0.8498 -0.2099
vn -0.2904 -0.6259 0.7238
vn 0.2221 -0.0000 0.9750
vn -0.4460 -0.8740 0.1932
vn -0.9175 -0.0000 0.3978
vn -0.8317 -0.0000 0.5553
vn -0.4461 -0.8739 0.1934
vn 0.5599 -0.0000 0.8285
vn 0.3980 -0.0000 0.9174
vn 0.3979 -0.0000 0.9174
vn 0.2902 -0.6257 -0.7241
vn -0.2224 -0.0000 -0.9750
vn -0.9320 -0.0000 -0.3624
vn -0.8487 -0.5098 0.1405
vn -0.9320 -0.0000 -0.3623
vn -0.3979 -0.0000 -0.9174
vn -0.5079 -0.0163 -0.8613
vn 0.3728 -0.0000 -0.9279
vn 0.8033 0.3324 -0.4942
vn -0.6823 -0.5104 0.5235
vn 0.5600 -0.0000 0.8285
vn 0.4634 0.8630 -0.2010
vn -0.3724 -0.0000 0.9281
vn 0.2224 -0.0000 0.9750
vn 0.3726 -0.0000 -0.9280
vn -0.2878 -0.0193 -0.9575
vn -0.3975 -0.0296 -0.9171
vn 0.1016 0.9666 0.2353
vn 0.1033 0.9656 0.2386
vn 0.1031 0.9657 0.2384
vn 0.1033 0.9653 0.2397
vn 0.1062 0.9607 0.2566
vn 0.1042 0.9649 0.2411
vn 0.1084 0.9628 0.2474
vn -0.3822 0.2745 -0.8823
vn -0.3891 0.2030 -0.8985
vn -0.3969 0.0535 -0.9163
vn -0.3977 0.0269 -0.9171
vn -0.3975 -0.0060 -0.9176
vn -0.3974 -0.0314 -0.9171
vn -0.3973 -0.0515 -0.9163
vn -0.0479 0.9927 -0.1103
vn -0.2223 -0.0000 -0.9750
vn 0.4836 -0.8498 -0.2096
vn 0.4894 -0.8458 -0.2122
vn 0.4905 -0.8451 -0.2128
vn 0.4898 -0.8456 -0.2124
vn 0.4956 -0.8419 -0.2135
vn 0.4635 0.8630 -0.2011
vn 0.7960 0.4973 -0.3452
vn 0.4575 0.8673 -0.1961
vn 0.4562 0.8677 -0.1977
vn 0.4573 0.8668 -0.1987
vn 0.4567 0.8673 -0.1982
vn 0.4578 0.8666 -0.1985
vn 0.4567 0.8673 -0.1980
vn 0.4601 0.8652 -0.1996
vn 0.7958 0.4975 -0.3453
vn 0.4634 0.8630 -0.2011
vn 0.4893 -0.8460 -0.2118
vn -0.4460 -0.8739 0.1934
vn -0.0000 -1.0000 -0.0001
vn 0.0001 -1.0000 0.0004
vn 0.1654 -0.6679 0.7256
vn 0.2814 -0.7072 0.6486
vn 0.2813 -0.7068 0.6490
vn -0.0000 -1.0000 -0.0000
vn -0.6487 -0.7071 0.2813
vn 0.7237 -0.6690 -0.1693
vn -0.0000 -1.0000 0.0001
vn -0.6487 -0.7071 0.2814
vn 0.6487 -0.7071 -0.2813
vn 0.0001 -1.0000 -0.0000
vn -0.6486 -0.7071 0.2814
vn 0.6486 -0.7071 -0.2815
vn -0.7237 -0.6690 0.1691
vn 0.0001 -1.0000 -0.0001
vn -0.0000 -1.0000 -0.0002
vn 0.6487 -0.7071 -0.2815
vn 0.0002 -1.0000 -0.0000
vn 0.0001 -1.0000 0.0002
vn -0.0000 -1.0000 0.0004
vn -0.2814 -0.7077 -0.6481
vn -0.2813 -0.7074 -0.6484
vn -0.2814 -0.7072 -0.6487
vn -0.2813 -0.7072 -0.6486
vn -0.1656 -0.6679 -0.7256
vn -0.3973 -0.0312 -0.9172
vn -0.3973 -0.0298 -0.9172
vn 0.4866 -0.8478 -0.2111
vt 0.514580 -0.120034
vt 0.535353 -0.123677
vt 0.535354 -0.120021
vt 0.492704 -0.120054
vt 0.514580 -0.123691
vt 0.469165 -0.123706
vt 0.492704 -0.123711
vt 0.469166 -0.120049
vt 0.443397 -0.123702
vt 0.414893 -0.120049
vt 0.443398 -0.120046
vt 0.383032 -0.120071
vt 0.414892 -0.123704
vt 0.347050 -0.123707
vt 0.383032 -0.123728
vt 0.308479 -0.120079
vt 0.347050 -0.120052
vt 0.270267 -0.123716
vt 0.308479 -0.123735
vt 0.270267 -0.120060
vt 0.235378 -0.123711
vt 0.206787 -0.120055
vt 0.235379 -0.120056
vt 0.187460 -0.120075
vt 0.206787 -0.123711
vt 0.179593 -0.120354
vt 0.180190 -0.124017
vt 0.180190 -0.120333
vt 0.553476 -0.123678
vt 0.553477 -0.120022
vt 0.485996 0.482665
vt 0.481689 0.485690
vt 0.485994 0.479003
vt 1.018755 -0.080627
vt 1.024164 -0.068140
vt 1.024343 -0.066512
vt 1.010324 -0.093084
vt 1.018757 -0.083765
vt 0.553479 1.018721
vt 0.554803 1.021226
vt 0.553479 1.021226
vt 0.178824 -0.086468
vt 0.179596 0.429159
vt 0.178826 0.429159
vt 0.839764 0.945128
vt 0.840537 1.012906
vt 0.839764 1.012906
vt -0.106203 -0.124034
vt -0.103661 -0.125356
vt -0.103709 -0.124034
vt 0.553479 0.466324
vt 0.555984 0.465027
vt 0.555984 0.466324
vt 0.491632 0.477967
vt 0.491630 0.473405
vt 0.498385 0.474408
vt 0.498384 0.469163
vt 0.506037 0.472163
vt 0.506036 0.466483
vt 0.514364 0.471377
vt 0.514363 0.465542
vt 0.999267 -0.103459
vt 1.010325 -0.097557
vt 0.986017 -0.111383
vt 0.999267 -0.109045
vt 0.971005 -0.116438
vt 0.986017 -0.117817
vt 0.954638 -0.118198
vt 0.971005 -0.123414
vt 0.841896 0.420582
vt 0.954679 0.352406
vt 0.954686 0.422123
vt 0.991527 0.947258
vt 1.002010 0.938520
vt 0.991527 0.950782
vt 0.978928 0.956514
vt 0.978928 0.960574
vt 0.964696 0.963026
vt 0.964696 0.967426
vt 0.949178 0.966334
vt 0.949178 0.970855
vt 0.842054 0.979757
vt 0.842054 0.975345
vt 0.553477 1.048475
vt 0.551162 1.052307
vt 0.551159 1.048668
vt 0.514365 1.052125
vt 0.514363 1.048485
vt 1.104937 1.018721
vt 1.106203 1.021226
vt 1.104937 1.021226
vt 1.032768 1.305006
vt 0.629885 1.305779
vt 0.629885 1.305006
vt 1.010344 0.352403
vt 1.018752 0.384341
vt 1.010344 0.396859
vt 0.999261 -0.051283
vt 0.999285 0.352403
vt 0.986017 -0.051280
vt 0.986043 0.352404
vt 0.971003 -0.051276
vt 0.971028 0.352405
vt 0.954648 -0.051263
vt 0.841869 -0.051180
vt 0.841895 0.352412
vt 0.991538 0.500255
vt 1.002004 0.893364
vt 0.991520 0.894395
vt 0.978931 0.895609
vt 0.978955 0.501491
vt 0.964712 0.502887
vt 0.964693 0.897007
vt 0.949175 0.898514
vt 0.949194 0.504404
vt 1.002010 0.935698
vt 0.839764 1.018721
vt 0.840537 1.017424
vt 0.840537 1.018721
vt 1.015244 0.907480
vt 1.010004 0.892582
vt 1.016879 0.891921
vt 1.018758 0.352402
vt 1.026013 -0.051305
vt 1.026013 0.352402
vt 0.999284 0.407300
vt 0.986045 0.415254
vt 0.971029 0.420331
vt 0.178824 -0.124041
vt 0.178824 -0.120354
vt 1.010011 0.498446
vt 1.002023 0.499229
vt 1.015196 0.479904
vt 1.009997 0.466008
vt 1.002022 0.454081
vt 0.991537 0.444514
vt 0.978958 0.437634
vt 0.964713 0.433885
vt 0.949195 0.433579
vt 0.839764 1.017424
vt 0.535355 0.428959
vt 0.514582 -0.086429
vt 0.535356 -0.086427
vt 0.492705 0.428956
vt 0.514581 0.428957
vt 0.469168 -0.086443
vt 0.492706 -0.086448
vt 0.443399 0.428954
vt 0.469166 0.428955
vt 0.414894 0.428953
vt 0.443400 -0.086452
vt 0.383033 0.428952
vt 0.414895 -0.086454
vt 0.347051 -0.086462
vt 0.383034 -0.086466
vt 0.308480 0.428951
vt 0.347049 0.428951
vt 0.270268 -0.086459
vt 0.308481 -0.086473
vt 0.235380 0.428952
vt 0.270266 0.428952
vt 0.206788 0.428953
vt 0.235381 -0.086462
vt 0.187461 0.428954
vt 0.206789 -0.086461
vt 0.180192 0.429144
vt 0.179593 -0.086468
vt 0.180190 -0.086468
vt 0.553478 0.428960
vt 0.553479 -0.086428
vt 1.010034 0.924267
vt 0.486009 1.036112
vt 0.491619 1.014928
vt 0.491645 1.041197
vt 0.498361 1.014964
vt 0.498378 1.045092
vt 0.506020 1.015001
vt 0.506043 1.047579
vt 0.514343 1.015031
vt 0.553479 0.501961
vt 0.551135 1.015225
vt 0.551162 0.502155
vt 0.514372 0.501998
vt 0.481725 1.030025
vt 0.485982 1.014908
vt 0.481689 1.014879
vt 0.486008 0.501884
vt 0.478803 0.494690
vt 0.481709 0.501866
vt 0.478009 0.501850
vt 0.491644 0.501905
vt 0.498392 0.501934
vt 0.506047 0.501965
vt 0.535356 0.459677
vt 0.492705 0.459669
vt 0.514581 0.459686
vt 0.443400 0.459655
vt 0.469167 0.459673
vt 0.414895 0.459653
vt 0.383033 0.459654
vt 0.347050 0.459642
vt 0.308481 0.459648
vt 0.235381 0.459646
vt 0.270267 0.459656
vt 0.206789 0.459647
vt 0.179596 0.458174
vt 0.180193 0.458286
vt 0.553479 0.459676
vt 0.553469 0.471383
vt 0.551152 0.471575
vt 1.016879 0.497769
vt 0.478887 1.023134
vt 0.477990 1.014859
vt 1.010320 -0.051300
vt 1.024278 0.370167
vt 0.839764 0.466324
vt 0.840537 0.470562
vt 0.839764 0.470562
vt 0.840537 0.463704
vt 0.838032 0.465027
vt 0.838032 0.463704
vt 0.553479 1.018721
vt 0.555984 1.017424
vt 0.555984 1.018721
vt 0.841871 -0.123497
vt 0.841871 -0.116504
vt 0.840537 -0.125363
vt 0.838032 -0.124041
vt 0.838032 -0.125363
vt 0.561852 1.305779
vt 0.561852 1.305006
vt 1.104937 1.305006
vt 1.097958 1.305779
vt 1.097958 1.305006
vt 0.554252 0.463704
vt 0.553479 0.425483
vt 0.554252 0.425483
vt -0.106152 0.465034
vt -0.103706 0.463711
vt -0.103658 0.465034
vt 0.178826 0.458174
vt 0.553479 1.305006
vt 0.554803 1.305779
vt 0.553479 1.305779
vt -0.103709 -0.086461
vt -0.103707 0.429166
vt 0.555984 0.945128
vt 0.555984 1.012906
vt 0.179641 -0.125364
vt 0.179593 -0.124041
vt 0.840537 0.465027
vt 0.840537 0.466324
vt 1.106203 1.305779
vt 1.104937 1.305779
vt 1.032768 1.021226
vt 0.629884 1.021226
vt 0.555984 0.541479
vt -0.103709 -0.120347
vt 0.555984 0.470562
vt 0.553479 0.465027
vt 0.553479 0.463704
vt 0.842071 0.445872
vt 0.842070 0.515123
vt 0.554252 -0.125364
vt 0.553479 -0.124041
vt 0.553479 -0.125364
vt 0.561852 1.021226
vt 1.097958 1.021226
vt 0.838032 0.425483
vt 0.178874 0.465027
vt 0.179596 0.463704
vt 0.179644 0.465027
vt -0.103706 0.458182
vt 0.187462 -0.086469
vt 0.553453 1.015032
vt 0.486012 1.038419
vt 0.491648 1.044056
vt 0.498380 1.048370
vt 0.506045 1.051124
vt 0.481729 1.031673
vt 0.478985 1.024034
vt 0.481692 0.488280
vt 0.478954 0.493326
vt 0.535356 0.465531
vt 0.492706 0.465522
vt 0.514582 0.465542
vt 0.443400 0.465506
vt 0.469167 0.465527
vt 0.414895 0.465504
vt 0.347050 0.465491
vt 0.383034 0.465505
vt 0.308481 0.465497
vt 0.235381 0.465496
vt 0.270267 0.465507
vt 0.206789 0.465497
vt 0.187461 0.459651
vt 0.180193 0.463840
vt 0.553479 0.465530
vt 0.553467 0.465556
vt 0.551150 0.465748
vt 0.178826 0.463704
vt 0.841896 0.427645
vt 0.954687 0.429347
vt 1.018751 0.387650
vt 1.010344 0.401465
vt 0.999284 0.412988
vt 0.986045 0.421767
vt 0.971030 0.427370
vt 1.024098 0.372009
vt 0.554803 1.305006
vt 0.842051 0.909158
vt 0.839764 0.541479
vt 0.840537 0.945128
vt 1.015135 0.908517
vt 1.010032 0.922287
vt 1.015095 0.478837
vt 1.009996 0.464070
vt 1.002022 0.451383
vt 0.991537 0.441183
vt 0.978958 0.433818
vt 0.964713 0.429762
vt 0.949195 0.429347
vt 0.840537 0.541479
vt 0.842071 0.441734
vt 0.554252 -0.100345
vt 0.554252 -0.124041
vt 0.838032 -0.100345
vt 0.553479 -0.100345
vt 1.018740 -0.051312
vt 1.032768 1.305779
vt 0.447284 1.032335
vt 0.448004 1.033327
vt 0.446708 1.033795
vt 0.447311 1.009353
vt 0.448518 1.032056
vt 0.448518 0.504009
vt 0.448518 1.009286
vt 0.447311 0.503906
vt 0.448518 0.467282
vt 0.447284 0.467007
vt 0.448004 0.466011
vt 0.440783 1.032304
vt 0.439716 1.033795
vt 0.441307 1.009215
vt 0.442269 0.467050
vt 0.441802 0.503871
vt 0.446708 0.465543
vt 0.374944 1.031973
vt 0.374412 1.033794
vt 0.374981 1.007648
vt 0.374944 0.467598
vt 0.374981 0.503410
vt 0.442190 0.465543
vt -0.028907 1.029988
vt -0.029179 1.033825
vt -0.028827 0.998160
vt -0.028838 0.500681
vt -0.028942 0.470934
vt 0.374412 0.465542
vt -0.097331 1.033828
vt -0.097653 1.029645
vt -0.098118 0.996526
vt -0.098683 0.500204
vt -0.099349 0.471511
vt -0.029238 0.465573
vt -0.104393 1.033828
vt -0.104155 1.029615
vt -0.104053 0.996390
vt -0.104053 0.500170
vt -0.104155 0.471553
vt -0.100155 0.465576
vt -0.105690 1.033360
vt -0.105516 1.029323
vt -0.105442 0.996262
vt -0.105516 0.471849
vt -0.105442 0.500256
vt -0.105690 0.466044
vt -0.106203 1.032089
vt -0.106203 1.028546
vt -0.106203 0.995985
vt -0.106203 0.472629
vt -0.106203 0.500510
vt -0.106203 0.467315
vt 0.178872 -0.125364
vt 0.839764 0.465027
vt 1.106203 1.305006
vt 0.554252 0.465027
vt -0.106203 -0.086461
vt -0.106201 0.429166
vt 0.553479 0.945128
vt 0.553479 1.012906
vt 1.032768 1.018721
vt 0.629884 1.018721
vt -0.106203 -0.120347
vt 0.553479 0.470562
vt 0.561852 1.018721
vt 1.097958 1.018721
vt 0.840537 0.425483
vt -0.106200 0.458182
vt -0.106200 0.463711
vt 0.554803 1.018721
vt 0.553479 1.017424
vt 0.553479 0.541479
vt 0.840537 -0.100345
vt 0.840537 -0.124041
vt 0.840564 0.420563
vt 0.840537 -0.051179
vt 0.840562 0.352412
vt 0.840539 -0.123475
vt 0.840539 -0.116484
vt 0.840564 0.427625
vt 0.840540 0.979883
vt 0.840540 0.975473
vt 0.840557 0.446046
vt 0.840556 0.515274
vt 0.840537 0.909309
vt 0.840557 0.441909
vt 0.187460 -0.123732
vt 0.187462 0.465501
vt -0.106155 -0.125356
vt 0.553479 0.465027
vt 0.954637 -0.125364
vt 0.553479 1.052114
vt 1.106203 1.018721
vt 0.840537 0.465027
vt -0.104393 0.465576
s 1
f 203/1/1 4/2/2 215/3/3
f 202/4/4 6/5/1 203/1/1
f 202/4/4 10/6/5 8/7/6
f 214/8/7 12/9/8 10/6/5
f 212/10/9 12/9/8 213/11/8
f 210/12/10 14/13/11 212/10/9
f 210/12/10 18/14/12 16/15/13
f 208/16/14 18/14/12 206/17/15
f 208/16/14 22/18/16 20/19/17
f 207/20/18 24/21/19 22/18/16
f 211/22/20 24/21/19 216/23/21
f 205/24/22 26/25/23 211/22/20
f 204/26/24 361/27/25 365/28/26
f 215/3/3 81/29/27 222/30/28
f 243/31/29 41/32/30 42/33/31
f 285/34/32 55/35/33 291/36/34
f 286/37/35 54/38/36 285/34/32
f 176/39/37 338/40/38 339/41/39
f 201/42/40 139/43/41 185/44/42
f 186/45/43 160/46/44 268/47/43
f 175/48/45 339/49/39 323/50/46
f 178/51/47 333/52/48 324/53/49
f 244/54/50 42/33/31 43/55/51
f 245/56/52 43/55/51 44/57/53
f 246/58/54 44/57/53 45/59/55
f 247/60/56 45/59/55 46/61/57
f 287/62/58 53/63/59 286/37/35
f 288/64/60 52/65/61 287/62/58
f 289/66/62 51/67/60 288/64/60
f 290/68/63 50/69/62 289/66/62
f 353/70/64 107/71/65 258/72/66
f 263/73/67 68/74/68 67/75/69
f 264/76/70 67/75/69 66/77/70
f 265/78/71 66/77/70 65/79/71
f 266/80/72 65/79/71 64/81/72
f 266/80/72 356/82/73 359/83/74
f 222/84/28 80/85/75 224/86/76
f 224/86/76 31/87/51 221/88/77
f 172/89/78 336/90/79 326/91/80
f 187/92/81 113/93/82 189/94/83
f 103/95/84 259/96/85 254/97/58
f 89/98/58 103/95/84 104/99/86
f 90/100/87 104/99/86 105/101/88
f 91/102/89 105/101/88 106/103/90
f 92/104/91 106/103/90 107/71/65
f 352/105/92 107/71/65 351/106/93
f 109/107/69 93/108/94 94/109/69
f 109/107/69 95/110/95 110/111/95
f 111/112/96 95/110/95 96/113/97
f 111/112/96 97/114/98 112/115/99
f 94/109/69 262/116/100 263/73/67
f 194/117/101 163/118/102 170/119/101
f 162/120/103 87/121/104 2/122/105
f 101/123/106 1/124/107 56/125/108
f 104/99/86 254/97/58 255/126/109
f 105/101/88 255/126/109 256/127/62
f 106/103/90 256/127/62 257/128/61
f 107/71/65 257/128/61 258/72/66
f 190/129/110 204/26/24 226/130/42
f 102/131/111 93/108/94 108/132/112
f 269/133/113 102/131/111 275/134/114
f 270/135/69 109/107/69 271/136/115
f 271/136/115 110/111/95 272/137/116
f 272/137/116 111/112/96 273/138/117
f 273/138/117 112/115/99 274/139/98
f 268/47/43 163/118/102 195/140/118
f 150/141/119 115/142/120 127/143/121
f 137/144/122 115/142/120 138/145/123
f 137/144/122 125/146/124 114/147/125
f 147/148/126 125/146/124 148/149/127
f 146/150/128 124/151/129 147/148/126
f 144/152/130 123/153/131 146/150/128
f 144/152/130 118/154/132 121/155/133
f 143/156/134 118/154/132 141/157/135
f 143/156/134 119/158/136 120/159/137
f 151/160/138 119/158/136 142/161/136
f 145/162/139 128/163/140 151/160/138
f 140/164/141 122/165/142 145/162/139
f 364/166/143 116/167/144 363/168/145
f 157/169/146 127/143/121 134/170/147
f 262/116/100 69/171/148 68/74/68
f 275/134/114 108/132/112 270/135/69
f 217/172/149 130/173/150 218/174/151
f 218/174/151 131/175/152 219/176/153
f 219/176/153 132/177/154 220/178/155
f 220/178/155 133/179/57 221/88/77
f 157/180/146 135/181/156 136/182/157
f 136/182/157 133/179/57 156/183/56
f 223/184/158 129/185/159 217/172/149
f 126/186/160 152/187/161 129/185/159
f 227/188/162 149/189/163 39/190/164
f 130/173/150 152/187/161 153/191/165
f 130/173/150 154/192/152 131/175/152
f 131/175/152 155/193/54 132/177/154
f 133/179/57 155/193/54 156/183/56
f 241/194/121 138/145/123 150/141/119
f 229/195/166 138/145/123 230/196/167
f 229/195/166 148/149/127 137/144/122
f 239/197/168 148/149/127 240/198/169
f 238/199/170 147/148/126 239/197/168
f 236/200/171 146/150/128 238/199/170
f 233/201/135 144/152/130 236/200/171
f 233/201/135 143/156/134 141/157/135
f 235/202/172 142/161/136 143/156/134
f 242/203/173 142/161/136 234/204/136
f 237/205/174 151/160/138 242/203/173
f 237/205/174 140/164/141 145/162/139
f 231/206/175 364/166/143 366/207/176
f 241/194/121 157/169/146 248/208/177
f 248/209/177 136/182/157 228/210/178
f 228/210/178 156/183/56 247/60/56
f 71/211/179 87/121/104 102/131/111
f 209/212/180 126/186/160 223/184/158
f 38/213/181 149/189/163 126/186/160
f 88/214/182 101/123/106 103/95/84
f 101/123/106 252/215/183 259/96/85
f 192/216/184 276/217/185 278/218/186
f 181/219/187 334/220/188 325/221/189
f 182/222/190 335/223/191 334/224/188
f 350/225/192 290/68/63 354/226/93
f 173/227/193 337/228/194 336/229/79
f 189/94/83 253/230/195 261/231/196
f 200/232/197 292/233/198 294/234/196
f 193/235/199 283/236/200 284/237/201
f 179/238/202 327/239/203 333/240/48
f 185/44/42 231/206/175 251/241/40
f 199/242/204 48/243/205 183/244/206
f 340/245/207 185/44/42 328/246/42
f 329/247/43 268/47/43 344/248/43
f 190/129/110 183/249/206 30/250/208
f 192/216/184 167/251/209 161/252/210
f 200/232/197 166/253/79 158/254/211
f 330/255/81 189/94/83 332/256/83
f 331/257/186 186/45/43 329/247/43
f 323/50/46 226/130/42 341/258/40
f 324/53/49 278/218/186 345/259/186
f 193/235/199 170/260/101 168/261/212
f 360/262/213 112/115/99 358/263/74
f 196/264/214 165/265/215 166/266/79
f 332/256/83 261/231/196 343/267/81
f 348/268/81 200/232/197 294/234/196
f 325/221/189 284/237/201 347/269/201
f 191/270/216 29/271/217 167/272/209
f 328/246/42 251/241/40 342/273/207
f 115/142/120 215/3/3 127/143/121
f 114/147/125 203/1/1 115/142/120
f 114/147/125 214/8/7 202/4/4
f 124/151/129 214/8/7 125/146/124
f 123/153/131 213/11/8 124/151/129
f 121/155/133 212/10/9 123/153/131
f 121/155/133 206/17/15 210/12/10
f 120/159/137 206/17/15 118/154/132
f 120/159/137 207/20/18 208/16/14
f 128/163/140 207/20/18 119/158/136
f 122/165/142 216/23/21 128/163/140
f 117/274/218 211/22/20 122/165/142
f 116/167/144 365/28/26 363/168/145
f 127/143/121 222/30/28 134/170/147
f 134/275/147 224/86/76 135/181/156
f 135/181/156 221/88/77 133/179/57
f 226/130/42 116/167/144 201/42/40
f 35/276/219 218/174/151 34/277/220
f 34/277/220 219/176/153 33/278/221
f 33/278/221 220/178/155 32/279/154
f 32/279/154 221/88/77 31/87/51
f 36/280/222 217/172/149 35/276/219
f 37/281/223 223/184/158 36/280/222
f 341/258/40 201/42/40 340/245/207
f 152/187/161 249/282/224 243/31/29
f 153/191/165 243/31/29 244/54/50
f 154/192/152 244/54/50 245/56/52
f 155/193/54 245/56/52 246/58/54
f 156/183/56 246/58/54 247/60/56
f 40/283/225 249/282/224 227/188/162
f 3/284/121 230/196/167 241/194/121
f 7/285/166 230/196/167 5/286/226
f 7/285/166 240/198/169 229/195/166
f 11/287/227 240/198/169 9/288/124
f 13/289/128 239/197/168 11/287/227
f 13/289/128 236/200/171 238/199/170
f 17/290/135 236/200/171 15/291/171
f 17/290/135 235/202/172 233/201/135
f 19/292/228 234/204/136 235/202/172
f 23/293/173 234/204/136 21/294/229
f 25/295/230 242/203/173 23/293/173
f 25/295/230 232/296/231 237/205/174
f 29/271/217 366/207/176 362/297/232
f 3/284/121 248/208/177 78/298/177
f 78/299/177 228/210/178 79/300/233
f 79/300/233 247/60/56 46/61/57
f 251/241/40 29/271/217 184/301/234
f 342/273/207 184/301/234 327/239/203
f 349/302/235 258/72/66 47/303/65
f 254/97/58 58/304/236 59/305/237
f 255/126/109 59/305/237 60/306/238
f 256/127/62 60/306/238 61/307/87
f 257/128/61 61/307/87 62/308/238
f 258/72/66 62/308/238 47/303/65
f 259/96/85 57/309/239 58/304/236
f 261/231/196 48/243/205 198/310/38
f 343/267/81 198/310/38 338/40/38
f 112/115/99 357/311/240 358/263/74
f 188/312/186 84/313/241 186/45/43
f 95/110/95 263/73/67 264/76/70
f 96/113/97 264/76/70 265/78/71
f 97/114/98 265/78/71 266/80/72
f 97/114/98 359/83/74 357/311/240
f 70/314/242 169/315/243 162/120/103
f 93/108/94 169/315/243 262/116/100
f 344/248/43 195/140/118 335/223/191
f 72/316/244 275/134/114 73/317/114
f 74/318/245 271/136/115 75/319/246
f 75/319/246 272/137/116 76/320/115
f 76/320/115 273/138/117 77/321/247
f 77/321/247 274/139/98 63/322/248
f 73/317/114 270/135/69 74/318/245
f 278/218/186 99/323/249 188/312/186
f 345/259/186 188/312/186 331/257/186
f 355/324/250 274/139/98 360/262/213
f 281/325/201 165/265/215 197/326/215
f 346/327/201 197/326/215 337/228/194
f 284/237/201 280/328/201 281/325/201
f 347/269/201 281/325/201 346/327/201
f 86/329/251 291/36/34 1/124/107
f 88/214/182 285/34/32 86/329/251
f 89/98/58 286/37/35 88/214/182
f 90/100/87 287/62/58 89/98/58
f 91/102/89 288/64/60 90/100/87
f 92/104/91 289/66/62 91/102/89
f 354/226/93 92/104/91 352/105/92
f 294/234/196 85/330/252 187/92/81
f 348/268/81 187/92/81 330/255/81
f 295/331/253 173/332/193 172/333/78
f 302/334/254 171/335/255 295/331/253
f 302/334/254 282/336/256 279/337/257
f 309/338/253 181/339/187 282/336/256
f 316/340/258 182/341/190 181/339/187
f 296/342/258 172/333/78 293/343/259
f 296/342/258 302/334/254 295/331/253
f 303/344/258 309/338/253 302/334/254
f 317/345/258 309/338/253 310/346/258
f 317/345/258 180/347/260 316/340/258
f 297/348/261 293/343/259 83/349/262
f 297/348/261 303/344/258 296/342/258
f 304/350/258 310/346/258 303/344/258
f 318/351/258 310/346/258 311/352/258
f 318/351/258 267/353/263 317/345/258
f 298/354/264 83/349/262 98/355/265
f 298/354/264 304/350/258 297/348/261
f 305/356/258 311/352/258 304/350/258
f 312/357/258 318/351/258 311/352/258
f 319/358/258 82/359/263 318/351/258
f 260/360/259 298/354/264 98/355/265
f 299/361/258 305/356/258 298/354/264
f 306/362/253 312/357/258 305/356/258
f 313/363/258 319/358/258 312/357/258
f 320/364/258 100/365/266 319/358/258
f 174/366/267 299/361/258 260/360/259
f 300/367/268 306/362/253 299/361/258
f 307/368/253 313/363/258 306/362/253
f 314/369/269 320/364/258 313/363/258
f 321/370/261 277/371/270 320/364/258
f 176/372/37 300/367/268 174/366/267
f 301/373/271 307/368/253 300/367/268
f 308/374/272 314/369/269 307/368/253
f 322/375/273 314/369/269 315/376/253
f 179/377/202 321/370/261 322/375/273
f 175/378/45 301/373/271 176/372/37
f 225/379/274 308/374/272 301/373/271
f 159/380/275 315/376/253 308/374/272
f 250/381/276 315/376/253 164/382/277
f 177/383/278 322/375/273 250/381/276
f 339/41/39 198/310/38 199/242/204
f 323/50/46 199/384/204 190/129/110
f 324/53/49 191/385/216 192/216/184
f 326/91/80 196/386/214 200/232/197
f 325/221/189 194/387/101 193/235/199
f 334/224/188 195/140/118 194/117/101
f 336/229/79 197/326/215 196/264/214
f 333/240/48 184/301/234 191/270/216
f 159/388/275 328/246/42 164/389/277
f 82/390/263 344/248/43 267/391/263
f 83/392/262 332/256/83 98/393/265
f 82/390/263 331/257/186 329/247/43
f 175/48/45 341/258/40 225/394/274
f 178/51/47 345/259/186 277/395/270
f 98/393/265 343/267/81 260/396/259
f 172/89/78 348/268/81 293/397/259
f 181/219/187 347/269/201 282/398/256
f 164/389/277 342/273/207 250/399/276
f 225/394/274 340/245/207 159/388/275
f 250/399/276 327/239/203 177/400/278
f 260/396/259 338/40/38 174/401/267
f 267/391/263 335/223/191 180/402/260
f 277/395/270 331/257/186 100/403/266
f 279/404/257 337/228/194 171/405/255
f 282/398/256 346/327/201 279/404/257
f 293/397/259 330/255/81 83/392/262
f 253/406/195 351/106/93 353/70/64
f 85/407/252 351/106/93 113/408/82
f 158/409/211 354/226/93 292/410/198
f 48/411/205 353/70/64 349/302/235
f 292/410/198 352/105/92 85/407/252
f 359/83/74 163/412/102 160/413/44
f 276/414/185 358/263/74 99/415/249
f 358/263/74 84/416/241 99/415/249
f 357/311/240 160/413/44 84/416/241
f 161/417/210 360/262/213 276/414/185
f 365/28/26 28/418/279 205/24/22
f 140/164/141 363/168/145 117/274/218
f 366/207/176 140/164/141 232/296/231
f 363/168/145 205/24/22 117/274/218
f 362/297/232 232/296/231 27/419/280
f 203/1/1 6/5/1 4/2/2
f 202/4/4 8/7/6 6/5/1
f 202/4/4 214/8/7 10/6/5
f 214/8/7 213/11/8 12/9/8
f 212/10/9 14/13/11 12/9/8
f 210/12/10 16/15/13 14/13/11
f 210/12/10 206/17/15 18/14/12
f 208/16/14 20/19/17 18/14/12
f 208/16/14 207/20/18 22/18/16
f 207/20/18 216/23/21 24/21/19
f 211/22/20 26/25/23 24/21/19
f 205/24/22 28/418/279 26/25/23
f 204/26/24 30/250/208 361/27/25
f 215/3/3 4/2/2 81/29/27
f 243/31/29 249/282/224 41/32/30
f 285/34/32 54/38/36 55/35/33
f 286/37/35 53/63/59 54/38/36
f 176/39/37 174/401/267 338/40/38
f 201/42/40 116/167/144 139/43/41
f 186/45/43 84/313/241 160/46/44
f 175/48/45 176/420/37 339/49/39
f 178/51/47 179/421/202 333/52/48
f 244/54/50 243/31/29 42/33/31
f 245/56/52 244/54/50 43/55/51
f 246/58/54 245/56/52 44/57/53
f 247/60/56 246/58/54 45/59/55
f 287/62/58 52/65/61 53/63/59
f 288/64/60 51/67/60 52/65/61
f 289/66/62 50/69/62 51/67/60
f 290/68/63 49/422/281 50/69/62
f 353/70/64 351/106/93 107/71/65
f 263/73/67 262/116/100 68/74/68
f 264/76/70 263/73/67 67/75/69
f 265/78/71 264/76/70 66/77/70
f 266/80/72 265/78/71 65/79/71
f 266/80/72 64/81/72 356/82/73
f 222/84/28 81/423/27 80/85/75
f 224/86/76 80/85/75 31/87/51
f 172/89/78 173/424/193 336/90/79
f 187/92/81 85/330/252 113/93/82
f 103/95/84 101/123/106 259/96/85
f 89/98/58 88/214/182 103/95/84
f 90/100/87 89/98/58 104/99/86
f 91/102/89 90/100/87 105/101/88
f 92/104/91 91/102/89 106/103/90
f 352/105/92 92/104/91 107/71/65
f 109/107/69 108/132/112 93/108/94
f 109/107/69 94/109/69 95/110/95
f 111/112/96 110/111/95 95/110/95
f 111/112/96 96/113/97 97/114/98
f 94/109/69 93/108/94 262/116/100
f 194/117/101 195/140/118 163/118/102
f 162/120/103 169/315/243 87/121/104
f 101/123/106 86/329/251 1/124/107
f 104/99/86 103/95/84 254/97/58
f 105/101/88 104/99/86 255/126/109
f 106/103/90 105/101/88 256/127/62
f 107/71/65 106/103/90 257/128/61
f 190/129/110 30/250/208 204/26/24
f 102/131/111 87/121/104 93/108/94
f 269/133/113 71/211/179 102/131/111
f 270/135/69 108/132/112 109/107/69
f 271/136/115 109/107/69 110/111/95
f 272/137/116 110/111/95 111/112/96
f 273/138/117 111/112/96 112/115/99
f 268/47/43 160/46/44 163/118/102
f 150/141/119 138/145/123 115/142/120
f 137/144/122 114/147/125 115/142/120
f 137/144/122 148/149/127 125/146/124
f 147/148/126 124/151/129 125/146/124
f 146/150/128 123/153/131 124/151/129
f 144/152/130 121/155/133 123/153/131
f 144/152/130 141/157/135 118/154/132
f 143/156/134 120/159/137 118/154/132
f 143/156/134 142/161/136 119/158/136
f 151/160/138 128/163/140 119/158/136
f 145/162/139 122/165/142 128/163/140
f 140/164/141 117/274/218 122/165/142
f 364/166/143 139/43/41 116/167/144
f 157/169/146 150/141/119 127/143/121
f 262/116/100 169/315/243 69/171/148
f 275/134/114 102/131/111 108/132/112
f 217/172/149 129/185/159 130/173/150
f 218/174/151 130/173/150 131/175/152
f 219/176/153 131/175/152 132/177/154
f 220/178/155 132/177/154 133/179/57
f 157/180/146 134/275/147 135/181/156
f 136/182/157 135/181/156 133/179/57
f 223/184/158 126/186/160 129/185/159
f 126/186/160 149/189/163 152/187/161
f 227/188/162 249/282/224 149/189/163
f 130/173/150 129/185/159 152/187/161
f 130/173/150 153/191/165 154/192/152
f 131/175/152 154/192/152 155/193/54
f 133/179/57 132/177/154 155/193/54
f 241/194/121 230/196/167 138/145/123
f 229/195/166 137/144/122 138/145/123
f 229/195/166 240/198/169 148/149/127
f 239/197/168 147/148/126 148/149/127
f 238/199/170 146/150/128 147/148/126
f 236/200/171 144/152/130 146/150/128
f 233/201/135 141/157/135 144/152/130
f 233/201/135 235/202/172 143/156/134
f 235/202/172 234/204/136 142/161/136
f 242/203/173 151/160/138 142/161/136
f 237/205/174 145/162/139 151/160/138
f 237/205/174 232/296/231 140/164/141
f 231/206/175 139/43/41 364/166/143
f 241/194/121 150/141/119 157/169/146
f 248/209/177 157/180/146 136/182/157
f 228/210/178 136/182/157 156/183/56
f 71/211/179 2/122/105 87/121/104
f 209/212/180 38/213/181 126/186/160
f 38/213/181 39/190/164 149/189/163
f 88/214/182 86/329/251 101/123/106
f 101/123/106 56/125/108 252/215/183
f 192/216/184 161/252/210 276/217/185
f 181/219/187 182/425/190 334/220/188
f 182/222/190 180/402/260 335/223/191
f 350/225/192 49/422/281 290/68/63
f 173/227/193 171/405/255 337/228/194
f 189/94/83 113/93/82 253/230/195
f 200/232/197 158/254/211 292/233/198
f 193/235/199 168/261/212 283/236/200
f 179/238/202 177/400/278 327/239/203
f 185/44/42 139/43/41 231/206/175
f 199/242/204 198/310/38 48/243/205
f 340/245/207 201/42/40 185/44/42
f 329/247/43 186/45/43 268/47/43
f 190/129/110 199/384/204 183/249/206
f 192/216/184 191/385/216 167/251/209
f 200/232/197 196/386/214 166/253/79
f 330/255/81 187/92/81 189/94/83
f 331/257/186 188/312/186 186/45/43
f 323/50/46 190/129/110 226/130/42
f 324/53/49 192/216/184 278/218/186
f 193/235/199 194/387/101 170/260/101
f 360/262/213 274/139/98 112/115/99
f 196/264/214 197/326/215 165/265/215
f 332/256/83 189/94/83 261/231/196
f 348/268/81 326/91/80 200/232/197
f 325/221/189 193/235/199 284/237/201
f 191/270/216 184/301/234 29/271/217
f 328/246/42 185/44/42 251/241/40
f 115/142/120 203/1/1 215/3/3
f 114/147/125 202/4/4 203/1/1
f 114/147/125 125/146/124 214/8/7
f 124/151/129 213/11/8 214/8/7
f 123/153/131 212/10/9 213/11/8
f 121/155/133 210/12/10 212/10/9
f 121/155/133 118/154/132 206/17/15
f 120/159/137 208/16/14 206/17/15
f 120/159/137 119/158/136 207/20/18
f 128/163/140 216/23/21 207/20/18
f 122/165/142 211/22/20 216/23/21
f 117/274/218 205/24/22 211/22/20
f 116/167/144 204/26/24 365/28/26
f 127/143/121 215/3/3 222/30/28
f 134/275/147 222/84/28 224/86/76
f 135/181/156 224/86/76 221/88/77
f 226/130/42 204/26/24 116/167/144
f 35/276/219 217/172/149 218/174/151
f 34/277/220 218/174/151 219/176/153
f 33/278/221 219/176/153 220/178/155
f 32/279/154 220/178/155 221/88/77
f 36/280/222 223/184/158 217/172/149
f 37/281/223 209/212/180 223/184/158
f 341/258/40 226/130/42 201/42/40
f 152/187/161 149/189/163 249/282/224
f 153/191/165 152/187/161 243/31/29
f 154/192/152 153/191/165 244/54/50
f 155/193/54 154/192/152 245/56/52
f 156/183/56 155/193/54 246/58/54
f 40/283/225 41/32/30 249/282/224
f 3/284/121 5/286/226 230/196/167
f 7/285/166 229/195/166 230/196/167
f 7/285/166 9/288/124 240/198/169
f 11/287/227 239/197/168 240/198/169
f 13/289/128 238/199/170 239/197/168
f 13/289/128 15/291/171 236/200/171
f 17/290/135 233/201/135 236/200/171
f 17/290/135 19/292/228 235/202/172
f 19/292/228 21/294/229 234/204/136
f 23/293/173 242/203/173 234/204/136
f 25/295/230 237/205/174 242/203/173
f 25/295/230 27/419/280 232/296/231
f 29/271/217 231/206/175 366/207/176
f 3/284/121 241/194/121 248/208/177
f 78/299/177 248/209/177 228/210/178
f 79/300/233 228/210/178 247/60/56
f 251/241/40 231/206/175 29/271/217
f 342/273/207 251/241/40 184/301/234
f 349/302/235 353/70/64 258/72/66
f 254/97/58 259/96/85 58/304/236
f 255/126/109 254/97/58 59/305/237
f 256/127/62 255/126/109 60/306/238
f 257/128/61 256/127/62 61/307/87
f 258/72/66 257/128/61 62/308/238
f 259/96/85 252/215/183 57/309/239
f 261/231/196 253/230/195 48/243/205
f 343/267/81 261/231/196 198/310/38
f 112/115/99 97/114/98 357/311/240
f 188/312/186 99/323/249 84/313/241
f 95/110/95 94/109/69 263/73/67
f 96/113/97 95/110/95 264/76/70
f 97/114/98 96/113/97 265/78/71
f 97/114/98 266/80/72 359/83/74
f 70/314/242 69/171/148 169/315/243
f 93/108/94 87/121/104 169/315/243
f 344/248/43 268/47/43 195/140/118
f 72/316/244 269/133/113 275/134/114
f 74/318/245 270/135/69 271/136/115
f 75/319/246 271/136/115 272/137/116
f 76/320/115 272/137/116 273/138/117
f 77/321/247 273/138/117 274/139/98
f 73/317/114 275/134/114 270/135/69
f 278/218/186 276/217/185 99/323/249
f 345/259/186 278/218/186 188/312/186
f 355/324/250 63/322/248 274/139/98
f 281/325/201 280/328/201 165/265/215
f 346/327/201 281/325/201 197/326/215
f 284/237/201 283/236/200 280/328/201
f 347/269/201 284/237/201 281/325/201
f 86/329/251 285/34/32 291/36/34
f 88/214/182 286/37/35 285/34/32
f 89/98/58 287/62/58 286/37/35
f 90/100/87 288/64/60 287/62/58
f 91/102/89 289/66/62 288/64/60
f 92/104/91 290/68/63 289/66/62
f 354/226/93 290/68/63 92/104/91
f 294/234/196 292/233/198 85/330/252
f 348/268/81 294/234/196 187/92/81
f 295/331/253 171/335/255 173/332/193
f 302/334/254 279/337/257 171/335/255
f 302/334/254 309/338/253 282/336/256
f 309/338/253 316/340/258 181/339/187
f 316/340/258 180/347/260 182/341/190
f 296/342/258 295/331/253 172/333/78
f 296/342/258 303/344/258 302/334/254
f 303/344/258 310/346/258 309/338/253
f 317/345/258 316/340/258 309/338/253
f 317/345/258 267/353/263 180/347/260
f 297/348/261 296/342/258 293/343/259
f 297/348/261 304/350/258 303/344/258
f 304/350/258 311/352/258 310/346/258
f 318/351/258 317/345/258 310/346/258
f 318/351/258 82/359/263 267/353/263
f 298/354/264 297/348/261 83/349/262
f 298/354/264 305/356/258 304/350/258
f 305/356/258 312/357/258 311/352/258
f 312/357/258 319/358/258 318/351/258
f 319/358/258 100/365/266 82/359/263
f 260/360/259 299/361/258 298/354/264
f 299/361/258 306/362/253 305/356/258
f 306/362/253 313/363/258 312/357/258
f 313/363/258 320/364/258 319/358/258
f 320/364/258 277/371/270 100/365/266
f 174/366/267 300/367/268 299/361/258
f 300/367/268 307/368/253 306/362/253
f 307/368/253 314/369/269 313/363/258
f 314/369/269 321/370/261 320/364/258
f 321/370/261 178/426/47 277/371/270
f 176/372/37 301/373/271 300/367/268
f 301/373/271 308/374/272 307/368/253
f 308/374/272 315/376/253 314/369/269
f 322/375/273 321/370/261 314/369/269
f 179/377/202 178/426/47 321/370/261
f 175/378/45 225/379/274 301/373/271
f 225/379/274 159/380/275 308/374/272
f 159/380/275 164/382/277 315/376/253
f 250/381/276 322/375/273 315/376/253
f 177/383/278 179/377/202 322/375/273
f 339/41/39 338/40/38 198/310/38
f 323/50/46 339/49/39 199/384/204
f 324/53/49 333/52/48 191/385/216
f 326/91/80 336/90/79 196/386/214
f 325/221/189 334/220/188 194/387/101
f 334/224/188 335/223/191 195/140/118
f 336/229/79 337/228/194 197/326/215
f 333/240/48 327/239/203 184/301/234
f 159/388/275 340/245/207 328/246/42
f 82/390/263 329/247/43 344/248/43
f 83/392/262 330/255/81 332/256/83
f 82/390/263 100/403/266 331/257/186
f 175/48/45 323/50/46 341/258/40
f 178/51/47 324/53/49 345/259/186
f 98/393/265 332/256/83 343/267/81
f 172/89/78 326/91/80 348/268/81
f 181/219/187 325/221/189 347/269/201
f 164/389/277 328/246/42 342/273/207
f 225/394/274 341/258/40 340/245/207
f 250/399/276 342/273/207 327/239/203
f 260/396/259 343/267/81 338/40/38
f 267/391/263 344/248/43 335/223/191
f 277/395/270 345/259/186 331/257/186
f 279/404/257 346/327/201 337/228/194
f 282/398/256 347/269/201 346/327/201
f 293/397/259 348/268/81 330/255/81
f 253/406/195 113/408/82 351/106/93
f 85/407/252 352/105/92 351/106/93
f 158/409/211 350/225/192 354/226/93
f 48/411/205 253/406/195 353/70/64
f 292/410/198 354/226/93 352/105/92
f 359/83/74 356/82/73 163/412/102
f 276/414/185 360/262/213 358/263/74
f 358/263/74 357/311/240 84/416/241
f 357/311/240 359/83/74 160/413/44
f 161/417/210 355/324/250 360/262/213
f 365/28/26 361/27/25 28/418/279
f 140/164/141 364/166/143 363/168/145
f 366/207/176 364/166/143 140/164/141
f 363/168/145 365/28/26 205/24/22
f 362/297/232 366/207/176 232/296/231
