# Blender 3.6.23
# www.blender.org
o sol.014
v 2.952170 1.684510 -3.260989
v 2.952882 1.670503 -3.254971
v 2.940172 1.683404 -3.262131
v 2.939402 1.698765 -3.267008
v 2.938593 1.715021 -3.270855
v 2.951402 1.699753 -3.266136
v 2.940886 1.669325 -3.256274
v 2.928181 1.682137 -3.263637
v 2.927405 1.697654 -3.268160
v 2.926589 1.714092 -3.271594
v 2.928898 1.667965 -3.257990
v 2.916190 1.680873 -3.265143
v 2.915407 1.696542 -3.269315
v 2.914586 1.713160 -3.272333
v 2.916910 1.666608 -3.259704
v 2.904192 1.679767 -3.266285
v 2.903407 1.695554 -3.270187
v 2.902580 1.712310 -3.272886
v 2.937768 1.731793 -3.273630
v 2.950599 1.715872 -3.270302
v 2.925759 1.731033 -3.273972
v 2.913748 1.730273 -3.274315
v 2.901739 1.729556 -3.274565
v 2.936942 1.748692 -3.275286
v 2.949779 1.732510 -3.273382
v 2.924928 1.748060 -3.275330
v 2.912914 1.747431 -3.275377
v 2.900899 1.746812 -3.275396
v 2.936134 1.765333 -3.275773
v 2.948956 1.749311 -3.275266
v 2.924120 1.764754 -3.275702
v 2.912103 1.764173 -3.275631
v 2.900088 1.763591 -3.275560
v 2.964890 1.671322 -3.254490
v 2.964177 1.685302 -3.260574
v 2.892182 1.678975 -3.266701
v 2.891397 1.694809 -3.270491
v 2.904914 1.665430 -3.261010
v 2.892909 1.664609 -3.261488
v 2.888071 1.763012 -3.275489
v 2.888884 1.746215 -3.275360
v 2.960970 1.749908 -3.275303
v 2.961793 1.733147 -3.273326
v 2.948151 1.765913 -3.275845
v 2.960166 1.766493 -3.275916
v 2.890570 1.711622 -3.273063
v 2.962612 1.716560 -3.270125
v 2.889725 1.728922 -3.274619
v 2.963412 1.700495 -3.265828
v 2.880168 1.678396 -3.266630
v 2.880892 1.664029 -3.261417
v 2.868151 1.677813 -3.266559
v 2.867366 1.693650 -3.270349
v 2.866539 1.710462 -3.272921
v 2.879380 1.694229 -3.270421
v 2.868878 1.663449 -3.261345
v 2.856137 1.677234 -3.266487
v 2.855349 1.693069 -3.270278
v 2.854521 1.709882 -3.272850
v 2.856861 1.662867 -3.261274
v 2.844122 1.676654 -3.266416
v 2.843334 1.692490 -3.270207
v 2.842507 1.709302 -3.272779
v 2.844846 1.662287 -3.261203
v 2.832105 1.676074 -3.266345
v 2.831317 1.691908 -3.270136
v 2.830490 1.708720 -3.272707
v 2.865694 1.727760 -3.274477
v 2.878553 1.711042 -3.272992
v 2.853677 1.727180 -3.274406
v 2.841662 1.726601 -3.274334
v 2.829646 1.726021 -3.274263
v 2.864854 1.745055 -3.275218
v 2.877708 1.728342 -3.274548
v 2.852838 1.744473 -3.275146
v 2.840823 1.743893 -3.275075
v 2.828806 1.743314 -3.275004
v 2.864043 1.761852 -3.275347
v 2.876869 1.745635 -3.275289
v 2.852026 1.761270 -3.275275
v 2.840011 1.760690 -3.275204
v 2.827994 1.760110 -3.275133
v 2.820091 1.675494 -3.266274
v 2.819303 1.691328 -3.270065
v 2.832829 1.661707 -3.261132
v 2.820815 1.661128 -3.261061
v 2.815980 1.759531 -3.275062
v 2.816792 1.742734 -3.274933
v 2.876057 1.762432 -3.275418
v 2.818476 1.708140 -3.272636
v 2.817631 1.725441 -3.274192
v 2.808074 1.674912 -3.266203
v 2.808800 1.660548 -3.260990
v 2.796060 1.674332 -3.266132
v 2.795272 1.690168 -3.269922
v 2.794444 1.706981 -3.272494
v 2.807289 1.690748 -3.269994
v 2.796783 1.659966 -3.260919
v 2.784042 1.673752 -3.266061
v 2.783257 1.689589 -3.269851
v 2.782430 1.706401 -3.272423
v 2.784769 1.659386 -3.260847
v 2.772028 1.673173 -3.265990
v 2.771240 1.689006 -3.269780
v 2.770413 1.705819 -3.272352
v 2.772752 1.658806 -3.260777
v 2.760014 1.672593 -3.265918
v 2.759226 1.688427 -3.269709
v 2.758399 1.705239 -3.272281
v 2.793600 1.724279 -3.274050
v 2.806461 1.707561 -3.272565
v 2.781585 1.723699 -3.273979
v 2.769568 1.723119 -3.273908
v 2.757554 1.722537 -3.273836
v 2.792760 1.741572 -3.274791
v 2.805617 1.724859 -3.274121
v 2.780746 1.740992 -3.274719
v 2.768729 1.740412 -3.274648
v 2.756715 1.739833 -3.274577
v 2.791948 1.758368 -3.274920
v 2.804775 1.742154 -3.274862
v 2.779934 1.757789 -3.274849
v 2.767917 1.757209 -3.274778
v 2.755902 1.756629 -3.274706
v 2.747997 1.672010 -3.265847
v 2.747209 1.687847 -3.269638
v 2.760737 1.658226 -3.260705
v 2.748721 1.657646 -3.260634
v 2.743886 1.756049 -3.274636
v 2.744698 1.739253 -3.274506
v 2.803963 1.758950 -3.274991
v 2.746382 1.704659 -3.272209
v 2.745537 1.721957 -3.273766
v 2.947360 1.782298 -3.275734
v 2.935343 1.781719 -3.275663
v 2.934553 1.798102 -3.275553
v 2.933762 1.814487 -3.275442
v 2.946570 1.798684 -3.275623
v 2.923329 1.781137 -3.275592
v 2.922539 1.797522 -3.275481
v 2.921748 1.813908 -3.275371
v 2.911312 1.780557 -3.275521
v 2.910522 1.796942 -3.275410
v 2.909731 1.813328 -3.275299
v 2.899298 1.779977 -3.275449
v 2.898507 1.796362 -3.275339
v 2.897717 1.812746 -3.275229
v 2.932972 1.830873 -3.275331
v 2.945779 1.815067 -3.275513
v 2.920957 1.830291 -3.275260
v 2.908940 1.829711 -3.275189
v 2.896926 1.829131 -3.275118
v 2.932181 1.847256 -3.275221
v 2.944989 1.831453 -3.275402
v 2.920166 1.846676 -3.275150
v 2.908150 1.846096 -3.275078
v 2.896135 1.845517 -3.275007
v 2.931390 1.863642 -3.275110
v 2.944198 1.847838 -3.275292
v 2.919376 1.863062 -3.275039
v 2.907359 1.862482 -3.274968
v 2.895344 1.861900 -3.274897
v 2.959375 1.782878 -3.275805
v 2.887283 1.779397 -3.275378
v 2.886493 1.795780 -3.275268
v 2.883328 1.861320 -3.274826
v 2.884118 1.844934 -3.274936
v 2.956213 1.848418 -3.275363
v 2.957003 1.832032 -3.275473
v 2.943407 1.864221 -3.275182
v 2.955422 1.864801 -3.275252
v 2.885700 1.812165 -3.275157
v 2.957794 1.815647 -3.275584
v 2.884909 1.828551 -3.275047
v 2.958584 1.799264 -3.275695
v 2.875266 1.778817 -3.275307
v 2.863252 1.778235 -3.275236
v 2.862461 1.794621 -3.275126
v 2.861670 1.811006 -3.275015
v 2.874476 1.795200 -3.275197
v 2.851235 1.777655 -3.275165
v 2.850444 1.794041 -3.275054
v 2.849654 1.810424 -3.274944
v 2.839221 1.777076 -3.275094
v 2.838430 1.793461 -3.274983
v 2.837639 1.809844 -3.274873
v 2.827204 1.776496 -3.275023
v 2.826413 1.792879 -3.274912
v 2.825622 1.809264 -3.274802
v 2.860880 1.827389 -3.274904
v 2.873685 1.811586 -3.275086
v 2.848863 1.826810 -3.274833
v 2.836848 1.826230 -3.274762
v 2.824832 1.825650 -3.274691
v 2.860090 1.843775 -3.274794
v 2.872894 1.827971 -3.274976
v 2.848072 1.843195 -3.274723
v 2.836058 1.842615 -3.274652
v 2.824041 1.842033 -3.274581
v 2.859299 1.860160 -3.274683
v 2.872104 1.844354 -3.274865
v 2.847282 1.859581 -3.274612
v 2.835268 1.858998 -3.274541
v 2.823251 1.858419 -3.274470
v 2.815189 1.775916 -3.274952
v 2.814398 1.792299 -3.274841
v 2.811236 1.857839 -3.274399
v 2.812027 1.841453 -3.274509
v 2.871313 1.860740 -3.274755
v 2.813608 1.808685 -3.274730
v 2.812817 1.825070 -3.274620
v 2.803172 1.775334 -3.274880
v 2.791158 1.774754 -3.274809
v 2.790367 1.791140 -3.274698
v 2.789577 1.807523 -3.274588
v 2.802382 1.791719 -3.274770
v 2.779143 1.774174 -3.274738
v 2.778352 1.790560 -3.274628
v 2.777562 1.806943 -3.274517
v 2.767126 1.773594 -3.274667
v 2.766336 1.789977 -3.274556
v 2.765545 1.806363 -3.274446
v 2.755112 1.773012 -3.274596
v 2.754321 1.789398 -3.274485
v 2.753531 1.805783 -3.274375
v 2.788786 1.823908 -3.274478
v 2.801591 1.808105 -3.274659
v 2.776772 1.823328 -3.274407
v 2.764755 1.822749 -3.274335
v 2.752740 1.822166 -3.274264
v 2.787995 1.840294 -3.274367
v 2.800800 1.824488 -3.274549
v 2.775981 1.839714 -3.274296
v 2.763964 1.839132 -3.274225
v 2.751949 1.838552 -3.274154
v 2.787205 1.856677 -3.274257
v 2.800010 1.840873 -3.274438
v 2.775188 1.856097 -3.274185
v 2.763173 1.855517 -3.274114
v 2.751159 1.854938 -3.274043
v 2.743095 1.772432 -3.274525
v 2.742305 1.788818 -3.274414
v 2.739142 1.854358 -3.273972
v 2.739933 1.837972 -3.274083
v 2.799219 1.857259 -3.274328
v 2.741513 1.805203 -3.274304
v 2.740723 1.821586 -3.274193
v 2.942606 1.880836 -3.274902
v 2.930592 1.880208 -3.274863
v 2.929786 1.896993 -3.274183
v 2.928983 1.913775 -3.272827
v 2.941796 1.897721 -3.274078
v 2.918579 1.879569 -3.274838
v 2.917779 1.896224 -3.274343
v 2.916979 1.912877 -3.273391
v 2.906567 1.878930 -3.274810
v 2.905769 1.895454 -3.274501
v 2.904976 1.911979 -3.273954
v 2.894553 1.878303 -3.274774
v 2.893760 1.894728 -3.274605
v 2.892969 1.911152 -3.274369
v 2.928198 1.930329 -3.270555
v 2.940990 1.914599 -3.272412
v 2.916193 1.929375 -3.271819
v 2.904185 1.928422 -3.273085
v 2.892179 1.927554 -3.274044
v 2.927439 1.946435 -3.267122
v 2.940205 1.931196 -3.269597
v 2.915424 1.945571 -3.269467
v 2.903406 1.944710 -3.271813
v 2.891392 1.943912 -3.273601
v 2.926723 1.961871 -3.262288
v 2.939456 1.947233 -3.265334
v 2.914683 1.961317 -3.266169
v 2.902642 1.960763 -3.270050
v 2.890609 1.960200 -3.273019
v 2.954622 1.881433 -3.274958
v 2.882537 1.877705 -3.274715
v 2.881746 1.894091 -3.274605
v 2.878584 1.959628 -3.274163
v 2.879375 1.943245 -3.274273
v 2.951471 1.947901 -3.264662
v 2.952218 1.931891 -3.269257
v 2.938758 1.962432 -3.259319
v 2.950780 1.963003 -3.258175
v 2.880956 1.910474 -3.274494
v 2.953001 1.915277 -3.272287
v 2.880165 1.926859 -3.274384
v 2.953809 1.898358 -3.274078
v 2.870522 1.877126 -3.274644
v 2.858508 1.876544 -3.274573
v 2.857718 1.892929 -3.274462
v 2.856927 1.909315 -3.274352
v 2.869732 1.893509 -3.274534
v 2.846491 1.875964 -3.274502
v 2.845701 1.892349 -3.274391
v 2.844910 1.908735 -3.274281
v 2.834476 1.875384 -3.274431
v 2.833686 1.891769 -3.274320
v 2.832896 1.908152 -3.274209
v 2.822460 1.874804 -3.274359
v 2.821669 1.891187 -3.274249
v 2.820879 1.907573 -3.274138
v 2.856136 1.925698 -3.274241
v 2.868941 1.909894 -3.274423
v 2.844119 1.925118 -3.274170
v 2.832105 1.924538 -3.274099
v 2.820088 1.923958 -3.274028
v 2.855346 1.942083 -3.274131
v 2.868151 1.926280 -3.274312
v 2.843329 1.941503 -3.274060
v 2.831314 1.940924 -3.273988
v 2.819297 1.940341 -3.273917
v 2.854553 1.958469 -3.274020
v 2.867360 1.942663 -3.274202
v 2.842538 1.957889 -3.273949
v 2.830523 1.957307 -3.273878
v 2.818507 1.956727 -3.273807
v 2.810445 1.874224 -3.274288
v 2.809655 1.890607 -3.274178
v 2.806492 1.956147 -3.273736
v 2.807283 1.939762 -3.273846
v 2.866570 1.959049 -3.274091
v 2.808864 1.906993 -3.274067
v 2.808074 1.923378 -3.273957
v 2.798429 1.873642 -3.274217
v 2.786414 1.873062 -3.274146
v 2.785623 1.889448 -3.274035
v 2.784833 1.905833 -3.273925
v 2.797638 1.890027 -3.274107
v 2.774400 1.872483 -3.274075
v 2.773609 1.888868 -3.273964
v 2.772816 1.905251 -3.273854
v 2.762383 1.871903 -3.274004
v 2.761592 1.888286 -3.273893
v 2.760801 1.904671 -3.273783
v 2.750368 1.871323 -3.273933
v 2.749578 1.887706 -3.273822
v 2.748787 1.904092 -3.273711
v 2.784042 1.922217 -3.273814
v 2.796847 1.906413 -3.273996
v 2.772025 1.921636 -3.273743
v 2.760011 1.921057 -3.273672
v 2.747996 1.920477 -3.273601
v 2.783252 1.938602 -3.273704
v 2.796057 1.922796 -3.273885
v 2.771235 1.938022 -3.273633
v 2.759220 1.937440 -3.273562
v 2.747206 1.936860 -3.273490
v 2.782461 1.954988 -3.273593
v 2.795266 1.939182 -3.273775
v 2.770444 1.954405 -3.273522
v 2.758430 1.953825 -3.273451
v 2.746415 1.953246 -3.273380
v 2.738351 1.870741 -3.273861
v 2.737561 1.887126 -3.273751
v 2.734398 1.952666 -3.273309
v 2.735188 1.936280 -3.273420
v 2.794475 1.955567 -3.273664
v 2.736770 1.903512 -3.273640
v 2.735980 1.919895 -3.273530
vn 0.0062 -0.0064 1.0000
vn -0.0249 0.2205 0.9751
vn -0.0198 0.1448 0.9893
vn -0.0418 0.2124 0.9763
vn 0.0001 0.1204 0.9927
vn 0.0027 0.0663 0.9978
vn -0.0007 -0.0079 1.0000
vn -0.0035 -0.0126 0.9999
vn -0.0205 -0.0190 0.9996
vn -0.0550 0.3569 0.9325
vn -0.0653 0.2796 0.9579
vn -0.0857 0.3500 0.9328
vn 0.0047 0.0255 0.9997
vn 0.0059 0.0008 1.0000
vn 0.0060 -0.0088 0.9999
vn 0.0026 -0.0132 0.9999
vn 0.0060 -0.0076 1.0000
vn 0.0063 -0.0064 1.0000
vn -0.0000 0.1205 0.9927
vn -0.0034 0.1920 0.9814
vn -0.0082 0.2871 0.9579
vn -0.0035 0.1920 0.9814
vn -0.0211 0.1923 0.9811
vn -0.0851 0.2888 0.9536
vn -0.0635 0.1978 0.9782
vn -0.0025 0.0306 0.9995
vn 0.0056 0.0011 1.0000
vn 0.0024 0.0262 0.9997
vn -0.0880 -0.0680 0.9938
vn -0.0437 -0.0752 0.9962
vn -0.0980 -0.1196 0.9880
vn -0.0109 0.3406 0.9401
vn -0.0307 0.2866 0.9576
vn -0.0082 0.2870 0.9579
vn -0.0037 0.0672 0.9977
vn -0.0000 0.1204 0.9927
vn -0.0119 0.1211 0.9926
vn -0.0124 -0.0420 0.9990
vn 0.0028 -0.0262 0.9997
vn -0.0095 -0.0587 0.9982
vn 0.0039 -0.0071 1.0000
vn -0.0401 0.1280 0.9910
vn -0.0186 0.0736 0.9971
vn 0.0049 0.0146 0.9999
vn -0.0002 0.0764 0.9971
vn 0.0052 0.0154 0.9999
vn -0.0216 -0.0108 0.9997
vn -0.0357 -0.0171 0.9992
vn -0.1452 -0.0635 0.9874
vn -0.1628 -0.0989 0.9817
vn -0.2400 -0.1447 0.9599
vn 0.0001 0.1205 0.9927
vn -0.0963 0.3382 0.9361
vn -0.0357 0.3393 0.9400
vn 0.0046 0.0123 0.9999
vn -0.0649 0.1447 0.9873
vn -0.0315 0.0885 0.9956
vn -0.0959 0.3870 0.9171
vn -0.0636 0.3955 0.9163
vn -0.1504 0.3693 0.9171
vn -0.1497 0.3137 0.9377
vn -0.1677 0.3536 0.9202
vn -0.0108 0.3406 0.9401
vn -0.0065 0.0401 0.9992
vn -0.1806 -0.1754 0.9678
vn -0.1011 0.2127 0.9719
vn -0.0738 0.1681 0.9830
vn -0.1025 0.2591 0.9604
vn -0.0664 0.1926 0.9790
vn -0.0503 -0.0278 0.9983
vn -0.0961 -0.0391 0.9946
vn -0.0030 0.0730 0.9973
vn -0.1142 0.2349 0.9653
vn 0.0045 0.0090 0.9999
vn 0.0058 -0.0066 1.0000
vn 0.0058 0.0008 1.0000
vn -0.0361 0.1085 0.9934
vn -0.0324 0.1289 0.9911
vn 0.0060 -0.0101 0.9999
vn 0.0047 0.0055 1.0000
vn -0.0081 0.0522 0.9986
vn -0.0069 0.0642 0.9979
vn -0.0089 -0.0091 0.9999
vn -0.1273 -0.3784 0.9169
vn -0.0425 -0.3302 0.9430
vn -0.0683 -0.3964 0.9155
vn 0.0062 -0.0112 0.9999
vn 0.0045 -0.0315 0.9995
vn 0.0062 -0.0117 0.9999
vn 0.0054 -0.0336 0.9994
vn -0.1332 0.2979 0.9453
vn 0.0051 0.0026 1.0000
vn -0.0828 -0.1705 0.9819
vn -0.1538 -0.2511 0.9557
vn 0.0061 -0.0067 1.0000
vn -0.0104 -0.0252 0.9996
vn -0.2631 -0.2373 0.9351
vn -0.0058 -0.1392 0.9902
vn -0.0446 -0.2088 0.9769
vn -0.0176 -0.1300 0.9914
vn -0.2237 -0.3220 0.9199
vn -0.0860 -0.3083 0.9474
vn -0.1497 0.3425 0.9275
vn -0.0201 -0.2235 0.9745
vn -0.0362 -0.1064 0.9937
vn 0.0042 -0.0085 1.0000
vn -0.1343 0.3328 0.9334
vn 0.0021 -0.0196 0.9998
vn -0.0388 -0.0434 0.9983
vn -0.0400 0.2882 0.9567
vn -0.0023 -0.0715 0.9974
vn -0.0111 0.1511 0.9885
vn -0.0083 0.2870 0.9579
vn 0.0021 -0.0764 0.9971
vt 0.111100 0.777800
vt 0.166700 0.722200
vt 0.166700 0.777800
vt 1.000000 0.166700
vt 0.944400 0.222200
vt 0.944400 0.166700
vt 0.333300 0.166700
vt 0.277800 0.222200
vt 0.277800 0.166700
vt 0.444400 0.722200
vt 0.500000 0.777800
vt 0.444400 0.777800
vt 0.055600 0.611100
vt 0.111100 0.555600
vt 0.111100 0.611100
vt 0.666700 0.833300
vt 0.722200 0.777800
vt 0.722200 0.833300
vt 1.000000 0.055600
vt 0.944400 0.111100
vt 0.944400 0.055600
vt 0.444400 0.277800
vt 0.500000 0.333300
vt 0.444400 0.333300
vt 0.555600 0.888900
vt 0.611100 0.833300
vt 0.611100 0.888900
vt 0.833300 0.666700
vt 0.777800 0.722200
vt 0.777800 0.666700
vt -0.000000 0.555600
vt -0.000000 0.611100
vt -0.000000 0.166700
vt 0.055600 0.222200
vt -0.000000 0.222200
vt 0.222200 0.111100
vt 0.277800 0.055600
vt 0.277800 0.111100
vt 0.500000 0.666700
vt 0.444400 0.666700
vt 0.777800 0.500000
vt 0.833300 0.555600
vt 0.777800 0.555600
vt 0.500000 0.944400
vt 0.555600 1.000000
vt 0.500000 1.000000
vt 0.666700 0.444400
vt 0.722200 0.388900
vt 0.722200 0.444400
vt 0.666700 0.111100
vt 0.722200 0.055600
vt 0.722200 0.111100
vt 0.444400 0.388900
vt 0.500000 0.444400
vt 0.444400 0.444400
vt 0.722200 0.277800
vt 0.666700 0.333300
vt 0.666700 0.277800
vt 0.777800 0.888900
vt 0.833300 0.833300
vt 0.833300 0.888900
vt 0.611100 0.000000
vt 0.666700 0.055600
vt 0.611100 0.055600
vt 0.555600 0.833300
vt 0.500000 0.833300
vt 0.666700 0.222200
vt 0.611100 0.166700
vt 0.666700 0.166700
vt 0.333300 0.833300
vt 0.388900 0.888900
vt 0.333300 0.888900
vt 0.055600 0.888900
vt 0.111100 0.944400
vt 0.055600 0.944400
vt 0.833300 0.777800
vt 0.888900 0.722200
vt 0.888900 0.777800
vt 0.666700 0.777800
vt 0.611100 0.777800
vt 0.277800 0.888900
vt 0.277800 0.833300
vt -0.000000 0.777800
vt 0.055600 0.722200
vt 0.055600 0.777800
vt 0.222200 0.333300
vt 0.277800 0.277800
vt 0.277800 0.333300
vt 0.277800 0.777800
vt 0.333300 0.777800
vt 0.388900 0.833300
vt 0.444400 0.833300
vt -0.000000 0.500000
vt 0.055600 0.555600
vt 0.722200 0.166700
vt 0.722200 0.222200
vt 0.166700 0.111100
vt 0.222200 0.166700
vt 0.166700 0.166700
vt 0.055600 0.666700
vt -0.000000 0.722200
vt -0.000000 0.666700
vt 0.944400 0.333300
vt 1.000000 0.277800
vt 1.000000 0.333300
vt 0.611100 1.000000
vt 0.666700 0.944400
vt 0.666700 1.000000
vt 0.722200 1.000000
vt 0.777800 0.944400
vt 0.777800 1.000000
vt 0.500000 0.111100
vt 0.555600 0.166700
vt 0.500000 0.166700
vt 0.722200 0.000000
vt 0.666700 0.000000
vt 0.388900 0.500000
vt 0.444400 0.500000
vt 0.111100 0.111100
vt 0.166700 0.055600
vt 0.555600 0.000000
vt 0.500000 0.055600
vt 0.500000 0.000000
vt 0.333300 0.055600
vt 0.388900 0.111100
vt 0.333300 0.111100
vt 0.333300 0.555600
vt 0.277800 0.611100
vt 0.277800 0.555600
vt 0.944400 0.388900
vt 0.888900 0.333300
vt 0.388900 0.333300
vt 0.333300 0.277800
vt 0.388900 0.277800
vt 0.166700 1.000000
vt 0.222200 0.944400
vt 0.222200 1.000000
vt 0.333300 0.000000
vt 0.777800 0.166700
vt 0.777800 0.222200
vt 0.444400 0.111100
vt 0.444400 0.166700
vt 0.944400 0.000000
vt 1.000000 0.000000
vt 0.388900 0.222200
vt 0.444400 0.222200
vt 0.888900 0.000000
vt 0.833300 0.055600
vt 0.833300 0.000000
vt 0.222200 0.500000
vt 0.277800 0.444400
vt 0.277800 0.500000
vt 0.444400 0.055600
vt 0.388900 0.777800
vt 0.111100 0.500000
vt 0.055600 0.833300
vt -0.000000 0.833300
vt 0.388900 0.055600
vt 0.388900 0.000000
vt 0.222200 0.666700
vt 0.166700 0.666700
vt 0.500000 0.888900
vt 0.166700 0.888900
vt 0.166700 0.944400
vt 0.111100 0.222200
vt 0.166700 0.277800
vt 0.111100 0.277800
vt 0.500000 0.222200
vt 0.500000 0.388900
vt 0.444400 0.000000
vt 0.777800 0.277800
vt 0.555600 0.944400
vt 0.833300 0.944400
vt 0.611100 0.277800
vt 0.611100 0.333300
vt 0.111100 0.722200
vt 0.111100 0.666700
vt 0.333300 0.722200
vt 0.277800 0.722200
vt 0.166700 0.444400
vt 0.166700 0.500000
vt 0.333300 0.388900
vt 0.277800 0.388900
vt 0.055600 0.333300
vt -0.000000 0.277800
vt 0.055600 0.277800
vt 0.333300 0.222200
vt 1.000000 0.388900
vt 0.611100 0.666700
vt 0.555600 0.722200
vt 0.555600 0.666700
vt 0.555600 0.611100
vt 0.055600 0.444400
vt 0.055600 0.500000
vt 0.111100 1.000000
vt 0.111100 0.166700
vt 0.777800 0.111100
vt 0.277800 0.944400
vt 0.333300 1.000000
vt 0.277800 1.000000
vt 0.555600 0.444400
vt 0.222200 0.555600
vt 0.833300 0.166700
vt 0.888900 0.111100
vt 0.888900 0.166700
vt 0.222200 0.833300
vt 0.222200 0.888900
vt 0.722200 0.555600
vt 0.222200 0.388900
vt 0.222200 0.444400
vt 0.611100 0.555600
vt 0.611100 0.611100
vt 0.666700 0.555600
vt 0.611100 0.500000
vt 0.666700 0.500000
vt 0.722200 0.888900
vt 0.722200 0.944400
vt 0.777800 0.444400
vt 0.833300 0.500000
vt 0.166700 0.222200
vt 0.222200 0.277800
vt 0.944400 0.277800
vt 0.444400 1.000000
vt 0.555600 0.111100
vt 0.611100 0.111100
vt 0.555600 0.277800
vt 0.555600 0.333300
vt 0.833300 0.111100
vt 0.222200 0.055600
vt 0.166700 0.000000
vt 0.222200 0.000000
vt 0.833300 0.388900
vt 0.833300 0.333300
vt 0.722200 0.611100
vt 0.666700 0.666700
vt 0.666700 0.611100
vt 0.111100 0.000000
vt 0.055600 0.055600
vt 0.055600 0.000000
vt 0.611100 0.388900
vt 0.666700 0.388900
vt 0.666700 0.722200
vt 0.611100 0.722200
vt 0.166700 0.833300
vt 0.222200 0.777800
vt 0.777800 0.611100
vt 0.166700 0.555600
vt 0.222200 0.611100
vt 0.166700 0.611100
vt 0.111100 0.833300
vt 0.555600 0.222200
vt 0.611100 0.222200
vt -0.000000 0.111100
vt 0.055600 0.111100
vt 0.055600 0.388900
vt -0.000000 0.333300
vt 0.333300 0.500000
vt 0.388900 0.555600
vt 0.833300 0.611100
vt 0.888900 0.555600
vt 0.888900 0.611100
vt 0.833300 0.222200
vt 0.888900 0.222200
vt 0.888900 0.666700
vt 0.777800 0.333300
vt 0.833300 0.277800
vt 0.888900 0.277800
vt 0.666700 0.888900
vt 0.611100 0.944400
vt 0.555600 0.500000
vt 0.388900 0.666700
vt 0.333300 0.611100
vt 0.388900 0.611100
vt 0.944400 1.000000
vt 1.000000 0.944400
vt 1.000000 1.000000
vt 0.333300 0.333300
vt 0.833300 0.444400
vt 0.888900 0.500000
vt 0.500000 0.722200
vt 0.555600 0.777800
vt 0.944400 0.611100
vt 0.944400 0.666700
vt 0.111100 0.333300
vt 0.333300 0.666700
vt 0.277800 0.666700
vt 0.111100 0.888900
vt 0.500000 0.555600
vt 0.500000 0.611100
vt 0.222200 0.222200
vt 0.055600 0.166700
vt 0.888900 0.388900
vt 0.888900 0.444400
vt 0.444400 0.555600
vt 0.388900 0.166700
vt 0.166700 0.333300
vt 0.222200 0.722200
vt 0.500000 0.277800
vt 0.944400 0.722200
vt 1.000000 0.666700
vt 1.000000 0.722200
vt 0.944400 0.444400
vt 0.444400 0.611100
vt 0.166700 0.388900
vt 0.777800 0.055600
vt 0.722200 0.333300
vt 0.277800 0.000000
vt 0.388900 0.944400
vt 0.333300 0.944400
vt 0.944400 0.555600
vt 0.888900 0.888900
vt 0.888900 0.944400
vt 0.388900 0.444400
vt 0.333300 0.444400
vt 0.500000 0.500000
vt 0.722200 0.666700
vt 0.777800 0.777800
vt 0.833300 1.000000
vt 1.000000 0.833300
vt 0.944400 0.888900
vt 0.944400 0.833300
vt 0.888900 1.000000
vt 0.944400 0.944400
vt 0.444400 0.888900
vt 0.444400 0.944400
vt 0.388900 1.000000
vt 0.555600 0.555600
vt 0.611100 0.444400
vt 1.000000 0.555600
vt 0.944400 0.500000
vt 1.000000 0.500000
vt 0.777800 0.000000
vt 1.000000 0.888900
vt 0.722200 0.500000
vt -0.000000 0.388900
vt -0.000000 0.444400
vt 0.555600 0.055600
vt 0.888900 0.833300
vt 0.111100 0.444400
vt 0.722200 0.722200
vt 0.888900 0.055600
vt 0.388900 0.722200
vt -0.000000 0.888900
vt 1.000000 0.611100
vt 1.000000 0.444400
vt 0.833300 0.722200
vt 0.777800 0.833300
vt 0.555600 0.388900
vt 0.055600 1.000000
vt -0.000000 0.944400
vt 0.388900 0.388900
vt 1.000000 0.111100
vt 0.944400 0.777800
vt 0.111100 0.388900
vt 1.000000 0.222200
vt 0.777800 0.388900
vt -0.000000 0.055600
vt -0.000000 0.000000
vt 1.000000 0.777800
vt 0.111100 0.055600
vt -0.000000 1.000000
s 1
f 335/1/1 331/2/1 332/3/1
f 47/4/2 25/5/3 20/6/4
f 90/7/5 116/8/6 111/9/5
f 298/10/1 296/11/1 299/12/1
f 235/13/1 229/14/1 234/15/1
f 286/16/7 260/17/8 261/18/9
f 35/19/10 6/20/11 1/21/12
f 76/22/13 80/23/14 81/24/14
f 304/25/1 305/26/1 310/27/1
f 160/28/15 256/29/16 161/30/17
f 247/31/1 235/13/1 244/32/18
f 132/33/19 114/34/6 133/35/6
f 95/36/20 92/37/21 97/38/22
f 202/39/1 298/10/1 203/40/1
f 144/41/18 150/42/18 151/43/1
f 311/44/1 314/45/1 316/46/1
f 165/47/1 145/48/1 146/49/1
f 37/50/23 16/51/24 17/52/25
f 184/53/1 182/54/1 185/55/1
f 28/56/26 40/57/27 41/58/28
f 265/59/29 255/60/30 264/61/31
f 51/62/32 36/63/33 50/64/34
f 296/11/1 293/65/1 297/66/1
f 48/67/35 69/68/36 46/69/37
f 324/70/1 308/71/1 325/72/1
f 344/73/1 348/74/1 349/75/1
f 254/76/38 249/77/39 250/78/40
f 279/79/41 305/26/1 294/80/1
f 324/70/1 346/81/1 341/82/1
f 356/83/1 337/84/1 338/85/1
f 120/86/14 121/87/13 131/88/14
f 324/70/1 330/89/1 320/90/1
f 303/91/1 299/12/1 300/92/1
f 246/93/1 230/94/1 247/31/1
f 48/67/35 18/95/42 23/96/43
f 100/97/22 96/98/5 101/99/19
f 240/100/1 355/101/1 243/102/18
f 44/103/44 42/104/45 45/105/46
f 323/106/1 281/107/47 280/108/48
f 276/109/49 270/110/50 275/111/51
f 58/112/22 54/113/52 59/114/52
f 38/115/53 36/63/33 39/116/54
f 189/117/1 185/55/1 186/118/1
f 104/119/22 99/120/34 100/97/22
f 56/121/32 57/122/34 60/123/32
f 83/124/34 66/125/22 84/126/22
f 211/127/1 237/128/1 232/129/1
f 90/7/5 97/38/22 84/126/22
f 134/130/1 29/131/55 44/103/44
f 82/132/14 88/133/13 77/134/13
f 352/135/1 345/136/1 350/137/1
f 92/37/21 86/138/32 83/124/34
f 23/96/43 14/139/56 22/140/57
f 62/141/22 59/114/52 63/142/36
f 35/19/10 2/143/58 34/144/59
f 72/145/6 63/142/36 71/146/6
f 7/147/60 8/148/61 11/149/62
f 215/150/1 216/151/1 227/152/1
f 61/153/34 58/112/22 62/141/22
f 302/154/1 298/10/1 299/12/1
f 230/94/1 222/155/1 229/14/1
f 356/83/1 339/156/1 360/157/18
f 65/158/34 86/138/32 85/159/63
f 236/160/1 331/2/1 238/161/1
f 297/66/1 304/25/1 306/162/1
f 342/163/1 345/136/1 347/164/1
f 113/165/6 117/166/13 118/167/13
f 63/142/36 70/168/6 71/146/6
f 181/169/1 81/24/14 80/23/14
f 57/122/34 64/170/32 60/123/32
f 28/56/26 22/140/57 27/171/64
f 306/162/1 309/172/1 311/44/1
f 270/110/50 264/61/31 269/173/65
f 79/174/13 40/57/27 89/175/14
f 238/161/1 334/176/1 239/177/1
f 319/178/1 330/89/1 326/179/1
f 218/180/1 215/150/1 219/181/1
f 64/170/32 65/158/34 85/159/63
f 205/182/1 216/151/1 212/183/1
f 124/184/14 130/185/13 119/186/13
f 90/7/5 72/145/6 91/187/6
f 44/103/44 163/188/1 134/130/1
f 119/186/13 113/165/6 118/167/13
f 209/189/1 291/190/1 200/191/1
f 195/192/1 209/189/1 200/191/1
f 224/193/1 222/155/1 225/194/1
f 353/195/1 347/164/1 352/135/1
f 105/196/36 100/97/22 101/99/19
f 18/95/42 13/197/66 14/139/56
f 351/198/1 321/199/1 359/200/1
f 181/169/1 178/201/1 182/54/1
f 226/202/1 227/152/1 232/129/1
f 10/203/67 4/204/68 5/205/69
f 329/206/1 346/81/1 340/207/1
f 152/208/1 144/41/18 151/43/1
f 213/209/18 216/151/1 214/210/1
f 195/192/1 196/211/1 201/212/1
f 174/213/1 191/214/1 172/215/1
f 281/107/47 266/216/70 271/217/71
f 143/218/1 141/219/1 144/41/18
f 112/220/6 115/221/13 117/166/13
f 113/165/6 101/99/19 112/220/6
f 29/131/55 30/222/72 44/103/44
f 317/223/1 311/44/1 316/46/1
f 53/224/22 50/64/34 55/225/20
f 73/226/13 89/175/14 78/227/14
f 13/197/66 8/148/61 9/228/73
f 94/229/34 102/230/32 98/231/32
f 29/131/55 139/232/1 31/233/74
f 157/234/1 166/235/1 167/236/1
f 106/237/32 107/238/34 127/239/32
f 176/240/1 40/57/27 164/241/1
f 278/242/75 294/80/1 290/243/1
f 77/134/13 81/24/14 82/132/14
f 342/163/1 329/206/1 340/207/1
f 332/3/1 329/206/1 333/244/1
f 72/145/6 76/22/13 77/134/13
f 328/245/1 341/82/1 329/206/1
f 152/208/1 156/246/1 157/234/1
f 228/247/1 231/248/1 233/249/1
f 331/2/1 328/245/1 332/3/1
f 337/84/1 335/1/1 338/85/1
f 338/85/1 336/250/1 339/156/1
f 68/251/6 69/68/36 74/252/6
f 126/253/22 107/238/34 108/254/20
f 223/255/1 129/256/76 124/184/14
f 210/257/1 194/258/1 211/127/1
f 155/259/1 148/260/1 153/261/1
f 46/69/37 55/225/20 37/50/23
f 21/262/77 5/205/69 19/263/78
f 155/259/1 158/264/79 160/28/15
f 319/178/1 302/154/1 320/90/1
f 139/232/1 32/265/80 31/233/74
f 26/266/81 19/263/78 24/267/82
f 288/268/83 315/269/1 310/27/1
f 234/15/1 228/247/1 233/249/1
f 95/36/20 111/9/5 96/98/5
f 178/201/1 191/214/1 179/270/1
f 222/155/1 218/180/1 219/181/1
f 204/271/1 208/272/1 199/273/1
f 284/274/84 282/275/85 285/276/86
f 212/183/1 87/277/14 205/182/1
f 140/278/18 137/279/1 141/219/1
f 73/226/13 74/252/6 79/174/13
f 295/280/1 292/281/1 296/11/1
f 158/264/79 159/282/18 170/283/87
f 145/48/1 143/218/1 146/49/1
f 151/43/1 155/259/1 156/246/1
f 123/284/14 223/255/1 124/184/14
f 91/187/6 77/134/13 88/133/13
f 78/227/14 181/169/1 80/23/14
f 237/128/1 207/285/1 245/286/1
f 36/63/33 55/225/20 50/64/34
f 336/250/1 342/163/1 343/287/18
f 340/207/1 351/198/1 345/136/1
f 192/288/1 195/192/1 197/289/1
f 165/47/1 176/240/1 164/241/1
f 335/1/1 333/244/1 336/250/1
f 96/98/5 116/8/6 110/290/6
f 126/253/22 109/291/5 132/33/19
f 83/124/34 97/38/22 92/37/21
f 140/278/18 135/292/1 136/293/1
f 57/122/34 53/224/22 58/112/22
f 189/117/1 193/294/1 194/258/1
f 219/181/1 226/202/1 228/247/1
f 84/126/22 67/295/36 90/7/5
f 201/212/1 166/235/1 209/189/1
f 118/167/13 122/296/14 123/284/14
f 245/286/1 327/297/1 236/160/1
f 240/100/1 244/32/18 235/13/1
f 75/298/13 68/251/6 73/226/13
f 248/299/88 171/300/89 277/301/90
f 24/267/82 25/5/3 30/222/72
f 136/293/1 134/130/1 138/302/1
f 27/171/64 21/262/77 26/266/81
f 14/139/56 9/228/73 10/203/67
f 167/236/1 196/211/1 174/213/1
f 235/13/1 239/177/1 240/100/1
f 167/236/1 152/208/1 157/234/1
f 199/273/1 193/294/1 198/303/1
f 88/133/13 116/8/6 91/187/6
f 80/23/14 73/226/13 78/227/14
f 19/263/78 20/6/4 25/5/3
f 217/304/1 214/210/1 218/180/1
f 17/52/25 12/305/91 13/197/66
f 298/10/1 204/271/1 203/40/1
f 33/306/92 164/241/1 40/57/27
f 93/307/32 94/229/34 98/231/32
f 110/290/6 121/87/13 115/221/13
f 325/72/1 313/308/1 322/309/1
f 345/136/1 359/200/1 350/137/1
f 172/215/1 152/208/1 174/213/1
f 170/283/87 249/77/39 158/264/79
f 233/249/1 236/160/1 238/161/1
f 137/279/1 154/310/1 148/260/1
f 269/173/65 262/311/93 267/312/94
f 205/182/1 188/313/1 206/314/1
f 183/315/1 178/201/1 179/270/1
f 150/42/18 137/279/1 148/260/1
f 271/217/71 280/108/48 281/107/47
f 162/316/95 156/246/1 161/30/17
f 209/189/1 278/242/75 290/243/1
f 260/17/8 256/29/16 257/317/96
f 275/111/51 269/173/65 274/318/97
f 101/99/19 110/290/6 112/220/6
f 131/88/14 213/209/18 120/86/14
f 287/319/98 268/320/99 263/321/100
f 272/322/101 273/323/102 284/274/84
f 313/308/1 307/324/1 312/325/1
f 211/127/1 199/273/1 208/272/1
f 318/326/1 312/325/1 317/223/1
f 204/271/1 198/303/1 203/40/1
f 274/318/97 267/312/94 272/322/101
f 292/281/1 290/243/1 294/80/1
f 190/327/1 191/214/1 196/211/1
f 288/268/83 261/18/9 266/216/70
f 66/125/22 61/153/34 62/141/22
f 172/215/1 180/328/1 165/47/1
f 53/224/22 69/68/36 54/113/52
f 32/265/80 26/266/81 31/233/74
f 169/329/18 149/330/1 173/331/18
f 107/238/34 104/119/22 108/254/20
f 303/91/1 307/324/1 308/71/1
f 11/149/62 12/305/91 15/332/103
f 283/333/104 273/323/102 268/320/99
f 165/47/1 147/334/18 172/215/1
f 241/335/1 224/193/1 242/336/1
f 114/34/6 105/196/36 113/165/6
f 159/282/18 171/300/89 170/283/87
f 318/326/1 322/309/1 313/308/1
f 307/324/1 297/66/1 306/162/1
f 326/179/1 207/285/1 319/178/1
f 51/62/32 52/337/34 56/121/32
f 300/92/1 296/11/1 297/66/1
f 255/60/30 250/78/40 251/338/105
f 99/120/34 106/237/32 102/230/32
f 309/172/1 310/27/1 315/269/1
f 221/339/1 217/304/1 218/180/1
f 262/311/93 263/321/100 268/320/99
f 161/30/17 259/340/106 162/316/95
f 2/143/58 3/341/107 7/147/60
f 301/342/1 207/285/1 204/271/1
f 361/343/1 339/156/1 344/73/1
f 168/344/1 154/310/1 169/329/18
f 217/304/1 123/284/14 122/296/14
f 185/55/1 183/315/1 186/118/1
f 288/268/83 305/26/1 286/16/7
f 222/155/1 228/247/1 229/14/1
f 173/331/18 138/302/1 175/345/1
f 334/176/1 240/100/1 239/177/1
f 158/264/79 253/346/108 160/28/15
f 71/146/6 75/298/13 76/22/13
f 266/216/70 258/347/109 265/59/29
f 279/79/41 259/340/106 260/17/8
f 89/175/14 177/348/1 78/227/14
f 210/257/1 232/129/1 227/152/1
f 267/312/94 268/320/99 273/323/102
f 292/281/1 305/26/1 293/65/1
f 261/18/9 257/317/96 258/347/109
f 354/349/1 358/350/1 349/75/1
f 32/265/80 145/48/1 33/306/92
f 31/233/74 24/267/82 29/131/55
f 242/336/1 225/194/1 246/93/1
f 117/166/13 120/86/14 122/296/14
f 187/351/1 87/277/14 82/132/14
f 184/53/1 82/132/14 81/24/14
f 258/347/109 254/76/38 255/60/30
f 291/190/1 202/39/1 200/191/1
f 210/257/1 216/151/1 206/314/1
f 147/334/18 143/218/1 144/41/18
f 178/201/1 176/240/1 180/328/1
f 339/156/1 343/287/18 344/73/1
f 4/204/68 1/21/12 6/20/11
f 49/352/110 20/6/4 6/20/11
f 5/205/69 6/20/11 20/6/4
f 251/338/105 252/353/111 263/321/100
f 224/193/1 220/354/1 221/339/1
f 348/74/1 342/163/1 347/164/1
f 186/118/1 192/288/1 193/294/1
f 41/58/28 74/252/6 48/67/35
f 203/40/1 197/289/1 202/39/1
f 226/202/1 237/128/1 231/248/1
f 22/140/57 10/203/67 21/262/77
f 264/61/31 251/338/105 262/311/93
f 43/355/112 30/222/72 25/5/3
f 133/35/6 119/186/13 130/185/13
f 46/69/37 17/52/25 18/95/42
f 33/306/92 27/171/64 32/265/80
f 320/90/1 303/91/1 324/70/1
f 192/288/1 179/270/1 190/327/1
f 15/332/103 16/51/24 38/115/53
f 59/114/52 68/251/6 70/168/6
f 121/87/13 87/277/14 131/88/14
f 193/294/1 197/289/1 198/303/1
f 206/314/1 189/117/1 210/257/1
f 119/186/13 123/284/14 124/184/14
f 175/345/1 134/130/1 163/188/1
f 99/120/34 95/36/20 100/97/22
f 41/58/28 23/96/43 28/56/26
f 9/228/73 3/341/107 4/204/68
f 307/324/1 311/44/1 312/325/1
f 156/246/1 160/28/15 161/30/17
f 325/72/1 351/198/1 346/81/1
f 309/172/1 323/106/1 314/45/1
f 327/297/1 330/89/1 328/245/1
f 234/15/1 238/161/1 239/177/1
f 142/356/1 140/278/18 143/218/1
f 137/279/1 138/302/1 149/330/1
f 250/78/40 248/299/88 252/353/111
f 197/289/1 200/191/1 202/39/1
f 271/217/71 265/59/29 270/110/50
f 257/317/96 253/346/108 254/76/38
f 127/239/32 125/357/113 128/358/32
f 162/316/95 278/242/75 166/235/1
f 349/75/1 353/195/1 354/349/1
f 188/313/1 184/53/1 185/55/1
f 277/301/90 252/353/111 248/299/88
f 289/359/114 263/321/100 252/353/111
f 67/295/36 62/141/22 63/142/36
f 236/160/1 237/128/1 245/286/1
f 358/350/1 344/73/1 349/75/1
f 153/261/1 154/310/1 159/282/18
f 108/254/20 105/196/36 109/291/5
f 213/209/18 122/296/14 120/86/14
f 335/1/1 334/176/1 331/2/1
f 47/4/2 43/355/112 25/5/3
f 90/7/5 91/187/6 116/8/6
f 298/10/1 295/280/1 296/11/1
f 235/13/1 230/94/1 229/14/1
f 286/16/7 279/79/41 260/17/8
f 35/19/10 49/352/110 6/20/11
f 76/22/13 75/298/13 80/23/14
f 304/25/1 293/65/1 305/26/1
f 160/28/15 253/346/108 256/29/16
f 247/31/1 230/94/1 235/13/1
f 132/33/19 109/291/5 114/34/6
f 95/36/20 94/229/34 92/37/21
f 202/39/1 295/280/1 298/10/1
f 144/41/18 141/219/1 150/42/18
f 311/44/1 309/172/1 314/45/1
f 165/47/1 164/241/1 145/48/1
f 37/50/23 36/63/33 16/51/24
f 184/53/1 181/169/1 182/54/1
f 28/56/26 33/306/92 40/57/27
f 265/59/29 258/347/109 255/60/30
f 51/62/32 39/116/54 36/63/33
f 296/11/1 292/281/1 293/65/1
f 48/67/35 74/252/6 69/68/36
f 324/70/1 303/91/1 308/71/1
f 344/73/1 343/287/18 348/74/1
f 254/76/38 253/346/108 249/77/39
f 279/79/41 286/16/7 305/26/1
f 324/70/1 325/72/1 346/81/1
f 356/83/1 355/101/1 337/84/1
f 120/86/14 115/221/13 121/87/13
f 324/70/1 341/82/1 330/89/1
f 303/91/1 302/154/1 299/12/1
f 246/93/1 225/194/1 230/94/1
f 48/67/35 46/69/37 18/95/42
f 100/97/22 95/36/20 96/98/5
f 240/100/1 337/84/1 355/101/1
f 44/103/44 30/222/72 42/104/45
f 323/106/1 315/269/1 281/107/47
f 276/109/49 271/217/71 270/110/50
f 58/112/22 53/224/22 54/113/52
f 38/115/53 16/51/24 36/63/33
f 189/117/1 188/313/1 185/55/1
f 104/119/22 103/360/34 99/120/34
f 56/121/32 52/337/34 57/122/34
f 83/124/34 65/158/34 66/125/22
f 211/127/1 208/272/1 237/128/1
f 90/7/5 111/9/5 97/38/22
f 134/130/1 135/292/1 29/131/55
f 82/132/14 87/277/14 88/133/13
f 352/135/1 347/164/1 345/136/1
f 92/37/21 93/307/32 86/138/32
f 23/96/43 18/95/42 14/139/56
f 62/141/22 58/112/22 59/114/52
f 35/19/10 1/21/12 2/143/58
f 72/145/6 67/295/36 63/142/36
f 7/147/60 3/341/107 8/148/61
f 215/150/1 214/210/1 216/151/1
f 61/153/34 57/122/34 58/112/22
f 302/154/1 301/342/1 298/10/1
f 230/94/1 225/194/1 222/155/1
f 356/83/1 338/85/1 339/156/1
f 65/158/34 83/124/34 86/138/32
f 236/160/1 327/297/1 331/2/1
f 297/66/1 293/65/1 304/25/1
f 342/163/1 340/207/1 345/136/1
f 113/165/6 112/220/6 117/166/13
f 63/142/36 59/114/52 70/168/6
f 181/169/1 184/53/1 81/24/14
f 57/122/34 61/153/34 64/170/32
f 28/56/26 23/96/43 22/140/57
f 306/162/1 304/25/1 309/172/1
f 270/110/50 265/59/29 264/61/31
f 79/174/13 41/58/28 40/57/27
f 238/161/1 331/2/1 334/176/1
f 319/178/1 320/90/1 330/89/1
f 218/180/1 214/210/1 215/150/1
f 64/170/32 61/153/34 65/158/34
f 205/182/1 206/314/1 216/151/1
f 124/184/14 129/256/76 130/185/13
f 90/7/5 67/295/36 72/145/6
f 44/103/44 45/105/46 163/188/1
f 119/186/13 114/34/6 113/165/6
f 209/189/1 290/243/1 291/190/1
f 195/192/1 201/212/1 209/189/1
f 224/193/1 221/339/1 222/155/1
f 353/195/1 348/74/1 347/164/1
f 105/196/36 104/119/22 100/97/22
f 18/95/42 17/52/25 13/197/66
f 351/198/1 322/309/1 321/199/1
f 181/169/1 177/348/1 178/201/1
f 226/202/1 215/150/1 227/152/1
f 10/203/67 9/228/73 4/204/68
f 329/206/1 341/82/1 346/81/1
f 152/208/1 147/334/18 144/41/18
f 213/209/18 212/183/1 216/151/1
f 195/192/1 190/327/1 196/211/1
f 174/213/1 196/211/1 191/214/1
f 281/107/47 288/268/83 266/216/70
f 143/218/1 140/278/18 141/219/1
f 112/220/6 110/290/6 115/221/13
f 113/165/6 105/196/36 101/99/19
f 29/131/55 24/267/82 30/222/72
f 317/223/1 312/325/1 311/44/1
f 53/224/22 52/337/34 50/64/34
f 73/226/13 79/174/13 89/175/14
f 13/197/66 12/305/91 8/148/61
f 94/229/34 99/120/34 102/230/32
f 29/131/55 135/292/1 139/232/1
f 157/234/1 162/316/95 166/235/1
f 106/237/32 103/360/34 107/238/34
f 176/240/1 89/175/14 40/57/27
f 278/242/75 279/79/41 294/80/1
f 77/134/13 76/22/13 81/24/14
f 342/163/1 333/244/1 329/206/1
f 332/3/1 328/245/1 329/206/1
f 72/145/6 71/146/6 76/22/13
f 328/245/1 330/89/1 341/82/1
f 152/208/1 151/43/1 156/246/1
f 228/247/1 226/202/1 231/248/1
f 331/2/1 327/297/1 328/245/1
f 337/84/1 334/176/1 335/1/1
f 338/85/1 335/1/1 336/250/1
f 68/251/6 54/113/52 69/68/36
f 126/253/22 125/357/113 107/238/34
f 223/255/1 241/335/1 129/256/76
f 210/257/1 189/117/1 194/258/1
f 155/259/1 150/42/18 148/260/1
f 46/69/37 69/68/36 55/225/20
f 21/262/77 10/203/67 5/205/69
f 155/259/1 153/261/1 158/264/79
f 319/178/1 301/342/1 302/154/1
f 139/232/1 142/356/1 32/265/80
f 26/266/81 21/262/77 19/263/78
f 288/268/83 281/107/47 315/269/1
f 234/15/1 229/14/1 228/247/1
f 95/36/20 97/38/22 111/9/5
f 178/201/1 180/328/1 191/214/1
f 222/155/1 221/339/1 218/180/1
f 204/271/1 207/285/1 208/272/1
f 284/274/84 273/323/102 282/275/85
f 212/183/1 131/88/14 87/277/14
f 140/278/18 136/293/1 137/279/1
f 73/226/13 68/251/6 74/252/6
f 295/280/1 291/190/1 292/281/1
f 158/264/79 153/261/1 159/282/18
f 145/48/1 142/356/1 143/218/1
f 151/43/1 150/42/18 155/259/1
f 123/284/14 220/354/1 223/255/1
f 91/187/6 72/145/6 77/134/13
f 78/227/14 177/348/1 181/169/1
f 237/128/1 208/272/1 207/285/1
f 36/63/33 37/50/23 55/225/20
f 336/250/1 333/244/1 342/163/1
f 340/207/1 346/81/1 351/198/1
f 192/288/1 190/327/1 195/192/1
f 165/47/1 180/328/1 176/240/1
f 335/1/1 332/3/1 333/244/1
f 96/98/5 111/9/5 116/8/6
f 126/253/22 108/254/20 109/291/5
f 83/124/34 84/126/22 97/38/22
f 140/278/18 139/232/1 135/292/1
f 57/122/34 52/337/34 53/224/22
f 189/117/1 186/118/1 193/294/1
f 219/181/1 215/150/1 226/202/1
f 84/126/22 66/125/22 67/295/36
f 201/212/1 167/236/1 166/235/1
f 118/167/13 117/166/13 122/296/14
f 245/286/1 326/179/1 327/297/1
f 240/100/1 243/102/18 244/32/18
f 75/298/13 70/168/6 68/251/6
f 248/299/88 170/283/87 171/300/89
f 24/267/82 19/263/78 25/5/3
f 136/293/1 135/292/1 134/130/1
f 27/171/64 22/140/57 21/262/77
f 14/139/56 13/197/66 9/228/73
f 167/236/1 201/212/1 196/211/1
f 235/13/1 234/15/1 239/177/1
f 167/236/1 174/213/1 152/208/1
f 199/273/1 194/258/1 193/294/1
f 88/133/13 121/87/13 116/8/6
f 80/23/14 75/298/13 73/226/13
f 19/263/78 5/205/69 20/6/4
f 217/304/1 213/209/18 214/210/1
f 17/52/25 16/51/24 12/305/91
f 298/10/1 301/342/1 204/271/1
f 33/306/92 145/48/1 164/241/1
f 93/307/32 92/37/21 94/229/34
f 110/290/6 116/8/6 121/87/13
f 325/72/1 308/71/1 313/308/1
f 345/136/1 351/198/1 359/200/1
f 172/215/1 147/334/18 152/208/1
f 170/283/87 248/299/88 249/77/39
f 233/249/1 231/248/1 236/160/1
f 137/279/1 149/330/1 154/310/1
f 269/173/65 264/61/31 262/311/93
f 205/182/1 187/351/1 188/313/1
f 183/315/1 182/54/1 178/201/1
f 150/42/18 141/219/1 137/279/1
f 271/217/71 276/109/49 280/108/48
f 162/316/95 157/234/1 156/246/1
f 209/189/1 166/235/1 278/242/75
f 260/17/8 259/340/106 256/29/16
f 275/111/51 270/110/50 269/173/65
f 101/99/19 96/98/5 110/290/6
f 131/88/14 212/183/1 213/209/18
f 287/319/98 283/333/104 268/320/99
f 272/322/101 267/312/94 273/323/102
f 313/308/1 308/71/1 307/324/1
f 211/127/1 194/258/1 199/273/1
f 318/326/1 313/308/1 312/325/1
f 204/271/1 199/273/1 198/303/1
f 274/318/97 269/173/65 267/312/94
f 292/281/1 291/190/1 290/243/1
f 190/327/1 179/270/1 191/214/1
f 288/268/83 286/16/7 261/18/9
f 66/125/22 65/158/34 61/153/34
f 172/215/1 191/214/1 180/328/1
f 53/224/22 55/225/20 69/68/36
f 32/265/80 27/171/64 26/266/81
f 169/329/18 154/310/1 149/330/1
f 107/238/34 103/360/34 104/119/22
f 303/91/1 300/92/1 307/324/1
f 11/149/62 8/148/61 12/305/91
f 283/333/104 282/275/85 273/323/102
f 165/47/1 146/49/1 147/334/18
f 241/335/1 223/255/1 224/193/1
f 114/34/6 109/291/5 105/196/36
f 159/282/18 168/344/1 171/300/89
f 318/326/1 321/199/1 322/309/1
f 307/324/1 300/92/1 297/66/1
f 326/179/1 245/286/1 207/285/1
f 51/62/32 50/64/34 52/337/34
f 300/92/1 299/12/1 296/11/1
f 255/60/30 254/76/38 250/78/40
f 99/120/34 103/360/34 106/237/32
f 309/172/1 304/25/1 310/27/1
f 221/339/1 220/354/1 217/304/1
f 262/311/93 251/338/105 263/321/100
f 161/30/17 256/29/16 259/340/106
f 2/143/58 1/21/12 3/341/107
f 301/342/1 319/178/1 207/285/1
f 361/343/1 360/157/18 339/156/1
f 168/344/1 159/282/18 154/310/1
f 217/304/1 220/354/1 123/284/14
f 185/55/1 182/54/1 183/315/1
f 288/268/83 310/27/1 305/26/1
f 222/155/1 219/181/1 228/247/1
f 173/331/18 149/330/1 138/302/1
f 334/176/1 337/84/1 240/100/1
f 158/264/79 249/77/39 253/346/108
f 71/146/6 70/168/6 75/298/13
f 266/216/70 261/18/9 258/347/109
f 279/79/41 278/242/75 259/340/106
f 89/175/14 176/240/1 177/348/1
f 210/257/1 211/127/1 232/129/1
f 267/312/94 262/311/93 268/320/99
f 292/281/1 294/80/1 305/26/1
f 261/18/9 260/17/8 257/317/96
f 354/349/1 357/361/18 358/350/1
f 32/265/80 142/356/1 145/48/1
f 31/233/74 26/266/81 24/267/82
f 242/336/1 224/193/1 225/194/1
f 117/166/13 115/221/13 120/86/14
f 187/351/1 205/182/1 87/277/14
f 184/53/1 187/351/1 82/132/14
f 258/347/109 257/317/96 254/76/38
f 291/190/1 295/280/1 202/39/1
f 210/257/1 227/152/1 216/151/1
f 147/334/18 146/49/1 143/218/1
f 178/201/1 177/348/1 176/240/1
f 339/156/1 336/250/1 343/287/18
f 4/204/68 3/341/107 1/21/12
f 49/352/110 47/4/2 20/6/4
f 5/205/69 4/204/68 6/20/11
f 251/338/105 250/78/40 252/353/111
f 224/193/1 223/255/1 220/354/1
f 348/74/1 343/287/18 342/163/1
f 186/118/1 183/315/1 192/288/1
f 41/58/28 79/174/13 74/252/6
f 203/40/1 198/303/1 197/289/1
f 226/202/1 232/129/1 237/128/1
f 22/140/57 14/139/56 10/203/67
f 264/61/31 255/60/30 251/338/105
f 43/355/112 42/104/45 30/222/72
f 133/35/6 114/34/6 119/186/13
f 46/69/37 37/50/23 17/52/25
f 33/306/92 28/56/26 27/171/64
f 320/90/1 302/154/1 303/91/1
f 192/288/1 183/315/1 179/270/1
f 15/332/103 12/305/91 16/51/24
f 59/114/52 54/113/52 68/251/6
f 121/87/13 88/133/13 87/277/14
f 193/294/1 192/288/1 197/289/1
f 206/314/1 188/313/1 189/117/1
f 119/186/13 118/167/13 123/284/14
f 175/345/1 138/302/1 134/130/1
f 99/120/34 94/229/34 95/36/20
f 41/58/28 48/67/35 23/96/43
f 9/228/73 8/148/61 3/341/107
f 307/324/1 306/162/1 311/44/1
f 156/246/1 155/259/1 160/28/15
f 325/72/1 322/309/1 351/198/1
f 309/172/1 315/269/1 323/106/1
f 327/297/1 326/179/1 330/89/1
f 234/15/1 233/249/1 238/161/1
f 142/356/1 139/232/1 140/278/18
f 137/279/1 136/293/1 138/302/1
f 250/78/40 249/77/39 248/299/88
f 197/289/1 195/192/1 200/191/1
f 271/217/71 266/216/70 265/59/29
f 257/317/96 256/29/16 253/346/108
f 127/239/32 107/238/34 125/357/113
f 162/316/95 259/340/106 278/242/75
f 349/75/1 348/74/1 353/195/1
f 188/313/1 187/351/1 184/53/1
f 277/301/90 289/359/114 252/353/111
f 289/359/114 287/319/98 263/321/100
f 67/295/36 66/125/22 62/141/22
f 236/160/1 231/248/1 237/128/1
f 358/350/1 361/343/1 344/73/1
f 153/261/1 148/260/1 154/310/1
f 108/254/20 104/119/22 105/196/36
f 213/209/18 217/304/1 122/296/14
