# Blender 3.6.23
# www.blender.org
o sol.035
v -0.400096 2.082392 -3.239271
v -0.400096 1.993812 -3.239271
v -0.400096 1.993812 -3.196516
v -0.400096 2.082392 -3.196516
v -0.399826 2.083401 -3.239271
v -0.399826 2.083082 -3.239961
v -0.399826 2.082392 -3.240281
v -0.399826 1.993812 -3.240281
v -0.399826 1.993122 -3.239961
v -0.399826 1.992801 -3.239271
v -0.399826 1.992801 -3.196516
v -0.399826 1.993122 -3.195827
v -0.399826 1.993812 -3.195506
v -0.399826 2.082392 -3.195506
v -0.399826 2.083082 -3.195827
v -0.399826 2.083401 -3.196516
v -0.399087 2.084141 -3.239271
v -0.399087 2.083586 -3.240466
v -0.399087 2.082392 -3.241021
v -0.399087 1.993812 -3.241021
v -0.399087 1.992617 -3.240466
v -0.399087 1.992062 -3.239271
v -0.399087 1.992062 -3.196516
v -0.399087 1.992617 -3.195322
v -0.399087 1.993812 -3.194766
v -0.399087 2.082392 -3.194766
v -0.399087 2.083586 -3.195322
v -0.399087 2.084141 -3.196516
v -0.398077 2.084412 -3.239271
v -0.398077 2.083771 -3.240652
v -0.398077 2.082392 -3.241291
v -0.398077 1.993812 -3.241291
v -0.398077 1.992432 -3.240652
v -0.398077 1.991789 -3.239271
v -0.398077 1.991789 -3.196516
v -0.398077 1.992432 -3.195136
v -0.398077 1.993812 -3.194496
v -0.398077 2.082392 -3.194496
v -0.398077 2.083771 -3.195136
v -0.398077 2.084412 -3.196516
v 2.192175 2.084412 -3.239271
v 2.192175 2.083771 -3.240652
v 2.192175 2.082392 -3.241291
v 2.192175 1.993812 -3.241291
v 2.192175 1.992432 -3.240652
v 2.192175 1.991791 -3.239271
v 2.192175 1.991791 -3.196516
v 2.192175 1.992432 -3.195136
v 2.192175 1.993812 -3.194496
v 2.192175 2.082392 -3.194496
v 2.192175 2.083771 -3.195136
v 2.192175 2.084412 -3.196516
v 2.193185 2.084141 -3.239271
v 2.193185 2.083586 -3.240466
v 2.193185 2.082392 -3.241021
v 2.193185 1.993812 -3.241021
v 2.193185 1.992617 -3.240466
v 2.193185 1.992062 -3.239271
v 2.193185 1.992062 -3.196516
v 2.193185 1.992617 -3.195322
v 2.193185 1.993812 -3.194766
v 2.193185 2.082392 -3.194766
v 2.193185 2.083586 -3.195322
v 2.193185 2.084141 -3.196516
v 2.193925 2.083401 -3.239271
v 2.193925 2.083082 -3.239961
v 2.193925 2.082392 -3.240281
v 2.193925 1.993812 -3.240281
v 2.193925 1.993122 -3.239961
v 2.193925 1.992801 -3.239271
v 2.193925 1.992801 -3.196516
v 2.193925 1.993122 -3.195827
v 2.193925 1.993812 -3.195506
v 2.193925 2.082392 -3.195506
v 2.193925 2.083082 -3.195827
v 2.193925 2.083401 -3.196516
v 2.194195 2.082392 -3.239271
v 2.194195 1.993812 -3.239271
v 2.194195 1.993812 -3.196516
v 2.194195 2.082392 -3.196516
v 2.193925 2.083401 -3.217894
v -0.399087 2.084141 -3.217894
v 2.192175 2.084412 -3.217894
v -0.400096 1.993812 -3.217894
v 2.194195 1.993812 -3.217894
v 2.194195 2.082392 -3.217894
v -0.398077 2.084412 -3.217894
v -0.399826 2.083401 -3.217894
v -0.398077 1.991789 -3.217894
v 2.193185 1.992062 -3.217894
v -0.399087 1.992062 -3.217894
v 2.193185 2.084141 -3.217894
v 2.193925 1.992801 -3.217894
v -0.399826 1.992801 -3.217894
v -0.400096 2.082392 -3.217894
v 2.192175 1.991791 -3.217894
v 2.193925 2.083401 -3.207205
v -0.399087 2.084141 -3.207205
v 2.192175 2.084412 -3.207205
v -0.400096 1.993812 -3.207205
v 2.194195 1.993812 -3.207205
v 2.194195 2.082392 -3.207205
v -0.398077 2.084412 -3.207205
v -0.399826 2.083401 -3.207205
v -0.398077 1.991789 -3.207205
v 2.193185 1.992062 -3.207205
v -0.399087 1.992062 -3.207205
v 2.193185 2.084141 -3.207205
v 2.193925 1.992801 -3.207205
v -0.399826 1.992801 -3.207205
v -0.400096 2.082392 -3.207205
v 2.192175 1.991791 -3.207205
v 2.193925 2.083401 -3.228583
v -0.399087 2.084141 -3.228583
v 2.192175 2.084412 -3.228583
v -0.400096 1.993812 -3.228583
v 2.194195 1.993812 -3.228583
v 2.194195 2.082392 -3.228583
v -0.398077 2.084412 -3.228583
v -0.399826 2.083401 -3.228583
v -0.398077 1.991789 -3.228583
v 2.193185 1.992062 -3.228583
v -0.399087 1.992062 -3.228583
v 2.193185 2.084141 -3.228583
v 2.193925 1.992801 -3.228583
v -0.399826 1.992801 -3.228583
v -0.400096 2.082392 -3.228583
v 2.192175 1.991791 -3.228583
v 2.192175 2.015956 -3.194496
v 2.192175 2.038101 -3.194496
v 2.192175 2.060246 -3.194496
v -0.400096 2.015956 -3.196516
v -0.400096 2.038101 -3.196516
v -0.400096 2.060246 -3.196516
v 2.193185 2.015956 -3.194766
v 2.193185 2.038101 -3.194766
v 2.193185 2.060246 -3.194766
v -0.400096 2.060246 -3.239271
v -0.400096 2.038102 -3.239271
v -0.400096 2.015957 -3.239271
v -0.398077 2.060246 -3.241291
v -0.398077 2.038102 -3.241291
v -0.398077 2.015957 -3.241291
v -0.399826 2.015956 -3.195506
v -0.399826 2.038101 -3.195506
v -0.399826 2.060246 -3.195506
v -0.399087 2.015956 -3.194766
v -0.399087 2.038101 -3.194766
v -0.399087 2.060246 -3.194766
v 2.193925 2.015956 -3.195506
v 2.193925 2.038101 -3.195506
v 2.193925 2.060246 -3.195506
v 2.193925 2.060246 -3.240281
v 2.193925 2.038102 -3.240281
v 2.193925 2.015957 -3.240281
v 2.192175 2.060246 -3.241291
v 2.192175 2.038102 -3.241291
v 2.192175 2.015957 -3.241291
v 2.193185 2.060246 -3.241021
v 2.193185 2.038102 -3.241021
v 2.193185 2.015957 -3.241021
v 2.194195 2.015956 -3.196516
v 2.194195 2.038101 -3.196516
v 2.194195 2.060246 -3.196516
v -0.399826 2.060246 -3.240281
v -0.399826 2.038102 -3.240281
v -0.399826 2.015957 -3.240281
v -0.399087 2.060246 -3.241021
v -0.399087 2.038102 -3.241021
v -0.399087 2.015957 -3.241021
v -0.398077 2.015956 -3.194496
v -0.398077 2.038101 -3.194496
v -0.398077 2.060246 -3.194496
v 2.194195 2.060246 -3.239271
v 2.194195 2.038102 -3.239271
v 2.194195 2.015957 -3.239271
v -0.400096 2.015956 -3.217894
v -0.400096 2.038101 -3.217894
v -0.400096 2.060246 -3.217894
v 2.194195 2.015956 -3.217894
v 2.194195 2.038101 -3.217894
v 2.194195 2.060246 -3.217894
v -0.400096 2.015956 -3.207205
v -0.400096 2.038101 -3.207205
v -0.400096 2.060246 -3.207205
v 2.194195 2.015956 -3.207205
v 2.194195 2.038101 -3.207205
v 2.194195 2.060246 -3.207205
v 2.194195 2.015956 -3.228583
v 2.194195 2.038101 -3.228583
v 2.194195 2.060246 -3.228583
v -0.400096 2.015956 -3.228583
v -0.400096 2.038101 -3.228583
v -0.400096 2.060246 -3.228583
v 0.647614 1.999269 -3.198309
v 0.647134 1.998791 -3.198309
v 0.646479 1.998614 -3.198309
v 0.638289 1.998614 -3.183534
v 0.647789 2.006804 -3.183534
v 0.647614 2.007459 -3.183534
v 0.638289 2.008114 -3.198309
v 0.637634 2.007939 -3.198309
v 0.637154 2.007459 -3.198309
v 0.636979 2.006804 -3.198309
v 0.636979 1.999927 -3.198309
v 0.637154 1.999269 -3.198309
v 0.637634 1.998791 -3.198309
v 0.638289 1.998614 -3.198309
v 0.647789 1.999927 -3.198309
v 0.647789 2.006804 -3.198309
v 0.647614 2.007459 -3.198309
v 0.647134 2.007939 -3.198309
v 0.646479 2.008114 -3.198309
v 0.638289 2.008114 -3.183534
v 0.637634 2.007939 -3.183534
v 0.637154 1.999269 -3.183534
v 0.637634 1.998791 -3.183534
v 0.636979 2.006804 -3.183534
v 0.636979 1.999927 -3.183534
v 0.647614 1.999269 -3.183534
v 0.647789 1.999927 -3.183534
v 0.647134 2.007939 -3.183534
v 0.646479 2.008114 -3.183534
v 0.646479 1.998614 -3.183534
v 0.647134 1.998791 -3.183534
v 0.637154 2.007459 -3.183534
v -0.399351 1.990055 -3.176704
v -0.399351 2.016791 -3.176704
v -0.399351 2.016791 -3.183876
v -0.399351 1.990451 -3.183876
v -0.399351 1.983734 -3.062067
v -0.399351 2.016791 -3.062067
v -0.399351 1.983338 -3.054892
v -0.399351 2.016791 -3.054892
v -0.398957 2.018266 -3.183876
v -0.398957 2.017799 -3.184887
v -0.398957 2.016791 -3.185354
v -0.398957 1.990532 -3.185354
v -0.398957 1.989498 -3.184887
v -0.398957 1.988973 -3.183876
v -0.398957 1.988578 -3.176704
v -0.398957 1.982256 -3.062067
v -0.398957 1.981860 -3.054892
v -0.398957 1.982274 -3.053884
v -0.398957 1.983257 -3.053417
v -0.398957 2.016791 -3.053417
v -0.398957 2.017799 -3.053884
v -0.398957 2.018266 -3.054892
v -0.398957 2.018266 -3.062067
v -0.398957 2.018266 -3.176704
v -0.397877 2.018538 -3.185624
v -0.397877 2.019349 -3.183876
v -0.397877 2.016791 -3.186434
v -0.397877 1.990592 -3.186434
v -0.397877 1.988800 -3.185624
v -0.397877 1.987893 -3.183876
v -0.397877 1.987498 -3.176704
v -0.397877 1.981176 -3.062067
v -0.397877 1.980780 -3.054892
v -0.397877 1.981494 -3.053147
v -0.397877 1.983197 -3.052337
v -0.397877 2.016791 -3.052337
v -0.397877 2.018538 -3.053147
v -0.397877 2.019349 -3.054892
v -0.397877 2.019349 -3.062067
v -0.397877 2.019349 -3.176704
v -0.396399 2.018808 -3.185894
v -0.396399 2.019744 -3.183876
v -0.396399 2.016791 -3.186831
v -0.396399 1.990614 -3.186831
v -0.396399 1.988545 -3.185894
v -0.396399 1.987498 -3.183876
v -0.396399 1.987103 -3.176704
v -0.396399 1.980781 -3.062067
v -0.396399 1.980386 -3.054892
v -0.396399 1.981209 -3.052877
v -0.396399 1.983175 -3.051939
v -0.396399 2.016791 -3.051939
v -0.396399 2.018808 -3.052877
v -0.396399 2.019744 -3.054892
v -0.396399 2.019744 -3.062067
v -0.396399 2.019744 -3.176704
v -0.324904 2.018808 -3.185894
v -0.324904 2.019744 -3.183876
v -0.324904 2.016791 -3.186829
v -0.324904 1.990614 -3.186829
v -0.324904 1.988545 -3.185894
v -0.324904 1.987498 -3.183876
v -0.324904 1.987103 -3.176704
v -0.324904 1.980781 -3.062067
v -0.324904 1.980386 -3.054892
v -0.324904 1.981209 -3.052877
v -0.324904 1.983175 -3.051939
v -0.324904 2.016791 -3.051939
v -0.324904 2.018808 -3.052877
v -0.324904 2.019744 -3.054892
v -0.324904 2.019744 -3.062067
v -0.324904 2.019744 -3.176704
v 2.120490 2.018808 -3.185894
v 2.120490 2.019744 -3.183876
v 2.120490 2.016791 -3.186829
v 2.120490 1.990614 -3.186829
v 2.120490 1.988545 -3.185894
v 2.120490 1.987498 -3.183876
v 2.120490 1.987103 -3.176704
v 2.118638 1.985431 -3.063919
v -0.323052 1.985431 -3.063919
v -0.323052 1.991548 -3.174852
v 2.118638 1.991548 -3.174852
v 2.120490 1.980386 -3.054892
v 2.120490 1.980781 -3.062067
v 2.120490 1.981209 -3.052877
v 2.120490 1.983175 -3.051939
v 2.120490 2.016791 -3.051939
v 2.120490 2.018808 -3.052877
v 2.120490 2.019744 -3.054892
v 2.120490 2.019744 -3.062067
v 2.106320 2.036916 -3.156084
v -0.310732 2.036916 -3.156084
v -0.310732 2.036916 -3.082686
v 2.106320 2.036916 -3.082686
v 2.120490 2.019744 -3.176704
v 2.191983 2.018808 -3.185894
v 2.191983 2.019744 -3.183876
v 2.191983 2.016791 -3.186829
v 2.191983 1.990614 -3.186829
v 2.191983 1.988545 -3.185894
v 2.191983 1.987498 -3.183876
v 2.191983 1.987103 -3.176704
v 2.191983 1.980781 -3.062067
v 2.191983 1.980386 -3.054892
v 2.191983 1.981209 -3.052876
v 2.191983 1.983175 -3.051939
v 2.191983 2.016791 -3.051939
v 2.191983 2.018808 -3.052876
v 2.191983 2.019744 -3.054892
v 2.191983 2.019744 -3.062067
v 2.191983 2.019744 -3.176704
v 2.193460 2.018538 -3.185624
v 2.193460 2.019349 -3.183876
v 2.193460 2.016791 -3.186434
v 2.193460 1.990592 -3.186434
v 2.193460 1.988800 -3.185624
v 2.193460 1.987893 -3.183876
v 2.193460 1.987498 -3.176704
v 2.193460 1.981176 -3.062067
v 2.193460 1.980780 -3.054892
v 2.193460 1.981494 -3.053145
v 2.193460 1.983197 -3.052334
v 2.193460 2.016791 -3.052334
v 2.193460 2.018538 -3.053145
v 2.193460 2.019349 -3.054892
v 2.193460 2.019349 -3.062067
v 2.193460 2.019349 -3.176704
v 2.194540 2.017799 -3.184887
v 2.194540 2.018266 -3.183876
v 2.194540 2.016791 -3.185354
v 2.194540 1.990532 -3.185354
v 2.194540 1.989498 -3.184887
v 2.194540 1.988973 -3.183876
v 2.194540 1.988578 -3.176704
v 2.194540 1.982256 -3.062067
v 2.194540 1.981860 -3.054892
v 2.194540 1.982274 -3.053884
v 2.194540 1.983257 -3.053417
v 2.194540 2.016791 -3.053417
v 2.194540 2.017799 -3.053884
v 2.194540 2.018266 -3.054892
v 2.194540 2.018266 -3.062067
v 2.194540 2.018266 -3.176704
v 2.194935 2.016791 -3.183876
v 2.194935 1.990451 -3.183876
v 2.194935 1.990055 -3.176704
v 2.194935 1.983734 -3.062067
v 2.194935 1.983338 -3.054892
v 2.194935 2.016791 -3.054892
v 2.194935 2.016791 -3.062067
v 2.194935 2.016791 -3.176704
v -0.323894 1.988057 -3.175694
v -0.323894 1.981847 -3.063076
v 2.119480 1.988057 -3.175694
v 2.119480 1.981847 -3.063076
v -0.323219 1.989535 -3.175019
v -0.323219 1.983399 -3.063751
v 2.118808 1.989535 -3.175019
v 2.118808 1.983399 -3.063751
v 2.190204 1.980386 -3.054892
v 2.190204 1.983175 -3.051939
v 2.190204 2.018808 -3.185894
v 2.190204 2.018808 -3.052876
v 2.190204 2.016791 -3.051939
v 2.190204 2.019744 -3.054892
v 2.190204 1.988545 -3.185894
v 2.190204 1.990614 -3.186829
v 2.190204 1.987498 -3.183876
v 2.190204 2.019744 -3.183876
v 2.190204 1.987103 -3.176704
v 2.190204 1.980781 -3.062067
v 2.190204 2.016791 -3.186829
v 2.190204 1.981209 -3.052876
v 2.190204 2.019744 -3.176704
v 2.190204 2.019744 -3.062067
v 2.125268 1.980386 -3.054892
v 2.125268 1.983175 -3.051939
v 2.125268 2.018808 -3.185894
v 2.125268 2.018808 -3.052877
v 2.125268 2.016791 -3.051939
v 2.125268 2.019744 -3.054892
v 2.125268 1.988545 -3.185894
v 2.125268 1.990614 -3.186829
v 2.125268 1.987498 -3.183876
v 2.125268 2.019744 -3.183876
v 2.125268 1.987103 -3.176704
v 2.125268 1.980781 -3.062067
v 2.125268 2.016791 -3.186829
v 2.125268 1.981209 -3.052877
v 2.125268 2.019744 -3.176704
v 2.125268 2.019744 -3.062067
v -0.393212 2.019744 -3.183876
v -0.393212 1.990614 -3.186831
v -0.393212 2.016791 -3.186831
v -0.393212 2.018808 -3.185894
v -0.393212 2.019744 -3.062067
v -0.393212 1.981209 -3.052877
v -0.393212 1.987498 -3.183876
v -0.393212 1.983175 -3.051939
v -0.393212 2.018808 -3.052877
v -0.393212 2.016791 -3.051939
v -0.393212 1.980386 -3.054892
v -0.393212 2.019744 -3.054892
v -0.393212 1.987103 -3.176704
v -0.393212 2.019744 -3.176704
v -0.393212 1.988545 -3.185894
v -0.393212 1.980781 -3.062067
v -0.323732 2.021164 -3.063771
v -0.323732 2.021164 -3.174999
v 2.119319 2.021164 -3.174999
v 2.119319 2.021164 -3.063771
v -0.312275 2.035046 -3.080441
v -0.312275 2.035046 -3.158330
v 2.107864 2.035046 -3.080441
v 2.107864 2.035046 -3.158330
v 2.103508 2.037525 -3.153272
v 2.103508 2.037525 -3.085498
v -0.307920 2.037525 -3.153272
v -0.307920 2.037525 -3.085498
vn -1.0000 -0.0000 -0.0000
vn -0.9592 0.2564 -0.1188
vn -0.6721 0.3117 -0.6716
vn -0.9660 -0.0000 -0.2584
vn -0.9661 -0.2583 -0.0000
vn -0.0000 -0.4206 0.9072
vn -0.6714 -0.3118 0.6723
vn -0.9661 -0.0000 0.2583
vn -0.9592 0.1189 -0.2566
vn -0.9661 0.2582 -0.0000
vn -0.6713 0.6724 -0.3119
vn -0.7070 -0.0000 -0.7072
vn -0.6719 -0.3115 -0.6719
vn -0.7071 -0.7071 -0.0000
vn -0.6716 -0.6721 0.3118
vn -0.7070 -0.0000 0.7072
vn -0.6716 0.3119 0.6721
vn -0.7071 0.7071 -0.0000
vn -0.2365 0.8812 -0.4093
vn -0.2580 -0.0000 -0.9662
vn -0.2368 -0.4092 -0.8812
vn -0.2366 -0.8812 -0.4093
vn -0.2605 -0.9655 -0.0000
vn -0.2367 -0.8811 0.4093
vn -0.2584 -0.0000 0.9660
vn -0.2372 0.4094 0.8810
vn -0.2367 0.8812 0.4093
vn -0.2584 0.9660 -0.0000
vn -0.0000 0.9072 -0.4207
vn -0.0000 0.4205 -0.9073
vn -0.0000 -0.0000 -1.0000
vn -0.0000 -0.4205 -0.9073
vn -0.0000 -1.0000 -0.0000
vn -0.0000 -0.9066 0.4221
vn -0.9593 -0.2561 0.1188
vn -0.0000 -0.0000 1.0000
vn -0.0000 0.4206 0.9072
vn -0.0000 0.9071 0.4208
vn -0.0000 1.0000 -0.0000
vn 0.2359 0.8816 -0.4089
vn 0.2585 -0.0000 -0.9660
vn 0.2353 -0.4087 -0.8818
vn 0.2358 -0.8816 -0.4089
vn 0.2584 -0.9660 -0.0000
vn 0.2359 -0.8816 0.4089
vn 0.2580 -0.0000 0.9661
vn 0.2352 0.4087 0.8818
vn 0.2359 0.8816 0.4089
vn 0.2584 0.9660 -0.0000
vn 0.6717 0.6719 -0.3121
vn 0.2353 -0.4088 0.8818
vn 0.6717 0.3121 -0.6719
vn 0.7071 -0.0000 -0.7071
vn 0.6716 -0.3120 -0.6720
vn 0.6717 -0.6719 -0.3121
vn 0.7070 -0.7072 -0.0000
vn 0.6718 -0.6718 0.3121
vn 0.6715 -0.3123 0.6720
vn 0.7071 -0.0000 0.7071
vn 0.6716 0.3122 0.6719
vn 0.7071 0.7071 -0.0000
vn -0.9592 -0.2564 -0.1189
vn -0.6714 -0.6723 -0.3119
vn 0.9592 0.2564 -0.1188
vn 0.9661 -0.0000 -0.2580
vn -0.2374 -0.4094 0.8809
vn -0.0000 -0.9066 -0.4221
vn 0.9592 -0.1190 -0.2563
vn 0.9661 -0.2583 -0.0000
vn 0.9593 -0.2561 0.1188
vn 0.9661 -0.0000 0.2580
vn -0.6716 0.6721 0.3118
vn 0.6716 0.6719 0.3122
vn 0.9592 0.1190 0.2563
vn 0.9661 0.2583 -0.0000
vn 1.0000 -0.0000 -0.0000
vn 0.2353 0.4086 -0.8819
vn -0.9592 0.2565 0.1188
vn -0.2369 0.4092 -0.8811
vn -0.9661 -0.2582 -0.0000
vn -0.9661 0.2583 -0.0000
vn -0.7071 -0.7072 -0.0000
vn 0.9661 -0.2581 -0.0000
vn 0.9661 0.2581 -0.0000
vn 0.7071 0.7072 -0.0000
vn 0.9660 0.2584 -0.0000
vn -0.7070 -0.7072 -0.0000
vn 0.2585 -0.0000 0.9660
vn -0.2582 0.9661 -0.0000
vn -0.9661 0.2580 -0.0000
vn -0.9663 -0.2573 -0.0000
vn -0.7054 -0.7089 -0.0000
vn -0.2613 -0.9653 -0.0000
vn 0.2613 -0.9653 -0.0000
vn 0.7054 -0.7089 -0.0000
vn 0.9663 -0.2573 -0.0000
vn 0.9661 0.2580 -0.0000
vn 0.2582 0.9661 -0.0000
vn -0.9915 0.1304 -0.0000
vn -0.9868 -0.1116 -0.1177
vn -0.9915 -0.1302 -0.0072
vn -0.9872 0.1126 0.1126
vn -0.9878 -0.1132 0.1071
vn -0.8434 -0.1215 -0.5234
vn -0.9873 0.1126 -0.1124
vn -0.8454 0.1220 -0.5200
vn -0.1240 -0.9583 -0.2575
vn -0.0000 -0.6881 -0.7256
vn -0.0000 -0.9646 -0.2636
vn -0.8431 -0.5164 -0.1500
vn -0.4589 -0.6110 -0.6450
vn -0.4749 -0.8496 -0.2295
vn -0.8659 -0.4994 -0.0275
vn -0.8659 -0.4995 -0.0275
vn -0.8473 -0.5228 0.0938
vn -0.8453 0.1221 0.5201
vn -0.8475 -0.1224 0.5165
vn -0.1254 0.9695 0.2107
vn -0.0000 0.7072 0.7070
vn -0.0000 0.9764 0.2158
vn -0.8456 0.5197 0.1221
vn -0.4663 0.6253 0.6257
vn -0.4786 0.8578 0.1875
vn -0.8664 0.4994 -0.0000
vn -0.8456 0.5197 -0.1219
vn -0.4664 0.6255 -0.6255
vn -0.4786 0.8578 -0.1872
vn -0.4760 -0.1829 -0.8602
vn -0.4787 0.1873 -0.8578
vn -0.4992 -0.8652 -0.0477
vn -0.4807 -0.8650 0.1438
vn -0.4734 -0.6399 0.6053
vn -0.4787 0.1873 0.8578
vn -0.4817 -0.1916 0.8551
vn -0.5003 0.8659 -0.0000
vn -0.1230 0.7019 -0.7016
vn -0.1254 0.9695 -0.2104
vn -0.1261 0.2107 -0.9694
vn -0.1250 -0.2053 -0.9707
vn -0.1199 -0.6830 -0.7205
vn -0.1300 -0.9900 -0.0546
vn -0.1264 -0.9787 0.1617
vn -0.1259 -0.7210 0.6814
vn -0.1273 -0.2162 0.9680
vn -0.1261 0.2107 0.9694
vn -0.1229 0.7017 0.7018
vn -0.1302 0.9915 -0.0000
vn -0.1303 0.9915 -0.0000
vn -0.0000 0.9765 -0.2155
vn -0.0000 0.7073 -0.7069
vn -0.0000 0.2159 -0.9764
vn -0.0000 -0.2110 -0.9775
vn -0.8295 -0.3840 -0.4056
vn -0.0000 -0.9985 -0.0551
vn -0.0000 -0.9862 0.1657
vn -0.0000 -0.7270 0.6867
vn -0.0000 -0.2207 0.9753
vn -0.0000 0.2159 0.9764
vn -0.8340 0.3900 0.3902
vn -0.0000 0.7070 -0.7072
vn -0.0000 0.2154 -0.9765
vn -0.0000 -0.2106 -0.9776
vn -0.0000 -0.6877 -0.7259
vn -0.0000 -0.6878 -0.7259
vn 0.1130 -0.9920 0.0569
vn -0.1130 -0.9920 0.0570
vn -0.1068 -0.9809 -0.1625
vn -0.0000 -0.7269 0.6867
vn -0.0000 -0.2207 0.9754
vn -0.1034 0.9882 0.1130
vn -0.0000 0.9764 0.2157
vn 0.1034 0.9882 0.1130
vn -0.0801 0.9936 -0.0800
vn 0.0801 0.9936 0.0800
vn 0.0801 0.9936 -0.0801
vn 0.1034 0.9882 -0.1130
vn -0.0000 -0.9862 0.1658
vn 0.1228 0.7017 -0.7019
vn 0.4786 0.8578 -0.1872
vn 0.4665 0.6255 -0.6255
vn 0.1243 -0.2049 -0.9709
vn 0.4781 0.1871 -0.8581
vn 0.4755 -0.1827 -0.8605
vn 0.1198 -0.6828 -0.7207
vn 0.4589 -0.6110 -0.6450
vn 0.4749 -0.8496 -0.2294
vn 0.4993 -0.8651 -0.0477
vn 0.1240 -0.9583 -0.2575
vn 0.4992 -0.8652 -0.0477
vn 0.1300 -0.9900 -0.0546
vn 0.4807 -0.8650 0.1438
vn 0.1258 -0.7210 0.6814
vn 0.4738 -0.6400 0.6049
vn 0.4815 -0.1917 0.8552
vn 0.1252 0.2106 0.9695
vn 0.4787 0.1874 0.8578
vn 0.1227 0.7018 0.7018
vn 0.4666 0.6254 0.6254
vn 0.4787 0.8578 0.1874
vn 0.1302 0.9915 -0.0000
vn 0.5003 0.8658 -0.0000
vn 0.1303 0.9915 -0.0000
vn 0.5003 0.8659 -0.0000
vn 0.1254 0.9695 -0.2104
vn 0.8456 0.5197 -0.1219
vn 0.8341 0.3902 -0.3899
vn 0.8454 0.1220 -0.5200
vn 0.8434 -0.1215 -0.5234
vn 0.8295 -0.3841 -0.4056
vn 0.8431 -0.5164 -0.1500
vn 0.8659 -0.4994 -0.0275
vn 0.8659 -0.4995 -0.0275
vn 0.8473 -0.5227 0.0938
vn 0.8387 -0.3955 0.3743
vn 0.8477 -0.1225 0.5161
vn 0.8456 0.1222 0.5196
vn 0.8341 0.3901 0.3901
vn 0.8456 0.5196 0.1221
vn 0.8664 0.4994 -0.0000
vn 0.8663 0.4995 -0.0000
vn 0.9873 0.1126 -0.1124
vn 0.9868 -0.1116 -0.1178
vn 0.9915 -0.1302 -0.0072
vn 0.9915 -0.1303 -0.0072
vn 0.9878 -0.1132 0.1071
vn 0.9872 0.1126 0.1126
vn -0.8341 0.3902 -0.3900
vn 0.9915 0.1304 -0.0000
vn 0.9914 0.1305 -0.0000
vn 0.4717 -0.7238 -0.5036
vn 0.1068 -0.9809 -0.1625
vn 0.4831 -0.7507 0.4506
vn -0.4717 -0.7236 -0.5039
vn -0.4832 -0.7504 0.4510
vn 0.6511 -0.3664 -0.6647
vn 0.6629 -0.3723 0.6496
vn -0.6515 -0.3664 -0.6643
vn -0.6633 -0.3721 0.6493
vn 0.7121 -0.1158 -0.6925
vn -0.6915 -0.1178 0.7127
vn 0.6919 -0.1168 0.7125
vn -0.7117 -0.1167 -0.6928
vn -0.4469 0.8141 -0.3708
vn -0.3743 0.8827 0.2841
vn -0.3743 0.8827 -0.2840
vn 0.4469 0.8141 0.3708
vn -0.4469 0.8141 0.3708
vn 0.3743 0.8827 -0.2841
vn 0.3744 0.8827 0.2840
vn 0.4469 0.8141 -0.3708
vn -0.8386 -0.3955 0.3746
vn 0.1254 0.9695 0.2105
vn -0.0000 0.9765 0.2156
vn -0.0000 0.7071 0.7071
vn -0.0000 0.2157 0.9765
vn 0.1264 -0.2160 0.9682
vn -0.0000 -0.2204 0.9754
vn -0.0000 -0.7268 0.6868
vn 0.1264 -0.9787 0.1616
vn -0.0000 -0.9862 0.1656
vn 0.1253 0.2103 -0.9696
vn -0.1034 0.9882 -0.1130
vn 0.4470 0.8140 -0.3708
vn -0.4469 0.8141 0.3709
vn -0.0801 0.9936 0.0801
vn -0.6717 0.3120 -0.6720
vn -0.9661 -0.0000 -0.2582
vn -0.6717 -0.3121 0.6718
vn -0.9661 -0.0000 0.2582
vn -0.6718 0.6719 -0.3118
vn -0.7072 -0.0000 -0.7070
vn -0.6717 -0.3120 -0.6719
vn -0.6718 -0.6718 0.3120
vn -0.7072 -0.0000 0.7070
vn -0.6716 0.3121 0.6719
vn -0.2358 0.8816 -0.4088
vn -0.2584 -0.0000 -0.9660
vn -0.2352 -0.4087 -0.8818
vn -0.2376 -0.8806 -0.4100
vn -0.2374 -0.8806 0.4100
vn -0.2580 -0.0000 0.9662
vn -0.2352 0.4088 0.8818
vn -0.2358 0.8816 0.4089
vn -0.0000 0.9071 -0.4208
vn -0.0000 -0.9072 0.4207
vn -0.9592 -0.1190 0.2566
vn -0.0000 0.4207 0.9072
vn -0.0000 0.9072 0.4207
vn 0.2366 0.8813 -0.4091
vn 0.2580 -0.0000 -0.9661
vn 0.2368 -0.4092 -0.8812
vn 0.2367 -0.8813 -0.4090
vn 0.2367 -0.8812 0.4091
vn 0.2371 0.4094 0.8810
vn 0.2367 0.8812 0.4091
vn 0.6711 0.6726 -0.3119
vn 0.2374 -0.4094 0.8809
vn 0.6719 0.3117 -0.6719
vn 0.7069 -0.0000 -0.7073
vn 0.6719 -0.3115 -0.6719
vn 0.6712 -0.6724 -0.3120
vn 0.6713 -0.6723 0.3120
vn 0.6714 -0.3119 0.6723
vn 0.7069 -0.0000 0.7073
vn 0.6714 0.3118 0.6723
vn -0.9592 -0.1189 -0.2565
vn -0.6717 -0.6719 -0.3120
vn 0.9592 0.1190 -0.2563
vn 0.9661 -0.0000 -0.2583
vn -0.2352 -0.4089 0.8818
vn -0.0000 -0.9072 -0.4207
vn 0.9592 -0.2564 -0.1189
vn 0.9592 -0.1191 0.2565
vn 0.9661 -0.0000 0.2582
vn -0.6717 0.6720 0.3119
vn 0.6714 0.6723 0.3118
vn 0.9592 0.2565 0.1188
vn 0.2369 0.4092 -0.8811
vn -0.9592 0.1189 0.2566
vn -0.2352 0.4086 -0.8819
vn 0.7069 -0.7073 -0.0000
vn 0.7069 0.7073 -0.0000
vn 0.7069 -0.7074 -0.0000
vn -0.9664 -0.2571 -0.0000
vn -0.7054 -0.7088 -0.0000
vn 0.7054 -0.7088 -0.0000
vn 0.9664 -0.2571 -0.0000
vt 0.000623 0.090446
vt 0.007353 0.087198
vt 0.007353 0.090446
vt 0.027542 0.100189
vt 0.027860 0.100189
vt 0.027766 0.100400
vt 0.000633 0.000400
vt 0.000364 0.000828
vt 0.000305 0.000563
vt 0.007350 0.100508
vt 0.000624 0.100191
vt 0.007354 0.100190
vt 0.000305 0.090444
vt 0.000623 0.087198
vt 0.999049 0.028944
vt 0.001037 0.029475
vt 0.001015 0.028911
vt 0.000631 0.029008
vt 0.000364 0.029435
vt 0.000305 0.029173
vt 0.020814 0.086880
vt 0.027541 0.087197
vt 0.020812 0.087198
vt 0.027753 0.100413
vt 0.027542 0.100507
vt 0.027542 0.090445
vt 0.027859 0.087193
vt 0.027859 0.090442
vt 0.000364 0.085748
vt 0.000633 0.086175
vt 0.000305 0.086012
vt 0.000702 0.021028
vt 0.000364 0.027778
vt 0.000364 0.021041
vt 0.000633 0.028206
vt 0.000305 0.028044
vt 0.000702 0.067796
vt 0.000364 0.071066
vt 0.000365 0.067809
vt 0.000633 0.071493
vt 0.000305 0.071329
vt 0.000702 0.049633
vt 0.000364 0.056383
vt 0.000364 0.049646
vt 0.000633 0.056810
vt 0.000305 0.056647
vt 0.000701 0.082478
vt 0.000364 0.082491
vt 0.000702 0.085722
vt 0.001017 0.086270
vt 0.001039 0.021020
vt 0.000702 0.027752
vt 0.001018 0.028301
vt 0.001018 0.057516
vt 0.000703 0.058064
vt 0.000634 0.057612
vt 0.001039 0.067788
vt 0.000702 0.071040
vt 0.001017 0.071588
vt 0.001038 0.049625
vt 0.000702 0.056357
vt 0.001017 0.056906
vt 0.001017 0.072198
vt 0.000701 0.072746
vt 0.000633 0.072293
vt 0.001038 0.082470
vt 0.997136 0.085680
vt 0.001038 0.085706
vt 0.999036 0.000399
vt 0.001039 0.000869
vt 0.001018 0.000305
vt 0.999014 0.021012
vt 0.001039 0.027737
vt 0.999014 0.027729
vt 0.997170 0.067861
vt 0.001038 0.071024
vt 0.997170 0.071097
vt 0.000405 0.086981
vt 0.000305 0.087194
vt 0.999029 0.049557
vt 0.001039 0.056342
vt 0.999029 0.056274
vt 0.997158 0.072275
vt 0.001038 0.072762
vt 0.997136 0.082444
vt 0.997444 0.085686
vt 0.997157 0.086141
vt 0.999323 0.021015
vt 0.999323 0.027734
vt 0.999035 0.028190
vt 0.997193 0.057692
vt 0.997479 0.058148
vt 0.997171 0.058153
vt 0.997479 0.067863
vt 0.997479 0.071102
vt 0.997192 0.071558
vt 0.999338 0.049559
vt 0.999338 0.056279
vt 0.999051 0.056736
vt 0.997445 0.072731
vt 0.997137 0.072736
vt 0.997445 0.082447
vt 0.997760 0.085713
vt 0.997494 0.086085
vt 0.999337 0.029401
vt 0.999028 0.029406
vt 0.999374 0.000456
vt 0.999640 0.000830
vt 0.999324 0.000856
vt 0.999639 0.021028
vt 0.999639 0.027761
vt 0.999372 0.028134
vt 0.997530 0.057749
vt 0.997795 0.058122
vt 0.997795 0.067876
vt 0.997795 0.071128
vt 0.997529 0.071501
vt 0.999387 0.029000
vt 0.999654 0.029374
vt 0.999655 0.049572
vt 0.999655 0.056305
vt 0.999389 0.056679
vt 0.997761 0.082461
vt 0.000407 0.100408
vt 0.000306 0.100195
vt 0.000366 0.058038
vt 0.000307 0.057774
vt 0.055707 0.087197
vt 0.055925 0.086980
vt 0.056025 0.087193
vt 0.035518 0.087198
vt 0.028784 0.086880
vt 0.035516 0.086880
vt 0.000701 0.029460
vt 0.001039 0.058080
vt 0.028789 0.087198
vt 0.028571 0.086980
vt 0.028789 0.096942
vt 0.028472 0.100194
vt 0.028471 0.096944
vt 0.028789 0.100190
vt 0.028572 0.100407
vt 0.048978 0.100190
vt 0.055712 0.100507
vt 0.048980 0.100507
vt 0.000364 0.072720
vt 0.000305 0.072456
vt 0.997496 0.072331
vt 0.997762 0.072705
vt 0.055707 0.100190
vt 0.055925 0.100407
vt 0.055707 0.090445
vt 0.056025 0.090444
vt 0.035518 0.090446
vt 0.999014 0.000861
vt 0.027759 0.086980
vt 0.000702 0.000854
vt 0.000624 0.096943
vt 0.007353 0.093694
vt 0.007353 0.096942
vt 0.000306 0.096945
vt 0.000624 0.093695
vt 0.027542 0.096941
vt 0.027860 0.093691
vt 0.027860 0.096940
vt 0.000702 0.061308
vt 0.000365 0.064552
vt 0.000365 0.061295
vt 0.000701 0.075990
vt 0.000364 0.079234
vt 0.000364 0.075977
vt 0.001039 0.061316
vt 0.000702 0.064552
vt 0.001038 0.075998
vt 0.000701 0.079234
vt 0.997171 0.061389
vt 0.001039 0.064552
vt 0.997136 0.075972
vt 0.001038 0.079234
vt 0.997479 0.061387
vt 0.997171 0.064625
vt 0.997445 0.075970
vt 0.997136 0.079208
vt 0.997795 0.061374
vt 0.997479 0.064625
vt 0.997761 0.075957
vt 0.997445 0.079208
vt 0.028789 0.090446
vt 0.028471 0.093694
vt 0.028471 0.090443
vt 0.055707 0.096942
vt 0.056025 0.093694
vt 0.056025 0.096944
vt 0.035519 0.093694
vt 0.035519 0.096942
vt 0.000306 0.093695
vt 0.027542 0.093693
vt 0.997795 0.064625
vt 0.028789 0.093694
vt 0.056024 0.100194
vt 0.035519 0.100190
vt 0.997761 0.079209
vt 0.055707 0.093694
vt 0.028470 0.087193
vt 0.020812 0.090446
vt 0.014082 0.090446
vt 0.014082 0.087198
vt 0.020813 0.100190
vt 0.020812 0.100507
vt 0.014083 0.100190
vt 0.014081 0.100508
vt 0.000619 0.086881
vt 0.007350 0.086880
vt 0.014082 0.086880
vt 0.000364 0.007566
vt 0.000702 0.007578
vt 0.000364 0.014303
vt 0.000702 0.014303
vt 0.000364 0.036172
vt 0.000701 0.036184
vt 0.000364 0.042909
vt 0.000701 0.042909
vt 0.001039 0.007586
vt 0.001039 0.014303
vt 0.001038 0.036192
vt 0.001038 0.042908
vt 0.999014 0.007578
vt 0.999014 0.014295
vt 0.999028 0.036123
vt 0.999029 0.042840
vt 0.999323 0.007576
vt 0.999323 0.014295
vt 0.999337 0.036120
vt 0.999337 0.042840
vt 0.999640 0.007563
vt 0.999640 0.014295
vt 0.999654 0.036107
vt 0.999654 0.042839
vt 0.048980 0.086880
vt 0.055712 0.086880
vt 0.048978 0.087197
vt 0.042248 0.086880
vt 0.042248 0.087197
vt 0.035517 0.100507
vt 0.028785 0.100507
vt 0.042248 0.100507
vt 0.042248 0.100190
vt 0.048978 0.090446
vt 0.042248 0.090446
vt 0.020812 0.096942
vt 0.014083 0.096942
vt 0.020812 0.093694
vt 0.014083 0.093694
vt 0.048978 0.096942
vt 0.042248 0.096942
vt 0.048978 0.093694
vt 0.042248 0.093694
vt 0.000000 0.000000
vt 0.015600 1.000000
vt 0.000000 1.000000
vt 0.015600 0.000000
vt 0.031200 1.000000
vt 0.031200 0.000000
vt 0.046800 1.000000
vt 0.046800 0.000000
vt 0.204800 1.000000
vt 0.204800 0.000000
vt 0.220400 1.000000
vt 0.220400 0.000000
vt 0.236000 1.000000
vt 0.236000 0.000000
vt 0.251600 1.000000
vt 0.251600 0.000000
vt 0.439800 1.000000
vt 0.439800 0.000000
vt 0.455400 1.000000
vt 0.455400 0.000000
vt 0.471000 1.000000
vt 0.471000 0.000000
vt 0.486500 1.000000
vt 0.486500 0.000000
vt 0.644600 1.000000
vt 0.644600 0.000000
vt 0.660200 1.000000
vt 0.660200 0.000000
vt 0.675800 1.000000
vt 0.675800 0.000000
vt 0.691400 1.000000
vt 0.691400 0.000000
vt 1.000000 1.000000
vt 0.008699 0.103737
vt 0.015209 0.101612
vt 0.015210 0.103738
vt 0.008696 0.137731
vt 0.008697 0.139858
vt 0.015208 0.137731
vt 0.015207 0.139858
vt 0.015215 0.101158
vt 0.008701 0.101611
vt 0.008694 0.101157
vt 0.001256 0.000974
vt 0.002205 0.000290
vt 0.002234 0.000973
vt 0.000333 0.000925
vt 0.000727 0.000374
vt 0.000802 0.000966
vt 0.015662 0.101605
vt 0.015664 0.103738
vt 0.015661 0.137731
vt 0.015661 0.139863
vt 0.008690 0.140311
vt 0.015212 0.140311
vt 0.001335 0.050494
vt 0.002315 0.049782
vt 0.002349 0.050496
vt 0.000359 0.050456
vt 0.000767 0.049865
vt 0.000855 0.050491
vt 0.008245 0.139864
vt 0.008243 0.137731
vt 0.008246 0.103737
vt 0.008248 0.101604
vt 0.000837 0.092116
vt 0.000427 0.091550
vt 0.000911 0.091505
vt 0.000786 0.099949
vt 0.000331 0.093369
vt 0.000787 0.093406
vt 0.000713 0.100524
vt 0.000331 0.099986
vt 0.000305 0.003167
vt 0.000778 0.003170
vt 0.000367 0.038406
vt 0.000849 0.038395
vt 0.000455 0.040743
vt 0.000937 0.040640
vt 0.000982 0.041030
vt 0.000966 0.048559
vt 0.000477 0.041746
vt 0.000958 0.041817
vt 0.000893 0.049151
vt 0.000495 0.048598
vt 0.000360 0.052774
vt 0.000850 0.052774
vt 0.000385 0.089229
vt 0.000876 0.089223
vt 0.001351 0.092200
vt 0.001380 0.091494
vt 0.001199 0.092750
vt 0.001230 0.093413
vt 0.001230 0.099942
vt 0.001199 0.100605
vt 0.001252 0.003172
vt 0.001330 0.038384
vt 0.001383 0.040578
vt 0.001412 0.041004
vt 0.001425 0.041428
vt 0.001422 0.041861
vt 0.001424 0.048551
vt 0.001393 0.049232
vt 0.001340 0.052774
vt 0.001365 0.089219
vt 0.002392 0.091491
vt 0.002365 0.092197
vt 0.002148 0.092750
vt 0.002178 0.093413
vt 0.002178 0.099943
vt 0.002148 0.100606
vt 0.015519 0.101301
vt 0.002230 0.003170
vt 0.002308 0.038382
vt 0.002358 0.040575
vt 0.002385 0.041003
vt 0.002397 0.041429
vt 0.002394 0.041863
vt 0.002395 0.048550
vt 0.002365 0.049231
vt 0.008387 0.140168
vt 0.002354 0.052773
vt 0.002378 0.089219
vt 0.024089 0.092122
vt 0.975865 0.091426
vt 0.975864 0.092065
vt 0.022501 0.093412
vt 0.958977 0.092799
vt 0.958977 0.093409
vt 0.022500 0.099948
vt 0.958978 0.099928
vt 0.022500 0.100610
vt 0.958979 0.100537
vt 0.023210 0.003122
vt 0.963996 0.000943
vt 0.963993 0.003132
vt 0.023253 0.040518
vt 0.963958 0.038288
vt 0.963968 0.040472
vt 0.023242 0.040979
vt 0.963979 0.040933
vt 0.023221 0.041903
vt 0.963991 0.041445
vt 0.964002 0.041906
vt 0.023214 0.048532
vt 0.964020 0.048527
vt 0.023214 0.049204
vt 0.964021 0.049147
vt 0.024083 0.052762
vt 0.975917 0.050496
vt 0.975914 0.052740
vt 0.030652 0.081129
vt 0.969335 0.060814
vt 0.969350 0.081068
vt 0.024089 0.091432
vt 0.975866 0.089184
vt 0.977383 0.091431
vt 0.977383 0.092074
vt 0.960395 0.092796
vt 0.960393 0.093409
vt 0.000714 0.092832
vt 0.960394 0.099927
vt 0.960396 0.100540
vt 0.965460 0.000945
vt 0.965458 0.003135
vt 0.965421 0.038290
vt 0.965427 0.040475
vt 0.965435 0.040933
vt 0.965445 0.041440
vt 0.965456 0.041899
vt 0.965474 0.048523
vt 0.965477 0.049148
vt 0.977439 0.049852
vt 0.977437 0.050496
vt 0.977434 0.052743
vt 0.977384 0.089187
vt 0.998598 0.092203
vt 0.999040 0.091508
vt 0.999112 0.092120
vt 0.980160 0.099914
vt 0.980600 0.093404
vt 0.980601 0.099921
vt 0.980190 0.100574
vt 0.980673 0.100493
vt 0.986360 0.000966
vt 0.985937 0.000293
vt 0.986434 0.000375
vt 0.986384 0.003167
vt 0.985907 0.000975
vt 0.986332 0.038328
vt 0.985911 0.003170
vt 0.986247 0.040571
vt 0.985851 0.038317
vt 0.985772 0.040936
vt 0.986202 0.040961
vt 0.986228 0.041750
vt 0.985759 0.041361
vt 0.986194 0.041353
vt 0.985781 0.048477
vt 0.986238 0.048483
vt 0.985813 0.049157
vt 0.986312 0.049075
vt 0.999144 0.050491
vt 0.998698 0.049780
vt 0.999230 0.049863
vt 0.998656 0.052777
vt 0.999146 0.052778
vt 0.998589 0.089222
vt 0.999078 0.089227
vt 0.998571 0.091497
vt 0.999524 0.091555
vt 0.999580 0.091926
vt 0.981054 0.093367
vt 0.981054 0.099958
vt 0.981111 0.100306
vt 0.986828 0.000925
vt 0.986888 0.000566
vt 0.986856 0.003164
vt 0.986814 0.038338
vt 0.986729 0.040674
vt 0.986699 0.041011
vt 0.986709 0.041677
vt 0.986708 0.048522
vt 0.986766 0.048882
vt 0.999641 0.050456
vt 0.999637 0.052778
vt 0.999568 0.089233
vt 0.980672 0.092831
vt 0.981111 0.093019
vt 0.007236 0.101613
vt 0.007546 0.101302
vt 0.007688 0.101606
vt 0.000724 0.101157
vt 0.000730 0.101611
vt 0.000420 0.101300
vt 0.000728 0.103737
vt 0.000277 0.101604
vt 0.000730 0.137732
vt 0.000274 0.103737
vt 0.000731 0.139860
vt 0.000276 0.137732
vt 0.000990 0.041420
vt 0.986692 0.041350
vt 0.000339 0.140088
vt 0.000278 0.139865
vt 0.007247 0.140311
vt 0.007241 0.139858
vt 0.008391 0.101300
vt 0.007695 0.137731
vt 0.007242 0.137731
vt 0.007238 0.103737
vt 0.023632 0.037986
vt 0.023263 0.038347
vt 0.023594 0.003498
vt 0.963626 0.037979
vt 0.963621 0.003493
vt 0.023984 0.037643
vt 0.023980 0.003917
vt 0.963261 0.037604
vt 0.963266 0.003835
vt 0.024314 0.037326
vt 0.962933 0.004152
vt 0.024310 0.004212
vt 0.962930 0.037267
vt 0.028963 0.082758
vt 0.029520 0.060034
vt 0.029559 0.081970
vt 0.971026 0.059186
vt 0.028928 0.059242
vt 0.970445 0.081908
vt 0.970429 0.059974
vt 0.971036 0.082700
vt 0.001299 0.049780
vt 0.024082 0.050534
vt 0.975917 0.049857
vt 0.980188 0.092751
vt 0.007551 0.140169
vt 0.999726 0.050075
vt 0.965463 0.000319
vt 0.023207 0.000948
vt 0.963997 0.000321
vt 0.001225 0.000291
vt 0.015435 0.140249
vt 0.985361 0.000974
vt 0.998006 0.091495
vt 0.998023 0.089221
vt 0.998090 0.052776
vt 0.998663 0.050496
vt 0.998097 0.050496
vt 0.985271 0.049156
vt 0.985240 0.048478
vt 0.985763 0.041795
vt 0.985222 0.041798
vt 0.985229 0.040936
vt 0.985801 0.040509
vt 0.985257 0.040509
vt 0.985306 0.038316
vt 0.985366 0.003169
vt 0.979662 0.100573
vt 0.979633 0.099914
vt 0.980158 0.093411
vt 0.979631 0.093411
vt 0.998032 0.092199
vt 0.985391 0.000293
vt 0.998131 0.049782
vt 0.985217 0.041364
vt 0.979660 0.092752
vt 0.024089 0.089208
vt 0.023231 0.041441
vt 0.022501 0.092750
vt 0.024083 0.049844
vt 0.023207 0.000274
vt 0.975418 0.088583
vt 0.975460 0.053338
vt 0.024533 0.053363
vt 0.024541 0.088609
vt 0.975460 0.053338
vt 0.028928 0.059242
vt 0.030616 0.060875
vt 0.000620 0.100508
vt 0.027546 0.086880
vt 0.997799 0.085956
vt 0.999681 0.000586
vt 0.999677 0.028004
vt 0.997835 0.057880
vt 0.997835 0.071370
vt 0.999693 0.029131
vt 0.999695 0.056548
vt 0.997802 0.072462
vt 1.000000 0.000000
vt 0.000274 0.000566
vt 0.000274 0.050078
vt 0.000369 0.091922
vt 0.000274 0.100335
vt 0.000485 0.041080
vt 0.000438 0.048959
vt 0.000274 0.093020
vt 0.007242 0.101160
vt 0.000493 0.041419
vt 0.000726 0.140314
vt 0.007694 0.139865
vt 0.007691 0.103737
s 0
f 100/1/1 132/2/1 183/3/1
f 1/4/2 5/5/2 6/6/2
f 18/7/3 7/8/3 6/9/3
f 167/10/4 2/11/4 140/12/4
f 110/13/5 3/14/5 100/1/5
f 48/15/6 37/16/6 36/17/6
f 24/18/7 13/19/7 12/20/7
f 146/21/8 4/22/8 134/23/8
f 1/4/9 6/24/9 7/25/9
f 111/26/10 16/27/10 104/28/10
f 5/29/11 18/30/11 6/31/11
f 170/32/12 8/33/12 167/34/12
f 8/33/13 21/35/13 9/36/13
f 107/37/14 11/38/14 110/39/14
f 11/38/15 24/40/15 12/41/15
f 149/42/16 14/43/16 146/44/16
f 14/43/17 27/45/17 15/46/17
f 114/47/18 5/29/18 120/48/18
f 17/49/19 30/50/19 18/30/19
f 143/51/20 20/52/20 170/32/20
f 20/52/21 33/53/21 21/35/21
f 33/54/22 22/55/22 21/56/22
f 105/57/23 23/58/23 107/37/23
f 23/58/24 36/59/24 24/40/24
f 173/60/25 26/61/25 149/42/25
f 26/61/26 39/62/26 27/45/26
f 39/63/27 28/64/27 27/65/27
f 119/66/28 17/49/28 114/47/28
f 41/67/29 30/50/29 29/68/29
f 42/69/30 31/70/30 30/71/30
f 158/72/31 32/73/31 143/51/31
f 44/74/32 33/53/32 32/73/32
f 112/75/33 35/76/33 105/57/33
f 47/77/34 36/59/34 35/76/34
f 12/78/35 3/14/35 11/79/35
f 131/80/36 38/81/36 173/60/36
f 50/82/37 39/62/37 38/81/37
f 51/83/38 40/84/38 39/63/38
f 115/85/39 29/68/39 119/66/39
f 53/86/40 42/87/40 41/67/40
f 161/88/41 44/74/41 158/72/41
f 56/89/42 45/90/42 44/74/42
f 45/91/43 58/92/43 46/93/43
f 106/94/44 47/77/44 112/75/44
f 59/95/45 48/96/45 47/77/45
f 137/97/46 50/82/46 131/80/46
f 62/98/47 51/99/47 50/82/47
f 51/83/48 64/100/48 52/101/48
f 124/102/49 41/67/49 115/85/49
f 65/103/50 54/104/50 53/86/50
f 48/15/51 61/105/51 49/106/51
f 54/107/52 67/108/52 55/109/52
f 155/110/53 56/89/53 161/88/53
f 68/111/54 57/112/54 56/89/54
f 57/113/55 70/114/55 58/92/55
f 109/115/56 59/95/56 106/94/56
f 71/116/57 60/117/57 59/95/57
f 60/118/58 73/119/58 61/105/58
f 152/120/59 62/98/59 137/97/59
f 74/121/60 63/122/60 62/98/60
f 113/123/61 53/86/61 124/102/61
f 2/11/62 9/124/62 10/125/62
f 21/56/63 10/126/63 9/127/63
f 77/128/64 66/129/64 65/130/64
f 176/131/65 68/132/65 155/133/65
f 36/17/66 25/134/66 24/18/66
f 45/91/67 34/135/67 33/54/67
f 78/136/68 69/137/68 68/132/68
f 101/138/69 71/139/69 109/140/69
f 79/141/70 72/142/70 71/139/70
f 164/143/71 74/144/71 152/145/71
f 27/65/72 16/146/72 15/147/72
f 63/148/73 76/149/73 64/100/73
f 80/150/74 75/151/74 74/144/74
f 118/152/75 65/130/75 113/153/75
f 189/154/76 78/136/76 176/131/76
f 42/69/77 55/109/77 43/155/77
f 4/22/78 15/156/78 16/27/78
f 30/71/79 19/157/79 18/7/79
f 116/158/1 177/159/1 192/160/1
f 126/161/80 84/162/80 116/158/80
f 127/163/81 88/164/81 120/165/81
f 123/166/82 94/167/82 126/168/82
f 98/169/18 88/170/18 104/171/18
f 121/172/23 91/173/23 123/166/23
f 103/174/28 82/175/28 98/169/28
f 128/176/33 89/177/33 121/172/33
f 99/178/39 87/179/39 103/174/39
f 122/180/44 96/181/44 128/176/44
f 108/182/49 83/183/49 99/178/49
f 125/184/56 90/185/56 122/180/56
f 97/186/61 92/187/61 108/182/61
f 117/188/83 93/189/83 125/190/83
f 102/191/84 81/192/84 97/193/84
f 101/138/76 180/194/76 186/195/76
f 84/162/1 183/3/1 177/159/1
f 94/196/80 100/1/80 84/162/80
f 95/197/81 104/28/81 88/164/81
f 91/173/14 110/39/14 94/167/14
f 89/177/23 107/37/23 91/173/23
f 96/181/33 105/57/33 89/177/33
f 90/185/44 112/75/44 96/181/44
f 93/198/56 106/94/56 90/185/56
f 85/199/83 109/140/83 93/189/83
f 28/64/18 104/171/18 16/146/18
f 40/84/28 98/169/28 28/64/28
f 52/101/39 103/174/39 40/84/39
f 64/100/49 99/178/49 52/101/49
f 76/149/85 108/182/85 64/100/85
f 80/150/86 97/193/86 76/200/86
f 79/141/76 186/195/76 162/201/76
f 82/175/18 120/48/18 88/170/18
f 87/179/28 114/47/28 82/175/28
f 83/183/39 119/66/39 87/179/39
f 92/187/49 115/85/49 83/183/49
f 81/202/61 124/102/61 92/187/61
f 86/203/84 113/153/84 81/192/84
f 85/199/76 189/154/76 180/194/76
f 2/11/1 192/160/1 140/12/1
f 10/125/5 116/158/5 2/11/5
f 1/4/10 120/165/10 5/5/10
f 22/55/87 126/168/87 10/126/87
f 34/135/23 123/166/23 22/55/23
f 46/93/33 121/172/33 34/135/33
f 58/92/44 128/176/44 46/93/44
f 70/114/56 122/180/56 58/92/56
f 78/136/69 125/190/69 70/204/69
f 185/205/1 4/22/1 111/26/1
f 184/206/1 134/23/1 185/205/1
f 183/3/1 133/207/1 184/206/1
f 7/25/4 138/208/4 1/4/4
f 165/209/4 139/210/4 138/208/4
f 166/211/4 140/12/4 139/210/4
f 13/212/8 132/2/8 3/14/8
f 144/213/8 133/207/8 132/2/8
f 145/214/8 134/23/8 133/207/8
f 19/157/12 165/215/12 7/8/12
f 168/216/12 166/217/12 165/215/12
f 169/218/12 167/34/12 166/217/12
f 25/134/16 144/219/16 13/19/16
f 147/220/16 145/221/16 144/219/16
f 148/222/16 146/44/16 145/221/16
f 31/70/20 168/216/20 19/157/20
f 141/223/20 169/218/20 168/216/20
f 142/224/20 170/32/20 169/218/20
f 37/16/25 147/220/25 25/134/25
f 171/225/25 148/222/25 147/220/25
f 172/226/25 149/42/25 148/222/25
f 43/155/31 141/223/31 31/70/31
f 156/227/31 142/224/31 141/223/31
f 157/228/31 143/51/31 142/224/31
f 49/106/36 171/225/36 37/16/36
f 129/229/36 172/226/36 171/225/36
f 130/230/36 173/60/36 172/226/36
f 55/109/41 156/227/41 43/155/41
f 159/231/41 157/228/41 156/227/41
f 160/232/41 158/72/41 157/228/41
f 61/105/46 129/229/46 49/106/46
f 135/233/46 130/230/46 129/229/46
f 136/234/88 131/80/88 130/230/88
f 67/108/53 159/231/53 55/109/53
f 153/235/53 160/232/53 159/231/53
f 154/236/53 161/88/53 160/232/53
f 73/119/59 135/233/59 61/105/59
f 150/237/59 136/234/59 135/233/59
f 151/238/59 137/97/59 136/234/59
f 77/128/65 153/239/65 67/240/65
f 174/241/65 154/242/65 153/239/65
f 175/243/65 155/133/65 154/242/65
f 79/141/71 150/244/71 73/245/71
f 162/201/71 151/246/71 150/244/71
f 163/247/71 152/145/71 151/246/71
f 191/248/76 77/128/76 118/152/76
f 191/248/76 175/243/76 174/241/76
f 190/249/76 176/131/76 175/243/76
f 194/250/1 95/197/1 127/163/1
f 193/251/1 179/252/1 194/250/1
f 192/160/1 178/253/1 193/251/1
f 188/254/76 86/203/76 102/191/76
f 187/255/76 182/256/76 188/254/76
f 186/195/76 181/257/76 187/255/76
f 179/252/1 111/26/1 95/197/1
f 178/253/1 185/205/1 179/252/1
f 177/159/1 184/206/1 178/253/1
f 164/143/76 102/191/76 80/150/76
f 163/247/76 188/254/76 164/143/76
f 162/201/76 187/255/76 163/247/76
f 182/256/76 118/152/76 86/203/76
f 181/257/76 191/248/76 182/256/76
f 180/194/76 190/249/76 181/257/76
f 138/208/1 127/163/1 1/4/1
f 139/210/1 194/250/1 138/208/1
f 140/12/1 193/251/1 139/210/1
f 201/258/89 215/259/89 214/260/89
f 202/261/18 226/262/18 215/259/18
f 203/263/90 218/264/90 226/262/90
f 204/265/1 219/266/1 218/264/1
f 205/267/91 216/268/91 219/266/91
f 206/269/92 217/270/92 216/268/92
f 207/271/93 198/272/93 217/270/93
f 208/273/33 224/274/33 198/272/33
f 197/275/94 225/276/94 224/274/94
f 196/277/95 220/278/95 225/276/95
f 195/279/96 221/280/96 220/278/96
f 209/281/76 199/282/76 221/280/76
f 210/283/97 200/284/97 199/282/97
f 211/285/61 222/286/61 200/284/61
f 212/287/98 223/288/98 222/286/98
f 213/289/39 214/290/39 223/288/39
s 1
f 228/291/99 230/292/100 227/293/101
f 227/293/101 232/294/99 228/291/99
f 234/295/102 231/296/101 233/297/103
f 238/298/104 229/299/105 237/300/106
f 272/301/107 433/302/108 425/303/109
f 240/304/110 255/305/111 256/306/112
f 227/293/101 240/307/110 241/308/113
f 241/308/113 231/296/101 227/293/101
f 233/297/103 242/309/114 243/310/115
f 246/311/116 233/297/103 245/312/117
f 280/313/118 427/314/119 430/315/120
f 248/316/121 263/317/122 264/318/123
f 232/294/99 248/319/121 249/320/124
f 250/321/124 232/294/99 249/320/124
f 229/299/105 250/321/124 235/322/125
f 251/323/126 235/324/125 252/325/127
f 254/326/128 237/327/106 253/328/129
f 255/329/111 238/330/104 254/326/128
f 241/331/113 256/306/112 257/332/130
f 242/333/114 257/332/130 258/334/130
f 243/335/115 258/334/130 259/336/131
f 260/337/132 243/335/115 259/336/131
f 262/338/133 245/339/117 261/340/134
f 263/341/122 246/342/116 262/338/133
f 249/343/124 264/318/123 265/344/135
f 250/345/124 265/344/135 266/346/135
f 235/324/125 266/346/135 252/325/127
f 267/347/136 252/325/127 268/348/137
f 253/328/129 267/349/136 269/350/138
f 270/351/139 253/328/129 269/350/138
f 271/352/140 254/326/128 270/351/139
f 257/332/130 272/301/107 273/353/141
f 258/334/130 273/353/141 274/354/141
f 259/336/131 274/354/141 275/355/142
f 276/356/143 259/336/131 275/355/142
f 261/340/134 276/357/143 277/358/144
f 278/359/145 261/340/134 277/358/144
f 279/360/146 262/338/133 278/359/145
f 265/344/135 280/313/118 281/361/147
f 266/346/135 281/361/147 282/362/148
f 252/325/127 282/362/148 268/348/137
f 267/347/136 419/363/149 422/364/150
f 269/350/138 422/365/150 421/366/151
f 270/351/139 421/366/151 420/367/152
f 271/352/140 420/367/152 433/368/108
f 230/292/100 239/369/153 240/307/110
f 273/353/141 425/303/109 431/370/154
f 274/354/141 431/370/154 434/371/154
f 275/355/142 434/371/154 429/372/155
f 276/356/143 429/372/155 424/373/156
f 277/358/144 424/374/156 426/375/157
f 278/359/145 426/375/157 428/376/158
f 279/360/146 428/376/158 427/377/119
f 234/295/102 247/378/159 248/319/121
f 281/361/147 430/315/120 423/379/39
f 282/362/148 423/379/39 432/380/39
f 268/348/137 432/380/39 419/363/149
f 283/381/160 300/382/149 299/383/160
f 285/384/161 299/385/160 301/386/161
f 286/387/162 301/386/161 302/388/162
f 287/389/163 302/388/162 303/390/164
f 289/391/165 304/392/109 305/393/166
f 291/394/155 311/395/167 310/396/155
f 292/397/156 310/396/155 312/398/168
f 293/399/169 312/400/168 313/401/157
f 294/402/158 313/401/157 314/403/158
f 295/404/119 314/403/158 315/405/119
f 297/406/170 316/407/171 317/408/172
f 445/409/173 444/410/174 443/411/175
f 284/412/149 322/413/176 300/382/149
f 299/383/160 412/414/149 405/415/160
f 301/386/161 405/416/160 415/417/161
f 237/327/106 251/418/126 253/328/129
f 302/388/162 415/417/161 410/419/162
f 303/390/164 410/419/162 409/420/164
f 305/393/166 411/421/109 413/422/154
f 311/395/167 413/422/154 414/423/154
f 310/396/155 414/423/154 403/424/177
f 312/398/168 403/424/177 416/425/168
f 313/401/157 416/426/168 404/427/169
f 314/403/158 404/427/169 407/428/158
f 315/405/119 407/428/158 406/429/119
f 316/407/171 406/430/119 408/431/171
f 317/408/172 408/431/171 418/432/39
f 322/413/176 418/432/39 417/433/39
f 300/382/149 417/433/39 412/414/149
f 323/434/178 340/435/179 339/436/180
f 326/437/181 341/438/182 342/439/183
f 327/440/184 342/439/183 343/441/185
f 344/442/186 327/443/184 343/444/185
f 345/445/187 328/446/188 344/442/186
f 346/447/189 329/448/190 345/445/187
f 347/449/191 330/450/190 346/447/189
f 332/451/192 347/449/191 348/452/193
f 349/453/194 332/454/192 348/455/193
f 334/456/195 349/453/194 350/457/196
f 335/458/197 350/457/196 351/459/198
f 352/460/199 335/461/197 351/462/198
f 337/463/200 352/460/199 353/464/201
f 338/465/202 353/464/201 354/466/203
f 324/467/204 354/466/203 340/435/179
f 339/436/180 356/468/205 355/469/206
f 342/439/183 357/470/207 358/471/208
f 343/441/185 358/471/208 359/472/209
f 360/473/210 343/444/185 359/474/209
f 361/475/211 344/442/186 360/473/210
f 362/476/212 345/445/187 361/475/211
f 363/477/213 346/447/189 362/476/212
f 348/452/193 363/477/213 364/478/214
f 350/457/196 365/479/215 366/480/216
f 351/459/198 366/480/216 367/481/217
f 353/464/201 368/482/218 369/483/219
f 370/484/220 353/464/201 369/483/219
f 340/435/179 370/484/220 356/468/205
f 357/470/207 339/485/180 355/486/206
f 371/487/221 355/488/206 356/489/205
f 358/490/208 371/487/221 372/491/222
f 372/491/222 359/492/209 358/490/208
f 373/493/223 360/494/210 372/491/222
f 374/495/224 361/496/211 373/493/223
f 375/497/225 362/498/212 374/495/224
f 245/339/117 260/499/132 261/340/134
f 365/479/215 348/455/193 364/500/214
f 375/497/225 364/501/214 363/502/213
f 366/503/216 375/497/225 376/504/226
f 229/299/105 236/505/227 237/300/106
f 369/506/219 376/504/226 377/507/228
f 378/508/229 369/506/219 377/507/228
f 356/489/205 378/508/229 371/487/221
f 374/495/224 376/504/226 375/497/225
f 373/493/223 377/507/228 374/495/224
f 372/491/222 378/508/229 373/493/223
f 289/391/165 380/509/230 290/510/231
f 305/393/166 379/511/232 289/391/165
f 305/393/166 382/512/233 381/513/234
f 290/510/231 382/512/233 311/395/167
f 379/511/232 384/514/235 380/509/230
f 381/513/234 383/515/236 379/511/232
f 381/513/234 386/516/237 385/517/238
f 382/512/233 384/514/235 386/516/237
f 383/515/236 307/518/239 384/514/235
f 383/515/236 309/519/240 308/520/241
f 385/517/238 306/521/242 309/519/240
f 384/514/235 306/521/242 386/516/237
f 440/522/243 320/523/244 319/524/245
f 441/525/246 320/523/244 439/526/247
f 441/525/246 318/527/248 321/528/249
f 440/522/243 318/527/248 442/529/250
f 264/318/123 279/530/146 280/313/118
f 296/531/120 315/532/119 316/407/171
f 341/438/182 323/533/178 339/485/180
f 376/504/226 367/534/217 366/503/216
f 368/482/218 351/462/198 367/535/217
f 304/392/109 409/536/164 411/421/109
f 288/537/109 303/538/164 304/392/109
f 256/306/112 271/539/140 272/301/107
f 233/297/103 244/540/251 245/312/117
f 395/541/109 327/443/184 328/446/188
f 396/542/149 338/465/202 324/467/204
f 401/543/39 337/463/200 338/465/202
f 402/544/39 336/545/252 337/463/200
f 392/546/253 335/461/197 336/545/252
f 390/547/254 334/456/195 335/458/197
f 391/548/255 333/549/256 334/456/195
f 388/550/257 332/454/192 333/549/256
f 400/551/258 331/552/259 332/451/192
f 387/553/260 330/450/190 331/552/259
f 398/554/154 329/448/190 330/450/190
f 397/555/154 328/446/188 329/448/190
f 393/556/164 326/437/181 327/440/184
f 394/557/162 325/558/261 326/437/181
f 399/559/161 323/533/178 325/558/261
f 389/560/160 324/467/204 323/434/178
f 411/421/109 393/561/164 395/541/109
f 412/414/149 401/543/39 396/542/149
f 417/433/39 402/544/39 401/543/39
f 418/432/39 392/546/253 402/544/39
f 392/546/253 406/430/119 390/562/254
f 406/429/119 391/548/255 390/547/254
f 407/428/158 388/550/257 391/548/255
f 404/427/169 400/563/258 388/550/257
f 416/425/168 387/553/260 400/551/258
f 403/424/177 398/554/154 387/553/260
f 414/423/154 397/555/154 398/554/154
f 413/422/154 395/541/109 397/555/154
f 409/420/164 394/557/162 393/556/164
f 410/419/162 399/559/161 394/557/162
f 415/417/161 389/564/160 399/559/161
f 405/415/160 396/542/149 389/560/160
f 419/363/149 298/565/262 284/412/149
f 432/380/39 297/406/170 298/565/262
f 423/379/39 296/531/120 297/406/170
f 427/377/119 294/402/158 295/404/119
f 294/402/158 426/375/157 293/399/169
f 426/375/157 292/566/156 293/399/169
f 424/373/156 291/394/155 292/397/156
f 429/372/155 290/510/231 291/394/155
f 434/371/154 289/391/165 290/510/231
f 431/370/154 288/537/109 289/391/165
f 433/368/108 286/387/162 287/389/163
f 420/367/152 285/384/161 286/387/162
f 285/384/161 422/365/150 283/567/160
f 422/364/150 284/412/149 283/381/160
f 430/315/120 295/568/119 296/531/120
f 425/303/109 287/569/163 288/537/109
f 298/565/262 437/570/263 322/413/176
f 322/413/176 438/571/246 317/408/172
f 317/408/172 435/572/264 297/406/170
f 297/406/170 436/573/243 298/565/262
f 437/570/263 440/522/243 442/529/250
f 437/570/263 441/525/246 438/571/246
f 438/574/246 439/526/247 435/572/264
f 436/573/243 439/575/247 440/522/243
f 444/410/174 318/527/248 443/411/175
f 443/411/175 319/524/245 445/409/173
f 445/409/173 320/523/244 446/576/265
f 446/576/265 321/528/249 444/410/174
s 0
f 100/1/1 3/14/1 132/2/1
f 18/7/266 19/157/266 7/8/266
f 167/10/267 8/577/267 2/11/267
f 110/13/80 11/79/80 3/14/80
f 48/15/6 49/106/6 37/16/6
f 24/18/268 25/134/268 13/19/268
f 146/21/269 14/578/269 4/22/269
f 111/26/81 4/22/81 16/27/81
f 5/29/270 17/49/270 18/30/270
f 170/32/271 20/52/271 8/33/271
f 8/33/272 20/52/272 21/35/272
f 107/37/87 23/58/87 11/38/87
f 11/38/273 23/58/273 24/40/273
f 149/42/274 26/61/274 14/43/274
f 14/43/275 26/61/275 27/45/275
f 114/47/18 17/49/18 5/29/18
f 17/49/276 29/68/276 30/50/276
f 143/51/277 32/73/277 20/52/277
f 20/52/278 32/73/278 33/53/278
f 33/54/279 34/135/279 22/55/279
f 105/57/23 35/76/23 23/58/23
f 23/58/280 35/76/280 36/59/280
f 173/60/281 38/81/281 26/61/281
f 26/61/282 38/81/282 39/62/282
f 39/63/283 40/84/283 28/64/283
f 119/66/28 29/68/28 17/49/28
f 41/67/284 42/87/284 30/50/284
f 42/69/30 43/155/30 31/70/30
f 158/72/31 44/74/31 32/73/31
f 44/74/32 45/90/32 33/53/32
f 112/75/33 47/77/33 35/76/33
f 47/77/285 48/96/285 36/59/285
f 12/78/286 13/212/286 3/14/286
f 131/80/36 50/82/36 38/81/36
f 50/82/287 51/99/287 39/62/287
f 51/83/288 52/101/288 40/84/288
f 115/85/39 41/67/39 29/68/39
f 53/86/289 54/104/289 42/87/289
f 161/88/290 56/89/290 44/74/290
f 56/89/291 57/112/291 45/90/291
f 45/91/292 57/113/292 58/92/292
f 106/94/44 59/95/44 47/77/44
f 59/95/293 60/117/293 48/96/293
f 137/97/88 62/98/88 50/82/88
f 62/98/294 63/122/294 51/99/294
f 51/83/295 63/148/295 64/100/295
f 124/102/49 53/86/49 41/67/49
f 65/103/296 66/579/296 54/104/296
f 48/15/297 60/118/297 61/105/297
f 54/107/298 66/580/298 67/108/298
f 155/110/299 68/111/299 56/89/299
f 68/111/300 69/581/300 57/112/300
f 57/113/301 69/582/301 70/114/301
f 109/115/56 71/116/56 59/95/56
f 71/116/302 72/583/302 60/117/302
f 60/118/303 72/584/303 73/119/303
f 152/120/304 74/121/304 62/98/304
f 74/121/305 75/585/305 63/122/305
f 113/123/85 65/103/85 53/86/85
f 2/11/306 8/577/306 9/124/306
f 21/56/307 22/55/307 10/126/307
f 77/128/308 67/240/308 66/129/308
f 176/131/309 78/136/309 68/132/309
f 36/17/310 37/16/310 25/134/310
f 45/91/311 46/93/311 34/135/311
f 78/136/312 70/204/312 69/137/312
f 101/138/83 79/141/83 71/139/83
f 79/141/313 73/245/313 72/142/313
f 164/143/314 80/150/314 74/144/314
f 27/65/315 28/64/315 16/146/315
f 63/148/316 75/586/316 76/149/316
f 80/150/317 76/200/317 75/151/317
f 118/152/84 77/128/84 65/130/84
f 189/154/76 117/188/76 78/136/76
f 42/69/318 54/107/318 55/109/318
f 4/22/319 14/578/319 15/156/319
f 30/71/320 31/70/320 19/157/320
f 116/158/1 84/162/1 177/159/1
f 126/161/5 94/196/5 84/162/5
f 127/163/10 95/197/10 88/164/10
f 123/166/14 91/173/14 94/167/14
f 98/169/18 82/175/18 88/170/18
f 121/172/23 89/177/23 91/173/23
f 103/174/28 87/179/28 82/175/28
f 128/176/33 96/181/33 89/177/33
f 99/178/39 83/183/39 87/179/39
f 122/180/44 90/185/44 96/181/44
f 108/182/49 92/187/49 83/183/49
f 125/184/321 93/198/321 90/185/321
f 97/186/322 81/202/322 92/187/322
f 117/188/83 85/199/83 93/189/83
f 102/191/84 86/203/84 81/192/84
f 101/138/76 85/199/76 180/194/76
f 84/162/1 100/1/1 183/3/1
f 94/196/5 110/13/5 100/1/5
f 95/197/10 111/26/10 104/28/10
f 91/173/82 107/37/82 110/39/82
f 89/177/23 105/57/23 107/37/23
f 96/181/33 112/75/33 105/57/33
f 90/185/44 106/94/44 112/75/44
f 93/198/323 109/115/323 106/94/323
f 85/199/83 101/138/83 109/140/83
f 28/64/18 98/169/18 104/171/18
f 40/84/28 103/174/28 98/169/28
f 52/101/39 99/178/39 103/174/39
f 64/100/49 108/182/49 99/178/49
f 76/149/61 97/186/61 108/182/61
f 80/150/84 102/191/84 97/193/84
f 79/141/76 101/138/76 186/195/76
f 82/175/18 114/47/18 120/48/18
f 87/179/28 119/66/28 114/47/28
f 83/183/39 115/85/39 119/66/39
f 92/187/49 124/102/49 115/85/49
f 81/202/322 113/123/322 124/102/322
f 86/203/84 118/152/84 113/153/84
f 85/199/76 117/188/76 189/154/76
f 2/11/1 116/158/1 192/160/1
f 10/125/80 126/161/80 116/158/80
f 1/4/81 127/163/81 120/165/81
f 22/55/14 123/166/14 126/168/14
f 34/135/23 121/172/23 123/166/23
f 46/93/33 128/176/33 121/172/33
f 58/92/44 122/180/44 128/176/44
f 70/114/56 125/184/56 122/180/56
f 78/136/83 117/188/83 125/190/83
f 185/205/1 134/23/1 4/22/1
f 184/206/1 133/207/1 134/23/1
f 183/3/1 132/2/1 133/207/1
f 7/25/267 165/209/267 138/208/267
f 165/209/267 166/211/267 139/210/267
f 166/211/267 167/10/267 140/12/267
f 13/212/269 144/213/269 132/2/269
f 144/213/269 145/214/269 133/207/269
f 145/214/269 146/21/269 134/23/269
f 19/157/271 168/216/271 165/215/271
f 168/216/271 169/218/271 166/217/271
f 169/218/271 170/32/271 167/34/271
f 25/134/274 147/220/274 144/219/274
f 147/220/274 148/222/274 145/221/274
f 148/222/274 149/42/274 146/44/274
f 31/70/277 141/223/277 168/216/277
f 141/223/277 142/224/277 169/218/277
f 142/224/277 143/51/277 170/32/277
f 37/16/281 171/225/281 147/220/281
f 171/225/281 172/226/281 148/222/281
f 172/226/25 173/60/25 149/42/25
f 43/155/31 156/227/31 141/223/31
f 156/227/31 157/228/31 142/224/31
f 157/228/31 158/72/31 143/51/31
f 49/106/36 129/229/36 171/225/36
f 129/229/36 130/230/36 172/226/36
f 130/230/36 131/80/36 173/60/36
f 55/109/290 159/231/290 156/227/290
f 159/231/290 160/232/290 157/228/290
f 160/232/290 161/88/290 158/72/290
f 61/105/88 135/233/88 129/229/88
f 135/233/88 136/234/88 130/230/88
f 136/234/88 137/97/88 131/80/88
f 67/108/299 153/235/299 159/231/299
f 153/235/299 154/236/299 160/232/299
f 154/236/299 155/110/299 161/88/299
f 73/119/304 150/237/304 135/233/304
f 150/237/304 151/238/304 136/234/304
f 151/238/304 152/120/304 137/97/304
f 77/128/309 174/241/309 153/239/309
f 174/241/309 175/243/309 154/242/309
f 175/243/309 176/131/309 155/133/309
f 79/141/314 162/201/314 150/244/314
f 162/201/314 163/247/314 151/246/314
f 163/247/314 164/143/314 152/145/314
f 191/248/76 174/241/76 77/128/76
f 191/248/76 190/249/76 175/243/76
f 190/249/76 189/154/76 176/131/76
f 194/250/1 179/252/1 95/197/1
f 193/251/1 178/253/1 179/252/1
f 192/160/1 177/159/1 178/253/1
f 188/254/76 182/256/76 86/203/76
f 187/255/76 181/257/76 182/256/76
f 186/195/76 180/194/76 181/257/76
f 179/252/1 185/205/1 111/26/1
f 178/253/1 184/206/1 185/205/1
f 177/159/1 183/3/1 184/206/1
f 164/143/76 188/254/76 102/191/76
f 163/247/76 187/255/76 188/254/76
f 162/201/76 186/195/76 187/255/76
f 182/256/76 191/248/76 118/152/76
f 181/257/76 190/249/76 191/248/76
f 180/194/76 189/154/76 190/249/76
f 138/208/1 194/250/1 127/163/1
f 139/210/1 193/251/1 194/250/1
f 140/12/1 192/160/1 193/251/1
f 201/258/89 202/261/89 215/259/89
f 202/261/18 203/263/18 226/262/18
f 203/263/81 204/265/81 218/264/81
f 204/265/1 205/267/1 219/266/1
f 205/267/324 206/269/324 216/268/324
f 206/269/325 207/271/325 217/270/325
f 207/271/93 208/273/93 198/272/93
f 208/273/33 197/275/33 224/274/33
f 197/275/94 196/277/94 225/276/94
f 196/277/326 195/279/326 220/278/326
f 195/279/327 209/281/327 221/280/327
f 209/281/76 210/283/76 199/282/76
f 210/283/75 211/285/75 200/284/75
f 211/285/61 212/287/61 222/286/61
f 212/287/98 213/289/98 223/288/98
f 213/289/39 201/587/39 214/290/39
s 1
f 228/291/99 229/299/105 230/292/100
f 227/293/101 231/296/101 232/294/99
f 234/295/102 232/294/99 231/296/101
f 238/298/104 230/292/100 229/299/105
f 272/301/107 271/539/140 433/302/108
f 240/304/110 239/588/153 255/305/111
f 227/293/101 230/292/100 240/307/110
f 241/308/113 242/309/114 231/296/101
f 233/297/103 231/296/101 242/309/114
f 246/311/116 234/295/102 233/297/103
f 280/313/118 279/530/146 427/314/119
f 248/316/121 247/589/159 263/317/122
f 232/294/99 234/295/102 248/319/121
f 250/321/124 228/291/99 232/294/99
f 229/299/105 228/291/99 250/321/124
f 251/323/126 236/590/227 235/324/125
f 254/326/128 238/330/104 237/327/106
f 255/329/111 239/591/153 238/330/104
f 241/331/113 240/304/110 256/306/112
f 242/333/114 241/331/113 257/332/130
f 243/335/115 242/333/114 258/334/130
f 260/337/132 244/592/251 243/335/115
f 262/338/133 246/342/116 245/339/117
f 263/341/122 247/593/159 246/342/116
f 249/343/124 248/316/121 264/318/123
f 250/345/124 249/343/124 265/344/135
f 235/324/125 250/345/124 266/346/135
f 267/347/136 251/323/126 252/325/127
f 253/328/129 251/418/126 267/349/136
f 270/351/139 254/326/128 253/328/129
f 271/352/140 255/329/111 254/326/128
f 257/332/130 256/306/112 272/301/107
f 258/334/130 257/332/130 273/353/141
f 259/336/131 258/334/130 274/354/141
f 276/356/143 260/337/132 259/336/131
f 261/340/134 260/499/132 276/357/143
f 278/359/145 262/338/133 261/340/134
f 279/360/146 263/341/122 262/338/133
f 265/344/135 264/318/123 280/313/118
f 266/346/135 265/344/135 281/361/147
f 252/325/127 266/346/135 282/362/148
f 267/347/136 268/348/137 419/363/149
f 269/350/138 267/349/136 422/365/150
f 270/351/139 269/350/138 421/366/151
f 271/352/140 270/351/139 420/367/152
f 230/292/100 238/298/104 239/369/153
f 273/353/141 272/301/107 425/303/109
f 274/354/141 273/353/141 431/370/154
f 275/355/142 274/354/141 434/371/154
f 276/356/143 275/355/142 429/372/155
f 277/358/144 276/357/143 424/374/156
f 278/359/145 277/358/144 426/375/157
f 279/360/146 278/359/145 428/376/158
f 234/295/102 246/311/116 247/378/159
f 281/361/147 280/313/118 430/315/120
f 282/362/148 281/361/147 423/379/39
f 268/348/137 282/362/148 432/380/39
f 283/381/160 284/412/149 300/382/149
f 285/384/161 283/567/160 299/385/160
f 286/387/162 285/384/161 301/386/161
f 287/389/163 286/387/162 302/388/162
f 289/391/165 288/537/109 304/392/109
f 291/394/155 290/510/231 311/395/167
f 292/397/156 291/394/155 310/396/155
f 293/399/169 292/566/156 312/400/168
f 294/402/158 293/399/169 313/401/157
f 295/404/119 294/402/158 314/403/158
f 297/406/170 296/531/120 316/407/171
f 445/409/173 446/576/265 444/410/174
f 284/412/149 298/565/262 322/413/176
f 299/383/160 300/382/149 412/414/149
f 301/386/161 299/385/160 405/416/160
f 237/327/106 236/594/227 251/418/126
f 302/388/162 301/386/161 415/417/161
f 303/390/164 302/388/162 410/419/162
f 305/393/166 304/392/109 411/421/109
f 311/395/167 305/393/166 413/422/154
f 310/396/155 311/395/167 414/423/154
f 312/398/168 310/396/155 403/424/177
f 313/401/157 312/400/168 416/426/168
f 314/403/158 313/401/157 404/427/169
f 315/405/119 314/403/158 407/428/158
f 316/407/171 315/532/119 406/430/119
f 317/408/172 316/407/171 408/431/171
f 322/413/176 317/408/172 418/432/39
f 300/382/149 322/413/176 417/433/39
f 323/434/178 324/467/204 340/435/179
f 326/437/181 325/558/261 341/438/182
f 327/440/184 326/437/181 342/439/183
f 344/442/186 328/446/188 327/443/184
f 345/445/187 329/448/190 328/446/188
f 346/447/189 330/450/190 329/448/190
f 347/449/191 331/552/259 330/450/190
f 332/451/192 331/552/259 347/449/191
f 349/453/194 333/549/256 332/454/192
f 334/456/195 333/549/256 349/453/194
f 335/458/197 334/456/195 350/457/196
f 352/460/199 336/545/252 335/461/197
f 337/463/200 336/545/252 352/460/199
f 338/465/202 337/463/200 353/464/201
f 324/467/204 338/465/202 354/466/203
f 339/436/180 340/435/179 356/468/205
f 342/439/183 341/438/182 357/470/207
f 343/441/185 342/439/183 358/471/208
f 360/473/210 344/442/186 343/444/185
f 361/475/211 345/445/187 344/442/186
f 362/476/212 346/447/189 345/445/187
f 363/477/213 347/449/191 346/447/189
f 348/452/193 347/449/191 363/477/213
f 350/457/196 349/453/194 365/479/215
f 351/459/198 350/457/196 366/480/216
f 353/464/201 352/460/199 368/482/218
f 370/484/220 354/466/203 353/464/201
f 340/435/179 354/466/203 370/484/220
f 357/470/207 341/438/182 339/485/180
f 371/487/221 357/595/207 355/488/206
f 358/490/208 357/595/207 371/487/221
f 372/491/222 360/494/210 359/492/209
f 373/493/223 361/496/211 360/494/210
f 374/495/224 362/498/212 361/496/211
f 375/497/225 363/502/213 362/498/212
f 245/339/117 244/596/251 260/499/132
f 365/479/215 349/453/194 348/455/193
f 375/497/225 365/597/215 364/501/214
f 366/503/216 365/597/215 375/497/225
f 229/299/105 235/322/125 236/505/227
f 369/506/219 368/598/218 376/504/226
f 378/508/229 370/599/220 369/506/219
f 356/489/205 370/599/220 378/508/229
f 374/495/224 377/507/228 376/504/226
f 373/493/223 378/508/229 377/507/228
f 372/491/222 371/487/221 378/508/229
f 289/391/165 379/511/232 380/509/230
f 305/393/166 381/513/234 379/511/232
f 305/393/166 311/395/167 382/512/233
f 290/510/231 380/509/230 382/512/233
f 379/511/232 383/515/236 384/514/235
f 381/513/234 385/517/238 383/515/236
f 381/513/234 382/512/233 386/516/237
f 382/512/233 380/509/230 384/514/235
f 383/515/236 308/520/241 307/518/239
f 383/515/236 385/517/238 309/519/240
f 385/517/238 386/516/237 306/521/242
f 384/514/235 307/518/239 306/521/242
f 440/522/243 439/575/247 320/523/244
f 441/525/246 321/528/249 320/523/244
f 441/525/246 442/529/250 318/527/248
f 440/522/243 319/524/245 318/527/248
f 264/318/123 263/317/122 279/530/146
f 296/531/120 295/568/119 315/532/119
f 341/438/182 325/558/261 323/533/178
f 376/504/226 368/598/218 367/534/217
f 368/482/218 352/460/199 351/462/198
f 304/392/109 303/538/164 409/536/164
f 288/537/109 287/569/163 303/538/164
f 256/306/112 255/305/111 271/539/140
f 233/297/103 243/310/115 244/540/251
f 395/541/109 393/561/164 327/443/184
f 396/542/149 401/543/39 338/465/202
f 401/543/39 402/544/39 337/463/200
f 402/544/39 392/546/253 336/545/252
f 392/546/253 390/562/254 335/461/197
f 390/547/254 391/548/255 334/456/195
f 391/548/255 388/550/257 333/549/256
f 388/550/257 400/563/258 332/454/192
f 400/551/258 387/553/260 331/552/259
f 387/553/260 398/554/154 330/450/190
f 398/554/154 397/555/154 329/448/190
f 397/555/154 395/541/109 328/446/188
f 393/556/164 394/557/162 326/437/181
f 394/557/162 399/559/161 325/558/261
f 399/559/161 389/564/160 323/533/178
f 389/560/160 396/542/149 324/467/204
f 411/421/109 409/536/164 393/561/164
f 412/414/149 417/433/39 401/543/39
f 417/433/39 418/432/39 402/544/39
f 418/432/39 408/431/171 392/546/253
f 392/546/253 408/431/171 406/430/119
f 406/429/119 407/428/158 391/548/255
f 407/428/158 404/427/169 388/550/257
f 404/427/169 416/426/168 400/563/258
f 416/425/168 403/424/177 387/553/260
f 403/424/177 414/423/154 398/554/154
f 414/423/154 413/422/154 397/555/154
f 413/422/154 411/421/109 395/541/109
f 409/420/164 410/419/162 394/557/162
f 410/419/162 415/417/161 399/559/161
f 415/417/161 405/416/160 389/564/160
f 405/415/160 412/414/149 396/542/149
f 419/363/149 432/380/39 298/565/262
f 432/380/39 423/379/39 297/406/170
f 423/379/39 430/315/120 296/531/120
f 427/377/119 428/376/158 294/402/158
f 294/402/158 428/376/158 426/375/157
f 426/375/157 424/374/156 292/566/156
f 424/373/156 429/372/155 291/394/155
f 429/372/155 434/371/154 290/510/231
f 434/371/154 431/370/154 289/391/165
f 431/370/154 425/303/109 288/537/109
f 433/368/108 420/367/152 286/387/162
f 420/367/152 421/366/151 285/384/161
f 285/384/161 421/366/151 422/365/150
f 422/364/150 419/363/149 284/412/149
f 430/315/120 427/314/119 295/568/119
f 425/303/109 433/302/108 287/569/163
f 298/565/262 436/573/243 437/570/263
f 322/413/176 437/570/263 438/571/246
f 317/408/172 438/574/246 435/572/264
f 297/406/170 435/572/264 436/573/243
f 437/570/263 436/573/243 440/522/243
f 437/570/263 442/529/250 441/525/246
f 438/574/246 441/525/246 439/526/247
f 436/573/243 435/572/264 439/575/247
f 444/410/174 321/528/249 318/527/248
f 443/411/175 318/527/248 319/524/245
f 445/409/173 319/524/245 320/523/244
f 446/576/265 320/523/244 321/528/249
