# Blender 3.6.23
# www.blender.org
o sol.061
v 0.982696 2.673040 -3.235343
v 0.958064 2.670614 -3.235343
v 0.934378 2.663429 -3.235343
v 0.912549 2.651762 -3.235343
v 0.893416 2.636059 -3.235343
v 0.877714 2.616926 -3.235343
v 0.866046 2.595098 -3.235343
v 0.858862 2.571412 -3.235343
v 0.856435 2.546780 -3.235343
v 0.858862 2.522147 -3.235343
v 0.866046 2.498462 -3.235343
v 0.877714 2.476633 -3.235343
v 0.893416 2.457500 -3.235343
v 0.912549 2.441798 -3.235343
v 0.934378 2.430130 -3.235343
v 0.958064 2.422945 -3.235343
v 0.982696 2.420519 -3.235343
v 1.007329 2.422945 -3.235343
v 1.031014 2.430130 -3.235343
v 1.052843 2.441798 -3.235343
v 1.071976 2.457500 -3.235343
v 1.087678 2.476633 -3.235343
v 1.099346 2.498462 -3.235343
v 1.106531 2.522147 -3.235343
v 1.108957 2.546780 -3.235343
v 1.106531 2.571412 -3.235343
v 1.099346 2.595098 -3.235343
v 1.087678 2.616927 -3.235343
v 1.071976 2.636060 -3.235343
v 1.052843 2.651762 -3.235343
v 1.031014 2.663429 -3.235343
v 1.007328 2.670614 -3.235343
v 0.982696 2.666056 -3.235343
v 0.959426 2.663764 -3.235343
v 0.937051 2.656977 -3.235343
v 0.916430 2.645955 -3.235343
v 0.898355 2.631121 -3.235343
v 0.883521 2.613046 -3.235343
v 0.872499 2.592425 -3.235343
v 0.865711 2.570049 -3.235343
v 0.863420 2.546780 -3.235343
v 0.865711 2.523510 -3.235343
v 0.872499 2.501134 -3.235343
v 0.883521 2.480513 -3.235343
v 0.898355 2.462438 -3.235343
v 0.916430 2.447605 -3.235343
v 0.937051 2.436583 -3.235343
v 0.959426 2.429795 -3.235343
v 0.982696 2.427503 -3.235343
v 1.005966 2.429795 -3.235343
v 1.028341 2.436583 -3.235343
v 1.048963 2.447605 -3.235343
v 1.067038 2.462438 -3.235343
v 1.081871 2.480513 -3.235343
v 1.092893 2.501134 -3.235343
v 1.099681 2.523510 -3.235343
v 1.101973 2.546780 -3.235343
v 1.099681 2.570050 -3.235343
v 1.092893 2.592425 -3.235343
v 1.081871 2.613046 -3.235343
v 1.067037 2.631121 -3.235343
v 1.048963 2.645955 -3.235343
v 1.028341 2.656977 -3.235343
v 1.005966 2.663764 -3.235343
v 0.982696 2.658162 -3.235343
v 0.960967 2.656022 -3.235343
v 0.940072 2.649683 -3.235343
v 0.920815 2.639391 -3.235343
v 0.903937 2.625539 -3.235343
v 0.890085 2.608660 -3.235343
v 0.879792 2.589404 -3.235343
v 0.873454 2.568510 -3.235343
v 0.871314 2.546780 -3.235343
v 0.873454 2.525050 -3.235343
v 0.879792 2.504156 -3.235343
v 0.890085 2.484899 -3.235343
v 0.903937 2.468020 -3.235343
v 0.920815 2.454169 -3.235343
v 0.940072 2.443876 -3.235343
v 0.960967 2.437537 -3.235343
v 0.982696 2.435397 -3.235343
v 1.004426 2.437537 -3.235343
v 1.025320 2.443876 -3.235343
v 1.044577 2.454169 -3.235343
v 1.061455 2.468020 -3.235343
v 1.075307 2.484899 -3.235343
v 1.085600 2.504156 -3.235343
v 1.091938 2.525050 -3.235343
v 1.094079 2.546780 -3.235343
v 1.091938 2.568510 -3.235343
v 1.085600 2.589404 -3.235343
v 1.075307 2.608661 -3.235343
v 1.061455 2.625539 -3.235343
v 1.044577 2.639391 -3.235343
v 1.025320 2.649683 -3.235343
v 1.004426 2.656022 -3.235343
v 1.014243 2.647059 -3.235343
v 0.982696 2.649648 -3.235343
v 0.951150 2.647059 -3.235343
v 1.022847 2.633347 -3.235343
v 0.982696 2.635983 -3.235343
v 0.942545 2.633347 -3.235343
v 1.029909 2.615546 -3.235343
v 0.982696 2.617871 -3.235343
v 0.935484 2.615546 -3.235343
v 1.035156 2.594505 -3.235343
v 0.982696 2.596227 -3.235343
v 0.930236 2.594505 -3.235343
v 1.038387 2.571217 -3.235343
v 0.982696 2.572131 -3.235343
v 0.927005 2.571217 -3.235343
v 1.039478 2.546780 -3.235343
v 0.982696 2.546780 -3.235343
v 0.925914 2.546780 -3.235343
v 1.038387 2.522343 -3.235343
v 0.982696 2.521429 -3.235343
v 0.927005 2.522343 -3.235343
v 1.035156 2.499055 -3.235343
v 0.982696 2.497333 -3.235343
v 0.930236 2.499055 -3.235343
v 1.029909 2.478013 -3.235343
v 0.982696 2.475688 -3.235343
v 0.935484 2.478013 -3.235343
v 1.022847 2.460213 -3.235343
v 0.982696 2.457577 -3.235343
v 0.942545 2.460213 -3.235343
v 1.014243 2.446501 -3.235343
v 0.982696 2.443911 -3.235343
v 0.951150 2.446501 -3.235343
vn 0.0001 -0.0000 1.0000
vn -0.0000 -0.0000 1.0000
vn -0.0001 -0.0000 1.0000
vt 0.922460 0.329641
vt 0.903423 0.235888
vt 0.947197 0.319666
vt 0.101609 0.228358
vt 0.080814 0.321737
vt 0.056269 0.311299
vt 0.589624 0.973785
vt 0.670358 0.922460
vt 0.680333 0.947197
vt 0.844145 0.162259
vt 0.756617 0.123646
vt 0.771642 0.101609
vt 0.054091 0.406942
vt 0.017833 0.495472
vt 0.027981 0.401493
vt 0.764112 0.903423
vt 0.819059 0.825109
vt 0.837741 0.844145
vt 0.688701 0.056269
vt 0.593058 0.054091
vt 0.598507 0.027982
vt 0.026215 0.589625
vt 0.077540 0.670359
vt 0.052803 0.680334
vt 0.876354 0.756617
vt 0.943731 0.688701
vt 0.898391 0.771643
vt 0.118893 0.749503
vt 0.155855 0.837742
vt 0.096577 0.764113
vt 0.504528 0.017833
vt 0.415333 0.052422
vt 0.410375 0.026215
vt 0.945909 0.593059
vt 0.982167 0.504528
vt 0.972018 0.598507
vt 0.243383 0.876354
vt 0.311300 0.943731
vt 0.228358 0.898391
vt 0.319666 0.052803
vt 0.250497 0.118893
vt 0.235888 0.096577
vt 0.947578 0.415333
vt 0.973785 0.410375
vt 0.401493 0.972019
vt 0.495723 0.955496
vt 0.495472 0.982167
vt 0.180941 0.174891
vt 0.162259 0.155855
vt 0.881107 0.250497
vt 0.678263 0.080814
vt 0.052422 0.584668
vt 0.174891 0.819060
vt 0.321737 0.919186
vt 0.894500 0.340917
vt 0.413101 0.916397
vt 0.406942 0.945909
vt 0.202057 0.196408
vt 0.123646 0.243383
vt 0.579063 0.917955
vt 0.584667 0.947578
vt 0.803592 0.202058
vt 0.825109 0.180941
vt 0.108557 0.333536
vt 0.659083 0.894500
vt 0.749503 0.881108
vt 0.739632 0.148555
vt 0.074651 0.496006
vt 0.044504 0.495723
vt 0.851445 0.739633
vt 0.586899 0.083603
vt 0.504278 0.044504
vt 0.144116 0.732990
vt 0.891442 0.666465
vt 0.919186 0.678263
vt 0.260368 0.851445
vt 0.420936 0.082045
vt 0.329641 0.077540
vt 0.955496 0.504278
vt 0.917955 0.420936
vt 0.267010 0.144116
vt 0.855884 0.267010
vt 0.148554 0.260368
vt 0.083603 0.413101
vt 0.732989 0.855884
vt 0.082045 0.579064
vt 0.196408 0.797943
vt 0.503995 0.074651
vt 0.916396 0.586899
vt 0.333536 0.891443
vt 0.340917 0.105500
vt 0.616874 0.884079
vt 0.650225 0.832024
vt 0.797942 0.803592
vt 0.677830 0.764300
vt 0.698623 0.684134
vt 0.711798 0.595318
vt 0.716841 0.502037
vt 0.925349 0.503995
vt 0.713551 0.408677
vt 0.702046 0.319629
vt 0.682763 0.239087
vt 0.656434 0.170857
vt 0.624067 0.118183
vt 0.666464 0.108558
vt 0.496311 0.892836
vt 0.496801 0.840651
vt 0.497451 0.771485
vt 0.498227 0.688830
vt 0.499091 0.596812
vt 0.500000 0.500000
vt 0.500909 0.403188
vt 0.501774 0.311171
vt 0.502550 0.228515
vt 0.503199 0.159349
vt 0.503689 0.107164
vt 0.496006 0.925349
vt 0.375934 0.881817
vt 0.343566 0.829144
vt 0.317237 0.760913
vt 0.297954 0.680371
vt 0.286449 0.591323
vt 0.288202 0.404682
vt 0.301377 0.315866
vt 0.322170 0.235700
vt 0.349775 0.167977
vt 0.383126 0.115921
vt 0.105500 0.659084
vt 0.283159 0.497964
s 0
f 55/1/1 22/2/1 23/3/1
f 12/4/2 43/5/2 11/6/2
f 32/7/2 63/8/2 31/9/2
f 21/10/2 52/11/2 20/12/2
f 42/13/2 9/14/2 10/15/2
f 30/16/2 61/17/2 29/18/2
f 19/19/2 50/20/2 18/21/2
f 8/22/2 39/23/2 7/24/2
f 60/25/3 27/26/3 28/27/3
f 38/28/2 5/29/2 6/30/2
f 17/31/2 48/32/2 16/33/2
f 58/34/2 25/35/2 26/36/2
f 36/37/2 3/38/2 4/39/2
f 15/40/2 46/41/2 14/42/2
f 56/43/2 23/3/2 24/44/2
f 2/45/2 33/46/2 1/47/2
f 45/48/2 12/4/2 13/49/2
f 33/46/2 32/7/2 1/47/2
f 54/50/2 21/10/2 22/2/2
f 43/5/1 10/15/1 11/6/1
f 63/8/2 30/16/2 31/9/2
f 20/12/2 51/51/2 19/19/2
f 9/14/2 40/52/2 8/22/2
f 61/17/2 28/27/2 29/18/2
f 50/20/2 17/31/2 18/21/2
f 39/23/3 6/30/3 7/24/3
f 27/26/2 58/34/2 26/36/2
f 37/53/2 4/39/2 5/29/2
f 48/32/2 15/40/2 16/33/2
f 25/35/2 56/43/2 24/44/2
f 35/54/2 2/45/2 3/38/2
f 46/41/2 13/49/2 14/42/2
f 56/43/2 87/55/2 55/1/2
f 66/56/2 33/46/2 34/57/2
f 77/58/2 44/59/2 45/48/2
f 33/46/2 96/60/2 64/61/2
f 54/50/2 85/62/2 53/63/2
f 75/64/2 42/13/2 43/5/2
f 95/65/2 62/66/2 63/8/2
f 84/67/2 51/51/2 52/11/2
f 73/68/2 40/52/2 41/69/2
f 61/17/2 92/70/2 60/25/2
f 82/71/2 49/72/2 50/20/2
f 39/23/2 70/73/2 38/28/2
f 91/74/2 58/34/2 59/75/2
f 37/53/2 68/76/2 36/37/2
f 80/77/2 47/78/2 48/32/2
f 57/79/1 88/80/1 56/43/1
f 35/54/2 66/56/2 34/57/2
f 78/81/2 45/48/2 46/41/2
f 55/1/2 86/82/2 54/50/2
f 76/83/2 43/5/2 44/59/2
f 96/60/2 63/8/2 64/61/2
f 85/62/2 52/11/2 53/63/2
f 74/84/3 41/69/3 42/13/3
f 94/85/2 61/17/2 62/66/2
f 51/51/2 82/71/2 50/20/2
f 72/86/2 39/23/2 40/52/2
f 60/25/2 91/74/2 59/75/2
f 38/28/2 69/87/2 37/53/2
f 81/88/2 48/32/2 49/72/2
f 90/89/2 57/79/2 58/34/2
f 36/37/2 67/90/2 35/54/2
f 79/91/2 46/41/2 47/78/2
f 95/65/2 97/92/2 94/85/2
f 94/85/2 100/93/2 93/94/2
f 93/94/2 103/95/2 92/70/2
f 92/70/2 106/96/2 91/74/2
f 91/74/2 109/97/2 90/89/2
f 90/89/2 112/98/2 89/99/2
f 112/98/2 88/80/2 89/99/2
f 115/100/2 87/55/2 88/80/2
f 118/101/2 86/82/2 87/55/2
f 121/102/2 85/62/2 86/82/2
f 124/103/2 84/67/2 85/62/2
f 127/104/2 83/105/2 84/67/2
f 96/60/2 98/106/2 97/92/2
f 97/92/2 101/107/2 100/93/2
f 100/93/2 104/108/2 103/95/2
f 103/95/2 107/109/2 106/96/2
f 106/96/2 110/110/2 109/97/2
f 109/97/2 113/111/2 112/98/2
f 113/111/2 115/100/2 112/98/2
f 116/112/2 118/101/2 115/100/2
f 119/113/2 121/102/2 118/101/2
f 122/114/2 124/103/2 121/102/2
f 125/115/2 127/104/2 124/103/2
f 128/116/2 82/71/2 127/104/2
f 66/56/2 98/106/2 65/117/2
f 99/118/2 101/107/2 98/106/2
f 102/119/2 104/108/2 101/107/2
f 105/120/2 107/109/2 104/108/2
f 108/121/2 110/110/2 107/109/2
f 111/122/2 113/111/2 110/110/2
f 113/111/2 117/123/2 116/112/2
f 116/112/2 120/124/2 119/113/2
f 119/113/2 123/125/2 122/114/2
f 122/114/2 126/126/2 125/115/2
f 125/115/2 129/127/2 128/116/2
f 128/116/2 80/77/2 81/88/2
f 67/90/2 99/118/2 66/56/2
f 68/76/2 102/119/2 99/118/2
f 69/87/2 105/120/2 102/119/2
f 70/73/2 108/121/2 105/120/2
f 71/128/2 111/122/2 108/121/2
f 72/86/2 114/129/2 111/122/2
f 114/129/2 74/84/2 117/123/2
f 117/123/2 75/64/2 120/124/2
f 120/124/2 76/83/2 123/125/2
f 123/125/2 77/58/2 126/126/2
f 126/126/2 78/81/2 129/127/2
f 129/127/2 79/91/2 80/77/2
f 55/1/2 54/50/2 22/2/2
f 12/4/2 44/59/2 43/5/2
f 32/7/2 64/61/2 63/8/2
f 21/10/2 53/63/2 52/11/2
f 42/13/2 41/69/2 9/14/2
f 30/16/2 62/66/2 61/17/2
f 19/19/2 51/51/2 50/20/2
f 8/22/2 40/52/2 39/23/2
f 60/25/2 59/75/2 27/26/2
f 38/28/2 37/53/2 5/29/2
f 17/31/2 49/72/2 48/32/2
f 58/34/2 57/79/2 25/35/2
f 36/37/2 35/54/2 3/38/2
f 15/40/2 47/78/2 46/41/2
f 56/43/2 55/1/2 23/3/2
f 2/45/2 34/57/2 33/46/2
f 45/48/2 44/59/2 12/4/2
f 33/46/2 64/61/2 32/7/2
f 54/50/2 53/63/2 21/10/2
f 43/5/2 42/13/2 10/15/2
f 63/8/2 62/66/2 30/16/2
f 20/12/2 52/11/2 51/51/2
f 9/14/2 41/69/2 40/52/2
f 61/17/2 60/25/2 28/27/2
f 50/20/2 49/72/2 17/31/2
f 39/23/2 38/28/2 6/30/2
f 27/26/2 59/75/2 58/34/2
f 37/53/2 36/37/2 4/39/2
f 48/32/2 47/78/2 15/40/2
f 25/35/2 57/79/2 56/43/2
f 35/54/2 34/57/2 2/45/2
f 46/41/2 45/48/2 13/49/2
f 56/43/2 88/80/2 87/55/2
f 66/56/2 65/117/2 33/46/2
f 77/58/2 76/83/2 44/59/2
f 33/46/2 65/117/2 96/60/2
f 54/50/2 86/82/2 85/62/2
f 75/64/2 74/84/2 42/13/2
f 95/65/2 94/85/2 62/66/2
f 84/67/2 83/105/2 51/51/2
f 73/68/2 72/86/2 40/52/2
f 61/17/1 93/94/1 92/70/1
f 82/71/2 81/88/2 49/72/2
f 39/23/2 71/128/2 70/73/2
f 91/74/2 90/89/2 58/34/2
f 37/53/2 69/87/2 68/76/2
f 80/77/2 79/91/2 47/78/2
f 57/79/2 89/99/2 88/80/2
f 35/54/2 67/90/2 66/56/2
f 78/81/2 77/58/2 45/48/2
f 55/1/2 87/55/2 86/82/2
f 76/83/2 75/64/2 43/5/2
f 96/60/2 95/65/2 63/8/2
f 85/62/2 84/67/2 52/11/2
f 74/84/2 73/68/2 41/69/2
f 94/85/2 93/94/2 61/17/2
f 51/51/2 83/105/2 82/71/2
f 72/86/2 71/128/2 39/23/2
f 60/25/3 92/70/3 91/74/3
f 38/28/2 70/73/2 69/87/2
f 81/88/2 80/77/2 48/32/2
f 90/89/2 89/99/2 57/79/2
f 36/37/2 68/76/2 67/90/2
f 79/91/2 78/81/2 46/41/2
f 95/65/2 96/60/2 97/92/2
f 94/85/2 97/92/2 100/93/2
f 93/94/2 100/93/2 103/95/2
f 92/70/2 103/95/2 106/96/2
f 91/74/2 106/96/2 109/97/2
f 90/89/2 109/97/2 112/98/2
f 112/98/2 115/100/2 88/80/2
f 115/100/2 118/101/2 87/55/2
f 118/101/2 121/102/2 86/82/2
f 121/102/2 124/103/2 85/62/2
f 124/103/2 127/104/2 84/67/2
f 127/104/2 82/71/2 83/105/2
f 96/60/2 65/117/2 98/106/2
f 97/92/2 98/106/2 101/107/2
f 100/93/2 101/107/2 104/108/2
f 103/95/2 104/108/2 107/109/2
f 106/96/2 107/109/2 110/110/2
f 109/97/2 110/110/2 113/111/2
f 113/111/2 116/112/2 115/100/2
f 116/112/2 119/113/2 118/101/2
f 119/113/2 122/114/2 121/102/2
f 122/114/2 125/115/2 124/103/2
f 125/115/2 128/116/2 127/104/2
f 128/116/2 81/88/2 82/71/2
f 66/56/2 99/118/2 98/106/2
f 99/118/2 102/119/2 101/107/2
f 102/119/2 105/120/2 104/108/2
f 105/120/2 108/121/2 107/109/2
f 108/121/2 111/122/2 110/110/2
f 111/122/2 114/129/2 113/111/2
f 113/111/2 114/129/2 117/123/2
f 116/112/2 117/123/2 120/124/2
f 119/113/2 120/124/2 123/125/2
f 122/114/2 123/125/2 126/126/2
f 125/115/2 126/126/2 129/127/2
f 128/116/2 129/127/2 80/77/2
f 67/90/2 68/76/2 99/118/2
f 68/76/2 69/87/2 102/119/2
f 69/87/2 70/73/2 105/120/2
f 70/73/2 71/128/2 108/121/2
f 71/128/2 72/86/2 111/122/2
f 72/86/2 73/68/2 114/129/2
f 114/129/2 73/68/2 74/84/2
f 117/123/2 74/84/2 75/64/2
f 120/124/2 75/64/2 76/83/2
f 123/125/2 76/83/2 77/58/2
f 126/126/2 77/58/2 78/81/2
f 129/127/2 78/81/2 79/91/2
