# Blender 3.6.23
# www.blender.org
o sol.053
v -0.598739 1.624819 -2.967388
v -0.594301 1.620640 -2.968125
v -0.592953 1.620640 -2.960004
v -0.597392 1.624819 -2.959267
v -0.599468 1.656201 -2.973742
v -0.595346 1.658959 -2.974426
v -0.591908 1.658959 -2.953703
v -0.596030 1.656201 -2.953019
v -0.604251 1.616785 -2.958564
v -0.605458 1.616785 -2.965838
v -0.605594 1.621501 -2.965890
v -0.604363 1.621501 -2.958472
v -0.611744 1.638573 -2.965561
v -0.618157 1.638515 -2.964494
v -0.616704 1.638515 -2.955734
v -0.610290 1.638573 -2.956797
v -0.612590 1.642990 -2.963428
v -0.616712 1.642990 -2.962744
v -0.615901 1.642990 -2.957857
v -0.611780 1.642990 -2.958541
v -0.617030 1.669890 -2.963583
v -0.614397 1.673910 -2.964020
v -0.613298 1.673910 -2.957398
v -0.615931 1.669890 -2.956961
v -0.632176 1.684688 -2.960657
v -0.627619 1.686618 -2.961413
v -0.626654 1.686618 -2.955595
v -0.631211 1.684688 -2.954839
v -0.635173 1.702135 -2.960159
v -0.630304 1.702976 -2.960967
v -0.629339 1.702976 -2.955150
v -0.634208 1.702135 -2.954342
v -0.599781 1.640510 -2.975628
v -0.595659 1.639799 -2.976312
v -0.591595 1.639799 -2.951816
v -0.595717 1.640510 -2.951133
v -0.611532 1.631649 -2.958169
v -0.612477 1.631649 -2.963860
v -0.615627 1.631208 -2.957503
v -0.616567 1.631208 -2.963168
v -0.611790 1.624244 -2.964581
v -0.615353 1.619951 -2.963859
v -0.614255 1.619951 -2.957241
v -0.610650 1.624244 -2.957709
v -0.626284 1.676791 -2.961841
v -0.625252 1.676791 -2.955621
v -0.621707 1.680393 -2.956209
v -0.622739 1.680393 -2.962429
v -0.635709 1.695052 -2.961804
v -0.634184 1.695052 -2.952613
v -0.626791 1.697424 -2.953839
v -0.628316 1.697424 -2.963030
v -0.560306 1.624819 -2.943094
v -0.563040 1.620640 -2.946667
v -0.556502 1.620640 -2.951669
v -0.553768 1.624819 -2.948096
v -0.565573 1.656201 -2.939467
v -0.568112 1.658959 -2.942786
v -0.551429 1.658959 -2.955551
v -0.548890 1.656201 -2.952232
v -0.549927 1.616785 -2.942370
v -0.555783 1.616785 -2.937889
v -0.555764 1.621501 -2.937745
v -0.549793 1.621501 -2.942314
v -0.552586 1.638573 -2.932469
v -0.548635 1.638515 -2.927307
v -0.541582 1.638515 -2.932703
v -0.545531 1.638573 -2.937867
v -0.550307 1.642990 -2.932723
v -0.547768 1.642990 -2.929404
v -0.543833 1.642990 -2.932415
v -0.546372 1.642990 -2.935733
v -0.548359 1.669890 -2.928731
v -0.549981 1.673910 -2.930850
v -0.544650 1.673910 -2.934929
v -0.543028 1.669890 -2.932809
v -0.538664 1.684688 -2.916731
v -0.541471 1.686618 -2.920399
v -0.536788 1.686618 -2.923983
v -0.533981 1.684688 -2.920314
v -0.536818 1.702135 -2.914319
v -0.539817 1.702976 -2.918238
v -0.535134 1.702976 -2.921821
v -0.532135 1.702135 -2.917902
v -0.567092 1.640510 -2.938306
v -0.569631 1.639799 -2.941624
v -0.549911 1.639799 -2.956712
v -0.547372 1.640510 -2.953394
v -0.546160 1.631649 -2.936126
v -0.550741 1.631649 -2.932621
v -0.543649 1.631208 -2.932823
v -0.548210 1.631208 -2.929334
v -0.551700 1.624244 -2.932888
v -0.549390 1.619951 -2.930081
v -0.544062 1.619951 -2.934158
v -0.546167 1.624244 -2.937121
v -0.542476 1.676791 -2.921377
v -0.537469 1.676791 -2.925209
v -0.539653 1.680393 -2.928062
v -0.544660 1.680393 -2.924231
v -0.538018 1.695052 -2.913073
v -0.530619 1.695052 -2.918735
v -0.535174 1.697424 -2.924687
v -0.542573 1.697424 -2.919025
v -0.556899 1.624819 -2.988434
v -0.558770 1.620640 -2.984343
v -0.566256 1.620640 -2.987767
v -0.564385 1.624819 -2.991858
v -0.551223 1.656201 -2.985486
v -0.552961 1.658959 -2.981686
v -0.572064 1.658959 -2.990423
v -0.570327 1.656201 -2.994223
v -0.561132 1.616785 -2.997938
v -0.554426 1.616785 -2.994871
v -0.554308 1.621501 -2.994955
v -0.561146 1.621501 -2.998082
v -0.551141 1.638573 -3.000238
v -0.548439 1.638515 -3.006150
v -0.556514 1.638515 -3.009844
v -0.559220 1.638573 -3.003933
v -0.552436 1.642990 -3.002131
v -0.550698 1.642990 -3.005931
v -0.555203 1.642990 -3.007992
v -0.556941 1.642990 -3.004192
v -0.549825 1.669890 -3.005726
v -0.550935 1.673910 -3.003299
v -0.557039 1.673910 -3.006090
v -0.555929 1.669890 -3.008518
v -0.543781 1.684688 -3.019919
v -0.545703 1.686618 -3.015718
v -0.551065 1.686618 -3.018171
v -0.549144 1.684688 -3.022372
v -0.542518 1.702135 -3.022681
v -0.544571 1.702976 -3.018193
v -0.549933 1.702976 -3.020646
v -0.547881 1.702135 -3.025134
v -0.549485 1.640510 -2.984690
v -0.551223 1.639799 -2.980891
v -0.573803 1.639799 -2.991219
v -0.572065 1.640510 -2.995018
v -0.557387 1.631649 -3.004195
v -0.552141 1.631649 -3.001796
v -0.555650 1.631208 -3.007962
v -0.550428 1.631208 -3.005574
v -0.551927 1.624244 -3.000824
v -0.550533 1.619951 -3.004181
v -0.556634 1.619951 -3.006972
v -0.558263 1.624244 -3.003721
v -0.546095 1.676791 -3.014371
v -0.551828 1.676791 -3.016994
v -0.553322 1.680393 -3.013726
v -0.547589 1.680393 -3.011104
v -0.540855 1.695052 -3.022207
v -0.549327 1.695052 -3.026082
v -0.552445 1.697424 -3.019266
v -0.543972 1.697424 -3.015391
v -0.594788 1.434736 -2.952850
v -0.591467 1.430557 -2.955885
v -0.585914 1.430557 -2.949808
v -0.589235 1.434736 -2.946773
v -0.598861 1.466118 -2.957782
v -0.595776 1.468876 -2.960600
v -0.581606 1.468876 -2.945093
v -0.584690 1.466118 -2.942274
v -0.594605 1.426702 -2.942447
v -0.599580 1.426702 -2.947891
v -0.599721 1.431417 -2.947860
v -0.594649 1.431417 -2.942309
v -0.607359 1.446011 -2.941804
v -0.612105 1.445047 -2.937466
v -0.606114 1.445047 -2.930910
v -0.601367 1.446011 -2.935246
v -0.607354 1.450221 -2.939147
v -0.610408 1.449638 -2.936356
v -0.607067 1.449638 -2.932699
v -0.604012 1.450221 -2.935490
v -0.606355 1.468708 -2.941251
v -0.604822 1.473063 -2.942652
v -0.600294 1.473063 -2.937697
v -0.601827 1.468708 -2.936296
v -0.618365 1.478546 -2.929597
v -0.614807 1.480035 -2.932788
v -0.610861 1.479996 -2.928406
v -0.614420 1.478507 -2.925215
v -0.619322 1.496200 -2.928581
v -0.615610 1.496575 -2.931919
v -0.611665 1.496537 -2.927537
v -0.615376 1.496161 -2.924199
v -0.600150 1.450427 -2.959193
v -0.597066 1.449716 -2.962012
v -0.580316 1.449716 -2.943681
v -0.583400 1.450427 -2.940863
v -0.602436 1.439015 -2.936379
v -0.606327 1.439015 -2.940638
v -0.605432 1.438001 -2.933659
v -0.609306 1.438001 -2.937898
v -0.604206 1.434161 -2.943388
v -0.606800 1.429868 -2.940842
v -0.602275 1.429868 -2.935889
v -0.599506 1.434161 -2.938245
v -0.614295 1.473004 -2.933702
v -0.610042 1.473004 -2.929047
v -0.607790 1.477075 -2.931106
v -0.612043 1.477075 -2.935760
v -0.621961 1.488716 -2.929410
v -0.614893 1.488647 -2.921560
v -0.608412 1.490544 -2.927378
v -0.615480 1.490613 -2.935228
v -0.549324 1.434735 -2.953407
v -0.553563 1.430557 -2.954915
v -0.550804 1.430557 -2.962671
v -0.546565 1.434735 -2.961163
v -0.551767 1.466118 -2.947497
v -0.555703 1.468876 -2.948897
v -0.548664 1.468876 -2.968689
v -0.544727 1.466118 -2.967289
v -0.540225 1.426702 -2.958453
v -0.542696 1.426702 -2.951505
v -0.542602 1.431417 -2.951395
v -0.540082 1.431417 -2.958479
v -0.533669 1.446011 -2.947494
v -0.527611 1.445047 -2.945341
v -0.524635 1.445047 -2.953707
v -0.530692 1.446011 -2.955863
v -0.531326 1.450221 -2.948745
v -0.527428 1.449638 -2.947359
v -0.525768 1.449638 -2.952027
v -0.529666 1.450221 -2.953413
v -0.533653 1.468708 -2.948640
v -0.535610 1.473063 -2.949336
v -0.533360 1.473063 -2.955660
v -0.531403 1.468708 -2.954964
v -0.517724 1.478545 -2.943507
v -0.522212 1.480035 -2.945151
v -0.520195 1.479996 -2.950692
v -0.515707 1.478507 -2.949048
v -0.516378 1.496200 -2.943139
v -0.521068 1.496575 -2.944849
v -0.519051 1.496536 -2.950390
v -0.514361 1.496161 -2.948681
v -0.552407 1.450427 -2.945695
v -0.556344 1.449716 -2.947096
v -0.548023 1.449716 -2.970490
v -0.544086 1.450427 -2.969090
v -0.531191 1.439015 -2.954388
v -0.533124 1.439015 -2.948953
v -0.527382 1.438001 -2.953019
v -0.529307 1.438001 -2.947609
v -0.536548 1.434161 -2.949535
v -0.533082 1.429868 -2.948439
v -0.530834 1.429868 -2.954760
v -0.534214 1.434161 -2.956099
v -0.523259 1.473004 -2.945174
v -0.521147 1.473004 -2.951114
v -0.524021 1.477075 -2.952136
v -0.526134 1.477075 -2.946196
v -0.515871 1.488716 -2.940420
v -0.512258 1.488647 -2.950346
v -0.520438 1.490544 -2.953336
v -0.524051 1.490613 -2.943411
v -0.571160 1.434735 -2.993288
v -0.570502 1.430557 -2.988838
v -0.578645 1.430557 -2.987633
v -0.579303 1.434735 -2.992083
v -0.564795 1.466118 -2.993907
v -0.564183 1.468875 -2.989774
v -0.584963 1.468875 -2.986697
v -0.585575 1.466118 -2.990830
v -0.579887 1.426702 -2.998954
v -0.572593 1.426702 -3.000034
v -0.572539 1.431417 -3.000168
v -0.579977 1.431417 -2.999067
v -0.573288 1.446011 -3.009887
v -0.574232 1.445047 -3.016247
v -0.583016 1.445047 -3.014946
v -0.582076 1.446011 -3.008586
v -0.575494 1.450220 -3.011368
v -0.576100 1.449638 -3.015461
v -0.581001 1.449638 -3.014736
v -0.580395 1.450220 -3.010643
v -0.574308 1.468708 -3.009364
v -0.574004 1.473063 -3.007309
v -0.580644 1.473063 -3.006326
v -0.580948 1.468708 -3.008381
v -0.577254 1.478545 -3.025837
v -0.576599 1.480034 -3.021103
v -0.582438 1.479996 -3.020282
v -0.583093 1.478507 -3.025017
v -0.577562 1.496200 -3.027199
v -0.576869 1.496575 -3.022255
v -0.582709 1.496536 -3.021434
v -0.583401 1.496161 -3.026378
v -0.562904 1.450427 -2.994187
v -0.562292 1.449716 -2.990053
v -0.586854 1.449716 -2.986417
v -0.587466 1.450427 -2.990550
v -0.580539 1.439015 -3.008839
v -0.574833 1.439015 -3.009684
v -0.581119 1.438000 -3.012844
v -0.575438 1.438000 -3.013685
v -0.573739 1.434161 -3.006387
v -0.574399 1.429868 -3.009962
v -0.581035 1.429868 -3.008979
v -0.580631 1.434161 -3.005367
v -0.576127 1.473004 -3.020168
v -0.582364 1.473004 -3.019244
v -0.581917 1.477075 -3.016226
v -0.575680 1.477075 -3.017150
v -0.575398 1.488716 -3.028922
v -0.585859 1.488647 -3.027453
v -0.584659 1.490544 -3.018827
v -0.574199 1.490613 -3.020296
v -0.598739 0.575688 -2.967388
v -0.594301 0.571509 -2.968124
v -0.592953 0.571509 -2.960004
v -0.597392 0.575688 -2.959267
v -0.599468 0.607070 -2.973742
v -0.595346 0.609828 -2.974426
v -0.591908 0.609828 -2.953702
v -0.596030 0.607070 -2.953019
v -0.604251 0.567654 -2.958564
v -0.605458 0.567654 -2.965838
v -0.605594 0.572370 -2.965889
v -0.604363 0.572370 -2.958472
v -0.611744 0.589442 -2.965560
v -0.618157 0.589384 -2.964494
v -0.616704 0.589384 -2.955734
v -0.610290 0.589442 -2.956797
v -0.612590 0.593859 -2.963428
v -0.616712 0.593859 -2.962744
v -0.615901 0.593859 -2.957857
v -0.611780 0.593859 -2.958541
v -0.599781 0.591379 -2.975628
v -0.595659 0.590669 -2.976312
v -0.591595 0.590669 -2.951816
v -0.595717 0.591379 -2.951133
v -0.611532 0.582518 -2.958169
v -0.612477 0.582518 -2.963860
v -0.615627 0.582078 -2.957503
v -0.616567 0.582078 -2.963168
v -0.611790 0.575114 -2.964581
v -0.615353 0.570821 -2.963859
v -0.614255 0.570821 -2.957241
v -0.610650 0.575114 -2.957709
v -0.596960 0.612346 -2.958625
v -0.592838 0.615104 -2.959309
v -0.594416 0.615104 -2.968819
v -0.598538 0.612346 -2.968135
v -0.560306 0.575688 -2.943094
v -0.563040 0.571509 -2.946667
v -0.556502 0.571509 -2.951669
v -0.553768 0.575688 -2.948096
v -0.565573 0.607070 -2.939467
v -0.568112 0.609828 -2.942785
v -0.551429 0.609828 -2.955551
v -0.548890 0.607070 -2.952232
v -0.549927 0.567654 -2.942369
v -0.555783 0.567654 -2.937889
v -0.555764 0.572370 -2.937745
v -0.549793 0.572370 -2.942314
v -0.552586 0.589442 -2.932469
v -0.548635 0.589384 -2.927307
v -0.541582 0.589384 -2.932703
v -0.545531 0.589442 -2.937867
v -0.550307 0.593859 -2.932723
v -0.547768 0.593859 -2.929404
v -0.543833 0.593859 -2.932415
v -0.546372 0.593859 -2.935733
v -0.567092 0.591379 -2.938305
v -0.569631 0.590669 -2.941624
v -0.549911 0.590669 -2.956712
v -0.547372 0.591379 -2.953394
v -0.546160 0.582518 -2.936126
v -0.550741 0.582518 -2.932621
v -0.543649 0.582078 -2.932823
v -0.548210 0.582078 -2.929334
v -0.551700 0.575114 -2.932888
v -0.549390 0.570821 -2.930081
v -0.544062 0.570821 -2.934158
v -0.546167 0.575114 -2.937121
v -0.553404 0.612346 -2.948779
v -0.555943 0.615104 -2.952097
v -0.563599 0.615104 -2.946239
v -0.561060 0.612346 -2.942921
v -0.556899 0.575688 -2.988434
v -0.558770 0.571509 -2.984343
v -0.566256 0.571509 -2.987767
v -0.564385 0.575688 -2.991858
v -0.551223 0.607070 -2.985486
v -0.552961 0.609828 -2.981686
v -0.572064 0.609828 -2.990423
v -0.570327 0.607070 -2.994223
v -0.561132 0.567654 -2.997938
v -0.554426 0.567654 -2.994871
v -0.554308 0.572370 -2.994955
v -0.561146 0.572370 -2.998082
v -0.551141 0.589442 -3.000238
v -0.548439 0.589384 -3.006150
v -0.556514 0.589384 -3.009844
v -0.559220 0.589442 -3.003933
v -0.552436 0.593859 -3.002131
v -0.550698 0.593859 -3.005931
v -0.555203 0.593859 -3.007992
v -0.556941 0.593859 -3.004192
v -0.549485 0.591379 -2.984690
v -0.551223 0.590669 -2.980891
v -0.573803 0.590669 -2.991219
v -0.572065 0.591379 -2.995018
v -0.557387 0.582518 -3.004195
v -0.552141 0.582518 -3.001796
v -0.555650 0.582078 -3.007962
v -0.550428 0.582078 -3.005574
v -0.551927 0.575114 -3.000823
v -0.550533 0.570821 -3.004181
v -0.556634 0.570821 -3.006971
v -0.558263 0.575114 -3.003721
v -0.565158 0.612346 -2.991859
v -0.566896 0.615104 -2.988060
v -0.558130 0.615104 -2.984050
v -0.556392 0.612346 -2.987849
vn 0.4989 -0.1604 -0.8517
vn -0.7777 0.1000 -0.6206
vn -0.7671 -0.1093 -0.6321
vn 0.7472 -0.1604 0.6449
vn 0.5366 -0.5423 -0.6466
vn -0.5356 0.1000 0.8385
vn 0.7166 -0.5423 0.4386
vn -0.5219 -0.1093 0.8460
vn -0.1834 0.5755 -0.7970
vn -0.7176 -0.5019 -0.4828
vn 0.2423 0.3556 -0.9027
vn -0.4449 -0.0751 0.8924
vn -0.6245 -0.5377 -0.5664
vn -0.7093 -0.0751 -0.7009
vn 0.8176 -0.0711 0.5713
vn 0.5550 0.0940 -0.8265
vn 0.7922 0.0940 0.6030
vn 0.0944 -0.7711 0.6297
vn 0.5209 0.3556 0.7760
vn 0.4254 0.7443 -0.5148
vn 0.5689 0.7443 0.3498
vn -0.5602 0.0775 0.8248
vn -0.5992 -0.1598 0.7845
vn -0.7965 0.0775 -0.5996
vn -0.8205 -0.1598 -0.5489
vn 0.5893 -0.0711 -0.8048
vn -0.5741 0.7404 -0.3496
vn -0.4304 0.7404 0.5163
vn -0.4068 -0.5161 0.7538
vn -0.7543 -0.3886 -0.5292
vn -0.6285 -0.5161 -0.5819
vn 0.4615 0.6502 0.6036
vn -0.4082 -0.5377 0.7377
vn 0.7380 0.4254 0.5239
vn 0.2419 0.6502 -0.7203
vn 0.5292 0.4254 -0.7342
vn -0.5715 -0.0841 0.8163
vn -0.7037 0.5974 -0.3846
vn -0.8045 -0.0841 -0.5880
vn 0.7402 0.1664 0.6515
vn -0.5430 -0.3886 0.7444
vn 0.3340 0.4959 -0.8016
vn 0.5750 0.4959 0.6507
vn 0.4901 0.1664 -0.8556
vn -0.5418 0.5974 0.5912
vn 0.3018 0.7824 -0.5448
vn 0.7821 0.1896 0.5936
vn 0.4616 0.7824 0.4181
vn 0.5486 0.1896 -0.8143
vn 0.0838 0.5755 0.8135
vn -0.1141 -0.7711 -0.6264
vn -0.5232 -0.5019 0.6887
vn -0.9862 -0.1605 -0.0406
vn -0.1829 0.1000 0.9780
vn -0.1979 -0.1093 0.9741
vn 0.0508 -0.5423 -0.8387
vn -0.8228 -0.5422 -0.1702
vn 0.2186 -0.1604 -0.9625
vn 0.9918 0.1000 0.0792
vn 0.9920 -0.1093 0.0636
vn -0.6176 0.5755 0.5361
vn -0.0894 -0.5019 0.8603
vn -0.9108 0.3556 0.2098
vn 0.9968 -0.0751 -0.0261
vn -0.2069 -0.5377 0.8174
vn -0.2858 -0.0751 0.9553
vn -0.9872 -0.0711 -0.1425
vn 0.1605 0.0940 -0.9826
vn 0.1206 -0.0711 -0.9902
vn 0.5117 -0.7711 -0.3790
vn 0.4406 0.3556 -0.8243
vn -0.9903 0.0940 -0.1020
vn 0.0418 0.7443 -0.6665
vn 0.9912 0.0775 0.1074
vn 0.9740 -0.1598 0.1607
vn -0.1555 0.0775 0.9848
vn -0.0995 -0.1598 0.9821
vn -0.0392 0.7404 0.6710
vn -0.6542 0.7444 -0.1340
vn 0.6579 0.7404 0.1376
vn -0.2188 -0.5161 0.8281
vn 0.9122 -0.3886 0.1299
vn -0.1131 -0.3886 0.9144
vn 0.3162 0.6502 -0.6909
vn 0.8430 -0.5377 0.0140
vn 0.1162 0.4254 -0.8975
vn -0.7495 0.6502 0.1246
vn -0.8967 0.4254 -0.1225
vn 0.9890 -0.0841 0.1214
vn -0.0092 0.5973 0.8019
vn -0.1415 -0.0841 0.9864
vn 0.8565 -0.5161 0.0054
vn 0.2277 0.1664 -0.9594
vn -0.8646 0.4959 0.0815
vn 0.3047 0.4959 -0.8132
vn -0.9856 0.1663 -0.0311
vn 0.7764 0.5974 0.2008
vn -0.6227 0.7824 -0.0108
vn 0.1569 0.1896 -0.9693
vn 0.1524 0.7824 -0.6038
vn -0.9766 0.1896 -0.1020
vn 0.6789 0.5755 -0.4560
vn -0.4996 -0.7711 0.3948
vn 0.8537 -0.5019 0.1386
vn 0.4271 -0.1605 0.8899
vn 0.9494 0.1000 -0.2977
vn 0.9530 -0.1093 -0.2825
vn -0.7644 -0.5423 0.3488
vn 0.2360 -0.5423 0.8064
vn -0.9525 -0.1605 0.2588
vn -0.3957 0.1000 -0.9129
vn -0.4095 -0.1093 -0.9057
vn 0.7633 0.5755 0.2936
vn 0.8015 -0.5019 -0.3250
vn 0.6128 0.3556 0.7057
vn 0.9777 -0.0751 -0.1961
vn -0.3834 -0.5377 -0.7509
vn 0.8188 -0.5377 -0.2011
vn 0.3377 -0.0711 0.9386
vn -0.9429 0.0940 0.3196
vn -0.9309 -0.0711 0.3584
vn -0.5748 -0.7711 -0.2739
vn -0.9346 0.3556 -0.0021
vn 0.3749 0.0940 0.9223
vn -0.6081 0.7443 0.2760
vn -0.3705 0.0775 -0.9256
vn -0.3153 -0.1598 -0.9354
vn 0.9425 0.0775 -0.3250
vn 0.9139 -0.1598 -0.3732
vn 0.6109 0.7404 -0.2804
vn 0.1889 0.7443 0.6406
vn -0.1874 0.7404 -0.6456
vn -0.3973 -0.5161 -0.7588
vn 0.8605 -0.3886 -0.3294
vn 0.8339 -0.5161 -0.1956
vn -0.4911 -0.0751 -0.8679
vn -0.7584 0.6502 0.0451
vn 0.3128 0.4254 0.8493
vn -0.8470 0.4254 0.3188
vn 0.4619 0.6502 0.6033
vn 0.9373 -0.0841 -0.3382
vn -0.1872 0.5974 -0.7798
vn 0.7123 0.5974 -0.3684
vn -0.9540 0.1664 0.2494
vn -0.3136 -0.3886 -0.8664
vn 0.4778 0.4959 0.7251
vn -0.8610 0.4959 0.1127
vn 0.4353 0.1663 0.8848
vn 0.2828 0.7824 0.5549
vn -0.9295 0.1896 0.3165
vn -0.3572 -0.0841 -0.9303
vn -0.6047 0.7824 0.1489
vn 0.3684 0.1896 0.9101
vn -0.7213 0.5755 -0.3854
vn 0.5831 -0.7711 0.2558
vn -0.2784 -0.5019 -0.8189
vn -0.0455 -0.1605 -0.9860
vn -0.9903 0.1000 -0.0969
vn -0.9877 -0.1093 -0.1122
vn 0.9779 -0.1605 0.1339
vn 0.0979 -0.5423 -0.8345
vn 0.0076 0.1000 0.9950
vn 0.8399 -0.5423 -0.0225
vn 0.0231 -0.1093 0.9937
vn -0.5879 0.5755 -0.5685
vn -0.8107 -0.5768 -0.1005
vn -0.2669 0.5142 -0.8151
vn 0.1847 -0.0205 0.9826
vn -0.6567 -0.7073 -0.2616
vn -0.9620 -0.0205 -0.2722
vn 0.9803 0.1572 0.1196
vn 0.0007 0.1883 -0.9821
vn 0.9782 0.1883 0.0876
vn 0.4221 -0.7711 0.4767
vn 0.7878 0.5141 0.3391
vn -0.0310 0.1572 -0.9871
vn 0.5874 0.8073 0.0569
vn -0.0236 -0.0192 0.9995
vn -0.0674 -0.3268 0.9427
vn -0.9450 -0.3267 -0.0175
vn -0.9976 -0.0192 -0.0664
vn -0.7445 0.6621 0.0857
vn -0.0039 0.8073 -0.5901
vn -0.1523 0.6622 0.7337
vn 0.1475 -0.6237 0.7676
vn -0.8928 -0.4502 -0.0179
vn -0.7605 -0.6130 -0.2141
vn 0.4886 0.7598 0.4290
vn 0.2019 -0.7079 0.6769
vn 0.8282 0.5571 0.0610
vn -0.3840 0.7598 -0.5246
vn 0.0137 0.5571 -0.8303
vn -0.9979 -0.0191 -0.0626
vn -0.0982 0.6814 0.7253
vn -0.7256 0.6875 0.0285
vn 0.9614 0.1365 0.2390
vn -0.0752 -0.4624 0.8835
vn 0.7291 0.6001 0.3291
vn -0.1370 0.1639 -0.9769
vn -0.2775 0.6044 -0.7468
vn 0.6322 0.7728 0.0560
vn 0.9890 0.1296 0.0719
vn -0.0423 -0.0284 0.9987
vn 0.0173 0.7788 -0.6271
vn 0.0332 0.1389 -0.9898
vn 0.5134 0.5755 0.6366
vn -0.4368 -0.7711 -0.4633
vn 0.0272 -0.5768 0.8164
vn -0.8493 -0.1604 0.5030
vn 0.3793 0.1000 0.9199
vn 0.3644 -0.1093 0.9248
vn -0.3409 -0.1604 -0.9263
vn -0.7828 -0.5423 0.3054
vn 0.8750 0.1000 -0.4737
vn -0.4141 -0.5423 -0.7311
vn 0.8666 -0.1093 -0.4869
vn -0.2260 0.5755 0.7860
vn 0.2919 -0.5768 0.7630
vn -0.5944 0.5142 0.6184
vn 0.2113 -0.0205 0.9772
vn 0.5029 -0.7078 -0.4961
vn 0.0773 -0.7073 0.7027
vn -0.3547 0.1572 -0.9217
vn -0.8675 0.1883 0.4605
vn -0.3819 0.1883 -0.9048
vn 0.2227 -0.7711 -0.5965
vn -0.0704 0.5142 -0.8548
vn -0.5192 0.8073 0.2804
vn -0.2255 0.8073 -0.5453
vn 0.8936 -0.0192 -0.4484
vn 0.8640 -0.3268 -0.3830
vn 0.4098 -0.0192 0.9120
vn 0.4281 -0.3268 0.8426
vn -0.8570 0.1572 0.4907
vn 0.4252 0.6622 0.6171
vn 0.7193 0.6622 -0.2100
vn 0.6085 -0.6237 -0.4906
vn 0.4033 -0.4502 0.7967
vn 0.1680 -0.6130 0.7720
vn 0.7809 -0.0205 -0.6244
vn 0.1494 0.7598 -0.6328
vn -0.3350 0.5571 -0.7599
vn -0.2829 0.7598 0.5854
vn -0.7396 0.5571 0.3777
vn 0.9017 -0.0284 -0.4315
vn 0.3658 0.6875 0.6273
vn 0.4132 -0.0191 0.9104
vn -0.2403 0.1365 -0.9610
vn 0.8153 -0.4625 -0.3484
vn -0.0517 0.6001 -0.7982
vn -0.7983 0.1639 0.5796
vn -0.5291 0.6044 0.5957
vn -0.2474 0.7728 -0.5845
vn 0.6865 0.6814 -0.2538
vn -0.4008 0.1296 -0.9069
vn -0.8895 0.1389 0.4354
vn -0.5618 0.7788 0.2791
vn 0.3210 0.5755 -0.7522
vn -0.2040 -0.7711 0.6032
vn 0.7081 -0.5768 -0.4073
vn 0.8429 -0.1604 0.5137
vn 0.6341 0.1000 -0.7668
vn 0.6454 -0.1093 -0.7560
vn -0.6579 -0.1604 0.7358
vn 0.6371 -0.5423 0.5478
vn -0.8291 0.1000 -0.5501
vn -0.4510 -0.5423 0.7089
vn -0.8367 -0.1093 -0.5366
vn 0.8001 0.5755 -0.1695
vn 0.5366 -0.5768 -0.6159
vn 0.8250 0.5142 0.2345
vn 0.7637 -0.0205 -0.6453
vn -0.6741 -0.7079 -0.2111
vn 0.5841 -0.7073 -0.3982
vn -0.6473 0.1572 0.7458
vn 0.8138 0.1883 0.5497
vn -0.6196 0.1883 0.7620
vn -0.6313 -0.7711 0.0834
vn -0.7217 0.5142 0.4635
vn 0.8356 0.1572 0.5263
vn 0.4914 0.8073 0.3268
vn -0.3756 0.8073 0.4551
vn -0.8155 -0.0192 -0.5785
vn -0.7438 -0.3267 -0.5831
vn 0.5429 -0.3268 -0.7736
vn 0.6129 -0.0192 -0.7900
vn 0.3452 0.6622 -0.6651
vn -0.5231 0.6621 -0.5366
vn -0.7189 -0.6237 -0.3070
vn 0.5140 -0.4502 -0.7302
vn 0.6028 -0.6130 -0.5108
vn -0.9179 -0.0205 -0.3964
vn -0.6288 0.7598 0.1651
vn -0.5137 0.5571 0.6525
vn 0.6497 0.7598 -0.0250
vn 0.6807 0.5571 0.4757
vn -0.8043 -0.0284 -0.5936
vn 0.3822 0.6875 -0.6175
vn 0.6099 -0.0191 -0.7923
vn -0.7357 0.1365 0.6634
vn -0.6904 -0.4624 -0.5563
vn -0.6806 0.6001 0.4204
vn 0.8865 0.1639 0.4327
vn 0.7743 0.6044 0.1875
vn -0.3999 0.7728 0.4928
vn -0.5464 0.6814 -0.4870
vn -0.6126 0.1296 0.7797
vn 0.5102 0.7788 0.3649
vn 0.8020 0.1389 0.5809
vn -0.8149 0.5755 0.0696
vn 0.6283 -0.7711 -0.1031
vn -0.6921 -0.5768 -0.4340
vn 0.4988 -0.1605 -0.8517
vn -0.7777 0.1000 -0.6207
vn -0.7672 -0.1093 -0.6320
vn 0.7472 -0.1605 0.6450
vn -0.5356 0.1000 0.8386
vn -0.5220 -0.1093 0.8459
vn 0.2424 0.3556 -0.9027
vn -0.8204 -0.1598 -0.5490
vn 0.5549 0.0940 -0.8266
vn -0.5740 0.7404 -0.3497
vn 0.3763 0.4642 -0.8018
vn 0.4584 0.8595 0.2263
vn 0.6151 0.4642 0.6373
vn -0.8486 0.5192 -0.1015
vn 0.3607 0.8595 -0.3622
vn -0.5941 0.2318 0.7702
vn -0.8111 0.2318 -0.5371
vn -0.7703 0.5192 0.3701
vn 0.0839 0.5755 0.8135
vn -0.9862 -0.1604 -0.0406
vn 0.2186 -0.1605 -0.9625
vn -0.8228 -0.5423 -0.1702
vn 0.1605 0.0940 -0.9825
vn 0.9740 -0.1599 0.1607
vn -0.6543 0.7443 -0.1339
vn 0.6579 0.7404 0.1375
vn -0.8846 0.4642 0.0442
vn -0.0153 0.8595 -0.5110
vn 0.2739 0.4642 -0.8423
vn 0.3087 0.5192 0.7969
vn -0.4892 0.8595 -0.1485
vn 0.9590 0.2318 0.1630
vn -0.0934 0.2318 0.9683
vn 0.6885 0.5192 0.5064
vn 0.6789 0.5755 -0.4559
vn 0.8537 -0.5019 0.1387
vn 0.4271 -0.1604 0.8898
vn -0.9525 -0.1604 0.2589
vn 0.8016 -0.5019 -0.3249
vn -0.3154 -0.1598 -0.9354
vn 0.9139 -0.1599 -0.3732
vn 0.1888 0.7443 0.6406
vn -0.1874 0.7404 -0.6455
vn -0.8723 0.4642 0.1535
vn 0.0986 0.8595 0.5016
vn -0.4439 0.8595 0.2534
vn 0.4543 0.4642 0.7603
vn 0.5587 0.5192 -0.6467
vn -0.3063 0.2318 -0.9233
vn 0.8988 0.2318 -0.3721
vn 0.1239 0.5192 -0.8456
vt 0.222718 0.634640
vt 0.219855 0.617080
vt 0.227171 0.634863
vt 0.198756 0.633102
vt 0.214039 0.617952
vt 0.202057 0.615887
vt 0.207679 0.617058
vt 0.254344 0.633705
vt 0.236433 0.616700
vt 0.245352 0.616700
vt 0.218016 0.608933
vt 0.213681 0.602321
vt 0.219170 0.601483
vt 0.252272 0.650705
vt 0.237256 0.676066
vt 0.229512 0.650705
vt 0.244017 0.592759
vt 0.236080 0.585179
vt 0.245705 0.585179
vt 0.208442 0.608607
vt 0.237118 0.600827
vt 0.244666 0.600827
vt 0.238208 0.580224
vt 0.243576 0.580224
vt 0.202860 0.590837
vt 0.208268 0.582238
vt 0.208349 0.590586
vt 0.216442 0.582752
vt 0.215766 0.590565
vt 0.221258 0.591425
vt 0.223721 0.582101
vt 0.238208 0.575697
vt 0.204297 0.575697
vt 0.209324 0.577062
vt 0.215723 0.576779
vt 0.221223 0.575967
vt 0.244308 0.688714
vt 0.237698 0.699464
vt 0.237477 0.688714
vt 0.196916 0.650791
vt 0.204307 0.681085
vt 0.198249 0.680731
vt 0.202058 0.650917
vt 0.213562 0.680905
vt 0.223939 0.652897
vt 0.218806 0.652715
vt 0.245939 0.711247
vt 0.237698 0.718926
vt 0.235845 0.711247
vt 0.197024 0.695497
vt 0.203543 0.709019
vt 0.195980 0.708955
vt 0.213274 0.695941
vt 0.203956 0.696035
vt 0.220176 0.695649
vt 0.213154 0.708553
vt 0.204143 0.736619
vt 0.211307 0.730484
vt 0.211333 0.736589
vt 0.203296 0.723404
vt 0.197745 0.732038
vt 0.194401 0.723029
vt 0.204117 0.730515
vt 0.212439 0.723945
vt 0.217279 0.732386
vt 0.227441 0.633705
vt 0.244966 0.608299
vt 0.214045 0.609160
vt 0.204552 0.608030
vt 0.209354 0.601698
vt 0.204084 0.600535
vt 0.219514 0.680998
vt 0.221218 0.724002
vt 0.237767 0.592759
vt 0.244087 0.699464
vt 0.244529 0.676066
vt 0.244087 0.718926
vt 0.236819 0.608299
vt 0.196861 0.631882
vt 0.211453 0.605396
vt 0.201456 0.633973
vt 0.238466 0.642127
vt 0.260767 0.616281
vt 0.271963 0.642127
vt 0.234992 0.635868
vt 0.228204 0.604357
vt 0.238127 0.602411
vt 0.230130 0.636916
vt 0.213357 0.589782
vt 0.209488 0.576174
vt 0.216866 0.578531
vt 0.231548 0.659312
vt 0.207462 0.681756
vt 0.195137 0.657911
vt 0.225841 0.570654
vt 0.221055 0.563236
vt 0.225653 0.564119
vt 0.234637 0.588984
vt 0.226666 0.579014
vt 0.218516 0.570422
vt 0.224658 0.561705
vt 0.229829 0.562510
vt 0.230178 0.568954
vt 0.259087 0.573680
vt 0.249224 0.563655
vt 0.261204 0.563655
vt 0.216916 0.560075
vt 0.221535 0.557426
vt 0.222543 0.561296
vt 0.226754 0.559106
vt 0.251872 0.557426
vt 0.258556 0.557426
vt 0.213528 0.695445
vt 0.207302 0.701977
vt 0.207591 0.694658
vt 0.221608 0.684011
vt 0.215952 0.682587
vt 0.241045 0.667974
vt 0.259742 0.693937
vt 0.250686 0.693937
vt 0.201742 0.682369
vt 0.188257 0.657816
vt 0.205236 0.710009
vt 0.211501 0.717904
vt 0.205070 0.717759
vt 0.217565 0.701753
vt 0.212405 0.702654
vt 0.250944 0.708448
vt 0.259005 0.715209
vt 0.251050 0.715226
vt 0.202465 0.700040
vt 0.202399 0.694235
vt 0.251099 0.738204
vt 0.259069 0.744940
vt 0.251114 0.744957
vt 0.220374 0.713199
vt 0.212810 0.711097
vt 0.247933 0.729565
vt 0.259054 0.738187
vt 0.197054 0.710550
vt 0.199388 0.717933
vt 0.238127 0.660343
vt 0.269383 0.667974
vt 0.228666 0.589540
vt 0.250240 0.600070
vt 0.259739 0.585809
vt 0.260188 0.600070
vt 0.233827 0.577529
vt 0.250689 0.585809
vt 0.207199 0.588390
vt 0.259449 0.708448
vt 0.218815 0.695981
vt 0.262183 0.729535
vt 0.214280 0.567742
vt 0.251341 0.573680
vt 0.249662 0.616281
vt 0.653292 0.804177
vt 0.646514 0.769571
vt 0.662031 0.804025
vt 0.605099 0.802146
vt 0.635096 0.771566
vt 0.611381 0.767810
vt 0.622508 0.769984
vt 0.710972 0.793358
vt 0.678644 0.762665
vt 0.694742 0.762665
vt 0.642608 0.753612
vt 0.633862 0.740742
vt 0.644632 0.738918
vt 0.681053 0.719452
vt 0.695380 0.705771
vt 0.692334 0.719452
vt 0.623749 0.753284
vt 0.693505 0.734015
vt 0.681849 0.696826
vt 0.691537 0.696826
vt 0.612207 0.718487
vt 0.622578 0.701400
vt 0.623000 0.717820
vt 0.637590 0.717545
vt 0.638675 0.702154
vt 0.648423 0.719064
vt 0.652974 0.700645
vt 0.681849 0.688655
vt 0.614559 0.688655
vt 0.624492 0.691184
vt 0.637074 0.690426
vt 0.647868 0.688655
vt 0.649331 0.841402
vt 0.618406 0.853020
vt 0.609493 0.839656
vt 0.651543 0.855324
vt 0.640111 0.852495
vt 0.707234 0.824043
vt 0.677267 0.834361
vt 0.666153 0.824043
vt 0.605797 0.854621
vt 0.599310 0.837455
vt 0.696119 0.844151
vt 0.696119 0.834361
vt 0.659239 0.839601
vt 0.694045 0.747502
vt 0.679881 0.734015
vt 0.634801 0.754197
vt 0.616070 0.752264
vt 0.625327 0.739652
vt 0.614920 0.737528
vt 0.662414 0.793357
vt 0.678007 0.705771
vt 0.677267 0.844151
vt 0.679341 0.747502
vt 0.194401 0.633174
vt 0.201292 0.581127
vt 0.243576 0.575697
vt 0.220744 0.708987
vt 0.202004 0.601297
vt 0.216596 0.719345
vt 0.596424 0.802068
vt 0.608819 0.699433
vt 0.691537 0.688655
s 1
f 34/1/1 1/2/2 33/3/3
f 35/4/4 2/5/5 34/1/1
f 35/4/4 4/6/6 3/7/7
f 36/8/8 1/9/2 4/10/6
f 11/11/9 42/12/10 41/13/11
f 8/14/12 21/15/13 5/16/14
f 37/17/15 13/18/16 16/19/17
f 4/6/6 9/20/18 3/7/7
f 41/21/11 37/17/15 44/22/19
f 16/19/17 17/23/20 20/24/21
f 37/25/15 15/26/22 39/27/23
f 39/27/23 14/28/24 40/29/25
f 38/30/26 14/28/24 13/31/16
f 18/32/27 20/24/21 17/23/20
f 15/26/22 20/33/21 19/34/28
f 14/28/24 19/34/28 18/35/27
f 14/28/24 17/36/20 13/31/16
f 46/37/29 25/38/30 45/39/31
f 8/40/12 23/41/32 24/42/33
f 7/43/34 22/44/35 23/41/32
f 5/45/14 22/44/35 6/46/36
f 50/47/37 29/48/38 49/49/39
f 46/50/29 27/51/40 28/52/41
f 48/53/42 27/51/40 47/54/43
f 45/55/31 26/56/44 48/53/42
f 32/57/45 30/58/46 29/59/38
f 51/60/47 32/61/45 50/62/37
f 51/60/47 30/58/46 31/63/48
f 52/64/49 29/65/38 30/58/46
f 8/14/12 33/66/3 36/8/8
f 8/40/12 35/4/4 7/43/34
f 7/43/34 34/1/1 6/46/36
f 5/45/14 34/1/1 33/3/3
f 12/67/50 41/21/11 44/22/19
f 9/20/18 42/12/10 10/68/51
f 12/69/50 43/70/52 9/20/18
f 44/71/19 39/27/23 43/70/52
f 42/12/10 39/27/23 40/29/25
f 3/7/7 10/68/51 2/5/5
f 1/9/2 12/67/50 4/10/6
f 1/2/2 10/68/51 11/11/9
f 21/72/13 48/53/42 22/44/35
f 23/41/32 48/53/42 47/54/43
f 24/42/33 47/54/43 46/50/29
f 21/15/13 46/37/29 45/39/31
f 26/56/44 49/73/39 52/64/49
f 26/56/44 51/60/47 27/51/40
f 27/51/40 50/62/37 28/52/41
f 25/38/30 50/47/37 49/49/39
f 40/29/25 41/13/11 42/12/10
f 86/1/53 53/2/54 85/3/55
f 86/1/53 55/7/56 54/5/57
f 87/4/58 56/6/59 55/7/56
f 85/66/55 56/10/59 88/8/60
f 63/11/61 94/12/62 93/13/63
f 60/14/64 73/15/65 57/16/66
f 90/74/67 68/19/68 89/17/69
f 56/6/59 61/20/70 55/7/56
f 96/22/71 90/74/67 89/17/69
f 65/18/72 72/24/73 68/19/68
f 89/25/69 67/26/74 91/27/75
f 91/27/75 66/28/76 92/29/77
f 90/30/67 66/28/76 65/31/72
f 70/32/78 72/24/73 69/23/79
f 67/26/74 72/33/73 71/34/80
f 67/26/74 70/35/78 66/28/76
f 66/28/76 69/36/79 65/31/72
f 97/39/81 80/75/82 77/38/83
f 60/40/64 75/41/84 76/42/85
f 59/43/86 74/44/87 75/41/84
f 57/45/66 74/44/87 58/46/88
f 102/47/89 81/48/90 101/49/91
f 98/50/92 79/51/93 80/52/82
f 100/53/94 79/51/93 99/54/95
f 97/55/81 78/56/96 100/53/94
f 84/57/97 82/58/98 81/59/90
f 103/60/99 84/61/97 102/62/89
f 103/60/99 82/58/98 83/63/100
f 104/64/101 81/65/90 82/58/98
f 60/14/64 85/66/55 88/8/60
f 60/40/64 87/4/58 59/43/86
f 58/46/88 87/4/58 86/1/53
f 57/45/66 86/1/53 85/3/55
f 64/67/102 93/21/63 96/22/71
f 61/20/70 94/12/62 62/68/103
f 64/69/102 95/70/104 61/20/70
f 96/71/71 91/27/75 95/70/104
f 94/12/62 91/27/75 92/29/77
f 55/7/56 62/68/103 54/5/57
f 53/9/54 64/67/102 56/10/59
f 53/2/54 62/68/103 63/11/61
f 73/72/65 100/53/94 74/44/87
f 74/44/87 99/54/95 75/41/84
f 76/42/85 99/54/95 98/50/92
f 73/15/65 98/37/92 97/39/81
f 78/56/96 101/73/91 104/64/101
f 78/56/96 103/60/99 79/51/93
f 79/51/93 102/62/89 80/52/82
f 80/75/82 101/49/91 77/38/83
f 92/29/77 93/13/63 94/12/62
f 138/1/105 105/2/106 137/3/107
f 138/1/105 107/7/108 106/5/109
f 139/4/110 108/6/111 107/7/108
f 137/66/107 108/10/111 140/8/112
f 115/11/113 146/12/114 145/13/115
f 109/16/116 128/76/117 125/15/118
f 142/74/119 120/19/120 141/17/121
f 108/6/111 113/20/122 107/7/108
f 148/22/123 142/74/119 141/17/121
f 117/18/124 124/24/125 120/19/120
f 141/25/121 119/26/126 143/27/127
f 143/27/127 118/28/128 144/29/129
f 142/30/119 118/28/128 117/31/124
f 122/32/130 124/24/125 121/23/131
f 119/26/126 124/33/125 123/34/132
f 119/26/126 122/35/130 118/28/128
f 118/28/128 121/36/131 117/31/124
f 150/37/133 129/38/134 149/39/135
f 112/40/136 127/41/137 128/42/117
f 110/46/138 127/41/137 111/43/139
f 109/45/116 126/44/140 110/46/138
f 153/49/141 136/77/142 133/48/143
f 150/50/133 131/51/144 132/52/145
f 152/53/146 131/51/144 151/54/147
f 149/55/135 130/56/148 152/53/146
f 136/57/142 134/58/149 133/59/143
f 155/60/150 136/61/142 154/62/151
f 155/60/150 134/58/149 135/63/152
f 156/64/153 133/65/143 134/58/149
f 112/14/136 137/66/107 140/8/112
f 112/40/136 139/4/110 111/43/139
f 111/43/139 138/1/105 110/46/138
f 109/45/116 138/1/105 137/3/107
f 115/78/113 148/22/123 116/67/154
f 113/20/122 146/12/114 114/68/155
f 116/69/154 147/70/156 113/20/122
f 148/71/123 143/27/127 147/70/156
f 147/70/156 144/29/129 146/12/114
f 107/7/108 114/68/155 106/5/109
f 108/10/111 115/78/113 116/67/154
f 105/2/106 114/68/155 115/11/113
f 125/72/118 152/53/146 126/44/140
f 126/44/140 151/54/147 127/41/137
f 128/42/117 151/54/147 150/50/133
f 125/15/118 150/37/133 149/39/135
f 130/56/148 153/73/141 156/64/153
f 131/51/144 156/64/153 155/60/150
f 131/51/144 154/62/151 132/52/145
f 132/75/145 153/49/141 129/38/134
f 144/29/129 145/13/115 146/12/114
f 190/79/157 157/80/158 189/81/159
f 191/82/160 158/83/161 190/84/157
f 191/85/160 160/86/162 159/87/163
f 189/81/159 160/86/162 192/88/164
f 167/89/165 198/90/166 197/91/167
f 164/92/168 177/93/169 161/94/170
f 193/95/171 169/96/172 172/97/173
f 160/86/162 165/98/174 159/87/163
f 200/99/175 194/100/176 193/95/171
f 169/96/172 176/101/177 172/97/173
f 193/95/171 171/102/178 195/103/179
f 196/104/180 171/105/178 170/106/181
f 194/100/176 170/107/181 169/96/172
f 174/108/182 176/101/177 173/109/183
f 171/102/178 176/101/177 175/110/184
f 170/106/181 175/111/184 174/112/182
f 170/107/181 173/109/183 169/96/172
f 202/113/185 181/114/186 201/115/187
f 164/92/168 179/116/188 180/117/189
f 163/118/190 178/119/191 179/120/188
f 161/94/170 178/121/191 162/122/192
f 205/123/193 188/124/194 185/125/195
f 202/113/185 183/126/196 184/127/197
f 203/128/198 182/129/199 183/130/196
f 201/115/187 182/131/199 204/132/200
f 187/133/201 185/134/195 188/135/194
f 207/136/202 188/124/194 206/137/203
f 207/138/202 186/139/204 187/133/201
f 208/140/205 185/125/195 186/141/204
f 164/92/168 189/81/159 192/88/164
f 164/92/168 191/85/160 163/142/190
f 163/118/190 190/84/157 162/143/192
f 161/94/170 190/79/157 189/81/159
f 168/144/206 197/91/167 200/99/175
f 165/145/174 198/146/166 166/147/207
f 168/144/206 199/148/208 165/98/174
f 200/99/175 195/103/179 199/148/208
f 199/149/208 196/104/180 198/146/166
f 158/83/161 165/145/174 166/147/207
f 157/80/158 168/144/206 160/86/162
f 157/80/158 166/150/207 167/89/165
f 177/93/169 204/132/200 178/121/191
f 179/120/188 204/151/200 203/128/198
f 180/117/189 203/152/198 202/113/185
f 180/117/189 201/115/187 177/93/169
f 182/131/199 205/123/193 208/140/205
f 183/130/196 208/153/205 207/138/202
f 183/126/196 206/137/203 184/127/197
f 184/127/197 205/123/193 181/114/186
f 196/154/180 197/91/167 198/90/166
f 242/79/209 209/80/210 241/81/211
f 243/82/212 210/83/213 242/84/209
f 243/85/212 212/86/214 211/87/215
f 244/88/216 209/80/210 212/86/214
f 219/89/217 250/90/218 249/91/219
f 213/94/220 232/117/221 229/93/222
f 245/95/223 221/96/224 224/97/225
f 212/86/214 217/98/226 211/87/215
f 249/91/219 245/95/223 252/99/227
f 224/97/225 225/109/228 228/101/229
f 245/95/223 223/102/230 247/103/231
f 247/155/231 222/106/232 248/104/233
f 246/100/234 222/107/232 221/96/224
f 226/108/235 228/101/229 225/109/228
f 223/102/230 228/101/229 227/110/236
f 223/105/230 226/112/235 222/106/232
f 222/107/232 225/109/228 221/96/224
f 254/113/237 233/114/238 253/115/239
f 216/92/240 231/116/241 232/117/221
f 215/118/242 230/119/243 231/120/241
f 213/94/220 230/121/243 214/122/244
f 258/137/245 237/125/246 257/123/247
f 254/113/237 235/126/248 236/127/249
f 255/128/250 234/129/251 235/130/248
f 253/115/239 234/131/251 256/132/252
f 239/133/253 237/134/246 240/135/254
f 259/136/255 240/124/254 258/137/245
f 260/153/256 239/133/253 259/138/255
f 260/140/256 237/125/246 238/141/257
f 213/94/220 244/88/216 216/92/240
f 216/92/240 243/85/212 215/142/242
f 215/118/242 242/84/209 214/143/244
f 213/94/220 242/79/209 241/81/211
f 219/89/217 252/99/227 220/144/258
f 218/147/259 251/149/260 250/146/218
f 220/144/258 251/148/260 217/98/226
f 252/99/227 247/103/231 251/148/260
f 251/149/260 248/104/233 250/146/218
f 211/156/215 218/147/259 210/83/213
f 209/80/210 220/144/258 212/86/214
f 209/80/210 218/150/259 219/89/217
f 229/93/222 256/132/252 230/121/243
f 231/120/241 256/151/252 255/128/250
f 232/117/221 255/152/250 254/113/237
f 232/117/221 253/115/239 229/93/222
f 234/131/251 257/123/247 260/140/256
f 234/129/251 259/138/255 235/130/248
f 235/126/248 258/137/245 236/127/249
f 236/127/249 257/123/247 233/114/238
f 248/154/233 249/91/219 250/90/218
f 294/79/261 261/80/262 293/81/263
f 295/82/264 262/83/265 294/84/261
f 295/85/264 264/86/266 263/87/267
f 293/81/263 264/86/266 296/88/268
f 271/89/269 302/90/270 301/91/271
f 265/94/272 284/117/273 281/93/274
f 297/95/275 273/96/276 276/97/277
f 264/86/266 269/98/278 263/87/267
f 304/99/279 298/100/280 297/95/275
f 276/97/277 277/109/281 280/101/282
f 297/95/275 275/102/283 299/103/284
f 300/104/285 275/105/283 274/106/286
f 298/100/280 274/107/286 273/96/276
f 278/108/287 280/101/282 277/109/281
f 275/102/283 280/101/282 279/110/288
f 274/106/286 279/111/288 278/112/287
f 274/107/286 277/109/281 273/96/276
f 306/113/289 285/114/290 305/115/291
f 268/92/292 283/116/293 284/117/273
f 267/118/294 282/119/295 283/120/293
f 265/94/272 282/121/295 266/122/296
f 310/137/297 289/125/298 309/123/299
f 306/113/289 287/126/300 288/127/301
f 307/128/302 286/129/303 287/130/300
f 305/115/291 286/131/303 308/132/304
f 291/133/305 289/134/298 292/135/306
f 311/136/307 292/124/306 310/137/297
f 311/138/307 290/139/308 291/133/305
f 312/140/309 289/125/298 290/141/308
f 268/92/292 293/81/263 296/88/268
f 268/92/292 295/85/264 267/142/294
f 267/118/294 294/84/261 266/143/296
f 265/94/272 294/79/261 293/81/263
f 272/144/310 301/91/271 304/99/279
f 269/145/278 302/146/270 270/147/311
f 272/144/310 303/148/312 269/98/278
f 304/99/279 299/103/284 303/148/312
f 302/146/270 299/155/284 300/104/285
f 263/156/267 270/147/311 262/83/265
f 264/86/266 271/89/269 272/144/310
f 261/80/262 270/150/311 271/89/269
f 281/93/274 308/132/304 282/121/295
f 283/120/293 308/151/304 307/128/302
f 284/117/273 307/152/302 306/113/289
f 284/117/273 305/115/291 281/93/274
f 286/131/303 309/123/299 312/140/309
f 287/130/300 312/153/309 311/138/307
f 287/126/300 310/137/297 288/127/301
f 285/114/290 310/137/297 309/123/299
f 300/154/285 301/91/271 302/90/270
f 334/157/313 313/158/314 333/159/315
f 335/160/316 314/161/5 334/157/313
f 335/160/316 316/162/317 315/163/7
f 336/164/318 313/165/314 316/166/317
f 323/167/9 342/168/10 341/169/319
f 338/170/26 328/171/17 337/172/15
f 316/162/317 321/173/18 315/163/7
f 344/174/19 338/170/26 337/172/15
f 328/171/17 329/175/20 332/176/21
f 337/177/15 327/178/22 339/179/23
f 340/180/320 327/178/22 326/181/24
f 338/182/26 326/181/24 325/183/321
f 330/184/322 332/176/21 329/175/20
f 327/178/22 332/185/21 331/186/28
f 326/181/24 331/186/28 330/187/322
f 326/181/24 329/188/20 325/183/321
f 318/189/323 346/190/324 319/191/325
f 318/189/323 348/192/326 347/193/327
f 320/194/328 348/195/326 317/196/329
f 319/191/325 345/197/330 320/198/328
f 346/199/324 348/195/326 345/200/330
f 317/196/329 336/164/318 320/194/328
f 320/198/328 335/160/316 319/191/325
f 318/189/323 335/160/316 334/157/313
f 317/201/329 334/157/313 333/159/315
f 324/202/331 341/203/319 344/174/19
f 321/173/18 342/168/10 322/204/51
f 324/205/331 343/206/52 321/173/18
f 344/207/19 339/179/23 343/206/52
f 343/206/52 340/180/320 342/168/10
f 315/163/7 322/204/51 314/161/5
f 313/165/314 324/202/331 316/166/317
f 313/158/314 322/204/51 323/167/9
f 340/180/320 341/169/319 342/168/10
f 370/157/332 349/158/54 369/159/55
f 371/160/333 350/161/334 370/157/332
f 371/160/333 352/162/59 351/163/56
f 369/208/55 352/166/59 372/164/60
f 359/167/61 378/168/62 377/169/63
f 374/170/67 364/171/335 373/172/69
f 352/162/59 357/173/70 351/163/56
f 377/203/63 373/172/69 380/174/71
f 361/209/72 368/176/73 364/171/335
f 373/177/69 363/178/74 375/179/336
f 376/180/77 363/178/74 362/181/76
f 374/182/67 362/181/76 361/183/72
f 366/184/78 368/176/73 365/175/337
f 363/178/74 368/185/73 367/186/338
f 363/178/74 366/187/78 362/181/76
f 362/181/76 365/188/337 361/183/72
f 354/189/339 382/190/340 355/191/341
f 354/189/339 384/192/342 383/193/343
f 356/194/344 384/195/342 353/196/345
f 355/191/341 381/197/346 356/198/344
f 382/199/340 384/195/342 381/200/346
f 356/194/344 369/208/55 372/164/60
f 356/198/344 371/160/333 355/191/341
f 355/191/341 370/157/332 354/189/339
f 353/201/345 370/157/332 369/159/55
f 360/202/347 377/203/63 380/174/71
f 358/204/103 379/206/348 378/168/62
f 360/205/347 379/206/348 357/173/70
f 380/207/71 375/179/336 379/206/348
f 379/206/348 376/180/77 378/168/62
f 351/163/56 358/204/103 350/161/334
f 349/165/54 360/202/347 352/166/59
f 349/158/54 358/204/103 359/167/61
f 376/180/77 377/169/63 378/168/62
f 406/157/349 385/158/106 405/159/107
f 407/160/350 386/161/109 406/157/349
f 407/160/350 388/162/111 387/163/108
f 405/208/107 388/166/111 408/164/112
f 395/167/113 414/168/351 413/169/115
f 410/170/119 400/171/120 409/172/121
f 388/162/111 393/173/122 387/163/108
f 416/174/123 410/170/119 409/172/121
f 397/209/124 404/176/125 400/171/120
f 409/177/121 399/178/126 411/179/352
f 412/180/353 399/178/126 398/181/128
f 410/182/119 398/181/128 397/183/124
f 402/184/130 404/176/125 401/175/354
f 399/178/126 404/185/125 403/186/355
f 399/178/126 402/187/130 398/181/128
f 398/181/128 401/188/354 397/183/124
f 391/191/356 419/193/357 418/190/358
f 390/189/359 420/192/360 419/193/357
f 392/194/361 420/195/360 389/196/362
f 391/191/356 417/197/363 392/198/361
f 417/200/363 419/210/357 420/195/360
f 392/194/361 405/208/107 408/164/112
f 392/198/361 407/160/350 391/191/356
f 391/191/356 406/157/349 390/189/359
f 389/201/362 406/157/349 405/159/107
f 395/211/113 416/174/123 396/202/154
f 394/204/155 415/206/156 414/168/351
f 396/205/154 415/206/156 393/173/122
f 416/207/123 411/179/352 415/206/156
f 415/206/156 412/180/353 414/168/351
f 387/163/108 394/204/155 386/161/109
f 385/165/106 396/202/154 388/166/111
f 385/158/106 394/204/155 395/167/113
f 412/180/353 413/169/115 414/168/351
f 34/1/1 2/5/5 1/2/2
f 35/4/4 3/7/7 2/5/5
f 35/4/4 36/212/8 4/6/6
f 36/8/8 33/66/3 1/9/2
f 11/11/9 10/68/51 42/12/10
f 8/14/12 24/76/33 21/15/13
f 37/17/15 38/74/26 13/18/16
f 4/6/6 12/69/50 9/20/18
f 41/21/11 38/74/26 37/17/15
f 16/19/17 13/18/16 17/23/20
f 37/25/15 16/213/17 15/26/22
f 39/27/23 15/26/22 14/28/24
f 38/30/26 40/29/25 14/28/24
f 18/32/27 19/214/28 20/24/21
f 15/26/22 16/213/17 20/33/21
f 14/28/24 15/26/22 19/34/28
f 14/28/24 18/35/27 17/36/20
f 46/37/29 28/75/41 25/38/30
f 8/40/12 7/43/34 23/41/32
f 7/43/34 6/46/36 22/44/35
f 5/45/14 21/72/13 22/44/35
f 50/47/37 32/77/45 29/48/38
f 46/50/29 47/54/43 27/51/40
f 48/53/42 26/56/44 27/51/40
f 45/55/31 25/215/30 26/56/44
f 32/57/45 31/63/48 30/58/46
f 51/60/47 31/63/48 32/61/45
f 51/60/47 52/64/49 30/58/46
f 52/64/49 49/73/39 29/65/38
f 8/14/12 5/16/14 33/66/3
f 8/40/12 36/212/8 35/4/4
f 7/43/34 35/4/4 34/1/1
f 5/45/14 6/46/36 34/1/1
f 12/67/50 11/78/9 41/21/11
f 9/20/18 43/70/52 42/12/10
f 12/69/50 44/71/19 43/70/52
f 44/71/19 37/25/15 39/27/23
f 42/12/10 43/70/52 39/27/23
f 3/7/7 9/20/18 10/68/51
f 1/9/2 11/78/9 12/67/50
f 1/2/2 2/5/5 10/68/51
f 21/72/13 45/55/31 48/53/42
f 23/41/32 22/44/35 48/53/42
f 24/42/33 23/41/32 47/54/43
f 21/15/13 24/76/33 46/37/29
f 26/56/44 25/215/30 49/73/39
f 26/56/44 52/64/49 51/60/47
f 27/51/40 51/60/47 50/62/37
f 25/38/30 28/75/41 50/47/37
f 40/29/25 38/30/26 41/13/11
f 86/1/53 54/5/57 53/2/54
f 86/1/53 87/4/58 55/7/56
f 87/4/58 88/212/60 56/6/59
f 85/66/55 53/9/54 56/10/59
f 63/11/61 62/68/103 94/12/62
f 60/14/64 76/76/85 73/15/65
f 90/74/67 65/18/72 68/19/68
f 56/6/59 64/69/102 61/20/70
f 96/22/71 93/21/63 90/74/67
f 65/18/72 69/23/79 72/24/73
f 89/25/69 68/213/68 67/26/74
f 91/27/75 67/26/74 66/28/76
f 90/30/67 92/29/77 66/28/76
f 70/32/78 71/214/80 72/24/73
f 67/26/74 68/213/68 72/33/73
f 67/26/74 71/34/80 70/35/78
f 66/28/76 70/35/78 69/36/79
f 97/39/81 98/37/92 80/75/82
f 60/40/64 59/43/86 75/41/84
f 59/43/86 58/46/88 74/44/87
f 57/45/66 73/72/65 74/44/87
f 102/47/89 84/77/97 81/48/90
f 98/50/92 99/54/95 79/51/93
f 100/53/94 78/56/96 79/51/93
f 97/55/81 77/215/83 78/56/96
f 84/57/97 83/63/100 82/58/98
f 103/60/99 83/63/100 84/61/97
f 103/60/99 104/64/101 82/58/98
f 104/64/101 101/73/91 81/65/90
f 60/14/64 57/16/66 85/66/55
f 60/40/64 88/212/60 87/4/58
f 58/46/88 59/43/86 87/4/58
f 57/45/66 58/46/88 86/1/53
f 64/67/102 63/78/61 93/21/63
f 61/20/70 95/70/104 94/12/62
f 64/69/102 96/71/71 95/70/104
f 96/71/71 89/25/69 91/27/75
f 94/12/62 95/70/104 91/27/75
f 55/7/56 61/20/70 62/68/103
f 53/9/54 63/78/61 64/67/102
f 53/2/54 54/5/57 62/68/103
f 73/72/65 97/55/81 100/53/94
f 74/44/87 100/53/94 99/54/95
f 76/42/85 75/41/84 99/54/95
f 73/15/65 76/76/85 98/37/92
f 78/56/96 77/215/83 101/73/91
f 78/56/96 104/64/101 103/60/99
f 79/51/93 103/60/99 102/62/89
f 80/75/82 102/47/89 101/49/91
f 92/29/77 90/30/67 93/13/63
f 138/1/105 106/5/109 105/2/106
f 138/1/105 139/4/110 107/7/108
f 139/4/110 140/212/112 108/6/111
f 137/66/107 105/9/106 108/10/111
f 115/11/113 114/68/155 146/12/114
f 109/16/116 112/14/136 128/76/117
f 142/74/119 117/18/124 120/19/120
f 108/6/111 116/69/154 113/20/122
f 148/22/123 145/21/115 142/74/119
f 117/18/124 121/23/131 124/24/125
f 141/25/121 120/213/120 119/26/126
f 143/27/127 119/26/126 118/28/128
f 142/30/119 144/29/129 118/28/128
f 122/32/130 123/214/132 124/24/125
f 119/26/126 120/213/120 124/33/125
f 119/26/126 123/34/132 122/35/130
f 118/28/128 122/35/130 121/36/131
f 150/37/133 132/75/145 129/38/134
f 112/40/136 111/43/139 127/41/137
f 110/46/138 126/44/140 127/41/137
f 109/45/116 125/72/118 126/44/140
f 153/49/141 154/47/151 136/77/142
f 150/50/133 151/54/147 131/51/144
f 152/53/146 130/56/148 131/51/144
f 149/55/135 129/215/134 130/56/148
f 136/57/142 135/63/152 134/58/149
f 155/60/150 135/63/152 136/61/142
f 155/60/150 156/64/153 134/58/149
f 156/64/153 153/73/141 133/65/143
f 112/14/136 109/16/116 137/66/107
f 112/40/136 140/212/112 139/4/110
f 111/43/139 139/4/110 138/1/105
f 109/45/116 110/46/138 138/1/105
f 115/78/113 145/21/115 148/22/123
f 113/20/122 147/70/156 146/12/114
f 116/69/154 148/71/123 147/70/156
f 148/71/123 141/25/121 143/27/127
f 147/70/156 143/27/127 144/29/129
f 107/7/108 113/20/122 114/68/155
f 108/10/111 105/9/106 115/78/113
f 105/2/106 106/5/109 114/68/155
f 125/72/118 149/55/135 152/53/146
f 126/44/140 152/53/146 151/54/147
f 128/42/117 127/41/137 151/54/147
f 125/15/118 128/76/117 150/37/133
f 130/56/148 129/215/134 153/73/141
f 131/51/144 130/56/148 156/64/153
f 131/51/144 155/60/150 154/62/151
f 132/75/145 154/47/151 153/49/141
f 144/29/129 142/30/119 145/13/115
f 190/79/157 158/216/161 157/80/158
f 191/82/160 159/156/163 158/83/161
f 191/85/160 192/88/164 160/86/162
f 189/81/159 157/80/158 160/86/162
f 167/89/165 166/150/207 198/90/166
f 164/92/168 180/117/189 177/93/169
f 193/95/171 194/100/176 169/96/172
f 160/86/162 168/144/206 165/98/174
f 200/99/175 197/91/167 194/100/176
f 169/96/172 173/109/183 176/101/177
f 193/95/171 172/97/173 171/102/178
f 196/104/180 195/155/179 171/105/178
f 194/100/176 196/154/180 170/107/181
f 174/108/182 175/110/184 176/101/177
f 171/102/178 172/97/173 176/101/177
f 170/106/181 171/105/178 175/111/184
f 170/107/181 174/108/182 173/109/183
f 202/113/185 184/127/197 181/114/186
f 164/92/168 163/142/190 179/116/188
f 163/118/190 162/143/192 178/119/191
f 161/94/170 177/93/169 178/121/191
f 205/123/193 206/137/203 188/124/194
f 202/113/185 203/152/198 183/126/196
f 203/128/198 204/151/200 182/129/199
f 201/115/187 181/114/186 182/131/199
f 187/133/201 186/139/204 185/134/195
f 207/136/202 187/217/201 188/124/194
f 207/138/202 208/153/205 186/139/204
f 208/140/205 205/123/193 185/125/195
f 164/92/168 161/94/170 189/81/159
f 164/92/168 192/88/164 191/85/160
f 163/118/190 191/82/160 190/84/157
f 161/94/170 162/122/192 190/79/157
f 168/144/206 167/89/165 197/91/167
f 165/145/174 199/149/208 198/146/166
f 168/144/206 200/99/175 199/148/208
f 200/99/175 193/95/171 195/103/179
f 199/149/208 195/155/179 196/104/180
f 158/83/161 159/156/163 165/145/174
f 157/80/158 167/89/165 168/144/206
f 157/80/158 158/216/161 166/150/207
f 177/93/169 201/115/187 204/132/200
f 179/120/188 178/119/191 204/151/200
f 180/117/189 179/116/188 203/152/198
f 180/117/189 202/113/185 201/115/187
f 182/131/199 181/114/186 205/123/193
f 183/130/196 182/129/199 208/153/205
f 183/126/196 207/136/202 206/137/203
f 184/127/197 206/137/203 205/123/193
f 196/154/180 194/100/176 197/91/167
f 242/79/209 210/216/213 209/80/210
f 243/82/212 211/156/215 210/83/213
f 243/85/212 244/88/216 212/86/214
f 244/88/216 241/81/211 209/80/210
f 219/89/217 218/150/259 250/90/218
f 213/94/220 216/92/240 232/117/221
f 245/95/223 246/100/234 221/96/224
f 212/86/214 220/144/258 217/98/226
f 249/91/219 246/100/234 245/95/223
f 224/97/225 221/96/224 225/109/228
f 245/95/223 224/97/225 223/102/230
f 247/155/231 223/105/230 222/106/232
f 246/100/234 248/154/233 222/107/232
f 226/108/235 227/110/236 228/101/229
f 223/102/230 224/97/225 228/101/229
f 223/105/230 227/111/236 226/112/235
f 222/107/232 226/108/235 225/109/228
f 254/113/237 236/127/249 233/114/238
f 216/92/240 215/142/242 231/116/241
f 215/118/242 214/143/244 230/119/243
f 213/94/220 229/93/222 230/121/243
f 258/137/245 240/124/254 237/125/246
f 254/113/237 255/152/250 235/126/248
f 255/128/250 256/151/252 234/129/251
f 253/115/239 233/114/238 234/131/251
f 239/133/253 238/139/257 237/134/246
f 259/136/255 239/217/253 240/124/254
f 260/153/256 238/139/257 239/133/253
f 260/140/256 257/123/247 237/125/246
f 213/94/220 241/81/211 244/88/216
f 216/92/240 244/88/216 243/85/212
f 215/118/242 243/82/212 242/84/209
f 213/94/220 214/122/244 242/79/209
f 219/89/217 249/91/219 252/99/227
f 218/147/259 217/145/226 251/149/260
f 220/144/258 252/99/227 251/148/260
f 252/99/227 245/95/223 247/103/231
f 251/149/260 247/155/231 248/104/233
f 211/156/215 217/145/226 218/147/259
f 209/80/210 219/89/217 220/144/258
f 209/80/210 210/216/213 218/150/259
f 229/93/222 253/115/239 256/132/252
f 231/120/241 230/119/243 256/151/252
f 232/117/221 231/116/241 255/152/250
f 232/117/221 254/113/237 253/115/239
f 234/131/251 233/114/238 257/123/247
f 234/129/251 260/153/256 259/138/255
f 235/126/248 259/136/255 258/137/245
f 236/127/249 258/137/245 257/123/247
f 248/154/233 246/100/234 249/91/219
f 294/79/261 262/216/265 261/80/262
f 295/82/264 263/156/267 262/83/265
f 295/85/264 296/88/268 264/86/266
f 293/81/263 261/80/262 264/86/266
f 271/89/269 270/150/311 302/90/270
f 265/94/272 268/92/292 284/117/273
f 297/95/275 298/100/280 273/96/276
f 264/86/266 272/144/310 269/98/278
f 304/99/279 301/91/271 298/100/280
f 276/97/277 273/96/276 277/109/281
f 297/95/275 276/97/277 275/102/283
f 300/104/285 299/155/284 275/105/283
f 298/100/280 300/154/285 274/107/286
f 278/108/287 279/110/288 280/101/282
f 275/102/283 276/97/277 280/101/282
f 274/106/286 275/105/283 279/111/288
f 274/107/286 278/108/287 277/109/281
f 306/113/289 288/127/301 285/114/290
f 268/92/292 267/142/294 283/116/293
f 267/118/294 266/143/296 282/119/295
f 265/94/272 281/93/274 282/121/295
f 310/137/297 292/124/306 289/125/298
f 306/113/289 307/152/302 287/126/300
f 307/128/302 308/151/304 286/129/303
f 305/115/291 285/114/290 286/131/303
f 291/133/305 290/139/308 289/134/298
f 311/136/307 291/217/305 292/124/306
f 311/138/307 312/153/309 290/139/308
f 312/140/309 309/123/299 289/125/298
f 268/92/292 265/94/272 293/81/263
f 268/92/292 296/88/268 295/85/264
f 267/118/294 295/82/264 294/84/261
f 265/94/272 266/122/296 294/79/261
f 272/144/310 271/89/269 301/91/271
f 269/145/278 303/149/312 302/146/270
f 272/144/310 304/99/279 303/148/312
f 304/99/279 297/95/275 299/103/284
f 302/146/270 303/149/312 299/155/284
f 263/156/267 269/145/278 270/147/311
f 264/86/266 261/80/262 271/89/269
f 261/80/262 262/216/265 270/150/311
f 281/93/274 305/115/291 308/132/304
f 283/120/293 282/119/295 308/151/304
f 284/117/273 283/116/293 307/152/302
f 284/117/273 306/113/289 305/115/291
f 286/131/303 285/114/290 309/123/299
f 287/130/300 286/129/303 312/153/309
f 287/126/300 311/136/307 310/137/297
f 285/114/290 288/127/301 310/137/297
f 300/154/285 298/100/280 301/91/271
f 334/157/313 314/161/5 313/158/314
f 335/160/316 315/163/7 314/161/5
f 335/160/316 336/218/318 316/162/317
f 336/164/318 333/208/315 313/165/314
f 323/167/9 322/204/51 342/168/10
f 338/170/26 325/209/321 328/171/17
f 316/162/317 324/205/331 321/173/18
f 344/174/19 341/203/319 338/170/26
f 328/171/17 325/209/321 329/175/20
f 337/177/15 328/219/17 327/178/22
f 340/180/320 339/179/23 327/178/22
f 338/182/26 340/180/320 326/181/24
f 330/184/322 331/220/28 332/176/21
f 327/178/22 328/219/17 332/185/21
f 326/181/24 327/178/22 331/186/28
f 326/181/24 330/187/322 329/188/20
f 318/189/323 347/193/327 346/190/324
f 318/189/323 317/201/329 348/192/326
f 320/194/328 345/200/330 348/195/326
f 319/191/325 346/190/324 345/197/330
f 346/199/324 347/210/327 348/195/326
f 317/196/329 333/208/315 336/164/318
f 320/198/328 336/218/318 335/160/316
f 318/189/323 319/191/325 335/160/316
f 317/201/329 318/189/323 334/157/313
f 324/202/331 323/211/9 341/203/319
f 321/173/18 343/206/52 342/168/10
f 324/205/331 344/207/19 343/206/52
f 344/207/19 337/177/15 339/179/23
f 343/206/52 339/179/23 340/180/320
f 315/163/7 321/173/18 322/204/51
f 313/165/314 323/211/9 324/202/331
f 313/158/314 314/161/5 322/204/51
f 340/180/320 338/182/26 341/169/319
f 370/157/332 350/161/334 349/158/54
f 371/160/333 351/163/56 350/161/334
f 371/160/333 372/218/60 352/162/59
f 369/208/55 349/165/54 352/166/59
f 359/167/61 358/204/103 378/168/62
f 374/170/67 361/209/72 364/171/335
f 352/162/59 360/205/347 357/173/70
f 377/203/63 374/170/67 373/172/69
f 361/209/72 365/175/337 368/176/73
f 373/177/69 364/219/335 363/178/74
f 376/180/77 375/179/336 363/178/74
f 374/182/67 376/180/77 362/181/76
f 366/184/78 367/220/338 368/176/73
f 363/178/74 364/219/335 368/185/73
f 363/178/74 367/186/338 366/187/78
f 362/181/76 366/187/78 365/188/337
f 354/189/339 383/193/343 382/190/340
f 354/189/339 353/201/345 384/192/342
f 356/194/344 381/200/346 384/195/342
f 355/191/341 382/190/340 381/197/346
f 382/199/340 383/210/343 384/195/342
f 356/194/344 353/196/345 369/208/55
f 356/198/344 372/218/60 371/160/333
f 355/191/341 371/160/333 370/157/332
f 353/201/345 354/189/339 370/157/332
f 360/202/347 359/211/61 377/203/63
f 358/204/103 357/173/70 379/206/348
f 360/205/347 380/207/71 379/206/348
f 380/207/71 373/177/69 375/179/336
f 379/206/348 375/179/336 376/180/77
f 351/163/56 357/173/70 358/204/103
f 349/165/54 359/211/61 360/202/347
f 349/158/54 350/161/334 358/204/103
f 376/180/77 374/182/67 377/169/63
f 406/157/349 386/161/109 385/158/106
f 407/160/350 387/163/108 386/161/109
f 407/160/350 408/218/112 388/162/111
f 405/208/107 385/165/106 388/166/111
f 395/167/113 394/204/155 414/168/351
f 410/170/119 397/209/124 400/171/120
f 388/162/111 396/205/154 393/173/122
f 416/174/123 413/203/115 410/170/119
f 397/209/124 401/175/354 404/176/125
f 409/177/121 400/219/120 399/178/126
f 412/180/353 411/179/352 399/178/126
f 410/182/119 412/180/353 398/181/128
f 402/184/130 403/220/355 404/176/125
f 399/178/126 400/219/120 404/185/125
f 399/178/126 403/186/355 402/187/130
f 398/181/128 402/187/130 401/188/354
f 391/191/356 390/189/359 419/193/357
f 390/189/359 389/201/362 420/192/360
f 392/194/361 417/200/363 420/195/360
f 391/191/356 418/190/358 417/197/363
f 417/200/363 418/199/358 419/210/357
f 392/194/361 389/196/362 405/208/107
f 392/198/361 408/218/112 407/160/350
f 391/191/356 407/160/350 406/157/349
f 389/201/362 390/189/359 406/157/349
f 395/211/113 413/203/115 416/174/123
f 394/204/155 393/173/122 415/206/156
f 396/205/154 416/207/123 415/206/156
f 416/207/123 409/177/121 411/179/352
f 415/206/156 411/179/352 412/180/353
f 387/163/108 393/173/122 394/204/155
f 385/165/106 395/211/113 396/202/154
f 385/158/106 386/161/109 394/204/155
f 412/180/353 410/182/119 413/169/115
