# Blender 3.6.23
# www.blender.org
o sol.057
v -1.992615 0.010196 -3.135787
v -1.961743 0.010230 -3.130617
v -1.931168 0.010193 -3.123742
v -1.904566 0.010227 -3.107158
v -1.879266 0.010198 -3.088734
v -1.860831 0.010227 -3.063420
v -1.846238 0.010228 -3.036011
v -1.837425 0.010231 -3.006265
v -1.832189 0.010196 -2.975384
v -1.836792 0.010221 -2.944375
v -1.845315 0.010212 -2.914369
v -1.859934 0.010210 -2.886729
v -1.879293 0.010199 -2.862070
v -1.903045 0.010184 -2.841332
v -1.930945 0.010185 -2.826541
v -1.960592 0.010136 -2.814320
v -1.992669 0.010203 -2.815366
v -2.023422 0.010237 -2.820582
v -2.053352 0.010223 -2.828722
v -2.081294 0.010209 -2.842642
v -2.106244 0.010192 -2.861770
v -2.124303 0.010229 -2.887439
v -2.136474 0.010271 -2.915764
v -2.151390 0.010173 -2.943771
v -2.151814 0.010216 -2.975415
v -2.146847 0.010246 -3.006075
v -2.137592 0.010252 -3.035399
v -2.126304 0.010191 -3.064670
v -2.106151 0.010193 -3.088960
v -2.079364 0.010264 -3.105241
v -2.053012 0.010238 -3.121121
v -2.023658 0.010219 -3.131314
v -1.992615 0.006837 -3.135341
v -1.961826 0.006856 -3.130193
v -1.931338 0.006835 -3.123329
v -1.904805 0.006854 -3.106799
v -1.879580 0.006838 -3.088418
v -1.861193 0.006857 -3.063180
v -1.846640 0.006861 -3.035843
v -1.837848 0.006860 -3.006177
v -1.832634 0.006837 -2.975383
v -1.837217 0.006850 -2.944460
v -1.845721 0.006846 -2.914536
v -1.860299 0.006842 -2.886971
v -1.879606 0.006832 -2.862379
v -1.903292 0.006820 -2.841699
v -1.931116 0.006814 -2.826943
v -1.960679 0.006785 -2.814770
v -1.992660 0.006833 -2.815802
v -2.023335 0.006865 -2.821003
v -2.053187 0.006856 -2.829127
v -2.081052 0.006842 -2.843008
v -2.105927 0.006832 -2.862083
v -2.123935 0.006863 -2.887674
v -2.136088 0.006889 -2.915928
v -2.150944 0.006823 -2.943864
v -2.151376 0.006848 -2.975408
v -2.146424 0.006876 -3.005987
v -2.137194 0.006877 -3.035239
v -2.125929 0.006832 -3.064425
v -2.105839 0.006835 -3.088639
v -2.079131 0.006886 -3.104885
v -2.052841 0.006872 -3.120720
v -2.023569 0.006852 -3.130885
v -1.992620 0.006096 -3.138232
v -1.961279 0.006139 -3.132973
v -1.930237 0.006092 -3.126005
v -1.903236 0.006135 -3.109160
v -1.877546 0.006097 -3.090463
v -1.858838 0.006132 -3.064764
v -1.844020 0.006130 -3.036937
v -1.835075 0.006137 -3.006735
v -1.829753 0.006095 -2.975389
v -1.834432 0.006126 -2.943913
v -1.843083 0.006114 -2.913447
v -1.857925 0.006114 -2.885387
v -1.877579 0.006103 -2.860353
v -1.901689 0.006086 -2.839299
v -1.930019 0.006093 -2.824286
v -1.960106 0.006032 -2.811871
v -1.992661 0.006108 -2.812943
v -2.023890 0.006144 -2.818241
v -2.054281 0.006126 -2.826503
v -2.082648 0.006112 -2.840634
v -2.107974 0.006091 -2.860046
v -2.126301 0.006131 -2.886101
v -2.138654 0.006185 -2.914875
v -2.153816 0.006066 -2.943300
v -2.154234 0.006120 -2.975412
v -2.149191 0.006151 -3.006542
v -2.139789 0.006160 -3.036320
v -2.128338 0.006089 -3.066039
v -2.107888 0.006092 -3.090688
v -2.080685 0.006174 -3.107207
v -2.053928 0.006141 -3.123342
v -2.024128 0.006122 -3.133688
v -1.992620 0.002006 -3.138661
v -1.961196 0.002033 -3.133394
v -1.930073 0.002004 -3.126401
v -1.902999 0.002030 -3.109517
v -1.877244 0.002008 -3.090767
v -1.858483 0.002033 -3.065001
v -1.843627 0.002035 -3.037100
v -1.834658 0.002036 -3.006821
v -1.829326 0.002006 -2.975390
v -1.834013 0.002026 -2.943829
v -1.842688 0.002019 -2.913285
v -1.857569 0.002016 -2.885151
v -1.877274 0.002005 -2.860051
v -1.901449 0.001991 -2.838942
v -1.929850 0.001989 -2.823888
v -1.960022 0.001948 -2.811445
v -1.992669 0.002008 -2.812514
v -2.023975 0.002042 -2.817824
v -2.054443 0.002030 -2.826109
v -2.082885 0.002016 -2.840278
v -2.108279 0.002002 -2.859744
v -2.126657 0.002037 -2.885870
v -2.139045 0.002070 -2.914710
v -2.154237 0.001987 -2.943215
v -2.154662 0.002022 -2.975418
v -2.149606 0.002053 -3.006628
v -2.140183 0.002056 -3.036480
v -2.128697 0.002001 -3.066276
v -2.108189 0.002004 -3.090994
v -2.080918 0.002066 -3.107562
v -2.054093 0.002047 -3.123733
v -2.024215 0.002026 -3.134107
v -1.992620 0.000733 -3.136504
v -1.961609 0.000764 -3.131298
v -1.930894 0.000730 -3.124406
v -1.904183 0.000761 -3.107738
v -1.878762 0.000735 -3.089241
v -1.860259 0.000762 -3.063818
v -1.845594 0.000763 -3.036282
v -1.836743 0.000766 -3.006392
v -1.831476 0.000733 -2.975383
v -1.836107 0.000755 -2.944247
v -1.844666 0.000747 -2.914098
v -1.859352 0.000745 -2.886336
v -1.878799 0.000734 -2.861564
v -1.902652 0.000719 -2.840736
v -1.930689 0.000720 -2.825879
v -1.960443 0.000674 -2.813596
v -1.992636 0.000738 -2.814660
v -2.023551 0.000772 -2.819904
v -2.053631 0.000758 -2.828082
v -2.081697 0.000744 -2.842063
v -2.106747 0.000729 -2.861261
v -2.124871 0.000765 -2.887030
v -2.137105 0.000804 -2.915527
v -2.152111 0.000711 -2.943648
v -2.152519 0.000751 -2.975392
v -2.147528 0.000781 -3.006200
v -2.138219 0.000786 -3.035681
v -2.126892 0.000727 -3.065087
v -2.106677 0.000730 -3.089453
v -2.079756 0.000797 -3.105798
v -2.053266 0.000774 -3.121772
v -2.023783 0.000754 -3.132008
v -1.992616 0.000715 -3.132779
v -1.962317 0.000747 -3.127699
v -1.932312 0.000712 -3.120960
v -1.906215 0.000744 -3.104682
v -1.881384 0.000716 -3.086606
v -1.863306 0.000744 -3.061776
v -1.848979 0.000745 -3.034870
v -1.840329 0.000748 -3.005666
v -1.835188 0.000714 -2.975374
v -1.839707 0.000738 -2.944958
v -1.848073 0.000730 -2.915502
v -1.862419 0.000728 -2.888379
v -1.881420 0.000717 -2.864177
v -1.904721 0.000702 -2.843830
v -1.932114 0.000704 -2.829310
v -1.961177 0.000656 -2.817320
v -1.992617 0.000721 -2.818355
v -2.022830 0.000754 -2.823479
v -2.052222 0.000740 -2.831472
v -2.079641 0.000727 -2.845131
v -2.104106 0.000711 -2.863884
v -2.121809 0.000746 -2.889051
v -2.133776 0.000787 -2.916903
v -2.148425 0.000692 -2.944381
v -2.148828 0.000733 -2.975374
v -2.143951 0.000763 -3.005476
v -2.134855 0.000768 -3.034291
v -2.123784 0.000709 -3.063017
v -2.104047 0.000712 -3.086805
v -2.077747 0.000780 -3.102782
v -2.051855 0.000755 -3.118390
v -2.023053 0.000736 -3.128390
v -2.112485 0.000778 -3.051602
v -2.083197 0.000850 -3.062981
v -2.053813 0.000836 -3.074957
v -2.021653 0.000823 -3.082857
v -1.988060 0.000794 -3.086152
v -1.954719 0.000804 -3.081522
v -1.922296 0.000768 -3.077761
v -1.894089 0.000781 -3.065699
v -1.867919 0.000739 -3.053048
v -2.120160 0.000781 -3.014281
v -2.089108 0.000858 -3.019542
v -2.057314 0.000862 -3.026507
v -2.022848 0.000862 -3.031332
v -1.987109 0.000834 -3.032915
v -1.951526 0.000824 -3.028721
v -1.917373 0.000802 -3.028317
v -1.887416 0.000801 -3.021453
v -1.860213 0.000758 -3.015454
v -2.124781 0.000738 -2.974585
v -2.093160 0.000803 -2.972994
v -2.060047 0.000811 -2.974263
v -2.024331 0.000816 -2.975589
v -1.987461 0.000785 -2.975272
v -1.950482 0.000757 -2.971719
v -1.915278 0.000753 -2.975037
v -1.883982 0.000751 -2.974119
v -1.856052 0.000721 -2.975631
v -2.124998 0.000700 -2.933935
v -2.094043 0.000768 -2.925530
v -2.061155 0.000792 -2.921031
v -2.025914 0.000811 -2.918825
v -1.989603 0.000788 -2.916682
v -1.952721 0.000756 -2.914040
v -1.918490 0.000770 -2.921071
v -1.887402 0.000768 -2.926319
v -1.860368 0.000747 -2.935462
v -2.112104 0.000780 -2.898111
v -2.083498 0.000824 -2.883765
v -2.052602 0.000844 -2.874021
v -2.019773 0.000857 -2.868449
v -1.986114 0.000823 -2.864482
v -1.951678 0.000765 -2.862534
v -1.920365 0.000783 -2.872248
v -1.891517 0.000766 -2.882542
v -1.867057 0.000746 -2.897866
v -1.992610 0.010197 -3.132548
v -1.962360 0.010230 -3.127482
v -1.932401 0.010194 -3.120746
v -1.906335 0.010226 -3.104496
v -1.881545 0.010198 -3.086443
v -1.863482 0.010227 -3.061639
v -1.849182 0.010227 -3.034782
v -1.840547 0.010230 -3.005636
v -1.835417 0.010196 -2.975377
v -1.839926 0.010220 -2.944993
v -1.848278 0.010212 -2.915592
v -1.862602 0.010210 -2.888508
v -1.881572 0.010199 -2.864347
v -1.904844 0.010184 -2.844026
v -1.932182 0.010186 -2.829533
v -1.961232 0.010138 -2.817558
v -1.992663 0.010203 -2.818583
v -2.022796 0.010237 -2.823694
v -2.052123 0.010223 -2.831671
v -2.079503 0.010209 -2.845310
v -2.103949 0.010193 -2.864052
v -2.121644 0.010229 -2.889204
v -2.133571 0.010270 -2.916958
v -2.148186 0.010174 -2.944401
v -2.148601 0.010216 -2.975408
v -2.143734 0.010246 -3.005450
v -2.134666 0.010251 -3.034183
v -2.123605 0.010191 -3.062864
v -2.103858 0.010194 -3.086665
v -2.077611 0.010263 -3.102617
v -2.051790 0.010238 -3.118178
v -2.023028 0.010219 -3.128165
v -1.992610 0.005115 -3.132410
v -1.962386 0.005148 -3.127348
v -1.932454 0.005112 -3.120619
v -1.906410 0.005145 -3.104383
v -1.881641 0.005116 -3.086345
v -1.863594 0.005145 -3.061564
v -1.849307 0.005145 -3.034730
v -1.840680 0.005149 -3.005609
v -1.835554 0.005115 -2.975377
v -1.840060 0.005139 -2.945019
v -1.848404 0.005130 -2.915644
v -1.862716 0.005128 -2.888584
v -1.881668 0.005117 -2.864443
v -1.904921 0.005102 -2.844140
v -1.932235 0.005104 -2.829660
v -1.961260 0.005056 -2.817696
v -1.992663 0.005121 -2.818720
v -2.022769 0.005155 -2.823826
v -2.052071 0.005141 -2.831796
v -2.079426 0.005127 -2.845423
v -2.103852 0.005111 -2.864149
v -2.121531 0.005147 -2.889279
v -2.133447 0.005188 -2.917009
v -2.148050 0.005092 -2.944427
v -2.148464 0.005134 -2.975408
v -2.143602 0.005164 -3.005423
v -2.134541 0.005169 -3.034131
v -2.123491 0.005109 -3.062787
v -2.103760 0.005112 -3.086567
v -2.077537 0.005181 -3.102505
v -2.051739 0.005156 -3.118053
v -2.023001 0.005137 -3.128031
v -2.077589 0.008746 -3.102584
v -2.103829 0.008677 -3.086636
v -2.052108 0.008706 -2.831708
v -2.022788 0.008720 -2.823733
v -1.840586 0.008714 -3.005628
v -1.849219 0.008710 -3.034767
v -2.123571 0.008674 -3.062841
v -2.134629 0.008734 -3.034167
v -1.863515 0.008710 -3.061617
v -1.881573 0.008681 -3.086414
v -1.992663 0.008686 -2.818624
v -1.961241 0.008621 -2.817599
v -2.143695 0.008729 -3.005442
v -2.148560 0.008699 -2.975408
v -1.906357 0.008710 -3.104462
v -1.932417 0.008677 -3.120708
v -1.932198 0.008669 -2.829571
v -1.904867 0.008667 -2.844060
v -2.148146 0.008657 -2.944409
v -2.133534 0.008753 -2.916973
v -1.962368 0.008713 -3.127442
v -1.992610 0.008680 -3.132507
v -1.881600 0.008682 -2.864375
v -1.862636 0.008693 -2.888531
v -2.023020 0.008702 -3.128125
v -2.121610 0.008712 -2.889226
v -2.103920 0.008676 -2.864081
v -1.848316 0.008695 -2.915607
v -1.839966 0.008704 -2.945001
v -2.051775 0.008721 -3.118141
v -2.079480 0.008692 -2.845343
v -1.835458 0.008680 -2.975377
v -1.992602 0.005115 -3.127900
v -1.963246 0.005147 -3.122983
v -1.934171 0.005113 -3.116446
v -1.908874 0.005144 -3.100676
v -1.884815 0.005117 -3.083155
v -1.867285 0.005144 -3.059084
v -1.853407 0.005145 -3.033019
v -1.845027 0.005148 -3.004733
v -1.840048 0.005115 -2.975367
v -1.844425 0.005138 -2.945879
v -1.852530 0.005130 -2.917346
v -1.866432 0.005128 -2.891061
v -1.884841 0.005118 -2.867613
v -1.907427 0.005103 -2.847892
v -1.933958 0.005105 -2.833826
v -1.962151 0.005058 -2.822205
v -1.992655 0.005122 -2.823200
v -2.021898 0.005154 -2.828160
v -2.050360 0.005141 -2.835901
v -2.076931 0.005127 -2.849138
v -2.100657 0.005111 -2.867327
v -2.117830 0.005147 -2.891736
v -2.129404 0.005186 -2.918672
v -2.143588 0.005093 -2.945305
v -2.143991 0.005134 -2.975397
v -2.139268 0.005163 -3.004552
v -2.130467 0.005168 -3.032437
v -2.119733 0.005110 -3.060272
v -2.100568 0.005112 -3.083371
v -2.075096 0.005179 -3.098852
v -2.050037 0.005155 -3.113954
v -2.022123 0.005137 -3.123647
v -2.103787 0.006475 -3.086593
v -2.022776 0.006518 -2.823791
v -1.849274 0.006508 -3.034744
v -2.134575 0.006532 -3.034145
v -1.881615 0.006480 -3.086372
v -1.961252 0.006419 -2.817659
v -2.148501 0.006497 -2.975408
v -1.932439 0.006475 -3.120653
v -1.904900 0.006465 -2.844110
v -2.133481 0.006551 -2.916995
v -1.992610 0.006478 -3.132447
v -1.862686 0.006491 -2.888564
v -2.023008 0.006500 -3.128067
v -2.103878 0.006474 -2.864123
v -1.840024 0.006502 -2.945012
v -2.077557 0.006544 -3.102536
v -2.052085 0.006504 -2.831762
v -1.840644 0.006512 -3.005616
v -2.123521 0.006472 -3.062808
v -1.863564 0.006508 -3.061584
v -1.992663 0.006484 -2.818683
v -2.143638 0.006527 -3.005430
v -1.906390 0.006508 -3.104413
v -1.932221 0.006467 -2.829626
v -2.148087 0.006455 -2.944420
v -1.962379 0.006511 -3.127384
v -1.881642 0.006480 -2.864417
v -2.121562 0.006510 -2.889259
v -1.848370 0.006493 -2.915630
v -2.051753 0.006519 -3.118086
v -2.079447 0.006490 -2.845392
v -1.835517 0.006478 -2.975377
v -2.108751 0.005178 -3.049253
v -2.080380 0.005249 -3.060277
v -2.051938 0.005235 -3.071862
v -2.020775 0.005221 -3.079520
v -1.988206 0.005193 -3.082716
v -1.955894 0.005203 -3.078238
v -1.924471 0.005168 -3.074589
v -1.897131 0.005180 -3.062904
v -1.871773 0.005139 -3.050642
v -2.116178 0.005180 -3.013112
v -2.086094 0.005256 -3.018202
v -2.055314 0.005260 -3.024932
v -2.021924 0.005260 -3.029610
v -1.987288 0.005233 -3.031146
v -1.952798 0.005223 -3.027089
v -1.919693 0.005201 -3.026693
v -1.890664 0.005200 -3.020042
v -1.864305 0.005158 -3.014227
v -2.120656 0.005138 -2.974646
v -2.090016 0.005202 -2.973090
v -2.057953 0.005210 -2.974304
v -2.023357 0.005215 -2.975590
v -1.987638 0.005184 -2.975284
v -1.951787 0.005157 -2.971847
v -1.917659 0.005153 -2.975057
v -1.887337 0.005151 -2.974164
v -1.860272 0.005121 -2.975626
v -2.120859 0.005101 -2.935188
v -2.090859 0.005167 -2.927032
v -2.059008 0.005191 -2.922668
v -2.024877 0.005210 -2.920537
v -1.989713 0.005188 -2.918468
v -1.953951 0.005156 -2.915921
v -1.920760 0.005170 -2.922736
v -1.890646 0.005167 -2.927821
v -1.864447 0.005147 -2.936684
v -2.108383 0.005180 -2.900455
v -2.080653 0.005223 -2.886543
v -2.050723 0.005242 -2.877102
v -2.018933 0.005255 -2.871714
v -1.986347 0.005222 -2.867882
v -1.952948 0.005164 -2.866009
v -1.922578 0.005183 -2.875428
v -1.894634 0.005165 -2.885403
v -1.870927 0.005147 -2.900259
vn -0.7662 0.6402 -0.0553
vn -0.7676 0.6093 0.1989
vn -0.7709 0.6058 0.1968
vn 0.1455 0.6545 -0.7419
vn 0.3051 0.5949 -0.7436
vn 0.1583 0.5683 -0.8075
vn 0.5580 0.6384 0.5302
vn 0.4600 0.5847 0.6683
vn 0.5908 0.5803 0.5605
vn -0.6672 0.6728 0.3196
vn -0.7104 0.5816 0.3964
vn -0.6726 0.6367 0.3771
vn 0.7161 0.6360 0.2875
vn 0.6836 0.5793 0.4439
vn 0.7546 0.5822 0.3028
vn -0.3267 0.6365 -0.6987
vn -0.1927 0.5806 -0.7911
vn -0.3454 0.5816 -0.7365
vn -0.4083 0.6380 0.6529
vn -0.5818 0.5916 0.5581
vn -0.4310 0.5807 0.6907
vn 0.7467 0.6456 0.1605
vn 0.8054 0.5926 -0.0084
vn 0.7817 0.6237 -0.0079
vn -0.3888 0.6615 -0.6413
vn -0.5246 0.5944 -0.6095
vn -0.5128 0.6217 -0.5921
vn -0.1633 0.6497 0.7424
vn -0.2896 0.5807 0.7609
vn -0.1765 0.5715 0.8014
vn 0.7429 0.6469 -0.1719
vn 0.7532 0.5811 -0.3084
vn 0.7132 0.6372 -0.2921
vn -0.7136 0.6542 -0.2507
vn -0.6946 0.5938 -0.4062
vn -0.7765 0.5683 -0.2722
vn 0.6479 0.6444 -0.4062
vn 0.5698 0.5924 -0.5696
vn 0.5526 0.6240 -0.5526
vn -0.0751 0.6448 0.7607
vn 0.1415 0.6047 0.7838
vn 0.1414 0.6107 0.7791
vn -0.7444 0.6441 -0.1763
vn -0.8131 0.5790 -0.0602
vn 0.4237 0.6525 -0.6283
vn 0.2975 0.6212 -0.7250
vn 0.3229 0.6489 0.6889
vn 0.4386 0.6331 0.6378
vn -0.7498 0.5557 0.3592
vn 0.0094 0.5922 -0.8057
vn 0.0087 0.6242 -0.7812
vn 0.6446 0.6395 0.4189
vn -0.1814 0.6381 -0.7483
vn -0.5631 0.6248 0.5409
vn 0.8000 0.5747 0.1723
vn -0.4282 0.5631 -0.7068
vn -0.2745 0.6377 0.7197
vn 0.7978 0.5738 -0.1851
vn -0.6746 0.6225 -0.3967
vn -0.0820 0.5754 0.8138
vn 0.6932 0.5756 -0.4338
vn -0.7955 0.5757 -0.1889
vn 0.4596 0.5698 -0.6813
vn 0.3486 0.5725 0.7421
vn -0.7477 0.6400 -0.1771
vn -0.7677 0.6384 -0.0558
vn 0.4258 0.6481 -0.6314
vn 0.2965 0.6243 -0.7227
vn 0.3238 0.6470 0.6903
vn 0.4381 0.6342 0.6371
vn -0.6761 0.6616 0.3243
vn 0.1462 0.6497 -0.7460
vn 0.0087 0.6268 -0.7792
vn 0.6457 0.6380 0.4196
vn -0.1818 0.6369 -0.7492
vn -0.6744 0.6343 0.3780
vn -0.5617 0.6272 0.5395
vn 0.7493 0.6423 0.1612
vn -0.3923 0.6533 -0.6475
vn -0.2751 0.6357 0.7212
vn 0.7463 0.6428 -0.1728
vn -0.5112 0.6246 -0.5904
vn -0.6726 0.6255 -0.3954
vn -0.1641 0.6447 0.7466
vn -0.0757 0.6421 0.7629
vn 0.7147 0.6352 -0.2928
vn 0.6503 0.6412 -0.4074
vn -0.7188 0.6478 -0.2523
vn -0.7659 0.6125 0.1958
vn 0.5585 0.6376 0.5306
vn 0.7169 0.6349 0.2879
vn -0.3275 0.6343 -0.7003
vn -0.4086 0.6369 0.6538
vn 0.7800 0.6258 -0.0079
vn 0.5513 0.6262 -0.5513
vn 0.1403 0.6185 0.7731
vn -0.8462 -0.4429 -0.2962
vn 0.7616 -0.4388 -0.4769
vn 0.6385 -0.4294 -0.6386
vn -0.0896 -0.4396 0.8937
vn 0.1617 -0.4254 0.8904
vn -0.8749 -0.4376 -0.2076
vn -0.8970 -0.4372 -0.0657
vn 0.5012 -0.4437 -0.7430
vn 0.3430 -0.4283 -0.8360
vn 0.3811 -0.4437 0.8111
vn 0.5102 -0.4350 0.7419
vn -0.8038 -0.4518 0.3870
vn 0.1722 -0.4448 -0.8789
vn 0.0101 -0.4299 -0.9028
vn 0.7543 -0.4369 0.4900
vn -0.2124 -0.4362 -0.8744
vn -0.7861 -0.4340 0.4400
vn -0.6511 -0.4302 0.6253
vn 0.8780 -0.4397 0.1890
vn -0.4630 -0.4464 -0.7657
vn -0.3207 -0.4352 0.8413
vn 0.8749 -0.4398 -0.2030
vn -0.5916 -0.4284 -0.6830
vn -0.7786 -0.4291 -0.4579
vn -0.1930 -0.4409 0.8765
vn 0.8333 -0.4348 -0.3413
vn -0.8791 -0.4208 0.2239
vn 0.6523 -0.4369 0.6194
vn 0.8357 -0.4349 0.3355
vn -0.3819 -0.4340 -0.8160
vn -0.4768 -0.4363 0.7631
vn 0.9032 -0.4291 -0.0092
vn -0.1883 -0.9565 -0.2226
vn -0.1000 -0.9590 0.2650
vn -0.0598 -0.9611 0.2698
vn 0.2627 -0.9589 -0.1074
vn -0.2518 -0.9569 -0.1449
vn -0.2590 -0.9617 -0.0896
vn 0.2052 -0.9570 -0.2050
vn 0.0516 -0.9557 0.2897
vn -0.2797 -0.9598 -0.0227
vn 0.1105 -0.9566 -0.2697
vn 0.1607 -0.9592 0.2327
vn -0.2911 -0.9535 0.0780
vn -0.2373 -0.9646 0.1146
vn 0.0038 -0.9572 -0.2893
vn 0.2041 -0.9598 0.1927
vn 0.2357 -0.9598 0.1527
vn -0.0678 -0.9595 -0.2735
vn -0.2091 -0.9573 0.1997
vn 0.2632 -0.9590 0.1053
vn 0.2712 -0.9607 0.0588
vn -0.1221 -0.9585 -0.2574
vn -0.1391 -0.9629 -0.2312
vn -0.1483 -0.9595 0.2393
vn 0.2906 -0.9568 -0.0033
vn 0.2702 -0.9607 -0.0634
vn -0.0302 -0.9607 0.2760
vn 0.2366 -0.9604 -0.1472
vn -0.2726 -0.9599 -0.0657
vn 0.1525 -0.9621 -0.2259
vn 0.1166 -0.9623 0.2458
vn 0.0521 -0.9625 -0.2662
vn -0.2500 -0.9585 0.1370
vn -0.0011 -1.0000 -0.0015
vn -0.0015 -1.0000 -0.0014
vn -0.0009 -1.0000 0.0005
vn -0.0002 -1.0000 0.0011
vn 0.0026 -1.0000 -0.0002
vn 0.0004 -1.0000 -0.0014
vn -0.0001 -1.0000 0.0014
vn -0.0006 -1.0000 0.0013
vn 0.0023 -1.0000 -0.0008
vn -0.0012 -1.0000 0.0004
vn -0.0020 -1.0000 -0.0001
vn 0.0010 -1.0000 -0.0012
vn -0.0001 -1.0000 0.0015
vn -0.0024 -1.0000 -0.0013
vn 0.0006 -1.0000 -0.0019
vn 0.0009 -1.0000 0.0010
vn -0.0027 -1.0000 0.0014
vn -0.0030 -1.0000 0.0028
vn 0.0002 -1.0000 -0.0019
vn 0.0013 -1.0000 0.0007
vn 0.0015 -1.0000 0.0007
vn 0.0019 -1.0000 0.0007
vn 0.0022 -1.0000 0.0008
vn -0.0003 -1.0000 -0.0013
vn 0.0022 -1.0000 -0.0011
vn -0.0017 -1.0000 0.0012
vn 0.0028 -1.0000 -0.0011
vn -0.0023 -1.0000 -0.0012
vn 0.0012 -1.0000 -0.0013
vn 0.0013 -1.0000 0.0008
vn 0.0003 -1.0000 -0.0016
vn -0.0020 -1.0000 -0.0003
vn 0.0027 -1.0000 0.0018
vn 0.0015 -1.0000 -0.0003
vn 0.0012 -1.0000 -0.0010
vn 0.0003 -1.0000 0.0013
vn 0.0012 -1.0000 -0.0005
vn 0.0017 -1.0000 0.0014
vn 0.0013 -1.0000 -0.0003
vn 0.0012 -1.0000 -0.0009
vn 0.0012 -1.0000 0.0004
vn 0.0015 -1.0000 -0.0009
vn -0.0000 -1.0000 0.0013
vn -0.0000 -1.0000 -0.0002
vn 0.0002 -1.0000 -0.0007
vn 0.0006 -1.0000 0.0004
vn 0.0008 -1.0000 -0.0008
vn -0.0004 -1.0000 0.0014
vn -0.0004 -1.0000 -0.0001
vn -0.0004 -1.0000 -0.0005
vn -0.0001 -1.0000 0.0004
vn -0.0002 -1.0000 -0.0008
vn -0.0002 -1.0000 0.0012
vn -0.0005 -1.0000 -0.0001
vn -0.0007 -1.0000 -0.0005
vn -0.0008 -1.0000 0.0004
vn -0.0012 -1.0000 -0.0010
vn -0.0006 -1.0000 0.0010
vn -0.0005 -1.0000 -0.0002
vn -0.0003 -1.0000 0.0002
vn -0.0005 -1.0000 -0.0012
vn -0.0004 -1.0000 0.0009
vn -0.0001 -1.0000 -0.0004
vn -0.0003 -1.0000 -0.0001
vn 0.0001 -1.0000 0.0002
vn -0.0004 -1.0000 -0.0009
vn -0.0011 -1.0000 0.0011
vn -0.0008 -1.0000 -0.0001
vn -0.0004 -1.0000 0.0001
vn -0.0006 -1.0000 -0.0003
vn -0.0011 -1.0000 -0.0010
vn -0.0006 -1.0000 0.0005
vn -0.0009 -1.0000 -0.0001
vn -0.0007 -1.0000 0.0001
vn -0.0006 -1.0000 -0.0002
vn -0.0013 -1.0000 -0.0007
vn 0.6150 0.7724 -0.1587
vn -0.0077 0.7522 0.6589
vn -0.1329 0.7228 0.6781
vn -0.4897 0.7379 -0.4644
vn 0.4761 0.7515 -0.4566
vn 0.5876 0.7400 -0.3272
vn -0.6238 0.7404 -0.2502
vn 0.2859 0.7401 0.6087
vn 0.3568 0.7384 -0.5722
vn -0.6581 0.7529 0.0069
vn 0.5670 0.7540 0.3316
vn 0.4279 0.7549 0.4970
vn 0.0693 0.7319 -0.6779
vn 0.1478 0.7275 -0.6700
vn -0.5773 0.7324 0.3610
vn -0.6231 0.7394 0.2551
vn 0.6619 0.7329 0.1576
vn 0.6517 0.7235 0.2276
vn -0.4656 0.7526 0.4656
vn -0.1143 0.7662 -0.6323
vn 0.6748 0.7363 0.0506
vn -0.2486 0.7554 0.6062
vn -0.3795 0.7430 -0.5513
vn 0.6368 0.7075 -0.3064
vn -0.5670 0.7369 -0.3681
vn 0.1599 0.7383 0.6553
vn -0.6668 0.7313 -0.1437
vn 0.3605 0.7170 0.5966
vn 0.2395 0.7389 -0.6298
vn -0.6655 0.7302 0.1548
vn -0.3853 0.7248 0.5712
vn -0.2921 0.7277 -0.6205
vn 0.5176 0.0265 0.8552
vn 0.4773 0.6819 0.5542
vn 0.3612 0.7156 0.5979
vn 0.2150 0.0265 -0.9762
vn 0.2555 0.6953 -0.6718
vn 0.3557 0.0267 -0.9342
vn -0.9738 0.0266 0.2259
vn -0.6656 0.6948 0.2725
vn -0.6926 0.7031 0.1611
vn 0.9435 0.0265 0.3304
vn 0.6307 0.6827 0.3690
vn 0.8623 0.0271 0.5056
vn -0.8473 0.0266 0.5304
vn -0.5159 0.6839 0.5159
vn -0.6046 0.7011 0.3781
vn 0.1001 0.0268 -0.9946
vn -0.1316 0.6735 -0.7274
vn 0.0725 0.7016 -0.7088
vn 0.9726 0.0264 0.2310
vn 0.7143 0.6977 0.0535
vn 0.6943 0.7004 0.1653
vn -0.5590 0.0267 0.8287
vn -0.2777 0.6815 0.6771
vn -0.3948 0.7084 0.5851
vn -0.4251 0.0270 -0.9047
vn -0.4093 0.6921 -0.5946
vn -0.3017 0.7059 -0.6409
vn 0.9012 0.0262 -0.4327
vn 0.7203 0.6683 -0.1856
vn 0.9682 0.0272 -0.2487
vn -0.1923 0.0267 0.9810
vn -0.0085 0.6842 0.7293
vn -0.1354 0.7101 0.6909
vn -0.8383 0.0268 -0.5445
vn -0.5208 0.6964 -0.4939
vn -0.7251 0.0269 -0.6882
vn 0.2363 0.0268 0.9713
vn -0.0114 0.0271 0.9996
vn 0.8727 0.0266 -0.4875
vn 0.5260 0.6847 -0.5045
vn 0.6289 0.6941 -0.3503
vn -0.9772 0.0268 -0.2104
vn -0.6681 0.6941 -0.2680
vn -0.9277 0.0269 -0.3723
vn 0.3060 0.6940 0.6517
vn 0.4243 0.0266 0.9052
vn 0.3801 0.6958 -0.6094
vn 0.5294 0.0268 -0.8479
vn -0.7299 0.6835 0.0076
vn -0.9996 0.0269 0.0103
vn 0.6532 0.0271 0.7567
vn 0.1527 0.7055 -0.6920
vn -0.9251 0.0267 0.3788
vn 0.6656 0.7092 0.2324
vn -0.7068 0.0271 0.7068
vn -0.1782 0.0276 -0.9836
vn 0.9969 0.0269 0.0735
vn -0.3794 0.0271 0.9248
vn -0.5666 0.0271 -0.8235
vn 0.6206 0.7250 -0.2987
vn -0.6013 0.6971 -0.3904
vn 0.1702 0.6959 0.6977
vn 0.7212 0.0271 -0.6922
vn -0.6959 0.7023 -0.1500
vn 0.7212 0.0270 -0.6922
vn 0.9682 0.0273 -0.2487
vn 0.9969 0.0267 0.0735
vn 0.9435 0.0264 0.3304
vn 0.2150 0.0266 -0.9762
vn 0.5294 0.0269 -0.8480
vn -0.9277 0.0267 -0.3723
vn -0.7251 0.0268 -0.6882
vn -0.4251 0.0272 -0.9047
vn 0.9726 0.0266 0.2310
vn -0.9738 0.0268 0.2259
vn 0.5176 0.0263 0.8552
vn 0.0005 1.0000 -0.0009
vn -0.0011 1.0000 0.0014
vn 0.0002 1.0000 0.0002
vn 0.0002 1.0000 -0.0003
vn -0.0022 1.0000 -0.0007
vn -0.0008 1.0000 -0.0007
vn -0.0008 1.0000 0.0010
vn 0.0001 1.0000 -0.0002
vn 0.0001 1.0000 0.0006
vn -0.0012 1.0000 -0.0018
vn 0.0010 1.0000 -0.0007
vn -0.0007 1.0000 -0.0002
vn 0.0006 1.0000 0.0013
vn 0.0015 1.0000 0.0012
vn -0.0001 1.0000 0.0012
vn -0.0002 1.0000 0.0007
vn 0.0005 1.0000 -0.0007
vn 0.0001 1.0000 -0.0006
vn 0.0005 1.0000 0.0011
vn -0.0003 1.0000 0.0013
vn -0.0003 1.0000 -0.0006
vn -0.0002 1.0000 -0.0008
vn 0.0001 1.0000 -0.0007
vn -0.0002 1.0000 0.0016
vn 0.0005 1.0000 0.0003
vn 0.0004 1.0000 -0.0010
vn -0.0012 1.0000 0.0011
vn 0.0001 1.0000 0.0011
vn -0.0002 1.0000 -0.0007
vn 0.0011 1.0000 -0.0019
vn 0.0006 1.0000 0.0007
vn -0.0028 1.0000 -0.0018
vn -0.0015 1.0000 0.0003
vn -0.0012 1.0000 0.0010
vn -0.0003 1.0000 -0.0013
vn -0.0012 1.0000 0.0005
vn -0.0017 1.0000 -0.0014
vn -0.0013 1.0000 0.0003
vn -0.0013 1.0000 0.0009
vn -0.0013 1.0000 -0.0004
vn -0.0015 1.0000 0.0009
vn -0.0000 1.0000 -0.0013
vn -0.0000 1.0000 0.0002
vn -0.0006 1.0000 -0.0004
vn -0.0008 1.0000 0.0009
vn 0.0004 1.0000 -0.0014
vn 0.0004 1.0000 0.0001
vn 0.0004 1.0000 0.0005
vn 0.0001 1.0000 -0.0004
vn 0.0002 1.0000 0.0008
vn 0.0002 1.0000 -0.0012
vn 0.0005 1.0000 0.0001
vn 0.0007 1.0000 0.0005
vn 0.0008 1.0000 -0.0004
vn 0.0013 1.0000 0.0010
vn 0.0006 1.0000 -0.0010
vn 0.0003 1.0000 -0.0002
vn 0.0005 1.0000 0.0012
vn 0.0001 1.0000 0.0004
vn 0.0003 1.0000 0.0001
vn -0.0001 1.0000 -0.0002
vn 0.0004 1.0000 0.0009
vn 0.0012 1.0000 -0.0011
vn 0.0009 1.0000 0.0001
vn 0.0004 1.0000 -0.0001
vn 0.0006 1.0000 0.0003
vn 0.0011 1.0000 0.0010
vn 0.0006 1.0000 -0.0005
vn 0.0007 1.0000 -0.0001
vn 0.0006 1.0000 0.0002
vn 0.0013 1.0000 0.0007
vt 0.676861 0.455302
vt 0.631521 0.465481
vt 0.631430 0.459729
vt 1.052261 0.345425
vt 1.085944 0.330086
vt 1.054063 0.349672
vt 0.208865 0.377326
vt 0.233886 0.395802
vt 0.207456 0.380562
vt 0.585843 0.457880
vt 0.541235 0.464518
vt 0.541219 0.458739
vt 0.162719 0.345572
vt 0.183341 0.364694
vt 0.161195 0.348307
vt 0.941796 0.397284
vt 0.982833 0.386980
vt 0.943111 0.402572
vt 0.453078 0.452876
vt 0.496468 0.463256
vt 0.452545 0.458426
vt 0.142468 0.328674
vt 0.121818 0.313875
vt 0.123453 0.311553
vt 0.900379 0.410603
vt 0.858786 0.430737
vt 0.857609 0.425175
vt 0.370420 0.438092
vt 0.410081 0.451738
vt 0.369631 0.443216
vt 0.106313 0.292927
vt 0.088224 0.276059
vt 0.090017 0.274003
vt 0.767825 0.442496
vt 0.814169 0.441540
vt 0.768435 0.448436
vt 1.166478 0.257403
vt 1.142892 0.285577
vt 1.140757 0.282139
vt 0.332054 0.429400
vt 0.294983 0.423998
vt 0.296030 0.419753
vt 0.722464 0.449420
vt 0.677360 0.461185
vt 1.112948 0.304195
vt 1.084062 0.326194
vt 0.264253 0.405940
vt 0.235198 0.392264
vt 0.585775 0.463751
vt 1.020266 0.369660
vt 1.018586 0.365105
vt 0.184806 0.361717
vt 0.981357 0.381994
vt 0.496731 0.457595
vt 0.140902 0.331221
vt 0.901696 0.416103
vt 0.410782 0.446376
vt 0.104573 0.295097
vt 0.813403 0.435783
vt 0.331239 0.434173
vt 0.074700 0.254020
vt 0.072871 0.256046
vt 0.723072 0.455363
vt 1.114983 0.307871
vt 0.262984 0.409814
vt 0.394271 0.507015
vt 0.420728 0.541629
vt 0.391893 0.510317
vt 0.394825 0.911784
vt 0.357136 0.928599
vt 0.392833 0.908254
vt 0.072871 0.708028
vt 0.080139 0.660430
vt 0.076550 0.707888
vt 0.359273 0.482173
vt 0.319284 0.478435
vt 0.319671 0.474151
vt 0.452022 0.844158
vt 0.422334 0.876821
vt 0.449036 0.841722
vt 0.077926 0.755924
vt 0.093796 0.799657
vt 0.090442 0.801433
vt 0.466322 0.799132
vt 0.469837 0.800469
vt 0.241087 0.468372
vt 0.280914 0.471178
vt 0.241636 0.472595
vt 0.109667 0.843307
vt 0.137989 0.876734
vt 0.135316 0.879748
vt 0.479560 0.754376
vt 0.478284 0.707908
vt 0.481934 0.708229
vt 0.202353 0.482939
vt 0.169580 0.509761
vt 0.167429 0.506291
vt 0.165782 0.911159
vt 0.203329 0.927675
vt 0.202094 0.931770
vt 0.470139 0.614253
vt 0.478377 0.661105
vt 0.466977 0.616258
vt 0.109780 0.570496
vt 0.139657 0.539594
vt 0.112443 0.573582
vt 0.278367 0.951415
vt 0.240629 0.941253
vt 0.279205 0.947167
vt 0.423440 0.538782
vt 0.445227 0.577219
vt 0.320570 0.947794
vt 0.358518 0.932688
vt 0.086145 0.611550
vt 0.076381 0.659907
vt 0.358257 0.486027
vt 0.424976 0.879964
vt 0.081503 0.754863
vt 0.281399 0.466941
vt 0.112661 0.840837
vt 0.475969 0.753896
vt 0.203920 0.486880
vt 0.167723 0.907588
vt 0.481934 0.660766
vt 0.137204 0.536375
vt 0.239838 0.945408
vt 0.448050 0.574459
vt 0.280823 0.947333
vt 0.319852 0.943657
vt 0.089380 0.613320
vt 0.441116 0.580836
vt 0.280386 0.941215
vt 0.318862 0.938010
vt 0.116388 0.577413
vt 0.093756 0.615627
vt 0.417063 0.545727
vt 0.388882 0.515058
vt 0.355194 0.922956
vt 0.390126 0.903447
vt 0.085235 0.661399
vt 0.081551 0.707772
vt 0.318459 0.484552
vt 0.418670 0.872462
vt 0.444952 0.838464
vt 0.098422 0.797283
vt 0.461575 0.797094
vt 0.280575 0.477064
vt 0.242455 0.478314
vt 0.141622 0.872513
vt 0.473109 0.707703
vt 0.172431 0.514640
vt 0.205162 0.922059
vt 0.473581 0.661916
vt 0.462586 0.618721
vt 0.143144 0.544017
vt 0.241691 0.935495
vt 0.279915 0.941115
vt 0.356657 0.491210
vt 0.086417 0.753546
vt 0.116795 0.837490
vt 0.471033 0.753000
vt 0.205929 0.492339
vt 0.170399 0.902740
vt 0.470754 0.662637
vt 0.174059 0.517602
vt 0.145268 0.546632
vt 0.242307 0.932085
vt 0.459890 0.620014
vt 0.438551 0.582869
vt 0.318264 0.934674
vt 0.096470 0.617013
vt 0.387227 0.518053
vt 0.388524 0.900593
vt 0.084550 0.707741
vt 0.355561 0.494213
vt 0.317808 0.488262
vt 0.442427 0.836519
vt 0.089383 0.752834
vt 0.101208 0.795893
vt 0.458763 0.795745
vt 0.242991 0.481723
vt 0.119277 0.835518
vt 0.143776 0.869929
vt 0.468127 0.752326
vt 0.469971 0.707718
vt 0.207052 0.495663
vt 0.172007 0.899873
vt 0.206337 0.918718
vt 0.118938 0.579475
vt 0.280050 0.937376
vt 0.414944 0.548247
vt 0.353996 0.919540
vt 0.088326 0.662148
vt 0.416441 0.869808
vt 0.280579 0.480570
vt 0.454622 0.793717
vt 0.463816 0.751291
vt 0.243811 0.486828
vt 0.208691 0.500581
vt 0.174431 0.895568
vt 0.466502 0.663764
vt 0.176455 0.522004
vt 0.148396 0.550440
vt 0.243209 0.926997
vt 0.455827 0.621930
vt 0.434794 0.585786
vt 0.280253 0.937425
vt 0.317367 0.929623
vt 0.100588 0.619088
vt 0.384819 0.522491
vt 0.386099 0.896279
vt 0.089023 0.707721
vt 0.353851 0.498820
vt 0.316837 0.493559
vt 0.438667 0.833615
vt 0.093779 0.751805
vt 0.105329 0.793856
vt 0.122963 0.832599
vt 0.146928 0.866135
vt 0.465437 0.707781
vt 0.208077 0.913833
vt 0.122727 0.582436
vt 0.280131 0.931917
vt 0.411840 0.551978
vt 0.352246 0.914566
vt 0.092842 0.663278
vt 0.413201 0.865954
vt 0.280631 0.485780
vt 0.436967 0.626156
vt 0.404803 0.587357
vt 0.368102 0.550409
vt 0.327781 0.517827
vt 0.283273 0.504509
vt 0.428879 0.669902
vt 0.389293 0.628462
vt 0.345392 0.586670
vt 0.298562 0.547821
vt 0.249762 0.527000
vt 0.421368 0.714449
vt 0.375019 0.671828
vt 0.324480 0.627025
vt 0.271958 0.583259
vt 0.219198 0.555793
vt 0.407802 0.759161
vt 0.356788 0.716742
vt 0.301842 0.670569
vt 0.246026 0.623363
vt 0.191425 0.590304
vt 0.388601 0.801933
vt 0.334403 0.760629
vt 0.276751 0.714219
vt 0.219415 0.664848
vt 0.164695 0.627189
vt 0.361535 0.838080
vt 0.306274 0.799738
vt 0.248310 0.755444
vt 0.191915 0.706660
vt 0.139494 0.666650
vt 0.335948 0.873808
vt 0.227949 0.800058
vt 0.282885 0.840171
vt 0.175921 0.753088
vt 0.128132 0.711788
vt 0.304823 0.897866
vt 0.255789 0.870438
vt 0.160267 0.794351
vt 0.205955 0.836613
vt 0.119045 0.754446
vt 0.274429 0.919181
vt 0.231357 0.898042
vt 0.151272 0.833891
vt 0.188676 0.871054
vt 0.117990 0.795890
vt 0.631055 0.454210
vt 1.017027 0.360724
vt 1.050580 0.341424
vt 0.210121 0.374206
vt 0.497069 0.452192
vt 0.541585 0.453314
vt 0.164131 0.342965
vt 0.940363 0.392387
vt 0.453416 0.447592
vt 0.124993 0.309324
vt 0.812373 0.430331
vt 0.856840 0.419758
vt 0.333214 0.424990
vt 0.371221 0.433314
vt 0.076591 0.252362
vt 0.091715 0.272084
vt 0.722074 0.443832
vt 0.766967 0.436999
vt 1.138729 0.278854
vt 0.297123 0.415640
vt 0.676751 0.449695
vt 1.082259 0.322475
vt 0.236402 0.388857
vt 0.585614 0.452465
vt 0.186152 0.358875
vt 0.979791 0.377346
vt 0.143976 0.326305
vt 0.899380 0.405429
vt 0.411289 0.441299
vt 0.107888 0.290828
vt 1.164241 0.254362
vt 1.111063 0.300714
vt 0.265284 0.402169
vt 0.897990 0.399396
vt 0.855132 0.411250
vt 0.897483 0.397180
vt 0.372042 0.427666
vt 0.412266 0.433173
vt 0.412009 0.435349
vt 0.109785 0.288432
vt 0.094418 0.268981
vt 0.110478 0.287555
vt 0.766272 0.430470
vt 0.811181 0.421553
vt 0.811497 0.423899
vt 1.161756 0.250718
vt 1.135501 0.273620
vt 1.160846 0.249381
vt 0.334090 0.419729
vt 0.298643 0.409120
vt 0.334400 0.417801
vt 0.721419 0.437254
vt 0.676034 0.440795
vt 0.721178 0.434845
vt 1.108858 0.296675
vt 1.079440 0.316527
vt 1.108053 0.295195
vt 0.266601 0.397892
vt 0.238310 0.383478
vt 0.267075 0.396325
vt 0.585648 0.446063
vt 0.630851 0.445340
vt 0.630907 0.447704
vt 1.048653 0.336756
vt 1.014554 0.353768
vt 1.047953 0.335043
vt 0.187734 0.355570
vt 0.212174 0.369294
vt 0.211629 0.370609
vt 0.978187 0.371828
vt 1.015208 0.355627
vt 0.541603 0.446896
vt 0.497456 0.443567
vt 0.541608 0.444549
vt 0.145683 0.323495
vt 0.166388 0.338810
vt 0.165787 0.339923
vt 0.938396 0.384378
vt 0.938918 0.386522
vt 0.454155 0.439189
vt 0.453959 0.441439
vt 0.127454 0.305780
vt 0.126798 0.306727
vt 0.855587 0.413523
vt 0.372334 0.425596
vt 0.093696 0.269811
vt 0.079359 0.249382
vt 0.766019 0.428075
vt 1.136362 0.275017
vt 0.298246 0.410859
vt 0.676228 0.443179
vt 1.080189 0.318116
vt 0.237805 0.384917
vt 0.585661 0.443706
vt 0.188306 0.354360
vt 0.977609 0.369810
vt 0.497354 0.445872
vt 0.146304 0.322465
vt 0.125733 0.308262
vt 0.144674 0.325159
vt 0.497187 0.449608
vt 0.979132 0.375094
vt 0.186800 0.357526
vt 0.541594 0.450692
vt 0.585628 0.449863
vt 0.236979 0.387248
vt 1.081409 0.320691
vt 0.630995 0.451543
vt 0.676539 0.447036
vt 0.297588 0.413681
vt 1.137759 0.277283
vt 0.766683 0.434339
vt 0.077417 0.251474
vt 0.092525 0.271155
vt 0.333576 0.422844
vt 0.371560 0.431011
vt 0.812014 0.427700
vt 0.856326 0.417208
vt 0.453640 0.445080
vt 0.939770 0.389992
vt 0.164809 0.341723
vt 1.016278 0.358639
vt 0.210739 0.372738
vt 1.049791 0.339523
vt 0.265825 0.400426
vt 1.110162 0.299068
vt 0.721807 0.441147
vt 1.163228 0.252878
vt 0.108662 0.289851
vt 0.411586 0.438869
vt 0.898813 0.402972
vt 0.859047 0.667738
vt 0.848246 0.626400
vt 0.853429 0.624564
vt 0.583395 0.886250
vt 0.618830 0.898454
vt 0.617244 0.904645
vt 0.554219 0.515551
vt 0.586643 0.495124
vt 0.557612 0.520511
vt 0.857048 0.710928
vt 0.849648 0.753021
vt 0.851761 0.710288
vt 0.528219 0.828891
vt 0.556754 0.855776
vt 0.553336 0.860708
vt 0.619318 0.475582
vt 0.655819 0.473294
vt 0.620845 0.481688
vt 0.816276 0.829247
vt 0.835822 0.792874
vt 0.840638 0.795951
vt 0.692093 0.467019
vt 0.727189 0.479420
vt 0.691534 0.473370
vt 0.505707 0.794127
vt 0.492145 0.753070
vt 0.510490 0.791103
vt 0.790732 0.860053
vt 0.758865 0.880744
vt 0.787346 0.855140
vt 0.762107 0.492542
vt 0.790725 0.519649
vt 0.759541 0.498161
vt 0.483164 0.710098
vt 0.488592 0.666359
vt 0.488592 0.709482
vt 0.690497 0.906640
vt 0.726480 0.900474
vt 0.728070 0.906725
vt 0.818360 0.548116
vt 0.836068 0.586083
vt 0.814182 0.552142
vt 0.506747 0.582258
vt 0.496871 0.624437
vt 0.491687 0.622543
vt 0.840891 0.583058
vt 0.654114 0.910174
vt 0.654643 0.903824
vt 0.531712 0.549988
vt 0.527555 0.545898
vt 0.853702 0.668336
vt 0.585951 0.880586
vt 0.584108 0.489415
vt 0.854872 0.754922
vt 0.532357 0.824871
vt 0.655325 0.466941
vt 0.812158 0.825216
vt 0.728800 0.473248
vt 0.486822 0.754972
vt 0.761411 0.886412
vt 0.794211 0.514664
vt 0.483164 0.665702
vt 0.689983 0.900392
vt 0.511500 0.585306
vt 0.078617 0.250181
vt 0.817825 0.786353
vt 0.783411 0.820086
vt 0.744842 0.851641
vt 0.702792 0.878440
vt 0.658608 0.885973
vt 0.813532 0.742941
vt 0.771807 0.778492
vt 0.725823 0.813812
vt 0.677082 0.845862
vt 0.628032 0.860148
vt 0.809799 0.699060
vt 0.761562 0.734912
vt 0.708955 0.772315
vt 0.654373 0.808385
vt 0.600988 0.828523
vt 0.800329 0.654370
vt 0.747644 0.689400
vt 0.690730 0.727555
vt 0.632760 0.766514
vt 0.577219 0.791813
vt 0.785293 0.610897
vt 0.729663 0.644422
vt 0.670167 0.682441
vt 0.610628 0.723289
vt 0.554664 0.753045
vt 0.762202 0.572913
vt 0.705789 0.603389
vt 0.646184 0.639265
vt 0.587646 0.679628
vt 0.533741 0.711928
vt 0.740501 0.535497
vt 0.630279 0.593804
vt 0.686611 0.561653
vt 0.576126 0.632931
vt 0.526601 0.667060
vt 0.712525 0.508669
vt 0.663058 0.529294
vt 0.564499 0.591303
vt 0.612147 0.555932
vt 0.521430 0.624896
vt 0.685056 0.484742
vt 0.641911 0.499761
vt 0.559128 0.552101
vt 0.598377 0.520610
vt 0.523875 0.584824
vt 1.168734 0.260758
vt 0.281265 0.951695
s 1
f 25/1/1 56/2/2 24/3/3
f 2/4/4 35/5/5 34/6/6
f 13/7/7 46/8/8 45/9/9
f 23/10/10 54/11/11 22/12/12
f 11/13/13 44/14/14 43/15/15
f 31/16/16 64/17/17 63/18/18
f 20/19/19 53/20/20 52/21/21
f 10/22/22 41/23/23 9/24/24
f 30/25/25 61/26/26 29/27/27
f 18/28/28 51/29/29 50/30/30
f 8/31/31 39/32/32 7/33/33
f 27/34/34 60/35/35 59/36/36
f 6/37/37 37/38/38 5/39/39
f 17/40/40 48/41/41 16/42/42
f 26/43/43 57/44/44 25/1/1
f 4/45/45 35/5/5 3/46/46
f 15/47/47 46/8/8 14/48/48
f 23/10/10 56/2/2 55/49/49
f 2/4/4 33/50/50 1/51/51
f 12/52/52 45/9/9 44/14/14
f 32/53/53 33/50/50 64/17/17
f 22/12/12 53/20/20 21/54/54
f 10/22/22 43/15/15 42/55/55
f 30/25/25 63/18/18 62/56/56
f 19/57/57 52/21/21 51/29/29
f 8/31/31 41/23/23 40/58/58
f 29/27/27 60/35/35 28/59/59
f 18/28/28 49/60/60 17/40/40
f 6/61/37 39/32/32 38/62/61
f 27/34/34 58/63/62 26/43/43
f 4/45/45 37/38/38 36/64/63
f 15/47/47 48/41/41 47/65/64
f 57/66/44 90/67/65 89/68/66
f 35/69/5 68/70/67 67/71/68
f 46/72/8 79/73/69 78/74/70
f 56/75/2 87/76/71 55/77/49
f 33/78/50 66/79/72 65/80/73
f 45/81/9 76/82/74 44/83/14
f 33/78/50 96/84/75 64/85/17
f 53/86/20 86/87/76 85/88/77
f 43/89/15 74/90/78 42/91/55
f 63/92/18 94/93/79 62/94/56
f 52/95/21 83/96/80 51/97/29
f 41/98/23 72/99/81 40/100/58
f 60/101/35 93/102/82 92/103/83
f 49/104/60 82/105/84 81/106/85
f 38/107/61 71/108/86 70/109/87
f 58/110/62 91/111/88 90/67/65
f 37/112/38 68/70/67 36/113/63
f 48/114/41 79/73/69 47/115/64
f 56/75/2 89/68/66 88/116/89
f 35/69/5 66/79/72 34/117/6
f 46/72/8 77/118/90 45/81/9
f 54/119/11 87/76/71 86/87/76
f 44/83/14 75/120/91 43/89/15
f 64/85/17 95/121/92 63/92/18
f 53/86/20 84/122/93 52/95/21
f 41/98/23 74/90/78 73/123/94
f 61/124/26 94/93/79 93/102/82
f 51/97/29 82/105/84 50/125/30
f 39/126/32 72/99/81 71/108/86
f 60/101/35 91/111/88 59/127/36
f 37/112/38 70/128/87 69/129/95
f 48/114/41 81/106/85 80/130/96
f 92/103/83 123/131/97 91/111/88
f 69/129/95 102/132/98 101/133/99
f 80/130/96 113/134/100 112/135/101
f 89/68/66 122/136/102 121/137/103
f 67/71/68 100/138/104 99/139/105
f 78/74/70 111/140/106 110/141/107
f 88/116/89 119/142/108 87/76/71
f 65/80/73 98/143/109 97/144/110
f 77/118/90 108/145/111 76/82/74
f 65/80/73 128/146/112 96/84/75
f 85/88/77 118/147/113 117/148/114
f 75/120/91 106/149/115 74/90/78
f 95/121/92 126/150/116 94/93/79
f 84/122/93 115/151/117 83/96/80
f 73/123/94 104/152/118 72/99/81
f 92/103/83 125/153/119 124/154/120
f 81/106/85 114/155/121 113/134/100
f 70/109/87 103/156/122 102/157/98
f 90/67/65 123/131/97 122/136/102
f 69/129/95 100/138/104 68/70/67
f 80/130/96 111/140/106 79/73/69
f 88/116/89 121/137/103 120/158/123
f 67/71/68 98/143/109 66/79/72
f 78/74/70 109/159/124 77/118/90
f 86/87/76 119/142/108 118/147/113
f 76/82/74 107/160/125 75/120/91
f 96/84/75 127/161/126 95/121/92
f 85/88/77 116/162/127 84/122/93
f 73/123/94 106/149/115 105/163/128
f 93/102/82 126/150/116 125/153/119
f 83/96/80 114/155/121 82/105/84
f 71/108/86 104/152/118 103/156/122
f 126/150/116 157/164/129 125/153/119
f 114/155/121 147/165/130 146/166/131
f 104/152/118 135/167/132 103/156/122
f 123/131/97 156/168/133 155/169/134
f 102/132/98 133/170/135 101/133/99
f 113/134/100 144/171/136 112/135/101
f 122/136/102 153/172/137 121/137/103
f 100/138/104 131/173/138 99/139/105
f 111/140/106 142/174/139 110/141/107
f 119/142/108 152/175/140 151/176/141
f 98/143/109 129/177/142 97/144/110
f 108/145/111 141/178/143 140/179/144
f 128/146/112 129/177/142 160/180/145
f 118/147/113 149/181/146 117/148/114
f 106/149/115 139/182/147 138/183/148
f 126/150/116 159/184/149 158/185/150
f 115/151/117 148/186/151 147/165/130
f 104/152/118 137/187/152 136/188/153
f 125/153/119 156/168/133 124/154/120
f 114/155/121 145/189/154 113/134/100
f 103/156/122 134/190/155 102/157/98
f 123/131/97 154/191/156 122/136/102
f 100/138/104 133/170/135 132/192/157
f 111/140/106 144/171/136 143/193/158
f 121/137/103 152/175/140 120/158/123
f 98/143/109 131/173/138 130/194/159
f 109/159/124 142/174/139 141/178/143
f 119/142/108 150/195/160 118/147/113
f 107/160/125 140/179/144 139/182/147
f 127/161/126 160/180/145 159/184/149
f 116/162/127 149/181/146 148/186/151
f 106/149/115 137/187/152 105/163/128
f 159/184/149 192/196/161 191/197/162
f 148/186/151 181/198/163 180/199/164
f 138/183/148 169/200/165 137/187/152
f 158/185/150 189/201/166 157/164/129
f 146/166/131 179/202/167 178/203/168
f 136/188/153 167/204/169 135/167/132
f 155/169/134 188/205/170 187/206/171
f 134/207/155 165/208/172 133/170/135
f 145/189/154 176/209/173 144/171/136
f 154/191/156 185/210/174 153/172/137
f 132/192/157 163/211/175 131/173/138
f 143/193/158 174/212/176 142/174/139
f 151/176/141 184/213/177 183/214/178
f 130/194/159 161/215/179 129/177/142
f 140/179/144 173/216/180 172/217/181
f 160/180/145 161/215/179 192/196/161
f 150/195/160 181/198/163 149/181/146
f 138/183/148 171/218/182 170/219/183
f 158/185/150 191/197/162 190/220/184
f 147/165/130 180/199/164 179/202/167
f 136/188/153 169/200/165 168/221/185
f 157/164/129 188/205/170 156/168/133
f 146/166/131 177/222/186 145/189/154
f 135/167/132 166/223/187 134/190/155
f 155/169/134 186/224/188 154/191/156
f 132/192/157 165/208/172 164/225/189
f 143/193/158 176/209/173 175/226/190
f 153/172/137 184/213/177 152/175/140
f 130/194/159 163/211/175 162/227/191
f 141/178/143 174/212/176 173/216/180
f 151/176/141 182/228/192 150/195/160
f 139/182/147 172/217/181 171/218/182
f 193/229/193 188/205/170 189/201/166
f 202/230/194 187/206/171 193/229/193
f 211/231/195 186/224/188 202/230/194
f 211/231/195 184/213/177 185/210/174
f 220/232/196 183/214/178 184/213/177
f 229/233/197 182/228/192 183/214/178
f 194/234/198 189/201/166 190/220/184
f 203/235/199 193/229/193 194/234/198
f 212/236/200 202/230/194 203/235/199
f 212/236/200 220/232/196 211/231/195
f 221/237/201 229/233/197 220/232/196
f 230/238/202 181/198/163 229/233/197
f 195/239/203 190/220/184 191/197/162
f 204/240/204 194/234/198 195/239/203
f 213/241/205 203/235/199 204/240/204
f 213/241/205 221/237/201 212/236/200
f 222/242/206 230/238/202 221/237/201
f 231/243/207 180/199/164 230/238/202
f 196/244/208 191/197/162 192/196/161
f 205/245/209 195/239/203 196/244/208
f 214/246/210 204/240/204 205/245/209
f 223/247/211 213/241/205 214/246/210
f 223/247/211 231/243/207 222/242/206
f 232/248/212 179/202/167 231/243/207
f 197/249/213 192/196/161 161/215/179
f 206/250/214 196/244/208 197/249/213
f 215/251/215 205/245/209 206/250/214
f 215/251/215 223/247/211 214/246/210
f 224/252/216 232/248/212 223/247/211
f 233/253/217 178/203/168 232/248/212
f 162/227/191 197/249/213 161/215/179
f 198/254/218 206/250/214 197/249/213
f 207/255/219 215/251/215 206/250/214
f 216/256/210 224/252/216 215/251/215
f 225/257/220 233/253/217 224/252/216
f 176/209/173 233/253/217 234/258/221
f 163/211/175 198/254/218 162/227/191
f 199/259/222 207/255/219 198/254/218
f 217/260/223 207/255/219 208/261/224
f 226/262/225 216/256/210 217/260/223
f 235/263/226 225/257/220 226/262/225
f 175/226/190 234/258/221 235/263/226
f 164/225/189 199/259/222 163/211/175
f 200/264/227 208/261/224 199/259/222
f 209/265/228 217/260/223 208/261/224
f 227/266/229 217/260/223 218/267/230
f 236/268/231 226/262/225 227/266/229
f 174/212/176 235/263/226 236/268/231
f 165/208/172 200/264/227 164/225/189
f 201/269/232 209/265/228 200/264/227
f 210/270/233 218/267/230 209/265/228
f 228/271/234 218/267/230 219/272/235
f 237/273/236 227/266/229 228/271/234
f 173/216/180 236/268/231 237/273/236
f 166/223/187 201/269/232 165/208/172
f 167/204/169 210/270/233 201/269/232
f 168/221/185 219/272/235 210/270/233
f 170/219/183 219/272/235 169/200/165
f 171/218/182 228/271/234 170/219/183
f 172/217/181 237/273/236 171/218/182
f 23/10/10 261/274/237 24/3/3
f 2/4/4 238/275/238 239/276/239
f 12/52/52 250/277/240 13/7/7
f 32/53/53 238/275/238 1/51/51
f 22/12/12 258/278/241 259/279/242
f 10/22/22 248/280/243 11/13/13
f 30/25/25 268/281/244 31/16/16
f 19/57/57 257/282/245 20/19/19
f 8/31/31 246/283/246 9/24/24
f 29/27/27 265/284/247 266/285/248
f 18/28/28 254/286/249 255/287/250
f 7/33/33 243/288/251 244/289/252
f 27/34/34 263/290/253 264/291/254
f 4/45/45 242/292/255 5/39/39
f 15/47/47 253/293/256 16/42/42
f 25/1/1 261/274/237 262/294/257
f 2/4/4 240/295/258 3/46/46
f 13/7/7 251/296/259 14/48/48
f 23/10/10 259/279/242 260/297/260
f 11/13/13 249/298/261 12/52/52
f 31/16/16 269/299/262 32/53/53
f 20/19/19 258/278/241 21/54/54
f 10/22/22 246/283/246 247/300/263
f 30/25/25 266/285/248 267/301/264
f 18/28/28 256/302/265 19/57/57
f 8/31/31 244/289/252 245/303/266
f 27/34/34 265/284/247 28/59/59
f 6/37/37 242/292/255 243/304/251
f 17/40/40 253/293/256 254/286/249
f 26/43/43 262/294/257 263/290/253
f 4/45/45 240/295/258 241/305/267
f 15/47/47 251/296/259 252/306/268
f 381/307/269 298/308/270 299/309/271
f 367/310/272 288/311/273 382/312/274
f 383/313/275 276/314/276 277/315/277
f 369/316/278 297/317/279 384/318/280
f 385/319/281 274/320/282 275/321/283
f 386/322/284 285/323/285 286/324/286
f 387/325/287 294/326/288 295/327/289
f 388/328/290 272/329/291 273/330/292
f 389/331/293 283/332/294 284/333/295
f 375/334/296 293/335/297 390/336/298
f 391/337/299 270/338/300 271/339/301
f 377/340/302 282/341/303 392/342/304
f 378/343/305 270/338/300 376/344/306
f 393/345/307 290/346/308 291/347/309
f 380/348/310 280/349/311 394/350/312
f 381/307/269 300/351/313 395/352/314
f 382/312/274 289/353/315 396/354/316
f 383/313/275 278/355/317 397/356/318
f 384/318/280 298/308/270 366/357/319
f 367/310/272 286/324/286 287/358/320
f 368/359/321 275/360/283 276/314/276
f 369/316/278 295/327/289 296/361/322
f 388/328/290 274/320/282 370/362/323
f 389/331/293 285/323/285 371/363/324
f 372/364/325 293/335/297 294/326/288
f 391/337/299 272/329/291 373/365/326
f 392/342/304 283/332/294 374/366/327
f 375/334/296 291/347/309 292/367/328
f 377/340/302 280/349/311 281/368/329
f 395/352/314 301/369/330 378/343/305
f 396/354/316 290/346/308 379/370/331
f 380/348/310 278/355/317 279/371/332
f 247/300/263 333/372/318 330/373/310
f 257/282/245 328/374/333 258/278/241
f 268/281/244 326/375/305 269/299/262
f 248/280/243 325/376/302 249/298/261
f 260/297/260 327/377/307 321/378/296
f 250/277/240 319/379/327 251/296/259
f 239/276/239 317/380/326 240/295/258
f 262/294/257 320/381/334 315/382/335
f 252/306/268 313/383/324 253/293/256
f 241/305/267 311/384/323 242/292/255
f 263/290/253 309/385/336 264/291/254
f 244/289/252 310/386/281 307/387/321
f 255/287/250 312/388/284 305/389/337
f 266/285/248 308/390/280 303/391/319
f 245/303/266 333/372/318 246/283/246
f 256/302/265 332/392/338 257/282/245
f 267/301/264 331/393/314 268/281/244
f 247/300/263 329/394/339 248/280/243
f 259/279/242 328/374/333 327/377/307
f 269/299/262 323/395/306 238/275/238
f 249/298/261 324/396/340 250/277/240
f 239/276/239 323/395/306 322/397/299
f 260/297/260 320/381/334 261/274/237
f 252/306/268 319/379/327 318/398/341
f 241/305/267 317/380/326 316/399/290
f 263/290/253 315/382/335 314/400/342
f 254/286/249 313/383/324 312/388/284
f 243/304/251 311/384/323 310/401/281
f 264/291/254 308/390/280 265/284/247
f 245/303/266 307/387/321 306/402/343
f 255/287/250 304/403/274 256/302/265
f 267/301/264 303/391/319 302/404/344
f 300/405/313 365/406/345 301/407/330
f 289/408/315 354/409/346 290/410/308
f 279/411/332 342/412/347 343/413/348
f 299/414/271 362/415/349 363/416/350
f 287/417/320 352/418/351 288/419/273
f 277/420/277 340/421/352 341/422/353
f 296/423/322 361/424/354 297/425/279
f 275/426/283 338/427/355 339/428/356
f 286/429/286 349/430/357 350/431/358
f 295/432/289 358/433/359 359/434/360
f 273/435/292 336/436/361 337/437/362
f 284/438/295 347/439/363 348/440/364
f 292/441/328 357/442/365 293/443/297
f 271/444/301 334/445/366 335/446/367
f 281/447/329 346/448/363 282/449/303
f 301/407/330 334/445/366 270/450/300
f 291/451/309 354/409/346 355/452/368
f 279/411/332 344/453/369 280/454/311
f 299/414/271 364/455/370 300/405/313
f 288/419/273 353/456/371 289/408/315
f 277/420/277 342/412/347 278/457/317
f 298/458/270 361/424/354 362/415/349
f 287/417/320 350/431/358 351/459/372
f 276/460/276 339/428/356 340/421/352
f 296/423/322 359/434/360 360/461/373
f 273/435/292 338/427/355 274/462/282
f 284/438/295 349/430/357 285/463/285
f 294/464/288 357/442/365 358/433/359
f 271/444/301 336/436/361 272/465/291
f 282/449/303 347/439/363 283/466/294
f 292/441/328 355/452/368 356/467/374
f 280/454/311 345/468/375 281/447/329
f 330/373/310 397/356/318 380/348/310
f 332/392/338 379/370/331 328/374/333
f 331/393/314 378/343/305 326/375/305
f 329/394/339 377/340/302 325/376/302
f 321/378/296 393/345/307 375/334/296
f 324/396/340 374/366/327 319/379/327
f 322/397/299 373/365/326 317/380/326
f 315/382/335 390/336/298 372/364/325
f 318/398/341 371/363/324 313/383/324
f 316/399/290 370/362/323 311/384/323
f 309/385/336 387/325/287 369/316/278
f 307/387/321 385/469/281 368/359/321
f 305/389/337 386/322/284 367/310/272
f 303/391/319 384/318/280 366/357/319
f 306/402/343 397/356/318 333/372/318
f 304/403/274 396/354/316 332/392/338
f 302/404/344 395/352/314 331/393/314
f 330/373/310 394/350/312 329/394/339
f 327/377/307 379/370/331 393/345/307
f 326/375/305 376/344/306 323/395/306
f 325/376/302 392/342/304 324/396/340
f 322/397/299 376/344/306 391/337/299
f 321/378/296 390/336/298 320/381/334
f 318/398/341 374/366/327 389/331/293
f 316/399/290 373/365/326 388/328/290
f 314/400/342 372/364/325 387/325/287
f 312/388/284 371/363/324 386/322/284
f 310/401/281 370/362/323 385/319/281
f 309/385/336 384/318/280 308/390/280
f 306/402/343 368/359/321 383/313/275
f 305/389/337 382/312/274 304/403/274
f 302/404/344 366/357/319 381/307/269
f 361/424/354 398/470/376 362/415/349
f 360/461/373 407/471/377 398/470/376
f 359/434/360 416/472/378 407/471/377
f 357/442/365 416/472/378 358/433/359
f 356/467/374 425/473/379 357/442/365
f 355/452/368 434/474/380 356/467/374
f 362/415/349 399/475/381 363/416/350
f 398/470/376 408/476/382 399/475/381
f 407/471/377 417/477/383 408/476/382
f 425/473/379 417/477/383 416/472/378
f 434/474/380 426/478/384 425/473/379
f 354/409/346 435/479/385 434/474/380
f 363/416/350 400/480/386 364/455/370
f 399/475/381 409/481/387 400/480/386
f 408/476/382 418/482/360 409/481/387
f 426/478/384 418/482/360 417/477/383
f 435/479/385 427/483/388 426/478/384
f 353/456/371 436/484/389 435/479/385
f 364/455/370 401/485/390 365/406/345
f 400/480/386 410/486/391 401/485/390
f 409/481/387 419/487/392 410/486/391
f 418/482/360 428/488/393 419/487/392
f 436/484/389 428/488/393 427/483/388
f 352/418/351 437/489/394 436/484/389
f 365/406/345 402/490/395 334/445/366
f 401/485/390 411/491/396 402/490/395
f 410/486/391 420/492/397 411/491/396
f 428/488/393 420/492/397 419/487/392
f 437/489/394 429/493/398 428/488/393
f 351/459/372 438/494/399 437/489/394
f 402/490/395 335/446/367 334/445/366
f 411/491/396 403/495/400 402/490/395
f 420/492/397 412/496/369 411/491/396
f 429/493/398 421/497/392 420/492/397
f 438/494/399 430/498/401 429/493/398
f 438/494/399 349/430/357 439/499/402
f 403/495/400 336/436/361 335/446/367
f 412/496/369 404/500/370 403/495/400
f 412/496/369 422/501/403 413/502/404
f 421/497/392 431/503/405 422/501/403
f 430/498/401 440/504/406 431/503/405
f 439/499/402 348/440/364 440/504/406
f 404/500/370 337/437/362 336/436/361
f 413/502/404 405/505/407 404/500/370
f 422/501/403 414/506/408 413/502/404
f 422/501/403 432/507/409 423/508/410
f 431/503/405 441/509/411 432/507/409
f 440/504/406 347/439/363 441/509/411
f 405/505/407 338/427/355 337/437/362
f 414/506/408 406/510/412 405/505/407
f 423/508/410 415/511/408 414/506/408
f 423/508/410 433/512/413 424/513/414
f 432/507/409 442/514/415 433/512/413
f 441/509/411 346/448/363 442/514/415
f 406/510/412 339/428/356 338/427/355
f 415/511/408 340/421/352 406/510/412
f 424/513/414 341/422/353 415/511/408
f 424/513/414 343/413/348 342/412/347
f 433/512/413 344/453/369 343/413/348
f 442/514/415 345/468/375 344/453/369
f 25/1/1 57/44/44 56/2/2
f 2/4/4 3/46/46 35/5/5
f 13/7/7 14/48/48 46/8/8
f 23/10/10 55/49/49 54/11/11
f 11/13/13 12/52/52 44/14/14
f 31/16/16 32/53/53 64/17/17
f 20/19/19 21/54/54 53/20/20
f 10/22/22 42/55/55 41/23/23
f 30/25/25 62/56/56 61/26/26
f 18/28/28 19/57/57 51/29/29
f 8/31/31 40/58/58 39/32/32
f 27/34/34 28/59/59 60/35/35
f 6/37/37 38/515/61 37/38/38
f 17/40/40 49/60/60 48/41/41
f 26/43/43 58/63/62 57/44/44
f 4/45/45 36/64/63 35/5/5
f 15/47/47 47/65/64 46/8/8
f 23/10/10 24/3/3 56/2/2
f 2/4/4 34/6/6 33/50/50
f 12/52/52 13/7/7 45/9/9
f 32/53/53 1/51/51 33/50/50
f 22/12/12 54/11/11 53/20/20
f 10/22/22 11/13/13 43/15/15
f 30/25/25 31/16/16 63/18/18
f 19/57/57 20/19/19 52/21/21
f 8/31/31 9/24/24 41/23/23
f 29/27/27 61/26/26 60/35/35
f 18/28/28 50/30/30 49/60/60
f 6/61/37 7/33/33 39/32/32
f 27/34/34 59/36/36 58/63/62
f 4/45/45 5/39/39 37/38/38
f 15/47/47 16/42/42 48/41/41
f 57/66/44 58/110/62 90/67/65
f 35/69/5 36/113/63 68/70/67
f 46/72/8 47/115/64 79/73/69
f 56/75/2 88/116/89 87/76/71
f 33/78/50 34/117/6 66/79/72
f 45/81/9 77/118/90 76/82/74
f 33/78/50 65/80/73 96/84/75
f 53/86/20 54/119/11 86/87/76
f 43/89/15 75/120/91 74/90/78
f 63/92/18 95/121/92 94/93/79
f 52/95/21 84/122/93 83/96/80
f 41/98/23 73/123/94 72/99/81
f 60/101/35 61/124/26 93/102/82
f 49/104/60 50/125/30 82/105/84
f 38/107/61 39/126/32 71/108/86
f 58/110/62 59/127/36 91/111/88
f 37/112/38 69/129/95 68/70/67
f 48/114/41 80/130/96 79/73/69
f 56/75/2 57/66/44 89/68/66
f 35/69/5 67/71/68 66/79/72
f 46/72/8 78/74/70 77/118/90
f 54/119/11 55/77/49 87/76/71
f 44/83/14 76/82/74 75/120/91
f 64/85/17 96/84/75 95/121/92
f 53/86/20 85/88/77 84/122/93
f 41/98/23 42/91/55 74/90/78
f 61/124/26 62/94/56 94/93/79
f 51/97/29 83/96/80 82/105/84
f 39/126/32 40/100/58 72/99/81
f 60/101/35 92/103/83 91/111/88
f 37/112/38 38/516/61 70/128/87
f 48/114/41 49/104/60 81/106/85
f 92/103/83 124/154/120 123/131/97
f 69/129/95 70/128/87 102/132/98
f 80/130/96 81/106/85 113/134/100
f 89/68/66 90/67/65 122/136/102
f 67/71/68 68/70/67 100/138/104
f 78/74/70 79/73/69 111/140/106
f 88/116/89 120/158/123 119/142/108
f 65/80/73 66/79/72 98/143/109
f 77/118/90 109/159/124 108/145/111
f 65/80/73 97/144/110 128/146/112
f 85/88/77 86/87/76 118/147/113
f 75/120/91 107/160/125 106/149/115
f 95/121/92 127/161/126 126/150/116
f 84/122/93 116/162/127 115/151/117
f 73/123/94 105/163/128 104/152/118
f 92/103/83 93/102/82 125/153/119
f 81/106/85 82/105/84 114/155/121
f 70/109/87 71/108/86 103/156/122
f 90/67/65 91/111/88 123/131/97
f 69/129/95 101/133/99 100/138/104
f 80/130/96 112/135/101 111/140/106
f 88/116/89 89/68/66 121/137/103
f 67/71/68 99/139/105 98/143/109
f 78/74/70 110/141/107 109/159/124
f 86/87/76 87/76/71 119/142/108
f 76/82/74 108/145/111 107/160/125
f 96/84/75 128/146/112 127/161/126
f 85/88/77 117/148/114 116/162/127
f 73/123/94 74/90/78 106/149/115
f 93/102/82 94/93/79 126/150/116
f 83/96/80 115/151/117 114/155/121
f 71/108/86 72/99/81 104/152/118
f 126/150/116 158/185/150 157/164/129
f 114/155/121 115/151/117 147/165/130
f 104/152/118 136/188/153 135/167/132
f 123/131/97 124/154/120 156/168/133
f 102/132/98 134/207/155 133/170/135
f 113/134/100 145/189/154 144/171/136
f 122/136/102 154/191/156 153/172/137
f 100/138/104 132/192/157 131/173/138
f 111/140/106 143/193/158 142/174/139
f 119/142/108 120/158/123 152/175/140
f 98/143/109 130/194/159 129/177/142
f 108/145/111 109/159/124 141/178/143
f 128/146/112 97/144/110 129/177/142
f 118/147/113 150/195/160 149/181/146
f 106/149/115 107/160/125 139/182/147
f 126/150/116 127/161/126 159/184/149
f 115/151/117 116/162/127 148/186/151
f 104/152/118 105/163/128 137/187/152
f 125/153/119 157/164/129 156/168/133
f 114/155/121 146/166/131 145/189/154
f 103/156/122 135/167/132 134/190/155
f 123/131/97 155/169/134 154/191/156
f 100/138/104 101/133/99 133/170/135
f 111/140/106 112/135/101 144/171/136
f 121/137/103 153/172/137 152/175/140
f 98/143/109 99/139/105 131/173/138
f 109/159/124 110/141/107 142/174/139
f 119/142/108 151/176/141 150/195/160
f 107/160/125 108/145/111 140/179/144
f 127/161/126 128/146/112 160/180/145
f 116/162/127 117/148/114 149/181/146
f 106/149/115 138/183/148 137/187/152
f 159/184/149 160/180/145 192/196/161
f 148/186/151 149/181/146 181/198/163
f 138/183/148 170/219/183 169/200/165
f 158/185/150 190/220/184 189/201/166
f 146/166/131 147/165/130 179/202/167
f 136/188/153 168/221/185 167/204/169
f 155/169/134 156/168/133 188/205/170
f 134/207/155 166/223/187 165/208/172
f 145/189/154 177/222/186 176/209/173
f 154/191/156 186/224/188 185/210/174
f 132/192/157 164/225/189 163/211/175
f 143/193/158 175/226/190 174/212/176
f 151/176/141 152/175/140 184/213/177
f 130/194/159 162/227/191 161/215/179
f 140/179/144 141/178/143 173/216/180
f 160/180/145 129/177/142 161/215/179
f 150/195/160 182/228/192 181/198/163
f 138/183/148 139/182/147 171/218/182
f 158/185/150 159/184/149 191/197/162
f 147/165/130 148/186/151 180/199/164
f 136/188/153 137/187/152 169/200/165
f 157/164/129 189/201/166 188/205/170
f 146/166/131 178/203/168 177/222/186
f 135/167/132 167/204/169 166/223/187
f 155/169/134 187/206/171 186/224/188
f 132/192/157 133/170/135 165/208/172
f 143/193/158 144/171/136 176/209/173
f 153/172/137 185/210/174 184/213/177
f 130/194/159 131/173/138 163/211/175
f 141/178/143 142/174/139 174/212/176
f 151/176/141 183/214/178 182/228/192
f 139/182/147 140/179/144 172/217/181
f 193/229/193 187/206/171 188/205/170
f 202/230/194 186/224/188 187/206/171
f 211/231/195 185/210/174 186/224/188
f 211/231/195 220/232/196 184/213/177
f 220/232/196 229/233/197 183/214/178
f 229/233/197 181/198/163 182/228/192
f 194/234/198 193/229/193 189/201/166
f 203/235/199 202/230/194 193/229/193
f 212/236/200 211/231/195 202/230/194
f 212/236/200 221/237/201 220/232/196
f 221/237/201 230/238/202 229/233/197
f 230/238/202 180/199/164 181/198/163
f 195/239/203 194/234/198 190/220/184
f 204/240/204 203/235/199 194/234/198
f 213/241/205 212/236/200 203/235/199
f 213/241/205 222/242/206 221/237/201
f 222/242/206 231/243/207 230/238/202
f 231/243/207 179/202/167 180/199/164
f 196/244/208 195/239/203 191/197/162
f 205/245/209 204/240/204 195/239/203
f 214/246/210 213/241/205 204/240/204
f 223/247/211 222/242/206 213/241/205
f 223/247/211 232/248/212 231/243/207
f 232/248/212 178/203/168 179/202/167
f 197/249/213 196/244/208 192/196/161
f 206/250/214 205/245/209 196/244/208
f 215/251/215 214/246/210 205/245/209
f 215/251/215 224/252/216 223/247/211
f 224/252/216 233/253/217 232/248/212
f 233/253/217 177/222/186 178/203/168
f 162/227/191 198/254/218 197/249/213
f 198/254/218 207/255/219 206/250/214
f 207/255/219 216/256/210 215/251/215
f 216/256/210 225/257/220 224/252/216
f 225/257/220 234/258/221 233/253/217
f 176/209/173 177/222/186 233/253/217
f 163/211/175 199/259/222 198/254/218
f 199/259/222 208/261/224 207/255/219
f 217/260/223 216/256/210 207/255/219
f 226/262/225 225/257/220 216/256/210
f 235/263/226 234/258/221 225/257/220
f 175/226/190 176/209/173 234/258/221
f 164/225/189 200/264/227 199/259/222
f 200/264/227 209/265/228 208/261/224
f 209/265/228 218/267/230 217/260/223
f 227/266/229 226/262/225 217/260/223
f 236/268/231 235/263/226 226/262/225
f 174/212/176 175/226/190 235/263/226
f 165/208/172 201/269/232 200/264/227
f 201/269/232 210/270/233 209/265/228
f 210/270/233 219/272/235 218/267/230
f 228/271/234 227/266/229 218/267/230
f 237/273/236 236/268/231 227/266/229
f 173/216/180 174/212/176 236/268/231
f 166/223/187 167/204/169 201/269/232
f 167/204/169 168/221/185 210/270/233
f 168/221/185 169/200/165 219/272/235
f 170/219/183 228/271/234 219/272/235
f 171/218/182 237/273/236 228/271/234
f 172/217/181 173/216/180 237/273/236
f 23/10/10 260/297/260 261/274/237
f 2/4/4 1/51/51 238/275/238
f 12/52/52 249/298/261 250/277/240
f 32/53/53 269/299/262 238/275/238
f 22/12/12 21/54/54 258/278/241
f 10/22/22 247/300/263 248/280/243
f 30/25/25 267/301/264 268/281/244
f 19/57/57 256/302/265 257/282/245
f 8/31/31 245/303/266 246/283/246
f 29/27/27 28/59/59 265/284/247
f 18/28/28 17/40/40 254/286/249
f 7/33/33 6/61/37 243/288/251
f 27/34/34 26/43/43 263/290/253
f 4/45/45 241/305/267 242/292/255
f 15/47/47 252/306/268 253/293/256
f 25/1/1 24/3/3 261/274/237
f 2/4/4 239/276/239 240/295/258
f 13/7/7 250/277/240 251/296/259
f 23/10/10 22/12/12 259/279/242
f 11/13/13 248/280/243 249/298/261
f 31/16/16 268/281/244 269/299/262
f 20/19/19 257/282/245 258/278/241
f 10/22/22 9/24/24 246/283/246
f 30/25/25 29/27/27 266/285/248
f 18/28/28 255/287/250 256/302/265
f 8/31/31 7/33/33 244/289/252
f 27/34/34 264/291/254 265/284/247
f 6/37/37 5/39/39 242/292/255
f 17/40/40 16/42/42 253/293/256
f 26/43/43 25/1/1 262/294/257
f 4/45/45 3/46/46 240/295/258
f 15/47/47 14/48/48 251/296/259
f 381/307/269 366/357/319 298/308/270
f 367/310/272 287/358/320 288/311/273
f 383/313/275 368/359/321 276/314/276
f 369/316/278 296/361/322 297/317/279
f 385/319/281 370/362/323 274/320/282
f 386/322/284 371/363/324 285/323/285
f 387/325/287 372/364/325 294/326/288
f 388/328/290 373/365/326 272/329/291
f 389/331/293 374/366/327 283/332/294
f 375/334/296 292/367/328 293/335/297
f 391/337/299 376/344/306 270/338/300
f 377/340/302 281/368/329 282/341/303
f 378/343/305 301/369/330 270/338/300
f 393/345/307 379/370/331 290/346/308
f 380/348/310 279/371/332 280/349/311
f 381/307/269 299/309/271 300/351/313
f 382/312/274 288/311/273 289/353/315
f 383/313/275 277/315/277 278/355/317
f 384/318/280 297/317/279 298/308/270
f 367/310/272 386/322/284 286/324/286
f 368/359/321 385/469/281 275/360/283
f 369/316/278 387/325/287 295/327/289
f 388/328/290 273/330/292 274/320/282
f 389/331/293 284/333/295 285/323/285
f 372/364/325 390/336/298 293/335/297
f 391/337/299 271/339/301 272/329/291
f 392/342/304 282/341/303 283/332/294
f 375/334/296 393/345/307 291/347/309
f 377/340/302 394/350/312 280/349/311
f 395/352/314 300/351/313 301/369/330
f 396/354/316 289/353/315 290/346/308
f 380/348/310 397/356/318 278/355/317
f 247/300/263 246/283/246 333/372/318
f 257/282/245 332/392/338 328/374/333
f 268/281/244 331/393/314 326/375/305
f 248/280/243 329/394/339 325/376/302
f 260/297/260 259/279/242 327/377/307
f 250/277/240 324/396/340 319/379/327
f 239/276/239 322/397/299 317/380/326
f 262/294/257 261/274/237 320/381/334
f 252/306/268 318/398/341 313/383/324
f 241/305/267 316/399/290 311/384/323
f 263/290/253 314/400/342 309/385/336
f 244/289/252 243/288/251 310/386/281
f 255/287/250 254/286/249 312/388/284
f 266/285/248 265/284/247 308/390/280
f 245/303/266 306/402/343 333/372/318
f 256/302/265 304/403/274 332/392/338
f 267/301/264 302/404/344 331/393/314
f 247/300/263 330/373/310 329/394/339
f 259/279/242 258/278/241 328/374/333
f 269/299/262 326/375/305 323/395/306
f 249/298/261 325/376/302 324/396/340
f 239/276/239 238/275/238 323/395/306
f 260/297/260 321/378/296 320/381/334
f 252/306/268 251/296/259 319/379/327
f 241/305/267 240/295/258 317/380/326
f 263/290/253 262/294/257 315/382/335
f 254/286/249 253/293/256 313/383/324
f 243/304/251 242/292/255 311/384/323
f 264/291/254 309/385/336 308/390/280
f 245/303/266 244/289/252 307/387/321
f 255/287/250 305/389/337 304/403/274
f 267/301/264 266/285/248 303/391/319
f 300/405/313 364/455/370 365/406/345
f 289/408/315 353/456/371 354/409/346
f 279/411/332 278/457/317 342/412/347
f 299/414/271 298/458/270 362/415/349
f 287/417/320 351/459/372 352/418/351
f 277/420/277 276/460/276 340/421/352
f 296/423/322 360/461/373 361/424/354
f 275/426/283 274/462/282 338/427/355
f 286/429/286 285/463/285 349/430/357
f 295/432/289 294/464/288 358/433/359
f 273/435/292 272/465/291 336/436/361
f 284/438/295 283/466/294 347/439/363
f 292/441/328 356/467/374 357/442/365
f 271/444/301 270/450/300 334/445/366
f 281/447/329 345/468/375 346/448/363
f 301/407/330 365/406/345 334/445/366
f 291/451/309 290/410/308 354/409/346
f 279/411/332 343/413/348 344/453/369
f 299/414/271 363/416/350 364/455/370
f 288/419/273 352/418/351 353/456/371
f 277/420/277 341/422/353 342/412/347
f 298/458/270 297/425/279 361/424/354
f 287/417/320 286/429/286 350/431/358
f 276/460/276 275/426/283 339/428/356
f 296/423/322 295/432/289 359/434/360
f 273/435/292 337/437/362 338/427/355
f 284/438/295 348/440/364 349/430/357
f 294/464/288 293/443/297 357/442/365
f 271/444/301 335/446/367 336/436/361
f 282/449/303 346/448/363 347/439/363
f 292/441/328 291/451/309 355/452/368
f 280/454/311 344/453/369 345/468/375
f 330/373/310 333/372/318 397/356/318
f 332/392/338 396/354/316 379/370/331
f 331/393/314 395/352/314 378/343/305
f 329/394/339 394/350/312 377/340/302
f 321/378/296 327/377/307 393/345/307
f 324/396/340 392/342/304 374/366/327
f 322/397/299 391/337/299 373/365/326
f 315/382/335 320/381/334 390/336/298
f 318/398/341 389/331/293 371/363/324
f 316/399/290 388/328/290 370/362/323
f 309/385/336 314/400/342 387/325/287
f 307/387/321 310/386/281 385/469/281
f 305/389/337 312/388/284 386/322/284
f 303/391/319 308/390/280 384/318/280
f 306/402/343 383/313/275 397/356/318
f 304/403/274 382/312/274 396/354/316
f 302/404/344 381/307/269 395/352/314
f 330/373/310 380/348/310 394/350/312
f 327/377/307 328/374/333 379/370/331
f 326/375/305 378/343/305 376/344/306
f 325/376/302 377/340/302 392/342/304
f 322/397/299 323/395/306 376/344/306
f 321/378/296 375/334/296 390/336/298
f 318/398/341 319/379/327 374/366/327
f 316/399/290 317/380/326 373/365/326
f 314/400/342 315/382/335 372/364/325
f 312/388/284 313/383/324 371/363/324
f 310/401/281 311/384/323 370/362/323
f 309/385/336 369/316/278 384/318/280
f 306/402/343 307/387/321 368/359/321
f 305/389/337 367/310/272 382/312/274
f 302/404/344 303/391/319 366/357/319
f 361/424/354 360/461/373 398/470/376
f 360/461/373 359/434/360 407/471/377
f 359/434/360 358/433/359 416/472/378
f 357/442/365 425/473/379 416/472/378
f 356/467/374 434/474/380 425/473/379
f 355/452/368 354/409/346 434/474/380
f 362/415/349 398/470/376 399/475/381
f 398/470/376 407/471/377 408/476/382
f 407/471/377 416/472/378 417/477/383
f 425/473/379 426/478/384 417/477/383
f 434/474/380 435/479/385 426/478/384
f 354/409/346 353/456/371 435/479/385
f 363/416/350 399/475/381 400/480/386
f 399/475/381 408/476/382 409/481/387
f 408/476/382 417/477/383 418/482/360
f 426/478/384 427/483/388 418/482/360
f 435/479/385 436/484/389 427/483/388
f 353/456/371 352/418/351 436/484/389
f 364/455/370 400/480/386 401/485/390
f 400/480/386 409/481/387 410/486/391
f 409/481/387 418/482/360 419/487/392
f 418/482/360 427/483/388 428/488/393
f 436/484/389 437/489/394 428/488/393
f 352/418/351 351/459/372 437/489/394
f 365/406/345 401/485/390 402/490/395
f 401/485/390 410/486/391 411/491/396
f 410/486/391 419/487/392 420/492/397
f 428/488/393 429/493/398 420/492/397
f 437/489/394 438/494/399 429/493/398
f 351/459/372 350/431/358 438/494/399
f 402/490/395 403/495/400 335/446/367
f 411/491/396 412/496/369 403/495/400
f 420/492/397 421/497/392 412/496/369
f 429/493/398 430/498/401 421/497/392
f 438/494/399 439/499/402 430/498/401
f 438/494/399 350/431/358 349/430/357
f 403/495/400 404/500/370 336/436/361
f 412/496/369 413/502/404 404/500/370
f 412/496/369 421/497/392 422/501/403
f 421/497/392 430/498/401 431/503/405
f 430/498/401 439/499/402 440/504/406
f 439/499/402 349/430/357 348/440/364
f 404/500/370 405/505/407 337/437/362
f 413/502/404 414/506/408 405/505/407
f 422/501/403 423/508/410 414/506/408
f 422/501/403 431/503/405 432/507/409
f 431/503/405 440/504/406 441/509/411
f 440/504/406 348/440/364 347/439/363
f 405/505/407 406/510/412 338/427/355
f 414/506/408 415/511/408 406/510/412
f 423/508/410 424/513/414 415/511/408
f 423/508/410 432/507/409 433/512/413
f 432/507/409 441/509/411 442/514/415
f 441/509/411 347/439/363 346/448/363
f 406/510/412 340/421/352 339/428/356
f 415/511/408 341/422/353 340/421/352
f 424/513/414 342/412/347 341/422/353
f 424/513/414 433/512/413 343/413/348
f 433/512/413 442/514/415 344/453/369
f 442/514/415 346/448/363 345/468/375
