# Blender 3.6.23
# www.blender.org
o sol.042
v 1.963482 0.846100 -1.388551
v 2.018040 0.846109 -1.580649
v 1.963384 0.846062 -1.388202
v 1.963302 0.845958 -1.387897
v 1.963233 0.845799 -1.387648
v 1.963184 0.845599 -1.387459
v 1.963152 0.845373 -1.387341
v 1.963140 0.845132 -1.387303
v 1.963152 0.844885 -1.387350
v 1.963203 0.844347 -1.387543
v 1.963251 0.843789 -1.387725
v 1.963297 0.843205 -1.387886
v 1.963335 0.842593 -1.388024
v 1.963363 0.841945 -1.388134
v 1.963384 0.841257 -1.388212
v 2.017636 0.841654 -1.579227
v 2.017666 0.842578 -1.579348
v 2.017719 0.843407 -1.579534
v 2.017782 0.844159 -1.579770
v 2.017858 0.844853 -1.580045
v 2.017943 0.845471 -1.580349
v 2.018006 0.845871 -1.580567
v 1.963419 0.841260 -1.388485
v 1.963746 0.841248 -1.389875
v 1.963716 0.841929 -1.389742
v 1.963678 0.842610 -1.389571
v 1.963642 0.843292 -1.389411
v 1.963600 0.843973 -1.389219
v 1.963566 0.844738 -1.389069
v 1.963509 0.845434 -1.388814
v 1.963414 0.845401 -1.388472
v 1.963476 0.844710 -1.388738
v 1.963515 0.843973 -1.388898
v 1.963563 0.843292 -1.389101
v 1.963603 0.842610 -1.389272
v 1.963647 0.841929 -1.389454
v 1.963681 0.841248 -1.389596
v 1.963332 0.845327 -1.388159
v 1.963396 0.844655 -1.388429
v 1.963440 0.843973 -1.388606
v 1.963491 0.843292 -1.388814
v 1.963535 0.842610 -1.388991
v 1.963582 0.841929 -1.389179
v 1.963618 0.841248 -1.389322
v 1.963257 0.845225 -1.387883
v 1.963323 0.844575 -1.388149
v 1.963372 0.843973 -1.388339
v 1.963424 0.843292 -1.388543
v 1.963469 0.842610 -1.388717
v 1.963516 0.841929 -1.388900
v 1.963556 0.841248 -1.389052
v 1.963389 0.841949 -1.388370
v 1.963351 0.842611 -1.388224
v 1.963307 0.843250 -1.388059
v 1.963255 0.843869 -1.387867
v 1.963206 0.844410 -1.387679
v 1.963143 0.845007 -1.387439
v 1.963495 0.841248 -1.388810
v 1.963458 0.841934 -1.388668
v 1.963414 0.842607 -1.388492
v 1.963367 0.843271 -1.388312
v 1.963312 0.843926 -1.388100
v 1.963261 0.844496 -1.387901
v 1.963194 0.845124 -1.387634
v 2.017646 0.844149 -1.579835
v 1.963083 0.845822 -1.387673
v 2.017722 0.844841 -1.580110
v 2.017531 0.842573 -1.579415
v 1.962998 0.845383 -1.387357
v 1.963214 0.841941 -1.388148
v 1.963237 0.846091 -1.388238
v 1.963154 0.845985 -1.387928
v 2.017500 0.841651 -1.579293
v 1.963101 0.843780 -1.387740
v 1.963054 0.844338 -1.387559
v 1.963000 0.844877 -1.387365
v 1.963186 0.842587 -1.388039
v 2.017890 0.846129 -1.580719
v 1.963148 0.843198 -1.387901
v 1.963235 0.841255 -1.388226
v 1.962985 0.845132 -1.387317
v 1.963032 0.845617 -1.387479
v 1.963338 0.846129 -1.388591
v 2.017583 0.843399 -1.579600
v 2.017806 0.845457 -1.580413
v 2.017867 0.845859 -1.580634
v 2.018020 0.846109 -1.580575
v 2.017986 0.845871 -1.580494
v 2.017923 0.845470 -1.580276
v 2.017838 0.844852 -1.579973
v 2.017762 0.844158 -1.579698
v 2.017699 0.843406 -1.579463
v 2.017647 0.842577 -1.579278
v 2.017616 0.841653 -1.579157
v 2.017869 0.846129 -1.580645
v 1.653211 0.846100 -1.477818
v 1.709079 0.846109 -1.669539
v 1.653108 0.846063 -1.477470
v 1.653015 0.845958 -1.477169
v 1.652942 0.845799 -1.476920
v 1.652883 0.845599 -1.476735
v 1.652848 0.845373 -1.476618
v 1.652837 0.845132 -1.476579
v 1.652852 0.844885 -1.476625
v 1.652911 0.844347 -1.476816
v 1.652967 0.843789 -1.476995
v 1.653014 0.843205 -1.477157
v 1.653055 0.842593 -1.477293
v 1.653090 0.841945 -1.477401
v 1.653113 0.841257 -1.477479
v 1.708666 0.841654 -1.668119
v 1.708705 0.842578 -1.668238
v 1.708760 0.843407 -1.668423
v 1.708831 0.844159 -1.668656
v 1.708913 0.844853 -1.668930
v 1.709002 0.845471 -1.669233
v 1.709065 0.845871 -1.669451
v 1.653229 0.841260 -1.477728
v 1.653691 0.841248 -1.479079
v 1.653645 0.841929 -1.478951
v 1.653587 0.842610 -1.478786
v 1.653532 0.843292 -1.478632
v 1.653466 0.843973 -1.478446
v 1.653415 0.844738 -1.478302
v 1.653327 0.845434 -1.478055
v 1.653226 0.845401 -1.477715
v 1.653315 0.844710 -1.477973
v 1.653368 0.843973 -1.478130
v 1.653435 0.843292 -1.478327
v 1.653491 0.842610 -1.478493
v 1.653551 0.841929 -1.478670
v 1.653597 0.841248 -1.478809
v 1.653130 0.845327 -1.477406
v 1.653218 0.844655 -1.477669
v 1.653275 0.843973 -1.477842
v 1.653342 0.843292 -1.478046
v 1.653399 0.842610 -1.478219
v 1.653460 0.841929 -1.478402
v 1.653505 0.841248 -1.478544
v 1.653046 0.845225 -1.477133
v 1.653132 0.844575 -1.477393
v 1.653191 0.843973 -1.477579
v 1.653256 0.843292 -1.477780
v 1.653310 0.842610 -1.477951
v 1.653368 0.841929 -1.478132
v 1.653414 0.841248 -1.478282
v 1.653194 0.841949 -1.477615
v 1.653147 0.842611 -1.477471
v 1.653097 0.843250 -1.477308
v 1.653040 0.843869 -1.477118
v 1.652981 0.844410 -1.476932
v 1.652907 0.845007 -1.476696
v 1.653337 0.841248 -1.478044
v 1.653293 0.841934 -1.477904
v 1.653237 0.842607 -1.477732
v 1.653181 0.843271 -1.477554
v 1.653115 0.843926 -1.477346
v 1.653052 0.844496 -1.477149
v 1.652968 0.845124 -1.476888
v 1.708981 0.844149 -1.668640
v 1.653082 0.845822 -1.476861
v 1.709063 0.844841 -1.668913
v 1.708855 0.842573 -1.668223
v 1.652986 0.845383 -1.476549
v 1.653224 0.841941 -1.477334
v 1.653252 0.846091 -1.477423
v 1.653157 0.845985 -1.477116
v 1.708816 0.841651 -1.668104
v 1.653102 0.843780 -1.476928
v 1.653046 0.844338 -1.476750
v 1.652989 0.844877 -1.476557
v 1.653190 0.842587 -1.477227
v 1.709244 0.846129 -1.669518
v 1.653149 0.843198 -1.477090
v 1.653248 0.841255 -1.477411
v 1.652976 0.845132 -1.476509
v 1.653022 0.845617 -1.476670
v 1.653354 0.846129 -1.477775
v 1.708909 0.843399 -1.668407
v 1.709152 0.845457 -1.669214
v 1.709218 0.845859 -1.669434
v 1.709057 0.846109 -1.669465
v 1.709043 0.845871 -1.669378
v 1.708981 0.845470 -1.669160
v 1.708892 0.844852 -1.668859
v 1.708810 0.844158 -1.668586
v 1.708738 0.843406 -1.668353
v 1.708684 0.842577 -1.668168
v 1.708646 0.841653 -1.668049
v 1.709222 0.846129 -1.669445
v 1.963482 0.835204 -1.388551
v 2.018040 0.835195 -1.580649
v 1.963384 0.835242 -1.388202
v 1.963302 0.835347 -1.387897
v 1.963233 0.835505 -1.387648
v 1.963184 0.835705 -1.387459
v 1.963152 0.835931 -1.387341
v 1.963140 0.836172 -1.387303
v 1.963152 0.836419 -1.387350
v 1.963203 0.836957 -1.387543
v 1.963251 0.837515 -1.387725
v 1.963297 0.838099 -1.387886
v 1.963335 0.838712 -1.388024
v 1.963363 0.839359 -1.388134
v 1.963384 0.840047 -1.388212
v 1.963396 0.840652 -1.388252
v 2.017622 0.840652 -1.579181
v 2.017636 0.839651 -1.579227
v 2.017666 0.838726 -1.579348
v 2.017719 0.837897 -1.579534
v 2.017782 0.837145 -1.579770
v 2.017858 0.836451 -1.580045
v 2.017943 0.835834 -1.580349
v 2.018006 0.835433 -1.580567
v 1.963760 0.840652 -1.389937
v 1.963700 0.840652 -1.389671
v 1.963642 0.840652 -1.389407
v 1.963578 0.840652 -1.389121
v 1.963438 0.840652 -1.388547
v 1.963516 0.840652 -1.388882
v 1.963419 0.840044 -1.388485
v 1.963746 0.840057 -1.389875
v 1.963716 0.839375 -1.389742
v 1.963678 0.838694 -1.389571
v 1.963642 0.838013 -1.389411
v 1.963600 0.837331 -1.389219
v 1.963566 0.836566 -1.389069
v 1.963509 0.835871 -1.388814
v 1.963414 0.835904 -1.388472
v 1.963476 0.836594 -1.388738
v 1.963515 0.837331 -1.388898
v 1.963563 0.838013 -1.389101
v 1.963603 0.838694 -1.389272
v 1.963647 0.839375 -1.389454
v 1.963681 0.840057 -1.389596
v 1.963332 0.835978 -1.388159
v 1.963396 0.836649 -1.388429
v 1.963440 0.837331 -1.388606
v 1.963491 0.838013 -1.388814
v 1.963535 0.838694 -1.388991
v 1.963582 0.839375 -1.389179
v 1.963618 0.840057 -1.389322
v 1.963257 0.836079 -1.387883
v 1.963323 0.836729 -1.388149
v 1.963372 0.837331 -1.388339
v 1.963424 0.838013 -1.388543
v 1.963469 0.838694 -1.388717
v 1.963516 0.839375 -1.388900
v 1.963556 0.840057 -1.389052
v 1.963389 0.839355 -1.388370
v 1.963351 0.838694 -1.388224
v 1.963307 0.838054 -1.388059
v 1.963255 0.837435 -1.387867
v 1.963206 0.836894 -1.387679
v 1.963143 0.836298 -1.387439
v 1.963495 0.840057 -1.388810
v 1.963458 0.839371 -1.388668
v 1.963414 0.838697 -1.388492
v 1.963367 0.838033 -1.388312
v 1.963312 0.837378 -1.388100
v 1.963261 0.836808 -1.387901
v 1.963194 0.836180 -1.387634
v 2.017646 0.837155 -1.579835
v 2.017487 0.840652 -1.579248
v 1.963083 0.835482 -1.387673
v 1.963247 0.840652 -1.388266
v 2.017722 0.836464 -1.580110
v 2.017531 0.838731 -1.579415
v 1.962998 0.835921 -1.387357
v 1.963214 0.839364 -1.388148
v 1.963237 0.835213 -1.388238
v 1.963154 0.835320 -1.387928
v 2.017500 0.839653 -1.579293
v 1.963101 0.837524 -1.387740
v 1.963054 0.836967 -1.387559
v 1.963000 0.836427 -1.387365
v 1.963186 0.838718 -1.388039
v 2.017890 0.835176 -1.580719
v 1.963148 0.838106 -1.387901
v 1.963235 0.840050 -1.388226
v 1.962985 0.836172 -1.387317
v 1.963032 0.835687 -1.387479
v 1.963338 0.835176 -1.388591
v 2.017583 0.837905 -1.579600
v 2.017806 0.835847 -1.580413
v 2.017867 0.835446 -1.580634
v 2.018020 0.835195 -1.580575
v 2.017986 0.835434 -1.580494
v 2.017923 0.835835 -1.580276
v 2.017838 0.836453 -1.579973
v 2.017762 0.837146 -1.579698
v 2.017699 0.837898 -1.579463
v 2.017647 0.838727 -1.579278
v 2.017616 0.839651 -1.579157
v 2.017603 0.840652 -1.579112
v 2.017869 0.835176 -1.580645
v 1.653211 0.835204 -1.477818
v 1.709079 0.835195 -1.669539
v 1.653108 0.835242 -1.477470
v 1.653015 0.835347 -1.477169
v 1.652942 0.835505 -1.476920
v 1.652883 0.835705 -1.476735
v 1.652848 0.835931 -1.476618
v 1.652837 0.836172 -1.476579
v 1.652852 0.836419 -1.476625
v 1.652911 0.836957 -1.476816
v 1.652967 0.837515 -1.476995
v 1.653014 0.838099 -1.477157
v 1.653055 0.838712 -1.477293
v 1.653090 0.839359 -1.477401
v 1.653113 0.840047 -1.477479
v 1.653125 0.840652 -1.477518
v 1.708654 0.840652 -1.668073
v 1.708666 0.839651 -1.668119
v 1.708705 0.838726 -1.668238
v 1.708760 0.837897 -1.668423
v 1.708831 0.837145 -1.668656
v 1.708913 0.836451 -1.668930
v 1.709002 0.835834 -1.669233
v 1.709065 0.835433 -1.669451
v 1.653712 0.840652 -1.479140
v 1.653621 0.840652 -1.478882
v 1.653531 0.840652 -1.478628
v 1.653433 0.840652 -1.478352
v 1.653246 0.840652 -1.477791
v 1.653358 0.840652 -1.478117
v 1.653229 0.840044 -1.477728
v 1.653691 0.840057 -1.479079
v 1.653645 0.839375 -1.478951
v 1.653587 0.838694 -1.478786
v 1.653532 0.838013 -1.478632
v 1.653466 0.837331 -1.478446
v 1.653415 0.836566 -1.478302
v 1.653327 0.835871 -1.478055
v 1.653226 0.835904 -1.477715
v 1.653315 0.836594 -1.477973
v 1.653368 0.837331 -1.478130
v 1.653435 0.838013 -1.478327
v 1.653491 0.838694 -1.478493
v 1.653551 0.839375 -1.478670
v 1.653597 0.840057 -1.478809
v 1.653130 0.835978 -1.477406
v 1.653218 0.836649 -1.477669
v 1.653275 0.837331 -1.477842
v 1.653342 0.838013 -1.478046
v 1.653399 0.838694 -1.478219
v 1.653460 0.839375 -1.478402
v 1.653505 0.840057 -1.478544
v 1.653046 0.836079 -1.477133
v 1.653132 0.836729 -1.477393
v 1.653191 0.837331 -1.477579
v 1.653256 0.838013 -1.477780
v 1.653310 0.838694 -1.477951
v 1.653368 0.839375 -1.478132
v 1.653414 0.840057 -1.478282
v 1.653194 0.839355 -1.477615
v 1.653147 0.838694 -1.477471
v 1.653097 0.838054 -1.477308
v 1.653040 0.837435 -1.477118
v 1.652981 0.836894 -1.476932
v 1.652907 0.836298 -1.476696
v 1.653337 0.840057 -1.478044
v 1.653293 0.839371 -1.477904
v 1.653237 0.838697 -1.477732
v 1.653181 0.838033 -1.477554
v 1.653115 0.837378 -1.477346
v 1.653052 0.836808 -1.477149
v 1.652968 0.836180 -1.476888
v 1.708981 0.837155 -1.668640
v 1.708804 0.840652 -1.668058
v 1.653082 0.835482 -1.476861
v 1.653258 0.840652 -1.477452
v 1.709063 0.836464 -1.668913
v 1.708855 0.838732 -1.668223
v 1.652986 0.835921 -1.476549
v 1.653224 0.839364 -1.477334
v 1.653252 0.835213 -1.477423
v 1.653157 0.835320 -1.477116
v 1.708816 0.839653 -1.668104
v 1.653102 0.837524 -1.476928
v 1.653046 0.836967 -1.476750
v 1.652989 0.836428 -1.476557
v 1.653190 0.838718 -1.477227
v 1.709244 0.835176 -1.669518
v 1.653149 0.838106 -1.477090
v 1.653248 0.840050 -1.477411
v 1.652976 0.836172 -1.476509
v 1.653022 0.835687 -1.476670
v 1.653354 0.835176 -1.477775
v 1.708909 0.837905 -1.668407
v 1.709152 0.835847 -1.669214
v 1.709218 0.835446 -1.669434
v 1.709057 0.835195 -1.669465
v 1.709043 0.835434 -1.669378
v 1.708981 0.835835 -1.669160
v 1.708892 0.836453 -1.668859
v 1.708810 0.837146 -1.668586
v 1.708738 0.837899 -1.668353
v 1.708684 0.838727 -1.668168
v 1.708646 0.839651 -1.668049
v 1.708633 0.840652 -1.668004
v 1.709222 0.835176 -1.669445
v 1.709971 0.846129 -1.669228
v 1.709730 0.844149 -1.668423
v 1.709553 0.840652 -1.667841
v 1.709812 0.844841 -1.668696
v 1.709604 0.842573 -1.668006
v 1.709565 0.841651 -1.667887
v 1.709993 0.846129 -1.669301
v 1.709658 0.843399 -1.668190
v 1.709901 0.845457 -1.668997
v 1.709967 0.845859 -1.669217
v 1.653836 0.845822 -1.476643
v 1.654012 0.840652 -1.477233
v 1.653741 0.845383 -1.476331
v 1.653978 0.841941 -1.477116
v 1.654006 0.846091 -1.477204
v 1.653912 0.845985 -1.476897
v 1.653857 0.843780 -1.476710
v 1.653801 0.844338 -1.476532
v 1.653743 0.844877 -1.476338
v 1.653944 0.842587 -1.477008
v 1.653903 0.843198 -1.476872
v 1.654002 0.841255 -1.477193
v 1.653730 0.845132 -1.476290
v 1.653776 0.845617 -1.476452
v 1.654109 0.846129 -1.477557
v 1.709971 0.835176 -1.669228
v 1.709730 0.837155 -1.668423
v 1.709812 0.836464 -1.668696
v 1.709604 0.838732 -1.668006
v 1.709565 0.839653 -1.667887
v 1.709993 0.835176 -1.669301
v 1.709658 0.837905 -1.668190
v 1.709901 0.835847 -1.668997
v 1.709967 0.835446 -1.669217
v 1.653836 0.835482 -1.476643
v 1.653741 0.835921 -1.476331
v 1.653978 0.839364 -1.477116
v 1.654006 0.835213 -1.477204
v 1.653912 0.835320 -1.476897
v 1.653857 0.837524 -1.476710
v 1.653801 0.836967 -1.476532
v 1.653743 0.836428 -1.476338
v 1.653944 0.838718 -1.477008
v 1.653903 0.838106 -1.476872
v 1.654002 0.840050 -1.477193
v 1.653730 0.836172 -1.476290
v 1.653776 0.835687 -1.476452
v 1.654109 0.835176 -1.477557
v 2.017273 0.846129 -1.580816
v 2.017049 0.844149 -1.580006
v 2.016890 0.840652 -1.579419
v 2.017125 0.844841 -1.580280
v 2.016934 0.842573 -1.579585
v 2.016903 0.841651 -1.579464
v 2.017293 0.846129 -1.580890
v 2.016986 0.843399 -1.579770
v 2.017210 0.845457 -1.580583
v 2.017270 0.845859 -1.580804
v 1.962481 0.845822 -1.387844
v 1.962646 0.840652 -1.388438
v 1.962397 0.845383 -1.387529
v 1.962613 0.841941 -1.388320
v 1.962636 0.846091 -1.388410
v 1.962553 0.845985 -1.388100
v 1.962500 0.843780 -1.387912
v 1.962453 0.844338 -1.387731
v 1.962398 0.844877 -1.387537
v 1.962584 0.842587 -1.388211
v 1.962547 0.843198 -1.388073
v 1.962634 0.841255 -1.388398
v 1.962384 0.845132 -1.387489
v 1.962431 0.845617 -1.387650
v 1.962736 0.846129 -1.388763
v 2.017273 0.835176 -1.580816
v 2.017049 0.837155 -1.580006
v 2.017125 0.836464 -1.580280
v 2.016934 0.838731 -1.579585
v 2.016903 0.839653 -1.579464
v 2.017293 0.835176 -1.580890
v 2.016986 0.837905 -1.579770
v 2.017210 0.835847 -1.580583
v 2.017270 0.835446 -1.580804
v 1.962481 0.835482 -1.387844
v 1.962397 0.835921 -1.387529
v 1.962613 0.839364 -1.388320
v 1.962636 0.835213 -1.388410
v 1.962553 0.835320 -1.388100
v 1.962500 0.837524 -1.387912
v 1.962453 0.836967 -1.387731
v 1.962398 0.836427 -1.387537
v 1.962584 0.838718 -1.388211
v 1.962547 0.838106 -1.388073
v 1.962634 0.840050 -1.388398
v 1.962384 0.836172 -1.387489
v 1.962431 0.835687 -1.387650
v 1.962736 0.835176 -1.388763
vn 0.0773 0.9942 0.0745
vn 0.7359 0.6452 0.2052
vn 0.0568 0.9983 0.0159
vn 0.7043 0.6271 0.3328
vn 0.7430 0.6240 0.2420
vn -0.0236 0.9032 0.4286
vn 0.0341 0.9736 0.2258
vn -0.0797 0.7792 0.6217
vn 0.6677 0.5824 0.4637
vn -0.1292 0.5910 0.7962
vn 0.6299 0.5049 0.5902
vn -0.1689 0.3226 0.9313
vn 0.6018 0.3802 0.7023
vn 0.6123 -0.0230 0.7903
vn 0.5798 0.1951 0.7911
vn -0.1742 -0.2709 0.9467
vn -0.1836 -0.0141 0.9829
vn -0.1697 -0.3329 0.9276
vn 0.6544 -0.1448 0.7421
vn 0.6637 -0.1645 0.7297
vn 0.6699 -0.1840 0.7193
vn -0.1731 -0.2968 0.9391
vn 0.6606 -0.1385 0.7378
vn -0.1768 -0.2513 0.9516
vn 0.6535 -0.1114 0.7486
vn -0.1799 -0.1991 0.9633
vn 0.6419 -0.0817 0.7624
vn -0.1835 -0.1444 0.9724
vn 0.6329 -0.0517 0.7725
vn -0.1863 -0.0000 0.9825
vn -0.1848 -0.0926 0.9784
vn 0.9160 -0.1123 -0.3851
vn 0.3599 -0.0903 -0.9286
vn 0.3563 -0.1798 -0.9169
vn 0.3515 -0.2662 -0.8975
vn 0.9075 -0.2162 -0.3601
vn 0.3447 -0.3435 -0.8736
vn 0.3372 -0.4160 -0.8445
vn 0.9624 -0.0431 0.2684
vn 0.9627 -0.0253 0.2694
vn 0.3286 -0.4728 -0.8176
vn 0.9025 -0.2624 -0.3414
vn 0.9185 -0.0000 -0.3954
vn 0.3602 -0.0000 -0.9329
vn 0.3332 -0.4100 -0.8491
vn 0.7921 0.4387 -0.4244
vn 0.8796 -0.2980 -0.3709
vn 0.9660 -0.0369 0.2557
vn 0.9683 -0.0330 0.2474
vn 0.9702 -0.0314 0.2404
vn 0.9757 -0.0000 0.2191
vn 0.9682 -0.0045 0.2502
vn 0.9743 0.0024 0.2253
vn 0.9672 -0.0079 0.2540
vn 0.9726 -0.0001 0.2325
vn 0.9663 -0.0092 0.2574
vn 0.9710 -0.0021 0.2389
vn 0.9653 -0.0112 0.2611
vn 0.9695 -0.0044 0.2451
vn 0.9645 -0.0110 0.2640
vn 0.9680 -0.0053 0.2510
vn 0.9635 -0.0147 0.2672
vn 0.9667 -0.0089 0.2556
vn 0.9758 -0.0000 0.2187
vn 0.9746 0.0057 0.2237
vn 0.9732 0.0033 0.2297
vn 0.9719 0.0013 0.2355
vn 0.9705 -0.0004 0.2412
vn 0.9690 -0.0020 0.2471
vn 0.9724 -0.0000 0.2334
vn 0.9720 0.0055 0.2348
vn 0.9717 0.0032 0.2364
vn 0.9715 0.0024 0.2371
vn 0.9707 0.0019 0.2403
vn 0.9693 0.0007 0.2460
vn 0.9687 -0.0021 0.2481
vn 0.6386 -0.0000 0.7695
vn 0.9838 0.0113 0.1787
vn 0.9823 -0.0000 0.1875
vn 0.9717 0.0049 0.2362
vn 0.9710 -0.0000 0.2391
vn 0.9854 0.0147 0.1698
vn 0.9722 0.0034 0.2343
vn 0.9870 0.0214 0.1591
vn 0.9727 0.0042 0.2322
vn 0.9876 0.0299 0.1542
vn 0.9721 0.0052 0.2346
vn 0.9705 0.0043 0.2410
vn 0.9875 0.0346 0.1540
vn 0.9701 0.0022 0.2426
vn 0.9880 0.0398 0.1492
vn 0.9936 0.0092 0.1122
vn 0.9728 -0.0359 0.2287
vn 0.8943 -0.3031 -0.3292
vn 0.9629 -0.0017 0.2699
vn 0.9630 0.0012 0.2693
vn 0.9629 0.0023 0.2697
vn 0.9626 0.0017 0.2709
vn 0.9627 0.0020 0.2705
vn 0.9629 0.0014 0.2698
vn 0.9688 -0.0000 0.2477
vn 0.9627 -0.0000 0.2704
vn -0.0140 0.9987 0.0488
vn -0.0000 1.0000 0.0003
vn -0.0578 0.9778 0.2014
vn -0.1162 0.9068 0.4052
vn -0.1719 0.7819 0.5993
vn -0.2220 0.5925 0.7744
vn -0.2608 0.3236 0.9095
vn -0.2652 -0.2721 0.9250
vn -0.2757 -0.0142 0.9611
vn -0.2596 -0.3342 0.9060
vn -0.2667 -0.2523 0.9302
vn -0.2632 -0.2977 0.9176
vn -0.2700 -0.1998 0.9419
vn -0.2727 -0.1446 0.9512
vn -0.2755 0.0001 0.9613
vn -0.2745 -0.0930 0.9571
vn 0.2744 -0.0908 -0.9573
vn 0.2711 -0.1807 -0.9454
vn 0.2656 -0.2679 -0.9261
vn 0.2586 -0.3451 -0.9022
vn 0.2502 -0.4182 -0.8732
vn 0.2758 -0.0000 -0.9612
vn 0.2519 -0.4055 -0.8787
vn 0.3104 0.5843 -0.7498
vn 0.2424 -0.4751 -0.8459
vn 0.9129 -0.1664 -0.3728
vn 0.9179 -0.0561 -0.3929
vn 0.2233 0.5872 -0.7780
vn -0.7322 0.6454 -0.2176
vn -0.1051 0.9942 0.0221
vn -0.0565 0.9983 -0.0166
vn -0.7733 0.6273 -0.0922
vn -0.1488 0.9736 0.1733
vn -0.2080 0.9032 0.3755
vn -0.8121 0.5822 0.0381
vn -0.2629 0.7790 0.5692
vn -0.8470 0.5051 0.1658
vn -0.3133 0.5907 0.7436
vn -0.8831 0.3798 0.2756
vn -0.3519 0.3225 0.8787
vn -0.9390 -0.0227 0.3432
vn -0.3664 -0.0139 0.9304
vn -0.3559 -0.2708 0.8944
vn -0.9490 -0.1446 0.2802
vn -0.3495 -0.3331 0.8757
vn -0.9500 -0.1640 0.2657
vn -0.3524 -0.2967 0.8876
vn -0.9517 -0.1383 0.2740
vn -0.3559 -0.2511 0.9002
vn -0.9515 -0.1116 0.2868
vn -0.3593 -0.1992 0.9117
vn -0.9488 -0.0820 0.3051
vn -0.3609 -0.1444 0.9214
vn -0.9467 -0.0515 0.3179
vn -0.3639 -0.0924 0.9268
vn -0.3642 -0.0000 0.9313
vn 0.1885 -0.0903 -0.9779
vn -0.5707 -0.1124 -0.8134
vn 0.1850 -0.1797 -0.9662
vn 0.1795 -0.2665 -0.9470
vn -0.5735 -0.1676 -0.8018
vn -0.5773 -0.2152 -0.7877
vn 0.1723 -0.3434 -0.9232
vn 0.1641 -0.4161 -0.8944
vn -0.5828 -0.2629 -0.7689
vn -0.9578 -0.0429 -0.2841
vn -0.9584 -0.0260 -0.2841
vn 0.1554 -0.4723 -0.8677
vn -0.5682 -0.0000 -0.8229
vn 0.1892 -0.0000 -0.9819
vn 0.1700 -0.4100 -0.8961
vn -0.4451 0.4389 -0.7806
vn 0.1357 0.5844 -0.8000
vn -0.9542 -0.0369 -0.2968
vn -0.7580 0.6240 -0.1898
vn -0.9518 -0.0330 -0.3049
vn -0.9496 -0.0316 -0.3119
vn -0.9430 -0.0000 -0.3329
vn -0.9531 -0.0043 -0.3025
vn -0.9523 -0.0000 -0.3050
vn -0.9450 0.0026 -0.3269
vn -0.9543 -0.0079 -0.2988
vn -0.9475 -0.0002 -0.3198
vn -0.9554 -0.0095 -0.2953
vn -0.9496 -0.0023 -0.3135
vn -0.9565 -0.0111 -0.2916
vn -0.9516 -0.0044 -0.3075
vn -0.9573 -0.0108 -0.2889
vn -0.9533 -0.0052 -0.3021
vn -0.9582 -0.0146 -0.2858
vn -0.9547 -0.0091 -0.2974
vn -0.9428 -0.0000 -0.3333
vn -0.9446 0.0059 -0.3283
vn -0.9466 0.0033 -0.3225
vn -0.9484 0.0013 -0.3172
vn -0.9503 -0.0006 -0.3113
vn -0.9521 -0.0021 -0.3057
vn -0.9534 -0.0054 -0.3018
vn -0.9478 -0.0000 -0.3188
vn -0.9483 0.0057 -0.3174
vn -0.9486 0.0033 -0.3166
vn -0.9489 0.0027 -0.3156
vn -0.9501 0.0018 -0.3121
vn -0.9519 0.0007 -0.3065
vn -0.9525 -0.0021 -0.3045
vn -0.9498 -0.0000 0.3128
vn -0.9284 0.0112 -0.3714
vn -0.9316 -0.0000 -0.3636
vn -0.9486 0.0048 -0.3165
vn -0.9495 -0.0000 -0.3137
vn -0.9250 0.0146 -0.3797
vn -0.9480 0.0034 -0.3184
vn -0.9206 0.0215 -0.3898
vn -0.9473 0.0043 -0.3203
vn -0.9185 0.0299 -0.3943
vn -0.9481 0.0053 -0.3180
vn -0.9502 0.0043 -0.3115
vn -0.9498 -0.1846 0.2527
vn -0.9184 0.0349 -0.3941
vn -0.9507 0.0022 -0.3100
vn -0.9162 0.0395 -0.3988
vn -0.9013 0.0091 -0.4332
vn -0.9117 0.1950 0.3617
vn -0.9456 -0.0361 -0.3233
vn -0.5463 -0.2985 -0.7826
vn -0.9589 -0.0031 -0.2838
vn -0.9591 0.0010 -0.2832
vn -0.9590 0.0030 -0.2834
vn -0.9590 0.0013 -0.2835
vn -0.9590 0.0016 -0.2835
vn -0.9595 0.0014 -0.2818
vn -0.9590 -0.0000 -0.2834
vn -0.0141 0.9987 0.0488
vn -0.0000 1.0000 -0.0004
vn -0.0581 0.9778 0.2013
vn -0.1169 0.9070 0.4046
vn -0.1731 0.7818 0.5991
vn -0.2236 0.5921 0.7742
vn -0.2626 0.3236 0.9091
vn -0.2773 -0.0139 0.9607
vn -0.2668 -0.2717 0.9246
vn -0.2614 -0.3342 0.9055
vn -0.2648 -0.2977 0.9172
vn -0.2684 -0.2523 0.9297
vn -0.2718 -0.1998 0.9414
vn -0.2744 -0.1446 0.9507
vn -0.2759 -0.0929 0.9567
vn -0.2773 -0.0001 0.9608
vn 0.2762 -0.0908 -0.9568
vn 0.2729 -0.1807 -0.9449
vn 0.2673 -0.2680 -0.9256
vn 0.2604 -0.3451 -0.9017
vn 0.2519 -0.4181 -0.8728
vn 0.2439 -0.4751 -0.8455
vn 0.2774 -0.0000 -0.9607
vn 0.2534 -0.4053 -0.8784
vn 0.2243 0.5868 -0.7780
vn -0.5823 -0.3027 -0.7545
vn -0.5699 -0.0560 -0.8198
vn 0.7361 -0.6449 0.2057
vn 0.0773 -0.9942 0.0746
vn 0.0568 -0.9983 0.0158
vn 0.7043 -0.6271 0.3327
vn 0.0341 -0.9736 0.2257
vn -0.0236 -0.9033 0.4284
vn 0.6676 -0.5824 0.4637
vn -0.0797 -0.7792 0.6217
vn 0.6299 -0.5048 0.5902
vn -0.1294 -0.5910 0.7962
vn 0.6017 -0.3800 0.7025
vn -0.1689 -0.3225 0.9314
vn 0.6123 0.0231 0.7903
vn -0.1836 0.0141 0.9829
vn -0.1742 0.2708 0.9467
vn 0.6544 0.1447 0.7421
vn -0.1694 0.3329 0.9276
vn 0.6638 0.1645 0.7296
vn -0.1731 0.2968 0.9391
vn 0.6607 0.1384 0.7378
vn -0.1768 0.2513 0.9516
vn 0.6535 0.1114 0.7487
vn -0.1799 0.1991 0.9633
vn 0.6419 0.0817 0.7624
vn -0.1835 0.1444 0.9724
vn 0.6332 0.0517 0.7722
vn -0.1842 0.0926 0.9785
vn 0.3600 0.0903 -0.9286
vn 0.9160 0.1123 -0.3852
vn 0.3563 0.1797 -0.9169
vn 0.3515 0.2662 -0.8975
vn 0.9129 0.1663 -0.3727
vn 0.9075 0.2162 -0.3602
vn 0.3447 0.3435 -0.8736
vn 0.3370 0.4160 -0.8446
vn 0.9025 0.2625 -0.3415
vn 0.9623 0.0431 0.2684
vn 0.9627 0.0254 0.2694
vn 0.3288 0.4727 -0.8176
vn 0.3330 0.4100 -0.8491
vn 0.7924 -0.4388 -0.4238
vn 0.3110 -0.5842 -0.7497
vn 0.9661 0.0369 0.2557
vn 0.7430 -0.6240 0.2422
vn 0.9683 0.0330 0.2475
vn 0.9701 0.0315 0.2405
vn 0.9682 0.0045 0.2502
vn 0.9743 -0.0024 0.2253
vn 0.9672 0.0079 0.2540
vn 0.9726 0.0001 0.2325
vn 0.9663 0.0092 0.2573
vn 0.9710 0.0021 0.2389
vn 0.9653 0.0112 0.2610
vn 0.9695 0.0044 0.2452
vn 0.9645 0.0110 0.2640
vn 0.9680 0.0053 0.2509
vn 0.9635 0.0147 0.2672
vn 0.9667 0.0089 0.2557
vn 0.9746 -0.0057 0.2237
vn 0.9732 -0.0033 0.2297
vn 0.9719 -0.0013 0.2355
vn 0.9705 0.0004 0.2412
vn 0.9690 0.0020 0.2471
vn 0.9680 0.0053 0.2510
vn 0.9720 -0.0055 0.2348
vn 0.9716 -0.0032 0.2364
vn 0.9715 -0.0024 0.2371
vn 0.9707 -0.0019 0.2403
vn 0.9693 -0.0007 0.2460
vn 0.9687 0.0021 0.2481
vn 0.9838 -0.0113 0.1787
vn 0.9717 -0.0049 0.2362
vn 0.9854 -0.0147 0.1698
vn 0.9722 -0.0034 0.2343
vn 0.9870 -0.0214 0.1591
vn 0.9727 -0.0042 0.2321
vn 0.9876 -0.0299 0.1542
vn 0.9721 -0.0052 0.2345
vn 0.9705 -0.0043 0.2410
vn 0.6701 0.1839 0.7191
vn 0.9875 -0.0346 0.1541
vn 0.9701 -0.0022 0.2426
vn 0.9880 -0.0398 0.1492
vn 0.9936 -0.0092 0.1122
vn 0.5799 -0.1950 0.7910
vn 0.9728 0.0360 0.2287
vn 0.8793 0.2983 -0.3713
vn 0.9628 0.0017 0.2701
vn 0.9630 -0.0012 0.2695
vn 0.9629 -0.0023 0.2697
vn 0.9626 -0.0017 0.2710
vn 0.9627 -0.0020 0.2704
vn 0.9629 -0.0013 0.2699
vn -0.0140 -0.9987 0.0489
vn -0.0000 -1.0000 0.0002
vn -0.0578 -0.9778 0.2016
vn -0.1163 -0.9068 0.4052
vn -0.1719 -0.7817 0.5995
vn -0.2221 -0.5924 0.7744
vn -0.2609 -0.3237 0.9095
vn -0.2758 0.0142 0.9611
vn -0.2653 0.2721 0.9250
vn -0.2596 0.3342 0.9061
vn -0.2632 0.2977 0.9177
vn -0.2667 0.2523 0.9302
vn -0.2700 0.1998 0.9419
vn -0.2727 0.1446 0.9512
vn -0.2743 0.0931 0.9571
vn 0.2745 0.0908 -0.9573
vn 0.2711 0.1807 -0.9454
vn 0.2656 0.2679 -0.9261
vn 0.2586 0.3451 -0.9022
vn 0.2503 0.4182 -0.8732
vn 0.2425 0.4751 -0.8459
vn 0.2520 0.4054 -0.8787
vn 0.2231 -0.5872 -0.7781
vn 0.8945 0.3030 -0.3288
vn 0.9179 0.0561 -0.3927
vn -0.1049 -0.9942 0.0223
vn -0.7322 -0.6454 -0.2175
vn -0.0565 -0.9983 -0.0168
vn -0.7734 -0.6272 -0.0922
vn -0.7579 -0.6243 -0.1894
vn -0.2080 -0.9031 0.3757
vn -0.1490 -0.9736 0.1730
vn -0.2627 -0.7789 0.5694
vn -0.8121 -0.5823 0.0384
vn -0.3133 -0.5907 0.7436
vn -0.8470 -0.5050 0.1660
vn -0.3520 -0.3225 0.8787
vn -0.8831 -0.3797 0.2756
vn -0.9389 0.0225 0.3435
vn -0.9117 -0.1948 0.3618
vn -0.3558 0.2708 0.8945
vn -0.3667 0.0139 0.9302
vn -0.3493 0.3332 0.8758
vn -0.9488 0.1448 0.2806
vn -0.9501 0.1641 0.2654
vn -0.9497 0.1847 0.2527
vn -0.3524 0.2967 0.8876
vn -0.9517 0.1383 0.2742
vn -0.3558 0.2511 0.9002
vn -0.9515 0.1116 0.2868
vn -0.3593 0.1992 0.9117
vn -0.9489 0.0819 0.3047
vn -0.3612 0.1444 0.9212
vn -0.9465 0.0516 0.3184
vn -0.3633 0.0924 0.9271
vn -0.5703 0.1124 -0.8137
vn 0.1887 0.0904 -0.9779
vn 0.1854 0.1797 -0.9661
vn 0.1793 0.2665 -0.9470
vn -0.5771 0.2151 -0.7878
vn 0.1723 0.3433 -0.9233
vn 0.1643 0.4161 -0.8944
vn -0.9578 0.0429 -0.2842
vn -0.9584 0.0261 -0.2842
vn 0.1554 0.4724 -0.8676
vn -0.5831 0.2629 -0.7687
vn 0.1700 0.4101 -0.8961
vn -0.4451 -0.4389 -0.7805
vn -0.5463 0.2986 -0.7826
vn -0.9542 0.0369 -0.2968
vn -0.9518 0.0330 -0.3049
vn -0.9496 0.0316 -0.3119
vn -0.9531 0.0043 -0.3025
vn -0.9450 -0.0026 -0.3270
vn -0.9543 0.0078 -0.2988
vn -0.9475 0.0002 -0.3198
vn -0.9554 0.0095 -0.2953
vn -0.9496 0.0023 -0.3135
vn -0.9565 0.0111 -0.2916
vn -0.9515 0.0044 -0.3075
vn -0.9573 0.0108 -0.2889
vn -0.9533 0.0052 -0.3021
vn -0.9582 0.0146 -0.2858
vn -0.9547 0.0091 -0.2973
vn -0.9445 -0.0059 -0.3283
vn -0.9465 -0.0033 -0.3226
vn -0.9484 -0.0013 -0.3172
vn -0.9503 0.0006 -0.3114
vn -0.9521 0.0021 -0.3057
vn -0.9534 0.0054 -0.3018
vn -0.9483 -0.0057 -0.3173
vn -0.9486 -0.0033 -0.3166
vn -0.9489 -0.0027 -0.3155
vn -0.9500 -0.0018 -0.3123
vn -0.9519 -0.0007 -0.3064
vn -0.9525 0.0021 -0.3046
vn -0.9284 -0.0112 -0.3713
vn -0.9486 -0.0048 -0.3164
vn -0.9250 -0.0146 -0.3797
vn -0.9480 -0.0034 -0.3184
vn -0.9206 -0.0215 -0.3898
vn -0.9473 -0.0043 -0.3202
vn -0.9185 -0.0298 -0.3942
vn -0.9480 -0.0053 -0.3182
vn -0.9503 -0.0043 -0.3114
vn -0.9183 -0.0349 -0.3942
vn -0.9507 -0.0022 -0.3100
vn -0.9161 -0.0395 -0.3989
vn -0.9013 -0.0090 -0.4330
vn -0.9456 0.0361 -0.3234
vn -0.5823 0.3028 -0.7545
vn -0.9588 0.0031 -0.2839
vn -0.9591 -0.0010 -0.2829
vn -0.9589 -0.0030 -0.2836
vn -0.9589 -0.0013 -0.2837
vn -0.9590 -0.0017 -0.2834
vn -0.9595 -0.0014 -0.2818
vn -0.0141 -0.9987 0.0488
vn -0.0000 -1.0000 -0.0000
vn -0.0581 -0.9778 0.2015
vn -0.1169 -0.9069 0.4049
vn -0.1731 -0.7819 0.5989
vn -0.2236 -0.5923 0.7741
vn -0.2625 -0.3235 0.9091
vn -0.2669 0.2718 0.9246
vn -0.2774 0.0140 0.9607
vn -0.2614 0.3342 0.9055
vn -0.2684 0.2522 0.9297
vn -0.2648 0.2977 0.9172
vn -0.2719 0.1998 0.9414
vn -0.2744 0.1446 0.9507
vn -0.2760 0.0929 0.9567
vn 0.2762 0.0908 -0.9568
vn 0.2727 0.1808 -0.9450
vn 0.2673 0.2680 -0.9256
vn 0.2604 0.3452 -0.9017
vn 0.2520 0.4181 -0.8727
vn 0.2534 0.4053 -0.8783
vn 0.1356 -0.5842 -0.8002
vn 0.2440 0.4751 -0.8454
vn -0.5736 0.1676 -0.8018
vn -0.5697 0.0561 -0.8199
vn 0.2244 -0.5872 -0.7777
vt 0.254785 0.509614
vt 0.256796 0.289858
vt 0.257041 0.289830
vt 0.254521 0.511068
vt 0.254531 0.509612
vt 0.254764 0.512402
vt 0.254778 0.511071
vt 0.254756 0.513616
vt 0.254506 0.512400
vt 0.254743 0.514729
vt 0.254497 0.513614
vt 0.254735 0.515752
vt 0.254483 0.514727
vt 0.254456 0.516702
vt 0.254475 0.515748
vt 0.840911 0.338764
vt 0.841166 0.339699
vt 0.840915 0.339721
vt 0.840910 0.336639
vt 0.841156 0.338763
vt 0.841143 0.334472
vt 0.841150 0.336639
vt 0.840903 0.334473
vt 0.841143 0.332239
vt 0.840904 0.332239
vt 0.841141 0.329929
vt 0.840902 0.329929
vt 0.841136 0.327514
vt 0.840897 0.327514
vt 0.841134 0.324971
vt 0.840898 0.322750
vt 0.840895 0.324971
vt 0.254391 0.275770
vt 0.254459 0.272143
vt 0.254701 0.275739
vt 0.255067 0.278989
vt 0.255261 0.282014
vt 0.255531 0.281965
vt 0.256066 0.284734
vt 0.256884 0.289525
vt 0.046114 0.285984
vt 0.256745 0.288686
vt 0.256636 0.287219
vt 0.255833 0.284781
vt 0.254041 0.268263
vt 0.254371 0.268263
vt 0.257021 0.288769
vt 0.256953 0.289575
vt 0.256905 0.288788
vt 0.044763 0.285857
vt 0.045114 0.288437
vt 0.043735 0.288293
vt 0.043536 0.285577
vt 0.042537 0.287902
vt 0.041554 0.287312
vt 0.042450 0.285198
vt 0.049501 0.268360
vt 0.050293 0.270554
vt 0.049206 0.270553
vt 0.049773 0.273065
vt 0.048647 0.273063
vt 0.049102 0.275577
vt 0.047932 0.275573
vt 0.048472 0.278087
vt 0.047255 0.278083
vt 0.047716 0.280599
vt 0.046454 0.280594
vt 0.047122 0.283421
vt 0.045814 0.283312
vt 0.048475 0.268360
vt 0.048141 0.270552
vt 0.047573 0.273061
vt 0.046833 0.275569
vt 0.046131 0.278078
vt 0.045304 0.280589
vt 0.044601 0.283104
vt 0.047365 0.268361
vt 0.047090 0.270551
vt 0.046489 0.273058
vt 0.045760 0.275565
vt 0.045071 0.278074
vt 0.044256 0.280584
vt 0.043501 0.282803
vt 0.044005 0.268362
vt 0.044877 0.270595
vt 0.043846 0.270582
vt 0.045127 0.268361
vt 0.046141 0.270550
vt 0.046430 0.268361
vt 0.044422 0.273127
vt 0.043531 0.273107
vt 0.045580 0.273074
vt 0.043839 0.275559
vt 0.043090 0.275488
vt 0.044885 0.275551
vt 0.043179 0.277912
vt 0.042535 0.277743
vt 0.044164 0.277995
vt 0.041883 0.279893
vt 0.043322 0.280407
vt 0.042411 0.280192
vt 0.041160 0.281951
vt 0.042528 0.282507
vt 0.041659 0.282186
vt 0.040389 0.283933
vt 0.040708 0.284385
vt 0.041474 0.284821
vt 0.040204 0.284846
vt 0.040354 0.285735
vt 0.040815 0.286572
vt 0.256474 0.287247
vt 0.256263 0.287145
vt 0.255554 0.284711
vt 0.254950 0.281964
vt 0.254445 0.278996
vt 0.254044 0.275747
vt 0.253780 0.272147
vt 0.050537 0.268359
vt 0.253675 0.268263
vt 0.255735 0.509623
vt 0.257873 0.289876
vt 0.255727 0.511079
vt 0.255713 0.512411
vt 0.255704 0.513624
vt 0.255691 0.514737
vt 0.255683 0.515763
vt 0.254720 0.516729
vt 0.839999 0.338766
vt 0.840000 0.339725
vt 0.839997 0.336640
vt 0.839992 0.332240
vt 0.839991 0.334474
vt 0.839989 0.329930
vt 0.839984 0.327515
vt 0.839984 0.322750
vt 0.839982 0.324971
vt 0.255481 0.272097
vt 0.255705 0.275648
vt 0.256043 0.278856
vt 0.256473 0.281801
vt 0.256951 0.284554
vt 0.255403 0.268263
vt 0.257707 0.288662
vt 0.257114 0.289618
vt 0.257407 0.287054
vt 0.254776 0.279032
vt 0.254138 0.272159
vt 0.257825 0.289612
vt 0.548872 0.291333
vt 0.548747 0.511071
vt 0.548643 0.291304
vt 0.548997 0.512525
vt 0.548740 0.512526
vt 0.548742 0.513857
vt 0.549000 0.513857
vt 0.548738 0.515072
vt 0.548997 0.515073
vt 0.548739 0.516185
vt 0.548999 0.516185
vt 0.548736 0.517206
vt 0.549004 0.518156
vt 0.548741 0.518180
vt 0.558097 0.339684
vt 0.558351 0.338750
vt 0.558347 0.339706
vt 0.558106 0.338750
vt 0.558351 0.336627
vt 0.558118 0.334458
vt 0.558357 0.334459
vt 0.558118 0.332225
vt 0.558357 0.332225
vt 0.558120 0.329914
vt 0.558359 0.329914
vt 0.558125 0.327501
vt 0.558364 0.327501
vt 0.558127 0.324960
vt 0.558366 0.324960
vt 0.558364 0.322740
vt 0.551894 0.273186
vt 0.551869 0.276960
vt 0.551549 0.276914
vt 0.551075 0.280275
vt 0.551374 0.280333
vt 0.550775 0.283406
vt 0.550499 0.283343
vt 0.549850 0.286186
vt 0.550084 0.286246
vt 0.774861 0.286155
vt 0.548772 0.291078
vt 0.548962 0.290230
vt 0.549165 0.288715
vt 0.552421 0.269162
vt 0.552075 0.269153
vt 0.548701 0.290269
vt 0.548716 0.291077
vt 0.548571 0.291106
vt 0.776316 0.286078
vt 0.775826 0.288829
vt 0.777643 0.285832
vt 0.777311 0.288735
vt 0.779693 0.287778
vt 0.778823 0.285474
vt 0.772007 0.267107
vt 0.771059 0.269425
vt 0.770894 0.267061
vt 0.772226 0.269473
vt 0.771506 0.272143
vt 0.772714 0.272191
vt 0.772115 0.274867
vt 0.773371 0.274914
vt 0.772681 0.277586
vt 0.773985 0.277636
vt 0.773381 0.280313
vt 0.774734 0.280363
vt 0.773894 0.283365
vt 0.775300 0.283305
vt 0.773108 0.267153
vt 0.773369 0.269519
vt 0.773867 0.272236
vt 0.774550 0.274959
vt 0.775191 0.277681
vt 0.775967 0.280408
vt 0.776609 0.283135
vt 0.774300 0.267202
vt 0.774497 0.269565
vt 0.775030 0.272281
vt 0.775700 0.275003
vt 0.776328 0.277723
vt 0.777089 0.280450
vt 0.777802 0.282860
vt 0.777905 0.267353
vt 0.776870 0.269711
vt 0.776702 0.267303
vt 0.775515 0.269607
vt 0.775303 0.267244
vt 0.777976 0.269743
vt 0.777243 0.272448
vt 0.776004 0.272339
vt 0.778200 0.272467
vt 0.777761 0.275081
vt 0.776639 0.275027
vt 0.778566 0.275039
vt 0.778363 0.277633
vt 0.777303 0.277679
vt 0.779663 0.279814
vt 0.779060 0.277481
vt 0.778099 0.280301
vt 0.780347 0.282050
vt 0.779084 0.280110
vt 0.778857 0.282586
vt 0.781087 0.284207
vt 0.779802 0.282280
vt 0.780726 0.284677
vt 0.781246 0.285194
vt 0.781047 0.286140
vt 0.779886 0.285111
vt 0.780517 0.287017
vt 0.548807 0.290311
vt 0.549534 0.288671
vt 0.550370 0.286187
vt 0.551096 0.283367
vt 0.551717 0.280310
vt 0.552229 0.276951
vt 0.552601 0.273216
vt 0.552804 0.269171
vt 0.547555 0.511071
vt 0.547599 0.291314
vt 0.547549 0.512525
vt 0.547550 0.513856
vt 0.547547 0.515070
vt 0.547549 0.516183
vt 0.547547 0.517208
vt 0.547544 0.518182
vt 0.559495 0.338753
vt 0.559495 0.339710
vt 0.559497 0.336628
vt 0.559503 0.334460
vt 0.559502 0.332227
vt 0.559505 0.329915
vt 0.559510 0.327502
vt 0.559511 0.324960
vt 0.559510 0.322740
vt 0.550581 0.273091
vt 0.550260 0.276758
vt 0.549822 0.280064
vt 0.549294 0.283091
vt 0.548720 0.285910
vt 0.548180 0.288453
vt 0.550746 0.269123
vt 0.547827 0.290081
vt 0.547670 0.291043
vt 0.549321 0.288760
vt 0.552228 0.273214
vt 0.256740 0.246666
vt 0.255744 0.026190
vt 0.256982 0.246691
vt 0.255471 0.024737
vt 0.255729 0.024733
vt 0.255700 0.023398
vt 0.255441 0.023403
vt 0.255675 0.022175
vt 0.255413 0.022181
vt 0.255643 0.021050
vt 0.255377 0.021056
vt 0.255622 0.020000
vt 0.255348 0.019023
vt 0.255619 0.019001
vt 0.841164 0.305795
vt 0.840910 0.306730
vt 0.840913 0.305772
vt 0.841154 0.306731
vt 0.840909 0.308855
vt 0.841143 0.311023
vt 0.840903 0.311023
vt 0.841143 0.313257
vt 0.840904 0.313257
vt 0.841141 0.315571
vt 0.840902 0.315570
vt 0.841136 0.317984
vt 0.840897 0.317984
vt 0.841134 0.320527
vt 0.840895 0.320527
vt 0.254455 0.264382
vt 0.254383 0.260754
vt 0.254693 0.260785
vt 0.255053 0.257534
vt 0.254762 0.257491
vt 0.255241 0.254508
vt 0.255511 0.254556
vt 0.256039 0.251785
vt 0.255806 0.251739
vt 0.046100 0.250744
vt 0.256839 0.246997
vt 0.256704 0.247835
vt 0.256601 0.249299
vt 0.256978 0.247750
vt 0.256901 0.246947
vt 0.257061 0.246902
vt 0.044749 0.250874
vt 0.045097 0.248293
vt 0.043523 0.251155
vt 0.043718 0.248439
vt 0.041538 0.249424
vt 0.042438 0.251535
vt 0.050292 0.266167
vt 0.049205 0.266168
vt 0.049770 0.263655
vt 0.048644 0.263658
vt 0.049097 0.261145
vt 0.047926 0.261149
vt 0.048464 0.258636
vt 0.047248 0.258641
vt 0.047706 0.256125
vt 0.046445 0.256132
vt 0.047110 0.253304
vt 0.045803 0.253415
vt 0.048140 0.266169
vt 0.047570 0.263661
vt 0.046828 0.261154
vt 0.046124 0.258646
vt 0.045296 0.256138
vt 0.044591 0.253625
vt 0.047089 0.266171
vt 0.046486 0.263664
vt 0.045756 0.261159
vt 0.045065 0.258651
vt 0.044249 0.256143
vt 0.043492 0.253927
vt 0.044876 0.266128
vt 0.046140 0.266172
vt 0.043845 0.266142
vt 0.044420 0.263597
vt 0.045578 0.263649
vt 0.043529 0.263617
vt 0.043835 0.261167
vt 0.044881 0.261173
vt 0.043087 0.261237
vt 0.043174 0.258815
vt 0.044159 0.258731
vt 0.041879 0.256836
vt 0.042531 0.258983
vt 0.043315 0.256321
vt 0.041155 0.254781
vt 0.042406 0.256537
vt 0.042520 0.254224
vt 0.040381 0.252803
vt 0.041653 0.254546
vt 0.040699 0.252351
vt 0.040195 0.251891
vt 0.040342 0.251002
vt 0.041463 0.251914
vt 0.040801 0.250165
vt 0.256863 0.247731
vt 0.256228 0.249377
vt 0.255527 0.251811
vt 0.254930 0.254559
vt 0.254431 0.257527
vt 0.254035 0.260777
vt 0.253775 0.264378
vt 0.256699 0.026181
vt 0.257811 0.246645
vt 0.256681 0.024716
vt 0.256654 0.023379
vt 0.256633 0.022154
vt 0.256609 0.021034
vt 0.256597 0.019992
vt 0.256595 0.019003
vt 0.839998 0.306728
vt 0.839998 0.305769
vt 0.839996 0.308854
vt 0.839991 0.311022
vt 0.839991 0.313256
vt 0.839989 0.315570
vt 0.839984 0.317983
vt 0.839982 0.320527
vt 0.255478 0.264427
vt 0.255698 0.260875
vt 0.256031 0.257665
vt 0.256454 0.254718
vt 0.256925 0.251962
vt 0.257374 0.249459
vt 0.257663 0.247850
vt 0.257771 0.246904
vt 0.256439 0.249273
vt 0.254133 0.264367
vt 0.550670 0.026136
vt 0.549771 0.246583
vt 0.549530 0.246619
vt 0.550928 0.024676
vt 0.550925 0.026137
vt 0.550677 0.023339
vt 0.550670 0.024675
vt 0.550679 0.022120
vt 0.550936 0.023340
vt 0.550686 0.021004
vt 0.550939 0.022121
vt 0.550688 0.019979
vt 0.550947 0.021005
vt 0.550961 0.019027
vt 0.550948 0.019982
vt 0.558349 0.306729
vt 0.558095 0.305795
vt 0.558345 0.305773
vt 0.558350 0.308853
vt 0.558104 0.306730
vt 0.558117 0.311021
vt 0.558109 0.308853
vt 0.558356 0.311021
vt 0.558117 0.313255
vt 0.558356 0.313254
vt 0.558120 0.315566
vt 0.558359 0.315566
vt 0.558125 0.317979
vt 0.558364 0.317979
vt 0.558127 0.320520
vt 0.558366 0.320520
vt 0.552207 0.261324
vt 0.552065 0.265110
vt 0.551879 0.261354
vt 0.551547 0.257951
vt 0.551386 0.254779
vt 0.551100 0.254830
vt 0.550566 0.251925
vt 0.549724 0.246871
vt 0.776459 0.248306
vt 0.549876 0.247758
vt 0.549981 0.249326
vt 0.550814 0.251873
vt 0.549576 0.247711
vt 0.549628 0.246856
vt 0.549704 0.247670
vt 0.777921 0.248506
vt 0.777640 0.245692
vt 0.779142 0.245895
vt 0.779246 0.248868
vt 0.780443 0.246370
vt 0.781503 0.247062
vt 0.780413 0.249337
vt 0.771256 0.264716
vt 0.772423 0.264766
vt 0.771928 0.262043
vt 0.773137 0.262096
vt 0.772764 0.259376
vt 0.774021 0.259434
vt 0.773558 0.256708
vt 0.774865 0.256770
vt 0.774488 0.254041
vt 0.775846 0.254108
vt 0.775258 0.251029
vt 0.776664 0.251210
vt 0.773566 0.264815
vt 0.774290 0.262148
vt 0.775200 0.259490
vt 0.776072 0.256829
vt 0.777083 0.254171
vt 0.777966 0.251496
vt 0.774694 0.264864
vt 0.775453 0.262201
vt 0.776350 0.259544
vt 0.777210 0.256885
vt 0.778210 0.254230
vt 0.779142 0.251880
vt 0.777070 0.264917
vt 0.778176 0.264978
vt 0.775712 0.264907
vt 0.777672 0.262221
vt 0.778627 0.262283
vt 0.776428 0.262225
vt 0.778410 0.259642
vt 0.779209 0.259753
vt 0.777289 0.259600
vt 0.779231 0.257154
vt 0.779911 0.257367
vt 0.778179 0.257015
vt 0.780722 0.255102
vt 0.779206 0.254471
vt 0.780173 0.254752
vt 0.781620 0.252937
vt 0.780177 0.252254
vt 0.781097 0.252652
vt 0.782586 0.250844
vt 0.782270 0.250331
vt 0.781461 0.249806
vt 0.782854 0.249861
vt 0.782756 0.248874
vt 0.782287 0.247916
vt 0.550156 0.249283
vt 0.550382 0.249379
vt 0.551108 0.251945
vt 0.551713 0.254833
vt 0.552204 0.257947
vt 0.552573 0.261351
vt 0.552781 0.265116
vt 0.549473 0.026130
vt 0.548461 0.246602
vt 0.549474 0.024671
vt 0.549482 0.023335
vt 0.549484 0.022116
vt 0.549492 0.021000
vt 0.549495 0.019972
vt 0.550697 0.019002
vt 0.559493 0.306726
vt 0.559493 0.305769
vt 0.559496 0.308851
vt 0.559502 0.313253
vt 0.559502 0.311019
vt 0.559504 0.315565
vt 0.559509 0.317978
vt 0.559511 0.320519
vt 0.550742 0.265147
vt 0.550572 0.261453
vt 0.550271 0.258108
vt 0.549865 0.255032
vt 0.549400 0.252157
vt 0.548647 0.247879
vt 0.549462 0.246830
vt 0.548947 0.249555
vt 0.551856 0.257908
vt 0.552404 0.265099
vt 0.548517 0.246884
vt 0.255676 0.516741
vt 0.549496 0.018994
vt 0.841135 0.322750
vt 0.548995 0.511072
vt 0.548996 0.517205
vt 0.558111 0.336627
vt 0.558127 0.322740
vt 0.778613 0.288368
vt 0.255496 0.026192
vt 0.255346 0.020001
vt 0.841150 0.308855
vt 0.042520 0.248833
s 1
f 83/1/1 87/2/2 95/3/3
f 83/1/1 3/4/4 1/5/5
f 72/6/6 3/4/4 71/7/7
f 66/8/8 4/9/9 72/6/6
f 82/10/10 5/11/11 66/8/8
f 69/12/12 6/13/13 82/10/10
f 69/12/12 8/14/14 7/15/15
f 76/16/16 8/17/14 81/18/17
f 75/19/18 9/20/19 76/16/16
f 75/19/18 11/21/20 10/22/21
f 74/23/22 12/24/23 11/21/20
f 79/25/24 13/26/25 12/24/23
f 77/27/26 14/28/27 13/26/25
f 70/29/28 15/30/29 14/28/27
f 266/31/30 15/30/29 80/32/31
f 17/33/32 73/34/33 68/35/34
f 84/36/35 17/33/32 68/35/34
f 19/37/36 84/36/35 65/38/37
f 67/39/38 19/37/36 65/38/37
f 87/40/2 30/41/39 88/42/40
f 85/43/41 20/44/42 67/39/38
f 73/34/33 207/45/43 264/46/44
f 86/47/45 2/48/46 22/49/47
f 31/50/48 1/51/5 3/52/4
f 38/53/49 3/52/4 4/54/9
f 38/53/49 5/55/11 45/56/50
f 216/57/51 24/58/52 37/59/53
f 37/59/53 25/60/54 36/61/55
f 36/61/55 26/62/56 35/63/57
f 35/63/57 27/64/58 34/65/59
f 34/65/59 28/66/60 33/67/61
f 33/67/61 29/68/62 32/69/63
f 32/69/63 30/41/39 31/50/48
f 217/70/64 37/59/53 44/71/65
f 44/71/65 36/61/55 43/72/66
f 43/72/66 35/63/57 42/73/67
f 42/73/67 34/65/59 41/74/68
f 41/74/68 33/67/61 40/75/69
f 40/75/69 32/69/63 39/76/61
f 39/76/61 31/50/48 38/53/49
f 218/77/70 44/71/65 51/78/71
f 51/78/71 43/72/66 50/79/72
f 50/79/72 42/73/67 49/80/73
f 49/80/73 41/74/68 48/81/74
f 48/81/74 40/75/69 47/82/75
f 47/82/75 39/76/61 46/83/76
f 46/83/76 38/53/49 45/56/50
f 206/84/77 23/85/78 15/86/29
f 219/87/79 58/88/80 23/85/78
f 220/89/81 51/78/71 58/88/80
f 15/86/29 52/90/82 14/91/27
f 23/85/78 59/92/83 52/90/82
f 58/88/80 50/79/72 59/92/83
f 14/91/27 53/93/84 13/94/25
f 52/90/82 60/95/85 53/93/84
f 59/92/83 49/80/73 60/95/85
f 13/94/25 54/96/86 12/97/23
f 53/93/84 61/98/87 54/96/86
f 60/95/85 48/81/74 61/98/87
f 54/96/86 11/99/20 12/97/23
f 54/96/86 62/100/88 55/101/89
f 61/98/87 47/82/75 62/100/88
f 55/101/89 10/102/21 11/99/20
f 55/101/89 63/103/90 56/104/91
f 62/100/88 46/83/76 63/103/90
f 56/104/91 9/105/19 10/102/21
f 63/103/90 57/106/92 56/104/91
f 63/103/90 45/56/50 64/107/93
f 57/106/92 8/108/14 9/105/19
f 64/107/93 7/109/15 57/106/92
f 45/56/50 6/110/13 64/107/93
f 85/43/41 22/49/47 21/111/94
f 89/112/95 30/41/39 29/68/62
f 90/113/96 29/68/62 28/66/60
f 91/114/97 28/66/60 27/64/58
f 92/115/98 27/64/58 26/62/56
f 92/115/98 25/60/54 93/116/99
f 93/116/99 24/58/52 94/117/100
f 94/117/100 215/118/101 295/119/102
f 475/120/103 95/3/3 451/121/104
f 465/122/105 83/1/1 475/120/103
f 466/123/106 71/7/7 465/122/105
f 461/124/107 72/6/6 466/123/106
f 474/125/108 66/8/8 461/124/107
f 463/126/109 82/10/10 474/125/108
f 463/126/109 81/127/17 69/12/12
f 469/128/110 81/18/17 473/129/111
f 469/128/110 75/19/18 76/16/16
f 468/130/112 74/23/22 75/19/18
f 471/131/113 74/23/22 467/132/114
f 471/131/113 77/27/26 79/25/24
f 470/133/115 70/29/28 77/27/26
f 464/134/116 80/32/31 70/29/28
f 462/135/117 80/32/31 472/136/118
f 68/35/34 456/137/119 455/138/120
f 84/36/35 455/138/120 458/139/121
f 65/38/37 458/139/121 452/140/122
f 67/39/38 452/140/122 454/141/123
f 454/141/123 85/43/41 67/39/38
f 456/137/119 264/46/44 453/142/124
f 460/143/125 78/144/126 86/47/45
f 459/145/127 86/47/45 85/43/41
f 95/3/3 2/48/46 78/144/126
f 22/49/47 87/40/2 88/42/40
f 21/111/94 88/42/40 89/112/95
f 20/44/42 89/112/95 90/113/96
f 19/37/36 90/113/96 91/114/97
f 18/146/128 91/114/97 92/115/98
f 17/33/32 92/115/98 93/116/99
f 16/147/129 93/116/99 94/117/100
f 207/45/43 94/117/100 295/119/102
f 451/121/104 78/144/126 457/148/130
f 182/149/131 178/150/132 190/151/133
f 178/150/132 98/152/134 166/153/135
f 98/152/134 167/154/136 166/153/135
f 99/155/137 161/156/138 167/154/136
f 100/157/139 177/158/140 161/156/138
f 101/159/141 164/160/142 177/158/140
f 164/160/142 103/161/143 176/162/144
f 103/163/143 171/164/145 176/165/144
f 104/166/146 170/167/147 171/164/145
f 170/167/147 106/168/148 169/169/149
f 169/169/149 107/170/150 174/171/151
f 174/171/151 108/172/152 172/173/153
f 172/173/153 109/174/154 165/175/155
f 165/175/155 110/176/156 175/177/157
f 110/176/156 372/178/158 175/177/157
f 168/179/159 112/180/160 163/181/161
f 179/182/162 112/180/160 113/183/163
f 179/182/162 114/184/164 160/185/165
f 162/186/166 114/184/164 115/187/167
f 125/188/168 182/189/131 183/190/169
f 115/187/167 180/191/170 162/186/166
f 313/192/171 168/179/159 370/193/172
f 181/194/173 97/195/174 173/196/175
f 126/197/176 96/198/177 125/188/168
f 133/199/178 98/200/134 126/197/176
f 100/201/139 133/199/178 140/202/179
f 322/203/180 119/204/181 321/205/182
f 132/206/183 120/207/184 119/204/181
f 131/208/185 121/209/186 120/207/184
f 130/210/187 122/211/188 121/209/186
f 129/212/189 123/213/190 122/211/188
f 128/214/191 124/215/192 123/213/190
f 127/216/193 125/188/168 124/215/192
f 323/217/194 132/206/183 322/203/180
f 139/218/195 131/208/185 132/206/183
f 138/219/196 130/210/187 131/208/185
f 137/220/197 129/212/189 130/210/187
f 136/221/198 128/214/191 129/212/189
f 135/222/199 127/216/193 128/214/191
f 134/223/200 126/197/176 127/216/193
f 324/224/201 139/218/195 323/217/194
f 146/225/202 138/219/196 139/218/195
f 145/226/203 137/220/197 138/219/196
f 144/227/204 136/221/198 137/220/197
f 143/228/205 135/222/199 136/221/198
f 142/229/206 134/223/200 135/222/199
f 141/230/207 133/199/178 134/223/200
f 312/231/208 118/232/209 325/233/210
f 325/233/210 153/234/211 326/235/212
f 326/235/212 146/225/202 324/224/201
f 110/236/156 147/237/213 118/232/209
f 118/232/209 154/238/214 153/234/211
f 153/234/211 145/226/203 146/225/202
f 109/239/154 148/240/215 147/237/213
f 147/237/213 155/241/216 154/238/214
f 154/238/214 144/227/204 145/226/203
f 108/242/152 149/243/217 148/240/215
f 148/240/215 156/244/218 155/241/216
f 155/241/216 143/228/205 144/227/204
f 106/245/148 149/243/217 107/246/150
f 149/243/217 157/247/219 156/244/218
f 156/244/218 142/229/206 143/228/205
f 105/248/220 150/249/221 106/245/148
f 150/249/221 158/250/222 157/247/219
f 157/247/219 141/230/207 142/229/206
f 104/251/146 151/252/223 105/248/220
f 152/253/224 158/250/222 151/252/223
f 158/250/222 140/202/179 141/230/207
f 103/254/143 152/253/224 104/251/146
f 102/255/225 159/256/226 152/253/224
f 101/257/141 140/202/179 159/256/226
f 180/191/170 117/258/227 181/194/173
f 184/259/228 125/188/168 183/190/169
f 185/260/229 124/215/192 184/259/228
f 186/261/230 123/213/190 185/260/229
f 187/262/231 122/211/188 186/261/230
f 120/207/184 187/262/231 188/263/232
f 119/204/181 188/263/232 189/264/233
f 321/205/182 189/264/233 401/265/234
f 190/151/133 427/266/235 403/267/236
f 178/150/132 417/268/237 427/266/235
f 166/153/135 418/269/238 417/268/237
f 167/154/136 413/270/239 418/269/238
f 161/156/138 426/271/240 413/270/239
f 177/158/140 415/272/241 426/271/240
f 415/272/241 176/162/144 425/273/242
f 176/165/144 421/274/243 425/275/242
f 421/274/243 170/167/147 420/276/244
f 420/276/244 169/169/149 419/277/245
f 169/169/149 423/278/246 419/277/245
f 423/278/246 172/173/153 422/279/247
f 422/279/247 165/175/155 416/280/248
f 416/280/248 175/177/157 424/281/249
f 175/177/157 414/282/250 424/281/249
f 408/283/251 163/181/161 407/284/252
f 407/284/252 179/182/162 410/285/253
f 410/285/253 160/185/165 404/286/254
f 404/286/254 162/186/166 406/287/255
f 406/287/255 180/191/170 411/288/256
f 370/193/172 408/283/251 405/289/257
f 412/290/258 173/196/175 409/291/259
f 411/288/256 181/194/173 412/290/258
f 97/195/174 190/151/133 173/196/175
f 117/258/227 182/189/131 97/195/174
f 116/292/260 183/190/169 117/258/227
f 115/187/167 184/259/228 116/292/260
f 114/184/164 185/260/229 115/187/167
f 113/183/163 186/261/230 114/184/164
f 112/180/160 187/262/231 113/183/163
f 111/293/261 188/263/232 112/180/160
f 313/192/171 189/264/233 111/293/261
f 173/196/175 403/267/236 409/291/259
f 287/294/262 283/295/263 296/296/264
f 283/295/263 193/297/265 271/298/266
f 193/297/265 272/299/267 271/298/266
f 194/300/268 265/301/269 272/299/267
f 195/302/270 282/303/271 265/301/269
f 196/304/272 269/305/273 282/303/271
f 269/305/273 198/306/274 281/307/275
f 198/308/274 276/309/276 281/310/275
f 199/311/277 275/312/278 276/309/276
f 275/312/278 201/313/279 274/314/280
f 274/314/280 202/315/281 279/316/282
f 279/316/282 203/317/283 277/318/284
f 277/318/284 204/319/285 270/320/286
f 270/320/286 205/321/287 280/322/288
f 205/321/287 266/31/30 280/322/288
f 273/323/289 209/324/290 268/325/291
f 284/326/292 209/324/290 210/327/293
f 284/326/292 211/328/294 263/329/295
f 267/330/296 211/328/294 212/331/297
f 228/332/298 287/333/262 288/334/299
f 212/331/297 285/335/300 267/330/296
f 207/45/43 273/323/289 264/46/44
f 286/336/301 192/337/302 278/338/303
f 229/339/304 191/340/305 228/332/298
f 236/341/306 193/342/265 229/339/304
f 195/343/270 236/341/306 243/344/307
f 216/57/51 222/345/308 215/118/101
f 235/346/309 223/347/310 222/345/308
f 234/348/311 224/349/312 223/347/310
f 233/350/313 225/351/314 224/349/312
f 232/352/315 226/353/316 225/351/314
f 231/354/317 227/355/318 226/353/316
f 230/356/319 228/332/298 227/355/318
f 217/70/64 235/346/309 216/57/51
f 242/357/320 234/348/311 235/346/309
f 241/358/321 233/350/313 234/348/311
f 240/359/322 232/352/315 233/350/313
f 239/360/323 231/354/317 232/352/315
f 238/361/324 230/356/319 231/354/317
f 237/362/325 229/339/304 230/356/319
f 218/77/70 242/357/320 217/70/64
f 249/363/326 241/358/321 242/357/320
f 248/364/327 240/359/322 241/358/321
f 247/365/328 239/360/323 240/359/322
f 246/366/329 238/361/324 239/360/323
f 245/367/330 237/362/325 238/361/324
f 244/368/331 236/341/306 237/362/325
f 206/84/77 221/369/332 219/87/79
f 219/87/79 256/370/333 220/89/81
f 220/89/81 249/363/326 218/77/70
f 205/371/287 250/372/334 221/369/332
f 221/369/332 257/373/335 256/370/333
f 256/370/333 248/364/327 249/363/326
f 204/374/285 251/375/336 250/372/334
f 250/372/334 258/376/337 257/373/335
f 257/373/335 247/365/328 248/364/327
f 203/377/283 252/378/338 251/375/336
f 251/375/336 259/379/339 258/376/337
f 258/376/337 246/366/329 247/365/328
f 201/380/279 252/378/338 202/381/281
f 252/378/338 260/382/340 259/379/339
f 259/379/339 245/367/330 246/366/329
f 200/383/341 253/384/342 201/380/279
f 253/384/342 261/385/343 260/382/340
f 260/382/340 244/368/331 245/367/330
f 199/386/277 254/387/344 200/383/341
f 255/388/345 261/385/343 254/387/344
f 261/385/343 243/344/307 244/368/331
f 198/389/274 255/388/345 199/386/277
f 197/390/346 262/391/347 255/388/345
f 196/392/272 243/344/307 262/391/347
f 285/335/300 214/393/348 286/336/301
f 289/394/349 228/332/298 288/334/299
f 290/395/350 227/355/318 289/394/349
f 291/396/351 226/353/316 290/395/350
f 292/397/352 225/351/314 291/396/351
f 223/347/310 292/397/352 293/398/353
f 222/345/308 293/398/353 294/399/354
f 215/118/101 294/399/354 295/119/102
f 296/296/264 498/400/355 476/401/356
f 283/295/263 488/402/357 498/400/355
f 271/298/266 489/403/358 488/402/357
f 272/299/267 485/404/359 489/403/358
f 265/301/269 497/405/360 485/404/359
f 282/303/271 486/406/361 497/405/360
f 486/406/361 281/307/275 496/407/362
f 281/310/275 492/408/363 496/409/362
f 492/408/363 275/312/278 491/410/364
f 491/410/364 274/314/280 490/411/365
f 274/314/280 494/412/366 490/411/365
f 494/412/366 277/318/284 493/413/367
f 493/413/367 270/320/286 487/414/368
f 487/414/368 280/322/288 495/415/369
f 280/322/288 462/135/117 495/415/369
f 480/416/370 268/325/291 479/417/371
f 479/417/371 284/326/292 482/418/372
f 482/418/372 263/329/295 477/419/373
f 477/419/373 267/330/296 478/420/374
f 478/420/374 285/335/300 483/421/375
f 264/46/44 480/416/370 453/142/124
f 484/422/376 278/338/303 481/423/377
f 483/421/375 286/336/301 484/422/376
f 192/337/302 296/296/264 278/338/303
f 214/393/348 287/333/262 192/337/302
f 213/424/378 288/334/299 214/393/348
f 212/331/297 289/394/349 213/424/378
f 211/328/294 290/395/350 212/331/297
f 210/327/293 291/396/351 211/328/294
f 209/324/290 292/397/352 210/327/293
f 208/425/379 293/398/353 209/324/290
f 207/45/43 294/399/354 208/425/379
f 278/338/303 476/401/356 481/423/377
f 389/426/380 393/427/381 402/428/382
f 389/426/380 299/429/383 297/430/384
f 378/431/385 299/429/383 377/432/386
f 371/433/387 300/434/388 378/431/385
f 388/435/389 301/436/390 371/433/387
f 375/437/391 302/438/392 388/435/389
f 375/437/391 304/439/393 303/440/394
f 382/441/395 304/442/393 387/443/396
f 381/444/397 305/445/398 382/441/395
f 381/444/397 307/446/399 306/447/400
f 380/448/401 308/449/402 307/446/399
f 385/450/403 309/451/404 308/449/402
f 383/452/405 310/453/406 309/451/404
f 376/454/407 311/455/408 310/453/406
f 372/178/158 311/455/408 386/456/409
f 315/457/410 379/458/411 374/459/412
f 390/460/413 315/457/410 374/459/412
f 317/461/414 390/460/413 369/462/415
f 373/463/416 317/461/414 369/462/415
f 393/464/381 334/465/417 394/466/418
f 391/467/419 318/468/420 373/463/416
f 379/458/411 313/192/171 370/193/172
f 392/469/421 298/470/422 320/471/423
f 335/472/424 297/473/384 299/474/383
f 342/475/425 299/474/383 300/476/388
f 342/475/425 301/477/390 349/478/426
f 322/203/180 328/479/427 341/480/428
f 341/480/428 329/481/429 340/482/430
f 340/482/430 330/483/431 339/484/432
f 339/484/432 331/485/433 338/486/434
f 338/486/434 332/487/435 337/488/436
f 337/488/436 333/489/437 336/490/438
f 336/490/438 334/465/417 335/472/424
f 323/217/194 341/480/428 348/491/439
f 348/491/439 340/482/430 347/492/440
f 347/492/440 339/484/432 346/493/441
f 346/493/441 338/486/434 345/494/442
f 345/494/442 337/488/436 344/495/443
f 344/495/443 336/490/438 343/496/444
f 343/496/444 335/472/424 342/475/425
f 324/224/201 348/491/439 355/497/445
f 355/497/445 347/492/440 354/498/446
f 354/498/446 346/493/441 353/499/447
f 353/499/447 345/494/442 352/500/448
f 352/500/448 344/495/443 351/501/449
f 351/501/449 343/496/444 350/502/450
f 350/502/450 342/475/425 349/478/426
f 312/231/208 327/503/451 311/504/408
f 325/233/210 362/505/452 327/503/451
f 326/235/212 355/497/445 362/505/452
f 311/504/408 356/506/453 310/507/406
f 327/503/451 363/508/454 356/506/453
f 362/505/452 354/498/446 363/508/454
f 310/507/406 357/509/455 309/510/404
f 356/506/453 364/511/456 357/509/455
f 363/508/454 353/499/447 364/511/456
f 309/510/404 358/512/457 308/513/402
f 357/509/455 365/514/458 358/512/457
f 364/511/456 352/500/448 365/514/458
f 358/512/457 307/515/399 308/513/402
f 358/512/457 366/516/459 359/517/460
f 365/514/458 351/501/449 366/516/459
f 359/517/460 306/518/400 307/515/399
f 359/517/460 367/519/461 360/520/462
f 366/516/459 350/502/450 367/519/461
f 360/520/462 305/521/398 306/518/400
f 367/519/461 361/522/463 360/520/462
f 367/519/461 349/478/426 368/523/464
f 361/522/463 304/524/393 305/521/398
f 368/523/464 303/525/394 361/522/463
f 349/478/426 302/526/392 368/523/464
f 391/467/419 320/471/423 319/527/465
f 395/528/466 334/465/417 333/489/437
f 396/529/467 333/489/437 332/487/435
f 397/530/468 332/487/435 331/485/433
f 398/531/469 331/485/433 330/483/431
f 398/531/469 329/481/429 399/532/470
f 399/532/470 328/479/427 400/533/471
f 400/533/471 321/205/182 401/265/234
f 450/534/472 402/428/382 428/535/473
f 440/536/474 389/426/380 450/534/472
f 441/537/475 377/432/386 440/536/474
f 437/538/476 378/431/385 441/537/475
f 449/539/477 371/433/387 437/538/476
f 438/540/478 388/435/389 449/539/477
f 438/540/478 387/541/396 375/437/391
f 444/542/479 387/443/396 448/543/480
f 444/542/479 381/444/397 382/441/395
f 443/544/481 380/448/401 381/444/397
f 446/545/482 380/448/401 442/546/483
f 446/545/482 383/452/405 385/450/403
f 445/547/484 376/454/407 383/452/405
f 439/548/485 386/456/409 376/454/407
f 414/282/250 386/456/409 447/549/486
f 374/459/412 432/550/487 431/551/488
f 390/460/413 431/551/488 434/552/489
f 369/462/415 434/552/489 429/553/490
f 373/463/416 429/553/490 430/554/491
f 430/554/491 391/467/419 373/463/416
f 432/550/487 370/193/172 405/289/257
f 436/555/492 384/556/493 392/469/421
f 435/557/494 392/469/421 391/467/419
f 402/428/382 298/470/422 384/556/493
f 320/471/423 393/464/381 394/466/418
f 319/527/465 394/466/418 395/528/466
f 318/468/420 395/528/466 396/529/467
f 317/461/414 396/529/467 397/530/468
f 316/558/495 397/530/468 398/531/469
f 315/457/410 398/531/469 399/532/470
f 314/559/496 399/532/470 400/533/471
f 313/192/171 400/533/471 401/265/234
f 428/535/473 384/556/493 433/560/497
f 417/268/237 475/120/103 427/266/235
f 418/269/238 465/122/105 417/268/237
f 418/269/238 461/124/107 466/123/106
f 413/270/239 474/125/108 461/124/107
f 426/271/240 463/126/109 474/125/108
f 415/272/241 473/561/111 463/126/109
f 421/274/243 473/129/111 425/275/242
f 421/274/243 468/130/112 469/128/110
f 420/276/244 467/132/114 468/130/112
f 419/277/245 471/131/113 467/132/114
f 422/279/247 471/131/113 423/278/246
f 416/280/248 470/133/115 422/279/247
f 416/280/248 472/136/118 464/134/116
f 424/281/249 462/135/117 472/136/118
f 408/283/251 455/138/120 456/137/119
f 410/285/253 455/138/120 407/284/252
f 404/286/254 458/139/121 410/285/253
f 404/286/254 454/141/123 452/140/122
f 411/288/256 454/141/123 406/287/255
f 408/283/251 453/142/124 405/289/257
f 409/291/259 460/143/125 412/290/258
f 411/288/256 460/143/125 459/145/127
f 403/267/236 457/148/130 409/291/259
f 450/534/472 476/401/356 498/400/355
f 450/534/472 488/402/357 440/536/474
f 440/536/474 489/403/358 441/537/475
f 437/538/476 489/403/358 485/404/359
f 449/539/477 485/404/359 497/405/360
f 438/540/478 497/405/360 486/406/361
f 448/562/480 486/406/361 496/407/362
f 444/542/479 496/409/362 492/408/363
f 444/542/479 491/410/364 443/544/481
f 443/544/481 490/411/365 442/546/483
f 446/545/482 490/411/365 494/412/366
f 445/547/484 494/412/366 493/413/367
f 445/547/484 487/414/368 439/548/485
f 447/549/486 487/414/368 495/415/369
f 414/282/250 495/415/369 462/135/117
f 431/551/488 480/416/370 479/417/371
f 431/551/488 482/418/372 434/552/489
f 429/553/490 482/418/372 477/419/373
f 430/554/491 477/419/373 478/420/374
f 435/557/494 478/420/374 483/421/375
f 405/289/257 480/416/370 432/550/487
f 433/560/497 484/422/376 481/423/377
f 436/555/492 483/421/375 484/422/376
f 428/535/473 481/423/377 476/401/356
f 427/266/235 451/121/104 403/267/236
f 83/1/1 1/5/5 87/2/2
f 83/1/1 71/7/7 3/4/4
f 72/6/6 4/9/9 3/4/4
f 66/8/8 5/11/11 4/9/9
f 82/10/10 6/13/13 5/11/11
f 69/12/12 7/15/15 6/13/13
f 69/12/12 81/127/17 8/14/14
f 76/16/16 9/20/19 8/17/14
f 75/19/18 10/22/21 9/20/19
f 75/19/18 74/23/22 11/21/20
f 74/23/22 79/25/24 12/24/23
f 79/25/24 77/27/26 13/26/25
f 77/27/26 70/29/28 14/28/27
f 70/29/28 80/32/31 15/30/29
f 266/31/30 206/563/77 15/30/29
f 17/33/32 16/147/129 73/34/33
f 84/36/35 18/146/128 17/33/32
f 19/37/36 18/146/128 84/36/35
f 67/39/38 20/44/42 19/37/36
f 87/40/2 1/51/5 30/41/39
f 85/43/41 21/111/94 20/44/42
f 73/34/33 16/147/129 207/45/43
f 86/47/45 78/144/126 2/48/46
f 31/50/48 30/41/39 1/51/5
f 38/53/49 31/50/48 3/52/4
f 38/53/49 4/54/9 5/55/11
f 216/57/51 215/118/101 24/58/52
f 37/59/53 24/58/52 25/60/54
f 36/61/55 25/60/54 26/62/56
f 35/63/57 26/62/56 27/64/58
f 34/65/59 27/64/58 28/66/60
f 33/67/61 28/66/60 29/68/62
f 32/69/63 29/68/62 30/41/39
f 217/70/64 216/57/51 37/59/53
f 44/71/65 37/59/53 36/61/55
f 43/72/66 36/61/55 35/63/57
f 42/73/67 35/63/57 34/65/59
f 41/74/68 34/65/59 33/67/61
f 40/75/69 33/67/61 32/69/63
f 39/76/61 32/69/63 31/50/48
f 218/77/70 217/70/64 44/71/65
f 51/78/71 44/71/65 43/72/66
f 50/79/72 43/72/66 42/73/67
f 49/80/73 42/73/67 41/74/68
f 48/81/74 41/74/68 40/75/69
f 47/82/75 40/75/69 39/76/61
f 46/83/76 39/76/61 38/53/49
f 206/84/77 219/87/79 23/85/78
f 219/87/79 220/89/81 58/88/80
f 220/89/81 218/77/70 51/78/71
f 15/86/29 23/85/78 52/90/82
f 23/85/78 58/88/80 59/92/83
f 58/88/80 51/78/71 50/79/72
f 14/91/27 52/90/82 53/93/84
f 52/90/82 59/92/83 60/95/85
f 59/92/83 50/79/72 49/80/73
f 13/94/25 53/93/84 54/96/86
f 53/93/84 60/95/85 61/98/87
f 60/95/85 49/80/73 48/81/74
f 54/96/86 55/101/89 11/99/20
f 54/96/86 61/98/87 62/100/88
f 61/98/87 48/81/74 47/82/75
f 55/101/89 56/104/91 10/102/21
f 55/101/89 62/100/88 63/103/90
f 62/100/88 47/82/75 46/83/76
f 56/104/91 57/106/92 9/105/19
f 63/103/90 64/107/93 57/106/92
f 63/103/90 46/83/76 45/56/50
f 57/106/92 7/109/15 8/108/14
f 64/107/93 6/110/13 7/109/15
f 45/56/50 5/55/11 6/110/13
f 85/43/41 86/47/45 22/49/47
f 89/112/95 88/42/40 30/41/39
f 90/113/96 89/112/95 29/68/62
f 91/114/97 90/113/96 28/66/60
f 92/115/98 91/114/97 27/64/58
f 92/115/98 26/62/56 25/60/54
f 93/116/99 25/60/54 24/58/52
f 94/117/100 24/58/52 215/118/101
f 475/120/103 83/1/1 95/3/3
f 465/122/105 71/7/7 83/1/1
f 466/123/106 72/6/6 71/7/7
f 461/124/107 66/8/8 72/6/6
f 474/125/108 82/10/10 66/8/8
f 463/126/109 69/12/12 82/10/10
f 463/126/109 473/561/111 81/127/17
f 469/128/110 76/16/16 81/18/17
f 469/128/110 468/130/112 75/19/18
f 468/130/112 467/132/114 74/23/22
f 471/131/113 79/25/24 74/23/22
f 471/131/113 470/133/115 77/27/26
f 470/133/115 464/134/116 70/29/28
f 464/134/116 472/136/118 80/32/31
f 462/135/117 266/31/30 80/32/31
f 68/35/34 73/34/33 456/137/119
f 84/36/35 68/35/34 455/138/120
f 65/38/37 84/36/35 458/139/121
f 67/39/38 65/38/37 452/140/122
f 454/141/123 459/145/127 85/43/41
f 456/137/119 73/34/33 264/46/44
f 460/143/125 457/148/130 78/144/126
f 459/145/127 460/143/125 86/47/45
f 95/3/3 87/2/2 2/48/46
f 22/49/47 2/48/46 87/40/2
f 21/111/94 22/49/47 88/42/40
f 20/44/42 21/111/94 89/112/95
f 19/37/36 20/44/42 90/113/96
f 18/146/128 19/37/36 91/114/97
f 17/33/32 18/146/128 92/115/98
f 16/147/129 17/33/32 93/116/99
f 207/45/43 16/147/129 94/117/100
f 451/121/104 95/3/3 78/144/126
f 182/149/131 96/564/177 178/150/132
f 178/150/132 96/564/177 98/152/134
f 98/152/134 99/155/137 167/154/136
f 99/155/137 100/157/139 161/156/138
f 100/157/139 101/159/141 177/158/140
f 101/159/141 102/565/225 164/160/142
f 164/160/142 102/565/225 103/161/143
f 103/163/143 104/166/146 171/164/145
f 104/166/146 105/566/220 170/167/147
f 170/167/147 105/566/220 106/168/148
f 169/169/149 106/168/148 107/170/150
f 174/171/151 107/170/150 108/172/152
f 172/173/153 108/172/152 109/174/154
f 165/175/155 109/174/154 110/176/156
f 110/176/156 312/567/208 372/178/158
f 168/179/159 111/293/261 112/180/160
f 179/182/162 163/181/161 112/180/160
f 179/182/162 113/183/163 114/184/164
f 162/186/166 160/185/165 114/184/164
f 125/188/168 96/198/177 182/189/131
f 115/187/167 116/292/260 180/191/170
f 313/192/171 111/293/261 168/179/159
f 181/194/173 117/258/227 97/195/174
f 126/197/176 98/200/134 96/198/177
f 133/199/178 99/568/137 98/200/134
f 100/201/139 99/568/137 133/199/178
f 322/203/180 132/206/183 119/204/181
f 132/206/183 131/208/185 120/207/184
f 131/208/185 130/210/187 121/209/186
f 130/210/187 129/212/189 122/211/188
f 129/212/189 128/214/191 123/213/190
f 128/214/191 127/216/193 124/215/192
f 127/216/193 126/197/176 125/188/168
f 323/217/194 139/218/195 132/206/183
f 139/218/195 138/219/196 131/208/185
f 138/219/196 137/220/197 130/210/187
f 137/220/197 136/221/198 129/212/189
f 136/221/198 135/222/199 128/214/191
f 135/222/199 134/223/200 127/216/193
f 134/223/200 133/199/178 126/197/176
f 324/224/201 146/225/202 139/218/195
f 146/225/202 145/226/203 138/219/196
f 145/226/203 144/227/204 137/220/197
f 144/227/204 143/228/205 136/221/198
f 143/228/205 142/229/206 135/222/199
f 142/229/206 141/230/207 134/223/200
f 141/230/207 140/202/179 133/199/178
f 312/231/208 110/236/156 118/232/209
f 325/233/210 118/232/209 153/234/211
f 326/235/212 153/234/211 146/225/202
f 110/236/156 109/239/154 147/237/213
f 118/232/209 147/237/213 154/238/214
f 153/234/211 154/238/214 145/226/203
f 109/239/154 108/242/152 148/240/215
f 147/237/213 148/240/215 155/241/216
f 154/238/214 155/241/216 144/227/204
f 108/242/152 107/246/150 149/243/217
f 148/240/215 149/243/217 156/244/218
f 155/241/216 156/244/218 143/228/205
f 106/245/148 150/249/221 149/243/217
f 149/243/217 150/249/221 157/247/219
f 156/244/218 157/247/219 142/229/206
f 105/248/220 151/252/223 150/249/221
f 150/249/221 151/252/223 158/250/222
f 157/247/219 158/250/222 141/230/207
f 104/251/146 152/253/224 151/252/223
f 152/253/224 159/256/226 158/250/222
f 158/250/222 159/256/226 140/202/179
f 103/254/143 102/255/225 152/253/224
f 102/255/225 101/257/141 159/256/226
f 101/257/141 100/201/139 140/202/179
f 180/191/170 116/292/260 117/258/227
f 184/259/228 124/215/192 125/188/168
f 185/260/229 123/213/190 124/215/192
f 186/261/230 122/211/188 123/213/190
f 187/262/231 121/209/186 122/211/188
f 120/207/184 121/209/186 187/262/231
f 119/204/181 120/207/184 188/263/232
f 321/205/182 119/204/181 189/264/233
f 190/151/133 178/150/132 427/266/235
f 178/150/132 166/153/135 417/268/237
f 166/153/135 167/154/136 418/269/238
f 167/154/136 161/156/138 413/270/239
f 161/156/138 177/158/140 426/271/240
f 177/158/140 164/160/142 415/272/241
f 415/272/241 164/160/142 176/162/144
f 176/165/144 171/164/145 421/274/243
f 421/274/243 171/164/145 170/167/147
f 420/276/244 170/167/147 169/169/149
f 169/169/149 174/171/151 423/278/246
f 423/278/246 174/171/151 172/173/153
f 422/279/247 172/173/153 165/175/155
f 416/280/248 165/175/155 175/177/157
f 175/177/157 372/178/158 414/282/250
f 408/283/251 168/179/159 163/181/161
f 407/284/252 163/181/161 179/182/162
f 410/285/253 179/182/162 160/185/165
f 404/286/254 160/185/165 162/186/166
f 406/287/255 162/186/166 180/191/170
f 370/193/172 168/179/159 408/283/251
f 412/290/258 181/194/173 173/196/175
f 411/288/256 180/191/170 181/194/173
f 97/195/174 182/149/131 190/151/133
f 117/258/227 183/190/169 182/189/131
f 116/292/260 184/259/228 183/190/169
f 115/187/167 185/260/229 184/259/228
f 114/184/164 186/261/230 185/260/229
f 113/183/163 187/262/231 186/261/230
f 112/180/160 188/263/232 187/262/231
f 111/293/261 189/264/233 188/263/232
f 313/192/171 401/265/234 189/264/233
f 173/196/175 190/151/133 403/267/236
f 287/294/262 191/569/305 283/295/263
f 283/295/263 191/569/305 193/297/265
f 193/297/265 194/300/268 272/299/267
f 194/300/268 195/302/270 265/301/269
f 195/302/270 196/304/272 282/303/271
f 196/304/272 197/570/346 269/305/273
f 269/305/273 197/570/346 198/306/274
f 198/308/274 199/311/277 276/309/276
f 199/311/277 200/571/341 275/312/278
f 275/312/278 200/571/341 201/313/279
f 274/314/280 201/313/279 202/315/281
f 279/316/282 202/315/281 203/317/283
f 277/318/284 203/317/283 204/319/285
f 270/320/286 204/319/285 205/321/287
f 205/321/287 206/563/77 266/31/30
f 273/323/289 208/425/379 209/324/290
f 284/326/292 268/325/291 209/324/290
f 284/326/292 210/327/293 211/328/294
f 267/330/296 263/329/295 211/328/294
f 228/332/298 191/340/305 287/333/262
f 212/331/297 213/424/378 285/335/300
f 207/45/43 208/425/379 273/323/289
f 286/336/301 214/393/348 192/337/302
f 229/339/304 193/342/265 191/340/305
f 236/341/306 194/572/268 193/342/265
f 195/343/270 194/572/268 236/341/306
f 216/57/51 235/346/309 222/345/308
f 235/346/309 234/348/311 223/347/310
f 234/348/311 233/350/313 224/349/312
f 233/350/313 232/352/315 225/351/314
f 232/352/315 231/354/317 226/353/316
f 231/354/317 230/356/319 227/355/318
f 230/356/319 229/339/304 228/332/298
f 217/70/64 242/357/320 235/346/309
f 242/357/320 241/358/321 234/348/311
f 241/358/321 240/359/322 233/350/313
f 240/359/322 239/360/323 232/352/315
f 239/360/323 238/361/324 231/354/317
f 238/361/324 237/362/325 230/356/319
f 237/362/325 236/341/306 229/339/304
f 218/77/70 249/363/326 242/357/320
f 249/363/326 248/364/327 241/358/321
f 248/364/327 247/365/328 240/359/322
f 247/365/328 246/366/329 239/360/323
f 246/366/329 245/367/330 238/361/324
f 245/367/330 244/368/331 237/362/325
f 244/368/331 243/344/307 236/341/306
f 206/84/77 205/371/287 221/369/332
f 219/87/79 221/369/332 256/370/333
f 220/89/81 256/370/333 249/363/326
f 205/371/287 204/374/285 250/372/334
f 221/369/332 250/372/334 257/373/335
f 256/370/333 257/373/335 248/364/327
f 204/374/285 203/377/283 251/375/336
f 250/372/334 251/375/336 258/376/337
f 257/373/335 258/376/337 247/365/328
f 203/377/283 202/381/281 252/378/338
f 251/375/336 252/378/338 259/379/339
f 258/376/337 259/379/339 246/366/329
f 201/380/279 253/384/342 252/378/338
f 252/378/338 253/384/342 260/382/340
f 259/379/339 260/382/340 245/367/330
f 200/383/341 254/387/344 253/384/342
f 253/384/342 254/387/344 261/385/343
f 260/382/340 261/385/343 244/368/331
f 199/386/277 255/388/345 254/387/344
f 255/388/345 262/391/347 261/385/343
f 261/385/343 262/391/347 243/344/307
f 198/389/274 197/390/346 255/388/345
f 197/390/346 196/392/272 262/391/347
f 196/392/272 195/343/270 243/344/307
f 285/335/300 213/424/378 214/393/348
f 289/394/349 227/355/318 228/332/298
f 290/395/350 226/353/316 227/355/318
f 291/396/351 225/351/314 226/353/316
f 292/397/352 224/349/312 225/351/314
f 223/347/310 224/349/312 292/397/352
f 222/345/308 223/347/310 293/398/353
f 215/118/101 222/345/308 294/399/354
f 296/296/264 283/295/263 498/400/355
f 283/295/263 271/298/266 488/402/357
f 271/298/266 272/299/267 489/403/358
f 272/299/267 265/301/269 485/404/359
f 265/301/269 282/303/271 497/405/360
f 282/303/271 269/305/273 486/406/361
f 486/406/361 269/305/273 281/307/275
f 281/310/275 276/309/276 492/408/363
f 492/408/363 276/309/276 275/312/278
f 491/410/364 275/312/278 274/314/280
f 274/314/280 279/316/282 494/412/366
f 494/412/366 279/316/282 277/318/284
f 493/413/367 277/318/284 270/320/286
f 487/414/368 270/320/286 280/322/288
f 280/322/288 266/31/30 462/135/117
f 480/416/370 273/323/289 268/325/291
f 479/417/371 268/325/291 284/326/292
f 482/418/372 284/326/292 263/329/295
f 477/419/373 263/329/295 267/330/296
f 478/420/374 267/330/296 285/335/300
f 264/46/44 273/323/289 480/416/370
f 484/422/376 286/336/301 278/338/303
f 483/421/375 285/335/300 286/336/301
f 192/337/302 287/294/262 296/296/264
f 214/393/348 288/334/299 287/333/262
f 213/424/378 289/394/349 288/334/299
f 212/331/297 290/395/350 289/394/349
f 211/328/294 291/396/351 290/395/350
f 210/327/293 292/397/352 291/396/351
f 209/324/290 293/398/353 292/397/352
f 208/425/379 294/399/354 293/398/353
f 207/45/43 295/119/102 294/399/354
f 278/338/303 296/296/264 476/401/356
f 389/426/380 297/430/384 393/427/381
f 389/426/380 377/432/386 299/429/383
f 378/431/385 300/434/388 299/429/383
f 371/433/387 301/436/390 300/434/388
f 388/435/389 302/438/392 301/436/390
f 375/437/391 303/440/394 302/438/392
f 375/437/391 387/541/396 304/439/393
f 382/441/395 305/445/398 304/442/393
f 381/444/397 306/447/400 305/445/398
f 381/444/397 380/448/401 307/446/399
f 380/448/401 385/450/403 308/449/402
f 385/450/403 383/452/405 309/451/404
f 383/452/405 376/454/407 310/453/406
f 376/454/407 386/456/409 311/455/408
f 372/178/158 312/567/208 311/455/408
f 315/457/410 314/559/496 379/458/411
f 390/460/413 316/558/495 315/457/410
f 317/461/414 316/558/495 390/460/413
f 373/463/416 318/468/420 317/461/414
f 393/464/381 297/473/384 334/465/417
f 391/467/419 319/527/465 318/468/420
f 379/458/411 314/559/496 313/192/171
f 392/469/421 384/556/493 298/470/422
f 335/472/424 334/465/417 297/473/384
f 342/475/425 335/472/424 299/474/383
f 342/475/425 300/476/388 301/477/390
f 322/203/180 321/205/182 328/479/427
f 341/480/428 328/479/427 329/481/429
f 340/482/430 329/481/429 330/483/431
f 339/484/432 330/483/431 331/485/433
f 338/486/434 331/485/433 332/487/435
f 337/488/436 332/487/435 333/489/437
f 336/490/438 333/489/437 334/465/417
f 323/217/194 322/203/180 341/480/428
f 348/491/439 341/480/428 340/482/430
f 347/492/440 340/482/430 339/484/432
f 346/493/441 339/484/432 338/486/434
f 345/494/442 338/486/434 337/488/436
f 344/495/443 337/488/436 336/490/438
f 343/496/444 336/490/438 335/472/424
f 324/224/201 323/217/194 348/491/439
f 355/497/445 348/491/439 347/492/440
f 354/498/446 347/492/440 346/493/441
f 353/499/447 346/493/441 345/494/442
f 352/500/448 345/494/442 344/495/443
f 351/501/449 344/495/443 343/496/444
f 350/502/450 343/496/444 342/475/425
f 312/231/208 325/233/210 327/503/451
f 325/233/210 326/235/212 362/505/452
f 326/235/212 324/224/201 355/497/445
f 311/504/408 327/503/451 356/506/453
f 327/503/451 362/505/452 363/508/454
f 362/505/452 355/497/445 354/498/446
f 310/507/406 356/506/453 357/509/455
f 356/506/453 363/508/454 364/511/456
f 363/508/454 354/498/446 353/499/447
f 309/510/404 357/509/455 358/512/457
f 357/509/455 364/511/456 365/514/458
f 364/511/456 353/499/447 352/500/448
f 358/512/457 359/517/460 307/515/399
f 358/512/457 365/514/458 366/516/459
f 365/514/458 352/500/448 351/501/449
f 359/517/460 360/520/462 306/518/400
f 359/517/460 366/516/459 367/519/461
f 366/516/459 351/501/449 350/502/450
f 360/520/462 361/522/463 305/521/398
f 367/519/461 368/523/464 361/522/463
f 367/519/461 350/502/450 349/478/426
f 361/522/463 303/525/394 304/524/393
f 368/523/464 302/526/392 303/525/394
f 349/478/426 301/477/390 302/526/392
f 391/467/419 392/469/421 320/471/423
f 395/528/466 394/466/418 334/465/417
f 396/529/467 395/528/466 333/489/437
f 397/530/468 396/529/467 332/487/435
f 398/531/469 397/530/468 331/485/433
f 398/531/469 330/483/431 329/481/429
f 399/532/470 329/481/429 328/479/427
f 400/533/471 328/479/427 321/205/182
f 450/534/472 389/426/380 402/428/382
f 440/536/474 377/432/386 389/426/380
f 441/537/475 378/431/385 377/432/386
f 437/538/476 371/433/387 378/431/385
f 449/539/477 388/435/389 371/433/387
f 438/540/478 375/437/391 388/435/389
f 438/540/478 448/562/480 387/541/396
f 444/542/479 382/441/395 387/443/396
f 444/542/479 443/544/481 381/444/397
f 443/544/481 442/546/483 380/448/401
f 446/545/482 385/450/403 380/448/401
f 446/545/482 445/547/484 383/452/405
f 445/547/484 439/548/485 376/454/407
f 439/548/485 447/549/486 386/456/409
f 414/282/250 372/178/158 386/456/409
f 374/459/412 379/458/411 432/550/487
f 390/460/413 374/459/412 431/551/488
f 369/462/415 390/460/413 434/552/489
f 373/463/416 369/462/415 429/553/490
f 430/554/491 435/557/494 391/467/419
f 432/550/487 379/458/411 370/193/172
f 436/555/492 433/560/497 384/556/493
f 435/557/494 436/555/492 392/469/421
f 402/428/382 393/427/381 298/470/422
f 320/471/423 298/470/422 393/464/381
f 319/527/465 320/471/423 394/466/418
f 318/468/420 319/527/465 395/528/466
f 317/461/414 318/468/420 396/529/467
f 316/558/495 317/461/414 397/530/468
f 315/457/410 316/558/495 398/531/469
f 314/559/496 315/457/410 399/532/470
f 313/192/171 314/559/496 400/533/471
f 428/535/473 402/428/382 384/556/493
f 417/268/237 465/122/105 475/120/103
f 418/269/238 466/123/106 465/122/105
f 418/269/238 413/270/239 461/124/107
f 413/270/239 426/271/240 474/125/108
f 426/271/240 415/272/241 463/126/109
f 415/272/241 425/273/242 473/561/111
f 421/274/243 469/128/110 473/129/111
f 421/274/243 420/276/244 468/130/112
f 420/276/244 419/277/245 467/132/114
f 419/277/245 423/278/246 471/131/113
f 422/279/247 470/133/115 471/131/113
f 416/280/248 464/134/116 470/133/115
f 416/280/248 424/281/249 472/136/118
f 424/281/249 414/282/250 462/135/117
f 408/283/251 407/284/252 455/138/120
f 410/285/253 458/139/121 455/138/120
f 404/286/254 452/140/122 458/139/121
f 404/286/254 406/287/255 454/141/123
f 411/288/256 459/145/127 454/141/123
f 408/283/251 456/137/119 453/142/124
f 409/291/259 457/148/130 460/143/125
f 411/288/256 412/290/258 460/143/125
f 403/267/236 451/121/104 457/148/130
f 450/534/472 428/535/473 476/401/356
f 450/534/472 498/400/355 488/402/357
f 440/536/474 488/402/357 489/403/358
f 437/538/476 441/537/475 489/403/358
f 449/539/477 437/538/476 485/404/359
f 438/540/478 449/539/477 497/405/360
f 448/562/480 438/540/478 486/406/361
f 444/542/479 448/543/480 496/409/362
f 444/542/479 492/408/363 491/410/364
f 443/544/481 491/410/364 490/411/365
f 446/545/482 442/546/483 490/411/365
f 445/547/484 446/545/482 494/412/366
f 445/547/484 493/413/367 487/414/368
f 447/549/486 439/548/485 487/414/368
f 414/282/250 447/549/486 495/415/369
f 431/551/488 432/550/487 480/416/370
f 431/551/488 479/417/371 482/418/372
f 429/553/490 434/552/489 482/418/372
f 430/554/491 429/553/490 477/419/373
f 435/557/494 430/554/491 478/420/374
f 405/289/257 453/142/124 480/416/370
f 433/560/497 436/555/492 484/422/376
f 436/555/492 435/557/494 483/421/375
f 428/535/473 433/560/497 481/423/377
f 427/266/235 475/120/103 451/121/104
