# Blender 3.6.23
# www.blender.org
o sol.020
v 2.266776 0.737257 -1.319417
v 2.266774 0.735326 -1.318084
v 2.272620 0.737288 -1.319368
v 2.272613 0.739683 -1.320060
v 2.272601 0.742387 -1.320289
v 2.266769 0.739652 -1.320109
v 2.272619 0.735356 -1.318035
v 2.278464 0.737319 -1.319319
v 2.278457 0.739714 -1.320011
v 2.278445 0.742418 -1.320240
v 2.278463 0.735387 -1.317986
v 2.284308 0.737350 -1.319270
v 2.284301 0.739745 -1.319962
v 2.284289 0.742449 -1.320191
v 2.284307 0.735418 -1.317937
v 2.290153 0.737381 -1.319221
v 2.290146 0.739776 -1.319913
v 2.290133 0.742480 -1.320142
v 2.272585 0.745246 -1.320233
v 2.266756 0.742357 -1.320338
v 2.278430 0.745277 -1.320184
v 2.284274 0.745308 -1.320135
v 2.290118 0.745338 -1.320086
v 2.272569 0.748104 -1.320069
v 2.266741 0.745215 -1.320282
v 2.278413 0.748135 -1.320020
v 2.284257 0.748166 -1.319970
v 2.290102 0.748197 -1.319921
v 2.272554 0.750808 -1.319974
v 2.266724 0.748074 -1.320118
v 2.278398 0.750839 -1.319925
v 2.284242 0.750870 -1.319876
v 2.290087 0.750901 -1.319827
v 2.260930 0.735295 -1.318133
v 2.260931 0.737226 -1.319466
v 2.295997 0.737411 -1.319172
v 2.295990 0.739806 -1.319864
v 2.290152 0.735449 -1.317888
v 2.295996 0.735480 -1.317839
v 2.295931 0.750932 -1.319778
v 2.295946 0.748228 -1.319872
v 2.260880 0.748043 -1.320167
v 2.260896 0.745184 -1.320331
v 2.266709 0.750777 -1.320023
v 2.260865 0.750747 -1.320072
v 2.295978 0.742511 -1.320093
v 2.260912 0.742326 -1.320387
v 2.295962 0.745369 -1.320037
v 2.260924 0.739622 -1.320158
v 2.301841 0.737442 -1.319123
v 2.301840 0.735511 -1.317790
v 2.307685 0.737473 -1.319074
v 2.307678 0.739868 -1.319766
v 2.307666 0.742572 -1.319995
v 2.301834 0.739837 -1.319815
v 2.307684 0.735541 -1.317741
v 2.313530 0.737504 -1.319025
v 2.313523 0.739899 -1.319717
v 2.313511 0.742603 -1.319945
v 2.313529 0.735572 -1.317692
v 2.319374 0.737535 -1.318976
v 2.319367 0.739930 -1.319668
v 2.319355 0.742634 -1.319896
v 2.319373 0.735603 -1.317643
v 2.325218 0.737566 -1.318927
v 2.325211 0.739961 -1.319619
v 2.325199 0.742665 -1.319847
v 2.307651 0.745431 -1.319939
v 2.301822 0.742541 -1.320044
v 2.313495 0.745462 -1.319889
v 2.319339 0.745493 -1.319840
v 2.325183 0.745523 -1.319791
v 2.307634 0.748289 -1.319774
v 2.301806 0.745400 -1.319988
v 2.313478 0.748320 -1.319725
v 2.319323 0.748351 -1.319676
v 2.325167 0.748382 -1.319627
v 2.307619 0.750993 -1.319680
v 2.301790 0.748258 -1.319823
v 2.313463 0.751024 -1.319631
v 2.319308 0.751055 -1.319582
v 2.325152 0.751086 -1.319533
v 2.331062 0.737596 -1.318878
v 2.331056 0.739991 -1.319569
v 2.325217 0.735634 -1.317594
v 2.331062 0.735665 -1.317545
v 2.330996 0.751117 -1.319484
v 2.331011 0.748413 -1.319578
v 2.301775 0.750962 -1.319729
v 2.331043 0.742696 -1.319798
v 2.331028 0.745554 -1.319742
v 2.336906 0.737627 -1.318828
v 2.336905 0.735696 -1.317496
v 2.342751 0.737658 -1.318779
v 2.342744 0.740053 -1.319471
v 2.342732 0.742757 -1.319700
v 2.336900 0.740022 -1.319520
v 2.342750 0.735726 -1.317447
v 2.348595 0.737689 -1.318730
v 2.348588 0.740084 -1.319422
v 2.348576 0.742788 -1.319651
v 2.348594 0.735757 -1.317397
v 2.354440 0.737720 -1.318681
v 2.354433 0.740115 -1.319373
v 2.354420 0.742819 -1.319602
v 2.354439 0.735788 -1.317348
v 2.360284 0.737750 -1.318632
v 2.360277 0.740146 -1.319324
v 2.360264 0.742850 -1.319553
v 2.342716 0.745616 -1.319644
v 2.336887 0.742727 -1.319749
v 2.348561 0.745647 -1.319595
v 2.354405 0.745677 -1.319546
v 2.360249 0.745708 -1.319497
v 2.342700 0.748474 -1.319480
v 2.336872 0.745585 -1.319693
v 2.348544 0.748505 -1.319431
v 2.354388 0.748536 -1.319382
v 2.360232 0.748567 -1.319333
v 2.342685 0.751178 -1.319386
v 2.336855 0.748443 -1.319529
v 2.348529 0.751209 -1.319337
v 2.354373 0.751240 -1.319288
v 2.360217 0.751271 -1.319239
v 2.366128 0.737781 -1.318583
v 2.366121 0.740176 -1.319275
v 2.360282 0.735819 -1.317299
v 2.366127 0.735850 -1.317250
v 2.366062 0.751302 -1.319190
v 2.366077 0.748598 -1.319284
v 2.336840 0.751147 -1.319435
v 2.366109 0.742881 -1.319504
v 2.366093 0.745739 -1.319448
v 2.266696 0.753353 -1.320020
v 2.272540 0.753384 -1.319962
v 2.272526 0.755959 -1.319930
v 2.272512 0.758534 -1.319888
v 2.266682 0.755928 -1.320011
v 2.278384 0.753415 -1.319901
v 2.278370 0.755990 -1.319839
v 2.278356 0.758565 -1.319759
v 2.284228 0.753446 -1.319840
v 2.284214 0.756021 -1.319749
v 2.284199 0.758596 -1.319629
v 2.290072 0.753476 -1.319782
v 2.290058 0.756052 -1.319667
v 2.290043 0.758627 -1.319519
v 2.272498 0.761110 -1.319847
v 2.266668 0.758504 -1.319999
v 2.278342 0.761141 -1.319678
v 2.284184 0.761171 -1.319510
v 2.290028 0.761202 -1.319370
v 2.272484 0.763685 -1.319814
v 2.266655 0.761079 -1.319987
v 2.278327 0.763716 -1.319617
v 2.284170 0.763747 -1.319419
v 2.290014 0.763777 -1.319255
v 2.272471 0.766260 -1.319802
v 2.266641 0.763654 -1.319978
v 2.278314 0.766291 -1.319592
v 2.284156 0.766322 -1.319382
v 2.290000 0.766353 -1.319210
v 2.260851 0.753322 -1.320072
v 2.295917 0.753507 -1.319729
v 2.295902 0.756082 -1.319605
v 2.295844 0.766384 -1.319111
v 2.295858 0.763808 -1.319161
v 2.260797 0.763623 -1.320072
v 2.260811 0.761048 -1.320072
v 2.266627 0.766230 -1.319974
v 2.260783 0.766199 -1.320072
v 2.295887 0.758658 -1.319445
v 2.260824 0.758473 -1.320072
v 2.295872 0.761233 -1.319284
v 2.260838 0.755897 -1.320072
v 2.301761 0.753538 -1.319680
v 2.307605 0.753569 -1.319631
v 2.307590 0.756144 -1.319507
v 2.307576 0.758719 -1.319347
v 2.301746 0.756113 -1.319556
v 2.313450 0.753600 -1.319582
v 2.313435 0.756175 -1.319458
v 2.313420 0.758750 -1.319298
v 2.319293 0.753631 -1.319533
v 2.319279 0.756206 -1.319409
v 2.319264 0.758781 -1.319249
v 2.325138 0.753661 -1.319484
v 2.325123 0.756237 -1.319360
v 2.325108 0.758812 -1.319200
v 2.307561 0.761295 -1.319186
v 2.301731 0.758689 -1.319396
v 2.313405 0.761326 -1.319137
v 2.319249 0.761356 -1.319088
v 2.325094 0.761387 -1.319039
v 2.307546 0.763870 -1.319063
v 2.301716 0.761264 -1.319235
v 2.313390 0.763901 -1.319014
v 2.319234 0.763932 -1.318965
v 2.325079 0.763962 -1.318915
v 2.307532 0.766445 -1.319013
v 2.301702 0.763839 -1.319112
v 2.313376 0.766476 -1.318964
v 2.319220 0.766507 -1.318915
v 2.325065 0.766538 -1.318866
v 2.330982 0.753692 -1.319435
v 2.330968 0.756267 -1.319311
v 2.330909 0.766569 -1.318817
v 2.330923 0.763993 -1.318866
v 2.301688 0.766414 -1.319062
v 2.330953 0.758843 -1.319151
v 2.330938 0.761418 -1.318990
v 2.336826 0.753723 -1.319390
v 2.342671 0.753754 -1.319350
v 2.342656 0.756329 -1.319258
v 2.342642 0.758904 -1.319139
v 2.336812 0.756298 -1.319275
v 2.348515 0.753785 -1.319312
v 2.348501 0.756360 -1.319251
v 2.348487 0.758935 -1.319170
v 2.354360 0.753815 -1.319275
v 2.354346 0.756391 -1.319243
v 2.354332 0.758966 -1.319202
v 2.360204 0.753846 -1.319235
v 2.360190 0.756422 -1.319226
v 2.360176 0.758997 -1.319214
v 2.342627 0.761480 -1.319020
v 2.336797 0.758874 -1.319126
v 2.348473 0.761510 -1.319090
v 2.354318 0.761541 -1.319160
v 2.360163 0.761572 -1.319203
v 2.342613 0.764055 -1.318929
v 2.336782 0.761449 -1.318978
v 2.348459 0.764086 -1.319028
v 2.354304 0.764117 -1.319128
v 2.360149 0.764147 -1.319193
v 2.342599 0.766630 -1.318892
v 2.336767 0.764024 -1.318863
v 2.348445 0.766661 -1.319003
v 2.354290 0.766692 -1.319115
v 2.360136 0.766723 -1.319189
v 2.366048 0.753877 -1.319190
v 2.366035 0.756452 -1.319190
v 2.365980 0.766754 -1.319190
v 2.365994 0.764178 -1.319190
v 2.336754 0.766599 -1.318817
v 2.366021 0.759028 -1.319190
v 2.366007 0.761603 -1.319190
v 2.266586 0.768781 -1.320041
v 2.272425 0.768816 -1.319918
v 2.272357 0.771337 -1.320145
v 2.272328 0.773825 -1.320297
v 2.266534 0.771288 -1.320126
v 2.278274 0.768854 -1.319711
v 2.278213 0.771392 -1.319964
v 2.278175 0.773908 -1.320197
v 2.284128 0.768891 -1.319476
v 2.284086 0.771447 -1.319690
v 2.284056 0.773991 -1.319917
v 2.289982 0.768926 -1.319274
v 2.289960 0.771496 -1.319428
v 2.289942 0.774063 -1.319613
v 2.272400 0.776286 -1.320187
v 2.266540 0.773755 -1.320059
v 2.278205 0.776406 -1.320253
v 2.284060 0.776527 -1.320052
v 2.289933 0.776626 -1.319773
v 2.272634 0.778722 -1.319632
v 2.266673 0.776187 -1.319665
v 2.278349 0.778888 -1.319979
v 2.284124 0.779053 -1.319991
v 2.289941 0.779188 -1.319849
v 2.273093 0.781138 -1.318446
v 2.266999 0.778589 -1.318773
v 2.278650 0.781356 -1.319218
v 2.284272 0.781573 -1.319630
v 2.289974 0.781747 -1.319783
v 2.260761 0.768748 -1.320020
v 2.295830 0.768959 -1.319161
v 2.295818 0.771534 -1.319284
v 2.295768 0.781836 -1.319778
v 2.295781 0.779260 -1.319729
v 2.261464 0.778518 -1.317224
v 2.261055 0.776130 -1.318498
v 2.267589 0.780965 -1.317212
v 2.262123 0.780878 -1.315413
v 2.295806 0.774110 -1.319445
v 2.260840 0.773709 -1.319326
v 2.295794 0.776685 -1.319605
v 2.260761 0.771250 -1.319803
v 2.301674 0.768990 -1.319112
v 2.307519 0.769021 -1.319063
v 2.307506 0.771596 -1.319186
v 2.307494 0.774171 -1.319347
v 2.301662 0.771565 -1.319235
v 2.313363 0.769051 -1.319013
v 2.313351 0.771627 -1.319137
v 2.313339 0.774202 -1.319298
v 2.319207 0.769082 -1.318964
v 2.319195 0.771658 -1.319088
v 2.319182 0.774233 -1.319249
v 2.325052 0.769113 -1.318915
v 2.325039 0.771688 -1.319039
v 2.325027 0.774264 -1.319200
v 2.307482 0.776747 -1.319507
v 2.301650 0.774140 -1.319396
v 2.313326 0.776778 -1.319458
v 2.319170 0.776808 -1.319409
v 2.325015 0.776839 -1.319360
v 2.307469 0.779322 -1.319631
v 2.301637 0.776716 -1.319556
v 2.313314 0.779353 -1.319582
v 2.319158 0.779384 -1.319533
v 2.325002 0.779414 -1.319484
v 2.307456 0.781897 -1.319680
v 2.301625 0.779291 -1.319680
v 2.313301 0.781928 -1.319631
v 2.319144 0.781959 -1.319582
v 2.324989 0.781990 -1.319533
v 2.330896 0.769144 -1.318866
v 2.330884 0.771719 -1.318990
v 2.330833 0.782021 -1.319484
v 2.330846 0.779445 -1.319435
v 2.301612 0.781866 -1.319729
v 2.330871 0.774294 -1.319151
v 2.330859 0.776870 -1.319311
v 2.336740 0.769175 -1.318863
v 2.342586 0.769206 -1.318929
v 2.342573 0.771781 -1.319020
v 2.342560 0.774356 -1.319139
v 2.336728 0.771750 -1.318978
v 2.348431 0.769236 -1.319028
v 2.348418 0.771812 -1.319090
v 2.348405 0.774387 -1.319170
v 2.354277 0.769267 -1.319128
v 2.354264 0.771842 -1.319160
v 2.354250 0.774418 -1.319202
v 2.360122 0.769298 -1.319193
v 2.360108 0.771873 -1.319203
v 2.360095 0.774449 -1.319214
v 2.342548 0.776932 -1.319258
v 2.336715 0.774325 -1.319126
v 2.348392 0.776962 -1.319251
v 2.354237 0.776993 -1.319243
v 2.360081 0.777024 -1.319226
v 2.342535 0.779507 -1.319350
v 2.336703 0.776901 -1.319275
v 2.348379 0.779538 -1.319312
v 2.354224 0.779569 -1.319275
v 2.360068 0.779599 -1.319235
v 2.342522 0.782082 -1.319386
v 2.336690 0.779476 -1.319389
v 2.348366 0.782113 -1.319337
v 2.354210 0.782144 -1.319288
v 2.360054 0.782175 -1.319239
v 2.365967 0.769329 -1.319190
v 2.365953 0.771904 -1.319190
v 2.365899 0.782206 -1.319190
v 2.365912 0.779630 -1.319190
v 2.336677 0.782051 -1.319435
v 2.365939 0.774479 -1.319190
v 2.365926 0.777055 -1.319190
vn 0.0115 0.0278 0.9995
vn 0.0134 0.0094 0.9999
vn 0.0091 0.0148 0.9998
vn -0.0085 0.0324 0.9994
vn -0.0082 -0.0385 0.9992
vn -0.0086 0.0324 0.9994
vn -0.0087 0.0550 0.9984
vn -0.0086 0.0335 0.9994
vn 0.0047 -0.0030 1.0000
vn 0.0092 -0.0147 0.9998
vn 0.0015 -0.0043 1.0000
vn -0.0182 0.0628 0.9979
vn -0.0339 0.0666 0.9972
vn -0.0158 0.0558 0.9983
vn -0.0098 0.4283 0.9036
vn -0.0092 0.1818 0.9833
vn -0.0083 -0.0270 0.9996
vn -0.0081 -0.0461 0.9989
vn -0.0082 -0.0461 0.9989
vn -0.0087 0.0622 0.9980
vn -0.0364 0.0170 0.9992
vn -0.0387 0.0585 0.9975
vn -0.0395 0.0709 0.9967
vn -0.0012 -0.0005 1.0000
vn -0.0021 -0.0000 1.0000
vn -0.0084 -0.0001 1.0000
vn -0.0283 -0.0279 0.9992
vn -0.0206 -0.0460 0.9987
vn -0.0262 -0.0410 0.9988
vn -0.0085 0.0192 0.9998
vn -0.0126 -0.0506 0.9986
vn -0.0087 -0.0333 0.9994
vn -0.0096 -0.0548 0.9985
vn -0.0099 0.4283 0.9036
vn -0.0081 -0.0551 0.9984
vn -0.0082 -0.0336 0.9994
vn -0.0087 -0.0261 0.9996
vn -0.0029 -0.0496 0.9988
vn -0.0476 0.0690 0.9965
vn -0.0347 0.0099 0.9993
vn -0.0099 0.5679 0.8230
vn -0.0062 0.0619 0.9981
vn -0.0072 0.0547 0.9985
vn -0.0066 0.0081 0.9999
vn -0.0053 0.0046 1.0000
vn -0.0070 0.0022 1.0000
vn -0.0405 0.0940 0.9948
vn -0.0294 0.0663 0.9974
vn -0.0007 0.0571 0.9984
vn 0.0019 0.0046 1.0000
vn -0.0009 0.0007 1.0000
vn -0.0029 0.0006 1.0000
vn -0.0076 -0.0244 0.9997
vn 0.0027 0.0508 0.9987
vn -0.0052 0.0548 0.9985
vn -0.0042 -0.0012 1.0000
vn 0.0057 -0.0001 1.0000
vn 0.0046 0.0032 1.0000
vn -0.0084 -0.0180 0.9998
vn -0.0048 0.0192 0.9998
vn 0.0324 -0.1279 0.9913
vn -0.0142 -0.0048 0.9999
vn 0.0057 -0.0198 0.9998
vn -0.0081 -0.0623 0.9980
vn -0.0080 -0.0623 0.9980
vn -0.0047 -0.0549 0.9985
vn 0.0055 -0.0311 0.9995
vn -0.0042 -0.0335 0.9994
vn -0.0086 -0.0197 0.9998
vn -0.0092 -0.0027 1.0000
vn -0.0081 -0.0269 0.9996
vn -0.0071 0.0139 0.9999
vn -0.0059 0.0163 0.9999
vn -0.0077 0.0088 0.9999
vn 0.0043 -0.0459 0.9989
vn -0.0036 -0.0505 0.9987
vn -0.0014 -0.0405 0.9992
vn 0.0036 -0.0164 0.9999
vn -0.0019 -0.0054 1.0000
vn -0.0020 0.0047 1.0000
vn -0.0042 -0.0000 1.0000
vn 0.0183 0.0001 0.9998
vn 0.0136 0.0252 0.9996
vn 0.0154 0.0001 0.9999
vn -0.0058 0.0240 0.9997
vn -0.0012 0.0274 0.9996
vn -0.0082 -0.0270 0.9996
vn -0.0085 0.0335 0.9994
vn 0.0448 -0.2132 0.9760
vn 0.0009 -0.0911 0.9958
vn -0.0083 -0.0271 0.9996
vn -0.0082 -0.0271 0.9996
vn 0.0151 0.0001 0.9999
vn 0.0164 0.0174 0.9997
vn 0.0052 0.0311 0.9995
vn -0.0045 0.0334 0.9994
vn -0.0008 -0.0274 0.9996
vn -0.0076 -0.0334 0.9994
vn -0.0066 -0.0548 0.9985
vn -0.0081 -0.0176 0.9998
vn -0.0093 -0.0007 1.0000
vn -0.0084 -0.0000 1.0000
vn -0.0020 -0.0143 0.9999
vn -0.0052 -0.0041 1.0000
vn -0.0084 0.0049 1.0000
vn -0.0082 0.0190 0.9998
vn -0.0071 0.0303 0.9995
vn -0.0085 0.0176 0.9998
vn 0.0098 -0.0408 0.9991
vn -0.0001 -0.0572 0.9984
vn -0.0041 0.0505 0.9987
vn 0.0038 0.0460 0.9989
vn -0.0018 0.0404 0.9992
vn -0.0160 -0.0573 0.9982
vn -0.0194 -0.0509 0.9985
vn -0.0068 -0.0304 0.9995
vn -0.0055 -0.0241 0.9997
vn -0.0115 -0.0549 0.9984
vn -0.0106 -0.0620 0.9980
vn -0.0174 0.0538 0.9984
vn -0.0111 0.0305 0.9995
vn -0.0220 -0.0313 0.9993
vn -0.0150 -0.0405 0.9991
vn -0.0086 -0.0219 0.9997
vn -0.0105 -0.0085 0.9999
vn -0.0235 0.0030 0.9997
vn -0.0122 -0.0335 0.9994
vn -0.0126 -0.0001 0.9999
vn -0.0136 0.0338 0.9993
vn 0.0052 0.0312 0.9995
vn 0.0094 0.0409 0.9991
vn -0.0304 -0.0253 0.9992
vn -0.0219 -0.0312 0.9993
vn 0.0166 -0.0172 0.9997
vn 0.0118 -0.0277 0.9995
vn 0.0034 0.0164 0.9999
vn -0.0074 -0.0024 1.0000
vn -0.0080 -0.0184 0.9998
vn -0.0055 -0.0620 0.9981
vn -0.0302 -0.0094 0.9995
vn -0.0332 -0.0175 0.9993
vn -0.0323 0.0197 0.9993
vn -0.0087 -0.0242 0.9997
vn -0.0109 -0.0163 0.9998
vn 0.0135 -0.0092 0.9999
vn -0.0042 -0.0001 1.0000
vn 0.2307 -0.6151 0.7539
vn 0.1894 -0.4663 0.8641
vn 0.2086 -0.5573 0.8037
vn -0.0202 -0.0165 0.9997
vn -0.0156 -0.0275 0.9995
vn -0.0213 0.0132 0.9997
vn -0.0101 -0.0305 0.9995
vn -0.0061 -0.0079 1.0000
vn -0.0079 -0.0202 0.9998
vn 0.0062 -0.0000 1.0000
vn -0.0022 0.0143 0.9999
vn -0.0146 -0.0144 0.9998
vn -0.0093 -0.0042 0.9999
vn -0.0082 0.0306 0.9995
vn 0.0231 -0.0378 0.9990
vn -0.0115 -0.0042 0.9999
vn -0.0061 -0.0160 0.9999
vn -0.0079 0.0333 0.9994
vn 0.0139 -0.0251 0.9996
vn -0.0184 -0.0049 0.9998
vn -0.0258 -0.0149 0.9996
vn 0.1106 -0.3467 0.9314
vn -0.0334 0.0099 0.9994
vn -0.0272 0.0421 0.9987
vn 0.0811 -0.2814 0.9561
vn -0.0083 -0.0262 0.9996
vn 0.0926 -0.1020 0.9905
vn 0.1636 -0.3880 0.9070
vn 0.0987 -0.2399 0.9658
vn 0.1433 -0.4373 0.8878
vn -0.0343 0.0423 0.9985
vn -0.0152 -0.0051 0.9999
vn -0.0144 -0.0012 0.9999
vn -0.0118 -0.0007 0.9999
vn 0.1482 -0.2665 0.9524
vn 0.2104 -0.5443 0.8121
vn -0.0072 -0.0005 1.0000
vn -0.0062 -0.0000 1.0000
vn -0.0164 -0.0003 0.9999
vn -0.0210 -0.0030 0.9998
vn -0.0299 0.0509 0.9983
vn -0.0093 0.0677 0.9977
vn 0.0219 0.0002 0.9998
vn 0.0600 -0.1422 0.9880
vn -0.0060 0.0010 1.0000
vn -0.0083 -0.0222 0.9997
vn -0.0105 -0.0001 0.9999
vn -0.0387 0.0674 0.9970
vn 0.0032 -0.0508 0.9987
vn -0.0462 0.0853 0.9953
vn -0.0080 0.0001 1.0000
vn -0.0076 0.0016 1.0000
vn -0.0107 -0.0243 0.9996
vn -0.0002 -0.0002 1.0000
vn 0.0334 -0.0153 0.9993
vn 0.0563 -0.1388 0.9887
vn -0.0083 -0.0175 0.9998
vn -0.0083 -0.0000 1.0000
vt 0.833300 0.777800
vt 0.888900 0.722200
vt 0.888900 0.777800
vt 0.055600 0.166700
vt 0.000000 0.222200
vt 0.000000 0.166700
vt 0.722200 0.166700
vt 0.666700 0.222200
vt 0.666700 0.166700
vt 0.500000 0.777800
vt 0.555600 0.722200
vt 0.555600 0.777800
vt 0.944400 0.611100
vt 0.888900 0.555600
vt 0.944400 0.555600
vt 0.333300 0.833300
vt 0.277800 0.777800
vt 0.333300 0.777800
vt 0.000000 0.055600
vt 0.055600 0.111100
vt 0.000000 0.111100
vt 0.555600 0.333300
vt 0.500000 0.277800
vt 0.555600 0.277800
vt 0.444400 0.888900
vt 0.388900 0.833300
vt 0.444400 0.833300
vt 0.166700 0.666700
vt 0.222200 0.722200
vt 0.166700 0.722200
vt 1.000000 0.611100
vt 1.000000 0.555600
vt 0.944400 0.222200
vt 1.000000 0.166700
vt 1.000000 0.222200
vt 0.722200 0.111100
vt 0.777800 0.055600
vt 0.777800 0.111100
vt 0.555600 0.666700
vt 0.500000 0.722200
vt 0.500000 0.666700
vt 0.166700 0.555600
vt 0.222200 0.500000
vt 0.222200 0.555600
vt 0.444400 1.000000
vt 0.500000 0.944400
vt 0.500000 1.000000
vt 0.277800 0.444400
vt 0.333300 0.388900
vt 0.333300 0.444400
vt 0.333300 0.111100
vt 0.277800 0.055600
vt 0.333300 0.055600
vt 0.555600 0.444400
vt 0.500000 0.388900
vt 0.555600 0.388900
vt 0.333300 0.277800
vt 0.277800 0.333300
vt 0.277800 0.277800
vt 0.166700 0.888900
vt 0.222200 0.833300
vt 0.222200 0.888900
vt 0.388900 0.000000
vt 0.388900 0.055600
vt 0.500000 0.833300
vt 0.388900 0.166700
vt 0.333300 0.222200
vt 0.333300 0.166700
vt 0.611100 0.888900
vt 0.666700 0.833300
vt 0.666700 0.888900
vt 0.888900 0.944400
vt 0.944400 0.888900
vt 0.944400 0.944400
vt 0.166700 0.777800
vt 0.111100 0.722200
vt 0.388900 0.777800
vt 0.722200 0.833300
vt 0.944400 0.777800
vt 1.000000 0.722200
vt 1.000000 0.777800
vt 0.777800 0.333300
vt 0.722200 0.277800
vt 0.777800 0.277800
vt 0.722200 0.777800
vt 0.666700 0.777800
vt 0.555600 0.833300
vt 0.611100 0.777800
vt 0.611100 0.833300
vt 1.000000 0.500000
vt 0.277800 0.222200
vt 0.833300 0.166700
vt 0.833300 0.111100
vt 0.944400 0.666700
vt 0.944400 0.722200
vt 0.055600 0.333300
vt 0.000000 0.277800
vt 0.055600 0.277800
vt 0.333300 1.000000
vt 0.388900 0.944400
vt 0.388900 1.000000
vt 0.222200 1.000000
vt 0.277800 0.944400
vt 0.277800 1.000000
vt 0.444400 0.166700
vt 0.500000 0.111100
vt 0.500000 0.166700
vt 0.333300 0.000000
vt 0.277800 0.000000
vt 0.555600 0.500000
vt 0.611100 0.444400
vt 0.611100 0.500000
vt 0.888900 0.055600
vt 0.888900 0.111100
vt 0.444400 0.000000
vt 0.500000 0.055600
vt 0.444400 0.055600
vt 0.611100 0.111100
vt 0.666700 0.055600
vt 0.666700 0.111100
vt 0.666700 0.555600
vt 0.722200 0.611100
vt 0.666700 0.611100
vt 0.111100 0.333300
vt 0.055600 0.388900
vt 0.666700 0.333300
vt 0.611100 0.277800
vt 0.666700 0.277800
vt 0.777800 1.000000
vt 0.833300 0.944400
vt 0.833300 1.000000
vt 0.666700 0.000000
vt 0.722200 0.055600
vt 0.222200 0.222200
vt 0.277800 0.166700
vt 0.555600 0.166700
vt 0.555600 0.111100
vt 0.055600 0.055600
vt 0.000000 0.000000
vt 0.055600 0.000000
vt 0.611100 0.222200
vt 0.611100 0.166700
vt 0.166700 0.000000
vt 0.111100 0.055600
vt 0.111100 0.000000
vt 0.777800 0.500000
vt 0.722200 0.444400
vt 0.777800 0.444400
vt 0.555600 0.055600
vt 0.611100 0.722200
vt 0.888900 0.500000
vt 0.944400 0.500000
vt 0.944400 0.833300
vt 1.000000 0.833300
vt 0.611100 0.055600
vt 0.611100 0.000000
vt 0.833300 0.666700
vt 0.777800 0.722200
vt 0.777800 0.666700
vt 0.500000 0.888900
vt 0.777800 0.944400
vt 0.833300 0.888900
vt 0.888900 0.277800
vt 0.833300 0.222200
vt 0.888900 0.222200
vt 0.500000 0.222200
vt 0.555600 0.222200
vt 0.500000 0.333300
vt 0.500000 0.000000
vt 0.222200 0.277800
vt 0.444400 0.944400
vt 0.166700 0.944400
vt 0.222200 0.944400
vt 0.333300 0.333300
vt 0.388900 0.277800
vt 0.388900 0.333300
vt 0.888900 0.666700
vt 0.833300 0.722200
vt 0.722200 0.722200
vt 0.666700 0.722200
vt 0.833300 0.500000
vt 0.833300 0.444400
vt 0.555600 0.000000
vt 0.666700 0.388900
vt 0.666700 0.444400
vt 1.000000 0.333300
vt 0.944400 0.277800
vt 1.000000 0.277800
vt 0.000000 0.388900
vt 0.444400 0.666700
vt 0.388900 0.722200
vt 0.388900 0.666700
vt 0.388900 0.611100
vt 0.444400 0.611100
vt 0.888900 0.444400
vt 0.944400 0.444400
vt 0.888900 1.000000
vt 0.888900 0.166700
vt 0.222200 0.111100
vt 0.277800 0.111100
vt 0.666700 1.000000
vt 0.722200 0.944400
vt 0.722200 1.000000
vt 0.500000 0.444400
vt 0.444400 0.388900
vt 0.777800 0.555600
vt 0.722200 0.500000
vt 0.166700 0.166700
vt 0.111100 0.111100
vt 0.166700 0.111100
vt 0.722200 0.888900
vt 0.777800 0.833300
vt 0.777800 0.888900
vt 0.277800 0.500000
vt 0.277800 0.555600
vt 0.722200 0.388900
vt 0.777800 0.388900
vt 0.444400 0.555600
vt 0.388900 0.500000
vt 0.333300 0.555600
vt 0.333300 0.500000
vt 0.333300 0.888900
vt 0.333300 0.944400
vt 0.166700 0.500000
vt 0.222200 0.444400
vt 0.833300 0.277800
vt 0.777800 0.222200
vt 0.111100 0.277800
vt 0.555600 1.000000
vt 0.555600 0.944400
vt 0.388900 0.111100
vt 0.444400 0.111100
vt 0.444400 0.277800
vt 0.444400 0.333300
vt 0.166700 0.055600
vt 0.222200 0.055600
vt 0.777800 0.000000
vt 0.833300 0.055600
vt 0.166700 0.333300
vt 0.111100 0.388900
vt 0.277800 0.666700
vt 0.333300 0.611100
vt 0.333300 0.666700
vt 0.888900 0.000000
vt 0.944400 0.055600
vt 0.388900 0.388900
vt 0.333300 0.722200
vt 0.611100 0.333300
vt 0.833300 0.833300
vt 0.777800 0.777800
vt 0.222200 0.611100
vt 0.277800 0.611100
vt 0.833300 0.611100
vt 0.833300 0.555600
vt 0.888900 0.833300
vt 0.388900 0.222200
vt 0.444400 0.222200
vt 1.000000 0.111100
vt 1.000000 0.055600
vt 0.944400 0.388900
vt 0.944400 0.333300
vt 0.611100 0.555600
vt 0.666700 0.500000
vt 0.111100 0.611100
vt 0.166700 0.611100
vt 0.111100 0.222200
vt 0.166700 0.222200
vt 0.111100 0.666700
vt 0.222200 0.333300
vt 0.166700 0.388900
vt 0.166700 0.277800
vt 0.888900 0.611100
vt 0.777800 0.166700
vt 0.444400 0.500000
vt 0.388900 0.444400
vt 0.444400 0.444400
vt 0.666700 0.666700
vt 0.611100 0.611100
vt 0.000000 1.000000
vt 0.055600 0.944400
vt 0.055600 1.000000
vt 0.111100 0.500000
vt 0.166700 0.444400
vt 0.444400 0.777800
vt 0.055600 0.666700
vt 0.277800 0.388900
vt 0.888900 0.388900
vt 0.888900 0.333300
vt 0.722200 0.666700
vt 0.888900 0.888900
vt 0.500000 0.611100
vt 0.500000 0.555600
vt 0.722200 0.222200
vt 0.944400 0.166700
vt 0.111100 0.444400
vt 0.000000 0.666700
vt 0.055600 0.722200
vt 0.000000 0.722200
vt 0.055600 0.222200
vt 0.055600 0.444400
vt 0.222200 0.166700
vt 0.555600 0.555600
vt 0.111100 0.166700
vt 0.833300 0.388900
vt 0.611100 0.666700
vt 0.722200 0.000000
vt 0.666700 0.944400
vt 0.777800 0.611100
vt 0.055600 0.555600
vt 0.111100 0.555600
vt 0.111100 0.944400
vt 0.500000 0.500000
vt 0.222200 0.666700
vt 0.277800 0.722200
vt 0.166700 1.000000
vt 0.722200 0.333300
vt 0.055600 0.833300
vt 0.000000 0.888900
vt 0.000000 0.833300
vt 0.111100 1.000000
vt 0.611100 0.944400
vt 0.555600 0.888900
vt 0.611100 1.000000
vt 0.555600 0.611100
vt 0.444400 0.722200
vt 0.388900 0.555600
vt 0.277800 0.888900
vt 0.055600 0.500000
vt 0.000000 0.555600
vt 0.000000 0.500000
vt 0.944400 0.111100
vt 0.222200 0.000000
vt 0.055600 0.888900
vt 0.000000 0.944400
vt 1.000000 0.388900
vt 1.000000 0.444400
vt 0.000000 0.611100
vt 0.055600 0.611100
vt 0.166700 0.833300
vt 0.111100 0.777800
vt 0.833300 0.000000
vt 0.388900 0.888900
vt 0.111100 0.833300
vt 0.111100 0.888900
vt 1.000000 0.888900
vt 0.833300 0.333300
vt 0.000000 0.444400
vt 0.277800 0.833300
vt 0.722200 0.555600
vt 0.222200 0.777800
vt 1.000000 0.944400
vt 0.944400 1.000000
vt 0.222200 0.388900
vt 1.000000 0.666700
vt 0.611100 0.388900
vt 0.944400 0.000000
vt 0.055600 0.777800
vt 0.000000 0.777800
vt 0.000000 0.333300
vt 1.000000 1.000000
vt 1.000000 0.000000
s 1
f 332/1/1 334/2/2 335/3/3
f 20/4/4 43/5/5 47/6/4
f 111/7/6 91/8/5 90/9/4
f 296/10/7 298/11/8 299/12/7
f 235/13/9 229/14/10 230/15/11
f 286/16/12 260/17/13 279/18/14
f 35/19/15 6/20/16 49/21/16
f 81/22/17 75/23/18 76/24/19
f 304/25/7 305/26/20 293/27/20
f 160/28/21 256/29/22 253/30/23
f 244/31/24 230/15/11 247/32/25
f 114/33/5 132/34/4 133/35/5
f 97/36/16 94/37/15 95/38/16
f 203/39/26 295/40/8 202/41/26
f 150/42/27 144/43/28 151/44/29
f 314/45/30 311/46/8 316/47/30
f 146/48/31 164/49/32 165/50/33
f 37/51/16 16/52/34 36/53/15
f 185/54/35 181/55/36 184/56/36
f 41/57/18 33/58/37 28/59/18
f 264/60/38 258/61/39 265/62/40
f 36/53/15 51/63/41 50/64/34
f 293/27/20 296/10/7 297/65/20
f 69/66/6 48/67/5 46/68/4
f 308/69/7 324/70/42 325/71/43
f 348/72/44 344/73/45 349/74/46
f 254/75/47 249/76/48 253/30/23
f 294/77/7 286/16/12 279/18/14
f 341/78/49 325/71/43 324/70/42
f 338/79/50 355/80/51 356/81/52
f 120/82/53 121/83/18 115/84/18
f 330/85/54 324/70/42 320/86/55
f 300/87/20 302/88/7 303/89/20
f 230/15/11 246/90/56 247/32/25
f 23/91/5 46/68/4 48/67/5
f 101/92/6 95/38/16 100/93/16
f 240/94/57 355/80/51 337/95/58
f 44/96/59 42/97/18 30/98/18
f 280/99/60 315/100/8 323/101/30
f 275/102/61 271/103/62 276/104/63
f 54/105/4 58/106/16 59/107/6
f 39/108/41 16/52/34 38/109/41
f 186/110/64 188/111/35 189/112/65
f 100/93/16 103/113/15 104/114/16
f 56/115/41 57/116/15 52/117/15
f 66/118/16 83/119/15 84/120/16
f 211/121/66 237/122/67 208/123/68
f 97/36/16 90/9/4 84/120/16
f 29/124/69 134/125/70 44/96/59
f 87/126/71 77/127/18 88/128/18
f 350/129/72 347/130/73 352/131/74
f 86/132/41 92/133/34 83/119/15
f 22/134/5 18/135/6 23/91/5
f 63/136/4 58/106/16 62/137/16
f 1/138/15 34/139/41 2/140/41
f 72/141/5 63/136/4 67/142/6
f 11/143/41 3/144/15 7/145/41
f 215/146/75 216/147/76 214/148/77
f 58/106/16 61/149/15 62/137/16
f 302/88/7 298/11/8 301/150/8
f 230/15/11 222/151/78 225/152/79
f 339/153/80 356/81/52 360/154/81
f 86/132/41 65/155/34 85/156/41
f 238/157/82 327/158/83 236/159/84
f 306/160/7 293/27/20 297/65/20
f 345/161/85 342/162/86 347/130/73
f 118/163/18 112/164/5 113/165/5
f 70/166/5 63/136/4 71/167/5
f 81/22/17 181/55/36 80/168/87
f 60/169/41 61/149/15 57/116/15
f 27/170/18 23/91/5 28/59/18
f 309/171/88 306/160/7 311/46/8
f 269/172/89 265/62/40 270/173/90
f 40/174/91 79/175/18 89/176/92
f 239/177/93 331/178/94 238/157/82
f 326/179/95 320/86/55 319/180/96
f 219/181/67 214/148/77 218/182/97
f 85/156/41 61/149/15 64/183/41
f 205/184/98 216/147/76 206/185/99
f 129/186/100 119/187/18 130/188/18
f 72/141/5 90/9/4 91/8/5
f 163/189/101 44/96/59 134/125/70
f 119/187/18 113/165/5 114/33/5
f 200/190/102 290/191/8 209/192/102
f 200/190/102 201/193/36 195/194/36
f 225/152/79 221/195/103 224/196/104
f 352/131/74 348/72/44 353/197/105
f 105/198/4 100/93/16 104/114/16
f 18/135/6 13/199/16 17/200/16
f 321/201/106 351/202/107 359/203/108
f 182/204/35 177/205/36 181/55/36
f 226/206/109 227/207/110 215/146/75
f 10/208/6 4/209/16 9/210/16
f 346/211/111 329/212/112 340/213/113
f 151/44/29 147/214/114 152/215/115
f 214/148/77 212/216/116 213/217/117
f 201/193/36 190/218/35 195/194/36
f 191/219/65 174/220/118 172/221/119
f 271/103/62 288/222/120 281/223/121
f 141/224/122 143/225/123 144/43/28
f 117/226/18 110/227/5 112/164/5
f 113/165/5 101/92/6 105/198/4
f 44/96/59 24/228/18 29/124/69
f 317/229/30 311/46/8 312/230/88
f 55/231/16 52/117/15 53/232/16
f 89/176/92 73/233/18 78/234/17
f 13/199/16 8/235/15 12/236/15
f 98/237/41 99/238/34 94/37/15
f 31/239/124 135/240/125 29/124/69
f 162/241/126 167/242/127 166/243/128
f 106/244/41 107/245/15 103/113/15
f 164/49/32 89/176/92 176/246/36
f 278/247/129 294/77/7 279/18/14
f 82/248/87 76/24/19 77/127/18
f 340/213/113 333/249/130 342/162/86
f 329/212/112 332/1/1 333/249/130
f 77/127/18 71/167/5 72/141/5
f 341/78/49 328/250/131 329/212/112
f 156/251/132 152/215/115 157/252/133
f 233/253/134 226/206/109 228/254/135
f 328/250/131 331/178/94 332/1/1
f 335/3/3 337/95/58 338/79/50
f 336/255/136 338/79/50 339/153/80
f 74/256/5 54/105/4 68/257/5
f 126/258/16 107/245/15 125/259/15
f 129/186/100 223/260/137 124/261/138
f 194/262/35 210/263/139 211/121/66
f 153/264/140 150/42/27 155/265/141
f 55/231/16 46/68/4 37/51/16
f 19/266/5 10/208/6 21/267/5
f 158/268/142 155/265/141 160/28/21
f 302/88/7 319/180/96 320/86/55
f 32/269/143 139/270/144 31/239/124
f 26/271/18 19/266/5 21/267/5
f 288/222/120 315/100/8 281/223/121
f 234/272/145 228/254/135 229/14/10
f 96/273/4 97/36/16 95/38/16
f 179/274/64 180/275/35 178/276/35
f 222/151/78 218/182/97 221/195/103
f 207/277/146 199/278/36 208/123/68
f 285/279/147 273/280/148 284/281/149
f 87/126/71 212/216/116 205/184/98
f 137/282/150 140/283/151 141/224/122
f 79/175/18 68/257/5 73/233/18
f 292/284/7 295/40/8 296/10/7
f 170/285/152 153/264/140 158/268/142
f 143/225/123 145/286/153 146/48/31
f 155/265/141 151/44/29 156/251/132
f 124/261/138 220/287/154 123/288/155
f 77/127/18 91/8/5 88/128/18
f 80/168/87 177/205/36 78/234/17
f 245/289/156 208/123/68 237/122/67
f 36/53/15 55/231/16 37/51/16
f 342/162/86 336/255/136 343/290/157
f 351/202/107 340/213/113 345/161/85
f 197/291/36 190/218/35 192/292/35
f 164/49/32 180/275/35 165/50/33
f 333/249/130 335/3/3 336/255/136
f 116/293/5 96/273/4 110/227/5
f 109/294/6 126/258/16 132/34/4
f 92/133/34 84/120/16 83/119/15
f 136/295/158 139/270/144 140/283/151
f 53/232/16 57/116/15 58/106/16
f 194/262/35 186/110/64 189/112/65
f 228/254/135 215/146/75 219/181/67
f 67/142/6 84/120/16 90/9/4
f 209/192/102 167/242/127 201/193/36
f 123/288/155 117/226/18 118/163/18
f 236/159/84 326/179/95 245/289/156
f 171/296/159 248/297/160 277/298/161
f 73/233/18 70/166/5 75/23/18
f 24/228/18 25/299/5 19/266/5
f 138/300/162 135/240/125 136/295/158
f 27/170/18 21/267/5 22/134/5
f 10/208/6 13/199/16 14/301/4
f 174/220/118 201/193/36 167/242/127
f 240/94/57 234/272/145 235/13/9
f 157/252/133 174/220/118 167/242/127
f 199/278/36 193/302/35 194/262/35
f 91/8/5 121/83/18 88/128/18
f 78/234/17 75/23/18 80/168/87
f 25/299/5 5/303/6 19/266/5
f 218/182/97 213/217/117 217/304/163
f 17/200/16 12/236/15 16/52/34
f 204/305/26 298/11/8 203/39/26
f 33/58/37 164/49/32 145/286/153
f 93/306/41 94/37/15 92/133/34
f 115/84/18 116/293/5 110/227/5
f 322/307/164 308/69/7 325/71/43
f 350/129/72 351/202/107 345/161/85
f 152/215/115 172/221/119 174/220/118
f 170/285/152 249/76/48 248/297/160
f 238/157/82 231/308/165 233/253/134
f 154/309/166 137/282/150 148/310/167
f 267/311/168 264/60/38 269/172/89
f 188/111/35 205/184/98 206/185/99
f 179/274/64 182/204/35 183/312/65
f 148/310/167 141/224/122 150/42/27
f 276/104/63 281/223/121 280/99/60
f 161/313/169 157/252/133 162/241/126
f 278/247/129 209/192/102 290/191/8
f 260/17/13 256/29/22 259/314/170
f 274/315/171 270/173/90 275/102/61
f 112/164/5 96/273/4 101/92/6
f 120/82/53 212/216/116 131/316/172
f 263/317/173 283/318/174 287/319/175
f 284/281/149 267/311/168 272/320/176
f 313/321/8 307/322/7 308/69/7
f 208/123/68 194/262/35 211/121/66
f 318/323/30 312/230/88 313/321/8
f 204/305/26 198/324/36 199/278/36
f 272/320/176 269/172/89 274/315/171
f 294/77/7 291/325/8 292/284/7
f 196/326/35 179/274/64 190/218/35
f 266/327/177 286/16/12 288/222/120
f 62/137/16 65/155/34 66/118/16
f 165/50/33 191/219/65 172/221/119
f 69/66/6 53/232/16 54/105/4
f 31/239/124 27/170/18 32/269/143
f 149/328/178 169/329/179 173/330/180
f 108/331/16 103/113/15 107/245/15
f 307/322/7 303/89/20 308/69/7
f 15/332/41 8/235/15 11/143/41
f 268/333/181 282/334/182 283/318/174
f 147/214/114 165/50/33 172/221/119
f 224/196/104 241/335/183 242/336/184
f 113/165/5 109/294/6 114/33/5
f 170/285/152 168/337/185 159/338/186
f 321/201/106 313/321/8 322/307/164
f 307/322/7 297/65/20 300/87/20
f 245/289/156 319/180/96 207/277/146
f 56/115/41 50/64/34 51/63/41
f 297/65/20 299/12/7 300/87/20
f 255/339/187 250/340/188 254/75/47
f 106/244/41 99/238/34 102/341/41
f 309/171/88 310/342/7 304/25/7
f 221/195/103 217/304/163 220/287/154
f 268/333/181 251/343/189 262/344/190
f 161/313/169 259/314/170 256/29/22
f 7/145/41 1/138/15 2/140/41
f 204/305/26 319/180/96 301/150/8
f 361/345/191 339/153/80 360/154/81
f 169/329/179 159/338/186 168/337/185
f 123/288/155 217/304/163 122/346/192
f 183/312/65 185/54/35 186/110/64
f 286/16/12 310/342/7 288/222/120
f 229/14/10 219/181/67 222/151/78
f 138/300/162 173/330/180 175/347/193
f 240/94/57 334/2/2 239/177/93
f 158/268/142 253/30/23 249/76/48
f 76/24/19 70/166/5 71/167/5
f 265/62/40 261/348/194 266/327/177
f 279/18/14 259/314/170 278/247/129
f 89/176/92 177/205/36 176/246/36
f 210/263/139 232/349/195 211/121/66
f 273/280/148 262/344/190 267/311/168
f 305/26/20 292/284/7 293/27/20
f 261/348/194 257/350/196 260/17/13
f 358/351/197 354/352/198 349/74/46
f 33/58/37 142/353/199 32/269/143
f 243/354/200 235/13/9 244/31/24
f 29/124/69 26/271/18 31/239/124
f 246/90/56 224/196/104 242/336/184
f 122/346/192 115/84/18 117/226/18
f 87/126/71 187/355/36 82/248/87
f 82/248/87 184/56/36 81/22/17
f 258/61/39 254/75/47 257/350/196
f 202/41/26 291/325/8 200/190/102
f 206/185/99 227/207/110 210/263/139
f 144/43/28 146/48/31 147/214/114
f 178/276/35 176/246/36 177/205/36
f 343/290/157 339/153/80 344/73/45
f 6/20/16 3/144/15 4/209/16
f 6/20/16 47/6/4 49/21/16
f 20/4/4 4/209/16 5/303/6
f 263/317/173 250/340/188 251/343/189
f 224/196/104 220/287/154 223/260/137
f 347/130/73 343/290/157 348/72/44
f 192/292/35 186/110/64 193/302/35
f 74/256/5 41/57/18 48/67/5
f 202/41/26 198/324/36 203/39/26
f 231/308/165 232/349/195 226/206/109
f 22/134/5 10/208/6 14/301/4
f 262/344/190 255/339/187 264/60/38
f 43/5/5 30/98/18 42/97/18
f 130/188/18 114/33/5 133/35/5
f 46/68/4 17/200/16 37/51/16
f 33/58/37 27/170/18 28/59/18
f 303/89/20 320/86/55 324/70/42
f 190/218/35 183/312/65 192/292/35
f 38/109/41 12/236/15 15/332/41
f 70/166/5 54/105/4 59/107/6
f 87/126/71 121/83/18 131/316/172
f 198/324/36 192/292/35 193/302/35
f 189/112/65 206/185/99 210/263/139
f 123/288/155 119/187/18 124/261/138
f 163/189/101 138/300/162 175/347/193
f 95/38/16 99/238/34 100/93/16
f 28/59/18 48/67/5 41/57/18
f 4/209/16 8/235/15 9/210/16
f 312/230/88 306/160/7 307/322/7
f 160/28/21 156/251/132 161/313/169
f 346/211/111 322/307/164 325/71/43
f 323/101/30 309/171/88 314/45/30
f 120/82/53 217/304/163 213/217/117
f 330/85/54 327/158/83 328/250/131
f 239/177/93 233/253/134 234/272/145
f 140/283/151 142/353/199 143/225/123
f 149/328/178 136/295/158 137/282/150
f 250/340/188 248/297/160 249/76/48
f 200/190/102 197/291/36 202/41/26
f 270/173/90 266/327/177 271/103/62
f 257/350/196 253/30/23 256/29/22
f 127/356/41 125/259/15 107/245/15
f 162/241/126 278/247/129 259/314/170
f 354/352/198 348/72/44 349/74/46
f 185/54/35 187/355/36 188/111/35
f 277/298/161 252/357/201 289/358/202
f 252/357/201 287/319/175 289/358/202
f 67/142/6 62/137/16 66/118/16
f 236/159/84 237/122/67 231/308/165
f 349/74/46 361/345/191 358/351/197
f 159/338/186 148/310/167 153/264/140
f 109/294/6 104/114/16 108/331/16
f 332/1/1 331/178/94 334/2/2
f 20/4/4 25/299/5 43/5/5
f 111/7/6 116/293/5 91/8/5
f 296/10/7 295/40/8 298/11/8
f 235/13/9 234/272/145 229/14/10
f 286/16/12 261/348/194 260/17/13
f 35/19/15 1/138/15 6/20/16
f 81/22/17 80/168/87 75/23/18
f 304/25/7 310/342/7 305/26/20
f 160/28/21 161/313/169 256/29/22
f 244/31/24 235/13/9 230/15/11
f 114/33/5 109/294/6 132/34/4
f 97/36/16 92/133/34 94/37/15
f 203/39/26 298/11/8 295/40/8
f 150/42/27 141/224/122 144/43/28
f 314/45/30 309/171/88 311/46/8
f 146/48/31 145/286/153 164/49/32
f 37/51/16 17/200/16 16/52/34
f 185/54/35 182/204/35 181/55/36
f 41/57/18 40/174/91 33/58/37
f 264/60/38 255/339/187 258/61/39
f 36/53/15 39/108/41 51/63/41
f 293/27/20 292/284/7 296/10/7
f 69/66/6 74/256/5 48/67/5
f 308/69/7 303/89/20 324/70/42
f 348/72/44 343/290/157 344/73/45
f 254/75/47 250/340/188 249/76/48
f 294/77/7 305/26/20 286/16/12
f 341/78/49 346/211/111 325/71/43
f 338/79/50 337/95/58 355/80/51
f 120/82/53 131/316/172 121/83/18
f 330/85/54 341/78/49 324/70/42
f 300/87/20 299/12/7 302/88/7
f 230/15/11 225/152/79 246/90/56
f 23/91/5 18/135/6 46/68/4
f 101/92/6 96/273/4 95/38/16
f 240/94/57 243/354/200 355/80/51
f 44/96/59 45/359/203 42/97/18
f 280/99/60 281/223/121 315/100/8
f 275/102/61 270/173/90 271/103/62
f 54/105/4 53/232/16 58/106/16
f 39/108/41 36/53/15 16/52/34
f 186/110/64 185/54/35 188/111/35
f 100/93/16 99/238/34 103/113/15
f 56/115/41 60/169/41 57/116/15
f 66/118/16 65/155/34 83/119/15
f 211/121/66 232/349/195 237/122/67
f 97/36/16 111/7/6 90/9/4
f 29/124/69 135/240/125 134/125/70
f 87/126/71 82/248/87 77/127/18
f 350/129/72 345/161/85 347/130/73
f 86/132/41 93/306/41 92/133/34
f 22/134/5 14/301/4 18/135/6
f 63/136/4 59/107/6 58/106/16
f 1/138/15 35/19/15 34/139/41
f 72/141/5 71/167/5 63/136/4
f 11/143/41 8/235/15 3/144/15
f 215/146/75 227/207/110 216/147/76
f 58/106/16 57/116/15 61/149/15
f 302/88/7 299/12/7 298/11/8
f 230/15/11 229/14/10 222/151/78
f 339/153/80 338/79/50 356/81/52
f 86/132/41 83/119/15 65/155/34
f 238/157/82 331/178/94 327/158/83
f 306/160/7 304/25/7 293/27/20
f 345/161/85 340/213/113 342/162/86
f 118/163/18 117/226/18 112/164/5
f 70/166/5 59/107/6 63/136/4
f 81/22/17 184/56/36 181/55/36
f 60/169/41 64/183/41 61/149/15
f 27/170/18 22/134/5 23/91/5
f 309/171/88 304/25/7 306/160/7
f 269/172/89 264/60/38 265/62/40
f 40/174/91 41/57/18 79/175/18
f 239/177/93 334/2/2 331/178/94
f 326/179/95 330/85/54 320/86/55
f 219/181/67 215/146/75 214/148/77
f 85/156/41 65/155/34 61/149/15
f 205/184/98 212/216/116 216/147/76
f 129/186/100 124/261/138 119/187/18
f 72/141/5 67/142/6 90/9/4
f 163/189/101 45/359/203 44/96/59
f 119/187/18 118/163/18 113/165/5
f 200/190/102 291/325/8 290/191/8
f 200/190/102 209/192/102 201/193/36
f 225/152/79 222/151/78 221/195/103
f 352/131/74 347/130/73 348/72/44
f 105/198/4 101/92/6 100/93/16
f 18/135/6 14/301/4 13/199/16
f 321/201/106 322/307/164 351/202/107
f 182/204/35 178/276/35 177/205/36
f 226/206/109 232/349/195 227/207/110
f 10/208/6 5/303/6 4/209/16
f 346/211/111 341/78/49 329/212/112
f 151/44/29 144/43/28 147/214/114
f 214/148/77 216/147/76 212/216/116
f 201/193/36 196/326/35 190/218/35
f 191/219/65 196/326/35 174/220/118
f 271/103/62 266/327/177 288/222/120
f 141/224/122 140/283/151 143/225/123
f 117/226/18 115/84/18 110/227/5
f 113/165/5 112/164/5 101/92/6
f 44/96/59 30/98/18 24/228/18
f 317/229/30 316/47/30 311/46/8
f 55/231/16 50/64/34 52/117/15
f 89/176/92 79/175/18 73/233/18
f 13/199/16 9/210/16 8/235/15
f 98/237/41 102/341/41 99/238/34
f 31/239/124 139/270/144 135/240/125
f 162/241/126 157/252/133 167/242/127
f 106/244/41 127/356/41 107/245/15
f 164/49/32 40/174/91 89/176/92
f 278/247/129 290/191/8 294/77/7
f 82/248/87 81/22/17 76/24/19
f 340/213/113 329/212/112 333/249/130
f 329/212/112 328/250/131 332/1/1
f 77/127/18 76/24/19 71/167/5
f 341/78/49 330/85/54 328/250/131
f 156/251/132 151/44/29 152/215/115
f 233/253/134 231/308/165 226/206/109
f 328/250/131 327/158/83 331/178/94
f 335/3/3 334/2/2 337/95/58
f 336/255/136 335/3/3 338/79/50
f 74/256/5 69/66/6 54/105/4
f 126/258/16 108/331/16 107/245/15
f 129/186/100 241/335/183 223/260/137
f 194/262/35 189/112/65 210/263/139
f 153/264/140 148/310/167 150/42/27
f 55/231/16 69/66/6 46/68/4
f 19/266/5 5/303/6 10/208/6
f 158/268/142 153/264/140 155/265/141
f 302/88/7 301/150/8 319/180/96
f 32/269/143 142/353/199 139/270/144
f 26/271/18 24/228/18 19/266/5
f 288/222/120 310/342/7 315/100/8
f 234/272/145 233/253/134 228/254/135
f 96/273/4 111/7/6 97/36/16
f 179/274/64 191/219/65 180/275/35
f 222/151/78 219/181/67 218/182/97
f 207/277/146 204/305/26 199/278/36
f 285/279/147 282/334/182 273/280/148
f 87/126/71 131/316/172 212/216/116
f 137/282/150 136/295/158 140/283/151
f 79/175/18 74/256/5 68/257/5
f 292/284/7 291/325/8 295/40/8
f 170/285/152 159/338/186 153/264/140
f 143/225/123 142/353/199 145/286/153
f 155/265/141 150/42/27 151/44/29
f 124/261/138 223/260/137 220/287/154
f 77/127/18 72/141/5 91/8/5
f 80/168/87 181/55/36 177/205/36
f 245/289/156 207/277/146 208/123/68
f 36/53/15 50/64/34 55/231/16
f 342/162/86 333/249/130 336/255/136
f 351/202/107 346/211/111 340/213/113
f 197/291/36 195/194/36 190/218/35
f 164/49/32 176/246/36 180/275/35
f 333/249/130 332/1/1 335/3/3
f 116/293/5 111/7/6 96/273/4
f 109/294/6 108/331/16 126/258/16
f 92/133/34 97/36/16 84/120/16
f 136/295/158 135/240/125 139/270/144
f 53/232/16 52/117/15 57/116/15
f 194/262/35 193/302/35 186/110/64
f 228/254/135 226/206/109 215/146/75
f 67/142/6 66/118/16 84/120/16
f 209/192/102 166/243/128 167/242/127
f 123/288/155 122/346/192 117/226/18
f 236/159/84 327/158/83 326/179/95
f 171/296/159 170/285/152 248/297/160
f 73/233/18 68/257/5 70/166/5
f 24/228/18 30/98/18 25/299/5
f 138/300/162 134/125/70 135/240/125
f 27/170/18 26/271/18 21/267/5
f 10/208/6 9/210/16 13/199/16
f 174/220/118 196/326/35 201/193/36
f 240/94/57 239/177/93 234/272/145
f 157/252/133 152/215/115 174/220/118
f 199/278/36 198/324/36 193/302/35
f 91/8/5 116/293/5 121/83/18
f 78/234/17 73/233/18 75/23/18
f 25/299/5 20/4/4 5/303/6
f 218/182/97 214/148/77 213/217/117
f 17/200/16 13/199/16 12/236/15
f 204/305/26 301/150/8 298/11/8
f 33/58/37 40/174/91 164/49/32
f 93/306/41 98/237/41 94/37/15
f 115/84/18 121/83/18 116/293/5
f 322/307/164 313/321/8 308/69/7
f 350/129/72 359/203/108 351/202/107
f 152/215/115 147/214/114 172/221/119
f 170/285/152 158/268/142 249/76/48
f 238/157/82 236/159/84 231/308/165
f 154/309/166 149/328/178 137/282/150
f 267/311/168 262/344/190 264/60/38
f 188/111/35 187/355/36 205/184/98
f 179/274/64 178/276/35 182/204/35
f 148/310/167 137/282/150 141/224/122
f 276/104/63 271/103/62 281/223/121
f 161/313/169 156/251/132 157/252/133
f 278/247/129 166/243/128 209/192/102
f 260/17/13 257/350/196 256/29/22
f 274/315/171 269/172/89 270/173/90
f 112/164/5 110/227/5 96/273/4
f 120/82/53 213/217/117 212/216/116
f 263/317/173 268/333/181 283/318/174
f 284/281/149 273/280/148 267/311/168
f 313/321/8 312/230/88 307/322/7
f 208/123/68 199/278/36 194/262/35
f 318/323/30 317/229/30 312/230/88
f 204/305/26 203/39/26 198/324/36
f 272/320/176 267/311/168 269/172/89
f 294/77/7 290/191/8 291/325/8
f 196/326/35 191/219/65 179/274/64
f 266/327/177 261/348/194 286/16/12
f 62/137/16 61/149/15 65/155/34
f 165/50/33 180/275/35 191/219/65
f 69/66/6 55/231/16 53/232/16
f 31/239/124 26/271/18 27/170/18
f 149/328/178 154/309/166 169/329/179
f 108/331/16 104/114/16 103/113/15
f 307/322/7 300/87/20 303/89/20
f 15/332/41 12/236/15 8/235/15
f 268/333/181 273/280/148 282/334/182
f 147/214/114 146/48/31 165/50/33
f 224/196/104 223/260/137 241/335/183
f 113/165/5 105/198/4 109/294/6
f 170/285/152 171/296/159 168/337/185
f 321/201/106 318/323/30 313/321/8
f 307/322/7 306/160/7 297/65/20
f 245/289/156 326/179/95 319/180/96
f 56/115/41 52/117/15 50/64/34
f 297/65/20 296/10/7 299/12/7
f 255/339/187 251/343/189 250/340/188
f 106/244/41 103/113/15 99/238/34
f 309/171/88 315/100/8 310/342/7
f 221/195/103 218/182/97 217/304/163
f 268/333/181 263/317/173 251/343/189
f 161/313/169 162/241/126 259/314/170
f 7/145/41 3/144/15 1/138/15
f 204/305/26 207/277/146 319/180/96
f 361/345/191 344/73/45 339/153/80
f 169/329/179 154/309/166 159/338/186
f 123/288/155 220/287/154 217/304/163
f 183/312/65 182/204/35 185/54/35
f 286/16/12 305/26/20 310/342/7
f 229/14/10 228/254/135 219/181/67
f 138/300/162 149/328/178 173/330/180
f 240/94/57 337/95/58 334/2/2
f 158/268/142 160/28/21 253/30/23
f 76/24/19 75/23/18 70/166/5
f 265/62/40 258/61/39 261/348/194
f 279/18/14 260/17/13 259/314/170
f 89/176/92 78/234/17 177/205/36
f 210/263/139 227/207/110 232/349/195
f 273/280/148 268/333/181 262/344/190
f 305/26/20 294/77/7 292/284/7
f 261/348/194 258/61/39 257/350/196
f 358/351/197 357/360/204 354/352/198
f 33/58/37 145/286/153 142/353/199
f 243/354/200 240/94/57 235/13/9
f 29/124/69 24/228/18 26/271/18
f 246/90/56 225/152/79 224/196/104
f 122/346/192 120/82/53 115/84/18
f 87/126/71 205/184/98 187/355/36
f 82/248/87 187/355/36 184/56/36
f 258/61/39 255/339/187 254/75/47
f 202/41/26 295/40/8 291/325/8
f 206/185/99 216/147/76 227/207/110
f 144/43/28 143/225/123 146/48/31
f 178/276/35 180/275/35 176/246/36
f 343/290/157 336/255/136 339/153/80
f 6/20/16 1/138/15 3/144/15
f 6/20/16 20/4/4 47/6/4
f 20/4/4 6/20/16 4/209/16
f 263/317/173 252/357/201 250/340/188
f 224/196/104 221/195/103 220/287/154
f 347/130/73 342/162/86 343/290/157
f 192/292/35 183/312/65 186/110/64
f 74/256/5 79/175/18 41/57/18
f 202/41/26 197/291/36 198/324/36
f 231/308/165 237/122/67 232/349/195
f 22/134/5 21/267/5 10/208/6
f 262/344/190 251/343/189 255/339/187
f 43/5/5 25/299/5 30/98/18
f 130/188/18 119/187/18 114/33/5
f 46/68/4 18/135/6 17/200/16
f 33/58/37 32/269/143 27/170/18
f 303/89/20 302/88/7 320/86/55
f 190/218/35 179/274/64 183/312/65
f 38/109/41 16/52/34 12/236/15
f 70/166/5 68/257/5 54/105/4
f 87/126/71 88/128/18 121/83/18
f 198/324/36 197/291/36 192/292/35
f 189/112/65 188/111/35 206/185/99
f 123/288/155 118/163/18 119/187/18
f 163/189/101 134/125/70 138/300/162
f 95/38/16 94/37/15 99/238/34
f 28/59/18 23/91/5 48/67/5
f 4/209/16 3/144/15 8/235/15
f 312/230/88 311/46/8 306/160/7
f 160/28/21 155/265/141 156/251/132
f 346/211/111 351/202/107 322/307/164
f 323/101/30 315/100/8 309/171/88
f 120/82/53 122/346/192 217/304/163
f 330/85/54 326/179/95 327/158/83
f 239/177/93 238/157/82 233/253/134
f 140/283/151 139/270/144 142/353/199
f 149/328/178 138/300/162 136/295/158
f 250/340/188 252/357/201 248/297/160
f 200/190/102 195/194/36 197/291/36
f 270/173/90 265/62/40 266/327/177
f 257/350/196 254/75/47 253/30/23
f 127/356/41 128/361/41 125/259/15
f 162/241/126 166/243/128 278/247/129
f 354/352/198 353/197/105 348/72/44
f 185/54/35 184/56/36 187/355/36
f 277/298/161 248/297/160 252/357/201
f 252/357/201 263/317/173 287/319/175
f 67/142/6 63/136/4 62/137/16
f 236/159/84 245/289/156 237/122/67
f 349/74/46 344/73/45 361/345/191
f 159/338/186 154/309/166 148/310/167
f 109/294/6 105/198/4 104/114/16
