# Blender 3.6.23
# www.blender.org
o sol.036
v 1.948606 0.831123 -1.650684
v 1.947989 0.827569 -1.659644
v 1.935497 0.832653 -1.649781
v 1.936114 0.833814 -1.640818
v 1.936730 0.833876 -1.631858
v 1.949223 0.832898 -1.641721
v 1.934877 0.829910 -1.658742
v 1.922385 0.833121 -1.648879
v 1.923005 0.833785 -1.639915
v 1.923621 0.833679 -1.630951
v 1.921768 0.831316 -1.657839
v 1.909275 0.832942 -1.647972
v 1.909892 0.833245 -1.639013
v 1.910512 0.833131 -1.630048
v 1.908659 0.832021 -1.656936
v 1.896166 0.832529 -1.647070
v 1.896783 0.832606 -1.638110
v 1.897399 0.832562 -1.629146
v 1.937347 0.833321 -1.622894
v 1.949840 0.833394 -1.632761
v 1.924238 0.833153 -1.621991
v 1.911129 0.832803 -1.621088
v 1.898020 0.832456 -1.620185
v 1.937964 0.832635 -1.613934
v 1.950456 0.833124 -1.623797
v 1.924854 0.832573 -1.613027
v 1.911745 0.832460 -1.612125
v 1.898636 0.832350 -1.611222
v 1.938584 0.832299 -1.604970
v 1.951076 0.832591 -1.614836
v 1.925471 0.832299 -1.604067
v 1.912362 0.832299 -1.603165
v 1.899253 0.832299 -1.602262
v 1.961098 0.824045 -1.660547
v 1.961715 0.828121 -1.651587
v 1.883057 0.832299 -1.646167
v 1.883674 0.832299 -1.637207
v 1.895549 0.832270 -1.656033
v 1.882440 0.832299 -1.655130
v 1.886144 0.832299 -1.601359
v 1.885527 0.832299 -1.610319
v 1.964185 0.832379 -1.615739
v 1.963569 0.832375 -1.624699
v 1.951693 0.832299 -1.605873
v 1.964802 0.832299 -1.606776
v 1.884290 0.832299 -1.628243
v 1.962949 0.831912 -1.633664
v 1.884907 0.832299 -1.619283
v 1.962332 0.830615 -1.642623
v 1.869948 0.832299 -1.645264
v 1.869328 0.832299 -1.654228
v 1.856835 0.832299 -1.644361
v 1.857455 0.832299 -1.635401
v 1.858072 0.832299 -1.626437
v 1.870565 0.832299 -1.636304
v 1.856219 0.832299 -1.653325
v 1.843726 0.832299 -1.643459
v 1.844343 0.832299 -1.634499
v 1.844963 0.832299 -1.625534
v 1.843110 0.832299 -1.652422
v 1.830617 0.832299 -1.642556
v 1.831234 0.832299 -1.633596
v 1.831850 0.832299 -1.624632
v 1.830001 0.832299 -1.651519
v 1.817508 0.832299 -1.641653
v 1.818125 0.832299 -1.632693
v 1.818741 0.832299 -1.623729
v 1.858689 0.832299 -1.617477
v 1.871181 0.832299 -1.627340
v 1.845580 0.832299 -1.616574
v 1.832467 0.832299 -1.615672
v 1.819358 0.832299 -1.614769
v 1.859305 0.832299 -1.608514
v 1.871798 0.832299 -1.618380
v 1.846196 0.832299 -1.607611
v 1.833087 0.832299 -1.606708
v 1.819974 0.832299 -1.605806
v 1.859922 0.832299 -1.599554
v 1.872414 0.832299 -1.609416
v 1.846813 0.832299 -1.598651
v 1.833704 0.832299 -1.597748
v 1.820595 0.832299 -1.596845
v 1.804399 0.832299 -1.640750
v 1.805016 0.832299 -1.631790
v 1.816892 0.832299 -1.650616
v 1.803779 0.832299 -1.649714
v 1.807482 0.832299 -1.595943
v 1.806865 0.832299 -1.604903
v 1.873031 0.832299 -1.600456
v 1.805632 0.832299 -1.622826
v 1.806249 0.832299 -1.613866
v 1.791286 0.832299 -1.639848
v 1.790670 0.832299 -1.648811
v 1.778177 0.832299 -1.638945
v 1.778794 0.832299 -1.629985
v 1.779410 0.832299 -1.621021
v 1.791903 0.832299 -1.630888
v 1.777561 0.832299 -1.647908
v 1.765068 0.832299 -1.638042
v 1.765684 0.832299 -1.629078
v 1.766301 0.832299 -1.620118
v 1.764451 0.832299 -1.647002
v 1.751959 0.832299 -1.637139
v 1.752575 0.832299 -1.628175
v 1.753192 0.832299 -1.619215
v 1.751342 0.832299 -1.646099
v 1.738846 0.832299 -1.636237
v 1.739466 0.832299 -1.627272
v 1.740083 0.832299 -1.618312
v 1.780031 0.832299 -1.612060
v 1.792523 0.832299 -1.621923
v 1.766918 0.832299 -1.611155
v 1.753808 0.832299 -1.610252
v 1.740699 0.832299 -1.609349
v 1.780647 0.832299 -1.603097
v 1.793140 0.832299 -1.612963
v 1.767538 0.832299 -1.602194
v 1.754426 0.832299 -1.601292
v 1.741316 0.832299 -1.600389
v 1.781264 0.832299 -1.594137
v 1.793756 0.832299 -1.604000
v 1.768154 0.832299 -1.593230
v 1.755045 0.832299 -1.592327
v 1.741933 0.832299 -1.591425
v 1.725737 0.832299 -1.635334
v 1.726353 0.832299 -1.626370
v 1.738229 0.832299 -1.645197
v 1.725120 0.832299 -1.644294
v 1.728824 0.832299 -1.590522
v 1.728207 0.832299 -1.599486
v 1.794373 0.832299 -1.595040
v 1.726974 0.832299 -1.617409
v 1.727590 0.832299 -1.608446
v 1.712628 0.832854 -1.634431
v 1.712011 0.832803 -1.643391
v 1.699519 0.833829 -1.633528
v 1.700135 0.833672 -1.624564
v 1.700752 0.833292 -1.615604
v 1.713244 0.832785 -1.625467
v 1.698902 0.833621 -1.642488
v 1.686410 0.834202 -1.632625
v 1.687026 0.834107 -1.623661
v 1.687643 0.833646 -1.614702
v 1.685789 0.833712 -1.641586
v 1.673297 0.832942 -1.631723
v 1.673917 0.833234 -1.622759
v 1.674534 0.833121 -1.613798
v 1.672680 0.832043 -1.640683
v 1.660188 0.829023 -1.630820
v 1.660805 0.830206 -1.621856
v 1.661425 0.831123 -1.612896
v 1.701369 0.832839 -1.606641
v 1.713861 0.832646 -1.616507
v 1.688260 0.833044 -1.605738
v 1.675150 0.832796 -1.604835
v 1.662041 0.831776 -1.603932
v 1.701989 0.832460 -1.597680
v 1.714481 0.832485 -1.607543
v 1.688876 0.832522 -1.596778
v 1.675767 0.832456 -1.595875
v 1.662658 0.832171 -1.594972
v 1.702605 0.832299 -1.588716
v 1.715098 0.832354 -1.598583
v 1.689493 0.832299 -1.587814
v 1.676384 0.832299 -1.586911
v 1.663275 0.832299 -1.586008
v 1.647079 0.821422 -1.629917
v 1.647695 0.824165 -1.620953
v 1.659571 0.827576 -1.639780
v 1.646462 0.819271 -1.638877
v 1.650166 0.832299 -1.585105
v 1.649549 0.831572 -1.594069
v 1.715714 0.832299 -1.589619
v 1.648313 0.827065 -1.611993
v 1.648929 0.829680 -1.603030
v 1.952310 0.832299 -1.596913
v 1.939201 0.832299 -1.596010
v 1.939817 0.832299 -1.587046
v 1.940434 0.832299 -1.578086
v 1.952926 0.832299 -1.587949
v 1.926087 0.832299 -1.595104
v 1.926708 0.832299 -1.586143
v 1.927324 0.832299 -1.577180
v 1.912978 0.832299 -1.594201
v 1.913595 0.832299 -1.585241
v 1.914215 0.832299 -1.576277
v 1.899869 0.832299 -1.593298
v 1.900486 0.832299 -1.584338
v 1.901103 0.832299 -1.575374
v 1.941050 0.832299 -1.569122
v 1.953543 0.832299 -1.578989
v 1.927941 0.832299 -1.568220
v 1.914832 0.832299 -1.567317
v 1.901723 0.832299 -1.566414
v 1.941667 0.832299 -1.560162
v 1.954159 0.832299 -1.570025
v 1.928557 0.832299 -1.559256
v 1.915448 0.832299 -1.558353
v 1.902339 0.832299 -1.557450
v 1.942287 0.832299 -1.551198
v 1.954780 0.832299 -1.561065
v 1.929174 0.832299 -1.550296
v 1.916065 0.832299 -1.549393
v 1.902956 0.832299 -1.548490
v 1.965419 0.832299 -1.597816
v 1.886760 0.832299 -1.592395
v 1.887377 0.832299 -1.583435
v 1.889847 0.832299 -1.547587
v 1.889230 0.832299 -1.556547
v 1.967889 0.832299 -1.561968
v 1.967272 0.832299 -1.570928
v 1.955396 0.832299 -1.552101
v 1.968505 0.832299 -1.553004
v 1.887993 0.832299 -1.574471
v 1.966652 0.832299 -1.579892
v 1.888610 0.832299 -1.565511
v 1.966035 0.832299 -1.588852
v 1.873651 0.832299 -1.591492
v 1.860538 0.832299 -1.590590
v 1.861159 0.832299 -1.581629
v 1.861775 0.832299 -1.572666
v 1.874268 0.832299 -1.582532
v 1.847429 0.832299 -1.589687
v 1.848046 0.832299 -1.580727
v 1.848666 0.832299 -1.571763
v 1.834320 0.832299 -1.588784
v 1.834937 0.832299 -1.579824
v 1.835554 0.832299 -1.570861
v 1.821211 0.832299 -1.587881
v 1.821828 0.832299 -1.578921
v 1.822444 0.832299 -1.569958
v 1.862392 0.832299 -1.563706
v 1.874884 0.832299 -1.573569
v 1.849283 0.832299 -1.562803
v 1.836174 0.832299 -1.561900
v 1.823061 0.832299 -1.560998
v 1.863008 0.832299 -1.554742
v 1.875501 0.832299 -1.564609
v 1.849899 0.832299 -1.553839
v 1.836790 0.832299 -1.552936
v 1.823678 0.832299 -1.552034
v 1.863626 0.832299 -1.545782
v 1.876118 0.832299 -1.555645
v 1.850516 0.832299 -1.544879
v 1.837407 0.832299 -1.543976
v 1.824298 0.832299 -1.543073
v 1.808102 0.832299 -1.586978
v 1.808719 0.832299 -1.578018
v 1.811186 0.832299 -1.542171
v 1.810569 0.832299 -1.551131
v 1.876734 0.832299 -1.546685
v 1.809335 0.832299 -1.569055
v 1.809952 0.832299 -1.560095
v 1.794989 0.832299 -1.586076
v 1.781880 0.832299 -1.585173
v 1.782497 0.832299 -1.576213
v 1.783114 0.832299 -1.567249
v 1.795610 0.832299 -1.577115
v 1.768771 0.832299 -1.584270
v 1.769388 0.832299 -1.575307
v 1.770005 0.832299 -1.566347
v 1.755662 0.832299 -1.583367
v 1.756279 0.832299 -1.574404
v 1.756896 0.832299 -1.565444
v 1.742550 0.832299 -1.582465
v 1.743169 0.832299 -1.573501
v 1.743786 0.832299 -1.564541
v 1.783733 0.832299 -1.558285
v 1.796226 0.832299 -1.568152
v 1.770621 0.832299 -1.557383
v 1.757512 0.832299 -1.556480
v 1.744403 0.832299 -1.555577
v 1.784351 0.832299 -1.549325
v 1.796843 0.832299 -1.559192
v 1.771241 0.832299 -1.548422
v 1.758129 0.832299 -1.547520
v 1.745020 0.832299 -1.546617
v 1.784967 0.832299 -1.540362
v 1.797460 0.832299 -1.550228
v 1.771858 0.832299 -1.539459
v 1.758749 0.832299 -1.538556
v 1.745636 0.832299 -1.537654
v 1.729441 0.832299 -1.581562
v 1.730057 0.832299 -1.572599
v 1.732527 0.832299 -1.536751
v 1.731911 0.832299 -1.545714
v 1.798077 0.832299 -1.541268
v 1.730677 0.832299 -1.563638
v 1.731294 0.832299 -1.554674
v 1.716331 0.832299 -1.580659
v 1.703222 0.832299 -1.579756
v 1.703839 0.832299 -1.570793
v 1.704456 0.832299 -1.561833
v 1.716948 0.832299 -1.571696
v 1.690113 0.832299 -1.578853
v 1.690730 0.832299 -1.569890
v 1.691347 0.832299 -1.560930
v 1.677001 0.832299 -1.577951
v 1.677621 0.832299 -1.568987
v 1.678238 0.832299 -1.560027
v 1.663892 0.832299 -1.577048
v 1.664508 0.832299 -1.568085
v 1.665128 0.832299 -1.559124
v 1.705072 0.832299 -1.552869
v 1.717565 0.832299 -1.562736
v 1.691963 0.832299 -1.551966
v 1.678854 0.832299 -1.551063
v 1.665745 0.832299 -1.550160
v 1.705693 0.832299 -1.543908
v 1.718185 0.832299 -1.553771
v 1.692580 0.832299 -1.543006
v 1.679471 0.832299 -1.542103
v 1.666362 0.832299 -1.541201
v 1.706309 0.832299 -1.534945
v 1.718801 0.832299 -1.544811
v 1.693196 0.832299 -1.534042
v 1.680087 0.832299 -1.533140
v 1.666978 0.832299 -1.532237
v 1.650783 0.832299 -1.576146
v 1.651399 0.832299 -1.567182
v 1.653869 0.832299 -1.531334
v 1.653253 0.832299 -1.540297
v 1.719418 0.832299 -1.535848
v 1.652016 0.832299 -1.558222
v 1.652636 0.832299 -1.549258
v 1.956013 0.832299 -1.543141
v 1.942904 0.832299 -1.542238
v 1.943520 0.832299 -1.533275
v 1.944137 0.832299 -1.524315
v 1.956629 0.832299 -1.534177
v 1.929794 0.832299 -1.541332
v 1.930411 0.832299 -1.532372
v 1.931027 0.832299 -1.523408
v 1.916682 0.832299 -1.540429
v 1.917299 0.832299 -1.531469
v 1.917918 0.832299 -1.522505
v 1.903573 0.832299 -1.539526
v 1.904189 0.832299 -1.530566
v 1.904806 0.832299 -1.521603
v 1.944754 0.832299 -1.515351
v 1.957246 0.832299 -1.525217
v 1.931645 0.832299 -1.514448
v 1.918535 0.832299 -1.513545
v 1.905426 0.832299 -1.512642
v 1.945371 0.832299 -1.506391
v 1.957863 0.832299 -1.516254
v 1.932261 0.832299 -1.505484
v 1.919152 0.832299 -1.504581
v 1.906043 0.832299 -1.503678
v 1.945990 0.832299 -1.497427
v 1.958483 0.832299 -1.507293
v 1.932878 0.832299 -1.496524
v 1.919769 0.832299 -1.495621
v 1.906660 0.832299 -1.494719
v 1.969122 0.832299 -1.544044
v 1.890464 0.832299 -1.538624
v 1.891080 0.832299 -1.529664
v 1.893551 0.832299 -1.493816
v 1.892934 0.832299 -1.502776
v 1.971592 0.832299 -1.508196
v 1.970975 0.832299 -1.517156
v 1.959100 0.832299 -1.498330
v 1.972209 0.832299 -1.499232
v 1.891697 0.832299 -1.520700
v 1.970355 0.832299 -1.526120
v 1.892314 0.832299 -1.511740
v 1.969738 0.832299 -1.535080
v 1.877354 0.832299 -1.537721
v 1.864242 0.832299 -1.536818
v 1.864862 0.832299 -1.527858
v 1.865479 0.832299 -1.518894
v 1.877971 0.832299 -1.528761
v 1.851133 0.832299 -1.535915
v 1.851750 0.832299 -1.526955
v 1.852370 0.832299 -1.517991
v 1.838024 0.832299 -1.535013
v 1.838641 0.832299 -1.526053
v 1.839257 0.832299 -1.517089
v 1.824914 0.832299 -1.534110
v 1.825532 0.832299 -1.525150
v 1.826148 0.832299 -1.516186
v 1.866096 0.832299 -1.509934
v 1.878588 0.832299 -1.519797
v 1.852987 0.832299 -1.509031
v 1.839877 0.832299 -1.508128
v 1.826765 0.832299 -1.507226
v 1.866712 0.832299 -1.500970
v 1.879205 0.832299 -1.510837
v 1.853603 0.832299 -1.500068
v 1.840494 0.832299 -1.499165
v 1.827381 0.832299 -1.498262
v 1.867329 0.832299 -1.492010
v 1.879821 0.832299 -1.501873
v 1.854220 0.832299 -1.491108
v 1.841111 0.832299 -1.490205
v 1.828002 0.832299 -1.489302
v 1.811805 0.832299 -1.533207
v 1.812422 0.832299 -1.524247
v 1.814889 0.832299 -1.488399
v 1.814272 0.832299 -1.497359
v 1.880441 0.832299 -1.492913
v 1.813039 0.832299 -1.515283
v 1.813656 0.832299 -1.506323
v 1.798693 0.832299 -1.532304
v 1.785584 0.832299 -1.531402
v 1.786200 0.832299 -1.522438
v 1.786821 0.832299 -1.513477
v 1.799313 0.832299 -1.523344
v 1.772475 0.832299 -1.530499
v 1.773091 0.832299 -1.521535
v 1.773708 0.832299 -1.512575
v 1.759366 0.832299 -1.529596
v 1.759982 0.832299 -1.520632
v 1.760599 0.832299 -1.511672
v 1.746257 0.832299 -1.528693
v 1.746873 0.832299 -1.519729
v 1.747490 0.832299 -1.510769
v 1.787437 0.832299 -1.504514
v 1.799930 0.832299 -1.514380
v 1.774324 0.832299 -1.503611
v 1.761215 0.832299 -1.502709
v 1.748106 0.832299 -1.501806
v 1.788054 0.832299 -1.495554
v 1.800547 0.832299 -1.505420
v 1.774945 0.832299 -1.494651
v 1.761832 0.832299 -1.493748
v 1.748723 0.832299 -1.492846
v 1.788670 0.832299 -1.486590
v 1.801163 0.832299 -1.496457
v 1.775561 0.832299 -1.485687
v 1.762452 0.832299 -1.484784
v 1.749339 0.832299 -1.483882
v 1.733144 0.832299 -1.527791
v 1.733760 0.832299 -1.518827
v 1.736230 0.832299 -1.482979
v 1.735614 0.832299 -1.491943
v 1.801780 0.832299 -1.487496
v 1.734381 0.832299 -1.509866
v 1.734997 0.832299 -1.500903
v 1.720035 0.832299 -1.526888
v 1.706926 0.832299 -1.525985
v 1.707542 0.832299 -1.517021
v 1.708159 0.832299 -1.508061
v 1.720651 0.832299 -1.517924
v 1.693817 0.832299 -1.525082
v 1.694433 0.832299 -1.516118
v 1.695050 0.832299 -1.507158
v 1.680704 0.832299 -1.524180
v 1.681324 0.832299 -1.515215
v 1.681941 0.832299 -1.506255
v 1.667595 0.832299 -1.523277
v 1.668211 0.832299 -1.514313
v 1.668832 0.832299 -1.505352
v 1.708775 0.832299 -1.499097
v 1.721268 0.832299 -1.508964
v 1.695666 0.832299 -1.498195
v 1.682557 0.832299 -1.497292
v 1.669448 0.832299 -1.496389
v 1.709396 0.832299 -1.490137
v 1.721888 0.832299 -1.500000
v 1.696283 0.832299 -1.489235
v 1.683174 0.832299 -1.488332
v 1.670065 0.832299 -1.487429
v 1.710012 0.832299 -1.481173
v 1.722505 0.832299 -1.491040
v 1.696903 0.832299 -1.480270
v 1.683791 0.832299 -1.479368
v 1.670681 0.832299 -1.478465
v 1.654486 0.832299 -1.522374
v 1.655102 0.832299 -1.513410
v 1.657572 0.832299 -1.477562
v 1.656956 0.832299 -1.486526
v 1.723121 0.832299 -1.482076
v 1.655719 0.832299 -1.504450
v 1.656339 0.832299 -1.495486
v 1.959716 0.832299 -1.489370
v 1.946607 0.832299 -1.488467
v 1.947224 0.832299 -1.479503
v 1.947841 0.832299 -1.470543
v 1.960333 0.832299 -1.480406
v 1.933498 0.832299 -1.487560
v 1.934115 0.832299 -1.478600
v 1.934731 0.832299 -1.469636
v 1.920385 0.832299 -1.486658
v 1.921002 0.832299 -1.477698
v 1.921622 0.832299 -1.468733
v 1.907276 0.832299 -1.485755
v 1.907893 0.832299 -1.476795
v 1.908509 0.832299 -1.467831
v 1.948457 0.832299 -1.461579
v 1.960950 0.832299 -1.471446
v 1.935348 0.832299 -1.460676
v 1.922239 0.832299 -1.459774
v 1.909130 0.832299 -1.458871
v 1.949074 0.832299 -1.452619
v 1.961566 0.832299 -1.462482
v 1.935964 0.832299 -1.451713
v 1.922855 0.832299 -1.450810
v 1.909746 0.832299 -1.449907
v 1.949694 0.832299 -1.443655
v 1.962187 0.832299 -1.453521
v 1.936581 0.832299 -1.442753
v 1.923472 0.832299 -1.441850
v 1.910363 0.832299 -1.440947
v 1.972826 0.832299 -1.490272
v 1.894167 0.832299 -1.484852
v 1.894784 0.832299 -1.475892
v 1.897254 0.832299 -1.440044
v 1.896637 0.832299 -1.449004
v 1.975296 0.832299 -1.454425
v 1.974679 0.832299 -1.463385
v 1.962803 0.832299 -1.444558
v 1.975912 0.832299 -1.445461
v 1.895400 0.832299 -1.466928
v 1.974062 0.832299 -1.472348
v 1.896017 0.832299 -1.457968
v 1.973442 0.832299 -1.481309
v 1.881058 0.832299 -1.483949
v 1.867945 0.832299 -1.483047
v 1.868566 0.832299 -1.474086
v 1.869182 0.832299 -1.465123
v 1.881675 0.832299 -1.474989
v 1.854836 0.832299 -1.482144
v 1.855453 0.832299 -1.473184
v 1.856073 0.832299 -1.464220
v 1.841727 0.832299 -1.481241
v 1.842344 0.832299 -1.472281
v 1.842960 0.832299 -1.463317
v 1.828618 0.832299 -1.480338
v 1.829235 0.832299 -1.471378
v 1.829851 0.832299 -1.462414
v 1.869799 0.832299 -1.456163
v 1.882291 0.832299 -1.466025
v 1.856690 0.832299 -1.455259
v 1.843581 0.832299 -1.454357
v 1.830468 0.832299 -1.453454
v 1.870415 0.832299 -1.447199
v 1.882908 0.832299 -1.457065
v 1.857306 0.832299 -1.446296
v 1.844197 0.832299 -1.445393
v 1.831088 0.832299 -1.444490
v 1.871032 0.832299 -1.438239
v 1.883524 0.832299 -1.448102
v 1.857923 0.832299 -1.437336
v 1.844814 0.832299 -1.436433
v 1.831705 0.832299 -1.435530
v 1.815509 0.832299 -1.479435
v 1.816126 0.832299 -1.470475
v 1.818592 0.832299 -1.434628
v 1.817975 0.832299 -1.443588
v 1.884145 0.832299 -1.439141
v 1.816742 0.832299 -1.461512
v 1.817359 0.832299 -1.452551
v 1.802396 0.832299 -1.478533
v 1.789287 0.832299 -1.477630
v 1.789904 0.832299 -1.468666
v 1.790524 0.832299 -1.459706
v 1.803017 0.832299 -1.469572
v 1.776178 0.832299 -1.476727
v 1.776794 0.832299 -1.467764
v 1.777411 0.832299 -1.458803
v 1.763069 0.832299 -1.475824
v 1.763685 0.832299 -1.466861
v 1.764302 0.832299 -1.457901
v 1.749960 0.832299 -1.474921
v 1.750576 0.832299 -1.465958
v 1.751193 0.832299 -1.456998
v 1.791140 0.832299 -1.450742
v 1.803633 0.832299 -1.460609
v 1.778028 0.832299 -1.449840
v 1.764919 0.832299 -1.448937
v 1.751809 0.832299 -1.448034
v 1.791757 0.832299 -1.441782
v 1.804250 0.832299 -1.451649
v 1.778648 0.832299 -1.440879
v 1.765535 0.832299 -1.439977
v 1.752427 0.832299 -1.439074
v 1.792374 0.832299 -1.432819
v 1.804866 0.832299 -1.442685
v 1.779264 0.832299 -1.431916
v 1.766155 0.832299 -1.431013
v 1.753043 0.832299 -1.430110
v 1.736847 0.832299 -1.474019
v 1.737467 0.832299 -1.465055
v 1.739934 0.832299 -1.429207
v 1.739317 0.832299 -1.438171
v 1.805483 0.832299 -1.433725
v 1.738084 0.832299 -1.456095
v 1.738700 0.832299 -1.447131
v 1.723738 0.832299 -1.473116
v 1.710629 0.832299 -1.472213
v 1.711246 0.832299 -1.463250
v 1.711862 0.832299 -1.454290
v 1.724355 0.832299 -1.464152
v 1.697520 0.832299 -1.471310
v 1.698136 0.832299 -1.462347
v 1.698753 0.832299 -1.453387
v 1.684407 0.832299 -1.470408
v 1.685027 0.832299 -1.461444
v 1.685644 0.832299 -1.452484
v 1.671298 0.832299 -1.469505
v 1.671915 0.832299 -1.460541
v 1.672535 0.832299 -1.451581
v 1.712479 0.832299 -1.445326
v 1.724972 0.832299 -1.455192
v 1.699370 0.832299 -1.444423
v 1.686261 0.832299 -1.443520
v 1.673151 0.832299 -1.442617
v 1.713099 0.832299 -1.436365
v 1.725591 0.832299 -1.446228
v 1.699987 0.832299 -1.435463
v 1.686878 0.832299 -1.434560
v 1.673769 0.832299 -1.433657
v 1.713716 0.832299 -1.427402
v 1.726208 0.832299 -1.437268
v 1.700606 0.832299 -1.426499
v 1.687494 0.832299 -1.425596
v 1.674385 0.832299 -1.424694
v 1.658189 0.832299 -1.468602
v 1.658806 0.832299 -1.459639
v 1.661276 0.832299 -1.423791
v 1.660659 0.832299 -1.432754
v 1.726825 0.832299 -1.428305
v 1.659423 0.832299 -1.450679
v 1.660042 0.832299 -1.441714
vn 0.1367 0.9497 -0.2818
vn 0.0617 0.9742 -0.2170
vn 0.0335 0.9967 -0.0746
vn 0.1130 0.9845 -0.1340
vn 0.0178 0.9996 0.0213
vn 0.0073 0.9898 -0.1420
vn -0.0184 0.9992 -0.0350
vn -0.0199 0.9971 -0.0735
vn -0.0407 0.9991 -0.0124
vn -0.0193 0.9995 -0.0236
vn -0.0330 0.9995 -0.0024
vn 0.0788 0.9966 -0.0232
vn -0.0218 0.9992 0.0328
vn -0.0382 0.9990 0.0248
vn -0.0306 0.9995 0.0101
vn 0.0101 0.9979 0.0643
vn 0.0453 0.9983 0.0355
vn -0.0131 0.9981 0.0603
vn -0.0234 0.9990 0.0386
vn -0.0196 0.9997 0.0144
vn 0.0056 0.9985 0.0543
vn 0.0183 0.9991 0.0395
vn -0.0033 0.9989 0.0478
vn -0.0079 0.9995 0.0300
vn -0.0081 0.9999 0.0118
vn 0.1854 0.9261 -0.3285
vn 0.1531 0.9168 -0.3689
vn -0.0059 1.0000 -0.0024
vn 0.0029 0.9997 -0.0236
vn 0.0011 1.0000 -0.0001
vn -0.0016 1.0000 0.0036
vn -0.0025 1.0000 0.0018
vn -0.0000 1.0000 -0.0000
vn 0.0117 0.9999 0.0080
vn 0.0034 0.9999 0.0138
vn 0.0003 1.0000 0.0045
vn 0.0972 0.9551 -0.2797
vn -0.0108 0.9999 -0.0001
vn -0.0006 0.9999 0.0102
vn 0.0432 0.9989 -0.0176
vn 0.0464 0.9822 -0.1823
vn -0.0105 0.9999 0.0012
vn 0.0004 0.9999 0.0159
vn 0.0889 0.9921 -0.0881
vn 0.0146 0.9959 -0.0892
vn -0.0071 1.0000 0.0016
vn 0.0018 0.9998 0.0181
vn 0.1371 0.9705 -0.1985
vn 0.0197 0.9998 -0.0012
vn 0.0191 0.9998 -0.0013
vn 0.0015 1.0000 0.0005
vn 0.0169 0.9999 0.0003
vn 0.0114 0.9999 0.0009
vn 0.0056 1.0000 0.0010
vn 0.0571 0.9984 -0.0020
vn 0.0498 0.9987 -0.0053
vn 0.0522 0.9983 0.0262
vn 0.0510 0.9987 0.0099
vn -0.0338 0.9992 -0.0207
vn -0.0114 0.9995 0.0287
vn -0.1898 0.9802 -0.0564
vn -0.1393 0.9902 -0.0067
vn -0.3916 0.9129 -0.1151
vn -0.3171 0.9433 -0.0983
vn 0.0421 0.9982 0.0425
vn 0.0371 0.9992 0.0158
vn 0.0015 0.9985 0.0553
vn -0.0866 0.9960 0.0237
vn -0.2180 0.9727 -0.0793
vn 0.0260 0.9987 0.0430
vn 0.0207 0.9997 0.0158
vn 0.0063 0.9983 0.0587
vn -0.0405 0.9986 0.0350
vn -0.1153 0.9918 -0.0555
vn 0.0105 0.9996 0.0274
vn 0.0071 0.9999 0.0096
vn 0.0050 0.9992 0.0390
vn -0.0103 0.9996 0.0273
vn -0.0370 0.9990 -0.0251
vn 0.0544 0.9984 -0.0117
vn -0.5146 0.8385 -0.1790
vn -0.4279 0.8949 -0.1267
vn -0.5360 0.8285 -0.1620
vn -0.0159 0.9995 -0.0266
vn -0.0873 0.9904 -0.1068
vn 0.0008 1.0000 0.0024
vn 0.0391 0.9987 -0.0319
vn -0.4500 0.8673 -0.2127
vn -0.0036 1.0000 -0.0038
vn -0.0001 1.0000 0.0095
vn -0.0544 0.9968 -0.0593
vn -0.3432 0.9135 -0.2187
vn 0.0015 0.9999 0.0117
vn -0.2202 0.9710 -0.0930
vn -0.2112 0.9595 -0.1864
vn 0.0018 1.0000 0.0077
vn 0.2091 0.8846 -0.4168
vt 0.041700 0.041700
vt 0.083300 0.041700
vt 0.083300 0.083300
vt 0.041700 0.083300
vt 0.083300 0.125000
vt 0.125000 0.041700
vt 0.125000 0.083300
vt 0.166700 0.041700
vt 0.166700 0.083300
vt 0.208300 0.041700
vt 0.208300 0.083300
vt 0.041700 0.125000
vt 0.125000 0.125000
vt 0.166700 0.125000
vt 0.208300 0.125000
vt 0.083300 0.166700
vt 0.041700 0.166700
vt 0.125000 0.166700
vt 0.166700 0.166700
vt 0.208300 0.166700
vt 0.083300 0.208300
vt 0.041700 0.208300
vt 0.125000 0.208300
vt 0.166700 0.208300
vt 0.208300 0.208300
vt 0.000000 0.041700
vt 0.041700 0.000000
vt 0.250000 0.041700
vt 0.208300 0.000000
vt 0.250000 0.000000
vt 0.208300 0.250000
vt 0.250000 0.208300
vt 0.250000 0.250000
vt 0.000000 0.208300
vt 0.041700 0.250000
vt 0.000000 0.250000
vt 0.083300 0.000000
vt 0.250000 0.083300
vt 0.166700 0.250000
vt 0.000000 0.166700
vt 0.125000 0.000000
vt 0.250000 0.125000
vt 0.125000 0.250000
vt 0.000000 0.125000
vt 0.166700 0.000000
vt 0.250000 0.166700
vt 0.083300 0.250000
vt 0.000000 0.083300
vt 0.291700 0.041700
vt 0.333300 0.041700
vt 0.333300 0.083300
vt 0.291700 0.083300
vt 0.375000 0.041700
vt 0.375000 0.083300
vt 0.416700 0.041700
vt 0.416700 0.083300
vt 0.458300 0.041700
vt 0.458300 0.083300
vt 0.333300 0.125000
vt 0.291700 0.125000
vt 0.375000 0.125000
vt 0.416700 0.125000
vt 0.458300 0.125000
vt 0.333300 0.166700
vt 0.291700 0.166700
vt 0.375000 0.166700
vt 0.416700 0.166700
vt 0.458300 0.166700
vt 0.333300 0.208300
vt 0.291700 0.208300
vt 0.375000 0.208300
vt 0.416700 0.208300
vt 0.458300 0.208300
vt 0.500000 0.041700
vt 0.458300 0.000000
vt 0.500000 0.000000
vt 0.500000 0.250000
vt 0.500000 0.208300
vt 0.291700 0.250000
vt 0.291700 0.000000
vt 0.333300 0.000000
vt 0.500000 0.083300
vt 0.458300 0.250000
vt 0.416700 0.250000
vt 0.375000 0.000000
vt 0.500000 0.125000
vt 0.375000 0.250000
vt 0.416700 0.000000
vt 0.500000 0.166700
vt 0.333300 0.250000
vt 0.541700 0.041700
vt 0.583300 0.041700
vt 0.583300 0.083300
vt 0.541700 0.083300
vt 0.625000 0.041700
vt 0.625000 0.083300
vt 0.666700 0.041700
vt 0.666700 0.083300
vt 0.708300 0.041700
vt 0.708300 0.083300
vt 0.583300 0.125000
vt 0.541700 0.125000
vt 0.625000 0.125000
vt 0.666700 0.125000
vt 0.708300 0.125000
vt 0.583300 0.166700
vt 0.541700 0.166700
vt 0.625000 0.166700
vt 0.666700 0.166700
vt 0.708300 0.166700
vt 0.583300 0.208300
vt 0.541700 0.208300
vt 0.625000 0.208300
vt 0.666700 0.208300
vt 0.708300 0.208300
vt 0.750000 0.041700
vt 0.708300 0.000000
vt 0.750000 0.000000
vt 0.708300 0.250000
vt 0.750000 0.208300
vt 0.750000 0.250000
vt 0.541700 0.250000
vt 0.541700 0.000000
vt 0.583300 0.000000
vt 0.750000 0.083300
vt 0.666700 0.250000
vt 0.625000 0.000000
vt 0.750000 0.125000
vt 0.625000 0.250000
vt 0.666700 0.000000
vt 0.750000 0.166700
vt 0.583300 0.250000
vt 0.791700 0.041700
vt 0.833300 0.041700
vt 0.833300 0.083300
vt 0.791700 0.083300
vt 0.875000 0.041700
vt 0.875000 0.083300
vt 0.916700 0.041700
vt 0.916700 0.083300
vt 0.958300 0.041700
vt 0.958300 0.083300
vt 0.833300 0.125000
vt 0.791700 0.125000
vt 0.875000 0.125000
vt 0.916700 0.125000
vt 0.958300 0.125000
vt 0.833300 0.166700
vt 0.791700 0.166700
vt 0.875000 0.166700
vt 0.916700 0.166700
vt 0.958300 0.166700
vt 0.833300 0.208300
vt 0.791700 0.208300
vt 0.875000 0.208300
vt 0.916700 0.208300
vt 0.958300 0.208300
vt 0.791700 0.000000
vt 1.000000 0.041700
vt 0.958300 0.000000
vt 1.000000 0.000000
vt 1.000000 0.250000
vt 1.000000 0.208300
vt 0.791700 0.250000
vt 0.833300 0.000000
vt 1.000000 0.083300
vt 0.958300 0.250000
vt 0.916700 0.250000
vt 0.875000 0.000000
vt 1.000000 0.125000
vt 0.875000 0.250000
vt 0.916700 0.000000
vt 1.000000 0.166700
vt 0.833300 0.250000
vt 0.041700 0.291700
vt 0.083300 0.291700
vt 0.083300 0.333300
vt 0.041700 0.333300
vt 0.125000 0.291700
vt 0.125000 0.333300
vt 0.166700 0.291700
vt 0.166700 0.333300
vt 0.208300 0.291700
vt 0.208300 0.333300
vt 0.083300 0.375000
vt 0.041700 0.375000
vt 0.125000 0.375000
vt 0.166700 0.375000
vt 0.208300 0.375000
vt 0.083300 0.416700
vt 0.041700 0.416700
vt 0.125000 0.416700
vt 0.166700 0.416700
vt 0.208300 0.416700
vt 0.083300 0.458300
vt 0.041700 0.458300
vt 0.125000 0.458300
vt 0.166700 0.458300
vt 0.208300 0.458300
vt 0.000000 0.291700
vt 0.250000 0.291700
vt 0.208300 0.500000
vt 0.250000 0.458300
vt 0.250000 0.500000
vt 0.000000 0.458300
vt 0.041700 0.500000
vt 0.000000 0.500000
vt 0.250000 0.333300
vt 0.166700 0.500000
vt 0.000000 0.416700
vt 0.250000 0.375000
vt 0.125000 0.500000
vt 0.000000 0.375000
vt 0.250000 0.416700
vt 0.083300 0.500000
vt 0.000000 0.333300
vt 0.291700 0.291700
vt 0.333300 0.291700
vt 0.333300 0.333300
vt 0.291700 0.333300
vt 0.375000 0.291700
vt 0.375000 0.333300
vt 0.416700 0.291700
vt 0.416700 0.333300
vt 0.458300 0.291700
vt 0.458300 0.333300
vt 0.333300 0.375000
vt 0.291700 0.375000
vt 0.375000 0.375000
vt 0.416700 0.375000
vt 0.458300 0.375000
vt 0.333300 0.416700
vt 0.291700 0.416700
vt 0.375000 0.416700
vt 0.416700 0.416700
vt 0.458300 0.416700
vt 0.333300 0.458300
vt 0.291700 0.458300
vt 0.375000 0.458300
vt 0.416700 0.458300
vt 0.458300 0.458300
vt 0.500000 0.291700
vt 0.500000 0.500000
vt 0.500000 0.458300
vt 0.291700 0.500000
vt 0.500000 0.333300
vt 0.458300 0.500000
vt 0.416700 0.500000
vt 0.500000 0.375000
vt 0.375000 0.500000
vt 0.500000 0.416700
vt 0.333300 0.500000
vt 0.541700 0.291700
vt 0.583300 0.291700
vt 0.583300 0.333300
vt 0.541700 0.333300
vt 0.625000 0.291700
vt 0.625000 0.333300
vt 0.666700 0.291700
vt 0.666700 0.333300
vt 0.708300 0.291700
vt 0.708300 0.333300
vt 0.583300 0.375000
vt 0.541700 0.375000
vt 0.625000 0.375000
vt 0.666700 0.375000
vt 0.708300 0.375000
vt 0.583300 0.416700
vt 0.541700 0.416700
vt 0.625000 0.416700
vt 0.666700 0.416700
vt 0.708300 0.416700
vt 0.583300 0.458300
vt 0.541700 0.458300
vt 0.625000 0.458300
vt 0.666700 0.458300
vt 0.708300 0.458300
vt 0.750000 0.291700
vt 0.708300 0.500000
vt 0.750000 0.458300
vt 0.750000 0.500000
vt 0.541700 0.500000
vt 0.750000 0.333300
vt 0.666700 0.500000
vt 0.750000 0.375000
vt 0.625000 0.500000
vt 0.750000 0.416700
vt 0.583300 0.500000
vt 0.791700 0.291700
vt 0.833300 0.291700
vt 0.833300 0.333300
vt 0.791700 0.333300
vt 0.875000 0.291700
vt 0.875000 0.333300
vt 0.916700 0.291700
vt 0.916700 0.333300
vt 0.958300 0.291700
vt 0.958300 0.333300
vt 0.833300 0.375000
vt 0.791700 0.375000
vt 0.875000 0.375000
vt 0.916700 0.375000
vt 0.958300 0.375000
vt 0.833300 0.416700
vt 0.791700 0.416700
vt 0.875000 0.416700
vt 0.916700 0.416700
vt 0.958300 0.416700
vt 0.833300 0.458300
vt 0.791700 0.458300
vt 0.875000 0.458300
vt 0.916700 0.458300
vt 0.958300 0.458300
vt 1.000000 0.291700
vt 0.958300 0.500000
vt 1.000000 0.458300
vt 1.000000 0.500000
vt 0.791700 0.500000
vt 1.000000 0.333300
vt 0.916700 0.500000
vt 1.000000 0.375000
vt 0.875000 0.500000
vt 1.000000 0.416700
vt 0.833300 0.500000
vt 0.041700 0.541700
vt 0.083300 0.541700
vt 0.083300 0.583300
vt 0.041700 0.583300
vt 0.125000 0.541700
vt 0.125000 0.583300
vt 0.166700 0.541700
vt 0.166700 0.583300
vt 0.208300 0.541700
vt 0.208300 0.583300
vt 0.083300 0.625000
vt 0.041700 0.625000
vt 0.125000 0.625000
vt 0.166700 0.625000
vt 0.208300 0.625000
vt 0.083300 0.666700
vt 0.041700 0.666700
vt 0.125000 0.666700
vt 0.166700 0.666700
vt 0.208300 0.666700
vt 0.083300 0.708300
vt 0.041700 0.708300
vt 0.125000 0.708300
vt 0.166700 0.708300
vt 0.208300 0.708300
vt 0.000000 0.541700
vt 0.250000 0.541700
vt 0.208300 0.750000
vt 0.250000 0.708300
vt 0.250000 0.750000
vt 0.000000 0.708300
vt 0.041700 0.750000
vt 0.000000 0.750000
vt 0.250000 0.583300
vt 0.166700 0.750000
vt 0.000000 0.666700
vt 0.250000 0.625000
vt 0.125000 0.750000
vt 0.000000 0.625000
vt 0.250000 0.666700
vt 0.083300 0.750000
vt 0.000000 0.583300
vt 0.291700 0.541700
vt 0.333300 0.541700
vt 0.333300 0.583300
vt 0.291700 0.583300
vt 0.375000 0.541700
vt 0.375000 0.583300
vt 0.416700 0.541700
vt 0.416700 0.583300
vt 0.458300 0.541700
vt 0.458300 0.583300
vt 0.333300 0.625000
vt 0.291700 0.625000
vt 0.375000 0.625000
vt 0.416700 0.625000
vt 0.458300 0.625000
vt 0.333300 0.666700
vt 0.291700 0.666700
vt 0.375000 0.666700
vt 0.416700 0.666700
vt 0.458300 0.666700
vt 0.333300 0.708300
vt 0.291700 0.708300
vt 0.375000 0.708300
vt 0.416700 0.708300
vt 0.458300 0.708300
vt 0.500000 0.541700
vt 0.500000 0.750000
vt 0.500000 0.708300
vt 0.291700 0.750000
vt 0.500000 0.583300
vt 0.458300 0.750000
vt 0.416700 0.750000
vt 0.500000 0.625000
vt 0.375000 0.750000
vt 0.500000 0.666700
vt 0.333300 0.750000
vt 0.541700 0.541700
vt 0.583300 0.541700
vt 0.583300 0.583300
vt 0.541700 0.583300
vt 0.625000 0.541700
vt 0.625000 0.583300
vt 0.666700 0.541700
vt 0.666700 0.583300
vt 0.708300 0.541700
vt 0.708300 0.583300
vt 0.583300 0.625000
vt 0.541700 0.625000
vt 0.625000 0.625000
vt 0.666700 0.625000
vt 0.708300 0.625000
vt 0.583300 0.666700
vt 0.541700 0.666700
vt 0.625000 0.666700
vt 0.666700 0.666700
vt 0.708300 0.666700
vt 0.583300 0.708300
vt 0.541700 0.708300
vt 0.625000 0.708300
vt 0.666700 0.708300
vt 0.708300 0.708300
vt 0.750000 0.541700
vt 0.708300 0.750000
vt 0.750000 0.708300
vt 0.750000 0.750000
vt 0.541700 0.750000
vt 0.750000 0.583300
vt 0.666700 0.750000
vt 0.750000 0.625000
vt 0.625000 0.750000
vt 0.750000 0.666700
vt 0.583300 0.750000
vt 0.791700 0.541700
vt 0.833300 0.541700
vt 0.833300 0.583300
vt 0.791700 0.583300
vt 0.875000 0.541700
vt 0.875000 0.583300
vt 0.916700 0.541700
vt 0.916700 0.583300
vt 0.958300 0.541700
vt 0.958300 0.583300
vt 0.833300 0.625000
vt 0.791700 0.625000
vt 0.875000 0.625000
vt 0.916700 0.625000
vt 0.958300 0.625000
vt 0.833300 0.666700
vt 0.791700 0.666700
vt 0.875000 0.666700
vt 0.916700 0.666700
vt 0.958300 0.666700
vt 0.833300 0.708300
vt 0.791700 0.708300
vt 0.875000 0.708300
vt 0.916700 0.708300
vt 0.958300 0.708300
vt 1.000000 0.541700
vt 0.958300 0.750000
vt 1.000000 0.708300
vt 1.000000 0.750000
vt 0.791700 0.750000
vt 1.000000 0.583300
vt 0.916700 0.750000
vt 1.000000 0.625000
vt 0.875000 0.750000
vt 1.000000 0.666700
vt 0.833300 0.750000
vt 0.041700 0.791700
vt 0.083300 0.791700
vt 0.083300 0.833300
vt 0.041700 0.833300
vt 0.125000 0.791700
vt 0.125000 0.833300
vt 0.166700 0.791700
vt 0.166700 0.833300
vt 0.208300 0.791700
vt 0.208300 0.833300
vt 0.083300 0.875000
vt 0.041700 0.875000
vt 0.125000 0.875000
vt 0.166700 0.875000
vt 0.208300 0.875000
vt 0.083300 0.916700
vt 0.041700 0.916700
vt 0.125000 0.916700
vt 0.166700 0.916700
vt 0.208300 0.916700
vt 0.083300 0.958300
vt 0.041700 0.958300
vt 0.125000 0.958300
vt 0.166700 0.958300
vt 0.208300 0.958300
vt 0.000000 0.791700
vt 0.250000 0.791700
vt 0.208300 1.000000
vt 0.250000 0.958300
vt 0.250000 1.000000
vt 0.000000 0.958300
vt 0.041700 1.000000
vt 0.000000 1.000000
vt 0.250000 0.833300
vt 0.166700 1.000000
vt 0.000000 0.916700
vt 0.250000 0.875000
vt 0.125000 1.000000
vt 0.000000 0.875000
vt 0.250000 0.916700
vt 0.083300 1.000000
vt 0.000000 0.833300
vt 0.291700 0.791700
vt 0.333300 0.791700
vt 0.333300 0.833300
vt 0.291700 0.833300
vt 0.375000 0.791700
vt 0.375000 0.833300
vt 0.416700 0.791700
vt 0.416700 0.833300
vt 0.458300 0.791700
vt 0.458300 0.833300
vt 0.333300 0.875000
vt 0.291700 0.875000
vt 0.375000 0.875000
vt 0.416700 0.875000
vt 0.458300 0.875000
vt 0.333300 0.916700
vt 0.291700 0.916700
vt 0.375000 0.916700
vt 0.416700 0.916700
vt 0.458300 0.916700
vt 0.333300 0.958300
vt 0.291700 0.958300
vt 0.375000 0.958300
vt 0.416700 0.958300
vt 0.458300 0.958300
vt 0.500000 0.791700
vt 0.500000 1.000000
vt 0.500000 0.958300
vt 0.291700 1.000000
vt 0.500000 0.833300
vt 0.458300 1.000000
vt 0.416700 1.000000
vt 0.500000 0.875000
vt 0.375000 1.000000
vt 0.500000 0.916700
vt 0.333300 1.000000
vt 0.541700 0.791700
vt 0.583300 0.791700
vt 0.583300 0.833300
vt 0.541700 0.833300
vt 0.625000 0.791700
vt 0.625000 0.833300
vt 0.666700 0.791700
vt 0.666700 0.833300
vt 0.708300 0.791700
vt 0.708300 0.833300
vt 0.583300 0.875000
vt 0.541700 0.875000
vt 0.625000 0.875000
vt 0.666700 0.875000
vt 0.708300 0.875000
vt 0.583300 0.916700
vt 0.541700 0.916700
vt 0.625000 0.916700
vt 0.666700 0.916700
vt 0.708300 0.916700
vt 0.583300 0.958300
vt 0.541700 0.958300
vt 0.625000 0.958300
vt 0.666700 0.958300
vt 0.708300 0.958300
vt 0.750000 0.791700
vt 0.708300 1.000000
vt 0.750000 0.958300
vt 0.750000 1.000000
vt 0.541700 1.000000
vt 0.750000 0.833300
vt 0.666700 1.000000
vt 0.750000 0.875000
vt 0.625000 1.000000
vt 0.750000 0.916700
vt 0.583300 1.000000
vt 0.791700 0.791700
vt 0.833300 0.791700
vt 0.833300 0.833300
vt 0.791700 0.833300
vt 0.875000 0.791700
vt 0.875000 0.833300
vt 0.916700 0.791700
vt 0.916700 0.833300
vt 0.958300 0.791700
vt 0.958300 0.833300
vt 0.833300 0.875000
vt 0.791700 0.875000
vt 0.875000 0.875000
vt 0.916700 0.875000
vt 0.958300 0.875000
vt 0.833300 0.916700
vt 0.791700 0.916700
vt 0.875000 0.916700
vt 0.916700 0.916700
vt 0.958300 0.916700
vt 0.833300 0.958300
vt 0.791700 0.958300
vt 0.875000 0.958300
vt 0.916700 0.958300
vt 0.958300 0.958300
vt 1.000000 0.791700
vt 0.958300 1.000000
vt 1.000000 0.958300
vt 1.000000 1.000000
vt 0.791700 1.000000
vt 1.000000 0.833300
vt 0.916700 1.000000
vt 1.000000 0.875000
vt 0.875000 1.000000
vt 1.000000 0.916700
vt 0.833300 1.000000
vt 0.000000 0.000000
s 1
f 1/1/1 3/2/2 4/3/3
f 6/4/4 4/3/3 5/5/5
f 3/2/2 8/6/6 9/7/7
f 9/7/7 4/3/3 3/2/2
f 8/6/6 12/8/8 13/9/9
f 13/9/9 9/7/7 8/6/6
f 12/8/8 16/10/10 17/11/11
f 17/11/11 13/9/9 12/8/8
f 5/5/5 20/12/12 6/4/4
f 10/13/13 5/5/5 4/3/3
f 14/14/14 10/13/13 9/7/7
f 18/15/15 14/14/14 13/9/9
f 19/16/16 25/17/17 20/12/12
f 21/18/18 19/16/16 5/5/5
f 22/19/19 21/18/18 10/13/13
f 23/20/20 22/19/19 14/14/14
f 24/21/21 30/22/22 25/17/17
f 26/23/23 24/21/21 19/16/16
f 27/24/24 26/23/23 21/18/18
f 28/25/25 27/24/24 22/19/19
f 35/26/26 2/27/27 1/1/1
f 36/28/28 16/10/10 38/29/29
f 38/29/29 39/30/30 36/28/28
f 33/31/31 41/32/32 40/33/33
f 42/34/34 30/22/22 44/35/35
f 44/35/35 45/36/36 42/34/34
f 2/27/27 7/37/37 3/2/2
f 37/38/38 17/11/11 16/10/10
f 33/31/31 32/39/39 27/24/24
f 43/40/40 25/17/17 30/22/22
f 7/37/37 11/41/41 8/6/6
f 46/42/42 18/15/15 17/11/11
f 32/39/39 31/43/43 26/23/23
f 47/44/44 20/12/12 25/17/17
f 11/41/41 15/45/45 12/8/8
f 48/46/46 23/20/20 18/15/15
f 31/43/43 29/47/47 24/21/21
f 49/48/48 6/4/4 20/12/12
f 15/45/45 38/29/29 16/10/10
f 41/32/32 28/25/25 23/20/20
f 29/47/47 44/35/35 30/22/22
f 35/26/26 1/1/1 6/4/4
f 50/49/33 52/50/33 53/51/33
f 53/51/33 55/52/33 50/49/33
f 52/50/33 57/53/33 58/54/33
f 58/54/33 53/51/33 52/50/33
f 57/53/33 61/55/33 62/56/33
f 62/56/33 58/54/33 57/53/33
f 61/55/33 65/57/33 66/58/33
f 66/58/33 62/56/33 61/55/33
f 54/59/33 69/60/33 55/52/33
f 59/61/33 54/59/33 53/51/33
f 63/62/33 59/61/33 58/54/33
f 67/63/33 63/62/33 62/56/33
f 68/64/33 74/65/33 69/60/33
f 70/66/33 68/64/33 54/59/33
f 71/67/33 70/66/33 59/61/33
f 72/68/33 71/67/33 63/62/33
f 73/69/33 79/70/33 74/65/33
f 75/71/33 73/69/33 68/64/33
f 76/72/33 75/71/33 70/66/33
f 77/73/33 76/72/33 71/67/33
f 39/30/30 50/49/33 36/28/28
f 83/74/33 65/57/33 85/75/33
f 85/75/33 86/76/33 83/74/33
f 87/77/33 77/73/33 88/78/33
f 41/32/32 79/70/33 89/79/33
f 89/79/33 40/33/33 41/32/32
f 51/80/33 56/81/33 52/50/33
f 84/82/33 66/58/33 65/57/33
f 82/83/33 81/84/33 76/72/33
f 48/46/46 74/65/33 79/70/33
f 56/81/33 60/85/33 57/53/33
f 90/86/33 67/63/33 66/58/33
f 81/84/33 80/87/33 75/71/33
f 46/42/42 69/60/33 74/65/33
f 60/85/33 64/88/33 61/55/33
f 91/89/33 72/68/33 67/63/33
f 80/87/33 78/90/33 73/69/33
f 37/38/38 55/52/33 69/60/33
f 64/88/33 85/75/33 65/57/33
f 88/78/33 77/73/33 72/68/33
f 78/90/33 89/79/33 79/70/33
f 36/28/28 50/49/33 55/52/33
f 92/91/33 94/92/33 95/93/33
f 95/93/33 97/94/33 92/91/33
f 94/92/33 99/95/33 100/96/33
f 100/96/33 95/93/33 94/92/33
f 99/95/33 103/97/33 104/98/33
f 104/98/33 100/96/33 99/95/33
f 103/97/33 107/99/33 108/100/33
f 108/100/33 104/98/33 103/97/33
f 96/101/33 111/102/33 97/94/33
f 101/103/33 96/101/33 95/93/33
f 105/104/33 101/103/33 100/96/33
f 109/105/33 105/104/33 104/98/33
f 110/106/33 116/107/33 111/102/33
f 112/108/33 110/106/33 96/101/33
f 113/109/33 112/108/33 101/103/33
f 114/110/33 113/109/33 105/104/33
f 115/111/33 121/112/33 116/107/33
f 117/113/33 115/111/33 110/106/33
f 118/114/33 117/113/33 112/108/33
f 119/115/33 118/114/33 113/109/33
f 86/76/33 92/91/33 83/74/33
f 125/116/49 107/99/33 127/117/33
f 127/117/33 128/118/50 125/116/49
f 124/119/33 130/120/51 129/121/33
f 88/78/33 121/112/33 131/122/33
f 131/122/33 87/77/33 88/78/33
f 93/123/33 98/124/33 94/92/33
f 126/125/52 108/100/33 107/99/33
f 124/119/33 123/126/33 118/114/33
f 91/89/33 116/107/33 121/112/33
f 98/124/33 102/127/33 99/95/33
f 132/128/53 109/105/33 108/100/33
f 123/126/33 122/129/33 117/113/33
f 90/86/33 111/102/33 116/107/33
f 102/127/33 106/130/33 103/97/33
f 133/131/54 114/110/33 109/105/33
f 122/129/33 120/132/33 115/111/33
f 84/82/33 97/94/33 111/102/33
f 106/130/33 127/117/33 107/99/33
f 130/120/51 119/115/33 114/110/33
f 120/132/33 131/122/33 121/112/33
f 83/74/33 92/91/33 97/94/33
f 134/133/55 136/134/56 137/135/57
f 137/135/57 139/136/58 134/133/55
f 136/134/56 141/137/59 142/138/60
f 142/138/60 137/135/57 136/134/56
f 141/137/59 145/139/61 146/140/62
f 146/140/62 142/138/60 141/137/59
f 145/139/61 149/141/63 150/142/64
f 150/142/64 146/140/62 145/139/61
f 138/143/65 153/144/66 139/136/58
f 143/145/67 138/143/65 137/135/57
f 147/146/68 143/145/67 142/138/60
f 151/147/69 147/146/68 146/140/62
f 152/148/70 158/149/71 153/144/66
f 154/150/72 152/148/70 138/143/65
f 155/151/73 154/150/72 143/145/67
f 156/152/74 155/151/73 147/146/68
f 157/153/75 163/154/76 158/149/71
f 159/155/77 157/153/75 152/148/70
f 160/156/78 159/155/77 154/150/72
f 161/157/79 160/156/78 155/151/73
f 135/158/80 125/116/49 128/118/50
f 167/159/81 149/141/63 169/160/82
f 169/160/82 170/161/83 167/159/81
f 171/162/84 161/157/79 172/163/85
f 130/120/51 163/154/76 173/164/86
f 173/164/86 129/121/33 130/120/51
f 135/158/80 140/165/87 136/134/56
f 168/166/88 150/142/64 149/141/63
f 166/167/89 165/168/90 160/156/78
f 133/131/54 158/149/71 163/154/76
f 140/165/87 144/169/91 141/137/59
f 174/170/92 151/147/69 150/142/64
f 165/168/90 164/171/93 159/155/77
f 132/128/53 153/144/66 158/149/71
f 144/169/91 148/172/94 145/139/61
f 175/173/95 156/152/74 151/147/69
f 164/171/93 162/174/96 157/153/75
f 126/125/52 139/136/58 153/144/66
f 148/172/94 169/160/82 149/141/63
f 172/163/85 161/157/79 156/152/74
f 162/174/96 173/164/86 163/154/76
f 125/116/49 134/133/55 139/136/58
f 176/175/33 177/176/33 178/177/33
f 178/177/33 180/178/33 176/175/33
f 177/176/33 181/179/33 182/180/33
f 182/180/33 178/177/33 177/176/33
f 181/179/33 184/181/33 185/182/33
f 185/182/33 182/180/33 181/179/33
f 184/181/33 187/183/33 188/184/33
f 188/184/33 185/182/33 184/181/33
f 179/185/33 191/186/33 180/178/33
f 183/187/33 179/185/33 178/177/33
f 186/188/33 183/187/33 182/180/33
f 189/189/33 186/188/33 185/182/33
f 190/190/33 196/191/33 191/186/33
f 192/192/33 190/190/33 179/185/33
f 193/193/33 192/192/33 183/187/33
f 194/194/33 193/193/33 186/188/33
f 195/195/33 201/196/33 196/191/33
f 197/197/33 195/195/33 190/190/33
f 198/198/33 197/197/33 192/192/33
f 199/199/33 198/198/33 193/193/33
f 44/35/35 205/200/33 45/36/36
f 206/201/33 187/183/33 33/31/31
f 33/31/31 40/33/33 206/201/33
f 204/202/33 209/203/33 208/204/33
f 210/205/33 201/196/33 212/206/33
f 212/206/33 213/207/33 210/205/33
f 44/35/35 29/47/47 177/176/33
f 207/208/33 188/184/33 187/183/33
f 204/202/33 203/209/33 198/198/33
f 211/210/33 196/191/33 201/196/33
f 29/47/47 31/43/43 181/179/33
f 214/211/33 189/189/33 188/184/33
f 203/209/33 202/212/33 197/197/33
f 215/213/33 191/186/33 196/191/33
f 31/43/43 32/39/39 184/181/33
f 216/214/33 194/194/33 189/189/33
f 202/212/33 200/215/33 195/195/33
f 217/216/33 180/178/33 191/186/33
f 32/39/39 33/31/31 187/183/33
f 209/203/33 199/199/33 194/194/33
f 200/215/33 212/206/33 201/196/33
f 205/200/33 176/175/33 180/178/33
f 218/217/33 219/218/33 220/219/33
f 220/219/33 222/220/33 218/217/33
f 219/218/33 223/221/33 224/222/33
f 224/222/33 220/219/33 219/218/33
f 223/221/33 226/223/33 227/224/33
f 227/224/33 224/222/33 223/221/33
f 226/223/33 229/225/33 230/226/33
f 230/226/33 227/224/33 226/223/33
f 221/227/33 233/228/33 222/220/33
f 225/229/33 221/227/33 220/219/33
f 228/230/33 225/229/33 224/222/33
f 231/231/33 228/230/33 227/224/33
f 232/232/33 238/233/33 233/228/33
f 234/234/33 232/232/33 221/227/33
f 235/235/33 234/234/33 225/229/33
f 236/236/33 235/235/33 228/230/33
f 237/237/33 243/238/33 238/233/33
f 239/239/33 237/237/33 232/232/33
f 240/240/33 239/239/33 234/234/33
f 241/241/33 240/240/33 235/235/33
f 40/33/33 218/217/33 206/201/33
f 247/242/33 229/225/33 82/83/33
f 82/83/33 87/77/33 247/242/33
f 249/243/33 241/241/33 250/244/33
f 209/203/33 243/238/33 251/245/33
f 251/245/33 208/204/33 209/203/33
f 89/79/33 78/90/33 219/218/33
f 248/246/33 230/226/33 229/225/33
f 246/247/33 245/248/33 240/240/33
f 216/214/33 238/233/33 243/238/33
f 78/90/33 80/87/33 223/221/33
f 252/249/33 231/231/33 230/226/33
f 245/248/33 244/250/33 239/239/33
f 214/211/33 233/228/33 238/233/33
f 80/87/33 81/84/33 226/223/33
f 253/251/33 236/236/33 231/231/33
f 244/250/33 242/252/33 237/237/33
f 207/208/33 222/220/33 233/228/33
f 81/84/33 82/83/33 229/225/33
f 250/244/33 241/241/33 236/236/33
f 242/252/33 251/245/33 243/238/33
f 206/201/33 218/217/33 222/220/33
f 254/253/33 255/254/33 256/255/33
f 256/255/33 258/256/33 254/253/33
f 255/254/33 259/257/33 260/258/33
f 260/258/33 256/255/33 255/254/33
f 259/257/33 262/259/33 263/260/33
f 263/260/33 260/258/33 259/257/33
f 262/259/33 265/261/33 266/262/33
f 266/262/33 263/260/33 262/259/33
f 257/263/33 269/264/33 258/256/33
f 261/265/33 257/263/33 256/255/33
f 264/266/33 261/265/33 260/258/33
f 267/267/33 264/266/33 263/260/33
f 268/268/33 274/269/33 269/264/33
f 270/270/33 268/268/33 257/263/33
f 271/271/33 270/270/33 261/265/33
f 272/272/33 271/271/33 264/266/33
f 273/273/33 279/274/33 274/269/33
f 275/275/33 273/273/33 268/268/33
f 276/276/33 275/275/33 270/270/33
f 277/277/33 276/276/33 271/271/33
f 87/77/33 254/253/33 247/242/33
f 283/278/33 265/261/33 124/119/33
f 124/119/33 129/121/33 283/278/33
f 282/279/33 286/280/33 285/281/33
f 250/244/33 279/274/33 287/282/33
f 287/282/33 249/243/33 250/244/33
f 131/122/33 120/132/33 255/254/33
f 284/283/33 266/262/33 265/261/33
f 282/279/33 281/284/33 276/276/33
f 253/251/33 274/269/33 279/274/33
f 120/132/33 122/129/33 259/257/33
f 288/285/33 267/267/33 266/262/33
f 281/284/33 280/286/33 275/275/33
f 252/249/33 269/264/33 274/269/33
f 122/129/33 123/126/33 262/259/33
f 289/287/33 272/272/33 267/267/33
f 280/286/33 278/288/33 273/273/33
f 248/246/33 258/256/33 269/264/33
f 123/126/33 124/119/33 265/261/33
f 286/280/33 277/277/33 272/272/33
f 278/288/33 287/282/33 279/274/33
f 247/242/33 254/253/33 258/256/33
f 290/289/33 291/290/33 292/291/33
f 292/291/33 294/292/33 290/289/33
f 291/290/33 295/293/33 296/294/33
f 296/294/33 292/291/33 291/290/33
f 295/293/33 298/295/33 299/296/33
f 299/296/33 296/294/33 295/293/33
f 298/295/33 301/297/33 302/298/33
f 302/298/33 299/296/33 298/295/33
f 293/299/33 305/300/33 294/292/33
f 297/301/33 293/299/33 292/291/33
f 300/302/33 297/301/33 296/294/33
f 303/303/33 300/302/33 299/296/33
f 304/304/33 310/305/33 305/300/33
f 306/306/33 304/304/33 293/299/33
f 307/307/33 306/306/33 297/301/33
f 308/308/33 307/307/33 300/302/33
f 309/309/33 315/310/33 310/305/33
f 311/311/33 309/309/33 304/304/33
f 312/312/33 311/311/33 306/306/33
f 313/313/33 312/312/33 307/307/33
f 173/164/86 283/278/33 129/121/33
f 319/314/33 301/297/33 166/167/89
f 166/167/89 171/162/84 319/314/33
f 318/315/33 322/316/33 321/317/33
f 286/280/33 315/310/33 323/318/33
f 323/318/33 285/281/33 286/280/33
f 173/164/86 162/174/96 291/290/33
f 320/319/33 302/298/33 301/297/33
f 318/315/33 317/320/33 312/312/33
f 289/287/33 310/305/33 315/310/33
f 162/174/96 164/171/93 295/293/33
f 324/321/33 303/303/33 302/298/33
f 317/320/33 316/322/33 311/311/33
f 288/285/33 305/300/33 310/305/33
f 164/171/93 165/168/90 298/295/33
f 325/323/33 308/308/33 303/303/33
f 316/322/33 314/324/33 309/309/33
f 284/283/33 294/292/33 305/300/33
f 165/168/90 166/167/89 301/297/33
f 322/316/33 313/313/33 308/308/33
f 314/324/33 323/318/33 315/310/33
f 283/278/33 290/289/33 294/292/33
f 326/325/33 327/326/33 328/327/33
f 328/327/33 330/328/33 326/325/33
f 327/326/33 331/329/33 332/330/33
f 332/330/33 328/327/33 327/326/33
f 331/329/33 334/331/33 335/332/33
f 335/332/33 332/330/33 331/329/33
f 334/331/33 337/333/33 338/334/33
f 338/334/33 335/332/33 334/331/33
f 329/335/33 341/336/33 330/328/33
f 333/337/33 329/335/33 328/327/33
f 336/338/33 333/337/33 332/330/33
f 339/339/33 336/338/33 335/332/33
f 340/340/33 346/341/33 341/336/33
f 342/342/33 340/340/33 329/335/33
f 343/343/33 342/342/33 333/337/33
f 344/344/33 343/343/33 336/338/33
f 345/345/33 351/346/33 346/341/33
f 347/347/33 345/345/33 340/340/33
f 348/348/33 347/347/33 342/342/33
f 349/349/33 348/348/33 343/343/33
f 212/206/33 355/350/33 213/207/33
f 356/351/33 337/333/33 204/202/33
f 204/202/33 208/204/33 356/351/33
f 354/352/33 359/353/33 358/354/33
f 360/355/33 351/346/33 362/356/33
f 362/356/33 363/357/33 360/355/33
f 212/206/33 200/215/33 327/326/33
f 357/358/33 338/334/33 337/333/33
f 354/352/33 353/359/33 348/348/33
f 361/360/33 346/341/33 351/346/33
f 200/215/33 202/212/33 331/329/33
f 364/361/33 339/339/33 338/334/33
f 353/359/33 352/362/33 347/347/33
f 365/363/33 341/336/33 346/341/33
f 202/212/33 203/209/33 334/331/33
f 366/364/33 344/344/33 339/339/33
f 352/362/33 350/365/33 345/345/33
f 367/366/33 330/328/33 341/336/33
f 203/209/33 204/202/33 337/333/33
f 359/353/33 349/349/33 344/344/33
f 350/365/33 362/356/33 351/346/33
f 355/350/33 326/325/33 330/328/33
f 368/367/33 369/368/33 370/369/33
f 370/369/33 372/370/33 368/367/33
f 369/368/33 373/371/33 374/372/33
f 374/372/33 370/369/33 369/368/33
f 373/371/33 376/373/33 377/374/33
f 377/374/33 374/372/33 373/371/33
f 376/373/33 379/375/33 380/376/33
f 380/376/33 377/374/33 376/373/33
f 371/377/33 383/378/33 372/370/33
f 375/379/33 371/377/33 370/369/33
f 378/380/33 375/379/33 374/372/33
f 381/381/33 378/380/33 377/374/33
f 382/382/33 388/383/33 383/378/33
f 384/384/33 382/382/33 371/377/33
f 385/385/33 384/384/33 375/379/33
f 386/386/33 385/385/33 378/380/33
f 387/387/33 393/388/33 388/383/33
f 389/389/33 387/387/33 382/382/33
f 390/390/33 389/389/33 384/384/33
f 391/391/33 390/390/33 385/385/33
f 208/204/33 368/367/33 356/351/33
f 397/392/33 379/375/33 246/247/33
f 246/247/33 249/243/33 397/392/33
f 399/393/33 391/391/33 400/394/33
f 359/353/33 393/388/33 401/395/33
f 401/395/33 358/354/33 359/353/33
f 251/245/33 242/252/33 369/368/33
f 398/396/33 380/376/33 379/375/33
f 396/397/33 395/398/33 390/390/33
f 366/364/33 388/383/33 393/388/33
f 242/252/33 244/250/33 373/371/33
f 402/399/33 381/381/33 380/376/33
f 395/398/33 394/400/33 389/389/33
f 364/361/33 383/378/33 388/383/33
f 244/250/33 245/248/33 376/373/33
f 403/401/33 386/386/33 381/381/33
f 394/400/33 392/402/33 387/387/33
f 357/358/33 372/370/33 383/378/33
f 245/248/33 246/247/33 379/375/33
f 400/394/33 391/391/33 386/386/33
f 392/402/33 401/395/33 393/388/33
f 356/351/33 368/367/33 372/370/33
f 404/403/33 405/404/33 406/405/33
f 406/405/33 408/406/33 404/403/33
f 405/404/33 409/407/33 410/408/33
f 410/408/33 406/405/33 405/404/33
f 409/407/33 412/409/33 413/410/33
f 413/410/33 410/408/33 409/407/33
f 412/409/33 415/411/33 416/412/33
f 416/412/33 413/410/33 412/409/33
f 407/413/33 419/414/33 408/406/33
f 411/415/33 407/413/33 406/405/33
f 414/416/33 411/415/33 410/408/33
f 417/417/33 414/416/33 413/410/33
f 418/418/33 424/419/33 419/414/33
f 420/420/33 418/418/33 407/413/33
f 421/421/33 420/420/33 411/415/33
f 422/422/33 421/421/33 414/416/33
f 423/423/33 429/424/33 424/419/33
f 425/425/33 423/423/33 418/418/33
f 426/426/33 425/425/33 420/420/33
f 427/427/33 426/426/33 421/421/33
f 249/243/33 404/403/33 397/392/33
f 433/428/33 415/411/33 282/279/33
f 282/279/33 285/281/33 433/428/33
f 432/429/33 436/430/33 435/431/33
f 400/394/33 429/424/33 437/432/33
f 437/432/33 399/393/33 400/394/33
f 287/282/33 278/288/33 405/404/33
f 434/433/33 416/412/33 415/411/33
f 432/429/33 431/434/33 426/426/33
f 403/401/33 424/419/33 429/424/33
f 278/288/33 280/286/33 409/407/33
f 438/435/33 417/417/33 416/412/33
f 431/434/33 430/436/33 425/425/33
f 402/399/33 419/414/33 424/419/33
f 280/286/33 281/284/33 412/409/33
f 439/437/33 422/422/33 417/417/33
f 430/436/33 428/438/33 423/423/33
f 398/396/33 408/406/33 419/414/33
f 281/284/33 282/279/33 415/411/33
f 436/430/33 427/427/33 422/422/33
f 428/438/33 437/432/33 429/424/33
f 397/392/33 404/403/33 408/406/33
f 440/439/33 441/440/33 442/441/33
f 442/441/33 444/442/33 440/439/33
f 441/440/33 445/443/33 446/444/33
f 446/444/33 442/441/33 441/440/33
f 445/443/33 448/445/33 449/446/33
f 449/446/33 446/444/33 445/443/33
f 448/445/33 451/447/33 452/448/33
f 452/448/33 449/446/33 448/445/33
f 443/449/33 455/450/33 444/442/33
f 447/451/33 443/449/33 442/441/33
f 450/452/33 447/451/33 446/444/33
f 453/453/33 450/452/33 449/446/33
f 454/454/33 460/455/33 455/450/33
f 456/456/33 454/454/33 443/449/33
f 457/457/33 456/456/33 447/451/33
f 458/458/33 457/457/33 450/452/33
f 459/459/33 465/460/33 460/455/33
f 461/461/33 459/459/33 454/454/33
f 462/462/33 461/461/33 456/456/33
f 463/463/33 462/462/33 457/457/33
f 323/318/33 433/428/33 285/281/33
f 469/464/33 451/447/33 318/315/33
f 318/315/33 321/317/33 469/464/33
f 468/465/33 472/466/33 471/467/33
f 436/430/33 465/460/33 473/468/33
f 473/468/33 435/431/33 436/430/33
f 323/318/33 314/324/33 441/440/33
f 470/469/33 452/448/33 451/447/33
f 468/465/33 467/470/33 462/462/33
f 439/437/33 460/455/33 465/460/33
f 314/324/33 316/322/33 445/443/33
f 474/471/33 453/453/33 452/448/33
f 467/470/33 466/472/33 461/461/33
f 438/435/33 455/450/33 460/455/33
f 316/322/33 317/320/33 448/445/33
f 475/473/33 458/458/33 453/453/33
f 466/472/33 464/474/33 459/459/33
f 434/433/33 444/442/33 455/450/33
f 317/320/33 318/315/33 451/447/33
f 472/466/33 463/463/33 458/458/33
f 464/474/33 473/468/33 465/460/33
f 433/428/33 440/439/33 444/442/33
f 476/475/33 477/476/33 478/477/33
f 478/477/33 480/478/33 476/475/33
f 477/476/33 481/479/33 482/480/33
f 482/480/33 478/477/33 477/476/33
f 481/479/33 484/481/33 485/482/33
f 485/482/33 482/480/33 481/479/33
f 484/481/33 487/483/33 488/484/33
f 488/484/33 485/482/33 484/481/33
f 479/485/33 491/486/33 480/478/33
f 483/487/33 479/485/33 478/477/33
f 486/488/33 483/487/33 482/480/33
f 489/489/33 486/488/33 485/482/33
f 490/490/33 496/491/33 491/486/33
f 492/492/33 490/490/33 479/485/33
f 493/493/33 492/492/33 483/487/33
f 494/494/33 493/493/33 486/488/33
f 495/495/33 501/496/33 496/491/33
f 497/497/33 495/495/33 490/490/33
f 498/498/33 497/497/33 492/492/33
f 499/499/33 498/498/33 493/493/33
f 362/356/33 505/500/33 363/357/33
f 506/501/33 487/483/33 354/352/33
f 354/352/33 358/354/33 506/501/33
f 504/502/33 509/503/33 508/504/33
f 510/505/33 501/496/33 512/506/33
f 512/506/33 513/507/33 510/505/33
f 362/356/33 350/365/33 477/476/33
f 507/508/33 488/484/33 487/483/33
f 504/502/33 503/509/33 498/498/33
f 511/510/33 496/491/33 501/496/33
f 350/365/33 352/362/33 481/479/33
f 514/511/33 489/489/33 488/484/33
f 503/509/33 502/512/33 497/497/33
f 515/513/33 491/486/33 496/491/33
f 352/362/33 353/359/33 484/481/33
f 516/514/33 494/494/33 489/489/33
f 502/512/33 500/515/33 495/495/33
f 517/516/33 480/478/33 491/486/33
f 353/359/33 354/352/33 487/483/33
f 509/503/33 499/499/33 494/494/33
f 500/515/33 512/506/33 501/496/33
f 505/500/33 476/475/33 480/478/33
f 518/517/33 519/518/33 520/519/33
f 520/519/33 522/520/33 518/517/33
f 519/518/33 523/521/33 524/522/33
f 524/522/33 520/519/33 519/518/33
f 523/521/33 526/523/33 527/524/33
f 527/524/33 524/522/33 523/521/33
f 526/523/33 529/525/33 530/526/33
f 530/526/33 527/524/33 526/523/33
f 521/527/33 533/528/33 522/520/33
f 525/529/33 521/527/33 520/519/33
f 528/530/33 525/529/33 524/522/33
f 531/531/33 528/530/33 527/524/33
f 532/532/33 538/533/33 533/528/33
f 534/534/33 532/532/33 521/527/33
f 535/535/33 534/534/33 525/529/33
f 536/536/33 535/535/33 528/530/33
f 537/537/33 543/538/33 538/533/33
f 539/539/33 537/537/33 532/532/33
f 540/540/33 539/539/33 534/534/33
f 541/541/33 540/540/33 535/535/33
f 401/395/33 506/501/33 358/354/33
f 547/542/33 529/525/33 396/397/33
f 396/397/33 399/393/33 547/542/33
f 549/543/33 541/541/33 550/544/33
f 509/503/33 543/538/33 551/545/33
f 551/545/33 508/504/33 509/503/33
f 401/395/33 392/402/33 519/518/33
f 548/546/33 530/526/33 529/525/33
f 546/547/33 545/548/33 540/540/33
f 516/514/33 538/533/33 543/538/33
f 392/402/33 394/400/33 523/521/33
f 552/549/33 531/531/33 530/526/33
f 545/548/33 544/550/33 539/539/33
f 514/511/33 533/528/33 538/533/33
f 394/400/33 395/398/33 526/523/33
f 553/551/33 536/536/33 531/531/33
f 544/550/33 542/552/33 537/537/33
f 507/508/33 522/520/33 533/528/33
f 395/398/33 396/397/33 529/525/33
f 550/544/33 541/541/33 536/536/33
f 542/552/33 551/545/33 543/538/33
f 506/501/33 518/517/33 522/520/33
f 554/553/33 555/554/33 556/555/33
f 556/555/33 558/556/33 554/553/33
f 555/554/33 559/557/33 560/558/33
f 560/558/33 556/555/33 555/554/33
f 559/557/33 562/559/33 563/560/33
f 563/560/33 560/558/33 559/557/33
f 562/559/33 565/561/33 566/562/33
f 566/562/33 563/560/33 562/559/33
f 557/563/33 569/564/33 558/556/33
f 561/565/33 557/563/33 556/555/33
f 564/566/33 561/565/33 560/558/33
f 567/567/33 564/566/33 563/560/33
f 568/568/33 574/569/33 569/564/33
f 570/570/33 568/568/33 557/563/33
f 571/571/33 570/570/33 561/565/33
f 572/572/33 571/571/33 564/566/33
f 573/573/33 579/574/33 574/569/33
f 575/575/33 573/573/33 568/568/33
f 576/576/33 575/575/33 570/570/33
f 577/577/33 576/576/33 571/571/33
f 399/393/33 554/553/33 547/542/33
f 583/578/33 565/561/33 432/429/33
f 432/429/33 435/431/33 583/578/33
f 582/579/33 586/580/33 585/581/33
f 550/544/33 579/574/33 587/582/33
f 587/582/33 549/543/33 550/544/33
f 437/432/33 428/438/33 555/554/33
f 584/583/33 566/562/33 565/561/33
f 582/579/33 581/584/33 576/576/33
f 553/551/33 574/569/33 579/574/33
f 428/438/33 430/436/33 559/557/33
f 588/585/33 567/567/33 566/562/33
f 581/584/33 580/586/33 575/575/33
f 552/549/33 569/564/33 574/569/33
f 430/436/33 431/434/33 562/559/33
f 589/587/33 572/572/33 567/567/33
f 580/586/33 578/588/33 573/573/33
f 548/546/33 558/556/33 569/564/33
f 431/434/33 432/429/33 565/561/33
f 586/580/33 577/577/33 572/572/33
f 578/588/33 587/582/33 579/574/33
f 547/542/33 554/553/33 558/556/33
f 590/589/33 591/590/33 592/591/33
f 592/591/33 594/592/33 590/589/33
f 591/590/33 595/593/33 596/594/33
f 596/594/33 592/591/33 591/590/33
f 595/593/33 598/595/33 599/596/33
f 599/596/33 596/594/33 595/593/33
f 598/595/33 601/597/33 602/598/33
f 602/598/33 599/596/33 598/595/33
f 593/599/33 605/600/33 594/592/33
f 597/601/33 593/599/33 592/591/33
f 600/602/33 597/601/33 596/594/33
f 603/603/33 600/602/33 599/596/33
f 604/604/33 610/605/33 605/600/33
f 606/606/33 604/604/33 593/599/33
f 607/607/33 606/606/33 597/601/33
f 608/608/33 607/607/33 600/602/33
f 609/609/33 615/610/33 610/605/33
f 611/611/33 609/609/33 604/604/33
f 612/612/33 611/611/33 606/606/33
f 613/613/33 612/612/33 607/607/33
f 473/468/33 583/578/33 435/431/33
f 619/614/33 601/597/33 468/465/33
f 468/465/33 471/467/33 619/614/33
f 618/615/33 622/616/33 621/617/33
f 586/580/33 615/610/33 623/618/33
f 623/618/33 585/581/33 586/580/33
f 473/468/33 464/474/33 591/590/33
f 620/619/33 602/598/33 601/597/33
f 618/615/33 617/620/33 612/612/33
f 589/587/33 610/605/33 615/610/33
f 464/474/33 466/472/33 595/593/33
f 624/621/33 603/603/33 602/598/33
f 617/620/33 616/622/33 611/611/33
f 588/585/33 605/600/33 610/605/33
f 466/472/33 467/470/33 598/595/33
f 625/623/33 608/608/33 603/603/33
f 616/622/33 614/624/33 609/609/33
f 584/583/33 594/592/33 605/600/33
f 467/470/33 468/465/33 601/597/33
f 622/616/33 613/613/33 608/608/33
f 614/624/33 623/618/33 615/610/33
f 583/578/33 590/589/33 594/592/33
f 1/1/1 2/27/27 3/2/2
f 6/4/4 1/1/1 4/3/3
f 3/2/2 7/37/37 8/6/6
f 9/7/7 10/13/13 4/3/3
f 8/6/6 11/41/41 12/8/8
f 13/9/9 14/14/14 9/7/7
f 12/8/8 15/45/45 16/10/10
f 17/11/11 18/15/15 13/9/9
f 5/5/5 19/16/16 20/12/12
f 10/13/13 21/18/18 5/5/5
f 14/14/14 22/19/19 10/13/13
f 18/15/15 23/20/20 14/14/14
f 19/16/16 24/21/21 25/17/17
f 21/18/18 26/23/23 19/16/16
f 22/19/19 27/24/24 21/18/18
f 23/20/20 28/25/25 22/19/19
f 24/21/21 29/47/47 30/22/22
f 26/23/23 31/43/43 24/21/21
f 27/24/24 32/39/39 26/23/23
f 28/25/25 33/31/31 27/24/24
f 35/26/26 34/625/97 2/27/27
f 36/28/28 37/38/38 16/10/10
f 33/31/31 28/25/25 41/32/32
f 42/34/34 43/40/40 30/22/22
f 37/38/38 46/42/42 17/11/11
f 43/40/40 47/44/44 25/17/17
f 46/42/42 48/46/46 18/15/15
f 47/44/44 49/48/48 20/12/12
f 48/46/46 41/32/32 23/20/20
f 49/48/48 35/26/26 6/4/4
f 50/49/33 51/80/33 52/50/33
f 53/51/33 54/59/33 55/52/33
f 52/50/33 56/81/33 57/53/33
f 58/54/33 59/61/33 53/51/33
f 57/53/33 60/85/33 61/55/33
f 62/56/33 63/62/33 58/54/33
f 61/55/33 64/88/33 65/57/33
f 66/58/33 67/63/33 62/56/33
f 54/59/33 68/64/33 69/60/33
f 59/61/33 70/66/33 54/59/33
f 63/62/33 71/67/33 59/61/33
f 67/63/33 72/68/33 63/62/33
f 68/64/33 73/69/33 74/65/33
f 70/66/33 75/71/33 68/64/33
f 71/67/33 76/72/33 70/66/33
f 72/68/33 77/73/33 71/67/33
f 73/69/33 78/90/33 79/70/33
f 75/71/33 80/87/33 73/69/33
f 76/72/33 81/84/33 75/71/33
f 77/73/33 82/83/33 76/72/33
f 39/30/30 51/80/33 50/49/33
f 83/74/33 84/82/33 65/57/33
f 87/77/33 82/83/33 77/73/33
f 41/32/32 48/46/46 79/70/33
f 84/82/33 90/86/33 66/58/33
f 48/46/46 46/42/42 74/65/33
f 90/86/33 91/89/33 67/63/33
f 46/42/42 37/38/38 69/60/33
f 91/89/33 88/78/33 72/68/33
f 37/38/38 36/28/28 55/52/33
f 92/91/33 93/123/33 94/92/33
f 95/93/33 96/101/33 97/94/33
f 94/92/33 98/124/33 99/95/33
f 100/96/33 101/103/33 95/93/33
f 99/95/33 102/127/33 103/97/33
f 104/98/33 105/104/33 100/96/33
f 103/97/33 106/130/33 107/99/33
f 108/100/33 109/105/33 104/98/33
f 96/101/33 110/106/33 111/102/33
f 101/103/33 112/108/33 96/101/33
f 105/104/33 113/109/33 101/103/33
f 109/105/33 114/110/33 105/104/33
f 110/106/33 115/111/33 116/107/33
f 112/108/33 117/113/33 110/106/33
f 113/109/33 118/114/33 112/108/33
f 114/110/33 119/115/33 113/109/33
f 115/111/33 120/132/33 121/112/33
f 117/113/33 122/129/33 115/111/33
f 118/114/33 123/126/33 117/113/33
f 119/115/33 124/119/33 118/114/33
f 86/76/33 93/123/33 92/91/33
f 125/116/49 126/125/52 107/99/33
f 124/119/33 119/115/33 130/120/51
f 88/78/33 91/89/33 121/112/33
f 126/125/52 132/128/53 108/100/33
f 91/89/33 90/86/33 116/107/33
f 132/128/53 133/131/54 109/105/33
f 90/86/33 84/82/33 111/102/33
f 133/131/54 130/120/51 114/110/33
f 84/82/33 83/74/33 97/94/33
f 134/133/55 135/158/80 136/134/56
f 137/135/57 138/143/65 139/136/58
f 136/134/56 140/165/87 141/137/59
f 142/138/60 143/145/67 137/135/57
f 141/137/59 144/169/91 145/139/61
f 146/140/62 147/146/68 142/138/60
f 145/139/61 148/172/94 149/141/63
f 150/142/64 151/147/69 146/140/62
f 138/143/65 152/148/70 153/144/66
f 143/145/67 154/150/72 138/143/65
f 147/146/68 155/151/73 143/145/67
f 151/147/69 156/152/74 147/146/68
f 152/148/70 157/153/75 158/149/71
f 154/150/72 159/155/77 152/148/70
f 155/151/73 160/156/78 154/150/72
f 156/152/74 161/157/79 155/151/73
f 157/153/75 162/174/96 163/154/76
f 159/155/77 164/171/93 157/153/75
f 160/156/78 165/168/90 159/155/77
f 161/157/79 166/167/89 160/156/78
f 135/158/80 134/133/55 125/116/49
f 167/159/81 168/166/88 149/141/63
f 171/162/84 166/167/89 161/157/79
f 130/120/51 133/131/54 163/154/76
f 168/166/88 174/170/92 150/142/64
f 133/131/54 132/128/53 158/149/71
f 174/170/92 175/173/95 151/147/69
f 132/128/53 126/125/52 153/144/66
f 175/173/95 172/163/85 156/152/74
f 126/125/52 125/116/49 139/136/58
f 176/175/33 44/35/35 177/176/33
f 178/177/33 179/185/33 180/178/33
f 177/176/33 29/47/47 181/179/33
f 182/180/33 183/187/33 178/177/33
f 181/179/33 31/43/43 184/181/33
f 185/182/33 186/188/33 182/180/33
f 184/181/33 32/39/39 187/183/33
f 188/184/33 189/189/33 185/182/33
f 179/185/33 190/190/33 191/186/33
f 183/187/33 192/192/33 179/185/33
f 186/188/33 193/193/33 183/187/33
f 189/189/33 194/194/33 186/188/33
f 190/190/33 195/195/33 196/191/33
f 192/192/33 197/197/33 190/190/33
f 193/193/33 198/198/33 192/192/33
f 194/194/33 199/199/33 193/193/33
f 195/195/33 200/215/33 201/196/33
f 197/197/33 202/212/33 195/195/33
f 198/198/33 203/209/33 197/197/33
f 199/199/33 204/202/33 198/198/33
f 44/35/35 176/175/33 205/200/33
f 206/201/33 207/208/33 187/183/33
f 204/202/33 199/199/33 209/203/33
f 210/205/33 211/210/33 201/196/33
f 207/208/33 214/211/33 188/184/33
f 211/210/33 215/213/33 196/191/33
f 214/211/33 216/214/33 189/189/33
f 215/213/33 217/216/33 191/186/33
f 216/214/33 209/203/33 194/194/33
f 217/216/33 205/200/33 180/178/33
f 218/217/33 89/79/33 219/218/33
f 220/219/33 221/227/33 222/220/33
f 219/218/33 78/90/33 223/221/33
f 224/222/33 225/229/33 220/219/33
f 223/221/33 80/87/33 226/223/33
f 227/224/33 228/230/33 224/222/33
f 226/223/33 81/84/33 229/225/33
f 230/226/33 231/231/33 227/224/33
f 221/227/33 232/232/33 233/228/33
f 225/229/33 234/234/33 221/227/33
f 228/230/33 235/235/33 225/229/33
f 231/231/33 236/236/33 228/230/33
f 232/232/33 237/237/33 238/233/33
f 234/234/33 239/239/33 232/232/33
f 235/235/33 240/240/33 234/234/33
f 236/236/33 241/241/33 235/235/33
f 237/237/33 242/252/33 243/238/33
f 239/239/33 244/250/33 237/237/33
f 240/240/33 245/248/33 239/239/33
f 241/241/33 246/247/33 240/240/33
f 40/33/33 89/79/33 218/217/33
f 247/242/33 248/246/33 229/225/33
f 249/243/33 246/247/33 241/241/33
f 209/203/33 216/214/33 243/238/33
f 248/246/33 252/249/33 230/226/33
f 216/214/33 214/211/33 238/233/33
f 252/249/33 253/251/33 231/231/33
f 214/211/33 207/208/33 233/228/33
f 253/251/33 250/244/33 236/236/33
f 207/208/33 206/201/33 222/220/33
f 254/253/33 131/122/33 255/254/33
f 256/255/33 257/263/33 258/256/33
f 255/254/33 120/132/33 259/257/33
f 260/258/33 261/265/33 256/255/33
f 259/257/33 122/129/33 262/259/33
f 263/260/33 264/266/33 260/258/33
f 262/259/33 123/126/33 265/261/33
f 266/262/33 267/267/33 263/260/33
f 257/263/33 268/268/33 269/264/33
f 261/265/33 270/270/33 257/263/33
f 264/266/33 271/271/33 261/265/33
f 267/267/33 272/272/33 264/266/33
f 268/268/33 273/273/33 274/269/33
f 270/270/33 275/275/33 268/268/33
f 271/271/33 276/276/33 270/270/33
f 272/272/33 277/277/33 271/271/33
f 273/273/33 278/288/33 279/274/33
f 275/275/33 280/286/33 273/273/33
f 276/276/33 281/284/33 275/275/33
f 277/277/33 282/279/33 276/276/33
f 87/77/33 131/122/33 254/253/33
f 283/278/33 284/283/33 265/261/33
f 282/279/33 277/277/33 286/280/33
f 250/244/33 253/251/33 279/274/33
f 284/283/33 288/285/33 266/262/33
f 253/251/33 252/249/33 274/269/33
f 288/285/33 289/287/33 267/267/33
f 252/249/33 248/246/33 269/264/33
f 289/287/33 286/280/33 272/272/33
f 248/246/33 247/242/33 258/256/33
f 290/289/33 173/164/86 291/290/33
f 292/291/33 293/299/33 294/292/33
f 291/290/33 162/174/96 295/293/33
f 296/294/33 297/301/33 292/291/33
f 295/293/33 164/171/93 298/295/33
f 299/296/33 300/302/33 296/294/33
f 298/295/33 165/168/90 301/297/33
f 302/298/33 303/303/33 299/296/33
f 293/299/33 304/304/33 305/300/33
f 297/301/33 306/306/33 293/299/33
f 300/302/33 307/307/33 297/301/33
f 303/303/33 308/308/33 300/302/33
f 304/304/33 309/309/33 310/305/33
f 306/306/33 311/311/33 304/304/33
f 307/307/33 312/312/33 306/306/33
f 308/308/33 313/313/33 307/307/33
f 309/309/33 314/324/33 315/310/33
f 311/311/33 316/322/33 309/309/33
f 312/312/33 317/320/33 311/311/33
f 313/313/33 318/315/33 312/312/33
f 173/164/86 290/289/33 283/278/33
f 319/314/33 320/319/33 301/297/33
f 318/315/33 313/313/33 322/316/33
f 286/280/33 289/287/33 315/310/33
f 320/319/33 324/321/33 302/298/33
f 289/287/33 288/285/33 310/305/33
f 324/321/33 325/323/33 303/303/33
f 288/285/33 284/283/33 305/300/33
f 325/323/33 322/316/33 308/308/33
f 284/283/33 283/278/33 294/292/33
f 326/325/33 212/206/33 327/326/33
f 328/327/33 329/335/33 330/328/33
f 327/326/33 200/215/33 331/329/33
f 332/330/33 333/337/33 328/327/33
f 331/329/33 202/212/33 334/331/33
f 335/332/33 336/338/33 332/330/33
f 334/331/33 203/209/33 337/333/33
f 338/334/33 339/339/33 335/332/33
f 329/335/33 340/340/33 341/336/33
f 333/337/33 342/342/33 329/335/33
f 336/338/33 343/343/33 333/337/33
f 339/339/33 344/344/33 336/338/33
f 340/340/33 345/345/33 346/341/33
f 342/342/33 347/347/33 340/340/33
f 343/343/33 348/348/33 342/342/33
f 344/344/33 349/349/33 343/343/33
f 345/345/33 350/365/33 351/346/33
f 347/347/33 352/362/33 345/345/33
f 348/348/33 353/359/33 347/347/33
f 349/349/33 354/352/33 348/348/33
f 212/206/33 326/325/33 355/350/33
f 356/351/33 357/358/33 337/333/33
f 354/352/33 349/349/33 359/353/33
f 360/355/33 361/360/33 351/346/33
f 357/358/33 364/361/33 338/334/33
f 361/360/33 365/363/33 346/341/33
f 364/361/33 366/364/33 339/339/33
f 365/363/33 367/366/33 341/336/33
f 366/364/33 359/353/33 344/344/33
f 367/366/33 355/350/33 330/328/33
f 368/367/33 251/245/33 369/368/33
f 370/369/33 371/377/33 372/370/33
f 369/368/33 242/252/33 373/371/33
f 374/372/33 375/379/33 370/369/33
f 373/371/33 244/250/33 376/373/33
f 377/374/33 378/380/33 374/372/33
f 376/373/33 245/248/33 379/375/33
f 380/376/33 381/381/33 377/374/33
f 371/377/33 382/382/33 383/378/33
f 375/379/33 384/384/33 371/377/33
f 378/380/33 385/385/33 375/379/33
f 381/381/33 386/386/33 378/380/33
f 382/382/33 387/387/33 388/383/33
f 384/384/33 389/389/33 382/382/33
f 385/385/33 390/390/33 384/384/33
f 386/386/33 391/391/33 385/385/33
f 387/387/33 392/402/33 393/388/33
f 389/389/33 394/400/33 387/387/33
f 390/390/33 395/398/33 389/389/33
f 391/391/33 396/397/33 390/390/33
f 208/204/33 251/245/33 368/367/33
f 397/392/33 398/396/33 379/375/33
f 399/393/33 396/397/33 391/391/33
f 359/353/33 366/364/33 393/388/33
f 398/396/33 402/399/33 380/376/33
f 366/364/33 364/361/33 388/383/33
f 402/399/33 403/401/33 381/381/33
f 364/361/33 357/358/33 383/378/33
f 403/401/33 400/394/33 386/386/33
f 357/358/33 356/351/33 372/370/33
f 404/403/33 287/282/33 405/404/33
f 406/405/33 407/413/33 408/406/33
f 405/404/33 278/288/33 409/407/33
f 410/408/33 411/415/33 406/405/33
f 409/407/33 280/286/33 412/409/33
f 413/410/33 414/416/33 410/408/33
f 412/409/33 281/284/33 415/411/33
f 416/412/33 417/417/33 413/410/33
f 407/413/33 418/418/33 419/414/33
f 411/415/33 420/420/33 407/413/33
f 414/416/33 421/421/33 411/415/33
f 417/417/33 422/422/33 414/416/33
f 418/418/33 423/423/33 424/419/33
f 420/420/33 425/425/33 418/418/33
f 421/421/33 426/426/33 420/420/33
f 422/422/33 427/427/33 421/421/33
f 423/423/33 428/438/33 429/424/33
f 425/425/33 430/436/33 423/423/33
f 426/426/33 431/434/33 425/425/33
f 427/427/33 432/429/33 426/426/33
f 249/243/33 287/282/33 404/403/33
f 433/428/33 434/433/33 415/411/33
f 432/429/33 427/427/33 436/430/33
f 400/394/33 403/401/33 429/424/33
f 434/433/33 438/435/33 416/412/33
f 403/401/33 402/399/33 424/419/33
f 438/435/33 439/437/33 417/417/33
f 402/399/33 398/396/33 419/414/33
f 439/437/33 436/430/33 422/422/33
f 398/396/33 397/392/33 408/406/33
f 440/439/33 323/318/33 441/440/33
f 442/441/33 443/449/33 444/442/33
f 441/440/33 314/324/33 445/443/33
f 446/444/33 447/451/33 442/441/33
f 445/443/33 316/322/33 448/445/33
f 449/446/33 450/452/33 446/444/33
f 448/445/33 317/320/33 451/447/33
f 452/448/33 453/453/33 449/446/33
f 443/449/33 454/454/33 455/450/33
f 447/451/33 456/456/33 443/449/33
f 450/452/33 457/457/33 447/451/33
f 453/453/33 458/458/33 450/452/33
f 454/454/33 459/459/33 460/455/33
f 456/456/33 461/461/33 454/454/33
f 457/457/33 462/462/33 456/456/33
f 458/458/33 463/463/33 457/457/33
f 459/459/33 464/474/33 465/460/33
f 461/461/33 466/472/33 459/459/33
f 462/462/33 467/470/33 461/461/33
f 463/463/33 468/465/33 462/462/33
f 323/318/33 440/439/33 433/428/33
f 469/464/33 470/469/33 451/447/33
f 468/465/33 463/463/33 472/466/33
f 436/430/33 439/437/33 465/460/33
f 470/469/33 474/471/33 452/448/33
f 439/437/33 438/435/33 460/455/33
f 474/471/33 475/473/33 453/453/33
f 438/435/33 434/433/33 455/450/33
f 475/473/33 472/466/33 458/458/33
f 434/433/33 433/428/33 444/442/33
f 476/475/33 362/356/33 477/476/33
f 478/477/33 479/485/33 480/478/33
f 477/476/33 350/365/33 481/479/33
f 482/480/33 483/487/33 478/477/33
f 481/479/33 352/362/33 484/481/33
f 485/482/33 486/488/33 482/480/33
f 484/481/33 353/359/33 487/483/33
f 488/484/33 489/489/33 485/482/33
f 479/485/33 490/490/33 491/486/33
f 483/487/33 492/492/33 479/485/33
f 486/488/33 493/493/33 483/487/33
f 489/489/33 494/494/33 486/488/33
f 490/490/33 495/495/33 496/491/33
f 492/492/33 497/497/33 490/490/33
f 493/493/33 498/498/33 492/492/33
f 494/494/33 499/499/33 493/493/33
f 495/495/33 500/515/33 501/496/33
f 497/497/33 502/512/33 495/495/33
f 498/498/33 503/509/33 497/497/33
f 499/499/33 504/502/33 498/498/33
f 362/356/33 476/475/33 505/500/33
f 506/501/33 507/508/33 487/483/33
f 504/502/33 499/499/33 509/503/33
f 510/505/33 511/510/33 501/496/33
f 507/508/33 514/511/33 488/484/33
f 511/510/33 515/513/33 496/491/33
f 514/511/33 516/514/33 489/489/33
f 515/513/33 517/516/33 491/486/33
f 516/514/33 509/503/33 494/494/33
f 517/516/33 505/500/33 480/478/33
f 518/517/33 401/395/33 519/518/33
f 520/519/33 521/527/33 522/520/33
f 519/518/33 392/402/33 523/521/33
f 524/522/33 525/529/33 520/519/33
f 523/521/33 394/400/33 526/523/33
f 527/524/33 528/530/33 524/522/33
f 526/523/33 395/398/33 529/525/33
f 530/526/33 531/531/33 527/524/33
f 521/527/33 532/532/33 533/528/33
f 525/529/33 534/534/33 521/527/33
f 528/530/33 535/535/33 525/529/33
f 531/531/33 536/536/33 528/530/33
f 532/532/33 537/537/33 538/533/33
f 534/534/33 539/539/33 532/532/33
f 535/535/33 540/540/33 534/534/33
f 536/536/33 541/541/33 535/535/33
f 537/537/33 542/552/33 543/538/33
f 539/539/33 544/550/33 537/537/33
f 540/540/33 545/548/33 539/539/33
f 541/541/33 546/547/33 540/540/33
f 401/395/33 518/517/33 506/501/33
f 547/542/33 548/546/33 529/525/33
f 549/543/33 546/547/33 541/541/33
f 509/503/33 516/514/33 543/538/33
f 548/546/33 552/549/33 530/526/33
f 516/514/33 514/511/33 538/533/33
f 552/549/33 553/551/33 531/531/33
f 514/511/33 507/508/33 533/528/33
f 553/551/33 550/544/33 536/536/33
f 507/508/33 506/501/33 522/520/33
f 554/553/33 437/432/33 555/554/33
f 556/555/33 557/563/33 558/556/33
f 555/554/33 428/438/33 559/557/33
f 560/558/33 561/565/33 556/555/33
f 559/557/33 430/436/33 562/559/33
f 563/560/33 564/566/33 560/558/33
f 562/559/33 431/434/33 565/561/33
f 566/562/33 567/567/33 563/560/33
f 557/563/33 568/568/33 569/564/33
f 561/565/33 570/570/33 557/563/33
f 564/566/33 571/571/33 561/565/33
f 567/567/33 572/572/33 564/566/33
f 568/568/33 573/573/33 574/569/33
f 570/570/33 575/575/33 568/568/33
f 571/571/33 576/576/33 570/570/33
f 572/572/33 577/577/33 571/571/33
f 573/573/33 578/588/33 579/574/33
f 575/575/33 580/586/33 573/573/33
f 576/576/33 581/584/33 575/575/33
f 577/577/33 582/579/33 576/576/33
f 399/393/33 437/432/33 554/553/33
f 583/578/33 584/583/33 565/561/33
f 582/579/33 577/577/33 586/580/33
f 550/544/33 553/551/33 579/574/33
f 584/583/33 588/585/33 566/562/33
f 553/551/33 552/549/33 574/569/33
f 588/585/33 589/587/33 567/567/33
f 552/549/33 548/546/33 569/564/33
f 589/587/33 586/580/33 572/572/33
f 548/546/33 547/542/33 558/556/33
f 590/589/33 473/468/33 591/590/33
f 592/591/33 593/599/33 594/592/33
f 591/590/33 464/474/33 595/593/33
f 596/594/33 597/601/33 592/591/33
f 595/593/33 466/472/33 598/595/33
f 599/596/33 600/602/33 596/594/33
f 598/595/33 467/470/33 601/597/33
f 602/598/33 603/603/33 599/596/33
f 593/599/33 604/604/33 605/600/33
f 597/601/33 606/606/33 593/599/33
f 600/602/33 607/607/33 597/601/33
f 603/603/33 608/608/33 600/602/33
f 604/604/33 609/609/33 610/605/33
f 606/606/33 611/611/33 604/604/33
f 607/607/33 612/612/33 606/606/33
f 608/608/33 613/613/33 607/607/33
f 609/609/33 614/624/33 615/610/33
f 611/611/33 616/622/33 609/609/33
f 612/612/33 617/620/33 611/611/33
f 613/613/33 618/615/33 612/612/33
f 473/468/33 590/589/33 583/578/33
f 619/614/33 620/619/33 601/597/33
f 618/615/33 613/613/33 622/616/33
f 586/580/33 589/587/33 615/610/33
f 620/619/33 624/621/33 602/598/33
f 589/587/33 588/585/33 610/605/33
f 624/621/33 625/623/33 603/603/33
f 588/585/33 584/583/33 605/600/33
f 625/623/33 622/616/33 608/608/33
f 584/583/33 583/578/33 594/592/33
