# Blender 3.6.23
# www.blender.org
o sol.041
v 1.650407 0.848676 -1.480051
v 1.659744 0.849195 -1.477373
v 1.960874 0.849195 -1.392671
v 1.969405 0.849195 -1.390270
v 1.704043 0.849195 -1.667577
v 1.712572 0.849195 -1.665179
v 2.013701 0.849195 -1.580474
v 2.022233 0.849195 -1.578076
v 1.706067 0.851171 -1.674782
v 1.714599 0.849195 -1.672384
v 2.015728 0.849195 -1.587679
v 2.024257 0.851032 -1.585281
v 1.657720 0.835855 -1.470168
v 1.958846 0.835855 -1.385467
v 1.651217 0.846321 -1.479774
v 1.659744 0.846321 -1.477373
v 1.649004 0.836939 -1.475071
v 1.960874 0.846321 -1.392671
v 1.968341 0.837482 -1.383334
v 1.969405 0.846321 -1.390270
v 1.704043 0.846321 -1.667577
v 1.712572 0.846321 -1.665179
v 2.013701 0.846321 -1.580474
v 2.022233 0.846321 -1.578076
v 1.706067 0.848293 -1.674782
v 1.714599 0.846321 -1.672384
v 2.015728 0.846321 -1.587679
v 2.024257 0.848158 -1.585281
v 1.703241 0.834617 -1.667878
v 1.712572 0.835152 -1.665179
v 1.714599 0.835152 -1.672384
v 1.706067 0.837176 -1.674782
v 2.013701 0.835152 -1.580474
v 2.016016 0.834616 -1.588485
v 2.022233 0.835152 -1.578076
v 2.024257 0.837037 -1.585281
v 1.651217 0.835152 -1.479774
v 1.659744 0.835152 -1.477373
v 1.960874 0.835152 -1.392671
v 1.970212 0.834633 -1.389981
v 1.714599 0.832278 -1.672384
v 1.712572 0.832278 -1.665179
v 1.703203 0.832785 -1.667745
v 1.705678 0.834778 -1.675437
v 2.015910 0.832784 -1.588515
v 2.013701 0.832278 -1.580474
v 2.024935 0.834642 -1.585642
v 2.022233 0.832278 -1.578076
v 1.659744 0.832278 -1.477373
v 1.651217 0.832278 -1.479774
v 1.960874 0.832278 -1.392671
v 1.970245 0.832797 -1.390099
v 1.658628 0.832278 -1.473399
v 1.650098 0.833366 -1.475800
v 1.648507 0.837620 -1.473300
v 1.968838 0.836804 -1.385105
v 1.959628 0.845725 -1.388244
v 1.658500 0.845725 -1.472945
v 1.648507 0.844531 -1.473300
v 1.968841 0.844903 -1.385111
v 1.649008 0.844992 -1.475078
v 1.650098 0.845563 -1.475799
v 1.968286 0.845487 -1.386294
v 1.967378 0.844392 -1.383065
v 1.959756 0.846321 -1.388698
v 1.657720 0.845725 -1.470168
v 1.958846 0.845725 -1.385467
v 1.658628 0.846321 -1.473399
v 1.658498 0.835855 -1.472938
v 1.959627 0.835855 -1.388233
v 1.959756 0.832278 -1.388698
v 1.968287 0.833291 -1.386296
v 1.959763 0.835152 -1.388718
v 1.968292 0.836109 -1.386320
v 1.658634 0.835152 -1.473423
v 1.650103 0.836232 -1.475824
v 1.968771 0.847582 -1.384861
v 1.658262 0.849195 -1.472096
v 1.649732 0.848192 -1.474498
v 1.959389 0.849195 -1.387395
v 1.649256 0.834185 -1.472809
v 1.649189 0.834508 -1.472569
v 1.657720 0.832536 -1.470168
v 1.657790 0.832278 -1.470415
v 1.958916 0.832278 -1.385714
v 1.958846 0.832536 -1.385467
v 1.967378 0.834373 -1.383065
v 1.967445 0.834054 -1.383305
v 1.968223 0.836168 -1.386077
v 1.968156 0.836484 -1.385835
v 1.959697 0.835152 -1.388480
v 1.959627 0.835410 -1.388233
v 1.658498 0.835410 -1.472938
v 1.658567 0.835152 -1.473185
v 1.649967 0.836623 -1.475340
v 1.650034 0.836299 -1.475579
v 1.649189 0.847549 -1.472569
v 1.649233 0.847855 -1.472725
v 1.657765 0.849195 -1.470326
v 1.657720 0.849030 -1.470168
v 1.958846 0.849030 -1.385467
v 1.958891 0.849195 -1.385625
v 1.967422 0.847719 -1.383221
v 1.967378 0.847522 -1.383065
v 1.968203 0.845424 -1.385998
v 1.968841 0.845412 -1.385111
v 1.650015 0.845507 -1.475503
v 1.649971 0.845312 -1.475347
v 1.959673 0.846321 -1.388403
v 1.959628 0.846156 -1.388244
v 1.658545 0.846321 -1.473104
v 1.658500 0.846156 -1.472945
v 1.969081 0.845996 -1.385964
v 1.970214 0.846840 -1.389989
v 1.970242 0.848676 -1.390088
v 2.023073 0.848662 -1.577909
v 2.023039 0.846829 -1.577787
v 2.024937 0.848638 -1.585644
v 1.703204 0.846828 -1.667746
v 1.705678 0.848770 -1.675439
v 1.705627 0.850610 -1.675615
v 1.714772 0.848658 -1.673223
v 1.714770 0.834615 -1.673223
v 2.015728 0.835152 -1.587679
v 2.016014 0.848659 -1.588486
v 2.025063 0.850474 -1.585759
v 1.705626 0.836614 -1.675618
v 1.703240 0.848660 -1.667877
v 2.025064 0.836478 -1.585760
v 1.714884 0.832783 -1.673192
v 2.015728 0.832278 -1.587679
v 1.968341 0.844392 -1.383334
v 1.967378 0.837482 -1.383065
v 1.650381 0.846840 -1.479960
v 1.704043 0.835152 -1.667577
v 2.023038 0.832786 -1.577786
v 1.969405 0.832278 -1.390270
v 2.024257 0.834163 -1.585281
v 1.969405 0.835152 -1.390270
v 1.969083 0.835603 -1.385975
v 1.704043 0.832278 -1.667577
v 1.706067 0.834301 -1.674782
v 2.023073 0.834618 -1.577911
v 1.650412 0.832797 -1.480070
v 1.969143 0.833796 -1.386184
v 1.651217 0.849195 -1.479774
v 1.714882 0.846826 -1.673192
v 2.015911 0.846827 -1.588515
v 1.649250 0.846074 -1.475940
v 1.650376 0.834633 -1.479941
v 1.649189 0.844531 -1.472569
v 1.649189 0.837620 -1.472569
v 1.967920 0.848091 -1.384994
v 1.648935 0.847681 -1.474819
v 1.649967 0.836939 -1.475340
v 1.649971 0.844991 -1.475346
v 1.968159 0.844903 -1.385842
v 1.968156 0.836803 -1.385836
v 1.649312 0.833868 -1.476159
v 1.649245 0.835730 -1.475928
v 1.968386 0.834482 -1.383495
v 1.968341 0.834783 -1.383334
v 1.648507 0.834969 -1.473300
v 1.648575 0.834584 -1.473541
v 1.968837 0.836304 -1.385104
v 1.968967 0.835703 -1.385562
v 1.649130 0.835842 -1.475518
v 1.649004 0.836447 -1.475070
v 1.648535 0.847411 -1.473400
v 1.648489 0.846989 -1.473264
v 1.968341 0.847009 -1.383334
v 1.968425 0.847324 -1.383633
v 1.968159 0.845227 -1.385842
v 1.968948 0.845897 -1.385493
v 1.649008 0.845500 -1.475078
v 1.649117 0.845984 -1.475466
vn -0.2924 0.9563 -0.0095
vn -0.0000 1.0000 -0.0000
vn -0.2711 0.9623 0.0225
vn 0.2540 0.9553 0.1513
vn 0.2223 0.9627 0.1545
vn 0.1411 0.9639 -0.2259
vn -0.1462 0.9657 -0.2146
vn 0.0024 0.9641 -0.2656
vn 0.2431 0.9635 -0.1125
vn 0.0297 -0.9995 -0.0048
vn -0.2301 -0.9627 -0.1422
vn -0.0000 -1.0000 -0.0000
vn -0.0251 -0.9995 -0.0216
vn 0.2717 -0.9624 -0.0087
vn 0.2671 -0.9556 -0.1243
vn 0.3014 -0.9535 -0.0056
vn -0.2541 -0.9525 -0.1680
vn 0.0078 -0.9548 -0.2973
vn 0.1433 -0.9555 -0.2578
vn 0.4025 -0.8796 -0.2535
vn 0.0304 -0.9992 0.0262
vn -0.1781 -0.9192 0.3511
vn -0.0425 -0.9991 0.0070
vn -0.3914 -0.9117 0.1247
vn 0.8130 0.5096 0.2815
vn 0.8430 -0.5122 0.1642
vn 0.8500 0.4455 0.2810
vn 0.7970 -0.4086 -0.4448
vn 0.7862 0.4254 -0.4483
vn 0.2080 0.4511 -0.8679
vn 0.2902 -0.5108 -0.8093
vn 0.1700 -0.5122 -0.8419
vn 0.2778 0.4480 -0.8498
vn -0.4490 -0.4084 -0.7947
vn -0.4373 0.4263 -0.7919
vn -0.8743 0.4422 -0.2004
vn -0.8027 -0.5137 -0.3031
vn -0.8404 0.5082 -0.1885
vn -0.8396 -0.4654 -0.2802
vn -0.2709 -0.0000 0.9626
vn -0.5382 0.2317 0.8103
vn -0.5184 -0.0031 0.8551
vn -0.2716 0.9621 0.0246
vn 0.1427 0.9638 -0.2252
vn -0.1452 0.9664 -0.2119
vn 0.2214 0.9625 0.1566
vn 0.0007 0.9640 -0.2659
vn -0.2184 0.9607 -0.1716
vn 0.2737 0.9616 -0.0209
vn 0.0061 -0.9545 -0.2982
vn -0.2540 -0.9521 -0.1703
vn -0.2137 -0.8752 -0.4341
vn 0.1451 -0.9552 -0.2578
vn 0.3024 -0.9531 -0.0075
vn 0.4040 -0.8785 -0.2549
vn -0.3042 -0.9523 0.0229
vn 0.2484 -0.9534 0.1713
vn 0.2708 -0.0011 -0.9626
vn 0.5195 -0.3130 -0.7951
vn 0.5205 -0.0007 -0.8539
vn 0.2788 0.4470 -0.8500
vn -0.4491 -0.4084 -0.7947
vn -0.4372 0.4264 -0.7919
vn 0.2073 0.4500 -0.8686
vn 0.1685 -0.5127 -0.8419
vn 0.7970 -0.4087 -0.4447
vn 0.7861 0.4257 -0.4482
vn 0.8502 0.4444 0.2822
vn 0.8685 0.4579 0.1898
vn 0.8430 -0.5127 0.1625
vn 0.2708 -0.0008 -0.9626
vn -0.0215 0.2960 -0.9549
vn 0.0011 -0.0005 -1.0000
vn 0.1415 -0.9243 -0.3544
vn 0.0601 -0.9242 -0.3771
vn -0.8018 -0.5141 -0.3046
vn -0.8403 0.4532 -0.2974
vn -0.8750 0.4410 -0.1995
vn 0.0800 0.3167 0.9452
vn -0.2154 0.3983 0.8916
vn -0.8726 -0.4744 -0.1158
vn -0.8254 0.3285 -0.4591
vn -0.8055 0.4735 -0.3563
vn 0.2685 -0.9168 0.2956
vn -0.0359 -0.9197 0.3910
vn 0.8128 0.4805 0.3294
vn 0.9409 -0.3342 0.0556
vn 0.8653 -0.4805 0.1427
vn 0.3851 -0.8248 -0.4141
vn 0.0543 0.9238 -0.3790
vn 0.2687 0.9509 -0.1534
vn -0.0287 0.9993 -0.0247
vn -0.1606 0.9224 0.3513
vn 0.0355 0.9990 0.0284
vn -0.0410 0.9991 0.0052
vn 0.0421 0.9991 -0.0070
vn 0.1572 0.9237 -0.3495
vn -0.2782 0.3970 0.8746
vn -0.9717 -0.0000 0.2362
vn -0.7062 -0.0005 -0.7080
vn -0.7067 -0.0005 -0.7075
vn -0.0405 0.9221 0.3849
vn 0.2750 0.9244 0.2641
vn 0.9858 -0.1312 -0.1044
vn 0.7063 -0.0000 0.7079
vn 0.9718 -0.0003 -0.2358
vn -0.5203 -0.0000 0.8540
vn -0.0010 -0.0000 1.0000
vn 0.7066 -0.0001 0.7076
vn 0.9857 0.1292 -0.1084
vn 0.9717 -0.0004 -0.2364
vn 0.2709 -0.0006 -0.9626
vn 0.2296 -0.3931 -0.8904
vn 0.5202 -0.0010 -0.8541
vn -0.1717 -0.9580 -0.2298
vn -0.8150 -0.4821 -0.3214
vn -0.8629 0.4822 -0.1512
vn -0.1365 0.9455 -0.2955
vn 0.8076 -0.4756 0.3487
vn 0.8689 0.4780 0.1287
vn 0.9421 0.3322 0.0465
vn 0.0013 -0.0009 -1.0000
vn -0.8334 -0.3355 -0.4392
vn -0.8954 0.4349 0.0954
vn -0.0308 -0.3175 -0.9478
vn -0.0902 0.8034 -0.5885
vn -0.2079 -0.4007 0.8923
vn -0.2909 -0.4020 0.8682
vn 0.2738 0.3939 -0.8774
vn 0.2269 0.3924 -0.8914
vn 0.0586 -0.2965 0.9532
vn 0.8648 -0.4626 0.1953
vn -0.7831 0.1268 -0.6088
vn -0.9723 -0.0051 0.2336
vn -0.7870 -0.1338 -0.6022
vn 0.5176 0.3039 -0.7999
vn 0.2089 -0.7706 0.6020
vn -0.5087 -0.7562 0.4116
vn -0.5567 -0.2944 0.7768
vn 0.3841 0.8144 -0.4350
vn -0.8940 -0.4460 0.0423
vn -0.9596 -0.1187 0.2550
vn 0.6861 -0.1063 0.7197
vn -0.4905 0.7430 0.4554
vn 0.2268 0.7782 0.5856
vn 0.7700 0.4690 0.4327
vn 0.6870 0.1561 0.7097
vn 0.2667 -0.3920 -0.8805
vn -0.1200 -0.8306 -0.5438
vn -0.9630 0.0643 0.2618
vn -0.3626 0.9294 0.0684
vn -0.2130 -0.8764 -0.4320
vn 0.2408 0.9643 -0.1106
vn 0.8076 -0.5126 0.2916
vn 0.2914 -0.5112 -0.8086
vn -0.8415 -0.5136 -0.1676
vn 0.7299 -0.4418 0.5216
vn -0.0012 -0.0000 1.0000
vt 0.011074 0.498487
vt 0.306153 0.485053
vt 0.306150 0.498377
vt 0.011076 0.014698
vt 0.306153 0.014588
vt 0.011074 0.001369
vt 0.306156 0.001259
vt 0.317473 0.485048
vt 0.317435 0.498281
vt 0.317473 0.014582
vt 0.317443 0.001170
vt 0.950496 0.985375
vt 0.944260 0.998688
vt 0.944263 0.985365
vt 0.944241 0.514947
vt 0.950475 0.514960
vt 0.944243 0.501619
vt 0.950551 0.501588
vt 0.649621 0.984800
vt 0.649604 0.514382
vt 0.649601 0.501055
vt 0.649624 0.998123
vt 0.638318 0.984777
vt 0.638301 0.514359
vt 0.638143 0.501134
vt 0.323461 0.485156
vt 0.318775 0.014733
vt 0.323456 0.014741
vt 0.323551 0.001358
vt 0.053483 0.805645
vt 0.048081 0.512285
vt 0.050851 0.512071
vt 0.050708 0.500105
vt 0.053483 0.499863
vt 0.997181 0.984439
vt 0.997150 0.998521
vt 0.994409 0.984278
vt 0.994214 0.513727
vt 0.996985 0.513552
vt 0.997145 0.499476
vt 0.999929 0.499329
vt 0.024010 0.804192
vt 0.024060 0.816143
vt 0.021240 0.803961
vt 0.026841 0.510612
vt 0.024065 0.510444
vt 0.956982 0.014633
vt 0.954223 0.001296
vt 0.958789 0.001296
vt 0.939109 0.498377
vt 0.950432 0.485048
vt 0.950393 0.498279
vt 0.939111 0.014588
vt 0.939111 0.485053
vt 0.939114 0.001259
vt 0.950432 0.014582
vt 0.644033 0.498487
vt 0.644035 0.014698
vt 0.644030 0.485163
vt 0.644032 0.001369
vt 0.635635 0.015349
vt 0.624329 0.002004
vt 0.635803 0.001915
vt 0.624332 0.485744
vt 0.635635 0.485767
vt 0.624335 0.499071
vt 0.635797 0.498990
vt 0.624332 0.015326
vt 0.329693 0.001428
vt 0.329696 0.485169
vt 0.329693 0.498497
vt 0.993311 0.485328
vt 0.992557 0.498664
vt 0.992067 0.498663
vt 0.996985 0.014222
vt 0.997221 0.000150
vt 1.000000 0.000000
vt 0.997181 0.485113
vt 0.994214 0.014401
vt 0.997221 0.499192
vt 1.000000 0.499329
vt 0.029610 0.512255
vt 0.029538 0.500295
vt 0.032313 0.500047
vt 0.032245 0.806000
vt 0.026841 0.512475
vt 0.978382 0.014622
vt 0.979543 0.001285
vt 0.980021 0.001286
vt 0.950960 0.985376
vt 0.950938 0.514961
vt 0.000000 0.803757
vt 0.005602 0.510238
vt 0.002769 0.803993
vt 0.002895 0.815939
vt 0.005671 0.816205
vt 0.956982 0.485335
vt 0.954264 0.498672
vt 0.951983 0.485335
vt 0.004501 0.504316
vt 0.007497 0.503341
vt 0.007321 0.503982
vt 0.323544 0.498430
vt 0.318780 0.485146
vt 0.051901 0.813830
vt 0.049343 0.812865
vt 0.049486 0.812127
vt 0.951021 0.501586
vt 0.637450 0.014698
vt 0.637809 0.001328
vt 0.637824 0.014698
vt 0.000000 0.485163
vt 0.002786 0.014702
vt 0.002781 0.485163
vt 0.637823 0.485164
vt 0.637450 0.485164
vt 0.971911 0.485335
vt 0.971911 0.014633
vt 0.951983 0.014633
vt 0.010220 0.499902
vt 0.021342 0.502786
vt 0.009163 0.502659
vt 0.000005 0.014704
vt 0.002803 0.001426
vt 0.048616 0.813468
vt 0.047097 0.816260
vt 0.047846 0.813475
vt 0.969241 0.001296
vt 0.969451 0.498672
vt 0.036645 0.816352
vt 0.034839 0.813601
vt 0.035595 0.813594
vt 0.993311 0.014622
vt 0.993962 0.485327
vt 0.011071 0.485163
vt 0.979816 0.498661
vt 0.978382 0.485330
vt 0.950561 0.998660
vt 0.022967 0.504149
vt 0.025415 0.502420
vt 0.637807 0.498440
vt 0.031031 0.811946
vt 0.033768 0.812249
vt 0.033925 0.812893
vt 0.992200 0.001288
vt 0.022837 0.503407
vt 0.025028 0.500197
vt 0.992686 0.001288
vt 0.637419 0.498437
vt 0.976932 0.485335
vt 0.976932 0.014633
vt 0.977709 0.014622
vt 0.977709 0.485330
vt 0.974153 0.498672
vt 0.050708 0.805825
vt 0.008418 0.502651
vt 0.329690 0.014751
vt 0.020672 0.500001
vt 0.022112 0.502794
vt 0.979333 0.498661
vt 0.974636 0.498672
vt 0.977322 0.485336
vt 0.637057 0.485151
vt 0.637057 0.014686
vt 0.974438 0.001297
vt 0.973949 0.001296
vt 0.977322 0.014633
vt 0.978858 0.498661
vt 0.979057 0.001286
vt 0.977322 0.014622
vt 0.005624 0.500234
vt 0.006209 0.499863
vt 0.032564 0.816388
vt 0.953760 0.001297
vt 0.953966 0.498672
vt 0.951733 0.485336
vt 0.951733 0.014633
vt 0.051529 0.815754
vt 0.051055 0.816225
vt 0.992858 0.498664
vt 0.994214 0.485327
vt 0.951223 0.985367
vt 0.992983 0.001288
vt 0.993962 0.014622
vt 0.024391 0.499976
vt 0.002802 0.498540
vt 0.950663 0.500330
vt 0.944277 0.500362
vt 0.011161 0.000109
vt 0.649649 0.499797
vt 0.637298 0.500321
vt 0.649678 0.999434
vt 0.638154 0.998209
vt 0.318775 0.485165
vt 0.951733 0.014520
vt 0.318775 0.014522
vt 0.318478 0.000224
vt 0.951733 0.485168
vt 0.306268 0.499688
vt 0.318478 0.499285
vt 0.950401 0.001167
vt 0.951439 0.000220
vt 0.636968 0.015408
vt 0.958999 0.499958
vt 0.969451 0.499958
vt 0.944288 1.000000
vt 0.939229 0.499687
vt 0.951439 0.499285
vt 0.329832 0.499754
vt 0.624285 0.500329
vt 0.636968 0.485665
vt 0.637639 0.000067
vt 0.624273 0.000692
vt 0.939227 0.000000
vt 0.329839 0.000116
vt 0.636639 0.499802
vt 0.636637 0.001061
vt 0.011155 0.499797
vt 0.636985 0.984721
vt 0.637318 0.999065
vt 0.950659 0.999972
vt 0.643951 0.000109
vt 0.643940 0.499797
vt 0.306266 0.000000
vt 0.636968 0.514459
vt 0.969241 0.000011
vt 0.958789 0.000012
vt 0.002967 0.000166
vt 0.992194 0.000002
vt 0.980014 0.000000
vt 0.979809 0.499947
vt 0.992060 0.499949
vt 0.323793 0.000047
vt 0.637616 0.499749
vt 0.973989 0.499958
vt 0.973834 0.000012
vt 0.973253 0.000011
vt 0.978152 0.499947
vt 0.979053 0.499947
vt 0.979269 0.000000
vt 0.978361 0.000000
vt 0.319746 0.000000
vt 0.318926 0.001305
vt 0.973533 0.499958
vt 0.319613 0.499643
vt 0.323774 0.499688
vt 0.637426 0.001325
vt 0.636989 0.000063
vt 0.954432 0.000012
vt 0.052130 0.816746
vt 0.051833 0.816992
vt 0.992830 0.499949
vt 0.993568 0.499949
vt 0.992963 0.000002
vt 0.000726 0.499863
vt 0.002952 0.499849
vt 0.955070 0.000000
vt 0.951030 0.998658
vt 0.951411 0.999969
vt 0.001042 0.000179
vt 0.000024 0.001446
vt 0.955041 0.499958
vt 0.958999 0.498672
vt 0.999929 0.998655
vt 0.026841 0.816403
vt 0.994409 0.484949
vt 0.029466 0.805840
vt 0.002824 0.510414
vt 0.318916 0.498380
vt 0.032106 0.816140
vt 0.977322 0.485330
vt 0.951201 0.514953
vt 0.994214 0.014622
vt 0.000022 0.498557
vt 0.636968 0.499744
vt 0.993700 0.000002
vt 0.951411 0.500327
s 1
f 146/1/1 6/2/2 5/3/3
f 6/2/2 3/4/2 7/5/2
f 7/5/2 4/6/4 8/7/5
f 5/3/3 10/8/6 9/9/7
f 10/8/6 7/5/2 11/10/8
f 11/10/8 8/7/5 12/11/9
f 68/12/10 15/13/11 16/14/12
f 68/12/10 18/15/12 65/16/13
f 65/16/13 20/17/14 63/18/15
f 15/13/11 22/19/12 16/14/12
f 18/15/12 22/19/12 23/20/12
f 20/17/14 23/20/12 24/21/16
f 21/22/17 26/23/18 22/19/12
f 23/20/12 26/23/18 27/24/19
f 24/21/16 27/24/19 28/25/20
f 71/26/21 84/27/22 53/28/23
f 84/27/22 54/29/24 53/28/23
f 115/30/25 117/31/26 116/32/27
f 116/32/27 118/33/28 126/34/29
f 125/35/30 118/36/28 148/37/31
f 125/35/30 147/38/32 122/39/33
f 122/39/33 120/40/34 121/41/35
f 128/42/36 120/43/34 119/44/37
f 1/45/38 119/44/37 134/46/39
f 66/47/40 97/48/41 151/49/42
f 135/50/43 31/51/44 32/52/45
f 33/53/2 31/51/44 30/54/2
f 35/55/46 124/56/47 33/53/2
f 37/57/48 30/54/2 135/50/43
f 39/58/2 30/54/2 38/59/2
f 139/60/49 33/53/2 39/58/2
f 41/61/50 141/62/51 142/63/52
f 46/64/12 41/61/50 131/65/53
f 48/66/54 131/65/53 138/67/55
f 42/68/12 50/69/56 141/62/51
f 51/70/12 42/68/12 46/64/12
f 137/71/57 46/64/12 48/66/54
f 57/72/58 173/73/59 157/74/60
f 123/75/61 44/76/62 127/77/63
f 34/78/64 130/79/65 123/75/61
f 47/80/66 34/78/64 129/81/67
f 143/82/68 47/83/66 129/84/67
f 40/85/69 136/86/70 143/82/68
f 69/87/71 95/88/72 155/89/73
f 111/90/74 65/16/13 109/91/75
f 43/92/76 150/93/77 29/94/78
f 44/95/62 29/94/78 127/96/63
f 67/97/40 104/98/79 101/99/80
f 159/100/81 167/101/82 160/102/83
f 72/103/84 85/104/85 71/26/21
f 77/105/86 174/106/87 113/107/88
f 109/91/75 63/18/15 105/108/89
f 91/109/90 74/110/91 73/111/92
f 99/112/93 80/113/94 78/114/95
f 91/109/90 75/115/96 94/116/97
f 14/117/40 66/47/40 13/118/40
f 67/97/40 100/119/98 66/47/40
f 55/120/99 61/121/100 17/122/101
f 102/123/102 153/124/103 80/113/94
f 106/125/104 132/126/105 60/127/106
f 66/47/40 152/128/107 13/118/40
f 133/129/108 67/97/40 14/117/40
f 19/130/109 165/131/110 56/132/111
f 58/133/112 110/134/113 57/72/58
f 146/1/1 78/114/95 2/135/2
f 57/72/58 158/136/114 70/137/58
f 69/87/71 57/72/58 70/137/58
f 111/90/74 62/138/115 68/12/10
f 1/45/38 149/139/116 154/140/117
f 60/127/106 19/130/109 56/132/111
f 75/115/96 37/57/48 76/141/118
f 75/115/96 39/58/2 38/59/2
f 73/111/92 139/60/49 39/58/2
f 145/142/119 40/85/69 140/143/120
f 80/113/94 4/6/4 3/4/2
f 166/144/121 145/142/119 140/143/120
f 58/133/112 155/89/73 156/145/122
f 154/140/117 176/146/123 169/147/124
f 108/148/125 58/133/112 156/145/122
f 94/116/97 76/141/118 96/149/126
f 86/150/127 13/118/40 83/151/128
f 93/152/129 70/137/58 92/153/130
f 87/154/131 14/117/40 86/150/127
f 115/30/25 113/107/88 114/155/132
f 150/93/77 159/100/81 160/102/83
f 168/156/133 55/120/99 17/122/101
f 53/28/23 50/69/56 49/157/12
f 51/70/12 53/28/23 49/157/12
f 137/71/57 71/26/21 51/70/12
f 78/114/95 3/4/2 2/135/2
f 59/158/134 175/159/135 61/121/100
f 70/137/58 90/160/136 92/153/130
f 88/161/137 86/150/127 85/162/85
f 91/109/90 93/163/129 92/164/130
f 81/165/138 83/151/128 82/166/139
f 85/162/85 83/151/128 84/167/22
f 89/168/140 92/153/130 90/160/136
f 96/169/126 93/152/129 94/170/97
f 168/156/133 164/171/141 163/172/142
f 162/173/143 166/144/121 165/131/110
f 13/118/40 82/166/139 83/151/128
f 100/119/98 98/174/144 97/48/41
f 101/99/80 103/175/145 102/176/102
f 101/99/80 99/177/93 100/119/98
f 106/125/104 172/178/146 171/179/147
f 105/180/89 110/134/113 109/181/75
f 109/91/75 112/182/148 111/90/74
f 107/183/149 112/184/148 108/148/125
f 176/146/123 170/185/150 169/147/124
f 79/186/151 99/112/93 78/114/95
f 113/187/88 20/17/14 114/188/132
f 115/189/25 8/7/5 4/6/4
f 117/190/26 28/25/20 118/191/28
f 119/192/37 25/193/152 21/22/17
f 122/194/33 9/9/7 10/8/6
f 34/195/64 31/51/44 124/56/47
f 125/196/30 12/11/9 126/197/29
f 125/196/30 10/8/6 11/10/8
f 123/198/61 32/52/45 31/51/44
f 128/199/36 9/9/7 121/200/35
f 34/195/64 36/201/153 129/202/67
f 130/203/65 131/65/53 41/61/50
f 132/204/105 133/129/108 19/205/109
f 119/192/37 15/13/11 134/206/39
f 29/207/78 32/52/45 127/208/63
f 52/209/154 48/66/54 136/210/70
f 45/211/155 138/67/55 131/65/53
f 140/212/120 139/60/49 74/110/91
f 43/213/76 142/63/52 141/62/51
f 143/214/68 36/201/153 35/55/46
f 144/215/156 141/62/51 50/69/56
f 52/209/154 72/103/84 137/71/57
f 136/210/70 138/67/55 47/216/66
f 130/203/65 142/63/52 44/217/62
f 1/218/38 5/3/3 128/199/36
f 147/219/32 25/193/152 120/220/34
f 147/219/32 27/24/19 26/23/18
f 149/221/116 15/13/11 62/138/115
f 40/222/69 35/55/46 139/60/49
f 150/223/77 135/50/43 29/207/78
f 116/224/27 12/11/9 8/7/5
f 117/190/26 20/17/14 24/21/16
f 148/225/31 28/25/20 27/24/19
f 55/226/99 151/49/42 59/227/134
f 115/189/25 153/124/103 77/228/86
f 1/218/38 79/186/151 146/1/1
f 61/229/100 155/89/73 17/230/101
f 56/231/111 157/74/60 60/232/106
f 144/215/156 54/29/24 159/233/81
f 160/234/83 37/57/48 150/223/77
f 161/235/157 87/154/131 88/161/137
f 164/236/141 82/166/139 163/237/142
f 166/238/121 90/160/136 165/239/110
f 168/240/133 96/169/126 167/241/82
f 163/237/142 152/128/107 55/226/99
f 160/234/83 96/149/126 76/141/118
f 164/242/141 54/29/24 81/243/138
f 17/230/101 95/88/72 168/240/133
f 162/244/143 133/129/108 87/154/131
f 161/245/157 72/103/84 145/246/119
f 56/231/111 90/160/136 158/136/114
f 140/212/120 89/247/140 166/248/121
f 169/249/124 97/48/41 98/174/144
f 171/179/147 103/250/145 104/251/79
f 106/252/104 105/180/89 174/253/87
f 175/254/135 107/183/149 108/148/125
f 169/255/124 79/186/151 154/256/117
f 170/257/150 151/49/42 97/48/41
f 149/221/116 107/258/149 176/259/123
f 61/229/100 108/148/125 156/145/122
f 172/260/146 153/124/103 103/261/145
f 171/262/147 64/263/158 132/204/105
f 60/232/106 173/73/59 106/252/104
f 113/187/88 105/108/89 63/18/15
f 146/1/1 2/135/2 6/2/2
f 6/2/2 2/135/2 3/4/2
f 7/5/2 3/4/2 4/6/4
f 5/3/3 6/2/2 10/8/6
f 10/8/6 6/2/2 7/5/2
f 11/10/8 7/5/2 8/7/5
f 68/12/10 62/138/115 15/13/11
f 68/12/10 16/14/12 18/15/12
f 65/16/13 18/15/12 20/17/14
f 15/13/11 21/22/17 22/19/12
f 18/15/12 16/14/12 22/19/12
f 20/17/14 18/15/12 23/20/12
f 21/22/17 25/193/152 26/23/18
f 23/20/12 22/19/12 26/23/18
f 24/21/16 23/20/12 27/24/19
f 71/26/21 85/104/85 84/27/22
f 84/27/22 81/243/138 54/29/24
f 115/30/25 114/155/132 117/31/26
f 116/32/27 117/31/26 118/33/28
f 125/35/30 126/264/29 118/36/28
f 125/35/30 148/37/31 147/38/32
f 122/39/33 147/38/32 120/40/34
f 128/42/36 121/265/35 120/43/34
f 1/45/38 128/42/36 119/44/37
f 66/47/40 100/119/98 97/48/41
f 135/50/43 30/54/2 31/51/44
f 33/53/2 124/56/47 31/51/44
f 35/55/46 36/201/153 124/56/47
f 37/57/48 38/59/2 30/54/2
f 39/58/2 33/53/2 30/54/2
f 139/60/49 35/55/46 33/53/2
f 41/61/50 42/68/12 141/62/51
f 46/64/12 42/68/12 41/61/50
f 48/66/54 46/64/12 131/65/53
f 42/68/12 49/157/12 50/69/56
f 51/70/12 49/157/12 42/68/12
f 137/71/57 51/70/12 46/64/12
f 57/72/58 110/134/113 173/73/59
f 123/75/61 130/79/65 44/76/62
f 34/78/64 45/266/155 130/79/65
f 47/80/66 45/266/155 34/78/64
f 143/82/68 136/86/70 47/83/66
f 40/85/69 52/267/154 136/86/70
f 69/87/71 93/152/129 95/88/72
f 111/90/74 68/12/10 65/16/13
f 43/92/76 144/268/156 150/93/77
f 44/95/62 43/92/76 29/94/78
f 67/97/40 64/263/158 104/98/79
f 159/100/81 164/171/141 167/101/82
f 72/103/84 88/269/137 85/104/85
f 77/105/86 172/178/146 174/106/87
f 109/91/75 65/16/13 63/18/15
f 91/109/90 89/247/140 74/110/91
f 99/112/93 102/123/102 80/113/94
f 91/109/90 73/111/92 75/115/96
f 14/117/40 67/97/40 66/47/40
f 67/97/40 101/99/80 100/119/98
f 55/120/99 59/158/134 61/121/100
f 102/123/102 103/261/145 153/124/103
f 106/125/104 171/179/147 132/126/105
f 66/47/40 151/49/42 152/128/107
f 133/129/108 64/263/158 67/97/40
f 19/130/109 162/173/143 165/131/110
f 58/133/112 112/184/148 110/134/113
f 146/1/1 79/186/151 78/114/95
f 57/72/58 157/74/60 158/136/114
f 69/87/71 58/133/112 57/72/58
f 111/90/74 107/258/149 62/138/115
f 1/45/38 134/46/39 149/139/116
f 60/127/106 132/126/105 19/130/109
f 75/115/96 38/59/2 37/57/48
f 75/115/96 73/111/92 39/58/2
f 73/111/92 74/110/91 139/60/49
f 145/142/119 52/267/154 40/85/69
f 80/113/94 153/124/103 4/6/4
f 166/144/121 161/270/157 145/142/119
f 58/133/112 69/87/71 155/89/73
f 154/140/117 149/139/116 176/146/123
f 108/148/125 112/184/148 58/133/112
f 94/116/97 75/115/96 76/141/118
f 86/150/127 14/117/40 13/118/40
f 93/152/129 69/87/71 70/137/58
f 87/154/131 133/129/108 14/117/40
f 115/30/25 77/105/86 113/107/88
f 150/93/77 144/268/156 159/100/81
f 168/156/133 163/172/142 55/120/99
f 53/28/23 54/29/24 50/69/56
f 51/70/12 71/26/21 53/28/23
f 137/71/57 72/103/84 71/26/21
f 78/114/95 80/113/94 3/4/2
f 59/158/134 170/185/150 175/159/135
f 70/137/58 158/136/114 90/160/136
f 88/161/137 87/154/131 86/150/127
f 91/109/90 94/116/97 93/163/129
f 81/165/138 84/167/22 83/151/128
f 85/162/85 86/150/127 83/151/128
f 89/168/140 91/271/90 92/153/130
f 96/169/126 95/88/72 93/152/129
f 168/156/133 167/101/82 164/171/141
f 162/173/143 161/270/157 166/144/121
f 13/118/40 152/128/107 82/166/139
f 100/119/98 99/177/93 98/174/144
f 101/99/80 104/98/79 103/175/145
f 101/99/80 102/176/102 99/177/93
f 106/125/104 174/106/87 172/178/146
f 105/180/89 173/73/59 110/134/113
f 109/91/75 110/272/113 112/182/148
f 107/183/149 111/273/74 112/184/148
f 176/146/123 175/159/135 170/185/150
f 79/186/151 98/274/144 99/112/93
f 113/187/88 63/18/15 20/17/14
f 115/189/25 116/224/27 8/7/5
f 117/190/26 24/21/16 28/25/20
f 119/192/37 120/220/34 25/193/152
f 122/194/33 121/200/35 9/9/7
f 34/195/64 123/198/61 31/51/44
f 125/196/30 11/10/8 12/11/9
f 125/196/30 122/194/33 10/8/6
f 123/198/61 127/208/63 32/52/45
f 128/199/36 5/3/3 9/9/7
f 34/195/64 124/56/47 36/201/153
f 130/203/65 45/211/155 131/65/53
f 132/204/105 64/263/158 133/129/108
f 119/192/37 21/22/17 15/13/11
f 29/207/78 135/50/43 32/52/45
f 52/209/154 137/71/57 48/66/54
f 45/211/155 47/216/66 138/67/55
f 140/212/120 40/222/69 139/60/49
f 43/213/76 44/217/62 142/63/52
f 143/214/68 129/202/67 36/201/153
f 144/215/156 43/213/76 141/62/51
f 52/209/154 145/246/119 72/103/84
f 136/210/70 48/66/54 138/67/55
f 130/203/65 41/61/50 142/63/52
f 1/218/38 146/1/1 5/3/3
f 147/219/32 26/23/18 25/193/152
f 147/219/32 148/225/31 27/24/19
f 149/221/116 134/206/39 15/13/11
f 40/222/69 143/214/68 35/55/46
f 150/223/77 37/57/48 135/50/43
f 116/224/27 126/197/29 12/11/9
f 117/190/26 114/188/132 20/17/14
f 148/225/31 118/191/28 28/25/20
f 55/226/99 152/128/107 151/49/42
f 115/189/25 4/6/4 153/124/103
f 1/218/38 154/256/117 79/186/151
f 61/229/100 156/145/122 155/89/73
f 56/231/111 158/136/114 157/74/60
f 144/215/156 50/69/56 54/29/24
f 160/234/83 76/141/118 37/57/48
f 161/235/157 162/244/143 87/154/131
f 164/236/141 81/165/138 82/166/139
f 166/238/121 89/168/140 90/160/136
f 168/240/133 95/88/72 96/169/126
f 163/237/142 82/166/139 152/128/107
f 160/234/83 167/275/82 96/149/126
f 164/242/141 159/233/81 54/29/24
f 17/230/101 155/89/73 95/88/72
f 162/244/143 19/205/109 133/129/108
f 161/245/157 88/269/137 72/103/84
f 56/231/111 165/239/110 90/160/136
f 140/212/120 74/110/91 89/247/140
f 169/249/124 170/257/150 97/48/41
f 171/179/147 172/178/146 103/250/145
f 106/252/104 173/73/59 105/180/89
f 175/254/135 176/276/123 107/183/149
f 169/255/124 98/274/144 79/186/151
f 170/257/150 59/227/134 151/49/42
f 149/221/116 62/138/115 107/258/149
f 61/229/100 175/254/135 108/148/125
f 172/260/146 77/228/86 153/124/103
f 171/262/147 104/98/79 64/263/158
f 60/232/106 157/74/60 173/73/59
f 113/187/88 174/277/87 105/108/89
