# Blender 3.6.23
# www.blender.org
o sol.037
v -5.660574 2.905051 4.792691
v -5.660574 2.905052 -3.572838
v 4.505630 2.905052 -3.572838
v 4.505630 2.905051 4.792691
v -5.660574 3.101902 4.792691
v 4.505630 3.101902 4.792691
v 4.505630 3.101902 -3.572838
v -5.660574 3.101902 -3.572838
v 3.768645 3.101902 -3.572838
v 3.768645 3.101902 4.792691
v 3.768645 2.905052 -3.572838
v 3.768645 2.905051 4.792691
vn -0.0000 -1.0000 -0.0000
vn -0.0000 1.0000 -0.0000
vn -0.0000 -0.0000 1.0000
vn 1.0000 -0.0000 -0.0000
vn -0.0000 -0.0000 -1.0000
vn -1.0000 -0.0000 -0.0000
vt 0.891729 0.121176
vt 0.961335 0.902034
vt 0.891729 0.902034
vt -0.021133 1.541515
vt 0.021318 1.065287
vt 0.021318 1.541515
vt -0.021133 1.569526
vt 0.021059 1.558251
vt 0.021059 1.569526
vt 0.457708 1.583598
vt 0.933820 1.572257
vt 0.933820 1.583598
vt -0.021133 1.555521
vt 0.518685 1.544246
vt 0.518685 1.555521
vt -0.021133 1.583598
vt 0.454978 1.572257
vt 0.454978 1.583598
vt 0.560877 1.544246
vt 0.560877 1.555521
vt 0.560877 1.558251
vt 0.560877 1.569526
vt 0.564457 1.065287
vt 0.564457 1.541515
vt 0.001159 0.121176
vt 0.001159 0.902034
vt 0.961335 0.121176
vt -0.021133 1.065287
vt -0.021133 1.558251
vt 0.457708 1.572256
vt -0.021133 1.544245
vt -0.021133 1.572256
s 0
f 11/1/1 4/2/1 12/3/1
f 6/4/2 9/5/2 10/6/2
f 4/7/3 10/8/3 12/9/3
f 3/10/4 6/11/4 4/12/4
f 2/13/5 9/14/5 11/15/5
f 1/16/6 8/17/6 2/18/6
f 11/15/5 7/19/5 3/20/5
f 12/9/3 5/21/3 1/22/3
f 10/6/2 8/23/2 5/24/2
f 2/25/1 12/3/1 1/26/1
f 11/1/1 3/27/1 4/2/1
f 6/4/2 7/28/2 9/5/2
f 4/7/3 6/29/3 10/8/3
f 3/10/4 7/30/4 6/11/4
f 2/13/5 8/31/5 9/14/5
f 1/16/6 5/32/6 8/17/6
f 11/15/5 9/14/5 7/19/5
f 12/9/3 10/8/3 5/21/3
f 10/6/2 9/5/2 8/23/2
f 2/25/1 11/1/1 12/3/1
