# Blender 3.6.23
# www.blender.org
o sol.060
v 0.982696 2.673040 -3.235343
v 0.958064 2.670614 -3.235343
v 0.934378 2.663429 -3.235343
v 0.912549 2.651762 -3.235343
v 0.893416 2.636059 -3.235343
v 0.877714 2.616926 -3.235343
v 0.866047 2.595098 -3.235343
v 0.858862 2.571412 -3.235343
v 0.856435 2.546780 -3.235343
v 0.858862 2.522147 -3.235343
v 0.866046 2.498462 -3.235343
v 0.877714 2.476633 -3.235343
v 0.893416 2.457500 -3.235343
v 0.912549 2.441798 -3.235343
v 0.934378 2.430130 -3.235343
v 0.958064 2.422945 -3.235343
v 0.982696 2.420519 -3.235343
v 1.007329 2.422945 -3.235343
v 1.031014 2.430130 -3.235343
v 1.052843 2.441798 -3.235343
v 1.071976 2.457500 -3.235343
v 1.087678 2.476633 -3.235343
v 1.099346 2.498462 -3.235343
v 1.106531 2.522147 -3.235343
v 1.108957 2.546780 -3.235343
v 1.106531 2.571412 -3.235343
v 1.099346 2.595098 -3.235343
v 1.087678 2.616927 -3.235343
v 1.071976 2.636060 -3.235343
v 1.052843 2.651762 -3.235343
v 1.031014 2.663429 -3.235343
v 1.007328 2.670614 -3.235343
v 0.982696 2.711119 -3.233992
v 0.950635 2.707962 -3.233992
v 0.919806 2.698610 -3.233992
v 0.891394 2.683423 -3.233992
v 0.866491 2.662985 -3.233992
v 0.846053 2.638082 -3.233992
v 0.830866 2.609670 -3.233992
v 0.821514 2.578841 -3.233992
v 0.818357 2.546780 -3.233992
v 0.821514 2.514719 -3.233992
v 0.830866 2.483890 -3.233992
v 0.846053 2.455477 -3.233992
v 0.866491 2.430574 -3.233991
v 0.891394 2.410136 -3.233991
v 0.919806 2.394950 -3.233991
v 0.950635 2.385598 -3.233991
v 0.982696 2.382440 -3.233991
v 1.014757 2.385598 -3.233991
v 1.045586 2.394950 -3.233991
v 1.073998 2.410136 -3.233991
v 1.098902 2.430574 -3.233991
v 1.119340 2.455478 -3.233991
v 1.134526 2.483890 -3.233992
v 1.143878 2.514719 -3.233992
v 1.147036 2.546780 -3.233992
v 1.143878 2.578841 -3.233992
v 1.134526 2.609670 -3.233992
v 1.119339 2.638082 -3.233992
v 1.098902 2.662986 -3.233992
v 1.073998 2.683423 -3.233992
v 1.045586 2.698610 -3.233992
v 1.014757 2.707962 -3.233992
v 0.982696 2.719548 -3.237467
v 0.948991 2.716229 -3.237467
v 0.916580 2.706397 -3.237467
v 0.886711 2.690432 -3.237467
v 0.860530 2.668946 -3.237467
v 0.839044 2.642765 -3.237467
v 0.823079 2.612895 -3.237467
v 0.813247 2.580485 -3.237467
v 0.809927 2.546780 -3.237467
v 0.813247 2.513074 -3.237467
v 0.823078 2.480664 -3.237467
v 0.839044 2.450794 -3.237467
v 0.860530 2.424613 -3.237467
v 0.886711 2.403128 -3.237467
v 0.916580 2.387162 -3.237467
v 0.948991 2.377330 -3.237467
v 0.982696 2.375007 -3.237467
v 1.016402 2.377331 -3.237467
v 1.048812 2.387162 -3.237467
v 1.078682 2.403128 -3.237467
v 1.104862 2.424614 -3.237467
v 1.126348 2.450794 -3.237467
v 1.142314 2.480664 -3.237467
v 1.152145 2.513074 -3.237467
v 1.155465 2.546780 -3.237467
v 1.152145 2.580486 -3.237467
v 1.142314 2.612895 -3.237467
v 1.126348 2.642765 -3.237467
v 1.104862 2.668946 -3.237467
v 1.078681 2.690432 -3.237467
v 1.048812 2.706397 -3.237467
v 1.016402 2.716229 -3.237467
v 0.982696 2.719548 -3.264693
v 0.948991 2.716229 -3.264693
v 0.916580 2.706397 -3.264693
v 0.886711 2.690432 -3.264693
v 0.860530 2.668946 -3.264693
v 0.839044 2.642765 -3.264693
v 0.823079 2.612895 -3.264693
v 0.813247 2.580485 -3.264693
v 0.809927 2.546780 -3.264693
v 0.813247 2.513074 -3.264693
v 0.823078 2.480664 -3.264693
v 0.839044 2.450794 -3.264693
v 0.860530 2.424613 -3.264693
v 0.886711 2.403128 -3.264693
v 0.916580 2.387162 -3.264693
v 0.948991 2.377330 -3.264693
v 0.982696 2.375007 -3.264693
v 1.016402 2.377331 -3.264693
v 1.048812 2.387162 -3.264693
v 1.078682 2.403128 -3.264693
v 1.104862 2.424614 -3.264693
v 1.126348 2.450794 -3.264693
v 1.142314 2.480664 -3.264693
v 1.152145 2.513074 -3.264693
v 1.155465 2.546780 -3.264693
v 1.152145 2.580486 -3.264693
v 1.142314 2.612895 -3.264693
v 1.126348 2.642765 -3.264693
v 1.104862 2.668946 -3.264693
v 1.078681 2.690432 -3.264693
v 1.048812 2.706397 -3.264693
v 1.016402 2.716229 -3.264693
v 1.142314 2.612895 -3.243253
v 1.126348 2.642765 -3.243253
v 0.860530 2.668946 -3.243253
v 0.839044 2.642765 -3.243253
v 0.948991 2.377330 -3.243253
v 0.982696 2.375007 -3.243253
v 1.155465 2.546780 -3.243253
v 1.152145 2.580486 -3.243253
v 0.916580 2.706397 -3.243253
v 0.886711 2.690432 -3.243253
v 0.886711 2.403128 -3.243253
v 0.916580 2.387162 -3.243253
v 1.142314 2.480664 -3.243253
v 1.152145 2.513074 -3.243253
v 0.982696 2.719548 -3.243253
v 0.948991 2.716229 -3.243253
v 0.839044 2.450794 -3.243253
v 0.860530 2.424613 -3.243253
v 1.016402 2.716229 -3.243253
v 1.104862 2.424614 -3.243253
v 1.126348 2.450794 -3.243253
v 0.813247 2.513074 -3.243253
v 0.823078 2.480664 -3.243253
v 1.078681 2.690432 -3.243253
v 1.048812 2.706397 -3.243253
v 1.048812 2.387162 -3.243253
v 1.078682 2.403128 -3.243253
v 0.813247 2.580485 -3.243253
v 0.809927 2.546780 -3.243253
v 1.104862 2.668946 -3.243253
v 1.016402 2.377331 -3.243253
v 0.823079 2.612895 -3.243253
v 0.982696 2.701488 -3.233992
v 0.982696 2.699264 -3.233431
v 0.952948 2.696334 -3.233431
v 0.952514 2.698515 -3.233992
v 0.924343 2.687657 -3.233431
v 0.923492 2.689711 -3.233992
v 0.897981 2.673566 -3.233431
v 0.896745 2.675415 -3.233992
v 0.874874 2.654603 -3.233431
v 0.873301 2.656175 -3.233992
v 0.855910 2.631495 -3.233431
v 0.854061 2.632731 -3.233992
v 0.841819 2.605133 -3.233431
v 0.839765 2.605984 -3.233992
v 0.833142 2.576528 -3.233431
v 0.830961 2.576962 -3.233992
v 0.830212 2.546780 -3.233431
v 0.827988 2.546780 -3.233992
v 0.833142 2.517032 -3.233431
v 0.830961 2.516598 -3.233992
v 0.841819 2.488427 -3.233431
v 0.839765 2.487576 -3.233992
v 0.855910 2.462064 -3.233431
v 0.854061 2.460829 -3.233992
v 0.874874 2.438957 -3.233431
v 0.873301 2.437385 -3.233992
v 0.897981 2.419994 -3.233431
v 0.896745 2.418145 -3.233991
v 0.924343 2.405903 -3.233431
v 0.923492 2.403848 -3.233991
v 0.952948 2.397225 -3.233431
v 0.952514 2.395044 -3.233991
v 0.982696 2.394295 -3.233431
v 0.982696 2.392072 -3.233991
v 1.012444 2.397225 -3.233431
v 1.012878 2.395044 -3.233991
v 1.041049 2.405903 -3.233431
v 1.041900 2.403848 -3.233991
v 1.067412 2.419994 -3.233431
v 1.068647 2.418145 -3.233991
v 1.090519 2.438957 -3.233431
v 1.092091 2.437385 -3.233991
v 1.109482 2.462064 -3.233431
v 1.111331 2.460829 -3.233991
v 1.123573 2.488427 -3.233431
v 1.125628 2.487576 -3.233992
v 1.132250 2.517032 -3.233431
v 1.134431 2.516598 -3.233992
v 1.135180 2.546780 -3.233431
v 1.137404 2.546780 -3.233992
v 1.132250 2.576528 -3.233431
v 1.134431 2.576962 -3.233992
v 1.123573 2.605133 -3.233431
v 1.125628 2.605984 -3.233992
v 1.109482 2.631495 -3.233431
v 1.111331 2.632731 -3.233992
v 1.090519 2.654603 -3.233431
v 1.092091 2.656175 -3.233992
v 1.067412 2.673566 -3.233431
v 1.068647 2.675415 -3.233992
v 1.041049 2.687657 -3.233431
v 1.041900 2.689711 -3.233992
v 1.012444 2.696334 -3.233431
v 1.012878 2.698515 -3.233992
v 0.982696 2.676541 -3.227669
v 0.982696 2.675130 -3.228701
v 0.957656 2.672664 -3.228701
v 0.957381 2.674048 -3.227669
v 0.933579 2.665360 -3.228701
v 0.933038 2.666664 -3.227669
v 0.911388 2.653499 -3.228701
v 0.910604 2.654673 -3.227669
v 0.891939 2.637537 -3.228701
v 0.890941 2.638535 -3.227669
v 0.875977 2.618087 -3.228701
v 0.874803 2.618871 -3.227669
v 0.864116 2.595897 -3.228701
v 0.862812 2.596437 -3.227669
v 0.856812 2.571820 -3.228701
v 0.855428 2.572095 -3.227669
v 0.854346 2.546780 -3.228700
v 0.852934 2.546780 -3.227669
v 0.856812 2.521740 -3.228700
v 0.855428 2.521464 -3.227669
v 0.864116 2.497662 -3.228700
v 0.862812 2.497122 -3.227669
v 0.875977 2.475472 -3.228700
v 0.874803 2.474688 -3.227669
v 0.891939 2.456022 -3.228700
v 0.890941 2.455024 -3.227669
v 0.911388 2.440060 -3.228700
v 0.910604 2.438887 -3.227669
v 0.933579 2.428199 -3.228700
v 0.933039 2.426895 -3.227669
v 0.957656 2.420895 -3.228700
v 0.957381 2.419511 -3.227669
v 0.982696 2.418429 -3.228700
v 0.982696 2.417018 -3.227669
v 1.007736 2.420895 -3.228700
v 1.008012 2.419511 -3.227669
v 1.031814 2.428199 -3.228700
v 1.032354 2.426895 -3.227669
v 1.054004 2.440060 -3.228700
v 1.054788 2.438887 -3.227669
v 1.073454 2.456022 -3.228700
v 1.074452 2.455024 -3.227669
v 1.089416 2.475472 -3.228700
v 1.090589 2.474688 -3.227669
v 1.101277 2.497662 -3.228700
v 1.102581 2.497122 -3.227669
v 1.108581 2.521740 -3.228700
v 1.109965 2.521464 -3.227669
v 1.111047 2.546780 -3.228700
v 1.112458 2.546780 -3.227669
v 1.108581 2.571820 -3.228700
v 1.109965 2.572095 -3.227669
v 1.101277 2.595897 -3.228700
v 1.102580 2.596437 -3.227669
v 1.089416 2.618088 -3.228701
v 1.090589 2.618871 -3.227669
v 1.073454 2.637537 -3.228701
v 1.074451 2.638535 -3.227669
v 1.054004 2.653499 -3.228701
v 1.054788 2.654673 -3.227669
v 1.031814 2.665360 -3.228701
v 1.032354 2.666664 -3.227669
v 1.007736 2.672664 -3.228701
v 1.008011 2.674048 -3.227669
v 0.982696 2.689223 -3.228025
v 0.982696 2.687807 -3.227669
v 0.955183 2.685097 -3.227669
v 0.954907 2.686486 -3.228025
v 0.928727 2.677072 -3.227669
v 0.928186 2.678380 -3.228025
v 0.904346 2.664040 -3.227669
v 0.903559 2.665216 -3.228025
v 0.882975 2.646501 -3.227669
v 0.881974 2.647502 -3.228025
v 0.865436 2.625130 -3.227669
v 0.864259 2.625917 -3.228025
v 0.852404 2.600749 -3.227669
v 0.851096 2.601290 -3.228025
v 0.844379 2.574293 -3.227669
v 0.842990 2.574569 -3.228025
v 0.841669 2.546780 -3.227669
v 0.840253 2.546780 -3.228025
v 0.844379 2.519267 -3.227669
v 0.842990 2.518991 -3.228025
v 0.852404 2.492811 -3.227669
v 0.851096 2.492269 -3.228025
v 0.865436 2.468429 -3.227669
v 0.864259 2.467643 -3.228025
v 0.882975 2.447058 -3.227669
v 0.881974 2.446057 -3.228025
v 0.904346 2.429520 -3.227669
v 0.903559 2.428343 -3.228025
v 0.928727 2.416487 -3.227669
v 0.928186 2.415180 -3.228025
v 0.955183 2.408462 -3.227669
v 0.954907 2.407074 -3.228025
v 0.982696 2.405753 -3.227669
v 0.982696 2.404337 -3.228025
v 1.010209 2.408462 -3.227669
v 1.010485 2.407074 -3.228025
v 1.036665 2.416487 -3.227669
v 1.037207 2.415180 -3.228025
v 1.061047 2.429520 -3.227669
v 1.061833 2.428343 -3.228025
v 1.082417 2.447058 -3.227669
v 1.083419 2.446057 -3.228025
v 1.099956 2.468429 -3.227669
v 1.101133 2.467643 -3.228025
v 1.112988 2.492811 -3.227669
v 1.114296 2.492269 -3.228025
v 1.121014 2.519267 -3.227669
v 1.122402 2.518991 -3.228025
v 1.123723 2.546780 -3.227669
v 1.125139 2.546780 -3.228025
v 1.121014 2.574293 -3.227669
v 1.122402 2.574569 -3.228025
v 1.112988 2.600749 -3.227669
v 1.114296 2.601290 -3.228025
v 1.099956 2.625130 -3.227669
v 1.101133 2.625917 -3.228025
v 1.082417 2.646501 -3.227669
v 1.083418 2.647502 -3.228025
v 1.061047 2.664040 -3.227669
v 1.061833 2.665217 -3.228025
v 1.036665 2.677072 -3.227669
v 1.037207 2.678380 -3.228025
v 1.010209 2.685097 -3.227669
v 1.010485 2.686486 -3.228025
vn 0.0693 -0.3483 0.9348
vn 0.1411 -0.3405 0.9296
vn 0.0719 -0.3615 0.9296
vn -0.3406 0.1411 0.9296
vn -0.3484 0.0693 0.9348
vn -0.3614 0.0719 0.9296
vn 0.3281 0.1359 0.9348
vn 0.3065 0.2048 0.9296
vn 0.3405 0.1411 0.9296
vn -0.2606 0.2606 0.9296
vn -0.2954 0.1973 0.9348
vn -0.3065 0.2048 0.9296
vn -0.0719 -0.3615 0.9296
vn -0.0000 -0.3552 0.9348
vn -0.0000 -0.3686 0.9296
vn 0.3685 -0.0000 0.9296
vn 0.3484 0.0693 0.9348
vn 0.3616 0.0719 0.9295
vn -0.1410 0.3405 0.9296
vn -0.1974 0.2953 0.9348
vn -0.2048 0.3065 0.9296
vn -0.2048 -0.3065 0.9296
vn -0.1359 -0.3281 0.9348
vn -0.1411 -0.3405 0.9296
vn 0.3281 -0.1359 0.9348
vn 0.3616 -0.0719 0.9296
vn 0.3406 -0.1411 0.9296
vn -0.0255 0.1282 0.9914
vn 0.1120 -0.2705 0.9562
vn 0.0571 -0.2871 0.9562
vn -0.2953 -0.1974 0.9348
vn -0.2608 -0.2606 0.9296
vn -0.3064 -0.2048 0.9296
vn 0.0693 0.3484 0.9348
vn -0.0000 0.3686 0.9296
vn 0.0719 0.3615 0.9296
vn 0.2511 -0.2511 0.9348
vn 0.3064 -0.2048 0.9296
vn 0.2607 -0.2606 0.9296
vn -0.3616 -0.0719 0.9296
vn -0.3282 -0.1359 0.9348
vn -0.3406 -0.1411 0.9296
vn 0.2048 0.3065 0.9296
vn 0.1359 0.3282 0.9348
vn 0.1411 0.3406 0.9296
vn 0.1973 -0.2953 0.9348
vn 0.2047 -0.3065 0.9296
vn -0.3686 -0.0000 0.9296
vn 0.2954 0.1973 0.9348
vn 0.2606 0.2606 0.9296
vn -0.3282 0.1359 0.9348
vn -0.2511 0.2512 0.9348
vn 0.3484 -0.0693 0.9348
vn -0.0693 0.3484 0.9348
vn -0.0719 0.3615 0.9296
vn -0.2512 -0.2512 0.9348
vn -0.3552 -0.0000 0.9348
vn -0.3651 -0.8813 0.3000
vn -0.1572 -0.7904 0.5921
vn -0.1861 -0.9356 0.3001
vn -0.4477 0.6700 0.5921
vn -0.6745 0.6745 0.3001
vn -0.5300 0.7932 0.3001
vn 0.8058 -0.0000 0.5921
vn 0.9356 0.1861 0.3001
vn 0.9539 -0.0000 0.3001
vn 0.2511 0.2512 0.9348
vn -0.1861 0.9356 0.3001
vn -0.3084 0.7445 0.5922
vn -0.3650 0.8813 0.3001
vn 0.7445 -0.3084 0.5921
vn 0.9356 -0.1861 0.3001
vn 0.8813 -0.3650 0.3001
vn -0.7445 -0.3084 0.5922
vn -0.7932 -0.5299 0.3001
vn -0.8813 -0.3650 0.3001
vn 0.6745 -0.6745 0.3001
vn 0.6700 -0.4477 0.5921
vn 0.7931 -0.5300 0.3001
vn 0.1572 0.7903 0.5922
vn -0.0000 0.9539 0.3001
vn 0.1861 0.9356 0.3001
vn -0.8058 -0.0000 0.5922
vn -0.9356 -0.1861 0.3001
vn -0.9539 -0.0000 0.3001
vn 0.3651 -0.8813 0.3001
vn 0.4477 -0.6701 0.5921
vn 0.5299 -0.7932 0.3001
vn 0.5300 0.7931 0.3001
vn 0.3084 0.7444 0.5922
vn 0.3650 0.8813 0.3001
vn -0.7445 0.3084 0.5922
vn -0.9356 0.1861 0.3001
vn -0.8813 0.3650 0.3001
vn 0.7931 0.5300 0.3001
vn 0.5698 0.5698 0.5922
vn 0.6745 0.6745 0.3001
vn -0.6700 0.4477 0.5922
vn -0.7931 0.5300 0.3001
vn 0.7903 0.1572 0.5922
vn 0.8813 0.3650 0.3001
vn -0.5300 -0.7931 0.3001
vn -0.3083 -0.7445 0.5921
vn 0.7903 -0.1572 0.5922
vn -0.5697 -0.5698 0.5922
vn -0.6745 -0.6745 0.3001
vn -0.1572 0.7903 0.5922
vn -0.7903 -0.1572 0.5922
vn 0.1572 -0.7903 0.5921
vn 0.1861 -0.9356 0.3001
vn -0.0000 -0.9539 0.3001
vn 0.7445 0.3084 0.5922
vn -0.0000 0.2059 0.9786
vn -0.0225 0.1133 0.9933
vn -0.0000 0.1155 0.9933
vn 0.0816 -0.0816 0.9933
vn 0.1712 -0.1144 0.9786
vn 0.0960 -0.0641 0.9933
vn -0.1133 -0.0225 0.9933
vn -0.1902 -0.0788 0.9786
vn -0.1067 -0.0442 0.9933
vn 0.1144 0.1712 0.9786
vn 0.0442 0.1067 0.9933
vn 0.0642 0.0960 0.9933
vn 0.0788 -0.1903 0.9786
vn 0.0641 -0.0960 0.9933
vn 0.0442 -0.1067 0.9933
vn -0.2020 0.0402 0.9786
vn -0.1155 -0.0000 0.9933
vn -0.1133 0.0225 0.9933
vn 0.0960 0.0642 0.9933
vn 0.1456 0.1456 0.9786
vn 0.0817 0.0817 0.9933
vn -0.0000 -0.1155 0.9933
vn 0.0378 -0.2042 0.9782
vn 0.0225 -0.1132 0.9933
vn -0.1712 0.1144 0.9786
vn -0.1067 0.0442 0.9933
vn -0.0960 0.0642 0.9933
vn 0.1133 0.0225 0.9933
vn 0.1903 0.0788 0.9786
vn 0.1067 0.0442 0.9933
vn -0.1144 0.1712 0.9786
vn -0.0817 0.0817 0.9933
vn -0.0642 0.0960 0.9933
vn -0.0442 -0.1067 0.9933
vn -0.0378 -0.2042 0.9782
vn -0.0225 -0.1132 0.9933
vn 0.2020 -0.0402 0.9786
vn 0.1155 -0.0000 0.9933
vn 0.1133 -0.0225 0.9933
vn -0.0788 0.1902 0.9786
vn -0.0442 0.1067 0.9933
vn -0.1456 -0.1456 0.9786
vn -0.0642 -0.0960 0.9933
vn -0.0816 -0.0817 0.9933
vn 0.1067 -0.0442 0.9933
vn -0.0960 -0.0642 0.9933
vn 0.0402 0.2020 0.9786
vn 0.0225 0.1133 0.9933
vn 0.1144 -0.1712 0.9786
vn -0.2059 -0.0000 0.9786
vn -0.4477 -0.6700 0.5921
vn -0.1902 0.0788 0.9786
vn 0.1712 0.1144 0.9786
vn -0.1456 0.1456 0.9786
vn -0.0000 -0.2298 0.9732
vn 0.2020 0.0402 0.9786
vn -0.1144 -0.1712 0.9786
vn 0.1902 -0.0788 0.9786
vn -0.1712 -0.1144 0.9786
vn 0.1305 -0.0000 0.9914
vn -0.2870 -0.0571 0.9562
vn -0.2927 -0.0000 0.9562
vn -0.0727 0.1086 0.9914
vn 0.1627 -0.2435 0.9562
vn 0.1627 0.2434 0.9562
vn -0.0500 -0.1207 0.9914
vn 0.1120 0.2704 0.9562
vn -0.0000 0.3552 0.9348
vn 0.1208 -0.0500 0.9914
vn -0.2871 0.0571 0.9562
vn -0.2704 0.1120 0.9562
vn 0.2433 0.1626 0.9562
vn -0.0925 -0.0924 0.9914
vn 0.2070 0.2070 0.9562
vn -0.2070 0.2070 0.9562
vn 0.1086 -0.0726 0.9914
vn -0.2434 0.1626 0.9562
vn 0.2870 0.0571 0.9562
vn -0.1207 -0.0500 0.9914
vn 0.2704 0.1120 0.9562
vn 0.0726 0.1086 0.9914
vn -0.1120 -0.2705 0.9562
vn -0.1627 -0.2435 0.9562
vn 0.0500 -0.1207 0.9914
vn -0.1627 0.2434 0.9562
vn -0.1120 0.2704 0.9562
vn -0.1280 0.0255 0.9914
vn 0.2927 -0.0000 0.9562
vn 0.2870 -0.0571 0.9562
vn -0.2434 -0.1626 0.9562
vn 0.0923 0.0924 0.9914
vn -0.2069 -0.2070 0.9562
vn -0.1086 0.0726 0.9914
vn 0.2705 -0.1120 0.9562
vn 0.2434 -0.1627 0.9562
vn -0.0000 0.2927 0.9562
vn 0.0255 -0.1282 0.9914
vn -0.0571 0.2871 0.9562
vn 0.1283 0.0255 0.9914
vn -0.2704 -0.1120 0.9562
vn -0.0924 0.0924 0.9914
vn 0.2071 -0.2070 0.9562
vn -0.0255 -0.1282 0.9914
vn 0.0571 0.2871 0.9562
vn 0.1282 -0.0255 0.9914
vn -0.0726 -0.1086 0.9914
vn -0.1086 -0.0726 0.9914
vn 0.0255 0.1282 0.9914
vn -0.0572 -0.2872 0.9562
vn 0.0925 -0.0924 0.9914
vn -0.1282 -0.0255 0.9914
vn -0.1208 0.0500 0.9914
vn 0.1207 0.0500 0.9914
vn 0.8412 -0.0000 0.5408
vn 0.2059 -0.0000 0.9786
vn -0.3219 0.7771 0.5408
vn -0.4673 -0.6994 0.5407
vn -0.0788 -0.1903 0.9786
vn 0.7771 -0.3219 0.5408
vn -0.0000 0.8412 0.5408
vn -0.0402 0.2020 0.9786
vn -0.6994 -0.4673 0.5407
vn 0.1641 0.8250 0.5408
vn 0.1456 -0.1456 0.9786
vn 0.6994 -0.4673 0.5407
vn -0.8250 -0.1641 0.5408
vn -0.2020 -0.0402 0.9786
vn 0.3219 0.7771 0.5408
vn 0.0788 0.1902 0.9786
vn 0.4673 -0.6994 0.5407
vn -0.8250 0.1641 0.5407
vn 0.6994 0.4673 0.5407
vn -0.0000 -0.8482 0.5297
vn -0.6994 0.4673 0.5407
vn 0.7772 0.3219 0.5407
vn -0.5948 0.5948 0.5408
vn -0.3219 -0.7772 0.5407
vn 0.8250 -0.1641 0.5407
vn -0.1641 0.8250 0.5407
vn -0.5948 -0.5948 0.5407
vn -0.7771 -0.3219 0.5408
vn 0.5948 -0.5948 0.5407
vn -0.8412 -0.0000 0.5408
vn 0.3219 -0.7772 0.5407
vn 0.9239 0.3827 -0.0000
vn 0.8315 0.5556 -0.0000
vn -0.7071 0.7071 -0.0000
vn -0.8315 0.5556 -0.0000
vn -0.1807 -0.9835 -0.0000
vn -0.0000 -1.0000 -0.0000
vn 1.0000 -0.0000 -0.0000
vn 0.9808 0.1951 -0.0000
vn -0.3827 0.9239 -0.0000
vn -0.5556 0.8315 -0.0000
vn -0.5556 -0.8315 -0.0000
vn -0.3827 -0.9239 -0.0000
vn 0.9239 -0.3827 -0.0000
vn 0.9808 -0.1951 -0.0000
vn -0.0000 1.0000 -0.0000
vn -0.1951 0.9808 -0.0000
vn -0.8315 -0.5556 -0.0000
vn -0.7071 -0.7071 -0.0000
vn 0.1951 0.9808 -0.0000
vn 0.7071 -0.7071 -0.0000
vn 0.8315 -0.5556 -0.0000
vn -0.9808 -0.1951 -0.0000
vn -0.9239 -0.3827 -0.0000
vn 0.5556 0.8315 -0.0000
vn 0.3827 0.9239 -0.0000
vn 0.3827 -0.9239 -0.0000
vn 0.5556 -0.8315 -0.0000
vn -0.9808 0.1951 -0.0000
vn -1.0000 -0.0000 -0.0000
vn 0.7071 0.7071 -0.0000
vn 0.1807 -0.9835 -0.0000
vn -0.9239 0.3827 -0.0000
vn 0.5948 0.5948 0.5408
vn -0.7771 0.3219 0.5408
vn 0.1524 -0.8287 0.5385
vn -0.1524 -0.8287 0.5385
vn -0.4673 0.6994 0.5408
vn 0.8250 0.1641 0.5408
vn 0.4673 0.6994 0.5408
vn -0.1359 0.3282 0.9348
vn -0.3484 -0.0693 0.9348
vn -0.1973 -0.2953 0.9348
vn -0.0693 -0.3483 0.9348
vn 0.1359 -0.3281 0.9348
vn 0.2953 -0.1973 0.9348
vn 0.3552 -0.0000 0.9348
vn -0.0000 -0.2928 0.9562
vn 0.3083 -0.7445 0.5922
vn 0.5699 -0.5698 0.5921
vn 0.6700 0.4477 0.5922
vn 0.4477 0.6700 0.5922
vn -0.0000 0.8058 0.5922
vn -0.5698 0.5698 0.5922
vn -0.7903 0.1572 0.5922
vn -0.6700 -0.4477 0.5922
vn 0.1974 0.2954 0.9348
vn -0.0000 -0.8058 0.5921
vn -0.0500 0.1207 0.9914
vn -0.1307 -0.0000 0.9914
vn -0.0000 -0.1307 0.9914
vn 0.0725 -0.1087 0.9914
vn 0.1086 0.0726 0.9914
vn 0.0500 0.1207 0.9914
vn -0.0000 0.1307 0.9914
vt 0.531250 0.506084
vt 0.562500 0.518823
vt 0.531250 0.518823
vt 0.187500 0.518823
vt 0.218750 0.506084
vt 0.218750 0.518823
vt 0.812500 0.506084
vt 0.843750 0.518823
vt 0.812500 0.518823
vt 0.125000 0.518823
vt 0.156250 0.506084
vt 0.156250 0.518823
vt 0.468750 0.518823
vt 0.500000 0.506084
vt 0.500000 0.518823
vt 0.750000 0.518823
vt 0.781250 0.506084
vt 0.781250 0.518823
vt 0.062500 0.518823
vt 0.093750 0.506084
vt 0.093750 0.518823
vt 0.406250 0.518823
vt 0.437500 0.506084
vt 0.437500 0.518823
vt 0.687500 0.506084
vt 0.718750 0.518823
vt 0.687500 0.518823
vt 0.031250 0.521052
vt 0.062500 0.541822
vt 0.031250 0.541822
vt 0.343750 0.506084
vt 0.375000 0.518823
vt 0.343750 0.518823
vt 0.968750 0.506084
vt 1.000000 0.518823
vt 0.968750 0.518823
vt 0.625000 0.506084
vt 0.656250 0.518823
vt 0.625000 0.518823
vt 0.281250 0.518823
vt 0.312500 0.506084
vt 0.312500 0.518823
vt 0.906250 0.518823
vt 0.937500 0.506084
vt 0.937500 0.518823
vt 0.593750 0.506084
vt 0.593750 0.518823
vt 0.250000 0.518823
vt 0.843750 0.506084
vt 0.875000 0.518823
vt 0.187500 0.506084
vt 0.125000 0.506084
vt 0.718750 0.506084
vt 0.031250 0.506084
vt 0.031250 0.518823
vt 0.375000 0.506084
vt 0.250000 0.506084
vt 0.937500 0.559872
vt 0.968750 0.545983
vt 0.968750 0.559872
vt 0.593750 0.545983
vt 0.625000 0.559872
vt 0.593750 0.559872
vt 0.250000 0.545983
vt 0.281250 0.559872
vt 0.250000 0.559872
vt 0.875000 0.506084
vt 0.531250 0.559872
vt 0.562500 0.545983
vt 0.562500 0.559872
vt 0.187500 0.545983
vt 0.218750 0.559872
vt 0.187500 0.559872
vt 0.812500 0.545983
vt 0.843750 0.559872
vt 0.812500 0.559872
vt 0.125000 0.559872
vt 0.156250 0.545983
vt 0.156250 0.559872
vt 0.468750 0.545983
vt 0.500000 0.559872
vt 0.468750 0.559872
vt 0.750000 0.545983
vt 0.781250 0.559872
vt 0.750000 0.559872
vt 0.062500 0.559872
vt 0.093750 0.545983
vt 0.093750 0.559872
vt 0.406250 0.559872
vt 0.437500 0.545983
vt 0.437500 0.559872
vt 0.687500 0.545983
vt 0.718750 0.559872
vt 0.687500 0.559872
vt 0.343750 0.559872
vt 0.375000 0.545983
vt 0.375000 0.559872
vt 0.656250 0.545983
vt 0.656250 0.559872
vt 0.281250 0.545983
vt 0.312500 0.559872
vt 0.906250 0.559872
vt 0.937500 0.545983
vt 0.218750 0.545983
vt 0.875000 0.545983
vt 0.875000 0.559872
vt 0.531250 0.545983
vt 0.781250 0.545983
vt 0.031250 0.545983
vt 0.031250 0.559872
vt 1.000000 0.559872
vt 0.312500 0.545983
vt 0.000000 0.496645
vt 0.031250 0.503875
vt 0.000000 0.503875
vt 0.625000 0.503875
vt 0.656250 0.496645
vt 0.656250 0.503875
vt 0.281250 0.503875
vt 0.312500 0.496645
vt 0.312500 0.503875
vt 0.906250 0.496645
vt 0.937500 0.503875
vt 0.906250 0.503875
vt 0.562500 0.496645
vt 0.593750 0.503875
vt 0.562500 0.503875
vt 0.218750 0.496645
vt 0.250000 0.503875
vt 0.218750 0.503875
vt 0.843750 0.503875
vt 0.875000 0.496645
vt 0.875000 0.503875
vt 0.500000 0.503875
vt 0.531250 0.496645
vt 0.531250 0.503875
vt 0.156250 0.496645
vt 0.187500 0.503875
vt 0.156250 0.503875
vt 0.781250 0.503875
vt 0.812500 0.496645
vt 0.812500 0.503875
vt 0.093750 0.496645
vt 0.125000 0.503875
vt 0.093750 0.503875
vt 0.437500 0.503875
vt 0.468750 0.496645
vt 0.468750 0.503875
vt 0.718750 0.496645
vt 0.750000 0.503875
vt 0.718750 0.503875
vt 0.062500 0.496645
vt 0.062500 0.503875
vt 0.375000 0.496645
vt 0.406250 0.503875
vt 0.375000 0.503875
vt 0.687500 0.503875
vt 0.343750 0.503875
vt 0.968750 0.496645
vt 0.968750 0.503875
vt 0.593750 0.496645
vt 0.250000 0.496645
vt 0.906250 0.545983
vt 0.187500 0.496645
vt 0.843750 0.496645
vt 0.125000 0.496645
vt 0.500000 0.496645
vt 0.781250 0.496645
vt 0.406250 0.496645
vt 0.687500 0.496645
vt 1.000000 0.496645
vt 1.000000 0.503875
vt 0.343750 0.496645
vt 0.750000 0.521052
vt 0.781250 0.541822
vt 0.750000 0.541822
vt 0.093750 0.521052
vt 0.093750 0.541822
vt 0.406250 0.541822
vt 0.437500 0.521052
vt 0.437500 0.541822
vt 0.000000 0.506084
vt 0.000000 0.518823
vt 0.687500 0.521052
vt 0.718750 0.541822
vt 0.687500 0.541822
vt 0.343750 0.541822
vt 0.375000 0.521052
vt 0.375000 0.541822
vt 0.625000 0.541822
vt 0.656250 0.521052
vt 0.656250 0.541822
vt 0.281250 0.541822
vt 0.312500 0.521052
vt 0.312500 0.541822
vt 0.906250 0.521052
vt 0.937500 0.541822
vt 0.906250 0.541822
vt 0.562500 0.521052
vt 0.593750 0.541822
vt 0.562500 0.541822
vt 0.218750 0.521052
vt 0.250000 0.541822
vt 0.218750 0.541822
vt 0.843750 0.541822
vt 0.875000 0.521052
vt 0.875000 0.541822
vt 0.156250 0.521052
vt 0.187500 0.541822
vt 0.156250 0.541822
vt 0.500000 0.541822
vt 0.531250 0.521052
vt 0.531250 0.541822
vt 0.781250 0.521052
vt 0.812500 0.541822
vt 0.125000 0.521052
vt 0.125000 0.541822
vt 0.468750 0.521052
vt 0.468750 0.541822
vt 0.718750 0.521052
vt 0.406250 0.521052
vt 0.343750 0.521052
vt 0.968750 0.521052
vt 0.968750 0.541822
vt 0.625000 0.521052
vt 0.281250 0.521052
vt 0.187500 0.521052
vt 0.812500 0.521052
vt 0.750000 0.488561
vt 0.750000 0.496645
vt 0.062500 0.488561
vt 0.406250 0.488561
vt 0.437500 0.496645
vt 0.687500 0.488561
vt 0.000000 0.488561
vt 0.031250 0.496645
vt 0.343750 0.488561
vt 0.968750 0.488561
vt 0.625000 0.496645
vt 0.656250 0.488561
vt 0.281250 0.488561
vt 0.281250 0.496645
vt 0.937500 0.488561
vt 0.937500 0.496645
vt 0.593750 0.488561
vt 0.218750 0.488561
vt 0.843750 0.488561
vt 0.500000 0.488561
vt 0.156250 0.488561
vt 0.812500 0.488561
vt 0.125000 0.488561
vt 0.437500 0.488561
vt 0.718750 0.488561
vt 0.031250 0.488561
vt 0.375000 0.488561
vt 0.312500 0.488561
vt 0.625000 0.488561
vt 0.250000 0.488561
vt 0.562500 0.488561
vt 0.812500 0.425235
vt 0.843750 0.475104
vt 0.812500 0.475104
vt 0.125000 0.425235
vt 0.156250 0.475104
vt 0.125000 0.475104
vt 0.468750 0.425235
vt 0.500000 0.475104
vt 0.468750 0.475104
vt 0.750000 0.475104
vt 0.781250 0.425235
vt 0.781250 0.475104
vt 0.062500 0.425235
vt 0.093750 0.475104
vt 0.062500 0.475104
vt 0.406250 0.425235
vt 0.437500 0.475104
vt 0.406250 0.475104
vt 0.687500 0.425235
vt 0.718750 0.475104
vt 0.687500 0.475104
vt 0.000000 0.425235
vt 0.031250 0.475104
vt 0.000000 0.475104
vt 0.343750 0.425235
vt 0.375000 0.475104
vt 0.343750 0.475104
vt 0.968750 0.425235
vt 1.000000 0.475104
vt 0.968750 0.475104
vt 0.625000 0.425235
vt 0.656250 0.475104
vt 0.625000 0.475104
vt 0.281250 0.425235
vt 0.312500 0.475104
vt 0.281250 0.475104
vt 0.906250 0.425235
vt 0.937500 0.475104
vt 0.906250 0.475104
vt 0.562500 0.425235
vt 0.593750 0.475104
vt 0.562500 0.475104
vt 0.218750 0.425235
vt 0.250000 0.475104
vt 0.218750 0.475104
vt 0.843750 0.425235
vt 0.875000 0.475104
vt 0.500000 0.425235
vt 0.531250 0.475104
vt 0.156250 0.425235
vt 0.187500 0.475104
vt 0.093750 0.425235
vt 0.437500 0.425235
vt 0.750000 0.425235
vt 0.031250 0.425235
vt 0.375000 0.425235
vt 0.656250 0.425235
vt 0.312500 0.425235
vt 0.937500 0.425235
vt 0.593750 0.425235
vt 0.250000 0.425235
vt 0.875000 0.488561
vt 0.531250 0.425235
vt 0.187500 0.425235
vt 0.187500 0.488561
vt 0.531250 0.488561
vt 0.875000 0.425235
vt 0.468750 0.488561
vt 0.093750 0.488561
vt 0.781250 0.488561
vt 0.906250 0.488561
vt 1.000000 0.488561
vt 0.062500 0.506084
vt 0.281250 0.506084
vt 0.406250 0.506084
vt 0.468750 0.506084
vt 0.562500 0.506084
vt 0.656250 0.506084
vt 0.750000 0.506084
vt 1.000000 0.506084
vt 1.000000 0.541822
vt 0.000000 0.541822
vt 0.062500 0.545983
vt 0.125000 0.545983
vt 0.343750 0.545983
vt 0.406250 0.545983
vt 0.500000 0.545983
vt 0.625000 0.545983
vt 0.718750 0.545983
vt 0.843750 0.545983
vt 0.906250 0.506084
vt 1.000000 0.545983
vt 0.000000 0.545983
vt 0.000000 0.559872
vt 0.062500 0.521052
vt 0.250000 0.521052
vt 0.500000 0.521052
vt 0.593750 0.521052
vt 0.843750 0.521052
vt 0.937500 0.521052
vt 1.000000 0.521052
vt 0.718750 0.425235
vt 1.000000 0.425235
vt 0.000000 0.521052
s 1
f 195/1/1 326/2/2 324/3/3
f 302/4/4 175/5/5 304/6/6
f 213/7/7 344/8/8 342/9/9
f 298/10/10 171/11/11 300/12/12
f 320/13/13 193/14/14 322/15/15
f 338/16/16 211/17/17 340/18/18
f 294/19/19 167/20/20 296/21/21
f 316/22/22 189/23/23 318/24/24
f 205/25/25 336/26/26 334/27/27
f 291/28/28 230/29/29 228/30/30
f 183/31/31 314/32/32 312/33/33
f 223/34/34 289/35/35 352/36/36
f 201/37/37 332/38/38 330/39/39
f 308/40/40 181/41/41 310/42/42
f 348/43/43 221/44/44 350/45/45
f 326/2/2 199/46/46 328/47/47
f 175/5/5 306/48/48 304/6/6
f 215/49/49 346/50/50 344/8/8
f 322/15/15 195/1/1 324/3/3
f 300/12/12 173/51/51 302/4/4
f 211/17/17 342/9/9 340/18/18
f 296/21/21 169/52/52 298/10/10
f 189/23/23 320/13/13 318/24/24
f 207/53/53 338/16/16 336/26/26
f 163/54/54 294/19/19 292/55/55
f 185/56/56 316/22/22 314/32/32
f 332/38/38 205/25/25 334/27/27
f 181/41/41 312/33/33 310/42/42
f 221/44/44 352/36/36 350/45/45
f 199/46/46 330/39/39 328/47/47
f 177/57/57 308/40/40 306/48/48
f 31/58/58 287/59/59 32/60/60
f 263/61/61 21/62/62 20/63/63
f 241/64/64 10/65/65 9/66/66
f 217/67/67 348/43/43 346/50/50
f 18/68/68 261/69/69 19/70/70
f 237/71/71 8/72/72 7/73/73
f 277/74/74 28/75/75 27/76/76
f 5/77/77 235/78/78 6/79/79
f 255/80/80 17/81/81 16/82/82
f 273/83/83 26/84/84 25/85/85
f 3/86/86 231/87/87 4/88/88
f 14/89/89 253/90/90 15/91/91
f 269/92/92 24/93/93 23/94/94
f 12/95/95 249/96/96 13/97/97
f 21/62/62 267/98/98 22/99/99
f 243/100/100 11/101/101 10/65/65
f 30/102/102 285/103/103 31/58/58
f 261/69/69 20/63/63 19/70/70
f 239/104/104 9/66/66 8/72/72
f 28/75/75 281/105/105 29/106/106
f 235/78/78 7/73/73 6/79/79
f 17/81/81 259/107/107 18/68/68
f 275/108/108 27/76/76 26/84/84
f 231/87/87 5/77/77 4/88/88
f 15/91/91 255/80/80 16/82/82
f 24/93/93 273/83/83 25/85/85
f 227/109/109 3/86/86 2/110/110
f 249/96/96 14/89/89 13/97/97
f 287/59/59 1/111/111 32/60/60
f 267/98/98 23/94/94 22/99/99
f 245/112/112 12/95/95 11/101/101
f 33/113/113 164/114/114 161/115/115
f 202/116/116 54/117/117 204/118/118
f 180/119/119 43/120/120 182/121/121
f 62/122/122 222/123/123 220/124/124
f 51/125/125 200/126/126 198/127/127
f 40/128/128 178/129/129 176/130/130
f 216/131/131 61/132/132 218/133/133
f 194/134/134 50/135/135 196/136/136
f 38/137/137 174/138/138 172/139/139
f 212/140/140 59/141/141 214/142/142
f 36/143/143 170/144/144 168/145/145
f 190/146/146 48/147/147 192/148/148
f 56/149/149 210/150/150 208/151/151
f 164/114/114 35/152/152 166/153/153
f 45/154/154 188/155/155 186/156/156
f 54/117/117 206/157/157 204/118/118
f 43/120/120 184/158/158 182/121/121
f 222/123/123 64/159/159 224/160/160
f 52/161/161 202/116/116 200/126/126
f 41/162/162 180/119/119 178/129/129
f 29/106/106 283/163/163 30/102/102
f 196/136/136 51/125/125 198/127/127
f 39/164/164 176/130/130 174/138/138
f 214/142/142 60/165/165 216/131/131
f 37/166/166 172/139/139 170/144/144
f 192/148/148 49/167/167 194/134/134
f 210/150/150 58/168/168 212/140/140
f 166/153/153 36/143/143 168/145/145
f 46/169/169 190/146/146 188/155/155
f 55/170/170 208/151/151 206/157/157
f 224/160/160 33/171/113 161/172/115
f 44/173/171 186/156/156 184/158/158
f 337/174/172 276/175/173 274/176/174
f 230/29/29 295/177/175 232/178/176
f 252/179/177 317/180/178 254/181/179
f 162/182/180 292/55/55 289/183/35
f 333/184/181 272/185/182 270/186/183
f 248/187/184 313/188/185 250/189/186
f 266/190/187 331/191/188 268/192/189
f 244/193/190 309/194/191 246/195/192
f 347/196/193 286/197/194 284/198/195
f 325/199/196 264/200/197 262/201/198
f 303/202/199 242/203/200 240/204/201
f 280/205/202 345/206/203 282/207/204
f 299/208/205 238/209/206 236/210/207
f 258/211/208 323/212/209 260/213/210
f 339/214/211 278/215/212 276/175/173
f 232/178/176 297/216/213 234/217/214
f 254/181/179 319/218/215 256/219/216
f 335/220/217 274/176/174 272/185/182
f 250/189/186 315/221/218 252/179/177
f 268/192/189 333/184/181 270/186/183
f 246/195/192 311/222/219 248/187/184
f 286/197/194 351/223/220 288/224/221
f 264/200/197 329/225/222 266/190/187
f 242/203/200 307/226/223 244/193/190
f 61/132/132 220/124/124 218/133/133
f 301/227/224 240/204/201 238/209/206
f 323/212/209 262/201/198 260/213/210
f 341/228/225 280/205/202 278/215/212
f 234/217/214 299/208/205 236/210/207
f 319/218/215 258/211/208 256/219/216
f 89/229/226 58/168/168 57/230/227
f 67/231/228 36/143/143 35/152/152
f 78/232/229 47/233/230 46/169/169
f 87/234/231 56/149/149 55/170/170
f 65/235/232 34/236/233 33/113/113
f 76/237/234 45/154/154 44/173/171
f 96/238/235 33/171/113 64/159/159
f 53/239/236 86/240/237 54/117/117
f 74/241/238 43/120/120 42/242/239
f 62/122/122 95/243/240 63/244/241
f 51/125/125 84/245/242 52/161/161
f 72/246/243 41/162/162 40/128/128
f 92/247/244 61/132/132 60/165/165
f 81/248/245 50/135/135 49/167/167
f 70/249/246 39/164/164 38/137/137
f 58/168/168 91/250/247 59/141/141
f 36/143/143 69/251/248 37/166/166
f 79/252/249 48/147/147 47/233/230
f 88/253/250 57/230/227 56/149/149
f 66/254/251 35/152/152 34/236/233
f 77/255/252 46/169/169 45/154/154
f 54/117/117 87/234/231 55/170/170
f 75/256/253 44/173/171 43/120/120
f 63/244/241 96/238/235 64/159/159
f 52/161/161 85/257/254 53/239/236
f 73/258/255 42/242/239 41/162/162
f 282/207/204 347/196/193 284/198/195
f 50/135/135 83/259/256 51/125/125
f 39/164/164 72/246/243 40/128/128
f 59/141/141 92/247/244 60/165/165
f 37/166/166 70/249/246 38/137/137
f 48/147/147 81/248/245 49/167/167
f 123/260/257 130/261/258 129/262/257
f 101/263/259 132/264/260 131/265/259
f 112/266/261 134/267/262 133/268/261
f 135/269/263 122/270/264 136/271/264
f 99/272/265 138/273/266 137/274/265
f 110/275/267 140/276/268 139/277/267
f 119/278/269 142/279/270 141/280/269
f 97/281/271 144/282/272 143/283/271
f 108/284/273 146/285/274 145/286/273
f 128/287/275 143/288/271 147/289/275
f 117/290/276 149/291/277 148/292/276
f 106/293/278 151/294/279 150/295/278
f 126/296/280 153/297/281 152/298/280
f 115/299/282 155/300/283 154/301/282
f 104/302/284 157/303/285 156/304/284
f 124/305/258 158/306/286 130/261/258
f 113/307/262 159/308/287 134/267/262
f 102/309/260 160/310/288 132/264/260
f 122/270/264 129/262/257 136/271/264
f 100/311/266 131/265/259 138/273/266
f 111/312/268 133/268/261 140/276/268
f 142/279/270 121/313/263 135/269/263
f 98/314/272 137/274/265 144/282/272
f 109/315/274 139/277/267 146/285/274
f 118/316/277 141/280/269 149/291/277
f 107/317/279 145/286/273 151/294/279
f 127/318/281 147/289/275 153/297/281
f 116/319/283 148/292/276 155/300/283
f 105/320/285 150/295/278 157/303/285
f 93/321/289 62/122/122 61/132/132
f 114/322/287 154/301/282 159/308/287
f 103/323/288 156/304/284 160/310/288
f 160/310/288 72/246/243 71/324/290
f 159/308/287 83/259/256 82/325/291
f 125/326/286 152/298/280 158/306/286
f 157/303/285 74/241/238 73/258/255
f 155/300/283 85/257/254 84/245/242
f 153/297/281 96/238/235 95/243/240
f 151/294/279 76/237/234 75/256/253
f 149/291/277 87/234/231 86/240/237
f 146/285/274 78/232/229 77/255/252
f 144/282/272 67/231/228 66/254/251
f 142/279/270 89/229/226 88/253/250
f 140/276/268 80/327/292 79/252/249
f 138/273/266 69/251/248 68/328/293
f 136/271/264 91/250/247 90/329/294
f 132/264/260 71/324/290 70/249/246
f 134/267/262 82/325/291 81/248/245
f 130/261/258 93/321/289 92/247/244
f 156/304/284 73/258/255 72/246/243
f 154/301/282 84/245/242 83/259/256
f 152/298/280 95/243/240 94/330/295
f 150/295/278 75/256/253 74/241/238
f 148/292/276 86/240/237 85/257/254
f 147/289/275 65/331/232 96/238/235
f 145/286/273 77/255/252 76/237/234
f 143/283/271 66/254/251 65/235/232
f 141/280/269 88/253/250 87/234/231
f 139/277/267 79/252/249 78/232/229
f 137/274/265 68/328/293 67/231/228
f 135/269/263 90/329/294 89/229/226
f 133/268/261 81/248/245 80/327/292
f 131/265/259 70/249/246 69/251/248
f 129/262/257 92/247/244 91/250/247
f 163/54/54 161/115/115 164/114/114
f 163/54/54 166/153/153 165/332/296
f 167/20/20 166/153/153 168/145/145
f 169/52/52 168/145/145 170/144/144
f 171/11/11 170/144/144 172/139/139
f 171/11/11 174/138/138 173/51/51
f 173/51/51 176/130/130 175/5/5
f 175/5/5 178/129/129 177/57/57
f 179/333/297 178/129/129 180/119/119
f 181/41/41 180/119/119 182/121/121
f 181/41/41 184/158/158 183/31/31
f 183/31/31 186/156/156 185/56/56
f 185/56/56 188/155/155 187/334/298
f 187/334/298 190/146/146 189/23/23
f 191/335/299 190/146/146 192/148/148
f 191/335/299 194/134/134 193/14/14
f 193/14/14 196/136/136 195/1/1
f 197/336/300 196/136/136 198/127/127
f 197/336/300 200/126/126 199/46/46
f 201/37/37 200/126/126 202/116/116
f 203/337/301 202/116/116 204/118/118
f 205/25/25 204/118/118 206/157/157
f 205/25/25 208/151/151 207/53/53
f 209/338/302 208/151/151 210/150/150
f 211/17/17 210/150/150 212/140/140
f 213/7/7 212/140/140 214/142/142
f 215/49/49 214/142/142 216/131/131
f 215/49/49 218/133/133 217/67/67
f 158/306/286 94/330/295 93/321/289
f 221/44/44 220/124/124 222/123/123
f 221/44/44 224/160/160 223/34/34
f 223/34/34 161/172/115 162/339/180
f 351/223/220 225/340/303 288/224/221
f 227/109/109 225/341/303 228/30/30
f 227/109/109 230/29/29 229/342/304
f 231/87/87 230/29/29 232/178/176
f 233/343/305 232/178/176 234/217/214
f 233/343/305 236/210/207 235/78/78
f 235/78/78 238/209/206 237/71/71
f 237/71/71 240/204/201 239/104/104
f 241/64/64 240/204/201 242/203/200
f 241/64/64 244/193/190 243/100/100
f 243/100/100 246/195/192 245/112/112
f 247/344/306 246/195/192 248/187/184
f 247/344/306 250/189/186 249/96/96
f 249/96/96 252/179/177 251/345/307
f 253/90/90 252/179/177 254/181/179
f 253/90/90 256/219/216 255/80/80
f 255/80/80 258/211/208 257/346/308
f 259/107/107 258/211/208 260/213/210
f 261/69/69 260/213/210 262/201/198
f 261/69/69 264/200/197 263/61/61
f 263/61/61 266/190/187 265/347/309
f 265/347/309 268/192/189 267/98/98
f 267/98/98 270/186/183 269/92/92
f 269/92/92 272/185/182 271/348/310
f 271/348/310 274/176/174 273/83/83
f 275/108/108 274/176/174 276/175/173
f 277/74/74 276/175/173 278/215/212
f 277/74/74 280/205/202 279/349/311
f 279/349/311 282/207/204 281/105/105
f 217/67/67 220/124/124 219/350/312
f 283/163/163 286/197/194 285/103/103
f 287/59/59 286/197/194 288/224/221
f 287/59/59 225/340/303 226/351/313
f 226/352/313 2/110/110 1/353/111
f 291/28/28 289/183/35 292/55/55
f 291/28/28 294/19/19 293/354/314
f 295/177/175 294/19/19 296/21/21
f 295/177/175 298/10/10 297/216/213
f 297/216/213 300/12/12 299/208/205
f 299/208/205 302/4/4 301/227/224
f 301/227/224 304/6/6 303/202/199
f 305/355/315 304/6/6 306/48/48
f 307/226/223 306/48/48 308/40/40
f 309/194/191 308/40/40 310/42/42
f 311/222/219 310/42/42 312/33/33
f 313/188/185 312/33/33 314/32/32
f 313/188/185 316/22/22 315/221/218
f 315/221/218 318/24/24 317/180/178
f 317/180/178 320/13/13 319/218/215
f 321/356/316 320/13/13 322/15/15
f 321/356/316 324/3/3 323/212/209
f 323/212/209 326/2/2 325/199/196
f 325/199/196 328/47/47 327/357/317
f 329/225/222 328/47/47 330/39/39
f 329/225/222 332/38/38 331/191/188
f 333/184/181 332/38/38 334/27/27
f 333/184/181 336/26/26 335/220/217
f 335/220/217 338/16/16 337/174/172
f 339/214/211 338/16/16 340/18/18
f 339/214/211 342/9/9 341/228/225
f 341/228/225 344/8/8 343/358/318
f 343/358/318 346/50/50 345/206/203
f 283/163/163 282/207/204 284/198/195
f 349/359/319 348/43/43 350/45/45
f 351/223/220 350/45/45 352/36/36
f 290/360/320 352/36/36 289/35/35
f 225/341/303 291/28/28 228/30/30
f 347/196/193 346/50/50 348/43/43
f 195/1/1 197/336/300 326/2/2
f 302/4/4 173/51/51 175/5/5
f 213/7/7 215/49/49 344/8/8
f 298/10/10 169/52/52 171/11/11
f 320/13/13 191/335/299 193/14/14
f 338/16/16 209/338/302 211/17/17
f 294/19/19 165/332/296 167/20/20
f 316/22/22 187/334/298 189/23/23
f 205/25/25 207/53/53 336/26/26
f 291/28/28 293/354/314 230/29/29
f 183/31/31 185/56/56 314/32/32
f 223/34/34 162/339/180 289/35/35
f 201/37/37 203/337/301 332/38/38
f 308/40/40 179/333/297 181/41/41
f 348/43/43 219/350/312 221/44/44
f 326/2/2 197/336/300 199/46/46
f 175/5/5 177/57/57 306/48/48
f 215/49/49 217/67/67 346/50/50
f 322/15/15 193/14/14 195/1/1
f 300/12/12 171/11/11 173/51/51
f 211/17/17 213/7/7 342/9/9
f 296/21/21 167/20/20 169/52/52
f 189/23/23 191/335/299 320/13/13
f 207/53/53 209/338/302 338/16/16
f 163/54/54 165/332/296 294/19/19
f 185/56/56 187/334/298 316/22/22
f 332/38/38 203/337/301 205/25/25
f 181/41/41 183/31/31 312/33/33
f 221/44/44 223/34/34 352/36/36
f 199/46/46 201/37/37 330/39/39
f 177/57/57 179/333/297 308/40/40
f 31/58/58 285/103/103 287/59/59
f 263/61/61 265/347/309 21/62/62
f 241/64/64 243/100/100 10/65/65
f 217/67/67 219/350/312 348/43/43
f 18/68/68 259/107/107 261/69/69
f 237/71/71 239/104/104 8/72/72
f 277/74/74 279/349/311 28/75/75
f 5/77/77 233/343/305 235/78/78
f 255/80/80 257/346/308 17/81/81
f 273/83/83 275/108/108 26/84/84
f 3/86/86 229/342/304 231/87/87
f 14/89/89 251/345/307 253/90/90
f 269/92/92 271/348/310 24/93/93
f 12/95/95 247/344/306 249/96/96
f 21/62/62 265/347/309 267/98/98
f 243/100/100 245/112/112 11/101/101
f 30/102/102 283/163/163 285/103/103
f 261/69/69 263/61/61 20/63/63
f 239/104/104 241/64/64 9/66/66
f 28/75/75 279/349/311 281/105/105
f 235/78/78 237/71/71 7/73/73
f 17/81/81 257/346/308 259/107/107
f 275/108/108 277/74/74 27/76/76
f 231/87/87 233/343/305 5/77/77
f 15/91/91 253/90/90 255/80/80
f 24/93/93 271/348/310 273/83/83
f 227/109/109 229/342/304 3/86/86
f 249/96/96 251/345/307 14/89/89
f 287/59/59 226/351/313 1/111/111
f 267/98/98 269/92/92 23/94/94
f 245/112/112 247/344/306 12/95/95
f 33/113/113 34/236/233 164/114/114
f 202/116/116 53/239/236 54/117/117
f 180/119/119 42/242/239 43/120/120
f 62/122/122 63/244/241 222/123/123
f 51/125/125 52/161/161 200/126/126
f 40/128/128 41/162/162 178/129/129
f 216/131/131 60/165/165 61/132/132
f 194/134/134 49/167/167 50/135/135
f 38/137/137 39/164/164 174/138/138
f 212/140/140 58/168/168 59/141/141
f 36/143/143 37/166/166 170/144/144
f 190/146/146 47/233/230 48/147/147
f 56/149/149 57/230/227 210/150/150
f 164/114/114 34/236/233 35/152/152
f 45/154/154 46/169/169 188/155/155
f 54/117/117 55/170/170 206/157/157
f 43/120/120 44/173/171 184/158/158
f 222/123/123 63/244/241 64/159/159
f 52/161/161 53/239/236 202/116/116
f 41/162/162 42/242/239 180/119/119
f 29/106/106 281/105/105 283/163/163
f 196/136/136 50/135/135 51/125/125
f 39/164/164 40/128/128 176/130/130
f 214/142/142 59/141/141 60/165/165
f 37/166/166 38/137/137 172/139/139
f 192/148/148 48/147/147 49/167/167
f 210/150/150 57/230/227 58/168/168
f 166/153/153 35/152/152 36/143/143
f 46/169/169 47/233/230 190/146/146
f 55/170/170 56/149/149 208/151/151
f 224/160/160 64/159/159 33/171/113
f 44/173/171 45/154/154 186/156/156
f 337/174/172 339/214/211 276/175/173
f 230/29/29 293/354/314 295/177/175
f 252/179/177 315/221/218 317/180/178
f 162/182/180 163/54/54 292/55/55
f 333/184/181 335/220/217 272/185/182
f 248/187/184 311/222/219 313/188/185
f 266/190/187 329/225/222 331/191/188
f 244/193/190 307/226/223 309/194/191
f 347/196/193 349/359/319 286/197/194
f 325/199/196 327/357/317 264/200/197
f 303/202/199 305/355/315 242/203/200
f 280/205/202 343/358/318 345/206/203
f 299/208/205 301/227/224 238/209/206
f 258/211/208 321/356/316 323/212/209
f 339/214/211 341/228/225 278/215/212
f 232/178/176 295/177/175 297/216/213
f 254/181/179 317/180/178 319/218/215
f 335/220/217 337/174/172 274/176/174
f 250/189/186 313/188/185 315/221/218
f 268/192/189 331/191/188 333/184/181
f 246/195/192 309/194/191 311/222/219
f 286/197/194 349/359/319 351/223/220
f 264/200/197 327/357/317 329/225/222
f 242/203/200 305/355/315 307/226/223
f 61/132/132 62/122/122 220/124/124
f 301/227/224 303/202/199 240/204/201
f 323/212/209 325/199/196 262/201/198
f 341/228/225 343/358/318 280/205/202
f 234/217/214 297/216/213 299/208/205
f 319/218/215 321/356/316 258/211/208
f 89/229/226 90/329/294 58/168/168
f 67/231/228 68/328/293 36/143/143
f 78/232/229 79/252/249 47/233/230
f 87/234/231 88/253/250 56/149/149
f 65/235/232 66/254/251 34/236/233
f 76/237/234 77/255/252 45/154/154
f 96/238/235 65/331/232 33/171/113
f 53/239/236 85/257/254 86/240/237
f 74/241/238 75/256/253 43/120/120
f 62/122/122 94/330/295 95/243/240
f 51/125/125 83/259/256 84/245/242
f 72/246/243 73/258/255 41/162/162
f 92/247/244 93/321/289 61/132/132
f 81/248/245 82/325/291 50/135/135
f 70/249/246 71/324/290 39/164/164
f 58/168/168 90/329/294 91/250/247
f 36/143/143 68/328/293 69/251/248
f 79/252/249 80/327/292 48/147/147
f 88/253/250 89/229/226 57/230/227
f 66/254/251 67/231/228 35/152/152
f 77/255/252 78/232/229 46/169/169
f 54/117/117 86/240/237 87/234/231
f 75/256/253 76/237/234 44/173/171
f 63/244/241 95/243/240 96/238/235
f 52/161/161 84/245/242 85/257/254
f 73/258/255 74/241/238 42/242/239
f 282/207/204 345/206/203 347/196/193
f 50/135/135 82/325/291 83/259/256
f 39/164/164 71/324/290 72/246/243
f 59/141/141 91/250/247 92/247/244
f 37/166/166 69/251/248 70/249/246
f 48/147/147 80/327/292 81/248/245
f 123/260/257 124/305/258 130/261/258
f 101/263/259 102/309/260 132/264/260
f 112/266/261 113/307/262 134/267/262
f 135/269/263 121/313/263 122/270/264
f 99/272/265 100/311/266 138/273/266
f 110/275/267 111/312/268 140/276/268
f 119/278/269 120/361/270 142/279/270
f 97/281/271 98/314/272 144/282/272
f 108/284/273 109/315/274 146/285/274
f 128/287/275 97/362/271 143/288/271
f 117/290/276 118/316/277 149/291/277
f 106/293/278 107/317/279 151/294/279
f 126/296/280 127/318/281 153/297/281
f 115/299/282 116/319/283 155/300/283
f 104/302/284 105/320/285 157/303/285
f 124/305/258 125/326/286 158/306/286
f 113/307/262 114/322/287 159/308/287
f 102/309/260 103/323/288 160/310/288
f 122/270/264 123/260/257 129/262/257
f 100/311/266 101/263/259 131/265/259
f 111/312/268 112/266/261 133/268/261
f 142/279/270 120/361/270 121/313/263
f 98/314/272 99/272/265 137/274/265
f 109/315/274 110/275/267 139/277/267
f 118/316/277 119/278/269 141/280/269
f 107/317/279 108/284/273 145/286/273
f 127/318/281 128/287/275 147/289/275
f 116/319/283 117/290/276 148/292/276
f 105/320/285 106/293/278 150/295/278
f 93/321/289 94/330/295 62/122/122
f 114/322/287 115/299/282 154/301/282
f 103/323/288 104/302/284 156/304/284
f 160/310/288 156/304/284 72/246/243
f 159/308/287 154/301/282 83/259/256
f 125/326/286 126/296/280 152/298/280
f 157/303/285 150/295/278 74/241/238
f 155/300/283 148/292/276 85/257/254
f 153/297/281 147/289/275 96/238/235
f 151/294/279 145/286/273 76/237/234
f 149/291/277 141/280/269 87/234/231
f 146/285/274 139/277/267 78/232/229
f 144/282/272 137/274/265 67/231/228
f 142/279/270 135/269/263 89/229/226
f 140/276/268 133/268/261 80/327/292
f 138/273/266 131/265/259 69/251/248
f 136/271/264 129/262/257 91/250/247
f 132/264/260 160/310/288 71/324/290
f 134/267/262 159/308/287 82/325/291
f 130/261/258 158/306/286 93/321/289
f 156/304/284 157/303/285 73/258/255
f 154/301/282 155/300/283 84/245/242
f 152/298/280 153/297/281 95/243/240
f 150/295/278 151/294/279 75/256/253
f 148/292/276 149/291/277 86/240/237
f 147/289/275 143/288/271 65/331/232
f 145/286/273 146/285/274 77/255/252
f 143/283/271 144/282/272 66/254/251
f 141/280/269 142/279/270 88/253/250
f 139/277/267 140/276/268 79/252/249
f 137/274/265 138/273/266 68/328/293
f 135/269/263 136/271/264 90/329/294
f 133/268/261 134/267/262 81/248/245
f 131/265/259 132/264/260 70/249/246
f 129/262/257 130/261/258 92/247/244
f 163/54/54 162/182/180 161/115/115
f 163/54/54 164/114/114 166/153/153
f 167/20/20 165/332/296 166/153/153
f 169/52/52 167/20/20 168/145/145
f 171/11/11 169/52/52 170/144/144
f 171/11/11 172/139/139 174/138/138
f 173/51/51 174/138/138 176/130/130
f 175/5/5 176/130/130 178/129/129
f 179/333/297 177/57/57 178/129/129
f 181/41/41 179/333/297 180/119/119
f 181/41/41 182/121/121 184/158/158
f 183/31/31 184/158/158 186/156/156
f 185/56/56 186/156/156 188/155/155
f 187/334/298 188/155/155 190/146/146
f 191/335/299 189/23/23 190/146/146
f 191/335/299 192/148/148 194/134/134
f 193/14/14 194/134/134 196/136/136
f 197/336/300 195/1/1 196/136/136
f 197/336/300 198/127/127 200/126/126
f 201/37/37 199/46/46 200/126/126
f 203/337/301 201/37/37 202/116/116
f 205/25/25 203/337/301 204/118/118
f 205/25/25 206/157/157 208/151/151
f 209/338/302 207/53/53 208/151/151
f 211/17/17 209/338/302 210/150/150
f 213/7/7 211/17/17 212/140/140
f 215/49/49 213/7/7 214/142/142
f 215/49/49 216/131/131 218/133/133
f 158/306/286 152/298/280 94/330/295
f 221/44/44 219/350/312 220/124/124
f 221/44/44 222/123/123 224/160/160
f 223/34/34 224/160/160 161/172/115
f 351/223/220 290/360/320 225/340/303
f 227/109/109 226/352/313 225/341/303
f 227/109/109 228/30/30 230/29/29
f 231/87/87 229/342/304 230/29/29
f 233/343/305 231/87/87 232/178/176
f 233/343/305 234/217/214 236/210/207
f 235/78/78 236/210/207 238/209/206
f 237/71/71 238/209/206 240/204/201
f 241/64/64 239/104/104 240/204/201
f 241/64/64 242/203/200 244/193/190
f 243/100/100 244/193/190 246/195/192
f 247/344/306 245/112/112 246/195/192
f 247/344/306 248/187/184 250/189/186
f 249/96/96 250/189/186 252/179/177
f 253/90/90 251/345/307 252/179/177
f 253/90/90 254/181/179 256/219/216
f 255/80/80 256/219/216 258/211/208
f 259/107/107 257/346/308 258/211/208
f 261/69/69 259/107/107 260/213/210
f 261/69/69 262/201/198 264/200/197
f 263/61/61 264/200/197 266/190/187
f 265/347/309 266/190/187 268/192/189
f 267/98/98 268/192/189 270/186/183
f 269/92/92 270/186/183 272/185/182
f 271/348/310 272/185/182 274/176/174
f 275/108/108 273/83/83 274/176/174
f 277/74/74 275/108/108 276/175/173
f 277/74/74 278/215/212 280/205/202
f 279/349/311 280/205/202 282/207/204
f 217/67/67 218/133/133 220/124/124
f 283/163/163 284/198/195 286/197/194
f 287/59/59 285/103/103 286/197/194
f 287/59/59 288/224/221 225/340/303
f 226/352/313 227/109/109 2/110/110
f 291/28/28 290/363/320 289/183/35
f 291/28/28 292/55/55 294/19/19
f 295/177/175 293/354/314 294/19/19
f 295/177/175 296/21/21 298/10/10
f 297/216/213 298/10/10 300/12/12
f 299/208/205 300/12/12 302/4/4
f 301/227/224 302/4/4 304/6/6
f 305/355/315 303/202/199 304/6/6
f 307/226/223 305/355/315 306/48/48
f 309/194/191 307/226/223 308/40/40
f 311/222/219 309/194/191 310/42/42
f 313/188/185 311/222/219 312/33/33
f 313/188/185 314/32/32 316/22/22
f 315/221/218 316/22/22 318/24/24
f 317/180/178 318/24/24 320/13/13
f 321/356/316 319/218/215 320/13/13
f 321/356/316 322/15/15 324/3/3
f 323/212/209 324/3/3 326/2/2
f 325/199/196 326/2/2 328/47/47
f 329/225/222 327/357/317 328/47/47
f 329/225/222 330/39/39 332/38/38
f 333/184/181 331/191/188 332/38/38
f 333/184/181 334/27/27 336/26/26
f 335/220/217 336/26/26 338/16/16
f 339/214/211 337/174/172 338/16/16
f 339/214/211 340/18/18 342/9/9
f 341/228/225 342/9/9 344/8/8
f 343/358/318 344/8/8 346/50/50
f 283/163/163 281/105/105 282/207/204
f 349/359/319 347/196/193 348/43/43
f 351/223/220 349/359/319 350/45/45
f 290/360/320 351/223/220 352/36/36
f 225/341/303 290/363/320 291/28/28
f 347/196/193 345/206/203 346/50/50
