# Blender 3.6.23
# www.blender.org
o sol.021
v -0.768698 2.863255 -3.111368
v -0.733919 2.895051 -3.073558
v -0.743638 2.891539 -3.084125
v -0.760332 2.877435 -3.102273
v -0.773461 2.861433 -3.116547
v -0.781549 2.864388 -3.125339
v -0.783042 2.859746 -3.126962
v -2.443109 2.814752 4.792274
v -2.435099 2.818252 4.792274
v -2.362295 2.908515 4.792274
v -2.418968 2.864388 4.792274
v -2.377754 2.891540 4.792274
v -2.395901 2.877435 4.792274
v -2.420591 2.859746 4.792274
v 3.561460 2.814752 4.792536
v 3.553450 2.818252 4.792536
v 3.480646 2.908515 4.792536
v 3.537319 2.864388 4.792536
v 3.514253 2.877435 4.792536
v 3.496105 2.891540 4.792536
v 3.538942 2.859746 4.792536
v -0.729419 2.908515 -3.068666
v -0.731278 2.898307 -3.070688
v -2.410176 2.861434 4.792274
v -2.404997 2.863254 4.792274
v 3.523348 2.863255 4.792536
v 3.528527 2.861434 4.792536
v -0.793564 2.827029 -3.138402
v -0.796387 2.818252 -3.141471
v -2.367187 2.895052 4.792274
v -2.364316 2.898307 4.792274
v 3.482667 2.898307 4.792536
v 3.485538 2.895052 4.792536
v -0.803755 2.814752 -3.149480
v -2.432030 2.827029 4.792274
v 3.550382 2.827029 4.792536
v -0.786087 2.814752 -3.152893
v -0.789499 2.814752 -3.149480
v -0.781490 2.818252 -3.141471
v -0.778077 2.818252 -3.144883
v -0.708686 2.908515 -3.068666
v -0.705273 2.908515 -3.072079
v -0.765358 2.864388 -3.125339
v -0.761946 2.864388 -3.128752
v -0.724144 2.891539 -3.084125
v -0.720731 2.891539 -3.087537
v -0.738879 2.877435 -3.105685
v -0.742292 2.877435 -3.102273
v -0.763569 2.859746 -3.130375
v -0.766981 2.859746 -3.126962
v -0.753154 2.861433 -3.119959
v -0.756566 2.861433 -3.116547
v -0.751387 2.863255 -3.111368
v -0.747974 2.863255 -3.114780
v -0.710165 2.895051 -3.076971
v -0.713577 2.895051 -3.073558
v -0.710707 2.898307 -3.070688
v -0.707294 2.898307 -3.074100
v -0.775008 2.827029 -3.141814
v -0.778421 2.827029 -3.138402
v -0.783185 2.814752 -3.277914
v -0.786087 2.814752 -3.275012
v -0.778077 2.818252 -3.267002
v -0.775175 2.818252 -3.269904
v -0.705273 2.908515 -3.194198
v -0.702371 2.908515 -3.197100
v -0.761946 2.864388 -3.250871
v -0.759044 2.864388 -3.253773
v -0.720731 2.891539 -3.209657
v -0.717830 2.891539 -3.212559
v -0.735978 2.877435 -3.230707
v -0.738879 2.877435 -3.227804
v -0.760667 2.859746 -3.255395
v -0.763569 2.859746 -3.252494
v -0.750252 2.861433 -3.244981
v -0.753154 2.861433 -3.242079
v -0.747974 2.863255 -3.236899
v -0.745072 2.863255 -3.239802
v -0.707263 2.895051 -3.201992
v -0.710165 2.895051 -3.199090
v -0.707294 2.898307 -3.196219
v -0.704392 2.898307 -3.199121
v -0.772106 2.827029 -3.266835
v -0.775008 2.827029 -3.263933
v -1.145159 2.814752 -3.149480
v -1.148431 2.814752 -3.152751
v -1.156440 2.818252 -3.144742
v -1.153168 2.818252 -3.141471
v -1.229244 2.908515 -3.071938
v -1.225972 2.908515 -3.068666
v -1.172572 2.864388 -3.128610
v -1.169300 2.864388 -3.125339
v -1.213786 2.891539 -3.087397
v -1.210514 2.891539 -3.084125
v -1.192366 2.877435 -3.102273
v -1.195638 2.877435 -3.105545
v -1.167677 2.859746 -3.126962
v -1.170949 2.859746 -3.130233
v -1.178092 2.861433 -3.116547
v -1.181364 2.861433 -3.119819
v -1.186543 2.863255 -3.114639
v -1.183271 2.863255 -3.111367
v -1.221081 2.895051 -3.073558
v -1.224352 2.895051 -3.076830
v -1.227223 2.898307 -3.073959
v -1.223951 2.898307 -3.070688
v -1.156237 2.827029 -3.138402
v -1.159509 2.827029 -3.141673
v -1.148431 2.814752 -3.571706
v -1.150334 2.814752 -3.573610
v -1.158343 2.818252 -3.565599
v -1.156440 2.818251 -3.563696
v -1.231147 2.908515 -3.492795
v -1.229244 2.908515 -3.490891
v -1.174475 2.864387 -3.549468
v -1.172572 2.864387 -3.547565
v -1.215689 2.891539 -3.508255
v -1.213786 2.891539 -3.506351
v -1.195638 2.877434 -3.524498
v -1.197541 2.877434 -3.526402
v -1.170949 2.859746 -3.549188
v -1.172852 2.859746 -3.551092
v -1.181364 2.861433 -3.538773
v -1.183267 2.861433 -3.540676
v -1.188446 2.863255 -3.535497
v -1.186543 2.863255 -3.533594
v -1.224352 2.895051 -3.495784
v -1.226256 2.895051 -3.497688
v -1.229126 2.898307 -3.494817
v -1.227223 2.898307 -3.492913
v -1.159509 2.827029 -3.560627
v -1.161412 2.827029 -3.562531
v -2.436923 2.814752 -3.573610
v -2.443109 2.814752 -3.567423
v -2.435099 2.818251 -3.559412
v -2.428912 2.818251 -3.565599
v -2.362295 2.908515 -3.486608
v -2.356108 2.908515 -3.492795
v -2.418968 2.864387 -3.543281
v -2.412781 2.864387 -3.549468
v -2.377754 2.891539 -3.502068
v -2.371567 2.891539 -3.508255
v -2.389714 2.877434 -3.526402
v -2.395901 2.877434 -3.520215
v -2.414404 2.859746 -3.551092
v -2.420591 2.859746 -3.544904
v -2.403989 2.861433 -3.540676
v -2.410176 2.861433 -3.534489
v -2.404997 2.863255 -3.529310
v -2.398810 2.863255 -3.535497
v -2.361000 2.895051 -3.497688
v -2.367187 2.895051 -3.491501
v -2.364316 2.898307 -3.488629
v -2.358129 2.898307 -3.494816
v -2.425843 2.827029 -3.562531
v -2.432030 2.827029 -3.556344
v -0.786087 2.814752 -3.167600
v -0.778077 2.818252 -3.159590
v -0.775008 2.827029 -3.156521
v -0.707294 2.898307 -3.088808
v -0.705273 2.908515 -3.086786
v -0.761946 2.864388 -3.143459
v -0.753154 2.861433 -3.134667
v -0.763569 2.859746 -3.145082
v -0.720731 2.891539 -3.102245
v -0.710165 2.895051 -3.091678
v -0.738879 2.877435 -3.120393
v -0.747974 2.863255 -3.129488
v -0.775008 2.827029 -3.247336
v -0.778077 2.818252 -3.250405
v -0.705273 2.908515 -3.177601
v -0.786087 2.814752 -3.258414
v -0.707294 2.898307 -3.179622
v -0.761946 2.864388 -3.234273
v -0.763569 2.859746 -3.235896
v -0.720731 2.891539 -3.193060
v -0.738879 2.877435 -3.211207
v -0.747974 2.863255 -3.220303
v -0.710165 2.895051 -3.182493
v -0.753154 2.861433 -3.225481
v -0.772754 2.814752 -3.277914
v -0.764783 2.818252 -3.269904
v -0.761728 2.827029 -3.266835
v -0.694340 2.898307 -3.199121
v -0.692328 2.908515 -3.197100
v -0.739979 2.861433 -3.244981
v -0.748729 2.864388 -3.253773
v -0.750344 2.859746 -3.255395
v -0.707712 2.891539 -3.212559
v -0.725773 2.877435 -3.230707
v -0.697196 2.895051 -3.201992
v -0.734824 2.863255 -3.239802
v 3.526249 2.814752 -3.277914
v 3.448733 2.898307 -3.199121
v 3.502499 2.864388 -3.253773
v 3.504096 2.859746 -3.255395
v 3.479806 2.877435 -3.230707
v 3.488754 2.863255 -3.239801
v 3.518369 2.818252 -3.269904
v 3.515349 2.827029 -3.266835
v 3.446744 2.908515 -3.197100
v 3.493850 2.861433 -3.244981
v 3.461953 2.891539 -3.212559
v 3.451557 2.895051 -3.201992
v 3.537319 2.864388 -3.227671
v 3.538942 2.859746 -3.229289
v 3.514253 2.877435 -3.204679
v 3.496105 2.891539 -3.186590
v 3.553450 2.818252 -3.243750
v 3.480646 2.908515 -3.171182
v 3.561460 2.814752 -3.251733
v 3.528527 2.861433 -3.218907
v 3.523348 2.863255 -3.213744
v 3.482667 2.898307 -3.173196
v 3.485538 2.895051 -3.176058
v 3.550382 2.827029 -3.240691
v 3.561460 2.814752 -3.272830
v 3.556377 2.814752 -3.277914
v 3.548367 2.818252 -3.269904
v 3.553450 2.818252 -3.264821
v 3.475563 2.908515 -3.197100
v 3.480646 2.908515 -3.192017
v 3.532236 2.864388 -3.253773
v 3.537319 2.864388 -3.248689
v 3.514253 2.877435 -3.225623
v 3.509170 2.877435 -3.230707
v 3.491023 2.891539 -3.212559
v 3.496105 2.891539 -3.207475
v 3.538942 2.859746 -3.250312
v 3.533859 2.859746 -3.255395
v 3.518265 2.863255 -3.239801
v 3.523348 2.863255 -3.234717
v 3.528527 2.861433 -3.239897
v 3.523444 2.861433 -3.244981
v 3.477585 2.898307 -3.199121
v 3.482667 2.898307 -3.194038
v 3.485538 2.895051 -3.196909
v 3.480456 2.895051 -3.201992
v 3.545298 2.827029 -3.266835
v 3.550382 2.827029 -3.261752
v -2.410264 2.814752 -3.573610
v -2.402585 2.818251 -3.565599
v -2.399643 2.827029 -3.562531
v -2.334735 2.898307 -3.494816
v -2.332798 2.908515 -3.492795
v -2.388678 2.859746 -3.551092
v -2.387122 2.864387 -3.549468
v -2.378695 2.861433 -3.540676
v -2.365011 2.877434 -3.526402
v -2.347616 2.891539 -3.508255
v -2.337487 2.895051 -3.497688
v -2.373730 2.863255 -3.535497
v -2.443109 2.814752 -3.540329
v -2.435099 2.818251 -3.532345
v -2.432030 2.827029 -3.529285
v -2.364316 2.898307 -3.461790
v -2.362295 2.908515 -3.459775
v -2.420591 2.859746 -3.517883
v -2.418968 2.864387 -3.516265
v -2.410176 2.861433 -3.507502
v -2.395901 2.877435 -3.493273
v -2.377754 2.891539 -3.475185
v -2.367187 2.895051 -3.464653
v -2.404997 2.863255 -3.502339
vn 0.4004 -0.9164 -0.0000
vn 0.3185 -0.9479 -0.0000
vn -0.3154 -0.9490 -0.0000
vn -0.3185 -0.9479 -0.0000
vn -0.8417 -0.5399 -0.0000
vn 0.9810 -0.1942 -0.0000
vn 0.9440 -0.3301 -0.0000
vn -0.0000 -0.3299 0.9440
vn 0.6137 -0.7896 -0.0000
vn -0.3317 -0.9434 -0.0000
vn 0.9440 -0.3300 -0.0000
vn -0.0000 -0.1942 0.9810
vn -0.0000 -0.9489 0.3155
vn -0.9440 -0.3301 -0.0000
vn -0.0000 -0.5399 0.8417
vn -0.0000 -0.7896 0.6136
vn -0.0000 -0.3301 0.9440
vn -0.9440 -0.3300 -0.0000
vn -0.0000 -0.9479 -0.3185
vn -0.9810 -0.1942 -0.0000
vn -0.6137 -0.7896 -0.0000
vn -0.0000 -0.9490 0.3154
vn -0.0000 -0.9164 0.4003
vn 0.7500 -0.6614 -0.0000
vn 0.8417 -0.5399 -0.0000
vn -0.0000 -0.7895 0.6137
vn -0.4004 -0.9164 -0.0000
vn 0.3318 -0.9434 -0.0000
vn -0.0000 -0.9479 -0.3186
vn 0.3154 -0.9490 -0.0000
vn 0.3317 -0.9434 -0.0000
vn -0.9810 -0.1943 -0.0000
vn -0.4003 -0.9164 -0.0000
vn -0.0000 -0.9433 0.3318
vn -0.0000 -0.9434 0.3317
vn -0.3318 -0.9434 -0.0000
vn -0.0000 -0.7896 0.6137
vn -0.0000 -0.6614 0.7500
vn -0.7501 -0.6614 -0.0000
vn -0.0000 -0.6615 0.7499
vn 0.3154 -0.9489 -0.0000
vn -0.0000 -0.3300 0.9440
vn 0.2087 -0.9554 0.2088
vn 0.6339 -0.4432 0.6339
vn 0.3406 -0.8764 0.3406
vn 0.6339 -0.4433 0.6338
vn 0.1706 -0.9705 0.1706
vn 0.5237 -0.6718 0.5238
vn -0.1635 -0.9729 -0.1635
vn 0.4423 -0.7801 0.4424
vn 0.6809 -0.2696 0.6810
vn 0.1618 -0.9735 0.1618
vn -0.0000 -0.3301 0.9439
vn 0.6338 -0.4432 0.6339
vn 0.3406 -0.8764 0.3405
vn 0.6339 -0.4432 0.6338
vn 0.1706 -0.9704 0.1707
vn 0.5238 -0.6719 0.5237
vn 0.4423 -0.7802 0.4423
vn 0.6810 -0.2696 0.6809
vn -0.2087 -0.9554 0.2087
vn -0.6338 -0.4432 0.6339
vn -0.3406 -0.8764 0.3406
vn -0.6339 -0.4432 0.6338
vn -0.1706 -0.9704 0.1708
vn -0.5237 -0.6718 0.5238
vn 0.1635 -0.9729 -0.1635
vn -0.4424 -0.7802 0.4424
vn -0.6809 -0.2696 0.6809
vn -0.1618 -0.9735 0.1619
vn -0.6339 -0.4433 0.6338
vn -0.2087 -0.9554 0.2088
vn -0.6339 -0.4434 0.6338
vn -0.3406 -0.8763 0.3406
vn -0.1707 -0.9705 0.1705
vn -0.5237 -0.6719 0.5237
vn 0.1635 -0.9729 -0.1636
vn -0.4424 -0.7802 0.4423
vn -0.6810 -0.2696 0.6808
vn -0.1618 -0.9735 0.1618
vn -0.6339 -0.4432 0.6339
vn 0.2087 -0.9555 0.2087
vn 0.1707 -0.9704 0.1707
vn 0.5237 -0.6719 0.5237
vn -0.1635 -0.9729 -0.1634
vn 0.6809 -0.2696 0.6809
vn 0.4003 -0.9164 -0.0000
vn -0.0000 -0.6614 0.7501
vn -0.0000 -0.9434 0.3318
vn -0.7500 -0.6615 -0.0000
vn -0.0000 -0.5398 0.8418
vn -0.7500 -0.6614 -0.0000
vn -0.0000 -0.9434 0.3316
vn -0.9809 -0.1943 -0.0000
vn -0.0000 -0.5399 0.8418
vn -0.3406 -0.8764 0.3405
vn -0.1706 -0.9705 0.1706
vn -0.5238 -0.6718 0.5237
vn -0.4423 -0.7802 0.4423
vn -0.6809 -0.2697 0.6809
vn -0.6338 -0.4433 0.6339
vn -0.0000 -0.9164 0.4004
vn -0.0000 -0.3302 0.9439
vn -0.0000 -0.6615 0.7500
vn 0.9439 -0.3301 -0.0000
vn -0.0000 -0.9489 0.3154
vn -0.9439 -0.3303 -0.0000
vn -0.0000 -0.6616 0.7499
vn 0.5237 -0.6719 0.5238
vn -0.1634 -0.9729 -0.1635
vn 0.4424 -0.7802 0.4423
vn 0.6338 -0.4433 0.6339
vn 0.2087 -0.9554 0.2087
vn 0.3406 -0.8763 0.3406
vn 0.1706 -0.9705 0.1705
vn 0.6338 -0.4433 0.6338
vn 0.1634 -0.9729 -0.1634
vn -0.2087 -0.9555 0.2086
vn -0.3407 -0.8764 0.3405
vn -0.1707 -0.9704 0.1706
vn 0.1634 -0.9729 -0.1635
vn -0.4424 -0.7802 0.4422
vn -0.1618 -0.9735 0.1616
vn -0.6340 -0.4432 0.6338
vn 0.6338 -0.4434 0.6338
vn 0.1706 -0.9704 0.1706
vn 0.1618 -0.9735 0.1617
vn 0.6136 -0.7896 -0.0000
vn -0.9439 -0.3302 -0.0000
vn -0.0000 -0.6613 0.7501
vn -0.7499 -0.6615 -0.0000
vn -0.2087 -0.9555 0.2087
vn 0.1635 -0.9729 -0.1634
vn -0.4424 -0.7801 0.4423
vn -0.6810 -0.2697 0.6809
vn -0.0000 -0.9163 0.4004
vt 0.068319 0.076364
vt 0.067491 0.075348
vt 0.069241 0.075295
vt 0.953329 0.026954
vt 0.000484 0.027948
vt 0.000484 0.026907
vt 0.948230 0.020235
vt 0.000484 0.021562
vt 0.000484 0.020174
vt 0.065564 0.083378
vt 0.064825 0.082293
vt 0.066579 0.082240
vt 0.951635 0.024294
vt 0.000484 0.026254
vt 0.000484 0.024284
vt 0.950710 0.020235
vt 0.949483 0.021560
vt 0.060113 0.092056
vt 0.058555 0.090859
vt 0.060315 0.090804
vt 0.066754 0.081648
vt 0.066238 0.077535
vt 0.067988 0.077481
vt 0.992840 0.006846
vt 0.000483 0.002786
vt 0.994201 0.002730
vt 0.992662 0.007437
vt 0.000484 0.006940
vt 0.511205 0.042201
vt 0.514494 0.042723
vt 0.511025 0.042788
vt 0.061863 0.088906
vt 0.062188 0.086150
vt 0.063943 0.086096
vt 0.955209 0.026299
vt 0.955826 0.026953
vt 0.065002 0.081702
vt 0.987778 0.013971
vt 0.000484 0.011321
vt 0.989920 0.011219
vt 0.011082 0.051116
vt 0.010122 0.052352
vt 0.009879 0.051111
vt 0.506188 0.049331
vt 0.508426 0.050678
vt 0.504943 0.050657
vt 0.059665 0.087979
vt 0.000735 0.086288
vt 0.059447 0.086751
vt 0.009257 0.103309
vt 0.057829 0.099523
vt 0.059163 0.103661
vt 0.056030 0.082142
vt 0.005639 0.079734
vt 0.055057 0.080129
vt 0.057996 0.084894
vt 0.004539 0.081734
vt 0.053357 0.077751
vt 0.008914 0.073284
vt 0.052127 0.073621
vt 0.958425 0.032764
vt 0.956284 0.033870
vt 0.955920 0.032764
vt 0.055272 0.077749
vt 0.053535 0.078338
vt 0.054499 0.079458
vt 0.007319 0.077988
vt 0.001317 0.090174
vt 0.050953 0.089297
vt 0.051185 0.090538
vt 0.004926 0.055807
vt 0.003168 0.059936
vt 0.001805 0.055807
vt 0.006084 0.096787
vt 0.054916 0.095149
vt 0.055985 0.097164
vt 0.004996 0.094787
vt 0.052773 0.092395
vt 0.059139 0.086229
vt 0.002353 0.084456
vt 0.051809 0.072517
vt 0.010251 0.071144
vt 0.050947 0.071462
vt 0.986181 0.015784
vt 0.000484 0.015367
vt 0.986515 0.015300
vt 0.007681 0.098589
vt 0.056598 0.097823
vt 0.057639 0.098936
vt 0.012659 0.068869
vt 0.010113 0.070108
vt 0.009872 0.068869
vt 0.000484 0.009300
vt 0.990998 0.009208
vt 0.008013 0.062279
vt 0.006109 0.064286
vt 0.005026 0.062280
vt 0.009052 0.064286
vt 0.008271 0.067024
vt 0.002854 0.092028
vt 0.051523 0.091059
vt 0.010556 0.105459
vt 0.059522 0.104773
vt 0.060470 0.105821
vt 0.991628 0.008547
vt 0.994272 0.009229
vt 0.006418 0.060522
vt 0.004409 0.061626
vt 0.003361 0.060521
vt 0.000484 0.014048
vt 0.000484 0.007534
vt 0.011124 0.067024
vt 0.009530 0.068351
vt 0.003661 0.053657
vt 0.001438 0.054699
vt 0.000483 0.053657
vt 0.954371 0.028057
vt 0.000483 0.028606
vt 0.076388 0.083042
vt 0.077787 0.083660
vt 0.075791 0.083712
vt 0.947650 0.018481
vt 0.000484 0.019607
vt 0.000484 0.018384
vt 0.063211 0.084106
vt 0.064966 0.084052
vt 0.000483 0.033864
vt 0.000483 0.032721
vt 0.951967 0.021559
vt 0.000483 0.034907
vt 0.058883 0.090329
vt 0.060642 0.090275
vt 0.005032 0.044518
vt 0.005639 0.043864
vt 0.006253 0.044518
vt 0.056521 0.079509
vt 0.006665 0.097452
vt 0.007422 0.061626
vt 0.149210 0.062280
vt 0.952712 0.026298
vt 0.508305 0.046586
vt 0.509644 0.049310
vt 0.001082 0.085773
vt 0.001625 0.090676
vt 0.012331 0.068351
vt 0.508078 0.051245
vt 0.504603 0.051164
vt 0.060106 0.088960
vt 0.954564 0.028641
vt 0.004576 0.054698
vt 0.009640 0.104393
vt 0.009288 0.072178
vt 0.007518 0.077404
vt 0.007916 0.099174
vt 0.066569 0.076417
vt 0.052657 0.071500
vt 0.054017 0.072292
vt 0.053536 0.072563
vt 0.055786 0.077545
vt 0.055510 0.078343
vt 0.058660 0.081828
vt 0.060322 0.084925
vt 0.058179 0.082147
vt 0.053912 0.073626
vt 0.054458 0.073428
vt 0.057092 0.080164
vt 0.056958 0.079147
vt 0.057547 0.079849
vt 0.055997 0.078037
vt 0.061816 0.086753
vt 0.061980 0.085950
vt 0.062322 0.086536
vt 0.062666 0.087785
vt 0.062097 0.087941
vt 0.061517 0.086273
vt 0.060769 0.084560
vt 0.006233 0.059935
vt 0.082001 0.074841
vt 0.081561 0.076193
vt 0.081130 0.075968
vt 0.079979 0.081425
vt 0.079315 0.081802
vt 0.079514 0.081252
vt 0.075046 0.088786
vt 0.076734 0.085695
vt 0.077144 0.085953
vt 0.081223 0.077242
vt 0.080768 0.077097
vt 0.078365 0.082948
vt 0.078204 0.083931
vt 0.078748 0.083249
vt 0.073474 0.089868
vt 0.073596 0.090595
vt 0.073152 0.090425
vt 0.073861 0.090137
vt 0.073356 0.091758
vt 0.072906 0.091665
vt 0.958790 0.033870
vt 0.957234 0.034910
vt 0.009173 0.104660
vt 0.007222 0.098882
vt 0.007426 0.099366
vt 0.004534 0.095094
vt 0.008728 0.103499
vt 0.006249 0.097802
vt 0.005644 0.097093
vt 0.001172 0.090995
vt 0.000816 0.090385
vt 0.000483 0.089090
vt 0.001050 0.088946
vt 0.002425 0.092384
vt 0.985923 0.017013
vt 0.000483 0.015848
vt 0.152809 0.054709
vt 0.153979 0.053864
vt 0.153079 0.054867
vt 0.151372 0.060056
vt 0.150853 0.060506
vt 0.151064 0.059939
vt 0.148384 0.064458
vt 0.145959 0.067020
vt 0.148119 0.064282
vt 0.152724 0.055911
vt 0.152428 0.055810
vt 0.150056 0.061830
vt 0.149471 0.062467
vt 0.149818 0.061616
vt 0.151117 0.060673
vt 0.144373 0.068877
vt 0.144951 0.068538
vt 0.144659 0.068993
vt 0.144120 0.070110
vt 0.144419 0.070171
vt 0.144707 0.068350
vt 0.146200 0.067228
vt 0.000483 0.001701
vt 0.994569 0.001630
vt 0.998709 0.000483
vt 0.998783 0.002119
vt 0.997858 0.001625
vt 0.996959 0.007251
vt 0.995796 0.007352
vt 0.996012 0.006842
vt 0.993956 0.011815
vt 0.990975 0.013938
vt 0.993110 0.011223
vt 0.997424 0.002756
vt 0.998381 0.003127
vt 0.994859 0.008499
vt 0.995173 0.009837
vt 0.995712 0.009121
vt 0.989766 0.015322
vt 0.990327 0.016344
vt 0.989411 0.015897
vt 0.989055 0.017099
vt 0.989941 0.017417
vt 0.991768 0.014583
vt 0.990602 0.015916
vt 0.000483 0.000672
vt 0.995525 0.000596
vt 0.006262 0.079085
vt 0.078791 0.077151
vt 0.079124 0.076034
vt 0.071481 0.089934
vt 0.072698 0.088561
vt 0.071152 0.090459
vt 0.074766 0.085751
vt 0.063809 0.083432
vt 0.077388 0.081899
vt 0.077555 0.081310
vt 0.070942 0.091704
vt 0.080044 0.074966
vt 0.074669 0.088484
vt 0.001731 0.035891
vt 0.001442 0.036936
vt 0.000483 0.035891
vt 0.010735 0.050588
vt 0.009535 0.050591
vt 0.004405 0.042177
vt 0.003369 0.042761
vt 0.003176 0.042177
vt 0.509989 0.043910
vt 0.509363 0.044579
vt 0.008276 0.049263
vt 0.007331 0.046525
vt 0.009482 0.049264
vt 0.002683 0.036935
vt 0.001810 0.038047
vt 0.006115 0.046525
vt 0.011318 0.052350
vt 0.003049 0.038047
vt 0.004416 0.043864
vt 0.004596 0.042760
vt 0.956872 0.028056
vt 0.950369 0.019719
vt 0.947890 0.019719
vt 0.513852 0.035956
vt 0.512910 0.036989
vt 0.512548 0.038089
vt 0.514712 0.042203
vt 0.512942 0.044585
vt 0.513537 0.043862
vt 0.516107 0.038110
vt 0.950128 0.018481
vt 0.954127 0.024294
vt 0.507750 0.052458
vt 0.511791 0.046589
vt 0.957065 0.028641
vt 0.516532 0.036991
vt 0.518050 0.036343
vt 0.517280 0.037403
vt 0.516889 0.038407
vt 0.512489 0.047073
vt 0.510292 0.049846
vt 0.515191 0.043158
vt 0.514226 0.044387
vt 0.513678 0.045087
vt 0.509105 0.051164
vt 0.508493 0.052690
vt 0.508835 0.051594
vt 0.515497 0.042539
vt 0.153751 0.053660
vt 0.000484 0.008616
vt 0.058352 0.092114
vt 0.000483 0.087527
vt 0.012890 0.070108
vt 0.053126 0.071138
vt 0.082374 0.075121
vt 0.079719 0.082041
vt 0.959743 0.034910
vt 0.010102 0.105821
vt 0.000483 0.017075
vt 0.999517 0.001025
vt 0.996647 0.007872
vt 0.504354 0.052396
vt 0.517407 0.035876
s 0
f 158/1/1 37/2/1 157/3/1
f 212/4/2 18/5/2 27/6/2
f 215/7/3 20/8/3 33/9/3
f 163/10/4 44/11/4 162/12/4
f 207/13/5 26/14/5 19/15/5
f 237/16/3 208/17/3 215/7/3
f 161/18/6 58/19/6 160/20/6
f 164/21/7 59/22/7 159/23/7
f 258/24/7 35/25/7 255/26/7
f 259/27/7 14/28/7 258/24/7
f 196/29/8 223/30/8 195/31/8
f 165/32/9 47/33/9 167/34/9
f 212/4/10 232/35/10 233/36/10
f 162/12/11 49/37/11 164/21/11
f 262/38/9 13/39/9 261/40/9
f 184/41/12 66/42/12 82/43/12
f 203/44/13 238/45/13 204/46/13
f 22/47/12 106/48/12 23/49/12
f 108/50/14 121/51/14 131/52/14
f 4/53/15 102/54/15 1/55/15
f 3/56/16 95/57/16 4/53/16
f 7/58/17 107/59/17 28/60/17
f 240/61/18 209/62/18 216/63/18
f 50/64/8 6/65/8 7/58/8
f 5/66/19 92/67/19 6/65/19
f 105/68/20 114/69/20 130/70/20
f 243/71/17 145/72/17 155/73/17
f 101/74/5 119/75/5 126/76/5
f 96/77/21 118/78/21 119/75/21
f 2/79/22 94/80/22 3/56/22
f 29/81/23 85/82/23 34/83/23
f 256/84/24 30/85/24 263/86/24
f 91/87/2 123/88/2 116/89/2
f 244/90/12 138/91/12 154/92/12
f 261/40/25 25/93/25 264/94/25
f 252/95/15 143/96/15 150/97/15
f 249/98/26 142/99/26 143/96/26
f 93/100/3 127/101/3 118/78/3
f 86/102/27 112/103/27 109/104/27
f 260/105/28 149/106/28 264/94/28
f 247/107/29 147/108/29 140/109/29
f 263/86/30 12/110/30 262/38/30
f 260/105/4 11/111/4 259/27/4
f 250/112/22 151/113/22 142/99/22
f 241/114/23 136/115/23 133/116/23
f 205/117/14 21/118/14 18/5/14
f 180/119/31 77/120/31 178/121/31
f 210/122/32 32/123/32 17/124/32
f 208/17/21 19/15/21 20/8/21
f 167/34/25 54/125/25 168/126/25
f 216/63/18 16/127/18 36/128/18
f 228/129/21 207/13/21 208/17/21
f 209/62/33 15/130/33 16/127/33
f 160/20/24 55/131/24 166/132/24
f 78/133/34 186/134/34 192/135/34
f 52/136/35 1/55/35 5/66/35
f 100/137/36 126/76/36 123/88/36
f 248/138/35 125/139/35 252/95/35
f 27/6/10 213/140/10 212/4/10
f 197/141/37 227/142/37 203/44/37
f 23/49/38 103/143/38 2/79/38
f 130/70/39 104/144/39 105/68/39
f 154/92/40 251/145/40 244/90/40
f 204/46/38 235/146/38 194/147/38
f 166/132/41 46/148/41 165/32/41
f 206/149/18 36/128/18 21/118/18
f 242/150/42 155/73/42 136/115/42
f 87/151/14 131/52/14 112/103/14
f 28/60/17 88/152/17 29/81/17
f 6/65/8 97/153/8 7/58/8
f 98/154/14 116/89/14 121/51/14
f 159/23/7 40/155/7 158/1/7
f 38/156/43 40/157/43 39/158/43
f 49/159/44 43/160/44 50/64/44
f 47/161/45 45/162/45 48/163/45
f 49/159/46 60/164/46 59/165/46
f 53/166/47 51/167/47 54/168/47
f 48/163/48 54/168/48 47/161/48
f 52/136/49 44/169/49 51/167/49
f 57/170/50 55/171/50 58/172/50
f 57/170/51 42/173/51 41/174/51
f 56/175/52 46/176/52 55/171/52
f 40/157/44 60/164/44 39/158/44
f 246/177/53 140/109/53 145/72/53
f 62/178/43 64/179/43 63/180/43
f 73/181/54 67/182/54 74/183/54
f 70/184/55 72/185/55 71/186/55
f 83/187/56 74/183/56 84/188/56
f 76/189/57 78/190/57 77/120/57
f 67/182/49 75/191/49 76/189/49
f 77/120/58 71/186/58 72/185/58
f 80/192/59 82/193/59 81/194/59
f 80/192/52 70/184/52 79/195/52
f 81/194/60 66/196/60 65/197/60
f 83/187/46 63/180/46 64/179/46
f 220/198/33 211/199/33 209/62/33
f 86/102/61 88/200/61 87/151/61
f 92/201/62 98/154/62 97/202/62
f 95/203/63 93/100/63 96/77/63
f 97/202/64 108/50/64 107/204/64
f 101/74/65 99/205/65 102/206/65
f 101/74/66 95/203/66 96/77/66
f 91/87/67 99/205/67 100/137/67
f 105/68/68 103/207/68 106/208/68
f 105/68/69 90/209/69 89/210/69
f 104/144/70 94/211/70 103/207/70
f 107/204/71 87/151/71 88/200/71
f 257/212/6 31/213/6 256/84/6
f 111/214/72 109/215/72 112/216/72
f 121/217/73 115/218/73 122/219/73
f 119/220/74 117/221/74 120/222/74
f 131/223/64 122/219/64 132/224/64
f 125/139/75 123/225/75 126/226/75
f 120/222/76 126/226/76 119/220/76
f 124/227/77 116/228/77 123/225/77
f 129/229/78 127/230/78 130/231/78
f 113/232/79 130/231/79 114/233/79
f 128/234/80 118/235/80 127/230/80
f 112/216/81 132/224/81 111/214/81
f 255/26/11 9/236/11 254/237/11
f 134/238/82 136/239/82 135/240/82
f 145/241/56 139/242/56 146/243/56
f 143/244/45 141/245/45 144/246/45
f 145/241/56 156/247/56 155/248/56
f 148/249/83 150/250/83 149/106/83
f 144/246/84 150/250/84 143/244/84
f 139/242/85 147/251/85 148/249/85
f 152/252/59 154/253/59 153/254/59
f 137/255/86 154/253/86 138/256/86
f 152/252/52 142/257/52 151/258/52
f 155/248/44 135/240/44 136/239/44
f 254/237/87 8/259/87 253/260/87
f 39/158/17 28/60/17 29/81/17
f 23/49/88 56/175/88 57/170/88
f 99/261/35 1/55/35 102/54/35
f 38/156/23 29/81/23 34/83/23
f 45/162/22 2/79/22 3/56/22
f 43/160/19 5/66/19 6/65/19
f 60/164/17 7/58/17 28/60/17
f 48/163/37 3/56/37 4/53/37
f 53/166/15 4/53/15 1/55/15
f 57/170/12 22/47/12 23/49/12
f 169/262/7 158/1/7 170/263/7
f 179/264/30 165/32/30 176/265/30
f 173/266/24 166/132/24 179/264/24
f 177/267/25 168/126/25 178/121/25
f 51/268/31 168/126/31 54/125/31
f 174/269/11 164/21/11 175/270/11
f 176/265/9 167/34/9 177/267/9
f 175/270/7 159/23/7 169/262/7
f 171/271/6 160/20/6 173/266/6
f 180/119/4 162/12/4 174/269/4
f 170/263/1 157/3/1 172/272/1
f 63/180/1 172/272/1 62/178/1
f 76/189/4 174/269/4 67/182/4
f 65/197/6 173/266/6 81/194/6
f 74/183/7 169/262/7 84/188/7
f 69/273/9 177/267/9 72/185/9
f 67/182/11 175/270/11 74/183/11
f 72/185/25 178/121/25 77/120/25
f 81/194/24 179/264/24 80/192/24
f 80/192/41 176/265/41 69/273/41
f 84/188/7 170/263/7 63/180/7
f 163/10/31 178/121/31 168/126/31
f 181/274/23 64/275/23 61/276/23
f 191/277/38 82/43/38 79/278/38
f 188/279/8 68/280/8 73/281/8
f 192/135/89 202/282/89 198/283/89
f 70/284/37 190/285/37 189/286/37
f 182/287/17 83/288/17 64/275/17
f 71/289/15 192/135/15 190/285/15
f 194/147/12 185/290/12 184/41/12
f 183/291/17 73/281/17 83/288/17
f 75/292/29 187/293/29 186/134/29
f 189/286/22 79/278/22 70/284/22
f 224/294/18 206/149/18 205/117/18
f 236/295/90 215/7/90 214/296/90
f 193/297/23 182/287/23 181/274/23
f 204/46/38 184/41/38 191/277/38
f 196/29/8 187/293/8 188/279/8
f 189/286/37 197/141/37 203/44/37
f 199/298/17 183/291/17 182/287/17
f 190/285/91 198/283/91 197/141/91
f 200/299/17 188/279/17 183/291/17
f 186/134/19 195/31/19 202/282/19
f 203/44/22 191/277/22 189/286/22
f 200/299/17 230/300/17 196/29/17
f 214/296/92 33/9/92 32/123/92
f 231/301/93 202/282/93 234/302/93
f 199/298/17 239/303/17 200/299/17
f 222/304/94 214/296/94 210/122/94
f 225/305/5 213/140/5 207/13/5
f 221/306/12 194/147/12 235/146/12
f 233/36/2 205/117/2 212/4/2
f 198/283/95 226/307/95 197/141/95
f 229/308/14 216/63/14 206/149/14
f 195/31/19 234/302/19 202/282/19
f 219/309/61 217/310/61 220/311/61
f 239/303/81 220/311/81 240/312/81
f 227/142/96 225/313/96 228/314/96
f 230/300/64 224/315/64 223/30/64
f 233/316/97 231/301/97 234/302/97
f 224/315/67 234/302/67 223/30/67
f 232/317/98 226/307/98 231/301/98
f 237/318/99 235/146/99 238/45/99
f 228/314/80 238/45/80 227/142/80
f 222/319/100 235/146/100 236/320/100
f 239/303/101 229/321/101 230/300/101
f 193/297/102 219/309/102 199/298/102
f 115/218/103 246/177/103 122/219/103
f 132/224/42 242/150/42 111/214/42
f 129/229/104 251/145/104 128/234/104
f 248/138/89 150/97/89 147/108/89
f 111/214/23 241/114/23 110/322/23
f 128/234/22 250/112/22 117/221/22
f 124/227/29 247/107/29 115/218/29
f 117/221/37 249/98/37 120/222/37
f 120/222/15 252/95/15 125/139/15
f 113/232/12 244/90/12 129/229/12
f 122/219/17 243/71/17 132/224/17
f 135/240/87 253/260/87 134/238/87
f 156/247/7 254/237/7 135/240/7
f 137/255/6 256/84/6 153/254/6
f 148/249/4 259/27/4 139/242/4
f 152/252/30 262/38/30 141/245/30
f 24/323/31 264/94/31 25/93/31
f 144/246/25 264/94/25 149/106/25
f 153/254/24 263/86/24 152/252/24
f 141/245/9 261/40/9 144/246/9
f 139/242/105 258/24/105 146/243/105
f 146/243/7 255/26/7 156/247/7
f 158/1/87 40/155/87 37/2/87
f 212/4/2 205/117/2 18/5/2
f 215/7/3 208/17/3 20/8/3
f 163/10/4 51/268/4 44/11/4
f 207/13/5 213/140/5 26/14/5
f 237/16/3 228/129/3 208/17/3
f 161/18/6 42/324/6 58/19/6
f 164/21/7 49/37/7 59/22/7
f 258/24/11 14/28/11 35/25/11
f 259/27/105 11/111/105 14/28/105
f 196/29/8 230/300/8 223/30/8
f 165/32/9 46/148/9 47/33/9
f 212/4/10 213/140/10 232/35/10
f 162/12/11 44/11/11 49/37/11
f 262/38/9 12/110/9 13/39/9
f 184/41/12 185/290/12 66/42/12
f 203/44/22 227/142/22 238/45/22
f 22/47/12 90/325/12 106/48/12
f 108/50/14 98/154/14 121/51/14
f 4/53/95 95/57/95 102/54/95
f 3/56/37 94/80/37 95/57/37
f 7/58/17 97/153/17 107/59/17
f 240/61/14 220/198/14 209/62/14
f 50/64/42 43/160/42 6/65/42
f 5/66/19 99/261/19 92/67/19
f 105/68/20 89/210/20 114/69/20
f 243/71/17 246/177/17 145/72/17
f 101/74/5 96/77/5 119/75/5
f 96/77/21 93/100/21 118/78/21
f 2/79/106 103/143/106 94/80/106
f 29/81/102 88/152/102 85/82/102
f 256/84/24 31/213/24 30/85/24
f 91/87/2 100/137/2 123/88/2
f 244/90/12 245/326/12 138/91/12
f 261/40/25 13/39/25 25/93/25
f 252/95/15 249/98/15 143/96/15
f 249/98/37 250/112/37 142/99/37
f 93/100/3 104/144/3 127/101/3
f 86/102/27 87/151/27 112/103/27
f 260/105/28 148/249/28 149/106/28
f 247/107/19 248/138/19 147/108/19
f 263/86/30 30/85/30 12/110/30
f 260/105/4 24/323/4 11/111/4
f 250/112/106 251/145/106 151/113/106
f 241/114/23 242/150/23 136/115/23
f 205/117/107 206/149/107 21/118/107
f 180/119/31 76/189/31 77/120/31
f 210/122/20 214/296/20 32/123/20
f 208/17/21 207/13/21 19/15/21
f 167/34/25 47/33/25 54/125/25
f 216/63/18 209/62/18 16/127/18
f 228/129/21 225/305/21 207/13/21
f 209/62/27 211/199/27 15/130/27
f 160/20/24 58/19/24 55/131/24
f 78/133/93 75/292/93 186/134/93
f 52/136/34 53/166/34 1/55/34
f 100/137/10 101/74/10 126/76/10
f 248/138/34 124/227/34 125/139/34
f 27/6/36 26/14/36 213/140/36
f 197/141/16 226/307/16 227/142/16
f 23/49/88 106/48/88 103/143/88
f 130/70/92 127/101/92 104/144/92
f 154/92/108 151/113/108 251/145/108
f 204/46/38 238/45/38 235/146/38
f 166/132/30 55/131/30 46/148/30
f 206/149/14 216/63/14 36/128/14
f 242/150/42 243/71/42 155/73/42
f 87/151/14 108/50/14 131/52/14
f 28/60/17 107/59/17 88/152/17
f 6/65/8 92/67/8 97/153/8
f 98/154/18 91/87/18 116/89/18
f 159/23/7 59/22/7 40/155/7
f 38/156/82 37/327/82 40/157/82
f 49/159/44 44/169/44 43/160/44
f 47/161/55 46/176/55 45/162/55
f 49/159/56 50/64/56 60/164/56
f 53/166/47 52/136/47 51/167/47
f 48/163/109 53/166/109 54/168/109
f 52/136/110 43/160/110 44/169/110
f 57/170/111 56/175/111 55/171/111
f 57/170/86 58/172/86 42/173/86
f 56/175/52 45/162/52 46/176/52
f 40/157/112 59/165/112 60/164/112
f 246/177/103 247/107/103 140/109/103
f 62/178/113 61/328/113 64/179/113
f 73/181/56 68/329/56 67/182/56
f 70/184/114 69/273/114 72/185/114
f 83/187/112 73/181/112 74/183/112
f 76/189/115 75/191/115 78/190/115
f 67/182/85 68/329/85 75/191/85
f 77/120/58 78/190/58 71/186/58
f 80/192/59 79/195/59 82/193/59
f 80/192/52 69/273/52 70/184/52
f 81/194/60 82/193/60 66/196/60
f 83/187/116 84/188/116 63/180/116
f 220/198/33 217/330/33 211/199/33
f 86/102/61 85/331/61 88/200/61
f 92/201/62 91/87/62 98/154/62
f 95/203/63 94/211/63 93/100/63
f 97/202/101 98/154/101 108/50/101
f 101/74/97 100/137/97 99/205/97
f 101/74/66 102/206/66 95/203/66
f 91/87/117 92/201/117 99/205/117
f 105/68/68 104/144/68 103/207/68
f 105/68/69 106/208/69 90/209/69
f 104/144/80 93/100/80 94/211/80
f 107/204/101 108/50/101 87/151/101
f 257/212/6 10/332/6 31/213/6
f 111/214/118 110/322/118 109/215/118
f 121/217/101 116/228/101 115/218/101
f 119/220/119 118/235/119 117/221/119
f 131/223/71 121/217/71 122/219/71
f 125/139/120 124/227/120 123/225/120
f 120/222/76 125/139/76 126/226/76
f 124/227/121 115/218/121 116/228/121
f 129/229/122 128/234/122 127/230/122
f 113/232/79 129/229/79 130/231/79
f 128/234/123 117/221/123 118/235/123
f 112/216/124 131/223/124 132/224/124
f 255/26/11 35/25/11 9/236/11
f 134/238/82 133/333/82 136/239/82
f 145/241/125 140/334/125 139/242/125
f 143/244/45 142/257/45 141/245/45
f 145/241/56 146/243/56 156/247/56
f 148/249/126 147/251/126 150/250/126
f 144/246/109 149/106/109 150/250/109
f 139/242/49 140/334/49 147/251/49
f 152/252/59 151/258/59 154/253/59
f 137/255/86 153/254/86 154/253/86
f 152/252/127 141/245/127 142/257/127
f 155/248/56 156/247/56 135/240/56
f 254/237/87 9/236/87 8/259/87
f 39/158/17 60/164/17 28/60/17
f 23/49/38 2/79/38 56/175/38
f 99/261/93 5/66/93 1/55/93
f 38/156/23 39/158/23 29/81/23
f 45/162/22 56/175/22 2/79/22
f 43/160/19 52/136/19 5/66/19
f 60/164/17 50/64/17 7/58/17
f 48/163/37 45/162/37 3/56/37
f 53/166/15 48/163/15 4/53/15
f 57/170/12 41/174/12 22/47/12
f 169/262/7 159/23/7 158/1/7
f 179/264/30 166/132/30 165/32/30
f 173/266/24 160/20/24 166/132/24
f 177/267/25 167/34/25 168/126/25
f 51/268/31 163/10/31 168/126/31
f 174/269/11 162/12/11 164/21/11
f 176/265/9 165/32/9 167/34/9
f 175/270/7 164/21/7 159/23/7
f 171/271/6 161/18/6 160/20/6
f 180/119/4 163/10/4 162/12/4
f 170/263/1 158/1/1 157/3/1
f 63/180/1 170/263/1 172/272/1
f 76/189/4 180/119/4 174/269/4
f 65/197/6 171/271/6 173/266/6
f 74/183/7 175/270/7 169/262/7
f 69/273/128 176/265/128 177/267/128
f 67/182/11 174/269/11 175/270/11
f 72/185/25 177/267/25 178/121/25
f 81/194/24 173/266/24 179/264/24
f 80/192/30 179/264/30 176/265/30
f 84/188/7 169/262/7 170/263/7
f 163/10/31 180/119/31 178/121/31
f 181/274/23 182/287/23 64/275/23
f 191/277/38 184/41/38 82/43/38
f 188/279/42 187/293/42 68/280/42
f 192/135/93 186/134/93 202/282/93
f 70/284/16 71/289/16 190/285/16
f 182/287/17 183/291/17 83/288/17
f 71/289/15 78/133/15 192/135/15
f 194/147/12 201/335/12 185/290/12
f 183/291/17 188/279/17 73/281/17
f 75/292/19 68/280/19 187/293/19
f 189/286/13 191/277/13 79/278/13
f 224/294/129 229/308/129 206/149/129
f 236/295/39 237/16/39 215/7/39
f 193/297/102 199/298/102 182/287/102
f 204/46/130 194/147/130 184/41/130
f 196/29/8 195/31/8 187/293/8
f 189/286/16 190/285/16 197/141/16
f 199/298/17 200/299/17 183/291/17
f 190/285/15 192/135/15 198/283/15
f 200/299/17 196/29/17 188/279/17
f 186/134/19 187/293/19 195/31/19
f 203/44/13 204/46/13 191/277/13
f 200/299/17 239/303/17 230/300/17
f 214/296/131 215/7/131 33/9/131
f 231/301/89 198/283/89 202/282/89
f 199/298/17 219/309/17 239/303/17
f 222/304/20 236/295/20 214/296/20
f 225/305/5 232/35/5 213/140/5
f 221/306/12 201/335/12 194/147/12
f 233/36/2 224/294/2 205/117/2
f 198/283/95 231/301/95 226/307/95
f 229/308/14 240/61/14 216/63/14
f 195/31/19 223/30/19 234/302/19
f 219/309/132 218/336/132 217/310/132
f 239/303/62 219/309/62 220/311/62
f 227/142/96 226/307/96 225/313/96
f 230/300/62 229/321/62 224/315/62
f 233/316/97 232/317/97 231/301/97
f 224/315/133 233/316/133 234/302/133
f 232/317/98 225/313/98 226/307/98
f 237/318/134 236/320/134 235/146/134
f 228/314/80 237/318/80 238/45/80
f 222/319/135 221/306/135 235/146/135
f 239/303/101 240/312/101 229/321/101
f 193/297/23 218/336/23 219/309/23
f 115/218/103 247/107/103 246/177/103
f 132/224/42 243/71/42 242/150/42
f 129/229/40 244/90/40 251/145/40
f 248/138/35 252/95/35 150/97/35
f 111/214/136 242/150/136 241/114/136
f 128/234/106 251/145/106 250/112/106
f 124/227/19 248/138/19 247/107/19
f 117/221/26 250/112/26 249/98/26
f 120/222/15 249/98/15 252/95/15
f 113/232/12 245/326/12 244/90/12
f 122/219/17 246/177/17 243/71/17
f 135/240/87 254/237/87 253/260/87
f 156/247/11 255/26/11 254/237/11
f 137/255/6 257/212/6 256/84/6
f 148/249/4 260/105/4 259/27/4
f 152/252/30 263/86/30 262/38/30
f 24/323/28 260/105/28 264/94/28
f 144/246/25 261/40/25 264/94/25
f 153/254/24 256/84/24 263/86/24
f 141/245/9 262/38/9 261/40/9
f 139/242/7 259/27/7 258/24/7
f 146/243/11 258/24/11 255/26/11
