# Blender 3.6.23
# www.blender.org
o sol.047
v 1.767280 0.820979 -1.374850
v 1.757483 0.821015 -1.377407
v 1.757532 0.820456 -1.377620
v 1.767340 0.820344 -1.375089
v 1.757048 0.821035 -1.377625
v 1.757092 0.820522 -1.377822
v 1.755943 0.821107 -1.378289
v 1.755975 0.820742 -1.378427
v 1.755408 0.821188 -1.378868
v 1.755423 0.821008 -1.378935
v 1.757626 0.820023 -1.378016
v 1.767446 0.819851 -1.375541
v 1.757181 0.820123 -1.378187
v 1.756038 0.820456 -1.378689
v 1.755454 0.820870 -1.379063
v 1.757752 0.819780 -1.378536
v 1.767589 0.819576 -1.376134
v 1.757297 0.819901 -1.378668
v 1.756121 0.820296 -1.379031
v 1.755486 0.820796 -1.379257
v 1.757886 0.819771 -1.379099
v 1.767742 0.819563 -1.376773
v 1.757422 0.819886 -1.379187
v 1.756209 0.820289 -1.379403
v 1.755526 0.820798 -1.379470
v 1.758013 0.819987 -1.379624
v 1.767886 0.819811 -1.377368
v 1.757534 0.820091 -1.379669
v 1.756293 0.820432 -1.379746
v 1.755582 0.820873 -1.379663
v 1.758110 0.820405 -1.380025
v 1.767994 0.820285 -1.377824
v 1.757627 0.820475 -1.380038
v 1.756357 0.820708 -1.380010
v 1.755633 0.821012 -1.379812
v 1.758162 0.820955 -1.380244
v 1.768051 0.820911 -1.378075
v 1.757674 0.820983 -1.380243
v 1.756389 0.821070 -1.380152
v 1.755650 0.821188 -1.379882
v 1.758164 0.821555 -1.380247
v 1.768055 0.821592 -1.378077
v 1.757675 0.821534 -1.380247
v 1.756391 0.821462 -1.380157
v 1.755651 0.821381 -1.379884
v 1.758112 0.822118 -1.380035
v 1.767994 0.822231 -1.377837
v 1.757627 0.822050 -1.380051
v 1.756356 0.821830 -1.380016
v 1.755633 0.821563 -1.379815
v 1.758017 0.822550 -1.379639
v 1.767889 0.822723 -1.377385
v 1.757542 0.822449 -1.379683
v 1.756296 0.822116 -1.379756
v 1.755603 0.821702 -1.379688
v 1.757891 0.822790 -1.379120
v 1.767748 0.822999 -1.376794
v 1.757423 0.822672 -1.379205
v 1.756213 0.822277 -1.379414
v 1.755543 0.821775 -1.379500
v 1.757755 0.822802 -1.378554
v 1.767593 0.823011 -1.376153
v 1.757301 0.822683 -1.378684
v 1.756122 0.822284 -1.379045
v 1.755484 0.821774 -1.379295
v 1.757631 0.822583 -1.378032
v 1.767452 0.822764 -1.375561
v 1.757185 0.822482 -1.378204
v 1.756041 0.822141 -1.378699
v 1.755447 0.821698 -1.379095
v 1.757534 0.822168 -1.377630
v 1.767341 0.822289 -1.375103
v 1.757096 0.822097 -1.377832
v 1.755977 0.821865 -1.378436
v 1.755424 0.821559 -1.378939
v 1.757481 0.821619 -1.377411
v 1.767283 0.821663 -1.374852
v 1.757046 0.821590 -1.377630
v 1.755942 0.821502 -1.378290
v 1.755407 0.821383 -1.378868
v 1.755386 0.821347 -1.379757
v 1.755262 0.821319 -1.379630
v 1.755156 0.821285 -1.379470
v 1.755179 0.821251 -1.379275
v 1.755234 0.821223 -1.379103
vn -0.2490 -0.1823 0.9512
vn -0.3193 -0.5307 0.7851
vn -0.2169 -0.5340 0.8172
vn -0.3491 -0.1810 0.9194
vn -0.4523 -0.5148 0.7283
vn -0.6257 -0.1648 0.7625
vn -0.4809 -0.1758 0.8590
vn -0.7659 -0.4216 0.4854
vn -0.6001 -0.4816 0.6387
vn -0.1552 -0.8141 0.5595
vn -0.3968 -0.7830 0.4790
vn -0.2612 -0.8070 0.5296
vn -0.5531 -0.7305 0.4005
vn -0.7594 -0.6030 0.2443
vn -0.1803 -0.9668 0.1812
vn -0.0711 -0.9754 0.2085
vn -0.3221 -0.9359 0.1426
vn -0.4871 -0.8693 0.0842
vn -0.7294 -0.6840 -0.0098
vn 0.0222 -0.9832 -0.1811
vn -0.2319 -0.9442 -0.2340
vn -0.0851 -0.9750 -0.2054
vn -0.4084 -0.8736 -0.2645
vn -0.0023 -0.8246 -0.5657
vn 0.1094 -0.8320 -0.5439
vn -0.1490 -0.7970 -0.5853
vn -0.5976 -0.5834 -0.5500
vn -0.3261 -0.7407 -0.5873
vn 0.1749 -0.5522 -0.8152
vn 0.0630 -0.5468 -0.8349
vn -0.0828 -0.5310 -0.8433
vn -0.2571 -0.4948 -0.8301
vn 0.2093 -0.1963 -0.9579
vn 0.0997 -0.1949 -0.9757
vn -0.0457 -0.1900 -0.9807
vn -0.5152 -0.4170 -0.7488
vn -0.2170 -0.1792 -0.9596
vn 0.1028 0.1799 -0.9783
vn 0.2100 0.1814 -0.9607
vn -0.0423 0.1745 -0.9837
vn -0.4286 -0.1663 -0.8880
vn -0.2119 0.1632 -0.9636
vn 0.1778 0.5334 -0.8270
vn -0.0763 0.5141 -0.8543
vn 0.0684 0.5293 -0.8457
vn -0.2456 0.4823 -0.8409
vn -0.4551 0.4274 -0.7812
vn 0.0043 0.8076 -0.5898
vn 0.1156 0.8137 -0.5696
vn -0.1391 0.7825 -0.6070
vn -0.3103 0.7292 -0.6100
vn -0.5610 0.6057 -0.5643
vn -0.0788 0.9668 -0.2432
vn 0.0310 0.9752 -0.2190
vn -0.3959 0.8686 -0.2981
vn -0.2213 0.9369 -0.2705
vn -0.6539 0.6848 -0.3218
vn -0.0631 0.9830 0.1722
vn -0.3126 0.9440 0.1058
vn -0.1726 0.9744 0.1443
vn -0.4838 0.8737 0.0496
vn -0.2562 0.8254 0.5031
vn -0.1496 0.8325 0.5335
vn -0.3937 0.8002 0.4525
vn -0.7850 0.5802 0.2171
vn -0.5569 0.7418 0.3737
vn -0.2144 0.5528 0.8053
vn -0.3191 0.5493 0.7723
vn -0.4538 0.5315 0.7153
vn -0.6062 0.4966 0.6212
vn -0.3506 0.1954 0.9159
vn -0.2486 0.1959 0.9486
vn -0.4828 0.1891 0.8551
vn -0.8046 0.4136 0.4262
vn -0.6287 0.1767 0.7573
vn -0.7920 0.1596 0.5893
vn -0.6606 0.1035 -0.7436
vn -0.3959 0.1448 -0.9068
vn -0.8056 0.0694 -0.5884
vn -0.6730 -0.6805 -0.2898
vn -0.7329 0.6789 -0.0454
vn -0.9727 -0.0014 -0.2321
vn -0.9839 -0.0731 0.1628
vn -0.9278 -0.1060 0.3578
vn -0.7693 -0.1457 0.6220
vt 0.500000 0.000000
s 1
f 1/1/1 3/1/2 4/1/3
f 2/1/4 6/1/5 3/1/2
f 7/1/6 6/1/5 5/1/7
f 7/1/6 10/1/8 8/1/9
f 3/1/2 12/1/10 4/1/3
f 3/1/2 13/1/11 11/1/12
f 6/1/5 14/1/13 13/1/11
f 8/1/9 15/1/14 14/1/13
f 12/1/10 16/1/15 17/1/16
f 11/1/12 18/1/17 16/1/15
f 13/1/11 19/1/18 18/1/17
f 14/1/13 20/1/19 19/1/18
f 16/1/15 22/1/20 17/1/16
f 16/1/15 23/1/21 21/1/22
f 18/1/17 24/1/23 23/1/21
f 20/1/19 24/1/23 19/1/18
f 22/1/20 26/1/24 27/1/25
f 23/1/21 26/1/24 21/1/22
f 24/1/23 28/1/26 23/1/21
f 24/1/23 30/1/27 29/1/28
f 26/1/24 32/1/29 27/1/25
f 28/1/26 31/1/30 26/1/24
f 29/1/28 33/1/31 28/1/26
f 30/1/27 34/1/32 29/1/28
f 31/1/30 37/1/33 32/1/29
f 33/1/31 36/1/34 31/1/30
f 34/1/32 38/1/35 33/1/31
f 35/1/36 39/1/37 34/1/32
f 37/1/33 41/1/38 42/1/39
f 38/1/35 41/1/38 36/1/34
f 39/1/37 43/1/40 38/1/35
f 40/1/41 44/1/42 39/1/37
f 41/1/38 47/1/43 42/1/39
f 41/1/38 48/1/44 46/1/45
f 43/1/40 49/1/46 48/1/44
f 44/1/42 50/1/47 49/1/46
f 47/1/43 51/1/48 52/1/49
f 46/1/45 53/1/50 51/1/48
f 48/1/44 54/1/51 53/1/50
f 49/1/46 55/1/52 54/1/51
f 52/1/49 56/1/53 57/1/54
f 53/1/50 56/1/53 51/1/48
f 53/1/50 59/1/55 58/1/56
f 54/1/51 60/1/57 59/1/55
f 56/1/53 62/1/58 57/1/54
f 56/1/53 63/1/59 61/1/60
f 58/1/56 64/1/61 63/1/59
f 60/1/57 64/1/61 59/1/55
f 62/1/58 66/1/62 67/1/63
f 63/1/59 66/1/62 61/1/60
f 64/1/61 68/1/64 63/1/59
f 64/1/61 70/1/65 69/1/66
f 66/1/62 72/1/67 67/1/63
f 68/1/64 71/1/68 66/1/62
f 69/1/66 73/1/69 68/1/64
f 70/1/65 74/1/70 69/1/66
f 72/1/67 76/1/71 77/1/72
f 73/1/69 76/1/71 71/1/68
f 74/1/70 78/1/73 73/1/69
f 75/1/74 79/1/75 74/1/70
f 76/1/71 1/1/1 77/1/72
f 78/1/73 2/1/4 76/1/71
f 78/1/73 7/1/6 5/1/7
f 80/1/76 7/1/6 79/1/75
f 81/1/77 40/1/41 35/1/36
f 81/1/77 50/1/47 45/1/78
f 30/1/27 81/1/77 35/1/36
f 60/1/57 81/1/77 82/1/79
f 25/1/80 82/1/79 30/1/27
f 65/1/81 82/1/79 83/1/82
f 84/1/83 25/1/80 20/1/19
f 84/1/83 65/1/81 83/1/82
f 85/1/84 20/1/19 15/1/14
f 85/1/84 70/1/65 84/1/83
f 10/1/8 85/1/84 15/1/14
f 80/1/76 85/1/84 9/1/85
f 1/1/1 2/1/4 3/1/2
f 2/1/4 5/1/7 6/1/5
f 7/1/6 8/1/9 6/1/5
f 7/1/6 9/1/85 10/1/8
f 3/1/2 11/1/12 12/1/10
f 3/1/2 6/1/5 13/1/11
f 6/1/5 8/1/9 14/1/13
f 8/1/9 10/1/8 15/1/14
f 12/1/10 11/1/12 16/1/15
f 11/1/12 13/1/11 18/1/17
f 13/1/11 14/1/13 19/1/18
f 14/1/13 15/1/14 20/1/19
f 16/1/15 21/1/22 22/1/20
f 16/1/15 18/1/17 23/1/21
f 18/1/17 19/1/18 24/1/23
f 20/1/19 25/1/80 24/1/23
f 22/1/20 21/1/22 26/1/24
f 23/1/21 28/1/26 26/1/24
f 24/1/23 29/1/28 28/1/26
f 24/1/23 25/1/80 30/1/27
f 26/1/24 31/1/30 32/1/29
f 28/1/26 33/1/31 31/1/30
f 29/1/28 34/1/32 33/1/31
f 30/1/27 35/1/36 34/1/32
f 31/1/30 36/1/34 37/1/33
f 33/1/31 38/1/35 36/1/34
f 34/1/32 39/1/37 38/1/35
f 35/1/36 40/1/41 39/1/37
f 37/1/33 36/1/34 41/1/38
f 38/1/35 43/1/40 41/1/38
f 39/1/37 44/1/42 43/1/40
f 40/1/41 45/1/78 44/1/42
f 41/1/38 46/1/45 47/1/43
f 41/1/38 43/1/40 48/1/44
f 43/1/40 44/1/42 49/1/46
f 44/1/42 45/1/78 50/1/47
f 47/1/43 46/1/45 51/1/48
f 46/1/45 48/1/44 53/1/50
f 48/1/44 49/1/46 54/1/51
f 49/1/46 50/1/47 55/1/52
f 52/1/49 51/1/48 56/1/53
f 53/1/50 58/1/56 56/1/53
f 53/1/50 54/1/51 59/1/55
f 54/1/51 55/1/52 60/1/57
f 56/1/53 61/1/60 62/1/58
f 56/1/53 58/1/56 63/1/59
f 58/1/56 59/1/55 64/1/61
f 60/1/57 65/1/81 64/1/61
f 62/1/58 61/1/60 66/1/62
f 63/1/59 68/1/64 66/1/62
f 64/1/61 69/1/66 68/1/64
f 64/1/61 65/1/81 70/1/65
f 66/1/62 71/1/68 72/1/67
f 68/1/64 73/1/69 71/1/68
f 69/1/66 74/1/70 73/1/69
f 70/1/65 75/1/74 74/1/70
f 72/1/67 71/1/68 76/1/71
f 73/1/69 78/1/73 76/1/71
f 74/1/70 79/1/75 78/1/73
f 75/1/74 80/1/76 79/1/75
f 76/1/71 2/1/4 1/1/1
f 78/1/73 5/1/7 2/1/4
f 78/1/73 79/1/75 7/1/6
f 80/1/76 9/1/85 7/1/6
f 81/1/77 45/1/78 40/1/41
f 81/1/77 55/1/52 50/1/47
f 30/1/27 82/1/79 81/1/77
f 60/1/57 55/1/52 81/1/77
f 25/1/80 83/1/82 82/1/79
f 65/1/81 60/1/57 82/1/79
f 84/1/83 83/1/82 25/1/80
f 84/1/83 70/1/65 65/1/81
f 85/1/84 84/1/83 20/1/19
f 85/1/84 75/1/74 70/1/65
f 10/1/8 9/1/85 85/1/84
f 80/1/76 75/1/74 85/1/84
