# Blender 3.6.23
# www.blender.org
o sol.009
v 3.487781 1.230616 -3.276189
v 3.496950 1.239786 -3.276189
v 3.494265 1.233302 -3.276189
v 3.496950 2.039380 -3.276189
v 3.489538 2.046791 -3.276189
v 3.494779 2.044621 -3.276189
v 2.300512 2.046791 -3.276189
v 2.291342 2.037622 -3.276189
v 2.294028 2.044106 -3.276189
v 2.291342 1.238027 -3.276189
v 2.298754 1.230616 -3.276189
v 2.293513 1.232787 -3.276189
v 3.518424 1.217285 -3.278054
v 3.509398 1.208321 -3.278054
v 3.515780 1.210947 -3.278054
v 2.277162 1.208318 -3.278055
v 2.269866 1.215564 -3.278055
v 2.272003 1.210441 -3.278055
v 2.269866 2.060122 -3.278055
v 2.278893 2.069086 -3.278055
v 2.272510 2.066460 -3.278055
v 3.511128 2.069086 -3.278055
v 3.518424 2.061841 -3.278055
v 3.516287 2.066964 -3.278055
v 3.503891 1.213790 -3.262631
v 3.512917 1.222754 -3.262631
v 3.510273 1.216416 -3.262631
v 3.518424 1.217285 -3.264167
v 3.509398 1.208321 -3.264167
v 3.515780 1.210947 -3.264167
v 2.277162 1.208318 -3.264168
v 2.269866 1.215564 -3.264168
v 2.272003 1.210441 -3.264168
v 2.275373 1.221033 -3.262632
v 2.282669 1.213787 -3.262632
v 2.277510 1.215909 -3.262632
v 2.284400 2.063617 -3.262632
v 2.275373 2.054654 -3.262632
v 2.278017 2.060992 -3.262632
v 2.269866 2.060122 -3.264168
v 2.278893 2.069086 -3.264168
v 2.272510 2.066460 -3.264168
v 3.511128 2.069086 -3.264168
v 3.518424 2.061841 -3.264168
v 3.516287 2.066964 -3.264168
v 3.512917 2.056372 -3.262632
v 3.505621 2.063617 -3.262632
v 3.510780 2.061495 -3.262632
v 3.495664 2.052917 -3.262632
v 3.503076 2.045505 -3.262632
v 3.500905 2.050746 -3.262632
v 3.496950 2.039380 -3.264313
v 3.489538 2.046791 -3.264313
v 3.494779 2.044621 -3.264313
v 3.503076 1.233660 -3.262631
v 3.493906 1.224491 -3.262631
v 3.500390 1.227176 -3.262631
v 3.487781 1.230616 -3.264313
v 3.496950 1.239786 -3.264313
v 3.494265 1.233302 -3.264313
v 2.300512 2.046791 -3.264314
v 2.291342 2.037622 -3.264314
v 2.294028 2.044106 -3.264314
v 2.285216 2.043747 -3.262632
v 2.294386 2.052916 -3.262632
v 2.287902 2.050231 -3.262632
v 2.292628 1.224490 -3.262632
v 2.285217 1.231902 -3.262632
v 2.287388 1.226661 -3.262632
v 2.291342 1.238027 -3.264314
v 2.298754 1.230616 -3.264314
v 2.293513 1.232787 -3.264314
v 3.781177 0.932677 -1.314447
v 3.781177 0.932677 -1.512265
v 3.781177 2.952752 -1.314446
v 3.781177 2.952752 -1.512264
v 3.589924 0.932677 -1.314447
v 3.584327 0.932677 -1.319585
v 3.584327 2.952752 -1.319584
v 3.589924 2.952752 -1.314446
v 3.584327 0.932677 -1.507595
v 3.589413 0.932677 -1.512265
v 3.589413 2.952752 -1.512264
v 3.584327 2.952752 -1.507595
v 3.781177 0.932677 0.650892
v 3.781177 0.932677 0.453074
v 3.781177 2.952752 0.650893
v 3.781177 2.952752 0.453074
v 3.589924 0.932677 0.650892
v 3.584327 0.932677 0.645753
v 3.584327 2.952752 0.645754
v 3.589924 2.952752 0.650893
v 3.584327 0.932677 0.457743
v 3.589413 0.932677 0.453074
v 3.589413 2.952752 0.453074
v 3.584327 2.952752 0.457744
v 3.781177 0.932677 2.620612
v 3.781177 0.932677 2.405137
v 3.781177 2.952752 2.620613
v 3.781177 2.952752 2.405138
v 3.589924 0.932677 2.620612
v 3.584327 0.932677 2.615015
v 3.584327 2.952752 2.615016
v 3.589924 2.952752 2.620613
v 3.584327 0.932677 2.410223
v 3.589413 0.932677 2.405137
v 3.589413 2.952752 2.405138
v 3.584327 2.952752 2.410224
v 3.781177 0.932677 4.595840
v 3.781177 0.932677 4.380365
v 3.781177 2.952752 4.595841
v 3.781177 2.952752 4.380366
v 3.589924 0.932677 4.595840
v 3.584327 0.932677 4.590243
v 3.584327 2.952752 4.590244
v 3.589924 2.952752 4.595841
v 3.584327 0.932677 4.385452
v 3.589413 0.932677 4.380365
v 3.589413 2.952752 4.380366
v 3.584327 2.952752 4.385452
v -5.468269 0.000001 -3.278167
v -5.468269 0.000001 -3.475017
v -2.542013 0.000001 -3.475017
v -2.542013 0.000001 -3.278167
v -5.468269 2.952753 -3.278166
v -2.542013 2.952753 -3.278166
v -2.542013 2.952753 -3.475016
v -5.468269 2.952753 -3.475016
v 3.757194 -0.000001 4.595840
v 3.584327 -0.000001 4.595840
v 3.584327 0.000001 -3.475017
v 3.757194 0.000001 -3.475017
v 3.757194 0.932675 4.595840
v 3.757194 0.932677 -3.475016
v 3.584327 0.932677 -3.475016
v 3.584327 0.932675 4.595840
v 3.757194 0.000001 -3.278167
v 3.757194 2.952755 -3.278166
v -1.148737 2.952755 -3.155820
v -1.142611 2.952755 -3.149694
v -1.142610 0.000001 -3.149694
v -1.148737 0.000001 -3.155821
v -1.159700 0.000001 -3.572839
v -1.148737 0.000001 -3.561875
v -1.148737 2.952755 -3.561874
v -1.159701 2.952755 -3.572838
v -2.444525 0.000001 -3.565966
v -2.437653 0.000001 -3.572839
v -2.437653 2.952755 -3.572838
v -2.444525 2.952755 -3.565965
v -0.784000 0.000001 -3.155875
v -0.790181 0.000001 -3.149694
v -0.790181 2.952755 -3.149694
v -0.784000 2.952755 -3.155875
v -0.781160 0.000001 -3.278167
v -0.784000 0.000001 -3.275327
v -0.784000 2.952755 -3.275326
v -0.781161 2.952755 -3.278166
v 3.757194 1.476378 -3.278167
v -1.140090 1.476378 -3.149694
v -1.146217 1.476378 -3.155820
v -1.148737 1.476378 -3.561875
v -1.159701 1.476378 -3.572838
v -2.437653 1.476378 -3.572838
v -2.444525 1.476378 -3.565966
v -0.784000 1.476378 -3.155875
v -0.790181 1.476378 -3.149694
v -0.781160 1.476378 -3.278167
v -0.784000 1.476378 -3.275326
v 3.757194 2.214567 -3.278166
v -1.142611 2.214567 -3.149694
v -1.148737 2.214566 -3.561874
v -2.437653 2.214566 -3.572838
v -0.784000 2.214567 -3.155875
v -0.781160 2.214567 -3.278166
v -1.148737 2.214567 -3.155820
v -1.159701 2.214566 -3.572838
v -2.444525 2.214566 -3.565965
v -0.790181 2.214567 -3.149694
v -0.784000 2.214567 -3.275326
v -1.148737 1.845472 -3.155820
v -1.159701 1.845472 -3.572838
v -2.444525 1.845472 -3.565966
v -0.792650 1.845089 -3.150434
v -0.785285 1.845472 -3.275326
v 3.757194 1.845472 -3.278167
v -1.142611 1.845472 -3.149694
v -1.148737 1.845472 -3.561875
v -2.437653 1.845472 -3.572838
v -0.786503 1.845089 -3.156615
v -0.782438 1.845472 -3.278167
v 3.757194 2.030020 -3.278167
v -1.142611 2.030020 -3.149694
v -1.148737 2.030019 -3.561875
v -2.437653 2.030019 -3.572838
v -0.784000 2.030020 -3.155875
v -0.781160 2.030020 -3.278167
v -1.148737 2.030020 -3.155820
v -1.159701 2.030019 -3.572838
v -2.444525 2.030019 -3.565966
v -0.790181 2.030020 -3.149694
v -0.784000 2.030020 -3.275326
v -1.148737 1.937746 -3.155820
v -1.159701 1.937746 -3.572838
v -2.444525 1.937746 -3.565966
v -0.792650 1.937362 -3.150434
v -0.785285 1.937746 -3.275326
v 3.757194 1.937746 -3.278167
v -1.142611 1.937746 -3.149694
v -1.148737 1.937746 -3.561875
v -2.437653 1.937746 -3.572838
v -0.786503 1.937362 -3.156615
v -0.782438 1.937746 -3.278167
v -1.148737 1.891609 -3.155820
v -1.159701 1.891609 -3.572838
v -2.444525 1.891609 -3.565966
v -0.795122 1.890841 -3.151175
v -0.786568 1.891609 -3.275326
v 3.757194 1.891609 -3.278167
v -1.142611 1.891609 -3.149694
v -1.148737 1.891609 -3.561875
v -2.437653 1.891609 -3.572838
v -0.789006 1.890841 -3.157357
v -0.783715 1.891609 -3.278167
v 3.757194 2.674134 4.792691
v 3.560344 2.674134 4.792691
v 3.560344 2.674136 -3.475016
v 3.757194 2.674136 -3.475016
v 3.757194 2.899863 4.792691
v 3.757194 2.899865 -3.475016
v 3.560344 2.899865 -3.475016
v 3.560344 2.899863 4.792691
v -2.642013 -0.000001 4.792690
v -2.642013 -0.000001 4.272763
v -2.445160 -0.000001 4.272763
v -2.445160 -0.000001 4.792690
v -2.445160 2.952751 4.792691
v -2.445163 2.952753 -3.572838
v -2.642013 2.952753 -3.572838
v -2.642013 2.952751 4.792691
v -2.445163 0.000001 -3.572838
v -2.642013 0.000001 -3.572838
v -2.642013 2.546886 -2.502319
v -2.642013 0.000001 -2.502320
v -2.445163 0.000001 -2.502320
v -2.445163 2.546885 -1.419643
v -2.642013 2.546885 -1.419643
v -2.445163 2.546886 -2.502319
v -2.445163 0.000000 -1.419643
v -2.642013 0.000000 -1.419643
v -2.642013 2.546884 4.272764
v -2.642013 2.546884 3.190088
v -2.642013 -0.000001 3.190087
v -2.445160 2.546884 4.272764
v -2.445160 2.546884 3.190088
v -2.445160 -0.000001 3.190087
v -2.445162 -0.000000 0.685222
v -2.445162 2.952752 0.685223
v -2.642013 2.952752 0.685223
v -2.642013 -0.000000 0.685222
v -5.665119 -0.000001 4.792690
v -5.665119 -0.000001 2.194008
v -5.468269 -0.000001 2.194008
v -5.468269 -0.000001 4.792690
v -5.468269 2.952751 4.792691
v -5.468269 2.952753 -3.475016
v -5.665119 2.952753 -3.475016
v -5.665119 2.952751 4.792691
v -5.468269 0.000001 -3.475017
v -5.665119 0.000001 -3.475017
v -5.665119 2.546885 -1.125928
v -5.665119 0.000000 -1.125929
v -5.468269 0.000000 -1.125929
v -5.468269 2.546885 -0.043252
v -5.665119 2.546885 -0.043252
v -5.468269 2.546885 -1.125928
v -5.468269 0.000000 -0.043252
v -5.665119 0.000000 -0.043252
v -5.665119 2.546885 2.194009
v -5.665119 2.546885 1.111332
v -5.665119 -0.000000 1.111331
v -5.468269 2.546885 2.194009
v -5.468269 2.546885 1.111332
v -5.468269 -0.000000 1.111331
v -5.468269 -0.000000 0.534039
v -5.468269 2.952752 0.534040
v -5.665119 2.952752 0.534040
v -5.665119 -0.000000 0.534039
v -2.542013 -0.000001 4.595841
v 3.757194 -0.000001 4.595841
v -2.542013 2.952751 4.792692
v 3.757194 2.952751 4.792692
v 3.757194 2.952751 4.595842
v -2.542013 2.952751 4.595842
v -2.440625 1.215258 -0.794544
v -2.440625 2.102780 -0.794544
v -2.440625 2.102779 2.108526
v -2.440625 1.215257 2.108526
v -2.447420 1.184773 -0.825029
v -2.447420 1.184770 2.139013
v -2.447420 2.133264 2.139013
v -2.447420 2.133265 -0.825029
v -2.429357 1.190367 -0.819435
v -2.434952 1.184773 -0.825029
v -2.434952 1.184770 2.139013
v -2.429357 1.190364 2.133419
v -2.429357 2.127670 2.133419
v -2.434952 2.133264 2.139013
v -2.434952 2.133265 -0.825029
v -2.429357 2.127671 -0.819435
v -2.429357 2.108906 -0.800670
v -2.435483 2.102780 -0.794544
v -2.429357 1.209132 -0.800670
v -2.435483 1.215258 -0.794544
v -2.435483 2.102779 2.108526
v -2.429357 2.108905 2.114652
v -2.429357 1.209131 2.114651
v -2.435483 1.215257 2.108526
vn -1.0000 -0.0000 -0.0000
vn 1.0000 -0.0000 -0.0000
vn -0.0000 1.0000 -0.0000
vn 0.2688 -0.0000 0.9632
vn -0.0000 -1.0000 -0.0000
vn -0.2647 -0.0000 0.9643
vn -0.0000 -0.0000 1.0000
vn -0.0000 0.2704 0.9628
vn -0.2687 -0.0000 0.9632
vn -0.0000 -0.2704 0.9627
vn -0.0000 0.2648 0.9643
vn -0.0000 -0.2648 0.9643
vn 0.2647 -0.0000 0.9643
vn -0.1928 0.0804 0.9779
vn -0.0799 0.1941 0.9777
vn 0.1929 0.0804 0.9779
vn 0.0799 0.1942 0.9777
vn 0.1929 -0.0805 0.9779
vn 0.0798 -0.1942 0.9777
vn -0.1929 -0.0805 0.9779
vn -0.0799 -0.1942 0.9777
vn 0.3804 0.9248 -0.0000
vn 0.9229 0.3849 -0.0000
vn 0.3804 -0.9248 -0.0000
vn 0.9229 -0.3850 -0.0000
vn -0.9229 -0.3849 -0.0000
vn -0.3804 -0.9248 -0.0000
vn -0.3804 0.9248 -0.0000
vn -0.9229 0.3849 -0.0000
vn -0.1900 -0.0787 0.9786
vn -0.0786 -0.1900 0.9786
vn 0.1899 -0.0787 0.9786
vn 0.0786 -0.1900 0.9786
vn -0.0788 0.1900 0.9786
vn -0.1900 0.0787 0.9786
vn 0.1900 0.0787 0.9786
vn 0.0787 0.1900 0.9786
vn -0.9239 -0.3827 -0.0000
vn -0.3827 -0.9239 -0.0000
vn 0.9239 -0.3827 -0.0000
vn 0.3827 -0.9239 -0.0000
vn 0.0001 -0.0000 1.0000
vn -0.3827 0.9239 -0.0000
vn -0.9239 0.3827 -0.0000
vn -0.0001 -0.0000 1.0000
vn 0.9239 0.3827 -0.0000
vn 0.3827 0.9239 -0.0000
vn -0.6763 -0.0000 0.7366
vn -0.6763 -0.0000 -0.7366
vn -0.0000 -0.0000 -1.0000
vn -0.6763 -0.0000 0.7367
vn -0.7071 -0.0000 0.7071
vn -0.7071 -0.0000 -0.7071
vn 0.7071 -0.0000 0.7071
vn -0.7071 0.0012 0.7071
vn 1.0000 0.0068 -0.0000
vn -1.0000 -0.0068 0.0062
vn -0.7071 -0.0048 0.7071
vn 0.0021 -0.0000 1.0000
vn 0.7071 0.0062 0.7071
vn 0.7071 0.0024 0.7071
vn 0.9996 -0.0270 -0.0000
vn 0.7089 -0.0245 0.7049
vn 0.7062 -0.0098 0.7079
vn 0.7053 -0.0196 0.7087
vn 0.7100 -0.0489 0.7025
vn 0.0043 -0.0000 1.0000
vn 0.9985 -0.0539 0.0101
vn 0.9984 0.0548 0.0104
vn 0.7082 0.0501 0.7043
vn 0.7060 0.0195 0.7079
vn 0.7071 0.7071 -0.0000
vn 0.7071 -0.7071 -0.0000
vn 0.7071 -0.0000 -0.7071
vn 0.2686 -0.0000 0.9633
vn -0.0000 0.2704 0.9627
vn 0.2648 -0.0000 0.9643
vn -0.1929 0.0804 0.9779
vn -0.0798 0.1941 0.9777
vn 0.1929 0.0805 0.9779
vn 0.0799 -0.1942 0.9777
vn -0.1929 -0.0804 0.9779
vn -0.0798 -0.1942 0.9777
vn 0.9229 0.3850 -0.0000
vn -0.9229 0.3850 -0.0000
vn -0.0788 -0.1900 0.9786
vn 0.1901 -0.0787 0.9786
vn 0.0788 -0.1900 0.9786
vn -0.0786 0.1900 0.9786
vn 0.0788 0.1900 0.9786
vn 0.3826 -0.9239 -0.0000
vn 0.7072 -0.0000 0.7070
vn -1.0000 0.0017 0.0062
vn 0.9999 0.0035 0.0103
vn -0.0000 0.0020 1.0000
vn 0.7090 0.0062 0.7051
vn 0.7063 0.0025 0.7080
vn 0.9999 -0.0139 0.0102
vn -0.0000 -0.0080 1.0000
vn 0.7069 -0.0247 0.7069
vn 0.7070 -0.0098 0.7071
vn 0.7060 -0.0195 0.7079
vn 0.7082 -0.0493 0.7043
vn 0.0021 -0.0160 0.9999
vn 0.9994 -0.0278 0.0205
vn 0.9994 0.0278 0.0208
vn 0.0021 0.0163 0.9999
vn 0.7099 0.0497 0.7025
vn 0.7053 0.0196 0.7087
vt 0.038533 0.037985
vt 0.320363 0.030167
vt 0.313626 0.037504
vt 0.020959 0.020159
vt 0.331731 0.000574
vt 0.331608 0.018238
vt 0.330847 0.979841
vt 0.020057 0.999426
vt 0.020179 0.981761
vt 0.334831 0.024383
vt 0.351243 0.972189
vt 0.334835 0.972189
vt 0.023199 0.022388
vt 0.323932 0.961125
vt 0.316749 0.043756
vt 0.323637 0.036512
vt 0.031908 0.030994
vt 0.322927 0.027368
vt 0.019303 0.972995
vt 0.025421 0.036393
vt 0.025603 0.966315
vt 0.332598 0.969929
vt 0.022530 0.979173
vt 0.332486 0.027003
vt 0.326386 0.963607
vt 0.326196 0.033673
vt 0.329259 0.020825
vt 0.029462 0.028559
vt 0.322345 0.971441
vt 0.328608 0.977613
vt 0.016971 0.027811
vt 0.019209 0.030072
vt 0.016956 0.975616
vt 0.000563 0.027811
vt 0.028157 0.963480
vt 0.027862 0.038866
vt 0.028872 0.972621
vt 0.319887 0.968998
vt 0.038168 0.962488
vt 0.313262 0.962007
vt 0.331634 0.976610
vt 0.333796 0.978745
vt 0.331681 0.021690
vt 0.020173 0.023391
vt 0.018011 0.021255
vt 0.020108 0.978307
vt 0.351241 0.020024
vt 0.351241 0.024383
vt 0.333887 0.018224
vt 0.334011 0.000554
vt 0.016971 0.022418
vt 0.017997 0.003209
vt 0.018139 0.020177
vt 0.017900 0.981775
vt 0.000547 0.979975
vt 0.016956 0.979975
vt 0.334835 0.977582
vt 0.333808 0.996792
vt 0.333667 0.979823
vt 0.322957 0.031123
vt 0.323117 0.967868
vt 0.325416 0.970428
vt 0.028675 0.032122
vt 0.028836 0.968870
vt 0.031431 0.969824
vt 0.828942 -0.616343
vt 0.828417 1.584274
vt 0.026388 0.029571
vt 0.325387 0.028241
vt -0.266630 -0.615122
vt 0.034676 0.045733
vt -0.267155 1.585495
vt 0.035045 0.956236
vt 0.026411 0.971747
vt 0.000264 0.279401
vt 0.999736 0.206465
vt 0.999736 0.279401
vt 0.000264 0.068792
vt 0.999736 0.138111
vt 0.000264 0.138112
vt 0.000264 0.065003
vt 0.999736 0.000264
vt 0.999736 0.065002
vt 0.000264 0.141555
vt 0.000264 0.206465
vt 1.313923 1.313923
vt -0.313923 -0.313924
vt 1.313923 -0.313924
vt -0.313923 1.313923
vt 5.050983 0.190720
vt -4.193689 0.426846
vt -4.193691 0.190741
vt 5.050982 -1.019894
vt -4.193694 -1.019871
vt 6.261616 0.426839
vt 6.261616 0.190718
vt -4.193689 1.637458
vt 5.050983 0.426838
vt 5.050985 1.637449
vt 0.365315 0.897437
vt 0.305655 1.266118
vt 0.305656 0.897438
vt 0.078163 0.897874
vt -0.124637 1.266554
vt -0.124637 0.897874
vt -0.150375 1.266758
vt -0.788635 0.898077
vt -0.150374 0.898078
vt 0.103900 1.266336
vt 0.103900 0.897656
vt -0.788635 1.266758
vt -0.814372 0.898294
vt 0.279918 0.897656
vt 0.391053 1.265895
vt 0.391053 0.897214
vt 2.657688 0.897214
vt 2.657688 -0.208828
vt 0.391053 0.528534
vt 0.391053 -0.208828
vt 0.365315 -0.208605
vt 0.305656 0.528757
vt 0.279919 -0.208386
vt 0.305656 -0.208605
vt 0.103901 0.528975
vt 0.103901 -0.208386
vt -0.788634 0.529397
vt -0.814371 -0.207747
vt -0.788634 -0.207964
vt -0.124636 0.529193
vt -0.150373 -0.207964
vt -0.124635 -0.208168
vt 0.078163 0.529193
vt 0.078164 -0.208168
vt -0.150374 0.529397
vt 2.657688 0.805044
vt 0.391053 0.805044
vt 0.365315 0.805267
vt 0.279918 0.805486
vt 0.305656 0.805267
vt 0.103900 0.805485
vt -0.788634 0.805907
vt -0.814372 0.806124
vt -0.150374 0.805908
vt -0.124637 0.805704
vt 0.078163 0.805704
vt 0.365315 0.528757
vt 0.305656 0.713097
vt 0.078163 0.713534
vt -0.150374 0.713737
vt 0.103901 0.713315
vt -0.124637 0.713533
vt -0.788634 0.713737
vt -0.814372 0.529614
vt 0.279918 0.713315
vt 0.279918 0.528975
vt 0.391053 0.712874
vt 2.657688 0.712874
vt 0.305656 0.759182
vt 0.078163 0.759619
vt -0.124637 0.759619
vt -0.788634 0.759822
vt -0.150374 0.759823
vt 0.103901 0.759400
vt -0.814372 0.760039
vt 0.279918 0.759401
vt 0.391053 0.758959
vt 0.365315 0.759182
vt 2.657688 0.758959
vt 2.657688 0.735916
vt 0.391053 0.735916
vt 0.365315 0.736140
vt 0.305656 0.736140
vt 0.279918 0.736358
vt 0.103901 0.736358
vt -0.814372 0.736996
vt -0.788634 0.736780
vt -0.150374 0.736780
vt -0.124637 0.736576
vt 0.078163 0.736576
vt 0.365315 0.713097
vt -0.814372 0.713954
vt 0.059103 1.968289
vt 0.129018 -0.968289
vt 0.129021 1.968289
vt -0.090988 -0.968290
vt -0.021073 1.968289
vt -0.090988 1.968289
vt 0.209193 1.968288
vt 0.059103 -0.968290
vt -0.021068 -1.038205
vt 0.059104 -1.038205
vt -0.021069 -0.968290
vt 0.059104 2.038207
vt -1.334322 -2.525788
vt 0.339706 -2.414191
vt -1.334322 -2.414186
vt -1.334341 2.273034
vt 0.339713 2.384687
vt -1.334345 2.384638
vt 0.688435 -2.201110
vt 2.132370 -2.525793
vt 2.132369 -2.201107
vt 0.723456 2.622043
vt 0.109644 2.510442
vt 0.723458 2.510444
vt 0.109645 2.622046
vt -1.334345 2.510467
vt 2.167309 2.622074
vt 2.167312 2.510477
vt 0.109606 -2.089506
vt 0.109610 -1.475695
vt -1.334307 -0.055591
vt -1.334312 -1.475690
vt 2.132370 2.161450
vt 0.688433 1.866711
vt 2.132364 1.866683
vt 0.688433 1.252903
vt 2.132357 -0.167197
vt 2.132357 1.252903
vt 0.688434 -1.587300
vt 0.458332 -0.167198
vt 0.109617 1.978309
vt 0.339716 2.273081
vt 0.339716 -0.055596
vt 0.451318 2.273081
vt 0.109618 1.364505
vt -1.334304 1.364508
vt 0.451319 -0.055596
vt 0.723466 2.503400
vt 0.109666 2.391820
vt 0.723460 2.391800
vt 0.109668 2.503425
vt -1.334345 2.391820
vt 2.167331 2.503298
vt 2.167324 2.391700
vt 0.458333 -2.525795
vt 0.458334 2.161479
vt 0.515095 0.000000
vt 0.000000 1.000000
vt 0.000000 0.000000
vt 1.000000 0.000000
vt 0.069300 0.862500
vt 0.069300 0.000000
vt 0.515095 1.000000
vt 0.298600 0.000000
vt 0.592600 1.000000
vt 0.592600 0.000000
vt 0.701400 1.000000
vt 0.407400 0.004800
vt 0.407400 1.000000
vt 0.298600 0.004800
vt 0.592600 0.004800
vt 0.515095 1.000000
vt 0.062900 0.862500
vt 0.193800 0.862500
vt 0.930700 0.862500
vt 1.000000 1.000000
vt 0.799800 0.862500
vt 0.496800 0.000000
vt 0.799800 0.000000
vt 0.937100 0.862500
vt 0.937100 0.000000
vt 0.806200 0.862500
vt 0.503200 0.000000
vt 0.806200 0.000000
vt 0.200200 0.862500
vt 0.503200 0.862500
vt 0.193800 0.000000
vt 0.484905 1.000000
vt 2.975935 -0.542413
vt -1.975935 1.542413
vt -1.975935 -0.542413
vt 0.028159 0.969834
vt 0.317122 0.962001
vt 0.323935 0.968987
vt 0.035048 0.962493
vt 0.027860 0.031005
vt 0.034672 0.037991
vt 0.016956 0.981781
vt 0.000563 0.020183
vt 0.016971 0.020184
vt 0.334835 0.979816
vt 0.016831 0.999453
vt 0.334831 0.018218
vt 0.351243 0.979816
vt 0.323635 0.030158
vt 0.316746 0.037498
vt 0.332485 0.020809
vt 0.326387 0.971425
vt 0.326194 0.027354
vt 0.019208 0.022408
vt 0.025420 0.028576
vt 0.332599 0.977593
vt 0.025604 0.972634
vt 0.019303 0.979189
vt 0.334956 0.000547
vt 0.020819 0.003185
vt 0.330986 0.996816
vt 0.317119 0.954259
vt 0.000547 0.975616
vt 0.333952 0.019216
vt 0.017836 0.980782
vt 0.334831 0.020024
vt 0.000563 0.022417
vt 0.017776 0.999445
vt 0.351243 0.977582
vt 0.999736 0.068791
vt 0.000264 0.000266
vt 0.999736 0.141554
vt 0.365315 1.266118
vt 0.078163 1.266555
vt -0.814373 1.266975
vt 0.279918 1.266336
vt 2.657688 1.265895
vt 2.657688 0.528534
vt 0.209193 -0.968288
vt -0.021073 2.038208
vt 0.339706 -2.525795
vt -1.334343 2.622074
vt -1.334321 -2.089502
vt 2.132357 -1.587299
vt -1.334332 1.978263
vt 0.451308 -2.414191
vt -1.334345 2.503429
vt 0.298600 1.000000
vt 0.701400 0.004800
vt 0.930700 0.000000
vt 0.496800 0.862500
vt 0.200200 0.000000
vt 0.062900 0.000000
vt 2.975935 1.542413
vt 0.000547 0.981781
vt 0.334977 0.996782
vt 0.351241 0.018218
vt 0.016829 0.003219
s 0
f 2/1/1 52/2/1 4/3/1
f 28/4/2 23/5/2 44/6/2
f 40/7/1 17/8/1 32/9/1
f 43/10/3 20/11/3 41/12/3
f 44/6/4 26/13/4 28/4/4
f 61/14/5 5/15/5 53/16/5
f 59/17/6 50/18/6 52/2/6
f 35/19/7 56/20/7 67/21/7
f 37/22/8 43/10/8 41/12/8
f 34/23/9 40/7/9 32/9/9
f 47/24/7 65/25/7 49/26/7
f 46/27/7 55/28/7 26/13/7
f 34/23/7 64/29/7 38/30/7
f 35/19/10 29/31/10 25/32/10
f 31/33/5 14/34/5 29/31/5
f 71/35/11 56/20/11 58/36/11
f 49/26/12 61/14/12 53/16/12
f 68/37/13 62/38/13 64/29/13
f 62/38/2 10/39/2 8/40/2
f 40/7/14 39/41/14 42/42/14
f 39/41/15 41/12/15 42/42/15
f 44/6/16 48/43/16 46/27/16
f 48/43/17 43/10/17 47/24/17
f 28/4/18 27/44/18 30/45/18
f 27/44/19 29/31/19 30/45/19
f 32/9/20 36/46/20 34/23/20
f 36/46/21 31/33/21 35/19/21
f 43/10/22 24/47/22 22/48/22
f 45/49/23 23/5/23 24/50/23
f 14/34/24 30/51/24 29/31/24
f 15/52/25 28/4/25 30/53/25
f 17/8/26 33/54/26 32/9/26
f 18/55/27 31/33/27 33/56/27
f 20/11/28 42/57/28 41/12/28
f 21/58/29 40/7/29 42/59/29
f 50/18/30 54/60/30 52/2/30
f 54/60/31 49/26/31 53/16/31
f 64/29/32 63/61/32 66/62/32
f 63/61/33 65/25/33 66/62/33
f 56/20/34 60/63/34 58/36/34
f 60/63/35 55/28/35 59/17/35
f 68/37/36 72/64/36 70/65/36
f 72/64/37 67/21/37 71/35/37
f 52/2/38 6/66/38 4/3/38
f 54/60/39 5/15/39 6/66/39
f 8/40/40 63/61/40 62/38/40
f 9/67/41 61/14/41 63/61/41
f 25/32/7 57/68/7 56/20/7
f 57/68/42 26/13/42 55/28/42
f 47/24/42 51/69/42 48/43/42
f 51/69/7 46/27/7 48/43/7
f 58/36/43 3/70/43 1/71/43
f 60/63/44 2/1/44 3/70/44
f 38/30/7 66/62/7 39/41/7
f 66/62/45 37/22/45 39/41/45
f 70/65/46 12/72/46 10/39/46
f 72/64/47 11/73/47 12/72/47
f 34/23/7 69/74/7 68/37/7
f 69/74/42 35/19/42 67/21/42
f 11/73/3 58/36/3 1/71/3
f 73/75/2 76/76/2 75/77/2
f 78/78/1 84/79/1 81/80/1
f 77/81/7 75/82/7 80/83/7
f 80/83/48 78/78/48 77/81/48
f 84/79/49 82/84/49 81/80/49
f 82/84/50 76/76/50 74/85/50
f 86/85/2 87/77/2 85/75/2
f 90/78/1 96/79/1 93/80/1
f 89/81/7 87/82/7 92/83/7
f 92/83/51 90/78/51 89/81/51
f 96/79/49 94/84/49 93/80/49
f 94/84/50 88/76/50 86/85/50
f 97/75/2 100/76/2 99/77/2
f 102/78/1 108/79/1 105/80/1
f 101/81/7 99/82/7 104/83/7
f 104/83/52 102/78/52 101/81/52
f 108/79/53 106/84/53 105/80/53
f 106/84/50 100/76/50 98/85/50
f 109/75/2 112/76/2 111/77/2
f 114/78/1 120/79/1 117/80/1
f 113/81/7 111/82/7 116/83/7
f 116/83/52 114/78/52 113/81/52
f 120/79/53 118/84/53 117/80/53
f 118/84/50 112/76/50 110/85/50
f 122/86/5 124/87/5 121/88/5
f 126/88/3 128/89/3 125/87/3
f 124/88/7 125/89/7 121/87/7
f 123/88/2 126/89/2 124/87/2
f 122/88/50 127/89/50 123/87/50
f 121/88/1 128/89/1 122/87/1
f 134/90/3 136/91/3 133/92/3
f 132/93/2 133/92/2 129/94/2
f 131/95/50 134/90/50 132/96/50
f 130/97/1 135/98/1 131/99/1
f 180/100/2 154/101/2 174/102/2
f 176/103/1 145/104/1 172/105/1
f 146/106/7 173/107/7 177/108/7
f 140/109/52 176/103/52 171/110/52
f 145/104/52 177/108/52 172/105/52
f 149/111/54 178/112/54 173/107/54
f 179/113/7 140/109/7 171/110/7
f 154/101/54 179/113/54 174/102/54
f 158/114/54 180/100/54 175/115/54
f 170/116/7 158/114/7 175/115/7
f 137/117/7 168/118/7 155/119/7
f 168/118/54 156/120/54 155/119/54
f 166/121/54 152/122/54 151/123/54
f 152/122/7 160/124/7 141/125/7
f 164/126/54 147/127/54 148/128/54
f 162/129/52 143/130/52 144/131/52
f 141/125/55 161/132/55 142/133/55
f 163/134/7 148/128/7 143/130/7
f 142/133/1 162/129/1 144/131/1
f 156/120/2 166/121/2 151/123/2
f 192/135/7 175/115/7 197/136/7
f 175/115/54 202/137/54 197/136/54
f 174/102/54 201/138/54 196/139/54
f 201/138/7 171/110/7 193/140/7
f 195/141/54 178/112/54 200/142/54
f 172/105/52 199/143/52 194/144/52
f 171/110/52 198/145/52 193/140/52
f 199/143/7 173/107/7 195/141/7
f 198/145/1 172/105/1 194/144/1
f 202/137/2 174/102/2 196/139/2
f 169/146/56 190/147/56 166/121/56
f 181/148/57 162/129/57 161/132/57
f 182/149/7 164/126/7 163/134/7
f 187/150/58 161/132/58 160/124/58
f 188/151/52 163/134/52 162/129/52
f 189/152/54 165/153/54 164/126/54
f 160/124/59 184/154/59 187/150/59
f 190/147/60 167/155/60 166/121/60
f 191/156/61 169/146/61 168/118/61
f 168/118/7 186/157/7 191/156/7
f 212/158/62 202/137/62 196/139/62
f 203/159/1 194/144/1 210/160/1
f 199/143/7 211/161/7 204/162/7
f 193/140/52 203/159/52 209/163/52
f 194/144/52 204/162/52 210/160/52
f 195/141/54 205/164/54 211/161/54
f 206/165/59 193/140/59 209/163/59
f 212/158/63 201/138/63 206/165/63
f 213/166/64 202/137/64 207/167/64
f 208/168/7 197/136/7 213/166/7
f 219/169/7 213/166/7 224/170/7
f 224/170/65 207/167/65 218/171/65
f 223/172/66 206/165/66 217/173/66
f 217/173/67 209/163/67 220/174/67
f 211/161/54 216/175/54 222/176/54
f 210/160/52 215/177/52 221/178/52
f 209/163/52 214/179/52 220/174/52
f 204/162/7 222/176/7 215/177/7
f 203/159/1 221/178/1 214/179/1
f 223/172/68 207/167/68 212/158/68
f 185/180/69 223/172/69 190/147/69
f 214/179/1 188/151/1 181/148/1
f 215/177/7 189/152/7 182/149/7
f 220/174/52 181/148/52 187/150/52
f 221/178/52 182/149/52 188/151/52
f 222/176/54 183/181/54 189/152/54
f 187/150/67 217/173/67 220/174/67
f 223/172/70 184/154/70 190/147/70
f 224/170/71 185/180/71 191/156/71
f 191/156/7 219/169/7 224/170/7
f 226/182/5 228/183/5 225/184/5
f 230/185/3 232/186/3 229/187/3
f 228/183/2 229/188/2 225/184/2
f 227/189/50 230/190/50 228/191/50
f 226/182/1 231/192/1 227/189/1
f 225/193/7 232/186/7 226/182/7
f 242/194/50 238/195/50 241/196/50
f 236/197/7 240/198/7 233/199/7
f 243/200/1 242/201/1 244/202/1
f 247/203/5 248/204/5 246/205/5
f 243/206/7 245/207/7 248/204/7
f 250/208/50 246/205/50 249/209/50
f 248/210/2 241/196/2 238/195/2
f 246/211/2 257/212/2 249/213/2
f 233/214/1 251/215/1 234/216/1
f 252/217/1 260/218/1 253/219/1
f 247/220/1 260/218/1 259/221/1
f 236/197/2 254/222/2 237/223/2
f 258/224/3 240/225/3 237/223/3
f 257/212/2 255/226/2 256/227/2
f 238/195/3 259/228/3 258/224/3
f 251/229/5 255/230/5 254/231/5
f 252/232/7 256/233/7 255/230/7
f 234/234/50 254/231/50 235/235/50
f 237/223/2 255/226/2 258/224/2
f 246/211/2 238/195/2 258/224/2
f 239/236/1 247/220/1 259/221/1
f 240/237/1 252/217/1 251/215/1
f 286/238/3 268/239/3 265/240/3
f 270/241/50 266/239/50 269/240/50
f 264/241/7 268/239/7 261/240/7
f 271/242/1 270/240/1 272/243/1
f 266/241/3 287/244/3 286/238/3
f 275/245/5 276/246/5 274/247/5
f 271/248/7 273/249/7 276/250/7
f 278/251/50 274/246/50 277/252/50
f 286/253/2 282/254/2 283/255/2
f 276/256/2 269/241/2 266/257/2
f 274/258/2 285/259/2 277/260/2
f 261/241/1 279/261/1 262/262/1
f 280/263/1 288/264/1 281/265/1
f 275/266/1 288/264/1 287/267/1
f 264/240/2 282/254/2 265/239/2
f 276/256/2 286/253/2 274/258/2
f 285/259/2 283/255/2 284/268/2
f 279/245/5 283/246/5 282/247/5
f 280/248/7 284/249/7 283/250/7
f 262/251/50 282/246/50 263/252/50
f 287/267/1 279/261/1 268/257/1
f 287/269/1 271/242/1 275/266/1
f 292/270/3 294/271/3 291/272/3
f 289/270/50 293/271/50 290/272/50
f 318/273/50 297/274/50 315/275/50
f 298/276/3 314/277/3 295/278/3
f 305/279/5 299/280/5 304/281/5
f 308/282/7 300/283/7 305/279/7
f 309/284/3 301/285/3 308/282/3
f 295/278/7 312/286/7 296/287/7
f 310/288/2 316/289/2 311/290/2
f 303/291/2 311/290/2 313/292/2
f 307/293/2 317/294/2 316/289/2
f 306/295/2 313/292/2 317/294/2
f 310/288/72 308/282/72 307/293/72
f 306/295/73 304/281/73 303/291/73
f 306/295/54 308/282/54 305/279/54
f 309/284/74 303/291/74 304/281/74
f 304/281/50 302/296/50 309/284/50
f 311/290/73 315/275/73 312/286/73
f 312/286/54 313/292/54 311/290/54
f 314/277/72 317/294/72 313/292/72
f 316/289/74 318/273/74 315/275/74
f 315/275/5 296/287/5 312/286/5
f 2/1/1 59/17/1 52/2/1
f 28/4/2 13/297/2 23/5/2
f 40/7/1 19/298/1 17/8/1
f 43/10/3 22/48/3 20/11/3
f 44/6/75 46/27/75 26/13/75
f 61/14/5 7/299/5 5/15/5
f 59/17/6 55/28/6 50/18/6
f 35/19/7 25/32/7 56/20/7
f 37/22/76 47/24/76 43/10/76
f 34/23/9 38/30/9 40/7/9
f 47/24/7 37/22/7 65/25/7
f 46/27/7 50/18/7 55/28/7
f 34/23/7 68/37/7 64/29/7
f 35/19/10 31/33/10 29/31/10
f 31/33/5 16/300/5 14/34/5
f 71/35/11 67/21/11 56/20/11
f 49/26/12 65/25/12 61/14/12
f 68/37/77 70/65/77 62/38/77
f 62/38/2 70/65/2 10/39/2
f 40/7/78 38/30/78 39/41/78
f 39/41/79 37/22/79 41/12/79
f 44/6/80 45/301/80 48/43/80
f 48/43/17 45/301/17 43/10/17
f 28/4/18 26/13/18 27/44/18
f 27/44/81 25/32/81 29/31/81
f 32/9/82 33/302/82 36/46/82
f 36/46/83 33/302/83 31/33/83
f 43/10/22 45/303/22 24/47/22
f 45/49/84 44/6/84 23/5/84
f 14/34/24 15/304/24 30/51/24
f 15/52/25 13/297/25 28/4/25
f 17/8/26 18/305/26 33/54/26
f 18/55/27 16/300/27 31/33/27
f 20/11/28 21/306/28 42/57/28
f 21/58/85 19/298/85 40/7/85
f 50/18/30 51/69/30 54/60/30
f 54/60/86 51/69/86 49/26/86
f 64/29/87 62/38/87 63/61/87
f 63/61/88 61/14/88 65/25/88
f 56/20/89 57/68/89 60/63/89
f 60/63/35 57/68/35 55/28/35
f 68/37/36 69/74/36 72/64/36
f 72/64/90 69/74/90 67/21/90
f 52/2/38 54/60/38 6/66/38
f 54/60/39 53/16/39 5/15/39
f 8/40/40 9/67/40 63/61/40
f 9/67/91 7/299/91 61/14/91
f 25/32/7 27/44/7 57/68/7
f 57/68/7 27/44/7 26/13/7
f 47/24/7 49/26/7 51/69/7
f 51/69/45 50/18/45 46/27/45
f 58/36/43 60/63/43 3/70/43
f 60/63/44 59/17/44 2/1/44
f 38/30/7 64/29/7 66/62/7
f 66/62/42 65/25/42 37/22/42
f 70/65/46 72/64/46 12/72/46
f 72/64/47 71/35/47 11/73/47
f 34/23/7 36/46/7 69/74/7
f 69/74/7 36/46/7 35/19/7
f 11/73/3 71/35/3 58/36/3
f 73/75/2 74/85/2 76/76/2
f 78/78/1 79/307/1 84/79/1
f 77/81/7 73/308/7 75/82/7
f 80/83/51 79/307/51 78/78/51
f 84/79/49 83/309/49 82/84/49
f 82/84/50 83/309/50 76/76/50
f 86/85/2 88/76/2 87/77/2
f 90/78/1 91/307/1 96/79/1
f 89/81/7 85/308/7 87/82/7
f 92/83/48 91/307/48 90/78/48
f 96/79/49 95/309/49 94/84/49
f 94/84/50 95/309/50 88/76/50
f 97/75/2 98/85/2 100/76/2
f 102/78/1 103/307/1 108/79/1
f 101/81/7 97/308/7 99/82/7
f 104/83/52 103/307/52 102/78/52
f 108/79/53 107/309/53 106/84/53
f 106/84/50 107/309/50 100/76/50
f 109/75/2 110/85/2 112/76/2
f 114/78/1 115/307/1 120/79/1
f 113/81/7 109/308/7 111/82/7
f 116/83/52 115/307/52 114/78/52
f 120/79/53 119/309/53 118/84/53
f 118/84/50 119/309/50 112/76/50
f 122/86/5 123/89/5 124/87/5
f 126/88/3 127/86/3 128/89/3
f 124/88/7 126/86/7 125/89/7
f 123/88/2 127/86/2 126/89/2
f 122/88/50 128/86/50 127/89/50
f 121/88/1 125/86/1 128/89/1
f 134/90/3 135/98/3 136/91/3
f 132/93/2 134/90/2 133/92/2
f 131/95/50 135/98/50 134/90/50
f 130/97/1 136/91/1 135/98/1
f 180/100/2 157/310/2 154/101/2
f 176/103/1 139/311/1 145/104/1
f 146/106/7 149/111/7 173/107/7
f 140/109/52 139/311/52 176/103/52
f 145/104/52 146/106/52 177/108/52
f 149/111/54 150/312/54 178/112/54
f 179/113/7 153/313/7 140/109/7
f 154/101/54 153/313/54 179/113/54
f 158/114/92 157/310/92 180/100/92
f 170/116/7 138/314/7 158/114/7
f 137/117/7 159/315/7 168/118/7
f 168/118/54 169/146/54 156/120/54
f 166/121/54 167/155/54 152/122/54
f 152/122/7 167/155/7 160/124/7
f 164/126/54 165/153/54 147/127/54
f 162/129/52 163/134/52 143/130/52
f 141/125/55 160/124/55 161/132/55
f 163/134/7 164/126/7 148/128/7
f 142/133/93 161/132/93 162/129/93
f 156/120/2 169/146/2 166/121/2
f 192/135/7 170/116/7 175/115/7
f 175/115/92 180/100/92 202/137/92
f 174/102/54 179/113/54 201/138/54
f 201/138/7 179/113/7 171/110/7
f 195/141/54 173/107/54 178/112/54
f 172/105/52 177/108/52 199/143/52
f 171/110/52 176/103/52 198/145/52
f 199/143/7 177/108/7 173/107/7
f 198/145/1 176/103/1 172/105/1
f 202/137/2 180/100/2 174/102/2
f 169/146/94 185/180/94 190/147/94
f 181/148/1 188/151/1 162/129/1
f 182/149/7 189/152/7 164/126/7
f 187/150/58 181/148/58 161/132/58
f 188/151/52 182/149/52 163/134/52
f 189/152/54 183/181/54 165/153/54
f 160/124/95 167/155/95 184/154/95
f 190/147/96 184/154/96 167/155/96
f 191/156/97 185/180/97 169/146/97
f 168/118/7 159/315/7 186/157/7
f 212/158/98 207/167/98 202/137/98
f 203/159/1 198/145/1 194/144/1
f 199/143/7 195/141/7 211/161/7
f 193/140/52 198/145/52 203/159/52
f 194/144/52 199/143/52 204/162/52
f 195/141/54 200/142/54 205/164/54
f 206/165/99 201/138/99 193/140/99
f 212/158/100 196/139/100 201/138/100
f 213/166/101 197/136/101 202/137/101
f 208/168/7 192/135/7 197/136/7
f 219/169/7 208/168/7 213/166/7
f 224/170/102 213/166/102 207/167/102
f 223/172/103 212/158/103 206/165/103
f 217/173/104 206/165/104 209/163/104
f 211/161/54 205/164/54 216/175/54
f 210/160/52 204/162/52 215/177/52
f 209/163/52 203/159/52 214/179/52
f 204/162/7 211/161/7 222/176/7
f 203/159/1 210/160/1 221/178/1
f 223/172/105 218/171/105 207/167/105
f 185/180/106 218/171/106 223/172/106
f 214/179/1 221/178/1 188/151/1
f 215/177/7 222/176/7 189/152/7
f 220/174/52 214/179/52 181/148/52
f 221/178/52 215/177/52 182/149/52
f 222/176/54 216/175/54 183/181/54
f 187/150/107 184/154/107 217/173/107
f 223/172/108 217/173/108 184/154/108
f 224/170/109 218/171/109 185/180/109
f 191/156/7 186/157/7 219/169/7
f 226/182/5 227/189/5 228/183/5
f 230/185/3 231/192/3 232/186/3
f 228/183/2 230/316/2 229/188/2
f 227/189/50 231/192/50 230/190/50
f 226/182/1 232/186/1 231/192/1
f 225/193/7 229/317/7 232/186/7
f 242/194/50 239/318/50 238/195/50
f 236/197/7 237/223/7 240/198/7
f 243/200/1 239/236/1 242/201/1
f 247/203/5 243/206/5 248/204/5
f 243/206/7 244/319/7 245/207/7
f 250/208/50 247/203/50 246/205/50
f 248/210/2 245/320/2 241/196/2
f 246/211/2 258/224/2 257/212/2
f 233/214/1 240/237/1 251/215/1
f 252/217/1 259/221/1 260/218/1
f 247/220/1 250/321/1 260/218/1
f 236/197/2 235/322/2 254/222/2
f 258/224/3 259/228/3 240/225/3
f 257/212/2 258/224/2 255/226/2
f 238/195/3 239/323/3 259/228/3
f 251/229/5 252/232/5 255/230/5
f 252/232/7 253/324/7 256/233/7
f 234/234/50 251/229/50 254/231/50
f 237/223/2 254/222/2 255/226/2
f 246/211/2 248/210/2 238/195/2
f 239/236/1 243/200/1 247/220/1
f 240/237/1 259/221/1 252/217/1
f 286/238/3 287/244/3 268/239/3
f 270/241/50 267/257/50 266/239/50
f 264/241/7 265/257/7 268/239/7
f 271/242/1 267/239/1 270/240/1
f 266/241/3 267/257/3 287/244/3
f 275/245/5 271/325/5 276/246/5
f 271/248/7 272/326/7 273/249/7
f 278/251/50 275/325/50 274/246/50
f 286/253/2 265/239/2 282/254/2
f 276/256/2 273/327/2 269/241/2
f 274/258/2 286/328/2 285/259/2
f 261/241/1 268/257/1 279/261/1
f 280/263/1 287/267/1 288/264/1
f 275/266/1 278/329/1 288/264/1
f 264/240/2 263/330/2 282/254/2
f 276/256/2 266/257/2 286/253/2
f 285/259/2 286/328/2 283/255/2
f 279/245/5 280/325/5 283/246/5
f 280/248/7 281/326/7 284/249/7
f 262/251/50 279/325/50 282/246/50
f 287/267/1 280/263/1 279/261/1
f 287/269/1 267/239/1 271/242/1
f 292/270/3 293/331/3 294/271/3
f 289/270/50 294/331/50 293/271/50
f 318/273/50 298/276/50 297/274/50
f 298/276/3 318/273/3 314/277/3
f 305/279/5 300/332/5 299/280/5
f 308/282/7 301/333/7 300/283/7
f 309/284/3 302/334/3 301/285/3
f 295/278/7 314/277/7 312/286/7
f 310/288/2 307/293/2 316/289/2
f 303/291/2 310/288/2 311/290/2
f 307/293/2 306/295/2 317/294/2
f 306/295/2 303/291/2 313/292/2
f 310/288/72 309/284/72 308/282/72
f 306/295/73 305/279/73 304/281/73
f 306/295/54 307/293/54 308/282/54
f 309/284/74 310/288/74 303/291/74
f 304/281/50 299/335/50 302/296/50
f 311/290/73 316/289/73 315/275/73
f 312/286/54 314/277/54 313/292/54
f 314/277/72 318/273/72 317/294/72
f 316/289/74 317/294/74 318/273/74
f 315/275/5 297/274/5 296/287/5
