# Blender 3.6.23
# www.blender.org
o sol.063
v 0.853669 2.546780 -3.229067
v 0.856334 2.546780 -3.225616
v 0.864016 2.546780 -3.222369
v 0.875970 2.546780 -3.219473
v 0.856334 2.572867 -3.229067
v 0.864016 2.597405 -3.229067
v 0.875970 2.619289 -3.229067
v 0.856334 2.520693 -3.229067
v 0.864016 2.496154 -3.229067
v 0.875970 2.474271 -3.229067
v 0.858835 2.521221 -3.225685
v 0.866161 2.522320 -3.222492
v 0.877726 2.523431 -3.219633
v 0.866161 2.497087 -3.225831
v 0.872627 2.499173 -3.222768
v 0.882991 2.501518 -3.220037
v 0.877726 2.475477 -3.225978
v 0.882991 2.478528 -3.223079
v 0.891183 2.482463 -3.220557
v 0.858835 2.572338 -3.225685
v 0.866161 2.596472 -3.225831
v 0.877726 2.618082 -3.225978
v 0.866161 2.571240 -3.222492
v 0.872627 2.594387 -3.222768
v 0.882991 2.615031 -3.223079
v 0.877726 2.570128 -3.219633
v 0.882991 2.592041 -3.220037
v 0.891183 2.611096 -3.220557
v 0.982696 2.675807 -3.229067
v 0.982696 2.673142 -3.225616
v 0.982696 2.665460 -3.222369
v 0.982696 2.653506 -3.219473
v 1.008783 2.673142 -3.229067
v 1.033322 2.665460 -3.229067
v 1.055205 2.653506 -3.229067
v 0.956609 2.673142 -3.229067
v 0.932070 2.665460 -3.229067
v 0.910187 2.653506 -3.229067
v 0.957138 2.670640 -3.225686
v 0.958236 2.663315 -3.222492
v 0.959348 2.651750 -3.219633
v 0.933004 2.663315 -3.225831
v 0.935089 2.656848 -3.222768
v 0.937435 2.646485 -3.220037
v 0.911394 2.651750 -3.225978
v 0.914445 2.646485 -3.223079
v 0.918379 2.638293 -3.220557
v 1.008255 2.670640 -3.225686
v 1.032389 2.663315 -3.225831
v 1.053999 2.651750 -3.225978
v 1.007156 2.663315 -3.222492
v 1.030303 2.656848 -3.222768
v 1.050948 2.646485 -3.223079
v 1.006044 2.651750 -3.219633
v 1.027957 2.646485 -3.220037
v 1.047013 2.638293 -3.220557
v 1.111723 2.546780 -3.229067
v 1.109059 2.546780 -3.225616
v 1.101377 2.546780 -3.222369
v 1.089422 2.546780 -3.219473
v 1.109059 2.520693 -3.229067
v 1.101377 2.496154 -3.229067
v 1.089422 2.474271 -3.229067
v 1.109059 2.572867 -3.229067
v 1.101377 2.597405 -3.229067
v 1.089422 2.619289 -3.229067
v 1.106557 2.572338 -3.225685
v 1.099231 2.571240 -3.222492
v 1.087667 2.570128 -3.219633
v 1.099231 2.596472 -3.225831
v 1.092765 2.594387 -3.222768
v 1.082402 2.592041 -3.220037
v 1.087667 2.618082 -3.225978
v 1.082402 2.615031 -3.223079
v 1.074210 2.611096 -3.220557
v 1.106557 2.521221 -3.225685
v 1.099231 2.497087 -3.225831
v 1.087667 2.475477 -3.225978
v 1.099231 2.522320 -3.222492
v 1.092765 2.499173 -3.222768
v 1.082402 2.478528 -3.223079
v 1.087667 2.523431 -3.219633
v 1.082402 2.501518 -3.220037
v 1.074210 2.482463 -3.220557
v 0.982696 2.417753 -3.229067
v 0.982696 2.420417 -3.225616
v 0.982696 2.428099 -3.222369
v 0.982696 2.440054 -3.219473
v 0.956609 2.420417 -3.229067
v 0.932070 2.428099 -3.229067
v 0.910187 2.440054 -3.229067
v 1.008783 2.420417 -3.229067
v 1.033322 2.428099 -3.229067
v 1.055205 2.440054 -3.229067
v 1.008255 2.422919 -3.225685
v 1.007156 2.430245 -3.222492
v 1.006044 2.441809 -3.219633
v 1.032389 2.430245 -3.225831
v 1.030303 2.436711 -3.222768
v 1.027957 2.447074 -3.220037
v 1.053999 2.441809 -3.225978
v 1.050948 2.447074 -3.223078
v 1.047013 2.455266 -3.220557
v 0.957138 2.422919 -3.225685
v 0.933004 2.430245 -3.225831
v 0.911394 2.441809 -3.225978
v 0.958236 2.430245 -3.222492
v 0.935089 2.436711 -3.222768
v 0.914445 2.447074 -3.223079
v 0.959348 2.441809 -3.219633
v 0.937435 2.447074 -3.220037
v 0.918379 2.455266 -3.220557
v 0.982696 2.546780 -3.211996
v 1.008783 2.546780 -3.212348
v 1.033322 2.546780 -3.213365
v 1.055205 2.546780 -3.214947
v 0.982696 2.572867 -3.212348
v 0.982696 2.597405 -3.213365
v 0.982696 2.619289 -3.214947
v 0.956609 2.546780 -3.212348
v 0.932070 2.546780 -3.213365
v 0.910187 2.546780 -3.214947
v 0.982696 2.520693 -3.212348
v 0.982696 2.496154 -3.213365
v 0.982696 2.474271 -3.214947
v 1.008255 2.521221 -3.212679
v 1.032389 2.522320 -3.213649
v 1.053999 2.523431 -3.215179
v 1.007156 2.497087 -3.213649
v 1.030303 2.499173 -3.214504
v 1.050948 2.501518 -3.215875
v 1.006044 2.475477 -3.215179
v 1.027957 2.478528 -3.215875
v 1.047013 2.482463 -3.216959
v 1.008255 2.572338 -3.212679
v 1.007156 2.596472 -3.213649
v 1.006044 2.618082 -3.215179
v 1.032389 2.571240 -3.213649
v 1.030303 2.594387 -3.214504
v 1.027957 2.615031 -3.215875
v 1.053999 2.570128 -3.215179
v 1.050948 2.592041 -3.215875
v 1.047013 2.611096 -3.216959
v 0.957138 2.572338 -3.212679
v 0.933004 2.571240 -3.213649
v 0.911394 2.570128 -3.215179
v 0.958236 2.596472 -3.213649
v 0.935089 2.594387 -3.214504
v 0.914445 2.592041 -3.215875
v 0.959348 2.618082 -3.215179
v 0.937435 2.615031 -3.215875
v 0.918379 2.611096 -3.216959
v 0.957138 2.521221 -3.212679
v 0.958236 2.497087 -3.213649
v 0.959348 2.475477 -3.215179
v 0.933004 2.522320 -3.213649
v 0.935089 2.499173 -3.214504
v 0.937435 2.478528 -3.215875
v 0.911394 2.523431 -3.215179
v 0.914445 2.501518 -3.215875
v 0.918379 2.482463 -3.216959
v 0.891460 2.455544 -3.229067
v 0.892895 2.456978 -3.226051
v 0.896938 2.461022 -3.223241
v 0.902748 2.466831 -3.220842
v 0.902748 2.484614 -3.218489
v 0.896938 2.502745 -3.217721
v 0.892895 2.523988 -3.217185
v 0.891460 2.546780 -3.216996
v 0.892895 2.569571 -3.217185
v 0.896938 2.590815 -3.217721
v 0.902748 2.608946 -3.218489
v 0.902748 2.626728 -3.220842
v 0.896938 2.632538 -3.223241
v 0.892895 2.636581 -3.226051
v 0.891460 2.638016 -3.229067
v 0.920530 2.626728 -3.218489
v 0.938661 2.632538 -3.217721
v 0.959905 2.636581 -3.217185
v 0.982696 2.638016 -3.216996
v 1.005488 2.636581 -3.217185
v 1.026731 2.632538 -3.217721
v 1.044862 2.626728 -3.218489
v 1.062644 2.626728 -3.220842
v 1.068454 2.632538 -3.223241
v 1.072497 2.636581 -3.226051
v 1.073932 2.638016 -3.229067
v 1.062644 2.608946 -3.218489
v 1.068454 2.590815 -3.217721
v 1.072497 2.569571 -3.217185
v 1.073932 2.546780 -3.216996
v 1.072497 2.523988 -3.217185
v 1.068454 2.502745 -3.217721
v 1.062644 2.484614 -3.218489
v 1.062644 2.466831 -3.220842
v 1.068454 2.461022 -3.223241
v 1.072497 2.456978 -3.226051
v 1.073932 2.455544 -3.229067
v 1.044862 2.466831 -3.218489
v 1.026731 2.461022 -3.217721
v 1.005488 2.456978 -3.217185
v 0.982696 2.455544 -3.216996
v 0.959905 2.456978 -3.217185
v 0.938661 2.461022 -3.217721
v 0.920530 2.466831 -3.218489
v 0.908202 2.472286 -3.219211
v 0.908202 2.621274 -3.219211
v 1.057190 2.621274 -3.219211
v 1.057190 2.472286 -3.219211
vn -0.7922 -0.0000 0.6103
vn -0.6140 -0.1247 0.7794
vn -0.6199 -0.0000 0.7847
vn -0.3179 -0.0000 0.9481
vn -0.3173 -0.0662 0.9460
vn -0.1990 -0.0000 0.9800
vn -0.1989 -0.0439 0.9790
vn -0.1345 -0.0000 0.9909
vn -0.7823 -0.1593 0.6022
vn -0.5909 -0.2487 0.7674
vn -0.3113 -0.1332 0.9409
vn -0.1971 -0.0881 0.9764
vn -0.1345 -0.0336 0.9903
vn -0.7470 -0.3159 0.5849
vn -0.5451 -0.3673 0.7536
vn -0.2952 -0.1999 0.9343
vn -0.1918 -0.1321 0.9725
vn -0.1342 -0.0676 0.9886
vn -0.6822 -0.4615 0.5672
vn -0.4708 -0.4709 0.7460
vn -0.2593 -0.2593 0.9303
vn -0.1736 -0.1736 0.9694
vn -0.1337 -0.1009 0.9859
vn -0.6141 0.1247 0.7794
vn -0.7823 0.1593 0.6022
vn -0.5909 0.2487 0.7674
vn -0.7470 0.3159 0.5849
vn -0.5451 0.3673 0.7537
vn -0.6821 0.4615 0.5672
vn -0.4708 0.4709 0.7461
vn -0.5867 0.5867 0.5583
vn -0.3173 0.0662 0.9460
vn -0.3113 0.1332 0.9409
vn -0.2952 0.1999 0.9343
vn -0.1989 0.0439 0.9790
vn -0.1970 0.0881 0.9764
vn -0.1919 0.1321 0.9725
vn -0.2593 0.2593 0.9303
vn -0.1345 0.0336 0.9903
vn -0.1342 0.0676 0.9886
vn -0.1337 0.1009 0.9859
vn -0.1736 0.1736 0.9694
vn -0.0000 0.7923 0.6102
vn -0.1247 0.6140 0.7794
vn -0.0000 0.6200 0.7846
vn -0.0000 0.3179 0.9481
vn -0.0662 0.3173 0.9460
vn -0.0000 0.1990 0.9800
vn -0.0438 0.1989 0.9790
vn -0.0000 0.1345 0.9909
vn -0.1593 0.7822 0.6023
vn -0.2487 0.5909 0.7674
vn -0.1332 0.3113 0.9409
vn -0.0881 0.1971 0.9764
vn -0.0336 0.1345 0.9903
vn -0.3160 0.7470 0.5849
vn -0.3673 0.5451 0.7537
vn -0.1999 0.2952 0.9343
vn -0.1321 0.1918 0.9725
vn -0.0676 0.1342 0.9886
vn -0.4615 0.6821 0.5672
vn -0.1009 0.1337 0.9859
vn 0.1247 0.6140 0.7794
vn 0.1593 0.7822 0.6023
vn 0.2487 0.5909 0.7674
vn 0.3160 0.7470 0.5849
vn 0.3673 0.5451 0.7537
vn 0.4615 0.6821 0.5672
vn 0.4709 0.4709 0.7461
vn 0.5867 0.5867 0.5583
vn 0.0662 0.3173 0.9460
vn 0.1332 0.3113 0.9409
vn 0.1999 0.2952 0.9343
vn 0.0438 0.1989 0.9790
vn 0.0881 0.1971 0.9764
vn 0.1321 0.1918 0.9725
vn 0.2593 0.2593 0.9303
vn 0.0336 0.1345 0.9903
vn 0.0676 0.1342 0.9886
vn 0.1009 0.1337 0.9859
vn 0.1736 0.1736 0.9694
vn 0.7922 -0.0000 0.6103
vn 0.6141 0.1247 0.7793
vn 0.6199 -0.0000 0.7847
vn 0.3179 -0.0000 0.9481
vn 0.3173 0.0662 0.9460
vn 0.1990 -0.0000 0.9800
vn 0.1989 0.0439 0.9790
vn 0.1345 -0.0000 0.9909
vn 0.7823 0.1593 0.6022
vn 0.5909 0.2487 0.7674
vn 0.3113 0.1332 0.9409
vn 0.1970 0.0881 0.9764
vn 0.1345 0.0336 0.9903
vn 0.7470 0.3159 0.5849
vn 0.5451 0.3673 0.7537
vn 0.2952 0.1999 0.9343
vn 0.1919 0.1321 0.9725
vn 0.1342 0.0676 0.9886
vn 0.6821 0.4615 0.5672
vn 0.1337 0.1009 0.9859
vn 0.6140 -0.1247 0.7794
vn 0.7823 -0.1593 0.6022
vn 0.5909 -0.2487 0.7674
vn 0.7470 -0.3159 0.5849
vn 0.5451 -0.3673 0.7536
vn 0.6822 -0.4615 0.5672
vn 0.4708 -0.4709 0.7460
vn 0.5866 -0.5867 0.5583
vn 0.3173 -0.0662 0.9460
vn 0.3113 -0.1332 0.9409
vn 0.2952 -0.1999 0.9343
vn 0.1989 -0.0439 0.9790
vn 0.1971 -0.0881 0.9764
vn 0.1918 -0.1321 0.9725
vn 0.2593 -0.2593 0.9303
vn 0.1345 -0.0336 0.9903
vn 0.1342 -0.0676 0.9886
vn 0.1337 -0.1009 0.9859
vn 0.1736 -0.1736 0.9694
vn -0.0000 -0.7922 0.6103
vn 0.1247 -0.6140 0.7794
vn -0.0000 -0.6199 0.7847
vn -0.0000 -0.3179 0.9481
vn 0.0662 -0.3173 0.9460
vn -0.0000 -0.1990 0.9800
vn 0.0439 -0.1989 0.9790
vn -0.0000 -0.1345 0.9909
vn 0.1593 -0.7823 0.6022
vn 0.2488 -0.5909 0.7675
vn 0.1332 -0.3113 0.9409
vn 0.0881 -0.1971 0.9764
vn 0.0336 -0.1345 0.9903
vn 0.3160 -0.7470 0.5850
vn 0.3673 -0.5451 0.7536
vn 0.1999 -0.2952 0.9343
vn 0.1321 -0.1918 0.9725
vn 0.0676 -0.1342 0.9886
vn 0.4615 -0.6821 0.5672
vn 0.1009 -0.1337 0.9859
vn -0.1247 -0.6140 0.7794
vn -0.1593 -0.7823 0.6022
vn -0.2488 -0.5909 0.7675
vn -0.3160 -0.7470 0.5850
vn -0.3673 -0.5451 0.7537
vn -0.4615 -0.6821 0.5672
vn -0.5866 -0.5867 0.5583
vn -0.0662 -0.3173 0.9460
vn -0.1332 -0.3113 0.9409
vn -0.1999 -0.2952 0.9343
vn -0.0439 -0.1989 0.9790
vn -0.0881 -0.1971 0.9764
vn -0.1321 -0.1918 0.9725
vn -0.0336 -0.1345 0.9903
vn -0.0676 -0.1342 0.9886
vn -0.1009 -0.1337 0.9859
vn -0.0000 -0.0000 1.0000
vn 0.0274 -0.0274 0.9992
vn 0.0275 -0.0000 0.9996
vn 0.0568 -0.0278 0.9980
vn 0.0569 -0.0000 0.9984
vn 0.0908 -0.0294 0.9954
vn 0.0909 -0.0000 0.9959
vn -0.0000 -0.0275 0.9996
vn 0.0278 -0.0568 0.9980
vn 0.0573 -0.0573 0.9967
vn 0.0911 -0.0596 0.9941
vn -0.0000 -0.0569 0.9984
vn 0.0294 -0.0908 0.9954
vn 0.0596 -0.0911 0.9941
vn 0.0916 -0.0916 0.9916
vn -0.0000 -0.0909 0.9959
vn 0.1322 -0.1322 0.9824
vn 0.0274 0.0274 0.9992
vn -0.0000 0.0275 0.9996
vn 0.0278 0.0568 0.9980
vn -0.0000 0.0569 0.9984
vn 0.0294 0.0908 0.9954
vn -0.0000 0.0909 0.9959
vn 0.0568 0.0278 0.9980
vn 0.0573 0.0573 0.9967
vn 0.0596 0.0911 0.9941
vn 0.0908 0.0294 0.9954
vn 0.0911 0.0596 0.9941
vn 0.0916 0.0916 0.9916
vn 0.1322 0.1322 0.9824
vn -0.0274 0.0274 0.9992
vn -0.0275 -0.0000 0.9996
vn -0.0568 0.0278 0.9980
vn -0.0569 -0.0000 0.9984
vn -0.0908 0.0294 0.9954
vn -0.0909 -0.0000 0.9959
vn -0.0278 0.0568 0.9980
vn -0.0573 0.0573 0.9967
vn -0.0911 0.0596 0.9941
vn -0.0294 0.0908 0.9954
vn -0.0596 0.0911 0.9941
vn -0.0916 0.0916 0.9916
vn -0.1322 0.1322 0.9824
vn -0.0274 -0.0274 0.9992
vn -0.0278 -0.0568 0.9980
vn -0.0294 -0.0908 0.9954
vn -0.0568 -0.0278 0.9980
vn -0.0573 -0.0573 0.9967
vn -0.0596 -0.0911 0.9941
vn -0.0908 -0.0294 0.9954
vn -0.0911 -0.0596 0.9941
vn -0.0916 -0.0916 0.9916
vn -0.1322 -0.1322 0.9824
vt 0.000000 0.000000
s 1
f 1/1/1 11/1/2 2/1/3
f 11/1/2 3/1/4 2/1/3
f 12/1/5 4/1/6 3/1/4
f 13/1/7 169/1/8 4/1/6
f 8/1/9 14/1/10 11/1/2
f 14/1/10 12/1/5 11/1/2
f 15/1/11 13/1/7 12/1/5
f 16/1/12 168/1/13 13/1/7
f 9/1/14 17/1/15 14/1/10
f 17/1/15 15/1/11 14/1/10
f 18/1/16 16/1/12 15/1/11
f 19/1/17 167/1/18 16/1/12
f 10/1/19 163/1/20 17/1/15
f 163/1/20 18/1/16 17/1/15
f 164/1/21 19/1/17 18/1/16
f 165/1/22 166/1/23 19/1/17
f 1/1/1 20/1/24 5/1/25
f 5/1/25 21/1/26 6/1/27
f 6/1/27 22/1/28 7/1/29
f 7/1/29 175/1/30 176/1/31
f 3/1/4 20/1/24 2/1/3
f 23/1/32 21/1/26 20/1/24
f 24/1/33 22/1/28 21/1/26
f 25/1/34 175/1/30 22/1/28
f 4/1/6 23/1/32 3/1/4
f 26/1/35 24/1/33 23/1/32
f 27/1/36 25/1/34 24/1/33
f 28/1/37 174/1/38 25/1/34
f 169/1/8 26/1/35 4/1/6
f 170/1/39 27/1/36 26/1/35
f 171/1/40 28/1/37 27/1/36
f 172/1/41 173/1/42 28/1/37
f 29/1/43 39/1/44 30/1/45
f 39/1/44 31/1/46 30/1/45
f 40/1/47 32/1/48 31/1/46
f 41/1/49 180/1/50 32/1/48
f 36/1/51 42/1/52 39/1/44
f 42/1/52 40/1/47 39/1/44
f 43/1/53 41/1/49 40/1/47
f 44/1/54 179/1/55 41/1/49
f 37/1/56 45/1/57 42/1/52
f 45/1/57 43/1/53 42/1/52
f 46/1/58 44/1/54 43/1/53
f 47/1/59 178/1/60 44/1/54
f 38/1/61 175/1/30 45/1/57
f 175/1/30 46/1/58 45/1/57
f 174/1/38 47/1/59 46/1/58
f 173/1/42 177/1/62 47/1/59
f 29/1/43 48/1/63 33/1/64
f 33/1/64 49/1/65 34/1/66
f 34/1/66 50/1/67 35/1/68
f 35/1/68 186/1/69 187/1/70
f 31/1/46 48/1/63 30/1/45
f 51/1/71 49/1/65 48/1/63
f 52/1/72 50/1/67 49/1/65
f 53/1/73 186/1/69 50/1/67
f 32/1/48 51/1/71 31/1/46
f 54/1/74 52/1/72 51/1/71
f 55/1/75 53/1/73 52/1/72
f 56/1/76 185/1/77 53/1/73
f 180/1/50 54/1/74 32/1/48
f 181/1/78 55/1/75 54/1/74
f 182/1/79 56/1/76 55/1/75
f 183/1/80 184/1/81 56/1/76
f 57/1/82 67/1/83 58/1/84
f 67/1/83 59/1/85 58/1/84
f 68/1/86 60/1/87 59/1/85
f 69/1/88 191/1/89 60/1/87
f 64/1/90 70/1/91 67/1/83
f 70/1/91 68/1/86 67/1/83
f 71/1/92 69/1/88 68/1/86
f 72/1/93 190/1/94 69/1/88
f 65/1/95 73/1/96 70/1/91
f 73/1/96 71/1/92 70/1/91
f 74/1/97 72/1/93 71/1/92
f 75/1/98 189/1/99 72/1/93
f 66/1/100 186/1/69 73/1/96
f 186/1/69 74/1/97 73/1/96
f 185/1/77 75/1/98 74/1/97
f 184/1/81 188/1/101 75/1/98
f 57/1/82 76/1/102 61/1/103
f 61/1/103 77/1/104 62/1/105
f 62/1/105 78/1/106 63/1/107
f 63/1/107 197/1/108 198/1/109
f 59/1/85 76/1/102 58/1/84
f 79/1/110 77/1/104 76/1/102
f 80/1/111 78/1/106 77/1/104
f 81/1/112 197/1/108 78/1/106
f 60/1/87 79/1/110 59/1/85
f 82/1/113 80/1/111 79/1/110
f 83/1/114 81/1/112 80/1/111
f 84/1/115 196/1/116 81/1/112
f 191/1/89 82/1/113 60/1/87
f 192/1/117 83/1/114 82/1/113
f 193/1/118 84/1/115 83/1/114
f 194/1/119 195/1/120 84/1/115
f 85/1/121 95/1/122 86/1/123
f 95/1/122 87/1/124 86/1/123
f 96/1/125 88/1/126 87/1/124
f 97/1/127 202/1/128 88/1/126
f 92/1/129 98/1/130 95/1/122
f 98/1/130 96/1/125 95/1/122
f 99/1/131 97/1/127 96/1/125
f 100/1/132 201/1/133 97/1/127
f 93/1/134 101/1/135 98/1/130
f 101/1/135 99/1/131 98/1/130
f 102/1/136 100/1/132 99/1/131
f 103/1/137 200/1/138 100/1/132
f 94/1/139 197/1/108 101/1/135
f 197/1/108 102/1/136 101/1/135
f 196/1/116 103/1/137 102/1/136
f 195/1/120 199/1/140 103/1/137
f 85/1/121 104/1/141 89/1/142
f 89/1/142 105/1/143 90/1/144
f 90/1/144 106/1/145 91/1/146
f 91/1/146 163/1/20 162/1/147
f 87/1/124 104/1/141 86/1/123
f 107/1/148 105/1/143 104/1/141
f 108/1/149 106/1/145 105/1/143
f 109/1/150 163/1/20 106/1/145
f 88/1/126 107/1/148 87/1/124
f 110/1/151 108/1/149 107/1/148
f 111/1/152 109/1/150 108/1/149
f 112/1/153 164/1/21 109/1/150
f 202/1/128 110/1/151 88/1/126
f 203/1/154 111/1/152 110/1/151
f 204/1/155 112/1/153 111/1/152
f 205/1/156 165/1/22 112/1/153
f 113/1/157 126/1/158 114/1/159
f 114/1/159 127/1/160 115/1/161
f 115/1/161 128/1/162 116/1/163
f 116/1/163 192/1/117 191/1/89
f 123/1/164 129/1/165 126/1/158
f 126/1/158 130/1/166 127/1/160
f 127/1/160 131/1/167 128/1/162
f 128/1/162 193/1/118 192/1/117
f 124/1/168 132/1/169 129/1/165
f 129/1/165 133/1/170 130/1/166
f 130/1/166 134/1/171 131/1/167
f 131/1/167 194/1/119 193/1/118
f 125/1/172 201/1/133 132/1/169
f 132/1/169 200/1/138 133/1/170
f 133/1/170 199/1/140 134/1/171
f 134/1/171 209/1/173 194/1/119
f 113/1/157 135/1/174 117/1/175
f 117/1/175 136/1/176 118/1/177
f 118/1/177 137/1/178 119/1/179
f 119/1/179 181/1/78 180/1/50
f 114/1/159 138/1/180 135/1/174
f 135/1/174 139/1/181 136/1/176
f 136/1/176 140/1/182 137/1/178
f 137/1/178 182/1/79 181/1/78
f 115/1/161 141/1/183 138/1/180
f 138/1/180 142/1/184 139/1/181
f 139/1/181 143/1/185 140/1/182
f 140/1/182 183/1/80 182/1/79
f 116/1/163 190/1/94 141/1/183
f 141/1/183 189/1/99 142/1/184
f 142/1/184 188/1/101 143/1/185
f 143/1/185 208/1/186 183/1/80
f 113/1/157 144/1/187 120/1/188
f 120/1/188 145/1/189 121/1/190
f 121/1/190 146/1/191 122/1/192
f 122/1/192 170/1/39 169/1/8
f 117/1/175 147/1/193 144/1/187
f 144/1/187 148/1/194 145/1/189
f 145/1/189 149/1/195 146/1/191
f 146/1/191 171/1/40 170/1/39
f 118/1/177 150/1/196 147/1/193
f 147/1/193 151/1/197 148/1/194
f 148/1/194 152/1/198 149/1/195
f 149/1/195 172/1/41 171/1/40
f 119/1/179 179/1/55 150/1/196
f 150/1/196 178/1/60 151/1/197
f 151/1/197 177/1/62 152/1/198
f 152/1/198 207/1/199 172/1/41
f 113/1/157 153/1/200 123/1/164
f 123/1/164 154/1/201 124/1/168
f 124/1/168 155/1/202 125/1/172
f 125/1/172 203/1/154 202/1/128
f 120/1/188 156/1/203 153/1/200
f 153/1/200 157/1/204 154/1/201
f 154/1/201 158/1/205 155/1/202
f 155/1/202 204/1/155 203/1/154
f 121/1/190 159/1/206 156/1/203
f 156/1/203 160/1/207 157/1/204
f 157/1/204 161/1/208 158/1/205
f 158/1/205 205/1/156 204/1/155
f 122/1/192 168/1/13 159/1/206
f 159/1/206 167/1/18 160/1/207
f 160/1/207 166/1/23 161/1/208
f 161/1/208 206/1/209 205/1/156
f 1/1/1 8/1/9 11/1/2
f 11/1/2 12/1/5 3/1/4
f 12/1/5 13/1/7 4/1/6
f 13/1/7 168/1/13 169/1/8
f 8/1/9 9/1/14 14/1/10
f 14/1/10 15/1/11 12/1/5
f 15/1/11 16/1/12 13/1/7
f 16/1/12 167/1/18 168/1/13
f 9/1/14 10/1/19 17/1/15
f 17/1/15 18/1/16 15/1/11
f 18/1/16 19/1/17 16/1/12
f 19/1/17 166/1/23 167/1/18
f 10/1/19 162/1/147 163/1/20
f 163/1/20 164/1/21 18/1/16
f 164/1/21 165/1/22 19/1/17
f 165/1/22 206/1/209 166/1/23
f 1/1/1 2/1/3 20/1/24
f 5/1/25 20/1/24 21/1/26
f 6/1/27 21/1/26 22/1/28
f 7/1/29 22/1/28 175/1/30
f 3/1/4 23/1/32 20/1/24
f 23/1/32 24/1/33 21/1/26
f 24/1/33 25/1/34 22/1/28
f 25/1/34 174/1/38 175/1/30
f 4/1/6 26/1/35 23/1/32
f 26/1/35 27/1/36 24/1/33
f 27/1/36 28/1/37 25/1/34
f 28/1/37 173/1/42 174/1/38
f 169/1/8 170/1/39 26/1/35
f 170/1/39 171/1/40 27/1/36
f 171/1/40 172/1/41 28/1/37
f 172/1/41 207/1/199 173/1/42
f 29/1/43 36/1/51 39/1/44
f 39/1/44 40/1/47 31/1/46
f 40/1/47 41/1/49 32/1/48
f 41/1/49 179/1/55 180/1/50
f 36/1/51 37/1/56 42/1/52
f 42/1/52 43/1/53 40/1/47
f 43/1/53 44/1/54 41/1/49
f 44/1/54 178/1/60 179/1/55
f 37/1/56 38/1/61 45/1/57
f 45/1/57 46/1/58 43/1/53
f 46/1/58 47/1/59 44/1/54
f 47/1/59 177/1/62 178/1/60
f 38/1/61 176/1/31 175/1/30
f 175/1/30 174/1/38 46/1/58
f 174/1/38 173/1/42 47/1/59
f 173/1/42 207/1/199 177/1/62
f 29/1/43 30/1/45 48/1/63
f 33/1/64 48/1/63 49/1/65
f 34/1/66 49/1/65 50/1/67
f 35/1/68 50/1/67 186/1/69
f 31/1/46 51/1/71 48/1/63
f 51/1/71 52/1/72 49/1/65
f 52/1/72 53/1/73 50/1/67
f 53/1/73 185/1/77 186/1/69
f 32/1/48 54/1/74 51/1/71
f 54/1/74 55/1/75 52/1/72
f 55/1/75 56/1/76 53/1/73
f 56/1/76 184/1/81 185/1/77
f 180/1/50 181/1/78 54/1/74
f 181/1/78 182/1/79 55/1/75
f 182/1/79 183/1/80 56/1/76
f 183/1/80 208/1/186 184/1/81
f 57/1/82 64/1/90 67/1/83
f 67/1/83 68/1/86 59/1/85
f 68/1/86 69/1/88 60/1/87
f 69/1/88 190/1/94 191/1/89
f 64/1/90 65/1/95 70/1/91
f 70/1/91 71/1/92 68/1/86
f 71/1/92 72/1/93 69/1/88
f 72/1/93 189/1/99 190/1/94
f 65/1/95 66/1/100 73/1/96
f 73/1/96 74/1/97 71/1/92
f 74/1/97 75/1/98 72/1/93
f 75/1/98 188/1/101 189/1/99
f 66/1/100 187/1/70 186/1/69
f 186/1/69 185/1/77 74/1/97
f 185/1/77 184/1/81 75/1/98
f 184/1/81 208/1/186 188/1/101
f 57/1/82 58/1/84 76/1/102
f 61/1/103 76/1/102 77/1/104
f 62/1/105 77/1/104 78/1/106
f 63/1/107 78/1/106 197/1/108
f 59/1/85 79/1/110 76/1/102
f 79/1/110 80/1/111 77/1/104
f 80/1/111 81/1/112 78/1/106
f 81/1/112 196/1/116 197/1/108
f 60/1/87 82/1/113 79/1/110
f 82/1/113 83/1/114 80/1/111
f 83/1/114 84/1/115 81/1/112
f 84/1/115 195/1/120 196/1/116
f 191/1/89 192/1/117 82/1/113
f 192/1/117 193/1/118 83/1/114
f 193/1/118 194/1/119 84/1/115
f 194/1/119 209/1/173 195/1/120
f 85/1/121 92/1/129 95/1/122
f 95/1/122 96/1/125 87/1/124
f 96/1/125 97/1/127 88/1/126
f 97/1/127 201/1/133 202/1/128
f 92/1/129 93/1/134 98/1/130
f 98/1/130 99/1/131 96/1/125
f 99/1/131 100/1/132 97/1/127
f 100/1/132 200/1/138 201/1/133
f 93/1/134 94/1/139 101/1/135
f 101/1/135 102/1/136 99/1/131
f 102/1/136 103/1/137 100/1/132
f 103/1/137 199/1/140 200/1/138
f 94/1/139 198/1/109 197/1/108
f 197/1/108 196/1/116 102/1/136
f 196/1/116 195/1/120 103/1/137
f 195/1/120 209/1/173 199/1/140
f 85/1/121 86/1/123 104/1/141
f 89/1/142 104/1/141 105/1/143
f 90/1/144 105/1/143 106/1/145
f 91/1/146 106/1/145 163/1/20
f 87/1/124 107/1/148 104/1/141
f 107/1/148 108/1/149 105/1/143
f 108/1/149 109/1/150 106/1/145
f 109/1/150 164/1/21 163/1/20
f 88/1/126 110/1/151 107/1/148
f 110/1/151 111/1/152 108/1/149
f 111/1/152 112/1/153 109/1/150
f 112/1/153 165/1/22 164/1/21
f 202/1/128 203/1/154 110/1/151
f 203/1/154 204/1/155 111/1/152
f 204/1/155 205/1/156 112/1/153
f 205/1/156 206/1/209 165/1/22
f 113/1/157 123/1/164 126/1/158
f 114/1/159 126/1/158 127/1/160
f 115/1/161 127/1/160 128/1/162
f 116/1/163 128/1/162 192/1/117
f 123/1/164 124/1/168 129/1/165
f 126/1/158 129/1/165 130/1/166
f 127/1/160 130/1/166 131/1/167
f 128/1/162 131/1/167 193/1/118
f 124/1/168 125/1/172 132/1/169
f 129/1/165 132/1/169 133/1/170
f 130/1/166 133/1/170 134/1/171
f 131/1/167 134/1/171 194/1/119
f 125/1/172 202/1/128 201/1/133
f 132/1/169 201/1/133 200/1/138
f 133/1/170 200/1/138 199/1/140
f 134/1/171 199/1/140 209/1/173
f 113/1/157 114/1/159 135/1/174
f 117/1/175 135/1/174 136/1/176
f 118/1/177 136/1/176 137/1/178
f 119/1/179 137/1/178 181/1/78
f 114/1/159 115/1/161 138/1/180
f 135/1/174 138/1/180 139/1/181
f 136/1/176 139/1/181 140/1/182
f 137/1/178 140/1/182 182/1/79
f 115/1/161 116/1/163 141/1/183
f 138/1/180 141/1/183 142/1/184
f 139/1/181 142/1/184 143/1/185
f 140/1/182 143/1/185 183/1/80
f 116/1/163 191/1/89 190/1/94
f 141/1/183 190/1/94 189/1/99
f 142/1/184 189/1/99 188/1/101
f 143/1/185 188/1/101 208/1/186
f 113/1/157 117/1/175 144/1/187
f 120/1/188 144/1/187 145/1/189
f 121/1/190 145/1/189 146/1/191
f 122/1/192 146/1/191 170/1/39
f 117/1/175 118/1/177 147/1/193
f 144/1/187 147/1/193 148/1/194
f 145/1/189 148/1/194 149/1/195
f 146/1/191 149/1/195 171/1/40
f 118/1/177 119/1/179 150/1/196
f 147/1/193 150/1/196 151/1/197
f 148/1/194 151/1/197 152/1/198
f 149/1/195 152/1/198 172/1/41
f 119/1/179 180/1/50 179/1/55
f 150/1/196 179/1/55 178/1/60
f 151/1/197 178/1/60 177/1/62
f 152/1/198 177/1/62 207/1/199
f 113/1/157 120/1/188 153/1/200
f 123/1/164 153/1/200 154/1/201
f 124/1/168 154/1/201 155/1/202
f 125/1/172 155/1/202 203/1/154
f 120/1/188 121/1/190 156/1/203
f 153/1/200 156/1/203 157/1/204
f 154/1/201 157/1/204 158/1/205
f 155/1/202 158/1/205 204/1/155
f 121/1/190 122/1/192 159/1/206
f 156/1/203 159/1/206 160/1/207
f 157/1/204 160/1/207 161/1/208
f 158/1/205 161/1/208 205/1/156
f 122/1/192 169/1/8 168/1/13
f 159/1/206 168/1/13 167/1/18
f 160/1/207 167/1/18 166/1/23
f 161/1/208 166/1/23 206/1/209
