# Blender 3.6.23
# www.blender.org
o sol.030
v -5.665119 -0.000001 2.194008
v -5.665119 2.546885 -1.125928
v -5.665119 0.000000 -1.125929
v -5.665119 2.546885 -0.043252
v -5.665119 0.000000 -0.043252
v -5.665119 2.546885 2.194009
v -5.665119 2.546885 1.111332
v -5.665119 -0.000000 1.111331
v 3.784359 0.932677 4.395454
v 3.784359 2.706061 4.395454
v 3.784359 0.932677 -3.497636
v 3.784359 2.706061 -3.497636
vn -1.0000 -0.0000 -0.0000
vn 1.0000 -0.0000 -0.0000
vt 0.069300 0.862500
vt 0.000000 0.000000
vt 0.200200 0.862500
vt 0.298600 0.000000
vt 0.298600 0.004800
vt 0.701400 1.000000
s 0
f 4/1/1 3/2/1 5/3/1
f 7/4/1 1/2/1 6/5/1
f 9/2/2 12/2/2 10/2/2
f 4/1/1 2/6/1 3/2/1
f 7/4/1 8/6/1 1/2/1
f 9/2/2 11/2/2 12/2/2
