# Blender 3.6.23
# www.blender.org
o sol.064
v 1.973544 0.800172 -1.320662
v 2.592951 0.800172 -1.320662
v 2.592951 0.800172 -1.335068
v 1.973544 0.800172 -1.335068
v 1.973544 0.086722 -1.323428
v 1.973544 0.086722 -1.332302
v 2.592951 0.086722 -1.332302
v 2.592951 0.086722 -1.323428
v 1.973544 0.088849 -1.321302
v 1.973544 0.090392 -1.320663
v 1.973544 0.090392 -1.335068
v 1.973544 0.088849 -1.334429
v 2.592951 0.088849 -1.334429
v 2.592951 0.090392 -1.335068
v 2.592951 0.090392 -1.320663
v 2.592951 0.088849 -1.321302
v 2.592951 0.103348 -1.335068
v 1.973544 0.103348 -1.335068
v 1.612687 0.812619 -1.822140
v 1.612687 0.812619 -1.251273
v 2.970953 0.812619 -1.251273
v 2.970953 0.812619 -1.822140
v 1.612687 0.811302 -1.827060
v 1.609327 0.811302 -1.825501
v 1.607767 0.811302 -1.822140
v 1.607767 0.811302 -1.251273
v 1.609327 0.811302 -1.247913
v 1.612687 0.811302 -1.246353
v 2.970953 0.811302 -1.246353
v 2.974316 0.811302 -1.247913
v 2.975876 0.811302 -1.251273
v 2.975876 0.811302 -1.822140
v 2.974316 0.811302 -1.825501
v 2.970953 0.811302 -1.827060
v 1.612687 0.807699 -1.830662
v 1.606867 0.807699 -1.827962
v 1.604164 0.807699 -1.822140
v 1.604164 0.807699 -1.251273
v 1.606867 0.807699 -1.245453
v 1.612687 0.807699 -1.242750
v 2.970953 0.807699 -1.242750
v 2.976776 0.807699 -1.245453
v 2.979478 0.807699 -1.251273
v 2.979478 0.807699 -1.822140
v 2.976776 0.807699 -1.827962
v 2.970953 0.807699 -1.830662
v 1.612687 0.802777 -1.831982
v 1.605966 0.802777 -1.828861
v 1.602844 0.802777 -1.822140
v 1.602844 0.802776 -1.251273
v 1.605966 0.802776 -1.244551
v 1.612687 0.802776 -1.241430
v 2.970953 0.802776 -1.241430
v 2.977677 0.802776 -1.244551
v 2.980795 0.802776 -1.251273
v 2.980795 0.802777 -1.822140
v 2.977677 0.802777 -1.828861
v 2.970953 0.802777 -1.831982
v 1.612687 0.792934 -1.831982
v 1.605966 0.792934 -1.828861
v 1.602844 0.792934 -1.822140
v 1.602844 0.792934 -1.251273
v 1.605966 0.792934 -1.244551
v 1.612687 0.792934 -1.241430
v 2.970953 0.792934 -1.241430
v 2.977677 0.792934 -1.244551
v 2.980795 0.792934 -1.251273
v 2.980795 0.792934 -1.822140
v 2.977677 0.792934 -1.828861
v 2.970953 0.792934 -1.831982
v 1.612687 0.788014 -1.830662
v 1.606867 0.788014 -1.827962
v 1.604164 0.788014 -1.822140
v 1.604164 0.788014 -1.251273
v 1.606867 0.788014 -1.245453
v 1.612687 0.788014 -1.242750
v 2.970953 0.788014 -1.242750
v 2.976776 0.788014 -1.245453
v 2.979478 0.788014 -1.251273
v 2.979478 0.788014 -1.822140
v 2.976776 0.788014 -1.827962
v 2.970953 0.788014 -1.830662
v 1.612687 0.784412 -1.827060
v 1.609327 0.784412 -1.825501
v 1.607767 0.784412 -1.822140
v 1.607767 0.784411 -1.251273
v 1.609327 0.784411 -1.247913
v 1.612687 0.784411 -1.246353
v 2.970953 0.784411 -1.246353
v 2.974316 0.784411 -1.247913
v 2.975876 0.784411 -1.251273
v 2.975876 0.784412 -1.822140
v 2.974316 0.784412 -1.825501
v 2.970953 0.784412 -1.827060
v 1.612687 0.783092 -1.822140
v 1.612687 0.783091 -1.251273
v 2.970953 0.783091 -1.251273
v 2.970953 0.783092 -1.822140
v 1.649097 0.090297 -1.797493
v 1.644207 0.090297 -1.795225
v 1.641939 0.090297 -1.790335
v 1.641939 0.090297 -1.285726
v 1.644207 0.090297 -1.280835
v 1.649097 0.090297 -1.278568
v 2.007514 0.090297 -1.278568
v 2.012401 0.090297 -1.280835
v 2.014671 0.090297 -1.285726
v 2.014671 0.090297 -1.790335
v 2.012401 0.090297 -1.795225
v 2.007514 0.090297 -1.797493
v 1.649097 0.086720 -1.796535
v 1.644863 0.086720 -1.794570
v 1.642897 0.086720 -1.790335
v 1.642897 0.086720 -1.285726
v 1.644863 0.086720 -1.281492
v 1.649097 0.086720 -1.279526
v 2.007514 0.086720 -1.279526
v 2.011748 0.086720 -1.281492
v 2.013711 0.086720 -1.285726
v 2.013711 0.086720 -1.790335
v 2.011748 0.086720 -1.794570
v 2.007514 0.086720 -1.796535
v 1.649097 0.084100 -1.793915
v 1.646652 0.084100 -1.792780
v 1.645517 0.084100 -1.790335
v 1.645517 0.084100 -1.285726
v 1.646652 0.084100 -1.283281
v 1.649097 0.084100 -1.282145
v 2.007514 0.084100 -1.282145
v 2.009959 0.084100 -1.283281
v 2.011091 0.084100 -1.285726
v 2.011091 0.084100 -1.790335
v 2.009959 0.084100 -1.792780
v 2.007514 0.084100 -1.793915
v 1.649097 0.083140 -1.790335
v 1.649097 0.083140 -1.285726
v 2.007514 0.083140 -1.285726
v 2.007514 0.083140 -1.790335
v 1.992904 0.084100 -1.793915
v 1.992904 0.090297 -1.797493
v 1.992904 0.083140 -1.285726
v 1.992904 0.083140 -1.790335
v 1.992904 0.086720 -1.279526
v 1.992904 0.086720 -1.796535
v 1.992904 0.084100 -1.282145
v 1.992904 0.090297 -1.278568
v 1.663965 0.084100 -1.793915
v 1.663965 0.090297 -1.797493
v 1.663965 0.083140 -1.285726
v 1.663965 0.083140 -1.790335
v 1.663965 0.086720 -1.279526
v 1.663965 0.086720 -1.796535
v 1.663965 0.084100 -1.282145
v 1.663965 0.090297 -1.278568
v 2.014671 0.106052 -1.285726
v 2.014671 0.106052 -1.790335
v 1.649097 0.106052 -1.797493
v 1.649097 0.106052 -1.278568
v 2.012401 0.106052 -1.795225
v 2.012401 0.106052 -1.280835
v 1.644207 0.106052 -1.795225
v 1.641939 0.106052 -1.790335
v 1.641939 0.106052 -1.285726
v 1.644207 0.106052 -1.280835
v 2.007514 0.106052 -1.278568
v 2.007514 0.106052 -1.797493
v 1.992904 0.106052 -1.797493
v 1.992904 0.106052 -1.278568
v 1.663965 0.106052 -1.278568
v 1.663965 0.106052 -1.797493
v 1.649097 0.784984 -1.797492
v 1.644207 0.784984 -1.795225
v 1.641939 0.784984 -1.790335
v 1.641939 0.784984 -1.285725
v 2.014671 0.784984 -1.790335
v 2.012401 0.784984 -1.795225
v 2.007514 0.784984 -1.278568
v 2.012401 0.784984 -1.280835
v 1.992904 0.784984 -1.797492
v 2.007514 0.784984 -1.797492
v 1.992904 0.784984 -1.278568
v 1.644207 0.784984 -1.280835
v 2.014671 0.784984 -1.285725
v 1.649097 0.784984 -1.278568
v 1.663965 0.784984 -1.797492
v 1.663965 0.784984 -1.278568
v 2.014671 0.090297 -1.308643
v 2.013711 0.086720 -1.308643
v 2.011091 0.084100 -1.308643
v 1.645517 0.084100 -1.308643
v 1.641939 0.090297 -1.308643
v 1.642897 0.086720 -1.308643
v 2.007514 0.083140 -1.308643
v 1.649097 0.083140 -1.308643
v 1.992904 0.083140 -1.308643
v 1.663965 0.083140 -1.308643
v 2.014671 0.106052 -1.308643
v 1.641939 0.106052 -1.308643
v 1.641939 0.784984 -1.308643
v 2.014671 0.784984 -1.308643
v 2.014671 0.090297 -1.767961
v 2.013711 0.086720 -1.767961
v 2.011091 0.084100 -1.767961
v 2.007514 0.083140 -1.767961
v 1.992904 0.083140 -1.767961
v 1.663965 0.083140 -1.767961
v 2.014671 0.106052 -1.767961
v 2.014671 0.784984 -1.767961
v 1.645517 0.084100 -1.767961
v 1.641939 0.090297 -1.767961
v 1.642897 0.086720 -1.767961
v 1.649097 0.083140 -1.767961
v 1.641939 0.106052 -1.767961
v 1.641939 0.784984 -1.767961
v 2.935635 0.784984 -1.797494
v 2.570061 0.784984 -1.285727
v 2.572331 0.784984 -1.280837
v 2.577218 0.784984 -1.278569
v 2.935636 0.090297 -1.278570
v 2.940526 0.090297 -1.280837
v 2.942793 0.090297 -1.285727
v 2.942792 0.090297 -1.790336
v 2.940525 0.090297 -1.795227
v 2.935635 0.090297 -1.797494
v 2.577217 0.090297 -1.797494
v 2.572330 0.090297 -1.795226
v 2.570060 0.090297 -1.790336
v 2.570061 0.090297 -1.285727
v 2.572331 0.090297 -1.280837
v 2.577218 0.090297 -1.278569
v 2.935636 0.086720 -1.279527
v 2.939869 0.086720 -1.281492
v 2.941835 0.086720 -1.285727
v 2.941834 0.086720 -1.790336
v 2.939868 0.086720 -1.794570
v 2.935635 0.086720 -1.796537
v 2.577217 0.086720 -1.796536
v 2.572984 0.086720 -1.794570
v 2.571020 0.086720 -1.790336
v 2.571021 0.086720 -1.285727
v 2.572984 0.086720 -1.281492
v 2.577218 0.086720 -1.279527
v 2.935636 0.084100 -1.282147
v 2.938080 0.084100 -1.283282
v 2.939215 0.084100 -1.285727
v 2.939215 0.084100 -1.790336
v 2.938080 0.084100 -1.792782
v 2.935635 0.084100 -1.793917
v 2.577217 0.084100 -1.793916
v 2.574773 0.084100 -1.792781
v 2.573640 0.084100 -1.790336
v 2.573641 0.084100 -1.285727
v 2.574773 0.084100 -1.283282
v 2.577218 0.084100 -1.282147
v 2.935636 0.083140 -1.285727
v 2.935635 0.083140 -1.790336
v 2.577217 0.083140 -1.790336
v 2.577218 0.083140 -1.285727
v 2.570061 0.090297 -1.292572
v 2.571021 0.086720 -1.292572
v 2.573641 0.084100 -1.292572
v 2.939215 0.084100 -1.292572
v 2.942793 0.090297 -1.292572
v 2.941835 0.086720 -1.292572
v 2.577218 0.083140 -1.292572
v 2.935636 0.083140 -1.292572
v 2.591615 0.084100 -1.282147
v 2.591615 0.090297 -1.278569
v 2.591614 0.083140 -1.790336
v 2.591615 0.083140 -1.285727
v 2.591615 0.784984 -1.278569
v 2.591614 0.086720 -1.796536
v 2.591615 0.086720 -1.279527
v 2.591614 0.084100 -1.793916
v 2.591614 0.090297 -1.797494
v 2.591615 0.083140 -1.292572
v 2.923803 0.083140 -1.292572
v 2.923803 0.084100 -1.282147
v 2.923803 0.090297 -1.278570
v 2.923803 0.083140 -1.790336
v 2.923803 0.083140 -1.285727
v 2.923803 0.784984 -1.278570
v 2.923803 0.784984 -1.797494
v 2.923803 0.086720 -1.796537
v 2.923803 0.086720 -1.279527
v 2.923803 0.084100 -1.793917
v 2.923803 0.090297 -1.797494
v 2.935636 0.784984 -1.278570
v 2.940526 0.784984 -1.280837
v 2.942793 0.784984 -1.292572
v 2.942792 0.784984 -1.790336
v 2.577217 0.784984 -1.797494
v 2.572330 0.784984 -1.795226
v 2.591614 0.784984 -1.797494
v 2.940525 0.784984 -1.795227
v 2.570060 0.784984 -1.790336
v 2.942793 0.784984 -1.285727
v 2.570061 0.784984 -1.292572
v 2.939215 0.084100 -1.776867
v 2.942792 0.090297 -1.776867
v 2.941834 0.086720 -1.776867
v 2.935635 0.083140 -1.776867
v 2.570060 0.090297 -1.776866
v 2.571020 0.086720 -1.776866
v 2.573640 0.084100 -1.776866
v 2.577218 0.083140 -1.776866
v 2.570060 0.784984 -1.776866
v 2.591614 0.083140 -1.776866
v 2.923803 0.083140 -1.776867
v 2.942792 0.784984 -1.776867
v 2.570060 0.107050 -1.790336
v 2.570061 0.107050 -1.285727
v 2.935636 0.107050 -1.278570
v 2.935635 0.107050 -1.797494
v 2.572331 0.107050 -1.280836
v 2.572330 0.107050 -1.795226
v 2.940526 0.107050 -1.280837
v 2.942793 0.107050 -1.285727
v 2.942792 0.107050 -1.790336
v 2.940525 0.107050 -1.795227
v 2.577217 0.107050 -1.797494
v 2.577218 0.107050 -1.278569
v 2.570061 0.107050 -1.292572
v 2.942793 0.107050 -1.292572
v 2.591615 0.107050 -1.278569
v 2.591614 0.107050 -1.797494
v 2.923803 0.107050 -1.797494
v 2.923803 0.107050 -1.278570
v 2.570060 0.107050 -1.776866
v 2.942792 0.107050 -1.776867
vn -0.0000 -0.5556 -0.8315
vn -0.0000 -0.9239 -0.3827
vn -0.0000 -0.0000 -1.0000
vn -0.0000 -0.1951 0.9808
vn -0.0000 -0.0000 1.0000
vn -0.0000 -0.9239 0.3827
vn -0.0000 -0.1951 -0.9808
vn -0.0000 -0.5556 0.8315
vn -0.1126 0.9872 0.1126
vn 0.1125 0.9872 -0.1126
vn -0.1126 0.9872 -0.1126
vn -0.1128 -0.9872 -0.1128
vn -0.3903 -0.8338 -0.3903
vn -0.1221 -0.8452 -0.5203
vn -0.6254 0.4662 -0.6257
vn -0.5201 0.8453 -0.1222
vn -0.3902 0.8339 -0.3902
vn -0.1128 -0.9872 0.1128
vn -0.3904 -0.8338 0.3903
vn -0.5203 -0.8452 0.1223
vn -0.6255 0.4664 0.6255
vn -0.1222 0.8453 0.5201
vn -0.3903 0.8339 0.3902
vn 0.1125 0.9872 0.1126
vn 0.3901 0.8340 -0.3903
vn 0.1220 0.8453 -0.5201
vn 0.6254 0.4664 0.6256
vn 0.5201 0.8453 0.1222
vn 0.3902 0.8339 0.3903
vn 0.1127 -0.9872 -0.1128
vn 0.3902 -0.8339 -0.3904
vn 0.5202 -0.8452 -0.1222
vn 0.6254 0.4662 -0.6257
vn -0.1221 0.8453 -0.5201
vn -0.8579 0.4785 -0.1873
vn -0.5201 0.8453 0.1222
vn -0.1873 0.4785 0.8579
vn 0.1222 0.8453 0.5202
vn 0.8580 0.4783 0.1873
vn 0.5201 0.8453 -0.1222
vn 0.1872 0.4784 -0.8579
vn -0.1872 0.4784 -0.8579
vn -0.7018 0.1229 -0.7017
vn -0.9695 0.1257 -0.2105
vn -0.8579 0.4785 0.1873
vn -0.7017 0.1230 0.7017
vn -0.2105 0.1257 0.9695
vn 0.1873 0.4785 0.8579
vn 0.7018 0.1230 0.7017
vn 0.9695 0.1255 -0.2104
vn 0.8580 0.4783 -0.1872
vn 0.7018 0.1229 -0.7017
vn 0.2105 0.1257 -0.9695
vn -0.2105 -0.1258 -0.9695
vn -0.2105 0.1257 -0.9695
vn -0.7017 -0.1230 -0.7017
vn -0.9695 -0.1258 -0.2105
vn -0.9695 0.1257 0.2105
vn -0.9695 -0.1258 0.2105
vn -0.7017 -0.1231 0.7017
vn -0.2105 -0.1258 0.9695
vn 0.2105 0.1257 0.9695
vn 0.2105 -0.1258 0.9695
vn 0.7018 -0.1230 0.7017
vn 0.9695 0.1255 0.2104
vn 0.9695 -0.1256 0.2104
vn 0.9695 -0.1256 -0.2104
vn 0.7018 -0.1229 -0.7017
vn 0.2105 -0.1258 -0.9695
vn -0.1872 -0.4785 -0.8579
vn -0.8579 -0.4785 -0.1873
vn -0.8579 -0.4785 0.1873
vn -0.1873 -0.4785 0.8579
vn 0.1873 -0.4785 0.8579
vn 0.8580 -0.4783 0.1873
vn 0.8580 -0.4784 -0.1872
vn 0.1872 -0.4785 -0.8579
vn -0.6254 -0.4663 -0.6256
vn -0.5203 -0.8452 -0.1222
vn -0.6255 -0.4664 0.6255
vn -0.1223 -0.8452 0.5203
vn 0.1222 -0.8452 0.5203
vn 0.6254 -0.4664 0.6255
vn 0.5203 -0.8452 0.1222
vn 0.6254 -0.4663 -0.6257
vn 0.1221 -0.8452 -0.5203
vn 0.1127 -0.9872 0.1128
vn 0.3903 -0.8338 0.3904
vn -0.2154 -0.0000 0.9765
vn -0.7071 -0.0000 0.7071
vn 0.7017 -0.1229 -0.7018
vn 0.2155 -0.0000 -0.9765
vn 0.7070 -0.0000 -0.7072
vn -0.2103 -0.1255 -0.9695
vn -0.7071 -0.0000 -0.7071
vn -0.2154 -0.0000 -0.9765
vn -0.9915 -0.1304 -0.0000
vn -0.9765 -0.0000 0.2154
vn -1.0000 -0.0000 -0.0000
vn -0.9696 -0.1255 0.2103
vn -0.0000 -0.1304 0.9915
vn 0.2155 -0.0000 0.9765
vn 0.2104 -0.1255 0.9695
vn 0.7070 -0.0000 0.7072
vn 0.9914 -0.1307 -0.0000
vn 0.9765 -0.0000 -0.2156
vn 1.0000 -0.0000 -0.0000
vn 0.9695 -0.1258 -0.2105
vn -0.0000 -0.1304 -0.9915
vn -0.1872 -0.4783 -0.8580
vn -0.7018 -0.1230 -0.7017
vn -0.8580 -0.4783 -0.1872
vn -0.9696 -0.1255 -0.2103
vn -0.8661 -0.4999 -0.0000
vn -0.8580 -0.4783 0.1872
vn -0.0000 -0.4999 0.8661
vn 0.1873 -0.4783 0.8580
vn 0.7017 -0.1230 0.7018
vn 0.8579 -0.4785 0.1872
vn 0.9695 -0.1258 0.2105
vn 0.8660 -0.5001 -0.0000
vn 0.8579 -0.4785 -0.1872
vn -0.0000 -0.4999 -0.8661
vn -0.1222 -0.8452 -0.5203
vn -0.6254 -0.4665 -0.6255
vn -0.5001 -0.8660 -0.0000
vn -0.5203 -0.8452 0.1222
vn -0.6254 -0.4665 0.6254
vn 0.1872 -0.4783 -0.8580
vn 0.2104 -0.1255 -0.9695
vn -0.0000 -0.8660 0.5001
vn 0.1223 -0.8452 0.5203
vn 0.6257 -0.4663 0.6253
vn 0.5204 -0.8452 0.1221
vn 0.5002 -0.8659 -0.0000
vn 0.5204 -0.8452 -0.1220
vn 0.6257 -0.4663 -0.6254
vn 0.1222 -0.8452 -0.5203
vn -0.0000 -0.8660 -0.5001
vn -0.9765 -0.0000 -0.2154
vn -0.1128 -0.9872 -0.1127
vn -0.3904 -0.8338 -0.3903
vn -0.1306 -0.9914 -0.0000
vn -0.1127 -0.9872 0.1127
vn -0.0000 -0.9914 0.1306
vn 0.9765 -0.0000 0.2156
vn 0.1128 -0.9872 0.1127
vn 0.3906 -0.8338 0.3902
vn 0.1307 -0.9914 -0.0000
vn 0.1128 -0.9872 -0.1127
vn 0.3906 -0.8338 -0.3901
vn -0.0000 -0.9914 -0.1306
vn -0.0000 -1.0000 -0.0000
vn -0.1872 -0.4783 0.8580
vn -0.2103 -0.1255 0.9696
vn 0.7071 -0.0000 -0.7072
vn 0.8659 -0.5002 -0.0000
vn 0.7017 -0.1231 -0.7017
vn 0.2154 -0.0000 -0.9765
vn 0.7071 -0.0000 -0.7071
vn -0.7017 -0.1229 0.7018
vn -0.2155 -0.0000 0.9765
vn -0.7070 -0.0000 0.7072
vn 0.2103 -0.1255 0.9696
vn 0.7071 -0.0000 0.7071
vn 0.2154 -0.0000 0.9765
vn 0.9915 -0.1304 -0.0000
vn 0.9765 -0.0000 -0.2154
vn 0.9695 -0.1256 -0.2103
vn -0.2155 -0.0000 -0.9765
vn -0.7017 -0.1230 -0.7018
vn -0.7070 -0.0000 -0.7072
vn -0.9914 -0.1307 -0.0000
vn -0.9765 -0.0000 0.2156
vn 0.1872 -0.4783 0.8580
vn 0.7017 -0.1230 0.7017
vn 0.8580 -0.4783 0.1872
vn 0.9696 -0.1255 0.2103
vn 0.8661 -0.4999 -0.0000
vn 0.8580 -0.4783 -0.1872
vn -0.2104 -0.1255 -0.9695
vn -0.1873 -0.4783 -0.8580
vn -0.8579 -0.4785 -0.1872
vn -0.9695 -0.1259 -0.2105
vn -0.8659 -0.5002 -0.0000
vn -0.8579 -0.4785 0.1872
vn 0.6254 -0.4665 0.6255
vn 0.5001 -0.8660 -0.0000
vn 0.5203 -0.8452 -0.1222
vn 0.6255 -0.4665 -0.6254
vn -0.2104 -0.1255 0.9695
vn -0.1223 -0.8452 -0.5203
vn -0.6257 -0.4663 -0.6253
vn -0.5204 -0.8452 -0.1221
vn -0.5002 -0.8659 -0.0000
vn -0.5204 -0.8452 0.1220
vn -0.6257 -0.4662 0.6254
vn -0.1222 -0.8452 0.5203
vn 0.9765 -0.0000 0.2154
vn 0.3904 -0.8338 0.3903
vn 0.1306 -0.9914 -0.0000
vn 0.1127 -0.9872 -0.1127
vn 0.3903 -0.8338 -0.3904
vn -0.9765 -0.0000 -0.2156
vn -0.3906 -0.8338 -0.3902
vn -0.1307 -0.9914 -0.0000
vn -0.1128 -0.9872 0.1127
vn -0.3906 -0.8338 0.3901
vn 0.1873 -0.4783 -0.8580
vn 0.2103 -0.1255 -0.9696
vn -0.8660 -0.5001 -0.0000
vn -0.7071 -0.0000 0.7072
vt 0.680538 0.800257
vt 0.448286 0.801385
vt 0.448286 0.800256
vt 0.685969 0.528458
vt 0.947292 0.760748
vt 0.685969 0.760748
vt 0.680576 0.533541
vt 0.448286 0.799722
vt 0.448286 0.533541
vt 0.448286 0.528458
vt 0.680576 0.531787
vt 0.448286 0.531786
vt 0.680538 0.801920
vt 0.448243 0.802546
vt 0.448243 0.801919
vt 0.680576 0.532914
vt 0.448286 0.532914
vt 0.681110 0.528458
vt 0.681110 0.760748
vt 0.231072 0.512807
vt 0.445840 0.003140
vt 0.445364 0.513007
vt 0.002179 0.512798
vt 0.000870 0.514107
vt 0.000267 0.512825
vt 0.227362 0.722616
vt 0.228893 0.720450
vt 0.229128 0.721854
vt 0.445389 0.514919
vt 0.216470 0.512798
vt 0.217779 0.514108
vt 0.216497 0.514711
vt 0.227167 0.514633
vt 0.229160 0.512833
vt 0.229054 0.514657
vt 0.231547 0.002940
vt 0.447150 0.001831
vt 0.447752 0.003115
vt 0.936897 0.990571
vt 0.934789 0.989079
vt 0.936156 0.988850
vt 0.231522 0.001027
vt 0.002179 0.002935
vt 0.000870 0.001625
vt 0.002152 0.001022
vt 0.734273 0.990562
vt 0.732458 0.988470
vt 0.734330 0.988649
vt 0.447276 0.513036
vt 0.196865 0.987649
vt 0.194467 0.989335
vt 0.195315 0.987385
vt 0.227070 0.720297
vt 0.229062 0.516450
vt 0.227298 0.512408
vt 0.229636 0.002911
vt 0.228030 0.000629
vt 0.229886 0.001435
vt 0.934639 0.990853
vt 0.736124 0.988713
vt 0.732001 0.990382
vt 0.197029 0.989662
vt 0.194086 0.991502
vt 0.225287 0.720259
vt 0.227233 0.516836
vt 0.225434 0.514620
vt 0.225514 0.512208
vt 0.227719 0.003068
vt 0.225967 0.000267
vt 0.736654 0.992307
vt 0.736488 0.990541
vt 0.734242 0.992317
vt 0.731783 0.992207
vt 0.197066 0.995489
vt 0.197068 0.991633
vt 0.221677 0.722950
vt 0.225400 0.722955
vt 0.221798 0.720254
vt 0.225472 0.517014
vt 0.222061 0.517011
vt 0.222104 0.514618
vt 0.222026 0.512206
vt 0.225843 0.003106
vt 0.222173 0.003105
vt 0.937221 0.996106
vt 0.934601 0.992590
vt 0.937226 0.992481
vt 0.934596 0.995989
vt 0.736648 0.995708
vt 0.734238 0.995691
vt 0.731779 0.995797
vt 0.197025 0.997458
vt 0.194087 0.995618
vt 0.220015 0.720288
vt 0.220302 0.516830
vt 0.220243 0.512404
vt 0.220298 0.003067
vt 0.222050 0.000269
vt 0.934630 0.997725
vt 0.736478 0.997473
vt 0.731993 0.997621
vt 0.196858 0.999471
vt 0.194465 0.997783
vt 0.219717 0.722606
vt 0.218192 0.720436
vt 0.218474 0.516440
vt 0.220371 0.514628
vt 0.218382 0.512825
vt 0.218382 0.002908
vt 0.219988 0.000628
vt 0.936886 0.998014
vt 0.934774 0.999500
vt 0.736110 0.999299
vt 0.734265 0.997446
vt 0.732446 0.999533
vt 0.002152 0.514710
vt 0.230240 0.001629
vt 0.216470 0.002935
vt 0.217779 0.001626
vt 0.216497 0.001023
vt 0.446672 0.514317
vt 0.000267 0.002908
vt 0.229761 0.514115
vt 0.586852 0.524729
vt 0.584864 0.519002
vt 0.586841 0.518994
vt 0.918268 0.525146
vt 0.916300 0.519172
vt 0.918327 0.519184
vt 0.781829 0.524787
vt 0.779956 0.519000
vt 0.781932 0.519009
vt 0.597315 0.524964
vt 0.588818 0.518990
vt 0.597368 0.519041
vt 0.588735 0.524779
vt 0.455970 0.525048
vt 0.450494 0.519152
vt 0.455968 0.519143
vt 0.450533 0.525025
vt 0.448466 0.519164
vt 0.010679 0.984001
vt 0.002298 0.978100
vt 0.010682 0.978097
vt 0.002332 0.983979
vt 0.000267 0.978110
vt 0.787384 0.524973
vt 0.787458 0.519058
vt 0.781651 0.526115
vt 0.779944 0.524733
vt 0.778232 0.526113
vt 0.778061 0.524783
vt 0.597290 0.526385
vt 0.588564 0.526109
vt 0.455959 0.526444
vt 0.450509 0.526359
vt 0.448525 0.525126
vt 0.193500 0.984083
vt 0.191509 0.985321
vt 0.191487 0.983981
vt 0.010672 0.985394
vt 0.002309 0.985318
vt 0.000318 0.984082
vt 0.787343 0.526402
vt 0.781303 0.527531
vt 0.779940 0.526040
vt 0.778565 0.527522
vt 0.597264 0.527810
vt 0.588231 0.527518
vt 0.586856 0.526036
vt 0.916283 0.526379
vt 0.916259 0.525044
vt 0.455944 0.527844
vt 0.450382 0.527736
vt 0.448772 0.526579
vt 0.193249 0.985543
vt 0.191629 0.986700
vt 0.010664 0.986789
vt 0.002189 0.986697
vt 0.000569 0.985541
vt 0.918019 0.526599
vt 0.916410 0.527756
vt 0.787298 0.527840
vt 0.777979 0.518997
vt 0.682504 0.762690
vt 0.681553 0.761740
vt 0.682483 0.761302
vt 0.682517 0.943328
vt 0.681133 0.951937
vt 0.681127 0.943329
vt 0.682522 0.951917
vt 0.681571 0.952867
vt 0.811451 0.951910
vt 0.816947 0.953294
vt 0.811453 0.953302
vt 0.191520 0.978100
vt 0.193551 0.978111
vt 0.816926 0.951905
vt 0.817877 0.952855
vt 0.816913 0.771063
vt 0.818296 0.762659
vt 0.818302 0.771063
vt 0.816909 0.762679
vt 0.817859 0.761728
vt 0.688076 0.762685
vt 0.688075 0.761293
vt 0.688094 0.951921
vt 0.688093 0.943327
vt 0.585492 0.527526
vt 0.585144 0.526110
vt 0.584967 0.524782
vt 0.811450 0.943316
vt 0.816929 0.943316
vt 0.811435 0.761282
vt 0.816929 0.761290
vt 0.688092 0.953313
vt 0.910834 0.526463
vt 0.579497 0.527833
vt 0.579453 0.526395
vt 0.910823 0.525067
vt 0.579412 0.524966
vt 0.910825 0.519163
vt 0.579339 0.519051
vt 0.682501 0.953306
vt 0.811434 0.762674
vt 0.910848 0.527862
vt 0.787664 0.264428
vt 0.911033 0.264529
vt 0.579158 0.264416
vt 0.584737 0.264413
vt 0.455787 0.264504
vt 0.916513 0.264533
vt 0.191527 0.723490
vt 0.193551 0.723490
vt 0.778040 0.264420
vt 0.780063 0.264422
vt 0.782086 0.264424
vt 0.000268 0.723489
vt 0.002292 0.723489
vt 0.010683 0.723489
vt 0.448286 0.264509
vt 0.450306 0.264508
vt 0.586760 0.264411
vt 0.588783 0.264409
vt 0.597379 0.264407
vt 0.918534 0.264535
vt 0.769647 0.264417
vt 0.182933 0.723490
vt 0.688077 0.771075
vt 0.811435 0.771064
vt 0.682501 0.771076
vt 0.818319 0.943316
vt 0.818314 0.951925
vt 0.681110 0.771075
vt 0.182941 0.985397
vt 0.769741 0.527811
vt 0.769714 0.526388
vt 0.182935 0.984002
vt 0.769688 0.524967
vt 0.182932 0.978098
vt 0.769635 0.519047
vt 0.681115 0.762671
vt 0.182949 0.986793
vt 0.586796 0.260573
vt 0.584819 0.254493
vt 0.586796 0.254488
vt 0.918204 0.261094
vt 0.916237 0.254745
vt 0.918265 0.254757
vt 0.781772 0.260683
vt 0.779897 0.254556
vt 0.781871 0.254559
vt 0.593700 0.260809
vt 0.588773 0.254490
vt 0.593773 0.254526
vt 0.588677 0.260627
vt 0.455851 0.260878
vt 0.450455 0.254608
vt 0.455850 0.254600
vt 0.448485 0.260955
vt 0.448427 0.254619
vt 0.382774 0.726343
vt 0.385347 0.732608
vt 0.382780 0.732615
vt 0.387302 0.726274
vt 0.387373 0.732595
vt 0.786173 0.260863
vt 0.786253 0.254591
vt 0.781598 0.262001
vt 0.779889 0.260630
vt 0.778179 0.262006
vt 0.777999 0.260687
vt 0.593654 0.262241
vt 0.588502 0.261949
vt 0.455840 0.262275
vt 0.450494 0.260855
vt 0.450469 0.262189
vt 0.194146 0.726265
vt 0.196129 0.725031
vt 0.196155 0.726365
vt 0.382797 0.724952
vt 0.385297 0.726369
vt 0.385329 0.725042
vt 0.786119 0.262291
vt 0.781246 0.263411
vt 0.779894 0.261926
vt 0.778563 0.263428
vt 0.593604 0.263682
vt 0.588151 0.263361
vt 0.586796 0.261873
vt 0.916219 0.262328
vt 0.916195 0.260993
vt 0.455825 0.263674
vt 0.450342 0.263566
vt 0.448732 0.262408
vt 0.194393 0.724814
vt 0.196000 0.723655
vt 0.382832 0.723550
vt 0.385478 0.723669
vt 0.387062 0.724836
vt 0.917956 0.262547
vt 0.916345 0.263705
vt 0.786060 0.263732
vt 0.777923 0.254560
vt 0.954648 0.951902
vt 0.955596 0.952853
vt 0.954668 0.953289
vt 0.954655 0.767725
vt 0.956038 0.762659
vt 0.956047 0.767723
vt 0.954650 0.762680
vt 0.955600 0.761730
vt 0.825642 0.762675
vt 0.820229 0.761291
vt 0.825641 0.761283
vt 0.196117 0.732608
vt 0.194089 0.732598
vt 0.820249 0.762680
vt 0.819299 0.761729
vt 0.820246 0.949342
vt 0.818866 0.951927
vt 0.818854 0.949347
vt 0.820253 0.951903
vt 0.819304 0.952855
vt 0.950220 0.951909
vt 0.950222 0.953301
vt 0.950219 0.762674
vt 0.950218 0.767725
vt 0.585443 0.263361
vt 0.585089 0.261947
vt 0.584913 0.260626
vt 0.950219 0.949342
vt 0.820244 0.767725
vt 0.818854 0.767724
vt 0.956047 0.949346
vt 0.956035 0.951926
vt 0.201134 0.723545
vt 0.201150 0.724943
vt 0.775560 0.262266
vt 0.201162 0.726339
vt 0.775475 0.260835
vt 0.201163 0.732614
vt 0.775403 0.254571
vt 0.825643 0.951910
vt 0.825643 0.767725
vt 0.825641 0.953301
vt 0.820233 0.953291
vt 0.950221 0.761282
vt 0.910847 0.262410
vt 0.580619 0.263674
vt 0.580561 0.262231
vt 0.910837 0.261013
vt 0.580509 0.260801
vt 0.910842 0.254734
vt 0.580434 0.254525
vt 0.954671 0.761292
vt 0.825643 0.949343
vt 0.910861 0.263810
vt 0.818862 0.762659
vt 0.954655 0.949342
vt 0.775657 0.263722
vt 0.593837 0.000267
vt 0.775473 0.000317
vt 0.201161 0.986848
vt 0.196109 0.986848
vt 0.786534 0.000329
vt 0.911125 0.000468
vt 0.580292 0.000273
vt 0.584732 0.000271
vt 0.455706 0.000344
vt 0.916526 0.000474
vt 0.778042 0.000319
vt 0.382778 0.986850
vt 0.194086 0.986848
vt 0.780068 0.000322
vt 0.782094 0.000325
vt 0.387368 0.986850
vt 0.385345 0.986850
vt 0.450305 0.000347
vt 0.448286 0.000348
vt 0.586757 0.000270
vt 0.588783 0.000268
vt 0.918545 0.000476
vt 0.680538 0.801385
vt 0.947292 0.528458
vt 0.680576 0.799722
vt 0.680576 0.528458
vt 0.680538 0.802546
vt 0.231043 0.514720
vt 0.445868 0.001227
vt 0.195309 0.999733
vt 0.217953 0.721839
vt 0.218485 0.514648
vt 0.218132 0.001432
vt 0.936140 0.999732
vt 0.734317 0.999358
vt 0.779934 0.527477
vt 0.586861 0.527473
vt 0.449331 0.527904
vt 0.192683 0.986871
vt 0.001135 0.986869
vt 0.917461 0.527924
vt 0.779903 0.263357
vt 0.586797 0.263306
vt 0.449290 0.263734
vt 0.194950 0.723489
vt 0.386522 0.723515
vt 0.917396 0.263873
s 1
f 13/1/1 6/2/2 12/3/1
f 18/4/3 3/5/3 17/6/3
f 15/7/4 1/8/5 10/9/4
f 6/10/2 8/11/6 5/12/6
f 14/13/7 12/14/1 11/15/7
f 10/9/4 16/16/8 15/7/4
f 8/11/6 9/17/8 5/12/6
f 11/18/7 17/6/3 14/19/7
f 20/20/9 22/21/10 19/22/11
f 95/23/12 84/24/13 83/25/14
f 36/26/15 25/27/16 24/28/17
f 25/29/16 20/20/9 19/22/11
f 96/30/18 87/31/19 86/32/20
f 39/33/21 28/34/22 27/35/23
f 28/34/22 21/36/24 20/20/9
f 22/21/10 33/37/25 34/38/26
f 42/39/27 31/40/28 30/41/29
f 31/42/28 22/21/10 21/36/24
f 98/43/30 93/44/31 92/45/32
f 45/46/33 34/47/26 33/48/25
f 19/22/11 34/38/26 23/49/34
f 23/50/34 36/51/15 24/52/17
f 37/53/35 26/54/36 25/27/16
f 26/54/36 39/33/21 27/35/23
f 40/55/37 29/56/38 28/34/22
f 29/56/38 42/57/27 30/58/29
f 43/59/39 32/60/40 31/40/28
f 32/60/40 45/46/33 33/48/25
f 46/61/41 23/50/34 34/47/26
f 35/62/42 48/63/43 36/51/15
f 49/64/44 38/65/45 37/53/35
f 38/65/45 51/66/46 39/33/21
f 52/67/47 41/68/48 40/55/37
f 41/68/48 54/69/49 42/57/27
f 43/59/39 56/70/50 44/71/51
f 44/71/51 57/72/52 45/46/33
f 58/73/53 35/62/42 46/61/41
f 59/74/54 48/63/43 47/75/55
f 60/76/56 49/64/44 48/77/43
f 61/78/57 50/79/58 49/64/44
f 62/80/59 51/66/46 50/79/58
f 63/81/60 52/67/47 51/66/46
f 64/82/61 53/83/62 52/67/47
f 65/84/63 54/69/49 53/83/62
f 66/85/64 55/86/65 54/87/49
f 67/88/66 56/70/50 55/86/65
f 68/89/67 57/72/52 56/70/50
f 69/90/68 58/73/53 57/72/52
f 70/91/69 47/75/55 58/73/53
f 71/92/70 60/93/56 59/74/54
f 73/94/71 62/80/59 61/78/57
f 74/95/72 63/81/60 62/80/59
f 60/76/56 73/94/71 61/78/57
f 76/96/73 65/84/63 64/82/61
f 77/97/74 66/98/64 65/84/63
f 79/99/75 68/89/67 67/88/66
f 80/100/76 69/90/68 68/89/67
f 66/85/64 79/99/75 67/88/66
f 69/90/68 82/101/77 70/91/69
f 82/101/77 59/74/54 70/91/69
f 83/102/14 72/103/78 71/92/70
f 72/104/78 85/105/79 73/94/71
f 85/105/79 74/95/72 73/94/71
f 86/106/20 75/107/80 74/95/72
f 75/107/80 88/108/81 76/96/73
f 88/108/81 77/97/74 76/96/73
f 89/109/82 78/110/83 77/97/74
f 78/111/83 91/112/84 79/99/75
f 91/112/84 80/100/76 79/99/75
f 92/113/32 81/114/85 80/100/76
f 81/114/85 94/115/86 82/101/77
f 94/115/86 71/92/70 82/101/77
f 57/72/52 46/61/41 45/46/33
f 95/23/12 86/32/20 85/116/79
f 48/77/43 37/53/35 36/26/15
f 96/30/18 89/109/82 88/108/81
f 21/36/24 30/117/29 31/42/28
f 97/118/87 90/119/88 89/109/82
f 97/118/87 92/45/32 91/120/84
f 19/22/11 24/121/17 25/29/16
f 54/87/49 43/59/39 42/39/27
f 98/43/30 83/25/14 94/122/86
f 97/118/87 95/23/12 98/43/30
f 63/81/60 76/96/73 64/82/61
f 51/66/46 40/55/37 39/33/21
f 20/20/9 27/123/23 28/34/22
f 103/124/60 158/125/89 164/126/90
f 109/127/91 166/128/92 159/129/93
f 99/130/94 161/131/95 157/132/96
f 191/133/97 163/134/98 198/135/99
f 102/136/100 164/126/90 163/134/98
f 146/137/101 165/138/102 168/139/5
f 105/140/103 160/141/104 165/138/102
f 201/142/105 156/143/106 207/144/107
f 108/145/108 159/146/93 156/143/106
f 148/147/109 157/132/96 170/148/3
f 111/149/110 100/150/111 99/130/94
f 100/150/111 113/151/112 101/152/113
f 192/153/114 102/136/100 191/133/97
f 114/154/115 103/124/60 102/136/100
f 143/155/116 105/140/103 146/137/101
f 117/156/117 106/157/118 105/140/103
f 106/158/118 119/159/119 107/160/120
f 202/161/121 108/145/108 201/142/105
f 120/162/122 109/163/91 108/145/108
f 152/164/123 99/130/94 148/147/109
f 123/165/124 112/166/125 111/149/110
f 112/166/125 125/167/79 113/151/112
f 190/168/126 114/154/115 192/153/114
f 126/169/127 115/170/128 114/154/115
f 109/127/91 122/171/129 110/172/130
f 145/173/131 117/156/117 143/155/116
f 129/174/132 118/175/133 117/156/117
f 118/176/133 131/177/134 119/159/119
f 203/178/135 120/162/122 202/161/121
f 132/179/136 121/180/137 120/162/122
f 121/181/137 134/182/138 122/171/129
f 147/183/139 111/149/110 152/164/123
f 100/150/111 162/184/140 161/131/95
f 135/185/141 124/186/142 123/187/124
f 194/188/143 126/189/127 190/190/126
f 136/191/144 127/192/19 126/189/127
f 141/193/145 129/194/132 145/195/131
f 106/158/118 155/196/146 160/197/104
f 137/198/147 130/199/148 129/194/132
f 204/200/149 132/201/136 203/202/135
f 138/203/150 133/204/151 132/201/136
f 150/205/152 123/187/124 147/206/139
f 149/207/145 194/188/143 196/208/153
f 115/170/128 128/209/81 116/210/154
f 103/124/60 116/210/154 104/211/155
f 137/198/147 195/212/153 193/213/149
f 138/203/150 139/214/139 134/215/138
f 149/207/145 145/195/131 153/216/131
f 134/182/138 144/217/123 122/171/129
f 153/218/131 143/155/116 151/219/116
f 122/171/129 140/220/109 110/172/130
f 151/219/116 146/137/101 154/221/101
f 110/172/130 167/222/3 166/128/92
f 154/221/101 168/139/5 169/223/5
f 104/211/155 169/223/5 158/125/89
f 116/210/154 154/221/101 104/211/155
f 128/209/81 151/219/116 116/210/154
f 136/191/144 153/216/131 128/224/81
f 141/193/145 196/208/153 195/212/153
f 142/225/152 147/206/139 139/214/139
f 139/226/139 152/164/123 144/217/123
f 144/217/123 148/147/109 140/220/109
f 140/220/109 170/148/3 167/222/3
f 167/222/3 185/227/3 179/228/3
f 158/125/89 186/229/5 184/230/89
f 169/223/5 181/231/5 186/229/5
f 166/128/92 179/228/3 180/232/92
f 160/197/104 183/233/146 178/234/104
f 161/131/95 173/235/140 172/236/95
f 170/148/3 171/237/96 185/227/3
f 156/143/106 176/238/156 175/239/106
f 207/144/107 175/239/106 208/240/107
f 165/138/102 178/241/104 177/242/102
f 168/139/5 177/242/102 181/231/5
f 163/134/98 182/243/90 174/244/98
f 198/135/99 174/244/98 199/245/99
f 157/132/96 172/236/95 171/237/96
f 159/129/93 180/232/92 176/246/156
f 164/126/90 184/230/89 182/243/90
f 214/247/99 198/135/99 199/245/99
f 155/196/146 200/248/107 183/233/146
f 195/212/153 206/249/153 205/250/153
f 193/213/149 205/250/153 204/200/149
f 196/208/153 212/251/143 206/249/153
f 137/198/147 189/252/135 131/253/134
f 212/251/143 190/190/126 209/254/126
f 131/177/134 188/255/157 119/159/119
f 209/256/126 192/153/114 211/257/114
f 119/159/119 187/258/105 107/160/120
f 211/257/114 191/133/97 210/259/97
f 107/160/120 197/260/107 155/196/146
f 210/259/97 198/135/99 213/261/99
f 101/152/113 213/261/99 162/184/140
f 113/151/112 210/259/97 101/152/113
f 125/167/79 211/257/114 113/151/112
f 135/185/141 209/254/126 125/262/79
f 206/249/153 135/185/141 150/205/152
f 204/200/149 142/225/152 138/203/150
f 205/250/153 150/205/152 142/225/152
f 162/184/140 214/247/99 173/235/140
f 197/260/107 208/240/107 200/248/107
f 193/213/149 203/202/135 189/252/135
f 189/263/135 202/161/121 188/255/157
f 188/255/157 201/142/105 187/258/105
f 187/258/105 207/144/107 197/260/107
f 223/264/158 314/265/159 320/266/160
f 229/267/161 322/268/162 315/269/163
f 219/270/164 317/271/165 313/272/166
f 300/273/167 319/274/168 330/275/107
f 222/276/169 320/266/160 319/274/168
f 275/277/109 321/278/170 326/279/3
f 321/278/170 226/280/171 316/281/172
f 259/282/173 312/283/174 323/284/99
f 312/283/174 229/285/161 315/286/163
f 279/287/101 313/272/166 328/288/5
f 231/289/175 220/290/176 219/270/164
f 220/290/176 233/291/177 221/292/178
f 301/293/179 222/276/169 300/273/167
f 234/294/180 223/264/158 222/276/169
f 272/295/123 225/296/181 275/277/109
f 237/297/182 226/280/171 225/296/181
f 226/298/171 239/299/183 227/300/184
f 260/301/185 228/302/59 259/282/173
f 240/303/186 229/285/161 228/302/59
f 285/304/116 219/270/164 279/287/101
f 243/305/82 232/306/187 231/289/175
f 232/306/187 245/307/84 233/291/177
f 299/308/188 234/294/180 301/293/179
f 246/309/189 235/310/190 234/294/180
f 229/267/161 242/311/154 230/312/191
f 274/313/139 237/297/182 272/295/123
f 249/314/192 238/315/193 237/297/182
f 238/316/193 251/317/194 239/299/183
f 261/318/195 240/303/186 260/301/185
f 252/319/196 241/320/197 240/303/186
f 241/321/197 254/322/198 242/311/154
f 278/323/131 231/289/175 285/304/116
f 220/290/176 318/324/199 317/271/165
f 255/325/147 244/326/200 243/327/82
f 302/328/201 246/329/189 299/330/188
f 256/331/202 247/332/203 246/329/189
f 269/333/152 249/334/192 274/335/139
f 226/298/171 311/336/204 316/337/172
f 257/338/141 250/339/205 249/334/192
f 265/340/206 252/341/196 261/342/195
f 258/343/207 253/344/208 252/341/196
f 281/345/145 243/327/82 278/346/131
f 280/347/152 302/328/201 309/348/153
f 235/310/190 248/349/138 236/350/209
f 223/264/158 236/350/209 224/351/210
f 277/352/153 255/325/147 281/345/145
f 306/353/206 261/342/195 305/354/195
f 255/325/147 262/355/188 245/356/84
f 305/357/195 260/301/185 304/358/211
f 245/307/84 264/359/179 233/291/177
f 304/358/211 259/282/173 303/360/173
f 233/291/177 263/361/167 221/292/178
f 303/360/173 323/284/99 329/362/99
f 221/292/178 324/363/107 318/324/199
f 265/340/206 270/364/145 258/343/207
f 306/353/206 269/333/152 308/365/153
f 258/343/207 267/366/131 254/367/198
f 280/347/152 274/335/139 286/368/139
f 254/322/198 273/369/116 242/311/154
f 286/370/139 272/295/123 284/371/123
f 242/311/154 268/372/101 230/312/191
f 287/373/109 272/295/123 275/277/109
f 230/312/191 325/374/5 322/268/162
f 287/373/109 326/279/3 327/375/3
f 224/351/210 327/375/3 314/265/159
f 236/350/209 287/373/109 224/351/210
f 248/349/138 284/371/123 236/350/209
f 256/331/202 286/368/139 248/376/138
f 276/377/153 281/345/145 270/364/145
f 269/333/152 309/348/153 308/365/153
f 270/364/145 278/346/131 267/366/131
f 267/378/131 285/304/116 273/369/116
f 268/372/101 285/304/116 279/287/101
f 268/372/101 328/288/5 325/374/5
f 308/365/153 277/352/153 276/377/153
f 306/353/206 276/377/153 265/340/206
f 227/300/184 329/362/99 311/336/204
f 239/299/183 303/360/173 227/300/184
f 251/317/194 304/358/211 239/299/183
f 257/338/141 305/354/195 251/379/194
f 309/348/153 266/380/201 277/352/153
f 266/380/201 299/330/188 262/355/188
f 262/381/188 301/293/179 264/359/179
f 264/359/179 300/273/167 263/361/167
f 263/361/167 330/275/107 324/363/107
f 324/363/107 310/382/107 290/383/107
f 311/336/204 307/384/99 296/385/204
f 325/374/5 282/386/5 271/387/5
f 314/265/159 283/388/3 215/389/159
f 327/375/3 294/390/3 283/388/3
f 322/268/162 271/387/5 218/391/162
f 318/324/199 290/383/107 297/392/199
f 307/384/99 323/284/99 298/393/99
f 316/337/172 296/385/204 293/394/172
f 317/271/165 297/392/199 289/395/165
f 328/288/5 288/396/166 282/386/5
f 312/283/174 217/397/212 216/398/174
f 323/284/99 216/398/174 298/393/99
f 292/399/170 316/281/172 293/400/172
f 326/279/3 292/399/170 294/390/3
f 319/274/168 295/401/160 291/402/168
f 330/275/107 291/402/168 310/382/107
f 313/272/166 289/395/165 288/396/166
f 315/269/163 218/391/162 217/403/212
f 320/266/160 215/389/159 295/401/160
f 13/1/1 7/404/2 6/2/2
f 18/4/3 4/405/3 3/5/3
f 15/7/4 2/406/5 1/8/5
f 6/10/2 7/407/2 8/11/6
f 14/13/7 13/408/1 12/14/1
f 10/9/4 9/17/8 16/16/8
f 8/11/6 16/16/8 9/17/8
f 11/18/7 18/4/3 17/6/3
f 20/20/9 21/36/24 22/21/10
f 95/23/12 85/116/79 84/24/13
f 36/26/15 37/53/35 25/27/16
f 25/29/16 26/409/36 20/20/9
f 96/30/18 88/108/81 87/31/19
f 39/33/21 40/55/37 28/34/22
f 28/34/22 29/56/38 21/36/24
f 22/21/10 32/410/40 33/37/25
f 42/39/27 43/59/39 31/40/28
f 31/42/28 32/410/40 22/21/10
f 98/43/30 94/122/86 93/44/31
f 45/46/33 46/61/41 34/47/26
f 19/22/11 22/21/10 34/38/26
f 23/50/34 35/62/42 36/51/15
f 37/53/35 38/65/45 26/54/36
f 26/54/36 38/65/45 39/33/21
f 40/55/37 41/68/48 29/56/38
f 29/56/38 41/68/48 42/57/27
f 43/59/39 44/71/51 32/60/40
f 32/60/40 44/71/51 45/46/33
f 46/61/41 35/62/42 23/50/34
f 35/62/42 47/75/55 48/63/43
f 49/64/44 50/79/58 38/65/45
f 38/65/45 50/79/58 51/66/46
f 52/67/47 53/83/62 41/68/48
f 41/68/48 53/83/62 54/69/49
f 43/59/39 55/86/65 56/70/50
f 44/71/51 56/70/50 57/72/52
f 58/73/53 47/75/55 35/62/42
f 59/74/54 60/93/56 48/63/43
f 60/76/56 61/78/57 49/64/44
f 61/78/57 62/80/59 50/79/58
f 62/80/59 63/81/60 51/66/46
f 63/81/60 64/82/61 52/67/47
f 64/82/61 65/84/63 53/83/62
f 65/84/63 66/98/64 54/69/49
f 66/85/64 67/88/66 55/86/65
f 67/88/66 68/89/67 56/70/50
f 68/89/67 69/90/68 57/72/52
f 69/90/68 70/91/69 58/73/53
f 70/91/69 59/74/54 47/75/55
f 71/92/70 72/103/78 60/93/56
f 73/94/71 74/95/72 62/80/59
f 74/95/72 75/107/80 63/81/60
f 60/76/56 72/104/78 73/94/71
f 76/96/73 77/97/74 65/84/63
f 77/97/74 78/110/83 66/98/64
f 79/99/75 80/100/76 68/89/67
f 80/100/76 81/114/85 69/90/68
f 66/85/64 78/111/83 79/99/75
f 69/90/68 81/114/85 82/101/77
f 82/101/77 71/92/70 59/74/54
f 83/102/14 84/411/13 72/103/78
f 72/104/78 84/412/13 85/105/79
f 85/105/79 86/106/20 74/95/72
f 86/106/20 87/413/19 75/107/80
f 75/107/80 87/413/19 88/108/81
f 88/108/81 89/109/82 77/97/74
f 89/109/82 90/414/88 78/110/83
f 78/111/83 90/415/88 91/112/84
f 91/112/84 92/113/32 80/100/76
f 92/113/32 93/416/31 81/114/85
f 81/114/85 93/416/31 94/115/86
f 94/115/86 83/102/14 71/92/70
f 57/72/52 58/73/53 46/61/41
f 95/23/12 96/30/18 86/32/20
f 48/77/43 49/64/44 37/53/35
f 96/30/18 97/118/87 89/109/82
f 21/36/24 29/56/38 30/117/29
f 97/118/87 91/120/84 90/119/88
f 97/118/87 98/43/30 92/45/32
f 19/22/11 23/49/34 24/121/17
f 54/87/49 55/86/65 43/59/39
f 98/43/30 95/23/12 83/25/14
f 97/118/87 96/30/18 95/23/12
f 63/81/60 75/107/80 76/96/73
f 51/66/46 52/67/47 40/55/37
f 20/20/9 26/409/36 27/123/23
f 103/124/60 104/211/155 158/125/89
f 109/127/91 110/172/130 166/128/92
f 99/130/94 100/150/111 161/131/95
f 191/133/97 102/136/100 163/134/98
f 102/136/100 103/124/60 164/126/90
f 146/137/101 105/140/103 165/138/102
f 105/140/103 106/157/118 160/141/104
f 201/142/105 108/145/108 156/143/106
f 108/145/108 109/163/91 159/146/93
f 148/147/109 99/130/94 157/132/96
f 111/149/110 112/166/125 100/150/111
f 100/150/111 112/166/125 113/151/112
f 192/153/114 114/154/115 102/136/100
f 114/154/115 115/170/128 103/124/60
f 143/155/116 117/156/117 105/140/103
f 117/156/117 118/175/133 106/157/118
f 106/158/118 118/176/133 119/159/119
f 202/161/121 120/162/122 108/145/108
f 120/162/122 121/180/137 109/163/91
f 152/164/123 111/149/110 99/130/94
f 123/165/124 124/417/142 112/166/125
f 112/166/125 124/417/142 125/167/79
f 190/168/126 126/169/127 114/154/115
f 126/169/127 127/418/19 115/170/128
f 109/127/91 121/181/137 122/171/129
f 145/173/131 129/174/132 117/156/117
f 129/174/132 130/419/148 118/175/133
f 118/176/133 130/420/148 131/177/134
f 203/178/135 132/179/136 120/162/122
f 132/179/136 133/421/151 121/180/137
f 121/181/137 133/422/151 134/182/138
f 147/183/139 123/165/124 111/149/110
f 100/150/111 101/152/113 162/184/140
f 135/185/141 125/262/79 124/186/142
f 194/188/143 136/191/144 126/189/127
f 136/191/144 128/224/81 127/192/19
f 141/193/145 137/198/147 129/194/132
f 106/158/118 107/160/120 155/196/146
f 137/198/147 131/253/134 130/199/148
f 204/200/149 138/203/150 132/201/136
f 138/203/150 134/215/138 133/204/151
f 150/205/152 135/185/141 123/187/124
f 149/207/145 136/191/144 194/188/143
f 115/170/128 127/418/19 128/209/81
f 103/124/60 115/170/128 116/210/154
f 137/198/147 141/193/145 195/212/153
f 138/203/150 142/225/152 139/214/139
f 149/207/145 141/193/145 145/195/131
f 134/182/138 139/226/139 144/217/123
f 153/218/131 145/173/131 143/155/116
f 122/171/129 144/217/123 140/220/109
f 151/219/116 143/155/116 146/137/101
f 110/172/130 140/220/109 167/222/3
f 154/221/101 146/137/101 168/139/5
f 104/211/155 154/221/101 169/223/5
f 116/210/154 151/219/116 154/221/101
f 128/209/81 153/218/131 151/219/116
f 136/191/144 149/207/145 153/216/131
f 141/193/145 149/207/145 196/208/153
f 142/225/152 150/205/152 147/206/139
f 139/226/139 147/183/139 152/164/123
f 144/217/123 152/164/123 148/147/109
f 140/220/109 148/147/109 170/148/3
f 167/222/3 170/148/3 185/227/3
f 158/125/89 169/223/5 186/229/5
f 169/223/5 168/139/5 181/231/5
f 166/128/92 167/222/3 179/228/3
f 160/197/104 155/196/146 183/233/146
f 161/131/95 162/184/140 173/235/140
f 170/148/3 157/132/96 171/237/96
f 156/143/106 159/146/93 176/238/156
f 207/144/107 156/143/106 175/239/106
f 165/138/102 160/141/104 178/241/104
f 168/139/5 165/138/102 177/242/102
f 163/134/98 164/126/90 182/243/90
f 198/135/99 163/134/98 174/244/98
f 157/132/96 161/131/95 172/236/95
f 159/129/93 166/128/92 180/232/92
f 164/126/90 158/125/89 184/230/89
f 214/247/99 213/261/99 198/135/99
f 155/196/146 197/260/107 200/248/107
f 195/212/153 196/208/153 206/249/153
f 193/213/149 195/212/153 205/250/153
f 196/208/153 194/188/143 212/251/143
f 137/198/147 193/213/149 189/252/135
f 212/251/143 194/188/143 190/190/126
f 131/177/134 189/263/135 188/255/157
f 209/256/126 190/168/126 192/153/114
f 119/159/119 188/255/157 187/258/105
f 211/257/114 192/153/114 191/133/97
f 107/160/120 187/258/105 197/260/107
f 210/259/97 191/133/97 198/135/99
f 101/152/113 210/259/97 213/261/99
f 113/151/112 211/257/114 210/259/97
f 125/167/79 209/256/126 211/257/114
f 135/185/141 212/251/143 209/254/126
f 206/249/153 212/251/143 135/185/141
f 204/200/149 205/250/153 142/225/152
f 205/250/153 206/249/153 150/205/152
f 162/184/140 213/261/99 214/247/99
f 197/260/107 207/144/107 208/240/107
f 193/213/149 204/200/149 203/202/135
f 189/263/135 203/178/135 202/161/121
f 188/255/157 202/161/121 201/142/105
f 187/258/105 201/142/105 207/144/107
f 223/264/158 224/351/210 314/265/159
f 229/267/161 230/312/191 322/268/162
f 219/270/164 220/290/176 317/271/165
f 300/273/167 222/276/169 319/274/168
f 222/276/169 223/264/158 320/266/160
f 275/277/109 225/296/181 321/278/170
f 321/278/170 225/296/181 226/280/171
f 259/282/173 228/302/59 312/283/174
f 312/283/174 228/302/59 229/285/161
f 279/287/101 219/270/164 313/272/166
f 231/289/175 232/306/187 220/290/176
f 220/290/176 232/306/187 233/291/177
f 301/293/179 234/294/180 222/276/169
f 234/294/180 235/310/190 223/264/158
f 272/295/123 237/297/182 225/296/181
f 237/297/182 238/315/193 226/280/171
f 226/298/171 238/316/193 239/299/183
f 260/301/185 240/303/186 228/302/59
f 240/303/186 241/320/197 229/285/161
f 285/304/116 231/289/175 219/270/164
f 243/305/82 244/423/200 232/306/187
f 232/306/187 244/423/200 245/307/84
f 299/308/188 246/309/189 234/294/180
f 246/309/189 247/424/203 235/310/190
f 229/267/161 241/321/197 242/311/154
f 274/313/139 249/314/192 237/297/182
f 249/314/192 250/425/205 238/315/193
f 238/316/193 250/426/205 251/317/194
f 261/318/195 252/319/196 240/303/186
f 252/319/196 253/427/208 241/320/197
f 241/321/197 253/428/208 254/322/198
f 278/323/131 243/305/82 231/289/175
f 220/290/176 221/292/178 318/324/199
f 255/325/147 245/356/84 244/326/200
f 302/328/201 256/331/202 246/329/189
f 256/331/202 248/376/138 247/332/203
f 269/333/152 257/338/141 249/334/192
f 226/298/171 227/300/184 311/336/204
f 257/338/141 251/379/194 250/339/205
f 265/340/206 258/343/207 252/341/196
f 258/343/207 254/367/198 253/344/208
f 281/345/145 255/325/147 243/327/82
f 280/347/152 256/331/202 302/328/201
f 235/310/190 247/424/203 248/349/138
f 223/264/158 235/310/190 236/350/209
f 277/352/153 266/380/201 255/325/147
f 306/353/206 265/340/206 261/342/195
f 255/325/147 266/380/201 262/355/188
f 305/357/195 261/318/195 260/301/185
f 245/307/84 262/381/188 264/359/179
f 304/358/211 260/301/185 259/282/173
f 233/291/177 264/359/179 263/361/167
f 303/360/173 259/282/173 323/284/99
f 221/292/178 263/361/167 324/363/107
f 265/340/206 276/377/153 270/364/145
f 306/353/206 257/338/141 269/333/152
f 258/343/207 270/364/145 267/366/131
f 280/347/152 269/333/152 274/335/139
f 254/322/198 267/378/131 273/369/116
f 286/370/139 274/313/139 272/295/123
f 242/311/154 273/369/116 268/372/101
f 287/373/109 284/371/123 272/295/123
f 230/312/191 268/372/101 325/374/5
f 287/373/109 275/277/109 326/279/3
f 224/351/210 287/373/109 327/375/3
f 236/350/209 284/371/123 287/373/109
f 248/349/138 286/370/139 284/371/123
f 256/331/202 280/347/152 286/368/139
f 276/377/153 277/352/153 281/345/145
f 269/333/152 280/347/152 309/348/153
f 270/364/145 281/345/145 278/346/131
f 267/378/131 278/323/131 285/304/116
f 268/372/101 273/369/116 285/304/116
f 268/372/101 279/287/101 328/288/5
f 308/365/153 309/348/153 277/352/153
f 306/353/206 308/365/153 276/377/153
f 227/300/184 303/360/173 329/362/99
f 239/299/183 304/358/211 303/360/173
f 251/317/194 305/357/195 304/358/211
f 257/338/141 306/353/206 305/354/195
f 309/348/153 302/328/201 266/380/201
f 266/380/201 302/328/201 299/330/188
f 262/381/188 299/308/188 301/293/179
f 264/359/179 301/293/179 300/273/167
f 263/361/167 300/273/167 330/275/107
f 324/363/107 330/275/107 310/382/107
f 311/336/204 329/362/99 307/384/99
f 325/374/5 328/288/5 282/386/5
f 314/265/159 327/375/3 283/388/3
f 327/375/3 326/279/3 294/390/3
f 322/268/162 325/374/5 271/387/5
f 318/324/199 324/363/107 290/383/107
f 307/384/99 329/362/99 323/284/99
f 316/337/172 311/336/204 296/385/204
f 317/271/165 318/324/199 297/392/199
f 328/288/5 313/272/166 288/396/166
f 312/283/174 315/286/163 217/397/212
f 323/284/99 312/283/174 216/398/174
f 292/399/170 321/278/170 316/281/172
f 326/279/3 321/278/170 292/399/170
f 319/274/168 320/266/160 295/401/160
f 330/275/107 319/274/168 291/402/168
f 313/272/166 317/271/165 289/395/165
f 315/269/163 322/268/162 218/391/162
f 320/266/160 314/265/159 215/389/159
