# Blender 3.6.23
# www.blender.org
o sol.043
v 1.660803 0.831775 -1.442215
v 1.670477 0.832295 -1.441332
v 1.982135 0.832295 -1.414446
v 1.990964 0.832295 -1.413682
v 1.678420 0.832294 -1.636464
v 1.687246 0.832294 -1.635704
v 1.998904 0.832294 -1.608815
v 2.007733 0.832294 -1.608055
v 1.679060 0.834270 -1.643921
v 1.687890 0.832294 -1.643161
v 1.999548 0.832294 -1.616272
v 2.008374 0.834132 -1.615512
v 1.669836 0.818955 -1.433875
v 1.981490 0.818955 -1.406989
v 1.661650 0.829420 -1.442095
v 1.670477 0.829420 -1.441332
v 1.660356 0.820038 -1.437061
v 1.982135 0.829420 -1.414446
v 1.991216 0.820581 -1.406670
v 1.990964 0.829420 -1.413682
v 1.678420 0.829420 -1.636464
v 1.687246 0.829420 -1.635704
v 1.998904 0.829420 -1.608815
v 2.007733 0.829420 -1.608055
v 1.679060 0.831392 -1.643921
v 1.687890 0.829420 -1.643161
v 1.999548 0.829420 -1.616272
v 2.008374 0.831257 -1.615512
v 1.677575 0.817716 -1.636610
v 1.687246 0.818252 -1.635704
v 1.687890 0.818252 -1.643161
v 1.679060 0.820275 -1.643921
v 1.998904 0.818252 -1.608815
v 1.999679 0.817716 -1.617118
v 2.007733 0.818252 -1.608055
v 2.008374 0.820136 -1.615512
v 1.661650 0.818252 -1.442095
v 1.670477 0.818252 -1.441332
v 1.982135 0.818252 -1.414446
v 1.991811 0.817733 -1.413549
v 1.687890 0.815377 -1.643161
v 1.687246 0.815377 -1.635704
v 1.677563 0.815885 -1.636472
v 1.678555 0.817877 -1.644492
v 1.999570 0.815883 -1.617127
v 1.998904 0.815377 -1.608815
v 2.008973 0.817741 -1.615993
v 2.007733 0.815377 -1.608055
v 1.670477 0.815377 -1.441332
v 1.661650 0.815377 -1.442095
v 1.982135 0.815377 -1.414446
v 1.991821 0.815897 -1.413671
v 1.670123 0.815377 -1.437219
v 1.661295 0.816465 -1.437982
v 1.660199 0.820720 -1.435229
v 1.991373 0.819903 -1.408502
v 1.981739 0.828825 -1.409863
v 1.670083 0.828825 -1.436749
v 1.660199 0.827630 -1.435229
v 1.991375 0.828003 -1.408509
v 1.660359 0.828091 -1.437069
v 1.661295 0.828663 -1.437981
v 1.990609 0.828586 -1.409567
v 1.990320 0.827491 -1.406225
v 1.981779 0.829420 -1.410333
v 1.669836 0.828825 -1.433875
v 1.981490 0.828825 -1.406989
v 1.670123 0.829420 -1.437219
v 1.670082 0.818955 -1.436742
v 1.981740 0.818955 -1.409853
v 1.981779 0.815377 -1.410333
v 1.990609 0.816391 -1.409570
v 1.981783 0.818252 -1.410354
v 1.990609 0.819208 -1.409594
v 1.670125 0.818252 -1.437243
v 1.661295 0.819332 -1.438007
v 1.991353 0.830681 -1.408250
v 1.670007 0.832295 -1.435871
v 1.661179 0.831292 -1.436634
v 1.981663 0.832295 -1.408985
v 1.661028 0.817284 -1.434886
v 1.661006 0.817608 -1.434638
v 1.669836 0.815635 -1.433875
v 1.669858 0.815377 -1.434131
v 1.981512 0.815377 -1.407245
v 1.981490 0.815635 -1.406989
v 1.990320 0.817472 -1.406225
v 1.990342 0.817153 -1.406474
v 1.990588 0.819267 -1.409342
v 1.990566 0.819584 -1.409092
v 1.981762 0.818252 -1.410108
v 1.981740 0.818510 -1.409852
v 1.670082 0.818510 -1.436741
v 1.670104 0.818252 -1.436997
v 1.661252 0.819722 -1.437505
v 1.661273 0.819399 -1.437753
v 1.661006 0.830649 -1.434638
v 1.661020 0.830955 -1.434800
v 1.669850 0.832295 -1.434039
v 1.669836 0.832130 -1.433875
v 1.981490 0.832130 -1.406989
v 1.981504 0.832295 -1.407153
v 1.990334 0.830819 -1.406386
v 1.990320 0.830621 -1.406225
v 1.990582 0.828524 -1.409261
v 1.991375 0.828512 -1.408509
v 1.661268 0.828606 -1.437674
v 1.661254 0.828412 -1.437513
v 1.981753 0.829420 -1.410028
v 1.981739 0.829255 -1.409864
v 1.670097 0.829420 -1.436913
v 1.670083 0.829255 -1.436749
v 1.991451 0.829095 -1.409392
v 1.991811 0.829940 -1.413557
v 1.991820 0.831775 -1.413660
v 2.008590 0.831761 -1.608048
v 2.008579 0.829928 -1.607922
v 2.008975 0.831738 -1.615995
v 1.677563 0.829928 -1.636474
v 1.678554 0.831870 -1.644494
v 1.678471 0.833709 -1.644657
v 1.687902 0.831757 -1.644017
v 1.687901 0.817714 -1.644017
v 1.999548 0.818252 -1.616272
v 1.999678 0.831759 -1.617118
v 2.009077 0.833573 -1.616131
v 1.678470 0.819713 -1.644659
v 1.677575 0.831760 -1.636609
v 2.009078 0.819577 -1.616133
v 1.688018 0.815882 -1.644007
v 1.999548 0.815377 -1.616272
v 1.991216 0.827491 -1.406669
v 1.990320 0.820581 -1.406225
v 1.660795 0.829940 -1.442121
v 1.678420 0.818252 -1.636464
v 2.008579 0.815885 -1.607920
v 1.990964 0.815377 -1.413682
v 2.008374 0.817262 -1.615512
v 1.990964 0.818252 -1.413682
v 1.991451 0.818703 -1.409403
v 1.678420 0.815377 -1.636464
v 1.679060 0.817401 -1.643921
v 2.008590 0.817718 -1.608050
v 1.660805 0.815897 -1.442236
v 1.991471 0.816895 -1.409619
v 1.661650 0.832295 -1.442095
v 1.688017 0.829925 -1.644007
v 1.999571 0.829926 -1.617127
v 1.660436 0.829173 -1.437961
v 1.660793 0.817732 -1.442102
v 1.661006 0.827630 -1.434638
v 1.661006 0.820720 -1.434638
v 1.990492 0.831190 -1.408222
v 1.660335 0.830781 -1.436801
v 1.661252 0.820038 -1.437505
v 1.661254 0.828090 -1.437513
v 1.990568 0.828002 -1.409100
v 1.990566 0.819903 -1.409093
v 1.660455 0.816967 -1.438188
v 1.660433 0.818829 -1.437949
v 1.991230 0.817581 -1.406836
v 1.991216 0.817883 -1.406670
v 1.660199 0.818068 -1.435229
v 1.660221 0.817684 -1.435478
v 1.991373 0.819403 -1.408502
v 1.991414 0.818803 -1.408976
v 1.660396 0.818941 -1.437523
v 1.660356 0.819546 -1.437061
v 1.660208 0.830511 -1.435332
v 1.660188 0.830089 -1.435190
v 1.991216 0.830108 -1.406669
v 1.991243 0.830424 -1.406979
v 1.990568 0.828326 -1.409100
v 1.991409 0.828996 -1.408904
v 1.660359 0.828600 -1.437069
v 1.660393 0.829083 -1.437470
vn -0.2890 0.9563 0.0453
vn -0.0000 1.0000 -0.0000
vn -0.2622 0.9623 0.0728
vn 0.2779 0.9553 0.1011
vn 0.2473 0.9627 0.1102
vn 0.0963 0.9639 -0.2484
vn -0.1836 0.9657 -0.1834
vn -0.0473 0.9641 -0.2613
vn 0.2177 0.9635 -0.1560
vn 0.0282 -0.9995 -0.0104
vn -0.2526 -0.9627 -0.0967
vn -0.0000 -1.0000 -0.0000
vn -0.0286 -0.9995 -0.0165
vn 0.2653 -0.9623 -0.0594
vn 0.2393 -0.9556 -0.1720
vn 0.2950 -0.9535 -0.0618
vn -0.2809 -0.9525 -0.1175
vn -0.0480 -0.9547 -0.2936
vn 0.0927 -0.9555 -0.2800
vn 0.3479 -0.8796 -0.3243
vn 0.0347 -0.9992 0.0200
vn -0.1092 -0.9193 0.3780
vn -0.0404 -0.9991 0.0148
vn -0.3611 -0.9118 0.1957
vn 0.8514 0.5095 0.1245
vn 0.8589 -0.5122 0.0036
vn 0.8876 0.4456 0.1171
vn 0.6997 -0.4086 -0.5860
vn 0.6885 0.4254 -0.5874
vn 0.0421 0.4510 -0.8915
vn 0.1338 -0.5108 -0.8493
vn 0.0096 -0.5121 -0.8589
vn 0.1139 0.4480 -0.8868
vn -0.5897 -0.4085 -0.6967
vn -0.5777 0.4263 -0.6961
vn -0.8963 0.4422 -0.0333
vn -0.8452 -0.5137 -0.1477
vn -0.8608 0.5082 -0.0280
vn -0.8772 -0.4654 -0.1182
vn -0.0861 -0.0000 0.9963
vn -0.3771 0.2317 0.8967
vn -0.3493 -0.0031 0.9370
vn -0.2621 0.9621 0.0750
vn 0.0980 0.9638 -0.2480
vn -0.1823 0.9665 -0.1809
vn 0.2468 0.9625 0.1124
vn -0.0491 0.9640 -0.2613
vn -0.2466 0.9607 -0.1278
vn 0.2650 0.9616 -0.0718
vn -0.0497 -0.9544 -0.2942
vn -0.2814 -0.9521 -0.1198
vn -0.2911 -0.8752 -0.3865
vn 0.0944 -0.9552 -0.2804
vn 0.2957 -0.9531 -0.0639
vn 0.3492 -0.8785 -0.3261
vn -0.2946 -0.9523 0.0794
vn 0.2761 -0.9534 0.1219
vn 0.0860 -0.0010 -0.9963
vn 0.3614 -0.3131 -0.8783
vn 0.3515 -0.0009 -0.9362
vn 0.1149 0.4470 -0.8871
vn -0.5898 -0.4085 -0.6966
vn -0.5775 0.4264 -0.6962
vn 0.0411 0.4500 -0.8921
vn 0.0081 -0.5126 -0.8586
vn 0.6998 -0.4086 -0.5859
vn 0.6884 0.4257 -0.5873
vn 0.8880 0.4444 0.1182
vn 0.8887 0.4578 0.0240
vn 0.8586 -0.5127 0.0020
vn 0.0860 -0.0007 -0.9963
vn -0.1995 0.2959 -0.9341
vn -0.1860 -0.0009 -0.9825
vn -0.0115 -0.9242 -0.3818
vn -0.8446 -0.5141 -0.1493
vn -0.8812 0.4531 -0.1350
vn -0.8969 0.4410 -0.0323
vn 0.2555 0.3168 0.9134
vn -0.0449 0.3982 0.9162
vn -0.8789 -0.4745 0.0494
vn -0.8967 0.3285 -0.2966
vn -0.8579 0.4736 -0.1992
vn 0.3192 -0.9168 0.2402
vn 0.0378 -0.9197 0.3908
vn 0.8600 0.4805 0.1715
vn 0.9346 -0.3342 -0.1215
vn 0.8767 -0.4805 -0.0217
vn 0.3010 -0.8247 -0.4789
vn -0.0176 0.9238 -0.3825
vn 0.2351 0.9510 -0.2010
vn -0.0328 0.9993 -0.0190
vn -0.0921 0.9224 0.3750
vn 0.0402 0.9990 0.0212
vn -0.0393 0.9991 0.0128
vn 0.0891 0.9238 -0.3724
vn 0.0401 0.9991 -0.0145
vn -0.1098 0.3971 0.9112
vn -0.9104 0.0001 0.4138
vn -0.8262 -0.0005 -0.5634
vn -0.8264 -0.0002 -0.5630
vn 0.0322 0.9221 0.3857
vn 0.3195 0.9245 0.2080
vn 0.9489 -0.1313 -0.2870
vn 0.8262 -0.0000 0.5633
vn 0.9105 -0.0004 -0.4134
vn -0.3514 -0.0000 0.9362
vn 0.1860 -0.0000 0.9826
vn 0.8265 -0.0001 0.5630
vn 0.9480 0.1291 -0.2909
vn 0.9103 -0.0005 -0.4139
vn 0.0974 -0.3920 -0.9148
vn 0.0861 -0.0007 -0.9963
vn 0.3513 -0.0009 -0.9363
vn 0.0859 -0.0010 -0.9963
vn 0.0728 -0.9242 -0.3749
vn -0.2118 -0.9580 -0.1935
vn -0.8608 -0.4821 -0.1632
vn -0.8760 0.4822 0.0129
vn -0.1893 0.9455 -0.2648
vn 0.8586 -0.4756 0.1915
vn 0.8777 0.4780 -0.0358
vn 0.9342 0.3321 -0.1304
vn -0.1859 -0.0009 -0.9826
vn -0.9008 -0.3355 -0.2755
vn -0.8618 0.4350 0.2611
vn -0.2076 -0.3174 -0.9253
vn -0.1988 0.8034 -0.5612
vn -0.0374 -0.4008 0.9154
vn -0.1234 -0.4023 0.9072
vn 0.1050 0.3941 -0.9131
vn 0.0561 0.3925 -0.9181
vn 0.2360 -0.2964 0.9254
vn 0.8860 -0.4626 0.0301
vn -0.8831 0.1270 -0.4517
vn -0.9115 -0.0051 0.4113
vn -0.8858 -0.1337 -0.4444
vn 0.3588 0.3040 -0.8825
vn 0.3178 -0.7706 0.5524
vn -0.4227 -0.7562 0.4995
vn -0.4015 -0.2944 0.8672
vn 0.2960 0.8144 -0.4991
vn -0.8704 -0.4459 0.2089
vn -0.8950 -0.1186 0.4300
vn 0.8086 -0.1062 0.5786
vn -0.3966 0.7430 0.5392
vn 0.3323 0.7784 0.5327
vn 0.8372 0.4690 0.2811
vn 0.8075 0.1562 0.5688
vn 0.0589 -0.3929 -0.9177
vn -0.2196 -0.8306 -0.5117
vn -0.8970 0.0645 0.4373
vn -0.3433 0.9295 0.1350
vn -0.2901 -0.8764 -0.3844
vn 0.2158 0.9643 -0.1537
vn 0.8479 -0.5125 0.1354
vn 0.1351 -0.5112 -0.8488
vn -0.8580 -0.5137 -0.0073
vn 0.8146 -0.4417 0.3759
vn 0.1859 -0.0000 0.9826
vt 0.011074 0.498487
vt 0.306153 0.485053
vt 0.306150 0.498377
vt 0.011076 0.014698
vt 0.306153 0.014588
vt 0.011074 0.001369
vt 0.306156 0.001259
vt 0.317473 0.485048
vt 0.317435 0.498281
vt 0.317473 0.014582
vt 0.317443 0.001170
vt 0.950496 0.985375
vt 0.944260 0.998688
vt 0.944263 0.985365
vt 0.944241 0.514947
vt 0.950475 0.514960
vt 0.944243 0.501619
vt 0.950551 0.501588
vt 0.649621 0.984800
vt 0.649604 0.514382
vt 0.649601 0.501055
vt 0.649624 0.998123
vt 0.638318 0.984777
vt 0.638301 0.514359
vt 0.638143 0.501134
vt 0.323461 0.485156
vt 0.318775 0.014733
vt 0.323456 0.014741
vt 0.323551 0.001358
vt 0.053483 0.805645
vt 0.048081 0.512285
vt 0.050851 0.512071
vt 0.050708 0.500105
vt 0.053483 0.499863
vt 0.997181 0.984439
vt 0.997150 0.998521
vt 0.994409 0.984278
vt 0.994214 0.513727
vt 0.996985 0.513552
vt 0.997145 0.499476
vt 0.999929 0.499329
vt 0.024010 0.804192
vt 0.024060 0.816143
vt 0.021240 0.803961
vt 0.026841 0.510612
vt 0.024065 0.510444
vt 0.956982 0.014633
vt 0.954223 0.001296
vt 0.958789 0.001296
vt 0.939109 0.498377
vt 0.950432 0.485048
vt 0.950393 0.498279
vt 0.939111 0.014588
vt 0.939111 0.485053
vt 0.939114 0.001259
vt 0.950432 0.014582
vt 0.644033 0.498487
vt 0.644035 0.014698
vt 0.644030 0.485163
vt 0.644032 0.001369
vt 0.635635 0.015349
vt 0.624329 0.002004
vt 0.635803 0.001915
vt 0.624332 0.485744
vt 0.635635 0.485767
vt 0.624335 0.499071
vt 0.635797 0.498990
vt 0.624332 0.015326
vt 0.329693 0.001428
vt 0.329696 0.485169
vt 0.329693 0.498497
vt 0.993311 0.485328
vt 0.992557 0.498664
vt 0.992067 0.498663
vt 0.996985 0.014222
vt 0.997221 0.000150
vt 1.000000 0.000000
vt 0.997181 0.485113
vt 0.994214 0.014401
vt 0.997221 0.499192
vt 1.000000 0.499329
vt 0.029610 0.512255
vt 0.029538 0.500295
vt 0.032313 0.500047
vt 0.032245 0.806000
vt 0.026841 0.512475
vt 0.978382 0.014622
vt 0.979543 0.001285
vt 0.980021 0.001286
vt 0.950938 0.514961
vt 0.000000 0.803757
vt 0.005602 0.510238
vt 0.002769 0.803993
vt 0.002895 0.815939
vt 0.005671 0.816205
vt 0.956982 0.485335
vt 0.954264 0.498672
vt 0.951983 0.485335
vt 0.004501 0.504316
vt 0.007497 0.503341
vt 0.007321 0.503982
vt 0.323544 0.498430
vt 0.318780 0.485146
vt 0.051901 0.813830
vt 0.049343 0.812865
vt 0.049486 0.812127
vt 0.951021 0.501586
vt 0.637450 0.014698
vt 0.637809 0.001328
vt 0.637824 0.014698
vt 0.000000 0.485163
vt 0.002786 0.014702
vt 0.002781 0.485163
vt 0.637450 0.485164
vt 0.637823 0.485164
vt 0.971911 0.485335
vt 0.971911 0.014633
vt 0.951983 0.014633
vt 0.010220 0.499902
vt 0.021342 0.502786
vt 0.009163 0.502659
vt 0.000005 0.014704
vt 0.002803 0.001426
vt 0.048616 0.813468
vt 0.047097 0.816260
vt 0.047846 0.813475
vt 0.969241 0.001296
vt 0.969451 0.498672
vt 0.036645 0.816352
vt 0.034839 0.813601
vt 0.035595 0.813594
vt 0.993962 0.014622
vt 0.993311 0.014622
vt 0.011071 0.485163
vt 0.979816 0.498661
vt 0.978382 0.485330
vt 0.950960 0.985376
vt 0.950561 0.998660
vt 0.022967 0.504149
vt 0.025415 0.502420
vt 0.637807 0.498440
vt 0.031031 0.811946
vt 0.033768 0.812249
vt 0.033925 0.812893
vt 0.992200 0.001288
vt 0.022837 0.503407
vt 0.025028 0.500197
vt 0.992686 0.001288
vt 0.637419 0.498437
vt 0.976932 0.485335
vt 0.976932 0.014633
vt 0.977709 0.014622
vt 0.977709 0.485330
vt 0.974153 0.498672
vt 0.050708 0.805825
vt 0.008418 0.502651
vt 0.329690 0.014751
vt 0.020672 0.500001
vt 0.022112 0.502794
vt 0.979333 0.498661
vt 0.974636 0.498672
vt 0.977322 0.485336
vt 0.637057 0.014686
vt 0.974438 0.001297
vt 0.973949 0.001296
vt 0.977322 0.014633
vt 0.978858 0.498661
vt 0.979057 0.001286
vt 0.977322 0.014622
vt 0.005624 0.500234
vt 0.006209 0.499863
vt 0.032564 0.816388
vt 0.953760 0.001297
vt 0.953966 0.498672
vt 0.951733 0.485336
vt 0.951733 0.014633
vt 0.051529 0.815754
vt 0.051055 0.816225
vt 0.992858 0.498664
vt 0.993962 0.485327
vt 0.994214 0.485327
vt 0.951201 0.514953
vt 0.951223 0.985367
vt 0.992983 0.001288
vt 0.024391 0.499976
vt 0.002802 0.498540
vt 0.950663 0.500330
vt 0.944277 0.500362
vt 0.011161 0.000109
vt 0.649649 0.499797
vt 0.637298 0.500321
vt 0.649678 0.999434
vt 0.638154 0.998209
vt 0.318775 0.485165
vt 0.951733 0.014520
vt 0.318775 0.014522
vt 0.318478 0.000224
vt 0.951733 0.485168
vt 0.306268 0.499688
vt 0.318478 0.499285
vt 0.950401 0.001167
vt 0.951439 0.000220
vt 0.636968 0.015408
vt 0.958999 0.499958
vt 0.969451 0.499958
vt 0.944288 1.000000
vt 0.939229 0.499687
vt 0.951439 0.499285
vt 0.329832 0.499754
vt 0.624285 0.500329
vt 0.636968 0.485665
vt 0.637639 0.000067
vt 0.624273 0.000692
vt 0.939227 0.000000
vt 0.329839 0.000116
vt 0.636639 0.499802
vt 0.636637 0.001061
vt 0.011155 0.499797
vt 0.636985 0.984721
vt 0.637318 0.999065
vt 0.950659 0.999972
vt 0.643951 0.000109
vt 0.643940 0.499797
vt 0.306266 0.000000
vt 0.636968 0.514459
vt 0.958789 0.000012
vt 0.002967 0.000166
vt 0.992194 0.000002
vt 0.980014 0.000000
vt 0.979809 0.499947
vt 0.992060 0.499949
vt 0.323793 0.000047
vt 0.637616 0.499749
vt 0.973989 0.499958
vt 0.973834 0.000012
vt 0.973253 0.000011
vt 0.979053 0.499947
vt 0.979269 0.000000
vt 0.978361 0.000000
vt 0.969241 0.000011
vt 0.319746 0.000000
vt 0.318926 0.001305
vt 0.973533 0.499958
vt 0.319613 0.499643
vt 0.323774 0.499688
vt 0.637426 0.001325
vt 0.636989 0.000063
vt 0.954432 0.000012
vt 0.052130 0.816746
vt 0.051833 0.816992
vt 0.992830 0.499949
vt 0.993568 0.499949
vt 0.993700 0.000002
vt 0.992963 0.000002
vt 0.000726 0.499863
vt 0.002952 0.499849
vt 0.955070 0.000000
vt 0.951030 0.998658
vt 0.951411 0.999969
vt 0.001042 0.000179
vt 0.000024 0.001446
vt 0.955041 0.499958
vt 0.958999 0.498672
vt 0.999929 0.998655
vt 0.026841 0.816403
vt 0.994409 0.484949
vt 0.029466 0.805840
vt 0.002824 0.510414
vt 0.318916 0.498380
vt 0.032106 0.816140
vt 0.637057 0.485151
vt 0.977322 0.485330
vt 0.994214 0.014622
vt 0.000022 0.498557
vt 0.978152 0.499947
vt 0.636968 0.499744
vt 0.951411 0.500327
s 1
f 146/1/1 6/2/2 5/3/3
f 6/2/2 3/4/2 7/5/2
f 7/5/2 4/6/4 8/7/5
f 5/3/3 10/8/6 9/9/7
f 10/8/6 7/5/2 11/10/8
f 11/10/8 8/7/5 12/11/9
f 68/12/10 15/13/11 16/14/12
f 68/12/10 18/15/12 65/16/13
f 65/16/13 20/17/14 63/18/15
f 15/13/11 22/19/12 16/14/12
f 18/15/12 22/19/12 23/20/12
f 20/17/14 23/20/12 24/21/16
f 21/22/17 26/23/18 22/19/12
f 23/20/12 26/23/18 27/24/19
f 24/21/16 27/24/19 28/25/20
f 71/26/21 84/27/22 53/28/23
f 84/27/22 54/29/24 53/28/23
f 115/30/25 117/31/26 116/32/27
f 116/32/27 118/33/28 126/34/29
f 125/35/30 118/36/28 148/37/31
f 125/35/30 147/38/32 122/39/33
f 122/39/33 120/40/34 121/41/35
f 128/42/36 120/43/34 119/44/37
f 1/45/38 119/44/37 134/46/39
f 66/47/40 97/48/41 151/49/42
f 135/50/43 31/51/44 32/52/45
f 33/53/2 31/51/44 30/54/2
f 35/55/46 124/56/47 33/53/2
f 37/57/48 30/54/2 135/50/43
f 39/58/2 30/54/2 38/59/2
f 139/60/49 33/53/2 39/58/2
f 41/61/50 141/62/51 142/63/52
f 46/64/12 41/61/50 131/65/53
f 48/66/54 131/65/53 138/67/55
f 42/68/12 50/69/56 141/62/51
f 51/70/12 42/68/12 46/64/12
f 137/71/57 46/64/12 48/66/54
f 57/72/58 173/73/59 157/74/60
f 123/75/61 44/76/62 127/77/63
f 34/78/64 130/79/65 123/75/61
f 47/80/66 34/78/64 129/81/67
f 143/82/68 47/83/66 129/84/67
f 40/85/69 136/86/70 143/82/68
f 69/87/71 95/88/72 155/89/73
f 109/90/74 68/12/10 65/16/13
f 43/91/75 150/92/76 29/93/77
f 44/94/62 29/93/77 127/95/63
f 67/96/40 104/97/78 101/98/79
f 159/99/80 167/100/81 160/101/82
f 72/102/83 85/103/84 71/26/21
f 77/104/85 174/105/86 113/106/87
f 109/90/74 63/18/15 105/107/88
f 91/108/89 74/109/90 73/110/91
f 99/111/92 80/112/93 78/113/94
f 94/114/95 73/110/91 75/115/96
f 14/116/40 66/47/40 13/117/40
f 67/96/40 100/118/97 66/47/40
f 55/119/98 61/120/99 17/121/100
f 102/122/101 153/123/102 80/112/93
f 106/124/103 132/125/104 60/126/105
f 66/47/40 152/127/106 13/117/40
f 133/128/107 67/96/40 14/116/40
f 19/129/108 165/130/109 56/131/110
f 112/132/111 57/72/58 58/133/112
f 146/1/1 78/113/94 2/134/2
f 57/72/58 158/135/113 70/136/114
f 69/87/71 57/72/58 70/136/114
f 111/137/115 62/138/116 68/12/10
f 1/45/38 149/139/117 154/140/118
f 60/126/105 19/129/108 56/131/110
f 75/115/96 37/57/48 76/141/119
f 75/115/96 39/58/2 38/59/2
f 73/110/91 139/60/49 39/58/2
f 145/142/120 40/85/69 140/143/121
f 80/112/93 4/6/4 3/4/2
f 166/144/122 145/142/120 140/143/121
f 58/133/112 155/89/73 156/145/123
f 154/140/118 176/146/124 169/147/125
f 108/148/126 58/133/112 156/145/123
f 94/114/95 76/141/119 96/149/127
f 86/150/128 13/117/40 83/151/129
f 93/152/130 70/136/114 92/153/131
f 87/154/132 14/116/40 86/150/128
f 115/30/25 113/106/87 114/155/133
f 150/92/76 159/99/80 160/101/82
f 168/156/134 55/119/98 17/121/100
f 53/28/23 50/69/56 49/157/12
f 51/70/12 53/28/23 49/157/12
f 137/71/57 71/26/21 51/70/12
f 78/113/94 3/4/2 2/134/2
f 59/158/135 175/159/136 61/120/99
f 70/136/114 90/160/137 92/153/131
f 88/161/138 86/150/128 85/162/84
f 94/114/95 92/163/131 91/108/89
f 81/164/139 83/151/129 82/165/140
f 85/162/84 83/151/129 84/166/22
f 89/167/141 92/153/131 90/160/137
f 96/168/127 93/152/130 94/169/95
f 168/156/134 164/170/142 163/171/143
f 162/172/144 166/144/122 165/130/109
f 13/117/40 82/165/140 83/151/129
f 100/118/97 98/173/145 97/48/41
f 101/98/79 103/174/146 102/175/101
f 100/118/97 102/175/101 99/176/92
f 106/124/103 172/177/147 171/178/148
f 105/179/88 110/180/149 109/181/74
f 111/137/115 110/182/149 112/183/111
f 107/184/150 112/132/111 108/148/126
f 176/146/124 170/185/151 169/147/125
f 79/186/152 99/111/92 78/113/94
f 113/187/87 20/17/14 114/188/133
f 115/189/25 8/7/5 4/6/4
f 117/190/26 28/25/20 118/191/28
f 119/192/37 25/193/153 21/22/17
f 122/194/33 9/9/7 10/8/6
f 34/195/64 31/51/44 124/56/47
f 125/196/30 12/11/9 126/197/29
f 125/196/30 10/8/6 11/10/8
f 123/198/61 32/52/45 31/51/44
f 128/199/36 9/9/7 121/200/35
f 34/195/64 36/201/154 129/202/67
f 130/203/65 131/65/53 41/61/50
f 132/204/104 133/128/107 19/205/108
f 119/192/37 15/13/11 134/206/39
f 29/207/77 32/52/45 127/208/63
f 52/209/155 48/66/54 136/210/70
f 45/211/156 138/67/55 131/65/53
f 140/212/121 139/60/49 74/109/90
f 43/213/75 142/63/52 141/62/51
f 143/214/68 36/201/154 35/55/46
f 144/215/157 141/62/51 50/69/56
f 52/209/155 72/102/83 137/71/57
f 136/210/70 138/67/55 47/216/66
f 130/203/65 142/63/52 44/217/62
f 1/218/38 5/3/3 128/199/36
f 147/219/32 25/193/153 120/220/34
f 147/219/32 27/24/19 26/23/18
f 149/221/117 15/13/11 62/138/116
f 40/222/69 35/55/46 139/60/49
f 150/223/76 135/50/43 29/207/77
f 116/224/27 12/11/9 8/7/5
f 117/190/26 20/17/14 24/21/16
f 148/225/31 28/25/20 27/24/19
f 59/226/135 152/127/106 151/49/42
f 115/189/25 153/123/102 77/227/85
f 1/218/38 79/186/152 146/1/1
f 61/228/99 155/89/73 17/229/100
f 56/230/110 157/74/60 60/231/105
f 144/215/157 54/29/24 159/232/80
f 160/233/82 37/57/48 150/223/76
f 161/234/158 87/154/132 88/161/138
f 164/235/142 82/165/140 163/236/143
f 165/237/109 89/167/141 90/160/137
f 168/238/134 96/168/127 167/239/81
f 163/236/143 152/127/106 55/240/98
f 160/233/82 96/149/127 76/141/119
f 164/241/142 54/29/24 81/242/139
f 17/229/100 95/88/72 168/238/134
f 162/243/144 133/128/107 87/154/132
f 161/244/158 72/102/83 145/245/120
f 56/230/110 90/160/137 158/135/113
f 140/212/121 89/246/141 166/247/122
f 169/248/125 97/48/41 98/173/145
f 171/178/148 103/249/146 104/250/78
f 106/251/103 105/179/88 174/252/86
f 176/253/124 108/148/126 175/254/136
f 169/255/125 79/186/152 154/256/118
f 170/257/151 151/49/42 97/48/41
f 149/221/117 107/258/150 176/259/124
f 61/228/99 108/148/126 156/145/123
f 172/260/147 153/123/102 103/261/146
f 171/262/148 64/263/159 132/204/104
f 60/231/105 173/73/59 106/251/103
f 113/187/87 105/107/88 63/18/15
f 146/1/1 2/134/2 6/2/2
f 6/2/2 2/134/2 3/4/2
f 7/5/2 3/4/2 4/6/4
f 5/3/3 6/2/2 10/8/6
f 10/8/6 6/2/2 7/5/2
f 11/10/8 7/5/2 8/7/5
f 68/12/10 62/138/116 15/13/11
f 68/12/10 16/14/12 18/15/12
f 65/16/13 18/15/12 20/17/14
f 15/13/11 21/22/17 22/19/12
f 18/15/12 16/14/12 22/19/12
f 20/17/14 18/15/12 23/20/12
f 21/22/17 25/193/153 26/23/18
f 23/20/12 22/19/12 26/23/18
f 24/21/16 23/20/12 27/24/19
f 71/26/21 85/103/84 84/27/22
f 84/27/22 81/242/139 54/29/24
f 115/30/25 114/155/133 117/31/26
f 116/32/27 117/31/26 118/33/28
f 125/35/30 126/264/29 118/36/28
f 125/35/30 148/37/31 147/38/32
f 122/39/33 147/38/32 120/40/34
f 128/42/36 121/265/35 120/43/34
f 1/45/38 128/42/36 119/44/37
f 66/47/40 100/118/97 97/48/41
f 135/50/43 30/54/2 31/51/44
f 33/53/2 124/56/47 31/51/44
f 35/55/46 36/201/154 124/56/47
f 37/57/48 38/59/2 30/54/2
f 39/58/2 33/53/2 30/54/2
f 139/60/49 35/55/46 33/53/2
f 41/61/50 42/68/12 141/62/51
f 46/64/12 42/68/12 41/61/50
f 48/66/54 46/64/12 131/65/53
f 42/68/12 49/157/12 50/69/56
f 51/70/12 49/157/12 42/68/12
f 137/71/57 51/70/12 46/64/12
f 57/72/58 110/180/149 173/73/59
f 123/75/61 130/79/65 44/76/62
f 34/78/64 45/266/156 130/79/65
f 47/80/66 45/266/156 34/78/64
f 143/82/68 136/86/70 47/83/66
f 40/85/69 52/267/155 136/86/70
f 69/87/71 93/152/130 95/88/72
f 109/90/74 111/137/115 68/12/10
f 43/91/75 144/268/157 150/92/76
f 44/94/62 43/91/75 29/93/77
f 67/96/40 64/263/159 104/97/78
f 159/99/80 164/170/142 167/100/81
f 72/102/83 88/269/138 85/103/84
f 77/104/85 172/177/147 174/105/86
f 109/90/74 65/16/13 63/18/15
f 91/108/89 89/246/141 74/109/90
f 99/111/92 102/122/101 80/112/93
f 94/114/95 91/108/89 73/110/91
f 14/116/40 67/96/40 66/47/40
f 67/96/40 101/98/79 100/118/97
f 55/119/98 59/158/135 61/120/99
f 102/122/101 103/261/146 153/123/102
f 106/124/103 171/178/148 132/125/104
f 66/47/40 151/49/42 152/127/106
f 133/128/107 64/263/159 67/96/40
f 19/129/108 162/172/144 165/130/109
f 112/132/111 110/180/149 57/72/58
f 146/1/1 79/186/152 78/113/94
f 57/72/58 157/74/60 158/135/113
f 69/87/71 58/133/112 57/72/58
f 111/137/115 107/258/150 62/138/116
f 1/45/38 134/46/39 149/139/117
f 60/126/105 132/125/104 19/129/108
f 75/115/96 38/59/2 37/57/48
f 75/115/96 73/110/91 39/58/2
f 73/110/91 74/109/90 139/60/49
f 145/142/120 52/267/155 40/85/69
f 80/112/93 153/123/102 4/6/4
f 166/144/122 161/270/158 145/142/120
f 58/133/112 69/87/71 155/89/73
f 154/140/118 149/139/117 176/146/124
f 108/148/126 112/132/111 58/133/112
f 94/114/95 75/115/96 76/141/119
f 86/150/128 14/116/40 13/117/40
f 93/152/130 69/87/71 70/136/114
f 87/154/132 133/128/107 14/116/40
f 115/30/25 77/104/85 113/106/87
f 150/92/76 144/268/157 159/99/80
f 168/156/134 163/171/143 55/119/98
f 53/28/23 54/29/24 50/69/56
f 51/70/12 71/26/21 53/28/23
f 137/71/57 72/102/83 71/26/21
f 78/113/94 80/112/93 3/4/2
f 59/158/135 170/185/151 175/159/136
f 70/136/114 158/135/113 90/160/137
f 88/161/138 87/154/132 86/150/128
f 94/114/95 93/271/130 92/163/131
f 81/164/139 84/166/22 83/151/129
f 85/162/84 86/150/128 83/151/129
f 89/167/141 91/272/89 92/153/131
f 96/168/127 95/88/72 93/152/130
f 168/156/134 167/100/81 164/170/142
f 162/172/144 161/270/158 166/144/122
f 13/117/40 152/127/106 82/165/140
f 100/118/97 99/176/92 98/173/145
f 101/98/79 104/97/78 103/174/146
f 100/118/97 101/98/79 102/175/101
f 106/124/103 174/105/86 172/177/147
f 105/179/88 173/73/59 110/180/149
f 111/137/115 109/90/74 110/182/149
f 107/184/150 111/273/115 112/132/111
f 176/146/124 175/159/136 170/185/151
f 79/186/152 98/274/145 99/111/92
f 113/187/87 63/18/15 20/17/14
f 115/189/25 116/224/27 8/7/5
f 117/190/26 24/21/16 28/25/20
f 119/192/37 120/220/34 25/193/153
f 122/194/33 121/200/35 9/9/7
f 34/195/64 123/198/61 31/51/44
f 125/196/30 11/10/8 12/11/9
f 125/196/30 122/194/33 10/8/6
f 123/198/61 127/208/63 32/52/45
f 128/199/36 5/3/3 9/9/7
f 34/195/64 124/56/47 36/201/154
f 130/203/65 45/211/156 131/65/53
f 132/204/104 64/263/159 133/128/107
f 119/192/37 21/22/17 15/13/11
f 29/207/77 135/50/43 32/52/45
f 52/209/155 137/71/57 48/66/54
f 45/211/156 47/216/66 138/67/55
f 140/212/121 40/222/69 139/60/49
f 43/213/75 44/217/62 142/63/52
f 143/214/68 129/202/67 36/201/154
f 144/215/157 43/213/75 141/62/51
f 52/209/155 145/245/120 72/102/83
f 136/210/70 48/66/54 138/67/55
f 130/203/65 41/61/50 142/63/52
f 1/218/38 146/1/1 5/3/3
f 147/219/32 26/23/18 25/193/153
f 147/219/32 148/225/31 27/24/19
f 149/221/117 134/206/39 15/13/11
f 40/222/69 143/214/68 35/55/46
f 150/223/76 37/57/48 135/50/43
f 116/224/27 126/197/29 12/11/9
f 117/190/26 114/188/133 20/17/14
f 148/225/31 118/191/28 28/25/20
f 59/226/135 55/240/98 152/127/106
f 115/189/25 4/6/4 153/123/102
f 1/218/38 154/256/118 79/186/152
f 61/228/99 156/145/123 155/89/73
f 56/230/110 158/135/113 157/74/60
f 144/215/157 50/69/56 54/29/24
f 160/233/82 76/141/119 37/57/48
f 161/234/158 162/243/144 87/154/132
f 164/235/142 81/164/139 82/165/140
f 165/237/109 166/275/122 89/167/141
f 168/238/134 95/88/72 96/168/127
f 163/236/143 82/165/140 152/127/106
f 160/233/82 167/276/81 96/149/127
f 164/241/142 159/232/80 54/29/24
f 17/229/100 155/89/73 95/88/72
f 162/243/144 19/205/108 133/128/107
f 161/244/158 88/269/138 72/102/83
f 56/230/110 165/237/109 90/160/137
f 140/212/121 74/109/90 89/246/141
f 169/248/125 170/257/151 97/48/41
f 171/178/148 172/177/147 103/249/146
f 106/251/103 173/73/59 105/179/88
f 176/253/124 107/184/150 108/148/126
f 169/255/125 98/274/145 79/186/152
f 170/257/151 59/226/135 151/49/42
f 149/221/117 62/138/116 107/258/150
f 61/228/99 175/254/136 108/148/126
f 172/260/147 77/227/85 153/123/102
f 171/262/148 104/97/78 64/263/159
f 60/231/105 157/74/60 173/73/59
f 113/187/87 174/277/86 105/107/88
