# Blender 5.2.2 LTS
# www.blender.org
o ScoutJet.021
v -2.007768 -0.803454 -4.391347
v -1.977416 -0.805728 -4.391348
v -1.953219 -0.775668 -4.391347
v -1.963861 -0.743736 -4.391348
v -1.995499 -0.731419 -4.391348
v -2.025799 -0.752990 -4.391348
v -2.025759 -0.785540 -4.391348
v -1.998641 -0.807390 -4.235249
v -1.971197 -0.801220 -4.235249
v -1.955863 -0.782973 -4.235249
v -1.955770 -0.758394 -4.235249
v -1.970348 -0.738027 -4.235249
v -1.998874 -0.732850 -4.235249
v -2.023082 -0.748749 -4.235249
v -2.027306 -0.783700 -4.235249
v -2.007767 -0.803455 -5.103048
v -1.977417 -0.805728 -5.103049
v -1.955054 -0.780563 -5.103049
v -1.956340 -0.756745 -5.103049
v -1.970564 -0.738343 -5.103050
v -1.993113 -0.732458 -5.103049
v -2.015481 -0.740605 -5.103050
v -2.027838 -0.761782 -5.103050
v -2.025759 -0.785541 -5.103049
v -1.998640 -0.807390 -4.946949
v -1.971197 -0.801220 -4.946949
v -1.955863 -0.782974 -4.946949
v -1.958596 -0.749400 -4.946950
v -1.984208 -0.732979 -4.946950
v -2.009371 -0.736482 -4.946949
v -2.028974 -0.762477 -4.946950
v -2.022410 -0.790724 -4.946949
v 2.007735 -0.803439 -4.391347
v 1.977384 -0.805712 -4.391347
v 1.953186 -0.775652 -4.391347
v 1.966189 -0.740830 -4.391348
v 1.993081 -0.732442 -4.391347
v 2.015447 -0.740589 -4.391348
v 2.027806 -0.761765 -4.391348
v 2.025727 -0.785524 -4.391347
v 1.998608 -0.807374 -4.235248
v 1.963195 -0.796155 -4.235248
v 1.953978 -0.763454 -4.235248
v 1.974327 -0.734816 -4.235249
v 2.009339 -0.736466 -4.235248
v 2.028942 -0.762461 -4.235249
v 2.022377 -0.790708 -4.235248
v 2.007735 -0.803439 -5.103048
v 1.977384 -0.805712 -5.103049
v 1.955022 -0.780547 -5.103048
v 1.956308 -0.756728 -5.103048
v 1.970532 -0.738327 -5.103049
v 1.993081 -0.732442 -5.103048
v 2.015447 -0.740588 -5.103049
v 2.027806 -0.761765 -5.103049
v 2.025727 -0.785524 -5.103049
v 1.998608 -0.807374 -4.946949
v 1.971165 -0.801205 -4.946949
v 1.955830 -0.782958 -4.946949
v 1.958564 -0.749384 -4.946949
v 1.984175 -0.732963 -4.946949
v 2.009339 -0.736466 -4.946949
v 2.028942 -0.762461 -4.946949
v 2.022377 -0.790708 -4.946949
vn 0.4000 -0.9164 -0.0165
vn 0.5296 -0.8482 0.0010
vn -0.2330 -0.9723 0.0179
vn 0.9837 -0.1791 -0.0166
vn 0.9522 0.3051 0.0129
vn 0.9352 -0.3542 -0.0007
vn 0.7242 0.6893 -0.0194
vn 0.5350 0.8447 0.0113
vn -0.9218 -0.3875 -0.0046
vn -0.9290 -0.3697 0.0153
vn -0.8894 0.4570 -0.0104
vn 0.3783 -0.9256 -0.0150
vn 0.5266 -0.8501 0.0064
vn -0.1959 -0.9805 0.0150
vn 0.5497 0.8353 -0.0129
vn 0.2120 0.9772 0.0143
vn 0.8584 0.5128 0.0143
vn -0.0469 0.9988 -0.0106
vn -0.6429 0.7659 -0.0067
vn -0.5056 0.8627 0.0131
vn -0.9755 0.2198 -0.0061
vn -0.9783 0.2067 0.0136
vn -0.9059 -0.4233 -0.0072
vn -0.8286 -0.5596 0.0129
vn 0.4195 -0.9076 -0.0139
vn 0.1574 -0.9873 0.0211
vn -0.3942 -0.9187 -0.0250
vn -0.7192 -0.6943 0.0267
vn -0.9873 -0.1564 -0.0270
vn -0.9848 0.1726 0.0218
vn -0.6870 0.7264 -0.0209
vn -0.4377 0.8989 0.0205
vn 0.0266 0.9995 -0.0144
vn 0.4684 0.8833 0.0183
vn 0.6429 0.7659 -0.0067
vn 0.9783 0.2067 0.0136
vn 0.9755 0.2198 -0.0061
vn 0.9060 -0.4233 -0.0072
vn 0.4196 -0.9076 -0.0139
vn 0.1959 -0.9805 0.0150
vn -0.3783 -0.9256 -0.0150
vn -0.9398 0.3416 -0.0052
vn -0.8584 0.5128 0.0143
vn -0.5497 0.8353 -0.0129
vn -0.2120 0.9772 0.0143
vn 0.0469 0.9988 -0.0106
vn 0.5056 0.8627 0.0131
vn -0.4224 -0.9064 -0.0086
vn -0.8468 0.5319 0.0046
vn -0.1255 0.9920 -0.0150
vn -0.2048 0.9788 0.0045
vn 0.9457 -0.3250 -0.0022
vn 0.9511 -0.3090 0.0022
vn -0.4195 -0.9076 -0.0139
vn 0.9399 0.3415 -0.0052
vn 0.8286 -0.5596 0.0129
vn -0.9457 -0.3250 -0.0022
vn -0.5266 -0.8501 0.0064
vn -0.9511 -0.3089 0.0022
vt 0.932954 0.336862
vt 0.909342 0.245193
vt 0.967822 0.245192
vt 0.774286 0.336861
vt 0.700797 0.245192
vt 0.806572 0.245192
vt 0.629461 0.336862
vt 0.592761 0.245193
vt 0.181471 0.336862
vt 0.190910 0.245192
vt 0.322082 0.336862
vt 0.932957 0.754807
vt 0.909340 0.663138
vt 0.967821 0.663138
vt 0.592820 0.754808
vt 0.530519 0.663139
vt 0.661596 0.663139
vt 0.492526 0.754807
vt 0.389865 0.754808
vt 0.421145 0.663139
vt 0.284334 0.754808
vt 0.280511 0.663139
vt 0.181471 0.754808
vt 0.155534 0.663138
vt 0.072176 0.336861
vt 0.030420 0.245192
vt -0.015066 0.336862
vt 0.932955 0.336862
vt 0.870120 0.245192
vt 0.774286 0.336861
vt 0.723284 0.245192
vt 0.613894 0.336862
vt 0.572116 0.245193
vt 0.492524 0.336862
vt 0.421144 0.245193
vt 0.389867 0.336862
vt 0.280510 0.245193
vt 0.284337 0.336862
vt 0.181474 0.336862
vt 0.072177 0.754807
vt 0.030419 0.663138
vt -0.015065 0.754808
vt 0.693279 0.754807
vt 0.661596 0.663139
vt 0.592819 0.754808
vt 0.530521 0.663139
vt 0.492524 0.754808
vt 0.421145 0.663138
vt 0.389868 0.754808
vt 0.280510 0.663139
vt 0.284338 0.754808
vt 0.181474 0.754808
vt 0.072179 0.336861
vt -0.015066 0.336862
vt 0.030421 0.245192
vt 0.342831 0.245193
vt 0.482591 0.336862
vt 0.467816 0.245192
vt 0.796135 0.754807
vt 0.806574 0.663138
vt 0.072174 0.754807
vt -0.015068 0.754808
vt 0.030418 0.663138
vt 0.693282 0.754808
vt 0.155535 0.245192
vt 0.796136 0.754807
vt 0.909343 0.663138
vt 0.806573 0.663138
vt 0.932955 0.754807
vt 0.155533 0.663138
s 1
f 2/1/1 9/2/2 8/3/3
f 3/4/4 11/5/5 10/6/6
f 4/7/7 12/8/8 11/5/5
f 7/9/9 15/10/10 6/11/11
f 17/12/12 26/13/13 25/14/14
f 20/15/15 29/16/16 28/17/17
f 21/18/18 29/16/16 20/15/15
f 22/19/19 30/20/20 21/18/18
f 23/21/21 31/22/22 22/19/19
f 24/23/23 31/22/22 23/21/21
f 24/23/23 32/24/24 31/22/22
f 33/25/25 41/26/26 34/27/27
f 34/28/27 42/29/28 35/30/29
f 35/30/29 43/31/30 36/32/31
f 44/33/32 37/34/33 36/32/31
f 45/35/34 38/36/35 37/34/33
f 46/37/36 39/38/37 38/36/35
f 46/37/36 40/39/38 39/38/37
f 48/40/39 57/41/40 49/42/41
f 51/43/42 60/44/43 52/45/44
f 61/46/45 53/47/46 52/45/44
f 62/48/47 54/49/35 53/47/46
f 63/50/36 55/51/37 54/49/35
f 63/50/36 56/52/38 55/51/37
f 9/2/2 3/4/4 10/6/6
f 1/53/48 2/54/1 8/55/3
f 14/56/49 5/57/50 6/11/11
f 3/4/4 4/7/7 11/5/5
f 4/7/7 5/57/50 12/8/8
f 5/57/50 13/58/51 12/8/8
f 15/10/10 1/53/48 8/55/3
f 6/11/11 15/10/10 14/56/49
f 26/13/13 18/59/52 27/60/53
f 16/61/54 17/62/12 25/63/14
f 27/60/53 19/64/55 28/17/17
f 32/24/24 16/61/54 25/63/14
f 19/64/55 20/15/15 28/17/17
f 21/18/18 30/20/20 29/16/16
f 22/19/19 31/22/22 30/20/20
f 33/25/25 47/65/56 41/26/26
f 34/28/27 41/3/26 42/29/28
f 35/30/29 42/29/28 43/31/30
f 36/32/31 43/31/30 44/33/32
f 44/33/32 45/35/34 37/34/33
f 45/35/34 46/37/36 38/36/35
f 40/39/38 46/37/36 47/65/56
f 50/66/57 58/67/58 59/68/59
f 49/69/41 57/14/40 58/67/58
f 51/43/42 59/68/59 60/44/43
f 48/40/39 64/70/56 57/41/40
f 52/45/44 60/44/43 61/46/45
f 61/46/45 62/48/47 53/47/46
f 62/48/47 63/50/36 54/49/35
f 56/52/38 63/50/36 64/70/56
f 9/2/2 2/1/1 3/4/4
f 14/56/49 13/58/51 5/57/50
f 15/10/10 7/9/9 1/53/48
f 26/13/13 17/12/12 18/59/52
f 27/60/53 18/59/52 19/64/55
f 32/24/24 24/23/23 16/61/54
f 33/25/25 40/39/38 47/65/56
f 50/66/57 49/69/41 58/67/58
f 51/43/42 50/66/57 59/68/59
f 48/40/39 56/52/38 64/70/56
